<svg preserveAspectRatio="none" width="100%" height="100%" overflow="visible" style="display: block;" viewBox="0 0 859 76" fill="none" xmlns="http://www.w3.org/2000/svg">
<path id="Vector 38" d="M0.345934 9C0.345934 13.7795 4.22049 17.6541 9 17.6541C13.7795 17.6541 17.6541 13.7795 17.6541 9C17.6541 4.22049 13.7795 0.345934 9 0.345934C4.22049 0.345934 0.345934 4.22049 0.345934 9ZM9 73.9055H7.37736V75.5281H9V73.9055ZM849.526 73.9055V75.5281H851.149V73.9055H849.526ZM840.872 9C840.872 13.7795 844.747 17.6541 849.526 17.6541C854.306 17.6541 858.18 13.7795 858.18 9C858.18 4.22049 854.306 0.345934 849.526 0.345934C844.747 0.345934 840.872 4.22049 840.872 9ZM9 9H7.37736V73.9055H9H10.6226V9H9ZM9 73.9055V75.5281H849.526V73.9055V72.2829H9V73.9055ZM849.526 73.9055H851.149V9H849.526H847.904V73.9055H849.526Z" fill="var(--stroke-0, #66BD82)"/>
</svg>
