<svg preserveAspectRatio="none" width="100%" height="100%" overflow="visible" style="display: block;" viewBox="0 0 387 222" fill="none" xmlns="http://www.w3.org/2000/svg">
<g id="Group 11362">
<rect id="Rectangle 19" x="35.6969" y="1.62264" width="311.546" height="94.113" stroke="var(--stroke-0, #6496D3)" stroke-width="3.24527"/>
<rect id="Rectangle 21" x="35.6969" y="125.677" width="311.546" height="94.113" stroke="var(--stroke-0, #6496D3)" stroke-width="3.24527"/>
<path id="Rectangle 20" d="M348.263 95.7402L381.85 124.947H4.05664L34.7266 95.7402H348.263Z" stroke="var(--stroke-0, #6496D3)" stroke-width="3.24527"/>
<path id="Vector 28" d="M35.6992 137.93H347.246" stroke="var(--stroke-0, #6496D3)" stroke-width="3.24527"/>
<rect id="Rectangle 22" x="58.4156" y="147.662" width="272.603" height="48.6791" stroke="var(--stroke-0, #6496D3)" stroke-width="3.24527"/>
<rect id="Rectangle 23" x="58.4156" y="24.3414" width="25.9622" height="48.6791" stroke="var(--stroke-0, #6496D3)" stroke-width="3.24527"/>
<rect id="Rectangle 24" x="103.849" y="24.3414" width="25.9622" height="48.6791" stroke="var(--stroke-0, #6496D3)" stroke-width="3.24527"/>
<rect id="Rectangle 25" x="149.283" y="24.3414" width="25.9622" height="48.6791" stroke="var(--stroke-0, #6496D3)" stroke-width="3.24527"/>
<rect id="Rectangle 26" x="194.716" y="24.3414" width="25.9622" height="48.6791" stroke="var(--stroke-0, #6496D3)" stroke-width="3.24527"/>
<rect id="Rectangle 27" x="240.15" y="24.3414" width="25.9622" height="48.6791" stroke="var(--stroke-0, #6496D3)" stroke-width="3.24527"/>
<rect id="Rectangle 28" x="285.586" y="24.3414" width="25.9622" height="48.6791" stroke="var(--stroke-0, #6496D3)" stroke-width="3.24527"/>
<path id="Vector 29" d="M58.4141 184.984H331.017" stroke="var(--stroke-0, #6496D3)" stroke-width="3.24527"/>
<path id="Vector 30" d="M69.7732 95.7422L53.5469 124.95" stroke="var(--stroke-0, #6496D3)" stroke-width="3.24527"/>
<path id="Vector 32" d="M131.435 95.7422L121.699 124.95" stroke="var(--stroke-0, #6496D3)" stroke-width="3.24527"/>
<path id="Vector 33" d="M262.868 95.7422L274.227 124.95" stroke="var(--stroke-0, #6496D3)" stroke-width="3.24527"/>
<path id="Vector 31" d="M313.168 95.7422L329.395 124.95" stroke="var(--stroke-0, #6496D3)" stroke-width="3.24527"/>
<path id="Vector 34" d="M189.85 97.3672V124.952" stroke="var(--stroke-0, #6496D3)" stroke-width="3.24527"/>
</g>
</svg>
