<svg preserveAspectRatio="none" width="100%" height="100%" overflow="visible" style="display: block;" viewBox="0 0 536 53" fill="none" xmlns="http://www.w3.org/2000/svg">
<path id="Vector 37" d="M0.345934 9C0.345934 13.7795 4.22049 17.6541 9 17.6541C13.7795 17.6541 17.6541 13.7795 17.6541 9C17.6541 4.22049 13.7795 0.345934 9 0.345934C4.22049 0.345934 0.345934 4.22049 0.345934 9ZM9 51.1886H7.37736V52.8112H9V51.1886ZM526.621 51.1886V52.8112H528.244V51.1886H526.621ZM517.967 9C517.967 13.7795 521.842 17.6541 526.621 17.6541C531.401 17.6541 535.275 13.7795 535.275 9C535.275 4.22049 531.401 0.345934 526.621 0.345934C521.842 0.345934 517.967 4.22049 517.967 9ZM9 9H7.37736V51.1886H9H10.6226V9H9ZM9 51.1886V52.8112H526.621V51.1886V49.5659H9V51.1886ZM526.621 51.1886H528.244V9H526.621H524.999V51.1886H526.621Z" fill="var(--stroke-0, #66BD82)"/>
</svg>
