<svg preserveAspectRatio="none" width="100%" height="100%" overflow="visible" style="display: block;" viewBox="0 0 311 367" fill="none" xmlns="http://www.w3.org/2000/svg">
<g id="Group 11370">
<path id="Polygon 4" d="M222.022 222.681H177.901L199.962 38.3721L222.022 222.681Z" stroke="var(--stroke-0, #FFDA00)" stroke-width="3.24527"/>
<path id="Vector 13" d="M178.869 216.188L156.152 363.848L221.058 222.678" stroke="var(--stroke-0, #FFDA00)" stroke-width="3.24527"/>
<path id="Vector 14" d="M221.056 214.562L258.376 365.468L178.867 222.676" stroke="var(--stroke-0, #FFDA00)" stroke-width="3.24527"/>
<path id="Polygon 5" d="M282.571 96.1152H117.35L199.96 75.0723L282.571 96.1152Z" stroke="var(--stroke-0, #FFDA00)" stroke-width="3.24527"/>
<path id="Polygon 6" d="M282.571 135.061H117.35L199.96 114.018L282.571 135.061Z" stroke="var(--stroke-0, #FFDA00)" stroke-width="3.24527"/>
<path id="Polygon 7" d="M282.571 173.998H117.35L199.96 152.955L282.571 173.998Z" stroke="var(--stroke-0, #FFDA00)" stroke-width="3.24527"/>
<path id="Vector 15" d="M182.113 195.096H217.811M183.736 167.512H199.151H214.566M190.226 128.568H209.698M195.094 89.625H206.453" stroke="var(--stroke-0, #FFDA00)" stroke-width="3.24527"/>
<path id="Vector 16" d="M2 2C38.7798 40.4024 131.162 109.094 206.452 76.6413M2 36.0754C39.3207 75.5596 133.109 146.739 209.698 115.585M2 76.6413C47.9747 123.157 154.852 204.181 214.566 156.151" stroke="var(--stroke-0, #FFDA00)" stroke-width="3.24527"/>
</g>
</svg>
