<svg width="819" height="590" viewBox="0 0 819 590" fill="none" xmlns="http://www.w3.org/2000/svg">
<path d="M277.971 402.839L276.822 403.803L277.971 402.839ZM353.698 216.702L354.854 215.747L353.698 216.702ZM190.822 273.527L192.135 272.801L190.822 273.527ZM203.658 108.741C204.423 108.423 205.301 108.785 205.619 109.55L210.804 122.015C211.122 122.779 210.76 123.657 209.995 123.976C209.23 124.294 208.352 123.932 208.034 123.167L203.425 112.087L192.345 116.695C191.581 117.013 190.703 116.651 190.384 115.886C190.066 115.121 190.428 114.243 191.193 113.925L203.658 108.741ZM422.324 417.017L423.203 418.233C422.67 418.618 422.123 419.001 421.565 419.381L420.72 418.142L419.876 416.902C420.412 416.537 420.935 416.17 421.445 415.801L422.324 417.017ZM417.388 420.287L418.169 421.568C417.046 422.252 415.883 422.926 414.681 423.587L413.958 422.272L413.235 420.958C414.399 420.318 415.524 419.667 416.607 419.006L417.388 420.287ZM410.448 424.11L411.118 425.453C409.939 426.041 408.73 426.616 407.491 427.178L406.872 425.812L406.252 424.445C407.458 423.899 408.634 423.339 409.779 422.768L410.448 424.11ZM403.236 427.383L403.808 428.77C402.587 429.273 401.342 429.763 400.075 430.237L399.549 428.832L399.024 427.427C400.261 426.964 401.475 426.487 402.665 425.997L403.236 427.383ZM395.816 430.16L396.297 431.581C395.043 432.005 393.77 432.414 392.479 432.807L392.043 431.372L391.606 429.937C392.868 429.553 394.111 429.153 395.336 428.739L395.816 430.16ZM388.232 432.467L388.625 433.915C387.344 434.262 386.049 434.593 384.739 434.907L384.39 433.448L384.041 431.989C385.321 431.683 386.588 431.359 387.839 431.02L388.232 432.467ZM380.529 434.311L380.835 435.78C379.536 436.05 378.225 436.303 376.904 436.537L376.642 435.06L376.381 433.583C377.673 433.354 378.954 433.107 380.224 432.843L380.529 434.311ZM372.732 435.692L372.949 437.176C371.633 437.368 370.308 437.542 368.974 437.696L368.803 436.206L368.631 434.716C369.934 434.565 371.229 434.396 372.515 434.207L372.732 435.692ZM364.858 436.599L364.984 438.094C363.658 438.206 362.325 438.297 360.987 438.368L360.908 436.87L360.829 435.372C362.136 435.303 363.437 435.214 364.732 435.105L364.858 436.599ZM356.952 437.016L356.983 438.516C355.651 438.543 354.314 438.55 352.973 438.534L352.991 437.034L353.009 435.534C354.316 435.55 355.62 435.543 356.921 435.516L356.952 437.016ZM349.03 436.921L348.962 438.419C347.629 438.359 346.293 438.276 344.956 438.169L345.075 436.674L345.195 435.178C346.497 435.282 347.799 435.363 349.098 435.422L349.03 436.921ZM341.136 436.289L340.964 437.78C339.637 437.627 338.311 437.45 336.985 437.248L337.21 435.765L337.436 434.282C338.726 434.478 340.017 434.65 341.307 434.799L341.136 436.289ZM333.306 435.097L333.025 436.57C331.712 436.32 330.4 436.045 329.091 435.743L329.427 434.281L329.763 432.82C331.035 433.112 332.31 433.38 333.586 433.623L333.306 435.097ZM325.588 433.319L325.195 434.767C323.906 434.416 322.62 434.04 321.338 433.636L321.789 432.205L322.239 430.775C323.482 431.166 324.73 431.532 325.981 431.871L325.588 433.319ZM318.036 430.939L317.527 432.35C316.268 431.897 315.015 431.416 313.767 430.907L314.334 429.518L314.901 428.129C316.109 428.622 317.324 429.088 318.544 429.528L318.036 430.939ZM310.704 427.946L310.079 429.31C308.865 428.754 307.658 428.17 306.459 427.558L307.141 426.222L307.824 424.886C308.985 425.479 310.153 426.044 311.328 426.583L310.704 427.946ZM303.652 424.344L302.913 425.649C301.75 424.99 300.596 424.304 299.451 423.588L300.246 422.316L301.041 421.044C302.149 421.737 303.266 422.401 304.391 423.038L303.652 424.344ZM296.94 420.149L296.091 421.385C294.992 420.63 293.903 419.847 292.824 419.035L293.726 417.836L294.627 416.638C295.672 417.424 296.726 418.182 297.79 418.912L296.94 420.149ZM290.604 415.38L289.651 416.539C288.626 415.696 287.611 414.825 286.607 413.927L287.608 412.809L288.609 411.692C289.581 412.562 290.564 413.406 291.557 414.222L290.604 415.38ZM284.716 410.108L283.669 411.183C282.713 410.252 281.768 409.294 280.835 408.307L281.925 407.277L283.014 406.246C283.919 407.202 284.835 408.131 285.762 409.033L284.716 410.108ZM279.272 404.358L278.142 405.345C277.699 404.838 277.259 404.324 276.822 403.803L277.971 402.839L279.12 401.874C279.544 402.38 279.971 402.879 280.401 403.371L279.272 404.358ZM277.971 402.839L276.822 403.803C276.384 403.281 275.954 402.752 275.533 402.217L276.712 401.29L277.891 400.362C278.293 400.873 278.702 401.377 279.12 401.874L277.971 402.839ZM274.341 398.073L273.107 398.926C272.335 397.808 271.596 396.666 270.888 395.501L272.171 394.723L273.453 393.944C274.13 395.061 274.837 396.153 275.575 397.22L274.341 398.073ZM270.197 391.249L268.872 391.954C268.237 390.759 267.631 389.542 267.056 388.305L268.416 387.672L269.776 387.04C270.329 388.229 270.911 389.398 271.521 390.545L270.197 391.249ZM266.825 384.011L265.435 384.574C264.927 383.322 264.448 382.051 263.996 380.764L265.411 380.267L266.827 379.77C267.263 381.014 267.726 382.24 268.215 383.447L266.825 384.011ZM264.176 376.476L262.74 376.91C262.349 375.617 261.985 374.308 261.645 372.986L263.098 372.613L264.551 372.24C264.881 373.523 265.234 374.791 265.612 376.043L264.176 376.476ZM262.185 368.739L260.719 369.055C260.434 367.734 260.173 366.399 259.935 365.054L261.412 364.792L262.889 364.531C263.121 365.841 263.375 367.139 263.652 368.424L262.185 368.739ZM260.789 360.871L259.304 361.081C259.115 359.746 258.947 358.402 258.8 357.048L260.292 356.886L261.783 356.725C261.926 358.047 262.09 359.359 262.274 360.66L260.789 360.871ZM259.924 352.922L258.429 353.037C258.325 351.699 258.241 350.352 258.176 348.999L259.674 348.927L261.173 348.855C261.236 350.18 261.318 351.497 261.42 352.806L259.924 352.922ZM259.538 344.931L258.039 344.962C258.011 343.624 258.002 342.28 258.01 340.931L259.51 340.94L261.01 340.949C261.002 342.272 261.011 343.589 261.038 344.901L259.538 344.931ZM259.585 336.929L258.085 336.882C258.127 335.548 258.185 334.209 258.259 332.867L259.757 332.95L261.254 333.032C261.182 334.351 261.125 335.665 261.084 336.976L259.585 336.929ZM260.024 328.95L258.528 328.833C258.633 327.499 258.753 326.163 258.887 324.826L260.38 324.976L261.872 325.126C261.74 326.442 261.622 327.756 261.519 329.067L260.024 328.95ZM260.823 321.002L259.334 320.82C259.497 319.488 259.675 318.156 259.866 316.823L261.351 317.036L262.835 317.249C262.647 318.561 262.472 319.874 262.312 321.185L260.823 321.002ZM261.958 313.089L260.477 312.846C260.695 311.521 260.926 310.197 261.17 308.874L262.645 309.146L264.12 309.418C263.88 310.722 263.652 312.027 263.438 313.332L261.958 313.089ZM263.407 305.225L261.938 304.924C262.206 303.61 262.487 302.298 262.781 300.988L264.244 301.316L265.708 301.644C265.419 302.935 265.142 304.229 264.877 305.525L263.407 305.225ZM265.155 297.422L263.698 297.067C264.016 295.762 264.345 294.461 264.687 293.165L266.137 293.546L267.588 293.928C267.251 295.207 266.926 296.49 266.612 297.777L265.155 297.422ZM267.189 289.695L265.745 289.286C266.112 287.991 266.489 286.701 266.878 285.416L268.314 285.85L269.749 286.285C269.366 287.552 268.993 288.825 268.632 290.103L267.189 289.695ZM269.504 282.04L268.076 281.58C268.489 280.298 268.913 279.023 269.348 277.756L270.767 278.242L272.186 278.728C271.757 279.978 271.339 281.236 270.932 282.5L269.504 282.04ZM272.097 274.471L270.687 273.959C271.146 272.696 271.614 271.442 272.093 270.197L273.493 270.735L274.893 271.273C274.421 272.501 273.959 273.738 273.507 274.983L272.097 274.471ZM274.968 267.004L273.578 266.439C274.083 265.196 274.597 263.964 275.121 262.742L276.5 263.333L277.878 263.924C277.362 265.128 276.855 266.343 276.357 267.568L274.968 267.004ZM278.119 259.655L276.753 259.037C277.308 257.81 277.872 256.595 278.445 255.393L279.799 256.039L281.153 256.685C280.589 257.868 280.033 259.065 279.486 260.273L278.119 259.655ZM281.561 252.444L280.221 251.769C280.83 250.56 281.448 249.365 282.074 248.186L283.399 248.89L284.723 249.594C284.108 250.753 283.5 251.928 282.901 253.118L281.561 252.444ZM285.309 245.392L284.001 244.658C284.668 243.47 285.343 242.3 286.027 241.148L287.317 241.914L288.607 242.68C287.935 243.81 287.272 244.959 286.617 246.126L285.309 245.392ZM289.387 238.529L288.118 237.73C288.849 236.569 289.588 235.429 290.335 234.313L291.582 235.148L292.828 235.982C292.097 237.074 291.373 238.19 290.657 239.328L289.387 238.529ZM293.832 231.892L292.611 231.021C293.413 229.897 294.223 228.8 295.041 227.731L296.232 228.643L297.423 229.554C296.626 230.596 295.836 231.666 295.052 232.764L293.832 231.892ZM298.692 225.543L297.534 224.589C298.416 223.519 299.305 222.481 300.202 221.478L301.32 222.478L302.438 223.478C301.57 224.449 300.706 225.456 299.85 226.496L298.692 225.543ZM304.033 219.577L302.961 218.528C303.933 217.536 304.912 216.585 305.898 215.678L306.914 216.781L307.929 217.885C306.984 218.755 306.042 219.67 305.105 220.627L304.033 219.577ZM309.935 214.16L308.988 212.997C310.059 212.123 311.138 211.302 312.223 210.536L313.088 211.762L313.953 212.987C312.928 213.711 311.904 214.49 310.883 215.322L309.935 214.16ZM316.477 209.57L315.717 208.277C316.929 207.565 318.149 206.923 319.374 206.358L320.002 207.72L320.631 209.082C319.502 209.603 318.37 210.198 317.236 210.864L316.477 209.57ZM323.69 206.265L323.224 204.839C324.587 204.394 325.954 204.047 327.324 203.804L327.586 205.281L327.848 206.758C326.624 206.975 325.393 207.287 324.155 207.691L323.69 206.265ZM331.551 204.892L331.526 203.393C332.938 203.369 334.347 203.463 335.748 203.68L335.518 205.162L335.289 206.644C334.059 206.454 332.822 206.371 331.577 206.392L331.551 204.892ZM339.409 206.116L339.889 204.695C341.191 205.135 342.48 205.688 343.752 206.357L343.054 207.685L342.357 209.013C341.22 208.415 340.076 207.925 338.928 207.537L339.409 206.116ZM346.418 209.769L347.292 208.549C348.398 209.341 349.488 210.227 350.562 211.208L349.551 212.316L348.539 213.423C347.548 212.518 346.549 211.707 345.545 210.988L346.418 209.769ZM352.332 215.12L353.445 214.114C353.918 214.638 354.388 215.182 354.854 215.747L353.698 216.702L352.542 217.658C352.103 217.126 351.661 216.616 351.218 216.125L352.332 215.12ZM353.698 216.702L354.854 215.747C355.32 216.31 355.76 216.882 356.173 217.462L354.951 218.333L353.73 219.203C353.359 218.683 352.963 218.167 352.542 217.658L353.698 216.702ZM357.017 221.74L358.356 221.062C359.007 222.347 359.543 223.661 359.968 225L358.538 225.454L357.109 225.908C356.732 224.724 356.257 223.559 355.679 222.417L357.017 221.74ZM359.44 229.363L360.923 229.143C361.129 230.533 361.226 231.94 361.221 233.359L359.721 233.354L358.221 233.348C358.226 232.073 358.138 230.817 357.956 229.582L359.44 229.363ZM359.432 237.356L360.917 237.562C360.727 238.933 360.449 240.311 360.089 241.694L358.637 241.315L357.186 240.937C357.518 239.661 357.773 238.398 357.946 237.149L359.432 237.356ZM357.436 245.122L358.843 245.642C358.374 246.911 357.839 248.182 357.243 249.452L355.885 248.815L354.528 248.177C355.09 246.98 355.591 245.787 356.029 244.602L357.436 245.122ZM354.03 252.407L355.337 253.143C354.679 254.313 353.97 255.481 353.214 256.645L351.956 255.828L350.698 255.011C351.421 253.898 352.097 252.784 352.723 251.672L354.03 252.407ZM349.675 259.128L350.886 260.014C350.084 261.108 349.243 262.197 348.362 263.28L347.199 262.334L346.035 261.387C346.884 260.342 347.695 259.293 348.465 258.241L349.675 259.128ZM344.617 265.366L345.737 266.363C344.838 267.373 343.907 268.376 342.945 269.371L341.867 268.328L340.788 267.285C341.723 266.319 342.626 265.347 343.496 264.369L344.617 265.366ZM339.031 271.149L340.069 272.232C339.097 273.164 338.098 274.088 337.073 275.003L336.074 273.884L335.076 272.765C336.074 271.873 337.047 270.974 337.993 270.066L339.031 271.149ZM333.035 276.506L333.997 277.658C332.964 278.52 331.909 279.372 330.833 280.214L329.909 279.032L328.985 277.851C330.036 277.029 331.066 276.196 332.074 275.355L333.035 276.506ZM326.705 281.461L327.593 282.67C326.509 283.466 325.406 284.252 324.286 285.025L323.434 283.791L322.581 282.557C323.678 281.8 324.757 281.031 325.817 280.252L326.705 281.461ZM320.093 286.029L320.91 287.287C319.78 288.02 318.635 288.741 317.475 289.449L316.694 288.169L315.912 286.889C317.048 286.195 318.17 285.489 319.276 284.77L320.093 286.029ZM313.234 290.216L313.981 291.517C312.81 292.189 311.627 292.846 310.432 293.489L309.722 292.168L309.011 290.847C310.182 290.217 311.341 289.573 312.488 288.915L313.234 290.216ZM306.158 294.023L306.832 295.363C305.625 295.97 304.408 296.563 303.181 297.139L302.543 295.781L301.905 294.424C303.108 293.859 304.3 293.279 305.483 292.683L306.158 294.023ZM298.884 297.44L299.484 298.814C298.244 299.356 296.996 299.881 295.74 300.388L295.178 298.997L294.616 297.606C295.846 297.109 297.069 296.595 298.284 296.065L298.884 297.44ZM291.432 300.449L291.955 301.855C290.685 302.327 289.408 302.78 288.126 303.214L287.645 301.793L287.164 300.372C288.418 299.948 289.667 299.504 290.91 299.043L291.432 300.449ZM283.82 303.025L284.259 304.46C282.962 304.856 281.66 305.232 280.355 305.588L279.961 304.14L279.567 302.693C280.842 302.346 282.114 301.978 283.382 301.591L283.82 303.025ZM276.066 305.135L276.414 306.594C275.093 306.908 273.769 307.201 272.444 307.47L272.145 306L271.847 304.53C273.138 304.268 274.429 303.983 275.718 303.675L276.066 305.135ZM268.191 306.733L268.439 308.213C267.098 308.437 265.756 308.637 264.416 308.812L264.222 307.324L264.028 305.837C265.332 305.667 266.638 305.472 267.944 305.254L268.191 306.733ZM260.224 307.767L260.36 309.261C259.004 309.385 257.65 309.482 256.298 309.551L256.222 308.053L256.146 306.555C257.456 306.488 258.77 306.394 260.087 306.274L260.224 307.767ZM252.201 308.173L252.214 309.673C250.85 309.684 249.489 309.665 248.135 309.616L248.19 308.117L248.244 306.618C249.553 306.666 250.868 306.684 252.189 306.673L252.201 308.173ZM244.176 307.876L244.05 309.371C242.688 309.256 241.333 309.109 239.986 308.927L240.186 307.44L240.387 305.954C241.683 306.129 242.988 306.271 244.302 306.381L244.176 307.876ZM236.22 306.8L235.941 308.274C234.596 308.02 233.261 307.73 231.938 307.403L232.297 305.946L232.657 304.49C233.926 304.804 235.207 305.082 236.498 305.326L236.22 306.8ZM228.428 304.871L227.984 306.304C226.677 305.899 225.382 305.455 224.102 304.972L224.632 303.569L225.161 302.165C226.384 302.627 227.621 303.051 228.871 303.438L228.428 304.871ZM220.919 302.034L220.302 303.401C219.058 302.84 217.828 302.239 216.616 301.596L217.319 300.271L218.022 298.945C219.177 299.558 220.348 300.131 221.535 300.666L220.919 302.034ZM213.828 298.27L213.039 299.546C211.883 298.832 210.744 298.077 209.625 297.28L210.495 296.058L211.365 294.836C212.431 295.595 213.515 296.314 214.616 296.994L213.828 298.27ZM207.288 293.611L206.339 294.773C205.293 293.919 204.266 293.025 203.26 292.089L204.282 290.991L205.303 289.892C206.262 290.784 207.24 291.635 208.236 292.449L207.288 293.611ZM201.409 288.144L200.32 289.176C199.397 288.201 198.495 287.189 197.613 286.138L198.762 285.174L199.912 284.21C200.755 285.216 201.617 286.183 202.498 287.112L201.409 288.144ZM196.256 281.999L195.052 282.893C194.255 281.819 193.477 280.71 192.721 279.565L193.972 278.738L195.224 277.911C195.95 279.011 196.696 280.075 197.46 281.104L196.256 281.999ZM191.842 275.317L190.549 276.077C190.197 275.477 189.851 274.869 189.509 274.252L190.822 273.527L192.135 272.801C192.464 273.396 192.797 273.981 193.136 274.558L191.842 275.317ZM190.822 273.527L189.509 274.252C189.178 273.652 188.853 273.049 188.536 272.443L189.865 271.747L191.194 271.051C191.501 271.637 191.814 272.221 192.135 272.801L190.822 273.527ZM188.076 268.139L186.718 268.776C186.137 267.536 185.585 266.287 185.06 265.028L186.444 264.45L187.829 263.873C188.337 265.093 188.872 266.303 189.435 267.503L188.076 268.139ZM184.972 260.699L183.564 261.218C183.092 259.937 182.647 258.648 182.228 257.351L183.655 256.89L185.082 256.428C185.489 257.687 185.921 258.938 186.379 260.18L184.972 260.699ZM182.49 253.031L181.046 253.436C180.677 252.125 180.334 250.806 180.015 249.482L181.473 249.13L182.931 248.779C183.242 250.068 183.576 251.35 183.934 252.625L182.49 253.031ZM180.599 245.194L179.129 245.493C178.858 244.16 178.61 242.822 178.384 241.48L179.864 241.231L181.343 240.983C181.563 242.292 181.805 243.597 182.069 244.895L180.599 245.194ZM179.261 237.246L177.774 237.446C177.593 236.099 177.432 234.749 177.292 233.396L178.785 233.241L180.277 233.087C180.413 234.411 180.57 235.73 180.747 237.045L179.261 237.246ZM178.43 229.226L176.934 229.336C176.835 227.983 176.755 226.627 176.693 225.27L178.191 225.202L179.69 225.134C179.75 226.464 179.829 227.792 179.926 229.116L178.43 229.226ZM178.063 221.172L176.563 221.2C176.538 219.844 176.531 218.487 176.54 217.13L178.04 217.141L179.54 217.151C179.531 218.483 179.538 219.814 179.563 221.144L178.063 221.172ZM178.116 213.11L176.617 213.063C176.659 211.708 176.717 210.353 176.79 209.001L178.288 209.082L179.786 209.163C179.714 210.493 179.657 211.824 179.616 213.156L178.116 213.11ZM178.55 205.058L177.054 204.945C177.157 203.593 177.274 202.243 177.405 200.896L178.898 201.041L180.391 201.186C180.262 202.512 180.147 203.841 180.046 205.172L178.55 205.058ZM179.328 197.033L177.838 196.858C177.996 195.512 178.166 194.169 178.349 192.83L179.835 193.033L181.322 193.236C181.141 194.556 180.973 195.88 180.818 197.208L179.328 197.033ZM180.417 189.041L178.935 188.811C179.143 187.472 179.362 186.137 179.591 184.809L181.069 185.064L182.547 185.32C182.321 186.631 182.105 187.949 181.9 189.271L180.417 189.041ZM181.789 181.099L180.315 180.819C180.569 179.483 180.832 178.156 181.105 176.836L182.574 177.139L184.043 177.442C183.773 178.747 183.513 180.059 183.262 181.378L181.789 181.099ZM183.419 173.198L181.955 172.872C182.249 171.548 182.552 170.234 182.862 168.929L184.321 169.276L185.781 169.623C185.474 170.914 185.174 172.214 184.883 173.524L183.419 173.198ZM185.284 165.351L183.83 164.984C184.163 163.664 184.503 162.356 184.849 161.06L186.299 161.447L187.748 161.834C187.405 163.117 187.068 164.412 186.738 165.719L185.284 165.351ZM187.362 157.566L185.918 157.16C186.287 155.848 186.661 154.55 187.039 153.268L188.478 153.692L189.917 154.115C189.542 155.386 189.172 156.672 188.807 157.972L187.362 157.566ZM189.643 149.822L188.21 149.381C188.612 148.074 189.017 146.785 189.424 145.515L190.853 145.973L192.281 146.431C191.877 147.69 191.476 148.968 191.077 150.263L189.643 149.822ZM192.104 142.146L190.68 141.672C191.112 140.375 191.545 139.101 191.976 137.851L193.394 138.34L194.812 138.829C194.384 140.07 193.955 141.334 193.527 142.62L192.104 142.146ZM194.731 134.531L193.318 134.027C193.782 132.725 194.243 131.454 194.7 130.214L196.107 130.732L197.515 131.25C197.062 132.481 196.604 133.743 196.143 135.034L194.731 134.531ZM197.52 126.95L196.117 126.419C196.61 125.117 197.094 123.857 197.568 122.641L198.966 123.185L200.364 123.729C199.893 124.937 199.412 126.189 198.922 127.482L197.52 126.95ZM200.442 119.436L199.048 118.881C199.57 117.572 200.073 116.326 200.552 115.147L201.941 115.712L203.331 116.277C202.854 117.45 202.354 118.69 201.835 119.992L200.442 119.436ZM203.479 111.958L202.092 111.386C202.355 110.747 202.608 110.135 202.848 109.554L204.234 110.126L205.621 110.698C205.381 111.28 205.129 111.89 204.866 112.529L203.479 111.958Z" fill="#396FB0"/>
<path d="M716.735 115.585L724.849 83.1319L817.339 2L749.188 94.4903L724.849 120.453M703.754 120.453L666.434 115.585L535 99.3583L651.83 141.547L703.754 135.056M724.849 135.056L749.188 159.396L791.377 290.829L728.094 169.132L711.867 141.547" stroke="#6496D3" stroke-width="3.24527"/>
<path d="M10.3263 546.117C19.6489 572.804 56.3546 565.83 73.5421 559.007C98.1597 594.905 133.799 574.717 148.542 560.137C177.72 577.515 195.701 559.68 201.045 548.591C234.372 555.908 246.191 539.324 247.934 530.118C250.488 492.555 220.105 487.434 204.594 489.569C193.357 457.068 164.864 462.677 152.022 469.544C111.321 429.319 73.6747 457.239 59.9391 476.228C33.1768 469.422 28.7838 489.535 29.9327 500.441C19.5128 504.547 1.00377 519.429 10.3263 546.117Z" stroke="#6496D3" stroke-width="3.24527"/>
</svg>
