<svg width="301" height="287" viewBox="0 0 301 287" fill="none" xmlns="http://www.w3.org/2000/svg">
<path d="M156.085 267.094L155.21 268.313L156.085 267.094ZM183.493 68.0208L184.377 66.8093L183.493 68.0208ZM39.6983 163.313L40.7913 162.286L39.6983 163.313ZM11.4365 0.46219C12.0991 -0.0350195 13.0394 0.0990808 13.5366 0.761717L21.6391 11.5599C22.1363 12.2225 22.0022 13.1627 21.3395 13.6599C20.6769 14.1571 19.7367 14.023 19.2395 13.3604L12.0373 3.76206L2.43891 10.9642C1.7763 11.4614 0.836064 11.3273 0.338859 10.6647C-0.158346 10.0021 -0.0242569 9.06186 0.638391 8.56465L11.4365 0.46219ZM299.468 245.18L300.62 246.141C300.198 246.646 299.764 247.152 299.316 247.659L298.192 246.666L297.067 245.673C297.497 245.187 297.913 244.702 298.316 244.219L299.468 245.18ZM295.493 249.568L296.565 250.617C295.647 251.557 294.686 252.497 293.684 253.434L292.659 252.339L291.634 251.244C292.604 250.336 293.533 249.427 294.42 248.52L295.493 249.568ZM289.712 254.987L290.693 256.122C289.696 256.983 288.666 257.839 287.604 258.689L286.666 257.519L285.729 256.348C286.762 255.52 287.764 254.688 288.732 253.851L289.712 254.987ZM283.532 259.94L284.428 261.142C283.37 261.931 282.284 262.713 281.173 263.485L280.317 262.254L279.461 261.022C280.545 260.268 281.604 259.506 282.636 258.737L283.532 259.94ZM277.028 264.463L277.845 265.721C276.734 266.442 275.602 267.153 274.448 267.852L273.67 266.569L272.893 265.286C274.02 264.603 275.127 263.909 276.211 263.205L277.028 264.463ZM270.248 268.572L270.986 269.878C269.831 270.531 268.658 271.171 267.466 271.799L266.767 270.471L266.069 269.144C267.234 268.531 268.381 267.904 269.51 267.266L270.248 268.572ZM263.24 272.261L263.898 273.609C262.707 274.191 261.499 274.76 260.276 275.313L259.658 273.946L259.04 272.58C260.235 272.039 261.416 271.483 262.581 270.914L263.24 272.261ZM256.025 275.525L256.602 276.909C255.374 277.421 254.133 277.916 252.879 278.395L252.344 276.993L251.809 275.592C253.035 275.124 254.248 274.64 255.448 274.14L256.025 275.525ZM248.619 278.349L249.11 279.767C247.853 280.202 246.584 280.62 245.305 281.019L244.858 279.587L244.412 278.155C245.661 277.766 246.9 277.357 248.128 276.932L248.619 278.349ZM241.061 280.705L241.461 282.151C240.177 282.507 238.883 282.843 237.58 283.159L237.227 281.701L236.874 280.243C238.144 279.935 239.407 279.607 240.66 279.26L241.061 280.705ZM233.361 282.57L233.665 284.039C232.358 284.309 231.043 284.559 229.721 284.785L229.467 283.307L229.214 281.829C230.502 281.608 231.783 281.365 233.057 281.101L233.361 282.57ZM225.555 283.908L225.756 285.394C224.434 285.574 223.104 285.73 221.769 285.862L221.622 284.369L221.474 282.876C222.773 282.748 224.066 282.596 225.353 282.421L225.555 283.908ZM217.673 284.686L217.765 286.183C216.431 286.265 215.092 286.322 213.748 286.354L213.713 284.854L213.678 283.354C214.983 283.324 216.284 283.268 217.581 283.189L217.673 284.686ZM209.755 284.869L209.732 286.369C208.396 286.348 207.057 286.301 205.716 286.227L205.799 284.729L205.882 283.231C207.183 283.304 208.482 283.349 209.779 283.37L209.755 284.869ZM201.849 284.429L201.705 285.922C200.373 285.793 199.04 285.637 197.705 285.451L197.911 283.966L198.117 282.48C199.41 282.659 200.703 282.811 201.993 282.936L201.849 284.429ZM194.005 283.34L193.737 284.815C192.423 284.576 191.11 284.309 189.796 284.011L190.127 282.548L190.459 281.085C191.73 281.373 193.002 281.632 194.274 281.864L194.005 283.34ZM186.282 281.59L185.888 283.037C184.599 282.687 183.311 282.306 182.024 281.895L182.481 280.466L182.937 279.037C184.182 279.435 185.428 279.803 186.676 280.143L186.282 281.59ZM178.742 279.183L178.225 280.591C176.973 280.131 175.724 279.641 174.478 279.12L175.056 277.736L175.634 276.352C176.84 276.856 178.049 277.33 179.26 277.775L178.742 279.183ZM171.425 276.127L170.788 277.485C169.586 276.922 168.387 276.329 167.193 275.706L167.886 274.376L168.58 273.046C169.737 273.649 170.898 274.224 172.062 274.769L171.425 276.127ZM164.417 272.473L163.668 273.773C162.512 273.107 161.359 272.411 160.211 271.686L161.013 270.418L161.814 269.15C162.927 269.853 164.044 270.527 165.165 271.173L164.417 272.473ZM157.721 268.245L156.87 269.48C156.315 269.098 155.762 268.709 155.21 268.313L156.085 267.094L156.961 265.876C157.497 266.261 158.034 266.639 158.572 267.01L157.721 268.245ZM156.085 267.094L155.21 268.313C154.657 267.915 154.11 267.509 153.57 267.094L154.483 265.904L155.396 264.714C155.912 265.11 156.433 265.497 156.961 265.876L156.085 267.094ZM151.391 263.373L150.405 264.504C149.381 263.612 148.383 262.688 147.41 261.733L148.46 260.662L149.511 259.591C150.443 260.506 151.398 261.39 152.376 262.242L151.391 263.373ZM145.689 257.784L144.58 258.794C143.669 257.793 142.782 256.763 141.919 255.707L143.081 254.758L144.242 253.809C145.072 254.825 145.924 255.814 146.799 256.774L145.689 257.784ZM140.634 251.603L139.426 252.492C138.625 251.404 137.847 250.291 137.091 249.155L138.34 248.324L139.589 247.493C140.319 248.591 141.07 249.664 141.842 250.713L140.634 251.603ZM136.206 244.956L134.922 245.731C134.224 244.574 133.548 243.396 132.892 242.198L134.208 241.478L135.524 240.758C136.16 241.92 136.815 243.061 137.491 244.181L136.206 244.956ZM132.367 237.95L131.024 238.618C130.422 237.408 129.839 236.18 129.276 234.934L130.643 234.316L132.01 233.698C132.558 234.911 133.124 236.106 133.71 237.282L132.367 237.95ZM129.07 230.67L127.683 231.241C127.17 229.994 126.675 228.733 126.199 227.457L127.604 226.932L129.009 226.407C129.475 227.653 129.957 228.884 130.457 230.1L129.07 230.67ZM126.269 223.181L124.848 223.662C124.417 222.391 124.003 221.107 123.606 219.811L125.04 219.372L126.474 218.932C126.863 220.2 127.268 221.456 127.689 222.699L126.269 223.181ZM123.921 215.533L122.476 215.933C122.119 214.644 121.778 213.344 121.452 212.035L122.908 211.673L124.364 211.311C124.683 212.595 125.017 213.869 125.367 215.133L123.921 215.533ZM121.99 207.768L120.526 208.093C120.236 206.789 119.962 205.478 119.702 204.159L121.174 203.869L122.645 203.579C122.901 204.875 123.17 206.163 123.454 207.443L121.99 207.768ZM120.445 199.927L118.967 200.183C118.739 198.865 118.525 197.541 118.325 196.212L119.808 195.989L121.291 195.766C121.488 197.073 121.699 198.376 121.923 199.672L120.445 199.927ZM119.256 192.029L117.769 192.22C117.598 190.889 117.44 189.554 117.296 188.215L118.788 188.055L120.279 187.894C120.421 189.213 120.576 190.528 120.744 191.838L119.256 192.029ZM118.401 184.081L116.907 184.211C116.79 182.873 116.687 181.533 116.597 180.19L118.093 180.089L119.59 179.989C119.679 181.312 119.781 182.632 119.896 183.95L118.401 184.081ZM117.863 176.101L116.365 176.173C116.301 174.833 116.249 173.492 116.21 172.151L117.709 172.107L119.209 172.063C119.247 173.386 119.298 174.708 119.362 176.029L117.863 176.101ZM117.63 168.109L116.13 168.124C116.116 166.782 116.114 165.44 116.125 164.099L117.625 164.111L119.124 164.122C119.114 165.445 119.116 166.769 119.13 168.093L117.63 168.109ZM117.692 160.119L116.193 160.08C116.228 158.734 116.275 157.39 116.334 156.049L117.833 156.116L119.331 156.182C119.273 157.505 119.226 158.83 119.192 160.158L117.692 160.119ZM118.045 152.13L116.548 152.036C116.632 150.692 116.727 149.352 116.835 148.016L118.33 148.137L119.826 148.258C119.719 149.575 119.625 150.897 119.542 152.223L118.045 152.13ZM118.688 144.154L117.196 144.006C117.328 142.67 117.473 141.339 117.629 140.014L119.118 140.189L120.608 140.365C120.454 141.671 120.312 142.984 120.181 144.302L118.688 144.154ZM119.626 136.209L118.139 136.006C118.322 134.677 118.516 133.355 118.721 132.042L120.203 132.274L121.685 132.506C121.483 133.8 121.291 135.103 121.112 136.413L119.626 136.209ZM120.865 128.31L119.387 128.049C119.622 126.722 119.869 125.406 120.128 124.1L121.599 124.391L123.071 124.683C122.816 125.969 122.573 127.265 122.342 128.572L120.865 128.31ZM122.419 120.472L120.954 120.15C121.245 118.827 121.549 117.517 121.864 116.22L123.322 116.575L124.779 116.93C124.469 118.205 124.17 119.494 123.884 120.795L122.419 120.472ZM124.309 112.713L122.86 112.325C123.213 111.009 123.578 109.708 123.957 108.423L125.396 108.847L126.834 109.271C126.463 110.532 126.104 111.809 125.758 113.102L124.309 112.713ZM126.565 105.055L125.138 104.594C125.559 103.289 125.995 102.002 126.443 100.736L127.857 101.237L129.271 101.738C128.832 102.977 128.406 104.237 127.993 105.516L126.565 105.055ZM129.233 97.5266L127.835 96.9838C128.334 95.6968 128.848 94.4336 129.377 93.1958L130.757 93.7848L132.136 94.3738C131.621 95.58 131.119 96.8124 130.631 98.0695L129.233 97.5266ZM132.374 90.1735L131.017 89.5354C131.607 88.2801 132.213 87.0549 132.834 85.8616L134.165 86.5545L135.495 87.2475C134.893 88.4031 134.305 89.5917 133.732 90.8116L132.374 90.1735ZM136.077 83.0734L134.779 82.3211C135.476 81.1198 136.19 79.9566 136.921 78.834L138.178 79.6528L139.435 80.4715C138.733 81.5483 138.046 82.6671 137.375 83.8257L136.077 83.0734ZM140.458 76.366L139.253 75.4735C140.075 74.3622 140.918 73.3 141.78 72.2901L142.921 73.2639L144.062 74.2377C143.247 75.1919 142.448 76.1996 141.664 77.2584L140.458 76.366ZM145.663 70.3031L144.608 69.2374C145.607 68.2477 146.63 67.3253 147.677 66.4748L148.623 67.6391L149.569 68.8034C148.603 69.5878 147.653 70.4438 146.719 71.3688L145.663 70.3031ZM151.837 65.3186L151.033 64.0518C152.244 63.2842 153.483 62.6101 154.75 62.0364L155.369 63.4029L155.988 64.7694C154.855 65.2819 153.739 65.8883 152.64 66.5854L151.837 65.3186ZM159.116 62.047L158.721 60.6C160.083 60.228 161.471 59.971 162.883 59.8355L163.026 61.3286L163.17 62.8217C161.932 62.9406 160.712 63.1662 159.511 63.4941L159.116 62.047ZM167.032 61.292L167.146 59.7964C168.516 59.9012 169.902 60.1189 171.3 60.4528L170.952 61.9118L170.604 63.3708C169.354 63.0725 168.125 62.88 166.917 62.7876L167.032 61.292ZM174.726 63.1001L175.272 61.7027C176.539 62.1973 177.814 62.7862 179.097 63.4714L178.391 64.7945L177.684 66.1177C176.5 65.4852 175.332 64.9466 174.181 64.4974L174.726 63.1001ZM181.778 66.8249L182.608 65.5756C183.196 65.9665 183.786 66.3777 184.377 66.8093L183.493 68.0208L182.609 69.2323C182.052 68.8259 181.498 68.44 180.948 68.0742L181.778 66.8249ZM183.493 68.0208L184.377 66.8093C184.968 67.2405 185.535 67.6862 186.079 68.1459L185.11 69.2913L184.141 70.4366C183.653 70.0237 183.143 69.6221 182.609 69.2323L183.493 68.0208ZM187.954 72.0824L189.083 71.0952C190.031 72.1799 190.875 73.321 191.618 74.5134L190.345 75.3065L189.072 76.0995C188.415 75.0444 187.667 74.0331 186.824 73.0696L187.954 72.0824ZM192.184 78.871L193.567 78.292C194.11 79.5878 194.551 80.927 194.897 82.3036L193.442 82.6689L191.987 83.0343C191.677 81.7977 191.282 80.6018 190.8 79.45L192.184 78.871ZM194.15 86.6184L195.641 86.4512C195.795 87.827 195.866 89.2313 195.859 90.6596L194.359 90.6515L192.859 90.6434C192.866 89.3253 192.8 88.0382 192.66 86.7855L194.15 86.6184ZM194.134 94.6368L195.626 94.7931C195.485 96.1393 195.281 97.5028 195.017 98.8806L193.544 98.5983L192.071 98.316C192.32 97.0169 192.511 95.7375 192.643 94.4805L194.134 94.6368ZM192.634 102.538L194.082 102.928C193.733 104.225 193.334 105.531 192.889 106.846L191.468 106.365L190.048 105.884C190.474 104.626 190.853 103.38 191.185 102.148L192.634 102.538ZM190.074 110.126L191.465 110.686C190.959 111.944 190.412 113.207 189.827 114.473L188.465 113.844L187.104 113.214C187.669 111.992 188.195 110.775 188.682 109.566L190.074 110.126ZM186.712 117.42L188.044 118.11C187.423 119.31 186.768 120.512 186.081 121.714L184.779 120.969L183.477 120.225C184.143 119.058 184.778 117.893 185.38 116.731L186.712 117.42ZM182.728 124.404L184.002 125.197C183.29 126.34 182.55 127.482 181.783 128.621L180.539 127.784L179.294 126.946C180.042 125.836 180.762 124.724 181.455 123.611L182.728 124.404ZM178.241 131.076L179.457 131.954C178.669 133.045 177.858 134.131 177.023 135.212L175.836 134.296L174.648 133.379C175.464 132.323 176.257 131.262 177.026 130.197L178.241 131.076ZM173.331 137.44L174.49 138.392C173.636 139.432 172.762 140.466 171.867 141.492L170.736 140.506L169.606 139.521C170.481 138.516 171.337 137.505 172.172 136.488L173.331 137.44ZM168.052 143.5L169.154 144.517C168.24 145.507 167.309 146.488 166.36 147.461L165.287 146.413L164.213 145.366C165.142 144.413 166.055 143.452 166.949 142.482L168.052 143.5ZM162.44 149.251L163.484 150.328C162.516 151.267 161.532 152.197 160.533 153.114L159.518 152.01L158.503 150.905C159.483 150.006 160.447 149.095 161.395 148.175L162.44 149.251ZM156.523 154.688L157.507 155.82C156.488 156.707 155.454 157.581 154.408 158.443L153.455 157.285L152.501 156.127C153.527 155.283 154.539 154.425 155.538 153.556L156.523 154.688ZM150.318 159.795L151.24 160.979C150.172 161.81 149.092 162.627 148 163.429L147.112 162.22L146.224 161.011C147.293 160.226 148.351 159.426 149.397 158.612L150.318 159.795ZM143.841 164.552L144.694 165.785C143.58 166.556 142.455 167.311 141.32 168.048L140.503 166.79L139.686 165.532C140.796 164.811 141.897 164.072 142.988 163.318L143.841 164.552ZM137.101 168.928L137.88 170.21C136.721 170.915 135.553 171.601 134.376 172.267L133.637 170.962L132.897 169.657C134.047 169.006 135.189 168.335 136.322 167.647L137.101 168.928ZM130.108 172.888L130.805 174.216C129.603 174.847 128.392 175.457 127.175 176.045L126.523 174.695L125.87 173.344C127.057 172.771 128.237 172.176 129.411 171.56L130.108 172.888ZM122.872 176.382L123.477 177.754C122.233 178.303 120.983 178.828 119.726 179.328L119.171 177.935L118.616 176.541C119.838 176.055 121.055 175.544 122.267 175.009L122.872 176.382ZM115.407 179.352L115.908 180.765C114.624 181.221 113.336 181.649 112.043 182.049L111.599 180.617L111.155 179.184C112.409 178.796 113.659 178.38 114.906 177.938L115.407 179.352ZM107.733 181.726L108.116 183.176C106.796 183.524 105.474 183.842 104.149 184.129L103.832 182.663L103.514 181.197C104.794 180.92 106.073 180.612 107.35 180.275L107.733 181.726ZM99.8829 183.421L100.13 184.9C98.7821 185.125 97.4325 185.317 96.0824 185.474L95.9094 183.984L95.7364 182.494C97.0355 182.343 98.3356 182.158 99.6356 181.941L99.8829 183.421ZM91.9073 184.343L92.0014 185.84C90.6356 185.926 89.2703 185.974 87.9067 185.984L87.8957 184.485L87.8847 182.985C89.1916 182.975 90.5014 182.928 91.8131 182.846L91.9073 184.343ZM83.8802 184.398L83.8041 185.896C82.4375 185.827 81.0736 185.717 79.7137 185.565L79.8802 184.074L80.0468 182.583C81.3455 182.728 82.6491 182.834 83.9564 182.9L83.8802 184.398ZM75.9033 183.504L75.6437 184.981C74.2989 184.745 72.9591 184.465 71.6255 184.142L71.9793 182.684L72.3331 181.226C73.6035 181.535 74.8804 181.801 76.1629 182.026L75.9033 183.504ZM68.1021 181.608L67.6536 183.039C66.3566 182.633 65.0668 182.182 63.7852 181.686L64.3265 180.287L64.8678 178.889C66.0879 179.361 67.3157 179.789 68.5506 180.176L68.1021 181.608ZM60.6141 178.708L59.9819 180.068C58.7573 179.499 57.5416 178.886 56.3357 178.229L57.0539 176.912L57.7722 175.595C58.9217 176.222 60.0801 176.806 61.2464 177.348L60.6141 178.708ZM53.5672 174.863L52.7667 176.131C51.632 175.415 50.5073 174.657 49.3935 173.856L50.2692 172.639L51.1448 171.421C52.21 172.187 53.2845 172.911 54.3676 173.594L53.5672 174.863ZM47.0562 170.18L46.1103 171.345C45.0724 170.501 44.0451 169.618 43.029 168.695L44.0378 167.585L45.0465 166.475C46.0222 167.361 47.0077 168.208 48.0022 169.016L47.0562 170.18ZM41.1288 164.796L40.0628 165.852C39.5741 165.358 39.0883 164.854 38.6054 164.341L39.6983 163.313L40.7913 162.286C41.2566 162.781 41.7244 163.266 42.1948 163.741L41.1288 164.796ZM39.6983 163.313L38.6054 164.341C38.1356 163.841 37.6722 163.336 37.2152 162.828L38.3309 161.825L39.4468 160.823C39.8889 161.315 40.337 161.803 40.7913 162.286L39.6983 163.313ZM35.7068 158.771L34.5478 159.723C33.6789 158.665 32.8349 157.591 32.0152 156.501L33.2142 155.599L34.4132 154.698C35.2073 155.754 36.0247 156.795 36.8658 157.819L35.7068 158.771ZM30.8608 152.328L29.6252 153.178C28.8514 152.054 28.1015 150.915 27.3749 149.762L28.6439 148.962L29.9129 148.162C30.6184 149.282 31.346 150.387 32.0964 151.477L30.8608 152.328ZM26.5617 145.51L25.2625 146.26C24.5816 145.08 23.9233 143.887 23.2868 142.682L24.6131 141.982L25.9393 141.281C26.5587 142.453 27.199 143.613 27.8609 144.76L26.5617 145.51ZM22.7941 138.383L21.4436 139.036C20.8516 137.812 20.2808 136.576 19.7305 135.331L21.1025 134.725L22.4745 134.119C23.0113 135.333 23.5678 136.537 24.1445 137.73L22.7941 138.383ZM19.534 131.012L18.1429 131.573C17.6344 130.313 17.1456 129.044 16.6758 127.767L18.0836 127.249L19.4913 126.731C19.9506 127.98 20.4283 129.22 20.9249 130.451L19.534 131.012ZM16.7484 123.446L15.3259 123.922C14.8952 122.635 14.4828 121.341 14.088 120.041L15.5232 119.605L16.9585 119.17C17.3453 120.443 17.7492 121.71 18.1708 122.97L16.7484 123.446ZM14.4034 115.732L12.957 116.129C12.5976 114.821 12.2552 113.509 11.9292 112.192L13.3852 111.831L14.8412 111.471C15.1613 112.763 15.4973 114.052 15.8498 115.334L14.4034 115.732ZM12.4638 107.906L10.9995 108.231C10.7055 106.908 10.4272 105.581 10.1639 104.252L11.6353 103.96L13.1067 103.669C13.3656 104.976 13.6392 106.28 13.9281 107.581L12.4638 107.906ZM10.8955 99.9972L9.4181 100.256C9.18378 98.9207 8.96393 97.5836 8.75796 96.2462L10.2405 96.0179L11.723 95.7896C11.9259 97.1069 12.1423 98.4233 12.373 99.738L10.8955 99.9972ZM9.66693 92.0282L8.18018 92.227C8.00048 90.883 7.83417 89.5396 7.6806 88.1976L9.1709 88.0271L10.6612 87.8566C10.8126 89.1801 10.9766 90.5048 11.1537 91.8295L9.66693 92.0282ZM8.74888 84.0149L7.25578 84.1583C7.12609 82.8087 7.00875 81.4616 6.9031 80.1179L8.39849 80.0003L9.89388 79.8827C9.9982 81.2096 10.114 82.5395 10.242 83.8714L8.74888 84.0149ZM8.1161 75.9797L6.61898 76.0724C6.53491 74.716 6.46226 73.3641 6.40031 72.0177L7.89872 71.9488L9.39713 71.8799C9.45839 73.2107 9.53018 74.5467 9.61324 75.8869L8.1161 75.9797ZM7.74435 67.9213L6.24504 67.9674C6.20336 66.6118 6.17202 65.2629 6.15033 63.9218L7.65015 63.8976L9.14994 63.8733C9.1714 65.2002 9.20238 66.5345 9.24362 67.8752L7.74435 67.9213ZM7.61348 59.8568L6.1135 59.86C6.11067 58.4987 6.11729 57.147 6.13263 55.8058L7.63254 55.823L9.13243 55.8401C9.11723 57.1681 9.11067 58.5064 9.11349 59.8537L7.61348 59.8568ZM7.70482 51.7993L6.20526 51.7627C6.23852 50.4002 6.28027 49.0503 6.32962 47.7143L7.82861 47.7696L9.3276 47.825C9.27867 49.1489 9.23734 50.4863 9.20436 51.8359L7.70482 51.7993ZM8.00243 43.7319L6.50423 43.6584C6.57124 42.2929 6.64564 40.9439 6.72651 39.6129L8.22375 39.7039L9.72098 39.7949C9.64081 41.1146 9.56704 42.4519 9.50061 43.8055L8.00243 43.7319ZM8.49053 35.6864L6.99441 35.5787C7.09258 34.2154 7.19683 32.8737 7.30604 31.5555L8.80091 31.6794L10.2958 31.8032C10.1874 33.1111 10.084 34.4419 9.98665 35.7942L8.49053 35.6864ZM9.1553 27.6579L7.66179 27.5185C7.79021 26.1427 7.92309 24.7967 8.05902 23.4825L9.55106 23.6369L11.0431 23.7912C10.9082 25.0958 10.7763 26.4319 10.6488 27.7973L9.1553 27.6579ZM9.98563 19.6235L8.49512 19.455C8.65145 18.072 8.8097 16.7313 8.96786 15.4358L10.4568 15.6176L11.9457 15.7994C11.7886 17.0866 11.6314 18.4185 11.4761 19.792L9.98563 19.6235ZM10.9616 11.6209L9.47414 11.427C9.65636 10.0291 9.8356 8.69766 10.0087 7.43764L11.4947 7.64177L12.9808 7.8459C12.8085 9.10027 12.6302 10.4248 12.449 11.8148L10.9616 11.6209ZM12.0573 3.62366L10.5722 3.41267C10.6695 2.72775 10.763 2.07285 10.8518 1.45019L12.3368 1.66198L13.8218 1.87378C13.7329 2.49709 13.6395 3.15077 13.5424 3.83465L12.0573 3.62366Z" fill="#2071B5"/>
</svg>
