<svg width="121" height="189" viewBox="0 0 121 189" fill="none" xmlns="http://www.w3.org/2000/svg">
<path d="M102.867 33.0073L101.518 33.6632L102.867 33.0073ZM53.2935 105.871L54.6652 105.264L53.2935 105.871ZM116.996 120.647L115.56 121.082L116.996 120.647ZM75.4343 180.549C74.7486 180.084 74.5697 179.152 75.0347 178.466L82.6118 167.293C83.0768 166.607 84.0095 166.428 84.6952 166.893C85.3808 167.358 85.5597 168.291 85.0947 168.977L78.3595 178.908L88.2911 185.644C88.9768 186.109 89.1557 187.041 88.6907 187.727C88.2257 188.413 87.293 188.591 86.6073 188.127L75.4343 180.549ZM0.755562 12.9442L0.0795435 11.6051C0.69767 11.2931 1.32134 10.9873 1.95025 10.6878L2.59507 12.0422L3.23989 13.3965C2.63169 13.6861 2.02882 13.9817 1.43158 14.2832L0.755562 12.9442ZM6.34294 10.3604L5.7594 8.97857C7.03483 8.43998 8.32832 7.92651 9.6376 7.43879L10.1612 8.84443L10.6848 10.2501C9.41529 10.723 8.16175 11.2206 6.92647 11.7423L6.34294 10.3604ZM14.0401 7.49106L13.5754 6.06487C14.8921 5.6358 16.2221 5.2322 17.5631 4.85465L17.9696 6.29852L18.3761 7.74239C17.0739 8.10901 15.7828 8.50084 14.5049 8.91725L14.0401 7.49106ZM21.9438 5.26494L21.5953 3.806C22.944 3.48378 24.3016 3.18771 25.666 2.9184L25.9564 4.39001L26.2469 5.86161C24.9214 6.12325 23.6026 6.41087 22.2924 6.72389L21.9438 5.26494ZM30.0008 3.67458L29.7689 2.19262C31.1412 1.97784 32.5183 1.79026 33.898 1.63048L34.0706 3.12052L34.2431 4.61056C32.9034 4.76571 31.5659 4.9479 30.2328 5.15654L30.0008 3.67458ZM38.1593 2.73067L38.0473 1.23485C39.4351 1.13099 40.8236 1.05574 42.2106 1.00972L42.2603 2.5089L42.3101 4.00807C40.9651 4.0527 39.6181 4.12569 38.2712 4.22649L38.1593 2.73067ZM46.3667 2.46008L46.3812 0.960152C47.7756 0.973584 49.1665 1.01742 50.5518 1.09233L50.4708 2.59014L50.3898 4.08795C49.0496 4.01548 47.7031 3.97302 46.3523 3.96001L46.3667 2.46008ZM54.5649 2.90609L54.7152 1.41364C56.1069 1.55379 57.4905 1.72663 58.864 1.93287L58.6412 3.41624L58.4185 4.89961C57.0942 4.70075 55.7589 4.53392 54.4146 4.39854L54.5649 2.90609ZM62.6866 4.12941L62.9853 2.65944C64.3593 2.93858 65.7205 3.25308 67.0663 3.60372L66.6881 5.05526L66.3099 6.50681C65.0181 6.17024 63.71 5.86796 62.388 5.59939L62.6866 4.12941ZM70.6306 6.20389L71.0921 4.77664C72.429 5.20892 73.7475 5.67955 75.0451 6.18935L74.4966 7.58546L73.9481 8.98158C72.7094 8.49491 71.4489 8.04496 70.1691 7.63113L70.6306 6.20389ZM78.2662 9.20972L78.9051 7.85259C80.1792 8.45241 81.4289 9.09367 82.6514 9.77724L81.9194 11.0865L81.1873 12.3957C80.0274 11.7471 78.8399 11.1377 77.6273 10.5669L78.2662 9.20972ZM85.4277 13.2205L86.2545 11.9689C87.4296 12.7452 88.574 13.5653 89.6849 14.4302L88.7634 15.6138L87.8419 16.7973C86.7937 15.9813 85.7126 15.2064 84.601 14.4721L85.4277 13.2205ZM91.8987 18.2641L92.9129 17.159C93.949 18.1098 94.9487 19.1056 95.9093 20.1472L94.8066 21.1641L93.7039 22.181C92.8006 21.2015 91.86 20.2646 90.8845 19.3693L91.8987 18.2641ZM97.4592 24.2961L98.6438 23.3759C99.5019 24.4806 100.32 25.6291 101.095 26.8222L99.8369 27.6393L98.579 28.4565C97.8501 27.3344 97.0812 26.2546 96.2747 25.2163L97.4592 24.2961ZM101.927 31.1701L103.248 30.4599C103.582 31.0799 103.904 31.7104 104.216 32.3515L102.867 33.0073L101.518 33.6632C101.224 33.0587 100.92 32.4644 100.606 31.8804L101.927 31.1701ZM102.867 33.0073L104.216 32.3515C104.528 32.9925 104.826 33.6352 105.112 34.2793L103.74 34.8873L102.369 35.4953C102.098 34.8833 101.814 34.2726 101.518 33.6632L102.867 33.0073ZM105.27 38.6942L106.681 38.1844C107.163 39.5167 107.591 40.8529 107.97 42.1911L106.527 42.5994L105.083 43.0077C104.724 41.7374 104.317 40.4689 103.86 39.204L105.27 38.6942ZM107.505 46.5952L108.973 46.2906C109.261 47.6774 109.497 49.0641 109.684 50.4485L108.197 50.649L106.711 50.8495C106.533 49.5339 106.309 48.2167 106.036 46.8998L107.505 46.5952ZM108.605 54.739L110.102 54.6417C110.193 56.0499 110.236 57.4535 110.233 58.8502L108.733 58.8464L107.233 58.8425C107.236 57.5121 107.195 56.176 107.108 54.8363L108.605 54.739ZM108.587 62.9529L110.083 63.055C109.987 64.4596 109.846 65.8549 109.663 67.2385L108.176 67.0413L106.689 66.8442C106.864 65.5225 106.999 64.1906 107.09 62.8507L108.587 62.9529ZM107.51 71.0959L108.982 71.3844C108.712 72.7641 108.4 74.1295 108.051 75.4782L106.599 75.1021L105.147 74.7259C105.481 73.4342 105.779 72.1273 106.038 70.8074L107.51 71.0959ZM105.451 79.0499L106.879 79.5104C106.447 80.8499 105.978 82.1697 105.476 83.4672L104.077 82.9255L102.678 82.3839C103.16 81.1392 103.61 79.8735 104.024 78.5894L105.451 79.0499ZM102.483 86.7165L103.849 87.3367C103.266 88.6205 102.651 89.8784 102.006 91.1076L100.678 90.4109L99.3492 89.7142C99.9677 88.535 100.558 87.3281 101.118 86.0962L102.483 86.7165ZM98.6641 93.9963L99.9503 94.7681C99.2221 95.9817 98.4656 97.1617 97.6845 98.3048L96.446 97.4586L95.2075 96.6123C95.9552 95.5181 96.6798 94.3879 97.3779 93.2245L98.6641 93.9963ZM94.0239 100.781L95.208 101.702C94.3335 102.826 93.4352 103.906 92.5173 104.939L91.3964 103.942L90.2754 102.945C91.1486 101.963 92.0049 100.934 92.8399 99.8599L94.0239 100.781ZM88.5595 106.914L89.6059 107.989C88.5755 108.992 87.5265 109.936 86.464 110.815L85.5079 109.659L84.5517 108.503C85.5491 107.678 86.538 106.789 87.513 105.839L88.5595 106.914ZM82.2249 112.13L83.0679 113.371C81.851 114.198 80.622 114.938 79.3883 115.584L78.6929 114.255L77.9974 112.926C79.1221 112.337 80.2528 111.657 81.382 110.89L82.2249 112.13ZM74.9309 115.904L75.4285 117.319C74.0116 117.817 72.5944 118.181 71.1891 118.396L70.9623 116.913L70.7355 115.43C71.9388 115.246 73.1747 114.931 74.4333 114.488L74.9309 115.904ZM66.8586 117.06L66.7243 118.554C65.2148 118.418 63.7422 118.08 62.3274 117.522L62.8778 116.127L63.4282 114.731C64.564 115.179 65.7552 115.455 66.993 115.566L66.8586 117.06ZM59.3284 114.088L58.4063 115.271C57.2808 114.394 56.2286 113.344 55.2583 112.119L56.4343 111.188L57.6103 110.257C58.4425 111.308 59.3266 112.185 60.2504 112.905L59.3284 114.088ZM54.2123 107.762L52.8888 108.467C52.5512 107.834 52.2287 107.171 51.9218 106.478L53.2935 105.871L54.6652 105.264C54.9438 105.893 55.2344 106.49 55.5359 107.056L54.2123 107.762ZM53.2935 105.871L51.9218 106.478C51.6326 105.824 51.3783 105.176 51.1583 104.534L52.5772 104.048L53.9961 103.561C54.1871 104.118 54.4096 104.686 54.6652 105.264L53.2935 105.871ZM51.6955 100.302L50.2069 100.487C50.0253 99.0239 50.0312 97.6082 50.2125 96.2502L51.6993 96.4487L53.1861 96.6471C53.0402 97.7408 53.0328 98.8986 53.184 100.117L51.6955 100.302ZM52.7404 92.7397L51.3682 92.1337C51.9442 90.8294 52.6986 89.6197 53.6042 88.514L54.7646 89.4644L55.9251 90.4149C55.1824 91.3217 54.5737 92.3013 54.1125 93.3457L52.7404 92.7397ZM57.5497 86.792L56.6394 85.5998C57.7165 84.7773 58.8989 84.0492 60.1673 83.4201L60.8338 84.7639L61.5002 86.1077C60.392 86.6574 59.3745 87.2858 58.4601 87.9841L57.5497 86.792ZM64.4203 83.3389L63.9765 81.9061C65.2453 81.513 66.5719 81.2021 67.9441 80.9773L68.1866 82.4575L68.4292 83.9378C67.1877 84.1412 65.9959 84.4212 64.8642 84.7718L64.4203 83.3389ZM72.0298 82.0716L71.9701 80.5728C73.2866 80.5203 74.6327 80.5421 75.9996 80.6413L75.8909 82.1374L75.7823 83.6335C74.5256 83.5422 73.2919 83.5225 72.0895 83.5704L72.0298 82.0716ZM79.731 82.6227L79.9965 81.1464C81.2916 81.3793 82.5978 81.6816 83.9083 82.0559L83.4963 83.4982L83.0843 84.9405C81.8699 84.5936 80.6615 84.3141 79.4655 84.099L79.731 82.6227ZM87.1513 84.7366L87.7 83.3405C88.9212 83.8205 90.1404 84.3654 91.3521 84.9773L90.6759 86.3162L89.9997 87.6552C88.8712 87.0853 87.7371 86.5786 86.6026 86.1326L87.1513 84.7366ZM94.0428 88.2127L94.8367 86.94C95.9475 87.633 97.047 88.3861 98.1308 89.2011L97.2292 90.3999L96.3277 91.5988C95.3134 90.836 94.2857 90.1322 93.2488 89.4853L94.0428 88.2127ZM100.217 92.8507L101.216 91.7313C102.189 92.5994 103.145 93.5221 104.079 94.5008L102.995 95.5368L101.91 96.5728C101.03 95.6516 100.132 94.7846 99.2189 93.97L100.217 92.8507ZM105.553 98.4302L106.714 97.4795C107.536 98.4837 108.338 99.5366 109.117 100.639L107.891 101.504L106.666 102.369C105.928 101.325 105.17 100.329 104.393 99.3809L105.553 98.4302ZM110.01 104.735L111.291 103.954C111.964 105.061 112.616 106.21 113.243 107.403L111.915 108.101L110.587 108.798C109.989 107.661 109.369 106.566 108.729 105.515L110.01 104.735ZM113.614 111.587L114.981 110.969C115.512 112.144 116.021 113.358 116.506 114.609L115.107 115.151L113.708 115.693C113.243 114.491 112.756 113.329 112.247 112.204L113.614 111.587ZM116.403 118.772L117.827 118.302C118.035 118.93 118.236 119.567 118.431 120.212L116.996 120.647L115.56 121.082C115.372 120.459 115.178 119.846 114.978 119.242L116.403 118.772ZM116.996 120.647L118.431 120.212C118.634 120.883 118.82 121.551 118.989 122.216L117.535 122.585L116.081 122.953C115.923 122.333 115.75 121.709 115.56 121.082L116.996 120.647ZM118.332 126.494L119.814 126.266C120.029 127.66 120.17 129.039 120.241 130.401L118.743 130.479L117.245 130.556C117.179 129.296 117.049 128.018 116.849 126.723L118.332 126.494ZM118.743 134.471L120.241 134.549C120.168 135.95 120.022 137.329 119.808 138.685L118.326 138.451L116.844 138.217C117.043 136.963 117.178 135.688 117.245 134.393L118.743 134.471ZM117.5 142.361L118.95 142.745C118.593 144.09 118.17 145.408 117.687 146.697L116.282 146.171L114.878 145.645C115.327 144.446 115.719 143.222 116.05 141.976L117.5 142.361ZM114.704 149.845L116.053 150.5C115.45 151.742 114.792 152.953 114.085 154.133L112.799 153.361L111.512 152.59C112.176 151.483 112.792 150.349 113.355 149.19L114.704 149.845ZM110.602 156.703L111.821 157.577C111.02 158.694 110.176 159.777 109.295 160.826L108.147 159.861L106.998 158.896C107.832 157.904 108.628 156.881 109.383 155.829L110.602 156.703ZM105.463 162.828L106.539 163.873C105.584 164.857 104.596 165.805 103.582 166.715L102.58 165.599L101.578 164.483C102.542 163.617 103.481 162.716 104.388 161.783L105.463 162.828ZM99.5159 168.173L100.443 169.352C99.3616 170.201 98.2593 171.011 97.1417 171.778L96.2925 170.542L95.4434 169.305C96.5087 168.573 97.5593 167.802 98.5892 166.993L99.5159 168.173ZM92.9257 172.699L93.694 173.987C92.5053 174.696 91.3065 175.358 90.1043 175.972L89.4222 174.636L88.7402 173.3C89.8835 172.716 91.0249 172.086 92.1574 171.41L92.9257 172.699ZM85.7992 176.332L86.3871 177.712C85.1012 178.26 83.8185 178.75 82.5474 179.181L82.066 177.76L81.5845 176.34C82.7812 175.934 83.9929 175.471 85.2113 174.952L85.7992 176.332ZM78.2299 178.881L78.5858 180.339C77.9039 180.505 77.2277 180.653 76.5587 180.781L76.2762 179.308L75.9936 177.835C76.6118 177.716 77.2391 177.579 77.874 177.424L78.2299 178.881Z" fill="#2071B5"/>
</svg>
