<svg preserveAspectRatio="none" width="100%" height="100%" overflow="visible" style="display: block;" viewBox="0 0 222 134" fill="none" xmlns="http://www.w3.org/2000/svg">
<path id="Vector 17" d="M19.1081 48.6375C-11.9538 69.4273 2.75952 99.9185 35.4453 99.9185C37.6245 107.311 48.1948 123.758 73.0414 130.411C97.8881 137.064 113.908 118.399 118.812 108.235C135.812 128.193 153.139 114.703 159.678 105.463C173.845 111.931 205.121 116.551 216.89 83.2871C228.66 50.0233 196.73 41.707 179.294 41.7068C170.14 23.9657 151.505 26.9231 143.331 30.6194C142.024 26.1843 135.158 18.6064 131.889 15.3718C99.2041 -9.56436 56.7033 4.28896 48.5294 25.0755C22.382 22.304 18.0186 40.3215 19.1081 48.6375Z" stroke="var(--stroke-0, #6496D3)" stroke-width="3.24527"/>
</svg>
