<?xml version="1.0" encoding="UTF-8"?>
<svg id="icons" xmlns="http://www.w3.org/2000/svg" viewBox="0 0 500 500">
  <defs>
    <style>
      .cls-1 {
        fill: none;
        stroke: #000;
        stroke-linecap: round;
        stroke-linejoin: round;
        stroke-width: .86px;
      }
    </style>
  </defs>
  <path class="cls-1" d="M277.46,126.18c3.04-.88,6.17-1.36,9.24-2.11,9.32-2.3,17.91-6.12,25.77-11.63,4.29-3.01,8.08-6.52,10.96-10.95,4.62-7.13,4.56-15.33-1.31-22.11-3.34-3.86-7.58-6.58-12.01-9.05-13.84-7.7-28.8-11.56-44.46-13.12-5.01-.5-10.01-.82-15.04-.82-12.49.01-24.87,1.24-36.93,4.55-10.84,2.98-21.24,7.16-30.5,13.72-3.93,2.78-7.5,6.08-9.21,10.73-2.32,6.3-1.49,12.32,2.78,17.57,6,7.39,13.95,12.09,22.51,15.94,6.16,2.77,12.57,4.75,19.14,6.16,4.1.88,8.26,1.5,12.44,2.05,8.65,1.14,17.32,1.46,26,1.15,5.38-.19,10.79-.5,16.13-1.57,1.37-.27,2.81-.74,4.28-.51"/>
  <path class="cls-1" d="M220.11,344.19c0,10.67,0,21.34,0,32,0,5.58.13,11.17-.02,16.75-.41,15.46-.08,30.93-.16,46.39,0,1.82-.13,3.68,1.01,5.39,1.55,2.33,4.03,3.48,6.69,2.77,2.87-.76,4.56-3.38,4.56-5.8-.07-31.14-.05-62.29-.05-93.43,0-.94-.07-1.88.21-2.79"/>
  <path class="cls-1" d="M346.83,243.24c.5-2.26.64-4.57.64-6.87.01-44.03.08-88.06-.09-132.09-.02-5.2.41-10.56-1.01-15.67-1.93-6.97-6.19-12.44-11.54-17.22-7.48-6.7-16.2-11.08-25.58-14.38-13.44-4.72-27.32-7.24-41.46-8.59-5.36-.51-10.73-.56-16.11-.67-8.77-.17-17.5.2-26.21,1.31-9.01,1.15-17.91,2.83-26.63,5.39-8.36,2.46-16.42,5.7-23.83,10.32-6.31,3.94-12.13,8.52-16.52,14.61-4.13,5.74-5.78,12.25-5.07,19.31.09.91.33,1.86-.36,2.55-.62.63-.39,1.31-.39,1.96-.02,45.46-.03,90.93.03,136.39,0,3.01.32,6-.01,9.02-.65,5.86,1.67,10.89,4.7,15.68,4.61,7.3,11.15,12.51,18.25,17.2,9.44,6.24,19.82,10.4,30.54,13.63,6.91,2.08,14.01,3.56,21.23,4.45,4.15.51,8.3.9,12.46,1.32,5.1.52,10.18.29,15.26.3,5.46.01,10.89-.66,16.33-1.18,9.57-.92,18.85-3.14,27.88-6.17,8.62-2.89,16.67-7.13,24.32-12.12,6.5-4.25,12.31-9.26,17.12-15.31,3.95-4.96,6.61-10.6,6.45-17.14-.05-1.93.84-3.9-.17-5.8-.13-.25-.6-.45-.44-.21.01.02-.13.14-.2.21"/>
  <path class="cls-1" d="M165.98,116.09v34.8c0,35.58,0,71.17,0,106.75,0,.95.2,1.93-.42,2.79"/>
  <path class="cls-1" d="M334.37,116.09c.7.77.42,1.71.42,2.58.01,46.11,0,92.21.03,138.32,0,.78-.42,1.7.41,2.36"/>
  <path class="cls-1" d="M157.82,107.5c-.63.62-.42,1.41-.42,2.15,0,45.03-.06,97.37-.11,142.4"/>
  <path class="cls-1" d="M342.11,109.43c.37,4.22.7,8.44.22,12.67-.06.57,0,1.14,0,1.72v93.65c0,10.02,0,20.05.01,30.07,0,.71-.25,1.47.2,2.15"/>
  <path class="cls-1" d="M313.33,119.53c4.1-1.77,7.56-4.54,11.17-7.09,3.79-2.67,6.94-5.89,9.03-10.09,2.9-5.82,2.92-11.71.41-17.61-3.87-9.08-11.29-14.65-19.53-19.33-12.08-6.86-25.31-10.28-38.88-12.39-5.94-.92-11.98-1.41-18.03-1.63-2.58-.09-5.16-.13-7.73-.17"/>
  <path class="cls-1" d="M341.25,266.65c2.72,3.42,4.14,7.5,5.07,11.62,1.35,5.98,1.42,12.1.96,18.24-.68,9.05-4.36,16.66-10.53,23.21-6.47,6.86-14.48,11.27-22.98,15.06-9.79,4.38-20.15,6.67-30.53,8.93-1.07.23-2.27.4-3.42.27"/>
  <path class="cls-1" d="M158.68,267.08c-2.63,3.62-4.27,7.69-5.12,12.03-1.38,7.06-1.51,14.12-.1,21.27,1.62,8.17,5.44,14.98,11.46,20.59,8.34,7.76,18.23,12.73,28.96,16.41,8.58,2.95,17.36,5,26.25,6.48,6.36,1.06,12.84,1.57,19.31,1.86,7.52.34,15.04.29,22.55.1,4.95-.12,9.94-.34,14.83-1.4.75-.16,1.57-.02,2.36-.02"/>
  <path class="cls-1" d="M267.36,345.69c0,28.28.02,56.56-.04,84.84,0,2.76,1.76,5.34,4.54,6.24,2.37.77,5.3-.12,6.85-2.39.99-1.44,1.08-3.23,1.08-4.92.03-18.33.16-36.66-.07-54.98-.07-5.44.09-10.88-.03-16.33-.09-3.85.09-10.33.01-14.2"/>
  <path class="cls-1" d="M164.69,273.96c-3.83,4.35-6.55,9.39-7.41,15.05-1.06,6.96.07,13.67,4.84,19.31,5.3,6.27,12.02,10.54,19.56,13.49,5.86,2.3,11.76,4.49,17.8,6.31,6.58,1.97,13.24,3.47,19.98,4.72,11.73,2.18,23.55,3.27,35.44,2.88,5.36-.17,10.77-.12,16.13-1.08,2.7-.48,5.68-.39,8.32-.95,3.8-.81,7.64-1.68,11.45-2.5,8.59-1.86,16.86-4.61,24.87-8.11,7.04-3.08,13.76-6.87,19.54-12,5.98-5.31,13.25-18.36-.19-37.34"/>
  <path class="cls-1" d="M249.53,54.66v-3.43c-4.81-.04-9.6.25-14.39.65-8.51.72-16.88,2.28-25.13,4.48-12.47,3.34-24.24,8.11-34.35,16.35-4.31,3.52-8.07,7.56-10.09,12.88-2.6,6.85-1.47,13.25,2.79,19.1,2.16,2.96,4.83,5.48,7.71,7.75"/>
  <path class="cls-1" d="M185.96,107.07c-2.53-2.26-4.97-4.5-6.5-7.71-2.86-6.01-1.94-12.41,2.39-16.81,3.46-3.52,7.58-6.04,11.85-8.33,9.11-4.87,18.85-7.85,28.97-9.99,10.96-2.31,21.99-3.04,33.09-2.64,12.46.45,24.71,2.32,36.52,6.59,7.97,2.88,15.7,6.18,22.33,11.61,2.74,2.25,5.2,4.69,6.47,8.15,2.14,5.86.39,10.81-3.47,15.25-5.16,5.94-12,9.39-19.12,12.21-10.54,4.16-21.57,6.34-32.84,7.36-5.29.48-10.59.69-15.9.63"/>
  <path class="cls-1" d="M272.73,345.48v89.35"/>
  <path class="cls-1" d="M313.97,136.71c-.44-.05-.79.1-.86.18v128.69"/>
  <path class="cls-1" d="M324.71,122.1c.48,3.14.19,6.3.2,9.45.03,44.39.02,88.78.02,133.17,0,.95-.11,1.92.43,2.79"/>
  <path class="cls-1" d="M153.74,100.41c1.38,1.23,1.8,3.04,2.77,4.52,2.23,3.4,5.01,6.25,8.17,8.81,10.79,8.76,23.24,14.28,36.34,18.38,5.88,1.84,11.91,3.42,18.03,4.3,5.2.75,10.39,1.54,15.66,1.87,5.87.37,11.73.87,17.62.77,5.45-.08,10.91-.34,16.31-.93,2.86-.31,5.81-.32,8.6-1.21"/>
  <path class="cls-1" d="M176.29,122.32c-.52,3.21-.18,6.45-.19,9.67-.05,19.9-.03,39.81-.03,59.71v75.17"/>
  <path class="cls-1" d="M249.73,301.27c.01,11.36.01,22.72.01,34.08"/>
  <path class="cls-1" d="M249.53,128.55c.21,52.62.21,105.89.19,158.72"/>
  <path class="cls-1" d="M306.02,90.74h-48.33"/>
  <path class="cls-1" d="M295.07,78.29c-8.38-4.65-17.45-7.03-26.84-8.64-8.78-1.51-17.63-1.61-26.42-1.13-11.99.65-23.7,3.01-34.6,8.46-2.02,1.01-3.91,2.22-5.79,3.46"/>
  <path class="cls-1" d="M346.4,101.27c-1.58.7-1.56,2.45-2.33,3.67-4.11,6.54-10,11.21-16.39,15.17-9.34,5.78-19.49,9.94-30.05,12.87-5.68,1.58-11.46,2.96-17.37,3.56-.85.09-1.69.47-2.58.39"/>
  <path class="cls-1" d="M296.36,108.36c-7.23,3.86-14.95,6.19-22.97,7.78-9.6,1.89-19.29,2.52-29,2.03-8.78-.45-17.49-1.6-26.02-4.12-5.5-1.63-10.73-3.65-15.65-6.54"/>
  <path class="cls-1" d="M176.94,113.08c9.41,6.52,19.68,11.15,30.71,14.2,5.52,1.52,11.11,2.54,16.75,3.47,9.69,1.61,19.42,2.18,29.22,2.08,6.99-.07,13.91-.72,20.84-1.66,6.54-.89,12.96-2.22,19.32-3.93,6.56-1.76,12.9-4.09,18.9-7.3"/>
  <path class="cls-1" d="M187.89,127.36c-.06,14.61.59,45,.43,59.61"/>
  <path class="cls-1" d="M223.12,255.27c-4.51.59-8.91,1.69-13.32,2.79-9.96,2.49-19.23,6.59-27.91,12.05-.27.17-.66.39-.65.84"/>
  <path class="cls-1" d="M153.95,246.25c1.35,2.48,2.09,5.25,3.85,7.53,3.18,4.13,7.18,7.31,11.38,10.32,10.76,7.68,22.78,12.75,35.27,16.63,6.61,2.05,13.46,3.42,20.36,4.47,10.56,1.6,21.15,2.46,31.8,2,6.09-.26,12.25-.28,18.26-1.62.68-.15,1.43-.02,2.14-.02"/>
  <path class="cls-1" d="M186.82,107.5c4.58,3.61,9.86,5.92,15.26,7.93,12.26,4.54,25.04,6.68,38.01,7.72,3.06.24,6.15.41,9.23.25"/>
  <path class="cls-1" d="M277.89,255.7c5.42.58,10.69,1.97,15.87,3.52,8.41,2.51,16.49,5.97,24.07,10.47.59.35,1.47.53,1.52,1.48"/>
  <path class="cls-1" d="M188.11,315.84c12.7,6.18,26.25,9.34,40.16,11.17"/>
  <path class="cls-1" d="M312.68,315.41c-8.66,4.39-17.78,7.47-27.28,9.42-2.55.52-5.08,1.3-7.73,1.32"/>
  <path class="cls-1" d="M345.97,243.89c-1.14,1.88-1.54,4.08-2.55,6.03-3.26,6.25-8.25,10.92-13.8,14.99-10.05,7.36-21.17,12.71-33.07,16.3-5.54,1.67-11.25,2.82-16.95,3.91-.55.11-1.14.01-1.72.01"/>
  <path class="cls-1" d="M247.6,91.17c-4.63,2.09-11.92,5.65-13.97,6.65-.67.33-1.1.81-.82,1.5.3.76,1.25.63,1.67.4,4.56-2.52,15.11-7.25,15.7-7.48"/>
  <path class="cls-1" d="M277.24,136.92c0,27.64.21,44.75.21,72.38,0,14.39.04,28.78-.02,43.17-.03,6.51.27,13.03-.13,19.55"/>
  <path class="cls-1" d="M253.19,91.82c9.6-4.95,10.85-5.12,14-7.13-.23-1.24-.64-1.46-1.99-.87-4.09,1.77-8.17,3.56-12.22,5.43-.7.32.3.01-2.15.86"/>
  <path class="cls-1" d="M223.33,299.03v13.81"/>
  <path class="cls-1" d="M223.33,179.88c-.08,13.69.05,27.38.19,41.06.14,13.71.29,27.43.23,41.14-.03,7.73-.13,15.45-.33,23.18"/>
  <path class="cls-1" d="M223.54,137.06c0,10.17-.21,32.22-.21,42.39"/>
  <path class="cls-1" d="M188.53,189.12c-.47,9.52-.1,19.04-.21,28.57,0,.51-.09,1.04.21,1.5"/>
  <path class="cls-1" d="M277.24,312.83c-9.04,2.13-18.23,2.92-27.49,3.01"/>
  <path class="cls-1" d="M277.03,255.27c-3.38-.23-6.72-.76-10.09-1.1-2.22-.23-4.45-.49-6.66-.55-3.58-.1-7.15-.42-10.74-.28"/>
  <path class="cls-1" d="M304.95,310.25c-8.2,4.64-17.03,7.51-26.21,9.44-.34.07-.71,0-1.07,0"/>
  <path class="cls-1" d="M277.03,221.76c-4.52-.33-9.03-.77-13.54-1.25-2.77-.3-5.59-.23-8.38-.36-5.06-.25-10.16-.26-15.25.08-4.22.28-8.43.7-12.67.68"/>
  <path class="cls-1" d="M277.03,326.58c-3.65.42-7.32.71-10.96,1.25-2.19.32-4.45.26-6.66.36-4.64.22-9.31.38-13.96-.11"/>
  <path class="cls-1" d="M277.03,320.14c-3.25.24-6.44.9-9.66,1.35-5.86.82-11.74.81-17.62.8"/>
  <path class="cls-1" d="M277.03,249.26c-3.81-.29-7.59-.95-11.39-1.21-3-.21-6.01-.45-9.02-.49-5.58-.07-11.18-.2-16.75.03-5.46.23-10.93.65-16.33,1.67"/>
  <path class="cls-1" d="M186.17,80.01c.5,1.27.21,2.58.19,3.87-.1,7.59.22,15.82-.11,23.41"/>
  <path class="cls-1" d="M188.32,231.64v26.63"/>
  <path class="cls-1" d="M207.44,307.68c4.16,1.63,8.29,3.26,12.66,4.35,5.53,1.39,11.08,2.47,16.76,2.99,4.15.38,8.29.81,12.46.81"/>
  <path class="cls-1" d="M249.1,253.12c-2.2.44-4.45.32-6.66.38-5.19.13-10.34.51-15.47,1.32-1.14.18-2.34-.12-3.43.45"/>
  <path class="cls-1" d="M277.89,249.69c5.62.51,11.1,1.75,16.54,3.22,2.8.76,5.59,1.57,8.38,2.36"/>
  <path class="cls-1" d="M249.32,93.11c.36.76.21,1.57.21,2.36,0,10.45,0,20.91,0,31.36"/>
  <path class="cls-1" d="M223.12,249.26c-8.13,1.08-16.02,3.17-23.84,5.58"/>
  <path class="cls-1" d="M233.21,320.78c-7.18-.89-14.3-2.06-21.26-4.08-4.34-1.26-8.52-2.97-12.67-4.73"/>
  <path class="cls-1" d="M170.71,279.33c-.6,1.09-1.46,1.98-2.16,3-4.32,6.31-4.66,12.82-1.04,19.54.2.37.47.65.4,1.09"/>
  <path class="cls-1" d="M328.79,279.33c5.46,6.08,6.87,14.69,3.67,21.06-.16.33-.27.59-.66.64"/>
  <path class="cls-1" d="M179.73,296.72c2.58.34,4.92,1.17,6.66,3.22,1.25,1.48,1.49,3.85.42,5.36-2.86,4.05-12.54,5.2-15.68.23-1.15-1.82-1.11-3.93.22-5.6,1.72-2.16,4.13-2.72,6.67-3,.5-.06,1.04.09,1.5-.22"/>
  <path class="cls-1" d="M324.28,296.72c-1.9.37-3.86.33-5.62,1.45-1.04.67-1.89,1.43-2.53,2.42-1.23,1.91-.76,4.36,1.06,6.01,2.52,2.28,9.15,2.65,11.81.64,4.52-3.41,2.67-7.78-1.05-9.51-1.15-.53-2.34-.59-3.46-1.02"/>
  <path class="cls-1" d="M249.53,61.75c0,8.16,0,16.32-.02,24.49,0,.71.26,1.47-.2,2.15"/>
  <path class="cls-1" d="M296.79,305.53c-5.79,3.08-11.77,5.65-18.25,6.9-.27.05-.46.5-.86.4"/>
  <path class="cls-1" d="M268.86,210.59c-8.59-.31-17.17-1.24-25.77-.8-3.29.17-6.58.38-9.88.37"/>
  <path class="cls-1" d="M225.69,345.26c-.46,1.99-.17,4.01-.2,6.01-.05,3.94-.02,7.88-.02,11.81"/>
  <path class="cls-1" d="M250.32,92.25c5.4,2.31,10.17,5.58,15.76,7.73.43,0,.86-.43.86-.43,0-.86-.86-1.29-1.29-1.72-4.3-1.72-8.59-3.87-12.46-6.01"/>
  <path class="cls-1" d="M250.66,89.97c-4.77-2.44-9.93-4.59-14.65-6.74-.43,0-1.68.8-.86,1.29,5.29,3.15,8.76,4.94,12.44,6.53"/>
  <path class="cls-1" d="M313.33,80.01c-.48,3.36-.16,6.73-.2,10.1-.06,5.23,0,10.45-.03,15.68,0,.39.14.72.23,1.07"/>
  <path class="cls-1" d="M215.6,91.17h-13.75"/>
  <path class="cls-1" d="M323.63,282.76c.5,3.79.07,7.59.22,11.38.03.8-.24,1.67.42,2.36"/>
  <path class="cls-1" d="M277.24,299.73c.36.76.21,1.57.21,2.36,0,10.52,0,21.05,0,31.57"/>
  <path class="cls-1" d="M176.94,284.05v12.89"/>
  <path class="cls-1" d="M225.48,364.38v12.46"/>
  <path class="cls-1" d="M313.11,292.21c0,9.59,0,19.19.02,28.78,0,.64-.28,1.33.2,1.93"/>
  <path class="cls-1" d="M277.46,274.6c0,3.7,0,7.39,0,11.09"/>
  <path class="cls-1" d="M187.25,220.47c.38.03.75.04,1.01-.3.23,3.38-.2,6.68.26,9.97.08.54-.52.48-.84.64"/>
  <path class="cls-1" d="M225.48,394.02v9.88"/>
  <path class="cls-1" d="M197.13,84.3c-4.12,4.79-4.87,10.55-1.29,16.75"/>
  <path class="cls-1" d="M324.92,308.97c-.34,2.94-.37,5.87,0,8.81"/>
  <path class="cls-1" d="M216.89,222.62c-2.37-.14-4.59.67-6.86,1.12-.59.12-1.16.05-1.73.16"/>
  <path class="cls-1" d="M312.9,128.33c.46,1.99.08,4.01.22,6.01.05.79-.23,1.61.21,2.36"/>
  <path class="cls-1" d="M176.94,308.97v9.02"/>
  <path class="cls-1" d="M302.37,83.87c2.43,3.1,4.53,6.31,4.33,10.53-.05,1.11-.73,2.09-.47,3.22"/>
  <path class="cls-1" d="M188.53,305.1c2.03,1.6,4.2,3.01,6.44,4.3"/>
  <path class="cls-1" d="M249.32,322.28c-2.22.15-4.45-.28-6.66.21"/>
  <path class="cls-1" d="M223.54,313.26c-.5,5.72-.05,11.46-.22,17.18-.02.79.15,1.6-.21,2.36"/>
  <path class="cls-1" d="M308.38,295.65c-1.69,2.04-3.55,3.9-5.58,5.58"/>
  <path class="cls-1" d="M200.99,303.81c1.69,1.05,3.35,2.15,5.15,3.01"/>
  <path class="cls-1" d="M277.03,179.24h-3.44"/>
  <path class="cls-1" d="M222.9,221.76h-2.58"/>
  <path class="cls-1" d="M279.6,211.88h-2.15"/>
  <path class="cls-1" d="M223.12,211.45h-1.93"/>
  <path class="cls-1" d="M315.26,314.12c-.57.28-1.14.58-1.72.86"/>
</svg>