<?xml version="1.0" encoding="UTF-8"?>
<svg id="icons" xmlns="http://www.w3.org/2000/svg" viewBox="0 0 500 500">
  <defs>
    <style>
      .cls-1 {
        fill: none;
        stroke: #000;
        stroke-linecap: round;
        stroke-linejoin: round;
        stroke-width: .95px;
      }
    </style>
  </defs>
  <path class="cls-1" d="M101.29,321.59c-1.45,6.02-1.59,12.18-2.01,18.31-.52,7.54-.41,15.07.47,22.58,1.36,11.47,5.73,21.59,13.54,30.2,9.79,10.78,21.78,18.26,34.91,24.33,11.87,5.49,24.28,9.08,36.87,12.33,8.1,2.09,16.32,3.51,24.52,5.09,3.74.72,7.59,1.05,11.39,1.57,6.32.87,12.69,1.32,19.03,1.71,5.99.37,12.02.63,18.06.2,4.34-.31,8.72-.1,13.07-.54,4.36-.44,8.73-.78,13.08-1.37,3.72-.5,7.46-.87,11.16-1.5,6.07-1.05,12.07-2.41,18.09-3.7,11.11-2.39,21.85-5.9,32.55-9.61,10.68-3.7,20.78-8.57,29.95-15.22,10-7.26,18.62-15.85,24.46-26.87,3.49-6.57,5.03-13.71,5.55-21.14.55-7.87.09-15.71-.38-23.53-.41-6.85-1.48-13.67-2.64-20.47-1.62-9.56-3.19-19.1-5.57-28.51-2.88-11.37-6.32-22.54-10.41-33.54-3.39-9.11-7.06-18.06-11.18-26.87-5.42-11.6-11.05-23.07-16.86-34.48-4.5-8.85-9.03-17.68-13.9-26.33-7.48-13.28-15.47-26.26-24.19-38.78-8.88-12.75-17.93-25.38-27.66-37.5-5.34-6.65-11-13.05-16.75-19.37-5.33-5.86-11.02-11.23-17.42-15.87-5.62-4.07-8.81-3.39-14-.19-6.08,3.75-11.09,8.83-15.92,14.01-5.21,5.59-10.17,11.41-15.02,17.31-6.47,7.86-12.57,16.02-18.47,24.3-6.7,9.39-12.98,19.08-19.33,28.71-7.08,10.72-13.41,21.88-19.68,33.07-6.03,10.76-11.73,21.7-17.16,32.78-10.25,20.91-19.71,42.14-26.59,64.44-4.02,13.04-7.5,26.22-9.79,39.69-.74,4.35-1.66,8.66-1.87,13.08-.02.48-.12,1,.24,1.43,1.02.08,1.2-.94,1.37-1.44,3.13-9.13,9.24-15.84,16.92-21.39,12.72-9.19,26.76-15.7,41.64-20.35,11.74-3.67,23.7-6.61,35.86-8.72,4.84-.84,9.69-1.86,14.54-2.64,3.26-.53,6.64-.81,9.95-1.18,4.99-.56,9.98-1.03,14.99-1.33,7.21-.44,14.42-.52,21.63-.46,7,.06,13.96.72,20.93,1.33,4.53.4,9.04.98,13.53,1.59,6.14.83,12.24,2,18.32,3.24,6.12,1.26,12.23,2.59,18.32,3.99,6.18,1.42,12.27,3.12,18.28,5.09,5.48,1.79,11.01,3.57,16.16,6.18,8.82,4.47,17.45,9.24,24.79,16.08,4.79,4.46,9.15,9.19,12.56,14.78"/>
  <path class="cls-1" d="M356.25,354.16c.96-4.7-1.57-8.18-4.31-11.38-8.18-9.54-18.41-16.15-30.16-20.47-7.27-2.67-14.79-4.49-22.34-6.21-4.73-1.08-9.51-1.99-14.29-2.72-3.43-.52-6.94-.86-10.44-1.11-8.71-.62-17.42-1.13-26.15-.89-5.87.16-11.76.36-17.58,1.02-8.54.97-17.06,2.16-25.46,4.13-6.91,1.62-13.71,3.45-20.47,5.64-9.99,3.24-18.71,8.51-26.76,14.95-4.37,3.5-8.72,7.22-11.29,12.49-.55,1.12-.54,2.63-1.84,3.36"/>
  <path class="cls-1" d="M149.91,418.34c-.59.77.02,1.17.47,1.67,4.32,4.75,9.61,8.15,15.21,11.19,10.21,5.54,21.27,8.79,32.38,11.74,6.37,1.69,12.91,2.94,19.46,3.93,6.71,1.01,13.41,1.96,20.2,2.48,9.21.71,18.4.63,27.58.27,7.02-.28,13.99-1.42,20.94-2.68,10.9-1.98,21.56-4.67,32.11-8.06,12.83-4.13,24.73-9.79,35.12-18.43.47-.39,1.82-.66.98-1.87"/>
  <path class="cls-1" d="M351.5,370.56c-1.13-5.54-5.4-8.76-9.31-12.08-6.93-5.87-15.03-9.68-23.47-12.94-7.32-2.83-14.8-5.16-22.4-6.95-5.83-1.37-11.78-2.42-17.8-3.03-5.62-.57-11.26-.95-16.87-1.48-7.81-.74-15.57-.41-23.3.22-7.02.57-13.99,1.81-20.95,3.11-9.33,1.74-18.51,3.94-27.55,6.77-7.43,2.33-14.54,5.35-21.16,9.5-4.55,2.85-8.53,6.31-11.64,10.71-1.05,1.48-1.86,3.08-1.67,4.99"/>
  <path class="cls-1" d="M177.25,381.73c12.07,6.51,24.91,11.01,38.29,13.68,10.54,2.11,21.24,3.36,32.07,3.54,7.32.12,14.61-.02,21.87-.64,13.37-1.14,26.47-3.84,39.22-8.06,5.66-1.88,11.12-4.33,16.41-7.1"/>
  <path class="cls-1" d="M104.53,353.48c-.94-5.83-.91-11.35,1.26-16.63,2.08-5.08,5.73-9.25,9.65-13.12,8.57-8.47,19.45-13.21,29.97-18.52,8.61-4.34,17.97-6.6,27.09-9.54,8.18-2.64,16.57-4.5,24.98-6.08,9.33-1.75,18.78-2.76,28.27-3.46,12.04-.89,24.09-.81,36.14-.58,7.45.14,14.91.6,22.34,1.19,9.02.72,17.98,2.26,26.86,4.03,10.22,2.03,20.32,4.64,30.22,7.97,6.86,2.31,13.72,4.6,20.19,7.9,6.78,3.45,13.6,6.86,19.72,11.43,6.94,5.19,13.44,10.84,17.87,18.5,2.7,4.68,2.25,9.26.25,14.05-3.8,9.12-9.6,16.81-16.99,23.2-3.71,3.21-7.96,5.9-12.52,7.93"/>
  <path class="cls-1" d="M357.21,352.49c1.15,3,.14,5.87-.45,8.8-2.06,10.3-8.66,17.3-16.68,23.28-11.21,8.36-23.95,13.46-37.32,17.11-6.55,1.79-13.21,2.99-19.95,3.9-11.06,1.5-22.14,2.38-33.29,2.04-8.59-.26-17.14-.89-25.69-2.01-7.71-1.01-15.3-2.41-22.81-4.37-6.38-1.67-12.5-4.06-18.54-6.66-6.27-2.7-12.06-6.26-17.58-10.24-6.94-5-12.67-11.03-15.22-19.48-1.57-5.24-1.02-10.37,1.46-15.19,1.33-2.58,2.2-5.43,4.19-7.67.29-.32.45-1.16-.2-1.63"/>
  <path class="cls-1" d="M307.05,335.14c-3.48-.38-6.8-1.49-10.22-2.16-6.7-1.3-13.42-2.33-20.2-3.17-11-1.36-22.02-1.47-33.05-1.28-5.4.1-10.79.61-16.18,1.27-4.04.49-8.08.98-12.12,1.5-7.41.95-14.68,2.57-21.86,4.59-.67.19-1.29.07-1.91.2"/>
  <path class="cls-1" d="M312.28,350.08c-3.32-.51-6.45-1.74-9.73-2.46-3.95-.86-7.91-1.65-11.9-2.32-6.7-1.12-13.44-1.74-20.21-2.1-7.44-.4-14.88-.61-22.35-.33-5.8.22-11.58.51-17.35,1.03-5.57.5-11.12,1.21-16.64,2.12-5.04.83-9.94,2.27-14.97,3.1"/>
  <path class="cls-1" d="M352.69,251.46c-8.38-4.25-16.87-8.17-25.88-11.02-8.58-2.72-17.12-5.56-25.96-7.19-6.2-1.14-12.47-2.03-18.75-2.8-11.4-1.41-22.81-1.78-34.24-1.51-9.55.23-19.06,1-28.54,2.45-6.58,1.01-13.09,2.46-19.72,3.2"/>
  <path class="cls-1" d="M305.14,242.43c-5.06-1.11-10.11-2.26-15.22-3.04-8.66-1.33-17.37-2.32-26.14-2.71-4.76-.21-9.51-.62-14.26-.38-7.62.38-15.24.74-22.83,1.78-7.5,1.03-14.93,2.34-22.34,3.88-1.85.39-3.59,1.15-5.47,1.43"/>
  <path class="cls-1" d="M370.35,381.49c-6.98,5.38-13.88,8.01-21.43,10.8-8.89,3.28-18.05,5.49-27.15,7.92-6.96,1.85-14.11,2.99-21.13,4.62-9.48,2.2-19.14,3.24-28.78,4.17-11.06,1.07-22.17,1.04-33.28.13-9.4-.77-18.77-1.67-28.04-3.41-6.01-1.13-11.93-2.64-17.87-4.13-6.54-1.64-13.1-3.17-19.44-5.41-8.77-3.1-17.72-5.73-26.17-9.68-.44-.21-.92-.33-1.42-.24"/>
  <path class="cls-1" d="M296.11,269.53c-3.27-.35-6.51-.86-9.76-1.35-3.37-.51-6.8-.73-10.21-1-9.81-.77-19.64-1.3-29.47-.95-6.98.25-13.96.76-20.93,1.29-6.87.52-13.61,1.82-20.44,2.48"/>
  <path class="cls-1" d="M297.3,184.18c-8.41-1.61-16.89-2.56-25.43-3.15-8.87-.61-17.75-1.11-26.63-.84-7.39.22-14.76.92-22.12,1.76-8.73,1.01-17.32,2.59-25.92,4.3-.59.12-1.15,1.1-1.89.31"/>
  <path class="cls-1" d="M293.73,167.3c-6.05,1.37-12.14,2.48-18.29,3.41-9.88,1.49-19.78,2.03-29.73,1.77-7.41-.19-14.8-.85-22.13-2.24-3.95-.75-7.91-1.48-11.87-2.23"/>
  <path class="cls-1" d="M268.53,282.36c-6.66,0-13.31,0-19.97,0-7.66.01-15.23-1.08-22.83-1.83-6.45-.63-12.83-1.66-19.24-2.54-4.69-.65-9.44-1.25-14.04-2.53-1.26-.35-2.53-.19-3.8-.23"/>
  <path class="cls-1" d="M243.81,296.63c-2.43.5-4.92.27-7.37.42-9.97.61-19.89,1.48-29.72,3.35-8.22,1.57-16.32,3.52-24.25,6.19-4.19,1.41-8.24,3.19-12.36,4.77"/>
  <path class="cls-1" d="M281.37,117.14c3.19-.16,6.2.8,9.27,1.42.72.15.57.69.74,1.19,1.96,5.9,4.13,11.73,6.23,17.57,2.75,7.63,5,15.4,7.55,23.08,2.91,8.79,5.43,17.69,7.9,26.61,2.5,9.05,4.57,18.21,6.51,27.37,1.76,8.34,3.68,16.68,4.6,25.18"/>
  <path class="cls-1" d="M200.54,165.64c-1.29,4.43-2.58,8.88-3.72,13.33-2.82,10.98-5.85,21.91-8.21,33.01-1.97,9.26-3.82,18.54-5.57,27.84-.4,2.1-1.01,4.22-1.03,6.4-.01,1.93-1.14,2.67-2.86,2.85"/>
  <path class="cls-1" d="M279.47,116.43c-3.42-.96-6.98-1.07-10.47-1.35-5.29-.43-10.6-.76-15.92-.57-8.27.31-16.56.29-24.73,1.89-.92.18-1.92-.03-2.85.26"/>
  <path class="cls-1" d="M224.79,117.38c-.79,4.96-2.54,9.68-3.9,14.47-3.69,13.07-6.93,26.24-9.91,39.48-.95,4.2-2.31,8.31-2.83,12.6"/>
  <path class="cls-1" d="M207.68,184.66c-4.03,16.52-6.18,33.36-8.49,50.22-5.01,1.09-9.83,2.72-14.81,3.74"/>
  <path class="cls-1" d="M298.01,184.66c2.3,9.43,4.08,18.96,5.69,28.53,1.04,6.17,2.15,12.32,2.87,18.54.1.88.65,1.68.48,2.62"/>
  <path class="cls-1" d="M273.29,95.04c1.49,4.66,3.37,9.18,4.97,13.79,1.94,5.56,3.69,11.18,5.27,16.87,2.65,9.56,5.26,19.13,7.54,28.78,1.89,8.01,3.78,16.01,5.74,24,.46,1.87.89,3.76.99,5.81,5.01.48,9.86,1.88,14.72,3.22"/>
  <path class="cls-1" d="M271.39,74.59c5.88,11.74,11.74,23.49,16.21,35.88.94,2.62,2.67,4.95,2.81,7.86"/>
  <path class="cls-1" d="M143.98,385.26c-11.88-4.82-22.62-11.35-31.16-21.12-2.59-2.96-4.79-6.21-6.85-9.53-.29-.46-.71-.57-.99-.92"/>
  <path class="cls-1" d="M239.53,76.49c-1.5,4.45-3.59,8.67-5.23,13.07-3.25,8.71-6.24,17.52-8.98,26.41-.21.7-.25.83-.99.99-3.09.66-6.21,1.12-9.28,1.85"/>
  <path class="cls-1" d="M356.49,204.86c-12.41-7.1-25.65-12.12-39.46-15.69"/>
  <path class="cls-1" d="M124,319.92c.05,8.16.01,16.32.16,24.49.08,4.46.33,8.82,1.71,13.08.34,1.05.67,2.04,1.45,2.84"/>
  <path class="cls-1" d="M260.93,297.58c10.69.32,21.31,1.24,31.86,3.05,6.88,1.18,13.76,2.22,20.44,4.3.51.16,1.1.02,1.66.02"/>
  <path class="cls-1" d="M211,129.27c-.21,2.38-1.44,4.43-2.13,6.66-2.64,8.5-5.17,17.04-7.34,25.68-.19.77-.82,1.48-.51,2.37"/>
  <path class="cls-1" d="M322.74,274.28c-3.35.1-6.44,1.54-9.75,1.92-5.88.66-11.69,1.81-17.59,2.42-5.63.58-11.22,1.59-16.88,1.84"/>
  <path class="cls-1" d="M381.69,320.4c.63,10.3-.08,20.6-.08,30.9,0,3.36-.31,6.82-1.92,9.98-3.95-.37-7.04,1.06-8.94,4.76"/>
  <path class="cls-1" d="M307.52,235.77c.71,5.07,1.59,10.13,2.09,15.22.63,6.33,1.36,12.66,1.71,19.01"/>
  <path class="cls-1" d="M187.71,188.7c-5.78,1.26-11.36,3.16-16.87,5.26-2.51.96-4.88,2.29-7.38,3.3"/>
  <path class="cls-1" d="M181.53,248.84c-.88,4.83-2,9.62-2.61,14.5-.4,3.25-1.31,6.44-1.2,9.75"/>
  <path class="cls-1" d="M326.06,249.32c.5,4.05,1.1,8.08,1.63,12.13.37,2.76.64,5.53.74,8.32.03.75-.13,1.53.48,2.14"/>
  <path class="cls-1" d="M373.13,315.17c-6.19,6.71-13.65,11.63-21.87,15.45"/>
  <path class="cls-1" d="M143.01,255.74c6.72,4.9,14.09,8.54,21.87,11.41"/>
  <path class="cls-1" d="M252.13,291.6c-.68.01-3.56.92-4.01,1.26-1.59,1.18-3.25,5.45.45,7.45,3.54,1.91,7.03,1.66,8.83-.58,1.28-1.59,1.9-4.81,1.13-6.17-.46-.83-4.82-2.07-6.08-1.96"/>
  <path class="cls-1" d="M344.68,311.97c-.68.01-3.56.92-4.01,1.26-1.59,1.18-3.25,5.45.45,7.45,3.54,1.91,7.03,1.66,8.83-.58,1.28-1.59,1.9-4.81,1.13-6.17-.46-.83-4.82-2.07-6.08-1.96"/>
  <path class="cls-1" d="M156.81,309.7c-.68.01-3.56.92-4.01,1.26-1.59,1.18-3.25,5.45.45,7.45,3.54,1.91,7.03,1.66,8.83-.58,1.28-1.59,1.9-4.81,1.13-6.17-.46-.83-4.82-2.07-6.08-1.96"/>
  <path class="cls-1" d="M262.83,70.31c1.79,5.11,4.28,9.92,6.2,14.97.88,2.32,2.29,4.43,2.83,6.9"/>
  <path class="cls-1" d="M222.89,98.84c-1.94,5.2-4.39,10.19-6.22,15.44-.5,1.42-1.14,2.79-1.39,4.29"/>
  <path class="cls-1" d="M157.28,423.1c5.93,4.23,12.21,7.83,19.02,10.46"/>
  <path class="cls-1" d="M236.2,73.64c-3.65,6.01-6.93,12.22-9.98,18.54"/>
  <path class="cls-1" d="M123.05,298.53c-.02,5.95-.03,11.91.71,17.83"/>
  <path class="cls-1" d="M175.82,141.63c-.56,7.3,2.49,12.75,8.56,16.64"/>
  <path class="cls-1" d="M360.77,270c3.4,4.84,6.32,9.91,7.89,15.68.17.64.15,1.12-.04,1.68"/>
  <path class="cls-1" d="M126.37,277.13c-1.95,5.54-3.41,11.18-3.33,17.12"/>
  <path class="cls-1" d="M309.9,243.85c5.7,1.77,11.38,3.6,17.12,5.23"/>
  <path class="cls-1" d="M369.33,289.97c-.56,5.58-2.1,10.78-5.71,15.21"/>
  <path class="cls-1" d="M310.85,321.83c1.35,0,2.54.64,3.81.92.95.21.97.73.95,1.46-.11,3.74-1.12,7.4-1,11.17.01.32-.24.8-.43,1.19"/>
  <path class="cls-1" d="M178.33,328.72c-1.35,0-2.54.64-3.81.92-.95.21-.97.73-.95,1.46.11,3.74,1.12,7.4,1,11.17-.01.32.24.8.43,1.19"/>
  <path class="cls-1" d="M314.42,292.11c-.68,1.62.08,3.19.29,4.75.39,2.85.45,5.71.39,8.61,3.76.68,7.04,2.14,10.49,3.04"/>
  <path class="cls-1" d="M379.31,280.94c1.02,4.06,1.76,8.17,1.9,12.36"/>
  <path class="cls-1" d="M312.75,277.61c.15,4,.58,7.97,1.43,11.89"/>
  <path class="cls-1" d="M122.57,367.47c-1.01-1.79-.24-3.14.93-4.53,1.39-1.65,3.23-1.51,4.74-.85,2.3,1.01,3.85,2.93,4.84,5.36.75,1.83-1.01,2.8-1,4.3"/>
  <path class="cls-1" d="M209.1,120.23c-3.9.53-7.55,1.88-11.18,3.32-.21.08-.47.01-.71.01"/>
  <path class="cls-1" d="M203.4,320.88c-3.94.15-7.61,1.57-11.41,2.38"/>
  <path class="cls-1" d="M198.17,243.85c-3.07-.14-5.67,1.57-8.56,2.15-.96.19-1.8.87-2.85.71"/>
  <path class="cls-1" d="M174.39,284.27c-.45,3.74-1.17,7.44-1.66,11.17"/>
  <path class="cls-1" d="M305.14,164.45c-3.58,1.19-7.26,2.01-10.94,2.85"/>
  <path class="cls-1" d="M372.66,268.1c2.31,3.43,4.69,6.83,5.71,10.94"/>
  <path class="cls-1" d="M199.12,164.93c3.47.63,6.8,1.82,10.22,2.64.65.16,1.27.19,1.91.21"/>
  <path class="cls-1" d="M351.74,262.87c-3.36,1.52-6.48,3.54-9.98,4.75"/>
  <path class="cls-1" d="M182,239.57c-3.42.84-6.62,2.33-9.98,3.33"/>
  <path class="cls-1" d="M381.22,302.33c.08,4.12.7,8.23.48,12.36"/>
  <path class="cls-1" d="M291.59,118.81c3.32.49,6.45,1.78,9.75,2.38"/>
  <path class="cls-1" d="M318.46,128.32c-3.18-1.4-6.06-3.48-9.51-4.28"/>
  <path class="cls-1" d="M375.51,231.01c.22,3.22-.26,6.38-.95,9.51"/>
  <path class="cls-1" d="M379.31,303.76c-.62,3-2.37,5.47-3.8,8.08"/>
  <path class="cls-1" d="M198.88,235.29c.12,2.79-.27,5.55-.48,8.32"/>
  <path class="cls-1" d="M315.6,305.9c-.61,1.27-.02,2.54.03,3.8.11,2.78-.49,5.55-.03,8.32"/>
  <path class="cls-1" d="M172.84,296.63c-.61,1.27-.02,2.54.03,3.8.11,2.78-.49,5.55-.03,8.32"/>
  <path class="cls-1" d="M172.84,312.44c-.61,1.27-.02,2.54.03,3.8.11,2.78-.49,5.55-.03,8.32"/>
  <path class="cls-1" d="M324.64,240.29c-.08,2.51,1.21,4.84.95,7.37"/>
  <path class="cls-1" d="M333.67,312.32c-2.17-1.05-4.27-2.3-6.66-2.85"/>
  <path class="cls-1" d="M350.79,330.62c-2.34.86-4.48,2.13-6.66,3.33"/>
  <path class="cls-1" d="M383.12,362.24c1.55,1.99,2.57,4.09,1.43,6.66"/>
  <path class="cls-1" d="M346.03,257.64c-2.09-.88-3.94-2.29-6.18-2.85"/>
  <path class="cls-1" d="M160.61,258.12c-1.97.99-3.98,1.92-5.71,3.33"/>
  <path class="cls-1" d="M131.13,369.37c-.65-2.2-1.82-3.88-4.28-4.28"/>
  <path class="cls-1" d="M322.74,155.89c-1.9,1.27-3.62,2.81-5.71,3.8"/>
  <path class="cls-1" d="M135.41,248.61c1.55,1.93,3.3,3.68,5.23,5.23"/>
  <path class="cls-1" d="M311.8,271.9c-.09,1.45.69,2.81.48,4.28"/>
  <path class="cls-1" d="M214.81,119.28c.04,1.21-.99,2.12-.95,3.33"/>
</svg>