<?xml version="1.0" encoding="UTF-8"?>
<svg id="icons" xmlns="http://www.w3.org/2000/svg" viewBox="0 0 500 500">
  <defs>
    <style>
      .cls-1 {
        fill: none;
        stroke: #000;
        stroke-linecap: round;
        stroke-linejoin: round;
        stroke-width: .95px;
      }
    </style>
  </defs>
  <path class="cls-1" d="M313.46,399.59c-2.15-.61-2.22,11.68-1.43,11.68,45.02.02,90.05.02,135.07.02.88,0,1.78-.17,2.86.33v31.64H113v-31.64c1.08-.5,1.99-.33,2.86-.33,63.64,0,127.28,0,190.92-.01.88,0,0,0,5.25,0"/>
  <path class="cls-1" d="M288.65,233.5c.95-1.93.6-4.01.43-5.96-1.05-11.99-4.12-23.34-10.15-33.93-6.13-10.78-14.3-19.61-24.19-26.91-9.64-7.12-20.44-11.73-32.2-14.11-9.76-1.98-19.52-2.19-29.36-.49-15.14,2.61-28.64,8.64-40.6,18.36-10.07,8.19-17.74,18.13-23.09,29.88-4.03,8.86-6.37,18.17-7.23,27.91-1.19,13.54.7,26.56,5.77,39.14,3.11,7.72,7.47,14.67,12.86,21.02,7.4,8.72,16.38,15.39,26.53,20.47,8.78,4.39,18.15,6.98,27.9,8.15,13.04,1.56,25.83.05,38.15-4.14,16.46-5.59,30.02-15.35,40.16-29.72,6.34-8.98,10.68-18.81,13.26-29.4,1.46-5.99,2.41-12.13,2.25-18.36-.02-.63-.26-1.12-.39-1.67"/>
  <path class="cls-1" d="M280.53,120.62c-3.59-1.52-6.76-3.81-10.26-5.5-11.92-5.77-24.3-10.31-37.25-13.04-6.88-1.45-13.89-2.37-20.98-2.55-2.77-.07-5.58-.58-8.35-.34-7.32.62-14.66.72-21.97,1.77-14.39,2.08-28.02,6.4-41.02,12.76-13.86,6.78-26.44,15.37-37.78,25.93-10.17,9.47-18.7,20.19-25.61,32.1-6.1,10.5-10.47,21.84-13.73,33.58-2.03,7.3-3.6,14.72-4.39,22.21-.65,6.14-.9,12.36-.72,18.61.19,6.57.74,13.07,1.56,19.56,1.05,8.36,2.92,16.58,5.55,24.56,1.88,5.68,3.96,11.31,6.57,16.75,5.14,10.7,11.32,20.72,18.64,30.06,10.37,13.23,23.03,23.96,36.82,33.32,10.18,6.91,21.11,12.53,32.61,17.11,10.71,4.26,21.82,6.92,32.99,9.36,3.78.83,7.75,1.17,11.67,1.29"/>
  <path class="cls-1" d="M280.53,107.49c-2.52-.45-4.6-1.96-6.88-2.95-13.15-5.71-26.69-9.96-40.84-12.35-7.99-1.35-16.02-2.06-24.11-2.39-9.13-.38-18.21.24-27.19,1.56-11.1,1.64-21.98,4.41-32.46,8.51-13.18,5.15-25.41,12.04-36.76,20.5-9.17,6.83-17.46,14.59-25.1,23.11-6.36,7.09-11.83,14.79-16.63,22.97-10.23,17.44-16.66,36.19-19.16,56.3-.99,7.94-1.51,15.89-1.36,23.87.19,10.05,1.45,20.02,3.61,29.82,2.5,11.33,6.09,22.36,10.91,32.95,4.51,9.89,9.95,19.21,16.46,27.93,6.7,8.98,14.11,17.33,22.46,24.79,8.13,7.27,17.01,13.55,26.23,19.36,8.11,5.11,16.68,9.27,25.53,12.9,11.34,4.66,23.07,7.94,35.09,10.25,11.2,2.15,22.52,2.78,33.89,2.6,15.41-.25,30.64-2.02,45.58-5.95,18.13-4.78,34.93-12.6,50.83-22.43,12.86-7.94,24.96-16.85,35.55-27.7,13.03-13.35,23.37-28.58,31.5-45.34,6.04-12.45,10.5-25.47,13.87-38.89,2.01-8.03,3.5-16.16,4.43-24.36.62-5.45.86-10.96,1.07-16.46,1.94-50.58.45-101.19.92-151.78.03-3.66,0-7.32,0-10.98"/>
  <path class="cls-1" d="M205.12,111.07c4.63-.23,9.26.02,13.84.53,6.69.75,13.29,2.14,19.81,3.79,8.43,2.14,16.56,5.21,24.33,9.09,9.49,4.74,18.27,10.61,26.28,17.61,8.37,7.32,15.55,15.64,21.49,25.05,8.6,13.63,14.48,28.27,17.47,44.15,1.94,10.31,2.3,20.68,1.74,31.03-.8,14.79-4.09,29.08-10.1,42.75-6.68,15.18-15.87,28.6-27.54,40.27-11.42,11.42-24.73,20.06-39.78,26.12-9.14,3.68-18.57,6.07-28.2,7.75-8.34,1.46-16.82,1.91-25.28,1.45-8.81-.48-17.54-1.86-26-4.31-25.05-7.27-45.94-21.15-62.99-40.78-10.14-11.67-17.35-25.12-22.7-39.59-3.14-8.5-5-17.34-6.35-26.26-.35-2.32-.55-4.74-.66-7.14-.13-2.94-.58-5.89-.37-8.83.43-5.99.76-11.96,1.79-17.92,1.9-10.97,5.31-21.39,9.87-31.49,6.9-15.27,16.49-28.56,28.87-39.87,9.06-8.28,19.09-15.1,30.09-20.49,9.42-4.61,19.25-8.04,29.57-10.09,5.38-1.07,10.75-1.99,16.23-2.46,2.8-.24,5.58-.21,8.36-.36"/>
  <path class="cls-1" d="M205.36,342.32v-3.16c-2.97.44-5.86-.35-8.83-.5-4.09-.2-8.18-.91-12.17-1.87-9.81-2.35-19.21-5.72-27.96-10.9-7.16-4.24-13.86-9-20.05-14.57-7.27-6.54-13.41-13.94-18.62-22.2-6.03-9.56-10.29-19.83-12.83-30.81-1.16-5.02-1.91-10.12-2.51-15.26-.6-5.12-.7-10.25-.25-15.27.85-9.47,2.9-18.75,6.3-27.7,4.11-10.82,9.67-20.77,16.91-29.86,8.22-10.33,17.95-18.8,29.42-25.22,8.95-5.01,18.6-8.24,28.6-10.61,10.35-2.46,20.81-2.73,31.27-2.22,11.05.55,21.77,3.21,31.97,7.56,15.4,6.57,28.81,15.95,39.62,28.85,9.31,11.11,15.67,23.78,19.56,37.71,1.83,6.55,2.86,13.23,3.46,20.03.44,5.03.58,10.06.28,15.04-.62,10.23-2.6,20.24-6.35,29.84-4.32,11.08-10.19,21.27-17.94,30.28-9.35,10.87-20.19,20-32.91,26.73-7.9,4.18-16.27,7.12-25.05,8.85-4.34.86-8.71,1.38-13.12,1.75-2.87.25-5.73.33-8.74.41-.36-5.02.26-10.05-.33-15.05"/>
  <path class="cls-1" d="M114.67,427.28h333.63"/>
  <path class="cls-1" d="M250.22,62.15c1.24-1.09-.15-2.66.99-4.06h186.83v3.71c-.98.62-2.04.6-3.1.6-7.16-.01-14.33-.25-21.48.06-8.68.37-17.36-.46-26.01,0-6.85.37-13.7.1-20.53.05-24.26-.19-48.53-.02-72.79-.11-14-.05-28,0-42-.02-.4,0-.87.21-1.19-.23"/>
  <path class="cls-1" d="M416.32,278.6c.6,3.33.17,6.68.2,10.02.1,9.78.04,19.57.04,29.35,0,12.65.05,25.3-.02,37.94-.04,6.84.11,13.68-.21,20.53-.11,2.34.21,4.75.03,7.16-.14,1.93.63,2.61,2.59,2.62,4.46,0,8.91.16,13.36.28,11.32.31,17.68-8.39,17.67-17.69-.03-24.18.1-48.37-.08-72.55-.06-7.43-2.89-13.65-10.2-16.94-1.81-.81-3.75-1.14-5.72-1.2-5.33-.15-10.69-.3-15.98-.08-5.8.24-11.63.29-17.43.79"/>
  <path class="cls-1" d="M344.73,71.69c0,24.5-.06,49,.02,73.5.04,12.25-.07,24.5-.31,36.75-.36,18.46.09,36.91-.27,55.37-.13,6.54-.34,13.13-1.81,19.58-.17.76-.02,1.59-.02,2.38"/>
  <path class="cls-1" d="M399.62,71.69c0,53.3-.01,106.6.03,159.89,0,4.02-.94,7.93-.98,11.93"/>
  <path class="cls-1" d="M149.99,289.1c7.31,7.13,15.67,12.75,25.08,16.66,6.7,2.79,13.69,4.56,20.98,5.35,19.61,2.12,37.58-2.31,53.92-13.2,14.92-9.94,24.83-23.71,30.04-40.8,2.15-7.04,3.03-14.3,3.23-21.7.22-8.2-1.08-16.09-3.44-23.86-2.99-9.84-7.8-18.72-14.56-26.48-5.92-6.81-12.58-12.71-20.49-17.24-8.23-4.71-16.9-7.97-26.27-9.53-13.52-2.25-26.62-.57-39.37,4.11-15.1,5.53-27.24,14.97-36.54,28.13-7.14,10.1-11.93,21.11-13.6,33.42-.44,3.25-1.1,6.48-.94,9.79"/>
  <path class="cls-1" d="M223.97,234.93c-.3-10.2-6.75-17.22-16.49-19.23-3.99-.82-7.88.44-11.46,2.72-5.85,3.73-8.76,9.12-8.97,15.8-.26,8.42,5.57,16.29,14.24,18.64,11.36,3.08,21.53-5.23,22.43-15.78.05-.57.44-1.07.25-1.67"/>
  <path class="cls-1" d="M415.84,358.79h-63.72c0,13.72,0,27.21,0,40.69"/>
  <path class="cls-1" d="M415.84,367.85c-20.29,0-40.57,0-60.86,0-.96,0-1.93-.11-2.86.24"/>
  <path class="cls-1" d="M407.49,71.22c-2.14.33-4.29.24-6.44.24-39.85,0-79.71,0-119.56,0"/>
  <path class="cls-1" d="M414.89,350.43c-.94-.3-1.9-.24-2.86-.24-16.63,0-33.25,0-49.88,0-1.06,0-2.12-.03-3.1.48"/>
  <path class="cls-1" d="M406.3,120.85h-123.14"/>
  <path class="cls-1" d="M288.41,137.56v-57.75h111.21"/>
  <path class="cls-1" d="M399.14,235.17c-.75.51-1.6.22-2.39.22-17.18.02-34.37.02-51.55.02"/>
  <path class="cls-1" d="M214.9,234.93c-.05-4.88-3.31-9.18-7.64-9.76-4.76-.63-8.97,1.27-10.44,6.19-1.52,5.1.04,10.12,5.93,12.12,5.2,1.76,9.63-.85,11.89-5.94.32-.72-.37-1.72.5-2.38"/>
  <path class="cls-1" d="M176.24,236.36c-.6.34-1.27.24-1.91.24-15.27-.1-30.55.5-45.79.18-1.09,2.5-.54,5.04-.21,7.45,1.35,9.9,3.98,19.39,8.96,28.2,3.26,5.77,7.18,10.96,11.75,15.72"/>
  <path class="cls-1" d="M414.89,340.65c-.89.56-1.88.48-2.86.48-13.84,0-27.68,0-41.52.01-.79,0-1.63-.28-2.39.22"/>
  <path class="cls-1" d="M415.84,376.45c-6.6-.07-13.21.21-19.81-.23-16.69-1.11-33.41-.2-50.12-.48-3.34-.06-6.68.06-10.02-.04-1.64-.04-2.19.54-2.18,2.18.06,7.16.03,14.32.03,21.48"/>
  <path class="cls-1" d="M235.55,234.21c-1.08,3.01-.94,6.27-2,9.32-2.63,7.61-7.58,13.23-14.34,17.43-3.1,1.92-6.46,2.88-10.03,3.34-14.6,1.87-26.8-8.62-30.59-19.33-6.06-17.1,3.85-37.21,23.92-39.79,14.03-1.8,25.92,6.81,30.76,19.02.91,2.29,1.45,4.7,1.65,7.16.08.96.34,1.79.75,2.62"/>
  <path class="cls-1" d="M313.46,399.59c6.52.55,13.05.1,19.57.23,1.11.02,2.23.02,3.34.02,18.61,0,37.23,0,55.84,0,7.88,0,15.75,0,23.63,0,.8,0,1.62-.15,2.35.2.19,1.9-.06,4.46.04,10.77"/>
  <path class="cls-1" d="M394.84,392.91h-41.05"/>
  <path class="cls-1" d="M414.89,331.58c-12.49,0-24.98,0-37.47,0-1.06,0-2.12-.03-3.1.48"/>
  <path class="cls-1" d="M392.93,384.32h-39.14"/>
  <path class="cls-1" d="M183.16,254.26c-8.05,8.97-16.85,17.2-25.3,25.77-4.03,4.09-7.88,8.34-11.92,12.42"/>
  <path class="cls-1" d="M281.01,62.86v42c0,7.24-.01,14.48.02,21.72,0,.79-.28,1.63.22,2.39"/>
  <path class="cls-1" d="M150.23,182.19c7.19,7.53,14.61,14.82,21.96,22.19,3.57,3.59,7.16,7.16,10.74,10.74"/>
  <path class="cls-1" d="M185.31,256.64c-11.05,10.75-21.42,22.17-32.45,32.94-.3.29-.82.49-.72,1.07"/>
  <path class="cls-1" d="M415.84,322.51c-10.82,0-21.64,0-32.46.02-.79,0-1.63-.28-2.39.22"/>
  <path class="cls-1" d="M225.17,257.36c11,11.11,22.52,21.7,33.41,32.93"/>
  <path class="cls-1" d="M259.05,179.8c-4.05,3.98-7.87,8.2-11.92,12.19-6.97,6.87-13.86,13.83-20.78,20.75"/>
  <path class="cls-1" d="M152.14,180.04c10.62,10.46,20.91,21.25,31.74,31.5.46.43.65,1.08,1.19,1.44"/>
  <path class="cls-1" d="M227.55,255.69c1.4,1.88,3.4,3.11,5.03,4.75,9.34,9.43,18.75,18.79,28.14,28.18"/>
  <path class="cls-1" d="M176.24,233.73c-16.55-.09-33.09.09-49.64.24"/>
  <path class="cls-1" d="M283.16,233.73c-15.75-.02-31.5-.03-47.25.24"/>
  <path class="cls-1" d="M205.6,354.73c3.52-.82,5.38-3.23,4.77-6.2-.62-3.07-3.27-4.84-6.44-4.3-2.22.38-3.89,2.37-4.06,4.77-.2,2.89,1,4.62,4.31,5.71.36.12.79.02,1.19.02"/>
  <path class="cls-1" d="M280.77,150.21c.11,2.99,2.17,5.05,5.25,5.25,2.32.15,4.82-1.9,5.25-4.3.49-2.71-.88-4.9-3.58-5.73-2.93-.9-5.17.23-6.49,3.08-.23.5-.46.91-.43,1.45"/>
  <path class="cls-1" d="M414.41,312.73c-2.53.53-5.09.19-7.64.22-5.17.06-10.34.05-15.51,0-2.09-.02-4.16,0-6.2.49"/>
  <path class="cls-1" d="M433.03,279.79c0,16.39,0,32.77.02,49.16,0,.79-.28,1.63.22,2.39"/>
  <path class="cls-1" d="M205.36,265.24c.63,11.93.46,23.86.47,35.8,0,2.97.31,5.99-.95,8.83"/>
  <path class="cls-1" d="M433.03,332.77v25.77"/>
  <path class="cls-1" d="M230.65,320.84c-3.59.68-7.13,1.59-10.74,2.14-1.82.28-3.65.67-5.49.69-6.52.08-13.05.03-19.57.03"/>
  <path class="cls-1" d="M433.03,359.98v24.34"/>
  <path class="cls-1" d="M231.13,398.64c-8.11-.21-16.24.48-24.34-.48"/>
  <path class="cls-1" d="M205.36,362.84c0,10.82,0,21.64-.02,32.46,0,.79.28,1.63-.22,2.39"/>
  <path class="cls-1" d="M261.2,181.71c-10.24,10.44-20.32,21.04-30.79,31.26-.76.75-1.39,1.65-2.38,2.15"/>
  <path class="cls-1" d="M117.06,213.45c-.98,4.42-1.95,8.9-2.24,13.37-.28,4.33-.84,8.67-.32,13.14.5,4.37,1.17,8.73,1.61,13.11"/>
  <path class="cls-1" d="M131.62,150.45c-.55-2.58-1.52-4.83-4.54-5.24-2.74-.37-5.06,1.3-5.73,4.05-.58,2.38.95,5.11,3.34,5.97,2.12.76,4.95-.57,6.22-2.86.3-.54.31-1.19.7-1.68"/>
  <path class="cls-1" d="M413.46,303.66c-4.61.44-9.23.16-13.84.23-2.62.04-5.25-.01-7.88.02-.89.01-1.73-.02-2.39-.73"/>
  <path class="cls-1" d="M296.52,236.36c-.08,6.3-.9,12.5-2.37,18.62-.11.45-.01.95-.01,1.43"/>
  <path class="cls-1" d="M135.67,385.51c-.55.79-.73,1.69-.71,2.62.13,5.41-.32,10.83.25,16.23.04.43-.36.68-.25,1.08"/>
  <path class="cls-1" d="M124.46,312.73c-3.17,1.86-4.2,3.57-3.3,6.19.73,2.12,2.28,3.71,4.5,4.27,2.26.57,4.04-.59,5.19-2.38.97-1.52,1.12-3.25.07-5-1.42-2.38-3.25-3.38-6.23-3.09"/>
  <path class="cls-1" d="M205.6,157.84c-.49,5.72-.19,11.46-.22,17.18-.06,8.99-.02,17.98-.01,26.97,0,.88-.09,1.77.24,2.63"/>
  <path class="cls-1" d="M77.92,235.4h-16.71"/>
  <path class="cls-1" d="M350.46,392.91h-16.47"/>
  <path class="cls-1" d="M141.88,237.08c.65,5.15,1.03,10.35,2.85,15.28.13.35.02.79.02,1.19"/>
  <path class="cls-1" d="M416.08,293.63c-6.6-.51-13.21-.11-19.81-.25-.97-.02-1.85.84-2.86.25"/>
  <path class="cls-1" d="M448.3,302.23h-31.5"/>
  <path class="cls-1" d="M295.57,219.65c.17,5.26,1.24,10.46.95,15.75"/>
  <path class="cls-1" d="M325.87,235.4c.27-2.62-.74-4.58-3.11-5.71-2.05-.97-4.8,0-6.43,2.13-1.04,1.35-1.05,4.8,0,6.2,1.32,1.76,3.1,2.61,5.24,2.11,2.33-.54,3.85-2.06,4.3-4.5"/>
  <path class="cls-1" d="M351.65,367.85c-2.79,0-5.57,0-8.59,0,0,2.62,0,5.01,0,7.4"/>
  <path class="cls-1" d="M131.85,411.53v25.77"/>
  <path class="cls-1" d="M418.23,359.5h30.07"/>
  <path class="cls-1" d="M448.3,331.82h-30.07"/>
  <path class="cls-1" d="M416.08,383.6c-2.43-.73-4.92-.53-7.4-.48-4.37.1-8.76-.23-13.13.24"/>
  <path class="cls-1" d="M349.98,384.32h-14.32"/>
  <path class="cls-1" d="M205.36,412.96c.05,4.69.6,9.39,0,14.08"/>
  <path class="cls-1" d="M426.82,412.96v14.08"/>
  <path class="cls-1" d="M315.14,212.97c-.03,2.98.84,5.86,1.1,8.82.13,1.5.09,3.04.33,4.55"/>
  <path class="cls-1" d="M110.38,327.05c-4.73,4.01-8.64,8.87-13.36,12.89"/>
  <path class="cls-1" d="M265.97,221.56c.09,2.91.88,5.71,1.23,8.59.13,1.12.19,2.23.21,3.35"/>
  <path class="cls-1" d="M142.35,440.16c-.48-2.22-1.93-2.82-4.06-2.66-1.98.15-3.98.04-5.96.03-.81,0-1.66-.05-2.13.73-.46.77-.47,1.69.7,1.63,3.66-.19,7.32.76,10.98.03"/>
  <path class="cls-1" d="M205.12,172.4c-3.95-.29-7.79.71-11.69.95"/>
  <path class="cls-1" d="M322.29,380.02h10.98"/>
  <path class="cls-1" d="M160.97,238.75c-.03,3.28.85,6.41,1.72,9.53.14.51.07.97.19,1.45"/>
  <path class="cls-1" d="M218.24,173.36c-3.67-.17-7.27-1.23-10.98-.95"/>
  <path class="cls-1" d="M244.97,216.79c.85,3.03,1.95,5.98,2.68,9.06.16.67.06,1.29.19,1.92"/>
  <path class="cls-1" d="M415.84,370.72c-1.67.04-3.34-.08-5,.06-.49,1.91-.15,3.8-.25,5.67"/>
  <path class="cls-1" d="M205.6,428.23c.03,3.5-.41,7.01.24,10.5"/>
  <path class="cls-1" d="M267.41,235.88c-.42,3.33-.7,6.68-.95,10.02"/>
  <path class="cls-1" d="M205.36,133.74v15.27"/>
  <path class="cls-1" d="M409.88,279.08c.12,8.11-.27,16.23.24,24.34"/>
  <path class="cls-1" d="M214.9,191.49c-3.11-.26-6.14-1.27-9.31-.95"/>
  <path class="cls-1" d="M203.45,190.54c-3.08-.22-6.03.76-9.07.95"/>
  <path class="cls-1" d="M395.08,376.68v22.79"/>
  <path class="cls-1" d="M138.54,408.66c-1.28-.76-2.7-.44-4.06-.47-2.47-.04-4.93-.01-7.4-.01"/>
  <path class="cls-1" d="M244.5,340.41c-2.76.6-5.28,2.03-8.11,2.39"/>
  <path class="cls-1" d="M227.31,275.02c-2.53,1.14-4.85,2.78-7.64,3.34"/>
  <path class="cls-1" d="M205.12,398.64c.39,2.47.38,4.93,0,7.4"/>
  <path class="cls-1" d="M151.9,333.25c2.4,1.08,4.61,2.58,7.16,3.34"/>
  <path class="cls-1" d="M181.02,177.65c-2.55.76-4.76,2.26-7.16,3.34"/>
  <path class="cls-1" d="M273.13,294.59c-1.86,2.27-3.97,4.31-6.2,6.2"/>
  <path class="cls-1" d="M136.15,406.04c-2.59-.66-5.24-.43-7.88-.48"/>
  <path class="cls-1" d="M237.34,180.52c-2.1-.89-3.96-2.3-6.2-2.86"/>
  <path class="cls-1" d="M281.49,129.45c1.92,1.05,3.99.21,5.97.48"/>
  <path class="cls-1" d="M416.08,286c-1.98.26-3.97.26-5.97.24"/>
  <path class="cls-1" d="M410.83,376.92v5.85"/>
  <path class="cls-1" d="M400.09,79.57c1.89.52,3.82.1,5.73.24"/>
  <path class="cls-1" d="M205.36,354.97v5.49"/>
  <path class="cls-1" d="M205.36,319.41v4.3"/>
  <path class="cls-1" d="M210.13,281.22h-4.06"/>
  <path class="cls-1" d="M145.93,177.89c1.51.89,2.33,2.57,3.94,3.34"/>
  <path class="cls-1" d="M264.54,177.65c-.46,1.29-1.46,2.17-2.39,3.1"/>
  <path class="cls-1" d="M156.67,275.02c.56,1.09,1.63,1.72,2.39,2.63"/>
  <path class="cls-1" d="M174.09,268.82c.74.61,1.23,1.5,2.15,1.91"/>
  <path class="cls-1" d="M249.51,279.08c-.3.14-.18.57-.48.72"/>
  <path class="cls-1" d="M205.12,113.69c-1.71.63-3.52.78-4.62,2.82-1.25,2.31-.37,6.17,1.97,7.26,3.02,1.41,5.56.98,7.18-1.73,1.4-2.33,1.01-5.85-1.67-7.38-.8-.46-1.61-1-2.62-.97"/>
  <path class="cls-1" d="M90.81,229.44c-4.25,1.21-6.14,4.49-4.53,7.88,1.22,2.57,3.92,3.67,6.44,2.63,2.72-1.12,4.39-4.44,3.31-6.91-.92-2.11-2.37-3.72-4.98-3.59"/>
  <path class="cls-1" d="M286.02,312.49c-4.25.85-6.56,4.78-4.77,8.11.99,1.85,3.89,3.13,5.97,2.63,2.41-.58,4.1-2.69,4.33-5.01.21-2.13-1.76-5.03-4.1-5.46-.4-.07-.74-.42-1.19-.27"/>
</svg>