<?xml version="1.0" encoding="UTF-8"?>
<svg id="icons" xmlns="http://www.w3.org/2000/svg" viewBox="0 0 500 500">
  <defs>
    <style>
      .cls-1 {
        fill: none;
        stroke: #000;
        stroke-linecap: round;
        stroke-linejoin: round;
        stroke-width: .88px;
      }
    </style>
  </defs>
  <path class="cls-1" d="M381.47,241.77c5.37,3.49,10.76,6.95,16.23,10.29,6.02,3.68,11.71,7.89,17.96,11.22,1.33.71,2.37,1.88,3.7,2.67.66.39.99,1.21,1.03,2.34.11,3.07-.18,6.16.15,9.21.35,3.27-1.24,5.32-3.79,6.78-6.36,3.64-12.71,7.32-19.08,10.94-7.82,4.45-15.71,8.79-23.42,13.44-10.52,6.35-21.27,12.29-31.85,18.54-13.53,7.99-27.11,15.91-40.75,23.72-12.59,7.21-25.09,14.56-37.68,21.76-12.31,7.03-24.48,14.3-36.82,21.29-10.42,5.91-20.72,12.04-31.15,17.95-4.77,2.7-8.99,1.78-13.41-.87-11.46-6.88-23-13.6-34.61-20.21-13.66-7.78-27.19-15.78-40.78-23.67-5.07-2.94-10.18-5.82-15.14-8.97-2.71-1.72-4.11-4-3.95-7.25.09-1.9.03-3.8,0-5.7,0-.69-.03-1.35.66-1.75"/>
  <path class="cls-1" d="M114.45,324.2c-3.2,1.1-5.85,3.21-8.76,4.84-4.29,2.4-8.47,4.99-12.73,7.43-1.42.82-2.67,1.85-3.71,3.09-1.12,1.33-.93,3.17.43,4.37,2.95,2.59,6.53,4.16,9.85,6.16,9.81,5.92,20.04,11.1,29.89,16.97,9.83,5.86,19.79,11.54,29.75,17.21,9.1,5.19,18.21,10.37,27.19,15.77,2.55,1.53,4.93,1.45,7.71-.13,9.93-5.66,19.68-11.63,29.52-17.44,1.1-.65,2.39-.76,3.38-1.87,2.39-2.7,2.3-4.4-.71-6.42-3.6-2.41-7.43-4.45-11.22-6.51-4.25-2.31-8.27-5.04-12.68-7.07"/>
  <path class="cls-1" d="M146.02,320.48c3.73-2.27,7.44-4.64,9.61-8.57,2.61-4.74,3.74-9.83,3.14-15.33-1.74-15.78-9.32-28.68-19.53-40.34-4.35-4.96-9.34-9.11-15.13-12.27-3.83-2.09-7.91-3.21-12.27-2.82-3.8.34-6.98,2.15-9.41,5.03-5.48,6.53-6.84,14.33-6.57,22.56,0,.14.13.53.4.66"/>
  <path class="cls-1" d="M215.08,169.86c.56.58,1.29.45,1.97.43,12.74-.37,23.58,4.39,32.36,13.24,8.67,8.74,16.4,18.36,21.1,29.96,2.46,6.08,4.64,12.25,5.57,18.83.71,5.04,1.5,10.05,1.22,15.13-.43,7.63-2.17,14.93-6.33,21.48-.52.82-1.09,1.6-1.09,2.63"/>
  <path class="cls-1" d="M289.84,259.97c-.29-1.24.75-1.83,1.32-2.63,3.53-4.93,5.15-10.47,5.99-16.44.69-4.95.35-9.83-.15-14.69-.81-8.05-3.49-15.64-6.72-23.03-4-9.13-9.4-17.37-15.79-24.99-7.45-8.88-16.68-15.05-27.85-18.16-3.48-.97-7-1.47-10.75-.8-3.49.62-9.17,2.72-11.38,5.15"/>
  <path class="cls-1" d="M92.06,273.08c-3.33-12.44-3.97-27.57,3.12-38.91,3.19-5.1,8.16-9.65,14.15-11.02,6.36-1.45,12.42.53,18,3.52,11.61,6.22,21.35,16.06,29.02,26.65,7.77,10.72,13.37,22.9,16.34,35.81,2.6,11.31,3.82,25.37-3.15,35.48-.67.97-2,2.02-1.82,3.32"/>
  <path class="cls-1" d="M177.37,192.23c.63.64,1.45.47,2.19.43,7.67-.42,14.35,2.49,20.83,6.14,8.66,4.89,14.56,12.48,20.18,20.39,4.63,6.52,8.93,13.23,12.02,20.63,1.85,4.43,3.09,9.08,3.97,13.8,1.09,5.87,1.59,11.8,1.29,17.76-.39,7.81-2.78,14.95-7.14,21.53-2.49,3.76-6.06,6.05-9.78,7.93-2.57,1.3-4.8,3.09-7.38,4.31-.91.43-1.79.95-2.85.87"/>
  <path class="cls-1" d="M187.24,186.09c1.04-1.93,3.24-2.15,4.86-3.24,4.28-2.88,9.09-2.49,13.77-1.33,10.52,2.6,19.08,8.57,26.51,16.21,6.72,6.92,11.81,14.99,16.06,23.63,3.83,7.77,6.53,15.91,8.21,24.37.33,1.66.67,3.46.54,5.24-.17,2.28.51,4.5.47,6.8-.15,8.75-1.56,17.07-7.26,24.13-.27.34-.31.84-.23,1.3"/>
  <path class="cls-1" d="M175.18,193.32c1.05-.42,1.81-1.23,2.65-1.95,2.28-1.96,5-3.28,7.68-4.58,1.97-.96,4.27-.45,6.32-.19,5.07.63,9.94,2.06,14.49,4.51,5.45,2.93,10.36,6.56,14.68,10.98,6.29,6.44,11.57,13.67,15.97,21.5,4.52,8.03,8.1,16.52,9.62,25.64,1.71,10.29,1.37,20.56-2.4,30.44-1.02,2.68-2.91,5.02-4.19,7.55-1.75,3.44-4.77,4.97-7.61,6.93-.83.57-1.78.97-2.84.89"/>
  <path class="cls-1" d="M286.11,130.29c1.67,1.2,3.67.54,5.5.88,9.22,1.72,17.28,5.74,24.78,11.26,11.97,8.82,19.05,21.06,24.52,34.46,2.19,5.37,3.8,10.98,4.76,16.67,1.44,8.51,1.57,17.06-1.24,25.42-2.5,7.44-6.58,13.61-14.05,16.84-2.41,1.04-4.33,2.63-6.4,4.12-1.04.75-2.42,1.47-3.68,1.76-2.59.59-4.23,2.73-6.57,3.56-4.44,1.58-7.29,5.37-11.15,7.73-.56.34-.97.61-1.55.19"/>
  <path class="cls-1" d="M402.08,130.62c2.64-2.17,5.83-3.41,8.8-4.99,9.87-5.25,19.78-10.43,29.55-15.87,2.97-1.65,6.1-3.17,8.13-6.11,2.37-3.43,1.69-6.22-1.13-9.18-2.77-2.9-6.31-4.55-10.27-5.3-7.33-1.39-13.94-.1-20.47,3.81-5.41,3.24-11.22,5.89-16.78,8.94-4.81,2.63-9.79,4.98-14.27,8.19"/>
  <path class="cls-1" d="M245.11,152.76c.59-1.19,1.73-1.71,2.85-2.18,4.04-1.7,7.72-4.02,11.41-6.34.82-.51,1.77-.95,2.64-1.26,1.55-.55,2.77-1.41,3.92-2.49,2.23-2.1,5.55-2.12,7.87-3.97,3.57-2.84,7.61-4.69,11.83-6.31.74-.29,1.43-1.22,2.2-1.82,5.41-4.2,11.35-3.64,17.34-1.91,6.84,1.98,13.49,4.45,19.3,8.74,8.21,6.05,14.61,13.61,19.57,22.55,4.43,8,7.65,16.41,9.78,25.25,2.43,10.08,3.2,20.25.68,30.46-.76,3.09-2.22,5.89-3.95,8.54-.29.45-.49.83-.21,1.32"/>
  <path class="cls-1" d="M254.98,147.5c.48.58,1.15.49,1.75.43,10.39-1,19.09,3.16,27.17,9.02,8.98,6.51,15.45,15.18,20.85,24.75,3.28,5.81,6.24,11.74,8.14,18.19,1.49,5.06,2.93,10.08,3.51,15.35.74,6.74.61,13.39-1.15,19.95-.92,3.45-2.41,6.67-4.4,9.63-.4.59-.69,1.08-.42,1.77"/>
  <path class="cls-1" d="M305.84,251.42c5.9,3.55,11.8,7.1,17.8,10.45,9.18,5.12,18.2,10.5,27.33,15.7,6.86,3.9,13.74,7.78,20.47,11.93,1.7,1.05,3.67,1.94,5.87,2.1,2.58.18,4.54-1.16,6.56-2.27,10.89-6,21.51-12.48,32.45-18.41,1.29-.7,2.37-1.79,3.74-2.39"/>
  <path class="cls-1" d="M355.17,102.12c3.9,1.06,6.97,3.65,10.02,6,5.12,3.95,10.32,7.89,14.73,12.66,8.56,9.26,15.33,19.63,19.83,31.52,2.75,7.27,4.45,14.67,4.49,22.39.04,8.54-1.99,16.44-6.85,23.76-2.98,4.49-7.06,6.48-11.74,8.04-1.17.39-2.35.09-3.51.21"/>
  <path class="cls-1" d="M196.44,180.61c.38-1.18,1.43-1.48,2.39-2.01,2.36-1.29,5.33-1.82,7.14-3.59,2.97-2.92,6.99-3.83,10.11-6.52,3.23-2.79,7.51-3.94,12.14-3.99,8.95-.09,16.72,3.08,24.1,7.58,8.61,5.26,14.96,12.77,20.15,21.26,4.88,7.99,8.94,16.41,11.63,25.42,1.31,4.37,2.25,8.83,2.93,13.36.65,4.33.69,8.66.3,12.94-.56,6.25-2.61,12.08-5.78,17.58-2.32,4.02-5.71,6.79-9.76,8.38-3.52,1.38-5.9,4.32-9.34,5.7-.76.31-1.44.54-2.23.57"/>
  <path class="cls-1" d="M179.56,210.42c3.29.94,5.89,3.11,8.51,5.09,5.94,4.49,10.57,10.3,14.67,16.43,6.39,9.52,10.98,19.97,13.55,31.12,2.16,9.36,2.93,18.93.73,28.48-1.06,4.6-2.97,8.79-5.61,12.77-2.14,3.23-5.15,4.94-8.41,6.53"/>
  <path class="cls-1" d="M206.97,174.91c.29.35.67.7,1.09.64,9.6-1.34,17.63,2.38,25.22,7.68,6.82,4.76,11.88,11.16,16.6,17.81,3.85,5.42,7.02,11.28,9.94,17.27,3.24,6.63,5.44,13.54,6.59,20.83,1.08,6.87,1.23,13.72.4,20.61-.76,6.32-3.25,12.02-6.65,17.27-1.48,2.28-4.16,3.62-6.55,4.77-4.23,2.05-7.99,4.89-12.2,6.95-.76.37-1.43.59-2.22.6"/>
  <path class="cls-1" d="M111.82,297.02c-.06,1.13.73,1.95,1.36,2.59,4.27,4.38,9.04,7.92,15.3,9.06,8.44,1.53,14.81-4.14,15.39-11.86.72-9.53-2.81-17.67-7.72-25.43-2.77-4.37-6.19-8.2-10.75-10.71-6.68-3.68-14.52-3.64-20.16,2.58-.31.35-.49.66-.43,1.11"/>
  <path class="cls-1" d="M219.24,301.18c.05-.54-.06-1.03.41-1.56,4.34-4.86,6.26-10.75,7.31-17.07.59-3.58.89-7.14.83-10.75-.1-6.49-1.21-12.82-2.85-19.07-3.27-12.46-9.6-23.27-17.75-33.11-5.97-7.21-12.66-13.55-21.28-17.52-2.87-1.32-5.69-2.85-8.98-2.86"/>
  <path class="cls-1" d="M114.67,323.98c.43,2.03.21,4.09.19,6.14-.02,1.55.18,3.07.27,4.6.1,1.69.88,3.08,2.39,3.94,7.06,4.02,14.01,8.22,21.08,12.22,9.4,5.33,18.65,10.92,28.02,16.3,5.57,3.19,11.14,6.38,16.69,9.59,1.66.96,3.52,1.19,5.25-.18,3.34-2.64,7.29-4.31,10.78-6.75,1.84-1.29,2.57-2.68,2.63-4.88.52-17.32.36-34.64.44-51.96,0-1.9.67-3.85.72-5.7.08-3.19,1-6.26.98-9.42-.04-5.71.07-11.4-.74-17.12-.66-4.67-1.49-9.29-2.8-13.78-2.26-7.78-5.8-15.03-10.02-21.94-1.97-3.23-4.05-6.38-6.59-9.2"/>
  <path class="cls-1" d="M178.25,219.85c6.13,5.45,11.5,11.59,15.96,18.44,6.38,9.77,10.1,20.68,12.46,32,1.79,8.58,2.27,17.33.93,26.07-.48,3.13-1.79,6.03-2.88,8.97-.15.42-.41,1.26-1.27,1.11"/>
  <path class="cls-1" d="M326.89,125.8c2.4,1.74,5.16,2.75,7.91,3.68,4.28,1.45,7.38,4.12,10.13,7.67,5.33,6.88,10.38,13.92,14.15,21.77,3.14,6.52,5.34,13.35,6.47,20.58.95,6.08,1.13,12.17.67,18.2-.49,6.45-2.97,12.46-6.44,17.99-.47.74-1.3,1.34-1.11,2.41"/>
  <path class="cls-1" d="M353.63,122.51c7.99,5.81,14.65,12.81,19.52,21.48,3.96,7.04,7.31,14.38,9.29,22.18.95,3.74,1.53,7.66,1.97,11.58.5,4.46.86,8.9.78,13.38-.07,3.73-.68,7.39-1.75,10.96-.27.89-.52,1.81-1.53,2.19"/>
  <path class="cls-1" d="M133.96,278.82c-6.74,4.1-13.78,7.66-20.62,11.6-10.2,5.88-20.55,11.5-30.92,17.08-4.95,2.67-10.35,3.44-15.99,2.93-4.95-.45-9.38-2.12-13.6-4.63-3.88-2.31-3.54-7.58-.45-9.69,3.34-2.29,6.86-4.27,10.34-6.29,8.42-4.87,16.84-9.74,25.2-14.71,1.18-.7,2.42-1.3,3.72-1.76"/>
  <path class="cls-1" d="M302.33,253.83c11.67,7.11,23.54,13.87,35.31,20.8,10.78,6.34,21.63,12.58,32.44,18.87,1.52.89,3.1,1.69,4.81,2.23,2.58.81,4.96.43,7.24-.9.63-.36,1.16-.93,1.97-.88"/>
  <path class="cls-1" d="M234.81,158.9c.18-1.12,1.14-1.31,1.95-1.79,1.44-.85,2.99-1.51,4.4-2.39,3.47-2.19,7.28-1.82,10.97-1.25,12.95,2.01,23.05,8.92,31.6,18.56,7.84,8.84,13.38,18.15,17.87,29.29,1.12,2.78,1.13,5.24,1.83,8"/>
  <path class="cls-1" d="M346.84,91.38c1.24-.19,2.09.6,2.83,1.34,2.21,2.19,5.08,2.56,7.91,3.04,6.59,1.13,13,2.78,18.63,6.59,5.02,3.4,9.17,7.73,13.2,12.24,4.52,5.07,8.66,10.46,12.36,16.1,3.62,5.51,6,11.72,7.81,18.12,1.76,6.2,3.1,12.47,3.92,18.86,1.18,9.25-.21,17.94-5.74,25.63-2.61,3.63-6.3,5.87-10.71,6.82"/>
  <path class="cls-1" d="M182.52,255.96c4.29,7.85,4.04,9.01,6.73,14.95,1.71,3.77,5.16,29.95,4.6,32.03-1.07,3.95-2.15,7.82-3.61,11.59-.5,1.3-2.01,1.92-3.22,2.66-5.81,3.56-11.56,7.3-17.64,10.32-2.65,1.32-5.02,2.98-7.55,4.4-4.65,2.6-9.39,2.48-14.03.55-5.49-2.28-10.53-5.52-15.82-8.25-6.36-3.29-11.42-8.26-16.87-12.73"/>
  <path class="cls-1" d="M324.47,171.18c4.89,7.81,8.5,16.1,10.39,25.19.91,4.38,1.44,8.8,1.54,13.18.14,5.99-1.15,11.9-3.39,17.53-1.09,2.74-2.33,5.42-3.96,7.88-.26.39-.13.74-.2,1.11"/>
  <path class="cls-1" d="M265.06,141.8c.4.53.98.45,1.53.44,11.87-.31,21.82,4.37,30.69,11.84,10.29,8.65,13.49,15.99,19.43,27.84"/>
  <path class="cls-1" d="M351.07,126.68c10.82,8.71,20.06,18.4,24.79,31.17,2.38,6.42,3.93,13.03,4.93,19.75"/>
  <path class="cls-1" d="M316.58,181.7c3.75,6.09,6.63,12.56,8.31,19.52.78,3.23,1.19,6.54,1.64,9.85.67,4.9.43,9.7-.55,14.47-1.06,5.19-3.07,10.02-6.34,14.25-.53.68-.99,1.3-.86,2.2"/>
  <path class="cls-1" d="M273.6,137.41c.91.62,1.9.25,2.85.2,6.47-.3,12.37,1.84,17.95,4.67,12.98,6.59,22.6,16.76,30.07,29.1"/>
  <path class="cls-1" d="M92.09,272.68c3.55-2.27,6.66-5.3,10.55-6.95,4.17-1.76,8.17-4.13,13.13-3.42,5.62.8,9.62,3.88,13.15,7.95,1.7,1.96,3.09,4.13,4.37,6.37,2.17,3.84,1.55,6.73-2.2,8.95-5.15,3.05-10.31,6.11-15.54,9.03-4.86,2.71-9.56,5.71-14.48,8.3-7.4,3.9-14.53,8.41-22.38,11.36-8.31,3.12-16.37,1.86-23.85-2.81-2.16-1.35-3.64-3.29-3.31-6.11"/>
  <path class="cls-1" d="M190.09,315.43c.58.56.44,1.29.44,1.97,0,8.92.11,17.83-.03,26.75-.15,9.65-.43,19.29-.41,28.94,0,.59-.14,1.2.22,1.75"/>
  <path class="cls-1" d="M368.54,212.4c.03,1.75,0,3.51,0,5.26,0,15.93,0,31.86.01,47.79,0,.4-.15.73-.23,1.1"/>
  <path class="cls-1" d="M203.02,388.22c2.41-.49,4.85-.77,7.04-2.16,2.99-1.89,3.49-4.31,1.06-6.82-2.2-2.27-5.08-3.1-8.1-3.27-3.71-.2-7.26.5-10.3,2.82-3.78,2.9-2.81,5.36,1.09,7.24,2.85,1.37,5.91,1.82,8.99,2.18"/>
  <path class="cls-1" d="M138.13,203.41c-.32-.94-.81-1.78-1.3-2.64-2.99-5.2,1.93-12.83,7.02-13.47,3.51-.44,6.9.63,10.12,2.65,5.75,3.59,8.82,8.85,10.93,14.99,1.03,3.01,1.71,6.06,2.26,9.2.61,3.44.11,6.65-.78,9.87-.26.96-.43,1.88-.41,2.86"/>
  <path class="cls-1" d="M314.39,105.08c-2.48-3.29-2.02-8.66.43-12.17,1.86-2.66,5.83-4.35,10.54-3.08,5.17,1.39,9.07,4.42,12.06,8.78,4.54,6.62,7.12,13.88,7.2,21.93.04,3.56-1.26,6.85-2.62,10.08-.23.55-1.02.55-1.3,1.1"/>
  <path class="cls-1" d="M324.26,240.24c6.39,3.93,12.93,7.64,19.3,11.61,7.52,4.69,15.24,9.05,22.58,14.03,1.84,1.25,3.57,1.87,5.74.28,2.12-1.54,4.55-2.7,6.97-3.79,1.21-.55,1.79-1.41,1.79-2.85-.03-5.04.02-10.08.14-15.13.18-7.89-.05-15.79.09-23.68.07-3.8-.23-7.65.27-11.39.83-6.21.93-12.41,1.03-18.65.08-4.83-.75-9.53-1.56-14.25"/>
  <path class="cls-1" d="M303.43,209.33c1.62,4.39,2.47,8.91,2.92,13.59.51,5.3.56,10.55-.31,15.79-.71,4.27-2.23,8.23-4.27,12.11-2.61,4.95-7.06,6.99-11.67,9.25-2.62,1.28-4.88,3.32-7.48,4.76-.85.47-1.66.89-2.64.85"/>
  <path class="cls-1" d="M308.69,117.47c.48.87,1.37,1.01,2.19,1.08,2.73.23,4.95.84,6.03,3.93.56,1.59,1.95,2.95,4.27,2.95,5.29,0,10.08-.91,13.36-5.55,2.03-2.88,2.31-6.04.85-9.19-1.7-3.66-3.89-7.01-7.42-9.22-5.34-3.35-11.09-2.85-13.58,4.17-.57,1.62-2.03,3.11-.89,5.04"/>
  <path class="cls-1" d="M448.04,95.39c2.32,5.42-14.97,12.76-19.21,15.28-9.34,5.56-18.8,10.91-28.28,16.23-.26.15-.44.43-.66.65"/>
  <path class="cls-1" d="M148.87,218.53c1.78.95,3.83,1.7,5.67,1.19,1.81-.5,3.15-2.16,3.99-4.04,1.59-3.56,1.12-7.13-.28-10.51-1.91-4.61-5.04-8.1-10.02-9.71-1.99-.64-3.95-.55-5.68.13-1.92.76-3.89,1.9-4.03,4.51-.02.41-.4,1.02-1.05,1.1"/>
  <path class="cls-1" d="M154.79,220.07c3.42,3.45,7.13,6.61,10.3,10.3,5.73,6.68,11.05,13.65,15.11,21.49.84,1.63,1.94,3.11,2.65,4.81"/>
  <path class="cls-1" d="M165.75,229.06c-.31-.66-.33-1.32.03-2.03,3.34-.28,6.36-1.36,8.99-3.64,3.14-2.72,4.2-6.04,4.21-10.11.01-6.38-1.89-12.27-3.8-18.19-2.14-6.65-5.94-11.88-12.71-14.46-3.33-1.27-6.68-1.01-9.85.46-2.95,1.37-5.56,3.34-8.36,4.98-.51.3-.68.67-.86,1.13"/>
  <path class="cls-1" d="M324.91,89.41c4.81-4.84,10.46-6.18,15.81-2.67,2.03,1.33,3.45,3.38,5.67,4.43,1.11,3.53,3.87,6.21,4.89,9.85.84,3,1.39,6.13,2.64,8.97,1.13,2.58.86,5.17.71,7.7-.16,2.55-1.41,4.92-2.53,7.25-.44.91-1.16,1.53-1.99,1.95-2.28,1.14-4.5,2.41-6.76,3.57-.45.23-.61-.13-.9-.05"/>
  <path class="cls-1" d="M325.13,124.7c-.17-.86.32-1.38.85-1.99,1.75-1.99,2.23-4.5,1.95-6.99-.69-6.17-7.64-8.6-12.44-6.13-2.37,1.22-3.63,3.33-4.17,5.9"/>
  <path class="cls-1" d="M136.92,216.45c.92.87,1.93,1.54,2.37,2.94.68,2.19,4.52,2.43,7.16.89,4.52-2.65,4.58-10.62,1.8-13.84-2.44-2.82-5.06-4.27-8.82-3.06-2.02.65-3.21,2.27-3.06,4.63"/>
  <path class="cls-1" d="M138.79,217.88c1.29.12,1.7-.78,1.96-1.76.35-1.33-.74-1.96-1.54-2.6-1.38-1.11-3.16-1.14-4.8-1.59-3.66-1-6.37.91-9.23,2.63-2.87,1.73-5.72,3.47-8.54,5.27-1,.64-2.13,1.06-3.28,1.31-.84.18-1.59.34-1.75,1.34"/>
  <path class="cls-1" d="M145.69,320.48c-5.66,1.96-11.33,2.18-16.99,0-.73-.28-3.9-.88-4.62-1.47"/>
  <path class="cls-1" d="M210.91,382.74c-2.33-.08-4.22-1.38-6.11-2.47-1.95-1.12-3.68-1.5-5.75-.41-1.71.9-3.67,1.24-5.47,2"/>
  <path class="cls-1" d="M316.8,121.63c.8.1,1.41-.68,2.47-.11.99.53,1.74-.21,1.29-1.66-.69-2.25-3.76-4.43-6.17-4.41-2.32.02-4.36.74-6.36,1.79-3.86,2.01-7.74,3.98-11.43,6.31-.54.34-.47.85-.85,1.14"/>
  <path class="cls-1" d="M77.18,293.95c-4.35,1.65-8.52,3.69-12.72,5.7"/>
  <path class="cls-1" d="M107.44,299.87c1.9,3.42,4.13,6.61,6.58,9.64.71.87.7,1.67.58,2.87-.23,2.28-.52,4.67.25,7.02.4,1.22-.17,2.63.27,3.93"/>
  <path class="cls-1" d="M395.07,271.59c-.66-.02-1.3-.44-1.71-.72-3.56-2.42-6.53-.91-9.47,1.16"/>
  <path class="cls-1" d="M368.1,213.05c-2.59,1.08-4.66,3.05-7.23,4.18-2.92,1.29-5.18,3.71-7.95,5.15-4.37,2.28-8.22,5.31-12.44,7.78-.6.35-1.18.09-1.76.2"/>
  <path class="cls-1" d="M352.76,95.33c-.38,2.32,1.13,4.11,1.78,6.13.91,2.8,1.62,5.59,1.08,8.56-.08.45-.48.56-.67.87"/>
  <path class="cls-1" d="M146.46,206.04c-3.75-.44-6.98,1.62-10.5,2.32-1.43.29-2.94,1.54-3.97,2.94"/>
  <path class="cls-1" d="M177.59,228.62c1.82,1.61,3.29,3.59,5.26,5.04"/>
  <path class="cls-1" d="M136.37,212.62c-.63,1.14-.81,2.26.22,3.29"/>
  <path class="cls-1" d="M173.86,224.89c.73.06.8,1.04,1.53,1.1"/>
  <path class="cls-1" d="M69.95,291.32c-2.81,1.1-5.7,2.01-8.12,3.94-2.51,2.01-2.55,4.24,0,6.14,5.28,3.93,12.41,4.57,18.61.85,2.02-1.21,3.35-3.15,2.83-5.66-.59-2.85-2.96-4.01-5.45-4.82-2.5-.81-5.11-.36-7.67-.45"/>
  <path class="cls-1" d="M387.61,265.23c-2.73.3-5.09,1.67-7.43,2.9-3.36,1.76-3.34,4.69-.25,6.98,5.23,3.86,10.71,4.06,16.45,1.31,2.32-1.11,4.03-2.87,3.87-5.48-.17-2.72-2.46-3.86-4.74-4.84-2.49-1.07-5.09-.84-7.68-.86"/>
  <path class="cls-1" d="M428.83,90.94c-1.38.71-2.96.68-4.41,1.25-2.39.94-4.26,2.42-5.65,4.46-1.91,2.81-.91,5.84,2.62,7.4,5.56,2.45,11.08,2.08,16.19-1.31,2.83-1.88,3.76-4.83,2.65-7.2-.97-2.06-2.7-3.19-4.82-3.71-2.08-.51-4.17-1.09-6.35-.89"/>
</svg>