<?xml version="1.0" encoding="UTF-8"?>
<svg id="icons" xmlns="http://www.w3.org/2000/svg" viewBox="0 0 500 500">
  <defs>
    <style>
      .cls-1 {
        fill: none;
        stroke: #000;
        stroke-linecap: round;
        stroke-linejoin: round;
        stroke-width: .9px;
      }
    </style>
  </defs>
  <path class="cls-1" d="M279.11,182.81c-.44-.45-1.01-.3-1.53-.3-20.51,0-41.01-.06-61.52.04-4.88.02-140.56,1.29-144.34,4.29-7.1,5.64-11.33,13.24-14.59,21.54-1.98,5.05-3.56,10.2-4.66,15.48-1.25,6.04-1.92,11.67-2.29,17.86-.27,4.62-.25,9.68,0,14.26.23,4.15.91,8.28,1.57,12.41,1.02,6.38,2.54,12.62,4.82,18.65,3.64,9.68,8.77,18.37,17.29,24.62,3.03,2.22,137.74,4.39,141.58,4.8,1.85.2,3.68.22,5.52.22,18.62.02,37.24.11,55.85-.07,3.41-.03,6.82.35,10.26-.03,4.85-.54,8.96-2.51,12.53-5.72,1.34-1.21,2.92-2.22,3.68-3.97"/>
  <path class="cls-1" d="M303.6,192.3c-.08-.3.12-.62-.15-.92-3.32-3.89-7.28-6.89-12.26-8.21-3.8-1.01-7.87-1.3-11.58-.22-3.9,1.14-7.56,3.2-10.61,6.13-6.31,6.05-10.25,13.53-13.32,21.58-2.16,5.68-3.69,11.53-4.84,17.46-1.64,8.42-2.24,16.97-1.84,25.55.25,5.43.9,10.84,1.73,16.23,1.09,7.13,3.21,13.88,5.98,20.52,3.02,7.24,6.96,13.81,12.46,19.4,2.31,2.35,4.93,4.27,8.09,5.4.53.19,1.22.41,1.54,1.03"/>
  <path class="cls-1" d="M365.11,198.42c-.27.41-.65.7-1.07.91-6.01,3.05-9.87,8.07-12.86,13.93-2.63,5.15-4.4,10.6-5.65,16.23-.88,3.98-1.46,8-1.75,12.08-.16,2.19-.35,4.4-.36,6.58-.02,4.46.38,8.89.98,13.32.77,5.76,1.98,11.4,4.05,16.82,2.93,7.66,6.99,14.6,13.6,19.74,1.25.97,2.75,1.58,3.97,2.61"/>
  <path class="cls-1" d="M343.54,197.65c-.45.42-1,.3-1.53.3-3.88.06-7.76-.18-11.63.17-3,.27-5.71,1.45-8.1,3.22-4.5,3.34-7.62,7.78-9.98,12.83-2.96,6.36-5.08,12.93-6.15,19.89-.87,5.65-1.37,11.31-1.29,16.99.09,6.87.86,13.69,2.71,20.36,2.11,7.61,4.96,14.89,9.97,21.1,4.38,5.42,9.88,8.69,17.12,8.61,8.26-.1,16.53-.02,24.79-.02,3.88,0,7.75-.1,11.63,0,3.53.1,6.65-1.05,9.49-3.06,5.01-3.55,8.03-8.71,11.14-13.79.16-.26.27-.78.19-1.2"/>
  <path class="cls-1" d="M361.59,198.27c-1.9,1-3.94,1.72-5.67,3.05-3.84,2.95-6.72,6.71-8.99,10.89-4.01,7.4-6.16,15.42-7.37,23.7-.79,5.42-1.21,10.89-.9,16.37.26,4.66.71,9.3,1.43,13.94,1.02,6.55,2.96,12.78,5.93,18.64,2.93,5.77,6.72,10.91,12.49,14.27.93.54,2.18.57,2.76,1.67"/>
  <path class="cls-1" d="M392.5,216.78c-2.08-4.5-4.76-8.61-8.13-12.22-3.03-3.26-6.46-5.91-11.14-6.49-1.91-.24-3.79-.19-5.66-.06-2.27.16-4.49-.03-6.74-.16-2.64-.16-5.3-.04-7.96-.04-2.65,0-5.3.26-7.96.07-.51-.04-1.01-.24-1.18-.41-3.49-3.63-7.83-5.04-12.74-5.01-1.43.01-2.88-.2-4.29.29-1.03.36-2.03-.17-3.06-.16-5.15.04-10.3,0-15.46.02-5.36.02-10.71-.23-16.07-.13-2.51.05-4.96-.55-7.51-.23-3.71.47-7.05,1.73-9.93,4.05-6.93,5.58-11.01,13.1-14.09,21.25-2,5.29-3.16,10.8-3.97,16.37-.88,6.08-1.52,12.21-1.21,18.36.4,7.97,1.19,15.87,3.57,23.59,2,6.51,4.53,12.69,8.33,18.35,1.89,2.82,3.95,5.48,6.59,7.65,3.65,2.99,7.74,4.83,12.55,4.73,1.12-.02,2.28.58,3.37-.14"/>
  <path class="cls-1" d="M428.47,217.4c-.44-.45-1.01-.3-1.53-.3-3.21,0-6.43,0-9.64,0h-15.76c-6.99,0-13.98-.04-20.96.02-3.23.03-6.43-.34-9.64-.45-4.25-.15-7.47,1.91-9.93,5.19-3.17,4.23-4.84,9.12-5.99,14.22-.82,3.68-1.32,7.41-1.52,11.17-.17,3.28.05,6.55.48,9.79.54,4.07,1.26,8.11,2.87,11.95,1.64,3.92,3.48,7.68,6.58,10.72,2.46,2.42,5.38,3.31,8.74,3.04.97-.08,1.99.31,2.91-.3.02-.02.02-.11,0-.15-.04-.06-.1-.1-.15-.16"/>
  <path class="cls-1" d="M325.17,193.22c-3.81,1.39-7.07,3.64-9.76,6.61-2.17,2.39-3.94,5.12-5.53,7.93-2.78,4.92-4.83,10.15-6.27,15.61-1.51,5.72-2.49,11.52-2.97,17.44-.46,5.67-.34,11.33-.2,16.99.15,5.93,1.35,11.75,3.02,17.44,2.33,7.92,5.69,15.32,10.8,21.92,3.01,3.89,6.73,6.78,11.1,8.76,2.22,1.01,4.86.94,7.31.65,4.22-.5,7.97-2.18,11.18-5.01"/>
  <path class="cls-1" d="M268.4,281.82c1.7,3.67,3.34,7.36,5.64,10.72,3.18,4.66,6.77,8.88,11.81,11.6,2.75,1.49,5.56,2.57,8.87,2.52,9.64-.15,19.28-.32,28.92-.21.48,0,.99.1,1.38-.3"/>
  <path class="cls-1" d="M421.12,143.33c-.16,1.98-.41,5.23-.94,7.19-1.52,5.59-2.53,11.3-4.24,16.84-.12.4.04.88-.17,1.3.53.33,1.11.23,1.68.23,3.77,0,7.55,0,11.32,0,.57,0,1.19-.17,1.68.3"/>
  <path class="cls-1" d="M401.07,178.08c4.48-.03,8.97-.02,13.45,0,.51,0,1.05-.16,1.72.21-.14,1.51-.71,3.01-1.08,4.51-1.34,5.46-3.07,13.94-4.21,19.44"/>
  <path class="cls-1" d="M314.46,200.41c-2.01.35-3.74,1.42-5.49,2.33-6.47,3.41-12.89,6.93-18.99,10.98-4.67,3.11-9.39,6.12-13.78,9.64"/>
  <path class="cls-1" d="M276.51,276.16c5.34,3.85,10.77,7.56,16.37,11.03,5.95,3.68,12.06,7.07,18.52,9.78.98.41,1.89,1.12,3.06.93"/>
  <path class="cls-1" d="M421.12,143.33c-1.44.83-1.99,2.39-2.71,3.7-5.33,9.62-10.95,19.06-16.41,28.6-.4.69-.81,1.39-.93,2.21"/>
  <path class="cls-1" d="M299.31,255.8c-8.03,6.32-15.52,13.26-23.63,19.77-3.04-2.64-6.54-4.95-9.57-7.84-.28-.27-.61-.31-.93-.45"/>
  <path class="cls-1" d="M430.46,169.19c-2.75,3.96-4.53,7.91-6.85,12.11-3.38,6.12-6.89,12.16-10.17,18.33-.5.94-.66,2.23-1.96,2.62"/>
  <path class="cls-1" d="M289.36,192.6c-.1.62-.69.63-1.08.74-2.3.67-4.34,1.87-6.09,3.42-4.97,4.39-8.81,9.64-11.54,15.72-.7,1.55-1.22,3.21-2.26,4.61"/>
  <path class="cls-1" d="M264.42,232.54c.16,1.76-.27,3.48-.48,5.2-.63,5.04-.83,10.08-.62,15.15.15,3.8.48,7.57,1.09,11.33.88,5.37,1.86,10.72,3.51,15.92.14.43.49.75.48,1.22"/>
  <path class="cls-1" d="M268.55,217.55c7.97,6.56,16,13.05,23.88,19.74,2.54,2.16,5.13,4.25,7.65,6.43"/>
  <path class="cls-1" d="M376.13,282.13c-.2.77.37.61.77.61,6.02-.1,12.04.15,18.06-.11,1.62-.07,3.26.11,4.9.11,7.65,0,15.3.08,22.95-.03,3.37-.05,6.73.23,10.1-.09,1.95-.19,3.07-1.08,3.36-3.08.46-3.19-.19-6.33-.46-9.49,0-.05,0-.2.16-.46"/>
  <path class="cls-1" d="M447.75,247.69c2.79,2.6,2.86,8.84.92,12.09-.5.84-1.26,1.34-2.14,1.68"/>
  <path class="cls-1" d="M445.76,234.23c2.76,1.49,4.44,5.22,3.8,8.72-.24,1.31-.34,2.71-1.21,3.82-.52.67-1.19,1.18-2.13,1.08-1.48-.16-2.56-.88-3.05-2.3-.61-1.78-.71-3.65-.6-5.5.1-1.74-.31-3.16-1.85-4.15-.42-.27-.79-.65-1.06-1.07-.28-.43-.6-.94-1.08-.72-1.41.65-1.78-.78-1.77-1.25.07-2.15-1.09-3.39-2.68-4.44-.12-.08-.21-.2-.31-.3"/>
  <path class="cls-1" d="M263.96,212.8c1.1,1.35,2.31,2.6,3.68,3.67.79.61.85,1.23.48,2.16-1.13,2.81-1.89,5.74-2.45,8.72-.25,1.36-.93,2.68-.64,4.13"/>
  <path class="cls-1" d="M444.53,247.69c-1.02,1.15-1.23,2.52-1.06,3.98.21,1.83-.26,3.67.24,5.52.24.88.48,1.62,1.11,2.3.96,1.04,1.9,2.1,2.02,3.66.2,2.74.51,5.45-1.07,7.97-.96,1.53-1.95,1.97-3.38,1.52"/>
  <path class="cls-1" d="M442.39,237.29c1.45-.62,1.93-2.26,3.21-3.07.15-.1,0,.05,0-.14-.02-2.76.4-5.6-1.22-8.11-1.01-1.56-2.46-2.12-4.28-1.69"/>
  <path class="cls-1" d="M433.36,266.82c-2.64,1.02-2.13,3.48-2.43,5.51-.35,2.43.45,4.89-.02,7.34-.09.46.32.73.5,1.05.3.56.96.89,1.18,1.55"/>
  <path class="cls-1" d="M430.15,254.58c-.22-2.06-.48-4.14-1.1-6.11-.69-2.2.23-4.07,1.34-5.61,1.3-1.81,1.15-3.48.49-5.25-.44-1.16-.67-2.37-.98-3.55-.25-.93.53-1.88.57-2.89.05-1.26.63-2.22,1.82-2.76,1.23-.55,1.34-1.65,1.2-2.75-.12-.87-.2-1.75-.1-2.6.25-2.11-1.22-3.58-1.9-5.34-.24-.63-2.45-.72-3.01-.15-1,1.01-2.32,1.68-2.69,3.33-.21.95-1.45,1.51-2.26,2.1-2.3,1.69-2.88,4.15-3.44,6.64-.15.67-.21,1.41-.2,2.13,0,.73.15,1.35.77,1.84,1.19.95,2.21,2.01,2.83,3.48.2.48.38.91.39,1.41.01,1.12,0,2.24,0,3.37,0,3.33,1.17,4.54,4.59,4.74"/>
  <path class="cls-1" d="M436.73,255.35c-1.39.14-1.28,1.64-2.12,2.32-1.08.87-1.43,2.09-1.26,3.5.1.86.07,1.74,0,2.6-.13,1.84.19,3.46,1.84,4.61.34.24.77.52.78,1.06"/>
  <path class="cls-1" d="M443.77,258.25c-2.04.63-3.12,1.95-3.41,4.13-.19,1.38-.25,2.81-.83,4.16-.22.51-.28,1.24.24,1.84.3.35.52.81.79,1.2.68.96,1.67,1.86,1.63,3.06-.06,2.22-.22,4.47-1.49,6.42-.93,1.42-1.86,1.59-3.53.79-.19-.09-.47-.28-.75-.18"/>
  <path class="cls-1" d="M275.59,223.67c-2.69,2.29-5.71,4.16-8.43,6.42-3.26,2.71-6.95,4.91-9.93,7.98-.32.33-.59.31-.93.14"/>
  <path class="cls-1" d="M421.12,260.7c-1.13,1.34-1.01,3.04-1.17,4.6-.2,1.91.38,3.82.9,5.65.58,2.04,2.3,2.21,4.1,2"/>
  <path class="cls-1" d="M363.42,279.69c.96.67,53-45.36,53.91-44.58.48.41.71.6.45,1.26-1.32,3.4-1.25,6.89-.48,10.4.45,2.04-39.76,35.31-41.16,35.35"/>
  <path class="cls-1" d="M443.46,249.22c-.41-.33-.69-.75-.92-1.22-.63-1.28-1.78-1.61-3.06-1.52-1.46.1-1.81,1.38-2.11,2.44-.4,1.43-.33,2.97-.66,4.43-.38,1.69.67,2.83,1.57,3.96.81,1.01,1.39,2.11,1.96,3.24"/>
  <path class="cls-1" d="M431.68,217.55c4.5-.95,7.41,1,8.1,5.66.23,1.57-.36,4.66-1.06,6.2-.76-.29-1.51-.66-2.3-.08"/>
  <path class="cls-1" d="M426.94,233.16c-.1-2.2.76-4.49-.61-6.58-.05-.07.02-.21,0-.3-.42-1.51-3.26-.74-3.89-2.2l-62.91,50.48"/>
  <path class="cls-1" d="M417.6,247.08c1.12.19,2.23.52,3.37.6.46.03.68.18.95.6.82,1.28,1.49,2.55,1.37,4.15-.07.97.1,1.94.22,2.91.18,1.42-.86,2.58-1.47,3.81-.23.45-.91.59-.91,1.23"/>
  <path class="cls-1" d="M257.08,260.4c1.68,1.83,3.75,3.2,5.67,4.73.41.32.83.6,1.06,1.08"/>
  <path class="cls-1" d="M437.19,234.69c-.77.99-.84,2.27-1.33,3.39-.27.61-.55,1.16-.95,1.69,1.03,2.36,2.12,4.72,3.36,7.01"/>
  <path class="cls-1" d="M275.29,275.7c-2.68,2.6-5.68,4.83-8.58,7.18-.9.73-1.61,1.68-2.59,2.31"/>
  <path class="cls-1" d="M435.66,255.65c-2.89-2.36-4.85-1.33-6.34.88-.94,1.39-1.71,2.99-3.15,4.02"/>
  <path class="cls-1" d="M425.41,272.64l-38.6,10.14,33.55-21.47c-1.18-.25-2.2-.84-2.57-2-.53-1.63-1.01-3.24-1.04-5.04-.02-1.54.16-3.06.09-4.59,0,0-64.11-3.8-61.82-13.62"/>
  <path class="cls-1" d="M438.72,229.48c.69,1.49.62,3.03.31,4.59"/>
  <path class="cls-1" d="M427.24,266.67c-.27,2.09-1.51,3.89-1.84,5.97-.41,2.56-.07,5.02,1.09,7.34.35.7,1.1,1.07,1.82,1.39"/>
  <path class="cls-1" d="M429.54,233.92c-.92-.2-1.8-.59-2.75-.61-1.18,1.14-1.8,2.68-2.75,3.98"/>
  <path class="cls-1" d="M431.22,268.66c-1.47-.37-2.61-1.35-3.79-2.19-.64-.45-.72-1.47-.76-2.25-.04-.84-.2-1.64-.35-2.45-.38-1.94-1.97-2.62-3.83-1.7-.41.2-.78.8-1.37.32"/>
  <path class="cls-1" d="M431.07,255.5c1.02.97.94,2.56,1.99,3.52"/>
  <path class="cls-1" d="M426.48,246.78c-1.55.85-2.34,2.31-3.06,3.83"/>
  <path class="cls-1" d="M439.18,267.74c-1.34.15-2.01,1.46-3.21,1.84"/>
  <path class="cls-1" d="M423.72,256.57c.37,1.02.91,1.97,1.07,3.06"/>
  <path class="cls-1" d="M430.46,229.79c-1.03-.23-2.02-.6-3.06-.77"/>
  <path class="cls-1" d="M434.74,239.74c-.97-.45-1.94.26-2.91,0"/>
  <path class="cls-1" d="M424.03,244.79c-.76.89-1.38,1.88-2.14,2.75"/>
  <path class="cls-1" d="M435.2,217.7c-.63.89-1.3,1.75-1.99,2.6"/>
  <path class="cls-1" d="M430.76,279.98c-1.19.56-2.34,1.16-2.91,2.45l-73.12-22.76c-.35-3.74,71.06-38.77,71.06-38.77"/>
  <path class="cls-1" d="M419.9,233.62c-.63.54-1.08,1.28-1.84,1.68"/>
  <line class="cls-1" x1="391.89" y1="283.04" x2="428.31" y2="281.36"/>
  <path class="cls-1" d="M410.1,217.09s-53.6,14.45-55.37,20.9"/>
  <path class="cls-1" d="M392.5,216.78s-32.43,6.75-34.53,11.32"/>
  <path class="cls-1" d="M421.12,271.73s-67.68-13.85-67.69-21.74c0-5.43,70.29-32.9,70.29-32.9"/>
  <path class="cls-1" d="M419.47,261.04s-67.2-10.97-65.44-19.51"/>
  <path class="cls-1" d="M417.32,235.11s-63.7,2.23-58.91-9.08"/>
  <path class="cls-1" d="M419.89,231.78s-58.81.81-58.13-10.88"/>
  <path class="cls-1" d="M422.43,224.07s-59.07.86-57.05-6.15"/>
  <path class="cls-1" d="M405.14,282.43s-45.93-6.53-47.98-12.7"/>
</svg>