<svg width="500" height="500" viewBox="0 0 500 500" fill="none" xmlns="http://www.w3.org/2000/svg">
<path d="M368.427 363.026L308.068 399.617L300.25 401.493L256.466 387.107V406.184L300.25 419.319L308.068 416.505L368.427 380.539V363.026Z" fill="#FFDA00" fill-opacity="0.7"/>
<path d="M377.287 246.242L289.132 221.89V228.666L369.326 249.444L305.104 289.866L264.682 275.51L255.993 282.31L305.104 296.288L367.437 260.022L369.326 379.021L302.282 418.169L261.37 405.993H253.578V414.272L302.282 427.91L377.287 384.076V308.584H373.391V257.444L377.287 246.242Z" fill="#FFDA00" fill-opacity="0.7"/>
<path d="M307.47 343.453V295.762H300.391V341.59L251.955 328.922V336.001L300.391 350.532V417.225L307.47 414.989V350.532L368.201 314.764V309.547L307.47 343.453Z" fill="#FFDA00" fill-opacity="0.7"/>
<path d="M104.34 185.449V155.627L120.983 172.104L146.334 179.971V400.894L108.6 383.853L101.297 369.247L104.34 361.943V324.21V271.262L101.297 254.221L104.34 248.743V192.752V185.449Z" fill="#FFDA00" fill-opacity="0.7"/>
<path d="M103.231 146.012C102.696 132.102 130.649 121.491 144.693 117.924V180.787C131.095 174.991 104.044 167.167 103.231 146.012Z" fill="#FFDA00" fill-opacity="0.7"/>
<path d="M161.84 107.709C161.06 108.229 160.34 109.079 159.5 109.199C156.5 109.629 155.8 111.509 155.56 114.169C155.39 116.159 155.32 118.129 155.33 120.129C155.4 131.419 155.36 142.719 155.36 154.009C155.36 159.789 155.22 165.569 155.39 171.339C155.8 185.049 155.45 198.759 155.64 212.469C155.84 226.609 155.97 240.749 156.24 254.889C156.38 262.299 156.33 269.719 156.57 277.139C156.92 287.989 156.54 298.869 156.69 309.729C157.01 332.839 156.88 355.939 156.92 379.049C156.92 383.019 157.6 386.979 156.92 390.949" stroke="#2071B5" stroke-width="4.20561" stroke-linecap="round" stroke-linejoin="round"/>
<path d="M168.56 188.67C169.24 189.66 168.79 190.75 168.8 191.77C168.83 254.62 168.82 317.48 168.83 380.33C168.83 381.62 168.64 382.94 169.08 384.21" stroke="#2071B5" stroke-width="4.20561" stroke-linecap="round" stroke-linejoin="round"/>
<path d="M146.839 117.541V400.511" stroke="#2071B5" stroke-width="4.20561" stroke-linecap="round" stroke-linejoin="round"/>
<path d="M173.219 190.22C173.219 198.07 173.119 205.91 173.239 213.76C173.749 248.85 173.179 283.95 173.549 319.03C173.769 339.72 173.589 360.42 173.739 381.11C173.739 382.14 173.739 383.18 173.739 384.21" stroke="#2071B5" stroke-width="4.20561" stroke-linecap="round" stroke-linejoin="round"/>
<path d="M280.56 127.891C280.55 134.441 280.53 141.001 280.32 147.551C279.61 169.531 280.41 191.521 279.99 213.511C279.65 231.621 279.98 249.721 279.75 267.831C279.7 271.891 279.33 275.941 279.78 279.991" stroke="#2071B5" stroke-width="4.20561" stroke-linecap="round" stroke-linejoin="round"/>
<path d="M157.179 391.19V450" stroke="#2071B5" stroke-width="4.20561" stroke-linecap="round" stroke-linejoin="round"/>
<path d="M334.62 410.081C334.01 412.321 334.65 414.561 334.62 416.811C334.5 425.261 334.68 433.711 334.44 442.161C334.37 444.761 334.49 447.381 334.57 450.001C334.57 450.201 334.58 450.401 334.59 450.601" stroke="#2071B5" stroke-width="4.20561" stroke-linecap="round" stroke-linejoin="round"/>
<path d="M334.619 238.589V120.639C334.619 119.949 334.659 119.259 334.619 118.569C334.509 116.979 333.969 115.779 332.039 115.979" stroke="#2071B5" stroke-width="4.20561" stroke-linecap="round" stroke-linejoin="round"/>
<path d="M343.679 96.0703C344.399 103.82 344.389 111.58 343.939 119.35C343.859 120.74 344.219 122.09 344.219 123.49C344.189 157.46 344.169 191.43 344.239 225.4C344.239 228.93 344.439 232.47 344.449 236.01" stroke="#2071B5" stroke-width="4.20561" stroke-linecap="round" stroke-linejoin="round"/>
<path d="M183.82 413.19C183.82 452.25 183.82 410.94 183.82 450" stroke="#2071B5" stroke-width="4.20561" stroke-linecap="round" stroke-linejoin="round"/>
<path d="M214.859 422.24C214.859 458.28 214.859 413.85 214.859 449.89" stroke="#2071B5" stroke-width="4.20561" stroke-linecap="round" stroke-linejoin="round"/>
<path d="M229.61 199.792V305.581C227.02 306.031 225.02 306.172 222.86 305.682C221.15 305.282 220.52 304.152 220.62 303.002C221.44 294.292 220.93 285.582 221.02 276.872C221.03 275.812 221.72 275.312 222.01 274.352C223.19 275.052 224.57 274.801 225.46 275.831" stroke="#2071B5" stroke-width="4.20561" stroke-linecap="round" stroke-linejoin="round"/>
<path d="M225.73 425.09C225.73 460.18 225.73 414.91 225.73 450" stroke="#2071B5" stroke-width="4.20561" stroke-linecap="round" stroke-linejoin="round"/>
<path d="M289.619 425.35C290.059 426.87 290.139 428.43 290.139 430.01C290.139 436.64 290.139 443.27 290.139 449.9" stroke="#2071B5" stroke-width="4.20561" stroke-linecap="round" stroke-linejoin="round"/>
<path d="M300.479 419.142C300.699 422.932 300.129 426.702 300.409 430.532C300.789 435.672 301.139 463.502 300.479 441.652" stroke="#2071B5" stroke-width="4.20561" stroke-linecap="round" stroke-linejoin="round"/>
<path d="M227.799 202.901C228.349 203.721 228.039 204.631 228.039 205.491C228.059 237.051 228.909 268.631 227.789 300.151C226.889 325.521 227.669 350.861 226.969 376.201C226.739 384.651 226.869 393.101 226.779 401.551C226.759 403.111 226.649 404.661 226.499 406.211" stroke="#2071B5" stroke-width="4.20561" stroke-linecap="round" stroke-linejoin="round"/>
<path d="M269.959 177.55C269.479 179.34 269.709 181.17 269.709 182.98C269.709 208.67 269.799 234.37 269.629 260.06C269.589 266.09 269.569 272.13 269.439 278.17" stroke="#2071B5" stroke-width="4.20561" stroke-linecap="round" stroke-linejoin="round"/>
<path d="M334.359 50.6396C334.339 61.4696 334.31 72.3096 334.41 83.1396C334.45 87.4496 334.559 91.7596 334.679 96.0696C334.689 96.5596 334.489 96.7696 334.359 97.1096" stroke="#2071B5" stroke-width="4.20561" stroke-linecap="round" stroke-linejoin="round"/>
<path d="M233.23 197.211C236.85 198.381 236.91 198.381 236.84 202.121C236.54 217.981 236.5 233.851 236.64 249.711C236.7 255.661 236.84 261.611 236.84 267.561C236.84 310.151 236.95 352.751 236.77 395.341C236.73 405.681 236.81 416.031 236.59 426.381" stroke="#2071B5" stroke-width="4.20561" stroke-linecap="round" stroke-linejoin="round"/>
<path d="M249.779 194.62C250.639 194.96 250.919 193.94 251.579 193.83C252.299 195.23 251.539 196.61 251.549 197.99C251.609 224.37 251.609 250.76 251.559 277.14C251.559 280.24 252.039 283.31 251.669 286.46C251.299 289.52 251.589 292.66 251.589 295.76V314.38C251.589 317.48 251.589 320.59 251.589 323.69C251.589 326.54 251.689 329.39 251.559 332.22C251.469 334.22 251.999 335.48 254.179 335.58" stroke="#2071B5" stroke-width="4.20561" stroke-linecap="round" stroke-linejoin="round"/>
<path d="M156.859 51.0298C156.959 64.0598 157.069 77.0898 157.189 90.1198" stroke="#2071B5" stroke-width="4.20561" stroke-linecap="round" stroke-linejoin="round"/>
<path d="M261.159 189.451C261.659 192.371 261.369 195.311 261.419 198.241C261.569 206.001 261.439 213.761 261.559 221.521C261.649 227.451 261.439 233.421 261.429 239.371C261.389 251.531 261.419 263.681 261.419 275.841" stroke="#2071B5" stroke-width="4.20561" stroke-linecap="round" stroke-linejoin="round"/>
<path d="M333.783 335.425C346.433 327.985 362.979 317.13 375.479 309.49C376.419 310.14 376.029 311.07 376.029 311.85C376.049 326.85 376.049 341.85 376.049 356.86C376.049 361.77 375.359 366.82 376.259 371.57C377.049 375.76 374.679 376.94 372.149 378.3C363.149 383.13 354.489 388.53 345.789 393.86C333.219 401.56 320.739 409.42 308.019 416.88" stroke="#2071B5" stroke-width="4.20561" stroke-linecap="round" stroke-linejoin="round"/>
<path d="M182.25 50.001C182.25 52.851 182.88 59.341 182.27 62.181C182.16 62.681 181.19 81.051 181.5 81.321" stroke="#2071B5" stroke-width="4.20561" stroke-linecap="round" stroke-linejoin="round"/>
<path d="M289.589 49.7705C289.489 58.6105 289.289 66.8005 289.279 75.6305C289.279 78.0705 289.299 80.4705 289.619 82.8705" stroke="#2071B5" stroke-width="4.20561" stroke-linecap="round" stroke-linejoin="round"/>
<path d="M300.499 49.9004C300.499 75.2504 300.479 51.8404 300.469 77.1904C300.469 79.4304 300.619 81.6904 300.219 83.9204" stroke="#2071B5" stroke-width="4.20561" stroke-linecap="round" stroke-linejoin="round"/>
<path d="M157.699 391.46C164.099 393.59 170.619 395.3 177.069 397.24C184.409 399.45 191.749 401.66 199.089 403.85C207.719 406.43 216.329 409.05 224.939 411.65C228.389 412.69 231.789 413.89 235.289 414.74" stroke="#2071B5" stroke-width="4.20561" stroke-linecap="round" stroke-linejoin="round"/>
<path d="M157.179 176C156.999 171.69 157.369 167.37 156.949 163.06C156.809 161.6 157.439 161.05 158.459 161.53C164.149 164.21 170.389 165.06 176.329 166.91C186.159 169.97 196.179 172.36 206.079 175.17C215.249 177.77 224.529 180 233.729 182.51C239.619 184.12 245.609 185.43 251.329 187.64C252.629 188.14 253.709 186.85 254.959 187.36" stroke="#2071B5" stroke-width="4.20561" stroke-linecap="round" stroke-linejoin="round"/>
<path d="M224.999 50.001C224.999 70.691 224.949 42.531 224.949 63.231" stroke="#2071B5" stroke-width="4.20561" stroke-linecap="round" stroke-linejoin="round"/>
<path d="M104.929 256.701C105.799 262.461 110.139 265.111 114.779 267.261C120.279 269.801 125.849 272.171 131.809 273.581C135.429 274.441 139.039 275.361 142.699 276.051C143.969 276.291 144.269 276.881 144.229 277.911C144.039 283.691 144.489 289.461 144.019 295.241C143.779 298.241 143.979 301.271 143.979 304.291C143.979 313.691 144.009 323.091 143.979 332.481C143.949 339.041 144.409 345.591 144.219 352.141C143.899 363.001 144.049 373.871 143.999 384.731C143.979 389.131 143.999 393.521 143.999 397.921" stroke="#2071B5" stroke-width="4.20561" stroke-linecap="round" stroke-linejoin="round"/>
<path d="M103.379 359.651C103.519 361.861 101.849 363.511 101.559 365.601C100.669 371.881 102.679 377.271 106.769 381.871C111.929 387.681 118.939 390.621 125.909 393.481C129.559 394.981 133.239 396.621 137.039 397.571C143.629 399.221 149.669 402.551 156.409 403.621" stroke="#2071B5" stroke-width="4.20561" stroke-linecap="round" stroke-linejoin="round"/>
<path d="M215.099 50.001C215.099 68.361 215.169 52.421 215.169 70.791C215.169 72.281 188.279 77.501 187.769 78.931" stroke="#2071B5" stroke-width="4.20561" stroke-linecap="round" stroke-linejoin="round"/>
<path d="M289.869 165.911C289.459 184.191 289.649 202.471 289.619 220.751C289.599 233.681 289.809 246.621 289.539 259.551C289.369 267.581 289.369 275.591 289.609 283.611" stroke="#2071B5" stroke-width="4.20561" stroke-linecap="round" stroke-linejoin="round"/>
<path d="M171.149 383.701C169.059 383.581 168.899 384.931 168.789 386.541C168.669 388.201 169.359 388.991 170.889 389.401C181.869 392.381 192.769 395.681 203.749 398.671C210.519 400.511 217.299 402.301 223.919 404.651" stroke="#2071B5" stroke-width="4.20561" stroke-linecap="round" stroke-linejoin="round"/>
<path d="M104.93 171.341C104.93 174.521 104.22 177.421 103.07 180.471C101.9 183.571 101.56 187.441 104.19 190.461C105.36 191.801 105.46 193.271 105.46 194.881C105.45 211.781 105.46 228.681 105.46 245.581C105.46 246.281 105.35 246.991 105.72 247.651" stroke="#2071B5" stroke-width="4.20561" stroke-linecap="round" stroke-linejoin="round"/>
<path d="M157.179 204.971C157.199 197.471 157.149 189.971 157.159 182.481C158.099 181.691 158.959 182.631 159.179 183.021C161.269 186.701 165.359 187.211 168.609 188.241C179.469 191.671 190.629 194.081 201.659 196.961C207.689 198.531 213.739 200.031 219.759 201.641C222.069 202.261 224.449 202.531 226.749 203.161" stroke="#2071B5" stroke-width="4.20561" stroke-linecap="round" stroke-linejoin="round"/>
<path d="M330.479 177.029C330.479 192.119 330.579 207.209 330.409 222.289C330.369 225.639 331.109 229.069 329.969 232.379" stroke="#2071B5" stroke-width="4.20561" stroke-linecap="round" stroke-linejoin="round"/>
<path d="M291.68 228.251C299.19 230.301 306.74 232.231 314.16 234.541C322.88 237.261 331.88 238.921 340.55 241.771C341.49 242.081 342.94 241.111 343.42 242.741" stroke="#2071B5" stroke-width="4.20561" stroke-linecap="round" stroke-linejoin="round"/>
<path d="M172.18 383.96C181.24 387.29 190.58 389.67 199.87 392.17C208.36 394.45 216.79 396.91 225.2 399.47C225.52 399.57 225.89 399.48 226.23 399.48" stroke="#2071B5" stroke-width="4.20561" stroke-linecap="round" stroke-linejoin="round"/>
<path d="M143.989 201.09C144.499 203.75 144.219 206.44 144.229 209.11C144.269 229.29 144.249 249.46 144.249 269.64C144.249 271.71 144.329 273.79 143.989 275.85" stroke="#2071B5" stroke-width="4.20561" stroke-linecap="round" stroke-linejoin="round"/>
<path d="M162.359 156.341C175.249 160.571 188.359 164.051 201.389 167.801C205.479 168.981 209.649 170.081 213.569 171.861" stroke="#2071B5" stroke-width="4.20561" stroke-linecap="round" stroke-linejoin="round"/>
<path d="M254.44 337.4C254.44 352.06 254.44 366.71 254.44 381.37C254.44 383.01 253.64 385.04 254.35 386.18C255.16 387.48 257.48 387.25 259.1 387.84C270.17 391.9 281.76 394.33 292.76 398.63C293.91 399.08 295.32 399.23 296.61 399.49C297.48 399.67 298.59 399.62 298.42 401.04" stroke="#2071B5" stroke-width="4.20561" stroke-linecap="round" stroke-linejoin="round"/>
<path d="M304.62 351.371C303.23 351.321 301.78 351.711 299.96 350.191V399.858" stroke="#2071B5" stroke-width="4.20561" stroke-linecap="round" stroke-linejoin="round"/>
<path d="M370.32 249.201C363.79 247.831 357.45 245.691 350.93 244.261C348.86 243.811 346.85 243.131 344.46 242.911V264.971" stroke="#2071B5" stroke-width="4.20561" stroke-linecap="round" stroke-linejoin="round"/>
<path d="M301.509 293.95C299.879 294.84 300.219 296.41 300.219 297.83C300.209 312.57 300.219 327.32 300.219 342.06" stroke="#2071B5" stroke-width="4.20561" stroke-linecap="round" stroke-linejoin="round"/>
<path d="M261.68 284.631C261.16 297.651 261.53 310.671 261.43 323.691C261.41 326.021 261.32 328.361 261.68 330.671" stroke="#2071B5" stroke-width="4.20561" stroke-linecap="round" stroke-linejoin="round"/>
<path d="M369.394 361.643C366.794 363.773 361.959 366.339 357.639 370.249C351.519 372.529 346.429 376.629 340.859 379.879C329.769 386.349 318.649 392.749 307.959 399.289C307.999 404.829 308.169 410.169 307.719 415.519" stroke="#2071B5" stroke-width="4.20561" stroke-linecap="round" stroke-linejoin="round"/>
<path d="M255.469 283.34C263.919 284.2 271.729 287.44 279.989 289.8C279.249 290.69 279.209 291.66 279.269 292.65C279.279 292.82 279.269 292.99 279.269 293.17C279.449 306.36 278.849 319.55 279.009 332.74C279.019 333.63 279.149 334.56 278.499 335.33" stroke="#2071B5" stroke-width="4.20561" stroke-linecap="round" stroke-linejoin="round"/>
<path d="M306.69 295.501C307.64 296.661 307.46 298.041 307.46 299.381C307.46 313.431 307.46 327.491 307.46 341.541" stroke="#2071B5" stroke-width="4.20561" stroke-linecap="round" stroke-linejoin="round"/>
<path d="M289.359 292.649C289.019 306.699 289.119 320.759 289.079 334.809C289.079 335.669 289.389 336.579 288.839 337.399" stroke="#2071B5" stroke-width="4.20561" stroke-linecap="round" stroke-linejoin="round"/>
<path d="M102.599 251.78C100.039 255.02 100.769 258.61 102.159 261.84C105.349 269.25 111.849 273.06 118.899 276.09C122.439 277.61 126.099 278.79 129.759 279.97C130.929 280.35 132.129 280.59 133.379 280.49" stroke="#2071B5" stroke-width="4.20561" stroke-linecap="round" stroke-linejoin="round"/>
<path d="M307.98 354.211C307.98 367.831 307.98 381.461 307.98 395.081C307.98 396.031 308.16 397.011 307.73 397.931" stroke="#2071B5" stroke-width="4.20561" stroke-linecap="round" stroke-linejoin="round"/>
<path d="M252.109 335.331C251.359 336.821 251.599 338.421 251.599 339.991C251.589 362.921 251.569 385.861 251.599 408.791C251.609 415.171 251.359 421.551 251.729 427.941" stroke="#2071B5" stroke-width="4.20561" stroke-linecap="round" stroke-linejoin="round"/>
<path d="M269.699 333.781C268.849 334.301 269.149 335.151 269.209 335.851C269.349 337.571 270.119 339.341 268.439 340.801C268.229 340.991 268.409 341.631 268.409 342.061C268.409 355.341 268.409 368.621 268.399 381.891" stroke="#2071B5" stroke-width="4.20561" stroke-linecap="round" stroke-linejoin="round"/>
<path d="M367.469 315.671C367.949 316.021 367.719 316.531 367.719 316.961C367.729 330.071 367.729 343.171 367.719 356.281C367.719 356.711 368.199 377.98 367.719 378.33" stroke="#2071B5" stroke-width="4.20561" stroke-linecap="round" stroke-linejoin="round"/>
<path d="M377.252 378.16C377.152 379.96 373.49 385.851 371.9 386.861C361.74 393.321 351.48 399.621 341.07 405.671C330.24 411.971 319.59 418.561 308.73 424.801C306.56 426.051 304.29 427.501 301.51 426.911" stroke="#2071B5" stroke-width="4.20561" stroke-linecap="round" stroke-linejoin="round"/>
<path d="M105.45 270.149C105.45 280.149 105.47 290.149 105.45 300.149C105.43 305.149 105.45 310.149 105.29 315.159C105.19 318.189 107.01 320.889 109.14 322.849C114.32 327.629 120.34 330.999 127.17 333.079C131.22 334.309 135.3 335.399 139.33 336.689C140.73 337.129 142.16 336.899 143.49 337.399" stroke="#2071B5" stroke-width="4.20561" stroke-linecap="round" stroke-linejoin="round"/>
<path d="M278.749 345.16C278.389 360.33 278.499 375.51 278.509 390.68C278.509 391.68 278.329 392.61 277.969 393.53" stroke="#2071B5" stroke-width="4.20561" stroke-linecap="round" stroke-linejoin="round"/>
<path d="M255.209 283.86C254.209 284.71 254.439 285.87 254.439 286.96C254.439 298.51 254.409 310.07 254.469 321.62C254.469 323.43 253.699 325.24 254.439 327.05" stroke="#2071B5" stroke-width="4.20561" stroke-linecap="round" stroke-linejoin="round"/>
<path d="M225.47 64.2612C232.75 67.0312 240.2 69.4112 247.75 71.0912C257.55 73.2712 266.96 76.6812 276.68 79.0212C277.55 79.2312 278.4 79.2512 279.27 79.2612" stroke="#2071B5" stroke-width="4.20561" stroke-linecap="round" stroke-linejoin="round"/>
<path d="M330.229 237.56C330.559 235.9 330.649 234.25 330.049 232.61C319.419 230 308.869 227.36 298.389 224.46C295.729 223.72 292.949 223.03 290.139 222.82" stroke="#2071B5" stroke-width="4.20561" stroke-linecap="round" stroke-linejoin="round"/>
<path d="M227.539 168.502C225.489 168.552 223.449 167.962 221.629 167.362C212.829 164.462 203.919 162.002 194.969 159.652C189.429 158.202 183.989 156.342 178.399 155.052C177.329 154.802 176.489 153.882 175.299 154.022" stroke="#2071B5" stroke-width="4.20561" stroke-linecap="round" stroke-linejoin="round"/>
<path d="M202.189 130.989C198.459 136.029 193.039 138.729 187.719 141.619C182.089 144.679 176.589 147.969 170.639 150.389C168.239 151.369 165.789 152.229 163.399 153.229" stroke="#2071B5" stroke-width="4.20561" stroke-linecap="round" stroke-linejoin="round"/>
<path d="M367.729 260.84C367.729 275.15 367.729 289.46 367.709 303.78C367.709 304.64 368.019 305.55 367.469 306.37" stroke="#2071B5" stroke-width="4.20561" stroke-linecap="round" stroke-linejoin="round"/>
<path d="M107.259 158.671C109.679 164.131 113.809 167.681 119.109 170.401C125.409 173.641 132.169 175.401 138.819 177.551C140.409 178.061 142.129 177.601 143.729 178.071" stroke="#2071B5" stroke-width="4.20561" stroke-linecap="round" stroke-linejoin="round"/>
<path d="M372.389 249.461C368.829 252.931 364.489 255.301 360.219 257.711C353.829 261.321 347.559 265.131 341.099 268.601C328.849 275.181 316.819 282.161 304.879 289.281C303.899 289.861 303.049 290.291 301.729 289.361C299.399 287.721 296.319 287.851 293.779 286.671C290.629 285.211 287.199 284.851 283.949 283.811C283.189 283.571 282.379 283.411 281.749 282.381C280.879 280.961 278.749 281.301 277.219 280.741C273.569 279.411 269.809 278.491 266.109 277.341C264.969 276.991 263.779 277.541 262.689 276.731C260.809 279.021 262.239 281.771 261.439 284.121" stroke="#2071B5" stroke-width="4.20561" stroke-linecap="round" stroke-linejoin="round"/>
<path d="M269.44 287.741C269.25 291.101 269.31 294.471 269.25 297.831C269.06 308.521 269.2 319.211 269.15 329.901C269.15 330.941 269.65 331.971 269.18 333.001" stroke="#2071B5" stroke-width="4.20561" stroke-linecap="round" stroke-linejoin="round"/>
<path d="M261.679 414.74C264.689 416.61 268.269 416.71 271.509 417.85C280.149 420.9 288.969 423.4 297.639 426.36C298.289 426.58 298.989 426.76 299.699 426.63" stroke="#2071B5" stroke-width="4.20561" stroke-linecap="round" stroke-linejoin="round"/>
<path d="M299.959 417.071C296.869 417.401 294.279 415.651 291.429 414.981C284.069 413.241 276.979 410.541 269.689 408.551C267.529 407.961 265.429 407.161 263.229 406.731" stroke="#2071B5" stroke-width="4.20561" stroke-linecap="round" stroke-linejoin="round"/>
<path d="M104.419 323.689C106.559 327.369 109.249 330.409 112.909 332.809C120.579 337.829 129.159 340.469 137.789 343.079C138.029 343.149 138.299 343.079 138.559 343.079" stroke="#2071B5" stroke-width="4.20561" stroke-linecap="round" stroke-linejoin="round"/>
<path d="M330.479 282.571C330.479 285.931 330.459 289.301 330.479 292.661C330.549 303.271 330.399 313.871 330.219 324.481C330.199 325.861 330.319 327.261 329.959 328.621" stroke="#2071B5" stroke-width="4.20561" stroke-linecap="round" stroke-linejoin="round"/>
<path d="M144.769 116.25C138.959 118.93 133.179 121.69 127.409 124.47C122.979 126.6 118.309 128.35 114.549 131.56C111.309 134.33 107.929 136.97 105.649 140.78C103.769 143.92 103.969 147.11 104.479 150.38C104.679 151.67 105.459 152.88 105.459 154.27" stroke="#2071B5" stroke-width="4.20561" stroke-linecap="round" stroke-linejoin="round"/>
<path d="M366.439 261.101C356.439 267.041 346.259 272.701 336.389 278.871C334.829 279.841 334.589 280.671 334.569 282.311C334.499 288.431 334.369 294.581 334.539 300.671C334.699 306.541 334.029 312.401 334.539 318.271C334.729 320.371 334.379 322.571 334.369 324.731C334.369 325.621 334.179 326.561 334.879 327.321" stroke="#2071B5" stroke-width="4.20561" stroke-linecap="round" stroke-linejoin="round"/>
<path d="M109.589 195.662C115.279 200.202 122.219 201.782 128.999 203.652C132.989 204.752 137.079 205.472 141.149 206.262C141.749 206.382 142.409 206.332 142.699 207.042" stroke="#2071B5" stroke-width="4.20561" stroke-linecap="round" stroke-linejoin="round"/>
<path d="M268.919 125.821C266.259 126.701 263.639 125.821 261.179 125.211C255.009 123.681 248.939 121.771 242.809 120.051C238.939 118.961 234.949 118.341 231.149 117.021" stroke="#2071B5" stroke-width="4.20561" stroke-linecap="round" stroke-linejoin="round"/>
<path d="M111.139 156.341C114.829 161.011 120.179 163.251 125.419 165.271C129.969 167.021 134.709 168.501 139.589 169.331C140.979 169.571 142.409 169.241 143.739 169.801" stroke="#2071B5" stroke-width="4.20561" stroke-linecap="round" stroke-linejoin="round"/>
<path d="M367.209 307.912C359.289 313.212 351.049 318.012 342.859 322.852C331.719 329.432 320.949 336.632 309.329 342.432C306.819 343.682 304.719 343.362 302.559 342.772C295.379 340.782 288.129 339.082 281.059 336.662C273.849 334.192 266.409 332.512 259.099 330.372C257.149 329.802 255.069 329.412 253.399 328.082" stroke="#2071B5" stroke-width="4.20561" stroke-linecap="round" stroke-linejoin="round"/>
<path d="M335.4 234.202C339.32 234.502 342.99 235.902 346.77 236.822C354.74 238.752 362.64 240.942 370.58 242.972C372.79 243.542 374.57 244.702 376.26 246.112" stroke="#2071B5" stroke-width="4.20561" stroke-linecap="round" stroke-linejoin="round"/>
<path d="M330.479 240.15C329.909 243.93 330.279 247.74 330.239 251.53C330.179 257.05 330.279 262.57 330.169 268.08C330.139 269.38 330.959 270.67 330.219 271.96" stroke="#2071B5" stroke-width="4.20561" stroke-linecap="round" stroke-linejoin="round"/>
<path d="M157.439 404.391C164.979 406.491 172.479 408.741 179.939 411.111C189.199 414.051 198.549 416.681 207.859 419.441C214.299 421.351 220.789 423.091 227.239 424.931C232.529 426.431 237.819 428.001 243.029 429.791C245.089 430.501 247.249 430.741 249.249 431.561C250.849 432.211 251.919 431.171 253.139 430.511" stroke="#2071B5" stroke-width="4.20561" stroke-linecap="round" stroke-linejoin="round"/>
<path d="M334.619 241.181V270.671" stroke="#2071B5" stroke-width="4.20561" stroke-linecap="round" stroke-linejoin="round"/>
<path d="M261.42 390.171V414.491C260.18 414.981 259.03 414.471 258.06 415.001" stroke="#2071B5" stroke-width="4.20561" stroke-linecap="round" stroke-linejoin="round"/>
<path d="M376.529 248.421C377.299 250.741 376.009 252.591 374.919 254.331C374.119 255.611 373.879 256.761 373.899 258.251C373.999 265.921 374.129 273.601 373.899 281.271C373.629 289.981 373.859 298.691 373.599 307.391C373.559 308.661 375.199 309.451 374.209 310.761" stroke="#2071B5" stroke-width="4.20561" stroke-linecap="round" stroke-linejoin="round"/>
<path d="M316 124.27C308.6 128.55 301.37 133.1 294.02 137.47C292.84 138.17 291.92 139.16 291.17 140.31" stroke="#2071B5" stroke-width="4.20561" stroke-linecap="round" stroke-linejoin="round"/>
<path d="M306.169 352.4C308.839 354.75 312.329 355.16 315.499 356.22C321.089 358.08 326.599 360.18 332.299 361.67C333.159 361.9 333.519 362.34 333.839 363.01" stroke="#2071B5" stroke-width="4.20561" stroke-linecap="round" stroke-linejoin="round"/>
<path d="M108.04 186.86C110.54 191.18 114.97 192.66 119.14 194.67C126.94 198.44 135.32 199.64 143.65 200.91C144.42 200.16 144.27 199.31 144.25 198.5C144.1 191.86 144.25 185.22 144.13 178.58C144.07 175.16 143.84 171.68 144.25 168.24" stroke="#2071B5" stroke-width="4.20561" stroke-linecap="round" stroke-linejoin="round"/>
<path d="M367.989 359.131C366.269 356.751 363.359 356.571 360.969 355.901C356.019 354.521 351.209 352.741 346.279 351.321C345.639 351.141 345.049 351.251 344.449 351.111" stroke="#2071B5" stroke-width="4.20561" stroke-linecap="round" stroke-linejoin="round"/>
<path d="M254.439 388.102C254.439 396.812 254.679 405.532 254.329 414.222C254.179 417.942 253.939 421.632 254.179 425.352" stroke="#2071B5" stroke-width="4.20561" stroke-linecap="round" stroke-linejoin="round"/>
<path d="M344.349 299.631C343.899 306.011 344.349 312.401 344.209 318.781C344.199 319.331 344.129 319.831 343.939 320.331" stroke="#2071B5" stroke-width="4.20561" stroke-linecap="round" stroke-linejoin="round"/>
<path d="M344.45 275.32C343.88 277.46 344.28 279.63 344.2 281.79C344 287.05 344.52 292.32 343.93 297.57" stroke="#2071B5" stroke-width="4.20561" stroke-linecap="round" stroke-linejoin="round"/>
<path d="M328.929 284.12C321.619 287.9 314.769 292.49 307.459 296.28" stroke="#2071B5" stroke-width="4.20561" stroke-linecap="round" stroke-linejoin="round"/>
<path d="M334.1 335.331C330.03 338.021 326.02 340.881 321.65 343.011C317.46 345.051 313.66 347.711 309.56 349.871C308.72 350.311 308.01 350.291 307.2 350.331" stroke="#2071B5" stroke-width="4.20561" stroke-linecap="round" stroke-linejoin="round"/>
<path d="M198.57 129.96C194.19 131.65 190.51 134.65 186.18 136.48C183.17 137.75 180.15 139.07 177.36 140.83" stroke="#2071B5" stroke-width="4.20561" stroke-linecap="round" stroke-linejoin="round"/>
<path d="M343.679 330.16C344.169 330.47 344.209 330.92 344.209 331.45C344.189 337.05 344.189 342.66 344.209 348.26C344.209 349.01 344.089 349.7 343.689 350.33" stroke="#2071B5" stroke-width="4.20561" stroke-linecap="round" stroke-linejoin="round"/>
<path d="M290.649 279.461C294.579 281.421 298.879 282.201 303.079 283.301C304.569 283.691 305.989 284.251 307.469 284.621C308.239 284.821 309.019 285.131 309.799 284.621" stroke="#2071B5" stroke-width="4.20561" stroke-linecap="round" stroke-linejoin="round"/>
<path d="M289.359 146.509C289.699 151.249 289.439 155.999 289.709 160.729C289.799 162.359 289.579 163.849 289.359 165.389" stroke="#2071B5" stroke-width="4.20561" stroke-linecap="round" stroke-linejoin="round"/>
<path d="M261.679 338.44C261.359 344.04 261.799 349.65 261.659 355.25C261.379 365.94 261.439 376.63 261.449 387.32C261.449 387.73 261.139 387.98 261.169 388.35" stroke="#2071B5" stroke-width="4.20561" stroke-linecap="round" stroke-linejoin="round"/>
<path d="M273.319 153.751C273.149 153.921 272.999 154.201 272.799 154.251C269.279 155.171 269.399 157.941 269.429 160.731C269.479 165.991 269.439 171.251 269.439 176.511" stroke="#2071B5" stroke-width="4.20561" stroke-linecap="round" stroke-linejoin="round"/>
<path d="M269.439 340.25C274.559 341.98 279.649 343.78 284.719 345.63C285.169 345.79 285.479 346.25 285.989 346.2" stroke="#2071B5" stroke-width="4.20561" stroke-linecap="round" stroke-linejoin="round"/>
<path d="M150.969 95.3018C146.229 99.1918 143.829 107.342 145.799 112.892" stroke="#2071B5" stroke-width="4.20561" stroke-linecap="round" stroke-linejoin="round"/>
<path d="M300.739 401.029C301.339 405.589 300.789 410.169 301.019 414.739C301.069 415.769 298.789 416.579 300.529 417.489C301.539 418.019 303.089 417.749 304.349 417.529C305.129 417.389 305.989 417.079 306.689 416.549" stroke="#2071B5" stroke-width="4.20561" stroke-linecap="round" stroke-linejoin="round"/>
<path d="M229.089 182.72C229.089 186.94 229.079 191.17 229.099 195.39C229.099 196.1 228.749 196.94 229.599 197.46" stroke="#2071B5" stroke-width="4.20561" stroke-linecap="round" stroke-linejoin="round"/>
<path d="M105.45 327.57C105.64 336.11 105.13 344.64 105.26 353.18C105.31 356.76 105.11 360.42 105.21 364.04C105.3 367.4 107.11 370.19 108.55 373.09" stroke="#2071B5" stroke-width="4.20561" stroke-linecap="round" stroke-linejoin="round"/>
<path d="M229.089 169.271C232.749 169.891 236.179 171.261 239.699 172.361C240.779 172.701 241.879 173.101 243.059 172.901" stroke="#2071B5" stroke-width="4.20561" stroke-linecap="round" stroke-linejoin="round"/>
<path d="M333.589 336.371V361.721" stroke="#2071B5" stroke-width="4.20561" stroke-linecap="round" stroke-linejoin="round"/>
<path d="M320.139 286.701C315.669 289.481 310.869 291.731 306.689 294.971C306.159 295.381 305.539 295.551 304.879 295.491C301.549 295.171 298.279 294.731 295.029 293.751C290.089 292.271 285.039 291.131 280.049 289.801" stroke="#2071B5" stroke-width="4.20561" stroke-linecap="round" stroke-linejoin="round"/>
<path d="M334.099 347.75C337.589 348.38 340.909 349.55 344.239 350.7C343.949 355.5 344.559 360.17 343.929 364.82" stroke="#2071B5" stroke-width="4.20561" stroke-linecap="round" stroke-linejoin="round"/>
<path d="M222.879 181.17V194.1" stroke="#2071B5" stroke-width="4.20561" stroke-linecap="round" stroke-linejoin="round"/>
<path d="M273.319 152.72C252.769 145.26 231.759 139.49 210.839 133.39C208.259 132.64 206.179 130.26 203.269 130.79" stroke="#2071B5" stroke-width="4.20561" stroke-linecap="round" stroke-linejoin="round"/>
<path d="M335.139 362.75C342.019 364.88 348.939 366.88 355.829 368.96" stroke="#2071B5" stroke-width="4.20561" stroke-linecap="round" stroke-linejoin="round"/>
<path d="M248.229 195.662C244.489 196.742 240.739 197.802 236.849 198.252" stroke="#2071B5" stroke-width="4.20561" stroke-linecap="round" stroke-linejoin="round"/>
<path d="M168.82 144.18C165.33 145.63 161.85 147.12 158.47 148.84" stroke="#2071B5" stroke-width="4.20561" stroke-linecap="round" stroke-linejoin="round"/>
<path d="M321.95 343.611C325.2 345.081 328.63 345.991 332.04 346.971" stroke="#2071B5" stroke-width="4.20561" stroke-linecap="round" stroke-linejoin="round"/>
<path d="M290.649 127.11C289.299 129.36 289.759 131.94 289.389 134.36C289.199 135.63 289.259 136.96 289.609 138.23" stroke="#2071B5" stroke-width="4.20561" stroke-linecap="round" stroke-linejoin="round"/>
<path d="M262.909 419.142C263.019 424.722 260.399 427.602 255.989 428.712" stroke="#2071B5" stroke-width="4.20561" stroke-linecap="round" stroke-linejoin="round"/>
<path d="M260.649 277.91C257.879 279.39 255.659 281.76 252.629 282.82" stroke="#2071B5" stroke-width="4.20561" stroke-linecap="round" stroke-linejoin="round"/>
<path d="M268.409 185.31C266.159 186.9 263.609 187.95 261.149 189.16C259.689 189.88 258.509 188.11 257.029 188.41" stroke="#2071B5" stroke-width="4.20561" stroke-linecap="round" stroke-linejoin="round"/>
<path d="M313.93 114.951C312.32 114.671 311.33 115.981 310.03 116.451C308.35 117.061 306.97 118.341 305.13 118.571" stroke="#2071B5" stroke-width="4.20561" stroke-linecap="round" stroke-linejoin="round"/>
<path d="M269.699 278.69C269.339 281.18 268.909 283.67 269.439 286.19" stroke="#2071B5" stroke-width="4.20561" stroke-linecap="round" stroke-linejoin="round"/>
<path d="M268.659 340.251C263.889 338.981 259.369 336.821 254.429 336.111" stroke="#2071B5" stroke-width="4.20561" stroke-linecap="round" stroke-linejoin="round"/>
<path d="M343.419 93.2314C342.809 91.5314 341.049 91.3313 339.769 91.0313C338.579 90.7513 337.419 90.2313 336.179 90.1313" stroke="#2071B5" stroke-width="4.20561" stroke-linecap="round" stroke-linejoin="round"/>
<path d="M156.15 96.5908C156.35 100.311 155.3 103.981 155.63 107.711" stroke="#2071B5" stroke-width="4.20561" stroke-linecap="round" stroke-linejoin="round"/>
<path d="M279.53 282.311C279.5 284.641 279.65 286.981 279.27 289.291" stroke="#2071B5" stroke-width="4.20561" stroke-linecap="round" stroke-linejoin="round"/>
<path d="M251.08 412.671C249.03 412.941 247.23 413.871 245.33 414.581C242.77 415.541 239.98 416.361 237.11 416.291" stroke="#2071B5" stroke-width="4.20561" stroke-linecap="round" stroke-linejoin="round"/>
<path d="M300.48 342.57C300.41 344.64 299.29 346.71 300.48 348.78" stroke="#2071B5" stroke-width="4.20561" stroke-linecap="round" stroke-linejoin="round"/>
<path d="M268.409 382.671V389.141" stroke="#2071B5" stroke-width="4.20561" stroke-linecap="round" stroke-linejoin="round"/>
<path d="M361.009 298.6C363.189 299.21 365.329 299.96 367.479 300.67" stroke="#2071B5" stroke-width="4.20561" stroke-linecap="round" stroke-linejoin="round"/>
<path d="M329.449 100.99C329.319 101.5 329.719 102.09 329.189 102.54C327.849 103.7 326.829 105.19 325.309 106.16" stroke="#2071B5" stroke-width="4.20561" stroke-linecap="round" stroke-linejoin="round"/>
<path d="M320.65 90.6401C322.68 91.3301 324.88 91.3001 326.86 92.1901" stroke="#2071B5" stroke-width="4.20561" stroke-linecap="round" stroke-linejoin="round"/>
<path d="M229.089 170.821C229.089 174.271 229.089 177.721 229.089 181.171" stroke="#2071B5" stroke-width="4.20561" stroke-linecap="round" stroke-linejoin="round"/>
<path d="M297.38 122.711C295.33 123.791 293.47 125.231 291.17 125.811" stroke="#2071B5" stroke-width="4.20561" stroke-linecap="round" stroke-linejoin="round"/>
<path d="M333.589 328.871C333.729 330.851 333.279 332.861 333.849 334.821" stroke="#2071B5" stroke-width="4.20561" stroke-linecap="round" stroke-linejoin="round"/>
<path d="M181.5 102.151C184.06 102.951 220.84 113.641 223.4 114.441" stroke="#2071B5" stroke-width="4.20561" stroke-linecap="round" stroke-linejoin="round"/>
<path d="M279.529 336.371C278.549 337.991 279.339 339.871 278.749 341.541" stroke="#2071B5" stroke-width="4.20561" stroke-linecap="round" stroke-linejoin="round"/>
<path d="M368.25 308.43C368.01 310.15 367.72 311.88 368.25 313.6" stroke="#2071B5" stroke-width="4.20561" stroke-linecap="round" stroke-linejoin="round"/>
<path d="M334.619 103.062C334.119 105.822 333.829 108.562 334.579 111.352C334.739 111.962 335.069 113.142 333.579 112.892" stroke="#2071B5" stroke-width="4.20561" stroke-linecap="round" stroke-linejoin="round"/>
<path d="M332.29 97.3711C333.45 97.4211 333.97 97.9711 333.86 99.1811C333.79 99.9511 333.71 100.761 334.1 101.511" stroke="#2071B5" stroke-width="4.20561" stroke-linecap="round" stroke-linejoin="round"/>
<path d="M289.869 285.669C288.849 287.129 289.569 288.779 289.349 290.329" stroke="#2071B5" stroke-width="4.20561" stroke-linecap="round" stroke-linejoin="round"/>
<path d="M284.439 117.541C281.999 119.011 279.249 120.111 277.969 122.971" stroke="#2071B5" stroke-width="4.20561" stroke-linecap="round" stroke-linejoin="round"/>
<path d="M160.289 90.6401C157.069 91.3401 154.259 93.2301 150.979 93.7401" stroke="#2071B5" stroke-width="4.20561" stroke-linecap="round" stroke-linejoin="round"/>
<path d="M330.48 232.901C331.73 232.941 332.89 233.451 334.1 233.681" stroke="#2071B5" stroke-width="4.20561" stroke-linecap="round" stroke-linejoin="round"/>
<path d="M272.54 152.72C273.75 153.87 274.95 152.95 276.16 152.72" stroke="#2071B5" stroke-width="4.20561" stroke-linecap="round" stroke-linejoin="round"/>
<path d="M251.59 188.15C250.86 189 251.11 190.02 251.07 191" stroke="#2071B5" stroke-width="4.20561" stroke-linecap="round" stroke-linejoin="round"/>
<path d="M288.579 114.952C290.279 117.362 289.449 120.102 289.609 122.712" stroke="#2071B5" stroke-width="4.20561" stroke-linecap="round" stroke-linejoin="round"/>
<path d="M299.35 350.635C298.4 350.665 287.329 346.862 286.509 346.452" stroke="#2071B5" stroke-width="4.20561" stroke-linecap="round" stroke-linejoin="round"/>
<path d="M186.67 79.2612C184.97 80.0112 182.96 79.9912 181.5 81.3312" stroke="#2071B5" stroke-width="4.20561" stroke-linecap="round" stroke-linejoin="round"/>
<path d="M289.869 81.8511C291.429 82.5811 293.039 83.0511 294.779 82.8811" stroke="#2071B5" stroke-width="4.20561" stroke-linecap="round" stroke-linejoin="round"/>
<path d="M158.6 450.07C200.69 450.14 243.09 450.02 285.49 449.94C290.52 449.94 295.55 449.92 300.58 449.92C311.84 449.9 323.11 449.89 334.36 449.89" stroke="#2071B5" stroke-width="4.20561" stroke-linecap="round" stroke-linejoin="round"/>
<path d="M156.46 49.9794C165.05 49.9894 173.64 49.9994 182.25 49.9994C193.19 49.9994 204.14 49.9994 215.1 49.9994C218.4 49.9994 221.7 49.9994 225 49.9994C250.13 49.9794 275.31 49.9494 300.5 49.9094C311.7 49.8894 322.9 49.8794 334.1 49.8594" stroke="#2071B5" stroke-width="4.20561" stroke-linecap="round" stroke-linejoin="round"/>
</svg>
