<svg width="500" height="500" viewBox="0 0 500 500" fill="none" xmlns="http://www.w3.org/2000/svg">
<path d="M116 191L197.5 235.5V406L116 358V191Z" fill="#FFDA00" fill-opacity="0.7"/>
<path d="M361 101.321C365.63 103.321 369.68 106.351 374.17 108.621C376.12 109.611 377.9 110.971 379.92 111.851C381.93 112.721 382.61 114.091 382.59 116.271C382.49 125.941 382.55 135.611 382.55 145.291C382.55 150.131 382.86 154.981 382.67 159.801C382.49 164.571 383.2 169.331 382.61 174.101C382.44 175.501 381.94 176.441 381.03 177.411C378.86 179.691 376.64 181.921 375.25 184.851C374.44 186.571 373.97 188.271 373.97 190.151C373.97 217.191 373.98 244.231 373.95 271.271C373.95 272.571 374.17 273.331 375.48 273.971C377.1 274.761 378.7 275.611 380.36 276.291C381.86 276.901 382.39 277.751 382.37 279.401C382.27 286.651 382.39 293.911 382.31 301.161C382.21 310.691 382.72 320.211 382.52 329.741C382.45 333.041 382.45 336.381 380.16 339.211C378.43 341.351 376.66 343.281 374.24 344.751C370.05 347.281 365.88 349.871 361.66 352.361C359.96 353.361 359.56 354.731 359.67 356.561C359.8 358.821 359.67 361.101 359.71 363.371C359.73 364.591 359.38 365.361 358.19 366.051C346.1 373.091 334.05 380.191 321.9 387.131C313.03 392.191 304.3 397.521 295.49 402.681C288.81 406.591 282.05 410.371 275.33 414.221C269.78 417.411 264.31 420.761 258.79 424.021C249.49 429.511 240.21 435.021 230.67 440.101C225.23 443.001 219.64 445.591 214.2 448.481C213.04 449.101 212.21 448.761 211.33 448.211C203.6 443.401 195.65 438.981 187.79 434.381C173.08 425.771 158.37 417.181 143.59 408.681C137.73 405.311 131.98 401.751 126.04 398.511C124.5 397.671 123.72 396.411 123.76 394.361C123.92 385.421 123.91 376.481 123.76 367.541C123.73 365.611 123.72 363.721 124.04 361.821" stroke="#2071B5" stroke-width="4.20561" stroke-linecap="round" stroke-linejoin="round"/>
<path d="M259.66 150.569C256.3 147.989 252.47 146.189 248.88 143.989C243.26 140.529 237.53 137.219 231.69 134.179C223.2 129.759 215.13 124.639 206.93 119.739C198.08 114.449 188.88 109.779 180.09 104.389C178.53 103.429 177.23 103.409 175.67 104.389C161.91 112.989 147.74 120.909 133.69 129.019C130.85 130.659 128.02 132.329 125.11 133.849C124.16 134.349 123.82 135.159 123.82 136.059C123.79 145.069 123.8 154.089 123.8 163.099C123.8 168.299 123.68 173.509 123.89 178.699C123.94 179.839 122.98 180.009 122.83 180.889C122.72 181.559 121.73 182.059 121.17 182.669C117.94 186.149 116.92 190.249 116.93 194.979C117.03 239.019 116.99 283.059 116.99 327.099C116.99 334.209 116.99 341.319 116.99 348.419C116.99 350.179 117.21 351.969 116.94 353.689C116.52 356.329 117.82 357.829 119.85 358.969C132.1 365.809 144.04 373.169 156.1 380.329C165.45 385.889 174.81 391.459 184.08 397.149C190.94 401.359 197.81 405.579 204.72 409.719C206.17 410.589 206.73 411.579 206.72 413.269C206.65 420.969 206.57 428.659 206.33 436.349C206.25 438.809 206.36 441.329 206.47 443.819" stroke="#2071B5" stroke-width="4.20561" stroke-linecap="round" stroke-linejoin="round"/>
<path d="M365.18 193.649C365.09 230.139 365.19 266.629 365.62 303.119" stroke="#2071B5" stroke-width="4.20561" stroke-linecap="round" stroke-linejoin="round"/>
<path d="M301.43 146.169C308.31 149.819 314.94 153.849 321.24 158.449C323.62 160.189 325.69 162.239 327.54 164.459C329 166.209 329.25 168.619 329.76 170.799C331.6 178.709 331.29 186.709 330.73 194.759C330.34 200.359 327.49 204.099 323.23 207.329C318.5 210.909 313.5 213.699 307.6 214.789C303.43 215.559 299.26 215.509 295.06 215.409C289.77 215.289 284.76 214.059 280.11 211.459" stroke="#2071B5" stroke-width="4.20561" stroke-linecap="round" stroke-linejoin="round"/>
<path d="M328.47 295.871C328.61 296.091 328.96 296.171 328.91 296.531C328.89 296.751 328.91 296.971 328.91 297.191C328.62 306.211 329.13 315.221 329.41 324.231C329.6 330.341 328.23 342.251 323.97 346.531C320.1 350.421 305.18 357.701 301.2 360.041C296.08 363.061 254.47 384.521 254.17 384.571" stroke="#2071B5" stroke-width="4.20561" stroke-linecap="round" stroke-linejoin="round"/>
<path d="M381.67 113.631C377.48 114.631 373.16 114.531 368.92 115.161C366.87 115.461 364.82 115.741 362.77 116.071C361.15 116.331 360.4 115.821 360.58 114.301C360.93 111.221 360.88 108.151 360.58 105.061C360.5 104.191 360.51 103.301 360.58 102.421C360.88 98.5408 360.96 98.4208 357.92 96.7308C351.46 93.1408 345.19 89.2208 338.78 85.5408C330.24 80.6308 321.74 75.6408 313.3 70.5608C303.48 64.6508 293.69 58.6808 283.65 53.1408C281.09 51.7308 277.29 50.0608 271.66 48.8008" stroke="#2071B5" stroke-width="4.20561" stroke-linecap="round" stroke-linejoin="round"/>
<path d="M117.65 191.009C127.59 196.539 137.49 202.179 147.56 207.469C157.55 212.709 167.3 218.399 177.21 223.779C184.16 227.549 190.88 231.729 197.88 235.409" stroke="#2071B5" stroke-width="4.20561" stroke-linecap="round" stroke-linejoin="round"/>
<path d="M171.95 123.089C168.24 123.659 164.77 124.599 161.8 127.219C157.52 130.989 159.59 136.529 163.39 138.459C170.23 141.929 177.43 143.099 184.91 141.059C187.7 140.299 190.42 139.099 192.19 136.499C193.98 133.879 194.02 131.649 191.94 129.259C188.77 125.599 184.58 123.869 179.88 123.039C177.27 122.579 174.74 122.579 172.18 123.089" fill="#FFDA00" fill-opacity="0.7"/>
<path d="M171.95 123.089C168.24 123.659 164.77 124.599 161.8 127.219C157.52 130.989 159.59 136.529 163.39 138.459C170.23 141.929 177.43 143.099 184.91 141.059C187.7 140.299 190.42 139.099 192.19 136.499C193.98 133.879 194.02 131.649 191.94 129.259C188.77 125.599 184.58 123.869 179.88 123.039C177.27 122.579 174.74 122.579 172.18 123.089" stroke="#2071B5" stroke-width="4.20561" stroke-linecap="round" stroke-linejoin="round"/>
<path d="M303.63 193.21C303.23 191.69 303.42 190.13 303.42 188.59C303.39 179.35 298.81 172.78 291.31 167.94C290.25 167.26 288.88 167.13 287.82 167.74C278.51 173.08 269.01 178.1 259.89 183.76C257.09 185.5 255.61 188.2 254.61 191.23" stroke="#2071B5" stroke-width="4.20561" stroke-linecap="round" stroke-linejoin="round"/>
<path d="M226.25 224.429C222.52 226.259 219.33 228.929 215.9 231.209C213.49 232.809 213.39 235.359 213.37 237.619C213.29 245.089 213.37 252.569 213.42 260.039C213.48 270.289 213.06 280.549 213.08 290.819C213.08 292.949 212.85 295.069 212.85 297.199C212.85 326.879 212.85 356.549 212.85 386.229C212.85 387.809 212.65 389.469 214.39 390.409" stroke="#2071B5" stroke-width="4.20561" stroke-linecap="round" stroke-linejoin="round"/>
<path d="M124.91 195.189C124.54 195.969 124.69 196.799 124.7 197.609C124.85 226.479 124.46 255.349 124.88 284.219C125.02 294.039 125.04 303.859 124.9 313.679C124.71 327.159 124.7 340.649 124.7 354.129" stroke="#2071B5" stroke-width="4.20561" stroke-linecap="round" stroke-linejoin="round"/>
<path d="M253.95 320.931C254.46 324.731 254.24 328.561 254.11 332.361C253.94 337.421 253.53 342.461 253.92 347.531C254.08 349.581 253.72 351.631 253.72 353.681C253.72 363.211 253.24 372.761 253.87 382.251C254.4 390.321 253.95 398.391 254.6 406.441" stroke="#2071B5" stroke-width="4.20561" stroke-linecap="round" stroke-linejoin="round"/>
<path d="M253.89 320.78C253.87 295.57 253.95 266.78 253.95 241.57C253.95 240.69 254.04 239.79 253.71 238.95C254.37 238.18 255.33 238.01 256.16 237.63C259.75 235.99 262.96 238.19 262.96 242.22C262.96 264.94 262.95 287.65 262.98 310.37C262.98 312.82 262.08 332.34 260.13 333.85C254.52 338.18 245.75 342.72 239.69 346.34" stroke="#2071B5" stroke-width="4.20561" stroke-linecap="round" stroke-linejoin="round"/>
<path d="M131.72 233.221V286.421" stroke="#2071B5" stroke-width="4.20561" stroke-linecap="round" stroke-linejoin="round"/>
<path d="M127.11 133.641C136.08 138.991 145.16 144.151 154.18 149.421C167.81 157.391 181.57 165.121 195.26 172.991C199.44 175.391 203.56 177.931 207.79 180.241" stroke="#2071B5" stroke-width="4.20561" stroke-linecap="round" stroke-linejoin="round"/>
<path d="M236.58 247.509C236.58 243.549 236.58 239.599 236.58 235.639C236.58 232.979 235.35 231.339 233.28 231.239C231.2 231.139 229.2 233.179 229.12 235.639C229.05 237.689 229.05 239.749 229.32 241.799C229.68 244.579 229.62 247.359 229.34 250.149C229.15 252.009 230.46 254.079 231.96 254.539C233.22 254.929 235.68 253.929 236.32 252.539C236.88 251.319 236.52 249.919 236.58 248.599C236.59 248.299 236.43 247.939 236.8 247.719" stroke="#2071B5" stroke-width="4.20561" stroke-linecap="round" stroke-linejoin="round"/>
<path d="M214.6 340.061C214.97 340.841 214.81 341.671 214.81 342.481C214.81 356.991 214.81 371.501 214.81 386.011C214.81 387.401 214.93 388.811 214.78 390.181C214.62 391.691 215.49 392.411 216.58 393.031C217.42 393.511 218.25 393.711 219.22 393.061C223.8 390.021 228.79 387.671 233.34 384.561C234.25 383.941 234.38 383.541 234.38 382.711C234.38 377.801 234.38 372.891 234.38 367.981" stroke="#2071B5" stroke-width="4.20561" stroke-linecap="round" stroke-linejoin="round"/>
<path d="M302.97 323.79C297.85 326.33 293.01 329.36 288.04 332.17C277.27 338.25 266.56 344.45 255.74 350.44C255.18 350.75 254.72 350.79 254.18 350.84" stroke="#2071B5" stroke-width="4.20561" stroke-linecap="round" stroke-linejoin="round"/>
<path d="M344.08 222.67V271.47" stroke="#2071B5" stroke-width="4.20561" stroke-linecap="round" stroke-linejoin="round"/>
<path d="M376.61 275.87C376.61 285.4 376.56 294.92 376.64 304.45C376.67 307.76 376.31 311.06 377.42 314.37C378.48 317.52 377.86 320.94 377.94 324.24" stroke="#2071B5" stroke-width="4.20561" stroke-linecap="round" stroke-linejoin="round"/>
<path d="M271.53 48.8009C266.44 48.7809 263.35 51.4609 260.79 53.0009C249.54 59.7909 238.16 66.3509 226.7 72.7609C226.08 73.1109 225.43 73.8609 224.91 73.9809C221.35 74.8009 221.28 77.3209 221.37 80.2209C221.51 84.9109 221.41 89.6009 221.41 94.2909" stroke="#2071B5" stroke-width="4.20561" stroke-linecap="round" stroke-linejoin="round"/>
<path d="M368.26 312.8C371.12 313.86 372.45 316.1 372.87 318.96C374.12 327.4 369.7 336.4 361.86 340.22C358.69 341.76 354.03 341.76 352.02 338.51C350.87 336.65 350.78 334.52 350.89 332.37C351.27 324.95 354.35 318.94 360.38 314.6C362.6 313 365.19 312.1 368.05 312.8" fill="#FFDA00" fill-opacity="0.7"/>
<path d="M368.26 312.8C371.12 313.86 372.45 316.1 372.87 318.96C374.12 327.4 369.7 336.4 361.86 340.22C358.69 341.76 354.03 341.76 352.02 338.51C350.87 336.65 350.78 334.52 350.89 332.37C351.27 324.95 354.35 318.94 360.38 314.6C362.6 313 365.19 312.1 368.05 312.8" stroke="#2071B5" stroke-width="4.20561" stroke-linecap="round" stroke-linejoin="round"/>
<path d="M260.1 170.789C260.15 170.349 260.36 169.979 260.37 169.469C260.43 163.609 260.06 157.739 260.51 151.879C260.54 151.469 260.34 150.969 260.12 150.589C252.45 155.119 244.61 159.319 236.99 163.929C230.03 168.149 222.91 172.119 215.92 176.299C213.3 177.869 210.43 179.019 207.99 180.899" stroke="#2071B5" stroke-width="4.20561" stroke-linecap="round" stroke-linejoin="round"/>
<path d="M206.46 234.099V272.789C206.46 281.879 206.32 290.969 206.51 300.049C206.64 306.429 206.81 312.809 206.64 319.169C206.38 329.279 206.59 342.029 206.46 352.149" stroke="#2071B5" stroke-width="4.20561" stroke-linecap="round" stroke-linejoin="round"/>
<path d="M271.13 266.859C271.08 280.999 271.1 295.139 271.07 309.289" stroke="#2071B5" stroke-width="4.20561" stroke-linecap="round" stroke-linejoin="round"/>
<path d="M358.36 97.8095C349.54 98.0495 342.8 103.41 335.53 107.32C325.33 112.81 315.32 118.66 305.47 124.71C302.78 122.45 299.66 121.12 296.79 119.38C288.58 114.42 280.27 109.64 271.94 104.89C263.49 100.08 255.08 95.2295 246.68 90.3395C239.02 85.8795 231.24 81.6495 223.59 77.1695C223.02 76.8395 222.74 76.1796 222.07 76.0396" stroke="#2071B5" stroke-width="4.20561" stroke-linecap="round" stroke-linejoin="round"/>
<path d="M372.21 128.14C375.27 131 375.66 134.77 374.99 138.46C373.53 146.57 369.19 152.79 361.65 156.49C356.37 159.08 351.39 155.62 351.34 149.68C351.28 143.01 353.53 137.2 358.13 132.31C360.27 130.03 362.59 128.02 365.62 127.06C367.89 126.34 370.06 126.67 371.99 128.14" fill="#FFDA00" fill-opacity="0.7"/>
<path d="M372.21 128.14C375.27 131 375.66 134.77 374.99 138.46C373.53 146.57 369.19 152.79 361.65 156.49C356.37 159.08 351.39 155.62 351.34 149.68C351.28 143.01 353.53 137.2 358.13 132.31C360.27 130.03 362.59 128.02 365.62 127.06C367.89 126.34 370.06 126.67 371.99 128.14" stroke="#2071B5" stroke-width="4.20561" stroke-linecap="round" stroke-linejoin="round"/>
<path d="M206.68 180.24C206.68 187.64 206.87 195.05 206.62 202.44C206.41 208.67 206.71 214.91 206.24 221.13C206.07 223.36 204.71 225.07 203.56 226.82C202.59 228.31 201.6 229.84 200.48 231.21C198.59 233.51 197.97 236 198.05 238.94C198.22 245.02 198.2 251.1 198.08 257.18C197.79 271.91 197.77 286.64 197.92 301.37C198.05 313.97 197.92 326.58 198.15 339.18C198.27 346 198.31 352.81 198.28 359.62C198.25 365.7 198.23 371.79 198.17 377.87C198.09 386.59 197.75 395.31 198.29 404.03C198.32 404.44 198.01 404.88 198.09 405.35" stroke="#2071B5" stroke-width="4.20561" stroke-linecap="round" stroke-linejoin="round"/>
<path d="M132.16 293.891V332.581" stroke="#2071B5" stroke-width="4.20561" stroke-linecap="round" stroke-linejoin="round"/>
<path d="M317.04 189.7C316.89 186.77 317.13 183.84 316.84 180.9C316.24 174.71 314.19 169.09 310.66 163.97C308.42 160.72 305.25 159.18 301.43 159.66C299.01 159.96 296.7 161.07 294.6 162.44C293.83 162.94 293.12 163.56 292.18 163.76" stroke="#2071B5" stroke-width="4.20561" stroke-linecap="round" stroke-linejoin="round"/>
<path d="M271.31 194.97C270.84 195.66 271.11 196.44 271.11 197.17C271.09 219.3 271.16 244.6 271.14 266.73" stroke="#2071B5" stroke-width="4.20561" stroke-linecap="round" stroke-linejoin="round"/>
<path d="M284.72 271.911C296.88 278.301 309.05 277.561 321.21 271.911" stroke="#2071B5" stroke-width="4.20561" stroke-linecap="round" stroke-linejoin="round"/>
<path d="M353.92 227.069C355.38 230.539 356.18 234.199 356.97 237.849C357.17 238.759 356.96 239.749 357.01 240.699C357.38 248.419 356.62 255.959 353.49 263.119" stroke="#2071B5" stroke-width="4.20561" stroke-linecap="round" stroke-linejoin="round"/>
<path d="M323.85 253.89C318.31 257.79 312.18 259.74 305.39 260.1C299.23 260.43 293.44 259.29 287.8 256.96" stroke="#2071B5" stroke-width="4.20561" stroke-linecap="round" stroke-linejoin="round"/>
<path d="M227.56 149.749C222.5 146.799 217.39 146.349 212.19 147.109C208.31 147.669 204.42 148.289 201.16 150.979C196.86 154.529 197.81 159.739 202.51 161.989C205.14 163.249 207.96 163.799 210.85 164.269C215.43 165.029 219.86 164.489 224.26 163.489C227.3 162.799 230.25 161.639 231.96 158.699C232.77 157.299 232.75 155.659 232.12 154.339C231.14 152.279 229.66 150.499 227.35 149.689" fill="#FFDA00" fill-opacity="0.7"/>
<path d="M227.56 149.749C222.5 146.799 217.39 146.349 212.19 147.109C208.31 147.669 204.42 148.289 201.16 150.979C196.86 154.529 197.81 159.739 202.51 161.989C205.14 163.249 207.96 163.799 210.85 164.269C215.43 165.029 219.86 164.489 224.26 163.489C227.3 162.799 230.25 161.639 231.96 158.699C232.77 157.299 232.75 155.659 232.12 154.339C231.14 152.279 229.66 150.499 227.35 149.689" stroke="#2071B5" stroke-width="4.20561" stroke-linecap="round" stroke-linejoin="round"/>
<path d="M304.73 124.85C298.6 128.95 292.18 132.57 285.79 136.22C277.3 141.07 268.94 146.16 260.33 150.79" stroke="#2071B5" stroke-width="4.20561" stroke-linecap="round" stroke-linejoin="round"/>
<path d="M321.21 294.331C310.51 300.161 299.37 301.161 287.8 297.411" stroke="#2071B5" stroke-width="4.20561" stroke-linecap="round" stroke-linejoin="round"/>
<path d="M236.8 403.81C239.85 405.66 240.11 408.77 239.81 411.72C239.04 419.42 235.18 425.48 228.62 429.46C224.23 432.12 220.8 431.53 218.42 427.51C217.22 425.48 217.49 422.92 217.88 420.52C219.37 411.37 225.41 406.32 233.52 403.21C234.44 402.86 235.69 402.94 236.58 403.82" fill="#FFDA00" fill-opacity="0.7"/>
<path d="M236.8 403.81C239.85 405.66 240.11 408.77 239.81 411.72C239.04 419.42 235.18 425.48 228.62 429.46C224.23 432.12 220.8 431.53 218.42 427.51C217.22 425.48 217.49 422.92 217.88 420.52C219.37 411.37 225.41 406.32 233.52 403.21C234.44 402.86 235.69 402.94 236.58 403.82" stroke="#2071B5" stroke-width="4.20561" stroke-linecap="round" stroke-linejoin="round"/>
<path d="M319.89 264.441C316.19 265.591 312.62 267.051 308.7 267.631C305 268.171 301.33 268.101 297.7 267.851C294.27 267.611 290.96 266.341 287.8 264.881" stroke="#2071B5" stroke-width="4.20561" stroke-linecap="round" stroke-linejoin="round"/>
<path d="M234.82 276.751C232.95 276.041 231.67 277.191 230.18 278.031C225.49 280.701 224.01 290.031 225.52 293.701C227.19 297.771 231.96 298.731 235.49 296.551C239.48 294.081 242.53 290.811 243.54 286.191C244.21 283.111 244.15 279.881 241.19 277.641C239.32 276.221 237.19 276.361 235.04 276.761" fill="#FFDA00" fill-opacity="0.7"/>
<path d="M234.82 276.751C232.95 276.041 231.67 277.191 230.18 278.031C225.49 280.701 224.01 290.031 225.52 293.701C227.19 297.771 231.96 298.731 235.49 296.551C239.48 294.081 242.53 290.811 243.54 286.191C244.21 283.111 244.15 279.881 241.19 277.641C239.32 276.221 237.19 276.361 235.04 276.761" stroke="#2071B5" stroke-width="4.20561" stroke-linecap="round" stroke-linejoin="round"/>
<path d="M356.83 176.95V206.85" stroke="#2071B5" stroke-width="4.20561" stroke-linecap="round" stroke-linejoin="round"/>
<path d="M320.33 280.26C315.29 282.82 309.9 284.02 304.28 284.46C299.88 284.8 295.6 284.06 291.31 283.34" stroke="#2071B5" stroke-width="4.20561" stroke-linecap="round" stroke-linejoin="round"/>
<path d="M238.2 86.1792C228.11 91.0992 209.67 101.589 199.89 107.069C197.48 108.419 194.82 109.389 192.84 111.439" stroke="#2071B5" stroke-width="4.20561" stroke-linecap="round" stroke-linejoin="round"/>
<path d="M357.27 276.75V305.33" stroke="#2071B5" stroke-width="4.20561" stroke-linecap="round" stroke-linejoin="round"/>
<path d="M206.46 352.149C206.46 360.869 206.46 369.589 206.44 378.309C206.44 379.039 206.59 378.339 206.54 380.459" stroke="#2071B5" stroke-width="4.20561" stroke-linecap="round" stroke-linejoin="round"/>
<path d="M318.58 249.051C313.42 251.071 308.1 252.281 302.53 252.121C298.4 252.001 294.37 251.221 290.44 249.931" stroke="#2071B5" stroke-width="4.20561" stroke-linecap="round" stroke-linejoin="round"/>
<path d="M271.53 49.0107C271.53 62.2007 271.59 78.6907 271.57 91.8807" stroke="#2071B5" stroke-width="4.20561" stroke-linecap="round" stroke-linejoin="round"/>
<path d="M309.56 189.48C309.56 187.57 309.72 185.65 309.53 183.77C308.74 175.79 305.7 169.03 298.8 164.4C298.23 164.02 297.7 163.74 297.03 163.76" stroke="#2071B5" stroke-width="4.20561" stroke-linecap="round" stroke-linejoin="round"/>
<path d="M318.14 289.06C314.98 290.19 311.84 291.26 308.47 291.73C302.6 292.55 296.81 292.59 291.1 290.82C290.9 290.76 290.66 290.82 290.44 290.82" stroke="#2071B5" stroke-width="4.20561" stroke-linecap="round" stroke-linejoin="round"/>
<path d="M346.27 168.589V195.409" stroke="#2071B5" stroke-width="4.20561" stroke-linecap="round" stroke-linejoin="round"/>
<path d="M128.64 365.561C128.64 373.841 128.68 384.981 128.64 393.261" stroke="#2071B5" stroke-width="4.20561" stroke-linecap="round" stroke-linejoin="round"/>
<path d="M315.06 242.009C311.58 242.779 308.09 243.469 304.51 243.549C299.71 243.659 295.02 243.009 290.44 241.569" stroke="#2071B5" stroke-width="4.20561" stroke-linecap="round" stroke-linejoin="round"/>
<path d="M279.89 210.801C279.17 211.801 279.23 212.951 279.23 214.101C279.23 219.231 278.99 224.371 279.31 229.481C279.57 233.661 279.45 237.881 279.44 242.011C279.43 247.561 279.38 253.151 279.28 258.721C279.13 266.631 279.24 274.551 279.24 282.461C279.24 287.221 279.43 292.001 279.18 296.751C279 300.131 280.56 302.141 283.19 303.811C286.43 305.871 290.01 306.761 293.75 307.341C300.25 308.351 306.65 307.841 312.86 305.941C318.53 304.211 323.79 301.651 327.42 296.571C329.19 294.081 329.06 291.341 328.87 288.641C328.66 285.631 328.81 282.611 328.82 279.621C328.85 272.071 328.84 264.531 328.78 256.981C328.75 252.081 328.99 247.161 329.13 242.251C329.24 238.151 328.74 234.041 328.96 229.941C329.3 223.561 328.58 217.191 329.12 210.811C329.24 209.441 329.25 208.031 328.99 206.621C328.87 205.951 327.85 204.211 328.63 201.651" stroke="#2071B5" stroke-width="4.20561" stroke-linecap="round" stroke-linejoin="round"/>
<path d="M317.04 197.829C311.01 202.249 304.64 205.569 296.81 205.349C289.18 205.139 287.32 205.899 280.32 210.579" stroke="#2071B5" stroke-width="4.20561" stroke-linecap="round" stroke-linejoin="round"/>
<path d="M317.26 233.221C309.48 235.991 301.56 236.371 293.52 234.541" stroke="#2071B5" stroke-width="4.20561" stroke-linecap="round" stroke-linejoin="round"/>
<path d="M279.01 317.49C275.18 319.91 265.76 324.69 261.83 326.93" stroke="#2071B5" stroke-width="4.20561" stroke-linecap="round" stroke-linejoin="round"/>
<path d="M376.17 152.759C376.17 160.009 376.18 167.269 376.14 174.519C376.14 175.079 376.75 176.209 375.29 176.059" stroke="#2071B5" stroke-width="4.20561" stroke-linecap="round" stroke-linejoin="round"/>
<path d="M224.49 187.5V221.35" stroke="#2071B5" stroke-width="4.20561" stroke-linecap="round" stroke-linejoin="round"/>
<path d="M234.6 335.22C237.72 335.17 239.58 336.95 239.63 340.5C239.73 348.12 239.71 355.74 239.63 363.36C239.6 366.04 237.32 367.81 234.38 367.76C231.94 367.71 229.99 365.69 229.99 363.14C229.98 355.74 229.99 348.34 229.99 340.94C229.99 338.23 231.71 336.01 234.38 335.22" stroke="#2071B5" stroke-width="4.20561" stroke-linecap="round" stroke-linejoin="round"/>
<path d="M311.1 227.07C307.82 227.64 304.51 227.46 301.21 227.54C297.76 227.63 294.56 226.66 291.32 225.75" stroke="#2071B5" stroke-width="4.20561" stroke-linecap="round" stroke-linejoin="round"/>
<path d="M153.05 150.13C152.9 163.61 153.3 177.1 153.22 190.58C153.21 192.3 153.84 193.28 155.25 193.86C158.23 195.1 160.99 196.74 163.82 198.26C164.97 198.88 166.01 199.38 167.39 198.34C168.19 197.74 168.21 197.22 168.21 196.5C168.21 192.84 168.21 189.17 168.21 185.51" stroke="#2071B5" stroke-width="4.20561" stroke-linecap="round" stroke-linejoin="round"/>
<path d="M206.55 380.46C206.55 381.79 206.47 382.56 206.47 383.37C206.47 391.5 206.47 399.64 206.45 407.77C206.45 408.5 206.71 409.27 206.25 409.97" stroke="#2071B5" stroke-width="4.20561" stroke-linecap="round" stroke-linejoin="round"/>
<path d="M305.17 358.079C305.66 358.689 305.37 359.399 305.37 360.059C305.39 371.709 305.39 383.359 305.39 395.009" stroke="#2071B5" stroke-width="4.20561" stroke-linecap="round" stroke-linejoin="round"/>
<path d="M261.53 382.701C262.38 388.541 261.62 394.441 262.19 400.291" stroke="#2071B5" stroke-width="4.20561" stroke-linecap="round" stroke-linejoin="round"/>
<path d="M253.95 164.199C253.95 173.429 253.98 182.669 253.95 191.899C253.91 202.529 254.36 213.149 254.16 223.769C254.16 224.119 254.42 224.329 254.4 224.649" stroke="#2071B5" stroke-width="4.20561" stroke-linecap="round" stroke-linejoin="round"/>
<path d="M171.07 389.521C170.55 393.541 170.99 397.581 170.86 401.611C170.69 406.441 171.14 411.291 170.63 416.121" stroke="#2071B5" stroke-width="4.20561" stroke-linecap="round" stroke-linejoin="round"/>
<path d="M253.51 238.94C249.54 241.33 245.31 243.2 241.19 245.3C239.75 246.04 238.41 246.92 237.02 247.73" stroke="#2071B5" stroke-width="4.20561" stroke-linecap="round" stroke-linejoin="round"/>
<path d="M305.83 124.85C306.34 127.4 306.04 129.98 306.02 132.54C305.99 137.82 306.32 143.1 305.83 148.37" stroke="#2071B5" stroke-width="4.20561" stroke-linecap="round" stroke-linejoin="round"/>
<path d="M270.65 215.85C265.01 218.88 259.6 222.31 253.98 225.18C254.52 229.61 253.78 233.97 254.39 238.27" stroke="#2071B5" stroke-width="4.20561" stroke-linecap="round" stroke-linejoin="round"/>
<path d="M131.32 144.629C131.25 149.899 131.28 155.179 131.28 160.459C131.28 167.129 131.28 173.799 131.28 180.459" stroke="#2071B5" stroke-width="4.20561" stroke-linecap="round" stroke-linejoin="round"/>
<path d="M295.05 307.959C293.76 309.309 292.02 309.929 290.44 310.829C286.9 312.839 283.15 314.499 279.8 316.949" stroke="#2071B5" stroke-width="4.20561" stroke-linecap="round" stroke-linejoin="round"/>
<path d="M347.59 282.459C347.19 282.499 346.9 282.729 346.94 283.119C347.43 287.949 346.98 292.799 347.18 297.629C347.21 298.439 347.55 322.299 346.65 322.189" stroke="#2071B5" stroke-width="4.20561" stroke-linecap="round" stroke-linejoin="round"/>
<path d="M303.49 307.959C303.35 313.059 303.3 319.779 303.3 323.439" stroke="#2071B5" stroke-width="4.20561" stroke-linecap="round" stroke-linejoin="round"/>
<path d="M215.72 194.22C215.72 200.74 215.74 207.26 215.69 213.78" stroke="#2071B5" stroke-width="4.20561" stroke-linecap="round" stroke-linejoin="round"/>
<path d="M131.72 207.28V220.47" stroke="#2071B5" stroke-width="4.20561" stroke-linecap="round" stroke-linejoin="round"/>
<path d="M275.49 197.389C272.15 194.799 265.05 190.119 261.43 187.929C260.2 187.179 258.92 186.709 257.47 186.839" stroke="#2071B5" stroke-width="4.20561" stroke-linecap="round" stroke-linejoin="round"/>
<path d="M346.27 196.289V218.709" stroke="#2071B5" stroke-width="4.20561" stroke-linecap="round" stroke-linejoin="round"/>
<path d="M271.09 180.899C270.96 185.219 271.36 189.549 270.87 193.869" stroke="#2071B5" stroke-width="4.20561" stroke-linecap="round" stroke-linejoin="round"/>
<path d="M275.49 197.391C279.28 200.761 283.54 203.391 288.24 205.301" stroke="#2071B5" stroke-width="4.20561" stroke-linecap="round" stroke-linejoin="round"/>
<path d="M355.51 98.4707V118.471" stroke="#2071B5" stroke-width="4.20561" stroke-linecap="round" stroke-linejoin="round"/>
<path d="M316.82 304.891C317.31 308.331 317.16 311.791 316.97 315.221C316.78 318.671 317.15 322.141 316.63 325.561C315.76 331.281 253.93 362.061 253.63 362.841" stroke="#2071B5" stroke-width="4.20561" stroke-linecap="round" stroke-linejoin="round"/>
<path d="M319.46 125.511V137.381" stroke="#2071B5" stroke-width="4.20561" stroke-linecap="round" stroke-linejoin="round"/>
<path d="M271.57 91.8701C271.48 95.6001 271.53 99.3401 271.53 103.08" stroke="#2071B5" stroke-width="4.20561" stroke-linecap="round" stroke-linejoin="round"/>
<path d="M254.39 407.77V424.92" stroke="#2071B5" stroke-width="4.20561" stroke-linecap="round" stroke-linejoin="round"/>
<path d="M303.19 193.871C300.59 195.581 297.59 196.021 294.61 196.471C293.62 196.621 292.78 197.241 291.76 197.171" stroke="#2071B5" stroke-width="4.20561" stroke-linecap="round" stroke-linejoin="round"/>
<path d="M179.64 165.509C179.56 171.079 179.89 176.649 179.42 182.219" stroke="#2071B5" stroke-width="4.20561" stroke-linecap="round" stroke-linejoin="round"/>
<path d="M243.39 169.03C242.35 170.29 243 171.83 242.82 173.22C242.56 175.23 242.52 177.32 242.94 179.37C243 179.67 243.02 180.05 242.51 180.03" stroke="#2071B5" stroke-width="4.20561" stroke-linecap="round" stroke-linejoin="round"/>
<path d="M343.64 326.87C343 330.39 343.1 333.9 343.64 337.42" stroke="#2071B5" stroke-width="4.20561" stroke-linecap="round" stroke-linejoin="round"/>
<path d="M316.6 185.52C312.3 187.88 308.25 190.66 304.05 193.17C303.7 193.38 303.44 193.78 303.46 193.86C303.9 197.23 302.92 200.62 303.66 203.97C303.7 204.16 303.93 204.27 303.86 204.41" stroke="#2071B5" stroke-width="4.20561" stroke-linecap="round" stroke-linejoin="round"/>
<path d="M344.08 140.449C344.12 143.819 343.34 147.189 344.08 150.559" stroke="#2071B5" stroke-width="4.20561" stroke-linecap="round" stroke-linejoin="round"/>
<path d="M262.3 400.879C262.3 406.739 262.3 414.649 262.3 420.509" stroke="#2071B5" stroke-width="4.20561" stroke-linecap="round" stroke-linejoin="round"/>
<path d="M309.34 191.45C309.75 194.53 309.14 197.61 309.34 200.68C309.36 200.99 309.21 201.14 308.9 201.12" stroke="#2071B5" stroke-width="4.20561" stroke-linecap="round" stroke-linejoin="round"/>
<path d="M231.02 153.199C231.48 165.509 207.06 162.449 200.38 160.529" stroke="#2071B5" stroke-width="4.20561" stroke-linecap="round" stroke-linejoin="round"/>
<path d="M191.78 129.49C192.24 141.8 167.82 138.74 161.14 136.82" stroke="#2071B5" stroke-width="4.20561" stroke-linecap="round" stroke-linejoin="round"/>
<path d="M215.7 213.66V223.11" stroke="#2071B5" stroke-width="4.20561" stroke-linecap="round" stroke-linejoin="round"/>
<path d="M178.33 106.601C179.37 108.441 178.59 110.421 178.72 112.321C178.92 115.241 178.77 118.181 178.77 121.111" stroke="#2071B5" stroke-width="4.20561" stroke-linecap="round" stroke-linejoin="round"/>
<path d="M124.25 179.14C127.41 180.8 130.74 182.15 133.7 184.2" stroke="#2071B5" stroke-width="4.20561" stroke-linecap="round" stroke-linejoin="round"/>
<path d="M350.67 161.119C353.47 163.169 356.67 163.119 359.9 162.879" stroke="#2071B5" stroke-width="4.20561" stroke-linecap="round" stroke-linejoin="round"/>
<path d="M179.64 183.539C179.64 189.259 179.64 194.969 179.64 200.689" stroke="#2071B5" stroke-width="4.20561" stroke-linecap="round" stroke-linejoin="round"/>
<path d="M187.12 195.851C189.8 197.511 192.67 198.831 195.47 200.251" stroke="#2071B5" stroke-width="4.20561" stroke-linecap="round" stroke-linejoin="round"/>
<path d="M189.32 180.021V188.37" stroke="#2071B5" stroke-width="4.20561" stroke-linecap="round" stroke-linejoin="round"/>
<path d="M131.5 137.159C131.25 139.269 131.25 142.049 131.32 144.629" stroke="#2071B5" stroke-width="4.20561" stroke-linecap="round" stroke-linejoin="round"/>
<path d="M170.63 416.12C170.46 418.01 170.85 420.81 170.85 422.71" stroke="#2071B5" stroke-width="4.20561" stroke-linecap="round" stroke-linejoin="round"/>
<path d="M177.89 385.781C179.78 386.831 181.61 388.011 183.61 388.861" stroke="#2071B5" stroke-width="4.20561" stroke-linecap="round" stroke-linejoin="round"/>
<path d="M136.56 185.741C138.56 186.601 140.31 187.901 142.28 188.821" stroke="#2071B5" stroke-width="4.20561" stroke-linecap="round" stroke-linejoin="round"/>
<path d="M376.17 176.29C376.29 178.12 375.91 179.97 376.39 181.79" stroke="#2071B5" stroke-width="4.20561" stroke-linecap="round" stroke-linejoin="round"/>
<path d="M321.65 182.661C320.05 183.191 318.95 184.861 317.03 184.641" stroke="#2071B5" stroke-width="4.20561" stroke-linecap="round" stroke-linejoin="round"/>
<path d="M271.07 309.08C271.13 310.47 271.1 315 271.1 316.32" stroke="#2071B5" stroke-width="4.20561" stroke-linecap="round" stroke-linejoin="round"/>
<path d="M128.64 393.039V395.459" stroke="#2071B5" stroke-width="4.20561" stroke-linecap="round" stroke-linejoin="round"/>
</svg>
