<?xml version="1.0" encoding="UTF-8"?>
<svg id="icons" xmlns="http://www.w3.org/2000/svg" viewBox="0 0 500 500">
  <defs>
    <style>
      .cls-1 {
        fill: none;
        stroke: #000;
        stroke-linecap: round;
        stroke-linejoin: round;
        stroke-width: .94px;
      }
    </style>
  </defs>
  <path class="cls-1" d="M102.27,365.77c5.53,13.08,12.84,25.02,22.9,35.13,4.27,4.28,8.84,8.24,14.38,10.85,1.22.58,1.79,1.82,3.04,2.42,6.94,3.38,12.38,2.18,18.42-3.12.92-.8,1.79-1.67,2.59-2.59,3.34-3.84,8.26-5.45,12.1-8.65,8.19-6.82,16.52-13.4,24.1-20.97,7.73-7.72,14.93-15.91,22.27-23.96,12.57-13.79,25.13-27.59,37.32-41.72,4.33-5.02,8.89-9.82,13.45-14.62,10.86-11.42,21.26-23.25,31.85-34.91,6.55-7.21,13.23-14.28,20.04-21.24,11.74-12,24.37-23.02,37.23-33.78,8.93-7.47,17.5-15.36,26.26-23.03,7.46-6.54,14.81-13.19,21.41-20.59,7.65-8.59,14.03-18.08,19.4-28.27,7.14-13.57,12.46-27.88,17.67-42.24,1.08-2.97,2.14-5.94,3.07-8.96.49-1.58.19-2.74-1.41-3.56-2.63-1.35-5.48-1.96-8.25-2.87-1.7-.56-3,.39-4.23.86-15.55,5.87-31.33,11.09-46.98,16.66-12.49,4.45-25,8.84-37.53,13.17-15.86,5.49-31.75,10.91-47.65,16.31-12.58,4.27-25.21,8.36-37.78,12.65-8.94,3.05-17.87,6.16-26.87,9.05-15.01,4.83-29.9,10-44.82,15.11-11.67,4-23.29,8.13-34.93,12.24-8.38,2.96-16.73,6.02-24.95,9.35-7.71,3.12-15.17,6.9-22.5,10.91-3.41,1.86-6.68,4.11-10.56,5.08-.82.2-1.98.73-1.9,2.06"/>
  <path class="cls-1" d="M449.07,83.37c-4.48,2.54-9.42,3.98-14.14,5.94-8.7,3.61-17.5,6.99-26.21,10.56-11.78,4.83-23.6,9.59-35.42,14.32-9.87,3.95-19.75,7.89-29.66,11.74-8.68,3.37-17.3,6.94-26.01,10.22-11.58,4.36-23.1,8.87-34.64,13.32-13.04,5.03-26,10.26-38.96,15.49-13.9,5.61-27.67,11.51-41.49,17.31-6.98,2.93-13.83,6.16-20.78,9.17-.26.11-.32.31-.24.47"/>
  <path class="cls-1" d="M170.45,233.18c4.12,6.74,7.98,13.61,10.85,21,3.42,8.78,5.95,17.79,7.34,27.13.88,5.88,1.54,11.76,1.93,17.69.56,8.67.56,17.3-.05,25.96-.79,11.14-2.64,22.11-4.9,33.04-2.5,12.09-5.74,23.87-11.39,34.91-1.47,2.87-3.19,5.57-4.96,8.25-.61.93-1.28,1.85-1.18,3.06"/>
  <path class="cls-1" d="M81.98,280.37c4.9.28,9,2.51,12.73,5.44,11.13,8.77,17.25,20.6,19.97,34.21,1.15,5.75,1.46,11.78-1.8,17.19-3.48,5.77-8.51,9.39-15.32,10.14-8.88.98-15.8-3.27-21.11-9.52-7-8.26-11.39-18-12.89-28.91-.85-6.24-1.01-12.42,1.23-18.4,2.83-7.56,7.67-10.6,16.02-10.64.45,0,.69.2.94.49"/>
  <path class="cls-1" d="M210.08,220.92c5.51,10.17,9.02,21.02,11.35,32.32,2.33,11.3,4.08,22.65,3.71,34.21-.29,9.22-1.58,18.32-3.45,27.38-2.96,14.32-8.55,27.77-13.25,41.52-.86,2.52-2.05,4.92-2.61,7.54"/>
  <path class="cls-1" d="M437.51,83.14c-3.83,1.25-7.43,3.1-11.05,4.8-8.63,4.08-17.65,7.18-26.5,10.69-9.76,3.86-19.6,7.56-29.47,11.14-11.08,4.02-22.13,8.15-33.25,12.07-8.42,2.97-16.71,6.31-25.24,8.99-5.65,1.77-11.28,3.61-17,5.16"/>
  <path class="cls-1" d="M173.75,383.7c1.54-4.18,3.47-8.19,4.79-12.48,3.4-11.12,5.75-22.41,6.79-33.99.42-4.63.61-9.29,1.01-13.91.86-9.72-.08-19.36-.53-29.03-.36-7.67-1.7-15.17-3.33-22.65-1.73-7.97-4.07-15.74-7.58-23.11-4.88-10.23-11.56-19.06-20.23-26.48-10.82-9.27-23.57-14.57-37.11-17.73-11.01-2.56-22.37.32-30.68,10.66-5.34,6.64-7.84,14.31-9.7,22.43-1.38,6.02-1.95,12.06-2.05,18.18,0,.64,0,0,.31,2.62"/>
  <path class="cls-1" d="M68.77,261.73c-4.94,2.15-9.31,4.96-12.29,9.66-2.73,4.31-4.34,8.96-5.46,13.92-1.51,6.7-1.09,13.44-.29,20.05,1.33,11,4.95,21.38,10.24,31.17,4.77,8.83,10.94,16.36,19.37,21.92,6.44,4.25,13.29,7.18,21.23,6.86,4.03-.16,7.47-1.94,10.82-3.85,2.07-1.18,4.01-2.63,5.73-4.4,2.17-2.24,5.14-3.44,7.19-6.05,1.35-1.73.97-3.45,1.41-5.09,3.99-14.65,3.11-29.17-2.08-43.37-3.77-10.33-8.91-19.98-16.51-28.05-5.85-6.22-13.1-10.45-21.45-12.2-5.38-1.13-12.39-1.79-17.91-.58"/>
  <path class="cls-1" d="M120.2,355.16c-.35-.89-.03-1.55.43-2.38,3.62-6.51,4.75-13.72,5.71-20.97.46-3.47.29-6.95-.07-10.38-.69-6.56-2.19-12.95-4.63-19.13-3.51-8.87-8.13-17.09-14.7-24.01-6.24-6.56-13.57-11.88-22.62-13.61-7.84-1.5-15.76-1.36-22.39,4.36"/>
  <path class="cls-1" d="M280.86,188.83c4.23,8.03,7.31,16.48,8.42,25.49.75,6.08.88,12.25.3,18.39-.66,6.89-1.75,13.73-2.99,20.54-.12.67-.65.71-.77,1.17"/>
  <path class="cls-1" d="M133.65,206.76c-4.45-1.51-8.84-3.2-13.44-4.26-6.29-1.46-12.63-1.81-18.86-.17-10.62,2.79-17.83,9.83-22.36,19.56-3.13,6.71-5.08,13.89-6.12,21.21-.63,4.43-1.06,8.93-1.01,13.44,0,.81-.01.4.39,3.22"/>
  <path class="cls-1" d="M123.27,237.2c-6.35,3.05-12.91,5.64-19.34,8.5-9.99,4.43-25.3,11.29-35.16,16.03"/>
  <path class="cls-1" d="M182.01,271.17c-6.65,3.75-13.53,7.08-20.29,10.62-8.72,4.57-17.52,9-26.19,13.68"/>
  <path class="cls-1" d="M74.3,281.03c-3.21,4.06-4.1,11.21-4.15,15.86-.12,9.27,1.94,18.02,6.22,26.16,4.47,8.5,10.5,15.7,19.33,20.01,1.99.97,6.43,2.51,11.46.61"/>
  <path class="cls-1" d="M186.26,310.33c-6.08,3.07-11.89,6.62-17.65,10.21-9.44,5.88-18.85,11.82-27.88,18.33-4.28,3.08-11.38,8.23-15.23,11.88"/>
  <path class="cls-1" d="M336.54,168.54c2.03,6,3.57,12.12,4.51,18.4,1.09,7.29,1.35,14.58.98,21.95-.29,5.63-1.11,11.11-2.61,16.52-.15.55-.43,1.25-.04,1.88"/>
  <path class="cls-1" d="M163.84,224.22c-4.85-5.71-10.28-10.89-16.8-14.54-8.72-4.89-17.95-8.69-28.02-10.04-3.23-.43-6.43-.72-9.68-.67-.74.01-1.52.15-2.12-.47"/>
  <path class="cls-1" d="M287.47,138.82c-9.35,3.01-18.54,6.49-27.85,9.65-3.46,1.17-6.82,2.65-10.37,3.56"/>
  <path class="cls-1" d="M193.1,200.63c-3.43-2.82-6.92-5.55-10.63-8-.93-.61-1.75-.73-3.1-.12-11.14,5.01-21.96,10.67-32.98,15.91-.25.12-.32.31-.24.47"/>
  <path class="cls-1" d="M174.7,277.07c.88,4.31,1.84,8.59,2.41,12.97.6,4.6.33,9.14-.26,13.69-.07.52-.27,1.16.36,1.84,2.08-.43,3.55-2.22,5.51-3.02"/>
  <path class="cls-1" d="M135.06,295.47c10.04,31.05,3.21,40.23,0,47.54"/>
  <path class="cls-1" d="M120.91,390.31c6.72,7.44,13.85,14.38,23.13,18.62,1.96.9,3.89,1.99,6.12,2.14"/>
  <path class="cls-1" d="M154.17,222.33c-9.7,5.06-19.67,9.58-29.49,14.39"/>
  <path class="cls-1" d="M140.02,248.28c-9.27,4.9-18.73,9.42-28.09,14.12-.31.16-.47.62-.93.51"/>
  <path class="cls-1" d="M441.99,86.91c-1.92,8.16-4.52,16.1-7.75,23.84-.54,1.3-1.25,2.56-1.45,3.99"/>
  <path class="cls-1" d="M285.11,254.42c1-.15,1.12.51.93,1.17-2.18,7.45-3.91,15.04-7.03,22.19-.42.96-.86,1.97-.97,3.05"/>
  <path class="cls-1" d="M166.2,234.84c-8.19,4.37-16.56,8.4-24.77,12.74"/>
  <path class="cls-1" d="M119.96,321.65c-3.64,1.53-3.07,5.42-1.17,7.07,1.64,1.42,4.11.66,4.71-1.41.69-2.39-.78-4.92-3.3-5.66"/>
  <path class="cls-1" d="M56.74,303.72c2.52-1.72,3.11-4.39,1.4-6.6-.69-.89-1.59-1.71-2.81-1.39-1.22.32-1.97,1.1-2.18,2.55-.39,2.62.59,4.42,3.35,5.43"/>
  <path class="cls-1" d="M96.98,282.24c2.02-.17,2.88-1.48,3.05-3.3.17-1.88-1-3.33-2.8-4.04-1.33-.53-2.16.1-2.82.99-.94,1.27-1.18,2.84-.44,4.2.57,1.04,1.51,1.99,2.77,2.39"/>
  <path class="cls-1" d="M106.75,368.13c2.25,5.69,5.61,10.75,8.99,15.79.71,1.06,1.53,2.07,2.34,3.08"/>
  <path class="cls-1" d="M67.35,331.8c-2.07.64-3.22,3.24-2.1,4.94.42.64,1.05,1.14,1.64,1.66.83.73,1.82,1.08,2.81.46,1.18-.73,1.78-1.97,1.38-3.27-.55-1.78-1.71-3.22-3.49-4.03"/>
  <path class="cls-1" d="M180.12,191.9c-4.58-3.21-9.82-4.8-15.09-6.39-6.86-2.07-13.95-2.68-21-3.52"/>
  <path class="cls-1" d="M56.03,289.1c1.37,1.26,2.54.73,3.53-.48,1.3-1.59.79-4.46-.93-5.65-1.75-1.21-3.74-.16-4.01,2.12-.15,1.3.07,2.51.94,3.54"/>
  <path class="cls-1" d="M100.6,352.4c-3.35.52-4.31,2.98-3.66,5.43.38,1.44,1.11,3.72,4.51,3.36,2.12-.23,3.16-1.95,3.16-4.22,0-2.69-1.84-4.74-4.02-4.57"/>
  <path class="cls-1" d="M87.32,350.88c-2.8.44-3.6,2.49-3.05,4.53.32,1.21.93,3.11,3.76,2.8,1.77-.19,2.64-1.63,2.64-3.52,0-2.25-1.53-3.96-3.35-3.82"/>
  <path class="cls-1" d="M76.49,343.06c-2.8.44-3.6,2.49-3.05,4.53.32,1.21.93,3.11,3.76,2.8,1.77-.19,2.64-1.63,2.64-3.52,0-2.25-1.53-3.96-3.35-3.82"/>
  <path class="cls-1" d="M112.09,345.02c-2.8.44-3.6,2.49-3.05,4.53.32,1.21.93,3.11,3.76,2.8,1.77-.19,2.64-1.63,2.64-3.52,0-2.25-1.53-3.96-3.35-3.82"/>
  <path class="cls-1" d="M180.12,264.09c-4.25,1.82-8.21,4.21-12.23,6.45-4.49,2.5-9.06,4.86-13.51,7.44-2.31,1.34-4.6,2.75-7.06,3.8"/>
  <path class="cls-1" d="M78.78,280.16c-14.85,35.17,22.5,66.59,31.95,59.66"/>
  <path class="cls-1" d="M88.59,274.23c-.46-.73-.46-1.6-.87-2.4-.67-1.3-1.6-1.88-2.9-1.82-1.56.07-2.48,1.2-2.79,2.58-.31,1.39-.03,2.84.91,3.99,1.74,2.13,4.25,1.13,5.41-2.11"/>
  <path class="cls-1" d="M145.91,282.73c-7.43,3.86-14.72,7.99-22.18,11.8"/>
  <path class="cls-1" d="M135.06,295.47c-3.39,2.16-7.04,3.85-10.62,5.66"/>
  <path class="cls-1" d="M229.43,322.36c-3.27,3.65-6.73,7.11-10.38,10.38"/>
  <path class="cls-1" d="M429.49,121.83c-1.36,3.56-3.24,6.88-4.72,10.38"/>
  <path class="cls-1" d="M176.82,305.85c-.94,2.61-1.18,5.41-2.14,8.02-.4,1.08-1.2,2.05-.69,3.31"/>
  <path class="cls-1" d="M329.46,153.44c1.51,3.33,3.52,6.43,4.72,9.91"/>
  <path class="cls-1" d="M57.44,309.62c2.57.73,3.72,2.85,2.83,5.19-.58,1.51-2.06,1.93-3.3.94-2.22-1.77-2.13-4.21.24-6.37"/>
  <path class="cls-1" d="M194.04,201.57c2.24,1.85,4.28,3.9,6.13,6.13"/>
  <path class="cls-1" d="M117.6,269.04c2.08,1.69,3.97,3.58,5.66,5.66"/>
  <path class="cls-1" d="M209.61,341.71c-1.92,1.54-3.65,3.27-5.19,5.19"/>
  <path class="cls-1" d="M151.58,256.3c1.92,1.54,3.65,3.27,5.19,5.19"/>
  <path class="cls-1" d="M268.12,284.14c-1.99,1.28-3.2,3.44-5.19,4.72"/>
  <path class="cls-1" d="M406.84,158.16c-1.38,1.77-2.95,3.34-4.72,4.72"/>
  <path class="cls-1" d="M441.99,80.78c-.94.65-1.9,1.25-3.07,1.42"/>
  <path class="cls-1" d="M118.78,336.11c-1.92.72-1.53,2.39-1.37,3.77.19,1.63,1.7,2.64,3.02,2.36,1.25-.26,2.4-2.39,1.85-3.76-.56-1.4-1.41-2.65-3.27-2.37"/>
  <path class="cls-1" d="M117.6,307.74c-2.39,2.12-2.82,4.34-1.18,6.13.7.76,1.53,1.8,2.56,1.35,1.27-.55,2.35-1.56,2.4-3.23.08-2.46-1-3.81-3.55-4.25"/>
  <path class="cls-1" d="M62.63,272.58c-2.61,2.13-3.14,4.1-1.65,6.13,1.46,2,3.11,1.91,4.25-.24,1.26-2.37.25-4.89-2.36-5.9"/>
  <path class="cls-1" d="M113.36,295.47c-2.85,1.5-3.42,3.94-1.4,6.36.94,1.13,2.12,1.65,3.52.71,1.39-.94,1.97-3.77.92-5.16-.68-.9-1.45-1.89-2.8-1.91"/>
  <path class="cls-1" d="M105.39,283.44c-2.69,2.07-2.91,5.2-.47,6.84,1.38.93,3.55.16,4.01-1.42.72-2.43-.74-4.83-3.3-5.43"/>
  <path class="cls-1" d="M60.98,320.95c-2.52,2.57-2.52,5,0,6.84,1.41,1.03,3.18.32,3.54-1.42.66-3.19-.43-4.98-3.3-5.43"/>
  <path class="cls-1" d="M74.19,268.1c-1.83.22-2.86,1.24-3.06,3.07-.21,1.92.39,3.4,2.1,4.51,1.9,1.23,3.94-.7,4.24-3.1.25-1.96-.99-3.68-3.05-4.48"/>
</svg>