<?xml version="1.0" encoding="UTF-8"?>
<svg id="icons" xmlns="http://www.w3.org/2000/svg" viewBox="0 0 500 500">
  <defs>
    <style>
      .cls-1 {
        fill: none;
        stroke: #000;
        stroke-linecap: round;
        stroke-linejoin: round;
        stroke-width: .86px;
      }
    </style>
  </defs>
  <path class="cls-1" d="M163.96,301.41c.66-2.59-.59-4.71-1.96-6.61-4.67-6.51-8.74-13.46-14.31-19.31-2.69-2.83-6.04-4.67-9.44-6.4-7.8-3.96-15.57-7.98-23.33-12.04-6.14-3.21-12.49-6.03-18.42-9.63-1.06-.64-2.13-.55-2.99.04-6.14,4.21-12.9,7.39-19.11,11.49-1.4.93-1.9,1.96-1.9,3.48,0,15.28.03,30.56-.03,45.84,0,1.85,1.14,2.5,2.4,3.21,4.65,2.61,9.41,5.02,14.15,7.47,9.62,4.97,19.08,10.24,28.69,15.23,7.29,3.78,14.4,7.9,21.84,11.37,2.03.94,4.04,1.96,5.96,3.06,3.23,1.85,6.05.97,8.8-.74,2.26-1.4,4.59-2.7,6.91-3.97,2.06-1.12,2.96-2.56,2.96-4.79,0-11.99-.01-23.99.02-35.98,0-.53-.39-.97-.23-1.5"/>
  <path class="cls-1" d="M449.05,289.63c.5,2.2.1,4.43.21,6.64.06,1.21-.92,1.87-1.73,2.32-8.73,4.84-17.25,10.05-25.9,15.03-11.87,6.85-23.64,13.87-35.34,20.99-7.76,4.72-15.68,9.18-23.54,13.75-7.2,4.18-14.25,8.62-21.43,12.84-10.87,6.39-21.66,12.93-32.55,19.29-12,7.01-23.89,14.2-35.84,21.31-12.44,7.4-24.9,14.77-37.25,22.31-1.24.76-2.68,1.1-4.28.28-6.49-3.3-12.9-6.77-19.27-10.3-5.56-3.09-11.11-6.2-16.67-9.27-9.31-5.15-18.72-10.12-28.09-15.14-6.9-3.7-13.85-7.29-20.73-11-9.17-4.94-18.28-9.99-27.48-14.87-7.28-3.86-14.51-7.83-21.77-11.71-7.04-3.76-14.03-7.66-21.09-11.37-6.75-3.55-13.32-7.49-20.32-10.54-3.62-1.58-5.32-3.8-4.72-7.78.22-1.47.04-2.99.04-4.49,0-5.93.08-11.85-.01-17.78-.32-20.42-.25-40.84-.54-61.26-.13-9-.13-17.99-.29-26.99-.07-3.86-.02-7.72.43-11.56.02-.19.01-.27,0-.33-.5-2.99-.44-2.9,2.11-4.63,2.5-1.7,5.13-3.19,7.76-4.63,5.88-3.24,11.68-6.63,17.51-9.95,5.67-3.23,11.34-6.46,16.96-9.79,13.15-7.81,26.48-15.32,39.63-23.13,14.31-8.49,28.73-16.81,43.02-25.33,8.09-4.82,16.12-9.76,24.27-14.45,15.53-8.93,30.81-18.3,46.4-27.12,4.43-2.5,8.66-5.37,13.09-7.88,1.69-.96,3.19-.72,4.95.16,7.35,3.66,14.83,7.05,22.22,10.61,6.47,3.12,12.87,6.4,19.34,9.5,13.42,6.43,26.71,13.13,40.03,19.75,8.81,4.37,17.75,8.48,26.52,12.93,14.19,7.19,28.65,13.8,42.87,20.93,9.85,4.94,19.79,9.69,29.55,14.81,2.67,1.4,2.86,2.09,1.94,5.13-.32,1.05-.46,2.21-.17,3.2.58,1.94.36,3.87.36,5.8.02,37.06.02,74.11,0,111.17,0,.79.15,1.6-.21,2.36"/>
  <path class="cls-1" d="M445.2,167.97c-3.44-2.89-7.64-4.42-11.57-6.42-11.12-5.68-22.38-11.07-33.62-16.52-15.17-7.36-30.35-14.7-45.45-22.19-12.53-6.22-25.15-12.25-37.64-18.55-10.26-5.18-20.55-10.32-30.91-15.29-6.8-3.26-13.53-6.64-20.32-9.91-.89-.43-1.68-.58-2.82.13-7.69,4.79-15.49,9.41-23.31,13.98-6.66,3.89-13.29,7.83-19.92,11.79-7.61,4.55-15.32,8.93-22.94,13.46-9.32,5.55-18.67,11.06-28.06,16.5-8.89,5.15-17.68,10.48-26.53,15.69-8.94,5.26-17.94,10.41-26.81,15.79-5.9,3.58-11.99,6.87-17.96,10.33-11.24,6.51-22.58,12.86-33.65,19.66-2.85,1.75-5.66,3.62-8.76,4.97"/>
  <path class="cls-1" d="M67.57,327.76c.06.44,0,.83-.29.98,11.25,5.89,22.46,12.02,33.73,18.03,9.69,5.17,19.45,10.22,29.11,15.46,15.53,8.42,31.18,16.61,46.69,25.08,10.12,5.53,20.31,10.94,30.46,16.41,7.2,3.88,14.27,8,21.58,11.66,1.15.57,2.43,1,3.22,2.13"/>
  <path class="cls-1" d="M208.51,398.66c0-1.79-.01-3.58.02-5.54-9.2-4.8-18.54-9.9-27.84-15.07-10.78-5.99-21.76-11.6-32.6-17.48-9.32-5.05-18.62-10.15-27.99-15.12-9.31-4.94-18.7-9.74-27.89-14.9-3.01-1.69-6.13-3.15-9.21-4.71"/>
  <path class="cls-1" d="M90.71,252.15c4.98,1.73,9.44,4.54,14.13,6.86,4.6,2.29,9.19,4.63,13.68,7.11,7.91,4.38,16.13,8.27,23.16,14.09,6.26,5.19,10.55,11.78,13.46,19.29.86,2.22,1.09,4.66,1.09,7.05.03,12.49.01,24.99.02,37.48,0,.79-.15,1.6.21,2.36"/>
  <path class="cls-1" d="M264.85,100.07c2.15.36,3.86,1.71,5.78,2.58,9.07,4.14,17.95,8.65,26.96,12.91,9.41,4.45,18.78,8.98,28.09,13.64,16.68,8.34,33.41,16.57,50.16,24.78,11.18,5.48,22.44,10.8,33.6,16.35"/>
  <path class="cls-1" d="M146.18,318.12c.51-.46.84-1.02.85-1.71.15-7.97.16-15.93-3.43-23.34-3.13-6.47-8.09-10.98-14.75-13.75-4.33-1.8-8.55-3.88-12.65-6.18-5.52-3.09-11.1-6.06-16.69-9.02-2.48-1.31-4.55-1.37-7.15.11-2.28,1.3-4.62,2.6-7.01,3.75-2.39,1.15-3.5,2.82-3.46,5.59.12,9.28.19,18.57-.03,27.84-.08,3.4,1.21,5.24,4.12,6.69,4.8,2.4,9.61,4.77,14.38,7.23,9.2,4.74,18.4,9.46,27.64,14.13,6.13,3.1,12.14,6.42,18.29,9.26,1-.32.99-1.03.99-1.76,0-5.28-.01-10.57,0-15.85,0-.68-.11-1.27-.65-1.71"/>
  <path class="cls-1" d="M51.08,200.1c1.23-.07,1.88.96,2.78,1.51,6.33,3.92,13.17,6.77,19.9,9.89,8.37,3.88,16.48,8.31,24.63,12.64,11.32,6,22.79,11.69,34.3,17.29,8.59,4.18,16.99,8.71,25.68,12.7,7.02,3.22,13.87,6.8,20.8,10.22,7.13,3.52,14.15,7.27,21.16,11.01,4.39,2.35,8.6,5.08,13.12,7.17,4.95,2.29,9.45,5.35,14.31,7.8,3.15,1.59,5.81,1.91,9.29.49,8.05-3.27,15.12-8.21,22.67-12.31,6.02-3.27,11.82-6.92,17.78-10.28,1-.57,1.83-1.44,2.91-1.8,8.62,5.01,17.57,9.19,26.24,13.92,4.64,2.54,9.41,4.88,14.11,7.33.68.36,1.36.74,2.14.86"/>
  <path class="cls-1" d="M249.64,163.26c.49-3.2.09-6.43.21-9.64.05-1.4-.33-3.04,1.93-3,3.74-3.22,8.27-5.16,12.4-7.74,6.63-4.14,13.46-7.93,20.14-11.98,1.02-.62,1.9-.78,3.02-.22,11.08,5.55,22.08,11.25,33.19,16.72,12.03,5.92,24.01,11.95,36,17.96,6.56,3.29,13.14,6.57,19.71,9.84,2.1,1.05,3.07,2.29,3.03,4.75-.12,8.35-.42,16.7-.26,25.06.01.8-.24,1.67.42,2.36"/>
  <path class="cls-1" d="M410.5,213.81c2.53-.41,4.01,1.43,5.53,2.82,5.47,5.02,8.45,11.5,10.08,18.6,2.34,10.24,2.56,20.6,1.8,31.06-.43,5.87-1.32,11.58-3.26,17.13-1.94,5.54-4.51,10.72-8.37,15.2-.39.45-.85.72-1.48.91-1.06.31-1.83,1.08-2.38,2.09-2.05,3.79-4.77,7.17-6.82,10.95-2.06,3.81-5.29,6.37-8.56,9.02-6.56,5.31-13.29,10.37-20.38,14.95-5.21,3.36-10.94,5.21-17.13,5.57-1.5.09-2.66.49-3.93,1.63-3.11,2.78-6.84,4.81-10.45,6.89-7.85,4.53-15.42,9.52-23.29,14.02-6.48,3.69-12.8,7.65-19.29,11.33-7.4,4.2-14.74,8.51-22.04,12.88-10.41,6.23-20.88,12.37-31.3,18.6-5.41,3.24-10.76,6.58-16.29,9.62-1.07.59-1.31,1.44-1.31,2.58,0,1.43.27,2.88-.19,4.28"/>
  <path class="cls-1" d="M214.94,128.77c-7.36,4.08-14.56,8.43-21.87,12.59-7.59,4.32-15.16,8.68-22.68,13.11-6.42,3.79-12.86,7.56-19.31,11.3-6.97,4.04-13.92,8.13-20.94,12.09-6.55,3.69-13,7.56-19.52,11.3-8.21,4.72-16.4,9.46-24.63,14.14"/>
  <path class="cls-1" d="M418.64,253.43c1.32.75.91,2.14,1.03,3.22,1.09,10.03-.98,19.64-4.01,29.13-3.96,12.41-10.81,22.98-20.64,31.41-6.64,5.69-13.32,11.47-21.35,15.29-3.64,1.73-7.33,3.3-11.36,3.84-4.87.65-9.72,1.16-14.38-1.21-.71-.36-1.45-.78-2.07-1.19-8.85-5.78-15.14-13.36-17-24.14-1.02-5.94-.99-11.84-.38-17.78.22-2.16.74-4.28,1.03-6.43.15-1.07.39-1.61,1.53-1.07"/>
  <path class="cls-1" d="M444.13,175.89c0,35.48.01,70.97-.06,106.45,0,.95,1.02,2.18-.37,3"/>
  <path class="cls-1" d="M57.29,204.17c-.5,3.28-.07,6.57,0,9.85,0,.43,0,.86,0,1.29-.02,11.07.34,22.13.22,33.2-.13,11.92.15,23.85.28,35.77.1,8.71.01,17.42.15,26.13.03,1.71.3,3.42.2,5.14"/>
  <path class="cls-1" d="M57.51,210.38c5.38,2.59,10.79,5.16,16.02,8.01,6.62,3.6,13.35,7.02,20.01,10.54,6.94,3.66,13.94,7.24,20.91,10.86,8.79,4.56,17.59,9.1,26.36,13.68,5.72,2.99,11.41,6.03,17.19,8.88,4.69,2.31,9.53,4.36,14.32,6.49.38.17.54.49.9.69-.62.69-.48,1.53-.48,2.34,0,12.92-.18,25.85.04,38.77.31,17.85.03,35.7.18,53.55,0,.64-.1,1.26.15,1.95.28.74-.4.89-1.02.84"/>
  <path class="cls-1" d="M254.78,105.64c-7.09,3.91-14.01,8.11-21.01,12.17-4.98,2.89-9.98,5.74-14.97,8.57,0,.82,0,1.6,0,2.39v89.96c0,21.13,0,42.27,0,63.4,0,.79.15,1.6-.21,2.36"/>
  <path class="cls-1" d="M414.36,299.48c.03-.81-.03-1.57.4-2.37,3.45-6.33,5.71-13.16,7.2-20.14,1.03-4.82,1.82-9.74,1.89-14.75.07-4.66.26-9.3-.5-13.92-1.41-8.57-3.95-16.73-9.89-23.31-4.08-4.52-8.35-8.9-14.5-10.82-2.07-.64-4.15-.84-6.23-1.23-6.5-1.24-11.82,2-17.1,4.8-6.15,3.26-11.91,7.22-17.71,11.12-2.89,1.95-6.1,3.61-9.11,5.5-1.88,1.18-2.82,3.18-4.3,4.7-4.21,4.32-7.64,9.21-10.67,14.38-4.12,7.04-6.95,14.65-8.88,22.51-.84,3.43-1.13,7.09-1.51,10.67-.47,4.44-.33,8.87-.47,13.29-.29,9.37,1.32,18.41,6.35,26.56,3.5,5.67,8.19,10.26,13.99,13.37,2.8,1.51,6.08,2.73,9.57,2.3,1.16-.14,2.4-.24,3.42.62"/>
  <path class="cls-1" d="M402.15,265c2.84-1.52,5.71-3.06,8.62-4.38,1.94-.88,1.68-1.81,1.49-3.34-.28-2.27-.1-4.55-.39-6.86-.56-4.38-1.74-8.52-3.76-12.39-1.23-2.35-2.36-4.77-4.02-6.88-4.53-5.77-10.24-7.85-17.59-6.73-7.37,1.13-13.33,4.76-18.8,9.34-10.81,9.04-18.5,20.42-23.75,33.4-2.51,6.2-3.98,12.73-4.64,19.46-.3,3.02-.37,6.01-.31,9,.13,6.62,1.74,12.91,4.69,18.85,1.5,3.02,2.99,5.95,5.51,8.41,6.22,6.09,15.01,6.83,22.75,3.35,6.68-3.01,12.23-7.7,17.57-12.62,6.13-5.65,11.18-12.15,14.77-19.7,3.12-6.55,5.33-13.42,6.63-20.56.77-4.24,1.54-8.5,1.31-12.85"/>
  <path class="cls-1" d="M334.03,202.24c-3.82-1.79-7.53-3.79-11.34-5.59-15.39-7.27-30.41-15.3-45.65-22.86-2.08-1.03-4.07-2.28-6.38-2.92-.95-.26-1.63-.36-2.38.1-5.28,3.25-10.95,5.89-15.64,10.06"/>
  <path class="cls-1" d="M448.63,167.33c-1.2-.44-2.42.26-3.16.73-7.3,4.6-14.79,8.87-22.13,13.38-9.44,5.79-19.01,11.39-28.49,17.13-9.84,5.95-19.69,11.88-29.57,17.75-6.5,3.85-12.91,7.86-19.43,11.67-.51.3-1.07.27-1.52.6"/>
  <path class="cls-1" d="M231.43,328.19c.45.37.2.86.2,1.29.01,28.56.01,57.12,0,85.68,0,.42.25.92-.2,1.29"/>
  <path class="cls-1" d="M357.17,229.87c.07,1.32-1,2-1.74,2.76-4.87,4.96-8.63,10.7-11.95,16.74-3.68,6.7-6.82,13.64-9.02,20.98-2.41,8.04-3.53,16.27-3.87,24.63-.24,6.09.02,12.11,1.74,17.99,1.28,4.37,3.17,8.47,5.8,12.19.63.9,1.13,1.69.83,2.8"/>
  <path class="cls-1" d="M406.43,262.64c-.47-1.7-.13-3.43-.21-5.14-.27-6.22-1.36-12.13-5.12-17.37-3.59-5.02-8.54-7.06-14.38-6.53-5.96.54-11.05,3.76-15.8,7.06-7.71,5.37-13.13,12.89-17.33,21.16-2.85,5.61-4.58,11.69-5.68,17.95-.94,5.34-1.05,10.72-.74,16.07.34,5.88,1.63,11.73,5.34,16.45,6.2,7.88,14.8,9.17,23.91,4.07,6.2-3.47,11.13-8.51,15.42-14.11,5.43-7.1,9.61-14.89,12-23.55,1.38-4.97,2.47-10,2.37-15.2"/>
  <path class="cls-1" d="M161.61,190.46c-.46.73-.43,1.54-.43,2.36,0,15.85-.13,31.7.1,47.55.06,4.06.31,8.14.34,12.21,0,.82.03,1.63-.43,2.36"/>
  <path class="cls-1" d="M232.93,170.97c-.78,1.29-.43,2.72-.41,4.07.31,15.92.14,31.84.2,47.77,0,.82.03,1.63-.43,2.36"/>
  <path class="cls-1" d="M380.3,258.15c-4.15.72-6.79,3.45-9.24,6.62-5.1,6.61-6.8,14.15-6.36,22.29.08,1.44.51,2.9,1.03,4.28,1.64,4.39,7.44,6.24,11.48,3.52,2.92-1.96,5.34-4.81,7.16-8.01,1.9-3.34,3.56-6.75,4.51-10.49.34-1.35-.19-2.81.62-4.08"/>
  <path class="cls-1" d="M261.63,316.83c-.43-.05-.79.1-.95.29.16,2.28.15,4.43.08,6.57-.46,14.49-.05,28.99-.21,43.48-.08,7.78.05,15.56-.11,23.35-.07,3.26-.11,6.57.12,9.85"/>
  <path class="cls-1" d="M208.73,313.62c.11,9.64-.44,19.28-.16,28.91.06,2.15-.08,4.29-.06,6.43.12,11.07-.15,22.13-.21,33.2-.02,3.5,0,7,0,10.5"/>
  <path class="cls-1" d="M273.2,173.75c-2.53.74-4.59,2.25-6.65,3.84-8.02,6.19-12.76,14.42-14.43,24.24-.71,4.16-1.04,8.85.49,12.76,2.1,5.38,5.04,10.65,10.76,13.32,1.73.81,2.47,1.78,1.93,3.68-.44,1.54-.38,3.16-.18,4.7.26,2.04-.57,3.51-2.21,4.24-3.57,1.57-6.33,4.41-9.84,6.03-.65.3-.32,1.04-.85,1.31"/>
  <path class="cls-1" d="M448.84,289.42c-4.56,2.06-8.78,4.73-13.06,7.3-8.84,5.31-17.87,10.3-26.6,15.78-1.46.92-2.6,2.64-4.68,2.41"/>
  <path class="cls-1" d="M279.63,266.71c-1.46-1.93-3.84-2.35-5.81-3.38-10.64-5.57-21.12-11.44-31.89-16.76-1.83-.91-3.57-2.02-5.57-2.57"/>
  <path class="cls-1" d="M251.78,150.83c5.51,3.45,11.43,6.13,17.18,9.12,7.42,3.86,14.95,7.5,22.44,11.23,16.86,8.4,33.7,16.84,50.57,25.24.36.18.54.48.85.67"/>
  <path class="cls-1" d="M264.42,96.64c0,14.35,0,28.7,0,43.05,0,.8-.24,1.67.42,2.36"/>
  <path class="cls-1" d="M380.08,247.44c-5.69,2.04-9.83,6.08-13.71,10.49-4.65,5.28-7.56,11.43-9.19,18.22-1.25,5.23-1.66,10.47-.74,15.86.49,2.9,1.23,5.55,2.62,8.14,3.67,6.82,11.66,9.14,18.46,5.77.11-.06.28,0,.42,0"/>
  <path class="cls-1" d="M343.03,230.09c-1.57-.18-2.49,1.08-3.62,1.75-10.64,6.35-21.3,12.66-31.96,18.98-8.17,4.84-16.39,9.63-24.61,14.39-.61.35-1.27.6-1.6,1.29"/>
  <path class="cls-1" d="M305.54,206.31c-3.37,2.51-5.05,6.22-6.58,9.88-2.6,6.24-2.7,12.74-.91,19.25.68,2.5,1.77,4.78,3.64,6.64,1.29,1.28,2.57,2.57,3.86,3.85"/>
  <path class="cls-1" d="M200.65,258.31c-9.01-1.05-18.19-.69-26.99-3.42-4-1.24-8.11-2.14-11.59-4.69"/>
  <path class="cls-1" d="M174.46,198.81c-.36.76-.22,1.57-.21,2.36.13,11.71-.08,23.42.09,35.13.06,3.97.33,8.01-.32,11.99"/>
  <path class="cls-1" d="M410.29,229.44c.02.44-.2.78.17,1.31,2.88,4.13,5.12,8.61,6.43,13.48,1.09,4.06,2.21,8.1.81,12.46-.4,1.24-.26,2.96-.32,4.46-.34,8.54-2.67,16.62-5.39,24.63-1.95,5.74-5.28,10.87-7.5,16.49-.44,1.12-1.34,1.96-1.92,3"/>
  <path class="cls-1" d="M227.79,242.29c0,11.28,0,22.56,0,33.84,0,.86-.09,1.73.21,2.57"/>
  <path class="cls-1" d="M377.94,176.97c-3.53,2.65-7.58,4.4-11.35,6.65-7.22,4.32-14.71,8.17-21.87,12.6-.42.26-.67.63-1.06.88"/>
  <path class="cls-1" d="M183.67,199.67c8.21.83,15.9-.65,22.92-5.15,2.02-1.29,3.72-3.12,5.2-4.85,1.17-1.37.96-4,.53-6.06-.15-.74-.26-1.38-.21-2.16.15-2.54-.93-4.72-2.52-6.63-2.45-2.94-5.77-4.56-9.2-6-6.43-2.69-13.12-3.14-19.92-2.11-5.47.83-10.55,2.69-15.03,6.14-3.08,2.37-4.07,5.5-3.72,9.03.15,1.54,1.63,2.86,2.73,4.04,3.74,4.03,8.62,6.12,13.88,7.3,3.02.67,6.1,1.16,9.2.86,8.83-.86,17.15-2.9,22.91-10.48.35-.46.97-.4,1.29-.85"/>
  <path class="cls-1" d="M243.21,178.04v32.13"/>
  <path class="cls-1" d="M162.68,193.89v31.7"/>
  <path class="cls-1" d="M211.94,190.25c.48.88.43,1.83.43,2.78,0,9.57,0,19.13,0,28.7"/>
  <path class="cls-1" d="M296.55,276.14c-.49,5.64-.17,11.28-.2,16.92-.06,11.92-.02,23.85-.02,35.77,0,13.07,0,26.13,0,39.2,0,.24-.06.49.21.63-8.88,4.97-17.49,10.41-26.34,15.43"/>
  <path class="cls-1" d="M288.19,260.93c-7.48-3.47-14.74-7.36-22.05-11.16-3.01-1.56-5.93-3.3-8.79-5.12"/>
  <path class="cls-1" d="M343.24,197.53c.56,1.61.42,3.27.43,4.93,0,7.64,0,15.28,0,22.92,0,2.57-.14,5.15.04,7.71.19,2.64,1.05,2.45-.83,4.28"/>
  <path class="cls-1" d="M186.24,306.12c-1.65,3.23-2.59,6.61-2.58,10.28.03,13.85,0,27.7.03,41.55,0,.71-.25,1.47.2,2.14"/>
  <path class="cls-1" d="M186.88,276.35c-.08.35-.23.68-.23,1.07,0,8.07.15,16.14-.37,24.21-.08,1.24-.57,2.4-.47,3.64"/>
  <path class="cls-1" d="M91.35,265c.54.87.43,1.84.43,2.78,0,6.28,0,12.57,0,18.85,0,1.79-.08,3.58.21,5.35"/>
  <path class="cls-1" d="M268.06,243.58c8,4,16,7.99,23.98,12.01,1,.5,2.25.49,3,1.49"/>
  <path class="cls-1" d="M319.9,195.81c-1.59,1.71-3.9,2.21-5.82,3.36-3.06,1.84-6.07,3.64-8.1,6.15,0,4.48-.07,8.63.02,12.77.19,8.86-.65,17.75.84,26.56.07.43-.19.75-.43,1.07"/>
  <path class="cls-1" d="M209.16,287.06c-.61.7-.42,1.55-.42,2.36,0,7.93,0,15.85,0,23.85,7.53,2.32,15.08,3.27,22.7.35"/>
  <path class="cls-1" d="M286.27,270.35c-2.52,2.32-5.7,3.59-8.58,5.33-5.97,3.61-11.84,7.44-18.02,10.64-7.11,3.68-13.99,7.73-20.95,11.65-.55.31-1.22.49-1.28,1.29"/>
  <path class="cls-1" d="M202.09,283.63c-.45.68-.2,1.43-.2,2.14-.02,10.85.08,21.71-.06,32.56-.05,4.09,1.68,6.91,5.2,8.53,6.82,3.15,13.94,3.42,21.19,1.75,1.81-.42,3.57-1.02,5.34-1.56,4.23-1.29,7.51-6.16,7.51-10.65,0-3.43-.03-6.85,0-10.28.05-4.82-1.55-5.79-4.97-6.95-2.49-.84-4.91-1.81-7.22-2.95-8.13-4.01-16.26-8.03-24.44-11.95-10.34-4.95-20.65-9.97-31.06-14.78"/>
  <path class="cls-1" d="M265.92,229.87c2.89-.13,5.07,1.7,7.49,2.81,7.55,3.45,14.98,7.16,22.51,10.68,2.43,1.14,4.84,2.31,7.26,3.47.81.39,1.51.7,2.37.39"/>
  <path class="cls-1" d="M443.91,169.68c.47,1.7.09,3.43.21,5.14.03.45-.12.6-.6.91-7.03,4.49-14.17,8.8-21.23,13.24-1.46.92-2.92,1.93-3.65,3.62"/>
  <path class="cls-1" d="M260.99,286.2c.16,8.36-.35,16.71-.19,25.06.04,1.86-.3,3.73.19,5.57"/>
  <path class="cls-1" d="M305.97,206.52c.65.02,1.32-.1,1.93.22,4.4,2.28,8.99,4.2,13.07,7.06.45.32.65.67.67,1.29.26,8.07.37,16.14-.02,24.2-.04.88-.08,1.77.42,2.57"/>
  <path class="cls-1" d="M418.42,192.82c-3.67.77-6.58,3.69-7.07,8.57-.47,4.75,2.9,8.08,6.22,9.17,1.81.59,3.69.5,5.35-.8,2.79-2.2,4.6-4.75,4.55-8.58-.05-3.73-3.73-8.23-7.78-8.12-.34,0-.55-.25-.86-.23"/>
  <path class="cls-1" d="M431.92,166.04c-2.79-3.42-6.46-3.52-10.27-2.53-2.8.73-5.24,4.43-3.49,7.28.33.54.7,1.04,1.14,1.21,3.95,1.59,7.99,2.12,11.96.22,2.65-1.27,2.93-3.88.87-6.18"/>
  <path class="cls-1" d="M301.26,138.2c-.57.46-.42,1.11-.42,1.71,0,6.5-.15,13,.05,19.49.14,4.57.09,9.14.16,13.71.01.72.14,1.46-.21,2.14"/>
  <path class="cls-1" d="M108.27,271.43c-1.56.68-3.13,1.34-4.63,2.11-1.35.7-3.01,1.41-4.57,1.99-2.83,1.04-2.8,1.12-2.8,4.04,0,3.86-.02,7.71.01,11.57,0,1.13-.41,2.55.87,3.17,1.45.71,2.29-.58,3.19-1.46"/>
  <path class="cls-1" d="M380.51,247.44c8.28-2.76,15.43,2.73,17.55,10.28,2.04,7.28,1.11,14.52-.88,21.62-2.48,8.84-7.23,16.39-13.91,22.69-1.38,1.3-2.74,2.72-4.69,3.24"/>
  <path class="cls-1" d="M333.39,204.38c1.23,2.2,1.4,4.68,1.45,7.07.14,6.71.05,13.42.05,20.13,0,.88-.07,1.77.43,2.57"/>
  <path class="cls-1" d="M219.22,291.77c-.36.76-.21,1.57-.21,2.36,0,13.64,0,27.27-.01,40.91,0,4.79-.11,9.57-.42,14.35"/>
  <path class="cls-1" d="M365.52,185.32c.5,2.85.17,5.71.19,8.57.06,6.35.02,12.71.02,19.06,0,.72-.13,1.46.21,2.14"/>
  <path class="cls-1" d="M71.64,197.96c.31,1.06-.5,1.93-.48,3,.02,1.74.69,2.51,2.41,2.37,1.21-.09,2.43.06,3.64-.04.86-.07,1.9.04,2.16-1.26.24-1.2.59-2.3-.65-3.23-2.19-1.65-4.34-2.64-7.11-1.11-1.21.67-2.79.68-3.82,1.78-1.29,1.38-1.28,3.58.24,4.66,1.29.91,2.74,2.07,4.45,1.72,2.28-.47,4.58.06,6.88-.52,1.7-.43,3.46-.76,3.97-2.46.53-1.79-.38-3.37-1.82-4.71-3.15-2.94-7.2-3.77-11.17-2.13-1.2.5-2.26.99-1.92,2.58"/>
  <path class="cls-1" d="M123.91,286.85c.68-.25,1.33-.46,1.94.21.57.62,1.32.76,2.35.59,0,4.2-.04,8.34.03,12.48.01.85-.69,2.1.62,2.53,1.12.37,3.35-1.41,3.38-2.75.09-4.14.2-8.29-.05-12.42-.1-1.6-1.69-1.35-2.91-.86"/>
  <path class="cls-1" d="M201.45,236.3c-.89.74-.87,1.75-.86,2.78.02,5.64.01,11.28,0,16.92,0,.72.13,1.46-.21,2.14"/>
  <path class="cls-1" d="M262.49,199.03c.04,2.24-.98,4.26-1.41,6.4-.85,4.25-.76,8.33.35,12.44.23.86.18,1.71.2,2.57"/>
  <path class="cls-1" d="M99.92,275.5c.87.52.64,1.37.64,2.14,0,4.86,0,9.71,0,14.56,3.39.16,4.28-.64,4.28-3.63,0-4.07,0-8.14,0-12.21,0-.81-.36-1.51-.85-2.14"/>
  <path class="cls-1" d="M208.94,393.3c4.53,2.97,9.39,5.34,14.15,7.9,2.25,1.21,4.3,2.82,6.84,3.46"/>
  <path class="cls-1" d="M235.72,237.58c.36,2.85.21,5.71.21,8.57,0,9.78,0,19.56,0,29.34,0,.79.15,1.6-.21,2.36"/>
  <path class="cls-1" d="M218.58,221.95c-5.42-.29-10.45.8-14.78,4.28-2.7,2.17-3.56,6.03-2.2,9.24.2.47.52.5.71.59,3.71,1.65,6.98,4.25,11.12,4.97,6.68,1.17,13.18,1.14,19.29-2.35.24-.14.4-.36.63-.45,1.8-.64,3.64-1.37,3.6-3.65-.05-2.48-.28-4.85-2.27-6.9-3.82-3.94-8.64-5.12-13.76-5.74-.5-.06-1.06.25-1.5-.21"/>
  <path class="cls-1" d="M413.5,223.45c1.5-2.86.91-4-1.43-7.12-3.62-4.83-8.55-5.74-13.99-5.73-2.48,0-4.99-.23-7.28,1.07"/>
  <path class="cls-1" d="M64.58,312.12c-3.87.52-5.23,4.17-4.91,6.85.44,3.67,4.31,7.82,7.91,8.57,3.32.69,6.03-2.09,6.02-6,0-3.24-1.16-5.71-4.08-7.3-1.53-.83-3.05-1.63-4.72-2.12"/>
  <path class="cls-1" d="M300.83,117.85c0,5.57,0,11.14,0,16.71,0,.88.07,1.77-.43,2.57"/>
  <path class="cls-1" d="M250.5,195.6c-.77-2.12-.48-4.27-.21-6.43.34-2.74,1-5.38,2.82-7.71-4.24-2.35-8.31-4.57-12.47-6.61-2.47-1.22-4.77-2.72-7.26-3.91-1.06-.51-.95-1.96.21-2.96,2.72-2.36,5.94-4.01,9.07-5.64,1.67-.87,4.05.05,6.16.82,5.71,2.08,10.84,5.37,16.46,7.59.28.11.16.51.43.64"/>
  <path class="cls-1" d="M232.08,298.41c-.32,5.21-.28,10.42-.03,15.64.17,3.56.01,7.14.05,10.71,0,.71-.26,1.47.2,2.14"/>
  <path class="cls-1" d="M306.62,260.5c-.49,5.49-.08,11-.22,16.49-.02.81.18,1.65-.43,2.36"/>
  <path class="cls-1" d="M202.95,236.73c.03.99-.05,1.83,1.04,2.62,5.09,3.71,10.7,5.22,16.96,4.93,3.36-.15,6.55-.51,9.66-1.92,1.71-.77,3.1-1.95,4.68-2.85"/>
  <path class="cls-1" d="M271.92,200.74c-1.76,5.58-1.82,11.37-2.14,17.14"/>
  <path class="cls-1" d="M259.06,85.93c-2.91.5-4.79,4.65-3.22,7.07,1.17,1.81,2.93,2.87,4.94,3.15,2.27.31,4.65.21,6.84-.61,3.26-1.22,4.3-5.35,2.15-8.11-1.55-1.99-4.95-3.48-7.9-2.52-.72.23-1.52-.17-2.2.55-.49.51-.27.61.04.9"/>
  <path class="cls-1" d="M379.66,236.3c.5.94.72,1.96.63,3-.4,4.86.25,9.71.24,14.57-.02,9-.39,17.99-.23,26.99.03,1.57,0,3.14,0,4.71"/>
  <path class="cls-1" d="M183.24,147.41c.35,6.14.17,12.28.21,18.42"/>
  <path class="cls-1" d="M380.94,258.36c3.49-.6,7.13,2.77,8.17,7.28.48,2.07.37,4.14.4,6.22"/>
  <path class="cls-1" d="M252.42,215.31c-.78.55-.64,1.37-.64,2.14,0,8.71,0,17.42,0,26.13,0,1.06.16,2.06.65,3"/>
  <path class="cls-1" d="M260.35,390.09c-4.36,2.17-8.42,4.87-12.64,7.28-1.22.7-2.37,1.53-3.64,2.14"/>
  <path class="cls-1" d="M102.7,293.27c7.33,3.55,14.48,7.46,21.77,11.28.93-.5,2.13-.82,3.07-1.64"/>
  <path class="cls-1" d="M162.03,264.57c-.83,1.9.44,3.54,1.18,4.87,2.12,3.81,4.75,7.34,7.17,10.98"/>
  <path class="cls-1" d="M342.81,237.37c-1.3-.26-2.08.78-2.97,1.33-5.3,3.24-10.72,6.26-16.07,9.42-11.69,6.91-23.2,14.11-34.92,20.97-.36.21-.81.51-.87,1.05"/>
  <path class="cls-1" d="M343.03,198.17c-5.93,2.99-11.36,6.82-17.14,10.07-2.3,1.29-4.62,2.56-6.64,4.29"/>
  <path class="cls-1" d="M132.26,313.84c-4.61,2.35-9.01,5.09-13.71,7.28"/>
  <path class="cls-1" d="M236.79,287.06c-.09-1.3,1.38-1.55,1.79-2.62-.8-2.29-1.75-4.51-4.58-4.84-1.73-.21-3.41.24-4.68,1.5-.52.52-.83,1.4-.23,2.1.68.79.79,1.62.17,2.35-.65.77-1.61.94-2.54.44-1.09-.58-1.8-1.47-1.71-2.77.15-2.11,2.2-4.28,4.71-4.92,3.23-.83,6.37-.86,9.21,1.27,3.7,2.77,3.56,6.35-.45,8.54-.93.51-.82,1.2-.84,1.96"/>
  <path class="cls-1" d="M113.84,272.5c-.63.62-.42,1.41-.42,2.14-.01,2.93,0,5.85,0,8.78,0,2.51-.52,3.3-2.79,4.05-.39.13-.85.02-1.28.02"/>
  <path class="cls-1" d="M264.42,144.19c0,3.57,0,7.14,0,10.71,0,.73.2,1.52-.42,2.14"/>
  <path class="cls-1" d="M137.4,284.92c-.63.62-.42,1.41-.42,2.14-.01,3.5,0,7,0,10.5"/>
  <path class="cls-1" d="M283.91,217.02c-.56,4.13-.41,8.28-.43,12.42"/>
  <path class="cls-1" d="M87.28,203.1c0,.14-.05.39,0,.41,4.01,1.9,7.83,4.2,11.99,5.8"/>
  <path class="cls-1" d="M161.61,183.18c-.72,2.31-1.02,4.81.32,6.78,1,1.47,2.46,2.86,3.99,3.89,5.22,3.51,10.97,5.6,17.32,5.82"/>
  <path class="cls-1" d="M253.5,350.68c-3.24.6-6.34,1.76-9.62,2.25-.77.11-1.59.16-2.37.32"/>
  <path class="cls-1" d="M146.61,306.12c-2.52.19-4.56,1.83-6.31,3.15-2.99,2.25-5.26,2.25-7.82-.16-.44-.42-1.02-.54-1.51-.85"/>
  <path class="cls-1" d="M275.34,208.02c-.03,2.53-.87,4.94-1,7.49-.07,1.32-.07,2.73-.28,4.08"/>
  <path class="cls-1" d="M428.49,169.9c1.9-2.62,1.28-4.07-1.93-4.5-1.14-.15-2.3-.48-3.42,0-1.9.82-2.51,2.31-2.14,4.28"/>
  <path class="cls-1" d="M372.8,239.94c.48,2.7.08,5.43.22,8.14.04.86-.18,1.74.21,2.57"/>
  <path class="cls-1" d="M311.76,318.12c-3.65,2-7.06,4.42-10.71,6.43"/>
  <path class="cls-1" d="M173.81,237.15c-3.69.65-7.02,2.16-10.05,4.31-.63.45-1.23.93-1.95,1.26"/>
  <path class="cls-1" d="M232.72,227.3c-.47,2.27-.3,4.59-.13,6.85.09,1.15-.2,2.31.13,3.43"/>
  <path class="cls-1" d="M163.53,242.08c5.87,4.98,12.81,7.69,20.13,9.66,3.12.84,6.35,1.15,9.43,2.12"/>
  <path class="cls-1" d="M111.7,274.42c-.84.35-1.67.69-2.57.85,0,3.57,0,7.14,0,10.71,0,2.54-1.16,3.75-4.07,4.28"/>
  <path class="cls-1" d="M51.94,320.48c3.45,1.54,6.65,3.49,9.64,5.78"/>
  <path class="cls-1" d="M251.57,232.01c-3.24,1.28-6.11,3.23-8.98,5.16-.36.24-.65.47-1.09.41"/>
  <path class="cls-1" d="M216.23,348.54c4.18,1.91,8.11,4.36,12.42,6"/>
  <path class="cls-1" d="M377.62,295.2c.06.37.35.65.33,1.07-.25,5.64.62,11.28.19,16.92-.04.59.35.99.44,1.5"/>
  <path class="cls-1" d="M261.42,227.94c-2.71,1.78-5.4,3.61-8.12,5.39-.45.29-.82.43-1.3.4"/>
  <path class="cls-1" d="M265.49,207.6v9.42"/>
  <path class="cls-1" d="M296.12,265.21c.67.85.4,1.84.42,2.78.04,2.08-.12,4.15-.42,6.21"/>
  <path class="cls-1" d="M200.59,258.79c-.15,4.71.3,9.42.11,14.14"/>
  <path class="cls-1" d="M120.69,284.71c1.32.01,1.83,1.43,2.94,1.54-.69,5.87-.35,11.59-.15,17.31"/>
  <path class="cls-1" d="M199.52,339.11c2.91,1.48,5.77,3.03,8.57,4.71"/>
  <path class="cls-1" d="M162.68,227.3v8.14"/>
  <path class="cls-1" d="M432.52,278.49c2.57,1.29,5.14,2.57,7.71,3.86"/>
  <path class="cls-1" d="M274.91,223.02c-.14,2.67.17,5.26,1.29,7.71"/>
  <path class="cls-1" d="M142.76,254.93c-2.18,2.04-4.97,3.05-7.5,4.5"/>
  <path class="cls-1" d="M288.62,221.3c-.2,2.42-.48,4.83-.47,7.28,0,2.07.48,4.02.9,6"/>
  <path class="cls-1" d="M164.6,299.48c2.64.89,4.98,2.53,7.71,3.21"/>
  <path class="cls-1" d="M372.8,231.37c.47,1.77.1,3.57.21,5.35.05.73-.2,1.52.43,2.14"/>
  <path class="cls-1" d="M142.76,308.27c.66,2.25,1.58,4.42,1.54,6.85-.02,1.15.8,2.08,1.46,3"/>
  <path class="cls-1" d="M118.12,274.64c-1.04,2.28-.63,4.71-.6,7.07.02,1.77-.26,3.14-2.18,3.64"/>
  <path class="cls-1" d="M187.09,332.26c2.52,1.11,4.79,2.69,7.28,3.86"/>
  <path class="cls-1" d="M154.11,269.28c-2.38,1.39-4.96,2.45-7.07,4.28"/>
  <path class="cls-1" d="M132.26,282.99c-2.24,1.17-4.67,1.99-6.64,3.64"/>
  <path class="cls-1" d="M322.04,250.01c.13,2.5.35,4.96.12,7.51-.22,2.44-.45,5,.09,7.49"/>
  <path class="cls-1" d="M229.72,285.78c1.23,1.49,3.01,1.28,4.48.99,1.78-.35,2.68.52,3.66,1.58"/>
  <path class="cls-1" d="M144.04,315.76c-2.56-.79-4.57-2.58-6.85-3.86"/>
  <path class="cls-1" d="M365.52,216.81c.47,2.13.09,4.29.21,6.43"/>
  <path class="cls-1" d="M388.44,282.56c1.74,1.6,3.83,2.58,6,3.43"/>
  <path class="cls-1" d="M273.2,341.68c-2,1-4,2-6,3"/>
  <path class="cls-1" d="M368.95,295.63c-1.51,1.92-2.66,4.12-4.5,5.78"/>
  <path class="cls-1" d="M397.86,267.03c-2.12.03-4.43,1.67-5.14,3.64"/>
  <path class="cls-1" d="M377.94,315.98c.42,1.19.16,2.43.2,3.64.03.82-.02,1.63.44,2.36"/>
  <path class="cls-1" d="M306.4,251.93c.28,1.07.25,2.12.05,3.22-.16.9-.29,1.93.38,2.78"/>
  <path class="cls-1" d="M187.09,180.61c2,1,4,2,6,3"/>
  <path class="cls-1" d="M322.89,255.57c1.7.66,3.46,1.19,4.93,2.35.88.7,2.02.3,3,.65"/>
  <path class="cls-1" d="M56.86,209.95c-2.16-.22-3.79-1.74-5.78-2.36"/>
  <path class="cls-1" d="M268.06,91.93c-.27-.18-.91.42-.86-.43.13-2.34-.76-3.77-2.78-4.5-1.33-.48-4.79.5-5.3,1.73-.52,1.24.07,2.57.38,3.83"/>
  <path class="cls-1" d="M319.47,313.41c-1.8.86-3.34,2.14-5.14,3"/>
  <path class="cls-1" d="M63.29,315.76c1.48.51,3.03.27,4.57,1.15,1.54.88,2.12,1.82,2.28,3.35"/>
  <path class="cls-1" d="M200.59,276.57c-.58.81-.46,1.64-.26,2.58.17.81.22,1.73-.17,2.56"/>
  <path class="cls-1" d="M377.94,323.26c.88,1.71-.04,3.43,0,5.14"/>
  <path class="cls-1" d="M334.89,236.3c-.36,1.71-.3,3.43,0,5.14"/>
  <path class="cls-1" d="M334.46,242.29c.16,2.27,1.84,2.8,3.64,3.21"/>
  <path class="cls-1" d="M379.23,216.81c.82,1.18.57,2.54.66,3.85.1,1.64-.4,3.34.42,4.93"/>
  <path class="cls-1" d="M162.03,257.07c-.53,1.24-.41,2.55-.44,3.86-.02.8.24,1.67-.42,2.36"/>
  <path class="cls-1" d="M174.46,192.82c-.44,1.63-.11,3.29-.21,4.93"/>
  <path class="cls-1" d="M162.68,236.73c.1,1.64-.23,3.3.21,4.93"/>
  <path class="cls-1" d="M417.35,257.07c-1.13-.16-1.92.55-2.79,1.07-.61.36-1.05,1.1-1.93.86"/>
  <path class="cls-1" d="M379.44,226.66c.45,1.74.62,3.39-.14,5.17-.35.82-.36,2.05.35,2.97"/>
  <path class="cls-1" d="M406.22,236.08c-1.45,1.18-2.1,3-3.43,4.28"/>
  <path class="cls-1" d="M395.08,286.63c1.66.48,2.76,2.03,4.5,2.36"/>
  <path class="cls-1" d="M394.65,252.36c-1.26,1.21-2.11,2.74-3.21,4.07"/>
  <path class="cls-1" d="M347.1,321.76c-1.32.97-2.84,1.68-4.07,2.78"/>
  <path class="cls-1" d="M240.64,310.19c-1.59.59-2.32,2.43-4.07,2.78"/>
  <path class="cls-1" d="M184.52,360.1c-.43-.05-.79.1-1.06.42.39,1.42.14,2.86.21,4.29"/>
  <path class="cls-1" d="M61.58,320.26c1.43.45,2.6,1.38,3.86,2.13,1.36.8,2.77,1.06,4.06-.2"/>
  <path class="cls-1" d="M428.06,253.86c-1.43-.35-2.38,1.44-3.86.86"/>
  <path class="cls-1" d="M400.22,290.06c1.09,1.03,2.68,1.36,3.64,2.57"/>
  <path class="cls-1" d="M65.86,313.19c-2.24.4-3.9,2.94-3.23,5.36.17.62.82,1.28.01,1.92"/>
  <path class="cls-1" d="M257.35,92.36c2.62.55,5.14,1.53,7.94,1.14.83-.12,2.07.06,2.56,1.21"/>
  <path class="cls-1" d="M355.88,265.43c1.33.42,2.4,1.33,3.64,1.93"/>
  <path class="cls-1" d="M416.93,211.67c-.35,1.2-.46,2.45-.86,3.64"/>
  <path class="cls-1" d="M428.49,172.68c-.56-.44.25-1.4-.91-1.7-2.61.57-5.32.51-7.44-1.94"/>
  <path class="cls-1" d="M268.06,237.37c-.98.12-1.62,1.34-2.78.86"/>
  <path class="cls-1" d="M326.75,308.27c-1.01.39-1.71,1.53-3,1.29"/>
  <path class="cls-1" d="M131.83,261.57c-.95.62-2.26.7-2.78,1.93"/>
  <path class="cls-1" d="M373.02,226.02c.07.93-.19,1.88.21,2.78"/>
  <path class="cls-1" d="M412.64,225.16c-.67,1.17-1.49,2.26-1.71,3.64"/>
  <path class="cls-1" d="M409.64,230.73c-.4,1.03-1.37,1.71-1.71,2.78"/>
  <path class="cls-1" d="M430.42,169.47c-.43,1.08-1.25,1.45-2.35,1.28-.01,0-.03-.15,0-.2.05-.08.14-.15.21-.22"/>
  <path class="cls-1" d="M405.36,293.06c.91.33,1.5,1.29,2.57,1.29"/>
  <path class="cls-1" d="M136.54,298.2c-1.05,1.12-2.23,1.89-3.86,1.29"/>
  <path class="cls-1" d="M378.58,208.67c.37,1.49.19,3,.21,4.5"/>
  <path class="cls-1" d="M422.28,255.57c-.91-.07-1.51.74-2.36.86"/>
  <path class="cls-1" d="M299.76,242.72c.64.7.46,1.54.43,2.36"/>
  <path class="cls-1" d="M204.23,310.41c-.7-.31-1.17-1.2-2.14-.86"/>
  <path class="cls-1" d="M229.08,278.71c.04.73-.2,1.52.43,2.14"/>
  <path class="cls-1" d="M396.58,248.72l-1.29,1.93"/>
  <path class="cls-1" d="M81.28,202.03c-.23-.76-.83-.87-1.5-.86"/>
  <path class="cls-1" d="M201.23,187.89c.58.34,1.3.47,1.71,1.07"/>
  <path class="cls-1" d="M267.63,86.58c-.38.57-1.12-.14-1.5.43"/>
  <path class="cls-1" d="M234.43,299.06c-.28.71.57.94.64,1.5"/>
  <path class="cls-1" d="M113.41,286.2c.42.5-.14,1,0,1.5"/>
  <path class="cls-1" d="M172.96,367.17v1.5"/>
  <path class="cls-1" d="M106.56,276.14h-1.5"/>
  <path class="cls-1" d="M296.33,369.31v1.5"/>
  <path class="cls-1" d="M263.35,226.02v1.5"/>
  <path class="cls-1" d="M361.45,304.63c-.4.52-1.07.81-1.29,1.5"/>
  <path class="cls-1" d="M69.93,320.69c-1.28,1.54.95,1.61,1.07,2.57"/>
  <path class="cls-1" d="M138.26,297.56c-.42.18-1.1-.44-1.29.43"/>
  <path class="cls-1" d="M305.97,259.22c.28.66.66,1.18,1.5,1.07"/>
  <path class="cls-1" d="M65,310.41c-1.03.25-.22,1.02-.43,1.5"/>
  <path class="cls-1" d="M129.05,287.06c-.13.27-.51.16-.64.43"/>
</svg>