<?xml version="1.0" encoding="UTF-8"?>
<svg id="icons" xmlns="http://www.w3.org/2000/svg" viewBox="0 0 500 500">
  <defs>
    <style>
      .cls-1 {
        fill: none;
        stroke: #000;
        stroke-linecap: round;
        stroke-linejoin: round;
        stroke-width: .88px;
      }
    </style>
  </defs>
  <path class="cls-1" d="M224.97,89.29c-4.28.82-8.41,2.18-12.6,3.34-11.74,3.25-23.52,6.36-35.17,9.94-6.61,2.03-13.33,3.74-19.47,7.07-1.84,1-3.65,2.09-5.27,3.37-3.71,2.94-5.08,7.12-5.09,11.68-.07,18.72-.09,37.45,0,56.17.04,7.08.19,14.15.19,21.23,0,7.96.08,15.92-.04,23.88-.04,2.87-.19,5.75-.17,8.63,0,.67-.32,1.44.41,2,.21.16.4.45.24.2-.01-.02.14-.14.21-.21"/>
  <path class="cls-1" d="M135.18,248.75c-3.01.9-4.18,2.41-4.2,5.53-.02,3.61.22,7.24-.06,10.83-.33,4.14,1.78,6.77,4.95,8.58,6.81,3.9,13.82,7.44,20.75,11.13,9.55,5.08,19.29,9.8,28.74,15.05,9.59,5.33,18.96,11.06,28.35,16.74,5.54,3.35,11.39,6.2,17.9,7.06,4.77.63,9.53.64,14.39-.3,14.84-2.88,28.91-8.2,43.11-13.14,5.57-1.94,11.14-3.92,16.58-6.22.56-.24,1.05-.07,1.56-.19"/>
  <path class="cls-1" d="M149.33,124.46c.01,36.71-.13,73.43.44,110.14"/>
  <path class="cls-1" d="M367.39,259.81c-2.77,2.86-6.35,4.46-9.97,5.69-11.31,3.86-22.43,8.21-33.6,12.43-19.11,7.22-38.28,14.27-57.71,20.61-6.12,2-12.12,4.39-18.38,5.89-6.06,1.46-12.22,2.14-18.34.24-2.87-.89-5.59-2.24-8.18-3.76-11.26-6.58-22.68-12.87-34.08-19.2-12.34-6.85-24.82-13.48-37.13-20.39-1.57-.88-3.26-.4-4.9-.77-4.49-1-8.69-2.33-11.7-6.07"/>
  <path class="cls-1" d="M337.76,135.29c0,35.31,0,70.62.01,105.93,0,.73-.26,1.51.21,2.21"/>
  <path class="cls-1" d="M172.77,134.63v97.75"/>
  <path class="cls-1" d="M267.65,104.55c.82-5.88.54-11.8.57-17.69.05-8.84.83-17.74-.25-26.52-.7-5.71-3.39-8.13-9.16-8.65-1.05-.09-1.92.42-2.88.67-6.64,1.77-13.2,3.78-19.89,5.35-3.11.73-5.91,2.36-8.41,4.39-1.24,1-1.78,2.41-2,3.97-.4,2.79-.21,5.6-.21,8.4.01,8.55-.31,17.11-.14,25.65.07,3.6.34,7.22.34,10.84,0,.98,7.35,3.35,8.21,3.8"/>
  <path class="cls-1" d="M268.53,86.42c6.35,2.6,12.85,4.8,19.25,7.28,10.63,4.13,21.44,7.79,32.07,11.93,6.91,2.69,13.93,5.09,20.54,8.47,4.72,2.41,9,5.36,10.49,11,.18.68.33,1.34.35,2.01.94,36.19.23,72.39.48,108.59,0,1.1-.53,2.26.19,3.32"/>
  <path class="cls-1" d="M252.39,151v93.33c0,10.39,0,20.79.02,31.18,0,.66.21,1.39.21,1.99"/>
  <path class="cls-1" d="M336.65,256.49c-4.25,1.88-8.68,3.3-13.07,4.82-14.81,5.12-29.63,10.19-44.44,15.31-8.2,2.83-16.36,5.75-24.55,8.63-.91.32-1.62,1.11-2.65,1.11"/>
  <path class="cls-1" d="M267.43,145.69c-1.27-.21-.87.74-.87,1.33-.02,3.83-.01,7.67-.01,11.5v79.17"/>
  <path class="cls-1" d="M225.85,162.5c.02,38.63-.13,77.26.44,115.89"/>
  <path class="cls-1" d="M283.35,372.6c-.09,3.26.37,6.57-.88,9.73-.23.6.23,1.15.23,1.77-.03,4.79.07,9.59-.04,14.37-.08,3.19.41,6.34.45,9.51.08,6.34-.04,12.68.05,19.02.05,3.17-.48,6.26-1.2,9.27-.77,3.23-3.2,5.62-5.74,7.46-3.78,2.73-7.9,4.93-12.54,6.09-5.54,1.38-11.17,2.28-16.81,1.65-7.8-.87-15.23-3.12-21.68-7.88-4-2.96-5.74-7.28-7.06-11.84"/>
  <path class="cls-1" d="M220.1,151c0,3.32-.04,6.64,0,9.95.33,22.86-.67,45.7-.46,68.56.02,1.84-.56,3.69,0,5.53"/>
  <path class="cls-1" d="M162.16,123.57c0,6.19.17,12.39.15,18.58-.02,4.57-.04,9.14-.17,13.71-.04,1.56.26,3.09.26,4.64-.02,20.49.11,40.99-.09,61.48-.06,6.11.2,12.25-.37,18.36"/>
  <path class="cls-1" d="M181.4,298.07c-.6.65-.46,1.45-.44,2.21.12,3.98-.36,7.99.43,11.94.81,4.03,3.03,7.14,5.94,9.98,4.98,4.88,11.25,7.36,17.51,9.9,1.72.7,3.46,1.38,5.28,1.87,1.01.27,2.22.78,2.87,1.71,2.89,4.1,7.57,5.24,11.78,6.98,4.69,1.94,9.73,3.11,14.79,3.54,5.2.44,10.41.79,15.71.2,5.64-.63,11.16-1.59,16.57-3.23,4.19-1.27,8.15-3.1,11.96-5.28.48-.28.91-.49.88-1.12"/>
  <path class="cls-1" d="M318.74,299.62c-.01,3.71-.22,7.37-.81,11.07-.98,6.17-4.58,10.46-9.17,14.12-5.75,4.58-12.59,7.36-19.29,10.03-5.78,2.31-12.1,3.23-18.28,4.43-5.36,1.05-10.73,1.89-16.16,2.33-5.76.47-11.48.17-17.26-.5-7.99-.92-15.56-3.24-23.19-5.49-.49-.14-.75.05-1.12.05"/>
  <path class="cls-1" d="M363.85,251.84c1.4.43,2.75,1.08,3.94,1.83,2,1.25,2.22,3.64,2.4,5.7.38,4.41,0,8.85-.22,13.26-.22,4.32-3.06,7.04-6.79,8.84-8.18,3.94-16.8,6.81-25.2,10.2-6.11,2.46-12.25,4.84-18.38,7.24-2.84,1.11-5.74,2.09-8.6,3.15-1.67.62-3.09,1.31-4.34,2.98-2.03,2.7-5.28,4.23-8.28,5.84-7.96,4.29-16.5,7.07-24.98,10.21-1.52.56-10.61,2.39-15.92,3.57-4.62,1.02-9.31,1.33-13.95,2.1"/>
  <path class="cls-1" d="M329.79,153.21c.17,31.26-.41,62.52.44,93.77"/>
  <path class="cls-1" d="M282.25,382.77c-5.38,6.42-12.82,8.94-20.57,10.83-6.11,1.49-12.36,1.65-18.57,1.28-6.89-.41-13.49-2.08-19.01-6.59-.62-.51-1.2-.89-2.01-.87"/>
  <path class="cls-1" d="M213.47,143.48c-10.62-5.31-21.17-10.74-31.87-15.88-8.09-3.89-16.06-8.03-24.52-11.13-1.25-.46-2.47-.98-3.77-1.3"/>
  <path class="cls-1" d="M245.31,166.92c-.65.8-.44,1.75-.44,2.65.13,28.01-.21,56.03.15,84.04.07,5.08.05,10.18-.04,15.26-.06,3.53.37,7.1-.34,10.62"/>
  <path class="cls-1" d="M162.38,249.63c6.3,3.82,12.79,7.3,19.25,10.82,9.1,4.96,18.19,9.92,27.24,14.98,3.67,2.05,7.25,4.36,11.24,5.82"/>
  <path class="cls-1" d="M218.55,383.84c1.19.58,1.82,4.71,2.56,5.68,4.76,6.29,11.24,9.39,18.82,10.86,7.38,1.43,14.65.74,21.9-.54,4.14-.73,7.93-2.62,11.73-4.38"/>
  <path class="cls-1" d="M236.91,327.48c-6.92.27-13.52-1.53-19.63-4.32-9.23-4.23-18.45-8.68-26.18-15.55-1.41-1.25-2.56-2.63-3.53-4.22-.43-.69-.83-1.62-1.97-1.34"/>
  <path class="cls-1" d="M273.62,155.42c0,17.84,0,35.68-.02,53.52,0,.73.26,1.51-.21,2.21"/>
  <path class="cls-1" d="M232.93,67.4c.3.78.48,1.57.45,2.43-.51,14.81-.1,29.64-.23,44.45"/>
  <path class="cls-1" d="M297.51,331.68c.35.71.22,1.47.22,2.21,0,7.15-.13,14.3.05,21.45.15,6.18-2.35,10.53-7.75,13.54-3.33,1.86-6.92,3.14-10.19,5.06-4.18,2.46-8.54,4.38-13.27,5.54-3.37.83-6.74,1.48-10.18,1.72-2.87.2-5.73.56-8.63.47-10.52-.32-20.32-2.7-29.01-9.03-3.16-2.3-6.8-3.92-10.16-5.98-4.23-2.6-6.05-6.21-5.97-11.1.12-7.22.03-14.45.04-21.67,0-.74-.14-1.5.22-2.21"/>
  <path class="cls-1" d="M251.06,113.4c-1.23,4.55-1.69,9.34-4.2,13.49-1.19,1.97-3.11,2.8-5.31,1.97-7.7-2.91-15.44-5.72-22.8-9.46-3-1.53-4.06-3.97-4.19-7.1-.27-6.15.18-6.2,6.02-8.75,1.34-.59,2.76-1.48,4.38-1.42"/>
  <path class="cls-1" d="M245.09,279.49c.92.13,1.66.72,2.41,1.15,2.94,1.67,4.6,4.08,4.27,7.7-.19,2.12-.29,4.29-.02,6.41.3,2.32-.68,3.76-2.69,4.64-8.16,3.61-16.44,4.55-24.74.61-2.19-1.04-4.01-2.78-3.56-5.7"/>
  <path class="cls-1" d="M348.37,122.25c-5.48,1.8-11.02,3.37-16.59,4.85-6.36,1.69-12.74,3.31-19.02,5.31-.33.11-.73.01-1.1.01"/>
  <path class="cls-1" d="M337.98,253.61c2.13.84,4.14,1.94,6.41,2.46,3.09.71,6.22.56,9.29.32,2.23-.18,4.54-.46,6.7-1.56.81-.42,1.47-.91,2.18-1.45.95.55,1.81.95,1.82,2.44.02,2.05-1.02,3.18-2.5,4.21-2.27,1.58-4.91,2.38-7.53,2.56-3.96.26-8,.63-11.94-.56-2.4-.73-4.73-1.52-6.19-3.77"/>
  <path class="cls-1" d="M288.22,118.71c1.84.92,3.69,1.77,3.34,4.43-.23,1.8-1.12,2.92-2.67,3.77-5.14,2.83-10.65,3.51-16.37,2.84-1.94-.23-3.86-.57-5.75-1.09"/>
  <path class="cls-1" d="M273.42,105.88c-1.1.09-5.13-.21-6.21.22-3.01,1.19-4.75,3.15-4.23,6.64.16,1.08.1,2.21.01,3.31-.29,3.69.77,4.05,3.57,5.04,6.81,2.4,13.4,2.01,19.46-2.35.13-.09.36-.37.64-.25"/>
  <path class="cls-1" d="M227.62,72.71v30.96"/>
  <path class="cls-1" d="M236.91,167.8v104.39"/>
  <path class="cls-1" d="M275.61,345.17c0,9.21,0,18.43,0,27.64,0,1.03-.06,2.06,0,3.1"/>
  <path class="cls-1" d="M251.28,292.98c-2.58,3.7-6.62,4.41-10.62,5.05-2.25.36-4.53.68-6.85.5-3.43-.27-6.69-1.28-9.93-2.29-.96-.3-1.93-1.1-2.45-2.15"/>
  <path class="cls-1" d="M232.93,349.15c0,9.36,0,18.72,0,28.09,0,.74.14,1.5-.22,2.21"/>
  <path class="cls-1" d="M276.72,134.19c5.11-1.09,10.02-2.75,14.59-5.32.87-.49,1.54-1.26,2.21-1.99,1.97-2.15,1.85-5.22-.46-7.04-1.71-1.35-3.72-2.23-5.95-2.46"/>
  <path class="cls-1" d="M338.2,243.88c-.23,3.98-.64,7.97.02,11.94.24,1.44,1.22,2.34,2.62,2.9,6.79,2.69,13.5,1.84,20.11-.53,1.47-.53,2.2-2.19,2.24-3.91"/>
  <path class="cls-1" d="M224.74,346.5c0,9.07,0,18.13,0,27.2,0,.74.14,1.5-.22,2.21"/>
  <path class="cls-1" d="M147.34,236.36c-3.16.76-6.43,1.02-9.32,2.82-1.56.97-2.14,2.17-2.17,3.81-.02,1.55-.15,3.1-.26,4.64-.22,3.03.11,3.94,2.91,5.29,4.51,2.16,9.23,2.74,14.15,1.59,2-.47,4.04-.83,5.96-1.58,2.26-.89,3.84-2.33,3.56-5.07-.1-.96.24-1.9.23-2.87-.05-4.25-1.85-6.53-5.99-7.53-2.55-.61-5.1-1.1-7.74-.88"/>
  <path class="cls-1" d="M264.33,56.34c-3.3.68-6.48,1.82-9.73,2.64-5.87,1.47-11.6,3.43-17.48,4.85-.53.13-.91.72-1.54.47"/>
  <path class="cls-1" d="M269.2,238.13c0,8.99.02,17.99-.04,26.98,0,.6-.33-.04-.85,1.77"/>
  <path class="cls-1" d="M216.56,342.74c0,8.63,0,17.25-.02,25.88,0,.73.26,1.51-.21,2.21"/>
  <path class="cls-1" d="M283.35,341.19v27.87"/>
  <path class="cls-1" d="M135.62,252.73c1.68,4.99,6.18,5.03,10.18,5.45,4.85.52,9.58-.36,13.95-2.76.18-.1.71-.63,1.08-.04"/>
  <path class="cls-1" d="M251.06,351.81v24.77"/>
  <path class="cls-1" d="M244.43,279.71c-3.8-1.91-7.89-1.72-11.94-1.52-3.96.2-7.37,1.81-10.17,4.63-.76.77-1.24,1.69-1.13,2.87.26,2.73-.91,5.43-.21,8.18"/>
  <path class="cls-1" d="M287.11,120.68c-3.01,3.39-7.7,3.88-11.73,4.38-2.94.36-6,.42-8.83-.83-1.62-.72-2.51-1.3-3.01-1.87"/>
  <path class="cls-1" d="M286.58,108.87c.13,1.08-2.7,3.19-3.66,3.66-5.02,2.45-10.21,2.49-15.48,1.07-1.57-.42-2.55-1.92-3.99-2.63"/>
  <path class="cls-1" d="M284.24,214.69c1.5-.17.86.95.87,1.55.02,14.23,0,28.46.05,42.68,0,.6-.04,2.03.85,3.84"/>
  <path class="cls-1" d="M267.43,137.28c-4.73,1.01-9.24,2.83-13.93,4.01-2.46.62-4.77,1.78-7.3,2.19"/>
  <path class="cls-1" d="M214.79,144.36c4.41,2.09,8.53,4.75,13.05,6.63,5.6,2.34,11.33,3.08,17.25,1.33.2-.06.44,0,.66,0"/>
  <path class="cls-1" d="M362.97,253.39c.39-3.31.57-6.7.05-9.93-.28-1.76-2.41-2.99-4.47-3.6-2.6-.77-4.95-1.06-7.8-.38-3.03.72-6.08,1.32-9.03,2.39-1.15.42-2.15,1.04-3.09,1.79"/>
  <path class="cls-1" d="M222.75,416.83c5.26,5.67,11.95,8.33,19.46,9.29"/>
  <path class="cls-1" d="M287.11,120.48c-.56-2.42-.27-4.88-.16-7.3.3-6.79-1.67-6.06-7.14-6.91-3.8-.59-5.16-.32-6.15-.41"/>
  <path class="cls-1" d="M218.11,119.81c-.49,2.72-.17,5.46-.2,8.18-.06,5.31-.02,10.62-.02,15.92"/>
  <path class="cls-1" d="M258.8,406.77c-3.59-.14-6.98,1.33-10.62,1.19-2.94-.11-5.68-.69-8.4-1.63"/>
  <path class="cls-1" d="M250.18,77.13c.02.44-.48.69-.05,1.36,3.67,5.7,3.09,11.48.01,17.2-.29.53-.42,1.25-1.07,1.57"/>
  <path class="cls-1" d="M217.89,372.38c.17,3.54-.73,7.13.46,10.61.65,1.91-.18,3.72-.36,5.52-.31,3.16-.74,6.25,1.04,9.06,1.13,1.78,1.17,4.08,2.84,5.55"/>
  <path class="cls-1" d="M235.36,127.33c-.5,4.79-.09,9.58-.22,14.38-.03,1.25,0,2.51,0,3.76"/>
  <path class="cls-1" d="M256.81,413.73c-2-.23-3.78.9-5.75.89-3.36-.01-6.69-.19-9.96-1.09-.77-.21-1.6-.35-2.43-.24"/>
  <path class="cls-1" d="M251.28,112.76c-2.31-.72-3.78-.06-5.97.42-3.65.8-7.26,1.82-11.06,1.55"/>
  <path class="cls-1" d="M252.39,420.37c-6.02-.04-11.93-.88-17.69-2.65"/>
  <path class="cls-1" d="M267.87,445.14c-5.58,1.97-11.33,2.86-17.25,2.65"/>
  <path class="cls-1" d="M222.09,284.13c1.77,3.92,5.61,4.29,9.08,5.03,3.65.78,7.37,1,11.06-.13.81-.25,3.59-1.39,3.59-1.39"/>
  <path class="cls-1" d="M214.79,223.32v15.7"/>
  <path class="cls-1" d="M215.01,181.96c-.35,6.04-.17,12.09-.22,18.13"/>
  <path class="cls-1" d="M267.43,361.1c0,4.05.02,8.11-.02,12.16,0,.51.39,1.22-.42,1.55"/>
  <path class="cls-1" d="M345.94,269.98c.5,3.75.11,7.52.21,11.28.05,1.99,0,3.98,0,5.97"/>
  <path class="cls-1" d="M268.53,91.06c3.76,1.25,7.46,2.69,11.28,3.76"/>
  <path class="cls-1" d="M161.94,250.96c1.15,1.33.21,2.67-.28,3.73-1.93,4.13-5.74,5.3-9.89,5.78-.54.06-1.18-.21-1.55.44"/>
  <path class="cls-1" d="M340.63,246.32c2.8,2.46,6.2,2.89,9.73,2.88,2.73-.01,5.39-.4,7.96-1.33,1.27-.46,2.63-.84,2.43-2.65"/>
  <path class="cls-1" d="M243.1,447.35c-3.95.22-7.46-1.39-11.06-2.65"/>
  <path class="cls-1" d="M241.33,145.25c-1.23-.24-2.33.4-3.53.49-4.21.3-8.02-.94-11.72-2.71-.66-.31-1.18-.93-1.99-.88"/>
  <path class="cls-1" d="M222.31,409.31c1.07,2.66,3.54,3.73,5.76,5.07,1.13.68,2.35,1.2,3.53,1.78"/>
  <path class="cls-1" d="M159.5,244.77c-2.66,1.87-5.73,2.08-8.84,2.51-3.47.49-6.57-.28-9.76-1.37-2.17-.74-2.9-2.12-2.64-4.24"/>
  <path class="cls-1" d="M209.48,99.25c-3.19.35-6.11,1.81-9.29,2.21"/>
  <path class="cls-1" d="M337.54,126.01c.51,2.94.07,5.9.22,8.85"/>
  <path class="cls-1" d="M298.83,136.4c-2.59.35-5.04,1.24-7.51,2.03-.48.15-.9.07-1.34.18"/>
  <path class="cls-1" d="M214.79,201.42c.3,2.95.37,5.9,0,8.85"/>
  <path class="cls-1" d="M225.85,152.32v8.4"/>
  <path class="cls-1" d="M224.52,401.35c2.57,1.63,5.18,3.19,7.96,4.42"/>
  <path class="cls-1" d="M253.27,427c-2.65-.07-5.32.18-7.96-.22"/>
  <path class="cls-1" d="M214.79,215.13v7.74"/>
  <path class="cls-1" d="M217.66,392.85c-.27.16-.24,24.39-.21,24.64.29,2.28.45,11.42.44,13.71"/>
  <path class="cls-1" d="M193.56,103.67c-2.5.03-4.62,1.58-7.08,1.77"/>
  <path class="cls-1" d="M257.25,444.03c-2.29.83-4.75.51-7.08,1.11"/>
  <path class="cls-1" d="M258.58,148.34c-2.46.19-4.58,1.74-7.08,1.77"/>
  <path class="cls-1" d="M231.16,410.64c2.11,1.14,4.65,1.2,6.63,2.65"/>
  <path class="cls-1" d="M319.18,281.92v11.94"/>
  <path class="cls-1" d="M316.08,108.98c-2.23-1-4.27-2.39-6.63-3.1"/>
  <path class="cls-1" d="M257.25,432.31c-2.22-.04-4.37,1.15-6.63.44"/>
  <path class="cls-1" d="M263.54,122.35c-.39-.03-1.14,1.17-1.65,2.96.23,1.24,1.1,2.13,2.45,2.45,1.71.4,2.44,1.32,2.23,3.12-.14,1.24-.03,2.5-.03,3.76"/>
  <path class="cls-1" d="M171.89,235.48c-1.62,4.16-1.16,6.08,2.21,9.29"/>
  <path class="cls-1" d="M235.14,442.04c-2.24-.25-4.04-1.72-6.19-2.21"/>
  <path class="cls-1" d="M275.17,441.38c-2.05.83-3.68,2.53-5.97,2.88"/>
  <path class="cls-1" d="M218.33,139.5c1.36-.04,2.18,1.37,3.54,1.33"/>
  <path class="cls-1" d="M263.67,120.03c.01,1.11-.13,1.4-.22,2.21"/>
  <path class="cls-1" d="M251.28,74.92c-3.52,1.6-4.94,4.81-5.68,8.2-.77,3.54-.88,7.19-.1,10.83.55,2.54,2.18,4.06,4.46,4.8,1.35.44,2.64-.15,3.77-1.24,2.54-2.46,3.23-5.68,3.66-8.88.4-3.01.14-6.09-.8-9.06-.87-2.77-2.7-4.5-5.1-4.64"/>
</svg>