<svg width="500" height="500" viewBox="0 0 500 500" fill="none" xmlns="http://www.w3.org/2000/svg">
<path d="M174.322 146.679C174.972 133.949 169.872 122.859 162.412 113.009C155.522 103.919 146.552 97.4887 135.662 94.0387C130.442 92.3887 125.062 91.4887 119.492 91.2887C112.432 91.0387 105.752 92.3187 99.2022 94.6487C91.6622 97.3287 85.0922 101.699 79.8322 107.639C73.1022 115.229 68.5222 124.129 65.7322 133.919C63.3522 142.279 62.3322 150.789 63.6322 159.389C65.4222 171.159 69.7222 181.829 78.0022 190.739C82.8122 195.919 88.0122 200.399 94.4322 203.479C100.342 206.309 106.502 207.809 113.012 208.209C121.712 208.749 129.892 206.659 137.812 203.369C139.372 202.719 140.832 201.629 142.392 200.879C147.732 198.299 152.402 194.839 156.402 190.479C164.142 182.039 169.762 172.499 172.262 161.139C173.302 156.399 173.892 151.659 174.332 146.869" stroke="#2071B5" stroke-width="3.2" stroke-linecap="round" stroke-linejoin="round"/>
<path d="M436.832 141.7C436.982 134.93 435.183 128.52 432.883 122.29C430.073 114.68 426.133 107.64 420.663 101.53C413.263 93.2603 404.193 87.8203 393.443 85.1403C386.883 83.5003 380.323 83.3703 373.573 84.1803C362.593 85.4903 353.663 90.6303 345.513 97.6503C337.843 104.25 332.443 112.47 328.543 121.66C326.333 126.85 325.133 132.41 324.353 138.03C323.683 142.85 323.352 147.69 323.992 152.49C324.902 159.25 326.243 165.93 329.313 172.15C333.053 179.72 337.913 186.4 344.453 191.77C349.663 196.05 355.343 199.6 361.713 201.93C368.823 204.53 376.173 206.04 383.733 205.55C399.043 204.56 412.273 199.18 422.213 186.86C427.143 180.74 431.133 174.19 433.593 166.74C435.763 160.16 436.993 153.4 437.063 146.45C437.083 144.93 436.683 143.44 436.843 141.92" stroke="#2071B5" stroke-width="3.2" stroke-linecap="round" stroke-linejoin="round"/>
<path d="M270.381 134.601C273.231 135.411 276.161 134.751 279.031 135.141C280.141 135.291 281.531 135.161 281.891 133.281C282.401 130.611 284.711 128.781 285.541 126.161C286.921 121.791 288.451 117.461 289.341 112.971C290.691 106.211 291.481 99.3307 290.811 92.4807C289.961 83.6907 287.911 75.1707 282.901 67.6507C282.101 63.5307 279.011 61.0206 276.181 58.3906C271.851 54.3706 266.521 52.0306 260.861 50.8906C251.831 49.0706 243.011 49.9307 234.751 54.4707C225.731 59.4207 220.421 67.3106 217.081 76.7206C215.421 81.3906 214.561 86.2306 213.951 91.1706C213.411 95.5806 213.471 99.9806 213.691 104.341C213.971 109.891 215.291 115.351 216.671 120.741C217.481 123.911 218.571 127.011 219.851 130.041C220.291 131.081 220.621 132.161 221.801 132.631" stroke="#2071B5" stroke-width="3.2" stroke-linecap="round" stroke-linejoin="round"/>
<path d="M394.518 94.6406C399.928 96.2306 404.448 99.4006 408.748 102.861C417.768 110.141 423.838 119.521 427.278 130.491C430.928 142.111 430.938 153.871 427.778 165.671C425.108 175.671 420.258 184.281 412.208 190.921C406.528 195.601 400.068 198.551 392.798 199.861C391.648 200.071 390.428 199.921 389.328 200.431" stroke="#2071B5" stroke-width="3.2" stroke-linecap="round" stroke-linejoin="round"/>
<path d="M425.609 176.668C428.879 171.118 430.589 165.058 431.679 158.758C432.349 154.888 432.889 150.918 432.799 147.098C432.559 136.958 429.899 127.378 425.029 118.338C421.519 111.838 417.299 105.968 412.209 100.678C406.009 94.2282 398.519 89.7782 389.749 88.2582C381.089 86.7482 372.319 87.2682 363.879 89.9382C358.839 91.5282 353.809 93.3382 349.609 96.7882" stroke="#2071B5" stroke-width="3.2" stroke-linecap="round" stroke-linejoin="round"/>
<path d="M226.558 366.43C225.908 369.38 226.498 372.34 226.618 375.28C226.798 379.53 227.088 383.78 227.158 388.02C227.338 399.11 228.108 410.18 228.348 421.26C228.468 426.8 228.858 432.34 228.908 437.88C228.958 444.41 229.688 445.05 236.288 447.77C239.358 449.04 242.688 449.23 245.978 449.6C247.928 449.82 249.878 450.11 251.808 449.94C258.368 449.37 264.838 448.55 270.628 444.85C274.188 442.57 275.748 439.55 275.768 435.51C275.788 431.34 275.678 427.16 275.798 422.99C275.888 419.81 272.038 416.85 269.938 416.77C268.318 416.71 266.948 417.8 265.418 418.27C257.988 420.52 250.468 421.1 242.728 420.27C238.828 419.85 235.168 418.88 231.498 417.64C230.438 417.28 229.948 417.04 228.488 416.3" stroke="#2071B5" stroke-width="3.2" stroke-linecap="round" stroke-linejoin="round"/>
<path d="M245.99 56.4202C244.51 55.4702 243.13 56.4702 241.91 56.9102C233.24 60.0902 226.99 65.7802 223.02 74.3002C219.31 82.2502 217.8 90.5602 217.28 99.1702C216.7 108.69 218.06 117.93 220.85 127.05C221.43 128.94 222.83 130.82 222.06 133.08C221.9 133.54 222.56 134.14 223.69 134.62" stroke="#2071B5" stroke-width="3.2" stroke-linecap="round" stroke-linejoin="round"/>
<path d="M144.737 199.119C144.587 198.229 145.127 197.839 145.807 197.369C154.557 191.339 160.067 182.729 164.557 173.409C168.047 166.149 169.777 158.399 170.227 150.329C170.947 137.549 167.227 126.229 159.667 115.969C155.247 109.969 149.787 105.169 143.167 102.079C136.127 98.7992 128.697 96.1692 120.767 95.9592C113.417 95.7592 106.337 96.8892 99.587 100.189C86.917 106.389 78.097 116.059 72.617 128.939C70.337 134.279 68.897 139.879 68.167 145.579C67.017 154.589 68.337 163.389 71.537 171.909C75.137 181.479 80.987 189.489 89.107 195.559C94.317 199.449 100.357 201.849 106.927 203.139C111.667 204.069 116.317 203.509 120.987 203.849C121.267 203.869 121.007 203.999 121.187 203.849C123.667 201.559 126.997 202.489 129.867 201.589C135.207 199.909 140.047 197.439 144.517 194.149C151.107 189.309 156.187 183.099 160.477 176.229C165.747 167.789 167.987 158.399 168.177 148.609C168.347 139.869 166.287 131.529 162.037 123.769C160.367 120.729 158.477 117.839 156.607 114.939" fill="#FFDA00" fill-opacity="0.7"/>
<path d="M144.737 199.119C144.587 198.229 145.127 197.839 145.807 197.369C154.557 191.339 160.067 182.729 164.557 173.409C168.047 166.149 169.777 158.399 170.227 150.329C170.947 137.549 167.227 126.229 159.667 115.969C155.247 109.969 149.787 105.169 143.167 102.079C136.127 98.7992 128.697 96.1692 120.767 95.9592C113.417 95.7592 106.337 96.8892 99.587 100.189C86.917 106.389 78.097 116.059 72.617 128.939C70.337 134.279 68.897 139.879 68.167 145.579C67.017 154.589 68.337 163.389 71.537 171.909C75.137 181.479 80.987 189.489 89.107 195.559C94.317 199.449 100.357 201.849 106.927 203.139C111.667 204.069 116.317 203.509 120.987 203.849C121.267 203.869 121.007 203.999 121.187 203.849C123.667 201.559 126.997 202.489 129.867 201.589C135.207 199.909 140.047 197.439 144.517 194.149C151.107 189.309 156.187 183.099 160.477 176.229C165.747 167.789 167.987 158.399 168.177 148.609C168.347 139.869 166.287 131.529 162.037 123.769C160.367 120.729 158.477 117.839 156.607 114.939" stroke="#2071B5" stroke-width="3.2" stroke-linecap="round" stroke-linejoin="round"/>
<path d="M283.124 130.037C282.484 128.517 283.164 127.107 283.574 125.727C285.544 119.097 286.624 112.347 287.054 105.427C287.654 95.9265 286.464 86.6765 282.584 78.0565C279.294 70.7365 274.794 64.0865 267.374 60.0665C266.824 59.7665 266.414 59.5265 265.844 59.8765" stroke="#2071B5" stroke-width="3.2" stroke-linecap="round" stroke-linejoin="round"/>
<path d="M285.261 340.608C281.561 346.838 274.831 349.268 268.431 350.808C259.081 353.068 249.571 353.558 239.951 352.658C233.811 352.088 227.801 351.178 222.031 348.938C218.741 347.668 216.051 345.558 213.641 343.078C212.551 341.958 213.321 337.528 214.701 335.978C217.971 332.278 222.211 330.618 227.011 330.148" stroke="#2071B5" stroke-width="3.2" stroke-linecap="round" stroke-linejoin="round"/>
<path d="M261.32 224.383C261.78 225.063 261.52 225.823 261.52 226.543C261.54 245.113 261.53 263.673 261.54 282.243C261.54 283.033 261.58 283.793 261.72 286.123" stroke="#2071B5" stroke-width="3.2" stroke-linecap="round" stroke-linejoin="round"/>
<path d="M226.99 334.263C225.89 334.193 224.97 334.863 224.22 335.393C221.01 337.673 222.59 340.683 225.01 342.093C228.47 344.103 232.23 344.883 236.06 345.463C241.85 346.343 247.7 346.563 253.54 346.323C260.13 346.053 266.62 345.113 272.76 342.473C273.54 342.133 274.58 341.553 275.78 340.303" stroke="#2071B5" stroke-width="3.2" stroke-linecap="round" stroke-linejoin="round"/>
<path d="M246.21 57.0703C241.14 60.9403 236.31 65.0003 233.01 70.6503C229.67 76.3703 227.88 82.5603 227.03 89.0203C226.05 96.4803 225.95 103.98 226.98 111.47C227.04 111.89 226.98 112.33 226.98 112.76" stroke="#2071B5" stroke-width="3.2" stroke-linecap="round" stroke-linejoin="round"/>
<path d="M236.929 224.602C236.929 237.912 237.009 251.232 236.889 264.542C236.839 270.662 236.699 276.772 236.729 282.892C236.729 283.982 236.309 284.982 236.439 286.132C236.749 288.922 236.979 289.572 239.739 290.192C244.209 291.192 248.669 292.102 253.349 291.172C255.379 290.772 257.469 290.672 259.369 289.792C261.809 288.662 262.169 288.712 261.639 285.902" stroke="#2071B5" stroke-width="3.2" stroke-linecap="round" stroke-linejoin="round"/>
<path d="M271.681 330.383C275.701 330.513 279.401 331.773 282.431 334.323C285.901 337.233 285.301 341.563 285.431 345.503C285.461 346.543 285.271 347.663 285.301 348.743C285.411 352.323 283.891 354.903 280.991 356.983C275.841 360.663 269.941 362.213 263.911 363.403C257.001 364.763 249.981 365.063 242.981 364.663C237.071 364.323 231.191 363.433 225.491 361.703C224.791 361.493 223.771 361.403 220.641 359.793" stroke="#2071B5" stroke-width="3.2" stroke-linecap="round" stroke-linejoin="round"/>
<path d="M273.186 364.921C273.186 367.511 273.376 370.121 273.146 372.691C272.766 376.861 272.696 381.041 272.586 385.221C272.316 395.081 271.646 407.141 271.406 417.011" stroke="#2071B5" stroke-width="3.2" stroke-linecap="round" stroke-linejoin="round"/>
<path d="M254.406 163.07C254.766 163.84 254.616 164.65 254.616 165.44C254.616 181.13 254.616 196.81 254.626 212.5C254.626 213.29 254.476 214.11 254.836 214.87" stroke="#2071B5" stroke-width="3.2" stroke-linecap="round" stroke-linejoin="round"/>
<path d="M263.691 116.222C263.421 114.382 262.821 112.622 262.331 110.842C261.381 107.312 258.341 105.562 255.241 104.662C249.471 102.982 243.651 103.132 237.751 104.902C232.521 106.482 230.511 110.042 230.041 114.932C229.791 117.522 229.981 120.082 228.601 122.542C227.931 123.732 229.181 125.032 230.451 125.712C231.521 126.292 232.791 126.202 233.871 126.492C239.811 128.052 245.831 127.732 251.821 127.592C254.851 127.522 257.961 127.172 260.871 126.112C261.341 125.942 261.751 125.952 262.181 125.952C264.211 125.952 264.761 124.952 264.771 122.912" fill="#FFDA00" fill-opacity="0.7"/>
<path d="M263.691 116.222C263.421 114.382 262.821 112.622 262.331 110.842C261.381 107.312 258.341 105.562 255.241 104.662C249.471 102.982 243.651 103.132 237.751 104.902C232.521 106.482 230.511 110.042 230.041 114.932C229.791 117.522 229.981 120.082 228.601 122.542C227.931 123.732 229.181 125.032 230.451 125.712C231.521 126.292 232.791 126.202 233.871 126.492C239.811 128.052 245.831 127.732 251.821 127.592C254.851 127.522 257.961 127.172 260.871 126.112C261.341 125.942 261.751 125.952 262.181 125.952C264.211 125.952 264.761 124.952 264.771 122.912" stroke="#2071B5" stroke-width="3.2" stroke-linecap="round" stroke-linejoin="round"/>
<path d="M323.486 147.633C321.626 148.523 317.996 148.633 316.116 149.623C314.946 150.243 313.606 149.193 312.266 149.213C305.576 149.293 298.876 149.413 292.186 149.013C284.636 148.563 277.056 148.583 269.516 147.943C269.166 147.913 268.966 148.193 268.656 148.173" stroke="#2071B5" stroke-width="3.2" stroke-linecap="round" stroke-linejoin="round"/>
<path d="M141.07 101.757C141.95 103.377 143.61 104.137 144.98 105.177C153.25 111.477 158.45 119.857 161.55 129.617C163.5 135.777 164.35 142.127 164.18 148.607C164.17 149.117 163.99 149.657 164.45 150.197C165.56 149.537 166.82 149.707 168.06 149.687" stroke="#2071B5" stroke-width="3.2" stroke-linecap="round" stroke-linejoin="round"/>
<path d="M242.966 370.961C242.746 387.371 243.416 403.771 243.396 420.181" stroke="#2071B5" stroke-width="3.2" stroke-linecap="round" stroke-linejoin="round"/>
<path d="M266.717 368.812C266.977 379.033 266.267 389.242 266.167 399.462C266.117 404.492 265.937 409.533 265.857 414.573C265.847 415.463 265.857 415.613 265.797 417.003" stroke="#2071B5" stroke-width="3.2" stroke-linecap="round" stroke-linejoin="round"/>
<path d="M222.552 134.008C221.522 134.798 219.602 135.398 218.362 135.448C209.292 135.808 200.222 136.188 191.152 136.648C185.822 136.918 180.502 137.228 175.182 137.568C174.792 137.598 174.462 137.718 174.102 137.798" stroke="#2071B5" stroke-width="3.2" stroke-linecap="round" stroke-linejoin="round"/>
<path d="M236.93 161.992C236.93 178.042 236.93 194.082 236.93 210.132C236.93 213.512 237.26 214.012 240.83 214.722C245.62 215.672 250.56 215.702 255.37 214.842C256.98 214.552 258.07 214.352 258.87 214.162C260.61 213.752 261.75 212.082 261.5 210.312C261.37 209.392 261.33 208.472 261.34 207.542C261.47 192.352 260.99 177.172 261.11 161.992" stroke="#2071B5" stroke-width="3.2" stroke-linecap="round" stroke-linejoin="round"/>
<path d="M260.668 58.5776C259.868 59.5176 258.627 59.2276 257.617 59.5876C250.937 61.9976 247.138 67.1876 244.548 73.2876C241.968 79.3576 240.908 85.8576 240.548 92.4676C240.408 95.0576 240.347 97.6676 239.938 100.238" stroke="#2071B5" stroke-width="3.2" stroke-linecap="round" stroke-linejoin="round"/>
<path d="M315.822 143.352C308.692 143.452 300.972 143.742 293.702 143.252C290.332 143.022 286.932 142.932 283.552 142.852C278.932 142.742 274.362 142.002 269.742 142.132" stroke="#2071B5" stroke-width="3.2" stroke-linecap="round" stroke-linejoin="round"/>
<path d="M228.072 138.459C227.572 137.629 226.792 137.539 225.912 137.589C215.342 138.189 204.742 138.079 194.172 138.829C191.102 139.049 187.962 138.829 184.902 139.179C181.372 139.569 177.842 139.789 174.312 140.189" stroke="#2071B5" stroke-width="3.2" stroke-linecap="round" stroke-linejoin="round"/>
<path d="M245.133 164.148V211.208" stroke="#2071B5" stroke-width="3.2" stroke-linecap="round" stroke-linejoin="round"/>
<path d="M228.289 142.132C212.769 142.152 197.329 143.622 181.479 144.612C182.789 148.082 181.039 150.572 179.049 152.902C177.719 154.462 175.779 153.582 174.109 153.782" stroke="#2071B5" stroke-width="3.2" stroke-linecap="round" stroke-linejoin="round"/>
<path d="M254.844 225.68C255.194 226.37 255.054 227.12 255.054 227.84C255.054 243.96 255.054 260.08 255.064 276.2C255.064 280.74 254.554 285.26 254.624 289.8" stroke="#2071B5" stroke-width="3.2" stroke-linecap="round" stroke-linejoin="round"/>
<path d="M245.544 226.141C245.544 246.581 245.564 268.061 245.554 288.501C245.554 289.291 245.704 290.111 245.344 290.871" stroke="#2071B5" stroke-width="3.2" stroke-linecap="round" stroke-linejoin="round"/>
<path d="M246.422 56.6425C249.892 55.4325 253.422 55.2525 257.002 56.0025C258.452 56.3025 259.812 56.8525 260.902 57.9225C261.052 58.0625 260.982 58.3325 261.312 58.3925C262.822 58.6725 264.522 58.8525 265.592 59.9225C270.672 64.9525 275.232 70.3825 277.952 77.1425C280.282 82.9325 281.832 88.9325 282.612 95.0825C283.282 100.432 283.322 105.862 282.912 111.262C282.422 117.652 281.352 123.922 279.442 130.042C278.942 131.652 278.272 133.192 277.292 134.582" stroke="#2071B5" stroke-width="3.2" stroke-linecap="round" stroke-linejoin="round"/>
<path d="M269.518 298.211C266.478 300.041 263.318 301.571 259.808 302.331C254.078 303.561 248.348 303.661 242.528 303.031C239.298 302.681 236.258 301.991 233.228 300.861C231.728 300.301 230.378 299.621 229.148 298.651" stroke="#2071B5" stroke-width="3.2" stroke-linecap="round" stroke-linejoin="round"/>
<path d="M229.148 290.438C231.738 293.708 235.598 294.418 239.308 295.118C242.838 295.788 246.468 296.328 250.088 296.028C254.888 295.618 259.728 295.348 264.348 293.708C266.248 293.038 267.928 292.048 269.518 290.878" stroke="#2071B5" stroke-width="3.2" stroke-linecap="round" stroke-linejoin="round"/>
<path d="M256.141 369.891C256.501 370.651 256.351 371.471 256.351 372.261C256.351 387.521 256.351 402.771 256.351 418.031" stroke="#2071B5" stroke-width="3.2" stroke-linecap="round" stroke-linejoin="round"/>
<path d="M228.43 143.829C228.42 144.409 227.86 145.339 224.72 145.949C221.01 145.979 216.58 146.649 212.1 146.689C202.89 146.779 193.69 147.529 184.47 147.309C183.964 147.295 183.164 147.275 182.07 147.249" stroke="#2071B5" stroke-width="3.2" stroke-linecap="round" stroke-linejoin="round"/>
<path d="M254.972 287.556C262.092 286.486 263.052 284.656 264.792 285.436C265.792 285.886 266.842 286.296 267.772 286.816C270.022 288.056 270.042 290.486 270.122 292.606C270.322 297.706 270.022 302.826 270.382 307.936C270.902 315.266 270.702 322.626 271.352 329.966C271.572 332.406 271.652 335.046 270.992 337.506C270.482 339.386 268.792 340.206 267.142 340.976C263.442 342.686 259.512 343.476 255.482 343.766C247.182 344.366 238.942 344.246 231.092 340.966C227.532 339.476 227.732 339.426 227.592 335.366C227.342 328.086 228.062 320.836 228.132 313.566C228.172 309.326 227.902 305.046 228.362 300.836C228.732 297.446 227.872 294.096 228.782 290.646C229.442 288.136 230.862 286.916 232.832 285.976C233.812 285.516 234.862 284.966 236.052 285.066" fill="#FFDA00" fill-opacity="0.7"/>
<path d="M254.972 287.556C262.092 286.486 263.052 284.656 264.792 285.436C265.792 285.886 266.842 286.296 267.772 286.816C270.022 288.056 270.042 290.486 270.122 292.606C270.322 297.706 270.022 302.826 270.382 307.936C270.902 315.266 270.702 322.626 271.352 329.966C271.572 332.406 271.652 335.046 270.992 337.506C270.482 339.386 268.792 340.206 267.142 340.976C263.442 342.686 259.512 343.476 255.482 343.766C247.182 344.366 238.942 344.246 231.092 340.966C227.532 339.476 227.732 339.426 227.592 335.366C227.342 328.086 228.062 320.836 228.132 313.566C228.172 309.326 227.902 305.046 228.362 300.836C228.732 297.446 227.872 294.096 228.782 290.646C229.442 288.136 230.862 286.916 232.832 285.976C233.812 285.516 234.862 284.966 236.052 285.066" stroke="#2071B5" stroke-width="3.2" stroke-linecap="round" stroke-linejoin="round"/>
<path d="M417.831 118.812C421.111 124.472 423.061 130.632 424.511 136.952C425.821 142.642 426.011 148.362 425.521 154.232C425.131 158.862 424.461 163.373 423.221 167.823C421.711 173.223 418.931 177.982 415.681 182.512C414.511 184.142 412.981 185.442 411.781 187.042" stroke="#2071B5" stroke-width="3.2" stroke-linecap="round" stroke-linejoin="round"/>
<path d="M133.952 154.647C127.922 155.227 121.842 155.267 115.812 155.927C114.742 156.047 113.652 155.947 112.572 155.947C105.302 155.947 98.0324 156.157 90.7724 155.887C84.1924 155.647 77.5724 155.457 71.1124 153.817C70.1824 153.587 69.3624 152.847 68.3124 153.137" stroke="#2071B5" stroke-width="3.2" stroke-linecap="round" stroke-linejoin="round"/>
<path d="M229.367 121.844C231.087 124.214 233.847 124.174 236.287 124.594C241.857 125.554 247.517 125.264 253.107 124.964C256.577 124.784 260.237 124.594 263.457 122.874C264.047 122.564 264.347 123.084 264.777 122.914" stroke="#2071B5" stroke-width="3.2" stroke-linecap="round" stroke-linejoin="round"/>
<path d="M281.547 134.641C281.777 134.901 282.497 135.471 282.907 135.451C288.097 135.211 293.277 135.621 298.447 135.891C304.127 136.181 309.837 136.401 315.487 136.881C318.287 137.121 321.197 136.511 323.917 137.601" stroke="#2071B5" stroke-width="3.2" stroke-linecap="round" stroke-linejoin="round"/>
<path d="M269.211 145.219C271.671 145.669 272.371 145.779 274.281 145.959C284.461 146.899 294.711 146.999 304.931 147.269C308.961 147.379 312.981 147.839 317.021 147.529" stroke="#2071B5" stroke-width="3.2" stroke-linecap="round" stroke-linejoin="round"/>
<path d="M370.77 111.469C369.36 115.099 367.81 118.649 366.8 122.459C365.7 126.609 364.98 130.789 364.27 134.999C363.55 139.219 363.2 143.499 363.32 147.739C363.43 151.619 363.42 155.519 363.72 159.409C364.06 163.849 365.25 168.039 366.02 172.349" stroke="#2071B5" stroke-width="3.2" stroke-linecap="round" stroke-linejoin="round"/>
<path d="M375.953 145.797C376.633 146.257 377.393 145.997 378.113 145.997C391.353 146.017 404.593 146.007 417.833 146.007" stroke="#2071B5" stroke-width="3.2" stroke-linecap="round" stroke-linejoin="round"/>
<path d="M228.791 147.988C224.601 147.818 220.381 148.498 216.201 148.438C212.611 148.388 209.001 148.668 205.411 148.858C200.801 149.108 196.191 149.298 191.591 149.398C188.631 149.468 185.691 149.688 182.741 149.888C182.331 149.918 181.521 150.038 181.101 150.038" stroke="#2071B5" stroke-width="3.2" stroke-linecap="round" stroke-linejoin="round"/>
<path d="M164.166 150.547C164.276 156.897 162.486 162.937 160.616 168.867C159.286 173.097 156.976 176.997 154.206 180.537C153.766 181.097 153.496 181.697 153.156 182.287" stroke="#2071B5" stroke-width="3.2" stroke-linecap="round" stroke-linejoin="round"/>
<path d="M233.008 213.842C235.028 216.102 239.808 217.622 242.588 218.152C248.628 219.302 252.118 219.112 258.118 217.572C260.198 217.042 263.188 216.512 264.598 214.882C265.428 213.932 265.528 212.162 265.128 211.482C264.468 210.352 263.338 209.392 261.758 209.482" stroke="#2071B5" stroke-width="3.2" stroke-linecap="round" stroke-linejoin="round"/>
<path d="M121.434 146.018C111.064 145.968 100.714 146.698 90.3436 146.448" stroke="#2071B5" stroke-width="3.2" stroke-linecap="round" stroke-linejoin="round"/>
<path d="M265.206 151.203C265.536 154.263 263.076 154.723 261.096 155.263C254.876 156.963 248.576 157.503 242.096 156.703C239.136 156.343 236.516 155.463 233.906 154.233" stroke="#2071B5" stroke-width="3.2" stroke-linecap="round" stroke-linejoin="round"/>
<path d="M421.717 156.811C417.567 157.741 413.397 158.591 409.187 159.121C405.537 159.581 401.867 159.981 398.187 160.331C389.057 161.201 379.907 161.341 370.767 161.051C363.717 160.831 356.647 160.631 349.597 159.901C342.667 159.181 335.727 158.591 328.877 157.271C328.027 157.111 327.217 156.591 326.297 156.811" stroke="#2071B5" stroke-width="3.2" stroke-linecap="round" stroke-linejoin="round"/>
<path d="M213.117 341.109C213.087 342.789 212.997 349.119 213.267 351.959C213.617 355.729 216.677 357.659 219.687 359.259C221.517 360.229 223.097 361.099 224.057 363.159C224.997 365.189 226.937 366.379 229.157 367.109C234.847 368.969 240.657 369.839 246.647 369.939C253.097 370.049 259.457 369.599 265.637 367.699C268.747 366.739 271.897 365.729 274.487 363.619C275.457 362.819 276.137 361.789 275.797 360.399" stroke="#2071B5" stroke-width="3.2" stroke-linecap="round" stroke-linejoin="round"/>
<path d="M264.133 354.132C256.753 355.132 249.323 355.022 241.893 355.012C239.793 355.012 237.753 354.272 235.633 354.562" stroke="#2071B5" stroke-width="3.2" stroke-linecap="round" stroke-linejoin="round"/>
<path d="M316.594 137.603C316.464 138.163 316.214 138.663 315.864 139.163C315.764 139.303 315.594 139.353 315.424 139.303C313.984 138.853 312.454 139.023 310.974 138.963C302.844 138.643 294.724 138.023 286.584 137.773C281.764 137.623 276.944 137.373 272.114 137.383C271.074 137.383 270.064 137.433 269.094 137.823" stroke="#2071B5" stroke-width="3.2" stroke-linecap="round" stroke-linejoin="round"/>
<path d="M378.982 103.7C375.882 102.47 372.792 101.29 369.492 100.64C363.752 99.5196 358.082 99.4596 352.432 101.09C352.102 101.19 351.712 101.1 351.352 101.1" stroke="#2071B5" stroke-width="3.2" stroke-linecap="round" stroke-linejoin="round"/>
<path d="M260.893 128.531C258.133 128.711 255.453 129.491 252.693 129.621C248.653 129.811 244.653 129.981 240.593 129.511C238.443 129.261 236.333 128.561 234.133 128.751" stroke="#2071B5" stroke-width="3.2" stroke-linecap="round" stroke-linejoin="round"/>
<path d="M147.977 125.289C149.507 128.929 150.867 132.629 151.637 136.519C152.127 139.019 152.477 141.539 152.787 144.069C153.087 146.519 153.147 148.959 153.157 151.419" stroke="#2071B5" stroke-width="3.2" stroke-linecap="round" stroke-linejoin="round"/>
<path d="M350.906 191.781C352.496 192.491 353.716 193.771 355.236 194.571C361.406 197.801 367.876 199.991 374.866 200.711C377.036 200.931 379.226 200.431 381.346 201.071" stroke="#2071B5" stroke-width="3.2" stroke-linecap="round" stroke-linejoin="round"/>
<path d="M380.922 89.2422C386.402 90.0022 391.872 90.7522 397.132 92.6522C400.362 93.8222 403.162 95.7222 406.182 97.2322" stroke="#2071B5" stroke-width="3.2" stroke-linecap="round" stroke-linejoin="round"/>
<path d="M355.228 134.36C355.038 139.55 354.188 144.69 354.318 149.9C354.398 153.09 354.858 156.23 355.018 159.4" stroke="#2071B5" stroke-width="3.2" stroke-linecap="round" stroke-linejoin="round"/>
<path d="M243.828 421.476V445.866" stroke="#2071B5" stroke-width="3.2" stroke-linecap="round" stroke-linejoin="round"/>
<path d="M261.971 132.852C257.421 135.212 255.081 140.572 256.131 144.732C256.891 147.762 258.921 149.732 261.581 150.902C262.871 151.472 264.551 150.692 266.071 150.692C267.031 150.692 267.811 149.732 268.011 148.612" stroke="#2071B5" stroke-width="3.2" stroke-linecap="round" stroke-linejoin="round"/>
<path d="M255.922 422.781V446.101" stroke="#2071B5" stroke-width="3.2" stroke-linecap="round" stroke-linejoin="round"/>
<path d="M399.703 122.273C401.403 125.743 403.413 129.033 404.933 132.613C408.203 140.313 409.443 148.303 409.203 156.593C409.193 157.093 409.203 157.603 409.203 158.103" stroke="#2071B5" stroke-width="3.2" stroke-linecap="round" stroke-linejoin="round"/>
<path d="M260.667 310.948C257.637 311.968 256.257 314.757 257.397 317.217C258.127 318.777 259.377 319.397 260.877 319.307C262.297 319.227 263.097 318.358 263.537 316.788C264.447 313.498 264.027 312.258 260.877 310.938" stroke="#2071B5" stroke-width="3.2" stroke-linecap="round" stroke-linejoin="round"/>
<path d="M223.539 134.569C225.779 135.129 227.979 135.849 230.039 133.939C231.299 132.769 232.679 132.829 234.139 133.889C235.959 135.209 237.649 136.629 238.639 138.669C240.309 142.089 239.399 145.149 237.129 147.939C235.889 149.469 234.149 150.429 232.599 151.619" stroke="#2071B5" stroke-width="3.2" stroke-linecap="round" stroke-linejoin="round"/>
<path d="M229.942 149.31C234.872 147.57 237.552 140.98 233.682 137.17C231.872 135.38 230.822 135.39 229.402 137.41C228.802 138.26 228.042 139.02 228.592 140.56C229.212 142.28 227.692 144.03 228.642 147.56" stroke="#2071B5" stroke-width="3.2" stroke-linecap="round" stroke-linejoin="round"/>
<path d="M267.239 136.077C265.349 135.367 262.179 135.147 260.899 136.947C259.439 138.997 258.499 141.267 259.179 143.837C259.909 146.607 262.669 149.237 265.029 150.757" stroke="#2071B5" stroke-width="3.2" stroke-linecap="round" stroke-linejoin="round"/>
<path d="M162.013 149.688C156.513 150.968 150.973 152.048 145.403 152.978C141.733 153.598 138.033 153.968 134.383 154.648" stroke="#2071B5" stroke-width="3.2" stroke-linecap="round" stroke-linejoin="round"/>
<path d="M265.243 213.501C265.373 215.401 265.583 218.151 265.353 220.051C265.053 222.481 262.843 223.431 260.873 224.121C255.273 226.061 249.403 225.931 243.623 225.581C240.693 225.401 237.683 224.821 234.973 223.331C233.283 222.401 232.533 221.191 232.563 219.211C232.593 217.051 232.633 214.871 232.903 212.741C233.133 210.891 234.733 210.051 236.503 209.711" stroke="#2071B5" stroke-width="3.2" stroke-linecap="round" stroke-linejoin="round"/>
<path d="M228.937 148.391C229.447 149.861 231.047 150.151 232.047 151.101C233.347 152.331 233.567 153.551 233.467 155.081C233.207 159.291 234.427 160.671 238.637 161.801C246.077 163.811 253.487 163.151 260.877 161.731C264.347 161.061 265.567 158.461 264.767 154.211" stroke="#2071B5" stroke-width="3.2" stroke-linecap="round" stroke-linejoin="round"/>
<path d="M269.553 428.081C269.613 425.501 268.213 423.541 266.293 423.661C264.763 423.761 263.613 425.421 263.003 427.301C262.233 429.631 263.813 431.281 265.863 431.631C267.193 431.861 269.323 430.601 269.543 428.181" stroke="#2071B5" stroke-width="3.2" stroke-linecap="round" stroke-linejoin="round"/>
<path d="M267.153 136.078C265.003 136.748 263.213 138.908 263.053 141.048C262.823 144.138 263.943 146.378 266.293 147.528C266.933 147.838 267.583 148.108 268.233 148.388" stroke="#2071B5" stroke-width="3.2" stroke-linecap="round" stroke-linejoin="round"/>
<path d="M355.438 160.703C355.158 163.273 356.188 165.623 356.758 168.033C357.278 170.223 358.028 172.353 358.678 174.513" stroke="#2071B5" stroke-width="3.2" stroke-linecap="round" stroke-linejoin="round"/>
<path d="M269.309 443.07C262.719 445.67 255.859 446.74 248.799 446.51C243.539 446.34 238.399 445.45 233.469 443.5" stroke="#2071B5" stroke-width="3.2" stroke-linecap="round" stroke-linejoin="round"/>
<path d="M262.828 325.203V336.863" stroke="#2071B5" stroke-width="3.2" stroke-linecap="round" stroke-linejoin="round"/>
<path d="M134.172 142.992V155.512" stroke="#2071B5" stroke-width="3.2" stroke-linecap="round" stroke-linejoin="round"/>
<path d="M408.979 159.398C409.079 162.688 408.049 165.778 407.209 168.888C407.089 169.348 407.149 169.768 407.039 170.198" stroke="#2071B5" stroke-width="3.2" stroke-linecap="round" stroke-linejoin="round"/>
<path d="M254.196 220.711H243.406" stroke="#2071B5" stroke-width="3.2" stroke-linecap="round" stroke-linejoin="round"/>
<path d="M236.063 110.609C234.093 113.979 234.303 117.709 234.333 121.399" stroke="#2071B5" stroke-width="3.2" stroke-linecap="round" stroke-linejoin="round"/>
<path d="M237.789 314.398V325.188" stroke="#2071B5" stroke-width="3.2" stroke-linecap="round" stroke-linejoin="round"/>
<path d="M376.386 145.148C375.646 145.808 374.876 146.098 373.796 146.058C370.416 145.938 367.036 146.018 363.656 146.018" stroke="#2071B5" stroke-width="3.2" stroke-linecap="round" stroke-linejoin="round"/>
<path d="M237.359 328.219V342.679" stroke="#2071B5" stroke-width="3.2" stroke-linecap="round" stroke-linejoin="round"/>
<path d="M132.867 146.023H122.937" stroke="#2071B5" stroke-width="3.2" stroke-linecap="round" stroke-linejoin="round"/>
<path d="M89.9131 146.453H80.2031" stroke="#2071B5" stroke-width="3.2" stroke-linecap="round" stroke-linejoin="round"/>
<path d="M132.867 105.86C129.837 103.88 126.937 101.66 123.367 100.68" stroke="#2071B5" stroke-width="3.2" stroke-linecap="round" stroke-linejoin="round"/>
<path d="M130.281 162.422C131.331 165.452 133.031 168.172 134.411 171.042C134.561 171.352 134.551 171.622 134.601 171.922" stroke="#2071B5" stroke-width="3.2" stroke-linecap="round" stroke-linejoin="round"/>
<path d="M263.047 126.367C262.437 127.747 260.687 128.437 261.007 130.487C261.177 131.607 261.847 132.537 262.397 132.537C264.397 132.537 268.467 134.217 270.267 134.577" stroke="#2071B5" stroke-width="3.2" stroke-linecap="round" stroke-linejoin="round"/>
<path d="M246.422 324.328V333.398" stroke="#2071B5" stroke-width="3.2" stroke-linecap="round" stroke-linejoin="round"/>
<path d="M120.781 143.859C123.231 148.749 125.671 153.649 128.121 158.539" stroke="#2071B5" stroke-width="3.2" stroke-linecap="round" stroke-linejoin="round"/>
<path d="M254.633 287.628C249.683 288.368 244.763 288.477 239.953 286.777C239.693 286.687 237.673 285.188 237.383 285.188" stroke="#2071B5" stroke-width="3.2" stroke-linecap="round" stroke-linejoin="round"/>
<path d="M145.39 146.023H136.75" stroke="#2071B5" stroke-width="3.2" stroke-linecap="round" stroke-linejoin="round"/>
<path d="M341.843 146.023H333.203" stroke="#2071B5" stroke-width="3.2" stroke-linecap="round" stroke-linejoin="round"/>
<path d="M359.977 177.102C360.867 179.892 362.457 182.342 363.867 184.872" stroke="#2071B5" stroke-width="3.2" stroke-linecap="round" stroke-linejoin="round"/>
<path d="M271.68 334.258C272.92 334.748 274.12 335.268 275.15 336.178C276.55 337.418 276.84 338.728 275.78 340.298" stroke="#2071B5" stroke-width="3.2" stroke-linecap="round" stroke-linejoin="round"/>
<path d="M151.004 164.148C150.754 166.598 149.484 168.728 148.844 171.058" stroke="#2071B5" stroke-width="3.2" stroke-linecap="round" stroke-linejoin="round"/>
<path d="M366.453 188.328C368.283 190.518 370.303 192.538 372.493 194.368" stroke="#2071B5" stroke-width="3.2" stroke-linecap="round" stroke-linejoin="round"/>
<path d="M143.656 188.328C142.506 190.638 140.086 191.668 138.476 193.508" stroke="#2071B5" stroke-width="3.2" stroke-linecap="round" stroke-linejoin="round"/>
<path d="M263.68 116.133C263.84 118.043 263.55 120.623 263.91 122.483" stroke="#2071B5" stroke-width="3.2" stroke-linecap="round" stroke-linejoin="round"/>
<path d="M90.1327 143.859V152.059" stroke="#2071B5" stroke-width="3.2" stroke-linecap="round" stroke-linejoin="round"/>
<path d="M399.703 122.922C397.943 124.542 396.453 126.442 394.523 127.892" stroke="#2071B5" stroke-width="3.2" stroke-linecap="round" stroke-linejoin="round"/>
<path d="M315.656 139.312C316.346 140.652 315.826 142.112 315.886 143.432C315.926 144.262 316.456 146.613 317.206 147.173" stroke="#2071B5" stroke-width="3.2" stroke-linecap="round" stroke-linejoin="round"/>
<path d="M409.203 114.5C407.543 115.55 406.543 117.34 404.883 118.39" stroke="#2071B5" stroke-width="3.2" stroke-linecap="round" stroke-linejoin="round"/>
<path d="M232.609 126.797C234.259 129.107 234.399 131.107 233.039 133.057" stroke="#2071B5" stroke-width="3.2" stroke-linecap="round" stroke-linejoin="round"/>
<path d="M267.281 136.078C268.941 137.378 269.271 139.968 269.631 141.628C269.911 142.938 269.411 143.758 268.361 148.288" stroke="#2071B5" stroke-width="3.2" stroke-linecap="round" stroke-linejoin="round"/>
<path d="M316.844 137.172C317.704 139.482 320.584 140.822 320.474 142.562C320.344 144.552 316.094 146.522 317.884 148.602" stroke="#2071B5" stroke-width="3.2" stroke-linecap="round" stroke-linejoin="round"/>
<path d="M181.438 139.968C182.048 141.528 181.298 143.148 181.658 144.718" stroke="#2071B5" stroke-width="3.2" stroke-linecap="round" stroke-linejoin="round"/>
<path d="M228.719 135.219C228.979 136.209 228.299 136.859 227.859 137.589" stroke="#2071B5" stroke-width="3.2" stroke-linecap="round" stroke-linejoin="round"/>
<path d="M90.5624 156.383V158.543" stroke="#2071B5" stroke-width="3.2" stroke-linecap="round" stroke-linejoin="round"/>
<path d="M245.058 109.961C243.398 110.191 241.068 113.441 241.678 114.921C242.308 116.461 243.248 117.681 245.128 117.731C246.818 117.781 248.488 117.761 249.448 116.001C250.908 113.311 248.508 109.961 245.128 109.961" stroke="#2071B5" stroke-width="3.2" stroke-linecap="round" stroke-linejoin="round"/>
<path d="M174.102 153.222C178.652 151.992 182.852 143.192 174.572 140.492" stroke="#2071B5" stroke-width="3.2" stroke-linecap="round" stroke-linejoin="round"/>
</svg>
