<svg width="500" height="500" viewBox="0 0 500 500" fill="none" xmlns="http://www.w3.org/2000/svg">
<ellipse cx="301.5" cy="398" rx="12.5" ry="16" fill="#FFDA00" fill-opacity="0.7"/>
<ellipse cx="289.5" cy="341.5" rx="9.5" ry="17.5" fill="#FFDA00" fill-opacity="0.7"/>
<ellipse cx="229" cy="398.5" rx="17" ry="19.5" fill="#FFDA00" fill-opacity="0.7"/>
<path d="M322 160.5C323.6 138.5 310 136.333 303 138C313.8 140.4 316.5 150.333 316.5 155V302.5C317.3 321.3 312.833 330.666 310.5 333C320.1 330.2 322.167 318.833 322 313.5V160.5Z" fill="#FFDA00" fill-opacity="0.7"/>
<path d="M280.24 202.81C282.25 207.96 282.85 213.29 281.96 218.72C281.15 223.62 279.11 228.13 277.23 232.7C276.68 234.03 275.57 234.4 274.58 234.34C273.57 234.28 272.54 234.3 271.52 234.22C269.11 234.04 266.97 234.16 265.34 236.56C264.24 238.17 262.5 239.38 260.84 240.54" stroke="#2071B5" stroke-width="4.21" stroke-linecap="round" stroke-linejoin="round"/>
<path d="M264.32 318.81C255.96 318.81 247.6 318.81 239.24 318.81C232.28 318.81 228.35 322.44 226.93 326.7C225.42 331.21 225.09 336 225.66 340.84C225.98 343.56 226.41 346.15 227.91 348.46C229.74 351.27 232.36 352.85 235.75 352.81C244.84 352.71 253.92 352.89 263.01 352.71C258.65 352.58 267.35 352.62 263.01 352.71" fill="#FFDA00" fill-opacity="0.7"/>
<path d="M264.32 318.81C255.96 318.81 247.6 318.81 239.24 318.81C232.28 318.81 228.35 322.44 226.93 326.7C225.42 331.21 225.09 336 225.66 340.84C225.98 343.56 226.41 346.15 227.91 348.46C229.74 351.27 232.36 352.85 235.75 352.81C244.84 352.71 253.92 352.89 263.01 352.71M263.01 352.71C267.35 352.62 258.65 352.58 263.01 352.71Z" stroke="#2071B5" stroke-width="4.21" stroke-linecap="round" stroke-linejoin="round"/>
<path d="M173.39 75.0296C177.02 74.5096 180.66 75.1596 184.29 75.0096C189.09 74.8196 193.88 75.2696 198.69 74.8596C201.29 74.6396 203.92 75.0096 206.54 75.0496C210.91 75.1196 215.28 74.5196 219.62 74.8796C224.21 75.2496 228.78 74.4396 233.37 74.9996C235.9 75.3096 238.45 74.8496 241 74.7996C246.09 74.6896 251.19 75.2896 256.26 74.9796C263.18 74.5596 270.07 75.0796 276.98 75.0596C305.91 74.9896 334.84 75.0296 363.77 75.0396C367.15 75.0396 370.07 76.0196 371.83 79.1796C372.74 80.8196 371.97 82.6996 372.47 84.4196C372.61 84.8896 372.49 85.4296 372.49 85.9396C372.81 134.57 372.7 183.19 372.71 231.82C372.71 292.88 372.71 353.93 372.71 414.99C372.71 419.9 370.75 423.31 367.03 424.55C365.65 425.01 364.17 425.25 362.68 425.25C286.8 425.25 210.91 425.26 135.03 425.21C128.79 425.21 125.02 421.65 125.01 415.21C124.99 355.1 125 294.99 125 234.88" stroke="#2071B5" stroke-width="4.21" stroke-linecap="round" stroke-linejoin="round"/>
<path d="M101.87 183.84C101.87 264.45 101.86 345.06 101.89 425.67C101.89 433.23 104.85 439.42 111.02 444C116.03 447.72 121.61 449.45 127.82 449.45C160.17 449.43 192.51 449.26 224.86 449.48C272.98 449.81 321.1 449.48 369.21 449.72C373.34 449.74 377.5 449.84 381.64 450C385.86 450.16 397.14 439.73 397.14 431.89" stroke="#2071B5" stroke-width="4.21" stroke-linecap="round" stroke-linejoin="round"/>
<path d="M119.97 187.76C120.89 188.24 120.39 189.08 120.38 189.72C120.12 203.02 120.19 216.32 120.19 229.63C120.19 292.36 120.21 355.09 120.16 417.81C120.16 426.2 126.09 429.6 131.97 429.6C209.24 429.58 286.5 429.58 363.77 429.62C367.41 429.62 370.77 429.05 373.8 426.97" stroke="#2071B5" stroke-width="4.21" stroke-linecap="round" stroke-linejoin="round"/>
<path d="M382.08 50.38C398.51 49.96 395.89 63.04 396.49 70.88C396.65 72.99 396.68 75.1 396.68 77.21C396.68 91.82 396.54 106.43 396.71 121.04C397.12 154.91 396.69 188.78 396.91 222.66C397.36 291.49 396.99 360.33 397.1 429.16" stroke="#2071B5" stroke-width="4.21" stroke-linecap="round" stroke-linejoin="round"/>
<path d="M168.16 69.7903H323.85C338.31 69.7903 352.78 69.7303 367.24 69.8303C371.09 69.8603 374.61 70.8803 376.66 74.7803C378.03 77.3703 378.34 80.0803 378.35 82.8703C378.37 111.44 378.24 140 378.39 168.57C378.81 251.43 378.45 334.29 378.59 417.16C378.59 421.09 377.65 424.58 374.42 427.09" stroke="#2071B5" stroke-width="4.21" stroke-linecap="round" stroke-linejoin="round"/>
<path d="M121.5 54.5303C118.47 55.0603 115.39 54.7003 112.33 55.1203C106.74 55.8903 101.41 57.5803 96.23 59.6103C86.35 63.4703 78.82 70.2803 73.07 79.1603C70.28 83.4603 67.38 87.6503 65.41 92.4503C62.01 100.72 60.17 109.23 59.95 118.2C59.61 132.05 63.06 144.59 71.52 155.73C78.53 164.96 87.53 171.21 98.36 175.17C104.68 177.48 111.17 178.63 117.79 178.73C123.06 178.81 128.37 178.1 133.48 176.63C141.35 174.37 148.81 171.32 155.54 166.45C165.14 159.51 172.23 150.74 176.2 139.57C179.26 130.96 179.84 122.05 179.34 112.97C179.05 107.74 178.45 102.6 177.35 97.4803C175.87 90.6003 172.63 84.5703 168.56 78.9703C163.05 71.3903 156.36 65.0303 147.86 60.8703C139.9 56.9703 131.53 54.6103 122.58 54.7403C122.28 54.7403 121.93 54.8903 121.71 54.5303" stroke="#2071B5" stroke-width="4.21" stroke-linecap="round" stroke-linejoin="round"/>
<path d="M166.2 111C165.84 104.11 163.53 97.7904 160.27 91.8304C155.79 83.6304 149.44 77.2104 141.11 72.8504C135.45 69.8804 129.38 68.2704 123.02 67.8404C116.36 67.3804 109.77 68.1404 103.42 70.0704C97.47 71.8804 91.93 74.6904 87.26 78.9504C80.34 85.2704 75.46 92.8904 72.64 101.84C70.23 109.5 69.76 117.31 71.15 125.17C72.87 134.82 76.39 143.79 83.39 150.85C89.25 156.76 96.12 161.49 104.27 163.73C115.35 166.78 126.13 166.04 136.8 161.27C143.61 158.23 149.38 154.05 154.39 148.71C160.29 142.42 164.27 135.09 165.77 126.49C166.44 122.65 166.72 118.8 166.83 114.93" fill="#FFDA00" fill-opacity="0.7"/>
<path d="M166.2 111C165.84 104.11 163.53 97.7904 160.27 91.8304C155.79 83.6304 149.44 77.2104 141.11 72.8504C135.45 69.8804 129.38 68.2704 123.02 67.8404C116.36 67.3804 109.77 68.1404 103.42 70.0704C97.47 71.8804 91.93 74.6904 87.26 78.9504C80.34 85.2704 75.46 92.8904 72.64 101.84C70.23 109.5 69.76 117.31 71.15 125.17C72.87 134.82 76.39 143.79 83.39 150.85C89.25 156.76 96.12 161.49 104.27 163.73C115.35 166.78 126.13 166.04 136.8 161.27C143.61 158.23 149.38 154.05 154.39 148.71C160.29 142.42 164.27 135.09 165.77 126.49C166.44 122.65 166.72 118.8 166.83 114.93" stroke="#2071B5" stroke-width="4.21" stroke-linecap="round" stroke-linejoin="round"/>
<path d="M125.2 184.71C118.69 184.94 112.18 184.73 105.8 183.35C100.89 182.29 96.14 180.57 91.63 178.36C84.43 174.83 78.22 169.98 72.85 164.01C67.02 157.54 62.36 150.37 59.36 142.19C56.07 133.24 54.89 124.03 55.61 114.5C56.41 103.86 59.21 93.8303 64.19 84.4303C66.66 79.7603 69.9 75.5903 73.3 71.5303C80.14 63.3803 88.96 58.1403 98.61 54.1003C106.65 50.7403 115.01 49.7403 123.69 50.0703C127.3 50.2103 130.95 50.1703 134.59 50.1703C211.42 50.1703 288.25 50.1703 365.08 50.1903C370.75 50.1903 376.42 49.9603 382.09 50.3903" stroke="#2071B5" stroke-width="4.21" stroke-linecap="round" stroke-linejoin="round"/>
<path d="M170.34 72.8398C176.3 78.3698 180.61 85.1198 184.24 92.2698C187.84 99.3598 190.14 106.88 190.65 114.92C191.29 125.13 189.74 134.91 185.84 144.37C182.18 153.23 176.69 160.74 169.72 167.29C164.45 172.25 158.59 176.29 152.24 179.68C144.88 183.62 137.01 185.75 128.69 186.47C122.35 187.02 116.14 186.29 109.93 185.15C109.23 185.02 107.89 184.82 99.77 181.68" stroke="#2071B5" stroke-width="4.21" stroke-linecap="round" stroke-linejoin="round"/>
<path d="M300.96 136.74C304.18 136.67 307.42 136.25 310.55 137.4C316.93 139.72 320.81 143.2 321.49 150.7C321.7 152.97 321.47 155.21 321.47 157.46C321.45 206.01 321.45 254.57 321.47 303.12C321.47 303.77 321.19 304.47 321.67 305.08" stroke="#2071B5" stroke-width="4.21" stroke-linecap="round" stroke-linejoin="round"/>
<path d="M208.94 265.39C209.48 268.95 209.12 272.52 208.92 276.07C208.68 280.36 208.64 284.65 208.3 288.94C207.85 294.59 207.52 300.24 205.92 305.74C205.04 308.77 203.58 311.56 202.36 314.43C198.63 323.22 197.55 332.28 198.67 341.71C199.09 345.25 199.42 348.8 199.38 352.39C199.3 361.04 199.33 369.69 199.36 378.34C199.39 386.85 199.2 395.35 199.14 403.85C199.12 406.9 198.65 410.07 199.44 412.99C201.28 419.83 203.14 421.71 210.92 423.22C213.12 423.65 215.4 423.84 217.67 423.7" stroke="#2071B5" stroke-width="4.21" stroke-linecap="round" stroke-linejoin="round"/>
<path d="M223.54 281.74C222.4 289.37 221.61 297.04 220.31 304.64C219.54 309.19 217.76 313.37 215.87 317.48C213.84 321.89 213.03 326.49 212.65 331.24C212.14 337.52 212.9 343.74 213.19 350C213.63 359.43 213.31 368.89 213.3 378.34C213.3 380.38 212.62 382.38 212.87 384.45" stroke="#2071B5" stroke-width="4.21" stroke-linecap="round" stroke-linejoin="round"/>
<path d="M309.68 329.94C314.81 327.07 316.38 322.23 316.4 316.86C316.49 291.06 316.44 265.25 316.44 239.45C316.44 210.67 316.52 181.88 316.38 153.1C316.35 145.81 312.7 141.14 305.75 139.36C304.72 139.1 303.79 138.52 302.7 138.49" stroke="#2071B5" stroke-width="4.21" stroke-linecap="round" stroke-linejoin="round"/>
<path d="M304.01 332.55C304.01 348.1 304.01 363.66 304.01 379.21C304.01 380.94 303.85 382.23 306.06 383.56C309.35 385.53 311.37 389.01 312.15 393.15C312.98 397.53 312.89 401.79 311.81 406.02C310.75 410.17 305.43 411.72 301.38 412.23" stroke="#2071B5" stroke-width="4.21" stroke-linecap="round" stroke-linejoin="round"/>
<path d="M211.12 234.21H125.64" stroke="#2071B5" stroke-width="4.21" stroke-linecap="round" stroke-linejoin="round"/>
<path d="M184.95 107.95C185.26 112.02 186.01 116.05 185.84 120.16C185.48 128.78 183.69 137.03 180.41 145.03C177.22 152.81 172.45 159.28 166.02 164.69C162.96 167.26 160.06 170.01 156.6 172.06" stroke="#2071B5" stroke-width="4.21" stroke-linecap="round" stroke-linejoin="round"/>
<path d="M276.54 292.43C274.89 297.14 273.62 301.97 271.74 306.6C270.22 310.37 268.51 314.07 266.69 317.71C264.41 322.27 263.39 327.11 263.27 332.12C263.11 338.88 263.23 345.64 263.23 352.4" stroke="#2071B5" stroke-width="4.21" stroke-linecap="round" stroke-linejoin="round"/>
<path d="M263.23 353.92C263.23 373.18 263.23 392.44 263.23 411.71C263.23 417.35 264.93 421.86 270.87 423.7" stroke="#2071B5" stroke-width="4.21" stroke-linecap="round" stroke-linejoin="round"/>
<path d="M291.36 298.97C288.27 302.54 287.17 306.83 286.48 311.39C286.22 313.07 286.29 314.76 285.99 316.43C285.9 316.92 285.95 317.11 285.52 317.55C280.17 322.96 277.55 329.45 277.32 337.13C277.18 341.94 277.46 346.73 277.43 351.52C277.35 367.15 277.4 382.77 277.4 398.4C277.4 406.1 277.4 413.81 277.38 421.51C277.38 422.23 277.64 423 277.18 423.69" stroke="#2071B5" stroke-width="4.21" stroke-linecap="round" stroke-linejoin="round"/>
<path d="M257.35 75.46C257.71 76.97 257.48 78.53 257.49 80.04C257.61 95.88 257.56 111.73 257.56 127.58C257.56 130.05 257.56 132.52 257.56 134.99" stroke="#2071B5" stroke-width="4.21" stroke-linecap="round" stroke-linejoin="round"/>
<path d="M372.26 233.99C371.41 234.3 370.52 234.21 369.64 234.21C354.81 234.21 339.98 234.21 325.16 234.21C324.36 234.21 323.53 234.05 322.76 234.42" stroke="#2071B5" stroke-width="4.21" stroke-linecap="round" stroke-linejoin="round"/>
<path d="M302.7 136.68C299.69 136.94 298.63 136.08 297.68 136.08C289.83 136.08 281.98 136.21 274.13 136.03C269.33 135.92 260.9 134.97 256.9 137.6" stroke="#2071B5" stroke-width="4.21" stroke-linecap="round" stroke-linejoin="round"/>
<path d="M295.51 169.44C301.58 169.69 303.58 165.18 303.41 160.72C303.29 157.62 302.46 155.13 299.66 153.52C295.22 150.97 290.24 153.24 288.76 158.54C287.22 164.03 289.37 168.13 295.3 169.66" fill="#FFDA00" fill-opacity="0.7"/>
<path d="M295.51 169.44C301.58 169.69 303.58 165.18 303.41 160.72C303.29 157.62 302.46 155.13 299.66 153.52C295.22 150.97 290.24 153.24 288.76 158.54C287.22 164.03 289.37 168.13 295.3 169.66" stroke="#2071B5" stroke-width="4.21" stroke-linecap="round" stroke-linejoin="round"/>
<path d="M125.2 187.76C125.32 200.05 124.82 212.33 124.98 224.61C125.02 227.88 124.9 231.16 125.2 234.42" stroke="#2071B5" stroke-width="4.21" stroke-linecap="round" stroke-linejoin="round"/>
<path d="M192.36 126.71C194.99 129.69 198.21 132.06 201.15 134.7C205.52 138.62 210.25 142.16 214.58 146.14C219.05 150.25 224.02 153.8 228.15 158.3C230.79 161.18 233.61 163.9 236.61 166.41C237.64 167.27 238.5 168.33 239.76 168.95C242.87 168.15 245.37 165.99 248.2 164.46C249.01 164.02 249.48 163.44 249.98 162.72C250.25 162.34 251.1 161.75 251.46 162.9" stroke="#2071B5" stroke-width="4.21" stroke-linecap="round" stroke-linejoin="round"/>
<path d="M200.43 234.43C200.38 240.03 201.31 245.47 203.05 250.78C205.71 258.95 209.7 266.29 216.37 271.91C218.93 274.07 220.93 276.84 223.77 278.69" stroke="#2071B5" stroke-width="4.21" stroke-linecap="round" stroke-linejoin="round"/>
<path d="M240.77 169.01C241.23 170.94 243.05 171.69 244.29 172.9C248.71 177.21 253.86 180.63 258.59 184.56C261.21 186.74 263.89 188.85 266.54 190.98C268.42 192.49 268.91 194.44 269.3 196.5C270.47 202.69 270.64 208.88 268.9 215.03C266.58 223.23 262.41 230.28 256.01 235.94C255.58 236.32 255 236.76 254.29 236.62" stroke="#2071B5" stroke-width="4.21" stroke-linecap="round" stroke-linejoin="round"/>
<path d="M304.45 298.97C308.31 305.81 307.31 313 305.7 320.11C304.61 324.9 302.7 329.47 299.63 333.4C298.62 334.69 298.27 336 298.34 337.57C298.42 339.38 298.36 341.2 298.36 343.02" stroke="#2071B5" stroke-width="4.21" stroke-linecap="round" stroke-linejoin="round"/>
<path d="M219.4 381.4C217.68 382.2 216.64 383.67 215.43 385.07C211.94 389.08 212.22 393.86 212.19 398.63C212.17 402.37 212.63 405.99 213.9 409.55C215.06 412.81 216.96 415.17 220.27 416.29" stroke="#2071B5" stroke-width="4.21" stroke-linecap="round" stroke-linejoin="round"/>
<path d="M302.7 259.28C301.94 260.25 301.82 261.37 301.82 262.55C301.82 272.87 301.82 283.19 301.82 293.51C301.82 294.19 301.7 294.91 302.25 295.47" stroke="#2071B5" stroke-width="4.21" stroke-linecap="round" stroke-linejoin="round"/>
<path d="M183.42 201.5C189.47 206.5 195.8 211.13 201.59 216.47C204.84 219.46 208.28 222.31 211.8 225.01C213.17 226.06 213.65 227.19 213.29 228.76C212.52 232.14 212.21 235.59 211.84 239.02C211.38 243.24 212.71 247.33 213.49 251.45C214.85 258.61 219 264.33 222.89 270.2" stroke="#2071B5" stroke-width="4.21" stroke-linecap="round" stroke-linejoin="round"/>
<path d="M272.61 198.66C274.99 201.76 275.17 205.49 275.41 209.13C276 217.92 272.97 225.68 268.25 232.9C268.11 233.12 267.96 233.19 267.81 233.12" stroke="#2071B5" stroke-width="4.21" stroke-linecap="round" stroke-linejoin="round"/>
<path d="M135.23 51.6904C140.16 52.9704 144.84 54.9104 149.4 57.1404C155.53 60.1304 160.89 64.2204 165.96 68.7104C167.15 69.7704 168.4 70.7604 169.46 71.9704" stroke="#2071B5" stroke-width="4.21" stroke-linecap="round" stroke-linejoin="round"/>
<path d="M321.89 305.51C321.72 310.78 321.52 316.06 320.31 321.2C319.25 325.7 317.15 329.71 312.72 331.87C310.69 332.86 308.45 333.08 306.19 332.98" stroke="#2071B5" stroke-width="4.21" stroke-linecap="round" stroke-linejoin="round"/>
<path d="M225.73 280.87C229.6 284.11 232.75 288.1 236.63 291.33C243.91 297.39 250.28 304.44 257.34 310.74" stroke="#2071B5" stroke-width="4.21" stroke-linecap="round" stroke-linejoin="round"/>
<path d="M226.82 383.58C223.53 389.6 222.81 395.99 223.44 402.78C223.79 406.56 224.6 410.3 224.63 414.11" stroke="#2071B5" stroke-width="4.21" stroke-linecap="round" stroke-linejoin="round"/>
<path d="M229.43 274.55C236.94 281.97 245.35 288.4 252.75 295.93C254.63 297.84 256.81 299.34 259.08 300.72" stroke="#2071B5" stroke-width="4.21" stroke-linecap="round" stroke-linejoin="round"/>
<path d="M302.7 300.28C300.63 299.41 298.34 300.11 297.03 302.03C293.38 307.38 292.7 318.35 298.77 323.18C299.72 323.94 300.27 325.03 300.95 326.01" stroke="#2071B5" stroke-width="4.21" stroke-linecap="round" stroke-linejoin="round"/>
<path d="M256.91 137.61C253.85 139.59 252.67 142.95 251.06 145.92C248.04 151.5 245.91 157.43 245.13 163.78C245.07 164.24 244.44 164.52 244.69 165.09" stroke="#2071B5" stroke-width="4.21" stroke-linecap="round" stroke-linejoin="round"/>
<path d="M266.07 137.17C262.26 137.53 259.9 139.93 258.24 143.07C255.81 147.66 254.5 152.67 253.2 157.67C252.8 159.19 252.43 160.73 251.46 162.03" stroke="#2071B5" stroke-width="4.21" stroke-linecap="round" stroke-linejoin="round"/>
<path d="M283.51 184.27C288.08 188.91 290.39 194.67 292.06 200.83C293.01 204.32 294.05 207.78 294.85 211.31" stroke="#2071B5" stroke-width="4.21" stroke-linecap="round" stroke-linejoin="round"/>
<path d="M251.24 291.99C261.05 291.99 270.87 291.94 280.68 292.01C284.98 292.04 289.3 292.01 293.54 292.88C297.37 293.66 300.81 295.18 303.14 298.54" stroke="#2071B5" stroke-width="4.21" stroke-linecap="round" stroke-linejoin="round"/>
<path d="M239 389.5C238.72 388.36 237.5 384.09 235.89 384.29C232.35 389.36 230.75 395.07 231.36 401.46C231.57 403.67 232.01 405.82 234.5 407" fill="#FFDA00" fill-opacity="0.7"/>
<path d="M239 389.5C238.72 388.36 237.5 384.09 235.89 384.29C232.35 389.36 230.75 395.07 231.36 401.46C231.57 403.67 232.01 405.82 234.5 407" stroke="#2071B5" stroke-width="4.21" stroke-linecap="round" stroke-linejoin="round"/>
<path d="M252.98 237.48C244.14 240.61 235.43 240.03 226.81 236.61" stroke="#2071B5" stroke-width="4.21" stroke-linecap="round" stroke-linejoin="round"/>
<path d="M157.91 180.78C163.9 185.29 169.53 190.24 175.35 194.96C177.88 197.02 180.46 199.01 182.99 201.06" stroke="#2071B5" stroke-width="4.21" stroke-linecap="round" stroke-linejoin="round"/>
<path d="M219.84 387.07C218.59 393.31 218.2 399.56 219.62 405.82C220.06 407.78 220.52 409.74 221.58 411.49" stroke="#2071B5" stroke-width="4.21" stroke-linecap="round" stroke-linejoin="round"/>
<path d="M257.78 241.84C250.28 244.74 242.71 246.85 234.66 244.03C234.4 243.94 234.08 244.02 233.79 244.02" stroke="#2071B5" stroke-width="4.21" stroke-linecap="round" stroke-linejoin="round"/>
<path d="M262.14 385.32C260.07 388.79 258.15 392.27 257.74 396.44C257.29 400.97 257.52 405.31 259.96 409.31" stroke="#2071B5" stroke-width="4.21" stroke-linecap="round" stroke-linejoin="round"/>
<path d="M198.03 384.01C194.27 391.38 194.43 398.97 196.72 406.69" stroke="#2071B5" stroke-width="4.21" stroke-linecap="round" stroke-linejoin="round"/>
<path d="M243.83 381.4C243.8 390.15 243.34 398.87 242.31 407.57C241.92 410.86 240.74 413.77 238.59 416.29" stroke="#2071B5" stroke-width="4.21" stroke-linecap="round" stroke-linejoin="round"/>
<path d="M299.21 234.86C298.59 235.57 298.62 236.48 298.8 237.25C300.48 244.16 300.01 250.91 297.46 257.54" stroke="#2071B5" stroke-width="4.21" stroke-linecap="round" stroke-linejoin="round"/>
<path d="M230.31 314.67C226.49 316.06 223.75 318.54 221.99 322.29C219.25 328.14 218.35 334.32 218.83 340.62C219.26 346.11 220.04 351.69 224.63 355.67" stroke="#2071B5" stroke-width="4.21" stroke-linecap="round" stroke-linejoin="round"/>
<path d="M294.42 380.96C288.06 380.54 284.51 384.49 282.63 390.33C281.19 394.84 281.02 399.36 281.43 404.08C281.74 407.63 282.27 411.01 283.51 414.32C284.05 415.75 284.38 417.31 286.14 417.81" stroke="#2071B5" stroke-width="4.21" stroke-linecap="round" stroke-linejoin="round"/>
<path d="M299 218.29C298.77 218.92 299.33 219.14 299.66 219.36C304.05 222.37 306.35 226.58 307.08 231.8C307.96 238.12 307.58 244.37 306.16 250.55C305.68 252.64 304.57 254.57 304.02 256.66" stroke="#2071B5" stroke-width="4.21" stroke-linecap="round" stroke-linejoin="round"/>
<path d="M372.04 50.5996C372.35 52.2596 372.3 53.9396 372.25 55.6096C372.09 60.5596 372.61 65.4896 372.48 70.4396" stroke="#2071B5" stroke-width="4.21" stroke-linecap="round" stroke-linejoin="round"/>
<path d="M239.03 385.98C238.07 387.87 238.81 389.78 239.06 391.65C239.67 396.2 238.98 400.54 237.25 404.72C236.76 405.9 235.86 406.92 234.67 407.57" fill="#FFDA00" fill-opacity="0.7"/>
<path d="M239.03 385.98C238.07 387.87 238.81 389.78 239.06 391.65C239.67 396.2 238.98 400.54 237.25 404.72C236.76 405.9 235.86 406.92 234.67 407.57" stroke="#2071B5" stroke-width="4.21" stroke-linecap="round" stroke-linejoin="round"/>
<path d="M291.8 238.35C289.37 241.58 287.26 245.03 286.65 249.05C286.29 251.43 286.32 253.88 285.7 256.23" stroke="#2071B5" stroke-width="4.21" stroke-linecap="round" stroke-linejoin="round"/>
<path d="M201.3 216.98C200.55 222.63 200.17 228.29 200.21 233.99" stroke="#2071B5" stroke-width="4.21" stroke-linecap="round" stroke-linejoin="round"/>
<path d="M270.87 177.29C267.26 175.9 263.63 176.38 259.96 177.04C258.06 177.38 256.19 177.82 254.3 178.16" stroke="#2071B5" stroke-width="4.21" stroke-linecap="round" stroke-linejoin="round"/>
<path d="M290.93 394.05C289.34 398.32 289.59 402.78 290.16 407.12C290.56 410.17 293.11 412.01 295.73 413.45C296.33 413.78 297.22 413.66 297.47 414.54" stroke="#2071B5" stroke-width="4.21" stroke-linecap="round" stroke-linejoin="round"/>
<path d="M284.82 328.19C282.99 330.73 282.4 333.7 282.02 336.7C281.7 339.22 281.24 341.77 281.77 344.33" stroke="#2071B5" stroke-width="4.21" stroke-linecap="round" stroke-linejoin="round"/>
<path d="M142.65 180.35C137.95 181.96 133.18 183.3 128.26 184.06" stroke="#2071B5" stroke-width="4.21" stroke-linecap="round" stroke-linejoin="round"/>
<path d="M285.26 206.08C288.61 209.06 292.13 211.86 295.5 214.81C296.68 215.84 297.33 217.08 297.51 218.73C297.99 223.31 298.16 227.91 298.79 232.47C298.84 232.83 298.54 233.03 298.56 233.34" stroke="#2071B5" stroke-width="4.21" stroke-linecap="round" stroke-linejoin="round"/>
<path d="M307.06 388.92C311.55 392 310.5 396.54 310.28 399.08C309.95 402.98 310.01 404.3 306 407.13" stroke="#2071B5" stroke-width="4.21" stroke-linecap="round" stroke-linejoin="round"/>
<path d="M241.65 380.96C238.27 378.04 234.31 376.67 229.87 376.6" stroke="#2071B5" stroke-width="4.21" stroke-linecap="round" stroke-linejoin="round"/>
<path d="M287.44 332.99C287.22 335.25 286.78 337.48 286.55 339.75C286.15 343.7 286.17 347.53 288.75 350.87" stroke="#2071B5" stroke-width="4.21" stroke-linecap="round" stroke-linejoin="round"/>
<path d="M301.39 380.53C297.67 379.57 298.23 379.54 288.47 382.16" stroke="#2071B5" stroke-width="4.21" stroke-linecap="round" stroke-linejoin="round"/>
<path d="M280.9 346.07C280.92 349.88 282.79 352.73 285.44 355.27C286.04 355.84 286.75 355.36 287.22 355.89" stroke="#2071B5" stroke-width="4.21" stroke-linecap="round" stroke-linejoin="round"/>
<path d="M236.19 248.38C238.81 252.48 242.49 255.59 246 258.85" stroke="#2071B5" stroke-width="4.21" stroke-linecap="round" stroke-linejoin="round"/>
<path d="M215.04 228.76C218.2 231.46 221.65 233.72 225.51 235.3" stroke="#2071B5" stroke-width="4.21" stroke-linecap="round" stroke-linejoin="round"/>
<path d="M234.67 355.67C233.13 355.82 231.86 356.97 230.31 356.96C226.42 356.95 222.44 357.59 218.74 355.69C218.21 355.42 217.6 355.33 217.22 354.8" stroke="#2071B5" stroke-width="4.21" stroke-linecap="round" stroke-linejoin="round"/>
<path d="M270.43 193.87C274.49 197.22 278.48 200.67 282.64 203.9" stroke="#2071B5" stroke-width="4.21" stroke-linecap="round" stroke-linejoin="round"/>
<path d="M301.39 412.36C300.95 415.03 299.15 416.79 297.24 418.46C295.18 420.26 290.69 420.82 288.31 419.54C287.91 419.33 287.55 418.97 287.43 418.47" stroke="#2071B5" stroke-width="4.21" stroke-linecap="round" stroke-linejoin="round"/>
<path d="M248.62 261.03C251.69 263.33 254.74 265.66 257.78 268.01" stroke="#2071B5" stroke-width="4.21" stroke-linecap="round" stroke-linejoin="round"/>
<path d="M296.6 344.76C295.62 348.13 294.14 351.19 291.37 353.48" stroke="#2071B5" stroke-width="4.21" stroke-linecap="round" stroke-linejoin="round"/>
<path d="M288.31 319.91C289.77 319.96 291.25 319.88 292.67 320.35C294 320.8 295.44 321.09 296.16 322.53" stroke="#2071B5" stroke-width="4.21" stroke-linecap="round" stroke-linejoin="round"/>
<path d="M287.87 249.25C287.41 251.85 287.49 254.51 287 257.1" stroke="#2071B5" stroke-width="4.21" stroke-linecap="round" stroke-linejoin="round"/>
<path d="M320.58 234.21H308.8" stroke="#2071B5" stroke-width="4.21" stroke-linecap="round" stroke-linejoin="round"/>
<path d="M299.21 397.32C299.13 397.9 299.47 398.38 299.28 399.08C298.44 402.2 298.61 405.35 299.62 408.45C299.8 409 299.9 409.35 300.52 409.31" stroke="#2071B5" stroke-width="4.21" stroke-linecap="round" stroke-linejoin="round"/>
<path d="M263.02 161.59C259.65 161.59 256.31 161.94 252.99 162.46" stroke="#2071B5" stroke-width="4.21" stroke-linecap="round" stroke-linejoin="round"/>
<path d="M301.39 389.68C300.29 391.97 299.4 394.31 299.21 396.88" stroke="#2071B5" stroke-width="4.21" stroke-linecap="round" stroke-linejoin="round"/>
<path d="M226.6 416.51C228.5 418.39 230.94 418.38 233.36 418.47" stroke="#2071B5" stroke-width="4.21" stroke-linecap="round" stroke-linejoin="round"/>
<path d="M294.85 329.5C293.24 326.06 290.63 324.74 286.8 328.64C286.59 328.86 286.41 329 286.13 329.06" fill="#FFDA00" fill-opacity="0.7"/>
<path d="M294.85 329.5C293.24 326.06 290.63 324.74 286.8 328.64C286.59 328.86 286.41 329 286.13 329.06" stroke="#2071B5" stroke-width="4.21" stroke-linecap="round" stroke-linejoin="round"/>
<path d="M304.66 383.36C303.6 383.73 303.21 384.65 302.84 385.23C301.95 386.62 302.58 387.71 301.84 388.91" stroke="#2071B5" stroke-width="4.21" stroke-linecap="round" stroke-linejoin="round"/>
<path d="M261.27 304.64C263.55 306.27 265.09 308.68 267.38 310.31" stroke="#2071B5" stroke-width="4.21" stroke-linecap="round" stroke-linejoin="round"/>
<path d="M301.18 384.23C298.83 384.63 297.25 386.41 295.29 387.5" stroke="#2071B5" stroke-width="4.21" stroke-linecap="round" stroke-linejoin="round"/>
<path d="M272.39 177.51C274.32 178.05 276.06 179.04 277.84 179.91" stroke="#2071B5" stroke-width="4.21" stroke-linecap="round" stroke-linejoin="round"/>
<path d="M246.88 257.1C248.34 258.58 249.86 259.99 251.68 261.03" stroke="#2071B5" stroke-width="4.21" stroke-linecap="round" stroke-linejoin="round"/>
<path d="M263.02 304.2C264.86 305.39 265.97 307.38 267.82 308.56" stroke="#2071B5" stroke-width="4.21" stroke-linecap="round" stroke-linejoin="round"/>
</svg>
