<svg width="500" height="500" viewBox="0 0 500 500" fill="none" xmlns="http://www.w3.org/2000/svg">
<path d="M76.5 408C75.3 398.8 79 395.5 81 395L94 397L164.75 423.5L200.5 435L237 449C194.667 441 105.1 425.6 91.5 424C77.9 422.4 75.8333 418.333 76.5 416.5V408Z" fill="#FFDA00" fill-opacity="0.7"/>
<path d="M238.45 199.44C240.74 199.38 242.34 197.72 244.06 196.65C256.44 188.93 269.17 181.83 281.79 174.54C292.97 168.08 303.99 161.32 315.33 155.15C329.92 147.21 344.51 139.25 358.87 130.91C372.84 122.79 386.9 114.85 400.8 106.62C407.2 102.83 413.73 99.2703 420.01 95.2803C422.29 93.8303 423.04 91.6703 423.13 89.3303C423.32 84.5703 423.21 79.8103 423.17 75.0403C423.15 72.7803 420.89 70.8103 418.01 70.3503C412.44 69.4603 406.85 68.6403 401.25 67.9303C394.09 67.0203 386.97 65.8703 379.83 64.8603C369.56 63.4003 359.28 62.0803 349.03 60.4903C340.25 59.1303 331.45 57.8703 322.66 56.6503C313.05 55.3203 303.45 54.0103 293.86 52.5603C288.76 51.7903 283.64 51.1503 278.56 50.2303C276.04 49.7803 273.37 49.8903 270.92 51.3503C259.58 58.1103 247.9 64.2803 236.42 70.7903C225.07 77.2303 213.65 83.5403 202.22 89.8303C188.92 97.1503 175.6 104.43 162.32 111.77C147.24 120.11 132.13 128.41 116.97 136.62C106.31 142.39 95.66 148.18 84.93 153.84C84.02 154.32 83.17 154.84 82.72 155.82" stroke="#2071B5" stroke-width="4.21" stroke-linecap="round" stroke-linejoin="round"/>
<path d="M326.88 149.18C327.23 150.14 327.12 151.15 327.12 152.14C327.12 192.21 327.02 232.28 327.19 272.36C327.24 282.93 331.59 291.54 341.43 296.45C346.48 298.97 352.14 299.58 357.67 300.42C364.75 301.49 371.8 302.73 378.84 303.97C386.9 305.39 394.95 306.81 403 308.33C408.33 309.34 413.72 310.06 419.01 311.28C421.66 311.89 423.66 314.23 423.68 316.95C423.72 322.53 423.79 328.12 423.65 333.7C423.57 336.79 422.37 339.36 419.52 341.12C400.19 353.03 380.63 364.56 361.35 376.54C342.82 388.05 324.14 399.32 305.41 410.49C290.08 419.64 274.82 428.93 259.4 437.93C253.36 441.46 247.36 445.09 241.47 448.85C238.87 450.5 236.31 450.03 234.04 449.6C225.74 448 217.42 446.46 209.11 444.93C200.28 443.3 191.41 441.75 182.54 440.32C175.63 439.21 168.73 437.92 161.84 436.67C156.59 435.72 151.32 434.91 146.07 433.97C140.08 432.89 134.08 431.83 128.08 430.78C122 429.72 115.92 428.66 109.86 427.5C102.8 426.15 95.64 425.42 88.64 423.71C86.74 423.25 84.72 422.97 82.75 422.62C79.1 421.97 77.12 419.44 76.8 415.74C76.41 411.31 76.61 406.87 76.43 402.43C76.29 398.8 76.4 394.84 81.27 393.81C93.14 385.45 106.4 379.54 118.98 372.41C128.83 366.83 138.79 361.46 148.73 356.05C149.48 355.64 150.26 355.5 150.98 355.13" stroke="#2071B5" stroke-width="4.21" stroke-linecap="round" stroke-linejoin="round"/>
<path d="M237.46 449.47C240.33 446.37 240.54 442.57 240.44 438.63C240.33 434.53 240.31 430.42 240.44 426.31C240.6 421.43 238.19 419.31 234.24 418.22C229.72 416.97 225.05 416.42 220.45 415.48C212.63 413.88 204.76 412.77 197.5 408.89C184.36 401.86 176.3 391.51 174.32 376.55C173.91 373.49 173.91 370.47 173.91 367.43C173.88 333.85 174.05 300.26 173.82 266.68C173.73 252.88 173.75 239.09 173.67 225.29C173.64 220.86 174.51 216.63 176.82 212.71C180.4 206.64 185.93 204.24 192.62 203.87C197.98 203.58 203.15 205.09 208.37 205.92C215.78 207.1 223.18 208.36 230.56 209.72C235.14 210.56 237.74 207.38 237.89 203.36C238.08 198.28 238.01 193.18 237.92 188.09C237.84 183.56 235.47 181.16 231.05 180.43C217.26 178.18 203.46 175.98 189.67 173.75C175.21 171.41 160.77 168.95 146.31 166.61C133.25 164.5 120.23 162.13 107.14 160.24C99.9101 159.19 92.7201 157.89 85.4601 157.06C85.1101 157.02 84.7901 156.87 84.4901 156.77C82.9001 156.24 81.4001 155.36 79.7901 156.8C77.9101 158.47 76.4401 160.42 76.3901 162.97C76.2801 169.21 76.1401 175.46 76.4301 181.69C76.6001 185.27 78.5701 187.95 82.7601 189.06C87.2801 190.26 91.9601 190.71 96.5401 191.58C100.72 192.37 104.92 193.03 109.11 193.74C113.62 194.51 118.15 195.17 122.65 196.02C127.92 197.02 133.39 197.1 138.42 199.2C144.83 201.87 148.34 207.06 150.23 213.48C151.53 217.89 151.69 222.48 151.7 227.02C151.75 268.73 151.73 310.45 151.73 352.16C151.73 359.39 151.76 366.61 151.72 373.84C151.7 377.29 151.3 380.74 149.96 383.92C148.6 387.14 146.12 389.46 143.14 391.37C137.24 395.13 130.94 398.1 124.12 399.32C118.89 400.25 113.49 399.89 108.11 398.82C101.36 397.47 94.5101 396.5 87.6901 395.49C85.6201 395.18 83.4001 395.28 81.5301 394.05" fill="#FFDA00" fill-opacity="0.7"/>
<path d="M237.46 449.47C240.33 446.37 240.54 442.57 240.44 438.63C240.33 434.53 240.31 430.42 240.44 426.31C240.6 421.43 238.19 419.31 234.24 418.22C229.72 416.97 225.05 416.42 220.45 415.48C212.63 413.88 204.76 412.77 197.5 408.89C184.36 401.86 176.3 391.51 174.32 376.55C173.91 373.49 173.91 370.47 173.91 367.43C173.88 333.85 174.05 300.26 173.82 266.68C173.73 252.88 173.75 239.09 173.67 225.29C173.64 220.86 174.51 216.63 176.82 212.71C180.4 206.64 185.93 204.24 192.62 203.87C197.98 203.58 203.15 205.09 208.37 205.92C215.78 207.1 223.18 208.36 230.56 209.72C235.14 210.56 237.74 207.38 237.89 203.36C238.08 198.28 238.01 193.18 237.92 188.09C237.84 183.56 235.47 181.16 231.05 180.43C217.26 178.18 203.46 175.98 189.67 173.75C175.21 171.41 160.77 168.95 146.31 166.61C133.25 164.5 120.23 162.13 107.14 160.24C99.9101 159.19 92.7201 157.89 85.4601 157.06C85.1101 157.02 84.7901 156.87 84.4901 156.77C82.9001 156.24 81.4001 155.36 79.7901 156.8C77.9101 158.47 76.4401 160.42 76.3901 162.97C76.2801 169.21 76.1401 175.46 76.4301 181.69C76.6001 185.27 78.5701 187.95 82.7601 189.06C87.2801 190.26 91.9601 190.71 96.5401 191.58C100.72 192.37 104.92 193.03 109.11 193.74C113.62 194.51 118.15 195.17 122.65 196.02C127.92 197.02 133.39 197.1 138.42 199.2C144.83 201.87 148.34 207.06 150.23 213.48C151.53 217.89 151.69 222.48 151.7 227.02C151.75 268.73 151.73 310.45 151.73 352.16C151.73 359.39 151.76 366.61 151.72 373.84C151.7 377.29 151.3 380.74 149.96 383.92C148.6 387.14 146.12 389.46 143.14 391.37C137.24 395.13 130.94 398.1 124.12 399.32C118.89 400.25 113.49 399.89 108.11 398.82C101.36 397.47 94.5101 396.5 87.6901 395.49C85.6201 395.18 83.4001 395.28 81.5301 394.05" stroke="#2071B5" stroke-width="4.21" stroke-linecap="round" stroke-linejoin="round"/>
<path d="M318.02 154.36C318.44 155.23 318.26 156.16 318.26 157.07C318.26 197.06 318.26 237.05 318.27 277.04C318.27 284.85 321.12 291.53 326.39 297.25C333.9 305.41 343.66 308.9 354.24 310.52C365.6 312.26 376.9 314.34 388.22 316.26C394.22 317.28 400.34 317.83 406.19 319.5C412.99 321.45 417.09 317.11 421.73 313.75" stroke="#2071B5" stroke-width="4.21" stroke-linecap="round" stroke-linejoin="round"/>
<path d="M420.5 71.8301C417.84 74.5801 414.31 76.0801 411.09 77.9101C395.28 86.8701 379.62 96.0801 363.87 105.14C351.75 112.11 339.71 119.23 327.61 126.25C314.31 133.97 301 141.69 287.7 149.4C272.08 158.46 256.43 167.48 240.7 176.33C238.34 177.66 235.63 178.54 233.77 180.71" stroke="#2071B5" stroke-width="4.21" stroke-linecap="round" stroke-linejoin="round"/>
<path d="M410.15 320.64C410.1 321.74 409.23 321.93 408.44 322.39C388.8 333.86 369.17 345.35 349.59 356.91C335.71 365.11 321.79 373.25 307.93 381.5C296.16 388.51 284.39 395.54 272.63 402.57C261.76 409.06 250.66 415.16 239.92 421.88" stroke="#2071B5" stroke-width="4.21" stroke-linecap="round" stroke-linejoin="round"/>
<path d="M184.01 213.48C184.33 268.33 183.36 323.19 184.5 378.04" stroke="#2071B5" stroke-width="4.21" stroke-linecap="round" stroke-linejoin="round"/>
<path d="M158.88 212.98V379.02" stroke="#2071B5" stroke-width="4.21" stroke-linecap="round" stroke-linejoin="round"/>
<path d="M307.92 160.02C308.72 162.09 308.66 164.26 308.66 166.42C308.66 200.17 308.76 233.92 308.55 267.67C308.52 272.83 308.19 278.01 308.2 283.19C308.2 284.21 307.62 283.84 307.18 283.93" stroke="#2071B5" stroke-width="4.21" stroke-linecap="round" stroke-linejoin="round"/>
<path d="M303.73 171.11C303.73 208.47 303.73 245.83 303.79 283.2C303.79 283.88 302.71 285.42 304.72 285.42" stroke="#2071B5" stroke-width="4.21" stroke-linecap="round" stroke-linejoin="round"/>
<path d="M192.87 223.82V375.07" stroke="#2071B5" stroke-width="4.21" stroke-linecap="round" stroke-linejoin="round"/>
<path d="M270 221.98V327.41" stroke="#2071B5" stroke-width="4.21" stroke-linecap="round" stroke-linejoin="round"/>
<path d="M205.95 276.71C205.74 303.62 206.3 368.07 212.53 382.62C221.01 402.41 251.33 403.25 253.33 403.25" stroke="#2071B5" stroke-width="4.21" stroke-linecap="round" stroke-linejoin="round"/>
<path d="M165.28 208.06V384.93" stroke="#2071B5" stroke-width="4.21" stroke-linecap="round" stroke-linejoin="round"/>
<path d="M217.75 184.16C214.17 184.26 211.97 186.1 211.38 189.59C210.81 192.94 212.25 195.65 214.81 197.69C217.12 199.53 219.73 199.65 222.43 198.46C224.23 197.67 226.39 194.28 225.85 191.8C225.03 188.09 223.29 184.87 218.24 184.16" stroke="#2071B5" stroke-width="4.21" stroke-linecap="round" stroke-linejoin="round"/>
<path d="M308.16 284.18V323.84" stroke="#2071B5" stroke-width="4.21" stroke-linecap="round" stroke-linejoin="round"/>
<path d="M165.28 180.96V207.07" stroke="#2071B5" stroke-width="4.21" stroke-linecap="round" stroke-linejoin="round"/>
<path d="M96.06 402.67C92.6 404.27 90.37 406.75 90.92 410.79C91.44 414.58 93.38 417.15 97.26 418.52C101.24 419.93 105.78 416.28 106.2 412.77C106.82 407.59 102.38 401.62 96.3 402.66" fill="#FFDA00" fill-opacity="0.7"/>
<path d="M96.06 402.67C92.6 404.27 90.37 406.75 90.92 410.79C91.44 414.58 93.38 417.15 97.26 418.52C101.24 419.93 105.78 416.28 106.2 412.77C106.82 407.59 102.38 401.62 96.3 402.66" stroke="#2071B5" stroke-width="4.21" stroke-linecap="round" stroke-linejoin="round"/>
<path d="M95.57 165.69C89.19 167.77 89.09 175.82 92.82 179.53C95.75 182.44 100.24 182.6 102.46 180.96C105.72 178.54 106.73 173.88 104.66 170.39C102.7 167.07 99.85 165.2 95.81 165.7" stroke="#2071B5" stroke-width="4.21" stroke-linecap="round" stroke-linejoin="round"/>
<path d="M218.99 423.12C214.45 424.03 211.79 427.51 212.59 431.5C213.55 436.27 217.83 439.6 222.19 438.6C227.6 437.35 229.69 431.45 226.35 426.6C224.71 424.23 222.24 423 219.25 423.12" fill="#FFDA00" fill-opacity="0.7"/>
<path d="M218.99 423.12C214.45 424.03 211.79 427.51 212.59 431.5C213.55 436.27 217.83 439.6 222.19 438.6C227.6 437.35 229.69 431.45 226.35 426.6C224.71 424.23 222.24 423 219.25 423.12" stroke="#2071B5" stroke-width="4.21" stroke-linecap="round" stroke-linejoin="round"/>
</svg>
