<svg width="500" height="500" viewBox="0 0 500 500" fill="none" xmlns="http://www.w3.org/2000/svg">
<path d="M209.958 338.129C211.807 331.351 226.003 320.593 232.87 316.062L302.012 352.381C297.519 353.793 286.76 358.774 279.673 367.402C272.586 376.03 275.179 388.971 277.362 394.363L212.654 362.01C210.985 356.874 208.11 344.908 209.958 338.129Z" fill="#FFDA00" fill-opacity="0.7"/>
<path d="M110.796 295.239L56.0143 324.634C57.4988 325.97 62.784 330.87 72.0479 339.777C81.3118 348.685 78.2832 356.256 75.6109 358.929L129.947 328.643C129.65 326.564 129.235 320.181 129.947 311.273C130.66 302.365 117.477 296.872 110.796 295.239Z" fill="#FFDA00" fill-opacity="0.7"/>
<path d="M237.752 177.679L212.876 189.287C225.903 195.488 234.855 201.716 263.042 214.561C271.751 218.53 276.116 239.818 276.116 254.793C276.116 278.147 274.507 267.374 274.507 286.882C274.507 306.369 282.028 321.297 278.463 322.982C282.634 321.032 302.308 309.88 309.267 303.253C317.973 294.961 318.597 270.962 318.597 254.793C318.597 238.624 302.842 211.675 299.94 205.456C297.038 199.238 274.236 189.287 263.042 180.581C254.087 173.616 242.45 175.744 237.752 177.679Z" fill="#FFDA00" fill-opacity="0.7"/>
<path d="M384.52 116.211C376.366 114.292 366.733 120.608 362.936 124.005V134.198C368.532 136.596 383.808 140.735 391.303 148.301C421.125 178.407 421.125 201.918 421.125 215.614C421.125 223.768 416.37 241.712 413.172 253.104C416.17 251.705 428.768 245.478 440.28 234.926C454.67 221.735 449.873 183.962 445.676 166.575C441.479 149.187 427.689 141.393 416.897 129.401C406.105 117.41 394.713 118.609 384.52 116.211Z" fill="#FFDA00" fill-opacity="0.7"/>
<path d="M277.63 395.482C273.58 393.672 269.86 391.232 265.93 389.202C258.23 385.232 250.69 380.982 242.99 377.012C240.67 375.812 238.23 374.822 236.15 373.492C229.79 379.802 223.26 385.732 214.37 388.362C202.4 391.892 191.06 388.292 184.67 377.292C182.1 372.862 180.83 368.082 180.79 362.992C180.77 360.822 180.58 358.682 180.66 356.492C180.91 349.342 182.32 342.452 184.48 335.702C187.72 325.532 192.46 316.072 199.47 308.012C205.72 300.822 212.34 293.882 221.08 289.562C226.86 286.702 233.03 285.012 239.48 285.712C246.83 286.522 252.73 290.242 257.02 296.272C260.93 301.762 262.75 307.992 263.62 314.662C264.38 320.492 263.62 326.112 262.68 331.792" stroke="#2071B5" stroke-width="4.20561" stroke-linecap="round" stroke-linejoin="round"/>
<path d="M179.44 406.12C173.74 402.55 166.95 396.72 163.47 391.13C159.72 385.11 157.64 378.53 156.89 371.43C156.32 366.08 155.81 360.74 156.15 355.39C156.42 351.11 157.06 346.85 157.73 342.59C158.76 336.03 160.64 329.75 162.82 323.54C166.58 312.85 172.03 303.05 178.6 293.83C182.85 287.87 187.52 282.3 192.94 277.4C201.49 269.66 211.25 264.05 222.61 261.6C226.86 260.68 231.24 260.07 235.6 260.52C246.5 261.63 256.29 265.29 264.23 273.24C269.48 278.49 273.56 284.41 275.89 291.47C277.19 295.4 277.65 299.5 278.07 303.6C278.7 309.8 277.83 315.95 276.85 322C276.12 326.55 274.56 331.04 272.44 335.24" stroke="#2071B5" stroke-width="4.20561" stroke-linecap="round" stroke-linejoin="round"/>
<path d="M371.02 119.011C370.9 116.051 370.98 113.081 370.92 110.121C370.89 108.591 370.31 107.991 369.27 107.541C358.3 102.761 347.35 97.9314 336.36 93.1914C332.26 91.4214 328.26 89.3414 323.98 88.0714C316.88 85.9514 309.89 86.2714 302.95 89.2714C295.59 92.4614 288.23 95.6614 280.88 98.8714C273.94 101.891 266.99 104.881 260.04 107.881C257.85 108.831 257.15 110.251 257.06 112.291C256.98 114.161 256.96 116.051 257.08 117.921C257.15 118.941 257.47 119.921 258.55 120.541C264.56 123.981 270.87 126.811 277 130.011C283.7 133.511 290.43 136.941 297.14 140.431C304.64 144.331 312.56 145.501 320.73 142.991C324.36 141.881 327.73 139.981 331.14 138.261C341.04 133.281 351 128.411 361.08 123.821C365.22 121.931 369.27 119.751 373.62 118.361C382.87 115.401 392.03 116.051 400.9 119.691C410.29 123.551 418.4 129.331 425.45 136.721C431.46 143.011 436.59 149.861 440.56 157.571C444.09 164.431 446.52 171.711 448.11 179.241C449.46 185.651 450.17 192.221 449.78 198.731C449.16 209.081 447.65 219.291 442.56 228.661C438.53 236.091 432.97 242.011 426.3 247.101C422.08 250.321 417.21 252.381 412.82 255.271C412.62 255.401 412.25 255.291 411.96 255.291" stroke="#2071B5" stroke-width="4.20561" stroke-linecap="round" stroke-linejoin="round"/>
<path d="M220 189.209C225.65 188.069 231.3 186.989 237.12 187.249C242.16 187.479 247.01 188.639 251.62 190.549C265.82 196.409 276.53 206.439 285.24 218.879C292.34 229.009 297.55 239.989 301.03 251.829C302.11 255.519 302.65 259.329 303.43 263.089C304.48 268.109 304.54 273.209 304.22 278.259C303.74 285.809 302.36 293.209 299.09 300.149C296.51 305.629 293.54 310.869 289.1 315.079C286.05 317.979 282.52 320.219 278.73 322.049C278.2 322.309 277.71 322.199 277.2 322.249" stroke="#2071B5" stroke-width="4.20561" stroke-linecap="round" stroke-linejoin="round"/>
<path d="M363.22 135.039C369.99 136.469 376.45 138.809 382.03 142.899C387.39 146.829 392.26 151.419 396.57 156.509C402.04 162.979 406.88 169.889 410.7 177.499C414 184.069 416.5 190.879 418.1 198.079C419.87 206.029 420.83 214.029 420.39 222.139C419.85 232.039 417.98 241.619 413.83 250.789C411.15 256.729 407.02 260.719 401.62 264.019C396.09 267.399 390.26 270.219 384.64 273.419C376.05 278.309 367.4 283.119 358.69 287.809C350.93 291.999 343.14 296.149 335.28 300.139" stroke="#2071B5" stroke-width="4.20561" stroke-linecap="round" stroke-linejoin="round"/>
<path d="M180.13 204.159C180.13 204.089 180.16 203.969 180.13 203.949C178.35 202.779 176.09 202.169 175.57 199.609C174.86 196.109 174.8 192.699 176.45 189.419C177.33 187.679 178.93 186.849 180.55 185.929C187.26 182.109 193.9 182.959 200.73 185.709C212.65 190.499 224.22 196.059 235.8 201.589C245.01 205.979 254.21 210.409 263.32 215.019C267.47 217.119 270.92 220.009 272.64 224.539C274.1 228.379 275.11 232.349 275.21 236.459C275.35 242.669 275.56 248.899 275.17 255.089C274.58 264.559 275 274.019 274.82 283.479C274.8 284.299 274.7 285.099 274.38 285.859" stroke="#2071B5" stroke-width="4.20561" stroke-linecap="round" stroke-linejoin="round"/>
<path d="M225.85 369.049C221.07 371.709 215.99 373.239 210.47 373.179C205.48 373.129 199.57 368.659 197.69 363.419C195.58 357.559 195.32 351.519 196.2 345.439C197.9 333.739 202.69 323.479 211.15 315.129C215.27 311.059 219.84 307.429 225.44 305.619C230.35 304.039 235.34 303.689 240.39 305.539C246.32 307.709 250.18 312.789 250.1 319.009C250.07 321.029 250.62 323.109 249.7 325.079" stroke="#2071B5" stroke-width="4.20561" stroke-linecap="round" stroke-linejoin="round"/>
<path d="M190.32 294.73C184.23 303.47 178.29 312.29 173.83 322.02C169.87 330.65 166.63 339.47 165.18 348.9C164.58 352.78 164.18 356.68 163.79 360.59C163.23 366.12 163.32 371.61 163.95 377.06C165.22 387.96 169.19 397.54 177.91 404.88C181.54 407.93 185.41 410.29 189.68 412.17C193.66 413.92 197.9 413.68 202.02 413.37C204.84 413.16 207.75 412.87 210.47 411.94C218.7 409.13 226.29 405.13 233.25 399.85C240.05 394.69 245.68 388.5 250.34 381.4" stroke="#2071B5" stroke-width="4.20561" stroke-linecap="round" stroke-linejoin="round"/>
<path d="M77.8601 291.911C77.7701 285.241 78.7901 278.691 80.9601 272.431C83.7101 264.501 89.8601 260.111 97.7901 258.121C108.72 255.391 118.44 258.291 127.49 264.581C137.63 271.631 145.42 280.681 151.32 291.461C152.11 292.911 152.99 294.301 153.69 295.801" stroke="#2071B5" stroke-width="4.20561" stroke-linecap="round" stroke-linejoin="round"/>
<path d="M91.9503 305.13C90.3703 297.72 90.9403 290.53 94.3403 283.69C96.8603 278.63 101.23 276.45 106.68 276.11C113.97 275.65 119.85 279.09 125.28 283.29C135.86 291.47 141.41 302.71 144.16 315.54C144.82 318.61 145.09 321.72 145.03 324.86" stroke="#2071B5" stroke-width="4.20561" stroke-linecap="round" stroke-linejoin="round"/>
<path d="M220.79 366.459C214.38 372.229 202.86 365.149 201.39 359.069C200.07 353.599 200.5 348.059 201.61 342.619C203.2 334.849 206.58 327.839 212.03 322.079C216.35 317.519 221.12 313.269 227.37 311.439C232.49 309.939 237.66 309.309 242.3 312.929C244.72 314.819 247.57 319.629 245.99 322.889" stroke="#2071B5" stroke-width="4.20561" stroke-linecap="round" stroke-linejoin="round"/>
<path d="M192.7 193.98C192.7 194.7 192.56 195.46 192.73 196.14C193.06 197.43 192.37 198.11 191.39 198.51C185.6 200.89 180.52 204.52 175.12 207.59C168.69 211.25 162.23 214.87 155.65 218.27C146.41 223.05 136.91 227.3 127.73 232.2C126 233.13 124.46 233.04 122.93 232.7C119.7 231.97 116.48 231.56 113.17 231.43C107.15 231.19 101.53 232.72 96.06 234.97C93.88 235.87 91.82 237.06 89.54 237.73C89.08 237.87 89.11 238.09 89.11 238.4" stroke="#2071B5" stroke-width="4.20561" stroke-linecap="round" stroke-linejoin="round"/>
<path d="M192.7 199.18C196.71 201.21 200.77 203.13 204.62 205.46C213.23 210.67 221.96 215.71 229.74 222.16C238.66 229.55 246.61 237.8 252.04 248.16C254.56 252.96 256.29 258.05 256.63 263.53C256.7 264.62 257.57 265.7 256.62 266.78" stroke="#2071B5" stroke-width="4.20561" stroke-linecap="round" stroke-linejoin="round"/>
<path d="M162.84 289.119C163.11 278.809 131.62 249.299 123.82 245.289C116.09 241.329 108.01 238.809 99.32 238.109C95.79 237.829 92.32 238.099 88.93 238.699C85.49 239.309 82.48 241.359 79.84 243.619C74.03 248.599 70.14 254.939 67.94 262.229C66.88 265.729 66.28 269.359 65.87 273.039C65.36 277.659 64.88 282.279 65.11 286.909C65.33 291.189 65.86 295.459 66.57 299.699C67.27 303.909 68.05 308.099 68.97 312.259C69.26 313.579 69.91 314.799 70.06 316.159" stroke="#2071B5" stroke-width="4.20561" stroke-linecap="round" stroke-linejoin="round"/>
<path d="M382.5 156.271C381.03 157.411 379.12 157.461 377.53 158.241C364.97 164.391 352.42 170.561 340.02 177.051C334.16 180.121 328.21 183.041 322.25 185.941C318.82 187.611 315.81 189.991 312.46 191.721C308.08 193.991 303.74 196.39 299.09 198.15C297.8 198.64 296.38 199.321 295.6 200.691" stroke="#2071B5" stroke-width="4.20561" stroke-linecap="round" stroke-linejoin="round"/>
<path d="M241.25 269.849C242.45 270.359 243.59 270.989 244.3 272.209C245.38 274.049 244.67 277.459 242.77 279.149C241.06 280.669 238.2 280.669 236.27 279.149C234.63 277.849 234.1 273.809 235.82 272.159C237.72 270.339 239.65 269.689 241.09 269.849" fill="#FFDA00" fill-opacity="0.7"/>
<path d="M241.25 269.849C242.45 270.359 243.59 270.989 244.3 272.209C245.38 274.049 244.67 277.459 242.77 279.149C241.06 280.669 238.2 280.669 236.27 279.149C234.63 277.849 234.1 273.809 235.82 272.159C237.72 270.339 239.65 269.689 241.09 269.849" stroke="#2071B5" stroke-width="4.20561" stroke-linecap="round" stroke-linejoin="round"/>
<path d="M191.91 289.481C190.7 283.401 229.47 265.091 236.95 266.911" stroke="#2071B5" stroke-width="4.20561" stroke-linecap="round" stroke-linejoin="round"/>
<path d="M192.37 296.029C191.86 297.959 191.44 299.909 192.81 301.649C194.16 303.369 195.77 303.759 197.79 303.189C200.02 302.559 200.91 300.879 201.23 298.839C201.6 296.489 200.73 294.819 198.87 293.859C197.09 292.939 195.16 293.329 193.45 294.939C193.11 295.259 192.79 295.599 192.49 295.889" fill="#FFDA00" fill-opacity="0.7"/>
<path d="M192.37 296.029C191.86 297.959 191.44 299.909 192.81 301.649C194.16 303.369 195.77 303.759 197.79 303.189C200.02 302.559 200.91 300.879 201.23 298.839C201.6 296.489 200.73 294.819 198.87 293.859C197.09 292.939 195.16 293.329 193.45 294.939C193.11 295.259 192.79 295.599 192.49 295.889" stroke="#2071B5" stroke-width="4.20561" stroke-linecap="round" stroke-linejoin="round"/>
<path d="M378.6 147.609C356.09 159.579 332.98 170.329 310.38 181.649C302.05 177.009 294.01 172.309 285.67 168.149C284.77 167.699 283.91 167.049 283.04 166.469C279.69 164.259 275.58 163.659 272.22 161.469C271.97 161.309 271.78 161.039 271.57 160.829" stroke="#2071B5" stroke-width="4.20561" stroke-linecap="round" stroke-linejoin="round"/>
<path d="M210.9 302.749C216.46 298.209 222.44 294.489 229.53 292.769C238.06 290.689 248.83 293.799 254.48 301.429C258 306.189 259.9 311.419 260.57 317.259C261.07 321.649 261.27 325.969 260.09 330.269" stroke="#2071B5" stroke-width="4.20561" stroke-linecap="round" stroke-linejoin="round"/>
<path d="M301.69 208.06C310.64 203.58 319.61 199.12 328.59 194.69C337.45 190.32 346.34 186 355.21 181.63C360.6 178.98 365.86 176.06 371.23 173.37C371.55 173.21 371.81 173.22 372.11 173.18" stroke="#2071B5" stroke-width="4.20561" stroke-linecap="round" stroke-linejoin="round"/>
<path d="M131.16 294.949C138.64 304.819 142.8 315.809 142.18 328.319C141.85 334.989 139.42 340.909 133.94 344.939C128.97 348.599 123.41 349.109 117.73 346.299C117.01 345.939 116.29 345.579 115.56 345.219" stroke="#2071B5" stroke-width="4.20561" stroke-linecap="round" stroke-linejoin="round"/>
<path d="M211.09 304.039C198.38 312.719 192.65 322.159 189.43 336.969C187.74 344.709 187.02 350.829 187.07 358.419" stroke="#2071B5" stroke-width="4.20561" stroke-linecap="round" stroke-linejoin="round"/>
<path d="M86.5299 306.65C85.6399 300.47 86.4999 294.43 88.0299 288.45C88.5699 286.32 89.6299 284.14 89.7899 282.15C90.0799 278.57 92.2399 276.47 94.3899 274.44C97.1899 271.8 100.87 270.69 104.72 270.24C112.45 269.35 119.16 272.03 125.28 276.35C133.62 282.22 138.65 290.67 142.87 299.71C144.02 302.17 144.99 304.71 146.32 307.09" stroke="#2071B5" stroke-width="4.20561" stroke-linecap="round" stroke-linejoin="round"/>
<path d="M94.9801 303.401C93.3101 301.341 94.1801 298.921 94.1801 296.681C94.1801 293.851 94.9101 291.011 96.1301 288.481C97.8901 284.821 101.04 282.821 105.17 282.601C111.7 282.251 116.93 285.271 121.86 289.091C127.28 293.301 131.61 298.491 134.77 304.521C136.12 307.091 137.81 309.651 138.11 312.711" stroke="#2071B5" stroke-width="4.20561" stroke-linecap="round" stroke-linejoin="round"/>
<path d="M314.9 247.709C315.26 250.619 316.04 253.459 316.42 256.379C317.35 263.429 317.91 270.509 317.27 277.609C316.74 283.479 315.89 289.329 313.34 294.709C310.61 300.479 307.66 306.179 301.91 309.689C301.49 309.949 301.18 310.399 300.88 310.699C304.88 312.729 308.78 315.769 313.6 312.709" stroke="#2071B5" stroke-width="4.20561" stroke-linecap="round" stroke-linejoin="round"/>
<path d="M309.49 182.061C303.95 184.411 298.34 186.631 292.78 188.941C292.1 189.221 291.79 189.671 291.54 190.101C290.54 191.831 290.84 193.851 290.76 195.721C290.72 196.621 292.2 197.341 292.99 198.131C295.37 200.531 297.76 202.941 299.73 205.691C302.78 209.961 306.13 214.011 308.67 218.661C312.85 226.341 315.41 234.601 317.72 242.951C320.29 252.241 320.76 261.771 320.26 271.331C320.07 275.031 319.83 278.841 318.4 282.391C318.3 282.641 318.39 282.961 318.39 283.251" stroke="#2071B5" stroke-width="4.20561" stroke-linecap="round" stroke-linejoin="round"/>
<path d="M89.7798 351.93C100.46 363.2 104.26 364.59 117.68 372.74C125.18 377.29 136.44 378.31 136.85 378.27C137.82 378.18 148.49 376.04 149.42 376.35" stroke="#2071B5" stroke-width="4.20561" stroke-linecap="round" stroke-linejoin="round"/>
<path d="M233.65 316.831C237.3 319.051 241.21 320.791 244.97 322.811C248.94 324.951 252.97 327.031 257.04 329.001C263.31 332.051 269.5 335.281 275.68 338.521C284.09 342.931 292.68 347.011 300.99 351.591C305.89 354.291 308.37 358.761 308.26 364.721C308.07 374.851 304.1 383.281 297.56 390.711C294.87 393.761 291.78 396.301 287.83 397.681C282.53 399.531 277.5 397.581 276.16 391.151C273.49 378.341 276.92 367.551 287.15 359.071C291.53 355.451 296.37 353.391 302.12 353.671C302.36 353.681 302.62 353.721 302.77 353.451" stroke="#2071B5" stroke-width="4.20561" stroke-linecap="round" stroke-linejoin="round"/>
<path d="M377.74 143.71C379.92 144.66 381.71 146.15 383.38 147.82C390.26 154.73 396.87 161.87 401.77 170.37C406.24 178.12 409.68 186.3 411.81 195.04C414.03 204.19 414.58 213.44 414.36 222.78C414.14 231.94 411.77 240.64 408.75 249.22C407.32 253.3 404.56 256.59 402.43 260.25" stroke="#2071B5" stroke-width="4.20561" stroke-linecap="round" stroke-linejoin="round"/>
<path d="M73.9401 314.451C67.4501 316.801 60.7301 322.631 54.4801 325.541C51.8901 326.751 50.8801 329.291 50.3401 332.001C48.8501 339.391 51.2501 345.871 55.1501 351.911C57.0501 354.841 59.3301 357.551 62.4801 359.291C65.7701 361.111 69.2601 361.781 72.8701 360.371C77.0701 358.731 80.8501 356.251 84.8001 354.111C92.9401 349.701 100.66 344.581 108.8 340.161C115.53 336.511 122.31 332.891 128.76 328.741C129.3 328.391 129.64 328.711 130.07 328.761" stroke="#2071B5" stroke-width="4.20561" stroke-linecap="round" stroke-linejoin="round"/>
<path d="M266.58 125.29C266.57 131.79 266.76 138.3 266.33 144.79C266.09 148.47 267.39 150.7 270.88 152.24C275.6 154.32 280.19 156.73 284.75 159.15C290.46 162.18 296.15 165.26 301.68 168.62C304.86 170.56 308.48 171.1 312.08 171.14C314.15 171.16 316.27 171.18 318.36 171.01C322.14 170.69 325.44 169.09 328.79 167.39C335.23 164.1 341.63 160.72 348.26 157.79C352.4 155.96 356.72 154.52 360.61 152.17C360.78 152.07 360.9 151.89 361.05 151.74" stroke="#2071B5" stroke-width="4.20561" stroke-linecap="round" stroke-linejoin="round"/>
<path d="M148.93 350.41C149.77 352.88 149.63 355.45 149.57 357.99C149.38 366.02 150.02 374.02 150.22 382.04C150.4 389.26 150.77 396.48 151.02 403.7C151.18 408.24 150.9 412.84 151.74 417.36C152.16 419.63 153.52 421.11 155.45 422.11C160.62 424.8 165.77 427.51 170.64 430.75C173.05 432.35 175.9 432.18 178.39 430.96C185.19 427.64 191.68 423.74 198.36 420.2C203.67 417.39 219.73 407.84 225.15 405.25" stroke="#2071B5" stroke-width="4.20561" stroke-linecap="round" stroke-linejoin="round"/>
<path d="M211.12 189.859C216.53 187.089 222.05 184.549 227.59 182.059C230.96 180.549 234.22 178.759 237.78 177.749C243.08 176.239 248.44 175.849 253.81 177.499C254.24 177.629 254.63 177.479 254.89 177.079" stroke="#2071B5" stroke-width="4.20561" stroke-linecap="round" stroke-linejoin="round"/>
<path d="M233.65 316.831C230.73 316.041 227.22 318.081 223.53 321.661C220.57 324.531 217.57 327.421 215.2 330.891C211.67 336.061 209.29 341.591 208.22 347.801C207.62 351.281 208 354.531 208.98 357.771C209.95 360.991 212.68 362.551 215.43 364.091C218.68 365.911 222.52 366.291 225.63 368.401" stroke="#2071B5" stroke-width="4.20561" stroke-linecap="round" stroke-linejoin="round"/>
<path d="M108.41 340.661C110.28 343.241 112.4 345.631 114.5 348.001C119.37 353.501 125.79 356.091 132.9 356.851C138.94 357.491 144.24 355.921 148.17 350.701C149.02 349.571 149.15 348.711 149.14 347.591C149.05 340.421 149.37 333.281 149.98 326.141C150.43 320.861 149.57 315.681 148.35 310.531" stroke="#2071B5" stroke-width="4.20561" stroke-linecap="round" stroke-linejoin="round"/>
<path d="M370.59 110.121C363.05 113.821 355.45 117.411 347.83 120.931C339.23 124.911 330.77 129.231 321.82 132.381C314.73 134.871 307.46 134.781 300.4 131.991C292.56 128.901 285.41 124.421 277.87 120.711C273.23 118.431 268.72 115.891 264.19 113.401C262.42 112.431 260.9 111.071 259.01 110.341" stroke="#2071B5" stroke-width="4.20561" stroke-linecap="round" stroke-linejoin="round"/>
<path d="M202.07 256.6C206.54 255.06 210.96 253.4 215.72 252.91C222.94 252.17 230.13 251.53 237.4 252.64C239.9 253.02 242.48 252.99 244.97 253.57" stroke="#2071B5" stroke-width="4.20561" stroke-linecap="round" stroke-linejoin="round"/>
<path d="M282.84 252.04C283.75 256.27 284.71 260.54 284.9 264.83C285.09 268.94 285.88 273.06 285.4 277.17C284.8 282.19 283.73 287.14 281.98 291.91" stroke="#2071B5" stroke-width="4.20561" stroke-linecap="round" stroke-linejoin="round"/>
<path d="M55.7599 325.501C62.0899 326.721 66.6999 330.531 70.4799 335.481C74.8399 341.181 75.9599 347.801 75.4299 354.751C75.2899 356.551 74.5499 358.301 73.3099 359.741" stroke="#2071B5" stroke-width="4.20561" stroke-linecap="round" stroke-linejoin="round"/>
<path d="M236.25 177.29C235.59 176.84 234.73 176.96 234.07 176.43C232.28 174.99 232.36 173.54 234.29 172.3C237.77 170.07 241.64 168.59 245.39 166.99C251.73 164.28 258.03 161.49 264.4 158.84C265.27 158.48 266.21 158.3 267.01 157.79" stroke="#2071B5" stroke-width="4.20561" stroke-linecap="round" stroke-linejoin="round"/>
<path d="M110.36 295.601C120.72 295.431 123.2 300.991 127.7 309.461C129.44 312.731 130.67 316.311 130.8 319.871C130.98 324.901 131.41 330.241 127.28 334.401C124.75 336.951 122.34 337.911 118.81 335.031" stroke="#2071B5" stroke-width="4.20561" stroke-linecap="round" stroke-linejoin="round"/>
<path d="M233.87 373.161C228.65 378.251 223.1 382.791 215.9 384.891C211.86 386.071 204.45 384.141 204.27 384.091C203.46 383.871 199.36 382.741 196.44 380.131" stroke="#2071B5" stroke-width="4.20561" stroke-linecap="round" stroke-linejoin="round"/>
<path d="M162.84 289.119C163.59 284.679 179.22 272.559 183.74 268.899C187.96 265.489 192.39 262.359 196.96 259.439" stroke="#2071B5" stroke-width="4.20561" stroke-linecap="round" stroke-linejoin="round"/>
<path d="M168.19 397.021C168.36 397.791 168.43 400.521 168.43 401.331C168.39 407.051 168.83 412.741 169.11 418.451C169.29 422.071 169.45 425.671 169.08 429.291" stroke="#2071B5" stroke-width="4.20561" stroke-linecap="round" stroke-linejoin="round"/>
<path d="M320.54 144.141C320.54 152.521 320.54 160.901 320.54 169.271" stroke="#2071B5" stroke-width="4.20561" stroke-linecap="round" stroke-linejoin="round"/>
<path d="M116.86 360.811C121.61 363.171 126.25 365.711 131.59 366.711C137.66 367.841 143.53 367.851 149.15 364.931" stroke="#2071B5" stroke-width="4.20561" stroke-linecap="round" stroke-linejoin="round"/>
<path d="M187.07 356.051C186.77 365.511 190.13 373.521 196.6 380.321" stroke="#2071B5" stroke-width="4.20561" stroke-linecap="round" stroke-linejoin="round"/>
<path d="M273.73 159.31C269.87 160.98 266.07 162.77 262.26 164.55C258.22 166.44 254.12 168.2 250.06 170.03C248.3 170.82 248.08 171.7 248.16 173.18" stroke="#2071B5" stroke-width="4.20561" stroke-linecap="round" stroke-linejoin="round"/>
<path d="M277.85 164.51C272.67 167.27 267.08 169.12 261.85 171.74C259.13 173.1 257.06 172.69 254.87 171.03C254.73 170.93 254.45 171.02 254.23 171.02" stroke="#2071B5" stroke-width="4.20561" stroke-linecap="round" stroke-linejoin="round"/>
<path d="M110.36 295.6C110.56 296.5 109.99 296.84 109.28 297.12C98.6797 301.39 88.7297 307 78.5197 312.08C75.9797 313.35 73.4997 314.75 70.9097 315.92" stroke="#2071B5" stroke-width="4.20561" stroke-linecap="round" stroke-linejoin="round"/>
<path d="M279.24 355.409C271.7 360.309 266.16 370.079 267.97 376.639" stroke="#2071B5" stroke-width="4.20561" stroke-linecap="round" stroke-linejoin="round"/>
<path d="M71.8001 292.349C70.0401 291.979 69.4101 290.829 69.1101 289.479C68.8101 288.129 68.6901 287.369 68.6701 285.929C68.6401 284.219 70.1401 283.429 71.5801 283.479C73.3601 283.539 74.8901 285.529 75.1201 287.399C75.3601 289.369 75.3501 290.859 71.9401 292.349" fill="#FFDA00" fill-opacity="0.7"/>
<path d="M71.8001 292.349C70.0401 291.979 69.4101 290.829 69.1101 289.479C68.8101 288.129 68.6901 287.369 68.6701 285.929C68.6401 284.219 70.1401 283.429 71.5801 283.479C73.3601 283.539 74.8901 285.529 75.1201 287.399C75.3601 289.369 75.3501 290.859 71.9401 292.349" stroke="#2071B5" stroke-width="4.20561" stroke-linecap="round" stroke-linejoin="round"/>
<path d="M261.17 231.24C260.12 237.99 260.05 244.8 259.87 251.61" stroke="#2071B5" stroke-width="4.20561" stroke-linecap="round" stroke-linejoin="round"/>
<path d="M306.67 144.42C306.67 152.56 306.67 160.7 306.67 168.85" stroke="#2071B5" stroke-width="4.20561" stroke-linecap="round" stroke-linejoin="round"/>
<path d="M424.54 201.781C424.54 207.991 424.54 214.201 424.54 220.411" stroke="#2071B5" stroke-width="4.20561" stroke-linecap="round" stroke-linejoin="round"/>
<path d="M285.22 168.409C279.98 170.629 274.89 173.189 269.6 175.299C267.47 176.149 266.39 177.329 266.78 179.679C266.89 180.309 266.91 180.999 266.58 181.629" stroke="#2071B5" stroke-width="4.20561" stroke-linecap="round" stroke-linejoin="round"/>
<path d="M331.8 302.31C325.97 304.23 320.66 307.2 315.55 310.55C315.21 310.78 314.81 310.8 314.46 310.98" stroke="#2071B5" stroke-width="4.20561" stroke-linecap="round" stroke-linejoin="round"/>
<path d="M275.68 180.76C275.68 180.3 276.06 180.05 276.34 179.92C281.31 177.5 286.29 175.13 291.28 172.76C291.67 172.57 292.21 172.99 292.58 172.53" stroke="#2071B5" stroke-width="4.20561" stroke-linecap="round" stroke-linejoin="round"/>
<path d="M301.04 177.079C297.08 179.199 292.98 181.039 288.91 182.939C288.26 183.239 287.48 183.339 286.97 183.819C285.33 185.359 283.73 184.999 281.96 184.039C277.28 181.489 272.25 179.629 267.67 176.869" stroke="#2071B5" stroke-width="4.20561" stroke-linecap="round" stroke-linejoin="round"/>
<path d="M285.44 195.28C290.04 199.14 293.71 203.83 297.14 208.71" stroke="#2071B5" stroke-width="4.20561" stroke-linecap="round" stroke-linejoin="round"/>
<path d="M300.6 310.98C298.22 311.74 296.29 313.35 294.14 314.52C292.05 315.66 290.04 317.02 288.03 318.34" stroke="#2071B5" stroke-width="4.20561" stroke-linecap="round" stroke-linejoin="round"/>
<path d="M362.57 123.561C363.09 126.521 362.32 129.491 362.58 132.441C363 137.071 362.61 141.691 362.56 146.311C362.54 148.101 362.07 149.671 360.4 150.641" stroke="#2071B5" stroke-width="4.20561" stroke-linecap="round" stroke-linejoin="round"/>
<path d="M105.16 298.409C104.78 295.449 106.63 293.129 109.49 293.239C112.03 293.329 117.84 293.509 120.08 294.999" stroke="#2071B5" stroke-width="4.20561" stroke-linecap="round" stroke-linejoin="round"/>
<path d="M439.27 202.639C439.27 205.819 439.27 208.999 439.27 212.169" stroke="#2071B5" stroke-width="4.20561" stroke-linecap="round" stroke-linejoin="round"/>
<path d="M189.23 189.209C192.56 190.329 195.63 191.989 198.76 193.539" stroke="#2071B5" stroke-width="4.20561" stroke-linecap="round" stroke-linejoin="round"/>
<path d="M375.14 144.571C374.78 144.571 374.54 144.241 374.04 144.541C371.2 146.211 368.26 147.721 365.18 148.911" stroke="#2071B5" stroke-width="4.20561" stroke-linecap="round" stroke-linejoin="round"/>
<path d="M305.13 134.17C304.18 137.09 304.94 140.1 304.7 143.05" stroke="#2071B5" stroke-width="4.20561" stroke-linecap="round" stroke-linejoin="round"/>
<path d="M318.72 134.17C319.22 137.05 318.79 139.95 318.94 142.84" stroke="#2071B5" stroke-width="4.20561" stroke-linecap="round" stroke-linejoin="round"/>
<path d="M296.27 190.081C298.94 191.191 299.14 193.521 299.06 195.931C299.04 196.591 298.61 197.231 299.08 197.881" stroke="#2071B5" stroke-width="4.20561" stroke-linecap="round" stroke-linejoin="round"/>
<path d="M226.07 368.609C228.77 369.879 231.74 370.609 233.93 372.889C234.21 373.179 235.17 373.219 235.82 373.379" stroke="#2071B5" stroke-width="4.20561" stroke-linecap="round" stroke-linejoin="round"/>
<path d="M154.57 223.01C157.33 221.75 159.91 220.09 162.8 219.11" stroke="#2071B5" stroke-width="4.20561" stroke-linecap="round" stroke-linejoin="round"/>
<path d="M305.8 222.581C306.84 225.371 308.45 227.921 309.27 230.811" stroke="#2071B5" stroke-width="4.20561" stroke-linecap="round" stroke-linejoin="round"/>
<path d="M101.97 345.42C102.77 348.52 114.23 358.54 116.87 360.81" stroke="#2071B5" stroke-width="4.20561" stroke-linecap="round" stroke-linejoin="round"/>
<path d="M363.25 114.239C363.73 116.799 363.34 119.389 363.47 121.969" stroke="#2071B5" stroke-width="4.20561" stroke-linecap="round" stroke-linejoin="round"/>
<path d="M260.47 111.39V118.11" stroke="#2071B5" stroke-width="4.20561" stroke-linecap="round" stroke-linejoin="round"/>
<path d="M284.79 185.31C285.05 187.47 284.48 189.66 285.01 191.81" stroke="#2071B5" stroke-width="4.20561" stroke-linecap="round" stroke-linejoin="round"/>
<path d="M273.73 185.741C276.76 187.021 279.28 189.111 281.96 190.941" stroke="#2071B5" stroke-width="4.20561" stroke-linecap="round" stroke-linejoin="round"/>
<path d="M268.1 151.07C267.67 153.3 267.97 155.55 267.88 157.79" stroke="#2071B5" stroke-width="4.20561" stroke-linecap="round" stroke-linejoin="round"/>
<path d="M142 340.451C140.5 342.541 138.9 344.551 136.8 346.081" stroke="#2071B5" stroke-width="4.20561" stroke-linecap="round" stroke-linejoin="round"/>
<path d="M118.16 303.18C120.07 304.73 121.81 306.47 123.36 308.38" stroke="#2071B5" stroke-width="4.20561" stroke-linecap="round" stroke-linejoin="round"/>
<path d="M275.68 181.191C274.85 182.791 276.01 184.571 275.25 186.171" stroke="#2071B5" stroke-width="4.20561" stroke-linecap="round" stroke-linejoin="round"/>
<path d="M384.67 149.77C383.62 151.29 381.43 150.92 380.34 152.37" stroke="#2071B5" stroke-width="4.20561" stroke-linecap="round" stroke-linejoin="round"/>
<path d="M267.23 159.31C268.21 159.62 269.14 160.02 269.83 160.83" stroke="#2071B5" stroke-width="4.20561" stroke-linecap="round" stroke-linejoin="round"/>
<path d="M264.2 180.979C265.54 180.909 266.4 182.149 267.67 182.279" stroke="#2071B5" stroke-width="4.20561" stroke-linecap="round" stroke-linejoin="round"/>
<path d="M402.41 260.261C401.31 262.191 400.68 263.161 401.35 263.741" stroke="#2071B5" stroke-width="4.20561" stroke-linecap="round" stroke-linejoin="round"/>
<path d="M59.6602 336.759C63.4302 338.399 66.1402 341.029 67.4702 344.989C67.9102 346.289 67.7802 347.629 67.6202 348.889C67.3802 350.769 65.2502 351.649 63.3502 350.839C59.4202 349.169 56.3602 344.199 56.8602 339.579C57.0202 338.069 57.7702 336.959 59.4402 336.759" stroke="#2071B5" stroke-width="4.20561" stroke-linecap="round" stroke-linejoin="round"/>
<path d="M295.62 366.88C297.96 367.4 299.07 369.65 298.87 372.73C298.58 377.12 294.59 383.16 289.56 384.66C286.81 385.48 284.48 384.09 284.4 381.18C284.24 375.52 286.33 370.85 291.08 367.53C292.43 366.59 293.95 366.96 295.42 366.88" stroke="#2071B5" stroke-width="4.20561" stroke-linecap="round" stroke-linejoin="round"/>
<path d="M272.65 303.4C276.38 304.77 277.77 308.73 275.68 312.07C274.09 314.6 269.99 314 268.31 310.99C266.48 307.7 268.44 304.09 272.43 303.41" fill="#FFDA00" fill-opacity="0.7"/>
<path d="M272.65 303.4C276.38 304.77 277.77 308.73 275.68 312.07C274.09 314.6 269.99 314 268.31 310.99C266.48 307.7 268.44 304.09 272.43 303.41" stroke="#2071B5" stroke-width="4.20561" stroke-linecap="round" stroke-linejoin="round"/>
<path d="M126.21 250.991C128.96 251.771 130.6 254.501 129.93 257.191C129.68 258.201 128.19 259.521 127.14 259.671C125.97 259.841 124.12 258.841 123.42 257.651C121.64 254.661 122.7 251.981 126.06 250.981" fill="#FFDA00" fill-opacity="0.7"/>
<path d="M126.21 250.991C128.96 251.771 130.6 254.501 129.93 257.191C129.68 258.201 128.19 259.521 127.14 259.671C125.97 259.841 124.12 258.841 123.42 257.651C121.64 254.661 122.7 251.981 126.06 250.981" stroke="#2071B5" stroke-width="4.20561" stroke-linecap="round" stroke-linejoin="round"/>
<path d="M88.2998 246.031C91.0498 246.811 92.6898 249.54 92.0198 252.23C91.7698 253.24 90.2798 254.561 89.2298 254.711C88.0598 254.881 86.2098 253.881 85.5098 252.691C83.7298 249.701 84.7898 247.021 88.1498 246.021" fill="#FFDA00" fill-opacity="0.7"/>
<path d="M88.2998 246.031C91.0498 246.811 92.6898 249.54 92.0198 252.23C91.7698 253.24 90.2798 254.561 89.2298 254.711C88.0598 254.881 86.2098 253.881 85.5098 252.691C83.7298 249.701 84.7898 247.021 88.1498 246.021" stroke="#2071B5" stroke-width="4.20561" stroke-linecap="round" stroke-linejoin="round"/>
<path d="M173.87 355.411C176.46 356.491 177.92 358.731 177.55 361.041C177.19 363.271 175.33 365.111 173.22 365.381C170.79 365.691 168.16 363.951 167.79 361.261C167.33 357.921 170.15 355.681 172.35 355.421C172.78 355.371 173.22 355.421 173.65 355.421" fill="#FFDA00" fill-opacity="0.7"/>
<path d="M173.87 355.411C176.46 356.491 177.92 358.731 177.55 361.041C177.19 363.271 175.33 365.111 173.22 365.381C170.79 365.691 168.16 363.951 167.79 361.261C167.33 357.921 170.15 355.681 172.35 355.421C172.78 355.371 173.22 355.421 173.65 355.421" stroke="#2071B5" stroke-width="4.20561" stroke-linecap="round" stroke-linejoin="round"/>
<path d="M226.81 389.44C228.45 390.21 229.93 391.01 229.67 393.3C229.41 395.54 228.26 397.01 226.3 397.92C224.07 398.95 221.85 397.99 220.9 395.61C219.92 393.15 221.27 390.62 223.98 389.68C224.84 389.38 225.7 389.49 226.56 389.44" fill="#FFDA00" fill-opacity="0.7"/>
<path d="M226.81 389.44C228.45 390.21 229.93 391.01 229.67 393.3C229.41 395.54 228.26 397.01 226.3 397.92C224.07 398.95 221.85 397.99 220.9 395.61C219.92 393.15 221.27 390.62 223.98 389.68C224.84 389.38 225.7 389.49 226.56 389.44" stroke="#2071B5" stroke-width="4.20561" stroke-linecap="round" stroke-linejoin="round"/>
<path d="M191.99 393.89C193.63 394.66 195.11 395.46 194.85 397.75C194.59 399.99 193.44 401.46 191.48 402.37C189.25 403.4 187.03 402.44 186.08 400.06C185.1 397.6 186.45 395.07 189.16 394.13C190.02 393.83 190.88 393.94 191.74 393.89" fill="#FFDA00" fill-opacity="0.7"/>
<path d="M191.99 393.89C193.63 394.66 195.11 395.46 194.85 397.75C194.59 399.99 193.44 401.46 191.48 402.37C189.25 403.4 187.03 402.44 186.08 400.06C185.1 397.6 186.45 395.07 189.16 394.13C190.02 393.83 190.88 393.94 191.74 393.89" stroke="#2071B5" stroke-width="4.20561" stroke-linecap="round" stroke-linejoin="round"/>
</svg>
