<?xml version="1.0" encoding="UTF-8"?>
<svg id="icons" xmlns="http://www.w3.org/2000/svg" viewBox="0 0 500 500">
  <defs>
    <style>
      .cls-1 {
        fill: none;
        stroke: #000;
        stroke-linecap: round;
        stroke-linejoin: round;
        stroke-width: .91px;
      }
    </style>
  </defs>
  <path class="cls-1" d="M275.64,390.88c3.21,1.24,2.62,1.27,5.71,2.77,7.35,3.55,14.9,6.65,22.31,10.06,2.53,1.16,5.12,2.15,7.56,3.57,5.93,3.46,6.25,11.2,1.59,15.57-2.84,2.67-6.12,4.52-9.6,6.12-7.9,3.64-15.74,7.42-23.71,10.91-6.08,2.66-11.91,5.92-18.23,7.95-5.95,1.91-12.12,2.12-18.2.48-7.49-2.01-14.21-5.89-21.17-9.15-9.04-4.24-17.9-8.85-26.92-13.14-2.39-1.14-4.26-2.79-5.7-5.01-3.01-4.64-1.33-10.84,3.41-13.71,3.83-2.31,8.01-3.74,12.1-5.43,7.55-3.13,14.81-6.84,21.87-10.94"/>
  <path class="cls-1" d="M278.39,107.5c5.04,2.59,10.02,5.26,14.58,8.65,11.76,8.75,19.48,20.38,23.82,34.21,1.65,5.24,2.38,10.8,2.38,16.37,0,23.09-.19,46.18.08,69.26.12,10.69-4.76,18.04-13.55,23.2-5.53,3.24-11.62,5.33-17.52,7.78-1.23.51-2.68-.09-3.87.69"/>
  <path class="cls-1" d="M277.93,107.27c-3.8-1.63-7.66-3.08-11.6-4.38-3.52-1.16-7.14-1.5-10.73-1.69-5.62-.3-11.28-.3-16.85.83-4.88.99-9.57,2.57-14.12,4.56-5.39,2.35-10.57,5.13-15.24,8.69-11.28,8.6-19.96,19.15-24.21,32.99-1.9,6.19-3.11,12.41-3.2,18.92-.17,12.53-.23,25.06-.14,37.59.03,3.41.23,6.84.12,10.25-.03,1-.37,1.89-1.71,2.61-5.91,3.19-11.8,6.45-16.48,11.49-5.37,5.78-7.09,12.36-5.5,20.08,1.47,7.11,6.06,11.76,11.44,15.94,7.54,5.85,16.07,9.75,25.06,12.76,3.66,1.22,7.3,2.53,11.16,2.96"/>
  <path class="cls-1" d="M193.18,415.75c2.73,2.82,6.39,4.23,9.85,5.57,5.71,2.2,11.06,5.11,16.57,7.68,5.69,2.66,11.22,5.66,16.89,8.37,5.16,2.47,10.56,4.21,16.39,3.64,3.33-.32,6.47-1.44,9.58-2.68,8.86-3.52,17.24-8.06,25.93-11.95,4.85-2.17,9.9-3.82,14.65-6.24,1.77-.9,3.41-1.82,4.75-3.26"/>
  <path class="cls-1" d="M185.43,302.29c2.63,7.06,6.38,13.32,11.78,18.75,5.69,5.73,10.92,11.92,15.81,18.37,1.2,1.59,1.71,3.28,1.84,5.25.33,5.04,1.45,9.88,4.77,13.89,2.63,3.19,6.27,4.86,10,6.41,5.99,2.5,12.25,3.59,18.69,4.13,3.82.32,7.64.29,11.39-.13,7.81-.87,15.53-2.32,21.18-8.6,2.65-2.95,4-6.49,4.11-10.47.06-2.41.51-4.76,1.19-7.05.2-.68.2-1.23-.04-1.83"/>
  <path class="cls-1" d="M168.12,269.94c8.53,8.13,19.02,12.83,29.86,16.82,8.77,3.22,17.85,5.49,27.1,6.84,6.34.93,12.73,1.44,19.13,1.9,6.33.46,12.64.11,18.91-.37,10.89-.83,21.74-1.98,32.38-4.83,7.5-2.01,14.72-4.56,21.62-8.06,1.4-.71,2.63-1.7,4.1-2.28"/>
  <path class="cls-1" d="M157.41,248.53c-.45,2.2-.22,4.4-.01,6.61.26,2.73-.14,5.45-.05,8.2.36,10.62,4.66,19.01,13.26,25.31,10.21,7.47,21.73,11.65,33.95,14.38,8.3,1.86,16.67,3.31,25.08,4.45,6.48.88,13.03,1.12,19.58,1.3,5.87.16,11.72-.07,17.54-.42,8.76-.53,17.46-1.78,25.97-4.03,6.46-1.71,12.83-3.71,19.14-5.92,6.18-2.17,12.29-4.56,17.76-8.21,6.79-4.54,12.19-10.32,14.32-18.44,1.05-3.99,1.35-8.06.9-12.31-.37-3.51-.94-7.06-.7-10.7.66-10.04-4.11-17.49-11.99-23.24-3.15-2.3-6.52-4.24-10.04-5.88-.69-.32-1.1-.96-1.8-1.18"/>
  <path class="cls-1" d="M193.63,170.61c-.07,2.85.98,5.57.98,8.43,0,.72.14,1.52.14,2.28.02,11.39.15,22.79-.04,34.17-.11,6.8,2.58,12.08,7.58,16.39.65.56,1,1.53,2.04,1.61"/>
  <path class="cls-1" d="M170.17,77.88c2.45,2.03,5.42,3.2,8.24,4.48,9.6,4.35,18.86,9.38,28.43,13.79,5.12,2.36,10.12,4.98,15.26,7.3,1.26.57,2.48,1.38,3.44,2.46"/>
  <path class="cls-1" d="M331.7,78.11c-9.1,5.25-18.44,10.04-27.79,14.82-8.14,4.17-16.15,8.57-24.14,13.01-.53.3-1.25.28-1.61.88"/>
  <path class="cls-1" d="M251.5,49.4c-.38.81-.22,1.67-.22,2.51,0,15.87,0,31.74,0,47.62"/>
  <path class="cls-1" d="M339.9,255.36c-7.82,10.2-18.36,16.52-30.07,21.19-7.69,3.07-15.63,5.31-23.71,7-1.93.4-3.92.79-5.91.98"/>
  <path class="cls-1" d="M205.94,269.71v11.55c14.74,2.75,29.43,3.99,44.2,4.39"/>
  <path class="cls-1" d="M292.51,249.89c-6.13,1.77-12.31,3.21-18.68,3.92-5.61.63-11.23,1.15-16.87,1.29-10.16.26-20.27-.38-30.3-2.04-6.6-1.09-13.02-2.9-19.37-5"/>
  <path class="cls-1" d="M317.8,298.42c-.94,1.97-1.27,4.14-2.06,6.15-2.02,5.1-5.04,9.64-8.7,13.63-6.8,7.42-13.35,15.06-19.99,22.61-.2.23-.55.16-.69.45"/>
  <path class="cls-1" d="M181.56,217.54c-.04,5.47.22,10.93.28,16.4.04,3.34-.14,6.75.86,10.02,1.85,6.06,5.35,10.85,10.68,14.39,3.49,2.31,7.27,3.81,11.14,5.32,3.13,1.23,6.34,2.3,9.39,3.75"/>
  <path class="cls-1" d="M286.59,228.02c-23.89,6.99-47.73,6.37-71.54-.46"/>
  <path class="cls-1" d="M276.11,391.6c-.49,5.23-.37,10.49-.17,15.72.2,5.27-1.75,9.11-6.2,11.87-4.49,2.77-9.57,3.6-14.61,4.16-2.18.24-4.54.34-6.82.15"/>
  <path class="cls-1" d="M215.05,320.52c4.83,1.55,9.8,2.45,14.81,3.19,8.46,1.25,16.98,1.72,25.51,1.32,8.53-.4,17.02-1.26,25.29-3.59.28-.08.6-.01.91-.01"/>
  <path class="cls-1" d="M251.27,350.14c.55-4.93.01-9.87.3-15.13-12.32-.02-24.35-1.72-36.07-5.37"/>
  <path class="cls-1" d="M287.04,237.36c-7.51,2.73-15.34,3.64-23.24,4.36-4.03.37-8.05.44-12.08.43"/>
  <path class="cls-1" d="M217.78,345.13c1.22,2.78,3.53,4.53,5.93,6.14,5.16,3.46,11.1,4.57,17.08,5.47,5.29.79,10.65.79,15.94.39,8.1-.62,16.15-1.72,23.27-6.26,2.08-1.33,3.36-3.12,4.31-5.27"/>
  <path class="cls-1" d="M285.68,330.55c-3.69.65-7.24,1.91-10.94,2.5-5.36.86-10.74,1.64-16.17,1.83-2.28.08-4.55.34-6.83.23"/>
  <path class="cls-1" d="M217.78,341.94c8.63,4.92,17.86,7.85,27.8,8.43,5.87.34,11.74.15,17.54-.72,6.44-.97,12.61-2.94,18.48-5.85,1.61-.8,2.78-2.26,4.54-2.77"/>
  <path class="cls-1" d="M284.76,221.64c-3.9.61-7.7,1.7-11.6,2.36-4.47.77-8.95,1.27-13.46,1.48-7.76.37-15.52.29-23.23-.67-6.01-.75-11.97-1.84-17.77-3.63"/>
  <path class="cls-1" d="M251.27,242.15c-8.04-.11-16.01-.68-23.94-2.18-1.94-.37-3.86-1.18-5.9-1.01"/>
  <path class="cls-1" d="M241.02,94.06c-6.06-3.3-11.59-7.47-17.55-10.92-3.96-2.3-7.51-5.23-11.61-7.3"/>
  <path class="cls-1" d="M315.75,298.65c-3.67,7.47-9.61,12.61-16.86,16.41-1.99,1.04-3.84,2.33-6.14,2.78"/>
  <path class="cls-1" d="M280.39,284.51c-4.68.82-9.6.89-14.33,1.19-3.41.22-6.81.48-10.24.35-1.37-.05-2.73-.28-4.31-.73v-7.62"/>
  <path class="cls-1" d="M291.37,75.15c-4.38,3.19-8.97,6.06-13.43,9.12-4.76,3.27-9.6,6.41-14.59,9.33"/>
  <g>
    <path class="cls-1" d="M294.66,416.73c7.44-.94,4.15-9.44-.94-9.02"/>
    <path class="cls-1" d="M293.3,407.7c-3.78.49-4.23,2.64-4.23,5.06.27,3.1,2.26,4.42,5.4,3.97"/>
  </g>
  <g>
    <path class="cls-1" d="M251.89,437.48c7.44-.94,4.15-9.44-.94-9.02"/>
    <path class="cls-1" d="M250.53,428.45c-3.78.49-4.23,2.64-4.23,5.06.27,3.1,2.26,4.42,5.4,3.97"/>
  </g>
  <g>
    <path class="cls-1" d="M208.75,415.04c7.44-.94,4.15-9.44-.94-9.02"/>
    <path class="cls-1" d="M207.39,406.02c-3.78.49-4.23,2.64-4.23,5.06.27,3.1,2.26,4.42,5.4,3.97"/>
  </g>
  <path class="cls-1" d="M281.57,210.71c-2.88,0-5.57,1.1-8.42,1.44-5.39.64-10.75,1.3-16.18,1.29-.91,0-1.82,0-2.73,0"/>
  <path class="cls-1" d="M276.11,198.86c-2.03-.04-3.95.63-5.92.95-8.69,1.41-17.4,1.83-26.21,1.4-5.12-.25-10.18-.92-15.26-1.45-1.54-.16-2.95-1.03-4.56-.9"/>
  <path class="cls-1" d="M250.13,213.9c-.59-1.01-1.53-.39-2.28-.42-6.99-.33-13.92-1.05-20.75-2.69-1.21-.29-2.53-.63-3.85-.53"/>
  <path class="cls-1" d="M249.68,193.85c-8.88.03-17.7-.59-26.43-2.28"/>
  <path class="cls-1" d="M251.5,274.95v-26.25c-3.62-.66-7.3-.27-10.94-.6-5.33-.49-10.73-.39-15.95-1.84-.28-.08-.6-.01-.91-.01"/>
  <path class="cls-1" d="M227.12,365.18c0,13.29-.06,26.58.05,39.87.02,2.95-.09,5.96.64,8.89"/>
  <path class="cls-1" d="M276.56,269.03c.14-.75-.17-1.06-.91-.91-4.59.91-9.24,1.09-13.9,1.39-6.54.42-13.06.34-19.6.02-5.45-.26-10.82-.95-16.17-1.87"/>
  <path class="cls-1" d="M275.65,365.18c.51,3.56.22,7.14.2,10.71-.02,4.94.32,9.88-.2,14.81"/>
  <path class="cls-1" d="M277.02,274.5c-5.21.83-10.46,1.06-15.72,1.42-3.19.22-6.4-.11-9.57.4"/>
  <path class="cls-1" d="M251.27,276.32c-7.46-.18-14.92-.26-22.33-1.34-.99-.14-1.95-.5-2.96-.49"/>
  <path class="cls-1" d="M343.77,253.99c-2,9.38-8.51,15.46-15.5,21.17-.14.11-6.69,4.74-6.92,4.74"/>
  <path class="cls-1" d="M250.13,142.81c-3.11,0-6.23.07-9.34-.02-3.91-.11-7.71,1.07-11.62.93"/>
  <path class="cls-1" d="M189.53,305.94c6,5.6,12.97,9.63,20.5,12.76"/>
  <path class="cls-1" d="M272.01,247.16c-5.78.32-11.51,1.17-17.31,1.21-.96,0-1.98,0-2.96.16"/>
  <path class="cls-1" d="M266.99,418.03c.7-6.22.37-12.45.48-18.68"/>
  <path class="cls-1" d="M267.91,134.16c-3.23.05-6.36.88-9.57,1.14-5.84.48-11.7.34-17.54.13-2.95-.11-5.93-.81-8.89-1.27"/>
  <path class="cls-1" d="M267.91,369.28c.34,9.73-.63,19.44-.46,29.16"/>
  <path class="cls-1" d="M337.39,242.6c1.33-.9,1.05-1.99.47-3.19-1.04-2.13-2.84-3.45-5.03-3.79-2.31-.36-4.76-.41-6.38,1.97-1.2,1.76-.99,2.89.93,3.88,2.24,1.16,4.51,1.82,7.08.97.79-.26,1.84-.31,2.72.17"/>
  <path class="cls-1" d="M165.66,239.25c-1.33-.9-1.05-1.99-.47-3.19,1.04-2.13,2.84-3.45,5.03-3.79,2.31-.36,4.76-.41,6.38,1.97,1.2,1.76.99,2.89-.93,3.88-2.24,1.16-4.51,1.82-7.08.97-.79-.26-1.84-.31-2.72.17"/>
  <path class="cls-1" d="M251.5,165.14v-6.26c-5.93-.41-11.85.04-17.77.34"/>
  <path class="cls-1" d="M251.5,166.51c-.91,1.12-1.99.14-2.96.17-4.49.11-8.95.76-13.44.74"/>
  <path class="cls-1" d="M293.31,150.63c2.25,5.18,3.33,10.67,4.33,16.18"/>
  <path class="cls-1" d="M251.5,309.13v15.95"/>
  <path class="cls-1" d="M204.11,246.25c1.47-.13.88.99.89,1.6.04,4.18,0,8.35.04,12.53,0,.6-.27,1.27.21,1.82"/>
  <path class="cls-1" d="M181.33,259.46c4.67,2.81,9.36,5.59,14.58,7.29"/>
  <path class="cls-1" d="M251.5,136.89v20.5"/>
  <path class="cls-1" d="M252.41,158.76c5.55-.07,11.1-.08,16.63.49,3.58.37,7.13.96,10.71,1.34"/>
  <path class="cls-1" d="M254.92,166.74c3.24.56,6.55-.08,9.81.63,1.32.29,2.67.79,4.09.51"/>
  <path class="cls-1" d="M205.48,204.33c-.39,2.2-.11,4.4-.03,6.61.11,3.11.03,6.23.03,9.34"/>
  <path class="cls-1" d="M250.59,370.64c-.14,4.4.3,8.82-.23,13.21"/>
  <path class="cls-1" d="M206.85,290.9c.98,1.32.39,2.9.61,4.34.4,2.73,1.14,5.41,1.21,8.19"/>
  <path class="cls-1" d="M295.24,249.89v12.3"/>
  <path class="cls-1" d="M294.79,291.81c.23,3.51-.78,6.97-.46,10.48.03.32-.13.48-.45.46"/>
  <path class="cls-1" d="M209.58,155.12c-.75,3.21-1.57,6.41-2.52,9.56-.23.75-.65,1.47.7,1.37"/>
  <path class="cls-1" d="M251.5,296.83v10.94"/>
  <path class="cls-1" d="M295.24,270.4v10.71"/>
  <path class="cls-1" d="M251.5,357.66v10.71"/>
  <path class="cls-1" d="M293.88,304.34c.03,2.86-.65,5.64-1.19,8.42-.12.63-.05,1.23-.18,1.83"/>
  <path class="cls-1" d="M232.39,417.57c3.01,1.74,6.13,3.17,9.63,3.59"/>
  <path class="cls-1" d="M251.5,202.5v9.57"/>
  <path class="cls-1" d="M251.5,214.81v9.57"/>
  <path class="cls-1" d="M206.53,170.15c.21,2.15-.73,4.22-.47,6.38.06.52-.19,1.18.05,1.57.75,1.29.68,2.26-.72,2.99-.39.2-.18.6-.23.91"/>
  <path class="cls-1" d="M254.92,142.59c2.95.52,5.93.09,8.89.23"/>
  <path class="cls-1" d="M251.5,233.26v13.9"/>
  <path class="cls-1" d="M209.13,305.48c.29,3.91.97,7.76,1.59,11.62"/>
  <path class="cls-1" d="M193.18,152.38c-1.7,2.34-1.06,5.16-1.59,7.75"/>
  <path class="cls-1" d="M210.95,318.7c.78,2.14.82,4.42,1.32,6.62.16.68.33,1.36.5,2.04"/>
  <path class="cls-1" d="M184.52,298.19c1.53,2.06,2.33,4.55,3.87,6.61"/>
  <path class="cls-1" d="M251.05,119.58c.66,5.23.4,10.48.46,15.72"/>
  <path class="cls-1" d="M295.24,282.7c.15,2.43-.3,4.87.23,7.29"/>
  <path class="cls-1" d="M251.5,225.97v5.7"/>
  <path class="cls-1" d="M204.57,232.58v6.38"/>
  <path class="cls-1" d="M251.5,351.96c.15,1.67-.3,3.36.23,5.01"/>
  <path class="cls-1" d="M205.57,264.5c-.13.79.16,1.91.27,3.03.02.22.06,2.87.1,5.21"/>
  <path class="cls-1" d="M306.18,169.93c.07,2.85-.98,5.57-.98,8.43,0,.72-.14,1.52-.14,2.28-.02,11.39-.15,22.79.04,34.17.11,6.8-2.58,12.08-7.58,16.39-.65.56-1,1.53-2.04,1.61"/>
</svg>