<?xml version="1.0" encoding="UTF-8"?>
<svg id="icons" xmlns="http://www.w3.org/2000/svg" viewBox="0 0 500 500">
  <defs>
    <style>
      .cls-1 {
        fill: none;
        stroke: #000;
        stroke-linecap: round;
        stroke-linejoin: round;
        stroke-width: .82px;
      }
    </style>
  </defs>
  <path class="cls-1" d="M101.62,359c-1.6,3.26-1.86,6.69-1.45,10.24.64,5.43,4.18,8.68,8.4,11.47,8.68,5.75,17.19,11.76,25.78,17.65,9.89,6.77,19.79,13.52,29.72,20.24,11.24,7.61,22.51,15.19,33.75,22.8,4.03,2.73,8.26,4.65,12.96,5.38,2.56.4,5.22.44,7.76.95,7.22,1.44,13.69-1.46,20.26-3.39,11.52-3.38,22.96-7.04,34.4-10.66,8.29-2.62,16.52-5.48,24.83-8.04,14.67-4.52,29.27-9.27,44-13.64,12.62-3.75,25.19-7.71,37.69-11.85,4.73-1.57,9.47-3.13,14.15-4.87,4.02-1.49,6.45-4.06,6.52-8.43.05-3.18.41-6.44-1.2-9.42"/>
  <path class="cls-1" d="M337.34,185.74c.78.42.61,1.17.61,1.84,0,11.61,0,23.21,0,34.82,0,6.42-.06,12.83.02,19.25.07,6.28-.16,12.56-.26,18.84-.24,15.84-.28,31.68-.11,47.51.14,12.56.49,25.12.32,37.68-.1,7.25-2.65,13.71-7.35,19.24-7.59,8.95-17.56,14.11-28.45,17.84-10.91,3.73-22.13,5.84-33.59,6.72-6.67.51-13.37.83-20.07.62-5.89-.18-11.75-.78-17.62-1.37-6.92-.7-13.72-2.02-20.47-3.56-7.87-1.8-15.59-4.32-22.68-8.07-8.53-4.51-16.26-10.15-19.78-19.93-1.86-5.16-1.98-10.35-1.08-15.57.35-2.03,2.11-3.67,3.42-5.32,7.73-9.79,18.11-15.38,29.86-18.91,5.09-1.53,10.19-2.99,15.39-3.96,3.71-.69,7.49-1.23,11.24-1.8,8.78-1.34,17.59-1.75,26.43-1.53,11.11.27,22.16,1.13,32.77,4.86.24.09.54.01.82.01"/>
  <path class="cls-1" d="M362.33,135.56c-1.14.44-1.4,1.61-2.05,2.46-4.07,5.32-9.53,8.86-15.37,11.87-10.94,5.64-22.42,10-34.42,12.61-8.55,1.86-17.23,3.22-25.98,4.05-7.23.68-14.47,1.18-21.72,1.52-6.88.32-13.79.09-20.68.06-7.88-.03-15.72-.66-23.55-1.4-9.87-.94-19.66-2.49-29.26-4.83-9.58-2.34-19.07-5.13-28.09-9.3-5.03-2.32-9.84-5-14.3-8.25-2.77-2.02-5.23-4.44-7.62-6.91-.35-.36-.51-.7-.37-1.04,1.28-2.91,2.01-6.08,4.08-8.61,2.55-3.12,5.71-5.5,8.99-7.81,10.21-7.2,21.91-10.94,33.62-14.67.91-.29,2.02-.42,3.06-.26"/>
  <path class="cls-1" d="M134.39,157.47c-.6.59-.4,1.35-.4,2.05,0,5.53.07,11.06-.02,16.59-.44,29.35.07,58.71-.24,88.06-.18,16.93.07,33.86-.22,50.79-.08,4.91.14,9.84-.33,14.75-.27,2.87.48,5.68.3,8.61-.36,5.57.15,11.2-.18,16.78-.29,4.93.52,9.57,2.14,14.13,2.39,6.74,6.32,12.38,11.62,17.25,7.92,7.28,17.29,11.95,27.09,15.9,10.35,4.17,21.07,7.26,31.96,9.56,7.61,1.61,15.34,2.7,23.12,3.42,8.4.78,16.79.87,25.19.73,7.05-.12,14.08-.75,21.09-1.45,2.61-.26,5.22-1.16,7.79-1.28,7.72-.36,14.91-2.97,22.3-4.67,11.27-2.59,22.31-6.07,33.39-9.38,10.42-3.12,20.8-6.42,31.12-9.84,6.72-2.22,13.57-4.09,20.08-6.93,2.57-1.12,4.95-2.53,7.2-4.26,3.64-2.81,2.55-6.58.57-9.04-2.1-2.61-5.13-3.98-7.98-5.53-5.44-2.94-10.93-5.8-15.98-9.41-1.25-.89-2.32-1.9-3.27-3.09-.35-.44-.76-.88-1.42-.83"/>
  <path class="cls-1" d="M340.62,174.06c-.16,3.84-1.17,7.39-3.25,10.66-.98,1.54-2.15,2.93-3.34,4.25-7.45,8.28-16.46,14.35-26.79,18.46-8.42,3.35-17.06,5.82-26,7.42-12.96,2.32-26.02,3.12-39.12,2.54-9.09-.41-18.15-1.51-27.03-3.63-9.14-2.18-18.07-4.99-26.21-9.83-6.15-3.65-12.14-7.53-17.01-12.88-1.74-1.92-3.19-4.01-4.3-6.35-.36-.76-.61-1.61-1.43-2.05"/>
  <path class="cls-1" d="M373.39,131.26c-1.98,3.4-3.83,6.86-6.74,9.65-4.67,4.47-9.72,8.42-15.18,11.85-7.35,4.62-15.64,7-23.73,9.89-6.57,2.35-13.32,3.95-20.1,5.43-7.22,1.57-14.54,2.63-21.9,3.33-12.74,1.21-25.5,1.8-38.3,1.63-8.47-.12-16.96-.32-25.39-1.09-7.05-.65-14.1-1.36-21.12-2.47-10.06-1.59-19.89-3.95-29.45-7.33-6.39-2.26-12.66-4.89-18.67-8.11-4.66-2.49-9.13-5.27-13.49-8.23-.46-.31-.77-.87-1.44-.81"/>
  <path class="cls-1" d="M166.13,175.7c-.17.74-.37,1.48-.42,2.25-.47,7.92-.04,15.84.06,23.76.04,3,.17,6.01.15,9.01-.14,16.04.09,32.09.26,48.13.28,26.28.03,52.57.16,78.85,0,1-.17,2.03.61,2.87"/>
  <path class="cls-1" d="M138.28,160.96c-.31.59-.2,1.22-.2,1.84,0,7.37-.14,14.75.02,22.12.89,42.19.15,84.38.36,126.57.02,3.48-.38,6.96-.01,10.45"/>
  <path class="cls-1" d="M366.43,156.45c1.06,2.86.7,5.89.75,8.81.25,13.31.47,26.63.78,39.93.58,25.13-.01,50.25.36,75.37.15,10.31-.02,20.62.19,30.92.15,7.58.28,15.16.14,22.73-.09,4.99-.4,9.98.08,14.95.42,4.34.36,8.68-.51,12.89-1.61,7.76-5.2,14.63-10.59,20.49-6.26,6.81-13.56,12.17-22.11,15.77-.82.34-1.53.95-2.46,1.03"/>
  <path class="cls-1" d="M132.75,339.95c-3.98,3.55-8.74,5.25-13.92,6.19-3.96.72-7.81,1.95-11.47,3.65-2.55,1.18-4.17,3.2-5.35,5.72-1.19,2.54.52,5.33,2.52,7.35,3.11,3.14,6.99,5.32,10.6,7.83,8.57,5.95,17.37,11.56,25.98,17.46,8.83,6.05,17.28,12.64,26.05,18.78,10.93,7.63,22.06,14.98,33.19,22.3,3.88,2.55,8.37,3.61,12.88,4.55,6.05,1.25,11.9-.02,17.6-1.71,9.66-2.87,19.32-5.8,28.89-8.97,5.8-1.92,11.75-3.42,17.4-5.76,2.23-.93,4.56-1.49,6.8-2.36.76-.29,1.31-.56,1.62-1.28"/>
  <path class="cls-1" d="M165.94,175.29c7.6,2.3,14.95,4.79,22.51,6.61,5.77,1.39,11.57,2.6,17.43,3.38,9.18,1.22,18.34,2.55,27.64,2.77,6.62.15,13.25.57,19.86.31,8.96-.35,17.92-.9,26.83-1.98,5.69-.69,11.36-1.5,16.99-2.53,6.55-1.2,13.03-2.7,19.49-4.38,6.62-1.72,13.16-3.62,19.65-5.78,7.02-2.34,13.71-5.32,19.85-9.46,3.03-2.04,5.7-4.52,8.41-6.94,4.33-3.86,7.34-8.57,8.74-14.16.99-3.94,2.14-7.96.53-12.09-.25-.64.09-1.61.16-2.43.77-8.45-2.19-15.6-7.82-21.69-7.13-7.72-16.08-12.65-25.77-16.43-4.94-1.92-9.86-3.82-14.94-5.35-4.69-1.41-9.34-2.9-14.15-3.83"/>
  <path class="cls-1" d="M334.48,176.11c-.93,4.14-3.37,7.44-6.18,10.41-4.5,4.77-9.48,9.01-15.33,12.12-8.35,4.44-17.19,7.4-26.41,9.48-4.96,1.12-9.95,2.12-14.98,2.7-3.79.44-7.62.91-11.46.9-7.51-.03-15.03.33-22.53-.41-6.13-.6-12.21-1.42-18.24-2.78-10-2.26-19.61-5.53-28.63-10.35-6.07-3.24-12.01-6.74-15.81-12.85-1.02-1.63-1.64-3.42-2.44-5.13"/>
  <path class="cls-1" d="M189.68,116.18c.11.26-2.62-1.84-3.7-.51-2.78,3.45-4.89,6.4-5.33,10.67-.56,5.43-.06,10.54,3.51,14.95,2.52,3.11,5.77,5.24,9.42,6.75,10.76,4.47,21.5,4.01,31.91-.89,5.41-2.55,9.74-6.4,11.58-12.6,1.08-3.64.39-7-.31-10.46-.03-.17-.26-.47-.59-.41"/>
  <path class="cls-1" d="M194.87,82.72c-1.8-.7-5.72-.22-7.42.08-6.9,1.19-13.67,2.94-20.28,5.26-12.54,4.41-24.07,10.46-32.76,20.89-4.48,5.38-7.1,11.53-7.42,18.62-.13,2.8-.89,5.51-.66,8.4.58,7.17,2.74,13.72,7.08,19.42,3.61,4.74,8.49,8.01,13.66,10.92,6.07,3.42,12.44,6.14,18.86,8.78"/>
  <path class="cls-1" d="M192.96,86.64c-4.02.19-9.25,1.23-13.12,2.17-5.82,1.42-11.51,3.21-16.97,5.62-8.58,3.8-16.22,8.92-21.72,16.76-2.58,3.68-4.82,7.59-5.48,12.09-.6,4.1-.14,8.17,2.01,11.86.25.43.68.74,1.22.83"/>
  <path class="cls-1" d="M310.93,85.59c2.46.98,5.05,1.5,7.59,2.23,10.57,3.05,20.95,6.53,30.3,12.53,5.74,3.68,10.53,8.28,13.52,14.53,2.5,5.21,2.94,10.61,1.42,16.18-.17.62-.66,1.1-1.01,1.64-.45.69-.66,1.57-.37,2.23"/>
  <path class="cls-1" d="M231.67,116.31c.02.71.55,1.16,1.04,1.4,1.55.75,1.99,2.39,3,3.56.48.56.39,1.56.07,2.42-2.65,6.9-8.24,10.11-14.97,11.63-6.13,1.37-12.37,1.72-18.62.85-4.8-.67-9.43-2-13.71-4.31-2.08-1.13-3.72-2.83-4.93-4.89"/>
  <path class="cls-1" d="M282.42,74.26c-1.92.21-11.62,2.1-13.48,1.86-3.41-.44-6.81-.91-10.24-1.23-4.37-.42-8.74-.7-13.11-.52-8.32.34-16.6,1.24-24.78,2.82-.44.09-.81.3-1.31.44.8,1.7-.54,3.4.08,5.11"/>
  <path class="cls-1" d="M303.35,320.9c2.87,1.43,5.79,2.77,8.59,4.32,6.68,3.68,12.95,7.84,17.87,13.88"/>
  <path class="cls-1" d="M318.09,129.21c.13.84-.09,1.61-.62,2.25-4.95,5.92-10.87,10.04-18.83,10.94-3.1.35-6.2.56-9.22.25-6.45-.66-12.38-2.79-16.79-7.91-1.22-1.42-3.15-2.42-3.09-4.7"/>
  <path class="cls-1" d="M362.53,232.23c0,15.7,0,31.4,0,47.1,0,1.03.1,2.06-.2,3.07"/>
  <path class="cls-1" d="M274.71,80.81c-4.81-.92-6.01-.66-10.89-1.07-5.66-.48-11.33-.46-17-.35-5.09.1-10.13.57-15.17,1.51-3.99.75-8.02,1.46-12.07,1.92"/>
  <path class="cls-1" d="M319.53,116.11c2.15,3.97,1.95,9.41-1.12,12.19-1.69,1.53-3.91,2.69-6.03,3.82-5.21,2.77-10.78,3.79-16.6,4.11-6.26.34-12.19-.87-18.02-2.93-2.31-.81-4.36-2.52-6.6-3.1-2.96-.76-4.04-3.04-5.66-4.9-2.47-2.83-2-6.35-1.38-9.58.68-3.56,2.39-6.9,5.3-9.16,1.85-1.43,2.99-2.91,3-5.2,0-.9.86-.79,1.24-1.23"/>
  <path class="cls-1" d="M314.41,106.28c.91-.24,1.73-.12,2.68.16,7.29,2.1,14.53,4.37,21.48,7.43,5.39,2.37,10.57,5.15,15.37,8.59,3.72,2.66,6.35,6.21,8.4,10.24"/>
  <path class="cls-1" d="M187.64,249.43v43.83"/>
  <path class="cls-1" d="M132.14,356.54c-1.66-1.97-4.12-2.35-6.36-2.57-3.4-.33-6.91-.42-10.22.77-1.43.52-3.15,1.06-3.27,3.03-.07,1.24,1.58,2.62,3.46,3.07,4.16,1,8.36,1.13,12.48-.05,1.48-.42,3.02-1.12,3.91-2.61"/>
  <path class="cls-1" d="M272.01,101.57c-2.48.69-4.94-.05-7.37-.27-7.58-.67-15.15-.63-22.74-.38-2.53.08-5.05.34-7.58.44-1.3.05-9.7.21-10.32,1.51"/>
  <path class="cls-1" d="M285.12,257.21c-2.56.28-5.06.93-7.58,1.44-2.37.49-4.78.69-7.17,1.02-5.1.69-10.24.65-15.35.94-3.08.17-28.96,1.43-32.57-.05"/>
  <path class="cls-1" d="M188.4,122.52c2.02,1.97,4.16,3.65,6.82,4.65,7.35,2.77,14.82,2.98,22.55,1.77,3.2-.5,6.01-2.08,9.2-2.38"/>
  <path class="cls-1" d="M379.33,370.67c-3.17-.15-6.09.38-8.23,2.96.36,3.08,2.96,3.54,4.97,3.9,3.91.71,7.86.45,11.68-1.07,1.05-.42,1.77-.94,1.99-1.91.28-1.2-.8-1.68-1.6-2.24-1.59-1.13-3.45-1.45-5.33-1.62-1.08-.1-2.18-.02-3.28-.02"/>
  <path class="cls-1" d="M302.12,252.71c.43.65.19,1.37.19,2.05.02,11.33.01,22.66.01,34"/>
  <path class="cls-1" d="M318.91,107.5c-.03.46.14.82.38,1.25,1.71,3.13,1.09,4.9-.72,7.6-2.03,3.04-4.63,5.2-7.85,6.71-4.61,2.16-9.52,3.28-14.54,3.64-5.82.41-11.62.01-17.2-1.99-4.21-1.51-8.32-3.13-10.85-7.18-.15-.24-.5-.15-.62-.41"/>
  <path class="cls-1" d="M201.15,253.73c0,17.95,0,35.91-.01,53.86,0,.68.24,1.4-.19,2.05"/>
  <path class="cls-1" d="M176.99,255.98c0,10.04,0,20.07,0,30.11,0,1.08-.31,2.27.81,3.07"/>
  <path class="cls-1" d="M181.7,135.36c.49-.39.83-.3,1.24.2,3.6,4.32,8.54,6.44,13.72,7.95,4.38,1.28,8.9,2.01,13.5,1.68,7.22-.52,14.25-1.68,20.28-6.14,2.83-2.09,4.83-4.62,4.51-8.4-.02-.27-.14-.61.2-.82"/>
  <path class="cls-1" d="M200.33,79.45c-4.84,1.98-6.09,5.6-8.58,10.03-.1.17-.26.47.18.63,1.25.44,1.16,1.66,1.44,2.65.51,1.84,1.43,3.22,3.26,4.14,3.2,1.61,6.59,1.98,10.06,2.21,3.8.25,7.43-.5,11.08-1.56,1.98-.57,4.05-.66,5.73-2.11"/>
  <path class="cls-1" d="M187.64,216.05v27.24"/>
  <path class="cls-1" d="M267.92,294.89c-8.59-.48-17.19-1.1-25.8-.82"/>
  <path class="cls-1" d="M328.74,251.27c-.33.66-.2,1.36-.2,2.05,0,7.24-.03,14.47,0,21.71.01,2.8.62,5.58.4,8.4"/>
  <path class="cls-1" d="M228.46,113.32c-2.48,1.93-7.86,5.05-10.73,6.04-3.92,1.36-8.03.88-12.07,1.1-2.68.14-5.29-.4-8-.21-2.46.18-4.79-1.32-6.79-3.08-1.15-1.01-2.55-1.71-2.2-3.52.37-1.91.18-3.91,1.01-5.74"/>
  <path class="cls-1" d="M219.79,77.4c-1.03-1.44-.73-3.12-.79-4.71-.1-2.39-.04-4.78-.02-7.17,0-1.17-.62-1.98-1.44-2.66-3.65-2.98-12.83-2.53-16.2.79-.71.7-.81,1.4-.81,2.28.02,5.8.02,11.61,0,17.41,0,2.19.2,4.37-.18,6.56-.18,1.02.52,1.56,1.42,1.84,5.82,1.78,11.55,2.23,17.01-1.21.2-.12.54-.02.81-.02"/>
  <path class="cls-1" d="M271.19,105.87c.55.44.55,1.12.38,1.63-.53,1.63-1.51,3.08-.42,4.95,1.17,2.01,2.94,3.2,4.97,3.81,3.85,1.16,7.63,2.54,11.65,3.17,4.13.65,8.3.76,12.27-.17,4.29-1.01,8.83-2,12.08-5.44,1.22-1.3,2.89-2.53,1.57-4.94-.47-.86.71-2.25.36-3.64-.69-2.73-1.62-5.39-2.13-8.17-.64-3.55-.24-7.1-.38-10.65"/>
  <path class="cls-1" d="M302.32,355.1c0,6.89.01,13.79-.02,20.68,0,.6.48,1.39-.39,1.84"/>
  <path class="cls-1" d="M328.74,286.29c.46,3.82.16,7.65.19,11.47.06,8.05.02,16.11.02,24.17,0,1.23.06,2.47-.2,3.69"/>
  <path class="cls-1" d="M302.32,289.98c0,6.35.03,12.7-.03,19.05,0,1.04.35,1.56,1.26,1.84"/>
  <path class="cls-1" d="M188.05,345.68c-1.28.72-.15,1.64-.21,2.46-.47,6.96-.07,13.93-.2,20.89"/>
  <path class="cls-1" d="M301.71,74.33c-.02-2.66-.02-5.34-.03-7.99,0-2.73-.79-5.43-.24-8.2.32-1.6-.39-2.9-2.17-3.72-5.7-2.63-11.12-1.25-15.16,2.72-1.17,1.15-1.08,4.24-.03,5.53"/>
  <path class="cls-1" d="M219.59,84.57c-3.83,2.58-8.03,2.77-12.5,2.36-2.16-.2-4.03-1.2-6.13-1.34"/>
  <path class="cls-1" d="M301.3,74.94c.88,2.28.21,4.65.36,6.97,0,.12-.04.68-.56.84-2.69.79-5.25,2.01-8.2,1.66-1.4-.16-2.8.54-4.3.19-1.82-.41-3.65-.87-5.52-1.06"/>
  <path class="cls-1" d="M188.46,294.08c-1.09.2-1,1.26-.97,1.84.39,8.26.03,16.52.15,24.78"/>
  <path class="cls-1" d="M286.14,91.94c-.06,6.83.21,13.66-.41,20.48"/>
  <path class="cls-1" d="M302.32,234.68v16.38"/>
  <path class="cls-1" d="M201.97,235.09c-.42-.05-.75.1-.82.17,0,5.83,0,11.43,0,17.03"/>
  <path class="cls-1" d="M362.53,165.46v16.38"/>
  <path class="cls-1" d="M305.81,90.51c.8,3.46.44,6.97.34,10.44-.06,2.06-1.72,3.72-2.73,5.45-.86,1.49-3.12,1.62-4.97,1.98-4.1.78-8.2.21-12.3.36"/>
  <path class="cls-1" d="M283.07,76.58c0-.61,0-1.23.05-2-.61-.38-1.29-.4-1.88-.03-2.95,1.85-5.74,3.85-6.98,7.36-.76,2.13.69,5.56,3.09,6.96,1.85,1.08,3.85,1.85,5.94,2.23,3.03.55,6.09.99,9.21.88,3.1-.11,6.03-1.01,9.01-1.66,3.38-.73,6.01-2.88,8.8-4.71.88-.58.87-1.57.8-2.45-.29-4.15-2.48-6.88-6.76-8.12-.87-.25-1.76-1.23-2.85-.48"/>
  <path class="cls-1" d="M137.73,144.41c-4.15-2.65-6.8-6.63-9.07-10.9-.6-1.13-.52-2.59-1.64-3.48"/>
  <path class="cls-1" d="M275.09,89.28c.72,1.94-.03,3.89-.32,5.72-.43,2.73-.87,5.32.09,8.01.62,1.76,2.19,2.45,3.54,3.21,2.25,1.25,4.74,2.03,7.34,2.31"/>
  <path class="cls-1" d="M223.49,108.67c.99.56,3.01,1.82,3.86,2.54,3.09,2.6,2.85,9.49-2.03,11.05-.81.26-1.33,1-2.05,1.43"/>
  <path class="cls-1" d="M302.32,188.81v13.11"/>
  <path class="cls-1" d="M220.4,97.47c0,3.62,0,7.24,0,10.85,0,.8-.17,1.66.61,2.25"/>
  <path class="cls-1" d="M301.5,338.72c1.21-.21.82.65.82,1.23,0,4.1,0,8.19,0,12.29"/>
  <path class="cls-1" d="M200.95,82.93c4.08,1.39,11.59,1.51,13.86.73"/>
  <path class="cls-1" d="M200.95,100.54c-.11,3.55.09,7.1-.34,10.66-.35,2.83.08,5.73.14,8.59"/>
  <path class="cls-1" d="M201.15,188.81v12.29"/>
  <path class="cls-1" d="M201.15,223.22c.13,3.96-.27,7.93.2,11.88"/>
  <path class="cls-1" d="M174.94,298.99c1.71-.53,2.18.17,2.08,1.85-.13,2.25-.03,4.5-.04,6.76,0,1.11-.08,2.23.41,3.28"/>
  <path class="cls-1" d="M218.36,66.54c-5.36,2.96-10.82,3.12-16.39.63-.28-.13-.68-.02-1.02-.02"/>
  <path class="cls-1" d="M187.64,332.99v11.06"/>
  <path class="cls-1" d="M219.99,84.77c4.64-.52,3.15,6.77,4.01,10.66"/>
  <path class="cls-1" d="M302.12,221.78c.46,3.61.09,7.24.2,10.85"/>
  <path class="cls-1" d="M302.73,328.48c-.81.38-.36,1.09-.39,1.64-.17,2.86.23,5.74-.23,8.6"/>
  <path class="cls-1" d="M191.53,90.51c-1.65,1.18-1.31,3.15-1.54,4.72-.39,2.7-.88,5.42-.94,8.18-.05,2.17.41,3.9,2.24,5.37,2.65,2.12,5.37,3.92,8.84,4.26"/>
  <path class="cls-1" d="M224.01,95.58c-1.07,3.9.99,12.71-2.12,15.06-3.2,2.43-6.67,2.98-10.49,3.3-3.49.29-6.85-.07-10.25-.51"/>
  <path class="cls-1" d="M302.32,311.28v9.83"/>
  <path class="cls-1" d="M201.15,211.75v9.42"/>
  <path class="cls-1" d="M283.09,76.69c-.4,2.97-.14,3.28,2.44,4.01,4.72,1.33,9.3,1.31,13.73-1.04"/>
  <path class="cls-1" d="M177.81,217.07v9.83"/>
  <path class="cls-1" d="M313.38,108.94s-2.29,2-4.65,3.93c-2.11,1.73-7.29,5.05-11.28,4.31"/>
  <path class="cls-1" d="M234.54,120.82c-.89,2.82-2.43,5.14-5.12,6.56-.84.44-1.39,1.13-1.64,2.05"/>
  <path class="cls-1" d="M176.58,289.57c.83.93.32,2.05.38,3.07.1,1.56.03,3.14.03,4.71"/>
  <path class="cls-1" d="M176.17,206.42c1.93,2.5,4.34,4.44,6.96,6.14"/>
  <path class="cls-1" d="M300.89,58.97c-2.43-.05-4.69,1-7.17.88-2.03-.09-4.09.37-6.14-.06"/>
  <path class="cls-1" d="M297.82,301.45c-2.61-.61-5.11-1.64-7.78-2.05"/>
  <path class="cls-1" d="M200.95,79.65c3.8.85,7.59.95,11.48.47,2.49-.31,4.73-1.11,6.96-2.11"/>
  <path class="cls-1" d="M231.87,295.3c-2.38-.22-4.62.73-6.96.82"/>
  <path class="cls-1" d="M328.95,206.83c-.75.3-.4.93-.4,1.43-.02,2.12,0,4.23,0,6.35"/>
  <path class="cls-1" d="M330.59,234.27c-1.67,2.32-4.16,3.75-6.14,5.73"/>
  <path class="cls-1" d="M200.33,85.59c-3.91,0-5.73,3.27-7.36,5.12"/>
  <path class="cls-1" d="M204.02,223.22c-2.13-.43-4.01-1.62-6.14-2.05"/>
  <path class="cls-1" d="M177.19,311.69c.02,1.98,0,3.96.18,5.94.17,1.98-.86,3.92-.21,5.95.12.37.4.77.23,1.22"/>
  <path class="cls-1" d="M203,75.75c1.43,1.05,4.47,1.98,6.97,1.81,2.32-.16,5.71-1.22,6.57-1.58,1.82-.75,1.99-1.23,2.48-1.32"/>
  <path class="cls-1" d="M282.87,79.86c-.82,2.64-.26,5.32-.21,7.99.02,1.12,1.04.89,1.64,1.23"/>
  <path class="cls-1" d="M187.64,209.7v5.94"/>
  <path class="cls-1" d="M330.18,283.43c-1.25,2.11-2.88,3.92-4.51,5.73"/>
  <path class="cls-1" d="M182.31,244.92c2.06,1.45,4.07,2.99,6.55,3.69"/>
  <path class="cls-1" d="M284.3,63.27c-.38,2.24-1.5,4.29-.57,6.82.38,1.03-.33,2.84-.77,4.24"/>
  <path class="cls-1" d="M219.59,82.93c.44,2.79,1.19,4.89.2,7.78"/>
  <path class="cls-1" d="M306.01,250.66c-1.34.19-2.59.72-3.66,1.48-.69.49-1.34.56-2.08.57"/>
  <path class="cls-1" d="M176.17,239.19c1.04,1.42,2.31,2.61,3.69,3.69"/>
  <path class="cls-1" d="M301.5,82.93c1.06,2.09.26,4.4.82,6.55"/>
  <path class="cls-1" d="M286.45,59.72c-.68-.29-1.36-.57-2.07-.76"/>
  <path class="cls-1" d="M204.43,254.34c-1.46.21-2.59-1.25-4.1-.82"/>
  <path class="cls-1" d="M187.64,244.51c-.11,1.09.23,2.21-.2,3.28"/>
  <path class="cls-1" d="M205.19,73.51v2.66"/>
  <path class="cls-1" d="M206.75,73.92v2.66"/>
  <path class="cls-1" d="M208.31,74.3v2.66"/>
  <path class="cls-1" d="M209.87,74.3v2.66"/>
  <path class="cls-1" d="M211.39,74.3v2.66"/>
  <path class="cls-1" d="M212.94,74.11v2.66"/>
  <path class="cls-1" d="M214.42,73.71v2.66"/>
  <path class="cls-1" d="M189.07,116.31c-.81,1.39-.5,3.09-1.23,4.51"/>
  <path class="cls-1" d="M294.95,83.13c-.54.11-1.14-.23-1.64.2"/>
  <path class="cls-1" d="M213.65,420.23c-1.7.44-3.45.75-4.92,1.84-1.38,1.03-1.39,2.41,0,3.48.86.66,1.84,1.18,2.87,1.41,4.85,1.09,9.71,1.31,14.53-.21.65-.2,1.35-.39,1.87-.98.91-1.04.87-2.41-.22-3.29-1.37-1.11-3.02-1.51-4.71-1.86-3.06-.62-6.14-.33-9.22-.4"/>
  <path class="cls-1" d="M294.34,76.69c2.49-.31,4.73-1.11,6.96-2.11"/>
  <path class="cls-1" d="M284.92,72.31c1.43,1.05,4.47,1.98,6.97,1.81,2.32-.16,5.71-1.22,6.57-1.58,1.82-.75,1.99-1.23,2.48-1.32"/>
  <path class="cls-1" d="M287.11,70.07v2.66"/>
  <path class="cls-1" d="M288.67,70.48v2.66"/>
  <path class="cls-1" d="M290.23,70.87v2.66"/>
  <path class="cls-1" d="M291.79,70.87v2.66"/>
  <path class="cls-1" d="M293.31,70.87v2.66"/>
  <path class="cls-1" d="M294.86,70.67v2.66"/>
  <path class="cls-1" d="M296.34,70.27v2.66"/>
</svg>