<svg width="500" height="500" viewBox="0 0 500 500" fill="none" xmlns="http://www.w3.org/2000/svg">
<path d="M426.85 225.66C427.7 226.32 427.88 227.2 427.91 228.26C428.36 242.63 425.67 256.36 419.28 269.25C416.09 275.69 411.74 281.37 406.87 286.67C394.62 299.99 379.96 309.95 363.77 317.81C351.77 323.63 339.28 328.08 326.41 331.64C313.35 335.25 300.04 337.46 286.66 339.26C281.7 339.93 276.64 340.15 271.63 340.54C266.43 340.95 261.21 341.01 256.04 341.02C249.56 341.04 243.06 341.12 236.57 340.89C224.81 340.47 213.11 339.12 201.55 337.15C187.59 334.77 173.94 331.02 160.49 326.44C144.79 321.09 129.79 314.35 115.9 305.3C105.18 298.32 95.64 289.86 87.38 280.11C81.13 272.74 76.38 264.34 73.91 254.96C71.91 247.36 70.78 239.56 71.74 231.62C71.93 230.06 71.34 228.52 71.48 226.95C71.56 226.02 71.29 225.01 72.27 224.36" stroke="#2071B5" stroke-width="4.21" stroke-linecap="round" stroke-linejoin="round"/>
<path d="M401.41 227.22C400.43 227.58 399.95 228.38 399.59 229.3C395.51 239.58 388.94 247.97 380.71 255.34C374.94 260.5 368.67 264.85 362.21 269.03C354.71 273.88 346.58 277.4 338.33 280.71C318.96 288.5 298.73 292.76 278.1 295.18C267.69 296.4 257.19 296.81 246.7 296.51C240.38 296.33 234.05 296.34 227.75 295.73C219.14 294.89 210.55 293.72 202.06 292.09C190.79 289.93 179.66 287.08 168.85 283.25C152.54 277.47 137.05 269.99 123.43 259.12C117.19 254.14 111.71 248.32 106.84 241.98C105.98 240.85 105.19 239.85 103.94 239.14C102.47 238.31 102.23 236.58 101.66 235.24C99.4599 229.98 97.5299 224.6 96.6499 218.92C95.6299 212.34 95.6899 205.76 96.6599 199.19C97.3399 194.56 99.0799 190.24 100.88 185.98C101.41 184.71 102.34 183.42 102.99 182.23C108.19 172.78 115.59 165.3 123.7 158.49C129.64 153.5 136.23 149.35 143.12 145.71C155.26 139.28 168.08 134.63 181.28 130.9C190.42 128.32 199.7 126.46 209.06 124.94C219.12 123.31 229.25 122.75 239.42 122.22C251.51 121.59 263.5 122.39 275.5 123.2C290.65 124.23 305.53 127.07 320.15 131.19C327.96 133.39 335.56 136.23 342.99 139.49C353.78 144.23 363.99 149.94 373.37 157.12C382.98 164.48 391.25 173.03 397.22 183.62C400.09 188.71 401.67 194.3 402.95 199.96C404.35 206.14 404.26 212.39 403.73 218.65C403.56 220.61 402.6 222.44 402.48 224.36C401.96 232.57 398.13 239.39 393.58 245.88C389.12 252.24 383.81 257.89 377.74 262.74C370.85 268.25 363.3 272.77 355.45 276.8C340.72 284.35 325.35 290.15 309.23 293.9C299.72 296.12 290.1 297.74 280.43 299.16C274.21 300.07 267.96 300.11 261.73 300.58C252.66 301.26 243.57 301 234.48 300.46C221.69 299.7 209.08 297.92 196.58 295.21C190.81 293.96 185.13 292.36 179.45 290.8C178.2 290.45 175.78 291.9 175.04 293.39C174.31 294.85 175.02 295.97 176.1 296.74C179.43 299.12 183.2 299.95 187.24 299.35C189.5 299.02 191.88 298.9 193.24 296.53C193.51 296.06 193.38 295.65 193.47 295.21" stroke="#2071B5" stroke-width="4.21" stroke-linecap="round" stroke-linejoin="round"/>
<path d="M358.32 215.02C360.21 213.55 359.52 211.31 359.51 209.57C359.49 200.7 355.96 193.05 350.52 186.21C341.49 174.83 329.61 167.34 316.52 161.55C304.82 156.38 292.49 153.55 279.93 151.37C266.14 148.97 252.26 149.14 238.39 149.43C230.2 149.6 222.06 151 213.99 152.48C198.85 155.25 184.29 159.88 170.94 167.59C160 173.91 150.41 181.86 144.15 193.21C140.52 199.79 138.9 207.05 140.18 214.21C142.61 227.73 150.09 238.35 161.27 246.46C175.61 256.87 191.72 263.1 208.79 267.2C220.48 270.01 232.33 271.52 244.35 271.9C265.31 272.57 285.72 269.52 305.6 262.99C317.62 259.04 328.96 253.55 339.07 245.86C344.88 241.44 349.74 235.96 353.55 229.75C355.74 226.18 357.49 222.25 358.55 218.12C358.74 217.39 358.89 216.38 358.53 215.82C356.45 212.66 355.3 209.02 353.13 205.92C347.41 197.75 339.79 191.84 331.36 186.65C320.63 180.04 309.18 175.37 297.06 172.17C288.61 169.94 280 168.67 271.37 167.44C265.06 166.54 258.71 166.29 252.41 166.12C245.52 165.93 238.57 166.4 231.64 166.9C222.83 167.53 214.21 169.12 205.71 171.23C189.79 175.16 174.57 180.89 161.31 190.9C154.57 195.99 148.63 201.85 144.38 209.29C143.16 211.42 142.95 214.04 141.05 215.8" stroke="#2071B5" stroke-width="4.21" stroke-linecap="round" stroke-linejoin="round"/>
<path d="M385.84 206.2C384.7 204.69 385.44 202.91 385.12 201.26C383.4 192.62 379.53 185.02 374.14 178.18C363.09 164.13 348.41 154.97 332.35 147.83C319.24 142 305.48 138.35 291.36 135.8C274.42 132.74 257.36 131.73 240.22 132.3C230.2 132.63 220.25 133.84 210.34 135.72C199.26 137.82 188.32 140.3 177.67 143.93C165.23 148.17 153.37 153.65 142.63 161.31C132.88 168.27 124.53 176.57 119.27 187.52C112.02 202.63 112.53 217.49 120.77 232.17C127.37 243.93 137.05 252.44 148.32 259.41C160.04 266.67 172.54 272.2 185.7 276.28C196.06 279.5 206.6 281.82 217.36 283.36C229.61 285.12 241.88 286.1 254.23 285.84C262.39 285.67 270.52 284.85 278.64 283.87C288.55 282.67 298.32 280.87 307.96 278.34C320.74 274.98 333.07 270.43 344.56 263.81C357.45 256.39 369.23 247.73 377.56 235.03C382.61 227.33 385.2 218.93 385.87 209.83C385.95 208.69 385.1 207.58 385.84 206.45" stroke="#2071B5" stroke-width="4.21" stroke-linecap="round" stroke-linejoin="round"/>
<path d="M380.26 363.1C403.32 343.91 432.11 324.51 434.67 320.69C438.94 314.33 442.43 307.66 445.09 300.45C448.46 291.34 449.68 281.99 449.7 272.39C449.7 268.15 449.48 263.9 449.95 259.67C450.18 257.61 449.43 255.68 449.24 253.69C448.97 250.95 449.18 248.16 449.17 245.39C449.13 237.59 447.71 230 445.52 222.55C442.25 211.44 436.06 201.96 428.63 193.24C427.69 192.14 426.83 190.88 425.05 190.51C423.83 190.26 423.19 188.67 422.72 187.49C419.7 179.82 415.02 173.2 409.7 167C396.21 151.27 379.14 140.46 360.63 131.73C351.03 127.2 341.09 123.5 330.8 120.76C322.72 118.61 314.62 116.61 306.42 114.95C299.51 113.55 292.54 112.66 285.61 111.57C281.62 110.94 277.5 110.72 273.43 110.38C265.31 109.7 257.14 109.43 249.03 109.54C243.35 109.62 237.6 109.64 231.88 110.27C227.58 110.75 223.24 111.04 218.91 111.37C214.13 111.74 209.39 112.47 204.65 113.06C198.63 113.81 192.65 115.04 186.74 116.42C175.32 119.08 163.99 122.06 152.97 126.2C136.33 132.44 120.42 140.08 106.31 150.95C95.1999 159.51 85.7799 169.69 79.2499 182.29C78.5699 183.59 77.9099 184.91 77.1799 186.19C76.2799 187.76 75.2699 189.08 73.6399 190.21C70.7199 192.22 68.7699 195.37 66.5799 198.16C60.8999 205.43 56.6399 213.48 53.8399 222.28C50.4999 232.78 49.7599 243.57 50.8499 254.45C51.0799 256.73 50.0099 258.52 50.0999 260.7C50.3799 267.96 50.1999 275.23 50.2099 282.5C50.2099 284.09 49.3899 285.84 50.9799 287.17" stroke="#2071B5" stroke-width="4.21" stroke-linecap="round" stroke-linejoin="round"/>
<path d="M51.24 257.33C52.12 257.97 52.26 258.97 52.55 259.92C54.68 266.84 57.14 273.62 60.81 279.93C64.23 285.82 68.27 291.26 72.84 296.21C85.16 309.54 99.98 319.46 116.08 327.78C130.36 335.16 145.22 340.87 160.52 345.59C171.83 349.08 183.35 351.63 195.05 353.34C202.29 354.4 209.56 355.25 216.84 356.07C227.3 357.24 237.76 357.44 248.26 357.58C258.14 357.71 268.01 357.67 277.85 356.93C286.63 356.27 295.39 355.14 304.07 353.61C312.8 352.08 321.43 350.05 330.03 347.92C344.29 344.38 363.97 337.82 376.5 331.31C390.05 324.27 402.88 316.19 414.71 306.45C423.36 299.33 430.98 291.37 436.91 281.94C441.63 274.42 446.21 266.71 447.43 257.59C447.56 256.62 447.83 255.36 448.92 254.73" stroke="#2071B5" stroke-width="4.21" stroke-linecap="round" stroke-linejoin="round"/>
<path d="M351.83 231.63C348.85 226.91 345.35 222.64 341.19 218.91C334.35 212.78 326.75 207.94 318.4 204.01C308.87 199.52 298.94 196.55 288.75 194.3C282.35 192.89 275.84 192.02 269.3 191.33C261.52 190.5 253.74 190.31 245.93 190.36C236.6 190.42 227.33 191.4 218.17 193.03C207.9 194.85 197.78 197.33 188.03 201.23C176.27 205.94 165.48 212.16 156.45 221.08C153.68 223.81 150.84 226.69 149.1 230.34C148.76 231.05 148.22 231.61 147.55 232.03" stroke="#2071B5" stroke-width="4.21" stroke-linecap="round" stroke-linejoin="round"/>
<path d="M344.57 240.46C339.85 233.52 333.16 228.76 326.09 224.71C314.02 217.78 300.86 213.69 287.21 211.1C280.75 209.87 274.25 208.8 267.73 208.09C260.76 207.33 253.73 207.31 246.71 207.51C236.77 207.79 226.93 208.78 217.1 210.52C202.61 213.09 188.87 217.53 175.82 224.33C167.79 228.51 160.3 233.35 154.04 239.95" stroke="#2071B5" stroke-width="4.21" stroke-linecap="round" stroke-linejoin="round"/>
<path d="M75.1201 189.84C75.8101 190.94 75.1401 191.98 74.8301 192.94C72.6801 199.71 71.8601 206.65 72.0101 213.72C72.0801 217.1 71.5901 220.84 72.7401 223.76C74.5601 228.34 75.6901 233.18 77.9201 237.63C83.7401 249.27 91.9901 258.79 101.8 267.26C116.5 279.95 133.24 289 151.19 295.98C163.48 300.76 176.17 304.21 189.07 306.94C197.24 308.67 205.45 310.07 213.74 311.06C222.36 312.08 231 312.93 239.7 312.87C243.43 312.84 247.14 313.07 250.86 313.14" stroke="#2071B5" stroke-width="4.21" stroke-linecap="round" stroke-linejoin="round"/>
<path d="M424.77 190.88C424.6 193.9 426.23 196.54 426.57 199.45C427.13 204.1 427.99 208.73 427.4 213.47C427.19 215.17 427.4 216.93 427.35 218.66C427.22 224.98 424.22 230.44 421.86 236.03C417.35 246.71 410.5 255.84 402.15 263.79C394.86 270.74 386.63 276.54 378.01 281.68C366.8 288.35 355.08 294 342.75 298.37C329.55 303.05 316.01 306.29 302.25 308.75C295.01 310.04 287.74 311.16 280.44 311.76C272.85 312.39 265.24 313.01 257.6 312.89C255.35 312.85 253.09 312.78 250.85 313.14" stroke="#2071B5" stroke-width="4.21" stroke-linecap="round" stroke-linejoin="round"/>
<path d="M354.43 227.22C351.34 222.98 348.79 218.33 344.83 214.76C335.71 206.53 325.46 200.18 313.96 195.76C305.98 192.69 297.93 189.99 289.55 188.24C284.21 187.13 278.83 186.43 273.46 185.62C262.5 183.98 251.49 183.96 240.49 184.2C235.72 184.31 230.96 185.02 226.2 185.56C219.73 186.3 213.37 187.53 207.01 188.83C200.53 190.15 194.21 192.04 188.04 194.47C179.85 197.7 171.93 201.35 164.67 206.41C158.2 210.92 152.16 215.84 147.84 222.55C146.85 224.08 146.65 226.1 144.97 227.21" stroke="#2071B5" stroke-width="4.21" stroke-linecap="round" stroke-linejoin="round"/>
<path d="M177.4 290.82C174.78 288.82 171.52 288.29 168.54 287.29C156.99 283.39 146.19 277.99 135.88 271.59C126.73 265.91 118.05 259.6 110.94 251.38C108.51 248.57 106.28 245.62 104.22 242.53C103.62 241.63 102.88 240.63 103.68 239.43" stroke="#2071B5" stroke-width="4.21" stroke-linecap="round" stroke-linejoin="round"/>
<path d="M154.03 380.11C154.87 374.68 155.21 369.18 156.08 363.75C156.52 361.03 157.5 359.67 159.74 359.34C162.58 358.92 165.03 359.96 165.94 362.21C166.78 364.27 167.21 366.46 167.56 368.68C168.37 373.71 168.49 378.84 170.04 383.77C170.32 384.65 170.58 385.76 171.19 386C173.7 386.99 176.17 388.27 178.95 388.39C180.51 388.46 181.78 387.09 181.51 385.56C181.3 384.4 181.4 383.33 181.51 382.17C181.93 377.62 182.95 373.18 183.65 368.68C183.96 366.71 185.13 365.58 187.26 365.55C193.09 365.48 194.22 368.1 195.06 372.83C196.11 378.8 196.43 384.89 198.07 390.57C201.1 392.3 204.45 391.4 207.52 392.26C208.55 392.55 208.97 391.68 209.36 390.75C210.18 388.81 209.96 386.74 210.3 384.75C211.03 380.62 211.62 376.47 213.22 372.56C214.32 369.88 215.61 369.41 218.41 369.92C222.14 370.6 223.43 373.34 224.07 376.46C225.12 381.54 226.06 386.65 226.98 391.76C227.25 393.28 227.89 394.39 229.83 394.14C231.28 393.95 232.77 394.04 234.24 394.12C237.62 394.29 237.93 393.77 238.45 390.22C239.24 384.81 240.22 379.41 242.56 374.38C243.51 372.34 246.57 370.53 248.52 370.74C250.42 370.95 251.98 373.02 252.7 375.66C254.14 380.93 254.98 386.35 256.83 391.5C257.89 394.43 261.72 395.51 264.38 393.89C265.13 393.43 265.31 392.8 265.34 392.28C265.7 386.68 267.6 381.47 269.21 376.17C269.86 374.02 270.75 372.16 272.42 370.76C274.25 369.23 277.68 369.87 278.63 371.77C281.63 377.78 283.16 383.12 285.23 389.49" stroke="#2071B5" stroke-width="4.21" stroke-linecap="round" stroke-linejoin="round"/>
<path d="M86.03 343.77C82.5 341.7 78.79 339.76 78.51 334.94C78.32 331.74 78.24 328.52 77.9 325.34C77.58 322.4 78.1 319.44 77.3 316.48C76.85 314.82 76 313.84 74.6 313.73C72.94 313.6 72.6 315.33 72.32 316.52C71.4 320.43 71.41 324.46 71.28 328.45C71.2 331.07 74.03 330.67 75.44 331.76C75.91 332.12 76.92 332.26 77.72 332.09" stroke="#2071B5" stroke-width="4.21" stroke-linecap="round" stroke-linejoin="round"/>
<path d="M101.34 183.35C97.54 181.83 93.85 182.14 90.17 183.85C88.21 184.76 87.07 186.22 87.12 188.28C87.17 190.17 89.5 191.99 91.45 192.75C93.51 193.55 95.75 192.67 97.7 193.73" fill="#FFDA00" fill-opacity="0.7"/>
<path d="M101.34 183.35C97.54 181.83 93.85 182.14 90.17 183.85C88.21 184.76 87.07 186.22 87.12 188.28C87.17 190.17 89.5 191.99 91.45 192.75C93.51 193.55 95.75 192.67 97.7 193.73" stroke="#2071B5" stroke-width="4.21" stroke-linecap="round" stroke-linejoin="round"/>
<path d="M168.57 379.85C167.69 380.67 166.9 379.74 166.26 379.52C162.11 378.1 158.16 379.72 154.35 380.61C152.64 381.01 151.45 380.76 150.15 380.34C143.88 378.31 143.04 376.89 142.29 370.26C141.76 365.59 141.59 360.87 140.79 356.24C140.08 352.13 137.55 350.09 133.53 350.27C132 350.34 130.97 351.31 130.72 352.61C129.62 358.52 129.06 364.49 129.37 370.51" stroke="#2071B5" stroke-width="4.21" stroke-linecap="round" stroke-linejoin="round"/>
<path d="M69.67 271.35C71.19 270.97 72.82 270.89 74.08 269.79C75.51 268.55 75.51 267.27 74.08 265.9C72.15 264.05 67.36 263.77 65.25 265.38C64.31 266.1 63.63 267 63.97 268.23C64.44 269.88 65.75 270.7 67.33 271.07C68 271.23 68.74 270.99 69.4 271.35" fill="#FFDA00" fill-opacity="0.7"/>
<path d="M69.67 271.35C71.19 270.97 72.82 270.89 74.08 269.79C75.51 268.55 75.51 267.27 74.08 265.9C72.15 264.05 67.36 263.77 65.25 265.38C64.31 266.1 63.63 267 63.97 268.23C64.44 269.88 65.75 270.7 67.33 271.07C68 271.23 68.74 270.99 69.4 271.35" stroke="#2071B5" stroke-width="4.21" stroke-linecap="round" stroke-linejoin="round"/>
<path d="M86.8 298.87C89.31 303.15 93.93 302.9 96.65 300.67C98 299.56 98.05 297.77 96.92 296.53C94.25 293.6 88.15 294.86 86.8 298.61" fill="#FFDA00" fill-opacity="0.7"/>
<path d="M86.8 298.87C89.31 303.15 93.93 302.9 96.65 300.67C98 299.56 98.05 297.77 96.92 296.53C94.25 293.6 88.15 294.86 86.8 298.61" stroke="#2071B5" stroke-width="4.21" stroke-linecap="round" stroke-linejoin="round"/>
<path d="M130.93 327.42C132.63 327.08 134.46 327.2 135.87 325.88C136.62 325.17 136.96 324.45 136.37 323.54C134.92 321.3 129.46 319.97 127.33 321.51C126.47 322.13 125.2 322.77 125.47 324.32C125.76 325.97 127.01 326.68 128.35 327.12C129.08 327.36 129.96 327.19 130.67 327.69" fill="#FFDA00" fill-opacity="0.7"/>
<path d="M130.93 327.42C132.63 327.08 134.46 327.2 135.87 325.88C136.62 325.17 136.96 324.45 136.37 323.54C134.92 321.3 129.46 319.97 127.33 321.51C126.47 322.13 125.2 322.77 125.47 324.32C125.76 325.97 127.01 326.68 128.35 327.12C129.08 327.36 129.96 327.19 130.67 327.69" stroke="#2071B5" stroke-width="4.21" stroke-linecap="round" stroke-linejoin="round"/>
<path d="M123.4 264.08C122.94 264.68 122.22 264.67 121.61 264.93C119.74 265.73 118.02 266.82 117.93 269.27C117.84 271.59 119.5 272.88 121.1 273.59C123.93 274.85 126.95 275.12 130.17 274.33C132.24 273.82 133.19 272.87 133.77 271.09" fill="#FFDA00" fill-opacity="0.7"/>
<path d="M123.4 264.08C122.94 264.68 122.22 264.67 121.61 264.93C119.74 265.73 118.02 266.82 117.93 269.27C117.84 271.59 119.5 272.88 121.1 273.59C123.93 274.85 126.95 275.12 130.17 274.33C132.24 273.82 133.19 272.87 133.77 271.09" stroke="#2071B5" stroke-width="4.21" stroke-linecap="round" stroke-linejoin="round"/>
<path d="M391.03 173.49C392.61 172.5 394.57 172.29 395.98 170.91C398.52 168.42 398.36 165.14 395.16 163.7C391.01 161.83 386.65 160.8 382.47 163.89" fill="#FFDA00" fill-opacity="0.7"/>
<path d="M391.03 173.49C392.61 172.5 394.57 172.29 395.98 170.91C398.52 168.42 398.36 165.14 395.16 163.7C391.01 161.83 386.65 160.8 382.47 163.89" stroke="#2071B5" stroke-width="4.21" stroke-linecap="round" stroke-linejoin="round"/>
<path d="M394.92 244.87C395.78 245.53 396.86 245.22 397.78 245.3C400.34 245.54 402.17 246.66 402.92 249.03C403.67 251.39 402.05 253.08 400.33 254.14C397.33 255.99 392.35 257.53 388.43 253.94" fill="#FFDA00" fill-opacity="0.7"/>
<path d="M394.92 244.87C395.78 245.53 396.86 245.22 397.78 245.3C400.34 245.54 402.17 246.66 402.92 249.03C403.67 251.39 402.05 253.08 400.33 254.14C397.33 255.99 392.35 257.53 388.43 253.94" stroke="#2071B5" stroke-width="4.21" stroke-linecap="round" stroke-linejoin="round"/>
<path d="M202.58 125.47C199.67 122.4 195.86 121.7 191.94 121.91C189.29 122.05 186.59 122.44 184.38 124.4C181.9 126.61 181.76 126.8 183.63 129.62" fill="#FFDA00" fill-opacity="0.7"/>
<path d="M202.58 125.47C199.67 122.4 195.86 121.7 191.94 121.91C189.29 122.05 186.59 122.44 184.38 124.4C181.9 126.61 181.76 126.8 183.63 129.62" stroke="#2071B5" stroke-width="4.21" stroke-linecap="round" stroke-linejoin="round"/>
<path d="M347.16 140.78C349.74 136.41 349.27 135.03 344.57 132.46C340.47 130.22 336.47 130.26 332.33 132.4C331.49 132.83 331.15 133.33 330.81 134.03" fill="#FFDA00" fill-opacity="0.7"/>
<path d="M347.16 140.78C349.74 136.41 349.27 135.03 344.57 132.46C340.47 130.22 336.47 130.26 332.33 132.4C331.49 132.83 331.15 133.33 330.81 134.03" stroke="#2071B5" stroke-width="4.21" stroke-linecap="round" stroke-linejoin="round"/>
<path d="M277.59 300.16C277.72 300.98 278.41 301.62 278.36 302.78C277.19 305.05 274.8 305.68 272.39 306.11C267.15 307.04 261.52 306.34 259.42 301.46" fill="#FFDA00" fill-opacity="0.7"/>
<path d="M277.59 300.16C277.72 300.98 278.41 301.62 278.36 302.78C277.19 305.05 274.8 305.68 272.39 306.11C267.15 307.04 261.52 306.34 259.42 301.46" stroke="#2071B5" stroke-width="4.21" stroke-linecap="round" stroke-linejoin="round"/>
<path d="M106.01 358.83C106.01 353.31 106.76 347.87 107.84 342.48C108.39 339.74 111.91 338.66 114.32 340.4C116.01 341.62 116.86 343.45 117.12 345.34C117.82 350.5 118.18 355.71 118.44 360.91C118.53 362.66 119.06 364.34 119.02 366.1C119.01 366.62 119.54 366.97 119.75 367.41C120.73 369.41 122.91 369.14 124.49 369.91C126.02 370.65 127.45 371.88 129.7 370.62C133.14 368.7 136.92 370.45 140.54 370.82C141.01 370.87 141.41 371.18 141.84 370.77" stroke="#2071B5" stroke-width="4.21" stroke-linecap="round" stroke-linejoin="round"/>
<path d="M277.33 122.87C276.47 118.91 273.41 117.16 269.28 116.93C266.56 116.78 263.81 116.68 261.23 117.93C259.53 118.75 258.01 119.69 257.86 121.83" fill="#FFDA00" fill-opacity="0.7"/>
<path d="M277.33 122.87C276.47 118.91 273.41 117.16 269.28 116.93C266.56 116.78 263.81 116.68 261.23 117.93C259.53 118.75 258.01 119.69 257.86 121.83" stroke="#2071B5" stroke-width="4.21" stroke-linecap="round" stroke-linejoin="round"/>
<path d="M71.2299 229.04C68.7899 228.66 66.3599 227.94 63.9499 229.28C62.8399 229.9 61.6799 230.55 61.6799 231.9C61.6799 233.36 62.6199 234.35 63.9599 235.03C66.5199 236.32 68.8999 235.89 71.2399 234.49" fill="#FFDA00" fill-opacity="0.7"/>
<path d="M71.2299 229.04C68.7899 228.66 66.3599 227.94 63.9499 229.28C62.8399 229.9 61.6799 230.55 61.6799 231.9C61.6799 233.36 62.6199 234.35 63.9599 235.03C66.5199 236.32 68.8999 235.89 71.2399 234.49" stroke="#2071B5" stroke-width="4.21" stroke-linecap="round" stroke-linejoin="round"/>
<path d="M353.65 278.36C354.39 279.05 355.43 279.06 356.27 279.62C358.73 281.26 359.08 283.32 356.73 285.34C353.53 288.08 349.68 288.87 345.61 287.92C343.63 287.46 341.43 287.29 339.88 285.64C339.6 285.34 339.24 285.09 339.36 284.6" fill="#FFDA00" fill-opacity="0.7"/>
<path d="M353.65 278.36C354.39 279.05 355.43 279.06 356.27 279.62C358.73 281.26 359.08 283.32 356.73 285.34C353.53 288.08 349.68 288.87 345.61 287.92C343.63 287.46 341.43 287.29 339.88 285.64C339.6 285.34 339.24 285.09 339.36 284.6" stroke="#2071B5" stroke-width="4.21" stroke-linecap="round" stroke-linejoin="round"/>
<path d="M137.42 148.57C136.12 146.12 133.82 145.96 131.45 145.97C128 145.99 124.83 146.94 122.12 149.1C120.18 150.65 120.15 152.71 121.84 154.53C122.71 155.47 124.1 155.95 124.44 157.38" fill="#FFDA00" fill-opacity="0.7"/>
<path d="M137.42 148.57C136.12 146.12 133.82 145.96 131.45 145.97C128 145.99 124.83 146.94 122.12 149.1C120.18 150.65 120.15 152.71 121.84 154.53C122.71 155.47 124.1 155.95 124.44 157.38" stroke="#2071B5" stroke-width="4.21" stroke-linecap="round" stroke-linejoin="round"/>
<path d="M70.71 327.42C67.14 325.93 65.46 323.27 65.21 319.38C64.87 314.19 64.73 309 64.76 303.8C64.77 301.64 64.11 300.03 61.78 299.26C60.53 300.33 59.85 301.69 60.1 303.27C60.66 306.75 58.67 310.15 60.02 313.68C60.89 315.94 61.68 316.71 64.48 316.78" stroke="#2071B5" stroke-width="4.21" stroke-linecap="round" stroke-linejoin="round"/>
<path d="M97.97 226.7C95.64 226.96 93.32 226.17 90.95 226.91C89.09 227.49 87.35 228.27 86.36 229.86C85.46 231.29 85.93 232.92 87.08 234.23C89.63 237.14 94.58 238.17 98.24 236.57C99.25 236.13 100.15 235.38 101.36 235.53" fill="#FFDA00" fill-opacity="0.7"/>
<path d="M97.97 226.7C95.64 226.96 93.32 226.17 90.95 226.91C89.09 227.49 87.35 228.27 86.36 229.86C85.46 231.29 85.93 232.92 87.08 234.23C89.63 237.14 94.58 238.17 98.24 236.57C99.25 236.13 100.15 235.38 101.36 235.53" stroke="#2071B5" stroke-width="4.21" stroke-linecap="round" stroke-linejoin="round"/>
<path d="M255.53 389.72C251.05 390.38 246.51 389.62 242.02 390.4C241.05 390.57 240.04 391.67 238.92 390.75" stroke="#2071B5" stroke-width="4.21" stroke-linecap="round" stroke-linejoin="round"/>
<path d="M284.86 389.72C280.38 390.38 275.84 389.62 271.35 390.4C270.38 390.57 266.47 393.22 265.35 392.31" stroke="#2071B5" stroke-width="4.21" stroke-linecap="round" stroke-linejoin="round"/>
<path d="M95.8901 346.63C97.1601 344.73 95.8701 342.8 95.7701 340.93C95.6101 337.73 95.4801 334.49 94.8601 331.32C94.5401 329.69 94.0001 328.33 92.2601 327.67C89.4901 326.62 88.4401 327.64 87.8101 329.76C86.7201 333.42 86.2901 337.14 86.5801 340.93C86.6801 342.22 85.4801 343.72 87.0601 344.83" stroke="#2071B5" stroke-width="4.21" stroke-linecap="round" stroke-linejoin="round"/>
<path d="M87.0601 345.33C88.2001 344.98 91.9401 345.19 92.7801 345.58C93.3101 345.83 93.8401 346.15 94.2901 346.44C94.9301 346.86 95.7201 346.12 96.2201 346.98C96.3401 348.19 96.5301 349.48 96.7201 350.78C96.9901 352.67 97.6701 354.45 99.2701 355.73C101.55 357.55 103.97 359.08 106.81 359.87C106.97 359.91 107.17 359.93 107.32 359.87C111.17 358.37 114.52 360.21 117.97 361.43" stroke="#2071B5" stroke-width="4.21" stroke-linecap="round" stroke-linejoin="round"/>
<path d="M225.94 389.2C223.68 389.22 221.42 388.91 219.2 388.6C216.13 388.18 213.25 388.63 210.36 389.46" stroke="#2071B5" stroke-width="4.21" stroke-linecap="round" stroke-linejoin="round"/>
<path d="M404.53 213.2C407.98 214.6 411.38 214.6 414.65 212.67C416.29 211.7 417.57 210.32 417.21 208.28C416.85 206.16 415.32 204.95 413.37 204.09C410.31 202.74 407.17 203.08 404.01 203.34" fill="#FFDA00" fill-opacity="0.7"/>
<path d="M404.53 213.2C407.98 214.6 411.38 214.6 414.65 212.67C416.29 211.7 417.57 210.32 417.21 208.28C416.85 206.16 415.32 204.95 413.37 204.09C410.31 202.74 407.17 203.08 404.01 203.34" stroke="#2071B5" stroke-width="4.21" stroke-linecap="round" stroke-linejoin="round"/>
<path d="M196.35 385.82C192.55 385.54 188.8 384.6 184.92 385.22C183.81 385.4 182.93 386.13 181.82 386.08" stroke="#2071B5" stroke-width="4.21" stroke-linecap="round" stroke-linejoin="round"/>
<path d="M50.98 287.18C51.38 289.28 50.98 292.15 54.28 292.67C54.88 292.77 54.93 293.54 55.02 293.96C55.67 297.02 58 299.37 58.52 302.5C58.62 303.13 59.24 304.13 60.25 304.33" stroke="#2071B5" stroke-width="4.21" stroke-linecap="round" stroke-linejoin="round"/>
<path d="M288.5 343.25C287.02 343.95 285.12 344 284.34 345.83C285.68 349.28 291.34 350.94 294.2 348.69C295.15 347.94 296.21 346.95 295.72 345.61C295.2 344.19 293.94 343.38 292.39 343.27C291.18 343.19 289.97 343.25 288.76 343.25" fill="#FFDA00" fill-opacity="0.7"/>
<path d="M288.5 343.25C287.02 343.95 285.12 344 284.34 345.83C285.68 349.28 291.34 350.94 294.2 348.69C295.15 347.94 296.21 346.95 295.72 345.61C295.2 344.19 293.94 343.38 292.39 343.27C291.18 343.19 289.97 343.25 288.76 343.25" stroke="#2071B5" stroke-width="4.21" stroke-linecap="round" stroke-linejoin="round"/>
<path d="M231.13 344.81C229.92 345.43 228.52 345.6 227.48 346.61C226.37 347.7 226.37 348.65 227.48 349.75C229.57 351.81 234.65 352.12 236.83 350.26C238.33 348.99 238.26 347.16 236.56 346.13C234.99 345.18 233.23 344.78 231.38 344.81" fill="#FFDA00" fill-opacity="0.7"/>
<path d="M231.13 344.81C229.92 345.43 228.52 345.6 227.48 346.61C226.37 347.7 226.37 348.65 227.48 349.75C229.57 351.81 234.65 352.12 236.83 350.26C238.33 348.99 238.26 347.16 236.56 346.13C234.99 345.18 233.23 344.78 231.38 344.81" stroke="#2071B5" stroke-width="4.21" stroke-linecap="round" stroke-linejoin="round"/>
<path d="M176.1 337.02C175.68 336.95 175.59 337.5 175.32 337.52C173.5 337.66 173.17 339 173 340.4C172.78 342.11 174.18 342.67 175.33 343.23C177.81 344.44 180.31 343.83 182.56 342.68C184.57 341.65 184.31 339.41 182.34 338.05C180.47 336.76 178.4 337.06 176.36 337.03" fill="#FFDA00" fill-opacity="0.7"/>
<path d="M176.1 337.02C175.68 336.95 175.59 337.5 175.32 337.52C173.5 337.66 173.17 339 173 340.4C172.78 342.11 174.18 342.67 175.33 343.23C177.81 344.44 180.31 343.83 182.56 342.68C184.57 341.65 184.31 339.41 182.34 338.05C180.47 336.76 178.4 337.06 176.36 337.03" stroke="#2071B5" stroke-width="4.21" stroke-linecap="round" stroke-linejoin="round"/>
<path d="M237.1 141.56C232.73 142.46 228.26 142.43 223.85 143.06C211.22 144.86 198.79 147.52 186.76 151.73C174.76 155.94 163.33 161.42 153.27 169.35C145.22 175.7 138.32 183.03 134.29 192.69C132.17 197.77 130.89 203.11 131.03 208.53C131.27 217.4 134.19 225.6 139.25 232.92C145.85 242.47 154.61 249.55 164.64 255.31C174.69 261.09 185.3 265.36 196.33 268.79C207.87 272.37 219.63 274.63 231.64 275.78C241.85 276.75 252.04 276.74 262.28 276.08C270.85 275.53 279.31 274.32 287.72 272.66C301.1 270.02 314.1 266.03 326.35 260.1C336.58 255.15 346.27 249.13 354.16 240.72C359.9 234.6 364.69 227.82 367.12 219.7C370.33 208.94 368.89 198.61 363.51 188.83C358.02 178.86 349.98 171.25 340.66 164.97C329.2 157.24 316.58 152.05 303.31 148.3C292.07 145.13 280.61 143.25 269.03 142.16C258.51 141.17 247.93 141.6 237.37 141.58" stroke="#2071B5" stroke-width="4.21" stroke-linecap="round" stroke-linejoin="round"/>
<path d="M308.36 385.84C303.88 386.5 299.34 385.74 294.85 386.52C293.88 386.69 292.87 387.79 291.75 386.87" stroke="#2071B5" stroke-width="4.21" stroke-linecap="round" stroke-linejoin="round"/>
<path d="M285.23 389.52C286.29 389.64 291.42 388.05 291.65 387.08C292.14 385.03 291.58 383.031 291.59 381.011C291.63 376.821 291.53 372.631 292.47 368.511C293.11 365.681 294.31 365.01 297.15 365.05C300.94 365.11 302.66 367.601 303.81 370.571C305.68 375.411 307.45 380.301 309.2 385.191C309.72 386.641 314.43 386.111 316.3 385.541" stroke="#2071B5" stroke-width="4.21" stroke-linecap="round" stroke-linejoin="round"/>
<path d="M334.59 382.51C330.11 383.17 325.57 382.41 321.08 383.19C320.11 383.36 319.1 384.46 317.98 383.54" stroke="#2071B5" stroke-width="4.21" stroke-linecap="round" stroke-linejoin="round"/>
<path d="M316.32 385.54C317.38 385.66 317.65 384.73 317.89 383.75C318.38 381.7 317.82 379.7 317.83 377.68C317.87 373.49 317.77 369.3 318.71 365.18C319.35 362.35 320.55 361.68 323.39 361.72C327.18 361.78 328.9 364.27 330.05 367.24C331.92 372.08 333.69 376.97 335.44 381.86C335.96 383.31 341.34 382.08 343.21 381.52" stroke="#2071B5" stroke-width="4.21" stroke-linecap="round" stroke-linejoin="round"/>
<path d="M359.83 377.39C355.75 378.32 351.51 377.96 347.42 379.01C346.54 379.24 345.69 380.32 344.59 379.56" stroke="#2071B5" stroke-width="4.21" stroke-linecap="round" stroke-linejoin="round"/>
<path d="M343.21 381.52C344.2 381.55 344.38 380.67 344.53 379.76C344.83 377.84 344.17 376.03 344.04 374.17C343.77 370.3 343.37 366.45 343.94 362.58C344.33 359.93 345.38 359.22 348.01 359.05C351.51 358.83 353.28 360.99 354.55 363.65C356.63 367.98 358.62 372.35 360.59 376.73C361.17 378.03 364.72 376.21 366.4 375.55" stroke="#2071B5" stroke-width="4.21" stroke-linecap="round" stroke-linejoin="round"/>
<path d="M380.26 363.1C376.18 364.03 374.68 371.98 370.59 373.03C369.71 373.26 368.86 374.34 367.76 373.58" stroke="#2071B5" stroke-width="4.21" stroke-linecap="round" stroke-linejoin="round"/>
<path d="M366.38 375.54C367.37 375.57 367.55 374.69 367.7 373.78C368 371.86 367.34 370.05 367.21 368.19C366.94 364.32 366.54 360.47 367.11 356.6C367.5 353.95 368.55 353.24 371.18 353.07C374.68 352.85 379 360.44 380.28 363.1" stroke="#2071B5" stroke-width="4.21" stroke-linecap="round" stroke-linejoin="round"/>
<path d="M383.55 360.42C384.54 360.45 384.72 359.57 384.87 358.66C385.17 356.74 384.51 354.93 384.38 353.07C384.11 349.2 383.71 345.35 384.28 341.48C384.67 338.83 385.72 338.12 388.35 337.95C391.85 337.73 396.17 345.32 397.45 347.98" stroke="#2071B5" stroke-width="4.21" stroke-linecap="round" stroke-linejoin="round"/>
<path d="M402.05 345.26C402.8 345.28 402.94 344.62 403.05 343.92C403.28 342.46 402.77 341.09 402.67 339.68C402.46 336.74 402.16 333.82 402.59 330.88C402.88 328.87 403.68 328.33 405.68 328.2C408.34 328.03 411.62 333.8 412.59 335.81" stroke="#2071B5" stroke-width="4.21" stroke-linecap="round" stroke-linejoin="round"/>
<path d="M415.98 335.11C416.73 335.13 416.87 334.47 416.98 333.77C417.21 332.31 416.7 330.94 416.6 329.53C416.39 326.59 416.09 323.67 416.52 320.73C416.81 318.72 417.61 318.18 419.61 318.05C422.27 317.88 425.55 323.65 426.52 325.66" stroke="#2071B5" stroke-width="4.21" stroke-linecap="round" stroke-linejoin="round"/>
<path d="M94.0001 260C89.6001 256 76.6667 235 71.5001 224.5C68 251.5 83 273.5 85.0001 277C86.8893 280.306 108.488 300.935 110.5 302.5C115 306 143.5 320 150.5 323.5C157.5 327 183.5 333 204 337.5C222.852 341.638 276.086 340.347 300 337.5C321 335 358.188 320.906 365 317.5C375 312.5 405.5 287.973 405.5 287.973C405.5 287.973 424 272.5 429 225.5H428C425.167 229.5 420.275 240.51 415.5 249C411 257 401 264.5 379 280.5C360 291.5 354 298.5 319.5 305.5C278.254 313.869 269.021 314.019 240.5 313C212.5 312 182.5 308 149 295C125.22 285.772 104.5 269.545 94.0001 260Z" fill="#FFDA00" fill-opacity="0.7" stroke="#2071B5" stroke-width="4.21"/>
</svg>
