<?xml version="1.0" encoding="UTF-8"?>
<svg id="icons" xmlns="http://www.w3.org/2000/svg" viewBox="0 0 500 500">
  <defs>
    <style>
      .cls-1 {
        fill: none;
        stroke: #000;
        stroke-linecap: round;
        stroke-linejoin: round;
        stroke-width: .59px;
      }
    </style>
  </defs>
  <path class="cls-1" d="M211.91,378.96c0,10.99.03,21.97-.01,32.96-.02,4.26.2,8.51.19,12.77,0,2.41,1.41,3.94,3.54,4.91,2.36,1.07,4.84,1.8,7.28,2.65,5.87,2.03,11.78,3.95,17.67,5.95,6.33,2.15,12.67,4.26,19,6.4,5.14,1.74,10.29,3.47,15.44,5.19.7.23,1.45.35,2.07-.02,2.16-1.3,4.65-1.85,6.87-3.05,1.9-1.03,2.46-2.67,2.47-4.5.05-16.08.03-32.17.03-48.25,0-2.5-.85-4.67-2.69-6.36-.72-.66-.91-1.34-.89-2.25.05-1.63.01-3.27.01-4.9"/>
  <path class="cls-1" d="M196.17,193.22c-.41.79.02,1.58.02,2.38-.03,36.13-.02,72.26-.02,108.38,0,3.81,0,7.62,0,11.43"/>
  <path class="cls-1" d="M301.73,193.82c.31.47.14.99.14,1.48.01,36.42,0,72.85.01,109.27,0,1.06.16,1.87.93,2.9,2.02,2.69,4.67,4.66,6.93,7.06,2.03,2.16,2.71,4.78,2.7,7.71-.05,9.5-.06,19,.01,28.51.02,2.16-.31,4.27-.54,6.38-.15,1.33-1.21,2.45-2.02,3.56-1.67,2.29-4.01,3.94-6.29,5.41-3.91,2.52-8.25,4.37-12.57,6.16-5.37,2.24-11.06,3.46-16.78,4.26-5.21.73-10.45,1.29-15.72,1.62-5.85.37-11.69.18-17.52.16-2.96,0-5.95-.39-8.92-.78-3.33-.43-6.64-.92-9.95-1.5-3.62-.63-7.17-1.53-10.68-2.58-5.55-1.67-10.9-3.84-15.88-6.83-.53-.32-1.21-.38-1.62-.75-.97-.88-1.59-1.89-1.55-3.39.12-4.85.04-9.7.04-14.55,0-9.3,0-18.61,0-27.91,0-.55-.17-1.15.29-1.63"/>
  <path class="cls-1" d="M201.81,196.79c-.22.43-.15.89-.15,1.34.1,27.81-.22,55.63-.17,83.44.01,7.03.06,14.05-.07,21.08-.06,3.45-.02,6.93.1,10.39.09,2.64,1.68,4.46,3.7,5.93,4.49,3.27,9.56,5.31,14.85,6.82,3.56,1.02,7.19,1.78,10.84,2.34,1.96.3,3.96.44,5.93.69,5.78.73,11.58.57,17.38.52,3.42-.03,6.84-.38,10.25-.82,5.65-.73,11.23-1.73,16.62-3.61,3.99-1.39,7.94-2.87,11.44-5.33,1.77-1.25,3.12-2.73,3.75-4.89.26-.89.25-1.68.1-2.54"/>
  <path class="cls-1" d="M285.85,205.69v80.03c0,4.26,0,8.51,0,12.77"/>
  <path class="cls-1" d="M305.3,186.99c.48,1.95-.75,3.25-1.79,4.6-1.66,2.14-4.05,3.27-6.39,4.44-.25.12-.37.34-.64.49.52.97.04,1.96.04,2.95.02,36.38,0,72.75.07,109.13,0,2.19-.65,3.81-2.1,5.37-2.84,3.04-6.35,5.04-10.14,6.46-4.88,1.84-9.96,3.04-15.12,3.96-5.72,1.02-11.47,1.35-17.23,1.55-6.16.21-12.29-.2-18.41-.97-6.29-.79-12.4-2.25-18.4-4.21-3.93-1.29-7.61-3.05-10.72-5.9-1.07-.98-1.6-2.33-2.65-3.29"/>
  <path class="cls-1" d="M285.7,176.74c-3.9.73-7.81,1.47-11.74,2.03-3.64.51-7.33.77-10.97,1.3-4.26.62-8.52.4-12.78.66-3.86.23-7.73-.03-11.58-.31-2.57-.19-5.16-.37-7.72-.72-3.11-.42-6.26-.65-9.35-1.2-4.33-.78-8.65-1.6-12.93-2.63-1.19-.29-2.32-.82-3.56-.91"/>
  <path class="cls-1" d="M293.57,220.99v69.48"/>
  <path class="cls-1" d="M204.48,208.81v66.81"/>
  <path class="cls-1" d="M278.42,355.21c-6.44-2.02-13.06-3.17-19.75-3.8-4.47-.42-9-.33-13.51-.09-2.73.14-5.45.32-8.17.6-3.4.35-6.74,1.04-10.1,1.65-3.32.61-6.48,1.71-9.65,2.83"/>
  <path class="cls-1" d="M255.26,110.67c-1.3-.44-2.69-.16-4.01-.58-4.1-1.3-6.48-4.31-8.16-8.04-1-2.21-1.32-4.58-1.33-6.98-.03-4.65-.05-9.3,0-13.96.04-2.78.48-5.46,2.34-7.74.78-.95,2.1-1.23,2.72-2.4-.5-.71-1.3-.67-1.96-.53-4.87,1.02-7.98,3.95-9.37,8.73-.38,1.32-.59,2.64-.58,4.01,0,5.05,0,10.1,0,15.14,0,4.98,1.93,9.16,5.83,12.12,3.42,2.6,9.34,3.75,13.02,1.54,3-1.8,4.78-4.43,5.34-7.87.66-4.09.23-8.21.28-12.32.04-3.12.29-6.26-.29-9.35-.92-4.89-3.38-8.69-8.02-10.82-1.28-.59-2.76-.5-4.15-.76"/>
  <path class="cls-1" d="M276.64,312.45c-4.08.91-8.15,1.84-12.32,2.42-7.61,1.06-15.24.93-22.87.8-5.42-.09-10.76-1.1-16.03-2.35-2.45-.59-4.85-1.4-7.28-2.05"/>
  <path class="cls-1" d="M192.16,311.55c.4,1.51.28,3.09.34,4.61.1,2.18,1.31,3.57,2.5,5.02,2.73,3.34,6.45,5.38,10.22,7.29,5.17,2.61,10.73,4.04,16.32,5.37,3.24.77,6.53,1.3,9.81,1.7,2.85.34,5.73.49,8.6.72,5.2.4,10.4.3,15.59.17,4.16-.11,8.33-.43,12.48-1.06,4.82-.73,9.55-1.75,14.25-3,5.89-1.56,11.31-3.98,16.35-7.42,3-2.05,5.21-4.7,6.9-7.79.83-1.53.67-3.41.35-5.16-.02-.1,0-.2.15-.3"/>
  <path class="cls-1" d="M192.76,135.47c3.48,4.63,8.53,6.63,13.8,8.33,3.18,1.02,6.39,1.88,9.66,2.49,2.66.5,5.33.97,8.01,1.39,3.21.5,6.44.8,9.66,1.1,2.8.26,5.64.37,8.46.52,5.39.28,10.8.26,16.18.05,2.81-.11,5.65-.06,8.47-.49,5.86-.9,11.75-1.45,17.54-2.92,3.72-.94,7.43-1.87,10.96-3.37,3.68-1.57,7.05-3.69,9.81-6.66.58-.63.36-4.09-.29-5.04-1.74-2.54-4.2-4.13-6.97-5.36-3.41-1.51-6.92-2.69-10.54-3.57-1.5-.36-1.63-.7-1.03-2.06.44-1,.59-2.04.59-3.12,0-8.41.1-16.83-.03-25.24-.13-8.51-.07-17.03-.12-25.54,0-1.44.36-2.88-.27-4.32-.77-1.75-1.91-2.6-3.87-3.03-7.52-1.63-15.15-2.49-22.74-3.57-8.05-1.15-16.11-2.25-24.19-3.22-3.33-.4-6.67-.8-9.94-1.51-3.99-.87-7.71.1-11.44,1.13-1.92.53-2.2,2.29-2.22,3.98-.04,2.82.09,5.64.1,8.46.06,15.44.06,30.88,0,46.32,0,2.24.43,4.15,2.13,5.62.61.53.73,1.09.73,1.8-.01,3.56-.01,7.13,0,10.69,0,.84-.16,1.48-.87,2.11-2.32,2.07-2.08,4.52.11,6.52,1.72,1.57,3.89,2.21,5.97,2.9,3.07,1.02,7.14,1.84,9.49,2.13,2.85.35,22.16,2.87,47.06-1.18"/>
  <path class="cls-1" d="M192.01,133.54c-2.9.57-4.59,2.53-5.79,5.05-.67,1.4-.88,2.83-.29,4.3.31.78-.21,1.46-.18,2.23.13,3.71.07,7.42.11,11.14.04,3.21-.19,6.44-.05,9.65.17,3.76-.31,7.52.21,11.29.37,2.63,1.57,4.62,3.45,6.39,3.82,3.61,8.69,5.21,13.39,7.07,4.97,1.97,10.21,3.08,15.44,4.14,2.83.57,5.72.93,8.6,1.28,3.21.39,6.44.58,9.65.92,6.68.7,13.37.62,20.05.46,3.56-.08,7.14-.42,10.7-.74,4.04-.36,8-1.14,12.01-1.63,3.1-.38,6.18-1.16,9.22-1.99,3.25-.89,6.5-1.76,9.64-3,4.35-1.71,8.42-3.89,11.73-7.27,1.81-1.85,2.63-4.19,2.64-6.68.07-11.78.08-23.56,0-35.34-.02-3.07-2.03-5.07-4.43-6.67-.67-.45-1.33-.97-2.22-.9"/>
  <path class="cls-1" d="M275.75,390.54v54.34"/>
  <path class="cls-1" d="M195.87,306.51c-1.43,1.06-2.88,2.1-3.27,4.01-.1.51-.47.8-.89,1.04-2.69,1.52-4.52,3.75-5.5,6.68-.18.54-.3,1.07-.29,1.63.03,3.32,0,6.64-.09,9.94-.1,3.67.07,7.33.03,10.99-.04,4.4-.02,8.81.06,13.21.09,4.63,2.45,7.87,6.24,10.24.09.06.2,0,.3-.15"/>
  <path class="cls-1" d="M194.09,366.19c.3,2.01,1.64,3.43,2.99,4.73,2.79,2.65,6.32,4.11,9.77,5.67,4.68,2.11,9.58,3.58,14.56,4.69,3.99.89,8.07,1.43,12.16,1.86,3.81.4,7.62.95,11.44,1.1,3.05.12,6.15.41,9.2-.23.24-.05.49,0,.74,0,4.39.03,8.75-.47,13.05-1.27,1.46-.27,2.89-.16,4.33-.29,1.27-.11,2.43.9,3.7,1.29.57.18.33.87.29,1.3-.19,1.86.32,3.41,1.46,4.93,1.33,1.78,1.84,3.93,1.84,6.2-.02,14.35,0,28.7-.03,43.06,0,3.14.44,6.33-.88,9.35"/>
  <path class="cls-1" d="M198.55,335.61c4.9,2.82,10.2,4.75,15.61,6.15,4.36,1.13,8.86,1.79,13.33,2.53,7,1.16,14.05,1.48,21.1,1.63,3.39.07,6.83-.07,10.24-.36,2.77-.23,5.55-.45,8.31-.75,2.59-.28,5.16-.73,7.71-1.22,3.6-.7,7.17-1.59,10.7-2.63"/>
  <path class="cls-1" d="M214.88,124.04c-4.04.97-8.13,1.79-11.44,4.6-2.11,1.79-2.29,4.47-.28,6.38,1.87,1.77,4.18,2.86,6.52,3.89,4.09,1.8,8.4,2.67,12.77,3.43,4.14.72,8.3,1.1,12.47,1.51,7.27.7,14.55.58,21.83.49,4.16-.05,8.33-.37,12.47-.87,6.63-.79,13.22-1.87,19.45-4.43,2.39-.98,4.53-2.36,6.38-4.16,1.93-1.87,1.49-4.35-.17-5.92-2.25-2.13-9.42-5.41-11.12-5.51"/>
  <path class="cls-1" d="M276.05,62.42v49.89"/>
  <path class="cls-1" d="M246.76,384.16c-6.92.39-6.06.39-6.49.65-3.48,2.07-5.5,5.36-5.49,9.59,0,5.54-.1,11.09.03,16.63.15,6.85,2.68,12.54,8.9,16,3.31,1.84,6.89,2.4,10.36.31,2.98-1.79,4.38-4.62,4.76-8,.66-5.94.57-11.91-.08-17.81-.7-6.38-3.95-11.4-9.85-14.42-1.14-.58-2.35-.77-3.57-.86-1.91-.13-3.01,1-3.42,3.24-.29,1.58-.2,3.16-.18,4.75.08,5.15-.09,10.3.06,15.44.18,6.39,2.96,11.28,8.88,14.09,1.35.64,2.84.77,4.29.57.62-.08,1.19-.09,1.79.04"/>
  <path class="cls-1" d="M216.51,51.28c.76,1.06,1.99.64,2.98.85,2.2.46,4.44.77,6.67,1.12,2.43.38,4.86.7,7.29,1.1,2.11.35,4.25.61,6.38.94,2.62.4,5.25.75,7.88,1.13,1.81.26,3.66.4,5.48.68,2.52.39,5.06.67,7.59,1.1,2.35.4,4.74.67,7.11.97,3.28.41,6.52,1.06,9.8,1.5,1.07.14,2.32,2.44,2.38,3.99.24,6.33.15,12.67.13,19-.01,3.46-.1,6.93-.08,10.39.05,6.19.11,12.37.06,18.56-.02,2.82,0,5.65-.17,8.46-.09,1.53-.46,3.05-1.53,4.35-.43.52-1.17.93-1.24,1.74"/>
  <path class="cls-1" d="M192.76,186.54c-.32,1.63.36,2.98,1.35,4.14,1.15,1.34,2.56,2.4,3.98,3.44,5.03,3.7,10.77,5.6,16.77,7.02,2.97.7,5.95,1.36,8.94,1.95,1.64.32,3.36.45,5.03.68,4.04.57,8.12.82,12.18,1.13,2.66.2,5.34.04,8.01.04,1.93,0,3.86-.08,5.79.02,2.79.14,5.56-.16,8.31-.39,4.22-.36,8.44-.95,12.64-1.65,6.91-1.15,13.52-3.11,19.89-5.98.24-.11.39-.45.73-.31"/>
  <path class="cls-1" d="M257.11,218.91c-3.54,5.62-12.37,18.26-16.08,23.77-4.62,6.85-9.09,13.8-13.53,20.78"/>
  <path class="cls-1" d="M217.55,381.63v43.06"/>
  <path class="cls-1" d="M269.52,252.31c-1.14,1.83-30.09,46.08-31.49,48.14"/>
  <path class="cls-1" d="M211.91,310.96c4.39,2.14,9.04,3.43,13.8,4.51,2.52.57,5.04,1.12,7.59,1.57,2.11.37,4.25.51,6.38.74,4.49.49,9.01.34,13.51.3,9.68-.09,19.11-1.67,28.21-5.04.71-.26,1.29-.81,2.08-.89"/>
  <path class="cls-1" d="M312.54,141.4c-.03,1.51-1.65,3.27-2.65,4.31-2.42,2.53-5.47,4.08-8.61,5.5-4.31,1.96-8.76,3.54-13.37,4.56-3.04.68-6.12,1.19-9.19,1.71-3.75.64-7.52,1.13-11.29,1.39-4.64.33-9.29.73-13.95.65-2.57-.04-5.15,0-7.72-.01-4.96-.04-9.9-.42-14.85-.84-3.12-.26-6.26-.53-9.34-.99-9.33-1.4-18.54-3.25-27.04-7.66-3.16-1.64-6.15-3.47-8.31-6.4"/>
  <path class="cls-1" d="M290.3,203.76c-3.47,1.42-7.04,2.56-10.7,3.39-3.23.73-6.51,1.19-9.79,1.69-9.62,1.47-19.29,1.25-28.96,1.11-6.09-.09-12.14-.94-18.12-2.17-2.44-.5-4.87-1.01-7.27-1.64"/>
  <path class="cls-1" d="M285.55,154.47c-2.41.28-4.74.96-7.13,1.34-2.32.38-4.65.73-6.97,1.07-2.62.38-5.26.52-7.88.79-1.86.2-3.76.31-5.64.34-5.15.06-10.3.18-15.44-.03-3.71-.15-7.44-.32-11.15-.76-2.26-.27-4.55-.47-6.81-.72-3.1-.35-6.15-1.08-9.21-1.74-5.06-1.09-9.97-2.62-14.7-4.74-2.48-1.11-4.74-2.51-6.7-4.43-1.3-1.27-1.7-2.84-1.87-4.48-.16-1.57.37-4.26.37-5.85"/>
  <path class="cls-1" d="M283.77,307.99c-2.67-.76-5.19-1.93-7.86-2.71-4.24-1.25-8.54-2.06-12.92-2.69-5.83-.83-11.68-.98-17.53-.81-10.23.31-20.23,1.96-29.83,5.64-.56.21-1.1.56-1.64.87"/>
  <path class="cls-1" d="M257.19,218.91c.21.38.25.82.13,1.18-2.15,6.57-3.8,13.28-5.75,19.91-1.19,4.04-3.52,12.76-3.59,13.06"/>
  <path class="cls-1" d="M215.17,129.97c1.38.98,3.06.88,4.61,1.15,6.23,1.06,12.48,2.06,18.7,3.18,7.58,1.36,15.15,2.72,22.72,4.13,4.84.9,10.67,1.72,15.74,2.38"/>
  <path class="cls-1" d="M281.99,357.58c-2.04.11-3.94.87-5.93,1.23-3.8.69-7.61,1.26-11.43,1.78-5.13.69-10.28.91-15.45.86"/>
  <path class="cls-1" d="M215.47,248.31v31.77"/>
  <path class="cls-1" d="M279.91,296.71c-4.99-1.64-10.11-2.8-15.3-3.53-5.46-.77-10.96-1.06-16.48-.94-1.43.03-2.88.21-4.31-.13"/>
  <path class="cls-1" d="M207.45,354.91c1.57.31,3.06.91,4.6,1.34,5.86,1.67,11.75,3.19,17.81,4.04,5.78.82,11.55,1.25,17.38,1.15.54,0,1.08.21,1.63.14"/>
  <path class="cls-1" d="M248.95,264.19c-.75,2.32-9.82,32.76-10.92,36.27"/>
  <path class="cls-1" d="M215.77,366.19c2.92,1.15,5.96,1.94,8.89,3.02,5.55,2.05,11.36,3.14,16.95,4.99.18.06.39,0,.59,0"/>
  <path class="cls-1" d="M214.88,121.07c-6.2,1.26-12.23,3-17.82,6.08-2.27,1.25-3.87,2.98-4.61,5.5-.26.87-.21,1.69.02,2.53"/>
  <path class="cls-1" d="M240.27,292.7c-1.26-.54-2.48.11-3.71.2-3.97.28-7.86,1.14-11.73,2.06-3.02.71-5.95,1.75-8.92,2.64-.77.23-1.39.82-2.22.9"/>
  <path class="cls-1" d="M215.47,224.25v23.46"/>
  <path class="cls-1" d="M303.66,366.49c.03,1.98-1.34,3.24-2.55,4.42-3.73,3.62-8.34,5.68-13.16,7.53-4.46,1.71-9.05,2.64-13.69,3.47-.45.08-.59.42-.89.61"/>
  <path class="cls-1" d="M248.88,264.19c-4.01-.16-18.23-.47-21.44-.58"/>
  <path class="cls-1" d="M192.31,149.13c.28,5.39.19,15.1.15,20.49"/>
  <path class="cls-1" d="M269.52,252.31c-2.37.08-17.86.69-21.53.74"/>
  <path class="cls-1" d="M215.47,280.67c0,5.15,0,10.29.01,15.44,0,.49-.18,1.02.14,1.48"/>
  <path class="cls-1" d="M305.59,317.49c.43.43.29.98.29,1.48,0,8.66,0,17.32,0,25.98,0,5-.02,10,.01,15,0,1.39-.67,2.75-.16,4.16"/>
  <path class="cls-1" d="M192.46,169.62c0,4.85-.01,9.7,0,14.55,0,.48-.07.92-.3,1.34"/>
  <path class="cls-1" d="M204.48,277.11c0,6.38,0,12.77,0,19.15,0,1.39-.07,3.13.04,6.53"/>
  <path class="cls-1" d="M262.09,401.83v14.85"/>
  <path class="cls-1" d="M305.3,136.06c.26.24.45.51.45.89,0,1.68.15,3.38-.04,5.04-.25,2.2-1.75,3.69-3.37,5.06-2.99,2.51-6.45,4.09-10.1,5.34-2,.68-3.99,1.41-6.09,1.79"/>
  <path class="cls-1" d="M285.7,331.6c.24.48.14.99.15,1.48,0,7.57,0,15.14,0,22.72"/>
  <path class="cls-1" d="M249.03,352.24v24.35"/>
  <path class="cls-1" d="M285.85,357.28v14.55"/>
  <path class="cls-1" d="M293.57,208.22c0,3.66.01,7.32-.02,10.99,0,.39.3.91-.28,1.19"/>
  <path class="cls-1" d="M305.59,149.28c.41,2.26.13,4.55.24,6.83.19,3.8.04,7.62.05,11.43.02,5.59-.17,11.18-.14,16.78,0,.29-.17.64.14.89"/>
  <path class="cls-1" d="M195.87,172.29v11.58"/>
  <path class="cls-1" d="M257.19,378.81c.35.41.85.48,1.34.6,3.35.78,6.69,1.58,9.95,2.67"/>
  <path class="cls-1" d="M302.03,307.1c-.32,1.77-.1,3.56-.14,5.35-.04,1.88-.01,3.76,0,5.64"/>
  <path class="cls-1" d="M215.47,211.78v10.99"/>
  <path class="cls-1" d="M249.03,169.32v10.69"/>
  <path class="cls-1" d="M196.02,322.99c-.33,3.41-.06,6.83-.15,10.24"/>
  <path class="cls-1" d="M215.47,346.3v10.1"/>
  <path class="cls-1" d="M301.73,323.28c.34,3.31.05,6.63.15,9.95"/>
  <path class="cls-1" d="M215.47,167.24v9.95"/>
  <path class="cls-1" d="M249.03,185.95v9.8"/>
  <path class="cls-1" d="M286.14,121.66c-.58.47-1.03,1.02-1.76,1.39-1.51.76-1.7,1.93-1.55,3.81.18,2.16.27,7.72.41,9.75"/>
  <path class="cls-1" d="M201.81,163.68v9.5"/>
  <path class="cls-1" d="M215.44,185.65c.09,2.27.04,4.55.03,6.83,0,.51.14,1.06-.29,1.48"/>
  <path class="cls-1" d="M205.08,202.28c2.81,1.53,5.82,2.51,8.91,3.27"/>
  <path class="cls-1" d="M285.85,157.14v8.61"/>
  <path class="cls-1" d="M285.85,171.4v13.96"/>
  <path class="cls-1" d="M249.03,337.39v13.07"/>
  <path class="cls-1" d="M230.62,181.79c-2.81.15-5.55.72-8.31,1.19"/>
  <path class="cls-1" d="M285.85,299.53v8.17"/>
  <path class="cls-1" d="M283.17,365.9c-.6.13-.28.6-.28.89-.03,2.38-.02,4.75-.02,7.13"/>
  <path class="cls-1" d="M282.58,184.76c-2.29-.47-4.52-1.21-6.82-1.67-.41-.08-.8-.04-1.19-.12"/>
  <path class="cls-1" d="M215.47,156.85v8.02"/>
  <path class="cls-1" d="M215.47,358.17v15.44"/>
  <path class="cls-1" d="M298.62,327.29v7.72"/>
  <path class="cls-1" d="M282.88,347.78v7.72"/>
  <path class="cls-1" d="M293.57,296.41c0,2.57,0,5.15,0,7.72"/>
  <path class="cls-1" d="M192.31,199.9v7.42"/>
  <path class="cls-1" d="M285.85,146.75v7.59"/>
  <path class="cls-1" d="M215.47,147.35v7.44"/>
  <path class="cls-1" d="M285.85,311.85v7.13"/>
  <path class="cls-1" d="M276.94,127.6v6.98"/>
  <path class="cls-1" d="M249.03,159.67v6.98"/>
  <path class="cls-1" d="M285.7,194.11c.33,2.17.06,4.36.15,6.53"/>
  <path class="cls-1" d="M301.88,342.73v6.53"/>
  <path class="cls-1" d="M296.83,163.38v6.53"/>
  <path class="cls-1" d="M249.03,197.68v6.38"/>
  <path class="cls-1" d="M286.55,62.42c-1.9.69-1.96,1.23-3.69,1.37-.34.03-1.29.39-2.67.17"/>
  <path class="cls-1" d="M212.5,146.75v6.24"/>
  <path class="cls-1" d="M249.03,318.98v6.24"/>
  <path class="cls-1" d="M215.47,177.93v6.24"/>
  <path class="cls-1" d="M299.8,248.01v6.24"/>
  <path class="cls-1" d="M295.05,353.42c-1.81.56-3.55,1.34-5.34,1.96-.32.11-.61.05-.9.12"/>
  <path class="cls-1" d="M215.47,313.34v5.94"/>
  <path class="cls-1" d="M276.94,135.02v5.79"/>
  <path class="cls-1" d="M195.87,164.87v5.64"/>
  <path class="cls-1" d="M249.03,429.74v5.64"/>
  <path class="cls-1" d="M285.4,444.73c-1.37-.02-2.52.65-3.72,1.17-.61.26-1.21.65-1.92.61"/>
  <path class="cls-1" d="M282.88,386.83c-1.65.38-3.18,1.21-4.9,1.36-.21.02-.4.37-.6.57"/>
  <path class="cls-1" d="M290.9,365c.57,1.76.19,3.56.3,5.34"/>
  <path class="cls-1" d="M282.43,126.11c-1.14.18-2.17.73-3.27,1.03-.67.18-1.36.39-2.07.16"/>
  <path class="cls-1" d="M301.59,306.06c-1.32-.72-2.28-1.97-3.71-2.54-.39-.16-.76-.32-1.19-.29"/>
  <path class="cls-1" d="M201.22,302.65c-1.46.65-2.68,1.64-3.86,2.68-.26.23-.46.56-.89.44"/>
  <path class="cls-1" d="M292.97,202.28c.63-.1.61.3.6.74-.02,1.34,0,2.67,0,4.01"/>
  <path class="cls-1" d="M206.27,354.31c-1.56-.28-2.91-1.16-4.45-1.48"/>
  <path class="cls-1" d="M300.4,335.01c-1.41.54-2.63,1.51-4.16,1.78"/>
  <path class="cls-1" d="M283.17,123.74c-1.32-.18-2.43.7-3.71.74"/>
  <path class="cls-1" d="M249.03,329.52v6.83"/>
  <path class="cls-1" d="M285.7,200.94c.33,1.23.06,2.48.15,3.71"/>
  <path class="cls-1" d="M288.52,307.1c-1.19.59-2.38,1.19-3.56,1.78"/>
  <path class="cls-1" d="M289.41,339.76c-1.14.12-2.09.92-3.27.89"/>
  <path class="cls-1" d="M282.87,58.86c-2.51.89-3.08,1.34-4.57,1.78"/>
  <path class="cls-1" d="M195.87,184.76c-.12.89.29,1.84-.3,2.67"/>
  <path class="cls-1" d="M249.03,326.25v2.23"/>
  <path class="cls-1" d="M285.85,320.76c.05.64-.13,1.3.15,1.93"/>
  <path class="cls-1" d="M283.25,136.61c-1.32-.18-4.88,4.15-6.16,4.2"/>
</svg>