<svg width="500" height="500" viewBox="0 0 500 500" fill="none" xmlns="http://www.w3.org/2000/svg">
<path d="M238 148C152.8 175.6 110.5 195.833 100 202.5C117.6 198.1 137 205.333 144.5 209.5C164.9 193.9 356.333 118.667 449.5 83L439 79L238 148Z" fill="#FFDA00" fill-opacity="0.7"/>
<path d="M102.27 365.77C107.8 378.85 115.11 390.79 125.17 400.9C129.44 405.18 134.01 409.14 139.55 411.75C140.77 412.33 141.34 413.57 142.59 414.17C149.53 417.55 154.97 416.35 161.01 411.05C161.93 410.25 162.8 409.38 163.6 408.46C166.94 404.62 171.86 403.01 175.7 399.81C183.89 392.99 192.22 386.41 199.8 378.84C207.53 371.12 214.73 362.93 222.07 354.88C234.64 341.09 247.2 327.29 259.39 313.16C263.72 308.14 268.28 303.34 272.84 298.54C283.7 287.12 294.1 275.29 304.69 263.63C311.24 256.42 317.92 249.35 324.73 242.39C336.47 230.39 349.1 219.37 361.96 208.61C370.89 201.14 379.46 193.25 388.22 185.58C395.68 179.04 403.03 172.39 409.63 164.99C417.28 156.4 423.66 146.91 429.03 136.72C436.17 123.15 441.49 108.84 446.7 94.4796C447.78 91.5096 448.84 88.5396 449.77 85.5196C450.26 83.9396 449.96 82.7796 448.36 81.9596C445.73 80.6096 442.88 79.9996 440.11 79.0896C438.41 78.5296 437.11 79.4796 435.88 79.9496C420.33 85.8196 404.55 91.0396 388.9 96.6096C376.41 101.06 363.9 105.45 351.37 109.78C335.51 115.27 319.62 120.69 303.72 126.09C291.14 130.36 278.51 134.45 265.94 138.74C257 141.79 248.07 144.9 239.07 147.79C224.06 152.62 209.17 157.79 194.25 162.9C182.58 166.9 170.96 171.03 159.32 175.14C150.94 178.1 142.59 181.16 134.37 184.49C126.66 187.61 119.2 191.39 111.87 195.4C108.46 197.26 105.19 199.51 101.31 200.48C100.49 200.68 99.33 201.21 99.41 202.54" stroke="#2071B5" stroke-width="4.21" stroke-linecap="round" stroke-linejoin="round"/>
<path d="M449.07 83.3701C444.59 85.9101 439.65 87.3501 434.93 89.3101C426.23 92.9201 417.43 96.3001 408.72 99.8701C396.94 104.7 385.12 109.46 373.3 114.19C363.43 118.14 353.55 122.08 343.64 125.93C334.96 129.3 326.34 132.87 317.63 136.15C306.05 140.51 294.53 145.02 282.99 149.47C269.95 154.5 256.99 159.73 244.03 164.96C230.13 170.57 216.36 176.47 202.54 182.27C195.56 185.2 188.71 188.43 181.76 191.44C181.5 191.55 181.44 191.75 181.52 191.91" stroke="#2071B5" stroke-width="4.21" stroke-linecap="round" stroke-linejoin="round"/>
<path d="M170.45 233.18C174.57 239.92 178.43 246.79 181.3 254.18C184.72 262.96 187.25 271.97 188.64 281.31C189.52 287.19 190.18 293.07 190.57 299C191.13 307.67 191.13 316.3 190.52 324.96C189.73 336.1 187.88 347.07 185.62 358C183.12 370.09 179.88 381.87 174.23 392.91C172.76 395.78 171.04 398.48 169.27 401.16C168.66 402.09 167.99 403.01 168.09 404.22" stroke="#2071B5" stroke-width="4.21" stroke-linecap="round" stroke-linejoin="round"/>
<path d="M81.98 280.37C86.88 280.65 90.98 282.88 94.71 285.81C105.84 294.58 111.96 306.41 114.68 320.02C115.83 325.77 116.14 331.8 112.88 337.21C109.4 342.98 104.37 346.6 97.56 347.35C88.68 348.33 81.76 344.08 76.45 337.83C69.45 329.57 65.06 319.83 63.56 308.92C62.71 302.68 62.55 296.5 64.79 290.52C67.62 282.96 72.46 279.92 80.81 279.88C81.26 279.88 81.5 280.08 81.75 280.37" fill="#FFDA00" fill-opacity="0.7"/>
<path d="M81.98 280.37C86.88 280.65 90.98 282.88 94.71 285.81C105.84 294.58 111.96 306.41 114.68 320.02C115.83 325.77 116.14 331.8 112.88 337.21C109.4 342.98 104.37 346.6 97.56 347.35C88.68 348.33 81.76 344.08 76.45 337.83C69.45 329.57 65.06 319.83 63.56 308.92C62.71 302.68 62.55 296.5 64.79 290.52C67.62 282.96 72.46 279.92 80.81 279.88C81.26 279.88 81.5 280.08 81.75 280.37" stroke="#2071B5" stroke-width="4.21" stroke-linecap="round" stroke-linejoin="round"/>
<path d="M210.08 220.92C215.59 231.09 219.1 241.94 221.43 253.24C223.76 264.54 225.51 275.89 225.14 287.45C224.85 296.67 223.56 305.77 221.69 314.83C218.73 329.15 213.14 342.6 208.44 356.35C207.58 358.87 206.39 361.27 205.83 363.89" stroke="#2071B5" stroke-width="4.21" stroke-linecap="round" stroke-linejoin="round"/>
<path d="M437.51 83.1396C433.68 84.3896 430.08 86.2397 426.46 87.9397C417.83 92.0197 408.81 95.1196 399.96 98.6296C390.2 102.49 380.36 106.19 370.49 109.77C359.41 113.79 348.36 117.92 337.24 121.84C328.82 124.81 320.53 128.15 312 130.83C306.35 132.6 300.72 134.44 295 135.99" stroke="#2071B5" stroke-width="4.21" stroke-linecap="round" stroke-linejoin="round"/>
<path d="M173.75 383.7C175.29 379.52 177.22 375.51 178.54 371.22C181.94 360.1 184.29 348.81 185.33 337.23C185.75 332.6 185.94 327.94 186.34 323.32C187.2 313.6 186.26 303.96 185.81 294.29C185.45 286.62 184.11 279.12 182.48 271.64C180.75 263.67 178.41 255.9 174.9 248.53C170.02 238.3 163.34 229.47 154.67 222.05C143.85 212.78 131.1 207.48 117.56 204.32C106.55 201.76 95.19 204.64 86.88 214.98C81.54 221.62 79.04 229.29 77.18 237.41C75.8 243.43 75.23 249.47 75.13 255.59C75.13 256.23 75.13 255.59 75.44 258.21" stroke="#2071B5" stroke-width="4.21" stroke-linecap="round" stroke-linejoin="round"/>
<path d="M68.77 261.73C63.83 263.88 59.46 266.69 56.48 271.39C53.75 275.7 52.14 280.35 51.02 285.31C49.51 292.01 49.93 298.75 50.73 305.36C52.06 316.36 55.68 326.74 60.97 336.53C65.74 345.36 71.91 352.89 80.34 358.45C86.78 362.7 93.63 365.63 101.57 365.31C105.6 365.15 109.04 363.37 112.39 361.46C114.46 360.28 116.4 358.83 118.12 357.06C120.29 354.82 123.26 353.62 125.31 351.01C126.66 349.28 126.28 347.56 126.72 345.92C130.71 331.27 129.83 316.75 124.64 302.55C120.87 292.22 115.73 282.57 108.13 274.5C102.28 268.28 95.03 264.05 86.68 262.3C81.3 261.17 74.29 260.51 68.77 261.72" stroke="#2071B5" stroke-width="4.21" stroke-linecap="round" stroke-linejoin="round"/>
<path d="M120.2 355.16C119.85 354.27 120.17 353.61 120.63 352.78C124.25 346.27 125.38 339.06 126.34 331.81C126.8 328.34 126.63 324.86 126.27 321.43C125.58 314.87 124.08 308.48 121.64 302.3C118.13 293.43 113.51 285.21 106.94 278.29C100.7 271.73 93.37 266.41 84.32 264.68C76.48 263.18 68.56 263.32 61.93 269.04" stroke="#2071B5" stroke-width="4.21" stroke-linecap="round" stroke-linejoin="round"/>
<path d="M280.86 188.83C285.09 196.86 288.17 205.31 289.28 214.32C290.03 220.4 290.16 226.57 289.58 232.71C288.92 239.6 287.83 246.44 286.59 253.25C286.47 253.92 285.94 253.96 285.82 254.42" stroke="#2071B5" stroke-width="4.21" stroke-linecap="round" stroke-linejoin="round"/>
<path d="M133.65 206.76C129.2 205.25 124.81 203.56 120.21 202.5C113.92 201.04 107.58 200.69 101.35 202.33C90.73 205.12 83.52 212.16 78.99 221.89C75.86 228.6 73.91 235.78 72.87 243.1C72.24 247.53 71.81 252.03 71.86 256.54C71.86 257.35 71.85 256.94 72.25 259.76" stroke="#2071B5" stroke-width="4.21" stroke-linecap="round" stroke-linejoin="round"/>
<path d="M123.27 237.2C116.92 240.25 110.36 242.84 103.93 245.7C93.94 250.13 78.63 256.99 68.77 261.73" stroke="#2071B5" stroke-width="4.21" stroke-linecap="round" stroke-linejoin="round"/>
<path d="M182.01 271.17C175.36 274.92 168.48 278.25 161.72 281.79C153 286.36 144.2 290.79 135.53 295.47" stroke="#2071B5" stroke-width="4.21" stroke-linecap="round" stroke-linejoin="round"/>
<path d="M74.3 281.03C71.09 285.09 70.2 292.24 70.15 296.89C70.03 306.16 72.09 314.91 76.37 323.05C80.84 331.55 86.87 338.75 95.7 343.06C97.69 344.03 102.13 345.57 107.16 343.67" fill="#FFDA00" fill-opacity="0.7"/>
<path d="M74.3 281.03C71.09 285.09 70.2 292.24 70.15 296.89C70.03 306.16 72.09 314.91 76.37 323.05C80.84 331.55 86.87 338.75 95.7 343.06C97.69 344.03 102.13 345.57 107.16 343.67" stroke="#2071B5" stroke-width="4.21" stroke-linecap="round" stroke-linejoin="round"/>
<path d="M186.26 310.33C180.18 313.4 174.37 316.95 168.61 320.54C159.17 326.42 149.76 332.36 140.73 338.87C136.45 341.95 129.35 347.1 125.5 350.75" stroke="#2071B5" stroke-width="4.21" stroke-linecap="round" stroke-linejoin="round"/>
<path d="M336.54 168.54C338.57 174.54 340.11 180.66 341.05 186.94C342.14 194.23 342.4 201.52 342.03 208.89C341.74 214.52 340.92 220 339.42 225.41C339.27 225.96 338.99 226.66 339.38 227.29" stroke="#2071B5" stroke-width="4.21" stroke-linecap="round" stroke-linejoin="round"/>
<path d="M163.84 224.22C158.99 218.51 153.56 213.33 147.04 209.68C138.32 204.79 129.09 200.99 119.02 199.64C115.79 199.21 112.59 198.92 109.34 198.97C108.6 198.98 107.82 199.12 107.22 198.5" stroke="#2071B5" stroke-width="4.21" stroke-linecap="round" stroke-linejoin="round"/>
<path d="M287.47 138.82C278.12 141.83 268.93 145.31 259.62 148.47C256.16 149.64 252.8 151.12 249.25 152.03" stroke="#2071B5" stroke-width="4.21" stroke-linecap="round" stroke-linejoin="round"/>
<path d="M193.1 200.63C189.67 197.81 186.18 195.08 182.47 192.63C181.54 192.02 180.72 191.9 179.37 192.51C168.23 197.52 157.41 203.18 146.39 208.42C146.14 208.54 146.07 208.73 146.15 208.89" stroke="#2071B5" stroke-width="4.21" stroke-linecap="round" stroke-linejoin="round"/>
<path d="M174.7 277.07C175.58 281.38 176.54 285.66 177.11 290.04C177.71 294.64 177.44 299.18 176.85 303.73C176.78 304.25 176.58 304.89 177.21 305.57C179.29 305.14 180.76 303.35 182.72 302.55" stroke="#2071B5" stroke-width="4.21" stroke-linecap="round" stroke-linejoin="round"/>
<path d="M135.06 295.47C145.1 326.52 138.27 335.7 135.06 343.01" stroke="#2071B5" stroke-width="4.21" stroke-linecap="round" stroke-linejoin="round"/>
<path d="M120.91 390.31C127.63 397.75 134.76 404.69 144.04 408.93C146 409.83 147.93 410.92 150.16 411.07" stroke="#2071B5" stroke-width="4.21" stroke-linecap="round" stroke-linejoin="round"/>
<path d="M154.17 222.33C144.47 227.39 134.5 231.91 124.68 236.72" stroke="#2071B5" stroke-width="4.21" stroke-linecap="round" stroke-linejoin="round"/>
<path d="M140.02 248.28C130.75 253.18 121.29 257.7 111.93 262.4C111.62 262.56 111.46 263.02 111 262.91" stroke="#2071B5" stroke-width="4.21" stroke-linecap="round" stroke-linejoin="round"/>
<path d="M441.99 86.9102C440.07 95.0702 437.47 103.01 434.24 110.75C433.7 112.05 432.99 113.31 432.79 114.74" stroke="#2071B5" stroke-width="4.21" stroke-linecap="round" stroke-linejoin="round"/>
<path d="M285.11 254.42C286.11 254.27 286.23 254.93 286.04 255.59C283.86 263.04 282.13 270.63 279.01 277.78C278.59 278.74 278.15 279.75 278.04 280.83" stroke="#2071B5" stroke-width="4.21" stroke-linecap="round" stroke-linejoin="round"/>
<path d="M166.2 234.84C158.01 239.21 149.64 243.24 141.43 247.58" stroke="#2071B5" stroke-width="4.21" stroke-linecap="round" stroke-linejoin="round"/>
<path d="M119.96 321.65C116.32 323.18 116.89 327.07 118.79 328.72C120.43 330.14 122.9 329.38 123.5 327.31C124.19 324.92 122.72 322.39 120.2 321.65" stroke="#2071B5" stroke-width="4.21" stroke-linecap="round" stroke-linejoin="round"/>
<path d="M56.74 303.72C59.26 302 59.85 299.33 58.14 297.12C57.45 296.23 56.55 295.41 55.33 295.73C54.11 296.05 53.36 296.83 53.15 298.28C52.76 300.9 53.74 302.7 56.5 303.71" stroke="#2071B5" stroke-width="4.21" stroke-linecap="round" stroke-linejoin="round"/>
<path d="M96.98 282.24C99 282.07 99.86 280.76 100.03 278.94C100.2 277.06 99.03 275.61 97.23 274.9C95.9 274.37 95.07 275 94.41 275.89C93.47 277.16 93.23 278.73 93.97 280.09C94.54 281.13 95.48 282.08 96.74 282.48" stroke="#2071B5" stroke-width="4.21" stroke-linecap="round" stroke-linejoin="round"/>
<path d="M106.75 368.13C109 373.82 112.36 378.88 115.74 383.92C116.45 384.98 117.27 385.99 118.08 387" stroke="#2071B5" stroke-width="4.21" stroke-linecap="round" stroke-linejoin="round"/>
<path d="M67.35 331.8C65.28 332.44 64.13 335.04 65.25 336.74C65.67 337.38 66.3 337.88 66.89 338.4C67.72 339.13 68.71 339.48 69.7 338.86C70.88 338.13 71.48 336.89 71.08 335.59C70.53 333.81 69.37 332.37 67.59 331.56" stroke="#2071B5" stroke-width="4.21" stroke-linecap="round" stroke-linejoin="round"/>
<path d="M180.12 191.9C175.54 188.69 170.3 187.1 165.03 185.51C158.17 183.44 151.08 182.83 144.03 181.99" stroke="#2071B5" stroke-width="4.21" stroke-linecap="round" stroke-linejoin="round"/>
<path d="M56.03 289.1C57.4 290.36 58.57 289.83 59.56 288.62C60.86 287.03 60.35 284.16 58.63 282.97C56.88 281.76 54.89 282.81 54.62 285.09C54.47 286.39 54.69 287.6 55.56 288.63" stroke="#2071B5" stroke-width="4.21" stroke-linecap="round" stroke-linejoin="round"/>
<path d="M100.6 352.4C97.25 352.92 96.29 355.38 96.94 357.83C97.32 359.27 98.05 361.55 101.45 361.19C103.57 360.96 104.61 359.24 104.61 356.97C104.61 354.28 102.77 352.23 100.59 352.4" stroke="#2071B5" stroke-width="4.21" stroke-linecap="round" stroke-linejoin="round"/>
<path d="M87.32 350.88C84.52 351.32 83.72 353.37 84.27 355.41C84.59 356.62 85.2 358.52 88.03 358.21C89.8 358.02 90.67 356.58 90.67 354.69C90.67 352.44 89.14 350.73 87.32 350.87" stroke="#2071B5" stroke-width="4.21" stroke-linecap="round" stroke-linejoin="round"/>
<path d="M76.49 343.06C73.69 343.5 72.89 345.55 73.44 347.59C73.76 348.8 74.37 350.7 77.2 350.39C78.97 350.2 79.84 348.76 79.84 346.87C79.84 344.62 78.31 342.91 76.49 343.05" stroke="#2071B5" stroke-width="4.21" stroke-linecap="round" stroke-linejoin="round"/>
<path d="M112.09 345.02C109.29 345.46 108.49 347.51 109.04 349.55C109.36 350.76 109.97 352.66 112.8 352.35C114.57 352.16 115.44 350.72 115.44 348.83C115.44 346.58 113.91 344.87 112.09 345.01" stroke="#2071B5" stroke-width="4.21" stroke-linecap="round" stroke-linejoin="round"/>
<path d="M180.12 264.09C175.87 265.91 171.91 268.3 167.89 270.54C163.4 273.04 158.83 275.4 154.38 277.98C152.07 279.32 149.78 280.73 147.32 281.78" stroke="#2071B5" stroke-width="4.21" stroke-linecap="round" stroke-linejoin="round"/>
<path d="M78.78 280.16C63.93 315.33 101.28 346.75 110.73 339.82" stroke="#2071B5" stroke-width="4.21" stroke-linecap="round" stroke-linejoin="round"/>
<path d="M88.59 274.23C88.13 273.5 88.13 272.63 87.72 271.83C87.05 270.53 86.12 269.95 84.82 270.01C83.26 270.08 82.34 271.21 82.03 272.59C81.72 273.98 82 275.43 82.94 276.58C84.68 278.71 87.19 277.71 88.35 274.47" stroke="#2071B5" stroke-width="4.21" stroke-linecap="round" stroke-linejoin="round"/>
<path d="M145.91 282.73C138.48 286.59 131.19 290.72 123.73 294.53" stroke="#2071B5" stroke-width="4.21" stroke-linecap="round" stroke-linejoin="round"/>
<path d="M135.06 295.47C131.67 297.63 128.02 299.32 124.44 301.13" stroke="#2071B5" stroke-width="4.21" stroke-linecap="round" stroke-linejoin="round"/>
<path d="M229.43 322.36C226.16 326.01 222.7 329.47 219.05 332.74" stroke="#2071B5" stroke-width="4.21" stroke-linecap="round" stroke-linejoin="round"/>
<path d="M429.49 121.83C428.13 125.39 426.25 128.71 424.77 132.21" stroke="#2071B5" stroke-width="4.21" stroke-linecap="round" stroke-linejoin="round"/>
<path d="M176.82 305.85C175.88 308.46 175.64 311.26 174.68 313.87C174.28 314.95 173.48 315.92 173.99 317.18" stroke="#2071B5" stroke-width="4.21" stroke-linecap="round" stroke-linejoin="round"/>
<path d="M329.46 153.44C330.97 156.77 332.98 159.87 334.18 163.35" stroke="#2071B5" stroke-width="4.21" stroke-linecap="round" stroke-linejoin="round"/>
<path d="M57.44 309.62C60.01 310.35 61.16 312.47 60.27 314.81C59.69 316.32 58.21 316.74 56.97 315.75C54.75 313.98 54.84 311.54 57.21 309.38" stroke="#2071B5" stroke-width="4.21" stroke-linecap="round" stroke-linejoin="round"/>
<path d="M194.04 201.57C196.28 203.42 198.32 205.47 200.17 207.7" stroke="#2071B5" stroke-width="4.21" stroke-linecap="round" stroke-linejoin="round"/>
<path d="M117.6 269.04C119.68 270.73 121.57 272.62 123.26 274.7" stroke="#2071B5" stroke-width="4.21" stroke-linecap="round" stroke-linejoin="round"/>
<path d="M209.61 341.71C207.69 343.25 205.96 344.98 204.42 346.9" stroke="#2071B5" stroke-width="4.21" stroke-linecap="round" stroke-linejoin="round"/>
<path d="M151.58 256.3C153.5 257.84 155.23 259.57 156.77 261.49" stroke="#2071B5" stroke-width="4.21" stroke-linecap="round" stroke-linejoin="round"/>
<path d="M268.12 284.14C266.13 285.42 264.92 287.58 262.93 288.86" stroke="#2071B5" stroke-width="4.21" stroke-linecap="round" stroke-linejoin="round"/>
<path d="M406.84 158.16C405.46 159.93 403.89 161.5 402.12 162.88" stroke="#2071B5" stroke-width="4.21" stroke-linecap="round" stroke-linejoin="round"/>
<path d="M441.99 80.7803C441.05 81.4303 440.09 82.0303 438.92 82.2003" stroke="#2071B5" stroke-width="4.21" stroke-linecap="round" stroke-linejoin="round"/>
<path d="M118.78 336.11C116.86 336.83 117.25 338.5 117.41 339.88C117.6 341.51 119.11 342.52 120.43 342.24C121.68 341.98 122.83 339.85 122.28 338.48C121.72 337.08 120.87 335.83 119.01 336.11" stroke="#2071B5" stroke-width="4.21" stroke-linecap="round" stroke-linejoin="round"/>
<path d="M117.6 307.74C115.21 309.86 114.78 312.08 116.42 313.87C117.12 314.63 117.95 315.67 118.98 315.22C120.25 314.67 121.33 313.66 121.38 311.99C121.46 309.53 120.38 308.18 117.83 307.74" stroke="#2071B5" stroke-width="4.21" stroke-linecap="round" stroke-linejoin="round"/>
<path d="M62.63 272.58C60.02 274.71 59.49 276.68 60.98 278.71C62.44 280.71 64.09 280.62 65.23 278.47C66.49 276.1 65.48 273.58 62.87 272.57" stroke="#2071B5" stroke-width="4.21" stroke-linecap="round" stroke-linejoin="round"/>
<path d="M113.36 295.47C110.51 296.97 109.94 299.41 111.96 301.83C112.9 302.96 114.08 303.48 115.48 302.54C116.87 301.6 117.45 298.77 116.4 297.38C115.72 296.48 114.95 295.49 113.6 295.47" stroke="#2071B5" stroke-width="4.21" stroke-linecap="round" stroke-linejoin="round"/>
<path d="M105.39 283.44C102.7 285.51 102.48 288.64 104.92 290.28C106.3 291.21 108.47 290.44 108.93 288.86C109.65 286.43 108.19 284.03 105.63 283.43" stroke="#2071B5" stroke-width="4.21" stroke-linecap="round" stroke-linejoin="round"/>
<path d="M60.98 320.95C58.46 323.52 58.46 325.95 60.98 327.79C62.39 328.82 64.16 328.11 64.52 326.37C65.18 323.18 64.09 321.39 61.22 320.94" stroke="#2071B5" stroke-width="4.21" stroke-linecap="round" stroke-linejoin="round"/>
<path d="M74.19 268.1C72.36 268.32 71.33 269.34 71.13 271.17C70.92 273.09 71.52 274.57 73.23 275.68C75.13 276.91 77.17 274.98 77.47 272.58C77.72 270.62 76.48 268.9 74.42 268.1" stroke="#2071B5" stroke-width="4.21" stroke-linecap="round" stroke-linejoin="round"/>
</svg>
