<?xml version="1.0" encoding="UTF-8"?>
<svg id="icons" xmlns="http://www.w3.org/2000/svg" viewBox="0 0 500 500">
  <defs>
    <style>
      .cls-1 {
        stroke-width: .77px;
      }

      .cls-1, .cls-2, .cls-3, .cls-4, .cls-5, .cls-6, .cls-7, .cls-8, .cls-9, .cls-10, .cls-11 {
        fill: none;
        stroke: #000;
        stroke-linecap: round;
        stroke-linejoin: round;
      }

      .cls-2 {
        stroke-width: 1.11px;
      }

      .cls-3 {
        stroke-width: .97px;
      }

      .cls-4 {
        stroke-width: 1.04px;
      }

      .cls-5 {
        stroke-width: 1.01px;
      }

      .cls-6 {
        stroke-width: 1px;
      }

      .cls-7 {
        stroke-width: .58px;
      }

      .cls-8 {
        stroke-width: .79px;
      }

      .cls-9 {
        stroke-width: .9px;
      }

      .cls-10 {
        stroke-width: .9px;
      }

      .cls-11 {
        stroke-width: 1.42px;
      }
    </style>
  </defs>
  <path class="cls-6" d="M186.37,109.71c-5.93,1.25-11.76,2.95-17.68,4.26-7.99,1.76-15.86,4.03-23.66,6.48-6.77,2.12-13.42,4.61-19.94,7.43-8.1,3.51-15.96,7.46-23.41,12.22-5.46,3.49-10.58,7.42-15.46,11.69-5.01,4.37-9.42,9.29-13.13,14.75-4.24,6.23-6.98,13.18-8.27,20.64-.91,5.28-1.48,10.63-.92,15.93.76,7.15,2.79,14.02,6.15,20.43,6.03,11.49,14.93,20.23,25.61,27.46,7,4.74,13.94,9.62,21.51,13.29,11.48,5.56,23.21,10.64,35.57,14.05,8.24,2.27,16.5,4.4,24.89,6.06,6.3,1.25,12.63,2.42,18.96,3.28,7.09.96,14.26,1.52,21.4,2.18,8.05.74,16.12.91,24.17,1.34,6.53.35,13.11.3,19.68-.09,3.14-.19,6.3-.53,9.46-.29,2.11.16,4.15-.33,6.23-.51"/>
  <path class="cls-6" d="M309.92,109.21c4.25.46,8.31,1.8,12.46,2.74,9.04,2.04,18.04,4.25,26.9,6.98,12.08,3.72,23.84,8.26,35.1,13.99,7.99,4.07,15.39,9.03,22.51,14.56,11.09,8.61,20.61,18.42,25.98,31.52,2.69,6.57,3.62,13.58,3.62,20.88,0,4.5.2,9.13.46,13.7.11,1.99.22,4.19-.38,5.93-.99,2.91-1.75,5.92-2.91,8.74-3.89,9.38-9.66,17.52-16.85,24.71-7.4,7.4-15.81,13.4-24.95,18.38-7.73,4.21-15.57,8.23-23.65,11.74-9.95,4.32-20.15,7.91-30.62,10.76-6.27,1.71-12.55,3.24-18.93,4.49-5.88,1.15-11.77,2.08-17.69,2.98-4.89.74-9.82,1.31-14.72,1.8-3.77.38-7.66.42-11.43.77-10.47.99-20.93.87-31.4.83-7.06-.03-14.14-.45-21.16-1.07-7.23-.64-14.49-1.31-21.68-2.4-11.1-1.67-22.19-3.38-33.13-5.96-8.76-2.06-17.37-4.69-25.87-7.57-6.79-2.3-13.44-5.07-19.97-8.1-7.66-3.55-15.31-7.12-22.4-11.75-7.25-4.74-14.18-9.89-20.18-16.18-5.29-5.55-8.85-12.13-11.75-19.16-1.02-2.48-1.31-5.26-2.94-7.49"/>
  <path class="cls-6" d="M332.33,329.16c12.19,5.96,22.79,13.71,29.12,26.17,2.17,4.27,3.13,8.97,3.44,13.69.35,5.46.71,10.97.27,16.43-.99,12.38-5.24,23.38-14.13,32.4-10.27,10.43-22.84,17-36.4,21.86-11.62,4.17-23.62,6.86-35.85,8.53-7.03.96-14.11,1.4-21.16,2.08-9.87.96-19.64.1-29.4-.71-13.99-1.17-27.75-3.88-41.11-8.37-12.21-4.1-23.48-10.06-33.59-17.98-11.58-9.08-17.91-21.26-19.69-35.82-.21-1.72-.33-3.56.07-5.2.32-1.34.6-19.51,1.79-20.76"/>
  <path class="cls-6" d="M364.72,374c-1.58.46-.77,1.92-.9,2.76-.77,5.02-3.17,9.17-6.05,13.21-4.99,6.99-11.43,12.33-18.73,16.64-10.28,6.06-21.15,10.83-32.61,14.24-10.28,3.06-20.7,5.31-31.38,6.53-8.95,1.02-17.91,1.78-26.91,1.66-15.13-.2-30.09-1.91-44.85-5.42-11.96-2.84-23.37-7.18-34.31-12.6-8.82-4.37-17.15-9.74-23.7-17.34-4.65-5.38-8.53-11.2-9.74-18.42-.03-.19-.32-.33-.48-.5"/>
  <path class="cls-6" d="M435.96,201.38c-2.03,15.32-8.81,28.17-19.91,38.87-10.91,10.51-23.65,18.21-37.11,24.93-10.62,5.3-21.7,9.45-32.94,13.04-9.76,3.13-19.77,5.69-29.87,7.5-11.19,2-22.43,3.88-33.86,4.1-1.43.03-2.86.25-4.23.73"/>
  <path class="cls-6" d="M204.33,67.69c.07,43.76.07,88.35.22,131.69"/>
  <path class="cls-6" d="M313.4,392.43c-6.54,3.73-13.08,7.38-20.4,9.54-6.33,1.87-12.66,3.51-19.2,4.43-9.26,1.29-18.54,2.27-27.9,1.95-6.59-.23-13.18-.84-19.67-2.01-7.25-1.32-14.42-3.06-21.44-5.41-11.89-3.98-22.79-9.6-31.08-19.25-4.34-5.05-6.7-11.1-6.77-17.89-.03-2.49-.02-4.98,0-7.47,0-.85-.24-1.77.49-2.49"/>
  <path class="cls-6" d="M311.66,377.73c-3.1,1.36-5.91,3.3-8.98,4.71-8.57,3.95-17.6,6.41-26.89,8-11.47,1.96-23.05,2.49-34.62,1.92-13.45-.67-26.55-3.4-39.11-8.4-3.66-1.46-7.22-3.16-10.71-4.98"/>
  <path class="cls-6" d="M186.37,132.13c-11.07,3.33-21.88,7.36-32.37,12.22-5.69,2.63-11.14,5.7-16.21,9.43-5.48,4.03-11.19,7.81-15.89,12.76-5.42,5.73-8.9,12.56-10.25,20.39-1.86,10.85,1.07,20.24,8.72,28.14,1.19,1.22,2.2,2.61,3.48,3.74"/>
  <path class="cls-6" d="M436.45,220.81c.42,5.34-.42,10.55-1.76,15.69-3.35,12.88-10.54,23.37-20.13,32.42-5.97,5.63-12.36,10.8-19.29,15.02-7.36,4.49-14.87,8.85-23.05,11.93-4.82,1.82-9.59,3.75-14.47,5.42-10.39,3.56-20.95,6.52-31.66,8.86-7.41,1.61-14.85,3.14-22.39,4.11-4.98.64-9.96,1.38-14.94,2.01-6.88.88-13.78,1.07-20.68,1.53-10.47.7-20.94.39-31.39.28-5.71-.06-11.48-.31-17.18-.93-7.64-.83-15.33-1.28-22.91-2.53-6.92-1.14-13.83-2.38-20.72-3.76-8.48-1.7-16.8-3.93-25.11-6.2-8.79-2.41-17.32-5.66-25.7-9.32-6.21-2.71-12.17-5.89-18.17-8.99-1.15-.59-1.86-2.09-3.47-1.78"/>
  <path class="cls-6" d="M140.04,133.38c-12.78,5.54-23.99,13.36-33.62,23.42-7.54,7.88-13.49,16.75-16.45,27.39-1.55,5.57-1.78,11.22-1,16.94,1.39,10.14,5.5,19.1,11.73,27.13,1,1.29,2.39,2.25,3.69,3.28,8.81,7.04,17.99,13.35,28.35,18.05,5.26,2.39,10.34,5.38,15.8,7.2,6.08,2.02,12.05,4.38,18.09,6.5,11.02,3.87,22.18,6.91,33.67,8.84,1.33.22,2.66.47,3.99.72,1.15.21,2.21.04,2.74-1.23"/>
  <path class="cls-6" d="M311.16,133.13c3.06,1.35,6.33,2.11,9.49,3.16,7.31,2.44,14.42,5.3,21.39,8.56,8.12,3.79,16.04,7.89,23.19,13.41,7.27,5.61,13.69,11.97,17.34,20.49,3.56,8.3,4.62,16.94,1.05,25.62-1.27,3.08-3.05,5.86-5.71,7.98"/>
  <path class="cls-6" d="M309.43,254.04c1.88,1.25,3.75-.15,5.17-.73,7.2-2.99,14.93-4.46,21.97-7.85,4.25-2.05,8.49-4.07,12.51-6.64,5.19-3.32,10.21-6.79,14.91-10.77,2.7-2.29,4.87-5.19,8.17-6.81,1.07-.52,1.88-1.67,2.27-2.93"/>
  <path class="cls-4" d="M308.13,66.37c.06,17.41,1.35,87.53,1.61,104.93.14,9.48.07,18.96.17,28.43.17,15.49.04,30.99.13,46.48"/>
  <path class="cls-6" d="M188.11,180.95c.71,4.91,3.63,8.64,6.75,12.18,5.81,6.61,13.4,10.39,21.65,12.96,10.05,3.14,20.28,4.98,30.88,5.07,10.56.09,20.96-.8,31.12-3.62,4.15-1.15,8.05-3.1,11.97-4.93"/>
  <path class="cls-6" d="M204.55,229.28c3.75,2.49,8.01,3.81,12.21,5.21,11.24,3.75,22.89,4.45,34.62,4.24,9.56-.17,18.97-1.4,28.15-4.21,3.97-1.22,7.7-3.01,11.46-4.74"/>
  <path class="cls-6" d="M290.49,76.83c-4.48,1.02-8.88,2.42-13.45,2.97-8.94,1.08-17.87,1.66-26.91.87-5.95-.52-11.84-1.21-17.67-2.39-9.79-1.99-19.14-5.3-27.91-10.17"/>
  <path class="cls-6" d="M63.32,205.86c-.54.52-.3,1.2-.22,1.74.77,5.46.94,11.06.52,16.43-.82,10.61,2.31,19.94,7.21,28.89,5.97,10.91,15.1,18.88,25.12,25.92,1.32.93,2.58,1.93,3.96,2.77,1.91,1.17,2.86,3.3,4.33,4.88,5.49,5.95,12.03,10.66,18.84,15.04,12.34,7.94,25.8,13.32,39.63,17.88,9.13,3.01,18.5,5.16,27.88,7.29,6.85,1.56,13.8,2.57,20.71,3.82,3.32.6,6.79.8,10.18,1.19,6.96.79,13.97.73,20.94,1.32,4.36.37,8.79.25,13.2-.11,4.89-.4,9.84-.23,14.68-.91,2.66-.38,5.43.24,7.99-.87"/>
  <path class="cls-6" d="M100.43,220.81c4.35,6.82,10.48,11.83,16.96,16.41,4.75,3.35,9.63,6.62,14.95,8.93,12.81,5.54,25.53,11.32,39.06,15.08,11.17,3.11,22.43,5.62,33.88,7.48,11.82,1.92,23.73,2.39,35.63,3.19,9.9.66,19.76-.22,29.64-.49.77-.02,1.43-.73,2.24-.28"/>
  <path class="cls-6" d="M355.5,255.18c-4.63,1.38-8.98,3.47-13.42,5.3-5.86,2.42-11.91,4.14-17.96,5.91-6.83,2-13.68,3.91-20.68,5.2-6.19,1.14-12.33,2.52-18.67,2.88-3.31.19-6.72.41-10.08,1.37"/>
  <path class="cls-6" d="M394.11,285.07c-1.34,2.98-3.92,4.97-6.29,6.9-7.06,5.76-14.52,11.03-22.63,15.23-8.76,4.53-17.95,8.04-27.36,11.06-9.3,2.98-18.64,5.84-28.18,7.83-7.66,1.6-15.29,3.46-23.14,4.13-2.57.22-5.08,1.16-8.01.84"/>
  <path class="cls-6" d="M362.97,246.21c-28.11,15.34-58.48,22.5-90.17,24.91"/>
  <path class="cls-11" d="M290.93,77.01v124.7"/>
  <path class="cls-6" d="M154.23,238.74c.54,1.83,1.91,2.96,3.5,3.71,9.62,4.57,19.61,8.11,29.86,11.05,9.67,2.77,19.5,4.61,29.41,6.16"/>
  <path class="cls-3" d="M186.51,59.53c.36,24.15.68,48.29.33,72.44-.35,24.44-.21,48.88-.01,73.32.11,13.56.54,27.11.53,40.67"/>
  <path class="cls-6" d="M175.66,124.66c-11.45,2.3-22.5,5.71-32.9,11.18-7.79,4.1-15.52,8.28-22.67,13.46-1.35.98-2.29,2.4-3.72,3.26"/>
  <path class="cls-6" d="M290.74,251.69c-5.28,1.08-10.56,2.04-15.94,2.54-8.21.76-16.4,1.51-24.66,1.47-14.57-.05-29.05-.97-43.33-4.07-.6-.13-1.18-.06-1.75-.2"/>
  <path class="cls-6" d="M310.41,159.03c2.28-.15,4.21,1.05,6.21,1.79,11.02,4.13,21.82,8.72,31.17,16.13,5.87,4.65,10.09,10.45,12.68,17.46.11.29.01.66.01.99"/>
  <path class="cls-6" d="M208.54,273.36c10.8,1.86,21.7,2.52,32.63,3.06,5.98.29,11.98.75,17.93.32,4.98-.37,10.72.68,15.59-.9"/>
  <path class="cls-6" d="M186.37,158.53c-10.21,3.49-20.32,7.37-29.32,13.31-8.09,5.34-15.12,12.03-19.01,21.31"/>
  <path class="cls-6" d="M166.94,328.91c-7.3,4.04-14.58,8.13-20.67,13.96-7.86,7.52-11.55,16.81-11.47,27.64,0,1.25,0,2.49,0,3.74"/>
  <path class="cls-6" d="M367.46,141.1c6.88,3.97,13.2,8.68,18.96,14.17,3.23,3.08,6.83,5.79,9.44,9.49,4.4,6.22,8.16,12.76,10.26,20.16.15.53.08,1.02.2,1.51"/>
  <path class="cls-6" d="M191.85,327.67c.12,7.81-.19,15.61-.32,23.41-.14,8.63-.15,17.28-.66,25.91-.02.38-.3.64-.27.99"/>
  <path class="cls-6" d="M394.86,158.04c4.33,5.07,8.37,10.37,11.19,16.45,4.2,9.08,5.35,18.56,3.26,28.39-.36,1.7-1.16,3.27-1.5,4.98"/>
  <path class="cls-6" d="M310.41,179.96c8.09,3.24,16.23,6.36,24.15,9.99,7.04,3.23,13.63,7.17,19.21,12.66,1.94,1.91,3.36,4.01,3.72,6.74"/>
  <path class="cls-6" d="M186.37,181.2c-7.44,2.77-14.81,5.74-22.17,8.7-9.49,3.82-17.9,9.25-25.15,16.45"/>
  <path class="cls-6" d="M404.07,204.86c-2.28,7.04-6.03,13.25-10.71,18.93-2.15,2.61-4.56,4.95-7.47,6.73"/>
  <path class="cls-6" d="M186.37,193.9c-8.66,4.21-17.77,7.43-26.39,11.73-6.41,3.19-12.61,6.77-18.44,10.94-.53.38-.68,1.12-1.25,1.49"/>
  <path class="cls-6" d="M355.25,216.07c-10.59-6.7-21.77-12.24-33.39-16.92-3.8-1.53-7.37-3.66-11.45-4.5"/>
  <path class="cls-6" d="M146.26,157.54c-3.73,1.53-6.68,4.28-9.64,6.81-3.78,3.23-7.55,6.6-10.72,10.43-3.11,3.76-4.79,8.34-5.82,13.14-.76,3.54-1.57,7.15-1.36,10.71.27,4.61,1.44,9.18,3.93,13.17.82,1.31,1.56,2.72,2.08,4.06"/>
  <path class="cls-6" d="M311.16,326.17c-.04.6.3,1.12.27,1.74-.22,5.32.29,10.62.24,15.94-.1,10.63.41,21.25.46,31.88.03,5.4.72,10.79,0,16.19-.05.41.29.64.26,1"/>
  <path class="cls-6" d="M309.42,254.43c-8.62,3.15-17.6,4.69-26.65,6.01-5.39.79-10.82,1.13-16.2,1.96"/>
  <path class="cls-6" d="M397.35,221.3c-8.22,11.12-19.63,18.33-31.15,25.39-3.1,1.9-6.46,3.35-9.7,5"/>
  <path class="cls-6" d="M361.48,210.84c-1.65,5.95-4.7,10.83-9.63,14.8-3.84,3.09-7.76,5.96-12.04,8.36-6.56,3.68-13.17,7.25-20.41,9.5-3.06.95-5.86,2.78-9.23,2.71"/>
  <path class="cls-6" d="M402.33,221.3c-10.22,13.63-24.01,22.68-38.86,30.39"/>
  <path class="cls-6" d="M393.61,156.79c-5.15-5.97-11.53-10.48-17.94-14.93-6.6-4.58-13.57-8.5-21.16-11.22"/>
  <path class="cls-6" d="M409.3,178.46c1.82,5.58,3.05,11.23,2.79,17.19-.26,6.1-2.21,11.69-4.61,17.15-.48,1.08-.77,2.35-1.66,3.28"/>
  <path class="cls-6" d="M350.02,133.13c-6.19-2.13-12.15-4.9-18.45-6.68-6.3-1.78-12.42-4.2-18.92-5.28"/>
  <path class="cls-6" d="M94.45,181.95c-1.28,2.59-1.66,5.43-1.95,8.22-.97,9.23.39,18.08,4.65,26.42.23.45.86.62.79,1.23"/>
  <path class="cls-6" d="M186.62,120.92c-1.01-.64-.61-1.93-1.37-2.9-4.28,1.38-8.73,2.41-13.11,3.78-6.5,2.03-12.93,4.24-19.39,6.36-4.14,1.37-8.13,3.16-12.21,4.71"/>
  <path class="cls-6" d="M331.59,320.69c.7,2.79.42,5.69.37,8.47-.11,5.56-.02,11.13-.1,16.69-.06,4.57-.14,9.13.18,13.7.78,11.21-3.64,20.24-12.15,27.4-1.99,1.67-4.09,3.19-5.98,4.98"/>
  <path class="cls-6" d="M185.37,150.56c.94,1.63-.96,1.29-1.28,1.41-4.61,1.68-9.31,3.1-13.93,4.78-9.74,3.57-18.77,8.41-26.06,15.81-5.16,5.24-11.29,9.83-14.07,17.09-.09.22-.75.39-1.2.26"/>
  <path class="cls-6" d="M311.16,118.43c3.07.77,5.53.9,8.57,1.77,1.72.5,3.76,1.11,5.38,1.49,4.07.95,7.97,2.5,11.97,3.69,6.36,1.88,12.3,4.8,18.43,7.25"/>
  <path class="cls-6" d="M127.08,219.31c-.53.9-.09,1.54.49,2.25,3.27,4.03,7.36,7.17,11.51,10.14,4.14,2.96,8.89,4.99,13.14,7.81"/>
  <path class="cls-6" d="M168.43,354.07c4.69,10.86,12.6,18.75,22.67,24.44-.78,5.34.42,10.56-.75,15.66"/>
  <path class="cls-6" d="M242.91,283.83c2.6,3.32,6.06,2.82,9.45,1.94,1.81-.47,2.79-1.95,2.67-4.04-1.47-1.3-3.4-2.69-5.36-2.01-2.48.86-5.75.69-7.02,3.86"/>
  <path class="cls-6" d="M307.67,184.44c.34,2.19-.62,4.1-1.79,5.69-3.95,5.39-9.11,9.38-14.9,12.13,0,5.42-.05,10.74.02,16.05.05,3.74-.32,7.48.23,11.21"/>
  <path class="cls-6" d="M161.71,236c5.67,3.36,11.81,5.66,17.95,7.94,6.5,2.42,13.21,4.21,19.91,6.04,1.49.41,3.06.37,4.49.97"/>
  <path class="cls-6" d="M310.41,224.54c6.12,3.11,12.68,5.18,18.91,8.02,2.02.92,4.18,1.61,6,2.94"/>
  <path class="cls-6" d="M330.84,353.82c-1.79,4.01-3.23,8.18-5.97,11.72-3.54,4.57-7.51,8.66-12.47,11.7"/>
  <path class="cls-6" d="M185.62,224.29c-3.96,3.29-8.93,4.57-13.47,6.68-3.43,1.6-7.05,2.82-10.44,4.53"/>
  <path class="cls-6" d="M167.69,321.44c-.36,3.73-.58,7.46-.49,11.21.14,6.31-.41,12.63.24,18.93.07.65-.2,1.39.5,1.87"/>
  <path class="cls-6" d="M337.81,405.38c-1.16-1.42-2.99-1.51-4.5-2.21-6.01-2.76-12.05-5.47-18.17-8.01"/>
  <path class="cls-6" d="M204.33,67.69c-1.54-.6-10.78-3.54-17.82-8.16"/>
  <path class="cls-9" d="M290.74,230.27c.58,2.99.18,5.99.23,8.99.07,4.09.12,8.17-.23,12.26"/>
  <path class="cls-6" d="M168.93,411.36c-.68.73-.49,1.63-.49,2.49,0,5.31,0,10.63,0,15.94,0,.86.18,1.76-.49,2.49"/>
  <path class="cls-10" d="M204.8,230.27c-.55,2.47-.19,4.96-.23,7.44-.07,4.49-.02,8.98-.02,13.47"/>
  <path class="cls-6" d="M338.31,407.37c.96,2.33.78,4.9.61,7.21-.28,3.84.66,7.66-.11,11.47-.08.4.33.5.5.75"/>
  <path class="cls-6" d="M294.08,272.85c-.34-2.66-.48-1.4-.47-4.06"/>
  <path class="cls-6" d="M307.67,66.37c-.23,2.31-2.27,3.17-3.78,4.16-3.97,2.6-8.21,4.74-12.9,5.8"/>
  <path class="cls-6" d="M104.42,223.8c4.83,6.01,11.08,10.29,17.44,14.45"/>
  <path class="cls-6" d="M307.67,216.07c-4.04,6.42-9.87,10.66-16.69,13.7"/>
  <path class="cls-6" d="M189.11,214.83c.81,3.51,3.04,5.99,5.71,8.24,2.78,2.35,5.68,4.5,9.23,6.59.99-9.16.22-18.24.26-27.29"/>
  <path class="cls-6" d="M102.92,164.01c-4.09,5.19-7.63,10.71-9.96,16.94"/>
  <path class="cls-6" d="M185.12,400.15c-5.65,2.56-11.46,4.8-16.69,8.22"/>
  <path class="cls-6" d="M136.55,194.4c-2.33,7.1-1.38,13.88,1.41,20.71,1.56,3.81,4.31,6.59,7.16,9.07,3.77,3.29,7.16,7.17,11.85,9.34,1.45.67,2.75,1.62,4.24,2.24"/>
  <path class="cls-6" d="M123.1,192.66c-2.56,5.31-1.23,10.3,1.25,15.19"/>
  <path class="cls-6" d="M294.45,273.74c1.78,3.61,1.98,7.57,2.48,11.46,1.24,9.59,1.33,19.24,1.24,28.89,0,.32.24,13.79.11,14.11"/>
  <path class="cls-6" d="M203.55,288.81c-.48,4.05-1.02,8.09-.83,12.21.07,1.44-.42,2.96-.43,4.48-.02,7.32.3,14.63,1.01,21.92"/>
  <path class="cls-6" d="M309.67,246.46c-3.67,1.03-7.21,2.47-10.96,3.23-.44.09-6.34,1.69-7.97,2"/>
  <path class="cls-6" d="M206.05,275.11c-.55,3-1.31,5.95-1.78,8.96-.16,1-.19,1.99-.22,2.99"/>
  <path class="cls-6" d="M142.78,182.45c-2.66,3.5-5.41,6.95-6.24,11.46-.06.32-.04,0-.25.24-.11.13-.32,0-.49-.24"/>
  <path class="cls-6" d="M139.79,135.62c-3.93,1.27-7.43,3.41-10.96,5.48"/>
  <path class="cls-6" d="M109.9,158.53c-2.96,3.38-5.82,6.83-8.47,10.46"/>
  <path class="cls-6" d="M167.44,309.73c.18,3.24-.27,6.47-.25,9.71"/>
  <path class="cls-6" d="M94.95,183.94c-.43,2.98-1.26,5.91-1,8.97"/>
  <path class="cls-6" d="M400.59,235c-.9-3.33,1.31-5.64,4.74-5,1.02.19,2.05.34,2.98.79,1.05.5,2.54.74,2.25,2.47-.26,1.54-1.4,2.44-2.74,2.69-2.32.44-4.72.78-6.96-.45"/>
  <path class="cls-2" d="M349.82,267.84c-.99-3.7,1.46-6.25,5.25-5.54,1.13.21,2.28.38,3.3.87,1.16.56,2.82.82,2.49,2.74-.29,1.7-1.55,2.7-3.04,2.98-2.57.49-5.23.87-7.73-.5"/>
  <path class="cls-6" d="M419.58,189.54c-.9-3.33,1.31-5.64,4.74-5,1.02.19,2.05.34,2.98.79,1.05.5,2.54.74,2.25,2.47-.26,1.54-1.4,2.44-2.74,2.69-2.32.44-4.72.78-6.96-.45"/>
  <path class="cls-8" d="M395.02,151.06c-.71-2.65,1.04-4.48,3.76-3.97.81.15,1.63.27,2.36.62.83.4,2.02.58,1.78,1.96-.21,1.22-1.11,1.93-2.18,2.14-1.84.35-3.74.62-5.53-.36"/>
  <path class="cls-7" d="M357.66,128.52c-.52-1.95.77-3.3,2.77-2.92.6.11,1.2.2,1.74.46.61.29,1.49.43,1.31,1.44-.15.9-.82,1.42-1.6,1.57-1.36.26-2.76.46-4.07-.26"/>
  <path class="cls-6" d="M190.6,395.67c-.98,1.56-1.84,3.26-3.99,3.49"/>
  <path class="cls-6" d="M209.78,270.13c-1.59,1.68-1.72,4.03-2.74,5.98"/>
  <path class="cls-6" d="M143.84,268.52c-.9-3.33,1.31-5.64,4.74-5,1.02.19,2.05.34,2.98.79,1.05.5,2.54.74,2.25,2.47-.26,1.54-1.4,2.44-2.74,2.69-2.32.44-4.72.78-6.96-.45"/>
  <path class="cls-6" d="M88.31,237.63c-.9-3.33,1.31-5.64,4.74-5,1.02.19,2.05.34,2.98.79,1.05.5,2.54.74,2.25,2.47-.26,1.54-1.4,2.44-2.74,2.69-2.32.44-4.72.78-6.96-.45"/>
  <path class="cls-6" d="M70.08,194.04c-.9-3.33,1.31-5.64,4.74-5,1.02.19,2.05.34,2.98.79,1.05.5,2.54.74,2.25,2.47-.26,1.54-1.4,2.44-2.74,2.69-2.32.44-4.72.78-6.96-.45"/>
  <path class="cls-6" d="M92.05,157.17c-.9-3.33,1.31-5.64,4.74-5,1.02.19,2.05.34,2.98.79,1.05.5,2.54.74,2.25,2.47-.26,1.54-1.4,2.44-2.74,2.69-2.32.44-4.72.78-6.96-.45"/>
  <path class="cls-1" d="M125.73,133.58c-.69-2.57,1.01-4.34,3.65-3.85.78.15,1.58.26,2.29.61.81.39,1.96.57,1.73,1.9-.2,1.18-1.08,1.88-2.11,2.07-1.79.34-3.63.6-5.37-.34"/>
  <path class="cls-5" d="M186.51,59.41c6.31-1.95,12.5-4.63,18.94-5.69,12.59-2.07,24.8-3.57,37.62-3.72,6.42-.07,16.04.64,26.15,2.52,14.06,2.62,26.57,4.53,38.91,13.84"/>
  <path class="cls-5" d="M189.3,61.22c26-9.99,100.98-6.34,117.49,7.19"/>
</svg>