<svg width="500" height="500" viewBox="0 0 500 500" fill="none" xmlns="http://www.w3.org/2000/svg">
<path d="M169.5 243V234H176C186.4 234 191.333 231.667 192.5 230.5C209 218 219 206 249 204.5C273 203.3 294 218 301.5 225.5C306.3 235.1 321.5 235.167 328.5 234V241C315.7 243.4 306.167 240 303 238C295.8 224 271 216.833 259.5 215C236.7 208.2 211.667 222.5 202 230.5C193.6 240.5 187.833 243 186 243H169.5Z" fill="#FFDA00" fill-opacity="0.7"/>
<rect x="219" y="394" width="61" height="21" fill="#FFDA00" fill-opacity="0.7"/>
<rect x="230" y="424" width="41" height="14" fill="#FFDA00" fill-opacity="0.7"/>
<rect x="215" y="111" width="70" height="21" fill="#FFDA00" fill-opacity="0.7"/>
<rect x="218" y="76" width="64" height="21" fill="#FFDA00" fill-opacity="0.7"/>
<path d="M276.461 135.047C281.321 135.557 286.001 136.837 290.491 138.677C303.351 143.937 314.201 151.967 322.981 162.737C331.941 173.727 337.551 186.307 339.991 200.247C341.001 205.987 340.951 211.857 340.851 217.687C340.791 221.027 340.731 224.377 340.851 227.717C341.721 251.247 341.001 274.787 341.231 298.317C341.281 303.137 340.391 307.867 339.391 312.547C337.831 319.837 335.281 326.807 331.801 333.417C328.851 339.047 325.421 344.397 321.321 349.227C315.431 356.177 309.141 362.787 301.501 367.907C295.101 372.197 287.271 377.067 279.791 379.267" stroke="#2071B5" stroke-width="4.2" stroke-linecap="round" stroke-linejoin="round"/>
<path d="M314.571 284.883C314.141 287.013 314.331 289.173 314.401 291.303C314.641 298.903 313.091 306.213 310.741 313.363C308.031 321.603 303.501 328.813 297.941 335.453C292.821 341.573 286.731 346.473 279.651 350.033C273.931 352.903 267.821 354.683 261.431 355.543C257.421 356.083 253.421 356.373 249.391 356.293" stroke="#2071B5" stroke-width="4.2" stroke-linecap="round" stroke-linejoin="round"/>
<path d="M334.827 215.883C332.837 215.233 330.817 215.763 328.797 215.863C329.067 203.593 326.487 192.193 321.027 181.363C314.857 169.133 305.497 160.153 293.707 153.503C286.657 149.533 279.097 146.883 271.237 145.113C268.947 144.593 266.617 144.023 264.227 144.073" stroke="#2071B5" stroke-width="4.2" stroke-linecap="round" stroke-linejoin="round"/>
<path d="M329.012 216.083C328.722 224.103 328.882 232.133 328.922 240.153C328.942 245.103 328.882 250.043 328.982 254.993C329.102 260.403 328.652 265.833 328.852 271.233C329.102 277.853 328.942 284.473 328.992 291.093C329.072 301.553 327.602 311.763 323.802 321.583C320.412 330.353 315.902 338.423 309.582 345.473C304.442 351.203 298.702 356.093 292.132 360.133C284.822 364.623 277.012 367.673 268.632 369.303C261.092 370.773 253.442 371.443 245.772 371.073C238.072 370.703 230.512 369.463 223.082 367.183C213.832 364.343 205.562 359.853 198.032 353.873C192.652 349.613 188.242 344.503 184.362 338.853C179.132 331.243 175.302 322.983 172.812 314.143C171.312 308.793 170.392 303.293 170.152 297.713C169.242 276.523 169.992 255.323 169.762 234.133C169.692 228.053 169.752 221.963 169.752 215.883" stroke="#2071B5" stroke-width="4.2" stroke-linecap="round" stroke-linejoin="round"/>
<path d="M263.828 143.867C257.308 142.817 250.738 142.597 244.178 142.917C237.778 143.227 231.358 143.857 225.128 145.497C214.318 148.337 204.408 153.107 195.868 160.347C185.968 168.737 178.388 178.907 174.018 191.217C171.358 198.707 169.848 206.477 169.778 214.467C169.778 214.797 169.598 215.197 169.968 215.467" stroke="#2071B5" stroke-width="4.2" stroke-linecap="round" stroke-linejoin="round"/>
<path d="M219.499 135.453C215.559 135.963 211.859 137.253 208.269 138.873C197.809 143.603 188.639 150.143 180.789 158.523C173.299 166.513 167.409 175.553 163.579 185.813C160.759 193.343 159.079 201.173 158.929 209.263C158.479 233.733 158.839 258.203 158.729 282.673C158.709 286.753 158.729 290.833 158.729 294.913C158.729 306.473 161.019 317.543 165.499 328.233C169.549 337.883 175.089 346.563 181.849 354.443C186.379 359.723 191.949 363.913 197.629 367.953C204.039 372.513 210.989 375.973 218.299 378.763C218.759 378.943 219.299 378.803 219.709 379.153" stroke="#2071B5" stroke-width="4.2" stroke-linecap="round" stroke-linejoin="round"/>
<path d="M185.401 284.681C185.131 283.961 185.201 283.211 185.201 282.471C185.201 259.741 185.081 237.001 185.271 214.271C185.321 207.591 186.891 201.061 189.401 194.811C193.831 183.821 200.901 174.971 210.891 168.561C217.011 164.631 223.671 162.111 230.911 160.821C239.671 159.261 248.441 159.781 257.201 159.771C263.481 159.771 269.711 161.031 275.621 163.021C282.221 165.241 288.401 168.571 293.901 172.951C303.401 180.511 309.031 190.541 312.361 202.031C313.821 207.081 314.331 212.261 314.341 217.481C314.391 239.811 314.361 262.141 314.361 284.471" stroke="#2071B5" stroke-width="4.2" stroke-linecap="round" stroke-linejoin="round"/>
<path d="M248.977 285.078C249.247 285.798 249.177 286.548 249.177 287.288C249.177 316.568 249.177 345.858 249.177 375.138V391.988" stroke="#2071B5" stroke-width="4.2" stroke-linecap="round" stroke-linejoin="round"/>
<path d="M249.18 160.117V283.477" stroke="#2071B5" stroke-width="4.2" stroke-linecap="round" stroke-linejoin="round"/>
<path d="M328.607 284.882C324.217 284.082 319.777 284.632 315.367 284.502C314.367 284.472 313.357 284.492 312.357 284.472C304.467 284.342 296.577 284.692 288.688 284.682C279.797 284.682 270.898 284.562 262.008 284.702C239.278 285.052 216.537 284.782 193.807 284.882C190.937 284.892 188.057 284.882 185.188 284.882" stroke="#2071B5" stroke-width="4.2" stroke-linecap="round" stroke-linejoin="round"/>
<path d="M185.398 242.361C189.408 242.551 192.618 240.721 195.408 238.131C199.428 234.401 203.008 230.201 207.448 226.901C214.408 221.751 222.168 218.371 230.528 216.291C237.838 214.481 245.308 213.921 252.788 214.331C266.838 215.091 280.128 218.651 292.088 226.341C295.408 228.481 298.248 231.191 300.778 234.301C304.188 238.491 308.588 241.481 314.168 241.471C318.908 241.471 323.658 241.451 328.408 241.351" stroke="#2071B5" stroke-width="4.2" stroke-linecap="round" stroke-linejoin="round"/>
<path d="M335.43 219.688V283.467" stroke="#2071B5" stroke-width="4.2" stroke-linecap="round" stroke-linejoin="round"/>
<path d="M327.812 233.532C323.132 233.642 318.452 233.502 313.772 233.672C310.322 233.792 307.312 232.182 304.772 229.902C302.802 228.142 300.992 226.192 299.142 224.302C290.842 215.872 280.812 210.482 269.452 207.472C265.192 206.342 260.842 205.752 256.432 205.352C252.402 204.982 248.382 204.942 244.392 205.112C236.082 205.482 228.022 207.042 220.302 210.412C212.712 213.722 206.302 218.582 200.482 224.312C198.052 226.702 195.622 229.092 193.042 231.312C190.862 233.182 188.282 233.972 185.422 233.922" stroke="#2071B5" stroke-width="4.2" stroke-linecap="round" stroke-linejoin="round"/>
<path d="M258.411 437.523C258.411 441.003 258.361 444.473 258.431 447.953C258.461 449.463 257.911 450.003 256.401 449.983C251.051 449.923 245.701 449.883 240.351 450.003C238.561 450.043 238.131 449.253 238.141 447.753C238.151 444.413 238.141 441.063 238.141 437.723" stroke="#2071B5" stroke-width="4.2" stroke-linecap="round" stroke-linejoin="round"/>
<path d="M264.827 68.45C264.827 63.44 264.827 58.42 264.827 53.41C264.827 50.69 264.117 50 261.417 50C253.927 50 246.437 50 238.957 50C236.527 50 236.137 50.32 236.167 52.81C236.227 58.03 235.957 63.24 236.357 68.46" stroke="#2071B5" stroke-width="4.2" stroke-linecap="round" stroke-linejoin="round"/>
<path d="M230.133 423.883H295.323" stroke="#2071B5" stroke-width="4.2" stroke-linecap="round" stroke-linejoin="round"/>
<path d="M223.508 75.2663C217.748 75.2363 217.888 75.9564 217.888 78.4764C217.888 84.0964 217.908 89.7064 217.868 95.3264C217.858 96.7864 217.938 97.6163 219.878 97.8163C224.438 98.2863 228.978 98.2364 233.528 97.9064C234.508 97.8364 235.378 98.1863 236.338 98.1763C245.428 98.1163 254.528 98.1363 263.618 98.1363C268.368 98.1363 273.108 98.1363 277.858 98.1363C278.698 98.1363 279.468 97.9864 280.268 97.7564C281.158 97.4964 281.468 96.9863 281.468 96.1263C281.488 90.0463 281.298 83.9563 281.648 77.8763C281.728 76.4263 280.558 75.2763 278.858 75.3063C274.648 75.3663 270.428 75.0564 266.218 75.4664C265.278 75.5564 264.358 75.2564 263.408 75.2564C254.578 75.2864 245.758 75.1964 236.928 75.3264C234.188 75.3664 231.458 75.2064 228.688 75.5464C227.068 75.7464 225.238 75.3064 223.488 75.2864" stroke="#2071B5" stroke-width="4.2" stroke-linecap="round" stroke-linejoin="round"/>
<path d="M281.28 414.454C281.28 407.834 281.28 401.214 281.28 394.594C281.28 392.614 280.95 392.454 278.88 392.364C275.2 392.204 271.52 392.054 267.85 392.224C262.57 392.464 257.28 392.354 252 392.384C245.45 392.414 238.89 392.504 232.34 392.354C228.66 392.274 224.99 392.214 221.31 392.204C218.3 392.204 217.92 392.544 217.91 395.404C217.89 401.354 217.96 407.304 217.86 413.254C217.83 414.744 218.47 415.214 219.71 415.254C223.45 415.364 227.19 415.584 230.94 415.474C232.41 415.434 233.88 415.474 235.35 415.474C245.91 415.474 256.48 415.544 267.04 415.434C271.32 415.394 275.6 414.924 279.88 414.904C285.49 414.884 291.12 414.624 296.73 415.064" stroke="#2071B5" stroke-width="4.2" stroke-linecap="round" stroke-linejoin="round"/>
<path d="M266.227 110.17C271.437 109.91 276.657 110.33 281.877 110.01C284.867 109.83 284.887 110.01 284.887 112.98V136.45" stroke="#2071B5" stroke-width="4.2" stroke-linecap="round" stroke-linejoin="round"/>
<path d="M280.069 394.402C278.409 394.012 276.729 394.222 275.059 394.212C265.099 394.182 255.139 394.202 245.169 394.202C241.689 394.202 238.199 393.982 234.739 394.252C229.249 394.682 223.759 393.802 218.289 394.402" stroke="#2071B5" stroke-width="4.2" stroke-linecap="round" stroke-linejoin="round"/>
<path d="M284.492 130.031H214.492" stroke="#2071B5" stroke-width="4.2" stroke-linecap="round" stroke-linejoin="round"/>
<path d="M266.228 129.63C265.658 128.8 266.058 127.89 266.048 127.02C266.008 121.47 266.028 115.92 266.028 110.37C264.448 109.71 262.818 110.18 261.218 110.18C253.198 110.17 245.168 110.36 237.148 110.11C232.328 109.96 227.518 110.22 222.698 110.02C220.568 109.93 218.428 110.18 216.278 110.02C214.568 109.89 213.918 110.68 213.878 112.39C213.718 118.14 214.168 123.89 214.078 129.64C214.048 131.31 214.238 133.01 213.998 134.64C213.898 135.33 214.338 135.71 214.278 136.26" stroke="#2071B5" stroke-width="4.2" stroke-linecap="round" stroke-linejoin="round"/>
<path d="M317.181 415.462C316.781 414.282 316.951 413.052 317.011 411.852C317.071 410.472 316.501 409.852 315.181 409.852C309.761 409.852 304.351 409.822 298.931 409.872C297.621 409.882 296.881 410.512 296.891 412.062C296.961 420.022 296.921 427.972 296.921 435.932C296.921 437.622 297.601 438.322 299.321 438.332C304.331 438.352 309.351 438.352 314.361 438.332C316.121 438.332 316.961 437.472 316.961 435.732C316.971 429.712 316.961 423.702 316.981 417.682C316.981 417.022 316.741 416.312 317.171 415.672" stroke="#2071B5" stroke-width="4.2" stroke-linecap="round" stroke-linejoin="round"/>
<path d="M229.728 75.2681C229.288 74.3181 229.058 73.3381 229.108 72.2581C229.238 69.4281 229.778 68.8481 232.538 68.8481C242.568 68.8481 252.598 68.8481 262.628 68.8481C264.498 68.8481 266.378 68.8881 268.248 68.8381C269.698 68.7981 270.338 69.3081 270.518 70.8481C270.688 72.2681 270.398 73.6681 270.658 75.0681" stroke="#2071B5" stroke-width="4.2" stroke-linecap="round" stroke-linejoin="round"/>
<path d="M236.547 57.8203C238.507 57.8203 237.877 57.8203 238.557 57.8203C246.177 57.8203 253.797 57.8203 261.427 57.8203C262.427 57.8203 263.437 57.8503 264.437 57.8203" stroke="#2071B5" stroke-width="4.2" stroke-linecap="round" stroke-linejoin="round"/>
<path d="M296.52 433.109H271.25" stroke="#2071B5" stroke-width="4.2" stroke-linecap="round" stroke-linejoin="round"/>
<path d="M211.343 215.32C210.103 215.88 206.283 215.42 205.053 215.44C199.373 215.53 193.683 215.48 188.003 215.48C182.723 215.48 177.443 215.48 172.153 215.48C170.073 215.48 168.013 215.81 165.933 215.67C165.593 215.65 166.513 215.68 162.773 215.68" stroke="#2071B5" stroke-width="4.2" stroke-linecap="round" stroke-linejoin="round"/>
<path d="M328.407 215.478C316.037 215.588 303.667 215.248 291.297 215.678" stroke="#2071B5" stroke-width="4.2" stroke-linecap="round" stroke-linejoin="round"/>
<path d="M265.828 75.8672C266.288 78.4672 265.978 81.0872 266.008 83.6872C266.068 88.2972 266.028 92.9172 266.028 97.5272" stroke="#2071B5" stroke-width="4.2" stroke-linecap="round" stroke-linejoin="round"/>
<path d="M233.938 75.8672V97.5272" stroke="#2071B5" stroke-width="4.2" stroke-linecap="round" stroke-linejoin="round"/>
<path d="M229.931 415.862C229.931 422.282 229.981 428.702 229.891 435.122C229.871 436.732 230.331 437.202 231.931 437.182C233.931 437.152 235.941 436.872 237.971 437.462C238.831 437.712 239.911 437.102 240.961 437.112C250.051 437.152 259.151 437.142 268.241 437.132C270.781 437.132 270.851 437.132 270.831 434.522C270.781 428.242 271.081 421.952 270.641 415.672" stroke="#2071B5" stroke-width="4.2" stroke-linecap="round" stroke-linejoin="round"/>
<path d="M264.826 394.602C264.706 401.222 265.076 407.842 264.656 414.462C264.656 414.592 264.836 414.832 264.826 415.062" stroke="#2071B5" stroke-width="4.2" stroke-linecap="round" stroke-linejoin="round"/>
<path d="M232.938 394.797C233.398 399.337 233.067 403.887 233.117 408.437C233.137 410.637 233.387 412.857 232.938 415.057" stroke="#2071B5" stroke-width="4.2" stroke-linecap="round" stroke-linejoin="round"/>
<path d="M279.238 379.523C273.328 381.803 270.358 382.233 266.238 382.803C261.168 383.503 256.048 383.793 250.988 383.833C245.248 383.883 239.458 383.653 233.738 382.793C229.028 382.083 224.498 380.703 219.898 379.553" stroke="#2071B5" stroke-width="4.2" stroke-linecap="round" stroke-linejoin="round"/>
<path d="M232.742 110.578V129.838" stroke="#2071B5" stroke-width="4.2" stroke-linecap="round" stroke-linejoin="round"/>
<path d="M277.059 367.523C278.149 369.243 277.929 371.303 278.339 373.163C278.999 376.133 279.729 379.123 280.119 382.613C277.389 382.413 272.289 383.523 269.609 383.723" stroke="#2071B5" stroke-width="4.2" stroke-linecap="round" stroke-linejoin="round"/>
<path d="M233.141 144.273C233.561 146.803 233.281 149.353 233.331 151.893C233.381 154.633 233.341 157.373 233.341 160.113" stroke="#2071B5" stroke-width="4.2" stroke-linecap="round" stroke-linejoin="round"/>
<path d="M264.231 130.43C263.881 131.17 264.241 131.9 264.241 132.64C264.221 141.4 264.221 150.16 264.241 158.92C264.241 159.34 264.181 159.74 264.031 160.12" stroke="#2071B5" stroke-width="4.2" stroke-linecap="round" stroke-linejoin="round"/>
<path d="M244.367 376.942C239.547 377.082 234.807 376.432 230.127 375.352C229.687 375.252 229.197 375.342 228.727 375.342" stroke="#2071B5" stroke-width="4.2" stroke-linecap="round" stroke-linejoin="round"/>
<path d="M249.18 143.273V158.713" stroke="#2071B5" stroke-width="4.2" stroke-linecap="round" stroke-linejoin="round"/>
<path d="M185.003 285.08C184.523 285.11 184.103 284.85 183.603 284.86C175.713 285.07 167.823 284.56 159.933 284.84C159.743 284.84 159.403 284.72 159.133 284.68" stroke="#2071B5" stroke-width="4.2" stroke-linecap="round" stroke-linejoin="round"/>
<path d="M170.156 242.36H184.996" stroke="#2071B5" stroke-width="4.2" stroke-linecap="round" stroke-linejoin="round"/>
<path d="M184.996 233.931C180.046 233.621 175.096 233.591 170.156 233.931" stroke="#2071B5" stroke-width="4.2" stroke-linecap="round" stroke-linejoin="round"/>
<path d="M221.102 367.117C220.022 372.237 219.132 377.397 217.992 382.757C221.652 382.297 226.392 383.117 229.732 383.377" stroke="#2071B5" stroke-width="4.2" stroke-linecap="round" stroke-linejoin="round"/>
<path d="M272.45 98.5391C272.33 102.279 272.71 106.039 272.25 109.769" stroke="#2071B5" stroke-width="4.2" stroke-linecap="round" stroke-linejoin="round"/>
<path d="M226.722 98.5391C226.842 102.279 226.462 106.039 226.922 109.769" stroke="#2071B5" stroke-width="4.2" stroke-linecap="round" stroke-linejoin="round"/>
<path d="M334.634 204.453C334.394 207.813 335.324 211.123 335.034 214.483" stroke="#2071B5" stroke-width="4.2" stroke-linecap="round" stroke-linejoin="round"/>
<path d="M163.344 228.922V238.552" stroke="#2071B5" stroke-width="4.2" stroke-linecap="round" stroke-linejoin="round"/>
<path d="M229.93 382.562V391.992" stroke="#2071B5" stroke-width="4.2" stroke-linecap="round" stroke-linejoin="round"/>
<path d="M259.207 135.45C256.147 134.96 253.067 135.04 249.977 135.05" stroke="#2071B5" stroke-width="4.2" stroke-linecap="round" stroke-linejoin="round"/>
<path d="M166.54 195.617C166.23 198.057 165.38 200.387 165.08 202.827C165 203.497 165.04 204.177 164.93 204.837" stroke="#2071B5" stroke-width="4.2" stroke-linecap="round" stroke-linejoin="round"/>
<path d="M256.809 438.916C252.469 438.456 248.119 438.856 243.769 438.716C242.629 438.686 241.499 438.716 240.359 438.716" stroke="#2071B5" stroke-width="4.2" stroke-linecap="round" stroke-linejoin="round"/>
<path d="M341.05 284.68C339.24 284.68 337.43 284.68 335.43 284.68C335.43 287.49 335.43 290.5 335.43 293.51" stroke="#2071B5" stroke-width="4.2" stroke-linecap="round" stroke-linejoin="round"/>
<path d="M270.437 375.337C268.457 375.297 266.597 376.067 264.637 376.267C263.657 376.367 262.617 376.377 261.617 376.547" stroke="#2071B5" stroke-width="4.2" stroke-linecap="round" stroke-linejoin="round"/>
<path d="M269.242 382.961V391.791" stroke="#2071B5" stroke-width="4.2" stroke-linecap="round" stroke-linejoin="round"/>
<path d="M335.431 295.508C335.651 298.468 335.161 301.388 335.031 304.338" stroke="#2071B5" stroke-width="4.2" stroke-linecap="round" stroke-linejoin="round"/>
<path d="M164.94 305.938C164.84 307.888 165.47 309.718 165.98 311.538C166.14 312.098 166.03 312.628 166.14 313.158" stroke="#2071B5" stroke-width="4.2" stroke-linecap="round" stroke-linejoin="round"/>
<path d="M233.143 130.43C233.033 134.91 233.463 139.39 233.343 143.87" stroke="#2071B5" stroke-width="4.2" stroke-linecap="round" stroke-linejoin="round"/>
<path d="M249.18 131.032V141.862" stroke="#2071B5" stroke-width="4.2" stroke-linecap="round" stroke-linejoin="round"/>
<path d="M340.446 215.682C339.106 215.682 337.766 215.742 336.436 215.662C334.996 215.582 335.086 216.322 335.436 217.282" stroke="#2071B5" stroke-width="4.2" stroke-linecap="round" stroke-linejoin="round"/>
<path d="M248.779 135.047H243.969" stroke="#2071B5" stroke-width="4.2" stroke-linecap="round" stroke-linejoin="round"/>
<path d="M163.343 215.681C161.943 215.511 160.533 215.321 159.133 215.681" stroke="#2071B5" stroke-width="4.2" stroke-linecap="round" stroke-linejoin="round"/>
<path d="M185.398 284.883C185.828 287.013 185.638 289.173 185.568 291.303C185.328 298.903 186.878 306.213 189.228 313.363C191.938 321.603 196.468 328.813 202.028 335.453C207.148 341.573 213.238 346.473 220.318 350.033C226.038 352.903 232.148 354.683 238.538 355.543C242.548 356.083 246.548 356.373 250.578 356.293" stroke="#2071B5" stroke-width="4.2" stroke-linecap="round" stroke-linejoin="round"/>
</svg>
