<?xml version="1.0" encoding="UTF-8"?>
<svg id="icons" xmlns="http://www.w3.org/2000/svg" viewBox="0 0 500 500">
  <defs>
    <style>
      .cls-1 {
        opacity: .7;
        stroke-width: .3px;
      }

      .cls-1, .cls-2, .cls-3 {
        fill: none;
        stroke: #000;
        stroke-miterlimit: 10;
      }

      .cls-2, .cls-3 {
        stroke-width: .73px;
      }

      .cls-3 {
        opacity: .5;
      }
    </style>
  </defs>
  <line class="cls-2" x1="285.66" y1="279.95" x2="285.56" y2="386.45"/>
  <path class="cls-2" d="M234.49,290.11l-.54,86.02s3.64,14.71,30.17,15.2c26.53.49,28.35-13.92,28.35-13.92l1.96-99.58-60.71,12.52"/>
  <line class="cls-2" x1="245.74" y1="288.53" x2="245.74" y2="387.02"/>
  <line class="cls-2" x1="257.72" y1="285.03" x2="257.72" y2="390.65"/>
  <line class="cls-2" x1="274.41" y1="282.85" x2="274.6" y2="390.29"/>
  <path class="cls-3" d="M234.49,293.03s12.71,7.46,33.76,5.97c21.05-1.48,25.92-12.15,25.92-12.15"/>
  <path class="cls-3" d="M234.49,303.55s12.71,7.46,33.76,5.97c21.05-1.48,25.92-12.15,25.92-12.15"/>
  <path class="cls-3" d="M234.36,311.23s13.75,12.28,30.98,10.28c17.23-2,26.72-7.91,28.43-10.28"/>
  <path class="cls-3" d="M234.05,323.49s13.75,12.28,30.98,10.28c17.23-2,26.72-7.91,28.43-10.28"/>
  <path class="cls-3" d="M234.2,335.49s16.26,11.61,31.5,8.7c15.24-2.91,25.35-5.92,27.62-10.12"/>
  <path class="cls-3" d="M234.5,346.85s16.26,11.61,31.5,8.7c15.24-2.91,25.35-5.92,27.62-10.12"/>
  <path class="cls-3" d="M234.06,358.71s16.51,11.27,29.71,9.08c13.19-2.19,27.96-5.63,29.1-10.53"/>
  <path class="cls-3" d="M234.06,370.66s16.51,11.27,29.71,9.08c13.19-2.19,27.96-5.63,29.1-10.53"/>
  <path class="cls-2" d="M222,191c-8.42,2.86-16.9,6.18-25.28,10.04-60.78,28-43.86,55.26-38.78,59.34,9.92,7.96,21.71,13.86,22.43,13.22,2.33-2.03,10.09-6.5,14.88-7.44,5.81-1.14,10.76-2.72,18.15,0,2.17.8,4.19,3.87,2.9,5.26-1.28,1.39-2.55,2.25-2.55,2.25l.19,7.36,18.64,8.94,60.71-12.52s63.6-20.75,64.26-23.47c.66-2.72,18.87-41.79,17.39-48.27-1.48-6.48-3.48-13.67-7.66-16.33-4.18-2.67-33.76-18.56-39.38-17.05-1.59.43-13.49.62-31.12,2.58"/>
  <path class="cls-2" d="M375.93,205.98s-20.51,9.15-22.39,8.89c-1.89-.26-44.1,17.36-44.1,17.36,0,0-32.56,11.93-35.93,11.25-.11-.02-1.9-.35-3.11.07-1.07.37-2.02,1-2.79,1.83-2.22,2.38-5.32,8.22-5.44,8.45-.34.63-9.08,19.64-10.91,23.6-.22.47-.61.84-1.09,1.03-1.51.59-4.91,1.8-6.59,1.52-2.2-.37-7.14-.61-9.34-2.32-1.85-1.43-10.55-7.04-13.27-8.79-.47-.3-.66-.9-.45-1.42,1.2-2.93,4.96-12.1,5.18-13.21.55-2.74,1.42-9.14.8-13.66-.54-4-1.24-6.88-2-6.35-1.8,1.26-2.61,3.81-2.61,3.81,0,0-4.98,2.69-7.36,2.54-3.66-.23-16.84-3.14-19.97-9.98-3.13-6.84-8.33-16.06,3.82-20.75,1.49-.57-5.11,6.42,2.25,16.39,5.85,7.93,13.46,11.11,22.79,7.26,8.79-3.63,17.06-5.81,17.06-5.81l20.68-15.68,54.19-54.42,70.87-79.42,17.89-22.45s2.54-3.76-.54-5.55c-3.08-1.79-16.78,10.62-16.78,10.62l-160.45,127.7s-26.97,21.58-27.72,21.41"/>
  <path class="cls-2" d="M181.78,273.6l1.06,3.83c.06.21.29.32.49.23,2.08-.97,12.03-5.55,15.93-6.24,4.38-.77,14.82-3.75,15.8,2.06"/>
  <path class="cls-2" d="M168.16,218.98l-1.02-3.16c-.02-.07,0-.14.04-.19.76-.94,7.76-9.03,14.14-11.63,5.81-2.36,11.96-5.7,13.67-4.95,2.29,1.01,2.67,2.17,2.67,2.17"/>
  <path class="cls-2" d="M166.83,215.53L81.93,69.26s-1.49-5.25,3.74-7.85,8.88,1.45,8.88,1.45l82.69,93.79s17.31,24.66,17.2,41.95"/>
  <path class="cls-2" d="M183.13,277.7l18.16,168.04s1.89,5.12,7.64,4.14c5.76-.98,6.32-6.4,6.32-6.4l5.5-107.47c.02-.43,0-.86-.06-1.28-.73-5.19-5.81-44.09-5.45-61.49"/>
  <path class="cls-1" d="M157,239.3s15.63-18.72,25.77-21.08"/>
  <path class="cls-1" d="M158.39,242.35s20.21-13.66,30.61-13.11"/>
  <path class="cls-1" d="M158.95,246.56s29.89-6.02,30.89-7.25"/>
  <path class="cls-1" d="M158.39,249.94s31.09,6.38,34.39,6.26"/>
  <path class="cls-1" d="M157.99,253.44c.93.98,26.74,12.98,29.04,12.72"/>
</svg>