<?xml version="1.0" encoding="UTF-8"?>
<svg id="icons" xmlns="http://www.w3.org/2000/svg" viewBox="0 0 500 500">
  <defs>
    <style>
      .cls-1 {
        fill: none;
        stroke: #000;
        stroke-linecap: round;
        stroke-linejoin: round;
        stroke-width: .96px;
      }
    </style>
  </defs>
  <path class="cls-1" d="M213.62,422.29c.64.4,1.45.18,1.89-.05,5.76-3.09,11.92-5.59,16.98-9.8,7.31-6.08,13.37-13.24,18.28-21.46,4.63-7.75,7.94-15.92,10.02-24.68,1.18-4.99,2.11-10,2.92-15.07,1.13-7.08,1.02-14.22,1.8-21.31.29-2.69-.32-5.42-.18-8.13.15-2.97-.28-5.9-.26-8.85.03-5.55-.76-11.02-1.38-16.52-2.07-18.31-8.18-35.51-14.51-52.6-4.29-11.58-9.08-23.01-14.77-34-5.51-10.63-12.11-20.57-19.59-29.92-8.16-10.2-17.23-19.49-27.76-27.27-8.38-6.19-17.16-11.76-27.03-15.31-6.03-2.17-12.17-3.81-18.65-4.18-2.31-.13-4.63-.45-6.94-.37-8.05.27-16.01,1.75-23.37,4.74-5.49,2.23-11.29,3.5-16.64,6.17-5.75,2.87-11.02,6.27-15.77,10.59-8.51,7.75-14.59,17.21-19.32,27.56-3.38,7.4-5.73,15.16-7.26,23.18-.9,4.68-1.4,9.39-1.94,14.12-1,8.77-1.17,17.56-.78,26.32.25,5.75.74,11.52,1.68,17.25.73,4.44,1.34,8.92,2.01,13.38,1.02,6.87,2.6,13.63,4.4,20.32,3.7,13.77,8.61,27.15,14.32,40.2,6.02,13.76,13.34,26.79,22.44,38.79,7.23,9.54,15.27,18.33,23.97,26.52,7.16,6.74,15.07,12.6,23.47,17.65,8.34,5.02,17.21,9.14,26.77,11.23,6.18,1.35,12.52,1.41,18.89.64,8.74-1.06,16.99-3.62,24.33-8.31,5.37-3.43,9.67-8.28,13.75-13.26,5.24-6.4,9.45-13.36,12.88-20.85,3.2-6.99,5.47-14.3,7.15-21.78,1.64-7.32,2.45-14.74,3-22.24.61-8.31.45-16.61.27-24.89-.16-7.6-1.06-15.21-2.32-22.73-2.19-13.11-5.28-25.99-9.73-38.55-3.42-9.63-7.44-18.97-11.71-28.25-4.56-9.9-9.87-19.37-15.89-28.42-7.84-11.8-16.4-23.04-26.99-32.58-1.78-1.6-2.94-3.75-4.57-5.48-3.2-3.39-7.23-5.71-10.97-8.41-8.95-6.45-18.96-10.61-29.46-13.56-8.49-2.39-17.16-3.86-26.07-2.92-.56.06-1.02-.12-1.44-.48"/>
  <path class="cls-1" d="M399.3,355.77c1.32-2.19,3.73-3.11,5.53-4.76,4.53-4.15,8.36-8.9,11.41-14.17,6.53-11.3,10.35-23.62,12.98-36.34,1.05-5.07,1.83-10.16,2.47-15.31.79-6.37,1.23-12.78,1.23-19.15,0-7.17-.54-14.37-1.23-21.54-1.31-13.51-4.05-26.7-7.76-39.71-2.35-8.23-5.35-16.24-8.53-24.2-4.66-11.65-10.25-22.79-16.8-33.48-9.11-14.88-18.92-29.24-31.85-41.13-8.89-8.17-18.42-15.54-28.93-21.56-8.43-4.83-17.54-7.91-27.06-9.48-6.06-1-12.27-1.01-18.41-.08-2.42.37-2.66.38-3.71-.73"/>
  <path class="cls-1" d="M286.12,315.09c6.32,9.28,13.64,17.69,22.28,24.85,12.02,9.96,25.33,17.71,40.43,21.97,3.78,1.07,7.74,1.59,11.69,2.09,4.25.54,8.51.63,12.69.27,8.25-.71,16.17-2.99,23.45-7.09,1.14-.64,2.06-1.46,3.62-1.03.88.24,1.91-.69,2.87-1.06,14.11-5.5,23.96-15.62,31.34-28.51,5.32-9.29,8.64-19.3,11-29.68,1.41-6.23,2.33-12.52,2.96-18.9.95-9.51.81-19.01.27-28.48-.54-9.55-1.9-19.04-3.61-28.5-2.04-11.26-5.35-22.14-8.83-32.97-1.92-5.96-4.52-11.75-7.12-17.48-3.78-8.31-7.72-16.56-12.38-24.44-4.17-7.06-8.64-13.91-13.4-20.58-7.69-10.79-16.46-20.63-26.14-29.61-10.52-9.75-22.32-17.71-35.38-23.71-5.19-2.38-10.63-4.22-16.27-4.95-5.14-.66-10.3-.73-15.57.25-7.11,1.32-13.83,3.66-20.55,6.13-.19.07-.32.31-.48.47"/>
  <path class="cls-1" d="M117.66,201.43c.17,1-.63,1.46-1.21,1.89-5.36,3.98-7.99,9.79-10.8,15.55-2.47,5.06-3.94,10.44-5.1,15.84-.86,4.04-1.44,8.24-1.52,12.42-.12,6.62-.3,13.26.46,19.86,1.02,8.84,2.63,17.56,5.24,26.09,3.38,11.07,7.56,21.76,13.35,31.86,5.79,10.11,12.93,19.09,21.65,26.71,9.2,8.04,19.75,13.8,31.77,16.58,4.73,1.09,9.59.71,14.37,1.38,1.53.22,2.76-.96,3.79-1.9,7.69-6.99,12.96-15.38,15.69-25.54,1.53-5.71,2.73-11.46,3.67-17.27.89-5.53.87-11.18.46-16.74-.88-11.88-3-23.6-6.71-34.92-2.82-8.59-6.82-16.73-11.17-24.67-3.43-6.25-7.18-12.36-11.32-18.13-5.9-8.23-13.21-15.19-21.46-21.11-5.28-3.79-10.75-7.15-17.21-8.67-2.7-.64-5.35-1.41-8.15-1.39-4.41.03-8.81-.23-13.17.92-5.83,1.54-11.45,3.38-16.28,7.19-5.45,4.31-9.4,9.8-12.65,15.82-3.94,7.32-6.15,15.18-7.24,23.43-1.04,7.82-1.05,15.6-.5,23.46.83,11.69,3.39,22.98,7.3,33.95,2.95,8.28,6.22,16.51,11.06,23.88,2.33,3.54,1.58,6.42.13,9.64"/>
  <path class="cls-1" d="M284.06,169.45c2.56-8.96,9.85-27.26,14.51-35.26.74-1.27,2.14-1.29,3.34-1.42,7.35-.76,14.41.52,21.3,3.08,8.61,3.19,16.43,7.78,23.42,13.68,12.62,10.66,22.12,23.7,29.55,38.45,5.05,10.02,9.17,20.33,11.76,31.18,1.8,7.51,3.02,15.16,3.57,22.94.39,5.52.36,11.02.3,16.52-.09,7.4-1.55,14.65-3.54,21.77-1.71,6.12-4.15,11.86-8.34,16.78-1.01,1.19-2.36,1.98-3.34,3.12-2.13,2.48-4.69,1.22-6.97.85-6.39-1.02-12.59-2.84-18.43-5.68-6.63-3.22-12.54-7.52-18.19-12.2-11.06-9.15-18.61-20.96-25.09-33.52-4.91-9.51-8.57-19.57-11.17-29.92-1.68-6.69-2.61-13.59-3.1-20.54-.37-5.28-.38-10.54-.29-15.8.07-4.56.77-9.1,1.29-13.65.57-4.94,1.46-9.8,2.75-14.58,2.04-7.54,5.01-14.69,10.03-20.81.32-.39.53-.72.46-1.21"/>
  <path class="cls-1" d="M129.87,199.52c.03,1.47-1.41,1.65-2.19,2.09-6.15,3.44-9.5,9.17-12.35,15.17-2.93,6.17-4.36,12.82-5.37,19.59-1.09,7.26-1.12,14.49-.48,21.79.66,7.5,1.77,14.91,3.39,22.25,1.98,8.92,4.75,17.59,8.11,26.09,3.71,9.38,8.48,18.15,14.39,26.31,7.11,9.83,15.21,18.56,26.06,24.44,5.17,2.8,10.5,5.21,16.3,6.12,4.49.7,9.08,1.14,13.63.08.5-.12.97.06,1.43.24"/>
  <path class="cls-1" d="M178.92,144.72c-.52-1.31-.83-2.7-.93-4.07-.67-9-.78-18.03-.41-27.03.25-6.19,2.94-11.41,8.5-14.87,3.49-2.17,6.74-1.05,9.81.55,11.67,6.1,23.6,11.66,35.22,17.86,7.97,4.26,16.15,8.1,23.69,13.16,6.51,4.37,10.48,10.43,12.56,17.77.43,1.52.65,3.27.62,5-.12,6.46.21,12.92.4,19.38.08,2.86-.47,5.7-.27,8.62.42,6.2-.46,12.41.19,18.67.48,4.64.34,9.4-.08,14.11-.2,2.29,0,4.62-.04,6.94-.12,7.26-.05,14.52-.11,21.78-.04,4.85-.66,9.74.1,14.6.24,1.51-.24,3.02-.24,4.54.02,33.18-.1,66.36.09,99.54.06,10.37.24,20.74.07,31.11-.07,4.05.43,8.21-1.07,12.22-1.88,5.04-5.95,8.06-11.28,8.13-6.2.08-11.43-2-15.55-6.71"/>
  <path class="cls-1" d="M178.92,229.67c-.34.59-.51,1.2-.49,1.91.36,11.33-.55,22.64-.51,33.98.12,29.43.05,58.86.02,88.3,0,3.16.77,6.13,1.7,9.09"/>
  <path class="cls-1" d="M284.32,308.15c.06,2.62.21,5.28.3,7.9.82,23.36.56,46.74.49,70.11-.01,3.87-.5,7.77-1.85,11.49-1.49,4.1-4.54,6.59-8.36,8.4-2.48,1.18-5.08,1.99-7.66,2.88-.89.31-1.61-.1-2.41-.04"/>
  <path class="cls-1" d="M284.04,168.65c-.02.92.16,1.91.16,2.87.01,14.68.04,29.35-.01,44.03-.01,3.67.14,7.38-.09,11-.78,12.29-.09,24.58-.36,36.86"/>
  <path class="cls-1" d="M284.45,227.75c1.1.33.96,1.36,1.19,2.16,1.75,6.24,4.12,12.24,6.65,18.21,2.97,7.01,6.51,13.64,10.51,20.12,8.5,13.8,19.78,24.61,33.86,32.42,5.79,3.21,12.1,5.29,18.85,5.95,1.88.18,3.86.37,5.78.72,3.82.7,6.97-1.49,10.01-3.51.63-.42,1.45-.78,1.7-1.64"/>
  <path class="cls-1" d="M108.09,328.97c-.23,2.21-.54,4.41-1.44,6.46-.78,1.77.34,3.23,1.04,4.51,2.15,3.98,4.86,7.64,7.85,11.02,5.85,6.61,12.29,12.64,19.87,17.19,6.84,4.1,14.12,7.19,22.21,8.25,10.08,1.32,19.38-.4,28.03-5.76.37-.23.35-.62.69-.76"/>
  <path class="cls-1" d="M283.78,260.75c10.75,32.62,28.08,39.19,38.27,45.18,5.63,3.3,11.85,5.27,18.37,6.35,7.31,1.21,14.12-.19,20.84-2.89.83-.33,1.5-.67,1.9-1.47"/>
  <path class="cls-1" d="M380.64,145.2c-2.72.44-3.44,2.75-4.27,4.8-1.27,3.11-1.04,6.39-.23,9.55,1.05,4.14,2.7,7.99,5.92,11.04,2.51,2.38,5.56,2.83,8.62,2.27,2.49-.45,4.51-4.66,4.57-8.04.13-7.14-2.02-13.39-7.48-18.13-1.83-1.59-4.19-2.88-6.89-1.5"/>
  <path class="cls-1" d="M381.84,316.53c-2.62.44-3.85,2.39-4.77,4.55-1.3,3.08-1.06,6.16-.06,9.34,1.41,4.51,3.52,8.46,7.47,11.23,4.65,3.26,9.62,1.77,11.23-4.54,1.42-5.56-.52-10.46-3.38-15.05-1.63-2.62-3.74-4.87-6.9-5.77-1.19-.34-2.37-.62-3.35.48"/>
  <path class="cls-1" d="M283.93,168.4c-.13-2.66-2.11-31.09-2.83-35.17-1.13-6.35-7.1-9.99-12.65-13.21-8.1-4.69-16.38-9.04-24.72-13.27-9.13-4.63-18.19-9.4-27.48-13.72-2.76-1.29-5.26-3.13-8.62-2.93-2.44.15-4.58,1.16-6.65,2.08-2.62,1.17-5.3,2.16-7.94,3.25-.87.36-1.57.94-2.16,1.67"/>
  <path class="cls-1" d="M288.28,74.73c-5.6,1.06-10.84,3.09-15.78,5.88-7.8,4.4-14.72,9.93-20.84,16.48-2.77,2.97-5.08,6.28-7.41,9.58"/>
  <path class="cls-1" d="M286.52,118.46c4.43.73,7.41-1.25,9.13-5.49,2.77-6.81-1.01-16.94-6.02-20.84-2.91-2.26-8.31-1.78-10.78.96-4.25,4.69-9.29,15.34,7.66,25.37"/>
  <path class="cls-1" d="M380.88,145.44c.57,1.1-.5,1.77-.77,2.61-1.77,5.36-.04,10.17,2.25,14.83,1.08,2.19,2.85,3.97,4.53,5.74,1.05,1.1,2.41,1.76,4.04,1.46"/>
  <path class="cls-1" d="M280.25,91.95c-3.07,5.52-3.59,9.46-2.61,12.71,1.55,5.13,3.24,7.06,8.01,10.15,1.05.68,7.31,1.3,8.6.75"/>
  <path class="cls-1" d="M382.07,317.01c-2.82,6.79-.71,12.69,3.38,18.16.93,1.24,1.83,2.67,3.33,3.35,1.47.67,3.02,1.3,4.54.02"/>
  <path class="cls-1" d="M89.43,338.54c-.97,8.04,1.56,14.74,7.64,20.12.74.66,1.51.88,2.41.94"/>
  <path class="cls-1" d="M199.5,385.92c-1.33,5.95.81,10.81,4.79,15.07,1.68,1.8,3.4,3.53,6.22,2.63"/>
  <path class="cls-1" d="M89.19,164.34c-1.19,7.39,1.02,13.53,6.67,18.45.08.07.39.38.27.69"/>
  <path class="cls-1" d="M199.02,216.03c-.43,6.94,2.44,12.38,7.64,16.76.33.28.64.18.97.22"/>
  <path class="cls-1" d="M284.05,265.17c-.74.77-.4,4.06-.3,4.94.98,8.04.19,16.12.46,24.17.06,1.83-.27,10.25.23,12.07"/>
  <path class="cls-1" d="M92.06,333.76c-5.09,1.46-6.55,5.24-6.47,10.05.11,6.92,2.32,12.88,8.17,16.95,3.57,2.49,9.14,2.1,10.47-4.28,1.45-6.99-.41-13.35-4.8-18.85-1.73-2.16-3.86-4.23-7.12-3.87"/>
  <path class="cls-1" d="M91.1,160.99c-5.47,2.18-7.12,6.2-6.1,12.22.75,4.39,2.3,8.2,4.89,11.71,1.58,2.13,3.7,3.41,6.24,3.79,4.09.6,7.07-1.83,7.52-6.44.77-7.74-1.34-14.67-7.98-19.65-1.36-1.02-3.01-.81-4.34-1.63"/>
  <path class="cls-1" d="M201.65,382.57c-5.52,2.02-7.54,5.33-6.4,11.48.9,4.83,2.98,9.17,7.12,12.22,5.91,4.36,10.16,1.37,11.91-4.33,1.97-6.42-1.74-15.04-6.38-17.96-1.89-1.19-3.86-1.52-6-1.41"/>
  <path class="cls-1" d="M199.98,211.24c-5.97,3.14-7.51,9.38-3.74,16.95,1.73,3.47,4.18,6.6,8.27,8,2.35.81,4.29.3,5.97-1.06,3.42-2.78,4.08-6.81,3.27-10.7-1-4.78-3.41-8.98-7.76-11.78-1.81-1.16-3.69-1.57-5.76-1.41"/>
</svg>