<svg width="500" height="500" viewBox="0 0 500 500" fill="none" xmlns="http://www.w3.org/2000/svg">
<path d="M277.496 164.91L276.5 165.5C274.109 163.408 272.647 161.78 277.496 164.91L303.5 149.5C323.333 162.333 359.4 196.6 345 231L322 245C324.833 231 323.9 198.2 297.5 179C286.88 171.277 280.759 167.016 277.496 164.91Z" fill="#FFDA00" fill-opacity="0.7"/>
<ellipse cx="135.59" cy="302.1" rx="33.546" ry="48.6431" transform="rotate(-27.7748 135.59 302.1)" fill="#FFDA00" fill-opacity="0.7"/>
<path d="M345.83 148.12C348.32 144.66 352.31 143.18 355.64 140.88C359.46 138.24 363.65 135.93 368.45 135.78C370.97 135.7 373.52 135.78 376.02 136.97C383.6 140.59 388.42 146.72 391.18 154.26C393.98 161.91 393.72 169.68 388.84 176.72C386.92 179.5 383.78 180.7 381.09 182.5C377.99 184.58 374.56 186.15 371.77 188.7" fill="#FFDA00" fill-opacity="0.7"/>
<path d="M345.83 148.12C348.32 144.66 352.31 143.18 355.64 140.88C359.46 138.24 363.65 135.93 368.45 135.78C370.97 135.7 373.52 135.78 376.02 136.97C383.6 140.59 388.42 146.72 391.18 154.26C393.98 161.91 393.72 169.68 388.84 176.72C386.92 179.5 383.78 180.7 381.09 182.5C377.99 184.58 374.56 186.15 371.77 188.7" stroke="#2071B5" stroke-width="4.21" stroke-linecap="round" stroke-linejoin="round"/>
<path d="M274.2 165.2C280.07 164.02 284.46 159.96 289.45 157.13C294.58 154.22 299.55 151 304.57 147.89C308.19 145.66 311.76 143.41 315.87 142.09C321.57 140.26 327.14 140.71 332.74 142.35C343.43 145.49 351.61 152 358.04 160.96C361.84 166.26 364.99 171.85 367.16 178.04C369.74 185.42 370.6 193.01 369.89 200.67C369.29 207.2 367.59 213.51 362.95 218.69C360.58 221.33 357.52 222.8 354.66 224.59C345.24 230.5 335.65 236.13 326.28 242.13C325.19 242.83 324.29 243.68 323.41 244.6" stroke="#2071B5" stroke-width="4.21" stroke-linecap="round" stroke-linejoin="round"/>
<path d="M281.96 274.76C285.64 271.4 290 269 294.16 266.34C301.16 261.87 308.34 257.68 315.22 253.02C316.93 251.86 318.02 250.219 319.04 248.399C323.06 241.239 324.22 233.43 323.3 225.55C322.25 216.51 319.26 208.01 314.66 199.97C309.45 190.85 302.62 183.28 294.55 176.81C288.89 172.27 282.49 168.8 275.3 167.25C270.6 166.23 266.08 167.229 262.02 169.679C251.18 176.229 240.32 182.75 229.4 189.17C228.26 189.84 227.07 190.47 226.29 191.61" stroke="#2071B5" stroke-width="4.21" stroke-linecap="round" stroke-linejoin="round"/>
<path d="M191.92 328.87C194.39 331.08 197.53 332.17 200.39 333.68C207.17 337.26 214.08 340.62 221.01 343.88C226.03 346.24 231.26 347.14 236.1 342.9C237.32 341.83 237.37 340.57 237.93 339.35C238.94 337.17 240.1 335.05 241.15 332.87C244.61 325.72 249.28 312.1 251.12 304.37C252.9 296.87 252.02 270.54 248.9 263.46C243.13 250.38 237.47 237.68 231.37 223.76C229.4 219.26 210.15 207.4 206.02 204.69C197.22 198.92 183.67 194.12 174.8 192.77C168.19 191.76 162.17 198.87 149.94 216.23C148.1 218.84 149.25 228.94 147.66 233.53" stroke="#2071B5" stroke-width="4.21" stroke-linecap="round" stroke-linejoin="round"/>
<path d="M237.83 341.29C238.5 341.17 239.13 341.35 239.85 340.89C245.95 337 252.01 333.03 258.22 329.3C260.87 327.7 261.75 324.72 263.06 322.2C269.49 309.82 276.15 297.56 282.24 285C283.87 281.63 283.95 278.61 282.19 275.43C282.13 275.32 282.22 275.02 282.18 275.01C279.11 273.97 280.07 271.13 279.55 269C278.45 264.52 277.26 260.06 275.75 255.7C271.37 242.98 265.96 230.71 259.11 219.11C255.46 212.94 250.01 208.6 244.31 204.4C238.49 200.11 232.48 196.09 226.44 192.17C221.95 189.25 217.09 186.81 212.34 184.25C205.99 180.84 199.57 177.56 193.27 174.04C191.55 173.08 190.18 173.05 188.58 174.07C176.17 182.04 163.59 189.74 151.12 197.62C147.29 200.04 143.43 202.4 139.74 205.07C138.11 206.25 137.55 207.49 137.55 209.35C137.59 218 137.54 226.65 137.59 235.3C137.6 237 136.63 238.81 138.01 240.4" stroke="#2071B5" stroke-width="4.21" stroke-linecap="round" stroke-linejoin="round"/>
<path d="M127.61 246.15C125.23 244.54 123.85 241.96 121.66 240.12C116.33 235.62 110.43 232.71 103.44 231.68C89.61 229.64 77.94 233.87 67.96 243.28C59.82 250.95 55.14 260.63 51.94 271.2C49.96 277.74 49.14 284.43 49.17 291.17C49.22 300.41 50.55 309.53 53.09 318.45C57.89 335.27 66.06 350.28 77.25 363.71C85.67 373.82 95.47 382.28 106.79 388.94C113.59 392.94 120.78 395.92 128.71 397.28C137.79 398.83 146.41 398.15 154.67 394.07C163.29 389.81 169.6 383.08 174.65 375.02C179.09 367.93 181.12 360.06 182.35 351.94C182.68 349.77 182.4 347.51 182.4 345.29" stroke="#2071B5" stroke-width="4.21" stroke-linecap="round" stroke-linejoin="round"/>
<path d="M115.85 252.58C106.81 247.36 97.32 246.15 87.72 250.44C79.32 254.2 73.43 260.76 69.72 269.21C65.29 279.29 64.29 289.8 65.21 300.71C66.21 312.52 69.67 323.57 75.12 333.93C80.39 343.95 87.5 352.69 95.87 360.38C101.89 365.9 108.4 370.63 115.82 374.16C122.4 377.29 129.15 378.7 136.47 378.19C143.06 377.73 148.97 375.69 154.17 371.85C160.03 367.52 164.27 361.81 167.11 355.06C167.35 354.49 167.13 354.16 167.07 353.71" stroke="#2071B5" stroke-width="4.21" stroke-linecap="round" stroke-linejoin="round"/>
<path d="M191.92 328.65C194.24 326.15 197.52 325.22 200.34 323.53C208.18 318.84 216.36 314.77 224.52 310.68C230.13 307.87 233.09 303.2 234.3 297.16C236.44 286.44 234.57 276.12 231.13 266.01C228.08 257.04 224.22 248.46 218.8 240.57C211.98 230.64 202.89 223.89 191.45 220.49C183.89 218.24 176.12 217.85 168.64 221.11C164.54 222.9 161.06 225.77 157.31 228.16C150.95 232.21 144.62 236.35 138.33 240.5C130.49 245.67 122.52 250.65 114.76 255.93C110.59 258.76 106.34 261.5 103.38 265.85C99.8701 270.99 98.3501 276.72 97.6901 282.74C96.9601 289.36 97.7601 295.81 99.5901 302.27C103.37 315.62 111.07 326.41 121.01 335.67C126.16 340.47 131.76 344.79 138.68 347.09C147.34 349.96 155.76 350.22 163.73 345.24C169.36 341.72 175.4 338.94 180.86 335.12C183.57 333.23 186.49 331.6 189.25 329.75C190 329.25 190.78 328.79 191.69 328.64" stroke="#2071B5" stroke-width="4.21" stroke-linecap="round" stroke-linejoin="round"/>
<path d="M94.1201 266.11C91.0901 267.31 89.3101 269.84 87.4701 272.32C82.1301 279.5 80.1701 287.75 79.9501 296.49C79.5901 310.88 84.0801 323.84 91.9101 335.74C98.3001 345.44 106.57 353.11 116.98 358.34C121.62 360.67 126.6 361.75 131.82 361.95C137.51 362.17 142.77 361.03 147.57 357.92" stroke="#2071B5" stroke-width="4.21" stroke-linecap="round" stroke-linejoin="round"/>
<path d="M164.54 344.75C166.67 342.87 167.81 340.56 168.42 339.52C171.34 334.58 173.15 329.43 174.02 323.78C174.98 317.59 173.89 311.7 172.39 305.81C168.61 291.06 160.59 278.83 149.76 268.35C145.53 264.25 140.86 260.59 135.34 258.41C129.32 256.04 123.05 255.41 116.74 257.48C115.91 257.75 115.15 258.1 114.29 257.68" stroke="#2071B5" stroke-width="4.21" stroke-linecap="round" stroke-linejoin="round"/>
<path d="M235.61 257.01C237.5 264.61 239.77 272.13 241.12 279.86C242.01 284.92 243.5 289.93 243.14 295.16C242.51 304.31 240 312.62 232.5 318.67" stroke="#2071B5" stroke-width="4.21" stroke-linecap="round" stroke-linejoin="round"/>
<path d="M432.1 100.89C428.68 102.01 425.83 104.2 422.81 106.03C412.05 112.54 401.41 119.25 390.64 125.74C385.81 128.65 381.25 132.01 376.23 134.62C375.62 134.94 375.37 135.67 374.89 136.16" stroke="#2071B5" stroke-width="4.21" stroke-linecap="round" stroke-linejoin="round"/>
<path d="M449.17 127.94C438.87 134.63 428.13 140.58 417.69 147.03C410.29 151.6 402.77 155.98 395.51 160.77C394.81 161.23 394.11 161.66 393.29 161.87" stroke="#2071B5" stroke-width="4.21" stroke-linecap="round" stroke-linejoin="round"/>
<path d="M159.76 294.27C163.37 300.99 166.31 308 167.46 315.57C168.24 320.75 168.07 326 166.42 331.08" stroke="#2071B5" stroke-width="4.21" stroke-linecap="round" stroke-linejoin="round"/>
<path d="M215.65 265.88C217.43 270.54 219.19 275.2 220.29 280.08C221.47 285.33 222.12 290.65 221.83 296.04C221.77 297.07 221.22 298.06 221.41 299.15" stroke="#2071B5" stroke-width="4.21" stroke-linecap="round" stroke-linejoin="round"/>
<path d="M153.55 294.27C156.45 299.58 158.47 305.26 159.68 311.14C160.52 315.2 160.58 319.4 159.76 323.54" stroke="#2071B5" stroke-width="4.21" stroke-linecap="round" stroke-linejoin="round"/>
<path d="M309.68 205.56C313.05 212.63 315.62 219.94 316.85 227.73C317.11 229.38 317.13 230.99 317.22 232.62" stroke="#2071B5" stroke-width="4.21" stroke-linecap="round" stroke-linejoin="round"/>
<path d="M358.91 173.63C361.43 179.18 363.65 184.83 364.45 190.93C364.85 193.95 365.55 196.95 364.9 200.02" stroke="#2071B5" stroke-width="4.21" stroke-linecap="round" stroke-linejoin="round"/>
<path d="M133.59 265.88C130.5 265.16 127.54 263.89 124.28 263.87C119.19 263.85 114.47 265.07 110.09 267.65" stroke="#2071B5" stroke-width="4.21" stroke-linecap="round" stroke-linejoin="round"/>
<path d="M105.65 281.41C103.18 289.05 104.15 296.48 106.97 303.81C107.04 304 106.97 304.25 106.97 304.47" stroke="#2071B5" stroke-width="4.21" stroke-linecap="round" stroke-linejoin="round"/>
<path d="M223.19 232.62C228.53 239.07 231.89 246.58 234.71 254.36C234.8 254.62 234.72 254.95 234.72 255.24" stroke="#2071B5" stroke-width="4.21" stroke-linecap="round" stroke-linejoin="round"/>
<path d="M133.59 272.98C129.98 271.79 126.4 270.66 122.5 270.72C118.39 270.79 114.74 271.98 111.41 274.31" stroke="#2071B5" stroke-width="4.21" stroke-linecap="round" stroke-linejoin="round"/>
<path d="M237.83 326.21C232.91 330.28 227.32 333.02 220.97 333.66C217.75 333.98 214.45 333.25 211.22 332.66C207.53 331.98 204.04 330.71 200.58 329.31" stroke="#2071B5" stroke-width="4.21" stroke-linecap="round" stroke-linejoin="round"/>
<path d="M192.58 285.4C193.87 289.21 195.27 293.01 196.08 296.94C196.95 301.16 197.53 305.45 197.02 309.79C196.97 310.23 197.02 310.68 197.02 311.12" stroke="#2071B5" stroke-width="4.21" stroke-linecap="round" stroke-linejoin="round"/>
<path d="M274.86 280.39C268.65 285.29 262.5 290.27 256.01 294.81C255.28 295.32 254.56 295.9 253.57 295.7" stroke="#2071B5" stroke-width="4.21" stroke-linecap="round" stroke-linejoin="round"/>
<path d="M207.66 219.76C201.85 215.97 195.61 213.08 189.03 210.9C188.76 210.81 188.44 210.89 188.15 210.89" stroke="#2071B5" stroke-width="4.21" stroke-linecap="round" stroke-linejoin="round"/>
<path d="M130.04 334.63C134.67 336.61 139.17 338.96 144.46 338.65C146.56 338.53 148.49 337.93 150.45 337.29" stroke="#2071B5" stroke-width="4.21" stroke-linecap="round" stroke-linejoin="round"/>
<path d="M237.83 212.66C231.74 215.07 225.87 213.93 220.1 211.52C219.78 211.39 219.5 211.37 219.2 211.33" stroke="#2071B5" stroke-width="4.21" stroke-linecap="round" stroke-linejoin="round"/>
<path d="M288.83 242.82C288.8 245.08 289.6 247.22 289.81 249.46C290.12 252.68 290.39 255.82 289.74 259.01C289.58 259.79 289.72 260.63 289.72 261.44" stroke="#2071B5" stroke-width="4.21" stroke-linecap="round" stroke-linejoin="round"/>
<path d="M224.96 271.21C225.34 274.28 226.42 277.2 226.81 280.29C227.3 284.21 227.62 288.11 227.63 292.05" stroke="#2071B5" stroke-width="4.21" stroke-linecap="round" stroke-linejoin="round"/>
<path d="M208.55 321.33C212.38 323.28 216.45 324.16 220.75 324C222.22 323.95 223.43 322.79 224.96 323.1" stroke="#2071B5" stroke-width="4.21" stroke-linecap="round" stroke-linejoin="round"/>
<path d="M183.27 211.15C181.19 211.11 179.15 210.73 177.06 210.64C173.54 210.49 170.23 211.4 166.86 212.03" stroke="#2071B5" stroke-width="4.21" stroke-linecap="round" stroke-linejoin="round"/>
<path d="M283.07 177.18C277.98 174.62 272.69 172.6 267.1 171.41" stroke="#2071B5" stroke-width="4.21" stroke-linecap="round" stroke-linejoin="round"/>
<path d="M180.17 294.27C181.68 298.44 182.56 302.77 183.24 307.14C183.49 308.73 183.28 310.39 183.28 312.01" stroke="#2071B5" stroke-width="4.21" stroke-linecap="round" stroke-linejoin="round"/>
<path d="M174.4 235.28C171.19 234.52 168.12 233.26 164.87 232.58C162.88 232.17 160.92 231.68 158.87 231.73" stroke="#2071B5" stroke-width="4.21" stroke-linecap="round" stroke-linejoin="round"/>
<path d="M250.47 210.89C249.48 212.12 248.06 212.65 246.71 213.35C241.74 215.92 237.08 219.05 232.06 221.54" stroke="#2071B5" stroke-width="4.21" stroke-linecap="round" stroke-linejoin="round"/>
<path d="M201.45 287.17C203.52 294.22 204.16 301.39 203.21 308.68C203.04 309.96 202.31 311.12 202.33 312.45" stroke="#2071B5" stroke-width="4.21" stroke-linecap="round" stroke-linejoin="round"/>
<path d="M185.93 288.06C187.16 291.72 188.65 295.32 189.22 299.15C189.87 303.55 190.83 307.93 189.97 312.46C189.64 314.17 189.92 316 189.92 317.77" stroke="#2071B5" stroke-width="4.21" stroke-linecap="round" stroke-linejoin="round"/>
<path d="M214.32 281.85C214.39 284.05 215.34 286.09 215.44 288.28C215.53 290.29 216.03 292.25 216.12 294.27" stroke="#2071B5" stroke-width="4.21" stroke-linecap="round" stroke-linejoin="round"/>
<path d="M368.67 142.14C363.69 144.93 359.04 148.26 354.03 151.01" stroke="#2071B5" stroke-width="4.21" stroke-linecap="round" stroke-linejoin="round"/>
<path d="M183.27 312.9C183.57 317.65 182.41 322.17 181.05 326.65" stroke="#2071B5" stroke-width="4.21" stroke-linecap="round" stroke-linejoin="round"/>
<path d="M295.49 237.05C295.99 239.7 296.8 242.43 296.66 245.03C296.5 248.05 296.62 251.11 296.18 254.13C295.91 256 295.24 257.79 295.05 259.67" stroke="#2071B5" stroke-width="4.21" stroke-linecap="round" stroke-linejoin="round"/>
<path d="M239.16 221.53C239.23 223.37 238.53 225.07 238.23 226.85C237.83 229.25 238.38 231.59 238.27 233.95" stroke="#2071B5" stroke-width="4.21" stroke-linecap="round" stroke-linejoin="round"/>
<path d="M149.56 248.14C146.45 247.02 143.33 245.97 140.04 245.37C139.23 245.22 138.39 245.21 137.58 245.03" stroke="#2071B5" stroke-width="4.21" stroke-linecap="round" stroke-linejoin="round"/>
<path d="M162.44 215.13C159.66 218.01 157.43 221.39 154.42 224.07" stroke="#2071B5" stroke-width="4.21" stroke-linecap="round" stroke-linejoin="round"/>
<path d="M308.79 226.85C308.75 229.04 309.55 231.1 309.8 233.27C310.17 236.48 310.3 239.63 309.9 242.82C309.7 244.45 309.45 246.07 309.23 247.7" stroke="#2071B5" stroke-width="4.21" stroke-linecap="round" stroke-linejoin="round"/>
<path d="M215.65 296.93C215.67 300.87 214.71 304.66 213.88 308.46" stroke="#2071B5" stroke-width="4.21" stroke-linecap="round" stroke-linejoin="round"/>
<path d="M228.95 336.85C225.97 338.07 222.88 338.79 219.64 338.61C218.98 338.57 218.47 338.96 217.87 339.07" stroke="#2071B5" stroke-width="4.21" stroke-linecap="round" stroke-linejoin="round"/>
<path d="M338.95 217.1C335.07 219.01 331.58 221.58 327.86 223.75" stroke="#2071B5" stroke-width="4.21" stroke-linecap="round" stroke-linejoin="round"/>
<path d="M209.44 288.5C209.64 291.17 210.16 293.82 210.29 296.49C210.43 299.3 210.39 302.13 209.88 304.92" stroke="#2071B5" stroke-width="4.21" stroke-linecap="round" stroke-linejoin="round"/>
<path d="M191.28 176.01C188.69 181.85 176.82 187.65 174.4 193.58" stroke="#2071B5" stroke-width="4.21" stroke-linecap="round" stroke-linejoin="round"/>
<path d="M364.68 202.24C364.36 205.86 363.15 209.25 362.02 212.66" stroke="#2071B5" stroke-width="4.21" stroke-linecap="round" stroke-linejoin="round"/>
<path d="M196.58 231.29C193.49 229.78 190.71 227.61 187.27 226.85" stroke="#2071B5" stroke-width="4.21" stroke-linecap="round" stroke-linejoin="round"/>
<path d="M291.05 224.64C291.94 227.65 293.59 230.39 294.15 233.51" stroke="#2071B5" stroke-width="4.21" stroke-linecap="round" stroke-linejoin="round"/>
<path d="M149.12 224.19C147.87 226.92 148.34 231.04 147.57 233.95" stroke="#2071B5" stroke-width="4.21" stroke-linecap="round" stroke-linejoin="round"/>
<path d="M283.51 256.57V265" stroke="#2071B5" stroke-width="4.21" stroke-linecap="round" stroke-linejoin="round"/>
<path d="M166.86 241.49C164.17 240.37 161.87 238.38 158.88 237.94" stroke="#2071B5" stroke-width="4.21" stroke-linecap="round" stroke-linejoin="round"/>
<path d="M267.54 177.62C264.8 176.98 262.31 175.56 259.56 174.96" stroke="#2071B5" stroke-width="4.21" stroke-linecap="round" stroke-linejoin="round"/>
<path d="M161.54 255.68C164.41 257.67 166.85 260.11 169.08 262.78" stroke="#2071B5" stroke-width="4.21" stroke-linecap="round" stroke-linejoin="round"/>
<path d="M295.04 214.88C296.17 217.42 297.76 219.74 298.59 222.42" stroke="#2071B5" stroke-width="4.21" stroke-linecap="round" stroke-linejoin="round"/>
<path d="M257.34 323.1C254.75 324.45 252.46 326.31 249.8 327.54" stroke="#2071B5" stroke-width="4.21" stroke-linecap="round" stroke-linejoin="round"/>
<path d="M348.27 170.08C345.78 171.2 343.66 172.95 341.17 174.07" stroke="#2071B5" stroke-width="4.21" stroke-linecap="round" stroke-linejoin="round"/>
<path d="M241.82 194.47C239.5 193.2 237.3 191.68 234.72 190.92" stroke="#2071B5" stroke-width="4.21" stroke-linecap="round" stroke-linejoin="round"/>
<path d="M207.22 264.55C207.85 267.09 209.7 269.1 210.32 271.65" stroke="#2071B5" stroke-width="4.21" stroke-linecap="round" stroke-linejoin="round"/>
<path d="M137.14 251.69C134.84 251.69 132.75 250.59 130.49 250.36" stroke="#2071B5" stroke-width="4.21" stroke-linecap="round" stroke-linejoin="round"/>
<path d="M280.41 221.97C281.41 224.2 282.8 226.25 283.51 228.62" stroke="#2071B5" stroke-width="4.21" stroke-linecap="round" stroke-linejoin="round"/>
<path d="M240.49 237.94C241.11 240.26 242.53 242.27 243.15 244.59" stroke="#2071B5" stroke-width="4.21" stroke-linecap="round" stroke-linejoin="round"/>
<path d="M159.32 340.84C157.31 342.31 154.96 343.07 152.67 343.94" stroke="#2071B5" stroke-width="4.21" stroke-linecap="round" stroke-linejoin="round"/>
<path d="M181.94 280.08C182.94 282.31 184.33 284.36 185.04 286.73" stroke="#2071B5" stroke-width="4.21" stroke-linecap="round" stroke-linejoin="round"/>
<path d="M280.85 243.71C281.08 245.97 282.32 248.03 282.18 250.36" stroke="#2071B5" stroke-width="4.21" stroke-linecap="round" stroke-linejoin="round"/>
<path d="M276.86 192.26C279.2 193.89 281.32 195.76 283.07 198.03" stroke="#2071B5" stroke-width="4.21" stroke-linecap="round" stroke-linejoin="round"/>
<path d="M117.63 322.21C119.02 324.75 121.47 326.37 123.17 328.64" stroke="#2071B5" stroke-width="4.21" stroke-linecap="round" stroke-linejoin="round"/>
<path d="M256.9 188.26C254.85 187.32 252.96 186.03 250.69 185.6" stroke="#2071B5" stroke-width="4.21" stroke-linecap="round" stroke-linejoin="round"/>
<path d="M152.67 259.67C154.76 260.93 156.57 262.56 158.44 264.11" stroke="#2071B5" stroke-width="4.21" stroke-linecap="round" stroke-linejoin="round"/>
<path d="M107.87 305.8C108.39 307.89 109.71 309.61 110.53 311.57" stroke="#2071B5" stroke-width="4.21" stroke-linecap="round" stroke-linejoin="round"/>
<path d="M156.66 330.64C155.78 332.91 154.12 334.53 152.22 335.96" stroke="#2071B5" stroke-width="4.21" stroke-linecap="round" stroke-linejoin="round"/>
<path d="M284.84 188.26C286.8 189.85 288.57 191.62 290.16 193.58" stroke="#2071B5" stroke-width="4.21" stroke-linecap="round" stroke-linejoin="round"/>
<path d="M260.45 208.22C261.83 210.22 263.94 211.55 265.33 213.54" stroke="#2071B5" stroke-width="4.21" stroke-linecap="round" stroke-linejoin="round"/>
<path d="M375.77 149.23C373.5 150.48 371.42 152.04 369.12 153.22" stroke="#2071B5" stroke-width="4.21" stroke-linecap="round" stroke-linejoin="round"/>
<path d="M265.32 202.9C266.7 204.9 268.81 206.23 270.2 208.22" stroke="#2071B5" stroke-width="4.21" stroke-linecap="round" stroke-linejoin="round"/>
<path d="M371.33 167.86C372.22 169.63 373.11 171.41 373.99 173.18" stroke="#2071B5" stroke-width="4.21" stroke-linecap="round" stroke-linejoin="round"/>
<path d="M293.71 197.58C295.11 199.21 296.23 201.03 297.26 202.9" stroke="#2071B5" stroke-width="4.21" stroke-linecap="round" stroke-linejoin="round"/>
<path d="M259.12 189.6C260.98 190.48 262.7 191.62 264.44 192.7" stroke="#2071B5" stroke-width="4.21" stroke-linecap="round" stroke-linejoin="round"/>
<path d="M181.5 266.33C182.59 268.17 184.13 269.7 185.05 271.65" stroke="#2071B5" stroke-width="4.21" stroke-linecap="round" stroke-linejoin="round"/>
<path d="M273.31 200.24C275.11 201.69 276.74 203.32 278.19 205.12" stroke="#2071B5" stroke-width="4.21" stroke-linecap="round" stroke-linejoin="round"/>
<path d="M281.29 276.31C279.94 277.82 278.11 278.64 276.41 279.64" stroke="#2071B5" stroke-width="4.21" stroke-linecap="round" stroke-linejoin="round"/>
<path d="M176.62 271.65C177.5 273.37 178.96 274.73 179.72 276.53" stroke="#2071B5" stroke-width="4.21" stroke-linecap="round" stroke-linejoin="round"/>
<path d="M167.3 251.25C168.98 252.51 170.54 253.92 172.18 255.24" stroke="#2071B5" stroke-width="4.21" stroke-linecap="round" stroke-linejoin="round"/>
<path d="M162.42 268.1C163.5 269.81 165.33 270.83 166.41 272.54" stroke="#2071B5" stroke-width="4.21" stroke-linecap="round" stroke-linejoin="round"/>
</svg>
