<?xml version="1.0" encoding="UTF-8"?>
<svg id="icons" xmlns="http://www.w3.org/2000/svg" viewBox="0 0 500 500">
  <defs>
    <style>
      .cls-1 {
        fill: none;
        stroke: #000;
        stroke-linecap: round;
        stroke-linejoin: round;
        stroke-width: .93px;
      }
    </style>
  </defs>
  <path class="cls-1" d="M84.9,274.68c-.73,20.28-.45,40.56-.39,60.84.02,7.03-.09,14.08.23,21.1.29,6.32-.26,12.6-.27,18.89-.02,8.65,3.1,15.4,9.87,19.88,6.46,4.27,13.16,5.26,20.21,1.96,12.75-5.98,25.55-11.85,38.47-17.32,14.25-6.04,28.49-12.12,42.8-18.01,9.91-4.08,19.79-8.28,29.66-12.49,15.68-6.68,31.4-13.24,47.03-20.05,14.77-6.44,29.58-12.77,44.38-19.11,10.64-4.56,21.32-9.02,31.98-13.51,9.5-3.99,18.96-8.15,28.4-12.32,12.51-5.52,25.14-10.67,37.55-16.48,12.61-5.9,22.22-15.39,28.37-29.18,3.13-7.03,5.5-14.27,6.35-22.1.8-7.36.59-14.68-1.15-21.82-1.66-6.81-5.74-11.61-11.17-14.96-6.09-3.75-12.39-7-18.86-9.88-3.95-1.76-7.93-1.68-11.63-.1-11.82,5.04-23.72,9.84-35.62,14.62-10.92,4.38-21.8,8.89-32.7,13.33-7.64,3.11-15.26,6.29-22.89,9.42-11.24,4.6-22.55,9-33.8,13.57-10.93,4.44-21.79,9.09-32.74,13.47-7.54,3.02-15.06,6.14-22.63,9.06-.3.12-.43.35-.65.51"/>
  <path class="cls-1" d="M185.07,299.7c6.64-3.15,13.37-5.99,20.18-8.68,4.95-1.95,9.84-4.16,14.73-6.33,13.21-5.85,26.5-11.45,39.77-17.14,11.36-4.87,22.66-9.91,34.04-14.74,10.59-4.5,21.26-8.75,31.85-13.26,11.32-4.82,22.66-9.59,34.05-14.21,11.76-4.77,23.44-9.79,35.13-14.76,6.24-2.65,12.41-5.53,18.71-7.96,3.98-1.53,7.84-1.41,12.15.4,4.52,1.9,6.88,5.15,8.17,9.62,1.35,4.66.48,9.41-1.02,13.95-3.12,9.5-9.37,15.76-16.89,20.9-6.63,4.53-14,7.07-21.13,10.2-10.91,4.79-21.9,9.35-32.9,13.89-7.95,3.28-15.87,6.72-23.8,10.09-8,3.4-16.06,6.71-24.09,10.04-8.32,3.45-16.59,7.09-24.87,10.64-5.01,2.15-10.01,4.35-15.12,6.24-4.15,1.53-8.24,3.34-12.29,5.18-7,3.19-14.12,6.05-21.11,9.25-9.5,4.35-19.14,8.3-28.75,12.33-5.58,2.33-11.09,4.86-16.73,6.99-5.66,2.14-11.3,2.83-16.71-1.37-4.02-3.12-5.53-7.58-6.07-12.57-.74-6.78.22-13.44,1.39-20.13,1.03-5.91,2.8-11.34,5.59-16.42"/>
  <path class="cls-1" d="M200.45,181.2c-1.54-1.4-2.39-3.4-3.5-5.16-4.52-7.17-9.3-14.09-15.85-19.09-7.47-5.7-15.81-8.01-24.8-6.62-6.09.94-11.61,3.8-16.69,7.59-14.79,11.03-26.4,25.29-34.75,42.89-2.98,6.29-5.43,12.86-6.86,19.68-1.9,9.05-2.74,18.29-1.52,27.7,1.39,10.79,4.15,20.82,10.38,29.44,5.97,8.24,13.65,12.57,23.07,13.8,10.61,1.39,19.29-2.81,27.52-9.8,7.72-6.56,14.67-13.88,20.58-22.42,4.2-6.07,8.23-12.24,11.05-19.34,3.16-7.95,5.42-16.06,5.93-24.8.41-6.86-.03-13.61-1.86-20.1-3.45-12.2-10.35-20.65-21.91-23.57-1.38-.35-2.72-.95-4.17-.74"/>
  <path class="cls-1" d="M204.4,157.41c-7.94-9.03-17.49-14.89-28.33-18.44-8.81-2.89-17.62-3.61-26.59-1.19-8.24,2.22-15.58,6.47-22.42,12-12.04,9.73-21.68,21.92-29.13,36.14-7.49,14.29-12.04,29.83-13.93,46.32-.54,4.73-1.01,9.48-1.03,14.23-.05,9.22,1.15,18.25,3.91,26.99,3.57,11.29,9.74,20.12,19.34,25.75,6.4,3.76,13.15,6.09,20.42,6.68,8.25.67,16.29-.29,24.16-3.01,5.3-1.83,10.1-4.8,14.5-8.57"/>
  <path class="cls-1" d="M418.35,202.06c2.18,4.32,2.12,9.04,1.73,13.74-.8,9.58-5.47,16.08-13.15,20.13-9.44,4.98-19.32,8.72-29.04,12.89-13.95,5.98-27.92,11.93-41.9,17.82-12.68,5.35-25.39,10.63-38.01,16.17-12.47,5.48-25.03,10.67-37.58,15.9-11.07,4.61-22.13,9.26-33.14,14.06-10.13,4.41-20.41,8.35-30.58,12.6-6.97,2.91-14.13,5.31-21.27,7.7"/>
  <path class="cls-1" d="M428.01,176.54c-5.95,2.1-11.81,4.53-17.54,7.2-13.64,6.35-27.53,11.95-41.35,17.76-13.16,5.53-26.26,11.25-39.48,16.62-9.58,3.89-19.13,7.91-28.59,12.15-13.68,6.13-27.51,11.85-41.3,17.66-4.07,1.72-8.03,3.72-12.28,5-6.21,1.88-11.91.51-17.35-2.59-6.64-3.78-10.22-10.34-12.34-18.1-1.8-6.58-2.7-13.26-2.17-20.12.35-4.43,1.26-8.66,4.13-12.05.26-.31.72-.8.47-1.44"/>
  <path class="cls-1" d="M215.62,169.92c-.7-6.88-5.26-11.36-9.47-15.94-5.61-6.12-11.62-11.7-18.22-16.45-3.93-2.82-8.21-4.91-12.25-7.46-3.25-2.06-6.32-4.49-9.72-6.27-10.94-5.71-22.32-8.43-34.49-6.93-11.99,1.47-22.52,6.56-32.31,14.24-14.51,11.39-24.32,26.89-31.79,44.46-4.74,11.15-7.19,23.02-8.19,35.31-.78,9.64-.74,19.29-.87,28.95-.44,34.92-.08,69.84-.19,104.76-.02,5.87.27,11.75,1.77,17.41,1.98,7.47,5.83,13.49,12.09,17.11,3.54,2.05,7.06,4.19,10.71,6.01,1.03.51,1.97.99,3.1.93"/>
  <path class="cls-1" d="M124.88,243.76c7.93-2.17,13.94-7.43,18.91-14.46,2.78-3.93,5.16-8.16,6.73-12.8,2.61-7.73,3.87-15.59.32-23.55-1.35-3.02-3.67-3.79-6.44-2-10.21,6.62-16.8,16.52-21.03,28.53-3.2,9.09-3.16,18.09,1.02,27,4.51,9.61,12.67,13.23,21.79,10.77,12.02-3.24,20.85-11.21,27.23-22.82,4.53-8.24,6.33-17.23,4.76-26.72-1.21-7.35-3.78-14.13-9.59-18.65-5.77-4.48-11.87-5.55-18.69-3.03-5.95,2.2-10.96,5.77-15.36,10.62-.54.59-1.08,1.14-1.31,1.97"/>
  <path class="cls-1" d="M191.22,179.49c.6-2.96.3-5.72-1.54-8.09-5.25-6.77-11.95-10.72-19.77-12.24-12.57-2.45-23.64,2.01-33.8,9.82-9.2,7.07-16.73,16.12-22.8,26.5-5.93,10.13-10.01,21.27-11.41,33.33-1.24,10.7-.79,21.35,2.75,31.65,3.86,11.22,10.79,18.91,20.91,22.74,5.56,2.1,11.42,2.06,17.1.5,7.86-2.15,15.25-5.63,21.52-11.51,4.67-4.37,8.74-9.42,12.32-14.94"/>
  <path class="cls-1" d="M174.09,129.69c-2.78,0-5.37-1.2-8.12-1.55-3.59-.47-7.18-1.16-10.77-.84-5.04.45-10.05,1.12-14.96,2.81-5.45,1.87-10.66,4.3-15.55,7.48-7.99,5.2-15.44,11.3-21.73,18.89-11.16,13.48-19.91,28.65-24.86,46.33-2.39,8.55-3.7,17.29-4.23,26.25-.61,10.31-.5,20.62-.32,30.91.22,12.84-.06,25.68.18,38.52.2,10.71.15,21.43.35,32.14.26,13.73.03,27.48.09,41.21.01,2.76.59,5.47,1.98,7.82.34.58.42.95.18,1.5"/>
  <path class="cls-1" d="M164.86,259.96c1.5-.69,2.64-1.91,3.73-3.19,5.45-6.39,10.3-13.27,13.61-21.34,2.94-7.16,4.69-14.66,5.08-22.56.49-9.73-1.32-18.84-5.76-27.22-3.06-5.77-6.88-10.93-12.95-12.7-7.93-2.32-15.65-1.46-22.83,3.36-8.54,5.74-15.63,13.19-21.3,22.33"/>
  <path class="cls-1" d="M133.45,124.29c-6.15.74-11.95,2.76-17.59,5.6-5.98,3.02-11.43,6.95-16.43,11.61-7.98,7.44-14.13,16.63-19.59,26.45-6.27,11.28-10.59,23.49-13.29,36.34-1.38,6.55-2.2,13.3-2.29,20.09-.02,1.74-.72,3.39-.45,5.15"/>
  <path class="cls-1" d="M124.44,195.68c-2.81,4.79-5.85,9.42-7.91,14.72-2.2,5.66-3.83,11.46-4.47,17.66-.37,3.62-.53,7.23-.3,10.8.66,10.13,3.11,19.57,9.83,26.98,3.43,3.79,7.73,5.75,12.29,7.12"/>
  <path class="cls-1" d="M159.81,300.19c-.63,4.01.02,8.02.09,12.02.06,3.26.14,6.55.3,9.82.49,9.97.65,19.96,1.12,29.93.17,3.67.19,7.38-.41,11.04"/>
  <path class="cls-1" d="M134.55,360.3c1.73-8.71-4.22-12.68-10.76-13.01-6.43-.32-10.92,3.36-14.49,8.84-3.86,5.93-5.27,12.75-4.49,19.85.43,3.92,1.88,7.85,5.57,9.86.48.26.9.09,1.33.21"/>
  <path class="cls-1" d="M150.58,305.59c1.94,2.28,2.35,5.17,2.38,8.1.03,2.87.26,5.72.25,8.59-.05,9.16.36,18.32.25,27.48-.02,2.05-.16,4.09-.28,6.13-.25,4.26-2.46,7.4-5.46,8.1"/>
  <path class="cls-1" d="M145.97,306.08c.99,17.98.17,35.98.44,53.97"/>
  <path class="cls-1" d="M124,345.82c-1.87-2.68-4.01-5.14-6.62-6.81-3.94-2.52-8.44-2.28-12.94,1.39-7.26,5.91-10.94,13.91-11.65,23.82-.34,4.68-.09,9.28,1.83,13.47,2.55,5.56,5.74,10.59,11.6,12.27,2.96.85,5.92.77,8.8-.67.57-.28,1.24-.69,1.96-.54"/>
  <path class="cls-1" d="M163.98,258.97c-5.37,4.8-10.97,8.99-17.77,11.12-9.47,2.97-17.42.41-24.41-6.94-.26-.28-.41-.75-.87-.74"/>
  <path class="cls-1" d="M192.1,286.94c-7.53,7.15-12.87,15.98-15.77,26.51-1.62,5.89-2.48,11.96-1.18,18.15.02.1-.26.32-.19.48"/>
  <path class="cls-1" d="M112.58,385.32c2.19.4,4.21,1.43,6.37,1.98,3.02.78,5.82.23,8.58-1.22,1.26-.67,1.79-2.08,2.81-3.01,5.47-5,6.35-11.77,5.52-19.09-.46-4.05-5.6-6.64-9.44-5.67-5.49,1.39-10.59,5.33-11.33,13.78-.27,3.12.04,6.48,1.68,9.3,2.32,3.99,5.7,4.26,9.44,3.21.79-.22,1.61-1.05,2.41-.01"/>
  <path class="cls-1" d="M425.6,203.53c2.62,6.16,2.97,12.5.85,18.88-1.61,4.85-3.94,9.24-7.66,12.52"/>
  <path class="cls-1" d="M227.57,180.71c-.61.18-1-.31-1.19-.75-2.4-5.79-6.63-6.37-11.43-4.13-3.69,1.71-6.6,4.54-7.41,9.06-.69,3.85-1.01,7.87,1.49,11.26"/>
  <path class="cls-1" d="M97.21,336.99c.1,1.15-.31,2.39.6,3.65-6.05,5.96-9.48,13.62-11.14,22.36"/>
  <path class="cls-1" d="M215.3,171.39c-5.41.22-10.49,2.88-14.31,10.13-1.76,3.34-1.85,7.5-1.2,11.46.81,4.91,2.73,9.01,6.8,11.54,2.77,1.71,6.48,1.53,8.79-.5"/>
  <path class="cls-1" d="M227.03,176.05c.19-3.74-1.25-6.96-3.37-9.49-2.68-3.21-6.06-5.51-10.03-6.48-.77-.19-1.47-.33-2.2.02"/>
  <path class="cls-1" d="M57.67,316.14c-1.86.9-2.62,2.91-3.48,4.68-3.42,7.04-5,14.51-3.77,22.55.46,3.01,1.71,5.35,4.16,6.9,1.11.7,2.11,1.64,3.31,2.17"/>
  <path class="cls-1" d="M134.55,358.58c-1.33-.15-1.44-1.66-2.19-2.46-3.26-3.5-6.88-4.25-11.43-1.95-6.82,3.45-10.63,11.26-9.7,19.63"/>
  <path class="cls-1" d="M207.04,179.98c-3.15,4.54-3.18,12.95-.02,16.21.73.75,1.1,2.06,2.43,1.7"/>
  <path class="cls-1" d="M210.11,159.62c-1.78.67-3.65.24-5.52.87-4.81,1.62-8.11,4.96-10.51,9.68"/>
  <path class="cls-1" d="M216.48,171.39c3.75.22,7.07,1.51,9.92,4.37.9.9,1.17,1.77,1.3,2.99.72,6.7-1.77,12.16-5.03,17.46-1.33,2.17-3.27,2.24-5.11,2.61-2.4.47-4.9,1.19-7.24-.44"/>
  <path class="cls-1" d="M147.29,363c-3.12,1.18-6.32,2.13-9.23,3.93"/>
  <path class="cls-1" d="M161.35,235.91c-2.32,3.44-4.95,6.56-7.91,9.32"/>
  <path class="cls-1" d="M53.71,332.57c.14,1.83-1.15,3.95.88,5.4"/>
  <path class="cls-1" d="M111.48,378.45c.4,2.99,2.59,4.84,3.73,7.36"/>
  <path class="cls-1" d="M126.2,370.85c-.78,1.53-2.63.68-3.51,1.96"/>
  <path class="cls-1" d="M125.32,372.07c.22.69-.25,1.16-.44,1.72"/>
</svg>