<svg width="500" height="500" viewBox="0 0 500 500" fill="none" xmlns="http://www.w3.org/2000/svg">
<path d="M167.785 339.008C194.538 311.47 272.949 281.936 340 348.027C319.5 412.5 154.578 397.931 167.785 339.008Z" fill="#FFDA00" fill-opacity="0.7"/>
<path d="M188.549 105.789C186.952 103.231 189.215 96.1972 190.546 93C195.738 100.673 211.679 99.7497 219 98.3287V112.716C215.805 115.274 203.359 113.427 197.535 112.183C195.205 111.118 190.147 108.347 188.549 105.789Z" fill="#FFDA00" fill-opacity="0.7"/>
<path d="M274.5 102.5C272.954 99.5767 275.176 90.0639 276.464 86.4099C281.488 95.1794 297.415 91.624 304.5 90L304 106.533C300.908 109.456 289.136 108.421 283.5 107C281.246 105.782 276.046 105.423 274.5 102.5Z" fill="#FFDA00" fill-opacity="0.7"/>
<path d="M132.5 155.5C126.5 148.7 126 136.333 126.5 131C127.5 133.167 130.8 138.5 136 142.5C142.5 147.5 146.5 149 149 153.5C151.5 158 203 169 209.5 171.5C216 174 285 172 287 172.5C289 173 346 157.5 349.5 155.5C353 153.5 373 131 375 133.5C376.6 135.5 370 149 366.5 155.5C362.5 161 345.5 174.3 309.5 183.5C264.5 195 208 184.5 192.5 183.5C177 182.5 140 164 132.5 155.5Z" fill="#FFDA00" fill-opacity="0.7"/>
<path d="M173.5 177.5L164.5 174.5C163 179.5 173.5 200 200 209.5C226.5 219 261 221.5 299.5 211C330.3 202.6 340.333 181.833 341.5 172.5L334.5 174.5C323.7 204.9 275.333 211.5 252.5 211C190.1 209 173.833 187.833 173.5 177.5Z" fill="#FFDA00" fill-opacity="0.7"/>
<path d="M101.62 359C100.02 362.26 99.7599 365.69 100.17 369.24C100.81 374.67 104.35 377.92 108.57 380.71C117.25 386.46 125.76 392.47 134.35 398.36C144.24 405.13 154.14 411.88 164.07 418.6C175.31 426.21 186.58 433.79 197.82 441.4C201.85 444.13 206.08 446.05 210.78 446.78C213.34 447.18 216 447.22 218.54 447.73C225.76 449.17 232.23 446.27 238.8 444.34C250.32 440.96 261.76 437.3 273.2 433.68C281.49 431.06 289.72 428.2 298.03 425.64C312.7 421.12 327.3 416.37 342.03 412C354.65 408.25 367.22 404.29 379.72 400.15C384.45 398.58 389.19 397.02 393.87 395.28C397.89 393.79 400.32 391.22 400.39 386.85C400.44 383.67 400.8 380.41 399.19 377.43" stroke="#2071B5" stroke-width="4.21" stroke-linecap="round" stroke-linejoin="round"/>
<path d="M100.172 369.24C99.7624 365.69 100.022 362.26 101.622 359L201.002 431C205.269 433.8 219.742 437.32 243.502 429L398.5 377.5C399.131 378.067 400.392 380.73 400.392 386.85C400.322 391.22 397.892 393.79 393.872 395.28C389.485 396.911 385.044 398.384 380.609 399.856L379.722 400.15C367.222 404.29 354.652 408.25 342.032 412C327.302 416.37 312.702 421.12 298.032 425.64C289.722 428.2 281.492 431.06 273.202 433.68C261.762 437.3 250.322 440.96 238.802 444.34C232.232 446.27 225.762 449.17 218.542 447.73C216.002 447.22 213.342 447.18 210.782 446.78C206.082 446.05 201.852 444.13 197.822 441.4C186.582 433.79 175.312 426.21 164.072 418.6C154.142 411.88 144.242 405.13 134.352 398.36C125.762 392.47 117.252 386.46 108.572 380.71C104.352 377.92 100.812 374.67 100.172 369.24Z" fill="#FFDA00" fill-opacity="0.7" stroke="#2071B5" stroke-width="4.21" stroke-linecap="round" stroke-linejoin="round"/>
<path d="M337.34 185.74C338.12 186.16 337.95 186.91 337.95 187.58C337.95 199.19 337.95 210.79 337.95 222.4C337.95 228.82 337.89 235.23 337.97 241.65C338.04 247.93 337.81 254.21 337.71 260.49C337.47 276.33 337.43 292.17 337.6 308C337.74 320.56 338.09 333.12 337.92 345.68C337.82 352.93 335.27 359.39 330.57 364.92C322.98 373.87 313.01 379.03 302.12 382.76C291.21 386.49 279.99 388.6 268.53 389.48C261.86 389.99 255.16 390.31 248.46 390.1C242.57 389.92 236.71 389.32 230.84 388.73C223.92 388.03 217.12 386.71 210.37 385.17C202.5 383.37 194.78 380.85 187.69 377.1C179.16 372.59 171.43 366.95 167.91 357.17C166.05 352.01 165.93 346.82 166.83 341.6C167.18 339.57 168.94 337.93 170.25 336.28C177.98 326.49 188.36 320.9 200.11 317.37C205.2 315.84 210.3 314.38 215.5 313.41C219.21 312.72 222.99 312.18 226.74 311.61C235.52 310.27 244.33 309.86 253.17 310.08C264.28 310.35 275.33 311.21 285.94 314.94C286.18 315.03 286.48 314.95 286.76 314.95" stroke="#2071B5" stroke-width="4.21" stroke-linecap="round" stroke-linejoin="round"/>
<path d="M362.33 135.56C361.19 136 360.93 137.17 360.28 138.02C356.21 143.34 350.75 146.88 344.91 149.89C333.97 155.53 322.49 159.89 310.49 162.5C301.94 164.36 293.26 165.72 284.51 166.55C277.28 167.23 270.04 167.73 262.79 168.07C255.91 168.39 249 168.16 242.11 168.13C234.23 168.1 226.39 167.47 218.56 166.73C208.69 165.79 198.9 164.24 189.3 161.9C179.72 159.56 170.23 156.77 161.21 152.6C156.18 150.28 151.37 147.6 146.91 144.35C144.14 142.33 141.68 139.91 139.29 137.44C138.94 137.08 138.78 136.74 138.92 136.4C140.2 133.49 140.93 130.32 143 127.79C145.55 124.67 148.71 122.29 151.99 119.98C162.2 112.78 173.9 109.04 185.61 105.31C186.52 105.02 187.63 104.89 188.67 105.05" stroke="#2071B5" stroke-width="4.21" stroke-linecap="round" stroke-linejoin="round"/>
<path d="M134.39 157.47C133.79 158.06 133.99 158.82 133.99 159.52C133.99 165.05 134.06 170.58 133.97 176.11C133.53 205.46 134.04 234.82 133.73 264.17C133.55 281.1 133.8 298.03 133.51 314.96C133.43 319.87 133.65 324.8 133.18 329.71C132.91 332.58 133.66 335.39 133.48 338.32C133.12 343.89 133.63 349.52 133.3 355.1C133.01 360.03 133.82 364.67 135.44 369.23C137.83 375.97 141.76 381.61 147.06 386.48C154.98 393.76 164.35 398.43 174.15 402.38C184.5 406.55 195.22 409.64 206.11 411.94C213.72 413.55 221.45 414.64 229.23 415.36C237.63 416.14 246.02 416.23 254.42 416.09C261.47 415.97 268.5 415.34 275.51 414.64C278.12 414.38 280.73 413.48 283.3 413.36C291.02 413 298.21 410.39 305.6 408.69C316.87 406.1 327.91 402.62 338.99 399.31C349.41 396.19 359.79 392.89 370.11 389.47C376.83 387.25 383.68 385.38 390.19 382.54C392.76 381.42 395.14 380.01 397.39 378.28C401.03 375.47 399.94 371.7 397.96 369.24C395.86 366.63 392.83 365.26 389.98 363.71C384.54 360.77 379.05 357.91 374 354.3C372.75 353.41 371.68 352.4 370.73 351.21C370.38 350.77 369.97 350.33 369.31 350.38" stroke="#2071B5" stroke-width="4.21" stroke-linecap="round" stroke-linejoin="round"/>
<path d="M166.14 182.65C166.96 183.09 167.21 183.94 167.57 184.7C168.68 187.04 170.13 189.13 171.87 191.05C176.74 196.4 182.73 200.28 188.88 203.93C197.02 208.77 205.95 211.58 215.09 213.76C223.97 215.88 233.03 216.98 242.12 217.39C255.22 217.97 268.28 217.17 281.24 214.85C290.18 213.25 298.82 210.78 307.24 207.43C317.57 203.32 326.58 197.25 334.03 188.97C335.22 187.65 336.39 186.26 337.37 184.72C339.45 181.45 340.46 177.9 340.62 174.06L334.5 176" stroke="#2071B5" stroke-width="4.21" stroke-linecap="round" stroke-linejoin="round"/>
<path d="M373.39 131.26C371.41 134.66 369.56 138.12 366.65 140.91C361.98 145.38 356.93 149.33 351.47 152.76C344.12 157.38 335.83 159.76 327.74 162.65C321.17 165 314.42 166.6 307.64 168.08C300.42 169.65 293.1 170.71 285.74 171.41C273 172.62 260.24 173.21 247.44 173.04C238.97 172.92 230.48 172.72 222.05 171.95C215 171.3 207.95 170.59 200.93 169.48C190.87 167.89 181.04 165.53 171.48 162.15C165.09 159.89 158.82 157.26 152.81 154.04C148.15 151.55 143.68 148.77 139.32 145.81C138.86 145.5 138.55 144.94 137.88 145" stroke="#2071B5" stroke-width="4.21" stroke-linecap="round" stroke-linejoin="round"/>
<path d="M166.13 175.7C165.96 176.44 165.76 177.18 165.71 177.95C165.24 185.87 165.67 193.79 165.77 201.71C165.81 204.71 165.94 207.72 165.92 210.72C165.78 226.76 166.01 242.81 166.18 258.85C166.46 285.13 166.21 311.42 166.34 337.7C166.34 338.7 166.17 339.73 166.95 340.57" stroke="#2071B5" stroke-width="4.21" stroke-linecap="round" stroke-linejoin="round"/>
<path d="M138.28 160.96C137.97 161.55 138.08 162.18 138.08 162.8C138.08 170.17 137.94 177.55 138.1 184.92C138.99 227.11 138.25 269.3 138.46 311.49C138.48 314.97 138.08 318.45 138.45 321.94" stroke="#2071B5" stroke-width="4.21" stroke-linecap="round" stroke-linejoin="round"/>
<path d="M366.43 156.45C367.49 159.31 367.13 162.34 367.18 165.26C367.43 178.57 367.65 191.89 367.96 205.19C368.54 230.32 367.95 255.44 368.32 280.56C368.47 290.87 368.3 301.18 368.51 311.48C368.66 319.06 368.79 326.64 368.65 334.21C368.56 339.2 368.25 344.19 368.73 349.16C369.15 353.5 369.09 357.84 368.22 362.05C366.61 369.81 363.02 376.68 357.63 382.54C351.37 389.35 344.07 394.71 335.52 398.31C334.7 398.65 333.99 399.26 333.06 399.34" stroke="#2071B5" stroke-width="4.21" stroke-linecap="round" stroke-linejoin="round"/>
<path d="M132.75 339.95C128.77 343.5 124.01 345.2 118.83 346.14C114.87 346.86 111.02 348.09 107.36 349.79C104.81 350.97 103.19 352.99 102.01 355.51C100.82 358.05 102.53 360.84 104.53 362.86C107.64 366 111.52 368.18 115.13 370.69C123.7 376.64 132.5 382.25 141.11 388.15C149.94 394.2 158.39 400.79 167.16 406.93C178.09 414.56 189.22 421.91 200.35 429.23C204.23 431.78 208.72 432.84 213.23 433.78C219.28 435.03 225.13 433.76 230.83 432.07C240.49 429.2 250.15 426.27 259.72 423.1C265.52 421.18 271.47 419.68 277.12 417.34C279.35 416.41 281.68 415.85 283.92 414.98C284.68 414.69 285.23 414.42 285.54 413.7" stroke="#2071B5" stroke-width="4.21" stroke-linecap="round" stroke-linejoin="round"/>
<path d="M165.94 175.29C173.54 177.59 180.89 180.08 188.45 181.9C194.22 183.29 200.02 184.5 205.88 185.28C215.06 186.5 224.22 187.83 233.52 188.05C240.14 188.2 246.77 188.62 253.38 188.36C262.34 188.01 271.3 187.46 280.21 186.38C285.9 185.69 291.57 184.88 297.2 183.85C303.75 182.65 310.23 181.15 316.69 179.47C323.31 177.75 329.85 175.85 336.34 173.69C343.36 171.35 350.05 168.37 356.19 164.23C359.22 162.19 361.89 159.71 364.6 157.29C368.93 153.43 371.94 148.72 373.34 143.13C374.33 139.19 375.48 135.17 373.87 131.04C373.62 130.4 373.96 129.43 374.03 128.61C374.8 120.16 371.84 113.01 366.21 106.92C359.08 99.2001 350.13 94.2701 340.44 90.4901C335.5 88.5701 330.58 86.6701 325.5 85.1401C320.81 83.7301 316.16 82.2401 311.35 81.3101" stroke="#2071B5" stroke-width="4.21" stroke-linecap="round" stroke-linejoin="round"/>
<path d="M334.48 176.11C333.55 180.25 331.11 183.55 328.3 186.52C323.8 191.29 318.82 195.53 312.97 198.64C304.62 203.08 295.78 206.04 286.56 208.12C281.6 209.24 276.61 210.24 271.58 210.82C267.79 211.26 263.96 211.73 260.12 211.72C252.61 211.69 245.09 212.05 237.59 211.31C231.46 210.71 225.38 209.89 219.35 208.53C209.35 206.27 199.74 203 190.72 198.18C184.65 194.94 178.71 191.44 174.91 185.33C173.89 183.7 173.27 181.91 172.47 180.2" stroke="#2071B5" stroke-width="4.21" stroke-linecap="round" stroke-linejoin="round"/>
<path d="M189.68 116.18C189.79 116.44 187.06 114.34 185.98 115.67C183.2 119.12 181.09 122.07 180.65 126.34C180.09 131.77 180.59 136.88 184.16 141.29C186.68 144.4 189.93 146.53 193.58 148.04C204.34 152.51 215.08 152.05 225.49 147.15C230.9 144.6 235.23 140.75 237.07 134.55C238.15 130.91 237.46 127.55 236.76 124.09C236.73 123.92 236.5 123.62 236.17 123.68" stroke="#2071B5" stroke-width="4.21" stroke-linecap="round" stroke-linejoin="round"/>
<path d="M194.87 82.7201C193.07 82.0201 189.15 82.5001 187.45 82.8001C180.55 83.9901 173.78 85.7401 167.17 88.0601C154.63 92.4701 143.1 98.5201 134.41 108.95C129.93 114.33 127.31 120.48 126.99 127.57C126.86 130.37 126.1 133.08 126.33 135.97C126.91 143.14 129.07 149.69 133.41 155.39C137.02 160.13 141.9 163.4 147.07 166.31C153.14 169.73 159.51 172.45 165.93 175.09" stroke="#2071B5" stroke-width="4.21" stroke-linecap="round" stroke-linejoin="round"/>
<path d="M192.96 86.6399C188.94 86.8299 183.71 87.8699 179.84 88.8099C174.02 90.2299 168.33 92.0199 162.87 94.4299C154.29 98.2299 146.65 103.35 141.15 111.19C138.57 114.87 136.33 118.78 135.67 123.28C135.07 127.38 135.53 131.45 137.68 135.14C137.93 135.57 138.36 135.88 138.9 135.97" stroke="#2071B5" stroke-width="4.21" stroke-linecap="round" stroke-linejoin="round"/>
<path d="M310.93 85.5901C313.39 86.5701 315.98 87.0901 318.52 87.8201C329.09 90.8701 339.47 94.3501 348.82 100.35C354.56 104.03 359.35 108.63 362.34 114.88C364.84 120.09 365.28 125.49 363.76 131.06C363.59 131.68 363.1 132.16 362.75 132.7C362.3 133.39 362.09 134.27 362.38 134.93" stroke="#2071B5" stroke-width="4.21" stroke-linecap="round" stroke-linejoin="round"/>
<path d="M231.67 116.31C231.69 117.02 232.22 117.47 232.71 117.71C234.26 118.46 234.7 120.1 235.71 121.27C236.19 121.83 236.1 122.83 235.78 123.69C233.13 130.59 227.54 133.8 220.81 135.32C214.68 136.69 208.44 137.04 202.19 136.17C197.39 135.5 192.76 134.17 188.48 131.86C186.4 130.73 184.76 129.03 183.55 126.97" stroke="#2071B5" stroke-width="4.21" stroke-linecap="round" stroke-linejoin="round"/>
<path d="M282.42 74.26C280.5 74.47 270.8 76.36 268.94 76.12C265.53 75.68 262.13 75.21 258.7 74.89C254.33 74.47 249.96 74.19 245.59 74.37C237.27 74.71 228.99 75.61 220.81 77.19C220.37 77.28 220 77.49 219.5 77.63C220.3 79.33 218.96 81.03 219.58 82.74" stroke="#2071B5" stroke-width="4.21" stroke-linecap="round" stroke-linejoin="round"/>
<path d="M303.35 320.9C306.22 322.33 309.14 323.67 311.94 325.22C318.62 328.9 324.89 333.06 329.81 339.1" stroke="#2071B5" stroke-width="4.21" stroke-linecap="round" stroke-linejoin="round"/>
<path d="M318.09 129.21C318.22 130.05 318 130.82 317.47 131.46C312.52 137.38 306.6 141.5 298.64 142.4C295.54 142.75 292.44 142.96 289.42 142.65C282.97 141.99 277.04 139.86 272.63 134.74C271.41 133.32 269.48 132.32 269.54 130.04" stroke="#2071B5" stroke-width="4.21" stroke-linecap="round" stroke-linejoin="round"/>
<path d="M362.53 232.23C362.53 247.93 362.53 263.63 362.53 279.33C362.53 280.36 362.63 281.39 362.33 282.4" stroke="#2071B5" stroke-width="4.21" stroke-linecap="round" stroke-linejoin="round"/>
<path d="M274.71 80.8101C269.9 79.8901 268.7 80.1501 263.82 79.7401C258.16 79.2601 252.49 79.2801 246.82 79.3901C241.73 79.4901 236.69 79.9601 231.65 80.9001C227.66 81.6501 223.63 82.3601 219.58 82.8201" stroke="#2071B5" stroke-width="4.21" stroke-linecap="round" stroke-linejoin="round"/>
<path d="M319.53 116.11C321.68 120.08 321.48 125.52 318.41 128.3C316.72 129.83 314.5 130.99 312.38 132.12C307.17 134.89 301.6 135.91 295.78 136.23C289.52 136.57 283.59 135.36 277.76 133.3C275.45 132.49 273.4 130.78 271.16 130.2C268.2 129.44 267.12 127.16 265.5 125.3C263.03 122.47 263.5 118.95 264.12 115.72C264.8 112.16 266.51 108.82 269.42 106.56C271.27 105.13 272.41 103.65 272.42 101.36C272.42 100.46 273.28 100.57 273.66 100.13" stroke="#2071B5" stroke-width="4.21" stroke-linecap="round" stroke-linejoin="round"/>
<path d="M314.41 106.28C315.32 106.04 316.14 106.16 317.09 106.44C324.38 108.54 331.62 110.81 338.57 113.87C343.96 116.24 349.14 119.02 353.94 122.46C357.66 125.12 360.29 128.67 362.34 132.7" stroke="#2071B5" stroke-width="4.21" stroke-linecap="round" stroke-linejoin="round"/>
<path d="M187.64 249.43V293.26" stroke="#2071B5" stroke-width="4.21" stroke-linecap="round" stroke-linejoin="round"/>
<path d="M132.14 356.54C130.48 354.57 128.02 354.19 125.78 353.97C122.38 353.64 118.87 353.55 115.56 354.74C114.13 355.26 112.41 355.8 112.29 357.77C112.22 359.01 113.87 360.39 115.75 360.84C119.91 361.84 124.11 361.97 128.23 360.79C129.71 360.37 131.25 359.67 132.14 358.18" fill="#FFDA00" fill-opacity="0.7"/>
<path d="M132.14 356.54C130.48 354.57 128.02 354.19 125.78 353.97C122.38 353.64 118.87 353.55 115.56 354.74C114.13 355.26 112.41 355.8 112.29 357.77C112.22 359.01 113.87 360.39 115.75 360.84C119.91 361.84 124.11 361.97 128.23 360.79C129.71 360.37 131.25 359.67 132.14 358.18" stroke="#2071B5" stroke-width="4.21" stroke-linecap="round" stroke-linejoin="round"/>
<path d="M272.01 101.57C269.53 102.26 267.07 101.52 264.64 101.3C257.06 100.63 249.49 100.67 241.9 100.92C239.37 101 236.85 101.26 234.32 101.36C233.02 101.41 224.62 101.57 224 102.87" stroke="#2071B5" stroke-width="4.21" stroke-linecap="round" stroke-linejoin="round"/>
<path d="M285.12 257.21C282.56 257.49 280.06 258.14 277.54 258.65C275.17 259.14 272.76 259.34 270.37 259.67C265.27 260.36 260.13 260.32 255.02 260.61C251.94 260.78 226.06 262.04 222.45 260.56" stroke="#2071B5" stroke-width="4.21" stroke-linecap="round" stroke-linejoin="round"/>
<path d="M188.4 122.52C190.42 124.49 192.56 126.17 195.22 127.17C202.57 129.94 210.04 130.15 217.77 128.94C220.97 128.44 223.78 126.86 226.97 126.56" stroke="#2071B5" stroke-width="4.21" stroke-linecap="round" stroke-linejoin="round"/>
<path d="M379.33 370.67C376.16 370.52 373.24 371.05 371.1 373.63C371.46 376.71 374.06 377.17 376.07 377.53C379.98 378.24 383.93 377.98 387.75 376.46C388.8 376.04 389.52 375.52 389.74 374.55C390.02 373.35 388.94 372.87 388.14 372.31C386.55 371.18 384.69 370.86 382.81 370.69C381.73 370.59 380.63 370.67 379.53 370.67" fill="#FFDA00" fill-opacity="0.7"/>
<path d="M379.33 370.67C376.16 370.52 373.24 371.05 371.1 373.63C371.46 376.71 374.06 377.17 376.07 377.53C379.98 378.24 383.93 377.98 387.75 376.46C388.8 376.04 389.52 375.52 389.74 374.55C390.02 373.35 388.94 372.87 388.14 372.31C386.55 371.18 384.69 370.86 382.81 370.69C381.73 370.59 380.63 370.67 379.53 370.67" stroke="#2071B5" stroke-width="4.21" stroke-linecap="round" stroke-linejoin="round"/>
<path d="M302.12 252.71C302.55 253.36 302.31 254.08 302.31 254.76C302.33 266.09 302.32 277.42 302.32 288.76" stroke="#2071B5" stroke-width="4.21" stroke-linecap="round" stroke-linejoin="round"/>
<path d="M318.91 107.5C318.88 107.96 319.05 108.32 319.29 108.75C321 111.88 320.38 113.65 318.57 116.35C316.54 119.39 313.94 121.55 310.72 123.06C306.11 125.22 301.2 126.34 296.18 126.7C290.36 127.11 284.56 126.71 278.98 124.71C274.77 123.2 270.66 121.58 268.13 117.53C267.98 117.29 267.63 117.38 267.51 117.12" stroke="#2071B5" stroke-width="4.21" stroke-linecap="round" stroke-linejoin="round"/>
<path d="M201.15 253.73C201.15 271.68 201.15 289.64 201.14 307.59C201.14 308.27 201.38 308.99 200.95 309.64" stroke="#2071B5" stroke-width="4.21" stroke-linecap="round" stroke-linejoin="round"/>
<path d="M176.99 255.98C176.99 266.02 176.99 276.05 176.99 286.09C176.99 287.17 176.68 288.36 177.8 289.16" stroke="#2071B5" stroke-width="4.21" stroke-linecap="round" stroke-linejoin="round"/>
<path d="M181.7 135.36C182.19 134.97 182.53 135.06 182.94 135.56C186.54 139.88 191.48 142 196.66 143.51C201.04 144.79 205.56 145.52 210.16 145.19C217.38 144.67 224.41 143.51 230.44 139.05C233.27 136.96 235.27 134.43 234.95 130.65C234.93 130.38 234.81 130.04 235.15 129.83" stroke="#2071B5" stroke-width="4.21" stroke-linecap="round" stroke-linejoin="round"/>
<path d="M200.33 79.45C195.49 81.43 194.24 85.05 191.75 89.48C191.65 89.65 191.49 89.95 191.93 90.11C193.18 90.55 193.09 91.77 193.37 92.76C193.88 94.6 194.8 95.98 196.63 96.9C199.83 98.51 203.22 98.88 206.69 99.11C210.49 99.36 214.12 98.61 217.77 97.55C219.75 96.98 221.82 96.89 223.5 95.44" stroke="#2071B5" stroke-width="4.21" stroke-linecap="round" stroke-linejoin="round"/>
<path d="M187.64 216.05V243.29" stroke="#2071B5" stroke-width="4.21" stroke-linecap="round" stroke-linejoin="round"/>
<path d="M267.92 294.89C259.33 294.41 250.73 293.79 242.12 294.07" stroke="#2071B5" stroke-width="4.21" stroke-linecap="round" stroke-linejoin="round"/>
<path d="M328.74 251.27C328.41 251.93 328.54 252.63 328.54 253.32C328.54 260.56 328.51 267.79 328.54 275.03C328.55 277.83 329.16 280.61 328.94 283.43" stroke="#2071B5" stroke-width="4.21" stroke-linecap="round" stroke-linejoin="round"/>
<path d="M228.46 113.32C225.98 115.25 220.6 118.37 217.73 119.36C213.81 120.72 209.7 120.24 205.66 120.46C202.98 120.6 200.37 120.06 197.66 120.25C195.2 120.43 192.87 118.93 190.87 117.17C189.72 116.16 188.32 115.46 188.67 113.65C189.04 111.74 188.85 109.74 189.68 107.91" stroke="#2071B5" stroke-width="4.21" stroke-linecap="round" stroke-linejoin="round"/>
<path d="M219.79 77.3999C218.76 75.9599 219.06 74.2799 219 72.6899C218.9 70.2999 218.96 67.9099 218.98 65.5199C218.98 64.3499 218.36 63.5399 217.54 62.8599C213.89 59.8799 204.71 60.3299 201.34 63.6499C200.63 64.3499 200.53 65.0499 200.53 65.9299C200.55 71.7299 200.55 77.5399 200.53 83.3399C200.53 85.5299 200.73 87.7099 200.35 89.8999C200.17 90.9199 200.87 91.4599 201.77 91.7399C207.59 93.5199 213.32 93.9699 218.78 90.5299C218.98 90.4099 219.32 90.5099 219.59 90.5099" fill="#FFDA00" fill-opacity="0.7"/>
<path d="M219.79 77.3999C218.76 75.9599 219.06 74.2799 219 72.6899C218.9 70.2999 218.96 67.9099 218.98 65.5199C218.98 64.3499 218.36 63.5399 217.54 62.8599C213.89 59.8799 204.71 60.3299 201.34 63.6499C200.63 64.3499 200.53 65.0499 200.53 65.9299C200.55 71.7299 200.55 77.5399 200.53 83.3399C200.53 85.5299 200.73 87.7099 200.35 89.8999C200.17 90.9199 200.87 91.4599 201.77 91.7399C207.59 93.5199 213.32 93.9699 218.78 90.5299C218.98 90.4099 219.32 90.5099 219.59 90.5099" stroke="#2071B5" stroke-width="4.21" stroke-linecap="round" stroke-linejoin="round"/>
<path d="M271.19 105.87C271.74 106.31 271.74 106.99 271.57 107.5C271.04 109.13 270.06 110.58 271.15 112.45C272.32 114.46 274.09 115.65 276.12 116.26C279.97 117.42 283.75 118.8 287.77 119.43C291.9 120.08 296.07 120.19 300.04 119.26C304.33 118.25 308.87 117.26 312.12 113.82C313.34 112.52 315.01 111.29 313.69 108.88C313.22 108.02 314.4 106.63 314.05 105.24C313.36 102.51 312.43 99.8499 311.92 97.0699C311.28 93.5199 311.68 89.9699 311.54 86.4199" stroke="#2071B5" stroke-width="4.21" stroke-linecap="round" stroke-linejoin="round"/>
<path d="M302.32 355.1C302.32 361.99 302.33 368.89 302.3 375.78C302.3 376.38 302.78 377.17 301.91 377.62" stroke="#2071B5" stroke-width="4.21" stroke-linecap="round" stroke-linejoin="round"/>
<path d="M328.74 286.29C329.2 290.11 328.9 293.94 328.93 297.76C328.99 305.81 328.95 313.87 328.95 321.93C328.95 323.16 329.01 324.4 328.75 325.62" stroke="#2071B5" stroke-width="4.21" stroke-linecap="round" stroke-linejoin="round"/>
<path d="M302.32 289.98C302.32 296.33 302.35 302.68 302.29 309.03C302.29 310.07 302.64 310.59 303.55 310.87" stroke="#2071B5" stroke-width="4.21" stroke-linecap="round" stroke-linejoin="round"/>
<path d="M188.05 345.68C186.77 346.4 187.9 347.32 187.84 348.14C187.37 355.1 187.77 362.07 187.64 369.03" stroke="#2071B5" stroke-width="4.21" stroke-linecap="round" stroke-linejoin="round"/>
<path d="M301.71 74.33C301.69 71.67 301.69 68.99 301.68 66.34C301.68 63.61 300.89 60.91 301.44 58.14C301.76 56.54 301.05 55.24 299.27 54.42C293.57 51.79 288.15 53.17 284.11 57.14C282.94 58.29 283.03 61.38 284.08 62.67" stroke="#2071B5" stroke-width="4.21" stroke-linecap="round" stroke-linejoin="round"/>
<path d="M302.468 70.5303C301.438 69.0903 301.738 67.4103 301.678 65.8203C301.578 63.4303 301.638 61.0403 301.658 58.6503C301.658 57.4803 301.038 56.6703 300.218 55.9903C296.568 53.0103 287.388 53.4603 284.018 56.7803C283.308 57.4803 283.208 58.1803 283.208 59.0603C283.228 64.8603 283.228 70.6703 283.208 76.4703C283.208 78.6603 283.408 80.8403 283.028 83.0303C282.848 84.0503 283.548 84.5903 284.448 84.8703C290.268 86.6503 295.998 87.1003 301.458 83.6603C301.658 83.5403 301.998 83.6403 302.268 83.6403" fill="#FFDA00" fill-opacity="0.7"/>
<path d="M302.468 70.5303C301.438 69.0903 301.738 67.4103 301.678 65.8203C301.578 63.4303 301.638 61.0403 301.658 58.6503C301.658 57.4803 301.038 56.6703 300.218 55.9903C296.568 53.0103 287.388 53.4603 284.018 56.7803C283.308 57.4803 283.208 58.1803 283.208 59.0603C283.228 64.8603 283.228 70.6703 283.208 76.4703C283.208 78.6603 283.408 80.8403 283.028 83.0303C282.848 84.0503 283.548 84.5903 284.448 84.8703C290.268 86.6503 295.998 87.1003 301.458 83.6603C301.658 83.5403 301.998 83.6403 302.268 83.6403" stroke="#2071B5" stroke-width="4.21" stroke-linecap="round" stroke-linejoin="round"/>
<path d="M219.59 84.5701C215.76 87.1501 211.56 87.3401 207.09 86.9301C204.93 86.7301 203.06 85.7301 200.96 85.5901" stroke="#2071B5" stroke-width="4.21" stroke-linecap="round" stroke-linejoin="round"/>
<path d="M301.3 74.9399C302.18 77.2199 301.51 79.5899 301.66 81.9099C301.66 82.0299 301.62 82.5899 301.1 82.7499C298.41 83.5399 295.85 84.7599 292.9 84.4099C291.5 84.2499 290.1 84.9499 288.6 84.5999C286.78 84.1899 284.95 83.7299 283.08 83.5399" stroke="#2071B5" stroke-width="4.21" stroke-linecap="round" stroke-linejoin="round"/>
<path d="M188.46 294.08C187.37 294.28 187.46 295.34 187.49 295.92C187.88 304.18 187.52 312.44 187.64 320.7" stroke="#2071B5" stroke-width="4.21" stroke-linecap="round" stroke-linejoin="round"/>
<path d="M286.14 91.9399C286.08 98.7699 286.35 105.6 285.73 112.42" stroke="#2071B5" stroke-width="4.21" stroke-linecap="round" stroke-linejoin="round"/>
<path d="M302.32 234.68V251.06" stroke="#2071B5" stroke-width="4.21" stroke-linecap="round" stroke-linejoin="round"/>
<path d="M201.97 235.09C201.55 235.04 201.22 235.19 201.15 235.26C201.15 241.09 201.15 246.69 201.15 252.29" stroke="#2071B5" stroke-width="4.21" stroke-linecap="round" stroke-linejoin="round"/>
<path d="M362.53 165.46V181.84" stroke="#2071B5" stroke-width="4.21" stroke-linecap="round" stroke-linejoin="round"/>
<path d="M305.81 90.51C306.61 93.97 306.25 97.48 306.15 100.95C306.09 103.01 304.43 104.67 303.42 106.4C302.56 107.89 300.3 108.02 298.45 108.38C294.35 109.16 290.25 108.59 286.15 108.74" stroke="#2071B5" stroke-width="4.21" stroke-linecap="round" stroke-linejoin="round"/>
<path d="M283.07 76.5801C283.07 75.9701 283.07 75.3501 283.12 74.5801C282.51 74.2001 281.83 74.1801 281.24 74.5501C278.29 76.4001 275.5 78.4001 274.26 81.9101C273.5 84.0401 274.95 87.4701 277.35 88.8701C279.2 89.9501 281.2 90.7201 283.29 91.1001C286.32 91.6501 289.38 92.0901 292.5 91.9801C295.6 91.8701 298.53 90.9701 301.51 90.3201C304.89 89.5901 307.52 87.4401 310.31 85.6101C311.19 85.0301 311.18 84.0401 311.11 83.1601C310.82 79.0101 308.63 76.2801 304.35 75.0401C303.48 74.7901 302.59 73.8101 301.5 74.5601" stroke="#2071B5" stroke-width="4.21" stroke-linecap="round" stroke-linejoin="round"/>
<path d="M137.73 144.41C133.58 141.76 130.93 137.78 128.66 133.51C128.06 132.38 128.14 130.92 127.02 130.03" stroke="#2071B5" stroke-width="4.21" stroke-linecap="round" stroke-linejoin="round"/>
<path d="M275.09 89.28C275.81 91.22 275.06 93.17 274.77 95C274.34 97.73 273.9 100.32 274.86 103.01C275.48 104.77 277.05 105.46 278.4 106.22C280.65 107.47 283.14 108.25 285.74 108.53" stroke="#2071B5" stroke-width="4.21" stroke-linecap="round" stroke-linejoin="round"/>
<path d="M223.49 108.67C224.48 109.23 226.5 110.49 227.35 111.21C230.44 113.81 230.2 120.7 225.32 122.26C224.51 122.52 223.99 123.26 223.27 123.69" stroke="#2071B5" stroke-width="4.21" stroke-linecap="round" stroke-linejoin="round"/>
<path d="M302.32 188.81V201.92" stroke="#2071B5" stroke-width="4.21" stroke-linecap="round" stroke-linejoin="round"/>
<path d="M220.4 97.47C220.4 101.09 220.4 104.71 220.4 108.32C220.4 109.12 220.23 109.98 221.01 110.57" stroke="#2071B5" stroke-width="4.21" stroke-linecap="round" stroke-linejoin="round"/>
<path d="M301.5 338.72C302.71 338.51 302.32 339.37 302.32 339.95C302.32 344.05 302.32 348.14 302.32 352.24" stroke="#2071B5" stroke-width="4.21" stroke-linecap="round" stroke-linejoin="round"/>
<path d="M200.95 82.9299C205.03 84.3199 212.54 84.4399 214.81 83.6599" stroke="#2071B5" stroke-width="4.21" stroke-linecap="round" stroke-linejoin="round"/>
<path d="M200.95 100.54C200.84 104.09 201.04 107.64 200.61 111.2C200.26 114.03 200.69 116.93 200.75 119.79" stroke="#2071B5" stroke-width="4.21" stroke-linecap="round" stroke-linejoin="round"/>
<path d="M201.15 188.81V201.1" stroke="#2071B5" stroke-width="4.21" stroke-linecap="round" stroke-linejoin="round"/>
<path d="M201.15 223.22C201.28 227.18 200.88 231.15 201.35 235.1" stroke="#2071B5" stroke-width="4.21" stroke-linecap="round" stroke-linejoin="round"/>
<path d="M174.94 298.99C176.65 298.46 177.12 299.16 177.02 300.84C176.89 303.09 176.99 305.34 176.98 307.6C176.98 308.71 176.9 309.83 177.39 310.88" stroke="#2071B5" stroke-width="4.21" stroke-linecap="round" stroke-linejoin="round"/>
<path d="M218.36 66.54C213 69.5 207.54 69.66 201.97 67.17C201.69 67.04 201.29 67.15 200.95 67.15" stroke="#2071B5" stroke-width="4.21" stroke-linecap="round" stroke-linejoin="round"/>
<path d="M187.64 332.99V344.05" stroke="#2071B5" stroke-width="4.21" stroke-linecap="round" stroke-linejoin="round"/>
<path d="M219.99 84.77C224.63 84.25 223.14 91.5401 224 95.4301" stroke="#2071B5" stroke-width="4.21" stroke-linecap="round" stroke-linejoin="round"/>
<path d="M302.12 221.78C302.58 225.39 302.21 229.02 302.32 232.63" stroke="#2071B5" stroke-width="4.21" stroke-linecap="round" stroke-linejoin="round"/>
<path d="M302.73 328.48C301.92 328.86 302.37 329.57 302.34 330.12C302.17 332.98 302.57 335.86 302.11 338.72" stroke="#2071B5" stroke-width="4.21" stroke-linecap="round" stroke-linejoin="round"/>
<path d="M191.53 90.51C189.88 91.69 190.22 93.66 189.99 95.23C189.6 97.93 189.11 100.65 189.05 103.41C189 105.58 189.46 107.31 191.29 108.78C193.94 110.9 196.66 112.7 200.13 113.04" stroke="#2071B5" stroke-width="4.21" stroke-linecap="round" stroke-linejoin="round"/>
<path d="M224.01 95.5801C222.94 99.4801 225 108.29 221.89 110.64C218.69 113.07 215.22 113.62 211.4 113.94C207.91 114.23 204.55 113.87 201.15 113.43" stroke="#2071B5" stroke-width="4.21" stroke-linecap="round" stroke-linejoin="round"/>
<path d="M302.32 311.28V321.11" stroke="#2071B5" stroke-width="4.21" stroke-linecap="round" stroke-linejoin="round"/>
<path d="M201.15 211.75V221.17" stroke="#2071B5" stroke-width="4.21" stroke-linecap="round" stroke-linejoin="round"/>
<path d="M283.09 76.6899C282.69 79.6599 282.95 79.9699 285.53 80.6999C290.25 82.0299 294.83 82.0099 299.26 79.6599" stroke="#2071B5" stroke-width="4.21" stroke-linecap="round" stroke-linejoin="round"/>
<path d="M177.81 217.07V226.9" stroke="#2071B5" stroke-width="4.21" stroke-linecap="round" stroke-linejoin="round"/>
<path d="M313.38 108.94C313.38 108.94 311.09 110.94 308.73 112.87C306.62 114.6 301.44 117.92 297.45 117.18" stroke="#2071B5" stroke-width="4.21" stroke-linecap="round" stroke-linejoin="round"/>
<path d="M234.54 120.82C233.65 123.64 232.11 125.96 229.42 127.38C228.58 127.82 228.03 128.51 227.78 129.43" stroke="#2071B5" stroke-width="4.21" stroke-linecap="round" stroke-linejoin="round"/>
<path d="M176.58 289.57C177.41 290.5 176.9 291.62 176.96 292.64C177.06 294.2 176.99 295.78 176.99 297.35" stroke="#2071B5" stroke-width="4.21" stroke-linecap="round" stroke-linejoin="round"/>
<path d="M176.17 206.42C178.1 208.92 180.51 210.86 183.13 212.56" stroke="#2071B5" stroke-width="4.21" stroke-linecap="round" stroke-linejoin="round"/>
<path d="M300.89 58.97C298.46 58.92 296.2 59.97 293.72 59.85C291.69 59.76 289.63 60.22 287.58 59.79" stroke="#2071B5" stroke-width="4.21" stroke-linecap="round" stroke-linejoin="round"/>
<path d="M297.82 301.45C295.21 300.84 292.71 299.81 290.04 299.4" stroke="#2071B5" stroke-width="4.21" stroke-linecap="round" stroke-linejoin="round"/>
<path d="M200.95 79.65C204.75 80.5 208.54 80.6 212.43 80.12C214.92 79.81 217.16 79.01 219.39 78.01" stroke="#2071B5" stroke-width="4.21" stroke-linecap="round" stroke-linejoin="round"/>
<path d="M231.87 295.3C229.49 295.08 227.25 296.03 224.91 296.12" stroke="#2071B5" stroke-width="4.21" stroke-linecap="round" stroke-linejoin="round"/>
<path d="M328.95 206.83C328.2 207.13 328.55 207.76 328.55 208.26C328.53 210.38 328.55 212.49 328.55 214.61" stroke="#2071B5" stroke-width="4.21" stroke-linecap="round" stroke-linejoin="round"/>
<path d="M330.59 234.27C328.92 236.59 326.43 238.02 324.45 240" stroke="#2071B5" stroke-width="4.21" stroke-linecap="round" stroke-linejoin="round"/>
<path d="M200.33 85.5901C196.42 85.5901 194.6 88.8601 192.97 90.7101" stroke="#2071B5" stroke-width="4.21" stroke-linecap="round" stroke-linejoin="round"/>
<path d="M204.02 223.22C201.89 222.79 200.01 221.6 197.88 221.17" stroke="#2071B5" stroke-width="4.21" stroke-linecap="round" stroke-linejoin="round"/>
<path d="M177.19 311.69C177.21 313.67 177.19 315.65 177.37 317.63C177.54 319.61 176.51 321.55 177.16 323.58C177.28 323.95 177.56 324.35 177.39 324.8" stroke="#2071B5" stroke-width="4.21" stroke-linecap="round" stroke-linejoin="round"/>
<path d="M203 75.7499C204.43 76.7999 207.47 77.7299 209.97 77.5599C212.29 77.3999 215.68 76.3399 216.54 75.9799C218.36 75.2299 218.53 74.7499 219.02 74.6599" stroke="#2071B5" stroke-width="4.21" stroke-linecap="round" stroke-linejoin="round"/>
<path d="M282.87 79.8601C282.05 82.5001 282.61 85.1801 282.66 87.8501C282.68 88.9701 283.7 88.7401 284.3 89.0801" stroke="#2071B5" stroke-width="4.21" stroke-linecap="round" stroke-linejoin="round"/>
<path d="M187.64 209.7V215.64" stroke="#2071B5" stroke-width="4.21" stroke-linecap="round" stroke-linejoin="round"/>
<path d="M330.18 283.43C328.93 285.54 327.3 287.35 325.67 289.16" stroke="#2071B5" stroke-width="4.21" stroke-linecap="round" stroke-linejoin="round"/>
<path d="M182.31 244.92C184.37 246.37 186.38 247.91 188.86 248.61" stroke="#2071B5" stroke-width="4.21" stroke-linecap="round" stroke-linejoin="round"/>
<path d="M284.3 63.27C283.92 65.51 282.8 67.56 283.73 70.09C284.11 71.12 283.4 72.93 282.96 74.33" stroke="#2071B5" stroke-width="4.21" stroke-linecap="round" stroke-linejoin="round"/>
<path d="M219.59 82.9299C220.03 85.7199 220.78 87.8199 219.79 90.7099" stroke="#2071B5" stroke-width="4.21" stroke-linecap="round" stroke-linejoin="round"/>
<path d="M306.01 250.66C304.67 250.85 303.42 251.38 302.35 252.14C301.66 252.63 301.01 252.7 300.27 252.71" stroke="#2071B5" stroke-width="4.21" stroke-linecap="round" stroke-linejoin="round"/>
<path d="M176.17 239.19C177.21 240.61 178.48 241.8 179.86 242.88" stroke="#2071B5" stroke-width="4.21" stroke-linecap="round" stroke-linejoin="round"/>
<path d="M301.5 82.9299C302.56 85.0199 301.76 87.3299 302.32 89.4799" stroke="#2071B5" stroke-width="4.21" stroke-linecap="round" stroke-linejoin="round"/>
<path d="M286.45 59.72C285.77 59.43 285.09 59.15 284.38 58.96" stroke="#2071B5" stroke-width="4.21" stroke-linecap="round" stroke-linejoin="round"/>
<path d="M204.43 254.34C202.97 254.55 201.84 253.09 200.33 253.52" stroke="#2071B5" stroke-width="4.21" stroke-linecap="round" stroke-linejoin="round"/>
<path d="M187.64 244.51C187.53 245.6 187.87 246.72 187.44 247.79" stroke="#2071B5" stroke-width="4.21" stroke-linecap="round" stroke-linejoin="round"/>
<path d="M205.19 73.51V76.17" stroke="#2071B5" stroke-width="4.21" stroke-linecap="round" stroke-linejoin="round"/>
<path d="M206.75 73.9199V76.5799" stroke="#2071B5" stroke-width="4.21" stroke-linecap="round" stroke-linejoin="round"/>
<path d="M208.31 74.3V76.96" stroke="#2071B5" stroke-width="4.21" stroke-linecap="round" stroke-linejoin="round"/>
<path d="M209.87 74.3V76.96" stroke="#2071B5" stroke-width="4.21" stroke-linecap="round" stroke-linejoin="round"/>
<path d="M211.39 74.3V76.96" stroke="#2071B5" stroke-width="4.21" stroke-linecap="round" stroke-linejoin="round"/>
<path d="M212.94 74.1101V76.7701" stroke="#2071B5" stroke-width="4.21" stroke-linecap="round" stroke-linejoin="round"/>
<path d="M214.42 73.71V76.37" stroke="#2071B5" stroke-width="4.21" stroke-linecap="round" stroke-linejoin="round"/>
<path d="M189.07 116.31C188.26 117.7 188.57 119.4 187.84 120.82" stroke="#2071B5" stroke-width="4.21" stroke-linecap="round" stroke-linejoin="round"/>
<path d="M294.95 83.1299C294.41 83.2399 293.81 82.8999 293.31 83.3299" stroke="#2071B5" stroke-width="4.21" stroke-linecap="round" stroke-linejoin="round"/>
<path d="M213.65 420.23C211.95 420.67 210.2 420.98 208.73 422.07C207.35 423.1 207.34 424.48 208.73 425.55C209.59 426.21 210.57 426.73 211.6 426.96C216.45 428.05 221.31 428.27 226.13 426.75C226.78 426.55 227.48 426.36 228 425.77C228.91 424.73 228.87 423.36 227.78 422.48C226.41 421.37 224.76 420.97 223.07 420.62C220.01 420 216.93 420.29 213.85 420.22" fill="#FFDA00" fill-opacity="0.7"/>
<path d="M213.65 420.23C211.95 420.67 210.2 420.98 208.73 422.07C207.35 423.1 207.34 424.48 208.73 425.55C209.59 426.21 210.57 426.73 211.6 426.96C216.45 428.05 221.31 428.27 226.13 426.75C226.78 426.55 227.48 426.36 228 425.77C228.91 424.73 228.87 423.36 227.78 422.48C226.41 421.37 224.76 420.97 223.07 420.62C220.01 420 216.93 420.29 213.85 420.22" stroke="#2071B5" stroke-width="4.21" stroke-linecap="round" stroke-linejoin="round"/>
<path d="M294.34 76.6901C296.83 76.3801 299.07 75.5801 301.3 74.5801" stroke="#2071B5" stroke-width="4.21" stroke-linecap="round" stroke-linejoin="round"/>
<path d="M284.92 72.31C286.35 73.36 289.39 74.29 291.89 74.12C294.21 73.96 297.6 72.9 298.46 72.54C300.28 71.79 300.45 71.31 300.94 71.22" stroke="#2071B5" stroke-width="4.21" stroke-linecap="round" stroke-linejoin="round"/>
<path d="M287.11 70.0701V72.7301" stroke="#2071B5" stroke-width="4.21" stroke-linecap="round" stroke-linejoin="round"/>
<path d="M288.67 70.48V73.14" stroke="#2071B5" stroke-width="4.21" stroke-linecap="round" stroke-linejoin="round"/>
<path d="M290.23 70.8701V73.5301" stroke="#2071B5" stroke-width="4.21" stroke-linecap="round" stroke-linejoin="round"/>
<path d="M291.79 70.8701V73.5301" stroke="#2071B5" stroke-width="4.21" stroke-linecap="round" stroke-linejoin="round"/>
<path d="M293.31 70.8701V73.5301" stroke="#2071B5" stroke-width="4.21" stroke-linecap="round" stroke-linejoin="round"/>
<path d="M294.86 70.6699V73.3299" stroke="#2071B5" stroke-width="4.21" stroke-linecap="round" stroke-linejoin="round"/>
<path d="M296.34 70.27V72.93" stroke="#2071B5" stroke-width="4.21" stroke-linecap="round" stroke-linejoin="round"/>
</svg>
