<?xml version="1.0" encoding="UTF-8"?>
<svg id="icons" xmlns="http://www.w3.org/2000/svg" viewBox="0 0 500 500">
  <defs>
    <style>
      .cls-1 {
        fill: none;
        stroke: #000;
        stroke-linecap: round;
        stroke-linejoin: round;
        stroke-width: .89px;
      }
    </style>
  </defs>
  <path class="cls-1" d="M198.17,423.15c-.16,4.66,1.24,8.75,4.44,12.2,6.27,6.77,14.38,10.11,23.06,12.43,10.94,2.93,22.09,3.03,33.27,2.41,9.62-.54,18.89-2.61,27.49-7.1,5.6-2.92,10.63-6.57,13.5-12.42,1.24-2.54,2.41-5.2,2.03-8.19"/>
  <path class="cls-1" d="M299.97,429.8c-1.09-.58-1.56.34-2.22.88-2.57,2.09-5.03,4.37-7.79,6.17-4.76,3.11-10.24,4.55-15.72,5.8-11.11,2.54-22.34,3.23-33.71,2.27-8.37-.7-16.56-2.02-24.39-5.15-5.5-2.2-10.53-5.15-14.41-9.76-.68-.81-1.2-1.76-1.79-2.65-.37,0-.74,0-1.11,0"/>
  <path class="cls-1" d="M200.6,349.07c2.14.74,4.33,1.37,6.42,2.24,6.43,2.65,13.2,4.06,19.98,5.21,5.32.9,10.78,1.3,16.18,1.35,8.06.07,16.14-.03,24.17-.68,8.48-.69,16.88-2.22,24.85-5.44.19-.08.44,0,.66,0"/>
  <path class="cls-1" d="M207.04,353.28c5.99,1.63,11.92,3.53,17.98,4.79,4.41.92,8.99,1.17,13.51,1.37,6.05.27,12.13.37,18.18.23,11.7-.26,23.24-1.63,34.38-5.5,4.89-1.7,9.55-3.86,13.06-7.79,4.49-5.03,6.36-11.19.9-17.71-.7-.84-1.54-1.56-2.31-2.33-.11.11-.22.22-.33.32-.74-1.03-1.48-2.07-2.23-3.1"/>
  <path class="cls-1" d="M268.69,256.14v36.19c6.99-1.28,13.73-2.72,19.71-6.3,3.12-1.87,6.16-4,8.83-6.46,2.19-2.02,3.23-4.88,3.01-8.4.56-.51,1.29-1.34,2.18-1.92,2.6-1.7,3.6-4.01,3.57-7.12-.15-21.22-.19-42.44-.26-63.65,0-.75,0-1.49,0-2.2,4.79-1.68,9.45-3.12,13.96-4.94,9.28-3.73,18.14-8.13,24.88-15.91,3.41-3.94,4.94-8.44,4.84-13.55-.09-4.66-.13-9.33-.47-13.97-.42-5.75-3.68-10-7.97-13.51-2.25-1.84-4.69-3.46-7.09-5.1-.7-.48-1.59-.67-2.59-1.07-.08-.72-.26-1.61-.27-2.51-.02-13.75-.14-27.5.09-41.25.05-2.92-1.06-4.68-2.97-6.45-8.99-8.29-18.98-15.03-30.41-19.48-6.88-2.68-13.95-4.79-21.29-5.77-5.38-.71-10.78-1.44-16.19-1.74-6.86-.39-13.77-.74-20.62-.42-12.09.58-23.99,2.73-35.47,6.62-10.08,3.42-19.03,9.03-27.28,15.71-2.4,1.94-4.92,3.69-6.56,6.57-1.18,2.07-.87,4.11-.9,6.05-.19,13.01-.1,26.02-.1,39.03v2.97c-6.64,3.62-12.78,7.21-16.65,13.66-2.1,3.51-3.03,7.23-2.9,11.32.14,4.21.11,8.43,0,12.64-.11,4.38,2.14,7.72,4.71,10.85,4.94,6.02,11.58,9.73,18.63,12.61,6.77,2.77,13.64,5.36,20.63,7.5,4.95,1.52,10.17,2.16,15.27,3.2,9.15,1.86,18.4,2.57,27.72,2.68,6.95.08,13.9.35,20.85.4,3.62.02,7.24-.27,10.87-.41"/>
  <path class="cls-1" d="M187.3,66.29c.15,2.07.41,4.14.42,6.21.03,4.64,2.48,7.6,6.21,10.02,6.41,4.16,13.58,6.2,20.88,7.93,7.58,1.81,15.28,2.83,23.06,3.11,5.32.19,10.65.49,15.97.41,13.34-.2,26.53-1.8,39.24-6.01,6.13-2.03,12.23-4.35,16.9-9.23,2.27-2.37,2.75-5.51,0-8.47-3.21-3.47-7.4-5.32-11.58-7.01-10.93-4.42-22.38-6.67-34.13-7.36-6.05-.35-12.12-.69-18.19-.64-11.62.09-23.07,1.74-34.38,4.39"/>
  <path class="cls-1" d="M193.95,196.7c0,22.33.02,44.65-.04,66.98,0,2.26.83,3.77,2.69,4.89,1.82,1.1,2.98,2.37,3,4.87.02,2.82,1.8,5.13,3.87,7.11,4.2,4.01,9.18,6.6,14.64,8.44,8.79,2.96,17.78,4.74,27.06,4.6,6.88-.1,13.75-.54,20.63-.87.89-.04,1.76-.33,2.88-.56v10.34c8.31-1.4,16.15-3.65,23.49-7.36,2.92-1.48,5.7-3.28,8.42-5.1,1.46-.98,2.12-4.76,1.08-6.59-.93-1.63-2.31-2.99-3.49-4.47"/>
  <path class="cls-1" d="M198.17,309.15c-.37-.07-.81-.32-1.1-.2-7.94,3.46-15.98,6.72-22.85,12.18-6.2,4.93-10.39,10.95-10.22,19.29.08,3.99-.29,8.01.09,11.97.55,5.73,3.46,10.34,7.91,13.99,1.17.96,2.27,2.01,3.27,2.89-.06,1.09-.15,1.98-.15,2.87-.01,9.39.21,18.79-.09,28.16-.17,5.19,1.99,8.76,5.84,11.77,4.69,3.67,9.7,6.79,15.08,9.32.72.34,1.34.87,2.01,1.21,22.76,9.37,46.51,9.82,70.74,7.81v5.82"/>
  <path class="cls-1" d="M202.38,198.92c-.07.59-.21,1.18-.21,1.77-.01,20.55-.01,41.11,0,61.66,0,.59.14,1.18.21,1.77"/>
  <path class="cls-1" d="M297.97,199.58c.07,21.37.15,42.73.21,64.1,0,.22-.14.44-.21.67"/>
  <path class="cls-1" d="M206.82,426.47c-.1.74-.21,1.47-.29,2.02,2.03.99,3.93,1.93,5.83,2.86,7.08,3.43,14.62,5.2,22.4,5.96,4.5.44,9.03.97,13.52.83,6.81-.21,13.61-.95,20.41-1.47"/>
  <path class="cls-1" d="M199.94,272.11c.52.15,1.11.18,1.54.46,8.22,5.29,17.32,8.23,26.85,9.93,3.59.64,7.23,1.13,10.86,1.32,6.28.32,12.6.82,18.84.39,14.15-.96,27.89-3.64,39.94-11.86.51-.35,1.17-.46,1.76-.68"/>
  <path class="cls-1" d="M200.83,291.18c-2.88,3.78-2.96,7.68.05,10.59,1.92,1.86,4.25,3.4,6.62,4.67,6.24,3.35,13.02,5.11,19.93,6.5,9.47,1.91,19.06,2.16,28.61,1.66,12.31-.64,24.42-2.6,35.48-8.58,2.86-1.54,5.75-3.06,8.4-4.92,2.94-2.06,3.13-7.24.7-10.82"/>
  <path class="cls-1" d="M206.82,329.33c6,2.6,12.15,4.79,18.64,5.73,5.22.76,10.48,1.49,15.75,1.74,6.2.3,12.42.16,18.63.03,2.96-.06,5.92-.55,8.87-.85"/>
  <path class="cls-1" d="M206.37,199.8v3.55c0,18.7,0,37.41,0,56.11,0,.74.14,1.48.21,2.22"/>
  <path class="cls-1" d="M206.82,320.24c3.03,1.18,6.03,2.47,9.1,3.53,7.18,2.46,14.63,3.59,22.17,4.25,9.71.84,19.41.49,29.05-.72,8.27-1.04,16.28-3.17,23.74-7.05"/>
  <path class="cls-1" d="M292.43,199.8c.07.74.21,1.48.21,2.22.01,19.07,0,38.15,0,57.22,0,4.14.01,8.28,0,12.42,0,.74-.14,1.48-.21,2.22"/>
  <path class="cls-1" d="M204.82,330c6.59,3.95,13.89,6.01,21.31,7.45,4.71.92,9.59,1.1,14.4,1.38,4.35.25,8.72.32,13.08.22,4.96-.12,9.92-.51,15.08-.8v5.5"/>
  <path class="cls-1" d="M199.5,325.56c-.22,2.37-.62,4.73-.61,7.1,0,1.84.91,3.34,2.59,4.47,10.48,7.04,22.47,9.09,34.62,10.6,9,1.12,18.02,1.02,27.06.27,8.51-.7,16.83-2.14,24.83-5.15,4.55-1.71,8.99-3.68,12.42-7.31,2.04-2.16,2.78-4.64,1.8-7.55-.1-.31.12-.73.2-1.1"/>
  <path class="cls-1" d="M201.49,279.21c-2.1,2.17-3.63,4.5-2.69,7.77.49,1.71,1.2,3.11,2.67,4.23,5.42,4.15,11.51,6.93,17.99,8.82,8.39,2.44,16.98,3.52,25.72,3.85,7.83.29,15.56-.41,23.51-1.31v2.37"/>
  <path class="cls-1" d="M324.03,370.14c.04,1.18.1,2.37.11,3.55,0,9.54-.04,19.07.03,28.61.02,2.84-.93,5.12-2.9,7.11-4.63,4.65-10.2,7.91-15.98,10.86-8.96,4.57-18.46,7.39-28.39,8.88-2.67.4-5.32.88-7.99,1.32"/>
  <path class="cls-1" d="M288.66,103.33c-6.06-1.48-12.09-3.13-18.2-4.37-3.55-.72-7.23-1.03-10.86-1.12-6.95-.17-13.93-.47-20.84.05-9.2.7-18.35,2.11-27.07,5.44"/>
  <path class="cls-1" d="M292.87,341.31c.11.58.21,1.16.31,1.73-21.61,10.6-61.13,9.05-81.71,1.15"/>
  <path class="cls-1" d="M288.66,117.74c-5.32-1.18-10.61-2.57-15.98-3.49-4.38-.75-8.85-1.12-13.3-1.35-5.24-.27-10.5-.33-15.74-.23-7,.12-13.98.66-20.85,2.18-3.47.77-6.95,1.48-10.42,2.22"/>
  <path class="cls-1" d="M175.54,369.7c.52.15,1.09.2,1.54.46,7.82,4.44,16.11,7.68,24.85,9.73,6.27,1.47,12.54,2.97,18.86,4.17,3.56.68,7.23.95,10.86,1.13,7.83.4,15.67.84,23.51.87,12.42.04,24.71-1.28,36.82-4.14,10.65-2.52,20.88-5.98,30.41-11.51,5.99-3.48,10.45-8.07,12.57-14.7.53-1.68.59-3.53.69-5.31.16-2.73.17-5.47.25-8.2.03-.97.03-.97-1.11-1.55"/>
  <path class="cls-1" d="M291.32,412.95c-4.95,3.03-10.33,4.97-15.97,6.19-5.62,1.22-11.29,2.17-17.07,2.25-4.66.07-9.33.57-13.97.35-5.56-.27-11.11-1-16.63-1.73-4.16-.56-8.39-1.08-12.4-2.27-6-1.77-11.44-4.77-15.77-9.45"/>
  <path class="cls-1" d="M278.45,384.78v20.47c-2.68.57-5.31,1.43-7.99,1.66-8.05.67-16.11,1.37-24.17,1.51-5.24.09-10.49-.95-15.75-1.19-6.45-.3-12.52-2.02-18.39-4.52-2.8-1.19-5.69-2.41-7.56-5.06"/>
  <path class="cls-1" d="M268.47,181.4c.07.67.21,1.33.21,2,.01,23.36.01,46.72,0,70.09,0,.74-.14,1.48-.21,2.22"/>
  <path class="cls-1" d="M230.99,202.24c0,17,0,34.01,0,51.01,0,.74.14,1.48.21,2.22"/>
  <path class="cls-1" d="M273.57,409.84c-2.81.59-5.6,1.27-8.43,1.75-3.24.55-6.49,1.18-9.76,1.3-5.91.21-11.84.28-17.74-.01-4.75-.24-9.47-1.11-14.2-1.7"/>
  <path class="cls-1" d="M230.96,158.39c-.19,14.35-.19,28.99-.19,43.41"/>
  <path class="cls-1" d="M210.81,104.21c0,19.15,0,38.3,0,57.44,0,.81-.14,1.63-.21,2.44"/>
  <path class="cls-1" d="M278.01,369.03c-2.37.3-4.73.61-7.1.88-4.58.53-9.16,1.22-13.75,1.51-5.38.34-10.8.57-16.19.43-5.48-.15-10.94-.85-16.41-1.26-7.63-.57-15.06-2.19-22.4-4.24-10.73-2.99-20.98-7.13-29.67-14.24-4.15-3.4-7.2-7.92-6.18-13.67.81-4.56,3.6-8.26,7.25-11.08,6.36-4.9,13.45-8.52,21.05-11.12"/>
  <path class="cls-1" d="M169.11,128.17c.15.81.41,1.62.42,2.44.05,3.47.02,6.95.02,10.61,2.26,2.59,5.4,4.1,8.42,5.81,8.73,4.94,17.41,9.97,26.19,14.82,3.95,2.18,8.16,3.26,12.85,3.22,17.15-.13,34.3.07,51.45.14"/>
  <path class="cls-1" d="M150.04,155c.44.3,1.09.49,1.3.9,2.85,5.54,7.95,8.51,13.13,11.27,8.12,4.33,16.65,7.68,25.49,10.24,1.35.39,2.66.88,3.99,1.32"/>
  <path class="cls-1" d="M348.98,155.67c-.37.3-.84.52-1.09.9-4.04,6.05-10.12,9.53-16.47,12.31-7.06,3.09-14.41,5.54-21.7,8.05-7.58,2.61-15.37,4.46-23.28,5.78-5.83.97-11.68,1.79-17.52,2.68"/>
  <path class="cls-1" d="M292.65,368.37c-3.33.74-6.63,1.63-9.99,2.18-5.67.94-11.36,1.79-17.08,2.44-9.59,1.1-19.2,1.36-28.83.49-4.13-.37-8.28-.6-12.42-.9"/>
  <path class="cls-1" d="M335.56,340.42c.51-7.12-2.68-12.68-7.69-17.26-4.91-4.49-10.68-7.69-16.81-10.26-3.23-1.36-6.37-2.94-9.55-4.41"/>
  <path class="cls-1" d="M211.92,93.12c4.21.74,8.42,1.53,12.65,2.19,1.83.29,3.69.44,5.54.45,7.84.05,15.67.02,23.51.02"/>
  <path class="cls-1" d="M330.35,145.02c1.04,1.63,2.31,3.15,3.05,4.9,1.46,3.45-.28,6.4-2.2,9.05-3.83,5.26-9.54,7.97-15.28,10.41-10.83,4.61-22.15,7.61-33.7,9.8-13.34,2.53-26.83,3.25-40.37,2.84-8.33-.25-16.62-1.12-24.85-2.6-11.29-2.03-22.34-4.79-32.82-9.56-4.84-2.21-9.66-4.46-13.76-7.98-2.28-1.96-4.31-4.08-5.1-7.1"/>
  <path class="cls-1" d="M206.82,317.58c9.09,4.83,18.89,7.1,29.06,7.97,3.84.33,7.69.52,11.53.67,7.06.28,14.08-.4,21.07-1.32"/>
  <path class="cls-1" d="M268.47,185.39c-3.11.3-6.21.79-9.32.85-7.02.13-14.05.19-21.07-.02-4.08-.12-8.14-.8-12.2-1.28-3.41-.4-6.83-.73-10.2-1.36-5.35-.99-10.65-2.18-15.97-3.3-1.7-.36-3.4-.74-5.1-1.11"/>
  <path class="cls-1" d="M282,121.07c-5.4-1.04-10.75-2.49-16.2-3.01-7.94-.75-15.93-1.58-23.95-.57-2.71.34-5.47.3-8.2.49-.82.06-1.63.28-2.44.43"/>
  <path class="cls-1" d="M292.2,261.46c-3.77-1.26-7.47-2.84-11.33-3.69-4.88-1.08-9.87-1.83-14.85-2.23-6.34-.51-12.71-.67-19.07-.7-10.64-.04-21.19,1.05-31.47,3.81-4.69,1.26-9.37,2.86-13.55,6.01v7"/>
  <path class="cls-1" d="M268.42,158.23c-12.17,2.03-24.32,1.63-36.54.54"/>
  <path class="cls-1" d="M290.43,124.17c6.28,3.06,13.43,8.11,12.16,16.12-1.31,8.22-10.36,11.62-17.25,13.77-4.87,1.52-9.82,2.85-14.83,3.8"/>
  <path class="cls-1" d="M305.51,196.48c-1.63.22-3.27.35-4.88.68-5.55,1.14-11.06,2.59-16.65,3.46-4.97.78-10.04.96-15.07,1.4"/>
  <path class="cls-1" d="M313.05,84.7c.07,2,.21,3.99.21,5.99.02,19.3,0,38.59.03,57.89,0,.89.28,1.77.42,2.66"/>
  <path class="cls-1" d="M268.25,287.86c-5.84.37-11.68.95-17.52,1.05-4.95.08-9.91-.36-14.86-.62-1.04-.05-2.07-.28-3.11-.43"/>
  <path class="cls-1" d="M301.96,231.08v35.49"/>
  <path class="cls-1" d="M334.57,341.08c-4.81,10.84-14.34,16.17-24.41,20.82-2.59,1.2-5.31,2.09-7.97,3.13"/>
  <path class="cls-1" d="M332.13,341.53c.53-6.03-3-10.09-7.15-13.46-6.31-5.12-13.41-8.97-21.24-11.38"/>
  <path class="cls-1" d="M187.74,75.82c-.07,2.88-.16,5.77-.22,8.65-.02,1.11,0,2.22,0,3.33,0,9.02-.01,18.04,0,27.06,0,1.55.14,3.11.21,4.66"/>
  <path class="cls-1" d="M300.63,88.69c-13.91,4.98-28.17,7.88-43.03,7.1"/>
  <path class="cls-1" d="M331.46,128.61c-.15,2-.67,4.05-.37,5.98.84,5.44-1.32,8.55-6.23,10.99-8.7,4.33-17.05,9.37-25.57,14.07-3.15,1.74-6.37,3.38-9.55,5.06-.21-.12-.43-.25-.64-.37v-10.66"/>
  <path class="cls-1" d="M288.88,92.9c.07,18.93.15,37.85.22,56.78,0,1.04,0,2.07,0,3.11"/>
  <path class="cls-1" d="M211.47,55.42v34.16"/>
  <path class="cls-1" d="M288.66,55.86c.07,12.05.15,24.1.22,36.15"/>
  <path class="cls-1" d="M205.93,328.66c-1.26-.81-2.48-1.69-3.78-2.42-1.04-.57-2.18-.96-3.47-1.5-4.27,4.12-8.04,8.44-6.9,15,.21,1.24.78,2.55,1.56,3.52,1.47,1.83,3.15,3.5,4.87,5.1.51.47,1.44.48,2.18.7"/>
  <path class="cls-1" d="M268.25,261.02c-4.58-.37-9.16-.99-13.75-1.05-6.58-.09-13.18-.03-19.73.46-7.25.54-14.4,1.93-21.29,4.38-.71.25-1.34.72-2,1.09-2.17,1.21-3.42,2.94-3.11,5.54"/>
  <path class="cls-1" d="M329.02,80.04c-3.4.81-6.84,1.51-10.2,2.46-7,2-13.72,4.74-19.25,9.57-3.61,3.15-6.71,6.89-10.03,10.36"/>
  <path class="cls-1" d="M211.03,60.08c-7.09,1.52-13.73,4.17-19.69,8.27-1.41.97-2.26,2.74-3.37,4.15"/>
  <path class="cls-1" d="M188.18,85.14c5.34,1.89,9.61,5.43,13.72,9.12,2.89,2.6,5.69,5.34,7.59,8.83.22.4.66.68,1.41,1.43.25-1.21.53-1.98.56-2.75.12-3.92.17-7.84.24-11.75"/>
  <path class="cls-1" d="M299.97,310.92c-3.43,3.27-7.23,5.97-11.52,8-5.25,2.49-10.82,3.95-16.42,5.3-1.03.25-2.07.45-3.1.67"/>
  <path class="cls-1" d="M292.65,331.33c-7.42,3.96-15.49,5.6-24.18,6.82v-10.81"/>
  <path class="cls-1" d="M312.83,121.07c-7.08-4.97-14.84-8.72-22.63-12.41-.24-.11-.58-.01-.88-.01"/>
  <path class="cls-1" d="M300.08,301.38c1.66,3.01,1.89,6.04.02,9.2,1.92,2.34,2.28,5.2,2.05,8.1-.28,3.51-2.92,5.43-5.5,7.33-7.02,5.17-14.94,7.96-23.51,9.09-1.34.18-2.66.44-3.99.66"/>
  <path class="cls-1" d="M210.36,108.87c-4.45.77-8.3,3.06-12.18,5.14-9.29,4.97-18.01,10.83-26.18,17.5-.36.29-.6.73-.9,1.1"/>
  <path class="cls-1" d="M291.76,297.61c-6.48,3.22-13.26,5.49-20.4,6.66-.82.13-1.63.29-2.44.44"/>
  <path class="cls-1" d="M291.32,429.36c-4.6,2.84-9.71,4.37-14.87,5.74-2.55.68-5.17,1.06-7.76,1.58"/>
  <path class="cls-1" d="M203.71,386.33c-5.87,5.71-8.55,15.72-4.66,21.2v13.4"/>
  <path class="cls-1" d="M187.52,129.27c0,6.65,0,13.31,0,19.96,0,.74-.14,1.48-.21,2.22"/>
  <path class="cls-1" d="M294.2,382.56c1.4,1.63,2.86,3.21,4.2,4.89,2.27,2.84,3.3,6.16,3.32,9.75.05,6.95.01,13.9.01,20.85v3.11"/>
  <path class="cls-1" d="M210.59,117.52c-3.22-.21-5.92,1.52-8.6,2.77-4.54,2.13-8.77,4.92-13.14,7.43"/>
  <path class="cls-1" d="M289.1,164.32c-.74.22-1.47.62-2.22.64-5.99.12-11.98.18-17.96.25"/>
  <path class="cls-1" d="M288.21,269.22c-1.29-2.59-3.71-3.65-6.2-4.67-4.28-1.76-8.68-3.01-13.31-3.31"/>
  <path class="cls-1" d="M230.99,261.24v19.96"/>
  <path class="cls-1" d="M309.95,128.17c-5.91-4.44-12.42-7.7-19.52-9.76"/>
  <path class="cls-1" d="M208.81,123.29c-4.36,1.74-8.21,4.22-11.08,7.99-3.49,4.59-3.11,10.62.88,14.85,2.61,2.76,5.85,4.55,9.31,5.99"/>
  <path class="cls-1" d="M212.36,153.89c4.68,2.05,9.69,2.92,14.64,3.98,1.02.22,2.07.31,3.1.45"/>
  <path class="cls-1" d="M299.97,336.87c.74,1.85,1.77,3.64,2.14,5.56.47,2.42-.58,4.49-2.82,5.74-1.96,1.09-3.99,2.08-5.98,3.12"/>
  <path class="cls-1" d="M313.27,67.17c-.07,1.55-.2,3.1-.21,4.66-.03,4.14-.01,8.28-.01,12.42"/>
  <path class="cls-1" d="M305.51,178.51c0,4.88,0,9.76,0,14.64,0,.74.14,1.48.21,2.22"/>
  <path class="cls-1" d="M346.32,150.79c.12-2.33-1.43-3.97-2.72-5.49-3.06-3.62-6.54-6.84-11.03-8.7"/>
  <path class="cls-1" d="M170.66,79.59c1.67,1.45,3.86.99,5.76,1.57,3.64,1.11,7.25,2.35,10.87,3.53"/>
  <path class="cls-1" d="M169.11,135.71c-4.99,2.13-9.39,5.12-13.06,9.11-.89.97-1.5,2.2-2.24,3.31"/>
  <path class="cls-1" d="M202.16,181.17c0,4.73,0,9.46,0,14.19,0,.74-.14,1.48-.21,2.22"/>
  <path class="cls-1" d="M230.77,118.41c-4.36.81-8.72,1.62-13.08,2.44-1.04.2-2.07.44-3.11.66"/>
  <path class="cls-1" d="M194.39,157.44c-.07,5.62-.18,11.24-.21,16.86-.04,6.58,0,13.16-.02,19.74,0,.44-.14.89-.21,1.33"/>
  <path class="cls-1" d="M268.69,158.55v22.4"/>
  <path class="cls-1" d="M258.49,301.61h-15.53"/>
  <path class="cls-1" d="M313.72,121.96c4.21,3.03,8.44,6.04,12.63,9.11.96.71,1.79,1.61,2.67,2.42"/>
  <path class="cls-1" d="M199.27,349.96c-.07,4.51-.18,9.02-.21,13.53-.04,4.66,0,9.32,0,13.97"/>
  <path class="cls-1" d="M301.74,349.73c.07,4.88.18,9.76.21,14.64.04,4.88,0,9.76,0,14.64"/>
  <path class="cls-1" d="M205.48,381.67c-1.73,2.18-1.49,4.82-1.52,7.32-.09,7.17-.03,14.34-.04,21.51,0,.44-.14.89-.21,1.33"/>
  <path class="cls-1" d="M201.27,302.72c-1.34,2.35-2.73,4.69-2.67,7.54,0,.22-.11.46-.22.66-2.75,5.07-2.7,7.72.22,12.65.23.39.31.88.45,1.32"/>
  <path class="cls-1" d="M291.76,383.67v15.32c-3.24,2.61-7.44,3.96-11.53,5.53"/>
  <path class="cls-1" d="M247.4,295.84c-4.44-.15-8.87-.3-13.31-.44"/>
  <path class="cls-1" d="M211.25,92.68c-4.36-1.33-8.72-2.66-13.09-3.99"/>
  <path class="cls-1" d="M305.51,159.22v12.86"/>
  <path class="cls-1" d="M206.59,400.97v12.86"/>
  <path class="cls-1" d="M222.12,384.56c-.07,1.92-.22,3.84-.21,5.77.03,5.18.13,10.35.21,15.53"/>
  <path class="cls-1" d="M278.45,405.63v12.64"/>
  <path class="cls-1" d="M200.38,336.87c-1.3,2.11-2.1,4.32-2.04,6.88.04,1.85,1.51,3.03,1.89,4.47.9,3.42,3.78,3.52,6.13,4.62"/>
  <path class="cls-1" d="M291.1,385.66c-2.92,3.83-6.92,6.09-11.31,7.76"/>
  <path class="cls-1" d="M254.94,400.52h-11.09"/>
  <path class="cls-1" d="M205.93,262.57c.07.07.21.15.21.22-.06,3.99-.14,7.98-.21,11.98"/>
  <path class="cls-1" d="M206.59,306.26c-.15,3.62-.38,7.24-.42,10.87-.04,3.55.13,7.1.19,10.65.02.96,0,1.92,0,2.88"/>
  <path class="cls-1" d="M279.78,378.79c-3.62.44-7.25.89-10.87,1.33"/>
  <path class="cls-1" d="M222.12,372.58v10.2"/>
  <path class="cls-1" d="M297.97,183.61v10.2"/>
  <path class="cls-1" d="M205.26,386.77c2.76,4.56,7.38,6.48,11.98,8.43"/>
  <path class="cls-1" d="M206.82,389.44c-.07,2.51-.14,5.03-.23,7.54-.03.81-.14,1.63-.21,2.44"/>
  <path class="cls-1" d="M206.82,295.17c-.15,1.18-.34,2.36-.43,3.55-.18,2.14-.3,4.29-.45,6.43"/>
  <path class="cls-1" d="M268.69,387.22v7.54h-2.66"/>
  <path class="cls-1" d="M206.37,284.08c-.15,3.33-.3,6.65-.44,9.98"/>
  <path class="cls-1" d="M301.3,404.52c-2.69,3.46-5.69,6.57-9.54,8.31v11.21"/>
  <path class="cls-1" d="M278.45,418.93c.07,3.25.15,6.51.22,9.76"/>
  <path class="cls-1" d="M292.87,305.82c.07,2.37.14,4.73.23,7.1.03.81.14,1.63.22,2.44"/>
  <path class="cls-1" d="M297.97,389.88c.24,3.62-2.27,5.71-4.45,7.97-.36.38-.88.6-1.32.9"/>
  <path class="cls-1" d="M329.91,351.29v9.32"/>
  <path class="cls-1" d="M222.12,419.82c-.07,3.03-.15,6.06-.22,9.09"/>
  <path class="cls-1" d="M291.76,399.42c.07,4.36.15,8.72.22,13.09"/>
  <path class="cls-1" d="M206.59,415.16v8.87"/>
  <path class="cls-1" d="M292.87,284.53c.07,2.51.14,5.03.23,7.54.03.81.14,1.63.21,2.44"/>
  <path class="cls-1" d="M296.64,329.11c-1.25.75-2.51,1.49-3.77,2.25.22,2.93.44,5.88.67,8.84"/>
  <path class="cls-1" d="M268.69,316.02v10.65"/>
  <path class="cls-1" d="M265.15,400.08c-2.81.15-5.62.3-8.43.44"/>
  <path class="cls-1" d="M206.82,340.86c-.07,3.7-.19,7.39-.21,11.09-.04,5.17,0,10.35,0,15.53"/>
  <path class="cls-1" d="M206.59,331.55c-.15,2.74-.3,5.47-.44,8.21"/>
  <path class="cls-1" d="M198.83,310.81c1.96,2.57,4.16,4.86,7.1,6.32"/>
  <path class="cls-1" d="M222.12,406.51v12.64"/>
  <path class="cls-1" d="M301.52,365.48c-2.66.81-5.32,1.63-7.98,2.44"/>
  <path class="cls-1" d="M268.69,305.38c.07,2.59.15,5.18.22,7.76"/>
  <path class="cls-1" d="M293.09,319.57c.07,2.59.15,5.18.22,7.76"/>
  <path class="cls-1" d="M293.09,343.52v7.98"/>
  <path class="cls-1" d="M267.36,345.08c-2.51.15-5.03.3-7.54.44"/>
  <path class="cls-1" d="M187.52,120.85v7.79c-1.75,1.48-3.76,3.17-5.77,4.86"/>
  <path class="cls-1" d="M276.68,314.03c-1.7.3-3.4.59-5.1.89-.81.14-1.63.29-2.44.44"/>
  <path class="cls-1" d="M293.54,296.73c-.15.22-.43.45-.42.66.11,2.44.27,4.88.42,7.32"/>
  <path class="cls-1" d="M257.16,345.96h-7.1"/>
  <path class="cls-1" d="M318.82,361.05v6.65"/>
  <path class="cls-1" d="M293.09,262.13c1.7.81,3.4,1.63,4.93,2.36.13,2.52.26,4.96.39,7.4"/>
  <path class="cls-1" d="M233.21,294.95c-2.07-.3-4.14-.59-6.21-.89"/>
  <path class="cls-1" d="M230.55,306.04v6.21"/>
  <path class="cls-1" d="M230.55,328.22v6.21"/>
  <path class="cls-1" d="M230.55,339.31v6.21"/>
  <path class="cls-1" d="M268.69,360.16v6.21"/>
  <path class="cls-1" d="M266.48,399.64h2.22v6.21"/>
  <path class="cls-1" d="M268.69,373.91v9.76"/>
  <path class="cls-1" d="M268.69,421.37v7.1"/>
  <path class="cls-1" d="M299.3,339.31c-2,1.18-3.99,2.37-5.99,3.55"/>
  <path class="cls-1" d="M256.72,395.65h-5.77"/>
  <path class="cls-1" d="M206.82,367.92c-.07,3.18-.17,6.36-.21,9.54-.04,2.96,0,5.91,0,8.87"/>
  <path class="cls-1" d="M296.2,426.7c-1.55.89-3.11,1.77-4.57,2.61.12,1.97.24,3.89.35,5.82"/>
  <path class="cls-1" d="M268.69,437.12v5.54"/>
  <path class="cls-1" d="M230.55,316.69v5.32"/>
  <path class="cls-1" d="M268.47,349.96c.07,1.77.15,3.55.22,5.32"/>
  <path class="cls-1" d="M203.93,417.82v5.32"/>
  <path class="cls-1" d="M285.99,417.82c-1.77.59-3.55,1.18-5.32,1.77"/>
  <path class="cls-1" d="M206.37,276.1c.07,1.7.15,3.4.22,5.1"/>
  <path class="cls-1" d="M313.72,130.38c1.55,1.18,3.11,2.37,4.66,3.55"/>
  <path class="cls-1" d="M302.18,268.56c-1.26-1.18-2.51-2.37-3.77-3.55"/>
  <path class="cls-1" d="M217.68,312.7c-1.48-.44-2.96-.89-4.44-1.33"/>
  <path class="cls-1" d="M232.76,399.19c-1.48-.15-2.96-.3-4.44-.44"/>
  <path class="cls-1" d="M239.86,380.56h-3.99"/>
  <path class="cls-1" d="M208.81,272.33c1.18,1.04,2.37,2.07,3.55,3.11"/>
  <path class="cls-1" d="M292.43,276.1c.07,1.85.15,3.7.22,5.54"/>
  <path class="cls-1" d="M273.13,286.97c-1.18.15-2.37.3-3.55.44"/>
  <path class="cls-1" d="M152.92,151.23v3.55"/>
  <path class="cls-1" d="M178.2,364.15v3.55"/>
  <path class="cls-1" d="M326.8,165.87v3.55"/>
  <path class="cls-1" d="M222.12,364.59v3.55"/>
  <path class="cls-1" d="M282.89,368.14c-1.18.15-2.37.3-3.55.44"/>
  <path class="cls-1" d="M253.17,324.23h-3.55"/>
  <path class="cls-1" d="M237.2,399.64h-3.55"/>
  <path class="cls-1" d="M270.03,344.63h-1.38c.09.83.18,1.63.27,2.44"/>
  <path class="cls-1" d="M242.08,400.08h-3.55"/>
  <path class="cls-1" d="M305.51,173.63v3.33"/>
  <path class="cls-1" d="M276.68,397.42c-1.04.3-2.07.59-3.11.89"/>
  <path class="cls-1" d="M201.71,264.79c-1.04.74-2.07,1.48-3.11,2.22"/>
  <path class="cls-1" d="M290.87,415.61c-1.04.44-2.07.89-3.11,1.33"/>
  <path class="cls-1" d="M233.65,380.12h-3.11"/>
  <path class="cls-1" d="M230.99,256.8v3.11"/>
  <path class="cls-1" d="M181.31,134.38c-.74.89-1.48,1.77-2.22,2.66"/>
  <path class="cls-1" d="M203.93,413.39v2.66"/>
  <path class="cls-1" d="M268.69,412.5v2.66"/>
  <path class="cls-1" d="M266.48,300.72h-2.66"/>
  <path class="cls-1" d="M262.93,301.16h-2.66"/>
  <path class="cls-1" d="M316.16,361.05l-2.66,1.33"/>
  <path class="cls-1" d="M245.63,395.2h-2.66"/>
  <path class="cls-1" d="M220.79,396.53c-.89-.3-1.77-.59-2.66-.89"/>
  <path class="cls-1" d="M268.69,395.65v2.66"/>
  <path class="cls-1" d="M260.27,323.79h-2.66"/>
  <path class="cls-1" d="M242.08,343.75h-2.66"/>
  <path class="cls-1" d="M263.82,395.2h-2.66"/>
  <path class="cls-1" d="M291.54,426.47c.15.81.3,1.63.44,2.44"/>
  <path class="cls-1" d="M268.69,444.88v2.22"/>
  <path class="cls-1" d="M279.78,313.14c-.74.15-1.48.3-2.22.44"/>
  <path class="cls-1" d="M219.46,410.28c-.74-.15-1.48-.3-2.22-.44"/>
  <path class="cls-1" d="M268.69,408.07v2.22"/>
  <path class="cls-1" d="M201.71,327.78c.74.59,1.48,1.18,2.22,1.77"/>
  <path class="cls-1" d="M297.97,176.52v2.22"/>
  <path class="cls-1" d="M263.37,380.56h-2.22"/>
  <path class="cls-1" d="M253.17,335.32h-2.22"/>
  <path class="cls-1" d="M288.21,271.89c-.59.74-1.18,1.48-1.77,2.22"/>
  <path class="cls-1" d="M215.46,276.77c-.74-.3-1.48-.59-2.22-.89"/>
  <path class="cls-1" d="M211.47,299.39c-.74-.3-1.48-.59-2.22-.89"/>
  <path class="cls-1" d="M230.55,296.73v2.22"/>
  <path class="cls-1" d="M292.87,328.89c.15.67.3,1.33.44,2"/>
  <path class="cls-1" d="M292.87,316.91c.15.67.3,1.33.44,2"/>
  <path class="cls-1" d="M201.71,293.62c.59.59,1.18,1.18,1.77,1.77"/>
  <path class="cls-1" d="M291.32,403.19c-.59.44-1.18.89-1.77,1.33"/>
  <path class="cls-1" d="M297.97,167.2v1.77"/>
  <path class="cls-1" d="M294.87,400.08c-.59.59-1.18,1.18-1.77,1.77"/>
  <path class="cls-1" d="M346.32,153.45v1.77"/>
  <path class="cls-1" d="M164.9,152.12v1.77"/>
  <path class="cls-1" d="M268.69,367.26v1.77"/>
  <path class="cls-1" d="M219.01,371.69h-1.77"/>
  <path class="cls-1" d="M208.81,309.15c.59.3,1.18.59,1.77.89"/>
  <path class="cls-1" d="M268.69,313.58v2"/>
  <path class="cls-1" d="M240.31,394.76h-1.77"/>
  <path class="cls-1" d="M201.71,339.75c.59.44,1.18.89,1.77,1.33"/>
  <path class="cls-1" d="M230.55,299.83c.44.15.89.3,1.33.44"/>
  <path class="cls-1" d="M268.69,370.8v1.55"/>
  <path class="cls-1" d="M221.9,410.73h-1.55"/>
  <path class="cls-1" d="M190.62,351.29l1.33,1.33"/>
  <path class="cls-1" d="M215.02,408.95c-.44-.15-.89-.3-1.33-.44"/>
  <path class="cls-1" d="M223.45,372.14h-2.66"/>
  <path class="cls-1" d="M323.26,357.05c-.44.3-.89.59-1.33.89"/>
  <path class="cls-1" d="M210.59,343.75c-.44-.15-.89-.3-1.33-.44"/>
  <path class="cls-1" d="M165.78,148.13c-.15.44-.3.89-.44,1.33"/>
  <path class="cls-1" d="M305.51,332.66c.15.44.3.89.44,1.33"/>
  <path class="cls-1" d="M309.06,343.3c-.3.44-.59.89-.89,1.33"/>
  <path class="cls-1" d="M288.21,274.99c-.3.15-.59.3-.89.44"/>
  <path class="cls-1" d="M293.98,318.46c-.74.44-1.48.89-2.22,1.33"/>
  <path class="cls-1" d="M317.93,360.16c-.3.15-.59.3-.89.44"/>
  <path class="cls-1" d="M230.55,286.97c.15.15.3.3.44.44"/>
</svg>