<?xml version="1.0" encoding="UTF-8"?>
<svg id="icons" xmlns="http://www.w3.org/2000/svg" viewBox="0 0 500 500">
  <defs>
    <style>
      .cls-1 {
        fill: none;
        stroke: #000;
        stroke-linecap: round;
        stroke-linejoin: round;
        stroke-width: .86px;
      }
    </style>
  </defs>
  <path class="cls-1" d="M323.17,218.24c6.38-3.71,12.73-7.47,19.19-11.03,1.74-.96,3.3-2.27,4.75-3.66,1.28-1.23.55-3.04,1.07-4.52.16-.45.02-1,.02-1.5,0-27.9,0-55.81,0-83.71,0-2.32-.14-4.65-.67-6.9-.82-3.42-3.15-5.64-5.99-7.6-5.71-3.92-11.97-6.86-17.95-10.28-8.42-4.81-16.79-9.7-25.22-14.5-8.65-4.93-17.18-10.06-25.87-14.93-5.17-2.9-10.25-5.93-15.55-8.61-3.84-1.95-7.77-3.1-12.1-2.56-1.61.2-3.1.83-4.52,1.53-6.29,3.09-12.49,6.39-18.81,9.4-3.11,1.48-3.88,3.72-3.86,6.76.04,7.98.16,15.97-.01,23.95-.44,19.92-.45,39.84-.39,59.76.01,4.32,1.69,7.78,5.81,9.71"/>
  <path class="cls-1" d="M160.06,292.24c-1.15.42-1.86,1.51-3.01,1.96-.86.34-.65,1.21-.65,1.92,0,9.49-.28,19,.05,28.48.78,21.94.15,43.87.36,65.81.04,4.38,1.48,7.76,5.39,10.18,8.72,5.42,17.55,10.65,26.38,15.87,12.93,7.65,25.84,15.33,38.79,22.94,4.67,2.74,9.3,5.54,14.01,8.22,1.93,1.1,3.19.8,5.04-.38,4.12-2.62,8.38-5.06,12.64-7.48,2.47-1.41,5.04-2.82,6.55-5.53.66-1.2,1.09-2.44,1.2-3.7.32-3.58.56-7.17.5-10.78-.1-5.9.16-11.8-.06-17.69-.82-21.65-.2-43.3-.37-64.94-.02-2.19-.43-3.96-2.83-4.51-1.05-.24-1.65-1.34-2.8-1.31"/>
  <path class="cls-1" d="M219.39,61.17c5.34,2.78,10.78,5.36,15.95,8.44,8.2,4.87,16.51,9.55,24.87,14.14,9.77,5.37,19.39,10.99,29.06,16.52,9.96,5.7,19.94,11.35,29.82,17.19,3.44,2.03,3.79,5.3,3.84,8.66.1,6.9.03,13.81.03,20.71,0,20.5,0,40.99,0,61.49,0,.79.15,1.61-.21,2.37"/>
  <path class="cls-1" d="M340.65,208.75c.4,5.12.18,10.21-.39,15.32-.67,5.97-2.17,11.7-4.37,17.25-2.27,5.71-5.54,10.81-9.44,15.57-6.34,7.72-14.46,13.08-22.9,18.11-9.42,5.62-19.19,10.62-28.29,16.79-5.91,4.01-10.36,9.1-12.47,16-.94,3.07-1.55,6.22-1.58,9.48-.03,3.88-.68,7.76-.37,11.65.23,2.88-.51,5.79.41,8.63"/>
  <path class="cls-1" d="M337.41,211.77c.12,11.06-1.93,21.6-7.08,31.52-4.43,8.52-10.68,15.3-18.37,20.92-7.9,5.78-16.61,10.19-25.02,15.12-6.09,3.58-12.38,6.83-17.75,11.58-4.59,4.05-7.4,9.02-9.53,14.68-2.85,7.58-3.23,15.42-3.37,23.33-.06,3.09,0,6.18,0,9.28"/>
  <path class="cls-1" d="M222.84,161.71c-.79.59-.43,1.44-.41,2.16.12,5.37-.26,10.73-1.39,15.95-1.28,5.9-4.2,11.09-8.09,15.79-6.69,8.08-14.55,14.95-22.28,21.95-8.86,8.03-16.41,17-21.53,27.87-3.46,7.35-6.02,14.97-7.18,23.07-1,7.03-1.25,14.08-1.26,21.15,0,2.16-.63,4.34.22,6.47"/>
  <path class="cls-1" d="M226.51,164.73c-.14,6.1-.18,12.19-1.92,18.13-1.55,5.3-4.01,10.06-7.34,14.46-8.04,10.65-18.73,18.67-27.85,28.25-4.1,4.31-7.82,8.93-11.22,13.8-5.5,7.87-9.18,16.54-11.18,25.9-.8,3.76-1.29,7.57-1.64,11.42-.54,5.97-.36,11.98-1.22,17.91-.16,1.12.6,2.13.23,3.24"/>
  <path class="cls-1" d="M343.02,107.34c-1.14-2.02-2.62-3.59-4.72-4.79-10.07-5.76-20.25-11.31-30.28-17.13-9.83-5.71-19.67-11.43-29.5-17.14-6.27-3.64-12.61-7.16-18.79-10.97-2.91-1.79-5.87-3.57-9.27-4.33-3.38-.76-6.63-.31-9.71,1.29"/>
  <path class="cls-1" d="M229.53,156.96c5.98,3.08,11.85,6.37,17.69,9.71,9.91,5.65,19.78,11.39,29.54,17.28,10.38,6.27,20.92,12.26,31.32,18.5,4.5,2.7,9.12,5.22,13.58,8,.91.57,1.9.67,3.03.06,2.1-1.13,4.15-2.34,6.24-3.49"/>
  <path class="cls-1" d="M343.02,110.79c.98,24.3.28,48.62.35,72.92.02,6.03.15,12.09-.36,18.12-.03.32.26.84-.42.86"/>
  <path class="cls-1" d="M282.82,132.8c2.67.7,5.48,1.07,7.76,2.81,7.35,5.63,12,12.87,12.92,22.22.31,3.11-.54,6.07-2.36,8.61-3.36,4.68-8.99,4.23-13.31.82-7.92-6.25-11.49-14.72-10.98-24.75.17-3.33,1.31-6.52,4.02-8.86.46-.4.95-.58,1.52-.64"/>
  <path class="cls-1" d="M169.34,348.77c-4.24,1.26-6.46,4.16-6.92,8.63-1.13,10.97,3.52,19.31,12.17,25.36,4.84,3.38,8.86,3.25,12.6-.38,2.83-2.74,3.44-6.56,2.8-10.29-1.66-9.73-6.78-17.16-15.47-22.03-1.5-.84-3.16-.77-4.75-1.07"/>
  <path class="cls-1" d="M262.76,341.65c-.2,29.49-.06,58.97-.43,88.46"/>
  <path class="cls-1" d="M160.49,301.09c-.6,1.8.05,3.59.04,5.39-.08,8.92-.21,17.84,0,26.75.25,10.57-.08,21.15.22,31.72.23,8.2.05,16.4.17,24.6"/>
  <path class="cls-1" d="M324.9,123.74v85.01"/>
  <path class="cls-1" d="M223.22,161.27c4.4,2.89,9.03,5.39,13.6,7.97,7.21,4.06,14.34,8.27,21.56,12.33,6.93,3.9,13.69,8.11,20.72,11.85,6.61,3.51,12.8,7.75,19.45,11.16,2.71,1.39,5.3,3.03,8.1,4.3,1.71.77,3.37,2.02,5.02,3.11,2.53,1.69,7.02,4.3,9.84,5.32,3.6,1.3,1.4,7.99,1.45,11.2"/>
  <path class="cls-1" d="M317.56,123.31c.43.21.86.43,1.27.63.08,3.75.17,7.5.19,11.23.1,21.57.05,43.15.05,64.73,0,2.23,0,4.46,0,6.69"/>
  <path class="cls-1" d="M157.69,294.83c8.51,4.05,16.4,9.2,24.62,13.76,9.76,5.41,19.2,11.35,28.89,16.87,9.94,5.66,19.85,11.35,29.76,17.08.39.23.73.12,1.09.19"/>
  <path class="cls-1" d="M169.99,309.72c13.83,7.27,27.26,15.26,40.78,23.09,8.67,5.02,17.3,10.1,26.1,14.9,1.84,1,3.57,2.2,5.18,3.14v24.04"/>
  <path class="cls-1" d="M258.01,283.83c-2.54,2.35-4.2,5.34-6.04,8.2-3.76,5.85-6.28,12.22-7.74,18.99-.59,2.76-.96,5.61-1.04,8.41-.22,7.48-.61,14.95-.72,22.44-.03,2.33,3.62,4.63,5.6,3.43,3.2-1.94,6.43-3.81,9.68-5.66,2.84-1.61,5.76-3.02,8.67-4.47"/>
  <path class="cls-1" d="M301.59,167.75c2.56-2.04,5.4-3.7,7.16-6.67,1.97-3.33,2.85-6.64,2.21-10.61-1.01-6.26-3.83-11.44-8.32-15.7-3.68-3.5-8.04-5.82-13.34-5.16-2.49.31-5.27.44-6.69,3.18"/>
  <path class="cls-1" d="M255.21,137.98c3.27-1.22,5.8-3.24,7.35-6.47,3.05-6.38,1.66-12.54-1.4-18.3-2.34-4.41-6.01-7.89-10.71-9.95-3.93-1.72-7.91-1.46-11.6.69-.88.52-2.23.6-2.63,1.87"/>
  <path class="cls-1" d="M190.27,381.78c2.8-1.69,5.69-3.33,7.1-6.48,2.08-4.61,1.72-9.35.21-14.01-2.09-6.43-6.24-11.4-11.64-15.3-4.7-3.4-12.43-2.31-16.37,2.15-.11.12-.01.42-.01.64"/>
  <path class="cls-1" d="M236.22,106.05c-5.48,1.62-7.28,5.1-7.27,10.79.02,9.9,3.67,18.18,12.25,23.7,4.78,3.08,10.16,2.44,13.1-1.51,2.05-2.76,2.56-6.16,2.14-9.46-1.08-8.56-5.34-15.34-12.23-20.51-2.33-1.74-5.01-2.45-7.78-3.01"/>
  <path class="cls-1" d="M206.02,388.47c.49,4.55,2.1,8.59,5.39,11.87,1.44,1.44,3.2,2.22,5.18,2.6,2.77.53,4.61-.74,4.5-3.46-.25-6.6-3.31-11.67-9.06-14.83-3.54-1.94-6.15-.5-5.79,3.61"/>
  <path class="cls-1" d="M219.39,411.55c7.97-.64,9.94-7.58,8.54-14-1.72-7.89-5.6-14.71-12.45-19.39-1.78-1.22-3.78-2.12-5.99-2.73-5.02-1.38-7.46,1.6-8.69,5.26-1.65,4.92-1.1,9.81.56,14.43,2.1,5.88,5.43,11.03,11.11,14.31,2.12,1.22,4.34,1.83,6.71,2.12"/>
  <path class="cls-1" d="M322.95,229.03c-1.12,6.88-4.8,12.27-9.44,17.31-5.13,5.57-11.43,9.42-17.74,13.33-5.15,3.2-10.56,5.94-15.75,9.05"/>
  <path class="cls-1" d="M314.97,121.58c-7.28-4.26-14.49-8.65-21.95-12.63-3.26-1.74-6.64-3.32-9.75-5.31-3.97-2.54-8.21-4.59-12.32-6.87-5.11-2.82-10.2-5.66-15.2-8.69-4.9-2.97-9.97-5.77-14.99-8.6-6.12-3.46-12.11-7.14-18.21-10.88-.79.69-.79,1.58-.79,2.48,0,12.23,0,24.45,0,36.68,0,9.57,0,19.13,0,28.7,0,4.41-.18,8.82.87,13.16"/>
  <path class="cls-1" d="M245.93,402.71c.35.69.21,1.43.21,2.16,0,12.37,0,24.74.03,37.11,0,1.1-.34,2.15-.24,3.24"/>
  <path class="cls-1" d="M273.55,99.57v40.13"/>
  <path class="cls-1" d="M246.79,351.14c-.75-.17-.89.11-.89.86.03,3.96.03,7.91.02,11.87,0,6.69-.16,28.71-.02,35.39"/>
  <path class="cls-1" d="M174.3,313.6c.91.48.4,1.31.41,1.94.04,9.56.02,19.13.04,28.7"/>
  <path class="cls-1" d="M222.44,411.21c9.11.33,14.11-9.58,13.22-18.97-.47-5.02-4.79-12.12-5.45-13.08-3.02-4.34-7-7.38-11.9-9.25-2.83-1.08-5.45-.12-7.97,1.09-1.54.74-2.85,1.92-4.35,2.74-.69.38-.6.81-.62,1.34"/>
  <path class="cls-1" d="M252.83,312.74c-.42,5.82-.95,11.63-1.14,17.47-.13,3.82-.02,7.63-.15,11.44"/>
  <path class="cls-1" d="M226.94,304.97c-.35,3.45-.8,6.89-1.1,10.35-.09,1.08-.24,2.15-.19,3.24.21,4.54-.74,9.05-.44,13.59"/>
  <path class="cls-1" d="M185.09,276.06c-1.82,7.52-3.5,15.07-3.45,22.87"/>
  <path class="cls-1" d="M329.21,114.68c2.94,1.08,3.88,3.19,3.72,6.26-.26,5.1.33,10.21.16,15.32"/>
  <path class="cls-1" d="M248.09,309.72c-.15,4.77-1.06,9.47-1.32,14.24-.34,6.26-.09,12.52-.19,18.77-.01.94.07,1.89-.22,2.8"/>
  <path class="cls-1" d="M175.59,279.94c.33,3.19-.26,6.35-.55,9.48-.41,4.48-.14,8.93-.32,13.39"/>
  <path class="cls-1" d="M235.14,315.76c.76.76.51,1.75.4,2.58-.78,5.88-.89,11.78-.85,17.7,0,.64.28,1.34-.2,1.94"/>
  <path class="cls-1" d="M242.26,405.94v9.49c0,6.54-.08,13.09.04,19.63.05,2.66.17,5.32.18,7.98"/>
  <path class="cls-1" d="M191.56,286.85c-.48,3.73-.88,7.48-1.22,11.23-.39,4.29-.78,8.61-.51,12.94"/>
  <path class="cls-1" d="M237.3,171.2c.26,4.67-.64,9.23-1.29,13.81"/>
  <path class="cls-1" d="M250.25,178.97c-.02,4.18.13,8.36-.43,12.51"/>
  <path class="cls-1" d="M332.66,191.48c.43,4.02-.45,8.07.22,12.08"/>
  <path class="cls-1" d="M215.29,315.76v10.36"/>
  <path class="cls-1" d="M277.86,270.23c-2.55,1.05-4.79,2.65-7.12,4.1-.9.56-1.76,1.22-2.81,1.51"/>
  <path class="cls-1" d="M272.68,191.48c.22,3.32-.25,6.62-.43,9.92"/>
  <path class="cls-1" d="M295.99,205.72v8.63"/>
  <path class="cls-1" d="M288.65,256.64c-2.59,1.29-5.18,2.59-7.77,3.88"/>
  <path class="cls-1" d="M280.45,252.33c-2.47,1.1-4.73,2.65-7.34,3.45"/>
  <path class="cls-1" d="M238.16,304.11c-.26,2.33-1.31,4.52-1.29,6.9"/>
  <path class="cls-1" d="M160.92,304.32c1.86,1.1,3.59,2.41,5.61,3.24"/>
  <path class="cls-1" d="M302.89,262.68c-1.82.85-3.28,2.31-5.18,3.02"/>
  <path class="cls-1" d="M296.42,239.81c-1.26,1.62-2.7,3.06-4.32,4.32"/>
  <path class="cls-1" d="M221.33,208.31c-1.26,1.62-2.7,3.06-4.32,4.32"/>
  <path class="cls-1" d="M284.98,142.29c-2.75,1.67-2.55,4.27-2.15,6.9.72,4.81,2.96,8.62,7.33,11,1.54.84,3.31,1.18,4.69.15,1.35-1.01,1.46-2.69,1.18-4.47-.79-5.13-2.86-9.43-7.16-12.51-1.11-.79-2.33-1.11-3.67-1.07"/>
  <path class="cls-1" d="M171.71,356.97c-3.16.36-3.59,2.02-3.66,4.53-.18,5.81,2.39,10.21,7.15,13.33,1.14.75,2.62,1.11,4.07,1.12,2.43.02,3.97-2.35,3.44-5.39-.78-4.51-2.86-8.34-6.25-11.43-1.29-1.18-2.85-1.8-4.53-2.16"/>
  <path class="cls-1" d="M237.52,114.68c-3.1,1.06-2.83,3.71-2.53,6.03.67,5.24,3.25,9.41,7.94,12.07.64.36,1.44.44,2.14.69,2.06.72,4.33-.27,4.53-3.26.34-5.25-4.2-13.11-9.91-15.32-.64-.25-1.29-.2-1.94-.21"/>
</svg>