<svg width="500" height="500" viewBox="0 0 500 500" fill="none" xmlns="http://www.w3.org/2000/svg">
<path d="M318.277 120.067C318.257 195.587 318.277 271.107 318.227 346.627C318.227 348.077 318.647 348.867 319.837 349.627C321.767 350.867 323.687 352.127 325.547 353.487C326.477 354.167 327.297 354.207 328.307 353.717C329.017 353.377 334.067 351.617 334.677 351.227" stroke="#2071B5" stroke-width="4.21" stroke-linecap="round" stroke-linejoin="round"/>
<path d="M147.301 159.285C147.841 240.125 147.201 320.965 147.761 401.795" stroke="#2071B5" stroke-width="4.21" stroke-linecap="round" stroke-linejoin="round"/>
<path d="M359.725 128.283C357.205 128.523 354.845 129.413 352.425 130.063C350.995 130.453 351.545 131.413 351.545 132.153C351.515 142.943 351.525 153.733 351.525 164.523C351.525 167.483 351.565 170.453 351.505 173.413C351.475 174.973 351.525 176.433 350.725 178.033C349.605 180.283 351.575 182.333 354.015 181.573C357.845 180.383 361.785 179.643 365.665 178.693C376.305 176.103 386.865 173.213 397.565 170.903C400.705 170.223 403.775 169.293 406.915 168.673C408.155 168.433 408.545 168.023 408.515 166.803C408.105 149.713 408.325 132.613 408.275 115.523C408.275 115.373 408.275 115.223 407.715 114.853C404.375 115.393 400.875 116.473 397.315 117.333C390.935 118.873 384.555 120.373 378.175 121.923C369.745 123.973 361.365 126.253 352.875 128.103C352.575 128.163 352.265 128.263 351.955 128.293C350.265 128.433 349.585 129.163 349.635 131.033C350.015 145.843 349.905 160.663 349.915 175.473C349.915 176.223 349.735 177.053 350.595 177.523" fill="#FFDA00" fill-opacity="0.7"/>
<path d="M359.725 128.283C357.205 128.523 354.845 129.413 352.425 130.063C350.995 130.453 351.545 131.413 351.545 132.153C351.515 142.943 351.525 153.733 351.525 164.523C351.525 167.483 351.565 170.453 351.505 173.413C351.475 174.973 351.525 176.433 350.725 178.033C349.605 180.283 351.575 182.333 354.015 181.573C357.845 180.383 361.785 179.643 365.665 178.693C376.305 176.103 386.865 173.213 397.565 170.903C400.705 170.223 403.775 169.293 406.915 168.673C408.155 168.433 408.545 168.023 408.515 166.803C408.105 149.713 408.325 132.613 408.275 115.523C408.275 115.373 408.275 115.223 407.715 114.853C404.375 115.393 400.875 116.473 397.315 117.333C390.935 118.873 384.555 120.373 378.175 121.923C369.745 123.973 361.365 126.253 352.875 128.103C352.575 128.163 352.265 128.263 351.955 128.293C350.265 128.433 349.585 129.163 349.635 131.033C350.015 145.843 349.905 160.663 349.915 175.473C349.915 176.223 349.735 177.053 350.595 177.523" stroke="#2071B5" stroke-width="4.21" stroke-linecap="round" stroke-linejoin="round"/>
<path d="M394.378 354.386C393.858 349.856 391.468 348.446 388.878 349.286C377.918 352.806 366.858 356.026 355.838 359.356C344.288 362.846 332.758 366.386 321.218 369.916C312.168 372.686 303.138 375.556 294.068 378.266C281.398 382.056 268.678 385.686 256.038 389.546C246.158 392.566 236.268 395.556 226.398 398.646C215.088 402.186 203.768 405.656 192.418 409.076C188.508 410.256 184.268 416.536 183.678 421.386C183.258 424.816 185.488 435.916 184.518 439.186" stroke="#2071B5" stroke-width="4.21" stroke-linecap="round" stroke-linejoin="round"/>
<path d="M326.896 121.452C327.376 122.172 327.106 122.972 327.106 123.732C327.126 138.092 327.126 152.452 327.126 166.812C327.126 218.552 327.096 270.292 327.166 322.032C327.166 327.572 327.296 333.132 327.226 338.672C327.146 344.742 327.776 347.972 327.126 354.042" stroke="#2071B5" stroke-width="4.21" stroke-linecap="round" stroke-linejoin="round"/>
<path d="M334.897 122.525C334.897 180.575 334.967 238.535 334.857 296.505C334.827 314.735 334.677 332.975 334.677 351.205" stroke="#2071B5" stroke-width="4.21" stroke-linecap="round" stroke-linejoin="round"/>
<path d="M142.274 150.149C145.004 152.029 147.464 154.339 150.704 155.389C151.274 155.569 151.344 155.949 151.434 156.519C151.574 157.439 151.614 158.349 151.614 159.259C151.614 172.859 151.614 186.459 151.614 200.059V404.959" stroke="#2071B5" stroke-width="4.21" stroke-linecap="round" stroke-linejoin="round"/>
<path d="M187.189 197.118C187.669 197.838 187.399 198.638 187.399 199.398C187.419 264.128 187.409 328.858 187.429 393.588C187.429 394.348 187.159 395.148 187.639 395.868" stroke="#2071B5" stroke-width="4.21" stroke-linecap="round" stroke-linejoin="round"/>
<path d="M238.468 185.041V381.281" stroke="#2071B5" stroke-width="4.21" stroke-linecap="round" stroke-linejoin="round"/>
<path d="M315.957 167.035C315.957 230.245 315.957 293.455 315.957 356.665C315.957 357.505 315.797 358.365 316.177 359.175" stroke="#2071B5" stroke-width="4.21" stroke-linecap="round" stroke-linejoin="round"/>
<path d="M193.102 195.748C193.582 196.468 193.312 197.268 193.312 198.028C193.332 254.248 193.332 310.468 193.332 366.688C193.332 375.118 193.332 383.558 193.332 391.988C193.332 392.748 193.192 393.538 193.552 394.268" stroke="#2071B5" stroke-width="4.21" stroke-linecap="round" stroke-linejoin="round"/>
<path d="M317.791 165.65C311.231 167.12 304.701 168.75 298.171 170.37C291.731 171.96 285.311 173.66 278.811 174.99C277.921 175.17 277.101 175.51 276.301 175.88C276.741 178.56 276.521 181.23 276.521 183.89C276.541 237.22 276.541 290.56 276.541 343.89C276.541 351.87 276.541 359.84 276.541 367.82C276.541 368.58 276.401 369.37 276.761 370.1" stroke="#2071B5" stroke-width="4.21" stroke-linecap="round" stroke-linejoin="round"/>
<path d="M233.445 140.594C233.335 144.324 233.715 148.044 233.655 151.764C233.465 162.174 233.445 172.584 233.445 182.994C233.445 238.004 233.445 293.004 233.445 348.014C233.445 359.184 233.455 370.354 233.395 381.514C233.395 382.044 233.655 382.414 233.665 382.884" stroke="#2071B5" stroke-width="4.21" stroke-linecap="round" stroke-linejoin="round"/>
<path d="M156.86 159.502C156.88 167.252 156.87 175.002 156.87 182.752C156.87 193.612 156.76 204.482 156.89 215.342C157.36 254.312 156.96 293.292 157.1 332.272C157.12 338.732 157.1 345.192 157.1 351.642" stroke="#2071B5" stroke-width="4.21" stroke-linecap="round" stroke-linejoin="round"/>
<path d="M341.711 115.522C340.931 116.062 341.271 116.882 341.271 117.572C341.251 139.302 341.181 161.032 341.291 182.762C341.331 190.582 341.661 198.422 341.421 206.232C341.251 211.862 341.361 217.492 341.381 223.102C341.411 232.062 341.571 241.032 341.451 250.002C341.041 280.692 341.351 311.392 341.311 342.082C341.311 347.092 341.361 343.272 341.371 348.292" stroke="#2071B5" stroke-width="4.21" stroke-linecap="round" stroke-linejoin="round"/>
<path d="M137.728 154.04C137.728 160.88 137.528 167.72 137.778 174.55C138.038 181.62 137.898 188.68 137.938 195.75C137.998 208.74 137.958 221.73 137.958 234.72C137.958 252.57 137.778 270.43 137.998 288.28C138.348 315.78 138.078 343.29 138.158 370.79C138.178 376.41 138.478 382.04 137.958 387.66" stroke="#2071B5" stroke-width="4.21" stroke-linecap="round" stroke-linejoin="round"/>
<path d="M430.026 347.265C430.646 337.745 418.716 342.245 418.646 335.855C418.586 330.835 418.186 308.565 418.186 303.565C418.186 301.235 418.046 298.845 418.496 296.485C418.726 295.245 418.736 293.885 418.306 292.625C417.606 290.565 418.546 288.535 418.486 286.465C418.406 283.445 418.106 280.395 418.286 277.355C418.716 270.295 418.286 263.225 418.316 256.155C418.346 249.165 418.706 242.145 418.416 235.195C417.806 220.825 417.916 206.455 418.226 192.115C418.496 179.495 418.606 166.885 418.476 154.275C418.296 136.195 418.016 118.115 418.106 100.025C418.116 97.1253 415.706 96.5953 413.966 95.4953C400.216 86.8053 386.156 78.6353 372.236 70.2353C364.736 65.7153 357.416 60.8953 349.726 56.6953" stroke="#2071B5" stroke-width="4.21" stroke-linecap="round" stroke-linejoin="round"/>
<path d="M64.9277 351.064C67.1077 353.814 79.1577 366.774 81.6877 369.174C89.5177 376.614 97.6477 383.744 105.378 391.294C114.678 400.384 124.058 409.384 133.418 418.414C136.048 420.954 143.198 429.144 144.948 430.394C148.548 432.984 152.518 432.834 156.418 432.704C161.998 432.524 167.118 430.104 172.358 428.384C175.268 427.434 182.408 425.254 183.088 425.254" stroke="#2071B5" stroke-width="4.21" stroke-linecap="round" stroke-linejoin="round"/>
<path d="M322.348 122.027C322.538 187.517 321.888 250.157 322.348 315.647" stroke="#2071B5" stroke-width="4.21" stroke-linecap="round" stroke-linejoin="round"/>
<path d="M406.674 118.479C406.674 125.239 406.704 131.999 406.674 138.769C406.634 144.929 407.004 151.069 406.954 157.229C406.944 158.969 407.054 160.729 407.154 162.469C407.224 163.569 406.914 164.139 405.764 164.309C398.084 165.459 390.684 167.799 383.174 169.679C376.134 171.439 369.114 173.309 362.004 174.789C358.824 175.449 355.754 176.679 352.434 176.609" stroke="#2071B5" stroke-width="4.21" stroke-linecap="round" stroke-linejoin="round"/>
<path d="M328.732 190.285V282.825" stroke="#2071B5" stroke-width="4.21" stroke-linecap="round" stroke-linejoin="round"/>
<path d="M349.721 56.6842C336.861 46.7842 332.711 50.7542 329.861 50.9642C320.741 51.6342 311.951 54.7242 302.991 56.5542C297.881 57.5942 292.791 58.7642 287.691 59.8042C281.021 61.1642 274.331 62.4642 267.661 63.7942C260.751 65.1642 253.831 66.5042 246.921 67.8842C241.371 68.9942 235.831 70.1742 230.301 71.3642C223.151 72.9042 216.011 74.5042 208.861 76.0842C196.181 78.8742 183.471 81.5042 170.791 84.2742C162.061 86.1842 153.331 88.1242 144.591 90.0142C138.121 91.4142 131.681 93.0042 125.191 94.2142C114.761 96.1642 104.401 98.4842 94.0013 100.544C89.7413 101.394 85.4813 102.304 81.2113 103.164C79.4413 103.524 78.8713 104.684 79.2713 105.914C79.6613 107.114 79.6213 108.214 79.6213 109.364C79.6213 117.574 79.4313 125.784 79.6713 133.974C79.9813 144.684 79.7513 155.404 79.8313 166.114C79.8513 168.244 80.0813 170.214 82.1413 171.334C83.5013 172.084 83.5213 173.234 83.5113 174.544C83.4813 182.294 83.2713 190.054 83.5613 197.794C83.8213 204.934 83.7513 212.084 83.8713 219.224C84.1313 233.654 83.8913 248.094 83.9813 262.524C84.0113 266.704 84.1213 270.884 84.2013 275.064C84.2313 276.494 83.9313 277.444 82.3513 277.574C82.2713 277.574 82.1913 277.554 82.1213 277.574C78.6013 278.554 78.2513 279.004 78.2513 282.814C78.2513 295.274 78.1513 307.734 78.3013 320.194C78.3513 324.524 78.0713 328.894 78.5813 333.174C78.9913 336.604 78.4713 341.094 79.0713 344.484" stroke="#2071B5" stroke-width="4.21" stroke-linecap="round" stroke-linejoin="round"/>
<path d="M415.783 97.5C409.943 99.29 403.963 100.51 398.003 101.82C382.663 105.19 367.373 108.76 352.203 112.81C349.233 113.6 346.173 114.09 343.283 115.23C342.803 115.42 341.983 115.58 341.483 115.04C339.083 112.41 335.703 111.15 333.043 108.89" stroke="#2071B5" stroke-width="4.21" stroke-linecap="round" stroke-linejoin="round"/>
<path d="M405.759 91.1328C380.819 97.8728 355.369 102.593 330.009 109.473C322.979 104.753 315.389 99.7328 307.759 94.7728C296.369 87.3528 285.119 79.7228 273.779 72.2428C270.389 70.0028 266.739 68.1528 263.539 65.6128" stroke="#2071B5" stroke-width="4.21" stroke-linecap="round" stroke-linejoin="round"/>
<path d="M418.529 304.24C425.249 303.11 431.779 301.17 438.369 299.49C440.009 299.07 440.449 298.3 440.439 296.71C440.379 286.68 440.579 276.65 440.339 266.63C440.229 262.15 439.639 257.53 440.189 253.21C440.869 247.94 438.459 245.8 434.509 243.8C429.409 241.22 424.799 237.74 419.689 235.15C419.359 234.98 419.079 234.99 418.759 234.95" fill="#FFDA00" fill-opacity="0.7"/>
<path d="M418.529 304.24C425.249 303.11 431.779 301.17 438.369 299.49C440.009 299.07 440.449 298.3 440.439 296.71C440.379 286.68 440.579 276.65 440.339 266.63C440.229 262.15 439.639 257.53 440.189 253.21C440.869 247.94 438.459 245.8 434.509 243.8C429.409 241.22 424.799 237.74 419.689 235.15C419.359 234.98 419.079 234.99 418.759 234.95" stroke="#2071B5" stroke-width="4.21" stroke-linecap="round" stroke-linejoin="round"/>
<path d="M165.992 85.6572C167.152 87.9772 169.602 88.8772 171.532 90.1072C178.182 94.3372 184.452 99.0772 190.812 103.697C198.682 109.407 206.492 115.207 214.322 120.967C220.332 125.387 226.522 129.567 232.542 133.977C234.212 135.207 235.752 135.547 238.042 135.017C246.312 133.097 254.512 130.827 262.842 129.127C265.292 128.627 267.742 127.907 270.152 127.137" stroke="#2071B5" stroke-width="4.21" stroke-linecap="round" stroke-linejoin="round"/>
<path d="M243.712 68.8027C246.172 71.5127 249.472 73.0827 252.392 75.1627C259.052 79.9027 265.752 84.5927 272.452 89.2927C281.892 95.9127 291.362 102.473 300.922 108.923C305.512 112.023 310.042 115.223 314.802 118.073C315.822 118.683 316.512 119.823 317.792 120.083" stroke="#2071B5" stroke-width="4.21" stroke-linecap="round" stroke-linejoin="round"/>
<path d="M83.7117 102.978C89.4017 108.188 95.8217 112.458 101.932 117.118C108.782 122.338 115.592 127.618 122.482 132.788C131.512 139.568 140.262 146.718 149.582 153.098C150.502 153.728 151.622 154.028 152.532 154.708" stroke="#2071B5" stroke-width="4.21" stroke-linecap="round" stroke-linejoin="round"/>
<path d="M91.6799 263.679V328.409C91.6799 333.649 91.7099 340.919 91.6999 346.159" stroke="#2071B5" stroke-width="4.21" stroke-linecap="round" stroke-linejoin="round"/>
<path d="M134.54 101.158C140.75 106.628 145.08 109.278 151.66 114.268C158 119.078 164.2 124.088 170.52 128.928C176.04 133.148 181.98 136.748 187.65 140.728C189.74 142.198 191.62 143.948 193.81 145.278" stroke="#2071B5" stroke-width="4.21" stroke-linecap="round" stroke-linejoin="round"/>
<path d="M408.497 102.761C404.757 103.201 401.207 104.441 397.557 105.271C387.727 107.511 377.967 110.021 368.167 112.401C360.937 114.161 353.667 115.801 346.497 117.801C346.217 117.881 345.887 117.811 345.587 117.811" stroke="#2071B5" stroke-width="4.21" stroke-linecap="round" stroke-linejoin="round"/>
<path d="M87.5717 113.244C87.6517 113.244 87.7317 113.224 87.8017 113.244C92.4317 115.294 91.8817 119.444 91.5917 123.264C91.4617 124.974 91.7117 126.614 91.7117 128.284C91.6717 153.204 91.6817 178.124 91.6817 203.044" stroke="#2071B5" stroke-width="4.21" stroke-linecap="round" stroke-linejoin="round"/>
<path d="M204.962 77.9072C214.662 84.2972 223.982 91.2372 233.492 97.9072C246.782 107.227 259.742 117.007 273.102 126.237C274.352 127.097 275.932 127.527 276.752 128.967" stroke="#2071B5" stroke-width="4.21" stroke-linecap="round" stroke-linejoin="round"/>
<path d="M394.825 91.8277C385.965 87.3277 377.845 81.5877 369.315 76.5277C359.695 70.8277 350.165 64.9977 340.585 59.2177C339.135 58.3477 337.695 57.5077 336.015 57.1777" stroke="#2071B5" stroke-width="4.21" stroke-linecap="round" stroke-linejoin="round"/>
<path d="M91.6487 206.004C91.6787 224.464 91.6787 242.924 91.6787 261.394" stroke="#2071B5" stroke-width="4.21" stroke-linecap="round" stroke-linejoin="round"/>
<path d="M176.466 95.4624C186.796 103.272 197.576 110.462 207.886 118.302C215.716 124.252 223.686 130.012 231.626 135.802C231.846 135.962 231.926 136.112 231.856 136.262" stroke="#2071B5" stroke-width="4.21" stroke-linecap="round" stroke-linejoin="round"/>
<path d="M195.157 148.577C195.717 151.607 195.327 154.657 195.347 157.697C195.427 169.097 195.367 180.487 195.407 191.887C195.407 192.797 194.967 193.707 195.377 194.627" stroke="#2071B5" stroke-width="4.21" stroke-linecap="round" stroke-linejoin="round"/>
<path d="M79.0274 335.252C83.0874 337.882 86.7074 341.902 90.3074 345.062C100.377 353.892 110.327 362.842 120.017 372.102C125.147 377.002 130.297 381.912 135.897 386.312C136.947 387.142 137.087 386.782 137.967 387.662C137.467 389.732 138.527 395.612 138.867 395.882C142.467 398.662 145.707 401.852 149.537 404.382C151.647 405.772 153.447 405.962 155.757 405.252C164.817 402.492 173.977 400.042 183.097 397.462C195.017 394.092 206.947 390.752 218.887 387.442C226.227 385.402 233.447 382.932 240.767 380.842C250.187 378.162 259.627 375.562 268.997 372.752C278.237 369.982 287.587 367.622 296.837 364.892C304.127 362.742 308.997 361.612 316.207 359.172" stroke="#2071B5" stroke-width="4.21" stroke-linecap="round" stroke-linejoin="round"/>
<path d="M406.689 115.973V118.203C404.319 117.403 404.339 118.903 404.399 120.533C404.919 134.133 404.499 147.733 404.629 161.333C404.629 161.873 404.729 162.433 404.409 162.933" stroke="#2071B5" stroke-width="4.21" stroke-linecap="round" stroke-linejoin="round"/>
<path d="M84.1636 277.577C84.2836 280.617 84.6336 283.647 84.6236 286.697C84.6036 296.877 84.5036 307.057 84.6536 317.237C84.7636 324.307 84.8236 332.647 84.8436 339.717" stroke="#2071B5" stroke-width="4.21" stroke-linecap="round" stroke-linejoin="round"/>
<path d="M403.143 216.715C400.893 214.885 398.363 215.925 396.093 216.335C384.803 218.345 373.703 221.255 362.573 224.015C362.083 224.135 361.783 224.435 361.663 224.925" stroke="#2071B5" stroke-width="4.21" stroke-linecap="round" stroke-linejoin="round"/>
<path d="M424.706 265.225C434.576 263.845 433.856 266.375 433.826 268.455C433.736 275.365 433.766 282.285 433.816 289.195C433.816 290.595 433.646 291.535 431.976 291.735C430.036 291.965 428.316 293.015 426.276 293.125C423.256 293.295 424.736 292.755 424.676 289.685C424.586 285.815 424.666 281.525 424.666 277.655C424.666 274.005 424.716 268.865 424.716 265.215" stroke="#2071B5" stroke-width="4.21" stroke-linecap="round" stroke-linejoin="round"/>
<path d="M276.537 129.42C276.537 143.93 276.537 158.44 276.537 172.95C276.537 173.79 276.377 174.65 276.757 175.46" stroke="#2071B5" stroke-width="4.21" stroke-linecap="round" stroke-linejoin="round"/>
<path d="M315.052 125.996C308.952 127.336 302.882 128.836 296.812 130.316C290.132 131.956 283.482 133.696 276.752 135.106" stroke="#2071B5" stroke-width="4.21" stroke-linecap="round" stroke-linejoin="round"/>
<path d="M233.454 185.959C229.204 186.559 225.074 187.729 220.934 188.759C213.564 190.579 206.194 192.439 198.794 194.099C187.664 196.599 176.614 199.419 165.534 202.149C162.794 202.819 159.984 203.189 157.324 204.189" stroke="#2071B5" stroke-width="4.21" stroke-linecap="round" stroke-linejoin="round"/>
<path d="M276.078 176.155C272.388 176.235 268.918 177.465 265.378 178.265C256.928 180.175 248.548 182.375 240.078 184.215C238.028 184.665 235.888 184.945 233.908 185.725" stroke="#2071B5" stroke-width="4.21" stroke-linecap="round" stroke-linejoin="round"/>
<path d="M232.541 139.675C228.091 140.465 223.741 141.725 219.321 142.615C211.621 144.155 204.021 146.165 196.321 147.735C184.951 150.055 173.651 152.785 162.331 155.335C158.871 156.115 155.481 157.385 151.861 157.455" stroke="#2071B5" stroke-width="4.21" stroke-linecap="round" stroke-linejoin="round"/>
<path d="M328.732 150.616V187.996" stroke="#2071B5" stroke-width="4.21" stroke-linecap="round" stroke-linejoin="round"/>
<path d="M231.864 136.251C228.204 137.331 230.184 136.911 228.204 137.331C221.024 138.861 213.954 140.811 206.794 142.431C202.604 143.381 198.434 144.411 194.254 145.371" stroke="#2071B5" stroke-width="4.21" stroke-linecap="round" stroke-linejoin="round"/>
<path d="M311.394 117.343C304.594 118.843 297.864 120.653 291.094 122.293C286.244 123.463 281.434 124.833 276.524 125.803C275.814 125.943 274.994 126.033 274.464 126.693" stroke="#2071B5" stroke-width="4.21" stroke-linecap="round" stroke-linejoin="round"/>
<path d="M306.384 224.929V260.939" stroke="#2071B5" stroke-width="4.21" stroke-linecap="round" stroke-linejoin="round"/>
<path d="M168.27 93.6406C163.48 94.1306 158.84 95.4206 154.14 96.3706C147.96 97.6106 141.83 99.0906 135.69 100.521C135.32 100.611 134.75 100.661 134.54 101.171" stroke="#2071B5" stroke-width="4.21" stroke-linecap="round" stroke-linejoin="round"/>
<path d="M246.215 76.3228C244.285 75.6928 242.525 76.6828 240.755 77.0728C232.235 78.9328 223.795 81.1228 215.215 82.7028C214.635 82.8128 214.145 83.1528 213.615 83.3828" stroke="#2071B5" stroke-width="4.21" stroke-linecap="round" stroke-linejoin="round"/>
<path d="M209.293 84.9731C203.333 85.6731 197.583 87.3731 191.753 88.6531C186.783 89.7331 181.883 91.1231 176.933 92.2731" stroke="#2071B5" stroke-width="4.21" stroke-linecap="round" stroke-linejoin="round"/>
<path d="M328.732 286.916V319.286" stroke="#2071B5" stroke-width="4.21" stroke-linecap="round" stroke-linejoin="round"/>
<path d="M281.328 313.355V344.805" stroke="#2071B5" stroke-width="4.21" stroke-linecap="round" stroke-linejoin="round"/>
<path d="M134.306 252.957V283.497" stroke="#2071B5" stroke-width="4.21" stroke-linecap="round" stroke-linejoin="round"/>
<path d="M124.962 102.076C114.892 104.636 104.772 107.006 94.6524 109.366" stroke="#2071B5" stroke-width="4.21" stroke-linecap="round" stroke-linejoin="round"/>
<path d="M191.066 145.823C178.716 148.913 164.786 151.173 152.546 154.713" stroke="#2071B5" stroke-width="4.21" stroke-linecap="round" stroke-linejoin="round"/>
<path d="M161.884 124.643C170.644 131.783 181.744 139.483 191.054 145.843" stroke="#2071B5" stroke-width="4.21" stroke-linecap="round" stroke-linejoin="round"/>
<path d="M317.781 120.082C312.111 121.482 267.631 130.852 261.941 132.162C256.931 133.312 251.841 134.142 246.891 135.562C246.541 135.662 246.131 135.572 245.751 135.572" stroke="#2071B5" stroke-width="4.21" stroke-linecap="round" stroke-linejoin="round"/>
<path d="M168.049 422.319C166.969 419.619 164.319 419.399 162.109 418.989C159.279 418.469 156.349 418.399 153.449 419.289C152.129 419.699 150.829 420.129 150.579 421.419C150.299 422.879 151.499 423.679 152.759 424.399C156.569 426.589 160.409 426.259 164.419 425.109C165.989 424.659 167.139 423.999 167.819 422.549" stroke="#2071B5" stroke-width="4.21" stroke-linecap="round" stroke-linejoin="round"/>
<path d="M422.361 344.816C421.281 342.116 418.631 341.896 416.421 341.486C413.591 340.966 410.661 340.896 407.761 341.786C406.441 342.196 405.141 342.626 404.891 343.916C404.611 345.376 405.811 346.176 407.071 346.896C410.881 349.086 414.721 348.756 418.731 347.606C420.301 347.156 421.451 346.496 422.131 345.046" stroke="#2071B5" stroke-width="4.21" stroke-linecap="round" stroke-linejoin="round"/>
<path d="M85.1896 353.889C84.5296 352.239 82.9196 352.109 81.5696 351.859C79.8396 351.539 78.0596 351.499 76.2896 352.039C75.4896 352.289 74.6896 352.549 74.5396 353.339C74.3696 354.229 75.0996 354.719 75.8696 355.159C78.1896 356.499 80.5296 356.299 82.9796 355.589C83.9396 355.309 84.6396 354.909 85.0496 354.029" stroke="#2071B5" stroke-width="4.21" stroke-linecap="round" stroke-linejoin="round"/>
<path d="M375.214 199.612C375.814 203.332 378.204 204.452 381.374 202.592C382.714 201.812 383.794 200.902 384.334 199.392C385.244 196.842 384.754 194.932 382.734 193.462C381.594 192.632 379.094 192.932 377.494 194.152C375.774 195.462 375.344 197.412 374.984 199.392" stroke="#2071B5" stroke-width="4.21" stroke-linecap="round" stroke-linejoin="round"/>
<path d="M157.332 352.558C156.872 369.878 156.872 387.198 156.872 404.528" stroke="#2071B5" stroke-width="4.21" stroke-linecap="round" stroke-linejoin="round"/>
<path d="M356.527 254.109V280.089" stroke="#2071B5" stroke-width="4.21" stroke-linecap="round" stroke-linejoin="round"/>
<path d="M328.732 125.996V149.696" stroke="#2071B5" stroke-width="4.21" stroke-linecap="round" stroke-linejoin="round"/>
<path d="M306.384 273.702V297.402" stroke="#2071B5" stroke-width="4.21" stroke-linecap="round" stroke-linejoin="round"/>
<path d="M187.406 150.149V196.649" stroke="#2071B5" stroke-width="4.21" stroke-linecap="round" stroke-linejoin="round"/>
<path d="M219.326 90.4512C226.436 95.1412 233.146 100.401 240.316 105.011C240.976 105.431 241.326 106.201 242.116 106.411" stroke="#2071B5" stroke-width="4.21" stroke-linecap="round" stroke-linejoin="round"/>
<path d="M137.279 105.951C143.209 110.351 149.159 114.731 155.049 119.171C156.599 120.341 158.079 121.611 159.609 122.811" stroke="#2071B5" stroke-width="4.21" stroke-linecap="round" stroke-linejoin="round"/>
<path d="M100.356 125.545C100.356 132.155 100.336 138.765 100.386 145.375C100.386 146.045 99.8557 146.925 100.816 147.425" stroke="#2071B5" stroke-width="4.21" stroke-linecap="round" stroke-linejoin="round"/>
<path d="M238.919 161.557V183.437" stroke="#2071B5" stroke-width="4.21" stroke-linecap="round" stroke-linejoin="round"/>
<path d="M127.474 254.777V276.197" stroke="#2071B5" stroke-width="4.21" stroke-linecap="round" stroke-linejoin="round"/>
<path d="M439.037 247.494C434.487 249.394 429.627 250.264 424.907 251.614C422.847 252.204 420.717 252.534 418.747 253.424" stroke="#2071B5" stroke-width="4.21" stroke-linecap="round" stroke-linejoin="round"/>
<path d="M306.384 317.916V337.516" stroke="#2071B5" stroke-width="4.21" stroke-linecap="round" stroke-linejoin="round"/>
<path d="M107.648 130.105C113.608 134.625 119.308 139.475 125.428 143.785" stroke="#2071B5" stroke-width="4.21" stroke-linecap="round" stroke-linejoin="round"/>
<path d="M437.463 245.611C431.583 247.451 424.793 249.841 418.763 251.141" stroke="#2071B5" stroke-width="4.21" stroke-linecap="round" stroke-linejoin="round"/>
<path d="M226.625 251.354V265.944" stroke="#2071B5" stroke-width="4.21" stroke-linecap="round" stroke-linejoin="round"/>
<path d="M270.139 71.7593C266.029 72.5593 261.969 73.5793 257.829 74.2793C256.429 74.5193 254.989 74.6593 253.719 75.3993" stroke="#2071B5" stroke-width="4.21" stroke-linecap="round" stroke-linejoin="round"/>
<path d="M306.384 175.688V189.818" stroke="#2071B5" stroke-width="4.21" stroke-linecap="round" stroke-linejoin="round"/>
<path d="M150.538 432.77V448.16" stroke="#2071B5" stroke-width="4.21" stroke-linecap="round" stroke-linejoin="round"/>
<path d="M226.625 268.224V281.904" stroke="#2071B5" stroke-width="4.21" stroke-linecap="round" stroke-linejoin="round"/>
<path d="M306.384 192.107V205.787" stroke="#2071B5" stroke-width="4.21" stroke-linecap="round" stroke-linejoin="round"/>
<path d="M335.562 57.395C331.382 58.605 327.132 59.455 322.802 59.905" stroke="#2071B5" stroke-width="4.21" stroke-linecap="round" stroke-linejoin="round"/>
<path d="M335.237 118.791C332.227 119.381 325.387 121.511 322.367 122.011" stroke="#2071B5" stroke-width="4.21" stroke-linecap="round" stroke-linejoin="round"/>
<path d="M122.899 94.7773C124.409 97.4473 127.419 98.2673 129.579 100.167C131.219 101.617 133.089 102.927 134.979 104.117" stroke="#2071B5" stroke-width="4.21" stroke-linecap="round" stroke-linejoin="round"/>
<path d="M281.328 347.096V359.406" stroke="#2071B5" stroke-width="4.21" stroke-linecap="round" stroke-linejoin="round"/>
<path d="M394.36 354.396C394.87 358.266 394.49 359.185 394.39 363.335" stroke="#2071B5" stroke-width="4.21" stroke-linecap="round" stroke-linejoin="round"/>
<path d="M94.419 340.482C98.319 343.712 101.459 347.732 105.359 350.962" stroke="#2071B5" stroke-width="4.21" stroke-linecap="round" stroke-linejoin="round"/>
<path d="M226.625 239.511V249.991" stroke="#2071B5" stroke-width="4.21" stroke-linecap="round" stroke-linejoin="round"/>
<path d="M264.458 350.738V361.218" stroke="#2071B5" stroke-width="4.21" stroke-linecap="round" stroke-linejoin="round"/>
<path d="M127.708 145.604C132.838 149.334 137.608 153.524 142.748 157.224C144.838 158.734 147.078 159.334 149.588 158.364" stroke="#2071B5" stroke-width="4.21" stroke-linecap="round" stroke-linejoin="round"/>
<path d="M106.278 351.89C109.668 354.88 112.938 357.99 116.308 361.01" stroke="#2071B5" stroke-width="4.21" stroke-linecap="round" stroke-linejoin="round"/>
<path d="M253.51 140.594C250.85 140.754 248.31 141.534 245.77 142.234C245.13 142.414 244.54 142.294 243.93 142.414" stroke="#2071B5" stroke-width="4.21" stroke-linecap="round" stroke-linejoin="round"/>
<path d="M264.909 198.938V207.598" stroke="#2071B5" stroke-width="4.21" stroke-linecap="round" stroke-linejoin="round"/>
<path d="M219.317 149.247C216.837 149.427 214.527 150.527 212.027 150.617" stroke="#2071B5" stroke-width="4.21" stroke-linecap="round" stroke-linejoin="round"/>
<path d="M184.524 439.187C184.144 441.507 182.044 442.387 180.044 443.067C174.834 444.837 169.534 446.337 164.304 448.037C160.574 449.247 156.734 450.297 152.694 449.927C149.094 449.597 145.784 448.697 143.114 446.047C128.324 431.357 113.094 417.117 98.1739 402.547C89.3339 393.917 80.4639 385.307 71.3239 376.977C69.7339 375.527 68.1639 374.017 66.4939 372.707C63.9039 370.677 63.3539 367.977 63.6439 365.137C63.9839 361.857 63.7139 358.587 63.7039 355.327C63.6839 349.877 65.3439 348.547 70.4339 346.947C73.4839 345.987 76.7039 345.637 79.7739 344.657C82.0939 343.917 84.0439 345.297 85.6539 346.697C89.8339 350.327 93.8339 354.137 97.6339 358.197C100.884 361.667 104.264 365.087 107.984 368.137C110.714 370.377 113.064 373.077 115.544 375.607C120.574 380.767 125.914 385.597 131.024 390.667C134.004 393.627 133.804 391.867 138.854 395.877" fill="#FFDA00" fill-opacity="0.7"/>
<path d="M184.524 439.187C184.144 441.507 182.044 442.387 180.044 443.067C174.834 444.837 169.534 446.337 164.304 448.037C160.574 449.247 156.734 450.297 152.694 449.927C149.094 449.597 145.784 448.697 143.114 446.047C128.324 431.357 113.094 417.117 98.1739 402.547C89.3339 393.917 80.4639 385.307 71.3239 376.977C69.7339 375.527 68.1639 374.017 66.4939 372.707C63.9039 370.677 63.3539 367.977 63.6439 365.137C63.9839 361.857 63.7139 358.587 63.7039 355.327C63.6839 349.877 65.3439 348.547 70.4339 346.947C73.4839 345.987 76.7039 345.637 79.7739 344.657C82.0939 343.917 84.0439 345.297 85.6539 346.697C89.8339 350.327 93.8339 354.137 97.6339 358.197C100.884 361.667 104.264 365.087 107.984 368.137C110.714 370.377 113.064 373.077 115.544 375.607C120.574 380.767 125.914 385.597 131.024 390.667C134.004 393.627 133.804 391.867 138.854 395.877" stroke="#2071B5" stroke-width="4.21" stroke-linecap="round" stroke-linejoin="round"/>
<path d="M119.398 363.733C121.918 365.603 123.718 368.243 126.238 370.113" stroke="#2071B5" stroke-width="4.21" stroke-linecap="round" stroke-linejoin="round"/>
<path d="M94.419 119.615C96.619 121.195 98.669 122.965 100.799 124.625" stroke="#2071B5" stroke-width="4.21" stroke-linecap="round" stroke-linejoin="round"/>
<path d="M249.408 111.864C251.228 113.084 253.058 114.294 254.878 115.514" stroke="#2071B5" stroke-width="4.21" stroke-linecap="round" stroke-linejoin="round"/>
<path d="M128.346 149.247L133.816 153.347" stroke="#2071B5" stroke-width="4.21" stroke-linecap="round" stroke-linejoin="round"/>
<path d="M156.871 204.401C155.161 204.471 153.551 205.141 151.861 205.311" stroke="#2071B5" stroke-width="4.21" stroke-linecap="round" stroke-linejoin="round"/>
<path d="M192.433 172.06C190.823 171.93 189.413 172.76 187.873 172.97" stroke="#2071B5" stroke-width="4.21" stroke-linecap="round" stroke-linejoin="round"/>
<path d="M91.2288 107.321C92.7988 108.311 94.2688 109.451 95.7888 110.511" stroke="#2071B5" stroke-width="4.21" stroke-linecap="round" stroke-linejoin="round"/>
<path d="M241.542 137.656C240.292 137.516 239.142 138.246 237.892 138.116" stroke="#2071B5" stroke-width="4.21" stroke-linecap="round" stroke-linejoin="round"/>
<path d="M360.405 198.705C357.935 199.395 356.515 200.915 355.765 203.465C355.155 205.515 355.375 207.095 357.015 208.235C358.545 209.295 360.255 209.185 362.015 208.305C365.805 206.405 366.025 201.415 363.855 199.575C362.825 198.705 361.775 198.715 360.635 198.705" stroke="#2071B5" stroke-width="4.21" stroke-linecap="round" stroke-linejoin="round"/>
<path d="M405.763 208.067C396.143 210.167 386.603 212.577 377.063 214.957C371.373 216.377 365.683 217.757 359.963 219.037C353.753 220.427 352.223 223.617 351.553 229.717C351.383 231.297 351.523 232.907 351.523 234.497C351.523 267.847 351.543 301.207 351.503 334.557C351.503 339.667 352.813 339.017 356.083 337.987C369.823 333.657 383.673 329.687 397.593 326.027C401.743 324.937 404.783 323.157 406.633 319.487C407.723 317.327 407.783 314.827 407.793 312.447C407.843 297.707 408.013 282.967 407.773 268.227C407.453 249.007 407.733 229.787 407.593 210.557C407.593 209.397 407.973 207.967 406.003 208.047" fill="#FFDA00" fill-opacity="0.7"/>
<path d="M405.763 208.067C396.143 210.167 386.603 212.577 377.063 214.957C371.373 216.377 365.683 217.757 359.963 219.037C353.753 220.427 352.223 223.617 351.553 229.717C351.383 231.297 351.523 232.907 351.523 234.497C351.523 267.847 351.543 301.207 351.503 334.557C351.503 339.667 352.813 339.017 356.083 337.987C369.823 333.657 383.673 329.687 397.593 326.027C401.743 324.937 404.783 323.157 406.633 319.487C407.723 317.327 407.783 314.827 407.793 312.447C407.843 297.707 408.013 282.967 407.773 268.227C407.453 249.007 407.733 229.787 407.593 210.557C407.593 209.397 407.973 207.967 406.003 208.047" stroke="#2071B5" stroke-width="4.21" stroke-linecap="round" stroke-linejoin="round"/>
<path d="M399.614 187.313C397.224 188.073 395.674 189.613 395.034 192.093C394.464 194.313 394.854 196.383 396.194 197.343C397.334 198.153 400.604 198.053 401.884 197.103C403.864 195.643 404.844 193.633 404.844 191.183C404.844 188.623 403.114 187.313 399.834 187.313" stroke="#2071B5" stroke-width="4.21" stroke-linecap="round" stroke-linejoin="round"/>
<path d="M394.402 363.334C394.402 363.334 400.712 369.974 410.872 369.034C421.032 368.094 429.932 360.084 429.932 360.084C429.932 360.084 430.452 346.924 430.022 347.274C423.782 352.344 413.732 359.014 405.772 358.664C402.022 358.504 398.362 357.534 395.042 355.564C394.482 355.234 394.342 354.934 394.382 354.394" stroke="#2071B5" stroke-width="4.21" stroke-linecap="round" stroke-linejoin="round"/>
</svg>
