<svg width="500" height="500" viewBox="0 0 500 500" fill="none" xmlns="http://www.w3.org/2000/svg">
<path d="M278.57 187.386C278.814 186.555 279.586 186.006 280.452 186.015L374.021 186.98C375.117 186.991 376 187.883 376 188.979V204C376 205.105 375.105 206 374 206H281.194C280.458 206 279.782 205.596 279.466 204.933C278.658 203.238 277.197 199.832 277 197C276.79 193.969 277.921 189.594 278.57 187.386Z" fill="#FFDA00" fill-opacity="0.7"/>
<path d="M343 186.5C342.86 179.797 343.13 151.232 342.81 144.529C342.258 132.67 342.679 120.796 342.519 108.929C342.479 106.02 341.447 103.377 337.397 102.112C336.165 101.724 334.822 101.655 333.589 101.655C328.798 101.655 324.018 101.381 319.247 101.191C311.099 100.863 302.93 100.947 294.802 100.307C293.9 100.239 292.868 100.201 291.896 100.246C286.724 100.49 281.583 99.9798 276.431 99.8427C269.335 99.6523 262.239 99.3857 255.133 99.1724C248.559 98.9744 241.984 98.7383 235.409 98.4946C225.397 98.1137 215.385 97.8548 205.372 97.4663C201.113 97.2988 196.843 97.2988 192.594 97.0322C187.973 96.7428 184.967 98.4108 183.634 101.785C183.263 102.729 182.972 103.727 183.002 104.679C183.453 118.587 182.992 132.502 183.193 146.41C183.664 178.834 183.203 211.25 183.443 243.674C183.533 256.05 183.634 268.427 183.624 280.804C183.624 281.2 183.894 281.642 183.413 282" stroke="#2071B5" stroke-width="4.21" stroke-linecap="round" stroke-linejoin="round"/>
<path d="M335.45 207.73C334.91 208.62 335.48 209.52 335.45 210.41C335.42 211.75 335.45 213.09 335.45 214.44C335.3 232.78 335.81 251.12 335.68 269.46C335.65 273.26 334.11 275.85 331.2 276.83C330.05 277.22 328.81 277.23 327.62 277.26C318.37 277.49 309.13 277.9 299.89 278.2C290.35 278.52 280.8 278.93 271.27 279.36C263.44 279.72 255.62 280.11 247.78 280.4C237.79 280.76 227.8 281.14 217.82 281.58C210.44 281.91 203.06 282.24 195.68 282.18C194.91 282.18 194.2 282.44 193.44 282.43" stroke="#2071B5" stroke-width="4.21" stroke-linecap="round" stroke-linejoin="round"/>
<path d="M405.45 251.34C404.83 252.46 405.49 253.58 405.49 254.69C405.44 304.86 405.49 355.03 405.4 405.2C405.39 410.99 404.04 416.55 399.64 420.86C397.58 422.88 395.14 423.87 392.26 424.26C386.3 425.07 380.31 425.63 374.35 426.33C369.46 426.9 364.53 427.42 359.61 427.89C354.98 428.33 350.34 428.77 345.72 429.49C342.78 429.95 339.76 430.07 336.79 430.47C333.29 430.95 329.77 431.29 326.27 431.72C322.87 432.14 319.42 432.38 316 432.73C312.27 433.11 308.53 433.52 304.81 433.97C301.55 434.36 298.24 434.51 294.98 434.97C289.78 435.71 284.52 435.87 279.31 436.65C276.44 437.08 273.51 437.32 270.6 437.6C267.09 437.94 263.59 438.37 260.09 438.74C256.51 439.12 252.93 439.5 249.36 439.89C245.11 440.36 240.84 440.79 236.61 441.41C234.68 441.69 232.74 441.9 230.79 442.06C226.9 442.38 223.03 442.94 219.15 443.34C216.17 443.64 213.18 443.89 210.21 444.32C205.45 445 200.65 445.41 195.88 446C192.63 446.4 189.35 446.84 186.06 447.03C183.21 447.2 180.4 447.82 177.56 448.11C172.41 448.63 167.27 449.31 162.13 449.89C159.15 450.23 155.99 449.62 153.74 447.98C150.86 445.88 148.14 443.29 147.53 439.19C146.93 435.16 146.71 431.15 146.71 427.1C146.71 310.36 146.71 193.62 146.74 76.8799C146.74 73.0799 146.83 69.2399 147.26 65.4899C147.72 61.4699 149.59 57.8699 152.29 54.7299C156.3 50.0699 161.44 49.5299 167.07 50.2299C169.43 50.5199 171.84 50.4999 174.23 50.6299C180.56 50.9699 186.9 51.3599 193.23 51.7099C199.12 52.0399 205.02 52.3299 210.91 52.8799C213.57 53.1299 216.27 53.3199 218.95 53.3899C225.46 53.5499 231.93 54.1899 238.41 54.6799C241.08 54.8799 243.77 55.0999 246.46 55.1999C253.92 55.4799 261.38 55.9299 268.83 56.5099C271.88 56.7499 274.94 56.7199 278 56.9199C283.58 57.2799 289.17 57.6599 294.76 57.9699C299.75 58.2499 304.76 58.4699 309.74 58.8699C315.7 59.3599 321.7 59.3299 327.64 60.0799C330.15 60.3999 332.72 60.4199 335.24 60.4699C339.42 60.5399 343.59 60.8999 347.76 61.1099C354.62 61.4499 361.47 62.0699 368.33 62.4599C375.56 62.8699 382.8 63.2999 390.03 63.6999C392.28 63.8299 394.55 63.9699 396.73 64.4399C401.6 65.4799 403.88 69.0099 404.79 73.9999C405.1 75.6999 405.01 77.4299 405.01 79.1399C405.01 126.63 404.95 174.11 405.07 221.6C405.09 229.13 405 236.66 405.31 244.18C405.41 246.5 404.96 248.82 405.45 251.12" stroke="#2071B5" stroke-width="4.21" stroke-linecap="round" stroke-linejoin="round"/>
<path d="M153.86 52.9701C153.23 52.5501 152.65 52.4701 151.84 52.7101C145.54 54.5701 139.02 55.4101 132.61 56.7501C125.95 58.1401 119.18 58.9201 112.49 60.1301C110.64 60.4701 108.83 61.3001 106.91 60.4901C104.91 62.0701 103.03 63.7301 101.36 65.5401C99.04 68.0401 98.51 71.4101 97.97 74.6601C97.32 78.5801 97.58 82.5701 97.58 86.5101C97.48 157.78 97.51 229.04 97.51 300.31C97.51 319.39 97.51 338.48 97.51 357.56C97.51 363.3 97.74 369.04 97.69 374.78C97.6 384.32 97.36 393.87 97.57 403.4C97.68 408.17 97.37 412.97 97.99 417.71C98.78 423.79 101.17 428.75 107.57 430.94C119.09 434.88 130.37 439.46 141.78 443.72C144.87 444.87 148.06 445.82 150.99 447.42C151.41 447.65 152.16 448.12 152.76 447.46" stroke="#2071B5" stroke-width="4.21" stroke-linecap="round" stroke-linejoin="round"/>
<path d="M106.89 65.9502C106.1 66.4602 105.68 67.0202 105.57 68.4102C105.38 70.8602 105.24 73.3102 105.2 75.7902C105.13 80.5602 105.31 85.3402 105.02 90.1002C104.95 91.2502 105.14 92.3402 105.14 93.4602C105.1 198.72 105.1 303.98 105.11 409.24C105.11 410.06 104.95 410.91 105.33 411.7" stroke="#2071B5" stroke-width="4.21" stroke-linecap="round" stroke-linejoin="round"/>
<path d="M401.2 80.9303C401.22 78.2003 399.9 75.9203 398.47 73.8103C397.05 71.7103 394.55 71.5203 392.26 71.3403C384.22 70.7203 376.16 70.3403 368.11 69.9203C363.04 69.6603 357.98 69.2703 352.9 69.0203C347.91 68.7803 342.91 68.4103 337.92 68.1103C333.37 67.8403 328.83 67.4503 324.28 67.2403C319.51 67.0203 314.72 66.7303 309.97 66.2903C305.79 65.9003 301.59 66.2103 297.43 65.5303C292.92 64.8003 288.34 64.8503 283.8 64.5303C276.87 64.0403 269.94 63.5803 263 63.2403C257.48 62.9603 251.97 62.5503 246.45 62.2903C241.98 62.0803 237.5 61.7403 233.03 61.4403C226.17 60.9703 219.32 60.4903 212.46 60.0903C207.47 59.8003 202.46 59.5503 197.48 59.1603C191.89 58.7203 186.26 58.8203 180.69 57.9403C178.71 57.6303 176.68 57.9003 174.65 57.7303C170.49 57.3703 166.27 56.5503 162.15 57.1303C158.87 57.5903 156.1 59.6003 154.31 62.6003" stroke="#2071B5" stroke-width="4.21" stroke-linecap="round" stroke-linejoin="round"/>
<path d="M152.96 88.0898C152.96 118.36 152.78 148.62 153.01 178.89C153.28 214.6 153.03 250.31 153.22 286.01C153.26 293.99 153.41 301.96 153.41 309.94C153.41 328.95 153.24 347.96 153.47 366.97C153.64 381.28 153.52 395.6 153.64 409.91C153.66 411.92 153.37 413.95 153.86 415.95" stroke="#2071B5" stroke-width="4.21" stroke-linecap="round" stroke-linejoin="round"/>
<path d="M401.2 85.8496C400.91 86.7996 400.98 87.7796 400.98 88.7596C400.98 94.0496 400.98 99.3496 400.98 104.64C400.98 121.41 400.83 138.19 401.05 154.96C401.14 161.74 401.12 168.53 401.15 175.31C401.15 176.95 401.21 178.59 401.21 180.23C401.21 252.99 401.21 325.75 401.19 398.5C401.19 399.77 401.46 401.06 400.98 402.3" stroke="#2071B5" stroke-width="4.21" stroke-linecap="round" stroke-linejoin="round"/>
<path d="M163.7 86.2998C163.77 195.14 164.41 303.98 164.15 412.81" stroke="#2071B5" stroke-width="4.21" stroke-linecap="round" stroke-linejoin="round"/>
<path d="M393.38 97.4805C393.31 196.33 393.77 295.18 393.6 394.03" stroke="#2071B5" stroke-width="4.21" stroke-linecap="round" stroke-linejoin="round"/>
<path d="M196.35 99.2695C194.16 101.16 193.8 103.82 193.46 106.43C193.08 109.32 193.22 112.24 193.22 115.15C193.22 162.64 193.27 210.12 193.16 257.61C193.14 264.84 193.03 272.07 193.01 279.3C192.97 294.88 192.74 310.47 193.06 326.04C193.47 345.5 193.39 364.95 193.44 384.41C193.46 392.83 193.44 401.26 193.44 409.68" stroke="#2071B5" stroke-width="4.21" stroke-linecap="round" stroke-linejoin="round"/>
<path d="M338.58 423.1C334.07 423.22 329.63 423.94 325.15 424.36C321.29 424.72 317.41 425.07 313.53 425.35C309.49 425.64 305.47 426.15 301.44 426.6C298.39 426.94 295.33 427.25 292.28 427.57C288.4 427.97 284.52 428.45 280.64 428.84C277.15 429.19 273.64 429.52 270.14 429.82C266.47 430.13 262.83 430.77 259.17 431.07C254.61 431.44 250.08 432.01 245.54 432.53C240.69 433.09 235.84 433.62 230.99 434.2C226.17 434.78 221.31 435.2 216.47 435.64C211.99 436.05 207.53 436.73 203.05 437.15C199.54 437.48 196.07 438.13 192.55 438.39C190.99 438.51 189.43 438.74 187.85 438.76" stroke="#2071B5" stroke-width="4.21" stroke-linecap="round" stroke-linejoin="round"/>
<path d="M217.15 347.96C216.64 348.9 216.95 349.9 216.95 350.87C216.92 359.67 216.93 368.46 216.93 377.5C222.38 376.98 227.82 376.65 233.48 376.01V317.08C228.04 317.72 222.58 317.58 217.2 318.16C216.85 318.62 216.93 319.1 216.93 319.55C216.93 328.5 216.93 337.44 216.92 346.39C216.92 346.86 216.99 347.3 217.15 347.73" fill="#FFDA00" fill-opacity="0.7"/>
<path d="M217.15 347.96C216.64 348.9 216.95 349.9 216.95 350.87C216.92 359.67 216.93 368.46 216.93 377.5C222.38 376.98 227.82 376.65 233.48 376.01V317.08C228.04 317.72 222.58 317.58 217.2 318.16C216.85 318.62 216.93 319.1 216.93 319.55C216.93 328.5 216.93 337.44 216.92 346.39C216.92 346.86 216.99 347.3 217.15 347.73" stroke="#2071B5" stroke-width="4.21" stroke-linecap="round" stroke-linejoin="round"/>
<path d="M249.293 344.88C248.783 345.82 249.093 346.82 249.093 347.79C249.063 356.59 249.073 365.38 249.073 374.42C254.523 373.9 259.963 373.57 265.623 372.93V314C260.183 314.64 254.723 314.5 249.343 315.08C248.993 315.54 249.073 316.02 249.073 316.47C249.073 325.42 249.073 334.36 249.063 343.31C249.063 343.78 249.133 344.22 249.293 344.65" fill="#FFDA00" fill-opacity="0.7"/>
<path d="M249.293 344.88C248.783 345.82 249.093 346.82 249.093 347.79C249.063 356.59 249.073 365.38 249.073 374.42C254.523 373.9 259.963 373.57 265.623 372.93V314C260.183 314.64 254.723 314.5 249.343 315.08C248.993 315.54 249.073 316.02 249.073 316.47C249.073 325.42 249.073 334.36 249.063 343.31C249.063 343.78 249.133 344.22 249.293 344.65" stroke="#2071B5" stroke-width="4.21" stroke-linecap="round" stroke-linejoin="round"/>
<path d="M278.293 344.88C277.783 345.82 278.093 346.82 278.093 347.79C278.063 356.59 278.073 365.38 278.073 374.42C283.523 373.9 288.963 373.57 294.623 372.93V314C289.183 314.64 283.723 314.5 278.343 315.08C277.993 315.54 278.073 316.02 278.073 316.47C278.073 325.42 278.073 334.36 278.063 343.31C278.063 343.78 278.133 344.22 278.293 344.65" fill="#FFDA00" fill-opacity="0.7"/>
<path d="M278.293 344.88C277.783 345.82 278.093 346.82 278.093 347.79C278.063 356.59 278.073 365.38 278.073 374.42C283.523 373.9 288.963 373.57 294.623 372.93V314C289.183 314.64 283.723 314.5 278.343 315.08C277.993 315.54 278.073 316.02 278.073 316.47C278.073 325.42 278.073 334.36 278.063 343.31C278.063 343.78 278.133 344.22 278.293 344.65" stroke="#2071B5" stroke-width="4.21" stroke-linecap="round" stroke-linejoin="round"/>
<path d="M310.293 342.88C309.783 343.82 310.093 344.82 310.093 345.79C310.063 354.59 310.073 363.38 310.073 372.42C315.523 371.9 320.963 371.57 326.623 370.93V312C321.183 312.64 315.723 312.5 310.343 313.08C309.993 313.54 310.073 314.02 310.073 314.47C310.073 323.42 310.073 332.36 310.063 341.31C310.063 341.78 310.133 342.22 310.293 342.65" fill="#FFDA00" fill-opacity="0.7"/>
<path d="M310.293 342.88C309.783 343.82 310.093 344.82 310.093 345.79C310.063 354.59 310.073 363.38 310.073 372.42C315.523 371.9 320.963 371.57 326.623 370.93V312C321.183 312.64 315.723 312.5 310.343 313.08C309.993 313.54 310.073 314.02 310.073 314.47C310.073 323.42 310.073 332.36 310.063 341.31C310.063 341.78 310.133 342.22 310.293 342.65" stroke="#2071B5" stroke-width="4.21" stroke-linecap="round" stroke-linejoin="round"/>
<path d="M203.95 106.2C201.63 108.02 200.62 110.5 200.38 113.36C200.32 114.03 200.38 114.7 200.38 115.37C200.38 162.48 200.38 209.6 200.38 256.71C200.38 260.81 200.02 264.91 200.16 269.01C200.31 273.42 201.23 275.05 205.97 274.77C216.18 274.18 226.41 274.22 236.61 273.52C240.77 273.23 244.95 273.46 249.13 273.28C261.06 272.78 272.98 272.16 284.91 271.87C291.55 271.71 298.18 271.34 304.82 271.02C311.15 270.71 317.49 270.52 323.83 270.32C326.84 270.23 328.86 268.66 328.94 264.52C329.06 258.33 328.97 252.15 328.97 245.96C328.97 235.67 328.99 225.39 328.95 215.1C328.94 212.1 329.74 209.16 329.41 206.15" stroke="#2071B5" stroke-width="4.21" stroke-linecap="round" stroke-linejoin="round"/>
<path d="M373.03 207.06C372.73 274.3 373.68 341.54 373.48 408.78" stroke="#2071B5" stroke-width="4.21" stroke-linecap="round" stroke-linejoin="round"/>
<path d="M342.83 207.51V271.92C342.83 290.63 342.59 309.35 342.9 328.05C343.2 346.24 343.27 364.43 343.26 382.62C343.26 385.53 343.11 388.49 341.68 391.1C339.74 394.67 336.67 396.93 332.76 398.05" stroke="#2071B5" stroke-width="4.21" stroke-linecap="round" stroke-linejoin="round"/>
<path d="M315.33 80.9298C305.25 80.9198 295.21 79.8998 285.14 79.6398C278.35 79.4598 271.58 78.8898 264.79 78.6698C255.91 78.3798 247.05 77.7998 238.17 77.3898C233.03 77.1498 227.88 76.9598 222.74 76.6898C212.82 76.1698 202.9 75.8498 192.99 75.2098C189.5 74.9898 186 74.4498 182.48 74.6698" stroke="#2071B5" stroke-width="4.21" stroke-linecap="round" stroke-linejoin="round"/>
<path d="M329.19 185.15C328.72 182.09 329.14 179.04 329.16 175.98C329.23 165.84 329.19 155.7 329.19 145.57C329.19 137.52 329.19 129.47 329.19 121.42C329.19 118.53 328.59 117.57 325.83 117.21C322.06 116.72 318.23 116.72 314.43 116.54C305.19 116.1 295.94 115.66 286.7 115.21C281.19 114.94 275.67 114.74 270.15 114.48C258.6 113.93 247.04 113.56 235.48 113.01C230.57 112.78 225.65 112.39 220.72 112.48C214.38 112.59 208.06 111.83 201.71 112.03" stroke="#2071B5" stroke-width="4.21" stroke-linecap="round" stroke-linejoin="round"/>
<path d="M334.78 110.9C324.21 110.03 313.6 110.18 303.02 109.41C299.16 109.13 295.27 108.98 291.4 108.95C283.26 108.87 275.15 108.25 267.03 107.9C259.43 107.57 251.81 107.39 244.21 106.72C240.58 106.4 236.91 106.35 233.26 106.26C224.91 106.06 216.57 105.46 208.21 105.3C206.88 105.27 205.6 105.36 204.41 105.98" stroke="#2071B5" stroke-width="4.21" stroke-linecap="round" stroke-linejoin="round"/>
<path d="M223.63 307.25C218.77 307.22 213.94 307.73 209.1 307.96C208.06 308.01 207.03 307.92 205.96 308.09C202.78 308.59 201.06 310.29 201.06 313.52C201.04 326.04 200.87 338.57 201.11 351.09C201.29 360.34 201.06 369.58 201.31 378.82C201.41 382.51 201.2 386.28 202.83 389.79C203.71 391.69 204.95 393.23 206.63 394.5C208.32 395.79 209.97 396 211.79 394.92" stroke="#2071B5" stroke-width="4.21" stroke-linecap="round" stroke-linejoin="round"/>
<path d="M210.66 311.5C211.06 312.35 211.12 313.25 211.12 314.18C211.11 336.92 211.12 359.65 211.12 382.39C211.12 385.52 211.12 388.65 211.12 391.78C211.12 394.91 212.75 396.34 215.81 395.79C219 395.22 222.24 395.27 225.42 394.86C228.85 394.42 232.36 394.61 235.72 393.57C238.17 392.81 238.82 392.86 238.84 389.54C238.88 380.67 238.85 371.8 238.85 362.93C238.85 346.68 238.85 330.43 238.85 314.18C238.85 311.15 237.86 310.03 234.83 310.18C226.85 310.57 218.87 310.69 210.9 311.21C209.51 311.3 208.07 311.3 206.65 311.27" stroke="#2071B5" stroke-width="4.21" stroke-linecap="round" stroke-linejoin="round"/>
<path d="M265.08 310.84C260.76 311.18 256.11 310.34 251.81 310.87C249.13 311.2 246.43 311.08 243.74 311.33C241.71 311.52 241.97 312.33 241.97 313.51C241.97 322.46 242.06 331.4 241.94 340.35C241.76 353.4 241.74 366.44 241.74 379.49C241.74 383.22 242.16 386.94 241.93 390.67C241.82 392.57 242.91 393.05 244.41 393.12C246.81 393.22 249.23 392.9 251.55 392.55C254.17 392.16 256.8 392.42 259.42 391.88C262.18 391.31 265.05 391.08 267.9 390.87C268.3 390.84 268.57 390.32 269.02 390.22" stroke="#2071B5" stroke-width="4.21" stroke-linecap="round" stroke-linejoin="round"/>
<path d="M301.68 387.76C298.98 387.93 296.3 388.21 293.63 388.65C289.78 389.29 285.86 389.32 281.98 389.87C279.51 390.22 276.94 390.53 274.39 390.43C273.52 390.39 272.81 390.3 271.88 390.81C270.32 391.66 269.12 390.53 269.24 388.66C269.27 388.14 269.24 387.62 269.24 387.09C269.24 363.98 269.24 340.87 269.24 317.76C269.24 315.59 269.1 313.43 268.79 311.27C268.66 310.35 268.36 309.79 267.23 309.67C258.57 308.82 249.93 309.76 241.28 309.93C241.2 309.93 235.14 310.07 235.06 310.14" stroke="#2071B5" stroke-width="4.21" stroke-linecap="round" stroke-linejoin="round"/>
<path d="M329.64 304.57C328.87 303.61 327.79 303.62 326.73 303.68C317.87 304.22 308.98 304.16 300.11 304.75C298.18 304.88 296.24 305.02 294.3 305.03C280.95 305.12 267.61 305.63 254.27 305.99C244.36 306.25 234.44 306.66 224.52 306.81" stroke="#2071B5" stroke-width="4.21" stroke-linecap="round" stroke-linejoin="round"/>
<path d="M373.03 72.8799C373.03 93.8999 373.09 114.92 373.01 135.95C372.95 151.08 373.4 166.21 373.25 181.35C373.25 182.17 373.41 183.02 373.03 183.81" stroke="#2071B5" stroke-width="4.21" stroke-linecap="round" stroke-linejoin="round"/>
<path d="M328.07 384.63C328.62 383.34 328.76 382.01 328.76 380.6C328.74 356.97 328.76 333.34 328.72 309.71C328.72 308.45 329.32 306.86 328.44 305.99C327.56 305.13 325.98 305.67 324.72 305.71C316.81 305.96 308.91 306.29 301.01 306.7C298.12 306.85 295.19 306.99 292.29 306.96C283.93 306.89 275.6 307.47 267.24 307.56C257.25 307.66 247.27 308.24 237.27 308.43C230.49 308.56 223.71 309.05 216.92 309.32C212.59 309.49 208.21 309.28 203.95 310.38" stroke="#2071B5" stroke-width="4.21" stroke-linecap="round" stroke-linejoin="round"/>
<path d="M298.33 387.54C299.27 385.76 298.87 383.79 298.93 381.95C299.15 374.87 299.19 367.79 299.08 360.71C298.83 344.54 298.96 328.36 299.03 312.18C299.04 309.05 298.32 308.32 295.19 308.34C289.07 308.37 282.98 308.99 276.85 308.91C274.86 308.89 272.82 308.93 270.81 309.02C270.03 309.06 269.38 309.22 268.8 309.72" stroke="#2071B5" stroke-width="4.21" stroke-linecap="round" stroke-linejoin="round"/>
<path d="M318.67 205.92C318.35 212.23 318.3 210.6 315.57 216.36C312.77 222.25 307.58 226.9 302.14 230.34C288.76 238.8 269.91 238.38 257.66 227.92C254.78 225.46 252.4 222.47 250.57 219.17C248.34 215.13 247.28 210.73 245.77 206.4" stroke="#2071B5" stroke-width="4.21" stroke-linecap="round" stroke-linejoin="round"/>
<path d="M300.12 154.28C307.05 158.98 312.87 164.79 316 172.84C318.24 179.1 319.05 179.26 318.64 186.12" stroke="#2071B5" stroke-width="4.21" stroke-linecap="round" stroke-linejoin="round"/>
<path d="M342.16 279.97C340.44 280.8 340 283.04 337.93 283.62C336.81 283.93 335.71 284.4 334.56 284.42C327.54 284.54 320.55 285.11 313.54 285.35C303.55 285.69 293.56 286.15 283.57 286.5C273.28 286.86 263 287.51 252.71 287.86C242.72 288.2 232.73 288.79 222.74 289.2C218.57 289.37 214.38 289.5 210.21 289.8C209.15 289.88 208.19 290.58 207.08 290.27" stroke="#2071B5" stroke-width="4.21" stroke-linecap="round" stroke-linejoin="round"/>
<path d="M295.2 314.41C295.2 333.49 295.2 352.58 295.17 371.66C295.17 372.47 295.91 373.88 293.86 373.92C293.86 372.56 293.86 371.21 293.86 369.87C293.86 362.04 293.87 354.22 293.83 346.39" stroke="#2071B5" stroke-width="4.21" stroke-linecap="round" stroke-linejoin="round"/>
<path d="M235.49 145.34C233.7 148.05 231.37 150.38 230.3 153.6C229.52 155.96 228.76 158.3 228.81 160.77C229 170.92 228.42 181.05 228.24 191.18C227.99 205.2 228.65 219.21 228.38 233.23C228.33 235.7 228.82 238.22 229.5 240.6C230.71 244.85 234.22 246.4 238.18 247.08C241.13 247.58 244.13 247.58 247.12 247.56C253.68 247.52 260.24 247.56 266.8 247.54C267.63 247.54 268.54 247.79 269.26 247.1" stroke="#2071B5" stroke-width="4.21" stroke-linecap="round" stroke-linejoin="round"/>
<path d="M330.98 303.67C331.95 303.87 331.64 304.65 331.64 305.24C331.65 331.03 331.64 356.83 331.66 382.62C331.66 383.03 331.51 383.37 331.42 383.74" stroke="#2071B5" stroke-width="4.21" stroke-linecap="round" stroke-linejoin="round"/>
<path d="M302.13 308.37C302.13 311.05 302.13 313.74 302.13 316.42C302.13 336.92 302.07 357.42 302.2 377.92C302.22 381.04 302.07 384.2 302.58 387.31" stroke="#2071B5" stroke-width="4.21" stroke-linecap="round" stroke-linejoin="round"/>
<path d="M273.51 309.27C273.13 310.06 273.29 310.91 273.29 311.73C273.29 336.36 273.29 360.9 273.27 385.53C273.27 386.27 273.54 387.06 273.06 387.77" stroke="#2071B5" stroke-width="4.21" stroke-linecap="round" stroke-linejoin="round"/>
<path d="M335.01 104.41C335.31 131.32 335.41 158.23 335.46 185.14" stroke="#2071B5" stroke-width="4.21" stroke-linecap="round" stroke-linejoin="round"/>
<path d="M263.44 375.24C259.61 375.19 251.81 375.33 247.79 375.74V316.95" stroke="#2071B5" stroke-width="4.21" stroke-linecap="round" stroke-linejoin="round"/>
<path d="M293.86 344.6V314.8C288.85 314.72 284.11 315.53 279.45 315.28C279.01 316.1 279.1 316.72 279.1 317.32C279.1 335.51 279.1 353.7 279.12 371.89C279.12 372.41 278.72 373.13 279.55 373.46" stroke="#2071B5" stroke-width="4.21" stroke-linecap="round" stroke-linejoin="round"/>
<path d="M323.38 369.87V313.16C318.67 312.67 313.99 313.86 308.84 313.42V339.45" stroke="#2071B5" stroke-width="4.21" stroke-linecap="round" stroke-linejoin="round"/>
<path d="M209.77 313.07V383.74" stroke="#2071B5" stroke-width="4.21" stroke-linecap="round" stroke-linejoin="round"/>
<path d="M324.72 207.96C323.59 213.2 322.18 218.33 319.81 223.17C316.37 230.21 311.07 235.5 304.59 239.71C300.11 242.62 295.11 244.45 290.04 245.92C285.03 247.37 279.78 247.02 274.63 246.78C272.96 246.7 271.35 247.11 269.71 246.87" stroke="#2071B5" stroke-width="4.21" stroke-linecap="round" stroke-linejoin="round"/>
<path d="M267.91 143.32C267.14 144.75 265.54 144.15 264.53 144.29C260.69 144.82 257.54 146.76 254.27 148.48C245.91 152.88 239.93 159.58 236.2 168.17C233.85 173.56 232.25 179.2 231.6 185.14C230.84 192.11 230.82 199.03 231.71 205.94C233.16 217.22 237.16 227.46 245.58 235.42C251.21 240.74 257.96 244.14 265.66 245.58C266.85 245.8 268.2 245.82 269.25 246.64" stroke="#2071B5" stroke-width="4.21" stroke-linecap="round" stroke-linejoin="round"/>
<path d="M264.78 315.75V376.13" stroke="#2071B5" stroke-width="4.21" stroke-linecap="round" stroke-linejoin="round"/>
<path d="M234.82 317.09C234.82 336.47 234.82 355.85 234.8 375.24C234.8 375.98 235.07 376.77 234.59 377.48" stroke="#2071B5" stroke-width="4.21" stroke-linecap="round" stroke-linejoin="round"/>
<path d="M324.72 312.17V370.76" stroke="#2071B5" stroke-width="4.21" stroke-linecap="round" stroke-linejoin="round"/>
<path d="M181.59 293.83C182.56 294.59 181.99 295.65 181.99 296.51C182.11 308.51 182 320.51 182.17 332.52C182.23 336.82 182.94 341.01 183.16 345.27C183.26 347.15 182.92 348.99 182.92 350.86C182.92 362.19 182.92 373.52 182.92 384.85C182.92 389.84 182.91 394.84 182.92 399.83C182.94 406.69 188.2 410.51 193.87 411.24C196.17 411.54 198.49 411.45 200.8 411.46" stroke="#2071B5" stroke-width="4.21" stroke-linecap="round" stroke-linejoin="round"/>
<path d="M267.91 142.88C265.37 141.88 262.68 142.45 260.08 142.29C255.1 141.99 250.09 142.31 245.1 141.99C242.27 141.81 239.77 142.78 237.25 143.96C234.37 145.31 231.73 146.89 229.42 149.12C225.63 152.78 223.46 157.19 222.48 162.33C221.62 166.86 221.85 171.42 221.84 175.98C221.81 191.11 221.87 206.25 221.8 221.38C221.78 225.49 221.36 229.6 222.25 233.69C222.83 236.36 223.88 238.66 226.06 240.41C227.21 241.34 228.13 242.53 228.98 243.74" stroke="#2071B5" stroke-width="4.21" stroke-linecap="round" stroke-linejoin="round"/>
<path d="M289.38 147.13C286.67 146.92 284.07 146.06 281.33 146C273.21 145.79 265.91 148.14 259.42 152.96C253.29 157.52 249.03 163.56 245.75 170.38C243.58 174.89 242.39 179.7 241.07 184.48" stroke="#2071B5" stroke-width="4.21" stroke-linecap="round" stroke-linejoin="round"/>
<path d="M155.65 51.1799C153.79 50.0299 151.83 50.9499 150.08 51.2699C144.85 52.2399 139.65 53.3699 134.41 54.2999C127.25 55.5699 120.1 56.8699 112.94 58.1099" stroke="#2071B5" stroke-width="4.21" stroke-linecap="round" stroke-linejoin="round"/>
<path d="M368.67 205.92C378.57 206.43 377.1 202.4 377.3 199.91C377.6 196.05 378 193.43 376.37 189.78C375.47 187.77 373.82 187.03 371.47 187.05C364.76 187.09 358.05 186.68 351.34 186.83C349.61 186.87 346.8 186.68 345.08 186.63" stroke="#2071B5" stroke-width="4.21" stroke-linecap="round" stroke-linejoin="round"/>
<path d="M292.46 405.73C288.1 405.75 283.78 406.33 279.45 406.57C276.31 406.74 273.18 407.08 270.04 407.25C266 407.47 261.96 407.75 257.92 408.09C255.41 408.3 252.86 408.79 250.31 408.38" stroke="#2071B5" stroke-width="4.21" stroke-linecap="round" stroke-linejoin="round"/>
<path d="M268.36 143.1C271.86 142.63 275.37 143.01 278.87 143.12C282.68 143.24 286.64 143 290.24 143.91C297.44 145.73 304.53 148.15 310.18 153.38C318.12 160.73 322.98 169.73 324.77 180.43C325.03 182 325.48 183.52 325.39 185.13" stroke="#2071B5" stroke-width="4.21" stroke-linecap="round" stroke-linejoin="round"/>
<path d="M263.44 375.24V316.3C258.38 316.6 253.53 316.91 248.68 317.09" stroke="#2071B5" stroke-width="4.21" stroke-linecap="round" stroke-linejoin="round"/>
<path d="M241.52 184.25C244.09 184.91 246.74 184.91 249.35 184.88C261.81 184.76 274.24 185.65 286.7 185.67C293.48 185.68 300.26 186.05 307.05 186.04C319.13 186.01 331.2 186.41 343.28 186.6C351.4 186.72 359.52 186.85 367.66 187.03" stroke="#2071B5" stroke-width="4.21" stroke-linecap="round" stroke-linejoin="round"/>
<path d="M331.69 384.97C332.26 387.32 320.71 386.48 315.1 386.69C310.77 386.85 306.5 387.89 301.9 387.74" stroke="#2071B5" stroke-width="4.21" stroke-linecap="round" stroke-linejoin="round"/>
<path d="M368.87 206.01C357.54 206.24 342.31 206.03 330.98 205.89C326.96 205.84 322.93 205.75 318.9 205.71" stroke="#2071B5" stroke-width="4.21" stroke-linecap="round" stroke-linejoin="round"/>
<path d="M308.62 340.35C308.98 341.07 308.84 341.84 308.84 342.59C308.84 348.85 308.81 355.11 308.86 361.38C308.88 364.21 309.38 367.05 308.85 369.88" stroke="#2071B5" stroke-width="4.21" stroke-linecap="round" stroke-linejoin="round"/>
<path d="M325.5 144.25C315.65 144.41 302.35 143.9 292.52 143.32C292 143.29 291.56 143.44 291.18 143.77" stroke="#2071B5" stroke-width="4.21" stroke-linecap="round" stroke-linejoin="round"/>
<path d="M241.52 206.91C243.22 217.79 248.32 226.56 257.6 232.72" stroke="#2071B5" stroke-width="4.21" stroke-linecap="round" stroke-linejoin="round"/>
<path d="M236.16 311.73C227.87 311.52 219.62 312.66 211.34 312.62" stroke="#2071B5" stroke-width="4.21" stroke-linecap="round" stroke-linejoin="round"/>
<path d="M328.3 307.25C324.56 306.9 320.84 307.42 317.12 307.53C312.2 307.69 307.27 307.8 302.36 308.12C301.62 308.17 300.85 307.9 300.57 307.03" stroke="#2071B5" stroke-width="4.21" stroke-linecap="round" stroke-linejoin="round"/>
<path d="M182.04 269.23C182.04 275.27 182 281.31 182.08 287.34C182.1 288.61 181.43 289.88 182.04 291.14" stroke="#2071B5" stroke-width="4.21" stroke-linecap="round" stroke-linejoin="round"/>
<path d="M318.01 205.94C306.31 205.99 294.6 205.56 282.9 205.72C282.6 205.72 282.29 205.78 282.01 205.72C280.93 205.46 279.91 206.83 278.9 205.93C278.09 205.21 278.28 203.99 278.05 203.03C276.67 197.36 276.46 191.71 279.1 186.27C279.16 186.15 279.1 185.98 279.1 185.83" stroke="#2071B5" stroke-width="4.21" stroke-linecap="round" stroke-linejoin="round"/>
<path d="M325.4 206.3V247.2" stroke="#2071B5" stroke-width="4.21" stroke-linecap="round" stroke-linejoin="round"/>
<path d="M325.5 144.04V185.68" stroke="#2071B5" stroke-width="4.21" stroke-linecap="round" stroke-linejoin="round"/>
<path d="M278.43 205.72C275 205.79 271.57 205.96 268.14 205.95C264.79 205.93 261.43 205.95 258.08 205.95C253.61 205.96 245.85 206 241.38 206.31" stroke="#2071B5" stroke-width="4.21" stroke-linecap="round" stroke-linejoin="round"/>
<path d="M318.46 81.3804C319.88 81.1504 319.57 82.1804 319.57 82.9504C319.57 89.1404 319.57 95.3204 319.57 101.51" stroke="#2071B5" stroke-width="4.21" stroke-linecap="round" stroke-linejoin="round"/>
<path d="M320.02 402.95C315.97 403.14 311.96 403.88 307.94 404.2C305.57 404.39 303.2 404.92 300.79 404.74" stroke="#2071B5" stroke-width="4.21" stroke-linecap="round" stroke-linejoin="round"/>
<path d="M370.34 419.97C365.41 420.31 360.49 420.76 355.57 421.25C351.41 421.66 347.25 422.24 343.05 422.21" stroke="#2071B5" stroke-width="4.21" stroke-linecap="round" stroke-linejoin="round"/>
<path d="M325.5 247.32C319.46 247.34 308.17 247.01 302.13 247.32" stroke="#2071B5" stroke-width="4.21" stroke-linecap="round" stroke-linejoin="round"/>
<path d="M182.48 387.32C180.22 386.82 178.01 387.46 175.77 387.54C172.33 387.66 168.94 388.37 165.48 388.22" stroke="#2071B5" stroke-width="4.21" stroke-linecap="round" stroke-linejoin="round"/>
<path d="M279.82 373.92H294.13Z" fill="#FFDA00" fill-opacity="0.7"/>
<path d="M279.82 373.92H294.13" stroke="#2071B5" stroke-width="4.21" stroke-linecap="round" stroke-linejoin="round"/>
<path d="M176.83 440.07C176.1 441.56 162.04 444.07 157.02 442.25C156.61 442.1 151.97 440.83 152.37 431.74" stroke="#2071B5" stroke-width="4.21" stroke-linecap="round" stroke-linejoin="round"/>
<path d="M301.68 247.32C296.98 247.19 292.28 247.6 287.59 247.1" stroke="#2071B5" stroke-width="4.21" stroke-linecap="round" stroke-linejoin="round"/>
<path d="M105.1 413.93C105.62 417.56 105.06 421.25 105.72 424.9C105.99 426.38 106.29 427.58 107.77 428.26C108.92 428.79 109.9 429.64 111.13 430.03" stroke="#2071B5" stroke-width="4.21" stroke-linecap="round" stroke-linejoin="round"/>
<path d="M391.81 78.9199C388.19 79.0799 385.07 83.2899 385.03 85.9499C384.96 89.7699 387.26 93.0399 391.12 93.8999" fill="#FFDA00" fill-opacity="0.7"/>
<path d="M391.81 78.9199C388.19 79.0799 385.07 83.2899 385.03 85.9499C384.96 89.7699 387.26 93.0399 391.12 93.8999" stroke="#2071B5" stroke-width="4.21" stroke-linecap="round" stroke-linejoin="round"/>
<path d="M391.94 78.9199C395.18 78.9199 396.89 80.9499 397.92 82.9999C398.97 85.0899 398.87 88.1599 397.86 90.1099C396.61 92.5299 394.96 93.8999 391.26 93.8999" fill="#FFDA00" fill-opacity="0.7"/>
<path d="M391.94 78.9199C395.18 78.9199 396.89 80.9499 397.92 82.9999C398.97 85.0899 398.87 88.1599 397.86 90.1099C396.61 92.5299 394.96 93.8999 391.26 93.8999" stroke="#2071B5" stroke-width="4.21" stroke-linecap="round" stroke-linejoin="round"/>
<path d="M165.9 65.3896C162.28 65.5496 159.16 69.7596 159.12 72.4196C159.05 76.2396 161.35 79.5097 165.21 80.3697" fill="#FFDA00" fill-opacity="0.7"/>
<path d="M165.9 65.3896C162.28 65.5496 159.16 69.7596 159.12 72.4196C159.05 76.2396 161.35 79.5097 165.21 80.3697" stroke="#2071B5" stroke-width="4.21" stroke-linecap="round" stroke-linejoin="round"/>
<path d="M166.03 65.3896C169.27 65.3896 170.98 67.4197 172.01 69.4697C173.06 71.5597 172.96 74.6297 171.95 76.5797C170.7 78.9997 169.05 80.3697 165.35 80.3697" fill="#FFDA00" fill-opacity="0.7"/>
<path d="M166.03 65.3896C169.27 65.3896 170.98 67.4197 172.01 69.4697C173.06 71.5597 172.96 74.6297 171.95 76.5797C170.7 78.9997 169.05 80.3697 165.35 80.3697" stroke="#2071B5" stroke-width="4.21" stroke-linecap="round" stroke-linejoin="round"/>
<path d="M391.23 401.29C387.61 401.45 384.49 405.66 384.45 408.32C384.38 412.14 386.68 415.41 390.54 416.27" fill="#FFDA00" fill-opacity="0.7"/>
<path d="M391.23 401.29C387.61 401.45 384.49 405.66 384.45 408.32C384.38 412.14 386.68 415.41 390.54 416.27" stroke="#2071B5" stroke-width="4.21" stroke-linecap="round" stroke-linejoin="round"/>
<path d="M391.36 401.29C394.6 401.29 396.31 403.32 397.34 405.37C398.39 407.46 398.29 410.53 397.28 412.48C396.03 414.9 394.38 416.27 390.68 416.27" fill="#FFDA00" fill-opacity="0.7"/>
<path d="M391.36 401.29C394.6 401.29 396.31 403.32 397.34 405.37C398.39 407.46 398.29 410.53 397.28 412.48C396.03 414.9 394.38 416.27 390.68 416.27" stroke="#2071B5" stroke-width="4.21" stroke-linecap="round" stroke-linejoin="round"/>
<path d="M164.17 423.43C160.55 423.59 157.43 427.8 157.39 430.46C157.32 434.28 159.62 437.55 163.48 438.41" fill="#FFDA00" fill-opacity="0.7"/>
<path d="M164.17 423.43C160.55 423.59 157.43 427.8 157.39 430.46C157.32 434.28 159.62 437.55 163.48 438.41" stroke="#2071B5" stroke-width="4.21" stroke-linecap="round" stroke-linejoin="round"/>
<path d="M164.31 423.43C167.55 423.43 169.26 425.46 170.29 427.51C171.34 429.6 171.24 432.67 170.23 434.62C168.98 437.04 167.33 438.41 163.63 438.41" fill="#FFDA00" fill-opacity="0.7"/>
<path d="M164.31 423.43C167.55 423.43 169.26 425.46 170.29 427.51C171.34 429.6 171.24 432.67 170.23 434.62C168.98 437.04 167.33 438.41 163.63 438.41" stroke="#2071B5" stroke-width="4.21" stroke-linecap="round" stroke-linejoin="round"/>
<path d="M322.04 368.98C318.14 368.96 314.31 369.93 310.41 369.87Z" fill="#FFDA00" fill-opacity="0.7"/>
<path d="M322.04 368.98C318.14 368.96 314.31 369.93 310.41 369.87" stroke="#2071B5" stroke-width="4.21" stroke-linecap="round" stroke-linejoin="round"/>
<path d="M240.02 409.07C236.55 408.86 233.2 410.09 229.73 409.96" stroke="#2071B5" stroke-width="4.21" stroke-linecap="round" stroke-linejoin="round"/>
<path d="M204.4 291.15C200.98 291.44 197.56 291.76 194.11 291.6" stroke="#2071B5" stroke-width="4.21" stroke-linecap="round" stroke-linejoin="round"/>
<path d="M152.89 76.3203V86.1603" stroke="#2071B5" stroke-width="4.21" stroke-linecap="round" stroke-linejoin="round"/>
<path d="M183.15 110C176.73 110.01 170.31 110.29 163.92 110.89" stroke="#2071B5" stroke-width="4.21" stroke-linecap="round" stroke-linejoin="round"/>
<path d="M163.47 110.9C160.39 110.65 157.37 111.38 154.3 111.35" stroke="#2071B5" stroke-width="4.21" stroke-linecap="round" stroke-linejoin="round"/>
<path d="M190.98 291.6C188.7 292.11 186.34 291.89 184.05 292.27" stroke="#2071B5" stroke-width="4.21" stroke-linecap="round" stroke-linejoin="round"/>
<path d="M200.15 112.46C198.02 111.82 195.79 112.66 193.66 112.01" stroke="#2071B5" stroke-width="4.21" stroke-linecap="round" stroke-linejoin="round"/>
<path d="M238.62 392.68C239.7 393.3 240.79 393.8 241.97 392.9" stroke="#2071B5" stroke-width="4.21" stroke-linecap="round" stroke-linejoin="round"/>
</svg>
