<?xml version="1.0" encoding="UTF-8"?>
<svg id="icons" xmlns="http://www.w3.org/2000/svg" viewBox="0 0 500 500">
  <defs>
    <style>
      .cls-1 {
        stroke-width: .99px;
      }

      .cls-1, .cls-2, .cls-3, .cls-4, .cls-5 {
        fill: none;
        stroke: #000;
        stroke-linecap: round;
        stroke-linejoin: round;
      }

      .cls-2 {
        stroke-width: 1.03px;
      }

      .cls-3 {
        stroke-width: .62px;
      }

      .cls-4 {
        stroke-width: .87px;
      }

      .cls-5 {
        stroke-width: .89px;
      }
    </style>
  </defs>
  <path class="cls-4" d="M277.63,395.48c-4.05-1.81-7.77-4.25-11.7-6.28-7.7-3.97-15.24-8.22-22.94-12.19-2.32-1.2-4.76-2.19-6.84-3.52-6.36,6.31-12.89,12.24-21.78,14.87-11.97,3.53-23.31-.07-29.7-11.07-2.57-4.43-3.84-9.21-3.88-14.3-.02-2.17-.21-4.31-.13-6.5.25-7.15,1.66-14.04,3.82-20.79,3.24-10.17,7.98-19.63,14.99-27.69,6.25-7.19,12.87-14.13,21.61-18.45,5.78-2.86,11.95-4.55,18.4-3.85,7.35.81,13.25,4.53,17.54,10.56,3.91,5.49,5.73,11.72,6.6,18.39.76,5.83,0,11.45-.94,17.13"/>
  <path class="cls-4" d="M179.44,406.12c-5.7-3.57-12.49-9.4-15.97-14.99-3.75-6.02-5.83-12.6-6.58-19.7-.57-5.35-1.08-10.69-.74-16.04.27-4.28.91-8.54,1.58-12.8,1.03-6.56,2.91-12.84,5.09-19.05,3.76-10.69,9.21-20.49,15.78-29.71,4.25-5.96,8.92-11.53,14.34-16.43,8.55-7.74,18.31-13.35,29.67-15.8,4.25-.92,8.63-1.53,12.99-1.08,10.9,1.11,20.69,4.77,28.63,12.72,5.25,5.25,9.33,11.17,11.66,18.23,1.3,3.93,1.76,8.03,2.18,12.13.63,6.2-.24,12.35-1.22,18.4-.73,4.55-2.29,9.04-4.41,13.24"/>
  <path class="cls-4" d="M371.02,119.01c-.12-2.96-.04-5.93-.1-8.89-.03-1.53-.61-2.13-1.65-2.58-10.97-4.78-21.92-9.61-32.91-14.35-4.1-1.77-8.1-3.85-12.38-5.12-7.1-2.12-14.09-1.8-21.03,1.2-7.36,3.19-14.72,6.39-22.07,9.6-6.94,3.02-13.89,6.01-20.84,9.01-2.19.95-2.89,2.37-2.98,4.41-.08,1.87-.1,3.76.02,5.63.07,1.02.39,2,1.47,2.62,6.01,3.44,12.32,6.27,18.45,9.47,6.7,3.5,13.43,6.93,20.14,10.42,7.5,3.9,15.42,5.07,23.59,2.56,3.63-1.11,7-3.01,10.41-4.73,9.9-4.98,19.86-9.85,29.94-14.44,4.14-1.89,8.19-4.07,12.54-5.46,9.25-2.96,18.41-2.31,27.28,1.33,9.39,3.86,17.5,9.64,24.55,17.03,6.01,6.29,11.14,13.14,15.11,20.85,3.53,6.86,5.96,14.14,7.55,21.67,1.35,6.41,2.06,12.98,1.67,19.49-.62,10.35-2.13,20.56-7.22,29.93-4.03,7.43-9.59,13.35-16.26,18.44-4.22,3.22-9.09,5.28-13.48,8.17-.2.13-.57.02-.86.02"/>
  <path class="cls-4" d="M220,189.21c5.65-1.14,11.3-2.22,17.12-1.96,5.04.23,9.89,1.39,14.5,3.3,14.2,5.86,24.91,15.89,33.62,28.33,7.1,10.13,12.31,21.11,15.79,32.95,1.08,3.69,1.62,7.5,2.4,11.26,1.05,5.02,1.11,10.12.79,15.17-.48,7.55-1.86,14.95-5.13,21.89-2.58,5.48-5.55,10.72-9.99,14.93-3.05,2.9-6.58,5.14-10.37,6.97-.53.26-1.02.15-1.53.2"/>
  <path class="cls-4" d="M363.22,135.04c6.77,1.43,13.23,3.77,18.81,7.86,5.36,3.93,10.23,8.52,14.54,13.61,5.47,6.47,10.31,13.38,14.13,20.99,3.3,6.57,5.8,13.38,7.4,20.58,1.77,7.95,2.73,15.95,2.29,24.06-.54,9.9-2.41,19.48-6.56,28.65-2.68,5.94-6.81,9.93-12.21,13.23-5.53,3.38-11.36,6.2-16.98,9.4-8.59,4.89-17.24,9.7-25.95,14.39-7.76,4.19-15.55,8.34-23.41,12.33"/>
  <path class="cls-4" d="M180.13,204.16c0-.07.03-.19,0-.21-1.78-1.17-4.04-1.78-4.56-4.34-.71-3.5-.77-6.91.88-10.19.88-1.74,2.48-2.57,4.1-3.49,6.71-3.82,13.35-2.97,20.18-.22,11.92,4.79,23.49,10.35,35.07,15.88,9.21,4.39,18.41,8.82,27.52,13.43,4.15,2.1,7.6,4.99,9.32,9.52,1.46,3.84,2.47,7.81,2.57,11.92.14,6.21.35,12.44-.04,18.63-.59,9.47-.17,18.93-.35,28.39-.02.82-.12,1.62-.44,2.38"/>
  <path class="cls-4" d="M225.85,369.05c-4.78,2.66-9.86,4.19-15.38,4.13-4.99-.05-10.9-4.52-12.78-9.76-2.11-5.86-2.37-11.9-1.49-17.98,1.7-11.7,6.49-21.96,14.95-30.31,4.12-4.07,8.69-7.7,14.29-9.51,4.91-1.58,9.9-1.93,14.95-.08,5.93,2.17,9.79,7.25,9.71,13.47-.03,2.02.52,4.1-.4,6.07"/>
  <path class="cls-4" d="M190.32,294.73c-6.09,8.74-12.03,17.56-16.49,27.29-3.96,8.63-7.2,17.45-8.65,26.88-.6,3.88-1,7.78-1.39,11.69-.56,5.53-.47,11.02.16,16.47,1.27,10.9,5.24,20.48,13.96,27.82,3.63,3.05,7.5,5.41,11.77,7.29,3.98,1.75,8.22,1.51,12.34,1.2,2.82-.21,5.73-.5,8.45-1.43,8.23-2.81,15.82-6.81,22.78-12.09,6.8-5.16,12.43-11.35,17.09-18.45"/>
  <path class="cls-4" d="M77.86,291.91c-.09-6.67.93-13.22,3.1-19.48,2.75-7.93,8.9-12.32,16.83-14.31,10.93-2.73,20.65.17,29.7,6.46,10.14,7.05,17.93,16.1,23.83,26.88.79,1.45,1.67,2.84,2.37,4.34"/>
  <path class="cls-4" d="M91.95,305.13c-1.58-7.41-1.01-14.6,2.39-21.44,2.52-5.06,6.89-7.24,12.34-7.58,7.29-.46,13.17,2.98,18.6,7.18,10.58,8.18,16.13,19.42,18.88,32.25.66,3.07.93,6.18.87,9.32"/>
  <path class="cls-4" d="M220.79,366.46c-6.41,5.77-17.93-1.31-19.4-7.39-1.32-5.47-.89-11.01.22-16.45,1.59-7.77,4.97-14.78,10.42-20.54,4.32-4.56,9.09-8.81,15.34-10.64,5.12-1.5,10.29-2.13,14.93,1.49,2.42,1.89,5.27,6.7,3.69,9.96"/>
  <path class="cls-4" d="M192.7,193.98c0,.72-.14,1.48.03,2.16.33,1.29-.36,1.97-1.34,2.37-5.79,2.38-10.87,6.01-16.27,9.08-6.43,3.66-12.89,7.28-19.47,10.68-9.24,4.78-18.74,9.03-27.92,13.93-1.73.93-3.27.84-4.8.5-3.23-.73-6.45-1.14-9.76-1.27-6.02-.24-11.64,1.29-17.11,3.54-2.18.9-4.24,2.09-6.52,2.76-.46.14-.43.36-.43.67"/>
  <path class="cls-4" d="M192.7,199.18c4.01,2.03,8.07,3.95,11.92,6.28,8.61,5.21,17.34,10.25,25.12,16.7,8.92,7.39,16.87,15.64,22.3,26,2.52,4.8,4.25,9.89,4.59,15.37.07,1.09.94,2.17-.01,3.25"/>
  <path class="cls-4" d="M162.84,289.12c.27-10.31-31.22-39.82-39.02-43.83-7.73-3.96-15.81-6.48-24.5-7.18-3.53-.28-7-.01-10.39.59-3.44.61-6.45,2.66-9.09,4.92-5.81,4.98-9.7,11.32-11.9,18.61-1.06,3.5-1.66,7.13-2.07,10.81-.51,4.62-.99,9.24-.76,13.87.22,4.28.75,8.55,1.46,12.79.7,4.21,1.48,8.4,2.4,12.56.29,1.32.94,2.54,1.09,3.9"/>
  <path class="cls-4" d="M382.5,156.27c-1.47,1.14-3.38,1.19-4.97,1.97-12.56,6.15-25.11,12.32-37.51,18.81-5.86,3.07-11.81,5.99-17.77,8.89-3.43,1.67-6.44,4.05-9.79,5.78-4.38,2.27-8.72,4.67-13.37,6.43-1.29.49-2.71,1.17-3.49,2.54"/>
  <path class="cls-4" d="M241.25,269.85c1.2.51,2.34,1.14,3.05,2.36,1.08,1.84.37,5.25-1.53,6.94-1.71,1.52-4.57,1.52-6.5,0-1.64-1.3-2.17-5.34-.45-6.99,1.9-1.82,3.83-2.47,5.27-2.31"/>
  <path class="cls-4" d="M191.91,289.48c-1.21-6.08,37.56-24.39,45.04-22.57"/>
  <path class="cls-4" d="M192.37,296.03c-.51,1.93-.93,3.88.44,5.62,1.35,1.72,2.96,2.11,4.98,1.54,2.23-.63,3.12-2.31,3.44-4.35.37-2.35-.5-4.02-2.36-4.98-1.78-.92-3.71-.53-5.42,1.08-.34.32-.66.66-.96.95"/>
  <path class="cls-4" d="M378.6,147.61c-22.51,11.97-45.62,22.72-68.22,34.04-8.33-4.64-16.37-9.34-24.71-13.5-.9-.45-1.76-1.1-2.63-1.68-3.35-2.21-7.46-2.81-10.82-5-.25-.16-.44-.43-.65-.64"/>
  <path class="cls-4" d="M210.9,302.75c5.56-4.54,11.54-8.26,18.63-9.98,8.53-2.08,19.3,1.03,24.95,8.66,3.52,4.76,5.42,9.99,6.09,15.83.5,4.39.7,8.71-.48,13.01"/>
  <path class="cls-4" d="M301.69,208.06c8.95-4.48,17.92-8.94,26.9-13.37,8.86-4.37,17.75-8.69,26.62-13.06,5.39-2.65,10.65-5.57,16.02-8.26.32-.16.58-.15.88-.19"/>
  <path class="cls-4" d="M131.16,294.95c7.48,9.87,11.64,20.86,11.02,33.37-.33,6.67-2.76,12.59-8.24,16.62-4.97,3.66-10.53,4.17-16.21,1.36-.72-.36-1.44-.72-2.17-1.08"/>
  <path class="cls-4" d="M211.09,304.04c-12.71,8.68-18.44,18.12-21.66,32.93-1.69,7.74-2.41,13.86-2.36,21.45"/>
  <path class="cls-4" d="M86.53,306.65c-.89-6.18-.03-12.22,1.5-18.2.54-2.13,1.6-4.31,1.76-6.3.29-3.58,2.45-5.68,4.6-7.71,2.8-2.64,6.48-3.75,10.33-4.2,7.73-.89,14.44,1.79,20.56,6.11,8.34,5.87,13.37,14.32,17.59,23.36,1.15,2.46,2.12,5,3.45,7.38"/>
  <path class="cls-4" d="M94.98,303.4c-1.67-2.06-.8-4.48-.8-6.72,0-2.83.73-5.67,1.95-8.2,1.76-3.66,4.91-5.66,9.04-5.88,6.53-.35,11.76,2.67,16.69,6.49,5.42,4.21,9.75,9.4,12.91,15.43,1.35,2.57,3.04,5.13,3.34,8.19"/>
  <path class="cls-4" d="M314.9,247.71c.36,2.91,1.14,5.75,1.52,8.67.93,7.05,1.49,14.13.85,21.23-.53,5.87-1.38,11.72-3.93,17.1-2.73,5.77-5.68,11.47-11.43,14.98-.42.26-.73.71-1.03,1.01,4,2.03,7.9,5.07,12.72,2.01"/>
  <path class="cls-4" d="M309.49,182.06c-5.54,2.35-11.15,4.57-16.71,6.88-.68.28-.99.73-1.24,1.16-1,1.73-.7,3.75-.78,5.62-.04.9,1.44,1.62,2.23,2.41,2.38,2.4,4.77,4.81,6.74,7.56,3.05,4.27,6.4,8.32,8.94,12.97,4.18,7.68,6.74,15.94,9.05,24.29,2.57,9.29,3.04,18.82,2.54,28.38-.19,3.7-.43,7.51-1.86,11.06-.1.25-.01.57-.01.86"/>
  <path class="cls-4" d="M89.78,351.93c10.68,11.27,14.48,12.66,27.9,20.81,7.5,4.55,18.76,5.57,19.17,5.53.97-.09,11.64-2.23,12.57-1.92"/>
  <path class="cls-4" d="M233.65,316.83c3.65,2.22,7.56,3.96,11.32,5.98,3.97,2.14,8,4.22,12.07,6.19,6.27,3.05,12.46,6.28,18.64,9.52,8.41,4.41,17,8.49,25.31,13.07,4.9,2.7,7.38,7.17,7.27,13.13-.19,10.13-4.16,18.56-10.7,25.99-2.69,3.05-5.78,5.59-9.73,6.97-5.3,1.85-10.33-.1-11.67-6.53-2.67-12.81.76-23.6,10.99-32.08,4.38-3.62,9.22-5.68,14.97-5.4.24.01.5.05.65-.22"/>
  <path class="cls-4" d="M377.74,143.71c2.18.95,3.97,2.44,5.64,4.11,6.88,6.91,13.49,14.05,18.39,22.55,4.47,7.75,7.91,15.93,10.04,24.67,2.22,9.15,2.77,18.4,2.55,27.74-.22,9.16-2.59,17.86-5.61,26.44-1.43,4.08-4.19,7.37-6.32,11.03"/>
  <path class="cls-4" d="M73.94,314.45c-6.49,2.35-13.21,8.18-19.46,11.09-2.59,1.21-3.6,3.75-4.14,6.46-1.49,7.39.91,13.87,4.81,19.91,1.9,2.93,4.18,5.64,7.33,7.38,3.29,1.82,6.78,2.49,10.39,1.08,4.2-1.64,7.98-4.12,11.93-6.26,8.14-4.41,15.86-9.53,24-13.95,6.73-3.65,13.51-7.27,19.96-11.42.54-.35.88-.03,1.31.02"/>
  <path class="cls-4" d="M266.58,125.29c-.01,6.5.18,13.01-.25,19.5-.24,3.68,1.06,5.91,4.55,7.45,4.72,2.08,9.31,4.49,13.87,6.91,5.71,3.03,11.4,6.11,16.93,9.47,3.18,1.94,6.8,2.48,10.4,2.52,2.07.02,4.19.04,6.28-.13,3.78-.32,7.08-1.92,10.43-3.62,6.44-3.29,12.84-6.67,19.47-9.6,4.14-1.83,8.46-3.27,12.35-5.62.17-.1.29-.28.44-.43"/>
  <path class="cls-4" d="M148.93,350.41c.84,2.47.7,5.04.64,7.58-.19,8.03.45,16.03.65,24.05.18,7.22.55,14.44.8,21.66.16,4.54-.12,9.14.72,13.66.42,2.27,1.78,3.75,3.71,4.75,5.17,2.69,10.32,5.4,15.19,8.64,2.41,1.6,5.26,1.43,7.75.21,6.8-3.32,13.29-7.22,19.97-10.76,5.31-2.81,21.37-12.36,26.79-14.95"/>
  <path class="cls-4" d="M211.12,189.86c5.41-2.77,10.93-5.31,16.47-7.8,3.37-1.51,6.63-3.3,10.19-4.31,5.3-1.51,10.66-1.9,16.03-.25.43.13.82-.02,1.08-.42"/>
  <path class="cls-4" d="M233.65,316.83c-2.92-.79-6.43,1.25-10.12,4.83-2.96,2.87-5.96,5.76-8.33,9.23-3.53,5.17-5.91,10.7-6.98,16.91-.6,3.48-.22,6.73.76,9.97.97,3.22,3.7,4.78,6.45,6.32,3.25,1.82,7.09,2.2,10.2,4.31"/>
  <path class="cls-4" d="M108.41,340.66c1.87,2.58,3.99,4.97,6.09,7.34,4.87,5.5,11.29,8.09,18.4,8.85,6.04.64,11.34-.93,15.27-6.15.85-1.13.98-1.99.97-3.11-.09-7.17.23-14.31.84-21.45.45-5.28-.41-10.46-1.63-15.61"/>
  <path class="cls-4" d="M370.59,110.12c-7.54,3.7-15.14,7.29-22.76,10.81-8.6,3.98-17.06,8.3-26.01,11.45-7.09,2.49-14.36,2.4-21.42-.39-7.84-3.09-14.99-7.57-22.53-11.28-4.64-2.28-9.15-4.82-13.68-7.31-1.77-.97-3.29-2.33-5.18-3.06"/>
  <path class="cls-4" d="M202.07,256.6c4.47-1.54,8.89-3.2,13.65-3.69,7.22-.74,14.41-1.38,21.68-.27,2.5.38,5.08.35,7.57.93"/>
  <path class="cls-4" d="M282.84,252.04c.91,4.23,1.87,8.5,2.06,12.79.19,4.11.98,8.23.5,12.34-.6,5.02-1.67,9.97-3.42,14.74"/>
  <path class="cls-4" d="M55.76,325.5c6.33,1.22,10.94,5.03,14.72,9.98,4.36,5.7,5.48,12.32,4.95,19.27-.14,1.8-.88,3.55-2.12,4.99"/>
  <path class="cls-4" d="M236.25,177.29c-.66-.45-1.52-.33-2.18-.86-1.79-1.44-1.71-2.89.22-4.13,3.48-2.23,7.35-3.71,11.1-5.31,6.34-2.71,12.64-5.5,19.01-8.15.87-.36,1.81-.54,2.61-1.05"/>
  <path class="cls-4" d="M110.36,295.6c10.36-.17,12.84,5.39,17.34,13.86,1.74,3.27,2.97,6.85,3.1,10.41.18,5.03.61,10.37-3.52,14.53-2.53,2.55-4.94,3.51-8.47.63"/>
  <path class="cls-4" d="M233.87,373.16c-5.22,5.09-10.77,9.63-17.97,11.73-4.04,1.18-11.45-.75-11.63-.8-.81-.22-4.91-1.35-7.83-3.96"/>
  <path class="cls-4" d="M162.84,289.12c.75-4.44,16.38-16.56,20.9-20.22,4.22-3.41,8.65-6.54,13.22-9.46"/>
  <path class="cls-4" d="M168.19,397.02c.17.77.24,3.5.24,4.31-.04,5.72.4,11.41.68,17.12.18,3.62.34,7.22-.03,10.84"/>
  <path class="cls-4" d="M320.54,144.14c0,8.38,0,16.76,0,25.13"/>
  <path class="cls-4" d="M116.86,360.81c4.75,2.36,9.39,4.9,14.73,5.9,6.07,1.13,11.94,1.14,17.56-1.78"/>
  <path class="cls-4" d="M187.07,356.05c-.3,9.46,3.06,17.47,9.53,24.27"/>
  <path class="cls-4" d="M273.73,159.31c-3.86,1.67-7.66,3.46-11.47,5.24-4.04,1.89-8.14,3.65-12.2,5.48-1.76.79-1.98,1.67-1.9,3.15"/>
  <path class="cls-4" d="M277.85,164.51c-5.18,2.76-10.77,4.61-16,7.23-2.72,1.36-4.79.95-6.98-.71-.14-.1-.42-.01-.64-.01"/>
  <path class="cls-4" d="M110.36,295.6c.2.9-.37,1.24-1.08,1.52-10.6,4.27-20.55,9.88-30.76,14.96-2.54,1.27-5.02,2.67-7.61,3.84"/>
  <path class="cls-4" d="M279.24,355.41c-7.54,4.9-13.08,14.67-11.27,21.23"/>
  <path class="cls-4" d="M71.8,292.35c-1.76-.37-2.39-1.52-2.69-2.87s-.42-2.11-.44-3.55c-.03-1.71,1.47-2.5,2.91-2.45,1.78.06,3.31,2.05,3.54,3.92.24,1.97.23,3.46-3.18,4.95"/>
  <path class="cls-4" d="M261.17,231.24c-1.05,6.75-1.12,13.56-1.3,20.37"/>
  <path class="cls-1" d="M306.67,144.42c0,8.14,0,16.28,0,24.43"/>
  <path class="cls-4" d="M424.54,201.78c0,6.21,0,12.42,0,18.63"/>
  <path class="cls-4" d="M285.22,168.41c-5.24,2.22-10.33,4.78-15.62,6.89-2.13.85-3.21,2.03-2.82,4.38.11.63.13,1.32-.2,1.95"/>
  <path class="cls-4" d="M331.8,302.31c-5.83,1.92-11.14,4.89-16.25,8.24-.34.23-.74.25-1.09.43"/>
  <path class="cls-4" d="M275.68,180.76c0-.46.38-.71.66-.84,4.97-2.42,9.95-4.79,14.94-7.16.39-.19.93.23,1.3-.23"/>
  <path class="cls-4" d="M301.04,177.08c-3.96,2.12-8.06,3.96-12.13,5.86-.65.3-1.43.4-1.94.88-1.64,1.54-3.24,1.18-5.01.22-4.68-2.55-9.71-4.41-14.29-7.17"/>
  <path class="cls-4" d="M285.44,195.28c4.6,3.86,8.27,8.55,11.7,13.43"/>
  <path class="cls-4" d="M300.6,310.98c-2.38.76-4.31,2.37-6.46,3.54-2.09,1.14-4.1,2.5-6.11,3.82"/>
  <path class="cls-4" d="M362.57,123.56c.52,2.96-.25,5.93.01,8.88.42,4.63.03,9.25-.02,13.87-.02,1.79-.49,3.36-2.16,4.33"/>
  <path class="cls-4" d="M105.16,298.41c-.38-2.96,1.47-5.28,4.33-5.17,2.54.09,8.35.27,10.59,1.76"/>
  <path class="cls-4" d="M439.27,202.64c0,3.18,0,6.36,0,9.53"/>
  <path class="cls-4" d="M189.23,189.21c3.33,1.12,6.4,2.78,9.53,4.33"/>
  <path class="cls-4" d="M375.14,144.57c-.36,0-.6-.33-1.1-.03-2.84,1.67-5.78,3.18-8.86,4.37"/>
  <path class="cls-4" d="M305.13,134.17c-.95,2.92-.19,5.93-.43,8.88"/>
  <path class="cls-4" d="M318.72,134.17c.5,2.88.07,5.78.22,8.67"/>
  <path class="cls-4" d="M296.27,190.08c2.67,1.11,2.87,3.44,2.79,5.85-.02.66-.45,1.3.02,1.95"/>
  <path class="cls-4" d="M226.07,368.61c2.7,1.27,5.67,2,7.86,4.28.28.29,1.24.33,1.89.49"/>
  <path class="cls-4" d="M154.57,223.01c2.76-1.26,5.34-2.92,8.23-3.9"/>
  <path class="cls-4" d="M305.8,222.58c1.04,2.79,2.65,5.34,3.47,8.23"/>
  <path class="cls-4" d="M101.97,345.42c.8,3.1,12.26,13.12,14.9,15.39"/>
  <path class="cls-5" d="M363.25,114.24c.48,2.56.09,5.15.22,7.73"/>
  <path class="cls-4" d="M260.47,111.39v6.72"/>
  <path class="cls-4" d="M284.79,185.31c.26,2.16-.31,4.35.22,6.5"/>
  <path class="cls-4" d="M273.73,185.74c3.03,1.28,5.55,3.37,8.23,5.2"/>
  <path class="cls-4" d="M268.1,151.07c-.43,2.23-.13,4.48-.22,6.72"/>
  <path class="cls-4" d="M142,340.45c-1.5,2.09-3.1,4.1-5.2,5.63"/>
  <path class="cls-4" d="M118.16,303.18c1.91,1.55,3.65,3.29,5.2,5.2"/>
  <path class="cls-4" d="M275.68,181.19c-.83,1.6.33,3.38-.43,4.98"/>
  <path class="cls-4" d="M384.67,149.77c-1.05,1.52-3.24,1.15-4.33,2.6"/>
  <path class="cls-4" d="M267.23,159.31c.98.31,1.91.71,2.6,1.52"/>
  <path class="cls-4" d="M264.2,180.98c1.34-.07,2.2,1.17,3.47,1.3"/>
  <path class="cls-4" d="M402.41,260.26c-1.1,1.93-1.73,2.9-1.06,3.48"/>
  <path class="cls-4" d="M59.66,336.76c3.77,1.64,6.48,4.27,7.81,8.23.44,1.3.31,2.64.15,3.9-.24,1.88-2.37,2.76-4.27,1.95-3.93-1.67-6.99-6.64-6.49-11.26.16-1.51.91-2.62,2.58-2.82"/>
  <path class="cls-4" d="M295.62,366.88c2.34.52,3.45,2.77,3.25,5.85-.29,4.39-4.28,10.43-9.31,11.93-2.75.82-5.08-.57-5.16-3.48-.16-5.66,1.93-10.33,6.68-13.65,1.35-.94,2.87-.57,4.34-.65"/>
  <path class="cls-4" d="M272.65,303.4c3.73,1.37,5.12,5.33,3.03,8.67-1.59,2.53-5.69,1.93-7.37-1.08-1.83-3.29.13-6.9,4.12-7.58"/>
  <path class="cls-3" d="M126.21,250.99c2.75.78,4.39,3.51,3.72,6.2-.25,1.01-1.74,2.33-2.79,2.48-1.17.17-3.02-.83-3.72-2.02-1.78-2.99-.72-5.67,2.64-6.67"/>
  <path class="cls-3" d="M88.3,246.03c2.75.78,4.39,3.51,3.72,6.2-.25,1.01-1.74,2.33-2.79,2.48-1.17.17-3.02-.83-3.72-2.02-1.78-2.99-.72-5.67,2.64-6.67"/>
  <path class="cls-4" d="M173.87,355.41c2.59,1.08,4.05,3.32,3.68,5.63-.36,2.23-2.22,4.07-4.33,4.34-2.43.31-5.06-1.43-5.43-4.12-.46-3.34,2.36-5.58,4.56-5.84.43-.05.87,0,1.3,0"/>
  <path class="cls-2" d="M226.81,389.44c1.64.77,3.12,1.57,2.86,3.86-.26,2.24-1.41,3.71-3.37,4.62-2.23,1.03-4.45.07-5.4-2.31-.98-2.46.37-4.99,3.08-5.93.86-.3,1.72-.19,2.58-.24"/>
  <path class="cls-2" d="M191.99,393.89c1.64.77,3.12,1.57,2.86,3.86-.26,2.24-1.41,3.71-3.37,4.62-2.23,1.03-4.45.07-5.4-2.31-.98-2.46.37-4.99,3.08-5.93.86-.3,1.72-.19,2.58-.24"/>
</svg>