<svg width="500" height="500" viewBox="0 0 500 500" fill="none" xmlns="http://www.w3.org/2000/svg">
<path d="M366.33 151.31C370.65 155.67 374.18 160.66 377.1 165.99C383.93 178.45 388.72 191.7 391.6 205.64C393.24 213.61 393.97 221.66 394.29 229.77C394.89 244.82 392.56 259.48 388.66 273.96C385.96 284 382.2 293.67 378.2 303.23C375.91 308.7 373.34 314.11 370.33 319.23C367.94 323.3 365.1 327.11 362.72 331.21C356.39 342.1 348.05 351.4 339.01 360.02C330.39 368.24 321.26 375.94 310.87 381.93C303.16 386.38 295.05 389.87 286.55 392.59C277.25 395.56 267.8 397.76 258.12 398.77C251.47 399.46 244.78 399.34 238.05 398.73C228.41 397.85 219.37 395.18 210.54 391.43C207.75 390.25 205.36 388.42 202.66 387.12" stroke="#2071B5" stroke-width="4.21" stroke-linecap="round" stroke-linejoin="round"/>
<path d="M423.59 247.58C422.21 258.46 419.51 269.07 416.51 279.57C414.61 286.2 412.1 292.68 409.82 299.2C406.43 308.88 402.21 318.21 397.64 327.38C393.04 336.63 387.81 345.54 381.85 353.97C372.1 367.78 361.1 380.56 348.92 392.27C340.06 400.79 330.82 408.95 320.52 415.71C306.62 424.83 291.76 432.02 275.68 436.48C269.6 438.17 263.46 439.59 257.21 440.63C250.17 441.8 243.14 442.48 236.01 442.39C232.4 442.34 228.78 442.52 225.19 442.32C218.22 441.94 211.29 441.02 204.46 439.62C196.43 437.97 188.59 435.6 181.01 432.44C177.47 430.97 173.73 429.71 170.72 427.38C168.61 425.74 166.76 423.71 164.59 422.03C158.53 417.32 152.63 412.39 147.23 406.94C136.18 395.8 127.14 383.2 120.09 369.13C115.6 360.16 111.42 351.07 108.27 341.57C106.23 335.42 104.58 327.92 103.73 321.45" stroke="#2071B5" stroke-width="4.21" stroke-linecap="round" stroke-linejoin="round"/>
<path d="M301.4 151.31C301.99 152.88 303.64 153 304.8 153.77C315.38 160.83 323.1 170.3 328.44 181.76C331.71 188.8 333.94 196.16 335.27 203.84C336.76 212.37 337.26 220.93 337 229.55C336.82 235.45 336.17 241.3 335.29 247.15C333.98 255.79 331.9 264.21 328.89 272.38C322.75 289.05 313.69 303.95 301.91 317.3C292.7 327.74 282.12 336.4 270.03 343.11C259.13 349.15 247.46 353.23 234.9 354.22C224.91 355.01 215.15 353.94 205.86 350.07C204.63 349.56 203.41 349.94 202.16 349.13C198.3 346.63 195.29 343.32 192.56 339.77C184.92 329.87 180.28 318.6 177.63 306.43C175.17 295.13 174.23 283.69 174.77 272.16C175.02 266.79 175.89 261.46 176.88 256.14C179.51 242.02 184.27 228.71 190.92 216.02C196.46 205.45 203.36 195.87 211.23 186.95C221.61 175.18 233.76 165.76 247.96 158.97C258.5 153.93 269.48 150.6 281.12 149.55C286.84 149.04 292.55 149.34 298.26 150.16C306.86 151.39 315.02 153.69 322.64 158.02C327.01 160.5 331.08 163.38 334.72 166.71C344.88 176.02 352.58 187.12 357.51 200.03C360.17 207 361.83 214.22 362.8 221.65C363.44 226.54 363.77 231.43 363.77 236.31C363.77 242.56 363.26 248.8 362.35 255.03C361.08 263.79 358.88 272.29 355.66 280.47C348.67 298.24 338.88 314.37 325.96 328.51C313.25 342.42 298.26 353.22 280.85 360.47C274.45 363.14 267.7 364.91 260.81 365.93C254.23 366.9 247.58 367.26 240.98 366.35C228.02 364.56 215.82 360.65 205.36 352.41C204.47 351.71 203.21 351.34 203.1 349.93M299.98 151.31C300.57 152.88 302.22 153 303.38 153.77C313.96 160.83 321.68 170.3 327.02 181.76C330.29 188.8 332.52 196.16 333.85 203.84C335.34 212.37 335.84 220.93 335.58 229.55C335.4 235.45 334.75 241.3 333.87 247.15C332.56 255.79 330.48 264.21 327.47 272.38C321.33 289.05 312.27 303.95 300.49 317.3C291.28 327.74 280.7 336.4 268.61 343.11C257.71 349.15 246.04 353.23 233.48 354.22C223.49 355.01 213.73 353.94 204.44 350.07C204.44 350.07 211.056 356.862 216.44 359.31C221.94 361.81 226.94 364.708 239.56 366.35C246.94 367.31 252.81 366.9 259.39 365.93C266.28 364.91 273.03 363.14 279.43 360.47C296.84 353.22 311.83 342.42 324.54 328.51C337.46 314.37 347.25 298.24 354.24 280.47C357.46 272.29 359.66 263.79 360.93 255.03C361.84 248.8 362.35 242.56 362.35 236.31C362.35 231.43 362.02 226.54 361.38 221.65C360.41 214.22 358.75 207 356.09 200.03C351.16 187.12 343.46 176.02 333.3 166.71C329.66 163.38 325.59 160.5 321.22 158.02L299.98 151.31Z" stroke="#2071B5" stroke-width="4.21" stroke-linecap="round" stroke-linejoin="round"/>
<path d="M175.6 388.93C187.77 397.79 193.82 398.95 197.28 400.33C206.31 403.94 215.28 407.91 224.98 409.38C229.82 410.11 234.69 410.78 239.62 410.82C247.99 410.88 256.35 410.76 264.64 409.45C276 407.67 286.84 404.13 297.32 399.5C307.27 395.09 316.81 389.88 325.5 383.28C334.93 376.11 343.76 368.25 351.65 359.39C358.23 352.01 364.76 344.58 370.39 336.42C376.13 328.1 381.14 319.4 385.56 310.3C389.02 303.17 391.84 295.83 394.54 288.41C397.3 280.82 399.43 273.07 401.03 265.17C402.02 260.31 402.99 255.44 403.48 250.51C404.38 241.45 404.88 232.33 404.35 223.24C403.66 211.52 401.78 200.02 398.24 188.7C394.27 176.02 389.11 163.98 381.82 152.93C374.98 142.57 366.24 133.92 355.93 127C347.88 121.6 339.5 116.75 330.04 114.09C323.88 112.35 317.78 110.58 311.33 109.95C305.38 109.37 299.44 108.88 293.51 109.23C284.2 109.78 275.01 111.42 266 113.9C253.76 117.27 242.12 122.16 231.09 128.37C224.31 132.19 217.94 136.66 211.88 141.59C199.83 151.4 189.02 162.32 179.81 174.92C171.35 186.5 164.45 198.82 158.55 211.88C153.6 222.83 150.15 234.11 147.67 245.77C146 253.64 144.22 261.48 142.84 269.42C141.12 279.3 141.63 289.09 142.43 298.97C143.1 307.27 144.48 315.44 146.31 323.54C147.51 328.86 148.84 334.15 150.59 339.32C151.29 341.4 152.34 343.34 153.14 345.38C153.68 346.76 153.92 348.04 153.75 349.46" stroke="#2071B5" stroke-width="4.21" stroke-linecap="round" stroke-linejoin="round"/>
<path d="M403.97 249.83C416.33 248.64 428.61 247.02 440.26 242.39C442.55 241.48 444.75 240.32 446.75 238.95C449.04 237.38 449.95 234.82 449.95 232.03C449.95 223.24 450.06 214.44 449.91 205.65C449.84 201.57 447.22 199.28 443.68 197.46C439.18 195.13 434.48 193.26 429.84 191.34C422.39 188.27 418.88 182.75 417.46 175.22C415.94 167.19 413.15 159.53 410.04 152C404.49 138.55 396.97 126.22 387.68 115.07C376.44 101.58 363.29 90.2698 347.61 82.0998C340.65 78.4698 333.4 75.5598 325.97 73.0598C324.24 72.4798 322.56 73.1698 320.75 72.7398C314.48 71.2498 308.08 70.5998 301.62 70.2698C298.01 70.0898 294.4 69.8798 290.79 69.9498C282.23 70.0998 273.75 70.9998 265.3 72.5498C254.28 74.5698 243.57 77.5998 233.1 81.4698C226.76 83.8098 220.72 86.8598 214.79 90.1598C208.76 93.5098 202.94 97.2098 197.28 101.11C190.76 105.6 184.57 110.56 178.47 115.63C173.1 120.1 167.94 124.79 162.98 129.68C153.46 139.07 145.65 149.83 138.41 161.01C130.16 173.75 123.48 187.26 118.26 201.55C113.87 213.58 110.89 225.95 107.78 238.33C105.92 245.75 104.2 255.77 103.72 262.44" stroke="#2071B5" stroke-width="4.21" stroke-linecap="round" stroke-linejoin="round"/>
<path d="M324.84 72.6301C322.92 70.6701 320.22 70.4601 317.87 69.4301C312.86 67.2401 307.73 65.4201 302.51 63.8801C294.4 61.4901 286.19 59.5401 277.73 58.5601C272.31 57.9301 266.9 57.5901 261.49 57.5901C256.31 57.5901 251.08 57.5401 245.94 58.2501C236 59.6201 226.22 61.7501 216.63 64.7401C206.71 67.8301 197.09 71.6801 187.78 76.2601C173.62 83.2301 160.77 92.1601 148.75 102.37C132.67 116.04 119.37 132.07 107.98 149.75C100.59 161.23 94.45 173.38 88.74 185.78C83.2 197.8 79.17 210.3 75.81 223.03C74.28 228.84 73.23 234.81 72.56 240.82C71.93 246.42 71.12 252 69.83 257.5C69.48 258.99 68.66 260.21 67.2 261.18C63.81 263.44 59.89 264.46 56.31 266.24C54.4 267.19 52.55 268.07 51.4 269.92C50.94 270.66 50.39 271.45 50.49 272.39C50.82 275.57 50.25 278.7 50.06 281.86C49.67 288.19 51.19 296.97 51.67 303.28" stroke="#2071B5" stroke-width="4.21" stroke-linecap="round" stroke-linejoin="round"/>
<path d="M329.35 109.38C326.66 107.59 323.58 106.73 320.55 105.79C309.76 102.45 298.71 100.93 287.42 101.26C275.71 101.6 264.2 103.15 252.92 106.43C241.17 109.85 230.32 115.15 219.73 121.24C212.5 125.4 205.55 129.9 199.06 135.11C191.07 141.52 183.79 148.67 177.37 156.71C171.4 164.19 165.43 171.66 160.26 179.73C154.49 188.73 149.22 198.02 144.77 207.71C140.49 217.03 137.34 226.81 134.79 236.76C132.83 244.41 131.26 252.15 130.33 259.98C129.56 266.48 129.05 273.02 129.38 279.59C129.42 280.4 129.42 280.78 128.3 281.27C123.25 283.5 118.45 286.29 113.14 287.91C106.46 289.94 99.6401 291.31 92.6301 291.54C86.6201 291.74 80.9001 290.21 75.2801 288.35C69.8701 286.56 64.6101 284.38 59.4601 281.91C56.0801 280.29 53.1701 278.28 50.9301 275.3" stroke="#2071B5" stroke-width="4.21" stroke-linecap="round" stroke-linejoin="round"/>
<path d="M186.42 104.42C178.57 110.73 170.79 117.12 163.65 124.25C151.28 136.6 140.13 149.91 130.95 164.83C124.53 175.26 119.34 186.23 115.14 197.74C109.99 211.86 106.29 226.37 103.32 241.06C102.24 246.39 99.93 256.46 99.35 261.9" stroke="#2071B5" stroke-width="4.21" stroke-linecap="round" stroke-linejoin="round"/>
<path d="M283.81 68.5801C284.2 69.4801 274.49 69.1801 269.83 69.4501C263.29 69.8401 256.83 70.7901 250.45 72.2001C237.49 75.0601 225.31 79.9701 213.69 86.3701C205.61 90.8201 198.04 96.0301 190.48 101.26" stroke="#2071B5" stroke-width="4.21" stroke-linecap="round" stroke-linejoin="round"/>
<path d="M131.87 312.05C132.99 314.82 133.56 317.77 134.28 320.64C135.68 326.22 137.29 331.71 139.32 337.08C143.87 349.06 149.82 360.33 157.43 370.62C162.08 376.91 167.64 382.47 173.81 387.36C174.44 387.86 174.8 388.66 175.61 388.94" stroke="#2071B5" stroke-width="4.21" stroke-linecap="round" stroke-linejoin="round"/>
<path d="M76.67 319.33C91.74 376.25 149.93 418.14 172.49 428.57" stroke="#2071B5" stroke-width="4.21" stroke-linecap="round" stroke-linejoin="round"/>
<path d="M278.4 354.66C272.9 356.82 267.33 358.79 261.49 359.83C255.38 360.92 249.24 361.23 243 361.06C235.15 360.85 227.65 359.24 220.23 356.92C220.09 356.88 219.93 356.92 219.78 356.92" stroke="#2071B5" stroke-width="4.21" stroke-linecap="round" stroke-linejoin="round"/>
<path d="M93.22 277.48C97.18 281.53 94.59 283.01 91.98 284.2C88.18 285.93 83.4 286.14 78.37 283.49C76.96 282.75 76.03 278.17 77.22 277.07C79.18 275.27 91.58 275.83 93.23 277.47" fill="#FFDA00" fill-opacity="0.7"/>
<path d="M93.22 277.48C97.18 281.53 94.59 283.01 91.98 284.2C88.18 285.93 83.4 286.14 78.37 283.49C76.96 282.75 76.03 278.17 77.22 277.07C79.18 275.27 91.58 275.83 93.23 277.47" stroke="#2071B5" stroke-width="4.21" stroke-linecap="round" stroke-linejoin="round"/>
<path d="M244.66 149.83C244.38 146.31 237.96 137.34 234.69 139.17C231.73 140.83 229.04 142.94 226.33 144.99C223.52 147.13 220.59 149.09 217.88 151.4C215.96 153.03 213.27 153.88 211.23 155.59C204.17 161.51 197.57 167.94 191.48 174.83C189.2 177.41 186.75 180.02 185.13 183.12C184.08 185.13 182.89 186.89 181.35 188.59C179.71 190.4 178.5 192.69 177.23 194.84C175.23 198.22 172.45 201.18 171.52 205.18C171.24 206.4 170.26 207.39 169.74 208.56C169.15 209.87 168.52 211.22 168.93 212.61C169.12 213.25 168.8 213.58 168.61 213.73C166.3 215.53 166.19 218.27 165.48 220.75C165.4 221.03 165.21 221.22 165.05 221.44C162.05 225.72 160.95 230.76 159.33 235.61C158.4 238.39 158.18 241.38 156.69 243.97C156.25 244.74 156.8 245.36 157.13 245.99" stroke="#2071B5" stroke-width="4.21" stroke-linecap="round" stroke-linejoin="round"/>
<path d="M433.51 204.74C432.36 201.67 429.36 201.71 426.95 201.22C423.41 200.51 419.75 200.2 416.15 201.13C416.01 201.17 415.85 201.11 415.7 201.13C413.81 201.48 411.71 203.08 411.65 204.28C411.56 206.29 413.29 206.89 414.59 207.38C420.53 209.62 426.5 209.37 432.37 206.97C433.18 206.64 433.36 205.69 433.73 204.96" fill="#FFDA00" fill-opacity="0.7"/>
<path d="M433.51 204.74C432.36 201.67 429.36 201.71 426.95 201.22C423.41 200.51 419.75 200.2 416.15 201.13C416.01 201.17 415.85 201.11 415.7 201.13C413.81 201.48 411.71 203.08 411.65 204.28C411.56 206.29 413.29 206.89 414.59 207.38C420.53 209.62 426.5 209.37 432.37 206.97C433.18 206.64 433.36 205.69 433.73 204.96" stroke="#2071B5" stroke-width="4.21" stroke-linecap="round" stroke-linejoin="round"/>
<path d="M449.51 206.55C442.67 210.85 435.1 213.01 427.19 214.23C422.78 214.91 418.35 215.54 413.89 215.29C410.58 215.11 407.21 215.5 403.97 214.44" stroke="#2071B5" stroke-width="4.21" stroke-linecap="round" stroke-linejoin="round"/>
<path d="M357.53 358.94C358.89 365.08 363.56 366.71 369.06 363.27C372.82 360.92 374.82 354.7 371.34 350.33C369.24 347.7 365.22 347.9 363.2 349.29C361.51 350.46 360.07 351.97 358.83 353.71C357.7 355.31 358.03 357.03 357.76 358.71" fill="#FFDA00" fill-opacity="0.7"/>
<path d="M357.53 358.94C358.89 365.08 363.56 366.71 369.06 363.27C372.82 360.92 374.82 354.7 371.34 350.33C369.24 347.7 365.22 347.9 363.2 349.29C361.51 350.46 360.07 351.97 358.83 353.71C357.7 355.31 358.03 357.03 357.76 358.71" stroke="#2071B5" stroke-width="4.21" stroke-linecap="round" stroke-linejoin="round"/>
<path d="M179.66 402.45C174.61 401.34 168.22 406.74 169.99 413.26C170.67 415.78 172.96 416.52 175.16 416.83C182.05 417.8 186.43 410.94 184.86 406.5C183.92 403.86 182.76 402.91 179.89 402.67" fill="#FFDA00" fill-opacity="0.7"/>
<path d="M179.66 402.45C174.61 401.34 168.22 406.74 169.99 413.26C170.67 415.78 172.96 416.52 175.16 416.83C182.05 417.8 186.43 410.94 184.86 406.5C183.92 403.86 182.76 402.91 179.89 402.67" stroke="#2071B5" stroke-width="4.21" stroke-linecap="round" stroke-linejoin="round"/>
<path d="M67.21 261.16C73.48 264.41 81.1 268.04 87.91 269.88C93.89 271.49 99.94 272.62 106.17 272.87C112.3 273.12 118.37 272.7 124.43 271.92" stroke="#2071B5" stroke-width="4.21" stroke-linecap="round" stroke-linejoin="round"/>
<path d="M305.01 104.87C299.61 104.37 294.2 104.17 288.78 104.15C283.63 104.14 278.58 105.18 273.45 105.32" stroke="#2071B5" stroke-width="4.21" stroke-linecap="round" stroke-linejoin="round"/>
<path d="M131.87 311.37C128.54 313.01 126.05 314.19 122 315.77C115.89 318.16 109.64 319.81 103.24 321.05C98.56 321.96 93.81 322.65 89.04 322.36C82.96 321.99 54.7 312.46 51.67 303.58" stroke="#2071B5" stroke-width="4.21" stroke-linecap="round" stroke-linejoin="round"/>
<path d="M129.39 281.39C129.28 291.46 130.31 301.44 131.87 311.37" stroke="#2071B5" stroke-width="4.21" stroke-linecap="round" stroke-linejoin="round"/>
<path d="M130.29 257.95C126.82 260.06 122.83 260.53 119.01 261.54C113.47 263 107.75 263.38 102.12 262.79C97.7399 262.33 93.4499 260.79 89.2599 259.28C83.1399 257.08 77.3399 254.31 73.2499 248.93C73.2099 248.88 71.8199 246.75 71.8199 246.68" stroke="#2071B5" stroke-width="4.21" stroke-linecap="round" stroke-linejoin="round"/>
<path d="M364.07 150.86C364.02 149.76 363.51 148.9 362.72 148.15C359.58 145.14 356.21 142.38 352.54 140.08C348.78 137.72 345.08 135.22 341.07 133.28C339.94 132.73 338.95 131.97 337.42 132.73C336.35 133.26 334.83 132.47 333.9 131.85C329.68 129 325 127.52 320.1 126.52C319.97 126.49 319.8 126.51 319.65 126.28" stroke="#2071B5" stroke-width="4.21" stroke-linecap="round" stroke-linejoin="round"/>
<path d="M259.69 57.98C262.99 59.69 266.65 60.39 270.08 61.76C273.84 63.26 277.55 64.88 281.3 66.39C282.2 66.75 284.26 67.1 283.81 68.57" stroke="#2071B5" stroke-width="4.21" stroke-linecap="round" stroke-linejoin="round"/>
<path d="M355.5 236.08C355.47 240.76 355.42 245.4 354.71 250.07C354.23 253.22 353.47 256.33 353.25 259.52" stroke="#2071B5" stroke-width="4.21" stroke-linecap="round" stroke-linejoin="round"/>
<path d="M319.66 126.29C318.1 124.52 315.14 124.86 313.34 124.54C312.87 124.46 312.42 124.99 311.75 124.52C309.13 122.68 305.94 122.46 302.97 122.36C299.62 122.24 296.16 121.25 292.82 122.67C292.19 122.94 291.62 122.29 291.02 122.26C284.97 121.91 278.99 122.35 273.22 124.29C271.29 124.94 269.25 124.51 267.32 125.31C266.15 125.8 264.9 126.1 263.72 126.69C262.28 127.4 260.47 127.07 259.03 127.7C256.13 128.95 253.18 130.04 250.38 131.6C247.29 133.32 243.73 134.16 240.5 135.71C239.49 136.19 235.42 137.43 239.95 141.55" stroke="#2071B5" stroke-width="4.21" stroke-linecap="round" stroke-linejoin="round"/>
<path d="M176.5 143.65C175.76 138.66 170.15 136.73 166.76 138.84C163.79 140.69 160.61 142.02 160.93 146.35C161.22 150.26 164.36 152.84 168.16 151.96C171.52 151.18 174.76 151.15 176.49 143.84" fill="#FFDA00" fill-opacity="0.7"/>
<path d="M176.5 143.65C175.76 138.66 170.15 136.73 166.76 138.84C163.79 140.69 160.61 142.02 160.93 146.35C161.22 150.26 164.36 152.84 168.16 151.96C171.52 151.18 174.76 151.15 176.49 143.84" stroke="#2071B5" stroke-width="4.21" stroke-linecap="round" stroke-linejoin="round"/>
<path d="M177.86 223.23C175.05 228.07 174.77 233.77 172.49 238.8C171.64 240.68 171.77 243.07 170.95 244.8C169.12 248.68 169.35 252.88 168.22 256.83C167.73 258.54 167.21 260.26 166.84 262C166.49 263.64 167.3 265.28 167.05 266.96C166.78 268.79 166.48 270.6 165.92 272.37C165.27 274.42 166.26 276.43 166.12 278.45C165.7 284.5 166.92 290.48 166.94 296.49C166.96 300.04 168.66 303.04 169.17 306.39C169.42 308.05 169.75 309.56 169 311.06C167.39 311.42 165.84 311.61 164.72 313.35C163.38 315.42 158.06 316.19 155.78 314.96C154.19 314.11 153.79 312.23 153.66 310.9C153.4 308.17 151.81 305.72 152.17 302.91C152.18 302.8 152.16 302.68 152.17 302.57C152.57 299.39 151.32 296.42 151.06 293.33C150.97 292.31 150.9 291.24 151.72 290.4" stroke="#2071B5" stroke-width="4.21" stroke-linecap="round" stroke-linejoin="round"/>
<path d="M371.17 174.53C373.68 180.21 376.59 185.73 378.45 191.68C378.58 192.09 379.04 192.35 378.94 192.79C378.08 196.58 381.3 199.31 381.58 202.72C381.89 206.5 383.31 210.02 383.69 213.76C383.92 216.09 384.64 218.36 384.39 220.75C384.3 221.6 384.32 222.45 383.91 223.23" stroke="#2071B5" stroke-width="4.21" stroke-linecap="round" stroke-linejoin="round"/>
<path d="M417.27 179.72C411.53 182.59 405.48 184.6 399.23 186.03" stroke="#2071B5" stroke-width="4.21" stroke-linecap="round" stroke-linejoin="round"/>
<path d="M377.6 275.76C378.29 278.62 376.77 281.01 375.71 283.39C375.02 284.95 374.75 286.97 372.86 287.81C372.53 287.96 372.67 288.18 372.64 288.38C371.56 294.84 368.1 300.24 364.87 305.74C363.72 307.7 363.09 309.91 361.88 311.86C361.42 312.61 360.92 313.16 360.24 313.63" stroke="#2071B5" stroke-width="4.21" stroke-linecap="round" stroke-linejoin="round"/>
<path d="M155.31 315.21C154.93 315.85 154.81 316.53 155.09 317.24C157.11 322.5 159.64 331.1 162.3 336.18" stroke="#2071B5" stroke-width="4.21" stroke-linecap="round" stroke-linejoin="round"/>
<path d="M250.75 131.4C246.5 133.88 248.27 136.23 248.45 137.1C249.12 140.45 250.5 143.43 253.62 145.19C254.72 145.81 256 145.51 257.21 145.22C261.01 144.33 264.63 142.78 268.48 142.06C272.15 141.37 275.81 140.62 279.53 140.31C280.82 140.2 282.18 140.04 283.33 139.71C287.93 138.4 292.38 140.02 296.88 140.17C299.15 140.24 301.51 141.1 303.87 141.43C304.14 141.47 304.54 141.71 304.77 141.59C308.13 139.84 310.79 142.49 313.5 143.41C315.84 144.21 318.15 145.63 320.57 146.55C328.32 149.49 334.9 154.27 341.05 159.68C343.2 161.57 344.87 163.98 346.75 166.15C349.76 169.62 352.44 173.35 355.41 176.85C357.52 179.34 359.74 182.24 360.66 185.19C361.64 188.35 362.75 191.46 363.87 194.57C364.68 196.81 365.88 198.97 366.63 201.17C367.72 204.39 368.53 207.76 368.97 211.24C369.48 215.37 369.38 219.66 370.86 223.65C370.95 223.88 371.14 224.11 371.05 224.33C369.72 227.89 371.51 231.51 370.73 235.18C370.13 238 370.37 241.04 369.9 243.94C369.58 245.92 369.79 247.78 370.61 249.58" stroke="#2071B5" stroke-width="4.21" stroke-linecap="round" stroke-linejoin="round"/>
<path d="M315.63 348.87C317.04 349.68 319.84 351.99 321.02 353.07C322.17 354.12 322.31 355.5 322.62 356.91C323.28 359.85 321.47 361.56 319.64 363.21C317.06 365.54 314.14 367.4 311.17 369.22C309.87 370.02 308.62 371.15 307.26 372.03C307.09 372.14 306.98 372.42 306.8 372.46C302.47 373.47 300.11 377.58 296.2 379.22C294.38 379.98 292.64 380.87 290.58 381.1C287.95 381.4 285.75 383.16 283.16 383.83C281.87 384.16 280.74 384.08 279.53 383.97" stroke="#2071B5" stroke-width="4.21" stroke-linecap="round" stroke-linejoin="round"/>
<path d="M261.27 379.23C259.33 379.24 258.75 380.57 258.32 382.16C257.79 384.1 257.99 386.07 257.86 388.02C257.74 389.74 256.62 390.65 254.96 390.96C250.11 391.86 245.23 392.25 240.31 391.86" stroke="#2071B5" stroke-width="4.21" stroke-linecap="round" stroke-linejoin="round"/>
<path d="M342.65 337.08C342.92 339.84 340.98 341.6 339.44 343.34C336.88 346.24 334.09 348.95 331.26 351.62C329.41 353.36 327.47 355.2 325.93 357.34C325.27 358.26 324.53 359.4 323.04 359.17" stroke="#2071B5" stroke-width="4.21" stroke-linecap="round" stroke-linejoin="round"/>
<path d="M370.16 250.06C368.47 251.55 369.24 253.71 368.96 255.49C368.69 257.19 369.05 258.89 368.22 260.69C366.9 263.56 366.64 266.81 365.9 269.9C364.86 274.28 364.92 274.29 369.04 275.98" stroke="#2071B5" stroke-width="4.21" stroke-linecap="round" stroke-linejoin="round"/>
<path d="M153.51 262.23C152.17 263.46 152.43 265.21 152.19 266.74C151.74 269.73 151.1 272.84 151.21 275.75C151.38 280.25 149.49 284.87 151.7 289.29C151.85 289.59 151.65 289.89 152.13 290.23C156.07 293.06 161.68 292.14 166.44 289.89" stroke="#2071B5" stroke-width="4.21" stroke-linecap="round" stroke-linejoin="round"/>
<path d="M350.54 308.67C351.73 308.98 352.94 308.92 354.15 308.89C359.18 308.75 360.94 313.15 359.13 317.02C357.38 320.76 354.47 323.61 351.84 326.65C351.29 327.28 350.84 328.24 349.87 328.51" stroke="#2071B5" stroke-width="4.21" stroke-linecap="round" stroke-linejoin="round"/>
<path d="M372.41 287.25C371 285.93 369.8 284.4 367.91 283.62C365.87 282.76 363.97 283.39 362.05 283.92C361.86 283.97 360.01 288.16 359.82 288.56C358.16 292.06 358.23 291.85 356.66 295.39C355.37 298.3 354.6 301.44 352.14 303.74C351.32 304.51 351.51 305.85 351 306.88C349.13 310.65 346.13 313.65 343.93 317.21C343.06 318.62 341.86 319.81 341.45 321.51C341.4 321.72 341.41 322.17 340.87 322.49C338.6 323.86 337.14 326.1 335.43 328.06C333.64 330.11 333.98 332.13 336.58 332.92C338.23 333.43 339.31 334.38 340.38 335.5C342.02 337.22 342.69 337.12 344.7 335.76C346.95 334.23 347.81 331.67 349.58 329.81C349.83 329.54 349.97 328.03 349.19 328.14C346.83 328.47 342.95 323.23 341.35 322.7" stroke="#2071B5" stroke-width="4.21" stroke-linecap="round" stroke-linejoin="round"/>
<path d="M334.31 331.44C328.99 334.5 325.53 339.49 321.51 343.88C321.07 344.37 320.85 344.81 320.12 345.01C319.18 345.26 318.33 345.81 317.63 346.54C313.12 351.23 307.46 354.41 302.31 358.27C296.84 362.36 290.24 364.36 284.41 367.81C282.62 368.87 279.9 368.93 278.01 370.07C273.98 372.5 269.29 371.84 265.09 373.31C264.14 373.64 263.26 374.02 262.41 374.5" stroke="#2071B5" stroke-width="4.21" stroke-linecap="round" stroke-linejoin="round"/>
<path d="M156.89 246.22C155.34 249.37 154.25 252.65 153.69 256.13C153.46 257.56 153.6 259 153.34 260.43C153.19 261.25 153.67 262.1 154.64 262.45C157.26 263.41 159.73 264.91 162.77 264.07C164.09 263.71 164.85 262.27 166.36 262.44" stroke="#2071B5" stroke-width="4.21" stroke-linecap="round" stroke-linejoin="round"/>
<path d="M384.13 223.68C384.77 231.42 385.5 239.18 384.08 246.89C383.46 250.26 383.73 253.72 382.82 257.06C382.5 258.22 382.47 259.45 381.65 260.43C381.35 260.78 381.36 261.07 381.36 261.56C381.29 265.88 380.14 269.99 378.49 273.96C378.05 275.02 377.35 275.59 376.04 275.85C373.84 276.28 371.71 276.76 369.49 276.22" stroke="#2071B5" stroke-width="4.21" stroke-linecap="round" stroke-linejoin="round"/>
<path d="M353.48 149.28C355.84 149.41 357.23 151.45 357.82 152.95C359.1 156.18 361.99 157.95 363.68 160.74C365.71 164.09 367.54 167.53 369.46 170.93C369.95 171.79 370.49 172.9 371.28 174.74" stroke="#2071B5" stroke-width="4.21" stroke-linecap="round" stroke-linejoin="round"/>
<path d="M321.14 126.96C318.42 127.38 313.44 131.23 312.75 133.07C312.05 134.92 312.18 137.04 311.33 138.91C311.1 139.42 311.97 142.28 311.93 142.73" stroke="#2071B5" stroke-width="4.21" stroke-linecap="round" stroke-linejoin="round"/>
<path d="M179.89 402.68C184.57 409.22 180.27 416.04 172.48 415.76" stroke="#2071B5" stroke-width="4.21" stroke-linecap="round" stroke-linejoin="round"/>
<path d="M275.25 372.02C277.54 374.06 278.43 376.77 278.85 379.69C278.88 379.91 278.81 380.15 278.86 380.36C279.75 384.14 279.75 384.32 276.36 386.2C273.58 387.74 270.57 388.73 267.36 388.93" stroke="#2071B5" stroke-width="4.21" stroke-linecap="round" stroke-linejoin="round"/>
<path d="M162.3 336.17C161.66 338.12 163.03 339.5 163.6 341.15C165.52 346.62 168.73 351.36 172.06 355.96C174.97 359.99 175.33 360.05 179.62 358.39C181.93 357.5 183.99 356.87 186.45 357.48C186.84 357.58 187.88 357.75 188.45 357.13" stroke="#2071B5" stroke-width="4.21" stroke-linecap="round" stroke-linejoin="round"/>
<path d="M205.14 364.8C207.67 364.55 209.78 365.74 211.9 366.84C214.38 368.14 216.8 369.56 219.57 370.22C221.92 370.79 224.04 371.95 226.22 372.9C228.3 373.8 231.08 374.4 233.55 374.18C236.57 373.92 239.33 374.48 242.13 375.36C242.97 375.62 243.94 375.47 244.82 375.37C247.91 375.03 250.98 375.18 254.07 375.37C255.15 375.44 256.24 375.59 257.26 374.75C258.17 374 259.44 373.99 260.61 374.04C262.45 374.12 261.71 377.21 261.46 379.22" stroke="#2071B5" stroke-width="4.21" stroke-linecap="round" stroke-linejoin="round"/>
<path d="M233.32 374.5C233.79 375.49 234.4 376.36 235.09 377.23C236.91 379.51 236.86 383.76 235.12 386.44C234.24 387.8 233.22 389.09 232.87 390.73" stroke="#2071B5" stroke-width="4.21" stroke-linecap="round" stroke-linejoin="round"/>
<path d="M188.45 356.98C197.35 353.39 199.78 360.11 203.98 363.26C205.74 364.58 204.39 366.53 204.46 368.19" stroke="#2071B5" stroke-width="4.21" stroke-linecap="round" stroke-linejoin="round"/>
<path d="M204.46 368.19C203.04 372.49 200.54 369.72 199.22 371.53C197.2 374.3 194.47 375.65 190.92 374.3C190.39 374.1 189.7 374.18 189.13 374.5" stroke="#2071B5" stroke-width="4.21" stroke-linecap="round" stroke-linejoin="round"/>
<path d="M217.97 151.91C218.91 153.48 221.43 154.37 222.18 156.45C223.66 160.54 223.44 163.7 220.22 166.41C217.73 168.51 215.25 170.65 212.7 172.68C210.96 174.07 209.41 176.17 207.75 177.84C203.92 181.7 201.03 186.28 197.43 190.29C196.59 191.22 195.83 192.71 194.07 191.89" stroke="#2071B5" stroke-width="4.21" stroke-linecap="round" stroke-linejoin="round"/>
<path d="M253.83 145.68C251.89 147.32 249.71 148.5 247.29 149.29C244.46 150.22 242.13 152.07 239.65 153.61C236.83 155.36 233.87 156.76 230.9 158.21C228.94 159.17 227.34 161.07 225.45 162.4C224.72 162.92 224.09 163.39 223.17 163.26" stroke="#2071B5" stroke-width="4.21" stroke-linecap="round" stroke-linejoin="round"/>
<path d="M175.6 359.62C175.82 361.67 176.15 363.59 178.5 364.44C178.78 364.54 179.36 365.14 179.69 365.69C181.72 369.04 184.97 371.21 187.7 373.9C190.75 376.9 194.87 378.04 198.01 380.53C201.78 383.51 206.31 384.21 210.41 386C213.24 387.24 216.45 388.44 219.77 388.76C222.09 388.98 224.22 390.15 226.54 390.53C229.16 390.95 231.83 390.8 234.44 391.41C235.53 391.66 238.16 391.8 241.05 392.03" stroke="#2071B5" stroke-width="4.21" stroke-linecap="round" stroke-linejoin="round"/>
<path d="M351.46 95C354.55 100.09 352.12 102.82 351.06 104.36C349.45 106.7 345.96 107.68 342.25 108.25" stroke="#2071B5" stroke-width="4.21" stroke-linecap="round" stroke-linejoin="round"/>
<path d="M200.4 370.89C201.37 371.72 200.77 372.67 200.63 373.6C200.25 376.13 200.28 378.58 202.2 380.59C202.9 381.32 202.58 382.23 202.65 383.07" stroke="#2071B5" stroke-width="4.21" stroke-linecap="round" stroke-linejoin="round"/>
<path d="M370.91 349.86C371.53 354.42 370.2 357.27 368.63 359.2C367.36 360.76 365.39 363.6 359.98 363.34" stroke="#2071B5" stroke-width="4.21" stroke-linecap="round" stroke-linejoin="round"/>
<path d="M225.65 373.37C224.84 374.29 223.57 374.48 222.69 375.38C220.71 377.42 219.24 380.54 218.92 388.23" stroke="#2071B5" stroke-width="4.21" stroke-linecap="round" stroke-linejoin="round"/>
<path d="M194.54 192.34C193.28 195.23 191.81 197.94 189.9 200.52C187.13 204.26 185.2 208.6 182.79 212.61C181.25 215.17 180.56 218.04 179.42 220.74C179.08 221.55 178.73 222.37 178.03 223.06" stroke="#2071B5" stroke-width="4.21" stroke-linecap="round" stroke-linejoin="round"/>
<path d="M312.22 125.16C313.84 129.61 313.15 134.02 309.54 138.24C308.9 138.99 308.4 139.88 308.39 140.94" stroke="#2071B5" stroke-width="4.21" stroke-linecap="round" stroke-linejoin="round"/>
<path d="M367.45 168.22C366.03 168.96 365.75 170.49 366.14 171.61C369.04 179.93 365.09 181.12 359.79 176.57C358.81 175.73 357.17 176.32 355.96 177.01" stroke="#2071B5" stroke-width="4.21" stroke-linecap="round" stroke-linejoin="round"/>
<path d="M169.43 308.38C170.94 312.75 174.68 323.77 176.1 328.12C177.73 333.08 181.56 336.79 182.81 341.81C185.32 343.4 185.57 346.67 188.09 348.52C189.93 349.87 191.81 351.68 193.2 353.74C193.63 354.39 194.12 354.95 194.08 355.78" stroke="#2071B5" stroke-width="4.21" stroke-linecap="round" stroke-linejoin="round"/>
<path d="M378.5 196.4C376.31 197.45 376.47 200.51 374.19 201.38C372.57 202 368.62 200.22 367.23 201.58" stroke="#2071B5" stroke-width="4.21" stroke-linecap="round" stroke-linejoin="round"/>
<path d="M176.35 226.46C174.13 224.06 171.81 222.35 170.2 221.19C169.63 220.78 169.15 221.1 168.61 221.19C167.57 221.34 166.51 221.73 165.46 221.21" stroke="#2071B5" stroke-width="4.21" stroke-linecap="round" stroke-linejoin="round"/>
<path d="M337.24 133.05C337.94 134.32 339.39 134.68 340.35 135.57C344.13 139.07 348.32 142.16 351.44 146.34C352.44 147.69 353.26 149.05 352.24 151.03" stroke="#2071B5" stroke-width="4.21" stroke-linecap="round" stroke-linejoin="round"/>
<path d="M166.81 298.07C162.6 296.16 158.51 297.5 154.42 298.55C153.82 298.7 153.26 299.02 152.61 298.97" stroke="#2071B5" stroke-width="4.21" stroke-linecap="round" stroke-linejoin="round"/>
<path d="M239.76 374.83C240.05 376.45 236.14 380.09 236.87 381.71C237.56 383.23 239.96 383.76 240.35 391.25" stroke="#2071B5" stroke-width="4.21" stroke-linecap="round" stroke-linejoin="round"/>
<path d="M352.12 151.31C350.7 152.79 350.55 154.9 349.31 156.58C347.67 158.79 345.88 159.66 343.33 159.41C342.78 159.36 342.47 159.84 341.98 159.87" stroke="#2071B5" stroke-width="4.21" stroke-linecap="round" stroke-linejoin="round"/>
<path d="M352.8 208.57C352.64 210.52 353.66 212.26 353.82 214.2C353.91 215.3 354.08 216.45 354.16 217.59" stroke="#2071B5" stroke-width="4.21" stroke-linecap="round" stroke-linejoin="round"/>
<path d="M160.27 246.67C163.34 245.74 166.47 247.36 169.06 248.47" stroke="#2071B5" stroke-width="4.21" stroke-linecap="round" stroke-linejoin="round"/>
<path d="M183.94 186.93C187.33 188.33 190.29 190.65 193.86 191.66" stroke="#2071B5" stroke-width="4.21" stroke-linecap="round" stroke-linejoin="round"/>
<path d="M387.52 213.08C388.14 215.91 387.94 218.78 387.97 221.65" stroke="#2071B5" stroke-width="4.21" stroke-linecap="round" stroke-linejoin="round"/>
<path d="M355.5 225.71C355.36 228.57 355.69 231.42 355.73 234.28" stroke="#2071B5" stroke-width="4.21" stroke-linecap="round" stroke-linejoin="round"/>
<path d="M158.69 239.23C159.46 239.19 160.24 239.48 160.96 238.8C161.96 237.86 163.05 238.09 164.34 238.49C166.65 239.2 168.96 239.97 171.31 240.58" stroke="#2071B5" stroke-width="4.21" stroke-linecap="round" stroke-linejoin="round"/>
<path d="M381.97 259.52C379.35 263.74 369.77 260.1 369.2 256.35" stroke="#2071B5" stroke-width="4.21" stroke-linecap="round" stroke-linejoin="round"/>
<path d="M292.38 122.91C292.36 123.52 292.61 124.32 292.13 124.68C290.54 125.88 290.71 127.54 290.54 129.22C290.35 131.09 290.06 132.95 289.05 134.66C288.36 135.83 288.1 137.26 288.33 138.69" stroke="#2071B5" stroke-width="4.21" stroke-linecap="round" stroke-linejoin="round"/>
<path d="M174.33 140.3C175.88 146.6 167.59 150.18 164.1 151.05" stroke="#2071B5" stroke-width="4.21" stroke-linecap="round" stroke-linejoin="round"/>
<path d="M179.65 335.85C174.64 338.18 167.85 344.71 167.71 348.12" stroke="#2071B5" stroke-width="4.21" stroke-linecap="round" stroke-linejoin="round"/>
<path d="M380.97 200.95C377.86 198.57 371.67 203.03 368.8 206.77" stroke="#2071B5" stroke-width="4.21" stroke-linecap="round" stroke-linejoin="round"/>
<path d="M402.4 242.84C400.09 243 398.01 244.32 395.64 244.19" stroke="#2071B5" stroke-width="4.21" stroke-linecap="round" stroke-linejoin="round"/>
<path d="M195.95 170.58C199.72 170.36 203.96 173.44 204.23 177.01C204.31 178.09 204.81 179.09 204.91 180.17" stroke="#2071B5" stroke-width="4.21" stroke-linecap="round" stroke-linejoin="round"/>
<path d="M165.23 274.63C161.66 272.84 155.04 273.04 151.4 274.37" stroke="#2071B5" stroke-width="4.21" stroke-linecap="round" stroke-linejoin="round"/>
<path d="M383.82 223.56C380.75 223.31 381.19 229.04 378.16 229.23C376.53 229.33 372.85 224.87 371.29 224.36" stroke="#2071B5" stroke-width="4.21" stroke-linecap="round" stroke-linejoin="round"/>
<path d="M300.99 359.2C299.81 360.67 301.03 363.95 301.67 365.01C302.16 365.82 302.92 366.43 302.76 367.52C302.68 368.09 302.61 368.57 301.85 368.31" stroke="#2071B5" stroke-width="4.21" stroke-linecap="round" stroke-linejoin="round"/>
<path d="M349.96 328.16C349.5 323.69 344.16 320.97 341.79 321.75" stroke="#2071B5" stroke-width="4.21" stroke-linecap="round" stroke-linejoin="round"/>
<path d="M358.66 155.14C356.82 155.87 352.42 155.76 350.43 156.21C348.64 156.61 347.71 163.99 346.7 165.65" stroke="#2071B5" stroke-width="4.21" stroke-linecap="round" stroke-linejoin="round"/>
<path d="M365.42 152.66C367.49 153.99 368.47 156.23 369.93 158.07" stroke="#2071B5" stroke-width="4.21" stroke-linecap="round" stroke-linejoin="round"/>
<path d="M169.29 213.31C169.67 213.31 170.14 213.16 170.4 213.33C173.49 215.42 176.97 215.81 180.56 215.79" stroke="#2071B5" stroke-width="4.21" stroke-linecap="round" stroke-linejoin="round"/>
<path d="M365.2 274.63C363.76 277.49 362.21 280.3 362.27 283.65" stroke="#2071B5" stroke-width="4.21" stroke-linecap="round" stroke-linejoin="round"/>
<path d="M372.86 179.49C372.16 179.44 368.86 178.58 366.15 179.72C363.47 180.85 363.07 183.52 361.15 185.48" stroke="#2071B5" stroke-width="4.21" stroke-linecap="round" stroke-linejoin="round"/>
<path d="M353.12 303.26C354.95 307.82 358.36 311.23 362.34 309.99" stroke="#2071B5" stroke-width="4.21" stroke-linecap="round" stroke-linejoin="round"/>
<path d="M321.24 344.97C322.28 347.09 323.72 349.76 321.63 352.97" stroke="#2071B5" stroke-width="4.21" stroke-linecap="round" stroke-linejoin="round"/>
<path d="M283.81 368.37C283.36 373.1 285.56 379.04 287.19 381.93" stroke="#2071B5" stroke-width="4.21" stroke-linecap="round" stroke-linejoin="round"/>
<path d="M186.24 346.43C182.04 349.83 185.12 351.02 184.05 354.66C183.52 356.44 181.53 359.32 173.8 357.16" stroke="#2071B5" stroke-width="4.21" stroke-linecap="round" stroke-linejoin="round"/>
<path d="M157.64 322.76C159.3 322.21 160.37 319.96 162.26 319.35C164.82 318.53 166.91 318.75 169.04 319.18C170.04 319.38 171.87 319.3 172.85 319.45" stroke="#2071B5" stroke-width="4.21" stroke-linecap="round" stroke-linejoin="round"/>
<path d="M272.32 124.94C269.41 128.43 270.3 132.78 274.43 140.61" stroke="#2071B5" stroke-width="4.21" stroke-linecap="round" stroke-linejoin="round"/>
<path d="M293.34 363.35C295.31 362.53 298.91 364.69 300.02 366.18C300.47 366.78 301.01 367.31 301.4 367.97" stroke="#2071B5" stroke-width="4.21" stroke-linecap="round" stroke-linejoin="round"/>
<path d="M257.89 389.38C259.18 390.22 260.6 390.33 261.93 389.69C263.63 388.87 265.49 390.17 267.13 389.16" stroke="#2071B5" stroke-width="4.21" stroke-linecap="round" stroke-linejoin="round"/>
<path d="M369.99 245.75C371.72 249.19 383.33 249.94 383.95 246.87" stroke="#2071B5" stroke-width="4.21" stroke-linecap="round" stroke-linejoin="round"/>
<path d="M218.24 370.15C217.31 371.14 220.32 377.17 220.08 378.3C219.37 381.74 214.82 379.51 214.19 386.88" stroke="#2071B5" stroke-width="4.21" stroke-linecap="round" stroke-linejoin="round"/>
<path d="M344.46 139.81C342.58 140.01 340.9 141.21 338.81 140.54C336.88 139.92 334.7 140.75 333.69 143.5C333.49 144.06 332.21 151.58 332.31 152.2" stroke="#2071B5" stroke-width="4.21" stroke-linecap="round" stroke-linejoin="round"/>
<path d="M334.31 132.38C333.46 133.89 333.4 135.53 333.88 137.11C335.02 140.84 332.35 146.66 328.88 147.67C328.01 147.92 327.31 148.31 326.64 148.84" stroke="#2071B5" stroke-width="4.21" stroke-linecap="round" stroke-linejoin="round"/>
<path d="M224.15 146.61C223.36 146.85 219.81 154.7 222.11 155.18C223.94 155.56 229.07 156.86 230.05 158.41" stroke="#2071B5" stroke-width="4.21" stroke-linecap="round" stroke-linejoin="round"/>
<path d="M255.63 375.85C256.07 377.64 254.69 379.52 258.35 381.29" stroke="#2071B5" stroke-width="4.21" stroke-linecap="round" stroke-linejoin="round"/>
<path d="M160.27 234.26C161.14 235.35 162.76 236.6 163.43 237.88" stroke="#2071B5" stroke-width="4.21" stroke-linecap="round" stroke-linejoin="round"/>
<path d="M371.28 231.34C372.81 231.07 374.32 230.9 375.82 230.28C377.95 229.4 381.47 229.19 382.53 231.47C382.8 232.06 384.66 235.98 384.9 236.58" stroke="#2071B5" stroke-width="4.21" stroke-linecap="round" stroke-linejoin="round"/>
<path d="M128.94 271.25C127.77 271.06 126.77 271.6 124.43 271.93" stroke="#2071B5" stroke-width="4.21" stroke-linecap="round" stroke-linejoin="round"/>
<path d="M160.27 246.67C159.21 247.35 158.12 247.78 156.89 247.12" stroke="#2071B5" stroke-width="4.21" stroke-linecap="round" stroke-linejoin="round"/>
<path d="M176.28 196.85C177.92 197.21 179.62 196.85 181.23 197.12C184.79 197.72 186.69 198.66 186.2 202.27C186.1 203.03 186.35 203.72 186.87 204.3" stroke="#2071B5" stroke-width="4.21" stroke-linecap="round" stroke-linejoin="round"/>
<path d="M346.71 94.0501C343.18 94.9801 340.68 97.1501 339.53 100.6C338.69 103.13 339.06 105.58 341.07 107.58C343.03 109.54 345.26 109.65 347.85 108.97C351.5 108.01 353.66 105.7 354.33 102.16C355.17 97.7401 351.94 93.3901 346.93 94.0501" fill="#FFDA00" fill-opacity="0.7"/>
<path d="M346.71 94.0501C343.18 94.9801 340.68 97.1501 339.53 100.6C338.69 103.13 339.06 105.58 341.07 107.58C343.03 109.54 345.26 109.65 347.85 108.97C351.5 108.01 353.66 105.7 354.33 102.16C355.17 97.7401 351.94 93.3901 346.93 94.0501" stroke="#2071B5" stroke-width="4.21" stroke-linecap="round" stroke-linejoin="round"/>
<path d="M381.04 264.33C379.34 261.87 368.51 260.35 367.37 263.02" stroke="#2071B5" stroke-width="4.21" stroke-linecap="round" stroke-linejoin="round"/>
<path d="M369.74 250.91C371.54 247.68 382.92 249.13 383.46 252.63" stroke="#2071B5" stroke-width="4.21" stroke-linecap="round" stroke-linejoin="round"/>
<path d="M177.82 193.81C181.38 193.21 181.58 197.18 190.14 199.29" stroke="#2071B5" stroke-width="4.21" stroke-linecap="round" stroke-linejoin="round"/>
</svg>
