<?xml version="1.0" encoding="UTF-8"?>
<svg id="icons" xmlns="http://www.w3.org/2000/svg" viewBox="0 0 500 500">
  <defs>
    <style>
      .cls-1 {
        fill: none;
        stroke: #000;
        stroke-linecap: round;
        stroke-linejoin: round;
        stroke-width: .89px;
      }
    </style>
  </defs>
  <path class="cls-1" d="M127.61,246.15c-2.38-1.61-3.76-4.19-5.95-6.03-5.33-4.5-11.23-7.41-18.22-8.44-13.83-2.04-25.5,2.19-35.48,11.6-8.14,7.67-12.82,17.35-16.02,27.92-1.98,6.54-2.8,13.23-2.77,19.97.05,9.24,1.38,18.36,3.92,27.28,4.8,16.82,12.97,31.83,24.16,45.26,8.42,10.11,18.22,18.57,29.54,25.23,6.8,4,13.99,6.98,21.92,8.34,9.08,1.55,17.7.87,25.96-3.21,8.62-4.26,14.93-10.99,19.98-19.05,4.44-7.09,6.47-14.96,7.7-23.08.33-2.17.05-4.43.05-6.65"/>
  <path class="cls-1" d="M115.85,252.58c-9.04-5.22-18.53-6.43-28.13-2.14-8.4,3.76-14.29,10.32-18,18.77-4.43,10.08-5.43,20.59-4.51,31.5,1,11.81,4.46,22.86,9.91,33.22,5.27,10.02,12.38,18.76,20.75,26.45,6.02,5.52,12.53,10.25,19.95,13.78,6.58,3.13,13.33,4.54,20.65,4.03,6.59-.46,12.5-2.5,17.7-6.34,5.86-4.33,10.1-10.04,12.94-16.79.24-.57.02-.9-.04-1.35"/>
  <path class="cls-1" d="M191.92,328.65c2.32-2.5,5.6-3.43,8.42-5.12,7.84-4.69,16.02-8.76,24.18-12.85,5.61-2.81,8.57-7.48,9.78-13.52,2.14-10.72.27-21.04-3.17-31.15-3.05-8.97-6.91-17.55-12.33-25.44-6.82-9.93-15.91-16.68-27.35-20.08-7.56-2.25-15.33-2.64-22.81.62-4.1,1.79-7.58,4.66-11.33,7.05-6.36,4.05-12.69,8.19-18.98,12.34-7.84,5.17-15.81,10.15-23.57,15.43-4.17,2.83-8.42,5.57-11.38,9.92-3.51,5.14-5.03,10.87-5.69,16.89-.73,6.62.07,13.07,1.9,19.53,3.78,13.35,11.48,24.14,21.42,33.4,5.15,4.8,10.75,9.12,17.67,11.42,8.66,2.87,17.08,3.13,25.05-1.85,5.63-3.52,11.67-6.3,17.13-10.12,2.71-1.89,5.63-3.52,8.39-5.37.75-.5,1.53-.96,2.44-1.11"/>
  <path class="cls-1" d="M281.96,274.76c3.68-3.36,8.04-5.76,12.2-8.42,7-4.47,14.18-8.66,21.06-13.32,1.71-1.16,2.8-2.8,3.82-4.62,4.02-7.16,5.18-14.97,4.26-22.85-1.05-9.04-4.04-17.54-8.64-25.58-5.21-9.12-12.04-16.69-20.11-23.16-5.66-4.54-12.06-8.01-19.25-9.56-4.7-1.02-9.22-.02-13.28,2.43-10.84,6.55-21.7,13.07-32.62,19.49-1.14.67-2.33,1.3-3.11,2.44"/>
  <path class="cls-1" d="M191.92,328.87c2.47,2.21,5.61,3.3,8.47,4.81,6.78,3.58,13.69,6.94,20.62,10.2,5.02,2.36,10.25,3.26,15.09-.98,1.22-1.07,1.27-2.33,1.83-3.55,1.01-2.18,2.17-4.3,3.22-6.48,3.46-7.15,8.13-20.77,9.97-28.5,1.78-7.5.9-33.83-2.22-40.91-5.77-13.08-11.43-25.78-17.53-39.7-1.97-4.5-21.22-16.36-25.35-19.07-8.8-5.77-22.35-10.57-31.22-11.92-6.61-1.01-12.63,6.1-24.86,23.46-1.84,2.61-.69,12.71-2.28,17.3"/>
  <path class="cls-1" d="M94.12,266.11c-3.03,1.2-4.81,3.73-6.65,6.21-5.34,7.18-7.3,15.43-7.52,24.17-.36,14.39,4.13,27.35,11.96,39.25,6.39,9.7,14.66,17.37,25.07,22.6,4.64,2.33,9.62,3.41,14.84,3.61,5.69.22,10.95-.92,15.75-4.03"/>
  <path class="cls-1" d="M237.83,341.29c.67-.12,1.3.06,2.02-.4,6.1-3.89,12.16-7.86,18.37-11.59,2.65-1.6,3.53-4.58,4.84-7.1,6.43-12.38,13.09-24.64,19.18-37.2,1.63-3.37,1.71-6.39-.05-9.57-.06-.11.03-.41-.01-.42-3.07-1.04-2.11-3.88-2.63-6.01-1.1-4.48-2.29-8.94-3.8-13.3-4.38-12.72-9.79-24.99-16.64-36.59-3.65-6.17-9.1-10.51-14.8-14.71-5.82-4.29-11.83-8.31-17.87-12.23-4.49-2.92-9.35-5.36-14.1-7.92-6.35-3.41-12.77-6.69-19.07-10.21-1.72-.96-3.09-.99-4.69.03-12.41,7.97-24.99,15.67-37.46,23.55-3.83,2.42-7.69,4.78-11.38,7.45-1.63,1.18-2.19,2.42-2.19,4.28.04,8.65-.01,17.3.04,25.95.01,1.7-.96,3.51.42,5.1"/>
  <path class="cls-1" d="M274.2,165.2c5.87-1.18,10.26-5.24,15.25-8.07,5.13-2.91,10.1-6.13,15.12-9.24,3.62-2.23,7.19-4.48,11.3-5.8,5.7-1.83,11.27-1.38,16.87.26,10.69,3.14,18.87,9.65,25.3,18.61,3.8,5.3,6.95,10.89,9.12,17.08,2.58,7.38,3.44,14.97,2.73,22.63-.6,6.53-2.3,12.84-6.94,18.02-2.37,2.64-5.43,4.11-8.29,5.9-9.42,5.91-19.01,11.54-28.38,17.54-1.09.7-1.99,1.55-2.87,2.47"/>
  <path class="cls-1" d="M164.54,344.75c2.13-1.88,3.27-4.19,3.88-5.23,2.92-4.94,4.73-10.09,5.6-15.74.96-6.19-.13-12.08-1.63-17.97-3.78-14.75-11.8-26.98-22.63-37.46-4.23-4.1-8.9-7.76-14.42-9.94-6.02-2.37-12.29-3-18.6-.93-.83.27-1.59.62-2.45.2"/>
  <path class="cls-1" d="M235.61,257.01c1.89,7.6,4.16,15.12,5.51,22.85.89,5.06,2.38,10.07,2.02,15.3-.63,9.15-3.14,17.46-10.64,23.51"/>
  <path class="cls-1" d="M432.1,100.89c-3.42,1.12-6.27,3.31-9.29,5.14-10.76,6.51-21.4,13.22-32.17,19.71-4.83,2.91-9.39,6.27-14.41,8.88-.61.32-.86,1.05-1.34,1.54"/>
  <path class="cls-1" d="M449.17,127.94c-10.3,6.69-21.04,12.64-31.48,19.09-7.4,4.57-14.92,8.95-22.18,13.74-.7.46-1.4.89-2.22,1.1"/>
  <path class="cls-1" d="M159.76,294.27c3.61,6.72,6.55,13.73,7.7,21.3.78,5.18.61,10.43-1.04,15.51"/>
  <path class="cls-1" d="M215.65,265.88c1.78,4.66,3.54,9.32,4.64,14.2,1.18,5.25,1.83,10.57,1.54,15.96-.06,1.03-.61,2.02-.42,3.11"/>
  <path class="cls-1" d="M345.83,148.12c2.49-3.46,6.48-4.94,9.81-7.24,3.82-2.64,8.01-4.95,12.81-5.1,2.52-.08,5.07,0,7.57,1.19,7.58,3.62,12.4,9.75,15.16,17.29,2.8,7.65,2.54,15.42-2.34,22.46-1.92,2.78-5.06,3.98-7.75,5.78-3.1,2.08-6.53,3.65-9.32,6.2"/>
  <path class="cls-1" d="M153.55,294.27c2.9,5.31,4.92,10.99,6.13,16.87.84,4.06.9,8.26.08,12.4"/>
  <path class="cls-1" d="M309.68,205.56c3.37,7.07,5.94,14.38,7.17,22.17.26,1.65.28,3.26.37,4.89"/>
  <path class="cls-1" d="M358.91,173.63c2.52,5.55,4.74,11.2,5.54,17.3.4,3.02,1.1,6.02.45,9.09"/>
  <path class="cls-1" d="M133.59,265.88c-3.09-.72-6.05-1.99-9.31-2.01-5.09-.02-9.81,1.2-14.19,3.78"/>
  <path class="cls-1" d="M105.65,281.41c-2.47,7.64-1.5,15.07,1.32,22.4.07.19,0,.44,0,.66"/>
  <path class="cls-1" d="M223.19,232.62c5.34,6.45,8.7,13.96,11.52,21.74.09.26.01.59.01.88"/>
  <path class="cls-1" d="M133.59,272.98c-3.61-1.19-7.19-2.32-11.09-2.26-4.11.07-7.76,1.26-11.09,3.59"/>
  <path class="cls-1" d="M237.83,326.21c-4.92,4.07-10.51,6.81-16.86,7.45-3.22.32-6.52-.41-9.75-1-3.69-.68-7.18-1.95-10.64-3.35"/>
  <path class="cls-1" d="M192.58,285.4c1.29,3.81,2.69,7.61,3.5,11.54.87,4.22,1.45,8.51.94,12.85-.05.44,0,.89,0,1.33"/>
  <path class="cls-1" d="M274.86,280.39c-6.21,4.9-12.36,9.88-18.85,14.42-.73.51-1.45,1.09-2.44.89"/>
  <path class="cls-1" d="M207.66,219.76c-5.81-3.79-12.05-6.68-18.63-8.86-.27-.09-.59-.01-.88-.01"/>
  <path class="cls-1" d="M130.04,334.63c4.63,1.98,9.13,4.33,14.42,4.02,2.1-.12,4.03-.72,5.99-1.36"/>
  <path class="cls-1" d="M237.83,212.66c-6.09,2.41-11.96,1.27-17.73-1.14-.32-.13-.6-.15-.9-.19"/>
  <path class="cls-1" d="M288.83,242.82c-.03,2.26.77,4.4.98,6.64.31,3.22.58,6.36-.07,9.55-.16.78-.02,1.62-.02,2.43"/>
  <path class="cls-1" d="M224.96,271.21c.38,3.07,1.46,5.99,1.85,9.08.49,3.92.81,7.82.82,11.76"/>
  <path class="cls-1" d="M208.55,321.33c3.83,1.95,7.9,2.83,12.2,2.67,1.47-.05,2.68-1.21,4.21-.9"/>
  <path class="cls-1" d="M183.27,211.15c-2.08-.04-4.12-.42-6.21-.51-3.52-.15-6.83.76-10.2,1.39"/>
  <path class="cls-1" d="M283.07,177.18c-5.09-2.56-10.38-4.58-15.97-5.77"/>
  <path class="cls-1" d="M180.17,294.27c1.51,4.17,2.39,8.5,3.07,12.87.25,1.59.04,3.25.04,4.87"/>
  <path class="cls-1" d="M174.4,235.28c-3.21-.76-6.28-2.02-9.53-2.7-1.99-.41-3.95-.9-6-.85"/>
  <path class="cls-1" d="M250.47,210.89c-.99,1.23-2.41,1.76-3.76,2.46-4.97,2.57-9.63,5.7-14.65,8.19"/>
  <path class="cls-1" d="M201.45,287.17c2.07,7.05,2.71,14.22,1.76,21.51-.17,1.28-.9,2.44-.88,3.77"/>
  <path class="cls-1" d="M185.93,288.06c1.23,3.66,2.72,7.26,3.29,11.09.65,4.4,1.61,8.78.75,13.31-.33,1.71-.05,3.54-.05,5.31"/>
  <path class="cls-1" d="M214.32,281.85c.07,2.2,1.02,4.24,1.12,6.43.09,2.01.59,3.97.68,5.99"/>
  <path class="cls-1" d="M368.67,142.14c-4.98,2.79-9.63,6.12-14.64,8.87"/>
  <path class="cls-1" d="M183.27,312.9c.3,4.75-.86,9.27-2.22,13.75"/>
  <path class="cls-1" d="M295.49,237.05c.5,2.65,1.31,5.38,1.17,7.98-.16,3.02-.04,6.08-.48,9.1-.27,1.87-.94,3.66-1.13,5.54"/>
  <path class="cls-1" d="M239.16,221.53c.07,1.84-.63,3.54-.93,5.32-.4,2.4.15,4.74.04,7.1"/>
  <path class="cls-1" d="M149.56,248.14c-3.11-1.12-6.23-2.17-9.52-2.77-.81-.15-1.65-.16-2.46-.34"/>
  <path class="cls-1" d="M162.44,215.13c-2.78,2.88-5.01,6.26-8.02,8.94"/>
  <path class="cls-1" d="M308.79,226.85c-.04,2.19.76,4.25,1.01,6.42.37,3.21.5,6.36.1,9.55-.2,1.63-.45,3.25-.67,4.88"/>
  <path class="cls-1" d="M215.65,296.93c.02,3.94-.94,7.73-1.77,11.53"/>
  <path class="cls-1" d="M228.95,336.85c-2.98,1.22-6.07,1.94-9.31,1.76-.66-.04-1.17.35-1.77.46"/>
  <path class="cls-1" d="M338.95,217.1c-3.88,1.91-7.37,4.48-11.09,6.65"/>
  <path class="cls-1" d="M209.44,288.5c.2,2.67.72,5.32.85,7.99.14,2.81.1,5.64-.41,8.43"/>
  <path class="cls-1" d="M191.28,176.01c-2.59,5.84-14.46,11.64-16.88,17.57"/>
  <path class="cls-1" d="M364.68,202.24c-.32,3.62-1.53,7.01-2.66,10.42"/>
  <path class="cls-1" d="M196.58,231.29c-3.09-1.51-5.87-3.68-9.31-4.44"/>
  <path class="cls-1" d="M291.05,224.64c.89,3.01,2.54,5.75,3.1,8.87"/>
  <path class="cls-1" d="M149.12,224.19c-1.25,2.73-.78,6.85-1.55,9.76"/>
  <path class="cls-1" d="M283.51,256.57v8.43"/>
  <path class="cls-1" d="M166.86,241.49c-2.69-1.12-4.99-3.11-7.98-3.55"/>
  <path class="cls-1" d="M267.54,177.62c-2.74-.64-5.23-2.06-7.98-2.66"/>
  <path class="cls-1" d="M161.54,255.68c2.87,1.99,5.31,4.43,7.54,7.1"/>
  <path class="cls-1" d="M295.04,214.88c1.13,2.54,2.72,4.86,3.55,7.54"/>
  <path class="cls-1" d="M257.34,323.1c-2.59,1.35-4.88,3.21-7.54,4.44"/>
  <path class="cls-1" d="M348.27,170.08c-2.49,1.12-4.61,2.87-7.1,3.99"/>
  <path class="cls-1" d="M241.82,194.47c-2.32-1.27-4.52-2.79-7.1-3.55"/>
  <path class="cls-1" d="M207.22,264.55c.63,2.54,2.48,4.55,3.1,7.1"/>
  <path class="cls-1" d="M137.14,251.69c-2.3,0-4.39-1.1-6.65-1.33"/>
  <path class="cls-1" d="M280.41,221.97c1,2.23,2.39,4.28,3.1,6.65"/>
  <path class="cls-1" d="M240.49,237.94c.62,2.32,2.04,4.33,2.66,6.65"/>
  <path class="cls-1" d="M159.32,340.84c-2.01,1.47-4.36,2.23-6.65,3.1"/>
  <path class="cls-1" d="M181.94,280.08c1,2.23,2.39,4.28,3.1,6.65"/>
  <path class="cls-1" d="M280.85,243.71c.23,2.26,1.47,4.32,1.33,6.65"/>
  <path class="cls-1" d="M276.86,192.26c2.34,1.63,4.46,3.5,6.21,5.77"/>
  <path class="cls-1" d="M117.63,322.21c1.39,2.54,3.84,4.16,5.54,6.43"/>
  <path class="cls-1" d="M256.9,188.26c-2.05-.94-3.94-2.23-6.21-2.66"/>
  <path class="cls-1" d="M152.67,259.67c2.09,1.26,3.9,2.89,5.77,4.44"/>
  <path class="cls-1" d="M107.87,305.8c.52,2.09,1.84,3.81,2.66,5.77"/>
  <path class="cls-1" d="M156.66,330.64c-.88,2.27-2.54,3.89-4.44,5.32"/>
  <path class="cls-1" d="M284.84,188.26c1.96,1.59,3.73,3.36,5.32,5.32"/>
  <path class="cls-1" d="M260.45,208.22c1.38,2,3.49,3.33,4.88,5.32"/>
  <path class="cls-1" d="M375.77,149.23c-2.27,1.25-4.35,2.81-6.65,3.99"/>
  <path class="cls-1" d="M265.32,202.9c1.38,2,3.49,3.33,4.88,5.32"/>
  <path class="cls-1" d="M371.33,167.86c.89,1.77,1.78,3.55,2.66,5.32"/>
  <path class="cls-1" d="M293.71,197.58c1.4,1.63,2.52,3.45,3.55,5.32"/>
  <path class="cls-1" d="M259.12,189.6c1.86.88,3.58,2.02,5.32,3.1"/>
  <path class="cls-1" d="M181.5,266.33c1.09,1.84,2.63,3.37,3.55,5.32"/>
  <path class="cls-1" d="M273.31,200.24c1.8,1.45,3.43,3.08,4.88,4.88"/>
  <path class="cls-1" d="M281.29,276.31c-1.35,1.51-3.18,2.33-4.88,3.33"/>
  <path class="cls-1" d="M176.62,271.65c.88,1.72,2.34,3.08,3.1,4.88"/>
  <path class="cls-1" d="M167.3,251.25c1.68,1.26,3.24,2.67,4.88,3.99"/>
  <path class="cls-1" d="M162.42,268.1c1.08,1.71,2.91,2.73,3.99,4.44"/>
</svg>