<?xml version="1.0" encoding="UTF-8"?>
<svg id="icons" xmlns="http://www.w3.org/2000/svg" viewBox="0 0 500 500">
  <defs>
    <style>
      .cls-1 {
        fill: none;
        stroke: #000;
        stroke-linecap: round;
        stroke-linejoin: round;
        stroke-width: .98px;
      }
    </style>
  </defs>
  <path class="cls-1" d="M406.73,120.55c-.02-8.22-2.42-15.55-8.39-21.37-3.76-3.67-8.57-5.59-13.5-7.15-8.21-2.6-16.72-3.96-25.09-5.89-9.07-2.1-18.17-4.05-27.29-5.95-9.11-1.9-18.23-3.8-27.31-5.89-7.37-1.69-14.77-3.24-22.16-4.8-9.66-2.03-19.33-4.04-29-6.04-6.43-1.33-12.8-2.93-19.21-4.29-7.86-1.67-15.74-3.3-23.59-5.02-6.06-1.33-12.09-2.99-18.22-3.82-5.6-.76-11.3-.16-16.45,2.6-9.61,5.15-19.02,10.67-28.57,15.92-9.52,5.24-19.02,10.5-28.48,15.83-8.05,4.54-14.9,10.56-19.14,18.93-2.3,4.54-3.43,9.53-3.54,14.72-.51,23.61-.35,47.23-.16,70.84.34,41.65.11,83.3.13,124.95,0,13.33,7.36,21.31,19,24.81,7.66,2.3,15.53,3.9,23.37,5.35,13.54,2.5,26.95,5.51,40.31,8.75,9.82,2.38,19.65,4.73,29.53,6.82,11.54,2.44,22.99,5.27,34.43,8.14,9.34,2.34,18.69,4.62,28.04,6.91,9.08,2.22,18.12,4.58,27.29,6.46,5.32,1.09,10.5,2.8,16,2.89,2.55.04,4.99-.58,7.37-1.29,5.68-1.71,10.78-4.58,15.79-7.78,16.36-10.47,33.03-20.46,49.19-31.25,4.07-2.72,8.33-5.14,12.04-8.39,5.66-4.97,8.63-11.09,8.62-18.7-.05-27.06.06-54.11-.07-81.17-.04-7.95-.07-15.91-.22-23.86-.5-25.58,0-51.16-.3-76.74-.06-4.75.16-9.53-.42-14.27"/>
  <path class="cls-1" d="M120.18,94.73c-6.09,4.59-10.96,10.06-12.78,17.71-.58,2.42-.99,4.87-.99,7.38,0,64.61,0,129.21,0,193.82,0,5.77,2.5,9.93,7.35,13.1,4.49,2.93,9.56,3.85,14.56,5.08,12.03,2.97,24.1,5.75,36.16,8.59,11.63,2.74,23.29,5.41,35.16,8.18"/>
  <path class="cls-1" d="M385.57,103.34c-3.43-2.29-7.45-2.94-11.32-3.89-9.71-2.39-19.49-4.53-29.26-6.68-11.72-2.58-23.45-5.07-35.16-7.69-12.46-2.79-24.92-5.61-37.42-8.22-13.36-2.79-26.7-5.7-40.07-8.47-11.67-2.42-23.3-5.01-34.95-7.51-8.5-1.82-16.69-.89-24.39,4-6.55,4.16-13.6,7.56-20.34,11.44-9.48,5.46-19.14,10.62-28.56,16.19-.68.4-1.13,1.01-1.71,1.49"/>
  <path class="cls-1" d="M394.18,109.73c2.87,4.33,3.69,9.19,3.69,14.27,0,63.46,0,126.92,0,190.38,0,6.64-2.49,11.99-8.11,15.75-5.65,3.78-11.28,7.59-16.96,11.33-11.87,7.82-23.64,15.79-35.65,23.39-.68.43-1.23.75-2,.69"/>
  <path class="cls-1" d="M115.5,123.01c-1.49,4.09-.89,8.35-.91,12.54,0,.77.15,1.64.15,2.46.02,28.78-.08,57.56.07,86.33.05,9.02.3,18.04.13,27.06-.1,5.41-.34,10.83-.13,16.23.24,6.07-.12,12.13.09,18.21.36,10.32.1,20.66.1,30.99"/>
  <path class="cls-1" d="M392.46,116.13c0,61.41,0,122.82.06,184.23"/>
  <path class="cls-1" d="M328.02,310.44c-.02,5.25,0,10.49-.2,15.74-.14,3.52.56,7.07.38,10.57-.3,5.91.18,11.83-.44,17.71-.37,3.51-.89,6.96-2.11,10.36-1.74,4.84-5.3,6.96-9.92,8.1-4.97,1.24-9.74-.06-14.51-1.03-19.28-3.9-38.36-8.72-57.55-13.06-14.22-3.21-28.42-6.49-42.57-10-.39-.1-.75-.51-1.48-.07"/>
  <path class="cls-1" d="M257.67,174.42c.31.15.45.59.45.74.05,5.9.04,11.81.04,17.71,0,3.28-.14,6.57.03,9.84.28,5.58.02,11.15.06,16.73.04,5.74-.24,11.47.03,17.22.19,4.15-.2,8.35.09,12.54.08,1.25.38,1.63,1.73,2.05,11.78,3.7,23.96,5.69,35.94,8.51,9.72,2.29,19.5,4.35,29.26,6.43.52.11.99.47,1.48.72"/>
  <path class="cls-1" d="M131.74,147.61v133.81"/>
  <path class="cls-1" d="M357.04,119.32c-.52-.78-.21-1.64-.23-2.46-.05-2.78-.53-3.54-3.22-4.42-5.38-1.77-10.97-2.73-16.49-3.9-7.04-1.5-14.09-3.02-21.13-4.54-10.23-2.22-20.5-4.23-30.77-6.3-5.56-1.12-11.19-2.02-16.7-3.33-5.24-1.24-10.05-.59-14.51,1.89-10.4,5.8-20.58,11.99-30.82,18.07-2.21,1.31-4.29,2.87-6.61,3.98-2.26,1.08-3.64,2.91-4.92,4.94-3.79,5.97-7.24,12.1-9.86,18.69-.23.59.09,1.27-.45,1.74"/>
  <path class="cls-1" d="M312.77,282.4c-4.2,1.88-8.12,4.3-12.01,6.7-9.47,5.84-19.06,11.48-28.33,17.64-.11.08-.35-.05-.48.02-3.82,2.09-4.21,5.59-3.66,9.33.35,2.36,2.59,2.88,4.4,3.41,8.44,2.46,16.99,4.57,25.59,6.33,6.63,1.36,13.22,2.94,19.9,4.08,3.13.53,6.16,1.66,9.35,1.93"/>
  <path class="cls-1" d="M354.58,365.29c.34.88.24,1.8.24,2.71,0,17.55.28,35.1-.1,52.63-.23,10.47-4.28,19.61-12.72,26.28-4,3.16-8.5,4-13.54,2.13-1.5-.56-3.51-.23-5.1-.9-4.41-1.84-6.32-5.53-6.9-10.05-1.13-8.91-.67-17.87-.73-26.81-.05-8.04-.1-16.07.22-24.11.03-.82.16-1.67-.24-2.46"/>
  <path class="cls-1" d="M145.02,282.4c-1.16-.15-2.2.15-3.2.73-2.96,1.7-6.23,2.76-9.13,4.62-1.55,1-1.86,2.5-1.59,3.73.74,3.38.29,6.74.37,10.11.11,4.84,2.83,8.82,7.41,10.06,8.95,2.42,17.99,4.46,27.04,6.46,7.8,1.73,15.59,3.57,23.36,5.45,7.7,1.86,15.45,3.48,23.14,5.33,2.36.57,4.74,1.14,7.14,1.44,3.73.47,7.07-1.02,10.06-2.95,15.23-9.84,30.64-19.38,46.06-28.93,2.5-1.55,3.75-3.19,3.47-6.21-.28-3.01-.07-6.06-.26-9.1-.13-1.94-.84-3.12-2.74-3.71-3.71-1.15-7.6-1.41-11.32-2.46-2.1-.59-4.28-.53-6.4-.97"/>
  <path class="cls-1" d="M213.15,121.78c6.01,1.28,12.14,2.04,17.97,4.14.58.21,1.31.15,1.98-.42,2.89-2.45,6.47-3.9,9.47-6.06,4.7-3.39,10.33-5.24,14.68-9.29,17.32,3.61,34.74,7.04,52.08,10.84,8.42,1.85,16.82,3.76,25.32,5.24,3.73.65,5.9,3.06,7.21,6.59.55,1.48.37,3.25,1.64,4.46"/>
  <path class="cls-1" d="M277.35,281.66c-11.91,7.25-23.78,14.59-35.63,21.94-4.57,2.83-9.13,5.68-13.82,8.28-2.74,1.52-5.69,1.86-8.85,1.05-8.01-2.07-16.1-3.79-24.1-5.93-7.38-1.97-14.78-3.86-22.13-5.91-8.09-2.25-16.26-4.16-24.34-6.42-5.65-1.58-11.34-3.02-16.98-4.65"/>
  <path class="cls-1" d="M233.32,125.97c3.8,1.58,7.89,2.06,11.83,3.11,7.39,1.97,14.88,3.6,22.35,5.3,10.82,2.45,21.62,5.01,32.48,7.35,5.6,1.2,11.17,2.56,16.71,4,4.73,1.23,7.1,5.07,8.35,9.53,1.2,4.25,1.72,8.6,2.12,13.02.24,2.62.06,5.28.58,7.89.16.79.19,1.67-.45,2.61,3.17.66,6,1.86,9.34,1.94,0,4.22-.23,8.34.07,12.42.27,3.7-.38,7.37.04,11.09.16,1.41-.35,3.09-.35,4.66,0,25.91,0,51.82,0,77.73,0,3.36,0,6.72,0,10.08,0,1.3-.14,2.48,1.44,3.27,1.16.58,2.01,1.79,2.03,3.37.04,2.35-.79,3.48-3.97,4.66-2.54.94-5.14,1.74-7.87,1.98"/>
  <path class="cls-1" d="M152.03,173.44c-.58,2.19-.08,4.43-.27,6.65-.17,2.08.14,4.25.14,6.39,0,20.66-.15,41.32.07,61.98.11,10.5.02,20.99.22,31.48.06,3.21,1.01,6.21,3.39,8.62,3.93,3.98,8.86,6.14,14.03,7.85,6.17,2.04,12.56,3.12,18.95,4.11,2.65.41,5.4.46,8.11.53,9.45.24,18.92.47,28.28-1.21,8.91-1.6,17.6-3.71,25.37-8.78,5.5-3.58,7.98-8.7,7.62-14.8-.17-2.82-.29-5.76-.72-8.63-.69-4.59-3.55-7.87-6.21-11.3-.42-.55-.9-1.12-1.48-1.46-2.79-1.66-3-4.22-2.99-7.15.09-21.81.05-43.62.05-65.43,0-.99.11-1.99-.24-2.95"/>
  <path class="cls-1" d="M117.72,129.66c-.24,8.21,7.74,15.07,15.97,13.69,4.66-.78,7.77-4.14,9.04-8.55,2.99-10.31-5.99-18.62-15.42-17.37-5.45.72-10.22,5.56-9.6,11.97"/>
  <path class="cls-1" d="M181.42,354.22c-.39.79-.24,1.64-.24,2.46,0,9.67.09,19.35-.04,29.02-.09,6.55-1.73,12.71-5.89,17.94-2.64,3.32-5.55,6.41-9.82,7.62-3.31.94-6.6.71-9.83-.47-1.06-.39-1.44-1.3-2.04-2.16-1.3-1.84-2.03-3.87-2.08-5.96-.16-7.21-.34-14.44,0-21.64.53-11.23.94-22.46.92-33.7"/>
  <path class="cls-1" d="M211.18,361.11c-.52.78-.23,1.64-.23,2.46-.02,13.28.13,26.57-.09,39.85-.08,4.86.11,9.68.31,14.51.24,5.65,3.65,9.9,8.62,10.56.75.1,1.58.17,2.21-.48"/>
  <path class="cls-1" d="M142.8,345.61c0,16.64,0,33.29,0,49.93,0,3.18.45,6.34,1.49,9.34,1.72,4.94,6.27,5.85,9.57,4.93"/>
  <path class="cls-1" d="M327.28,178.6c-1.33.25-2.68-.3-3.63-.84-2.05-1.17-4.11-.78-6.21-.91-4.31-.27-8.53-1.26-12.79-1.97-5.42-.91-10.77-2.25-16.23-3-1.77-.24-3.36.06-4.65.87-3.8,2.39-8.11,4.11-11.48,6.96-3.05,2.59-5.87,5.47-9.21,7.75-.75.51-.75,1.37-.75,2.2,0,15.17.01,30.34-.01,45.5,0,1.23.41,2.04,1.47,2.73,2.53,1.65,5.2,2.24,8.13,1.45"/>
  <path class="cls-1" d="M326.54,381.53c.12,8.7-.44,17.38-.65,26.07-.13,5.24.13,10.53-.41,15.74-.41,3.95-.27,7.88-.42,11.81-.17,4.69.34,9.22,2.96,13.28"/>
  <path class="cls-1" d="M219.55,362.59c-.41.87-.25,1.8-.24,2.71.21,10.5-.4,20.99-.67,31.48-.18,7.05-.22,14.11-.25,21.16-.02,3.07.44,6.11,2.82,8.66,2.78,2.98,6.23,3.05,9.36,2.03,6.18-2.01,9.86-7.02,12.56-12.68,2.43-5.11,3.75-10.52,3.72-16.22-.03-4.92.27-9.84.21-14.76-.05-4.27.15-8.53.05-12.79-.02-.93-.16-1.89.49-2.71"/>
  <path class="cls-1" d="M260.87,124.12c2.71-2.55,5.81-3.95,9.59-3.07,16.2,3.78,32.47,7.23,48.7,10.84,3.45.77,6.98,1.26,10.34,2.44,1.3.45,2.21-.49,3.18-1.01,2.11-1.13,4.22-2.26,6.16-3.66"/>
  <path class="cls-1" d="M172.07,78.25c.46-.44.77-.31.99.25,1.5,3.79,5.07,4.66,8.38,5.33,6.28,1.28,12.64,1.35,18.93-.38,1.71-.47,3.3-1.24,4.63-2.29,2-1.57,2.96-3.77.33-6.15-3.36-3.05-7.25-4.39-11.61-4.87-5.63-.62-11.11.02-16.21,2.52-2.16,1.06-4.52,2.32-4.58,5.35"/>
  <path class="cls-1" d="M318.67,302.08c-.57,0-1.16.08-1.72-.01-3.06-.5-4.37-2.27-3.93-5.4.72-5.17.74-10.33,0-15.5-.42-2.91-1.5-3.94-4.67-4.68-13.07-3.04-26.16-6.04-39.13-9.51-3.59-.96-7.24-1.68-10.81-2.77-.54-.17-1.05.11-1.47.48"/>
  <path class="cls-1" d="M245.86,121.05c3.65.28,7.07,1.53,10.59,2.42,4.36,1.11,8.65,2.51,13.04,3.42,13.99,2.92,27.84,6.39,41.8,9.42,1.81.39,3.62.77,5.41,1.25.96.26,2.27.24,2.47,1.69"/>
  <path class="cls-1" d="M319.16,177.13c-.04.59.26,1.11.27,1.72.11,9.51.2,19.03.11,28.53-.19,19.68,0,39.36-.13,59.03-.05,8.28.2,16.57-.08,24.84-.2,5.82.14,11.66-.42,17.47"/>
  <path class="cls-1" d="M340.81,408.34c-1.53-.06-2.7.84-3.66,1.76-4.01,3.85-7.23,12.79-5.02,19.17,1.23,3.56,4.46,5.53,8.44,2.45,5.83-4.51,7.77-15.07,3.97-21.19-.83-1.34-1.64-2.23-3.24-2.18"/>
  <path class="cls-1" d="M114.76,100.63c4.98,1.61,10.18,2.25,15.25,3.43,10.7,2.49,21.51,4.47,32.22,6.89,8.91,2.01,17.9,3.66,26.81,5.67,7.04,1.59,14.15,2.9,21.14,4.72.75.19,1.58-.15,2.23.44"/>
  <path class="cls-1" d="M328.02,193.85c0,5.99-.31,11.98-.17,17.95.33,14.68.5,29.37.04,44.03-.47,15.09-.65,30.17-.52,45.26.02,2.93-.28,5.96.66,8.86"/>
  <path class="cls-1" d="M356.55,120.31c.31,3.57.14,7.13.11,10.7-.03,3.49-.36,6.97-.36,10.45,0,15.25.06,30.5-.04,45.75-.03,4.3-2.06,7.97-5.42,10.52-4.22,3.21-9.05,5.46-13.98,7.44"/>
  <path class="cls-1" d="M337.12,289.53c9.82,2.14,19.64,4.26,29.51,6.19,2.88.56,5.82.98,8.62,1.93,2.91.99,3.38,2.13,3.76,5.15.57,4.46-1.33,7.23-4.98,9.38-10.34,6.08-20.3,12.78-30.75,18.68-3.98,2.25-8.14,2.88-12.54,1.69-.75-.2-1.48-.2-2.22-.22"/>
  <path class="cls-1" d="M352.86,133.84c.52.78.23,1.64.23,2.46.05,12.14.1,24.27-.28,36.4-.12,3.77-.14,7.54-.2,11.32"/>
  <path class="cls-1" d="M190.77,213.78v49.93"/>
  <path class="cls-1" d="M171.34,210.09c-.52.78-.23,1.64-.23,2.46-.02,15.74-.02,31.48-.02,47.23"/>
  <path class="cls-1" d="M218.32,184.01c.34,2.2.24,4.43.24,6.64,0,26.65,0,53.29.02,79.94,0,.81-.29,1.68.23,2.46"/>
  <path class="cls-1" d="M185.11,213.04c-.58,3.67-.33,7.39-.41,11.07-.23,9.75-.08,19.51-.08,29.27,0,6.4-.28,12.79-.25,19.19"/>
  <path class="cls-1" d="M120.62,94.12c10.29,2.19,17.55,3.1,27.83,5.31,11.41,2.46,22.79,5.13,34.22,7.5,12.28,2.54,24.47,5.57,36.88,7.46.38.06.49.35.74.51"/>
  <path class="cls-1" d="M233.32,182.78c.57,3.93.22,7.87.23,11.81.04,25.09,0,50.18.04,75.27,0,3.36-.31,6.73.23,10.08"/>
  <path class="cls-1" d="M270.22,309.46c.8,1.11,2.09.97,3.2,1.22,13.24,2.94,26.36,6.41,39.6,9.37,2.06.46,4.08,1.06,6.15,1.47"/>
  <path class="cls-1" d="M270.95,181.31c4.15,1.48,8.54,1.91,12.79,2.93,11.1,2.68,22.28,5.06,33.47,7.26,6.34,1.25,12.66,2.86,19.16,3.34"/>
  <path class="cls-1" d="M157.81,196.8v53.62"/>
  <path class="cls-1" d="M185.36,148.1c6.91,5.86,15.31,6.8,23.86,7.12,5.16.19,10.27-.04,15.26-1.67,2.09-.68,3.58-2.35,5.65-2.99"/>
  <path class="cls-1" d="M287.43,200c-.13,1.06-.34,2.07-.34,3.2.03,7.13.33,14.27-.12,21.4-.25,3.87-1.91,6.83-4.95,9.1-3.03,2.26-6.1,4.44-9.84,5.41"/>
  <path class="cls-1" d="M342.78,139c.58.35.49.92.5,1.48.15,13.94-.2,27.88.1,41.82.04,1.82-.03,3.77-.1,5.65"/>
  <path class="cls-1" d="M319.16,206.4c-3.43-.29-6.72-1.36-10.07-2.05-6.98-1.44-13.91-3.08-20.9-4.47-3.2-.64-6.41-1.58-9.62-2.31-4.76-1.09-5.91-.02-6.03,4.41-.31,10.98-1.38,26.15-.76,37.14"/>
  <path class="cls-1" d="M203.8,136.79c-3.25-1.86-9.87-.91-13.32,1.42-4.48,3.03-5.74,7.39-5.85,12.35-.14,6.09.5,6.65,6.35,9.16,4.38,1.88,8.98,2.27,13.56,2.57,6.18.41,12.36.03,18.45-1.35,1.74-.4,3.37-1.02,4.88-1.82,2.71-1.42,3.29-4.1,2.91-6.83-.24-1.75-.12-3.45-.17-5.17-.05-1.66.25-3.36-1.21-4.7-.69-.63-.18-1.19.45-1.71,1.72-1.44,3.76-2.32,5.65-3.46,3.94-2.37,8.14-4.31,11.83-7.1"/>
  <path class="cls-1" d="M377.46,299.37c-12.61,8.11-25.24,16.19-38.13,23.86-1.67.99-3.39,1.23-5.42,1.07-4.93-.39-9.77-1.14-14.51-2.54,0-4.1,0-8.2,0-12.54-3.17-.85-6.75-1.32-10.1-2.68-1.38-.56-2.63-1.13-2.93-2.73-.3-1.56.48-2.57,1.7-3.46,1.44-1.05,2.99-1.92,4.44-2.93"/>
  <path class="cls-1" d="M170.85,134.08c.41.87.25,1.8.24,2.71-.14,11.48.24,22.96-.16,34.44-.07,2.1.07,4.26.17,6.39"/>
  <path class="cls-1" d="M237.5,136.79c3.6,1.61,7.55,1.43,11.32,2.21,8,1.65,14.6,5.49,17.04,13.59,1.36,4.49,2.42,9.63-.58,14.2-2.25,3.42-5.32,5.91-9.06,7.68-2.85,1.35-5.61,2.88-8.62,3.91-6.96,2.39-14.14,3.71-21.41,4.65-5.96.77-11.97.97-17.95.92-7.48-.07-14.94-.63-22.4-1.55-9.23-1.13-18.09-3.43-26.79-6.51-4.2-1.49-8.07-3.59-11.57-6.38-3.48-2.77-3.75-6.38-2.82-10.34"/>
  <path class="cls-1" d="M319.41,330.86c0,6.89.07,13.78-.03,20.66-.05,3.05-.2,6.1-.92,9.11-.69,2.88-2.33,4.69-5.19,5.4"/>
  <path class="cls-1" d="M393.69,109.49c-7.35,4.23-14.79,8.31-22.14,12.55-4.11,2.37-8.3,4.59-12.3,7.13-.6.38-1.26.55-1.97.49"/>
  <path class="cls-1" d="M331.22,144.91c.29,3.37,2.14,6.27,2.79,9.58.89,4.49,1.45,9,1.94,13.54.38,3.45.42,6.89.43,10.34,0,.74.13,1.51-.24,2.21"/>
  <path class="cls-1" d="M226.93,405.63c.86-.08,1.29.7,1.97.98,5.36-3.57,7.8-11.36,5.16-16.48,2.47-.95,3.06-.61,4.68,2.21,3.53,6.12.42,16.33-5.45,20.14-1.39.9-3.12.71-4.38-.48-1.64-1.56-2.26-3.43-2.38-5.87-.18-3.57.32-6.86,1.63-10.09.81-2,2.01-3.79,3.43-5.41.65-.75,1.44-1.16,2.46-.74"/>
  <path class="cls-1" d="M205.77,131.87c-3.48-4.56-8.51-6.36-13.78-7.58-2.15-.5-4.54,0-6.34,1.02-8.36,4.75-16.84,9.31-25.18,14.1-3.54,2.03-7.23,3.8-10.53,6.24-3.89,2.87-5.05,7.08-5.65,11.56-.08.63.07,1.31.5,1.7,3.37,3.06,6.74,6.04,11.02,7.96,4.79,2.15,9.63,3.92,14.79,4.85"/>
  <path class="cls-1" d="M265.79,156.71c-1.66,3.12-3.64,5.76-6.83,7.72-5.21,3.19-10.69,5.49-16.54,7.03-7.82,2.07-15.78,3.25-23.86,3.69"/>
  <path class="cls-1" d="M343.76,373.9c0,10.49,0,20.99-.02,31.48,0,.82.29,1.68-.23,2.46"/>
  <path class="cls-1" d="M171.58,172.21c6.73,1.51,13.58,2.18,20.42,2.91,7.68.82,15.41.54,23.12.5.97,0,1.94-.46,2.95-.46"/>
  <path class="cls-1" d="M332.45,215.99v29.52"/>
  <path class="cls-1" d="M162.97,397.02c4.19-.55,6.56-3.52,8.02-6.93,1.85-4.32,2.16-8.92.39-13.51-.33-.84-.73-1.56-1.29-2.18-1.76-1.95-3.69-2.22-5.62-.48-4.06,3.66-6.39,8.29-6.88,13.75-.15,1.71-.65,3.43.19,5.18,1.03,2.17,2.3,3.87,4.95,3.92"/>
  <path class="cls-1" d="M176.5,356.68v29.02"/>
  <path class="cls-1" d="M284.73,331.59v28.04"/>
  <path class="cls-1" d="M218.32,204.18c-6.31.51-12.61.66-18.94.3-2.86-.16-5.73-.47-8.61-.3"/>
  <path class="cls-1" d="M218.32,263.71c-11.27,1.64-22.5,1.09-33.7-.74"/>
  <path class="cls-1" d="M191.01,194.1c3.35.44,6.71.72,10.08.72,5.74,0,11.5.28,17.22-.47"/>
  <path class="cls-1" d="M233.07,280.43c-8.57,2.11-17.24,3.5-26.07,3.67-12.08.24-23.94-1.15-35.42-5.15"/>
  <path class="cls-1" d="M244.39,275.51c-3.46,1.9-7.14,3.28-10.82,4.65,0,2.73,0,5.44,0,8.54-20.59,5.13-41.35,5.7-61.98-1.39"/>
  <path class="cls-1" d="M233.07,270.59c-4.67.85-9.26,2.04-14.01,2.55-3.28.36-6.57.7-9.85.85-6.15.28-12.3-.04-18.45-.45"/>
  <path class="cls-1" d="M218.32,213.53c-10.51.91-21.04.86-31.47-.57-9.09-1.24-18.11-3-26.58-6.81-.14-.06-.32,0-.49,0"/>
  <path class="cls-1" d="M242.91,369.96v25.09"/>
  <path class="cls-1" d="M231.11,126.46c-4.25,3.35-8.98,5.97-13.54,8.84-3.79,2.39-7.57,4.81-11.5,6.99-2.64,1.46-5,1.92-7.94,1.22-3.15-.76-6.34-1.19-8.84-3.52"/>
  <path class="cls-1" d="M207.34,88.4c0,11.31,10.49,12.48,10.49,23.79"/>
  <path class="cls-1" d="M392.46,302.82v22.87"/>
  <path class="cls-1" d="M272.92,337.01c-1.04.54-.46,1.49-.46,2.21-.05,8.28-.03,16.56-.03,24.84"/>
  <path class="cls-1" d="M172.1,78.52c-1.06,2.29-.88,5.93-.94,8.28-.23,8.44-.07,15.96-.07,24.4"/>
  <path class="cls-1" d="M171.34,113.42c-.54,3.43-.21,6.89-.22,10.33,0,2.95-.32,5.92.22,8.85"/>
  <path class="cls-1" d="M355.81,185.24c-2.19-.04-3.68,1.52-5.39,2.49-4.44,2.51-8.62,5.52-13.55,7.1"/>
  <path class="cls-1" d="M333.43,426.54c.3.28-.1,1.15,1,.78,3.87-1.31,6.42-5.45,6.83-10.38.15-1.78.53-3.75-1.19-5.16-3.97,2.06-7.27,8.91-6.64,13.77"/>
  <path class="cls-1" d="M310.88,383.94c-.07,3.27-.06,33.51-.9,36.49-1.84,6.55-5.57,12.31-11.36,16.89-4,3.16-8.5,4-13.54,2.13-1.5-.56-3.51-.23-5.1-.9-4.41-1.84-6.32-5.53-6.9-10.05-1.13-8.91-.67-17.87-.73-26.81-.05-8.04-.1-16.07.22-24.11.03-.82.16-1.67-.24-2.46"/>
  <path class="cls-1" d="M283.13,377.79c.12,8.7-.42,11.52-.63,20.21-.13,5.24.13,10.53-.41,15.74-.41,3.95-.27,7.88-.42,11.81-.17,4.69.34,9.22,2.96,13.28"/>
  <path class="cls-1" d="M297.42,398.74c-1.53-.06-2.7.84-3.66,1.76-4.01,3.85-7.23,12.79-5.02,19.17,1.23,3.56,4.46,5.53,8.44,2.45,5.83-4.51,7.77-15.07,3.97-21.19-.83-1.34-1.64-2.23-3.24-2.18"/>
  <path class="cls-1" d="M300.28,381.53c0,10.49.1,3.77.07,14.27,0,.82.29,1.68-.23,2.46"/>
  <path class="cls-1" d="M290.04,415.96c.3.28.45,2.94,1.55,2.57,3.87-1.31,4.96-4.71,6.43-9.43.54-1.73,1.41-6.79-1.56-6.79-2.88-1.16-6.98,9.47-6.42,13.65"/>
  <path class="cls-1" d="M165.93,373.65c3.38,5,1,14.64-5.47,17.24-1.22,0-1.36-1.78-2.65-1.74"/>
  <path class="cls-1" d="M337.12,333.32c0,6.23.16,12.47-.05,18.69-.21,6.22-1.56,12.21-4.07,17.99-1.51,3.48-3.36,6.62-6,9.29-.57.57-.42,1.14-.47,1.75"/>
  <path class="cls-1" d="M240.95,119.57c-3.22-1.78-6.91-1.9-10.33-2.95-2.27-.69-4.71-.66-6.89-1.73"/>
  <path class="cls-1" d="M218.56,313.15c-.5,4.51.13,9.02,0,13.53-.03.99.11,1.99-.25,2.95"/>
  <path class="cls-1" d="M329.49,134.57c-2.36,2.81-5.94,3.73-8.84,5.68-2.17,1.47-4.78,2.23-6.66,4.16"/>
  <path class="cls-1" d="M238.24,106.04c-.02.67.67.92.99.94,4.91.31,9.57,2.16,14.51,2.26"/>
  <path class="cls-1" d="M336.38,308.23c.21.56.54,1.03.52,1.72-.15,4.92.12,9.84-.24,14.76-.2,2.7.11,5.42.46,8.11"/>
  <path class="cls-1" d="M233.57,202.22c-4.92.62-9.78,1.72-14.76,1.97"/>
  <path class="cls-1" d="M233.07,211.56c-4.13.35-8.12,1.67-12.3,1.79-.62.02-1.32.04-1.97.18"/>
  <path class="cls-1" d="M184.87,158.43v14.27"/>
  <path class="cls-1" d="M233.07,192.38c-4.13.38-8.14,1.54-12.29,1.79-.63.04-1.32.05-1.97.18"/>
  <path class="cls-1" d="M233.07,261.25c-4.37.69-8.68,1.71-13.04,2.45-.4.07-.82,0-1.23,0"/>
  <path class="cls-1" d="M328.02,179.34c0,3.85,0,7.71,0,11.56,0,.82.15,1.67-.24,2.46"/>
  <path class="cls-1" d="M209.46,330.12c-.01,4.18.57,8.36,0,12.55-.05.35-.09.76.49.74"/>
  <path class="cls-1" d="M158.79,196.31c6.24,2.4,12.58,4.43,19.17,5.71,4.09.79,8.21,1.28,12.31,1.91"/>
  <path class="cls-1" d="M143.54,314.87v19.19"/>
  <path class="cls-1" d="M158.3,185.98c10.22,4.74,21.07,6.92,32.22,7.87"/>
  <path class="cls-1" d="M218.32,162.12c0,6.07,0,12.13,0,18.2,0,.82-.15,1.67.24,2.46"/>
  <path class="cls-1" d="M157.32,318.31v12.79"/>
  <path class="cls-1" d="M159.78,255.84c7.21,3.39,14.89,5.25,22.63,6.87.55.12,1.14.02,1.72.02"/>
  <path class="cls-1" d="M162.73,266.66c5.76,2.85,12,4.04,18.2,5.43,3.09.7,6.24.76,9.35,1.21"/>
  <path class="cls-1" d="M246.36,198.28c-3.07.11-5.59,2.07-8.59,2.57-1.19.2-2.58.4-3.71,1.12"/>
  <path class="cls-1" d="M356.06,131.13c-3.33,1.48-6.33,3.59-9.61,5.13-4.96,2.33-9.33,5.78-14.51,7.61-3.48,1.23-6.67,3.21-10.31,3.99"/>
  <path class="cls-1" d="M246.36,207.13c-1.66-.25-2.76,1.04-4.17,1.52-2.68.92-5.37,1.77-8.13,2.41"/>
  <path class="cls-1" d="M207.18,77.97c-.39,1.71-.5,7.72.15,9.38-2.17,3.57-18.05,3.56-21.73,3.19"/>
  <path class="cls-1" d="M184.87,174.42v38.12"/>
  <path class="cls-1" d="M190.77,183.28c0,9.18,0,18.37,0,27.55,0,.82.15,1.67-.24,2.46"/>
  <path class="cls-1" d="M228.89,142.2c-2.83.87-5.38,2.48-8.36,2.98-3.72.61-7.4.52-11.07-.27-1.65-.35-1.28-1.89-1.72-2.95"/>
  <path class="cls-1" d="M244.88,257.07v26.79c-3.24,1.81-6.86,3.54-10.82,4.45"/>
  <path class="cls-1" d="M160.27,281.91c3.3,1.93,6.63,3.81,10.33,4.92"/>
  <path class="cls-1" d="M218.81,333.56v10.33"/>
  <path class="cls-1" d="M171.34,180.32c-.54,3.35-.1,6.72-.25,10.08"/>
  <path class="cls-1" d="M272.43,321.26v14.76"/>
  <path class="cls-1" d="M184.62,90.3c-3.42-.12-11.02-1.9-13.05-4.78"/>
  <path class="cls-1" d="M171.34,190.9c-.54,3.1-.1,6.23-.25,9.35"/>
  <path class="cls-1" d="M191.01,264.2c-.51,3.84-.22,7.71-.23,11.56-.04,8.2-.01,16.4-.01,24.6"/>
  <path class="cls-1" d="M171.34,260.26c-.54,3.1-.1,6.23-.25,9.35"/>
  <path class="cls-1" d="M142.56,294.7v9.35"/>
  <path class="cls-1" d="M218.56,273.79c.15,3.03-.3,6.08.25,9.1"/>
  <path class="cls-1" d="M171.34,200.74c-.56,2.94-.09,5.91-.25,8.85"/>
  <path class="cls-1" d="M233.57,289.04v8.61"/>
  <path class="cls-1" d="M244.64,284.37c.72,2.84-.22,5.77.49,8.61"/>
  <path class="cls-1" d="M171.34,270.1c-.55,5.65-.08,11.32-.25,16.97-.09,2.95.28,5.92-.24,8.85"/>
  <path class="cls-1" d="M218.32,291.99c.62,2.76-.12,5.6.49,8.36"/>
  <path class="cls-1" d="M257.92,124.74c-2.12,1.78-4.89,2.38-7.16,3.9-.46.31-.77.72-1.21,1.02"/>
  <path class="cls-1" d="M157.81,177.62v16.73"/>
  <path class="cls-1" d="M394.67,98.17c-2.29,2.09-5.58,2.71-7.62,5.17"/>
  <path class="cls-1" d="M402.05,105.06c-2.8,1.3-5.33,3.1-8.12,4.43"/>
  <path class="cls-1" d="M233.32,173.93c.53,2.61.11,5.25.25,7.87"/>
  <path class="cls-1" d="M335.89,205.9c-3.15.87-6.15,2.52-9.59,1.97-2.22-.36-4.43-.79-6.64-1.23"/>
  <path class="cls-1" d="M184.62,273.05c-.55,5.9-.09,11.81-.25,17.71"/>
  <path class="cls-1" d="M319.16,302.32c2.54.39,5.08.41,7.62,0"/>
  <path class="cls-1" d="M319.9,309.46c2.54.23,5.06.78,7.62.25"/>
  <path class="cls-1" d="M218.56,283.63c.16,2.54-.32,5.1.25,7.62"/>
  <path class="cls-1" d="M241.44,258.3c-2.56.53-4.8,2-7.38,2.46"/>
  <path class="cls-1" d="M319.66,322.25c-.76,2.33.36,4.84-.74,7.13"/>
  <path class="cls-1" d="M218.32,147.61c.13,2.21-.27,4.44.25,6.64"/>
  <path class="cls-1" d="M170.6,278.47c-2.26-.48-4.16-1.9-6.4-2.46"/>
  <path class="cls-1" d="M336.87,181.06c2.05.16,4.02,1.28,6.15.49"/>
  <path class="cls-1" d="M184.62,291.26c-.64,2.51.18,5.12-.49,7.62"/>
  <path class="cls-1" d="M185.36,84.64c-.03,1.97.1,3.95-.25,5.9"/>
  <path class="cls-1" d="M336.84,299.16c-.36,1.75-2.24,2.16-3.43,2.6-.56.21-.28-.14-5.57.35"/>
  <path class="cls-1" d="M238.98,190.9c-1.7.02-3.23.89-4.92.98"/>
  <path class="cls-1" d="M218.32,156.47c.13,1.56-.27,3.14.25,4.67"/>
  <path class="cls-1" d="M244.88,253.87c0,.74-.06,1.48.01,2.21.09.89-.48.75-1,.74"/>
  <path class="cls-1" d="M236.52,269.61c-.92-.32-1.59.58-2.46.49"/>
</svg>