<svg width="500" height="500" viewBox="0 0 500 500" fill="none" xmlns="http://www.w3.org/2000/svg">
<path d="M209.356 89.5566L192.443 97.6997L259.467 133.404L266.984 146.558V408.39L281.391 404.005L285.776 394.609L281.391 130.272L209.356 89.5566Z" fill="#FFDA00" fill-opacity="0.7"/>
<path d="M179.369 363.696V233.565C186.786 239.409 203.103 259.996 209.036 295.596C214.97 331.197 199.821 355.829 191.506 363.696H179.369Z" fill="#FFDA00" fill-opacity="0.7"/>
<path d="M178.695 107.468V143.216C182.753 148.033 193.296 159.472 203.007 166.691C215.145 175.715 239.599 215.034 244.259 231.148C248.92 247.263 265.54 294.926 265.54 311.685C265.54 325.092 262.115 354.047 262.115 367.153L239.599 406.018L262.115 411.798L267.9 406.018V149.789L262.115 136.393L190.869 97.7246L178.695 107.468Z" fill="#FFDA00" fill-opacity="0.7"/>
<path d="M213.621 422.29C214.261 422.69 215.071 422.47 215.511 422.24C221.271 419.15 227.431 416.65 232.491 412.44C239.801 406.36 245.861 399.2 250.771 390.98C255.401 383.23 258.711 375.06 260.791 366.3C261.971 361.31 262.901 356.3 263.711 351.23C264.841 344.15 264.731 337.01 265.511 329.92C265.801 327.23 265.191 324.5 265.331 321.79C265.481 318.82 265.051 315.89 265.071 312.94C265.101 307.39 264.311 301.92 263.691 296.42C261.621 278.11 255.511 260.91 249.181 243.82C244.891 232.24 240.101 220.81 234.411 209.82C228.901 199.19 222.301 189.25 214.821 179.9C206.661 169.7 197.591 160.41 187.061 152.63C178.681 146.44 169.901 140.87 160.031 137.32C154.001 135.15 147.861 133.51 141.381 133.14C139.071 133.01 136.751 132.69 134.441 132.77C126.391 133.04 118.431 134.52 111.071 137.51C105.581 139.74 99.7805 141.01 94.4305 143.68C88.6805 146.55 83.4105 149.95 78.6605 154.27C70.1505 162.02 64.0705 171.48 59.3405 181.83C55.9605 189.23 53.6105 196.99 52.0805 205.01C51.1805 209.69 50.6805 214.4 50.1405 219.13C49.1405 227.9 48.9705 236.69 49.3605 245.45C49.6105 251.2 50.1005 256.97 51.0405 262.7C51.7705 267.14 52.3805 271.62 53.0505 276.08C54.0705 282.95 55.6505 289.71 57.4505 296.4C61.1505 310.17 66.0605 323.55 71.7705 336.6C77.7905 350.36 85.1105 363.39 94.2105 375.39C101.441 384.93 109.481 393.72 118.181 401.91C125.341 408.65 133.251 414.51 141.651 419.56C149.991 424.58 158.861 428.7 168.421 430.79C174.601 432.14 180.941 432.2 187.311 431.43C196.051 430.37 204.301 427.81 211.641 423.12C217.011 419.69 221.311 414.84 225.391 409.86C230.631 403.46 234.841 396.5 238.271 389.01C241.471 382.02 243.741 374.71 245.421 367.23C247.061 359.91 247.871 352.49 248.421 344.99C249.031 336.68 248.871 328.38 248.691 320.1C248.531 312.5 247.631 304.89 246.371 297.37C244.181 284.26 241.091 271.38 236.641 258.82C233.221 249.19 229.201 239.85 224.931 230.57C220.371 220.67 215.061 211.2 209.041 202.15C201.201 190.35 192.641 179.11 182.051 169.57C180.271 167.97 179.111 165.82 177.481 164.09C174.281 160.7 170.251 158.38 166.511 155.68C157.561 149.23 147.551 145.07 137.051 142.12C128.561 139.73 119.891 138.26 110.981 139.2C110.421 139.26 109.961 139.08 109.541 138.72" stroke="#2071B5" stroke-width="4.20561" stroke-linecap="round" stroke-linejoin="round"/>
<path d="M399.301 355.77C400.621 353.58 403.031 352.66 404.831 351.01C409.361 346.86 413.191 342.11 416.241 336.84C422.771 325.54 426.591 313.22 429.221 300.5C430.271 295.43 431.051 290.34 431.691 285.19C432.481 278.82 432.921 272.41 432.921 266.04C432.921 258.87 432.381 251.67 431.691 244.5C430.381 230.99 427.641 217.8 423.931 204.79C421.581 196.56 418.581 188.55 415.401 180.59C410.741 168.94 405.151 157.8 398.601 147.11C389.491 132.23 379.681 117.87 366.751 105.98C357.861 97.8099 348.331 90.4399 337.821 84.4199C329.391 79.5899 320.281 76.5099 310.761 74.9399C304.701 73.9399 298.491 73.9299 292.351 74.8599C289.931 75.2299 289.691 75.2399 288.641 74.1299" stroke="#2071B5" stroke-width="4.20561" stroke-linecap="round" stroke-linejoin="round"/>
<path d="M286.12 315.089C292.44 324.369 299.76 332.779 308.4 339.939C320.42 349.899 333.73 357.649 348.83 361.909C352.61 362.979 356.57 363.499 360.52 363.999C364.77 364.539 369.03 364.629 373.21 364.269C381.46 363.559 389.38 361.279 396.66 357.179C397.8 356.539 398.72 355.719 400.28 356.149C401.16 356.389 402.19 355.459 403.15 355.089C417.26 349.589 427.11 339.469 434.49 326.579C439.81 317.289 443.13 307.279 445.49 296.899C446.9 290.669 447.82 284.379 448.45 277.999C449.4 268.489 449.26 258.989 448.72 249.519C448.18 239.969 446.82 230.479 445.11 221.019C443.07 209.759 439.76 198.879 436.28 188.049C434.36 182.089 431.76 176.299 429.16 170.569C425.38 162.259 421.44 154.009 416.78 146.129C412.61 139.069 408.14 132.219 403.38 125.549C395.69 114.759 386.92 104.919 377.24 95.939C366.72 86.189 354.92 78.229 341.86 72.229C336.67 69.849 331.23 68.009 325.59 67.279C320.45 66.619 315.29 66.549 310.02 67.529C302.91 68.849 296.19 71.189 289.47 73.659C289.28 73.729 289.15 73.969 288.99 74.129" stroke="#2071B5" stroke-width="4.20561" stroke-linecap="round" stroke-linejoin="round"/>
<path d="M117.66 201.43C117.83 202.43 117.03 202.89 116.45 203.32C111.09 207.3 108.46 213.11 105.65 218.87C103.18 223.93 101.71 229.31 100.55 234.71C99.6897 238.75 99.1096 242.95 99.0296 247.13C98.9096 253.75 98.7296 260.39 99.4896 266.99C100.51 275.83 102.12 284.55 104.73 293.08C108.11 304.15 112.29 314.84 118.08 324.94C123.87 335.05 131.01 344.03 139.73 351.65C148.93 359.69 159.48 365.45 171.5 368.23C176.23 369.32 181.09 368.94 185.87 369.61C187.4 369.83 188.63 368.65 189.66 367.71C197.35 360.72 202.62 352.33 205.35 342.17C206.88 336.46 208.08 330.71 209.02 324.9C209.91 319.37 209.89 313.72 209.48 308.16C208.6 296.28 206.48 284.56 202.77 273.24C199.95 264.65 195.95 256.51 191.6 248.57C188.17 242.32 184.42 236.21 180.28 230.44C174.38 222.21 167.07 215.25 158.82 209.33C153.54 205.54 148.07 202.18 141.61 200.66C138.91 200.02 136.26 199.25 133.46 199.27C129.05 199.3 124.65 199.04 120.29 200.19C114.46 201.73 108.84 203.57 104.01 207.38C98.5596 211.69 94.6096 217.18 91.3596 223.2C87.4196 230.52 85.2096 238.38 84.1196 246.63C83.0796 254.45 83.0696 262.23 83.6196 270.09C84.4496 281.78 87.0096 293.07 90.9196 304.04C93.8696 312.32 97.1397 320.55 101.98 327.92C104.31 331.46 103.56 334.34 102.11 337.56" stroke="#2071B5" stroke-width="4.20561" stroke-linecap="round" stroke-linejoin="round"/>
<path d="M284.06 169.45C286.62 160.49 293.91 142.19 298.57 134.19C299.31 132.92 300.71 132.9 301.91 132.77C309.26 132.01 316.32 133.29 323.21 135.85C331.82 139.04 339.64 143.63 346.63 149.53C359.25 160.19 368.75 173.23 376.18 187.98C381.23 198 385.35 208.31 387.94 219.16C389.74 226.67 390.96 234.32 391.51 242.1C391.9 247.62 391.87 253.12 391.81 258.62C391.72 266.02 390.26 273.27 388.27 280.39C386.56 286.51 384.12 292.25 379.93 297.17C378.92 298.36 377.57 299.15 376.59 300.29C374.46 302.77 371.9 301.51 369.62 301.14C363.23 300.12 357.03 298.3 351.19 295.46C344.56 292.24 338.65 287.94 333 283.26C321.94 274.11 314.39 262.3 307.91 249.74C303 240.23 299.34 230.17 296.74 219.82C295.06 213.13 294.13 206.23 293.64 199.28C293.27 194 293.26 188.74 293.35 183.48C293.42 178.92 294.12 174.38 294.64 169.83C295.21 164.89 296.1 160.03 297.39 155.25C299.43 147.71 302.4 140.56 307.42 134.44C307.74 134.05 307.95 133.72 307.88 133.23" stroke="#2071B5" stroke-width="4.20561" stroke-linecap="round" stroke-linejoin="round"/>
<path d="M129.87 199.52C129.9 200.99 128.46 201.17 127.68 201.61C121.53 205.05 118.18 210.78 115.33 216.78C112.4 222.95 110.97 229.6 109.96 236.37C108.87 243.63 108.84 250.86 109.48 258.16C110.14 265.66 111.25 273.07 112.87 280.41C114.85 289.33 117.62 298 120.98 306.5C124.69 315.88 129.46 324.65 135.37 332.81C142.48 342.64 150.58 351.37 161.43 357.25C166.6 360.05 171.93 362.46 177.73 363.37C182.22 364.07 186.81 364.51 191.36 363.45C191.86 363.33 192.33 363.51 192.79 363.69" stroke="#2071B5" stroke-width="4.20561" stroke-linecap="round" stroke-linejoin="round"/>
<path d="M178.92 144.72C178.4 143.41 178.09 142.02 177.99 140.65C177.32 131.65 177.21 122.62 177.58 113.62C177.83 107.43 180.52 102.21 186.08 98.7496C189.57 96.5796 192.82 97.6996 195.89 99.2996C207.56 105.4 219.49 110.96 231.11 117.16C239.08 121.42 247.26 125.26 254.8 130.32C261.31 134.69 265.28 140.75 267.36 148.09C267.79 149.61 268.01 151.36 267.98 153.09C267.86 159.55 268.19 166.01 268.38 172.47C268.46 175.33 267.91 178.17 268.11 181.09C268.53 187.29 267.65 193.5 268.3 199.76C268.78 204.4 268.64 209.16 268.22 213.87C268.02 216.16 268.22 218.49 268.18 220.81C268.06 228.07 268.13 235.33 268.07 242.59C268.03 247.44 267.41 252.33 268.17 257.19C268.41 258.7 267.93 260.21 267.93 261.73C267.95 294.91 267.83 328.09 268.02 361.27C268.08 371.64 268.26 382.01 268.09 392.38C268.02 396.43 268.52 400.59 267.02 404.6C265.14 409.64 261.07 412.66 255.74 412.73C249.54 412.81 244.31 410.73 240.19 406.02" stroke="#2071B5" stroke-width="4.20561" stroke-linecap="round" stroke-linejoin="round"/>
<path d="M178.921 229.67C178.581 230.26 178.411 230.87 178.431 231.58C178.791 242.91 177.881 254.22 177.921 265.56C178.041 294.99 177.971 324.42 177.941 353.86C177.941 357.02 178.711 359.99 179.641 362.95" stroke="#2071B5" stroke-width="4.20561" stroke-linecap="round" stroke-linejoin="round"/>
<path d="M284.32 308.151C284.38 310.771 284.53 313.431 284.62 316.051C285.44 339.411 285.18 362.791 285.11 386.161C285.1 390.031 284.61 393.931 283.26 397.651C281.77 401.751 278.72 404.241 274.9 406.051C272.42 407.231 269.82 408.041 267.24 408.931C266.35 409.241 265.63 408.831 264.83 408.891" stroke="#2071B5" stroke-width="4.20561" stroke-linecap="round" stroke-linejoin="round"/>
<path d="M284.04 168.651C284.02 169.571 284.2 170.561 284.2 171.521C284.21 186.201 284.24 200.871 284.19 215.551C284.18 219.221 284.33 222.931 284.1 226.551C283.32 238.841 284.01 251.131 283.74 263.411" stroke="#2071B5" stroke-width="4.20561" stroke-linecap="round" stroke-linejoin="round"/>
<path d="M284.45 227.749C285.55 228.079 285.41 229.109 285.64 229.909C287.39 236.149 289.76 242.149 292.29 248.119C295.26 255.129 298.8 261.759 302.8 268.239C311.3 282.039 322.58 292.849 336.66 300.659C342.45 303.869 348.76 305.949 355.51 306.609C357.39 306.789 359.37 306.979 361.29 307.329C365.11 308.029 368.26 305.839 371.3 303.819C371.93 303.399 372.75 303.039 373 302.179" stroke="#2071B5" stroke-width="4.20561" stroke-linecap="round" stroke-linejoin="round"/>
<path d="M108.09 328.969C107.86 331.179 107.55 333.379 106.65 335.429C105.87 337.199 106.99 338.659 107.69 339.939C109.84 343.919 112.55 347.579 115.54 350.959C121.39 357.569 127.83 363.599 135.41 368.149C142.25 372.249 149.53 375.339 157.62 376.399C167.7 377.719 177 375.999 185.65 370.639C186.02 370.409 186 370.019 186.34 369.879" stroke="#2071B5" stroke-width="4.20561" stroke-linecap="round" stroke-linejoin="round"/>
<path d="M283.78 260.749C294.53 293.369 311.86 299.939 322.05 305.929C327.68 309.229 333.9 311.199 340.42 312.279C347.73 313.489 354.54 312.089 361.26 309.389C362.09 309.059 362.76 308.719 363.16 307.919" stroke="#2071B5" stroke-width="4.20561" stroke-linecap="round" stroke-linejoin="round"/>
<path d="M380.64 145.2C377.92 145.64 377.2 147.95 376.37 150C375.1 153.11 375.33 156.39 376.14 159.55C377.19 163.69 378.84 167.54 382.06 170.59C384.57 172.97 387.62 173.42 390.68 172.86C393.17 172.41 395.19 168.2 395.25 164.82C395.38 157.68 393.23 151.43 387.77 146.69C385.94 145.1 383.58 143.81 380.88 145.19" stroke="#2071B5" stroke-width="4.20561" stroke-linecap="round" stroke-linejoin="round"/>
<path d="M381.84 316.529C379.22 316.969 377.99 318.919 377.07 321.079C375.77 324.159 376.01 327.239 377.01 330.419C378.42 334.929 380.53 338.879 384.48 341.649C389.13 344.909 394.1 343.419 395.71 337.109C397.13 331.549 395.19 326.649 392.33 322.059C390.7 319.439 388.59 317.189 385.43 316.289C384.24 315.949 383.06 315.669 382.08 316.769" stroke="#2071B5" stroke-width="4.20561" stroke-linecap="round" stroke-linejoin="round"/>
<path d="M283.93 168.401C283.8 165.741 281.82 137.311 281.1 133.231C279.97 126.881 274 123.241 268.45 120.021C260.35 115.331 252.07 110.981 243.73 106.751C234.6 102.121 225.54 97.351 216.25 93.031C213.49 91.741 210.99 89.901 207.63 90.101C205.19 90.251 203.05 91.261 200.98 92.181C198.36 93.351 195.68 94.341 193.04 95.431C192.17 95.791 191.47 96.371 190.88 97.101" stroke="#2071B5" stroke-width="4.20561" stroke-linecap="round" stroke-linejoin="round"/>
<path d="M288.28 74.7295C282.68 75.7895 277.44 77.8195 272.5 80.6095C264.7 85.0095 257.78 90.5395 251.66 97.0895C248.89 100.059 246.58 103.369 244.25 106.669" stroke="#2071B5" stroke-width="4.20561" stroke-linecap="round" stroke-linejoin="round"/>
<path d="M286.52 118.461C290.95 119.191 293.93 117.211 295.65 112.971C298.42 106.161 294.64 96.031 289.63 92.131C286.72 89.871 281.32 90.351 278.85 93.091C274.6 97.781 269.56 108.431 286.51 118.461" stroke="#2071B5" stroke-width="4.20561" stroke-linecap="round" stroke-linejoin="round"/>
<path d="M380.879 145.439C381.449 146.539 380.379 147.209 380.109 148.049C378.339 153.409 380.069 158.219 382.359 162.879C383.439 165.069 385.209 166.849 386.889 168.619C387.939 169.719 389.299 170.379 390.929 170.079" stroke="#2071B5" stroke-width="4.20561" stroke-linecap="round" stroke-linejoin="round"/>
<path d="M280.25 91.9502C277.18 97.4702 276.66 101.41 277.64 104.66C279.19 109.79 280.88 111.72 285.65 114.81C286.7 115.49 292.96 116.11 294.25 115.56" stroke="#2071B5" stroke-width="4.20561" stroke-linecap="round" stroke-linejoin="round"/>
<path d="M382.07 317.011C379.25 323.801 381.36 329.701 385.45 335.171C386.38 336.411 387.28 337.841 388.78 338.521C390.25 339.191 391.8 339.821 393.32 338.541" stroke="#2071B5" stroke-width="4.20561" stroke-linecap="round" stroke-linejoin="round"/>
<path d="M89.4305 338.541C88.4605 346.581 90.9905 353.281 97.0705 358.661C97.8105 359.321 98.5805 359.541 99.4805 359.601" stroke="#2071B5" stroke-width="4.20561" stroke-linecap="round" stroke-linejoin="round"/>
<path d="M199.501 385.92C198.171 391.87 200.311 396.73 204.291 400.99C205.971 402.79 207.691 404.52 210.511 403.62" stroke="#2071B5" stroke-width="4.20561" stroke-linecap="round" stroke-linejoin="round"/>
<path d="M89.1896 164.341C87.9996 171.731 90.2096 177.871 95.8596 182.791C95.9396 182.861 96.2496 183.171 96.1296 183.481" stroke="#2071B5" stroke-width="4.20561" stroke-linecap="round" stroke-linejoin="round"/>
<path d="M199.02 216.03C198.59 222.97 201.46 228.41 206.66 232.79C206.99 233.07 207.3 232.97 207.63 233.01" stroke="#2071B5" stroke-width="4.20561" stroke-linecap="round" stroke-linejoin="round"/>
<path d="M284.051 265.171C283.311 265.941 283.651 269.231 283.751 270.111C284.731 278.151 283.941 286.231 284.211 294.281C284.271 296.111 283.941 304.531 284.441 306.351" stroke="#2071B5" stroke-width="4.20561" stroke-linecap="round" stroke-linejoin="round"/>
<path d="M92.0605 333.761C86.9705 335.221 85.5105 339.001 85.5905 343.811C85.7005 350.731 87.9105 356.691 93.7605 360.761C97.3305 363.251 102.9 362.861 104.23 356.481C105.68 349.491 103.82 343.131 99.4305 337.631C97.7005 335.471 95.5705 333.401 92.3105 333.761" stroke="#2071B5" stroke-width="4.20561" stroke-linecap="round" stroke-linejoin="round"/>
<path d="M91.1005 160.989C85.6305 163.169 83.9805 167.189 85.0005 173.209C85.7505 177.599 87.3005 181.409 89.8905 184.919C91.4705 187.049 93.5905 188.329 96.1305 188.709C100.221 189.309 103.201 186.879 103.651 182.269C104.421 174.529 102.311 167.599 95.6705 162.619C94.3105 161.599 92.6605 161.809 91.3305 160.989" stroke="#2071B5" stroke-width="4.20561" stroke-linecap="round" stroke-linejoin="round"/>
<path d="M201.649 382.57C196.129 384.59 194.109 387.9 195.249 394.05C196.149 398.88 198.229 403.22 202.369 406.27C208.279 410.63 212.529 407.64 214.279 401.94C216.249 395.52 212.539 386.9 207.899 383.98C206.009 382.79 204.039 382.46 201.899 382.57" stroke="#2071B5" stroke-width="4.20561" stroke-linecap="round" stroke-linejoin="round"/>
<path d="M199.98 211.24C194.01 214.38 192.47 220.62 196.24 228.19C197.97 231.66 200.42 234.79 204.51 236.19C206.86 237 208.8 236.49 210.48 235.13C213.9 232.35 214.56 228.32 213.75 224.43C212.75 219.65 210.34 215.45 205.99 212.65C204.18 211.49 202.3 211.08 200.23 211.24" stroke="#2071B5" stroke-width="4.20561" stroke-linecap="round" stroke-linejoin="round"/>
</svg>
