<svg width="500" height="500" viewBox="0 0 500 500" fill="none" xmlns="http://www.w3.org/2000/svg">
<path d="M271.5 391.5C203.9 399.1 174 370 167.5 354.5C162.3 374.5 179.667 389.833 189 395C232.2 415.4 278.667 407.833 296.5 401.5C330.9 388.7 334.167 364.833 331.5 354.5C319.9 379.7 286.667 389.667 271.5 391.5Z" fill="#FFDA00" fill-opacity="0.7"/>
<path d="M305 67.0005C265 48.6005 211 54.3338 189 59.5005C193.8 64.3005 218 73.5005 229.5 77.5005C272.7 87.5005 297.833 74.6671 305 67.0005Z" fill="#FFDA00" fill-opacity="0.7"/>
<path d="M361.48 210.84C359.83 216.79 356.78 221.67 351.85 225.64C348.01 228.73 344.09 231.6 339.81 234C333.25 237.68 326.64 241.25 319.4 243.5C316.34 244.45 313.54 246.28 310.17 246.21" stroke="#2071B5" stroke-width="4.21" stroke-linecap="round" stroke-linejoin="round"/>
<path d="M136.55 194.4C134.22 201.5 135.17 208.28 137.96 215.11C139.52 218.92 142.27 221.7 145.12 224.18C148.89 227.47 152.28 231.35 156.97 233.52C158.42 234.19 159.72 235.14 161.21 235.76" stroke="#2071B5" stroke-width="4.21" stroke-linecap="round" stroke-linejoin="round"/>
<path d="M186.37 109.71C180.44 110.96 174.61 112.66 168.69 113.97C160.7 115.73 152.83 118 145.03 120.45C138.26 122.57 131.61 125.06 125.09 127.88C116.99 131.39 109.13 135.34 101.68 140.1C96.22 143.59 91.1 147.52 86.22 151.79C81.21 156.16 76.8 161.08 73.09 166.54C68.85 172.77 66.11 179.72 64.82 187.18C63.91 192.46 63.34 197.81 63.9 203.11C64.66 210.26 66.69 217.13 70.05 223.54C76.08 235.03 84.98 243.77 95.66 251C102.66 255.74 109.6 260.62 117.17 264.29C128.65 269.85 140.38 274.93 152.74 278.34C160.98 280.61 169.24 282.74 177.63 284.4C183.93 285.65 190.26 286.82 196.59 287.68C203.68 288.64 210.85 289.2 217.99 289.86C226.04 290.6 234.11 290.77 242.16 291.2C248.69 291.55 255.27 291.5 261.84 291.11C264.98 290.92 268.14 290.58 271.3 290.82C273.41 290.98 275.45 290.49 277.53 290.31" stroke="#2071B5" stroke-width="4.21" stroke-linecap="round" stroke-linejoin="round"/>
<path d="M309.92 109.21C314.17 109.67 318.23 111.01 322.38 111.95C331.42 113.99 340.42 116.2 349.28 118.93C361.36 122.65 373.12 127.19 384.38 132.92C392.37 136.99 399.77 141.95 406.89 147.48C417.98 156.09 427.5 165.9 432.87 179C435.56 185.57 436.49 192.58 436.49 199.88C436.49 204.38 436.69 209.01 436.95 213.58C437.06 215.57 437.17 217.77 436.57 219.51C435.58 222.42 434.82 225.43 433.66 228.25C429.77 237.63 424 245.77 416.81 252.96C409.41 260.36 401 266.36 391.86 271.34C384.13 275.55 376.29 279.57 368.21 283.08C358.26 287.4 348.06 290.99 337.59 293.84C331.32 295.55 325.04 297.08 318.66 298.33C312.78 299.48 306.89 300.41 300.97 301.31C296.08 302.05 291.15 302.62 286.25 303.11C282.48 303.49 278.59 303.53 274.82 303.88C264.35 304.87 253.89 304.75 243.42 304.71C236.36 304.68 229.28 304.26 222.26 303.64C215.03 303 207.77 302.33 200.58 301.24C189.48 299.57 178.39 297.86 167.45 295.28C158.69 293.22 150.08 290.59 141.58 287.71C134.79 285.41 128.14 282.64 121.61 279.61C113.95 276.06 106.3 272.49 99.2101 267.86C91.9601 263.12 85.0301 257.97 79.0301 251.68C73.7401 246.13 70.1801 239.55 67.2801 232.52C66.2601 230.04 65.9701 227.26 64.3401 225.03" stroke="#2071B5" stroke-width="4.21" stroke-linecap="round" stroke-linejoin="round"/>
<path d="M332.33 329.16C344.52 335.12 355.12 342.87 361.45 355.33C363.62 359.6 364.58 364.3 364.89 369.02C365.24 374.48 365.6 379.99 365.16 385.45C364.17 397.83 359.92 408.83 351.03 417.85C340.76 428.28 328.19 434.85 314.63 439.71C303.01 443.88 291.01 446.57 278.78 448.24C271.75 449.2 264.67 449.64 257.62 450.32C247.75 451.28 237.98 450.42 228.22 449.61C214.23 448.44 200.47 445.73 187.11 441.24C174.9 437.14 163.63 431.18 153.52 423.26C141.94 414.18 135.61 402 133.83 387.44C133.62 385.72 133.5 383.88 133.9 382.24C134.22 380.9 134.5 362.73 135.69 361.48" stroke="#2071B5" stroke-width="4.21" stroke-linecap="round" stroke-linejoin="round"/>
<path d="M364.72 374C363.14 374.46 363.95 375.92 363.82 376.76C363.05 381.78 360.65 385.93 357.77 389.97C352.78 396.96 346.34 402.3 339.04 406.61C328.76 412.67 317.89 417.44 306.43 420.85C296.15 423.91 285.73 426.16 275.05 427.38C266.1 428.4 257.14 429.16 248.14 429.04C233.01 428.84 218.05 427.13 203.29 423.62C191.33 420.78 179.92 416.44 168.98 411.02C160.16 406.65 151.83 401.28 145.28 393.68C140.63 388.3 136.75 382.48 135.54 375.26C135.51 375.07 135.22 374.93 135.06 374.76" stroke="#2071B5" stroke-width="4.21" stroke-linecap="round" stroke-linejoin="round"/>
<path d="M435.96 201.38C433.93 216.7 427.15 229.55 416.05 240.25C405.14 250.76 392.4 258.46 378.94 265.18C368.32 270.48 357.24 274.63 346 278.22C336.24 281.35 326.23 283.91 316.13 285.72C304.94 287.72 293.7 289.6 282.27 289.82C280.84 289.85 279.41 290.07 278.04 290.55" stroke="#2071B5" stroke-width="4.21" stroke-linecap="round" stroke-linejoin="round"/>
<path d="M204.33 67.6904C204.4 111.45 204.4 156.04 204.55 199.38" stroke="#2071B5" stroke-width="4.21" stroke-linecap="round" stroke-linejoin="round"/>
<path d="M313.4 392.43C306.86 396.16 300.32 399.81 293 401.97C286.67 403.84 280.34 405.48 273.8 406.4C264.54 407.69 255.26 408.67 245.9 408.35C239.31 408.12 232.72 407.51 226.23 406.34C218.98 405.02 211.81 403.28 204.79 400.93C192.9 396.95 182 391.33 173.71 381.68C169.37 376.63 167.01 370.58 166.94 363.79C166.91 361.3 166.92 358.81 166.94 356.32C166.94 355.47 166.7 354.55 167.43 353.83" stroke="#2071B5" stroke-width="4.21" stroke-linecap="round" stroke-linejoin="round"/>
<path d="M311.66 377.73C308.56 379.09 305.75 381.03 302.68 382.44C294.11 386.39 285.08 388.85 275.79 390.44C264.32 392.4 252.74 392.93 241.17 392.36C227.72 391.69 214.62 388.96 202.06 383.96C198.4 382.5 194.84 380.8 191.35 378.98" stroke="#2071B5" stroke-width="4.21" stroke-linecap="round" stroke-linejoin="round"/>
<path d="M186.37 132.13C175.3 135.46 164.49 139.49 154 144.35C148.31 146.98 142.86 150.05 137.79 153.78C132.31 157.81 126.6 161.59 121.9 166.54C116.48 172.27 113 179.1 111.65 186.93C109.79 197.78 112.72 207.17 120.37 215.07C121.56 216.29 122.57 217.68 123.85 218.81" stroke="#2071B5" stroke-width="4.21" stroke-linecap="round" stroke-linejoin="round"/>
<path d="M436.45 220.81C436.87 226.15 436.03 231.36 434.69 236.5C431.34 249.38 424.15 259.87 414.56 268.92C408.59 274.55 402.2 279.72 395.27 283.94C387.91 288.43 380.4 292.79 372.22 295.87C367.4 297.69 362.63 299.62 357.75 301.29C347.36 304.85 336.8 307.81 326.09 310.15C318.68 311.76 311.24 313.29 303.7 314.26C298.72 314.9 293.74 315.64 288.76 316.27C281.88 317.15 274.98 317.34 268.08 317.8C257.61 318.5 247.14 318.19 236.69 318.08C230.98 318.02 225.21 317.77 219.51 317.15C211.87 316.32 204.18 315.87 196.6 314.62C189.68 313.48 182.77 312.24 175.88 310.86C167.4 309.16 159.08 306.93 150.77 304.66C141.98 302.25 133.45 299 125.07 295.34C118.86 292.63 112.9 289.45 106.9 286.35C105.75 285.76 105.04 284.26 103.43 284.57" stroke="#2071B5" stroke-width="4.21" stroke-linecap="round" stroke-linejoin="round"/>
<path d="M140.04 133.38C127.26 138.92 116.05 146.74 106.42 156.8C98.88 164.68 92.93 173.55 89.97 184.19C88.42 189.76 88.19 195.41 88.97 201.13C90.36 211.27 94.47 220.23 100.7 228.26C101.7 229.55 103.09 230.51 104.39 231.54C113.2 238.58 122.38 244.89 132.74 249.59C138 251.98 143.08 254.97 148.54 256.79C154.62 258.81 160.59 261.17 166.63 263.29C177.65 267.16 188.81 270.2 200.3 272.13C201.63 272.35 202.96 272.6 204.29 272.85C205.44 273.06 206.5 272.89 207.03 271.62" stroke="#2071B5" stroke-width="4.21" stroke-linecap="round" stroke-linejoin="round"/>
<path d="M311.16 133.13C314.22 134.48 317.49 135.24 320.65 136.29C327.96 138.73 335.07 141.59 342.04 144.85C350.16 148.64 358.08 152.74 365.23 158.26C372.5 163.87 378.92 170.23 382.57 178.75C386.13 187.05 387.19 195.69 383.62 204.37C382.35 207.45 380.57 210.23 377.91 212.35" stroke="#2071B5" stroke-width="4.21" stroke-linecap="round" stroke-linejoin="round"/>
<path d="M309.43 254.04C311.31 255.29 313.18 253.89 314.6 253.31C321.8 250.32 329.53 248.85 336.57 245.46C340.82 243.41 345.06 241.39 349.08 238.82C354.27 235.5 359.29 232.03 363.99 228.05C366.69 225.76 368.86 222.86 372.16 221.24C373.23 220.72 374.04 219.57 374.43 218.31" stroke="#2071B5" stroke-width="4.21" stroke-linecap="round" stroke-linejoin="round"/>
<path d="M308.13 66.3701C308.19 83.7801 309.48 153.9 309.74 171.3C309.88 180.78 309.81 190.26 309.91 199.73C310.08 215.22 309.95 230.72 310.04 246.21" stroke="#2071B5" stroke-width="4.21" stroke-linecap="round" stroke-linejoin="round"/>
<path d="M188.11 180.95C188.82 185.86 191.74 189.59 194.86 193.13C200.67 199.74 208.26 203.52 216.51 206.09C226.56 209.23 236.79 211.07 247.39 211.16C257.95 211.25 268.35 210.36 278.51 207.54C282.66 206.39 286.56 204.44 290.48 202.61" stroke="#2071B5" stroke-width="4.21" stroke-linecap="round" stroke-linejoin="round"/>
<path d="M204.55 229.28C208.3 231.77 212.56 233.09 216.76 234.49C228 238.24 239.65 238.94 251.38 238.73C260.94 238.56 270.35 237.33 279.53 234.52C283.5 233.3 287.23 231.51 290.99 229.78" stroke="#2071B5" stroke-width="4.21" stroke-linecap="round" stroke-linejoin="round"/>
<path d="M290.49 76.8304C286.01 77.8504 281.61 79.2504 277.04 79.8004C268.1 80.8804 259.17 81.4603 250.13 80.6703C244.18 80.1503 238.29 79.4603 232.46 78.2803C222.67 76.2903 213.32 72.9804 204.55 68.1104" stroke="#2071B5" stroke-width="4.21" stroke-linecap="round" stroke-linejoin="round"/>
<path d="M63.3201 205.86C62.7801 206.38 63.0201 207.06 63.1001 207.6C63.8701 213.06 64.0401 218.66 63.6201 224.03C62.8001 234.64 65.9301 243.97 70.8301 252.92C76.8001 263.83 85.9301 271.8 95.9501 278.84C97.2701 279.77 98.5301 280.77 99.9101 281.61C101.82 282.78 102.77 284.91 104.24 286.49C109.73 292.44 116.27 297.15 123.08 301.53C135.42 309.47 148.88 314.85 162.71 319.41C171.84 322.42 181.21 324.57 190.59 326.7C197.44 328.26 204.39 329.27 211.3 330.52C214.62 331.12 218.09 331.32 221.48 331.71C228.44 332.5 235.45 332.44 242.42 333.03C246.78 333.4 251.21 333.28 255.62 332.92C260.51 332.52 265.46 332.69 270.3 332.01C272.96 331.63 275.73 332.25 278.29 331.14" stroke="#2071B5" stroke-width="4.21" stroke-linecap="round" stroke-linejoin="round"/>
<path d="M100.43 220.81C104.78 227.63 110.91 232.64 117.39 237.22C122.14 240.57 127.02 243.84 132.34 246.15C145.15 251.69 157.87 257.47 171.4 261.23C182.57 264.34 193.83 266.85 205.28 268.71C217.1 270.63 229.01 271.1 240.91 271.9C250.81 272.56 260.67 271.68 270.55 271.41C271.32 271.39 271.98 270.68 272.79 271.13" stroke="#2071B5" stroke-width="4.21" stroke-linecap="round" stroke-linejoin="round"/>
<path d="M355.5 255.18C350.87 256.56 346.52 258.65 342.08 260.48C336.22 262.9 330.17 264.62 324.12 266.39C317.29 268.39 310.44 270.3 303.44 271.59C297.25 272.73 291.11 274.11 284.77 274.47C281.46 274.66 278.05 274.88 274.69 275.84" stroke="#2071B5" stroke-width="4.21" stroke-linecap="round" stroke-linejoin="round"/>
<path d="M394.11 285.07C392.77 288.05 390.19 290.04 387.82 291.97C380.76 297.73 373.3 303 365.19 307.2C356.43 311.73 347.24 315.24 337.83 318.26C328.53 321.24 319.19 324.1 309.65 326.09C301.99 327.69 294.36 329.55 286.51 330.22C283.94 330.44 281.43 331.38 278.5 331.06" stroke="#2071B5" stroke-width="4.21" stroke-linecap="round" stroke-linejoin="round"/>
<path d="M362.97 246.21C334.86 261.55 304.49 268.71 272.8 271.12" stroke="#2071B5" stroke-width="4.21" stroke-linecap="round" stroke-linejoin="round"/>
<path d="M290.93 77.0098V201.71" stroke="#2071B5" stroke-width="4.21" stroke-linecap="round" stroke-linejoin="round"/>
<path d="M154.23 238.74C154.77 240.57 156.14 241.7 157.73 242.45C167.35 247.02 177.34 250.56 187.59 253.5C197.26 256.27 207.09 258.11 217 259.66" stroke="#2071B5" stroke-width="4.21" stroke-linecap="round" stroke-linejoin="round"/>
<path d="M186.51 59.5303C186.87 83.6803 187.19 107.82 186.84 131.97C186.49 156.41 186.63 180.85 186.83 205.29C186.94 218.85 187.37 232.4 187.36 245.96" stroke="#2071B5" stroke-width="4.21" stroke-linecap="round" stroke-linejoin="round"/>
<path d="M175.66 124.66C164.21 126.96 153.16 130.37 142.76 135.84C134.97 139.94 127.24 144.12 120.09 149.3C118.74 150.28 117.8 151.7 116.37 152.56" stroke="#2071B5" stroke-width="4.21" stroke-linecap="round" stroke-linejoin="round"/>
<path d="M290.74 251.69C285.46 252.77 280.18 253.73 274.8 254.23C266.59 254.99 258.4 255.74 250.14 255.7C235.57 255.65 221.09 254.73 206.81 251.63C206.21 251.5 205.63 251.57 205.06 251.43" stroke="#2071B5" stroke-width="4.21" stroke-linecap="round" stroke-linejoin="round"/>
<path d="M310.41 159.03C312.69 158.88 314.62 160.08 316.62 160.82C327.64 164.95 338.44 169.54 347.79 176.95C353.66 181.6 357.88 187.4 360.47 194.41C360.58 194.7 360.48 195.07 360.48 195.4" stroke="#2071B5" stroke-width="4.21" stroke-linecap="round" stroke-linejoin="round"/>
<path d="M208.54 273.36C219.34 275.22 230.24 275.88 241.17 276.42C247.15 276.71 253.15 277.17 259.1 276.74C264.08 276.37 269.82 277.42 274.69 275.84" stroke="#2071B5" stroke-width="4.21" stroke-linecap="round" stroke-linejoin="round"/>
<path d="M186.37 158.53C176.16 162.02 166.05 165.9 157.05 171.84C148.96 177.18 141.93 183.87 138.04 193.15" stroke="#2071B5" stroke-width="4.21" stroke-linecap="round" stroke-linejoin="round"/>
<path d="M166.94 328.91C159.64 332.95 152.36 337.04 146.27 342.87C138.41 350.39 134.72 359.68 134.8 370.51C134.8 371.76 134.8 373 134.8 374.25" stroke="#2071B5" stroke-width="4.21" stroke-linecap="round" stroke-linejoin="round"/>
<path d="M367.46 141.1C374.34 145.07 380.66 149.78 386.42 155.27C389.65 158.35 393.25 161.06 395.86 164.76C400.26 170.98 404.02 177.52 406.12 184.92C406.27 185.45 406.2 185.94 406.32 186.43" stroke="#2071B5" stroke-width="4.21" stroke-linecap="round" stroke-linejoin="round"/>
<path d="M191.85 327.67C191.97 335.48 191.66 343.28 191.53 351.08C191.39 359.71 191.38 368.36 190.87 376.99C190.85 377.37 190.57 377.63 190.6 377.98" stroke="#2071B5" stroke-width="4.21" stroke-linecap="round" stroke-linejoin="round"/>
<path d="M394.86 158.04C399.19 163.11 403.23 168.41 406.05 174.49C410.25 183.57 411.4 193.05 409.31 202.88C408.95 204.58 408.15 206.15 407.81 207.86" stroke="#2071B5" stroke-width="4.21" stroke-linecap="round" stroke-linejoin="round"/>
<path d="M310.41 179.96C318.5 183.2 326.64 186.32 334.56 189.95C341.6 193.18 348.19 197.12 353.77 202.61C355.71 204.52 357.13 206.62 357.49 209.35" stroke="#2071B5" stroke-width="4.21" stroke-linecap="round" stroke-linejoin="round"/>
<path d="M186.37 181.2C178.93 183.97 171.56 186.94 164.2 189.9C154.71 193.72 146.3 199.15 139.05 206.35" stroke="#2071B5" stroke-width="4.21" stroke-linecap="round" stroke-linejoin="round"/>
<path d="M404.07 204.86C401.79 211.9 398.04 218.11 393.36 223.79C391.21 226.4 388.8 228.74 385.89 230.52" stroke="#2071B5" stroke-width="4.21" stroke-linecap="round" stroke-linejoin="round"/>
<path d="M186.37 193.9C177.71 198.11 168.6 201.33 159.98 205.63C153.57 208.82 147.37 212.4 141.54 216.57C141.01 216.95 140.86 217.69 140.29 218.06" stroke="#2071B5" stroke-width="4.21" stroke-linecap="round" stroke-linejoin="round"/>
<path d="M355.25 216.07C344.66 209.37 333.48 203.83 321.86 199.15C318.06 197.62 314.49 195.49 310.41 194.65" stroke="#2071B5" stroke-width="4.21" stroke-linecap="round" stroke-linejoin="round"/>
<path d="M146.26 157.54C142.53 159.07 139.58 161.82 136.62 164.35C132.84 167.58 129.07 170.95 125.9 174.78C122.79 178.54 121.11 183.12 120.08 187.92C119.32 191.46 118.51 195.07 118.72 198.63C118.99 203.24 120.16 207.81 122.65 211.8C123.47 213.11 124.21 214.52 124.73 215.86" stroke="#2071B5" stroke-width="4.21" stroke-linecap="round" stroke-linejoin="round"/>
<path d="M311.16 326.17C311.12 326.77 311.46 327.29 311.43 327.91C311.21 333.23 311.72 338.53 311.67 343.85C311.57 354.48 312.08 365.1 312.13 375.73C312.16 381.13 312.85 386.52 312.13 391.92C312.08 392.33 312.42 392.56 312.39 392.92" stroke="#2071B5" stroke-width="4.21" stroke-linecap="round" stroke-linejoin="round"/>
<path d="M309.42 254.43C300.8 257.58 291.82 259.12 282.77 260.44C277.38 261.23 271.95 261.57 266.57 262.4" stroke="#2071B5" stroke-width="4.21" stroke-linecap="round" stroke-linejoin="round"/>
<path d="M397.35 221.3C389.13 232.42 377.72 239.63 366.2 246.69C363.1 248.59 359.74 250.04 356.5 251.69" stroke="#2071B5" stroke-width="4.21" stroke-linecap="round" stroke-linejoin="round"/>
<path d="M402.33 221.3C392.11 234.93 378.32 243.98 363.47 251.69" stroke="#2071B5" stroke-width="4.21" stroke-linecap="round" stroke-linejoin="round"/>
<path d="M393.61 156.79C388.46 150.82 382.08 146.31 375.67 141.86C369.07 137.28 362.1 133.36 354.51 130.64" stroke="#2071B5" stroke-width="4.21" stroke-linecap="round" stroke-linejoin="round"/>
<path d="M409.3 178.46C411.12 184.04 412.35 189.69 412.09 195.65C411.83 201.75 409.88 207.34 407.48 212.8C407 213.88 406.71 215.15 405.82 216.08" stroke="#2071B5" stroke-width="4.21" stroke-linecap="round" stroke-linejoin="round"/>
<path d="M350.02 133.13C343.83 131 337.87 128.23 331.57 126.45C325.27 124.67 319.15 122.25 312.65 121.17" stroke="#2071B5" stroke-width="4.21" stroke-linecap="round" stroke-linejoin="round"/>
<path d="M94.4501 181.95C93.1701 184.54 92.7901 187.38 92.5001 190.17C91.5301 199.4 92.8901 208.25 97.1501 216.59C97.3801 217.04 98.0101 217.21 97.9401 217.82" stroke="#2071B5" stroke-width="4.21" stroke-linecap="round" stroke-linejoin="round"/>
<path d="M186.62 120.92C185.61 120.28 186.01 118.99 185.25 118.02C180.97 119.4 176.52 120.43 172.14 121.8C165.64 123.83 159.21 126.04 152.75 128.16C148.61 129.53 144.62 131.32 140.54 132.87" stroke="#2071B5" stroke-width="4.21" stroke-linecap="round" stroke-linejoin="round"/>
<path d="M331.59 320.69C332.29 323.48 332.01 326.38 331.96 329.16C331.85 334.72 331.94 340.29 331.86 345.85C331.8 350.42 331.72 354.98 332.04 359.55C332.82 370.76 328.4 379.79 319.89 386.95C317.9 388.62 315.8 390.14 313.91 391.93" stroke="#2071B5" stroke-width="4.21" stroke-linecap="round" stroke-linejoin="round"/>
<path d="M185.37 150.56C186.31 152.19 184.41 151.85 184.09 151.97C179.48 153.65 174.78 155.07 170.16 156.75C160.42 160.32 151.39 165.16 144.1 172.56C138.94 177.8 132.81 182.39 130.03 189.65C129.94 189.87 129.28 190.04 128.83 189.91" stroke="#2071B5" stroke-width="4.21" stroke-linecap="round" stroke-linejoin="round"/>
<path d="M311.16 118.43C314.23 119.2 316.69 119.33 319.73 120.2C321.45 120.7 323.49 121.31 325.11 121.69C329.18 122.64 333.08 124.19 337.08 125.38C343.44 127.26 349.38 130.18 355.51 132.63" stroke="#2071B5" stroke-width="4.21" stroke-linecap="round" stroke-linejoin="round"/>
<path d="M127.08 219.31C126.55 220.21 126.99 220.85 127.57 221.56C130.84 225.59 134.93 228.73 139.08 231.7C143.22 234.66 147.97 236.69 152.22 239.51" stroke="#2071B5" stroke-width="4.21" stroke-linecap="round" stroke-linejoin="round"/>
<path d="M168.43 354.07C173.12 364.93 181.03 372.82 191.1 378.51C190.32 383.85 191.52 389.07 190.35 394.17" stroke="#2071B5" stroke-width="4.21" stroke-linecap="round" stroke-linejoin="round"/>
<path d="M242.91 283.83C245.51 287.15 248.97 286.65 252.36 285.77C254.17 285.3 255.15 283.82 255.03 281.73C253.56 280.43 251.63 279.04 249.67 279.72C247.19 280.58 243.92 280.41 242.65 283.58" fill="#FFDA00" fill-opacity="0.7"/>
<path d="M242.91 283.83C245.51 287.15 248.97 286.65 252.36 285.77C254.17 285.3 255.15 283.82 255.03 281.73C253.56 280.43 251.63 279.04 249.67 279.72C247.19 280.58 243.92 280.41 242.65 283.58" stroke="#2071B5" stroke-width="4.21" stroke-linecap="round" stroke-linejoin="round"/>
<path d="M307.67 184.44C308.01 186.63 307.05 188.54 305.88 190.13C301.93 195.52 296.77 199.51 290.98 202.26C290.98 207.68 290.93 213 291 218.31C291.05 222.05 290.68 225.79 291.23 229.52" stroke="#2071B5" stroke-width="4.21" stroke-linecap="round" stroke-linejoin="round"/>
<path d="M161.71 236C167.38 239.36 173.52 241.66 179.66 243.94C186.16 246.36 192.87 248.15 199.57 249.98C201.06 250.39 202.63 250.35 204.06 250.95" stroke="#2071B5" stroke-width="4.21" stroke-linecap="round" stroke-linejoin="round"/>
<path d="M310.41 224.54C316.53 227.65 323.09 229.72 329.32 232.56C331.34 233.48 333.5 234.17 335.32 235.5" stroke="#2071B5" stroke-width="4.21" stroke-linecap="round" stroke-linejoin="round"/>
<path d="M330.84 353.82C329.05 357.83 327.61 362 324.87 365.54C321.33 370.11 317.36 374.2 312.4 377.24" stroke="#2071B5" stroke-width="4.21" stroke-linecap="round" stroke-linejoin="round"/>
<path d="M185.62 224.29C181.66 227.58 176.69 228.86 172.15 230.97C168.72 232.57 165.1 233.79 161.71 235.5" stroke="#2071B5" stroke-width="4.21" stroke-linecap="round" stroke-linejoin="round"/>
<path d="M167.69 321.44C167.33 325.17 167.11 328.9 167.2 332.65C167.34 338.96 166.79 345.28 167.44 351.58C167.51 352.23 167.24 352.97 167.94 353.45" stroke="#2071B5" stroke-width="4.21" stroke-linecap="round" stroke-linejoin="round"/>
<path d="M337.81 405.38C336.65 403.96 334.82 403.87 333.31 403.17C327.3 400.41 321.26 397.7 315.14 395.16" stroke="#2071B5" stroke-width="4.21" stroke-linecap="round" stroke-linejoin="round"/>
<path d="M204.33 67.6903C202.79 67.0903 193.55 64.1503 186.51 59.5303" stroke="#2071B5" stroke-width="4.21" stroke-linecap="round" stroke-linejoin="round"/>
<path d="M290.74 230.27C291.32 233.26 290.92 236.26 290.97 239.26C291.04 243.35 291.09 247.43 290.74 251.52" stroke="#2071B5" stroke-width="4.21" stroke-linecap="round" stroke-linejoin="round"/>
<path d="M168.93 411.36C168.25 412.09 168.44 412.99 168.44 413.85C168.44 419.16 168.44 424.48 168.44 429.79C168.44 430.65 168.62 431.55 167.95 432.28" stroke="#2071B5" stroke-width="4.21" stroke-linecap="round" stroke-linejoin="round"/>
<path d="M204.8 230.27C204.25 232.74 204.61 235.23 204.57 237.71C204.5 242.2 204.55 246.69 204.55 251.18" stroke="#2071B5" stroke-width="4.21" stroke-linecap="round" stroke-linejoin="round"/>
<path d="M338.31 407.37C339.27 409.7 339.09 412.27 338.92 414.58C338.64 418.42 339.58 422.24 338.81 426.05C338.73 426.45 339.14 426.55 339.31 426.8" stroke="#2071B5" stroke-width="4.21" stroke-linecap="round" stroke-linejoin="round"/>
<path d="M294.08 272.85C293.74 270.19 293.6 271.45 293.61 268.79" stroke="#2071B5" stroke-width="4.21" stroke-linecap="round" stroke-linejoin="round"/>
<path d="M307.67 66.3701C307.44 68.6801 305.4 69.5401 303.89 70.5301C299.92 73.1301 295.68 75.2701 290.99 76.3301" stroke="#2071B5" stroke-width="4.21" stroke-linecap="round" stroke-linejoin="round"/>
<path d="M104.42 223.8C109.25 229.81 115.5 234.09 121.86 238.25" stroke="#2071B5" stroke-width="4.21" stroke-linecap="round" stroke-linejoin="round"/>
<path d="M307.67 216.07C303.63 222.49 297.8 226.73 290.98 229.77" stroke="#2071B5" stroke-width="4.21" stroke-linecap="round" stroke-linejoin="round"/>
<path d="M189.11 214.83C189.92 218.34 192.15 220.82 194.82 223.07C197.6 225.42 200.5 227.57 204.05 229.66C205.04 220.5 204.27 211.42 204.31 202.37" stroke="#2071B5" stroke-width="4.21" stroke-linecap="round" stroke-linejoin="round"/>
<path d="M102.92 164.01C98.83 169.2 95.29 174.72 92.96 180.95" stroke="#2071B5" stroke-width="4.21" stroke-linecap="round" stroke-linejoin="round"/>
<path d="M185.12 400.15C179.47 402.71 173.66 404.95 168.43 408.37" stroke="#2071B5" stroke-width="4.21" stroke-linecap="round" stroke-linejoin="round"/>
<path d="M123.1 192.66C120.54 197.97 121.87 202.96 124.35 207.85" stroke="#2071B5" stroke-width="4.21" stroke-linecap="round" stroke-linejoin="round"/>
<path d="M294.45 273.74C296.23 277.35 296.43 281.31 296.93 285.2C298.17 294.79 298.26 304.44 298.17 314.09C298.17 314.41 298.41 327.88 298.28 328.2" stroke="#2071B5" stroke-width="4.21" stroke-linecap="round" stroke-linejoin="round"/>
<path d="M203.55 288.81C203.07 292.86 202.53 296.9 202.72 301.02C202.79 302.46 202.3 303.98 202.29 305.5C202.27 312.82 202.59 320.13 203.3 327.42" stroke="#2071B5" stroke-width="4.21" stroke-linecap="round" stroke-linejoin="round"/>
<path d="M309.67 246.46C306 247.49 302.46 248.93 298.71 249.69C298.27 249.78 292.37 251.38 290.74 251.69" stroke="#2071B5" stroke-width="4.21" stroke-linecap="round" stroke-linejoin="round"/>
<path d="M206.05 275.11C205.5 278.11 204.74 281.06 204.27 284.07C204.11 285.07 204.08 286.06 204.05 287.06" stroke="#2071B5" stroke-width="4.21" stroke-linecap="round" stroke-linejoin="round"/>
<path d="M142.78 182.45C140.12 185.95 137.37 189.4 136.54 193.91C136.48 194.23 136.5 193.91 136.29 194.15C136.18 194.28 135.97 194.15 135.8 193.91" stroke="#2071B5" stroke-width="4.21" stroke-linecap="round" stroke-linejoin="round"/>
<path d="M139.79 135.62C135.86 136.89 132.36 139.03 128.83 141.1" stroke="#2071B5" stroke-width="4.21" stroke-linecap="round" stroke-linejoin="round"/>
<path d="M109.9 158.53C106.94 161.91 104.08 165.36 101.43 168.99" stroke="#2071B5" stroke-width="4.21" stroke-linecap="round" stroke-linejoin="round"/>
<path d="M167.44 309.73C167.62 312.97 167.17 316.2 167.19 319.44" stroke="#2071B5" stroke-width="4.21" stroke-linecap="round" stroke-linejoin="round"/>
<path d="M94.95 183.94C94.52 186.92 93.69 189.85 93.95 192.91" stroke="#2071B5" stroke-width="4.21" stroke-linecap="round" stroke-linejoin="round"/>
<path d="M400.59 235C399.69 231.67 401.9 229.36 405.33 230C406.35 230.19 407.38 230.34 408.31 230.79C409.36 231.29 410.85 231.53 410.56 233.26C410.3 234.8 409.16 235.7 407.82 235.95C405.5 236.39 403.1 236.73 400.86 235.5" fill="#FFDA00" fill-opacity="0.7"/>
<path d="M400.59 235C399.69 231.67 401.9 229.36 405.33 230C406.35 230.19 407.38 230.34 408.31 230.79C409.36 231.29 410.85 231.53 410.56 233.26C410.3 234.8 409.16 235.7 407.82 235.95C405.5 236.39 403.1 236.73 400.86 235.5" stroke="#2071B5" stroke-width="4.21" stroke-linecap="round" stroke-linejoin="round"/>
<path d="M349.82 267.84C348.83 264.14 351.28 261.59 355.07 262.3C356.2 262.51 357.35 262.68 358.37 263.17C359.53 263.73 361.19 263.99 360.86 265.91C360.57 267.61 359.31 268.61 357.82 268.89C355.25 269.38 352.59 269.76 350.09 268.39" fill="#FFDA00" fill-opacity="0.7"/>
<path d="M349.82 267.84C348.83 264.14 351.28 261.59 355.07 262.3C356.2 262.51 357.35 262.68 358.37 263.17C359.53 263.73 361.19 263.99 360.86 265.91C360.57 267.61 359.31 268.61 357.82 268.89C355.25 269.38 352.59 269.76 350.09 268.39" stroke="#2071B5" stroke-width="4.21" stroke-linecap="round" stroke-linejoin="round"/>
<path d="M419.58 189.54C418.68 186.21 420.89 183.9 424.32 184.54C425.34 184.73 426.37 184.88 427.3 185.33C428.35 185.83 429.84 186.07 429.55 187.8C429.29 189.34 428.15 190.24 426.81 190.49C424.49 190.93 422.09 191.27 419.85 190.04" fill="#FFDA00" fill-opacity="0.7"/>
<path d="M419.58 189.54C418.68 186.21 420.89 183.9 424.32 184.54C425.34 184.73 426.37 184.88 427.3 185.33C428.35 185.83 429.84 186.07 429.55 187.8C429.29 189.34 428.15 190.24 426.81 190.49C424.49 190.93 422.09 191.27 419.85 190.04" stroke="#2071B5" stroke-width="4.21" stroke-linecap="round" stroke-linejoin="round"/>
<path d="M395.02 151.06C394.31 148.41 396.06 146.58 398.78 147.09C399.59 147.24 400.41 147.36 401.14 147.71C401.97 148.11 403.16 148.29 402.92 149.67C402.71 150.89 401.81 151.6 400.74 151.81C398.9 152.16 397 152.43 395.21 151.45" fill="#FFDA00" fill-opacity="0.7"/>
<path d="M395.02 151.06C394.31 148.41 396.06 146.58 398.78 147.09C399.59 147.24 400.41 147.36 401.14 147.71C401.97 148.11 403.16 148.29 402.92 149.67C402.71 150.89 401.81 151.6 400.74 151.81C398.9 152.16 397 152.43 395.21 151.45" stroke="#2071B5" stroke-width="4.21" stroke-linecap="round" stroke-linejoin="round"/>
<path d="M357.66 128.52C357.14 126.57 358.43 125.22 360.43 125.6C361.03 125.71 361.63 125.8 362.17 126.06C362.78 126.35 363.66 126.49 363.48 127.5C363.33 128.4 362.66 128.92 361.88 129.07C360.52 129.33 359.12 129.53 357.81 128.81" stroke="#2071B5" stroke-width="4.21" stroke-linecap="round" stroke-linejoin="round"/>
<path d="M190.6 395.67C189.62 397.23 188.76 398.93 186.61 399.16" stroke="#2071B5" stroke-width="4.21" stroke-linecap="round" stroke-linejoin="round"/>
<path d="M209.78 270.13C208.19 271.81 208.06 274.16 207.04 276.11" stroke="#2071B5" stroke-width="4.21" stroke-linecap="round" stroke-linejoin="round"/>
<path d="M143.84 268.52C142.94 265.19 145.15 262.88 148.58 263.52C149.6 263.71 150.63 263.86 151.56 264.31C152.61 264.81 154.1 265.05 153.81 266.78C153.55 268.32 152.41 269.22 151.07 269.47C148.75 269.91 146.35 270.25 144.11 269.02" fill="#FFDA00" fill-opacity="0.7"/>
<path d="M143.84 268.52C142.94 265.19 145.15 262.88 148.58 263.52C149.6 263.71 150.63 263.86 151.56 264.31C152.61 264.81 154.1 265.05 153.81 266.78C153.55 268.32 152.41 269.22 151.07 269.47C148.75 269.91 146.35 270.25 144.11 269.02" stroke="#2071B5" stroke-width="4.21" stroke-linecap="round" stroke-linejoin="round"/>
<path d="M88.3099 237.63C87.4099 234.3 89.6199 231.99 93.0499 232.63C94.0699 232.82 95.0999 232.97 96.0299 233.42C97.0799 233.92 98.5699 234.16 98.2799 235.89C98.0199 237.43 96.8799 238.33 95.5399 238.58C93.2199 239.02 90.8199 239.36 88.5799 238.13" fill="#FFDA00" fill-opacity="0.7"/>
<path d="M88.3099 237.63C87.4099 234.3 89.6199 231.99 93.0499 232.63C94.0699 232.82 95.0999 232.97 96.0299 233.42C97.0799 233.92 98.5699 234.16 98.2799 235.89C98.0199 237.43 96.8799 238.33 95.5399 238.58C93.2199 239.02 90.8199 239.36 88.5799 238.13" stroke="#2071B5" stroke-width="4.21" stroke-linecap="round" stroke-linejoin="round"/>
<path d="M70.0799 194.04C69.1799 190.71 71.3899 188.4 74.8199 189.04C75.8399 189.23 76.8699 189.38 77.7999 189.83C78.8499 190.33 80.3399 190.57 80.0499 192.3C79.7899 193.84 78.6499 194.74 77.3099 194.99C74.9899 195.43 72.5899 195.77 70.3499 194.54" fill="#FFDA00"/>
<path d="M70.0799 194.04C69.1799 190.71 71.3899 188.4 74.8199 189.04C75.8399 189.23 76.8699 189.38 77.7999 189.83C78.8499 190.33 80.3399 190.57 80.0499 192.3C79.7899 193.84 78.6499 194.74 77.3099 194.99C74.9899 195.43 72.5899 195.77 70.3499 194.54" stroke="#2071B5" stroke-width="4.21" stroke-linecap="round" stroke-linejoin="round"/>
<path d="M92.0501 157.17C91.1501 153.84 93.3601 151.53 96.7901 152.17C97.8101 152.36 98.8401 152.51 99.7701 152.96C100.82 153.46 102.31 153.7 102.02 155.43C101.76 156.97 100.62 157.87 99.2801 158.12C96.9601 158.56 94.5601 158.9 92.3201 157.67" fill="#FFDA00"/>
<path d="M92.0501 157.17C91.1501 153.84 93.3601 151.53 96.7901 152.17C97.8101 152.36 98.8401 152.51 99.7701 152.96C100.82 153.46 102.31 153.7 102.02 155.43C101.76 156.97 100.62 157.87 99.2801 158.12C96.9601 158.56 94.5601 158.9 92.3201 157.67" stroke="#2071B5" stroke-width="4.21" stroke-linecap="round" stroke-linejoin="round"/>
<path d="M125.73 133.58C125.04 131.01 126.74 129.24 129.38 129.73C130.16 129.88 130.96 129.99 131.67 130.34C132.48 130.73 133.63 130.91 133.4 132.24C133.2 133.42 132.32 134.12 131.29 134.31C129.5 134.65 127.66 134.91 125.92 133.97" fill="#FFDA00"/>
<path d="M125.73 133.58C125.04 131.01 126.74 129.24 129.38 129.73C130.16 129.88 130.96 129.99 131.67 130.34C132.48 130.73 133.63 130.91 133.4 132.24C133.2 133.42 132.32 134.12 131.29 134.31C129.5 134.65 127.66 134.91 125.92 133.97" stroke="#2071B5" stroke-width="4.21" stroke-linecap="round" stroke-linejoin="round"/>
<path d="M186.51 59.4098C192.82 57.4598 199.01 54.7798 205.45 53.7198C218.04 51.6498 230.25 50.1498 243.07 49.9998C249.49 49.9298 259.11 50.6398 269.22 52.5198C283.28 55.1398 295.79 57.0498 308.13 66.3598" stroke="#2071B5" stroke-width="4.21" stroke-linecap="round" stroke-linejoin="round"/>
<path d="M189.3 61.22C215.3 51.23 290.28 54.88 306.79 68.41" stroke="#2071B5" stroke-width="4.21" stroke-linecap="round" stroke-linejoin="round"/>
</svg>
