<?xml version="1.0" encoding="UTF-8"?>
<svg id="icons" xmlns="http://www.w3.org/2000/svg" viewBox="0 0 500 500">
  <defs>
    <style>
      .cls-1 {
        fill: none;
        stroke: #000;
        stroke-linecap: round;
        stroke-linejoin: round;
        stroke-width: .87px;
      }
    </style>
  </defs>
  <path class="cls-1" d="M340.47,197.64c.97.88.17,1.9.19,2.84.11,5.67-.04,11.34.22,17.02.15,3.19-.14,6.4-.15,9.6-.08,22.18.03,44.36-.09,66.54-.04,6.76,0,13.53-.2,20.29-.37,12.8.08,25.6-.25,38.4-.18,6.91-.15,13.82-.31,20.73-.25,10.9.01,21.82-.12,32.72-.04,3.16.04,6.36-1.4,9.42-.85,1.8-1.85,3.44-3.38,4.5-12.35,8.57-24.34,17.64-36.8,26.06-6.54,4.42-13.42,5.28-20.75,3.18-12.34-3.52-24.56-7.49-36.87-11.13-10.19-3.02-20.37-6.08-30.55-9.14-12.78-3.84-25.64-7.43-38.4-11.33-8.65-2.64-17.31-5.23-25.98-7.78-11.99-3.53-23.98-7.06-35.97-10.58-7.71-2.26-15.44-4.44-23.13-6.73-1.96-.58-3.8-1.5-5.42-2.66-2.46-1.76-3.37-4.42-3.28-7.37.04-1.31-.39-2.69.41-3.93"/>
  <path class="cls-1" d="M176.41,165.35c-.95,3.21-1.88,6.42-1.98,9.82-.21,7.35,2.95,12.82,8.69,17.3,5.67,4.42,12.12,6.98,18.82,9.07,7.55,2.36,15.3,3.95,23.12,5.01,10.14,1.38,20.33,1.52,30.54.72,6.65-.53,13.24-1.36,19.62-3.33,4.84-1.49,9.79-2.75,14-5.82.44-.32,1.23-.09,1.95.08,6.48,1.49,12.7,3.85,19.15,5.44,4.09,1.01,8.12,2.38,12.22,3.47,1.97.52,3.33.11,4.83-.95,10.35-7.25,20.7-14.48,30.99-21.8,8.73-6.21,17.49-12.38,26.4-18.32,1.35-.9,1.02-1.94,1.07-3.1.47-10.4.13-20.8.18-31.2.02-4.18-.38-8.32-2.14-12.22-3.43-7.58-9.01-12.72-17.03-15.04-13.33-3.85-26.59-7.93-39.9-11.85-12.58-3.7-25.22-7.22-37.75-11.1-13.14-4.07-26.33-7.99-39.52-11.88-11.12-3.28-22.27-6.47-33.36-9.88-9.37-2.88-18.73-5.81-28.16-8.46-7.11-1.99-14.16-2.2-20.54,2.9-3.3,2.64-7.06,4.74-10.64,7.04-10.13,6.51-20.23,13.07-30.32,19.64-1.93,1.26-3.78,2.76-5.75,3.77-1.94,1-4.25,1.48-6.24,2.57-1.94,1.05-3.73,2.34-5.44,3.72-2.69,2.16-3.66,5.24-3.68,8.49-.1,13.45-.04,26.91-.05,40.36,0,1.57.45,2.51,2.17,3.11,9.02,3.13,18.21,5.72,27.29,8.68,6.47,2.11,12.94,4.24,19.43,6.29,6.75,2.14,13.52,4.25,20.28,6.35,6.5,2.02,12.88,4.43,19.42,6.31,11.11,3.19,22.26,6.23,33.38,9.38,9.03,2.56,18.02,5.32,27.07,7.78,8.96,2.43,17.82,5.19,26.78,7.62,2.57.7,5.42.98,7.67,2.73"/>
  <path class="cls-1" d="M121,85.07c2.56,1.78,5.64,2.13,8.51,3.04,6.88,2.19,13.79,4.3,20.71,6.37,8.22,2.46,16.45,4.91,24.64,7.46,6.97,2.17,13.97,4.21,20.97,6.23,12.43,3.58,24.86,7.18,37.28,10.8,8.17,2.38,16.29,4.98,24.49,7.23,13.9,3.83,27.6,8.26,41.42,12.34,5.12,1.51,10.26,2.96,15.28,4.78,10.01,3.63,15.35,11.24,17.83,21.18.32,1.28.3,2.74.3,4.13-.03,9.6-.05,19.2.02,28.8,0,1.43-.4,2.76-.47,4.15"/>
  <path class="cls-1" d="M359.23,119.32c-8.62-2.42-17.18-5.03-25.75-7.63-10.7-3.25-21.41-6.45-32.1-9.74-8.05-2.47-16.11-4.9-24.19-7.29-10.72-3.17-21.39-6.51-32.09-9.74-8.19-2.48-16.42-4.84-24.63-7.27-11.16-3.3-22.32-6.61-33.41-10.15-4.78-1.53-9.55-3.31-14.59-4.03"/>
  <path class="cls-1" d="M106.82,314.14c3.26,7.01,172.55,45.66,179.98,47.81,7.91,2.28,15.69,5,23.55,7.44,6.79,2.1,13.52,4.38,20.31,6.48,1.27.39,1.79.98,1.78,2.42-.08,9.24-.07,18.47-.03,27.71.02,4.9-1.93,8.72-5.9,11.57-8.68,6.22-17.24,12.6-25.98,18.74-2.54,1.78-5.14,3.54-8.28,4.17-4.27.86-8.48.62-12.66-.64-9.82-2.97-19.68-5.82-29.47-8.88-7.68-2.4-15.39-4.77-23.13-6.97-13.86-3.95-27.62-8.19-41.42-12.32-16.44-4.91-32.87-9.91-49.3-14.85-13.09-3.93-26.27-7.53-39.3-11.69-5.08-1.62-10.26-2.95-15.26-4.84-1.4-.53-2.41-1.55-3.43-2.48-1.07-.98-.47-4,.83-5.39,2.12-2.29,4.88-3.72,7.42-5.45,5.87-4,11.74-8,17.48-12.18,1.5-1.1,1.97-2.21,1.96-3.98-.07-11.27,0-22.54-.08-33.82-.02-2.02.54-3.47,2.22-4.59,2.95-1.97,5.85-4.03,8.73-6.1"/>
  <path class="cls-1" d="M117.51,146.59c-.46.69-.2,1.46-.2,2.18-.02,52.07-.04,104.14.05,156.21,0,3.55.7,7.11.59,10.69-.02.75.2,1.55-.43,2.18"/>
  <path class="cls-1" d="M154.81,265.49c-1.64,1.31-1.37,3.05-1.1,4.8.47,3.04,1.06,6.32.45,9.12-.92,4.26-.66,8.46-.01,12.44.58,3.61,2.24,7.27,4.78,10.31,5.71,6.84,12.43,12.22,20.48,16.23,7.86,3.92,16.04,6.74,24.49,8.81,10.53,2.58,21.2,4.3,32.06,4.87,11.65.61,23.23.09,34.68-2.06,8.4-1.58,16.52-4.19,24.25-7.96,2.85-1.39,5.32-3.45,8.37-4.41"/>
  <path class="cls-1" d="M152.63,172.55c-.34.29-.69.67-.63,1.09.45,3.26-.03,6.56.4,9.82.33,2.52,1.05,4.94,1.52,7.42,1.2,6.39,4.5,11.7,8.8,16.31,5.97,6.41,13.49,10.69,21.32,14.46,9.83,4.74,20.09,8.05,30.77,10.26,12.04,2.49,24.21,3.29,36.44,2.75,11.25-.5,22.35-2.16,32.94-6.27,6.05-2.35,12.08-4.74,17.04-9.14.42-.37,1-.6,1.51-.89"/>
  <path class="cls-1" d="M154.38,223.38c1.63,1,1.62,2.92,2.34,4.39,2.64,5.45,6.91,9.32,11.62,12.85,10.51,7.88,22.41,12.68,34.89,16.42,9.16,2.74,18.51,4.2,27.95,5.11,9.79.95,19.66.95,29.44-.2,11.61-1.37,22.75-4.57,33.15-10.03,2.45-1.29,4.83-2.78,6.99-4.56.68-.56,1.36-1.04,2.2-1.29"/>
  <path class="cls-1" d="M154.38,237.56c1.29.9,1.14,2.49,1.71,3.73,2.87,6.3,7.74,10.9,13.18,14.75,9.12,6.45,19.28,10.78,30.04,13.88,7.05,2.03,14.14,3.68,21.39,4.77,9.63,1.44,19.29,2.24,29.02,1.91,14.46-.5,28.52-3.01,41.66-9.39,3.23-1.57,8.63-5.07,11.36-7.54"/>
  <path class="cls-1" d="M154.81,280.11c1.29,2.37,2.18,4.95,3.7,7.2,4.29,6.33,10.44,10.5,16.81,14.39,7.22,4.4,15.05,7.44,23.13,9.79,8.78,2.55,17.71,4.45,26.82,5.54,7.12.85,14.23,1.38,21.39,1.23,9.39-.19,18.74-.92,27.92-3.04,9.78-2.26,19.09-5.7,27.49-11.33.28-.19.55-.35.82-.44.88,0,.66,1.02.64,1.08-1.14,4.22-.73,8.45-.13,12.67.49,3.45-.25,6.84-.24,10.26.02,6.18.16,12.37-.04,18.54-.21,6.47.4,12.95-.16,19.42-.04.45-.07.89-.23,1.31"/>
  <path class="cls-1" d="M153.94,193.06c-1.86,1.31-1.03,3.32-.76,4.78.5,2.69.84,5.44,1.27,8.12.88,5.48,3.52,9.9,6.95,13.9,5.1,5.96,11.68,9.99,18.46,13.85,8.82,5.02,18.39,7.99,28,10.72,7.71,2.19,15.74,3.1,23.75,3.83,6.9.63,13.83.66,20.72.36,8.17-.36,16.3-1.48,24.21-3.66,7.47-2.06,14.55-5.08,21.18-9.12,1.75-1.07,2.9-2.96,5.01-3.51"/>
  <path class="cls-1" d="M155.68,254.14c1.64,2.62,2.99,5.37,5.18,7.69,2.97,3.14,6.19,5.93,9.67,8.44,11.22,8.1,23.93,12.65,37.29,15.76,8.5,1.98,17.09,3.36,25.76,4.01,7.75.58,15.54.74,23.34-.06,5.88-.6,11.72-1.21,17.44-2.7,6.01-1.56,11.88-3.57,17.44-6.34,3.31-1.65,6.52-3.51,9.37-5.89.58-.48,1.09-.68,1.77-.62"/>
  <path class="cls-1" d="M127.32,149.64c-.33.63-.22,1.3-.21,1.96.16,29.16-.26,58.32-.22,87.48.02,13.09.12,26.18-.04,39.27-.11,9.31-.15,18.62-.05,27.93.04,4.28.02,8.58-.13,12.87"/>
  <path class="cls-1" d="M372.54,175.17c.35.7.21,1.45.21,2.18,0,21.09.19,42.18-.04,63.27-.3,26.98.05,53.96-.21,80.94-.11,11.34-.26,22.69-.46,34.03-.12,6.47-.04,12.95-.16,19.42,0,.36.2.79-.21,1.09"/>
  <path class="cls-1" d="M153.94,237.56c-.45.41-.78.89-.65,1.53.52,2.52.47,5.11.97,7.66.5,2.59,1.12,5.21.48,8.08-.59,2.69-.24,5.64.26,8.48,1.28,7.33,5.69,12.75,11,17.38,5.19,4.53,11.13,8.03,17.38,11.01,9.13,4.35,18.74,7.1,28.6,9.13,7.56,1.55,15.2,2.65,22.91,3.02,8.59.41,17.16.27,25.75-.74,8.35-.98,16.52-2.5,24.42-5.34,6.09-2.19,11.93-4.93,17.27-8.67.9-.63,1.1-1.27,1.07-2.22-.14-4.07-.2-8.17-.05-12.21.12-3.29-.05-11.81.05-15.09"/>
  <path class="cls-1" d="M364.25,181.28c.47.45.2,1.02.2,1.53.02,13.89.16,27.78-.02,41.67-.37,28.87-.08,57.74-.17,86.61,0,3.12.27,6.25.2,9.38"/>
  <path class="cls-1" d="M146.3,155.53v162.75"/>
  <path class="cls-1" d="M282,412.1c-3.62-.82-7.13-2.04-10.69-3.06-11.23-3.23-22.41-6.66-33.59-10.04-11.9-3.59-23.88-6.9-35.79-10.42-10.02-2.96-20.01-6.02-30.09-8.78-4.59-1.26-9.05-3.03-13.75-3.91"/>
  <path class="cls-1" d="M346.8,193.28c.35.7.21,1.45.21,2.18,0,25.45.17,50.91-.06,76.36-.13,14.11-.02,28.22-.16,42.32,0,.36.2.79-.21,1.09"/>
  <path class="cls-1" d="M331.74,132.41c-2.82-1.98-6.18-2.57-9.39-3.46-9.5-2.62-18.92-5.49-28.35-8.34-10.31-3.12-20.69-6-30.98-9.16-10.53-3.24-21.18-6.09-31.64-9.57-.26-.09-.58-.01-.87-.01"/>
  <path class="cls-1" d="M303.38,203.97c-1.01,1.52-2.78,2.02-4.17,3.02-8.51,6.08-18.23,9.24-28.34,11.37-11.44,2.41-23,3.05-34.69,2.46-10.61-.54-20.97-2.06-31.22-4.99-10.76-3.07-20.96-7.22-30.29-13.4-9.02-5.97-15.82-13.71-19.28-24.18-.63-1.92-.68-4.16-2.33-5.69l1.2-2.97c1.09-2.69,3.14-4.88,5.77-6.1,2.63-1.22,6.04-2.17,9-.98"/>
  <path class="cls-1" d="M268.91,399.01c-3.19-.64-6.25-1.77-9.38-2.63-7.21-1.99-14.42-4.01-21.59-6.12-14.08-4.16-28.22-8.14-42.31-12.27-5.76-1.69-11.63-3.02-17.27-5.14-.32-.12-.72-.02-1.09-.02"/>
  <path class="cls-1" d="M153.5,293.2c-.21,4.04.18,8.04.9,11.99.32,1.75.56,3.52,1.03,5.25,1.32,4.88,4.36,8.65,7.91,11.96,10.16,9.48,22.45,14.81,35.72,18.45,9.07,2.48,18.26,4.06,27.53,5.27,3.09.4,6.24.75,9.37.95.36.02.71.04,1.11-.18,1.28-.69,2.71-.71,4.13-.68,10.19.19,20.33-.26,30.32-2.41,10.84-2.34,21.23-5.81,30.34-12.41.22-.16.64.13.86-.23"/>
  <path class="cls-1" d="M189.06,116.26c6.31,1.96,12.62,3.88,18.97,5.71,6.68,1.93,13.4,3.72,20.07,5.69,4.42,1.31,8.84,2.6,13.33,3.61,1.87.42,3.7,1.17,5.66,1.13"/>
  <path class="cls-1" d="M355.31,359.3c4.52-.1,9.94-5.28,9.92-9.82-.03-4.92-3.26-10.47-9.42-10.47s-9.01,3.71-9.24,7.31c-.35,5.62.11,10.6,8.73,12.98"/>
  <path class="cls-1" d="M356.62,111.03c-2.63-.44-5.1-1.44-7.63-2.19-11.65-3.44-23.21-7.2-34.91-10.47-4.01-1.12-7.89-2.71-12-3.49"/>
  <path class="cls-1" d="M130.81,362.14c.02-1.81,1.81-2.63,2.26-4.34,1.82-6.87-2.92-17.33-12.08-17.85-7.84-.45-10.97,4.55-10.62,11.5.28,5.46,3.42,9.27,8.22,11.8,2.91,1.53,6.05,1.62,8.9.52,2.11-.81,4.48-.82,6.36-2.08,4.77-3.21,7.35-7.69,6.73-13.5-.63-5.95-3.16-11-8.48-14.16-6.4-3.8-11.82-1.25-15.67,3.92-.6.81-1.84,1.44-1.34,2.82"/>
  <path class="cls-1" d="M131.9,135.68c.78.45,1.51.22,2.18-.22,7.1-4.74,8.86-10.89,5.83-18.95-1.89-5.03-5.23-8.88-10.83-10.33-2.5-.65-4.69-.54-6.77.93-2.22,1.57-4.81,2.86-5.02,6.1"/>
  <path class="cls-1" d="M310.58,410.79c3.59.12,5.64-2.25,7.39-4.82,4.42-6.51,3.11-16.59-4.78-22.22-3.64-2.6-7.49-3.52-11.55-.87-2.15,1.41-4.11,3.09-5.2,5.46-.72,1.55-2.1,2.44-3.14,3.65-3.24,3.76-3.98,8.04-2.27,12.44,1.97,5.07,5.9,8.17,11.48,8.73,1.85.19,3.76-.15,5.43-.89,3.59-1.59,4.57-5.09,4.96-8.47.8-6.83-4.84-15.2-13.23-15.07-1.03.02-1.99.84-3.05.24"/>
  <path class="cls-1" d="M310.58,190c.75-.02,1.47.04,2.19-.42,10.14-6.48,9.3-18.35,1.31-24.9-1.97-1.61-4.05-2.89-6.55-3.49-4.21-1.01-9.14,2.43-10.8,5.53-.57,1.07-1.22,1.77-2.09,2.32-5.9,3.73-6.58,10.64-2.98,16.56,3,4.94,9.28,7.12,14.78,6.2,4.52-.76,7.09-6.1,6.75-10.3-.5-6.11-5.81-12.1-11.77-13.3-1.57-.31-3.27.47-4.8-.45"/>
  <path class="cls-1" d="M148.06,104.26c-.02,14.18-.06,30.33-.01,44.51"/>
  <path class="cls-1" d="M156.78,105.57v51.27"/>
  <path class="cls-1" d="M380.18,333.34c0,10.98.11,21.96-.06,32.94-.06,3.63.06,7.28-.35,10.91"/>
  <path class="cls-1" d="M338.73,140.7c3.52,6.63,6.52,13.43,7.66,20.94.46,3.05.99,6.09,1.04,9.17.1,6.47.05,12.94-.01,19.42,0,.51.25.86.26,1.31"/>
  <path class="cls-1" d="M266.29,323.52c-3.86.36-7.73.65-11.57,1.29-.85.14-1.74.02-2.61.02-4.51,0-9.03.17-13.52-.05-4.01-.19-8.04-.4-12.01-1.23-.84-.18-1.74-.03-2.61-.03"/>
  <path class="cls-1" d="M117.07,113.43c-4.96,2.88-7.02,7.36-6.48,12.87.55,5.61,5.35,9.81,9.73,11,2.45.67,4.83.75,7.22.51,3.06-.31,4.99-2.45,5.85-5.2,2.43-7.81-1.53-18.22-12.6-19.65-1.14-.15-2.13.93-3.28.24"/>
  <path class="cls-1" d="M387.81,339.01c1.88.06,3.53.91,5.23,1.53,4.84,1.78,9.87,2.97,14.63,4.98,4.13,1.75,6.17,4.86,6.27,9.19.06,2.32.26,4.64-.3,7-.36,1.54-1.12,2.45-2.27,3.25-7.01,4.86-14.07,9.67-21.24,14.28-3.1,1.99-6.09,4.18-9.25,6.1-1.82,1.11-3.5,1.38-5.28.75-8.43-2.96-17.03-5.33-25.54-8.03-3.25-1.03-6.37-2.49-9.81-2.84"/>
  <path class="cls-1" d="M252.77,241.49c-4.8,0-9.61.15-14.4-.05-4.01-.17-8.02-.65-12.01-1.16-2.82-.36-5.62-1.08-8.5-.97"/>
  <path class="cls-1" d="M281.13,146.37c-1.39-.31-1.32.58-1.32,1.53,0,6.62.27,13.24.41,19.85.16,8.14.04,16.29.04,24.43v1.31"/>
  <path class="cls-1" d="M254.95,296.91c-4.07,0-8.14,0-12.22,0-5.64.01-11.24-.31-16.8-1.29-.78-.14-1.6-.02-2.4-.02"/>
  <path class="cls-1" d="M257.57,310.43c-9.76.78-19.5.45-29.23-.44"/>
  <path class="cls-1" d="M148.21,102.14c-4.05-.83-6.25-1.94-10.2-3.11-5.84-1.74-11.66-3.55-17.46-5.44-.26-.09-.58-.01-.87-.01"/>
  <path class="cls-1" d="M336.54,152.92c1.64,4.47,3.1,8.99,3.71,13.74.59,4.56,1.24,9.11.68,13.75-.25,2.09.31,4.21.2,6.32-.11,2.03.09,4.07-.19,6.11-.15,1.08-.23,2.24.4,3.27"/>
  <path class="cls-1" d="M334.36,326.36c-2.51,1.4-2.2,3.79-2.19,6.11.03,7.85,0,15.71.02,23.56"/>
  <path class="cls-1" d="M153.72,321.78c-3.07-.44-5.79-1.98-8.72-2.85-6.06-1.81-12.01-3.98-18.11-5.65"/>
  <path class="cls-1" d="M413.34,353.41c-5.99,3.73-11.85,7.69-17.9,11.33-2.68,1.62-5.15,3.58-8.07,4.81"/>
  <path class="cls-1" d="M372.76,322.87c4.13,1.27,8.22,2.71,12.43,3.72,1.53.37,2.23,1.36,2.21,3.04-.07,5.6.15,11.21-.07,16.8-.26,6.33.04,12.66-.2,18.98-.16,4.22-.18,8.44-.19,12.65,0,.81-.16,1.65.32,2.4"/>
  <path class="cls-1" d="M340.47,321.34c2.92.61,5.63,1.88,8.5,2.64,6.66,1.75,13.19,3.93,19.85,5.69,1.03.27,2,.83,3.06,1.06"/>
  <path class="cls-1" d="M261.93,191.31c-7.85-.13-15.71.02-23.56,0"/>
  <path class="cls-1" d="M288.55,146.37c-1.02.22-.87,1.02-.87,1.75.01,8.95-.09,17.89.23,26.83.24,6.98.19,13.96.23,20.94,0,.35-.26.56-.24.87"/>
  <path class="cls-1" d="M257.13,282.94c-7.56.31-15.13.31-22.69,0"/>
  <path class="cls-1" d="M387.81,346.87c2.2.75,4.53,1.1,6.58,2.35.59.36,1.21.66,1.71,1.14,1.95,1.86,1.75,3.36-.42,5.04-2.46,1.89-5.26,1.78-8.09,1.73"/>
  <path class="cls-1" d="M255.39,338.79h-20.94"/>
  <path class="cls-1" d="M281.11,360.52c-.31,4.41-.27,3.68-.29,4.01-.37,6.98,0,13.97-.13,20.95"/>
  <path class="cls-1" d="M371.67,376.1c-3.32-1.02-17.31-5.19-20.73-5.89"/>
  <path class="cls-1" d="M155.03,331.38v34.91"/>
  <path class="cls-1" d="M312.11,349.7c1.71.47,3.51.69,4.8,1.54,0,5.37.04,14.41,0,19.57"/>
  <path class="cls-1" d="M253.64,213.57h-18.76"/>
  <path class="cls-1" d="M311.67,284.69c-1.51.65-.58,2.07-.54,2.83.42,8.14-.18,16.3.45,24.45.45,5.86.09,11.77.09,17.66,0,12.94-.02,26.88-.02,39.82"/>
  <path class="cls-1" d="M337.2,273.78c.65,4.2.39,8.46.33,12.65-.22,14.98.02,29.96-.11,44.94"/>
  <path class="cls-1" d="M340.91,313.7c8.43,2.49,16.88,4.9,25.29,7.46.47.14.89.07,1.32.18"/>
  <path class="cls-1" d="M317.13,206.37c-.52,1.96-.03,3.93-.01,5.89.04,3.2,0,6.4.02,9.6,0,.6-.3,1.31.43,1.74-.68.56-1.08,1.43-1.97,1.75"/>
  <path class="cls-1" d="M254.08,255.45h-17.02"/>
  <path class="cls-1" d="M332.62,309.34c-.12,5.45.26,10.91-.23,16.36-.03.29.35.37.23.66"/>
  <path class="cls-1" d="M280.91,385.92c-.51,4.79-.07,9.6-.23,14.4-.03.73.26,1.49-.21,2.18"/>
  <path class="cls-1" d="M253.2,227.53h-16.58"/>
  <path class="cls-1" d="M332.18,356.03c0,5.45.26,16.8.26,22.25"/>
  <path class="cls-1" d="M249.71,269.42c-5.39.24-10.75-.71-16.14-.44"/>
  <path class="cls-1" d="M330,268.11c-.84.78-.89,1.75-.9,2.84-.08,9.16-.1,18.33-.08,27.49.03,10.25-.03,20.51.11,30.76"/>
  <path class="cls-1" d="M333.49,250.22c-.77.47-.63,1.23-.66,1.96-.32,8.07-.19,16.14-.21,24.22-.02,10.47,0,20.94,0,31.42"/>
  <path class="cls-1" d="M315.16,324.83c.99-.7.99-.68,1.77-1.07-.09,2.36.15,4.55.18,6.74.04,3.85.01,7.71.01,11.56"/>
  <path class="cls-1" d="M323.89,138.08c-3.51-.52-6.8-1.87-10.24-2.66-1.54-.35-2.99-1.11-4.59-1.27"/>
  <path class="cls-1" d="M322.8,246.29c.5,5.08.12,10.18.21,15.27.06,4,.01,8,.01,12,0,.6-.15,1.31.87,1.09"/>
  <path class="cls-1" d="M318.65,249.78c-1.16.49-1.53,1.42-1.53,2.62,0,9.02,0,18.04,0,27.05,0,4.87-.03,9.74.02,14.62.01,1.43-1.38,1.26-1.98,1.96"/>
  <path class="cls-1" d="M329.13,207.46c0,15.56-.03,31.13.06,46.69,0,1.05-.64,1.46-.94,2.18"/>
  <path class="cls-1" d="M311.02,204.18c-.5,3.48-.18,6.98-.2,10.47-.06,10.4-.05,20.8,0,31.2.02,3.13.26,6.24.08,9.39-.06,1.03-.21,1.1-.97,1.08"/>
  <path class="cls-1" d="M332.62,205.28c.14,14.69.57,29.38.44,44.07"/>
  <path class="cls-1" d="M317.35,351.45c4.81,1.25,9.55,2.8,14.4,3.93"/>
  <path class="cls-1" d="M310.8,256.54c.38,4.72.13,9.47.43,14.19-.43.77-1.38,1.14-2.18,1.73"/>
  <path class="cls-1" d="M302.73,289.27c.12.69.72,1.14.69,1.96-.14,4,.1,8-.14,12"/>
  <path class="cls-1" d="M302.73,205.28c.52.31.45.81.44,1.31-.12,3.85-.39,7.77-.05,11.55.36,3.98-.12,7.87-.02,11.8.1,3.92.38,7.84.31,11.78-.11,6.11-.03,12.22-.03,18.33"/>
  <path class="cls-1" d="M337.2,231.24c.65,4.57.25,9.17.31,13.75.06,4.64.06,9.31-.09,13.96"/>
  <path class="cls-1" d="M322.8,304.32c.49,3.77.09,7.56.21,11.34.02.73,0,1.47,0,2.18,1.2.04,1.33-1.17,2.18-1.31"/>
  <path class="cls-1" d="M281.57,88.34c-2.43-.4-4.64-1.54-7-2.12-2.2-.54-4.25-1.58-6.53-1.81"/>
  <path class="cls-1" d="M154.91,208.14c-.93,3.68-1.4,10.02-.87,13.7.22,1.56-.61,2.71-.61,4.16,0,3.73.64,7.41.73,11.13"/>
  <path class="cls-1" d="M323.02,274.87c0,9.31-.04,18.62.03,27.93.01,1.69-1.4,1.96-2.21,2.84"/>
  <path class="cls-1" d="M328.91,255.89c.5,3.48.07,6.98.22,10.47.03.8-.15,1.63.22,2.4"/>
  <path class="cls-1" d="M323.02,207.46c0,11.85,0,23.71,0,35.56,0,.73-.14,1.48.21,2.18"/>
  <path class="cls-1" d="M155.68,313.92c-.97,3.01-.29,6.12-.34,9.16-.03,1.57-.01,3.2.13,4.8"/>
  <path class="cls-1" d="M337.42,259.82c0,3.71-.1,7.42.05,11.12.06,1.53-.28,2.7-1.36,3.71"/>
  <path class="cls-1" d="M188.19,115.83c-4.02-.71-7.77-2.28-11.55-3.75-.36-.14-.88.08-1.11-.39"/>
  <path class="cls-1" d="M316.91,295.38c.51,4.21.07,8.44.22,12.65"/>
  <path class="cls-1" d="M329.56,330.07c-4.17,4.42-7.59,8.28-12.44,12"/>
  <path class="cls-1" d="M316.91,224.91c.51,2.9.17,5.82.17,8.73,0,1.16.02,2.41.19,3.47.18,1.07-.42.98-.8,1.33"/>
  <path class="cls-1" d="M305.13,150.73c-3.31-.75-6.44-2.11-9.8-2.72-.8-.15-1.62-.16-2.42-.33"/>
  <path class="cls-1" d="M316.91,309.34c.37,4,.35,8,0,12"/>
  <path class="cls-1" d="M337.42,206.15c0,7.64-.08,15.27.07,22.91.03,1.41-.99,1.87-1.38,2.84"/>
  <path class="cls-1" d="M250.15,200.91h-11.78"/>
  <path class="cls-1" d="M317.13,238.66c0,3.35-.01,6.69.01,10.04,0,.6-.29,1.31.42,1.75"/>
  <path class="cls-1" d="M224.41,99.68c-3.41-.72-6.73-1.75-10.02-2.88-.47-.16-.89-.07-1.32-.18"/>
  <path class="cls-1" d="M311.02,271.82c.12,3.2-.2,6.4.2,9.6.12,1.01.09,2.05-.2,3.05"/>
  <path class="cls-1" d="M340.47,366.94c2.58.36,4.96,1.4,7.4,2.22.47.16.89.07,1.32.18"/>
  <path class="cls-1" d="M262.37,240.62c-2.93-.22-5.79.76-8.73.44"/>
  <path class="cls-1" d="M326.07,172.55v8.73"/>
  <path class="cls-1" d="M221.35,337.05c-2.81.19-5.5-.86-8.29-.87"/>
  <path class="cls-1" d="M262.8,226.66c-2.78-.15-5.5.76-8.29.44"/>
  <path class="cls-1" d="M144.56,85.28c-2.4-.39-4.66-1.29-6.97-2.01-.47-.15-.89-.07-1.32-.17"/>
  <path class="cls-1" d="M223.97,253.71c-2.68.28-5.2-.94-7.85-.87"/>
  <path class="cls-1" d="M173.79,111.03c-2.59-.97-5.2-1.86-7.85-2.62"/>
  <path class="cls-1" d="M292.91,91.83c-2.3-.26-4.36-1.32-6.53-2.01-.47-.15-.89-.07-1.32-.17"/>
  <path class="cls-1" d="M156.34,375.01c-2.36-.44-4.57-1.5-6.98-1.75"/>
  <path class="cls-1" d="M248.84,115.83c-2.43-.19-4.52-1.71-6.98-1.75"/>
  <path class="cls-1" d="M149.36,371.95c-.72.59-1.47.87-2.4.44-1.75-.79-3.51-1.56-5.45-1.75"/>
  <path class="cls-1" d="M148.05,148.77v5.45"/>
  <path class="cls-1" d="M326.94,228.4c-.98,1.34-2.15,2.51-3.49,3.49"/>
  <path class="cls-1" d="M155.9,88.77c-1.22-.05-2.21-1.05-3.49-.87"/>
  <path class="cls-1" d="M328.69,298.43c-1.2,1.05-2.12,2.41-3.49,3.27"/>
  <path class="cls-1" d="M371.89,376.97c-.04,2.33.17,4.68-.44,6.98"/>
  <path class="cls-1" d="M326.51,241.93c-2.01,2.35-4.16,4.57-6.54,6.54"/>
  <path class="cls-1" d="M372.32,322.65c-1.08.31-3.74-1.45-4.8-1.31"/>
  <path class="cls-1" d="M313.42,297.34c-.76.19-.98,1.11-1.75,1.31"/>
  <path class="cls-1" d="M302.95,202c.12.5-.25,1.07.22,1.53"/>
  <path class="cls-1" d="M317.78,308.25c-.72.45-1.37,1.01-2.18,1.31"/>
  <path class="cls-1" d="M106.6,369.77c-1.62.73-3.49.59-5.06,1.69-1.16.81-2.72,1.34-2.73,2.89-.02,1.78,1.37,2.67,2.98,3.3,3.54,1.38,7.07,2.09,10.93,1.37,1.93-.36,3.87-.6,5.64-1.43,1.33-.63,2.79-1.59,2.56-3.23-.23-1.65-1.64-2.6-3.19-3.3-3.52-1.61-7.23-1.27-10.92-1.29"/>
  <path class="cls-1" d="M281.78,422.13c-1.9.89-4.11.73-5.93,2.13-2.47,1.89-2.61,3.26.05,4.85,2.41,1.45,5.05,2.09,7.85,2.19,3.49.12,6.95-.03,10.25-1.32,1.55-.61,3.59-1.1,3.61-3.05.02-1.88-1.77-2.79-3.39-3.49-3.94-1.68-8.1-1.29-12.22-1.31"/>
</svg>