<?xml version="1.0" encoding="UTF-8"?>
<svg id="icons" xmlns="http://www.w3.org/2000/svg" viewBox="0 0 500 500">
  <defs>
    <style>
      .cls-1 {
        fill: none;
        stroke: #000;
        stroke-linecap: round;
        stroke-linejoin: round;
        stroke-width: .9px;
      }
    </style>
  </defs>
  <path class="cls-1" d="M366.33,151.31c4.32,4.36,7.85,9.35,10.77,14.68,6.83,12.46,11.62,25.71,14.5,39.65,1.64,7.97,2.37,16.02,2.69,24.13.6,15.05-1.73,29.71-5.63,44.19-2.7,10.04-6.46,19.71-10.46,29.27-2.29,5.47-4.86,10.88-7.87,16-2.39,4.07-5.23,7.88-7.61,11.98-6.33,10.89-14.67,20.19-23.71,28.81-8.62,8.22-17.75,15.92-28.14,21.91-7.71,4.45-15.82,7.94-24.32,10.66-9.3,2.97-18.75,5.17-28.43,6.18-6.65.69-13.34.57-20.07-.04-9.64-.88-18.68-3.55-27.51-7.3-2.79-1.18-5.18-3.01-7.88-4.31"/>
  <path class="cls-1" d="M423.59,247.58c-1.38,10.88-4.08,21.49-7.08,31.99-1.9,6.63-4.41,13.11-6.69,19.63-3.39,9.68-7.61,19.01-12.18,28.18-4.6,9.25-9.83,18.16-15.79,26.59-9.75,13.81-20.75,26.59-32.93,38.3-8.86,8.52-18.1,16.68-28.4,23.44-13.9,9.12-28.76,16.31-44.84,20.77-6.08,1.69-12.22,3.11-18.47,4.15-7.04,1.17-14.07,1.85-21.2,1.76-3.61-.05-7.23.13-10.82-.07-6.97-.38-13.9-1.3-20.73-2.7-8.03-1.65-15.87-4.02-23.45-7.18-3.54-1.47-7.28-2.73-10.29-5.06-2.11-1.64-3.96-3.67-6.13-5.35-6.06-4.71-11.96-9.64-17.36-15.09-11.05-11.14-20.09-23.74-27.14-37.81-4.49-8.97-8.67-18.06-11.82-27.56-2.04-6.15-3.69-13.65-4.54-20.12"/>
  <path class="cls-1" d="M301.4,151.31c.59,1.57,2.24,1.69,3.4,2.46,10.58,7.06,18.3,16.53,23.64,27.99,3.27,7.04,5.5,14.4,6.83,22.08,1.49,8.53,1.99,17.09,1.73,25.71-.18,5.9-.83,11.75-1.71,17.6-1.31,8.64-3.39,17.06-6.4,25.23-6.14,16.67-15.2,31.57-26.98,44.92-9.21,10.44-19.79,19.1-31.88,25.81-10.9,6.04-22.57,10.12-35.13,11.11-9.99.79-19.75-.28-29.04-4.15-1.23-.51-2.45-.13-3.7-.94-3.86-2.5-6.87-5.81-9.6-9.36-7.64-9.9-12.28-21.17-14.93-33.34-2.46-11.3-3.4-22.74-2.86-34.27.25-5.37,1.12-10.7,2.11-16.02,2.63-14.12,7.39-27.43,14.04-40.12,5.54-10.57,12.44-20.15,20.31-29.07,10.38-11.77,22.53-21.19,36.73-27.98,10.54-5.04,21.52-8.37,33.16-9.42,5.72-.51,11.43-.21,17.14.61,8.6,1.23,16.76,3.53,24.38,7.86,4.37,2.48,8.44,5.36,12.08,8.69,10.16,9.31,17.86,20.41,22.79,33.32,2.66,6.97,4.32,14.19,5.29,21.62.64,4.89.97,9.78.97,14.66,0,6.25-.51,12.49-1.42,18.72-1.27,8.76-3.47,17.26-6.69,25.44-6.99,17.77-16.78,33.9-29.7,48.04-12.71,13.91-27.7,24.71-45.11,31.96-6.4,2.67-13.15,4.44-20.04,5.46-6.58.97-13.23,1.33-19.83.42-12.96-1.79-25.16-5.7-35.62-13.94-.89-.7-2.15-1.07-2.26-2.48"/>
  <path class="cls-1" d="M175.6,388.93c12.17,8.86,18.22,10.02,21.68,11.4,9.03,3.61,18,7.58,27.7,9.05,4.84.73,9.71,1.4,14.64,1.44,8.37.06,16.73-.06,25.02-1.37,11.36-1.78,22.2-5.32,32.68-9.95,9.95-4.41,19.49-9.62,28.18-16.22,9.43-7.17,18.26-15.03,26.15-23.89,6.58-7.38,13.11-14.81,18.74-22.97,5.74-8.32,10.75-17.02,15.17-26.12,3.46-7.13,6.28-14.47,8.98-21.89,2.76-7.59,4.89-15.34,6.49-23.24.99-4.86,1.96-9.73,2.45-14.66.9-9.06,1.4-18.18.87-27.27-.69-11.72-2.57-23.22-6.11-34.54-3.97-12.68-9.13-24.72-16.42-35.77-6.84-10.36-15.58-19.01-25.89-25.93-8.05-5.4-16.43-10.25-25.89-12.91-6.16-1.74-12.26-3.51-18.71-4.14-5.95-.58-11.89-1.07-17.82-.72-9.31.55-18.5,2.19-27.51,4.67-12.24,3.37-23.88,8.26-34.91,14.47-6.78,3.82-13.15,8.29-19.21,13.22-12.05,9.81-22.86,20.73-32.07,33.33-8.46,11.58-15.36,23.9-21.26,36.96-4.95,10.95-8.4,22.23-10.88,33.89-1.67,7.87-3.45,15.71-4.83,23.65-1.72,9.88-1.21,19.67-.41,29.55.67,8.3,2.05,16.47,3.88,24.57,1.2,5.32,2.53,10.61,4.28,15.78.7,2.08,1.75,4.02,2.55,6.06.54,1.38.78,2.66.61,4.08"/>
  <path class="cls-1" d="M403.97,249.83c12.36-1.19,24.64-2.81,36.29-7.44,2.29-.91,4.49-2.07,6.49-3.44,2.29-1.57,3.2-4.13,3.2-6.92,0-8.79.11-17.59-.04-26.38-.07-4.08-2.69-6.37-6.23-8.19-4.5-2.33-9.2-4.2-13.84-6.12-7.45-3.07-10.96-8.59-12.38-16.12-1.52-8.03-4.31-15.69-7.42-23.22-5.55-13.45-13.07-25.78-22.36-36.93-11.24-13.49-24.39-24.8-40.07-32.97-6.96-3.63-14.21-6.54-21.64-9.04-1.73-.58-3.41.11-5.22-.32-6.27-1.49-12.67-2.14-19.13-2.47-3.61-.18-7.22-.39-10.83-.32-8.56.15-17.04,1.05-25.49,2.6-11.02,2.02-21.73,5.05-32.2,8.92-6.34,2.34-12.38,5.39-18.31,8.69-6.03,3.35-11.85,7.05-17.51,10.95-6.52,4.49-12.71,9.45-18.81,14.52-5.37,4.47-10.53,9.16-15.49,14.05-9.52,9.39-17.33,20.15-24.57,31.33-8.25,12.74-14.93,26.25-20.15,40.54-4.39,12.03-7.37,24.4-10.48,36.78-1.86,7.42-3.58,17.44-4.06,24.11"/>
  <path class="cls-1" d="M324.84,72.63c-1.92-1.96-4.62-2.17-6.97-3.2-5.01-2.19-10.14-4.01-15.36-5.55-8.11-2.39-16.32-4.34-24.78-5.32-5.42-.63-10.83-.97-16.24-.97-5.18,0-10.41-.05-15.55.66-9.94,1.37-19.72,3.5-29.31,6.49-9.92,3.09-19.54,6.94-28.85,11.52-14.16,6.97-27.01,15.9-39.03,26.11-16.08,13.67-29.38,29.7-40.77,47.38-7.39,11.48-13.53,23.63-19.24,36.03-5.54,12.02-9.57,24.52-12.93,37.25-1.53,5.81-2.58,11.78-3.25,17.79-.63,5.6-1.44,11.18-2.73,16.68-.35,1.49-1.17,2.71-2.63,3.68-3.39,2.26-7.31,3.28-10.89,5.06-1.91.95-3.76,1.83-4.91,3.68-.46.74-1.01,1.53-.91,2.47.33,3.18-.24,6.31-.43,9.47-.39,6.33,1.13,15.11,1.61,21.42"/>
  <path class="cls-1" d="M329.35,109.38c-2.69-1.79-5.77-2.65-8.8-3.59-10.79-3.34-21.84-4.86-33.13-4.53-11.71.34-23.22,1.89-34.5,5.17-11.75,3.42-22.6,8.72-33.19,14.81-7.23,4.16-14.18,8.66-20.67,13.87-7.99,6.41-15.27,13.56-21.69,21.6-5.97,7.48-11.94,14.95-17.11,23.02-5.77,9-11.04,18.29-15.49,27.98-4.28,9.32-7.43,19.1-9.98,29.05-1.96,7.65-3.53,15.39-4.46,23.22-.77,6.5-1.28,13.04-.95,19.61.04.81.04,1.19-1.08,1.68-5.05,2.23-9.85,5.02-15.16,6.64-6.68,2.03-13.5,3.4-20.51,3.63-6.01.2-11.73-1.33-17.35-3.19-5.41-1.79-10.67-3.97-15.82-6.44-3.38-1.62-6.29-3.63-8.53-6.61"/>
  <path class="cls-1" d="M186.42,104.42c-7.85,6.31-15.63,12.7-22.77,19.83-12.37,12.35-23.52,25.66-32.7,40.58-6.42,10.43-11.61,21.4-15.81,32.91-5.15,14.12-8.85,28.63-11.82,43.32-1.08,5.33-3.39,15.4-3.97,20.84"/>
  <path class="cls-1" d="M283.81,68.58c.39.9-9.32.6-13.98.87-6.54.39-13,1.34-19.38,2.75-12.96,2.86-25.14,7.77-36.76,14.17-8.08,4.45-15.65,9.66-23.21,14.89"/>
  <path class="cls-1" d="M131.87,312.05c1.12,2.77,1.69,5.72,2.41,8.59,1.4,5.58,3.01,11.07,5.04,16.44,4.55,11.98,10.5,23.25,18.11,33.54,4.65,6.29,10.21,11.85,16.38,16.74.63.5.99,1.3,1.8,1.58"/>
  <path class="cls-1" d="M76.67,319.33c15.07,56.92,73.26,98.81,95.82,109.24"/>
  <path class="cls-1" d="M278.4,354.66c-5.5,2.16-11.07,4.13-16.91,5.17-6.11,1.09-12.25,1.4-18.49,1.23-7.85-.21-15.35-1.82-22.77-4.14-.14-.04-.3,0-.45,0"/>
  <path class="cls-1" d="M93.22,277.48c3.96,4.05,1.37,5.53-1.24,6.72-3.8,1.73-8.58,1.94-13.61-.71-1.41-.74-2.34-5.32-1.15-6.42,1.96-1.8,14.36-1.24,16.01.4"/>
  <path class="cls-1" d="M244.66,149.83c-.28-3.52-6.7-12.49-9.97-10.66-2.96,1.66-5.65,3.77-8.36,5.82-2.81,2.14-5.74,4.1-8.45,6.41-1.92,1.63-4.61,2.48-6.65,4.19-7.06,5.92-13.66,12.35-19.75,19.24-2.28,2.58-4.73,5.19-6.35,8.29-1.05,2.01-2.24,3.77-3.78,5.47-1.64,1.81-2.85,4.1-4.12,6.25-2,3.38-4.78,6.34-5.71,10.34-.28,1.22-1.26,2.21-1.78,3.38-.59,1.31-1.22,2.66-.81,4.05.19.64-.13.97-.32,1.12-2.31,1.8-2.42,4.54-3.13,7.02-.08.28-.27.47-.43.69-3,4.28-4.1,9.32-5.72,14.17-.93,2.78-1.15,5.77-2.64,8.36-.44.77.11,1.39.44,2.02"/>
  <path class="cls-1" d="M433.51,204.74c-1.15-3.07-4.15-3.03-6.56-3.52-3.54-.71-7.2-1.02-10.8-.09-.14.04-.3-.02-.45,0-1.89.35-3.99,1.95-4.05,3.15-.09,2.01,1.64,2.61,2.94,3.1,5.94,2.24,11.91,1.99,17.78-.41.81-.33.99-1.28,1.36-2.01"/>
  <path class="cls-1" d="M449.51,206.55c-6.84,4.3-14.41,6.46-22.32,7.68-4.41.68-8.84,1.31-13.3,1.06-3.31-.18-6.68.21-9.92-.85"/>
  <path class="cls-1" d="M357.53,358.94c1.36,6.14,6.03,7.77,11.53,4.33,3.76-2.35,5.76-8.57,2.28-12.94-2.1-2.63-6.12-2.43-8.14-1.04-1.69,1.17-3.13,2.68-4.37,4.42-1.13,1.6-.8,3.32-1.07,5"/>
  <path class="cls-1" d="M179.66,402.45c-5.05-1.11-11.44,4.29-9.67,10.81.68,2.52,2.97,3.26,5.17,3.57,6.89.97,11.27-5.89,9.7-10.33-.94-2.64-2.1-3.59-4.97-3.83"/>
  <path class="cls-1" d="M67.21,261.16c6.27,3.25,13.89,6.88,20.7,8.72,5.98,1.61,12.03,2.74,18.26,2.99,6.13.25,12.2-.17,18.26-.95"/>
  <path class="cls-1" d="M305.01,104.87c-5.4-.5-10.81-.7-16.23-.72-5.15-.01-10.2,1.03-15.33,1.17"/>
  <path class="cls-1" d="M131.87,311.37c-3.33,1.64-5.82,2.82-9.87,4.4-6.11,2.39-12.36,4.04-18.76,5.28-4.68.91-9.43,1.6-14.2,1.31-6.08-.37-34.34-9.9-37.37-18.78"/>
  <path class="cls-1" d="M129.39,281.39c-.11,10.07.92,20.05,2.48,29.98"/>
  <path class="cls-1" d="M130.29,257.95c-3.47,2.11-7.46,2.58-11.28,3.59-5.54,1.46-11.26,1.84-16.89,1.25-4.38-.46-8.67-2-12.86-3.51-6.12-2.2-11.92-4.97-16.01-10.35-.04-.05-1.43-2.18-1.43-2.25"/>
  <path class="cls-1" d="M364.07,150.86c-.05-1.1-.56-1.96-1.35-2.71-3.14-3.01-6.51-5.77-10.18-8.07-3.76-2.36-7.46-4.86-11.47-6.8-1.13-.55-2.12-1.31-3.65-.55-1.07.53-2.59-.26-3.52-.88-4.22-2.85-8.9-4.33-13.8-5.33-.13-.03-.3-.01-.45-.24"/>
  <path class="cls-1" d="M259.69,57.98c3.3,1.71,6.96,2.41,10.39,3.78,3.76,1.5,7.47,3.12,11.22,4.63.9.36,2.96.71,2.51,2.18"/>
  <path class="cls-1" d="M355.5,236.08c-.03,4.68-.08,9.32-.79,13.99-.48,3.15-1.24,6.26-1.46,9.45"/>
  <path class="cls-1" d="M319.66,126.29c-1.56-1.77-4.52-1.43-6.32-1.75-.47-.08-.92.45-1.59-.02-2.62-1.84-5.81-2.06-8.78-2.16-3.35-.12-6.81-1.11-10.15.31-.63.27-1.2-.38-1.8-.41-6.05-.35-12.03.09-17.8,2.03-1.93.65-3.97.22-5.9,1.02-1.17.49-2.42.79-3.6,1.38-1.44.71-3.25.38-4.69,1.01-2.9,1.25-5.85,2.34-8.65,3.9-3.09,1.72-6.65,2.56-9.88,4.11-1.01.48-5.08,1.72-.55,5.84"/>
  <path class="cls-1" d="M176.5,143.65c-.74-4.99-6.35-6.92-9.74-4.81-2.97,1.85-6.15,3.18-5.83,7.51.29,3.91,3.43,6.49,7.23,5.61,3.36-.78,6.6-.81,8.33-8.12"/>
  <path class="cls-1" d="M177.86,223.23c-2.81,4.84-3.09,10.54-5.37,15.57-.85,1.88-.72,4.27-1.54,6-1.83,3.88-1.6,8.08-2.73,12.03-.49,1.71-1.01,3.43-1.38,5.17-.35,1.64.46,3.28.21,4.96-.27,1.83-.57,3.64-1.13,5.41-.65,2.05.34,4.06.2,6.08-.42,6.05.8,12.03.82,18.04.02,3.55,1.72,6.55,2.23,9.9.25,1.66.58,3.17-.17,4.67-1.61.36-3.16.55-4.28,2.29-1.34,2.07-6.66,2.84-8.94,1.61-1.59-.85-1.99-2.73-2.12-4.06-.26-2.73-1.85-5.18-1.49-7.99.01-.11-.01-.23,0-.34.4-3.18-.85-6.15-1.11-9.24-.09-1.02-.16-2.09.66-2.93"/>
  <path class="cls-1" d="M371.17,174.53c2.51,5.68,5.42,11.2,7.28,17.15.13.41.59.67.49,1.11-.86,3.79,2.36,6.52,2.64,9.93.31,3.78,1.73,7.3,2.11,11.04.23,2.33.95,4.6.7,6.99-.09.85-.07,1.7-.48,2.48"/>
  <path class="cls-1" d="M417.27,179.72c-5.74,2.87-11.79,4.88-18.04,6.31"/>
  <path class="cls-1" d="M377.6,275.76c.69,2.86-.83,5.25-1.89,7.63-.69,1.56-.96,3.58-2.85,4.42-.33.15-.19.37-.22.57-1.08,6.46-4.54,11.86-7.77,17.36-1.15,1.96-1.78,4.17-2.99,6.12-.46.75-.96,1.3-1.64,1.77"/>
  <path class="cls-1" d="M155.31,315.21c-.38.64-.5,1.32-.22,2.03,2.02,5.26,4.55,13.86,7.21,18.94"/>
  <path class="cls-1" d="M250.75,131.4c-4.25,2.48-2.48,4.83-2.3,5.7.67,3.35,2.05,6.33,5.17,8.09,1.1.62,2.38.32,3.59.03,3.8-.89,7.42-2.44,11.27-3.16,3.67-.69,7.33-1.44,11.05-1.75,1.29-.11,2.65-.27,3.8-.6,4.6-1.31,9.05.31,13.55.46,2.27.07,4.63.93,6.99,1.26.27.04.67.28.9.16,3.36-1.75,6.02.9,8.73,1.82,2.34.8,4.65,2.22,7.07,3.14,7.75,2.94,14.33,7.72,20.48,13.13,2.15,1.89,3.82,4.3,5.7,6.47,3.01,3.47,5.69,7.2,8.66,10.7,2.11,2.49,4.33,5.39,5.25,8.34.98,3.16,2.09,6.27,3.21,9.38.81,2.24,2.01,4.4,2.76,6.6,1.09,3.22,1.9,6.59,2.34,10.07.51,4.13.41,8.42,1.89,12.41.09.23.28.46.19.68-1.33,3.56.46,7.18-.32,10.85-.6,2.82-.36,5.86-.83,8.76-.32,1.98-.11,3.84.71,5.64"/>
  <path class="cls-1" d="M315.63,348.87c1.41.81,4.21,3.12,5.39,4.2,1.15,1.05,1.29,2.43,1.6,3.84.66,2.94-1.15,4.65-2.98,6.3-2.58,2.33-5.5,4.19-8.47,6.01-1.3.8-2.55,1.93-3.91,2.81-.17.11-.28.39-.46.43-4.33,1.01-6.69,5.12-10.6,6.76-1.82.76-3.56,1.65-5.62,1.88-2.63.3-4.83,2.06-7.42,2.73-1.29.33-2.42.25-3.63.14"/>
  <path class="cls-1" d="M261.27,379.23c-1.94.01-2.52,1.34-2.95,2.93-.53,1.94-.33,3.91-.46,5.86-.12,1.72-1.24,2.63-2.9,2.94-4.85.9-9.73,1.29-14.65.9"/>
  <path class="cls-1" d="M342.65,337.08c.27,2.76-1.67,4.52-3.21,6.26-2.56,2.9-5.35,5.61-8.18,8.28-1.85,1.74-3.79,3.58-5.33,5.72-.66.92-1.4,2.06-2.89,1.83"/>
  <path class="cls-1" d="M370.16,250.06c-1.69,1.49-.92,3.65-1.2,5.43-.27,1.7.09,3.4-.74,5.2-1.32,2.87-1.58,6.12-2.32,9.21-1.04,4.38-.98,4.39,3.14,6.08"/>
  <path class="cls-1" d="M153.51,262.23c-1.34,1.23-1.08,2.98-1.32,4.51-.45,2.99-1.09,6.1-.98,9.01.17,4.5-1.72,9.12.49,13.54.15.3-.05.6.43.94,3.94,2.83,9.55,1.91,14.31-.34"/>
  <path class="cls-1" d="M350.54,308.67c1.19.31,2.4.25,3.61.22,5.03-.14,6.79,4.26,4.98,8.13-1.75,3.74-4.66,6.59-7.29,9.63-.55.63-1,1.59-1.97,1.86"/>
  <path class="cls-1" d="M372.41,287.25c-1.41-1.32-2.61-2.85-4.5-3.63-2.04-.86-3.94-.23-5.86.3-.19.05-2.04,4.24-2.23,4.64-1.66,3.5-1.59,3.29-3.16,6.83-1.29,2.91-2.06,6.05-4.52,8.35-.82.77-.63,2.11-1.14,3.14-1.87,3.77-4.87,6.77-7.07,10.33-.87,1.41-2.07,2.6-2.48,4.3-.05.21-.04.66-.58.98-2.27,1.37-3.73,3.61-5.44,5.57-1.79,2.05-1.45,4.07,1.15,4.86,1.65.51,2.73,1.46,3.8,2.58,1.64,1.72,2.31,1.62,4.32.26,2.25-1.53,3.11-4.09,4.88-5.95.25-.27.39-1.78-.39-1.67-2.36.33-6.24-4.91-7.84-5.44"/>
  <path class="cls-1" d="M334.31,331.44c-5.32,3.06-8.78,8.05-12.8,12.44-.44.49-.66.93-1.39,1.13-.94.25-1.79.8-2.49,1.53-4.51,4.69-10.17,7.87-15.32,11.73-5.47,4.09-12.07,6.09-17.9,9.54-1.79,1.06-4.51,1.12-6.4,2.26-4.03,2.43-8.72,1.77-12.92,3.24-.95.33-1.83.71-2.68,1.19"/>
  <path class="cls-1" d="M156.89,246.22c-1.55,3.15-2.64,6.43-3.2,9.91-.23,1.43-.09,2.87-.35,4.3-.15.82.33,1.67,1.3,2.02,2.62.96,5.09,2.46,8.13,1.62,1.32-.36,2.08-1.8,3.59-1.63"/>
  <path class="cls-1" d="M384.13,223.68c.64,7.74,1.37,15.5-.05,23.21-.62,3.37-.35,6.83-1.26,10.17-.32,1.16-.35,2.39-1.17,3.37-.3.35-.29.64-.29,1.13-.07,4.32-1.22,8.43-2.87,12.4-.44,1.06-1.14,1.63-2.45,1.89-2.2.43-4.33.91-6.55.37"/>
  <path class="cls-1" d="M353.48,149.28c2.36.13,3.75,2.17,4.34,3.67,1.28,3.23,4.17,5,5.86,7.79,2.03,3.35,3.86,6.79,5.78,10.19.49.86,1.03,1.97,1.82,3.81"/>
  <path class="cls-1" d="M321.14,126.96c-2.72.42-7.7,4.27-8.39,6.11-.7,1.85-.57,3.97-1.42,5.84-.23.51.64,3.37.6,3.82"/>
  <path class="cls-1" d="M179.89,402.68c4.68,6.54.38,13.36-7.41,13.08"/>
  <path class="cls-1" d="M275.25,372.02c2.29,2.04,3.18,4.75,3.6,7.67.03.22-.04.46.01.67.89,3.78.89,3.96-2.5,5.84-2.78,1.54-5.79,2.53-9,2.73"/>
  <path class="cls-1" d="M162.3,336.17c-.64,1.95.73,3.33,1.3,4.98,1.92,5.47,5.13,10.21,8.46,14.81,2.91,4.03,3.27,4.09,7.56,2.43,2.31-.89,4.37-1.52,6.83-.91.39.1,1.43.27,2-.35"/>
  <path class="cls-1" d="M205.14,364.8c2.53-.25,4.64.94,6.76,2.04,2.48,1.3,4.9,2.72,7.67,3.38,2.35.57,4.47,1.73,6.65,2.68,2.08.9,4.86,1.5,7.33,1.28,3.02-.26,5.78.3,8.58,1.18.84.26,1.81.11,2.69.01,3.09-.34,6.16-.19,9.25,0,1.08.07,2.17.22,3.19-.62.91-.75,2.18-.76,3.35-.71,1.84.08,1.1,3.17.85,5.18"/>
  <path class="cls-1" d="M233.32,374.5c.47.99,1.08,1.86,1.77,2.73,1.82,2.28,1.77,6.53.03,9.21-.88,1.36-1.9,2.65-2.25,4.29"/>
  <path class="cls-1" d="M188.45,356.98c8.9-3.59,11.33,3.13,15.53,6.28,1.76,1.32.41,3.27.48,4.93"/>
  <path class="cls-1" d="M204.46,368.19c-1.42,4.3-3.92,1.53-5.24,3.34-2.02,2.77-4.75,4.12-8.3,2.77-.53-.2-1.22-.12-1.79.2"/>
  <path class="cls-1" d="M217.97,151.91c.94,1.57,3.46,2.46,4.21,4.54,1.48,4.09,1.26,7.25-1.96,9.96-2.49,2.1-4.97,4.24-7.52,6.27-1.74,1.39-3.29,3.49-4.95,5.16-3.83,3.86-6.72,8.44-10.32,12.45-.84.93-1.6,2.42-3.36,1.6"/>
  <path class="cls-1" d="M253.83,145.68c-1.94,1.64-4.12,2.82-6.54,3.61-2.83.93-5.16,2.78-7.64,4.32-2.82,1.75-5.78,3.15-8.75,4.6-1.96.96-3.56,2.86-5.45,4.19-.73.52-1.36.99-2.28.86"/>
  <path class="cls-1" d="M175.6,359.62c.22,2.05.55,3.97,2.9,4.82.28.1.86.7,1.19,1.25,2.03,3.35,5.28,5.52,8.01,8.21,3.05,3,7.17,4.14,10.31,6.63,3.77,2.98,8.3,3.68,12.4,5.47,2.83,1.24,6.04,2.44,9.36,2.76,2.32.22,4.45,1.39,6.77,1.77,2.62.42,5.29.27,7.9.88,1.09.25,3.72.39,6.61.62"/>
  <path class="cls-1" d="M351.46,95c3.09,5.09.66,7.82-.4,9.36-1.61,2.34-5.1,3.32-8.81,3.89"/>
  <path class="cls-1" d="M200.4,370.89c.97.83.37,1.78.23,2.71-.38,2.53-.35,4.98,1.57,6.99.7.73.38,1.64.45,2.48"/>
  <path class="cls-1" d="M370.91,349.86c.62,4.56-.71,7.41-2.28,9.34-1.27,1.56-3.24,4.4-8.65,4.14"/>
  <path class="cls-1" d="M225.65,373.37c-.81.92-2.08,1.11-2.96,2.01-1.98,2.04-3.45,5.16-3.77,12.85"/>
  <path class="cls-1" d="M194.54,192.34c-1.26,2.89-2.73,5.6-4.64,8.18-2.77,3.74-4.7,8.08-7.11,12.09-1.54,2.56-2.23,5.43-3.37,8.13-.34.81-.69,1.63-1.39,2.32"/>
  <path class="cls-1" d="M312.22,125.16c1.62,4.45.93,8.86-2.68,13.08-.64.75-1.14,1.64-1.15,2.7"/>
  <path class="cls-1" d="M367.45,168.22c-1.42.74-1.7,2.27-1.31,3.39,2.9,8.32-1.05,9.51-6.35,4.96-.98-.84-2.62-.25-3.83.44"/>
  <path class="cls-1" d="M169.43,308.38c1.51,4.37,5.25,15.39,6.67,19.74,1.63,4.96,5.46,8.67,6.71,13.69,2.51,1.59,2.76,4.86,5.28,6.71,1.84,1.35,3.72,3.16,5.11,5.22.43.65.92,1.21.88,2.04"/>
  <path class="cls-1" d="M378.5,196.4c-2.19,1.05-2.03,4.11-4.31,4.98-1.62.62-5.57-1.16-6.96.2"/>
  <path class="cls-1" d="M176.35,226.46c-2.22-2.4-4.54-4.11-6.15-5.27-.57-.41-1.05-.09-1.59,0-1.04.15-2.1.54-3.15.02"/>
  <path class="cls-1" d="M337.24,133.05c.7,1.27,2.15,1.63,3.11,2.52,3.78,3.5,7.97,6.59,11.09,10.77,1,1.35,1.82,2.71.8,4.69"/>
  <path class="cls-1" d="M166.81,298.07c-4.21-1.91-8.3-.57-12.39.48-.6.15-1.16.47-1.81.42"/>
  <path class="cls-1" d="M239.76,374.83c.29,1.62-3.62,5.26-2.89,6.88.69,1.52,3.09,2.05,3.48,9.54"/>
  <path class="cls-1" d="M352.12,151.31c-1.42,1.48-1.57,3.59-2.81,5.27-1.64,2.21-3.43,3.08-5.98,2.83-.55-.05-.86.43-1.35.46"/>
  <path class="cls-1" d="M352.8,208.57c-.16,1.95.86,3.69,1.02,5.63.09,1.1.26,2.25.34,3.39"/>
  <path class="cls-1" d="M160.27,246.67c3.07-.93,6.2.69,8.79,1.8"/>
  <path class="cls-1" d="M183.94,186.93c3.39,1.4,6.35,3.72,9.92,4.73"/>
  <path class="cls-1" d="M387.52,213.08c.62,2.83.42,5.7.45,8.57"/>
  <path class="cls-1" d="M355.5,225.71c-.14,2.86.19,5.71.23,8.57"/>
  <path class="cls-1" d="M158.69,239.23c.77-.04,1.55.25,2.27-.43,1-.94,2.09-.71,3.38-.31,2.31.71,4.62,1.48,6.97,2.09"/>
  <path class="cls-1" d="M381.97,259.52c-2.62,4.22-12.2.58-12.77-3.17"/>
  <path class="cls-1" d="M292.38,122.91c-.02.61.23,1.41-.25,1.77-1.59,1.2-1.42,2.86-1.59,4.54-.19,1.87-.48,3.73-1.49,5.44-.69,1.17-.95,2.6-.72,4.03"/>
  <path class="cls-1" d="M174.33,140.3c1.55,6.3-6.74,9.88-10.23,10.75"/>
  <path class="cls-1" d="M179.65,335.85c-5.01,2.33-11.8,8.86-11.94,12.27"/>
  <path class="cls-1" d="M380.97,200.95c-3.11-2.38-9.3,2.08-12.17,5.82"/>
  <path class="cls-1" d="M402.4,242.84c-2.31.16-4.39,1.48-6.76,1.35"/>
  <path class="cls-1" d="M195.95,170.58c3.77-.22,8.01,2.86,8.28,6.43.08,1.08.58,2.08.68,3.16"/>
  <path class="cls-1" d="M165.23,274.63c-3.57-1.79-10.19-1.59-13.83-.26"/>
  <path class="cls-1" d="M383.82,223.56c-3.07-.25-2.63,5.48-5.66,5.67-1.63.1-5.31-4.36-6.87-4.87"/>
  <path class="cls-1" d="M300.99,359.2c-1.18,1.47.04,4.75.68,5.81.49.81,1.25,1.42,1.09,2.51-.08.57-.15,1.05-.91.79"/>
  <path class="cls-1" d="M349.96,328.16c-.46-4.47-5.8-7.19-8.17-6.41"/>
  <path class="cls-1" d="M358.66,155.14c-1.84.73-6.24.62-8.23,1.07-1.79.4-2.72,7.78-3.73,9.44"/>
  <path class="cls-1" d="M365.42,152.66c2.07,1.33,3.05,3.57,4.51,5.41"/>
  <path class="cls-1" d="M169.29,213.31c.38,0,.85-.15,1.11.02,3.09,2.09,6.57,2.48,10.16,2.46"/>
  <path class="cls-1" d="M365.2,274.63c-1.44,2.86-2.99,5.67-2.93,9.02"/>
  <path class="cls-1" d="M372.86,179.49c-.7-.05-4-.91-6.71.23-2.68,1.13-3.08,3.8-5,5.76"/>
  <path class="cls-1" d="M353.12,303.26c1.83,4.56,5.24,7.97,9.22,6.73"/>
  <path class="cls-1" d="M321.24,344.97c1.04,2.12,2.48,4.79.39,8"/>
  <path class="cls-1" d="M283.81,368.37c-.45,4.73,1.75,10.67,3.38,13.56"/>
  <path class="cls-1" d="M186.24,346.43c-4.2,3.4-1.12,4.59-2.19,8.23-.53,1.78-2.52,4.66-10.25,2.5"/>
  <path class="cls-1" d="M157.64,322.76c1.66-.55,2.73-2.8,4.62-3.41,2.56-.82,4.65-.6,6.78-.17,1,.2,2.83.12,3.81.27"/>
  <path class="cls-1" d="M272.32,124.94c-2.91,3.49-2.02,7.84,2.11,15.67"/>
  <path class="cls-1" d="M293.34,363.35c1.97-.82,5.57,1.34,6.68,2.83.45.6.99,1.13,1.38,1.79"/>
  <path class="cls-1" d="M257.89,389.38c1.29.84,2.71.95,4.04.31,1.7-.82,3.56.48,5.2-.53"/>
  <path class="cls-1" d="M369.99,245.75c1.73,3.44,13.34,4.19,13.96,1.12"/>
  <path class="cls-1" d="M218.24,370.15c-.93.99,2.08,7.02,1.84,8.15-.71,3.44-5.26,1.21-5.89,8.58"/>
  <path class="cls-1" d="M344.46,139.81c-1.88.2-3.56,1.4-5.65.73-1.93-.62-4.11.21-5.12,2.96-.2.56-1.48,8.08-1.38,8.7"/>
  <path class="cls-1" d="M334.31,132.38c-.85,1.51-.91,3.15-.43,4.73,1.14,3.73-1.53,9.55-5,10.56-.87.25-1.57.64-2.24,1.17"/>
  <path class="cls-1" d="M224.15,146.61c-.79.24-4.34,8.09-2.04,8.57,1.83.38,6.96,1.68,7.94,3.23"/>
  <path class="cls-1" d="M255.63,375.85c.44,1.79-.94,3.67,2.72,5.44"/>
  <path class="cls-1" d="M160.27,234.26c.87,1.09,2.49,2.34,3.16,3.62"/>
  <path class="cls-1" d="M371.28,231.34c1.53-.27,3.04-.44,4.54-1.06,2.13-.88,5.65-1.09,6.71,1.19.27.59,2.13,4.51,2.37,5.11"/>
  <path class="cls-1" d="M128.94,271.25c-1.17-.19-2.17.35-4.51.68"/>
  <path class="cls-1" d="M160.27,246.67c-1.06.68-2.15,1.11-3.38.45"/>
  <path class="cls-1" d="M176.28,196.85c1.64.36,3.34,0,4.95.27,3.56.6,5.46,1.54,4.97,5.15-.1.76.15,1.45.67,2.03"/>
  <path class="cls-1" d="M346.71,94.05c-3.53.93-6.03,3.1-7.18,6.55-.84,2.53-.47,4.98,1.54,6.98,1.96,1.96,4.19,2.07,6.78,1.39,3.65-.96,5.81-3.27,6.48-6.81.84-4.42-2.39-8.77-7.4-8.11"/>
  <path class="cls-1" d="M381.04,264.33c-1.7-2.46-12.53-3.98-13.67-1.31"/>
  <path class="cls-1" d="M369.74,250.91c1.8-3.23,13.18-1.78,13.72,1.72"/>
  <path class="cls-1" d="M177.82,193.81c3.56-.6,3.76,3.37,12.32,5.48"/>
</svg>