<?xml version="1.0" encoding="UTF-8"?>
<svg id="icons" xmlns="http://www.w3.org/2000/svg" viewBox="0 0 500 500">
  <defs>
    <style>
      .cls-1 {
        fill: none;
        stroke: #000;
        stroke-linecap: round;
        stroke-linejoin: round;
        stroke-width: .89px;
      }
    </style>
  </defs>
  <path class="cls-1" d="M405.45,251.34c-.62,1.12.04,2.24.04,3.35-.05,50.17,0,100.34-.09,150.51-.01,5.79-1.36,11.35-5.76,15.66-2.06,2.02-4.5,3.01-7.38,3.4-5.96.81-11.95,1.37-17.91,2.07-4.89.57-9.82,1.09-14.74,1.56-4.63.44-9.27.88-13.89,1.6-2.94.46-5.96.58-8.93.98-3.5.48-7.02.82-10.52,1.25-3.4.42-6.85.66-10.27,1.01-3.73.38-7.47.79-11.19,1.24-3.26.39-6.57.54-9.83,1-5.2.74-10.46.9-15.67,1.68-2.87.43-5.8.67-8.71.95-3.51.34-7.01.77-10.51,1.14-3.58.38-7.16.76-10.73,1.15-4.25.47-8.52.9-12.75,1.52-1.93.28-3.87.49-5.82.65-3.89.32-7.76.88-11.64,1.28-2.98.3-5.97.55-8.94.98-4.76.68-9.56,1.09-14.33,1.68-3.25.4-6.53.84-9.82,1.03-2.85.17-5.66.79-8.5,1.08-5.15.52-10.29,1.2-15.43,1.78-2.98.34-6.14-.27-8.39-1.91-2.88-2.1-5.6-4.69-6.21-8.79-.6-4.03-.82-8.04-.82-12.09,0-116.74,0-233.48.03-350.22,0-3.8.09-7.64.52-11.39.46-4.02,2.33-7.62,5.03-10.76,4.01-4.66,9.15-5.2,14.78-4.5,2.36.29,4.77.27,7.16.4,6.33.34,12.67.73,19,1.08,5.89.33,11.79.62,17.68,1.17,2.66.25,5.36.44,8.04.51,6.51.16,12.98.8,19.46,1.29,2.67.2,5.36.42,8.05.52,7.46.28,14.92.73,22.37,1.31,3.05.24,6.11.21,9.17.41,5.58.36,11.17.74,16.76,1.05,4.99.28,10,.5,14.98.9,5.96.49,11.96.46,17.9,1.21,2.51.32,5.08.34,7.6.39,4.18.07,8.35.43,12.52.64,6.86.34,13.71.96,20.57,1.35,7.23.41,14.47.84,21.7,1.24,2.25.13,4.52.27,6.7.74,4.87,1.04,7.15,4.57,8.06,9.56.31,1.7.22,3.43.22,5.14,0,47.49-.06,94.97.06,142.46.02,7.53-.07,15.06.24,22.58.1,2.32-.35,4.64.14,6.94"/>
  <path class="cls-1" d="M153.86,52.97c-.63-.42-1.21-.5-2.02-.26-6.3,1.86-12.82,2.7-19.23,4.04-6.66,1.39-13.43,2.17-20.12,3.38-1.85.34-3.66,1.17-5.58.36-2,1.58-3.88,3.24-5.55,5.05-2.32,2.5-2.85,5.87-3.39,9.12-.65,3.92-.39,7.91-.39,11.85-.1,71.27-.07,142.53-.07,213.8,0,19.08,0,38.17,0,57.25,0,5.74.23,11.48.18,17.22-.09,9.54-.33,19.09-.12,28.62.11,4.77-.2,9.57.42,14.31.79,6.08,3.18,11.04,9.58,13.23,11.52,3.94,22.8,8.52,34.21,12.78,3.09,1.15,6.28,2.1,9.21,3.7.42.23,1.17.7,1.77.04"/>
  <path class="cls-1" d="M106.89,65.95c-.79.51-1.21,1.07-1.32,2.46-.19,2.45-.33,4.9-.37,7.38-.07,4.77.11,9.55-.18,14.31-.07,1.15.12,2.24.12,3.36-.04,105.26-.04,210.52-.03,315.78,0,.82-.16,1.67.22,2.46"/>
  <path class="cls-1" d="M401.2,80.93c.02-2.73-1.3-5.01-2.73-7.12-1.42-2.1-3.92-2.29-6.21-2.47-8.04-.62-16.1-1-24.15-1.42-5.07-.26-10.13-.65-15.21-.9-4.99-.24-9.99-.61-14.98-.91-4.55-.27-9.09-.66-13.64-.87-4.77-.22-9.56-.51-14.31-.95-4.18-.39-8.38-.08-12.54-.76-4.51-.73-9.09-.68-13.63-1-6.93-.49-13.86-.95-20.8-1.29-5.52-.28-11.03-.69-16.55-.95-4.47-.21-8.95-.55-13.42-.85-6.86-.47-13.71-.95-20.57-1.35-4.99-.29-10-.54-14.98-.93-5.59-.44-11.22-.34-16.79-1.22-1.98-.31-4.01-.04-6.04-.21-4.16-.36-8.38-1.18-12.5-.6-3.28.46-6.05,2.47-7.84,5.47"/>
  <path class="cls-1" d="M152.96,88.09c0,30.27-.18,60.53.05,90.8.27,35.71.02,71.42.21,107.12.04,7.98.19,15.95.19,23.93,0,19.01-.17,38.02.06,57.03.17,14.31.05,28.63.17,42.94.02,2.01-.27,4.04.22,6.04"/>
  <path class="cls-1" d="M401.2,85.85c-.29.95-.22,1.93-.22,2.91,0,5.29,0,10.59,0,15.88,0,16.77-.15,33.55.07,50.32.09,6.78.07,13.57.1,20.35,0,1.64.06,3.28.06,4.92,0,72.76,0,145.52-.02,218.27,0,1.27.27,2.56-.21,3.8"/>
  <path class="cls-1" d="M163.7,86.3c.07,108.84.71,217.68.45,326.51"/>
  <path class="cls-1" d="M342.83,186.26c-.14-8.8.13-17.59-.19-26.39-.55-15.57-.13-31.16-.29-46.74-.04-3.82-1.07-7.29-5.11-8.95-1.23-.51-2.57-.6-3.8-.6-4.78,0-9.55-.36-14.31-.61-8.13-.43-16.28-.32-24.39-1.16-.9-.09-1.93-.14-2.9-.08-5.16.32-10.29-.35-15.43-.53-7.08-.25-14.16-.6-21.25-.88-6.56-.26-13.12-.57-19.68-.89-9.99-.5-19.98-.84-29.97-1.35-4.25-.22-8.51-.22-12.75-.57-4.61-.38-7.61,1.81-8.94,6.24-.37,1.24-.66,2.55-.63,3.8.45,18.26-.01,36.53.19,54.79.47,42.57.01,85.13.25,127.7.09,16.25.19,32.5.18,48.75,0,.52.27,1.1-.21,1.57"/>
  <path class="cls-1" d="M393.38,97.48c-.07,98.85.39,197.7.22,296.55"/>
  <path class="cls-1" d="M196.35,99.27c-2.19,1.89-2.55,4.55-2.89,7.16-.38,2.89-.24,5.81-.24,8.72,0,47.49.05,94.97-.06,142.46-.02,7.23-.13,14.46-.15,21.69-.04,15.58-.27,31.17.05,46.74.41,19.46.33,38.91.38,58.37.02,8.42,0,16.85,0,25.27"/>
  <path class="cls-1" d="M338.58,423.1c-4.51.12-8.95.84-13.43,1.26-3.86.36-7.74.71-11.62.99-4.04.29-8.06.8-12.09,1.25-3.05.34-6.11.65-9.16.97-3.88.4-7.76.88-11.64,1.27-3.49.35-7,.68-10.5.98-3.67.31-7.31.95-10.97,1.25-4.56.37-9.09.94-13.63,1.46-4.85.56-9.7,1.09-14.55,1.67-4.82.58-9.68,1-14.52,1.44-4.48.41-8.94,1.09-13.42,1.51-3.51.33-6.98.98-10.5,1.24-1.56.12-3.12.35-4.7.37"/>
  <path class="cls-1" d="M217.15,347.96c-.51.94-.2,1.94-.2,2.91-.03,8.8-.02,17.59-.02,26.63,5.45-.52,10.89-.85,16.55-1.49v-58.93c-5.44.64-10.9.5-16.28,1.08-.35.46-.27.94-.27,1.39,0,8.95,0,17.89-.01,26.84,0,.47.07.91.23,1.34"/>
  <path class="cls-1" d="M203.95,106.2c-2.32,1.82-3.33,4.3-3.57,7.16-.06.67,0,1.34,0,2.01,0,47.11,0,94.23,0,141.34,0,4.1-.36,8.2-.22,12.3.15,4.41,1.07,6.04,5.81,5.76,10.21-.59,20.44-.55,30.64-1.25,4.16-.29,8.34-.06,12.52-.24,11.93-.5,23.85-1.12,35.78-1.41,6.64-.16,13.27-.53,19.91-.85,6.33-.31,12.67-.5,19.01-.7,3.01-.09,5.03-1.66,5.11-5.8.12-6.19.03-12.37.03-18.56,0-10.29.02-20.57-.02-30.86-.01-3,.79-5.94.46-8.95"/>
  <path class="cls-1" d="M373.03,207.06c-.3,67.24.65,134.48.45,201.72"/>
  <path class="cls-1" d="M342.83,207.51v64.41c0,18.71-.24,37.43.07,56.13.3,18.19.37,36.38.36,54.57,0,2.91-.15,5.87-1.58,8.48-1.94,3.57-5.01,5.83-8.92,6.95"/>
  <path class="cls-1" d="M315.33,80.93c-10.08-.01-20.12-1.03-30.19-1.29-6.79-.18-13.56-.75-20.35-.97-8.88-.29-17.74-.87-26.62-1.28-5.14-.24-10.29-.43-15.43-.7-9.92-.52-19.84-.84-29.75-1.48-3.49-.22-6.99-.76-10.51-.54"/>
  <path class="cls-1" d="M329.19,185.15c-.47-3.06-.05-6.11-.03-9.17.07-10.14.03-20.28.03-30.41,0-8.05,0-16.1,0-24.15,0-2.89-.6-3.85-3.36-4.21-3.77-.49-7.6-.49-11.4-.67-9.24-.44-18.49-.88-27.73-1.33-5.51-.27-11.03-.47-16.55-.73-11.55-.55-23.11-.92-34.67-1.47-4.91-.23-9.83-.62-14.76-.53-6.34.11-12.66-.65-19.01-.45"/>
  <path class="cls-1" d="M334.78,110.9c-10.57-.87-21.18-.72-31.76-1.49-3.86-.28-7.75-.43-11.62-.46-8.14-.08-16.25-.7-24.37-1.05-7.6-.33-15.22-.51-22.82-1.18-3.63-.32-7.3-.37-10.95-.46-8.35-.2-16.69-.8-25.05-.96-1.33-.03-2.61.06-3.8.68"/>
  <path class="cls-1" d="M223.63,307.25c-4.86-.03-9.69.48-14.53.71-1.04.05-2.07-.04-3.14.13-3.18.5-4.9,2.2-4.9,5.43-.02,12.52-.19,25.05.05,37.57.18,9.25-.05,18.49.2,27.73.1,3.69-.11,7.46,1.52,10.97.88,1.9,2.12,3.44,3.8,4.71,1.69,1.29,3.34,1.5,5.16.42"/>
  <path class="cls-1" d="M210.66,311.5c.4.85.46,1.75.46,2.68-.01,22.74,0,45.47,0,68.21,0,3.13,0,6.26,0,9.39,0,3.13,1.63,4.56,4.69,4.01,3.19-.57,6.43-.52,9.61-.93,3.43-.44,6.94-.25,10.3-1.29,2.45-.76,3.1-.71,3.12-4.03.04-8.87.01-17.74.01-26.61,0-16.25,0-32.5,0-48.75,0-3.03-.99-4.15-4.02-4-7.98.39-15.96.51-23.93,1.03-1.39.09-2.83.09-4.25.06"/>
  <path class="cls-1" d="M335.45,207.73c-.54.89.03,1.79,0,2.68-.03,1.34,0,2.68,0,4.03-.15,18.34.36,36.68.23,55.02-.03,3.8-1.57,6.39-4.48,7.37-1.15.39-2.39.4-3.58.43-9.25.23-18.49.64-27.73.94-9.54.32-19.09.73-28.62,1.16-7.83.36-15.65.75-23.49,1.04-9.99.36-19.98.74-29.96,1.18-7.38.33-14.76.66-22.14.6-.77,0-1.48.26-2.24.25"/>
  <path class="cls-1" d="M265.08,310.84c-4.32.34-8.97-.5-13.27.03-2.68.33-5.38.21-8.07.46-2.03.19-1.77,1-1.77,2.18,0,8.95.09,17.89-.03,26.84-.18,13.05-.2,26.09-.2,39.14,0,3.73.42,7.45.19,11.18-.11,1.9.98,2.38,2.48,2.45,2.4.1,4.82-.22,7.14-.57,2.62-.39,5.25-.13,7.87-.67,2.76-.57,5.63-.8,8.48-1.01.4-.03.67-.55,1.12-.65"/>
  <path class="cls-1" d="M301.68,387.76c-2.7.17-5.38.45-8.05.89-3.85.64-7.77.67-11.65,1.22-2.47.35-5.04.66-7.59.56-.87-.04-1.58-.13-2.51.38-1.56.85-2.76-.28-2.64-2.15.03-.52,0-1.04,0-1.57,0-23.11,0-46.22,0-69.33,0-2.17-.14-4.33-.45-6.49-.13-.92-.43-1.48-1.56-1.6-8.66-.85-17.3.09-25.95.26-.08,0-6.14.14-6.22.21"/>
  <path class="cls-1" d="M329.64,304.57c-.77-.96-1.85-.95-2.91-.89-8.86.54-17.75.48-26.62,1.07-1.93.13-3.87.27-5.81.28-13.35.09-26.69.6-40.03.96-9.91.26-19.83.67-29.75.82"/>
  <path class="cls-1" d="M373.03,72.88c0,21.02.06,42.04-.02,63.07-.06,15.13.39,30.26.24,45.4,0,.82.16,1.67-.22,2.46"/>
  <path class="cls-1" d="M328.07,384.63c.55-1.29.69-2.62.69-4.03-.02-23.63,0-47.26-.04-70.89,0-1.26.6-2.85-.28-3.72-.88-.86-2.46-.32-3.72-.28-7.91.25-15.81.58-23.71.99-2.89.15-5.82.29-8.72.26-8.36-.07-16.69.51-25.05.6-9.99.1-19.97.68-29.97.87-6.78.13-13.56.62-20.35.89-4.33.17-8.71-.04-12.97,1.06"/>
  <path class="cls-1" d="M298.33,387.54c.94-1.78.54-3.75.6-5.59.22-7.08.26-14.16.15-21.24-.25-16.17-.12-32.35-.05-48.53.01-3.13-.71-3.86-3.84-3.84-6.12.03-12.21.65-18.34.57-1.99-.02-4.03.02-6.04.11-.78.04-1.43.2-2.01.7"/>
  <path class="cls-1" d="M318.67,205.92c-.32,6.31-.37,4.68-3.1,10.44-2.8,5.89-7.99,10.54-13.43,13.98-13.38,8.46-32.23,8.04-44.48-2.42-2.88-2.46-5.26-5.45-7.09-8.75-2.23-4.04-3.29-8.44-4.8-12.77"/>
  <path class="cls-1" d="M300.12,154.28c6.93,4.7,12.75,10.51,15.88,18.56,2.24,6.26,3.05,6.42,2.64,13.28"/>
  <path class="cls-1" d="M342.16,279.97c-1.72.83-2.16,3.07-4.23,3.65-1.12.31-2.22.78-3.37.8-7.02.12-14.01.69-21.02.93-9.99.34-19.98.8-29.97,1.15-10.29.36-20.57,1.01-30.86,1.36-9.99.34-19.98.93-29.97,1.34-4.17.17-8.36.3-12.53.6-1.06.08-2.02.78-3.13.47"/>
  <path class="cls-1" d="M295.2,314.41c0,19.08,0,38.17-.03,57.25,0,.81.74,2.22-1.31,2.26,0-1.36,0-2.71,0-4.05,0-7.83.01-15.65-.03-23.48"/>
  <path class="cls-1" d="M235.49,145.34c-1.79,2.71-4.12,5.04-5.19,8.26-.78,2.36-1.54,4.7-1.49,7.17.19,10.15-.39,20.28-.57,30.41-.25,14.02.41,28.03.14,42.05-.05,2.47.44,4.99,1.12,7.37,1.21,4.25,4.72,5.8,8.68,6.48,2.95.5,5.95.5,8.94.48,6.56-.04,13.12,0,19.68-.02.83,0,1.74.25,2.46-.44"/>
  <path class="cls-1" d="M330.98,303.67c.97.2.66.98.66,1.57.01,25.79,0,51.59.02,77.38,0,.41-.15.75-.24,1.12"/>
  <path class="cls-1" d="M302.13,308.37c0,2.68,0,5.37,0,8.05,0,20.5-.06,41,.07,61.5.02,3.12-.13,6.28.38,9.39"/>
  <path class="cls-1" d="M273.51,309.27c-.38.79-.22,1.64-.22,2.46,0,24.63,0,49.17-.02,73.8,0,.74.27,1.53-.21,2.24"/>
  <path class="cls-1" d="M335.01,104.41c.3,26.91.4,53.82.45,80.73"/>
  <path class="cls-1" d="M263.44,375.24c-3.83-.05-11.63.09-15.65.5v-58.79"/>
  <path class="cls-1" d="M293.86,344.6v-29.8c-5.01-.08-9.75.73-14.41.48-.44.82-.35,1.44-.35,2.04,0,18.19,0,36.38.02,54.57,0,.52-.4,1.24.43,1.57"/>
  <path class="cls-1" d="M323.38,369.87v-56.71c-4.71-.49-9.39.7-14.54.26v26.03"/>
  <path class="cls-1" d="M209.77,313.07v70.67"/>
  <path class="cls-1" d="M324.72,207.96c-1.13,5.24-2.54,10.37-4.91,15.21-3.44,7.04-8.74,12.33-15.22,16.54-4.48,2.91-9.48,4.74-14.55,6.21-5.01,1.45-10.26,1.1-15.41.86-1.67-.08-3.28.33-4.92.09"/>
  <path class="cls-1" d="M267.91,143.32c-.77,1.43-2.37.83-3.38.97-3.84.53-6.99,2.47-10.26,4.19-8.36,4.4-14.34,11.1-18.07,19.69-2.35,5.39-3.95,11.03-4.6,16.97-.76,6.97-.78,13.89.11,20.8,1.45,11.28,5.45,21.52,13.87,29.48,5.63,5.32,12.38,8.72,20.08,10.16,1.19.22,2.54.24,3.59,1.06"/>
  <path class="cls-1" d="M264.78,315.75v60.38"/>
  <path class="cls-1" d="M234.82,317.09c0,19.38,0,38.76-.02,58.15,0,.74.27,1.53-.21,2.24"/>
  <path class="cls-1" d="M324.72,312.17v58.59"/>
  <path class="cls-1" d="M181.59,293.83c.97.76.4,1.82.4,2.68.12,12,.01,24,.18,36.01.06,4.3.77,8.49.99,12.75.1,1.88-.24,3.72-.24,5.59,0,11.33,0,22.66,0,33.99,0,4.99-.01,9.99,0,14.98.02,6.86,5.28,10.68,10.95,11.41,2.3.3,4.62.21,6.93.22"/>
  <path class="cls-1" d="M267.91,142.88c-2.54-1-5.23-.43-7.83-.59-4.98-.3-9.99.02-14.98-.3-2.83-.18-5.33.79-7.85,1.97-2.88,1.35-5.52,2.93-7.83,5.16-3.79,3.66-5.96,8.07-6.94,13.21-.86,4.53-.63,9.09-.64,13.65-.03,15.13.03,30.27-.04,45.4-.02,4.11-.44,8.22.45,12.31.58,2.67,1.63,4.97,3.81,6.72,1.15.93,2.07,2.12,2.92,3.33"/>
  <path class="cls-1" d="M289.38,147.13c-2.71-.21-5.31-1.07-8.05-1.13-8.12-.21-15.42,2.14-21.91,6.96-6.13,4.56-10.39,10.6-13.67,17.42-2.17,4.51-3.36,9.32-4.68,14.1"/>
  <path class="cls-1" d="M155.65,51.18c-1.86-1.15-3.82-.23-5.57.09-5.23.97-10.43,2.1-15.67,3.03-7.16,1.27-14.31,2.57-21.47,3.81"/>
  <path class="cls-1" d="M368.67,205.92c9.9.51,8.43-3.52,8.63-6.01.3-3.86.7-6.48-.93-10.13-.9-2.01-2.55-2.75-4.9-2.73-6.71.04-13.42-.37-20.13-.22-1.73.04-4.54-.15-6.26-.2"/>
  <path class="cls-1" d="M292.46,405.73c-4.36.02-8.68.6-13.01.84-3.14.17-6.27.51-9.41.68-4.04.22-8.08.5-12.12.84-2.51.21-5.06.7-7.61.29"/>
  <path class="cls-1" d="M268.36,143.1c3.5-.47,7.01-.09,10.51.02,3.81.12,7.77-.12,11.37.79,7.2,1.82,14.29,4.24,19.94,9.47,7.94,7.35,12.8,16.35,14.59,27.05.26,1.57.71,3.09.62,4.7"/>
  <path class="cls-1" d="M263.44,375.24v-58.94c-5.06.3-9.91.61-14.76.79"/>
  <path class="cls-1" d="M241.52,184.25c2.57.66,5.22.66,7.83.63,12.46-.12,24.89.77,37.35.79,6.78.01,13.56.38,20.35.37,12.08-.03,24.15.37,36.23.56,8.12.12,16.24.25,24.38.43"/>
  <path class="cls-1" d="M331.69,384.97c.57,2.35-10.98,1.51-16.59,1.72-4.33.16-8.6,1.2-13.2,1.05"/>
  <path class="cls-1" d="M368.87,206.01c-11.33.23-26.56.02-37.89-.12-4.02-.05-8.05-.14-12.08-.18"/>
  <path class="cls-1" d="M308.62,340.35c.36.72.22,1.49.22,2.24,0,6.26-.03,12.52.02,18.79.02,2.83.52,5.67-.01,8.5"/>
  <path class="cls-1" d="M325.5,144.25c-9.85.16-23.15-.35-32.98-.93-.52-.03-.96.12-1.34.45"/>
  <path class="cls-1" d="M241.52,206.91c1.7,10.88,6.8,19.65,16.08,25.81"/>
  <path class="cls-1" d="M236.16,311.73c-8.29-.21-16.54.93-24.82.89"/>
  <path class="cls-1" d="M328.3,307.25c-3.74-.35-7.46.17-11.18.28-4.92.16-9.85.27-14.76.59-.74.05-1.51-.22-1.79-1.09"/>
  <path class="cls-1" d="M182.04,269.23c0,6.04-.04,12.08.04,18.11.02,1.27-.65,2.54-.04,3.8"/>
  <path class="cls-1" d="M318.01,205.94c-11.7.05-23.41-.38-35.11-.22-.3,0-.61.06-.89,0-1.08-.26-2.1,1.11-3.11.21-.81-.72-.62-1.94-.85-2.9-1.38-5.67-1.59-11.32,1.05-16.76.06-.12,0-.29,0-.44"/>
  <path class="cls-1" d="M325.4,206.3v40.9"/>
  <path class="cls-1" d="M325.5,144.04v41.64"/>
  <path class="cls-1" d="M278.43,205.72c-3.43.07-6.86.24-10.29.23-3.35-.02-6.71,0-10.06,0-4.47.01-12.23.05-16.7.36"/>
  <path class="cls-1" d="M318.46,81.38c1.42-.23,1.11.8,1.11,1.57,0,6.19,0,12.37,0,18.56"/>
  <path class="cls-1" d="M320.02,402.95c-4.05.19-8.06.93-12.08,1.25-2.37.19-4.74.72-7.15.54"/>
  <path class="cls-1" d="M370.34,419.97c-4.93.34-9.85.79-14.77,1.28-4.16.41-8.32.99-12.52.96"/>
  <path class="cls-1" d="M325.5,247.32c-6.04.02-17.33-.31-23.37,0"/>
  <path class="cls-1" d="M182.48,387.32c-2.26-.5-4.47.14-6.71.22-3.44.12-6.83.83-10.29.68"/>
  <path class="cls-1" d="M279.82,373.92h14.31"/>
  <path class="cls-1" d="M176.83,440.07c-.73,1.49-14.79,4-19.81,2.18-.41-.15-5.05-1.42-4.65-10.51"/>
  <path class="cls-1" d="M301.68,247.32c-4.7-.13-9.4.28-14.09-.22"/>
  <path class="cls-1" d="M105.1,413.93c.52,3.63-.04,7.32.62,10.97.27,1.48.57,2.68,2.05,3.36,1.15.53,2.13,1.38,3.36,1.77"/>
  <g>
    <path class="cls-1" d="M391.81,78.92c-3.62.16-6.74,4.37-6.78,7.03-.07,3.82,2.23,7.09,6.09,7.95"/>
    <path class="cls-1" d="M391.94,78.92c3.24,0,4.95,2.03,5.98,4.08,1.05,2.09.95,5.16-.06,7.11-1.25,2.42-2.9,3.79-6.6,3.79"/>
  </g>
  <g>
    <path class="cls-1" d="M165.9,65.39c-3.62.16-6.74,4.37-6.78,7.03-.07,3.82,2.23,7.09,6.09,7.95"/>
    <path class="cls-1" d="M166.03,65.39c3.24,0,4.95,2.03,5.98,4.08,1.05,2.09.95,5.16-.06,7.11-1.25,2.42-2.9,3.79-6.6,3.79"/>
  </g>
  <g>
    <path class="cls-1" d="M391.23,401.29c-3.62.16-6.74,4.37-6.78,7.03-.07,3.82,2.23,7.09,6.09,7.95"/>
    <path class="cls-1" d="M391.36,401.29c3.24,0,4.95,2.03,5.98,4.08,1.05,2.09.95,5.16-.06,7.11-1.25,2.42-2.9,3.79-6.6,3.79"/>
  </g>
  <g>
    <path class="cls-1" d="M164.17,423.43c-3.62.16-6.74,4.37-6.78,7.03-.07,3.82,2.23,7.09,6.09,7.95"/>
    <path class="cls-1" d="M164.31,423.43c3.24,0,4.95,2.03,5.98,4.08,1.05,2.09.95,5.16-.06,7.11-1.25,2.42-2.9,3.79-6.6,3.79"/>
  </g>
  <path class="cls-1" d="M322.04,368.98c-3.9-.02-7.73.95-11.63.89"/>
  <path class="cls-1" d="M240.02,409.07c-3.47-.21-6.82,1.02-10.29.89"/>
  <path class="cls-1" d="M204.4,291.15c-3.42.29-6.84.61-10.29.45"/>
  <path class="cls-1" d="M152.89,76.32v9.84"/>
  <path class="cls-1" d="M183.15,110c-6.42.01-12.84.29-19.23.89"/>
  <path class="cls-1" d="M163.47,110.9c-3.08-.25-6.1.48-9.17.45"/>
  <path class="cls-1" d="M190.98,291.6c-2.28.51-4.64.29-6.93.67"/>
  <path class="cls-1" d="M200.15,112.46c-2.13-.64-4.36.2-6.49-.45"/>
  <path class="cls-1" d="M238.62,392.68c1.08.62,2.17,1.12,3.35.22"/>
</svg>