<svg width="500" height="500" viewBox="0 0 500 500" fill="none" xmlns="http://www.w3.org/2000/svg">
<path d="M298 53.0001C196 38.6001 119.833 70.0001 94.5 87.5001C177 76.0001 215 78.0001 239 78.0001C322.235 78.0001 385 83.3334 406 87.5001C383.2 66.3001 324.5 55.6667 298 53.0001Z" fill="#FFDA00" fill-opacity="0.7"/>
<path d="M218 418.5C205.6 416.1 206.5 402.167 208.5 395.5L183.5 401C170.3 405.4 168 414.5 168.5 418.5C184.1 431.7 227.333 435.667 247 436C271.333 435.833 322.1 432.1 330.5 418.5C338.9 404.9 310.333 397.5 295 395.5V409C292.6 415.8 285.667 418.167 282.5 418.5C259.5 428.5 233.5 421.5 218 418.5Z" fill="#FFDA00" fill-opacity="0.7"/>
<path d="M409.3 176.55C402.46 181.14 394.73 183.25 386.75 184.81C380.73 185.99 374.69 186.93 368.62 187.76C363.15 188.51 357.67 188.98 352.18 189.44C346.49 189.91 340.8 190.35 335.11 190.73C330.05 191.06 324.99 191.3 319.93 191.56C307.36 192.22 294.78 192.43 282.2 192.86C264.56 193.47 246.93 193.13 229.29 193.11C222.98 193.11 216.64 192.98 210.32 192.73C201.33 192.38 192.33 192.29 183.34 191.87C176.45 191.55 169.55 191.32 162.69 190.62C156.79 190.02 150.86 189.67 144.99 188.92C139.01 188.16 133.01 187.55 127.05 186.54C120.81 185.49 114.61 184.32 108.53 182.61C104.52 181.49 100.47 180.4 96.8902 178.06C96.2102 177.61 95.6702 177.17 95.2402 176.53" stroke="#2071B5" stroke-width="4.21" stroke-linecap="round" stroke-linejoin="round"/>
<path d="M333.21 416.42C333.82 416.95 333.64 417.66 333.62 418.32C333.56 421.06 333.82 423.81 333.42 426.54C332.98 429.57 331.41 431.81 329.02 433.74C323.93 437.87 318.04 440.25 311.94 442.41C304.79 444.93 297.49 446.43 290.01 447.47C284.26 448.27 278.5 448.88 272.72 449.33C267.03 449.77 261.34 449.85 255.65 449.96C243.94 450.19 232.28 449.55 220.67 448.21C209.2 446.89 197.84 444.86 186.95 440.84C181.67 438.89 176.43 436.82 172.15 432.9C170.21 431.12 169.22 429.12 169.23 426.54C169.24 422.68 169.29 418.81 169.23 414.95C169.17 411.2 170.68 408.3 173.67 406.1C179.61 401.72 186.48 399.56 193.48 397.65C197.71 396.5 202.01 395.73 206.34 395.13C207.05 395.03 207.68 394.5 208.45 394.72" stroke="#2071B5" stroke-width="4.21" stroke-linecap="round" stroke-linejoin="round"/>
<path d="M333.21 101.3C333.21 112.54 333.25 123.78 333.19 135.02C333.15 142.12 333.46 149.21 333.48 156.31C333.48 158.9 333.77 161.5 333.87 164.11C333.93 165.63 333.41 166.51 331.94 166.85C329.79 167.36 327.64 167.87 325.41 167.9C320.89 167.96 316.38 167.95 311.92 167.07C311.12 166.91 310.38 166.62 309.62 166.38C308.47 166.02 308.03 165.18 308.11 163.88C308.93 150.4 308.94 136.91 309.03 123.41C309.08 116.45 309.34 109.5 308.98 102.54C308.9 100.98 309.71 100.14 311.3 99.9995C318.22 99.4095 325.08 100.28 331.96 100.82C336.8 101.2 341.65 101.23 346.5 100.86C347.97 100.75 349.45 100.88 350.92 100.84C357.47 100.65 364 100.18 370.53 99.6495C377.39 99.0895 384.16 97.9195 390.96 96.9895C396.02 96.2995 401.18 95.8595 405.95 93.7095C406.53 93.4495 407.07 93.1295 407.62 92.8195C410.28 91.3495 411.06 87.7595 408.08 85.4195C403.61 81.9195 398.6 79.4095 393.51 77.0195C387.39 74.1395 381.32 71.1195 374.95 68.8295C366.05 65.6295 356.93 63.1495 347.77 60.7895C339.74 58.7195 331.68 56.7595 323.52 55.3795C314.38 53.8395 305.18 52.6495 295.93 51.8695C288.62 51.2495 281.31 50.6895 274 50.3095C264.18 49.7995 254.33 49.9595 244.49 50.0695C236.4 50.1695 228.31 50.4295 220.25 51.1295C214.55 51.6195 208.85 52.0895 203.16 52.6895C196.87 53.3495 190.64 54.3495 184.42 55.3695C174.11 57.0695 163.96 59.6195 153.85 62.2595C145.73 64.3795 137.67 66.6395 129.81 69.6095C122.94 72.2095 116.22 75.1495 109.61 78.3295C105.13 80.4895 100.61 82.6395 96.7298 85.8695C96.1398 86.3595 95.3598 86.6595 95.2598 87.5595" stroke="#2071B5" stroke-width="4.21" stroke-linecap="round" stroke-linejoin="round"/>
<path d="M294.63 394.71C305.1 395.78 315.14 398.34 324.57 403.13C327.45 404.59 329.87 406.63 331.91 409.06C334.33 411.95 333.86 416.23 330.87 419.35C327.56 422.83 323.25 424.66 318.86 426.3C311.96 428.88 304.87 430.69 297.58 431.83C293.58 432.45 289.57 432.98 285.57 433.54C280.03 434.31 274.46 434.82 268.91 435.06C259.37 435.48 249.8 436.25 240.25 435.17C239.9 435.13 239.55 435.17 239.2 435.17C232.84 435.24 226.54 434.54 220.22 433.98C217.2 433.71 214.17 433.39 211.17 432.99C204.36 432.08 197.58 430.84 190.93 429.06C185.62 427.64 180.46 425.87 175.53 423.39C173.37 422.3 171.55 420.79 169.64 419.36" stroke="#2071B5" stroke-width="4.21" stroke-linecap="round" stroke-linejoin="round"/>
<path d="M328.99 303.23C331.34 303.65 332.31 305.52 332.5 307.45C332.89 311.36 333.19 315.3 333.02 319.25C332.99 320.06 332.74 320.58 332.17 321.17C327.99 325.47 322.67 327.8 317.17 329.76C312.51 331.42 307.75 332.71 302.86 333.65C298.93 334.41 295 335.07 291.05 335.74C285.87 336.61 280.64 336.79 275.44 337.3C272.45 337.59 269.4 337.71 266.38 337.76C259.22 337.88 252.05 337.85 244.88 337.79C237.85 337.73 230.82 337.31 223.81 336.86C218.18 336.5 212.55 335.69 206.93 334.93C200.17 334.02 193.45 332.95 186.94 330.99C181.02 329.21 175.08 327.22 170.68 322.42C170.62 322.35 170.41 322.42 170.27 322.42" stroke="#2071B5" stroke-width="4.21" stroke-linecap="round" stroke-linejoin="round"/>
<path d="M169.43 155.69C165.32 155.73 161.28 156.52 157.2 156.9C152.1 157.37 147.09 158.36 142.03 159.03C137.28 159.66 132.6 160.68 127.92 161.62C121.94 162.83 115.99 164.26 110.22 166.26C105.49 167.9 100.79 169.64 96.69 172.73C93.6 175.06 93.5 177.87 94.21 180.98C94.62 182.75 96.15 183.64 97.56 184.57C102.01 187.51 107.03 189.12 112.11 190.44C122.17 193.06 132.41 194.79 142.67 196.31C144.12 196.52 145.6 196.73 147.08 196.83C148.95 196.96 150.68 197.49 152.16 198.88C156.63 203.07 162.39 205.06 167.73 207.77C173.13 210.51 178.74 212.8 184.42 214.82C188.19 216.16 192.2 216.96 196.18 217.69C203.37 219.01 210.63 219.47 217.89 220.02C230.95 221.01 244.02 221.21 257.1 220.99C268.07 220.8 279.04 220.64 289.99 219.62C295.49 219.11 300.98 218.53 306.42 217.62C309.27 217.14 312.05 216.28 314.86 215.55C323.07 213.41 330.95 210.4 338.69 206.93C343.86 204.62 348.89 202.11 353.44 198.7C353.83 198.41 354.42 198.33 354.27 197.63" stroke="#2071B5" stroke-width="4.21" stroke-linecap="round" stroke-linejoin="round"/>
<path d="M169.43 155.69C165.32 155.73 161.28 156.52 157.2 156.9C152.1 157.37 147.09 158.36 142.03 159.03C137.28 159.66 132.6 160.68 127.92 161.62C121.94 162.83 115.99 164.26 110.22 166.26C105.49 167.9 100.79 169.64 96.69 172.73C93.6 175.06 93.5 177.87 94.21 180.98C94.62 182.75 96.15 183.64 97.56 184.57C102.01 187.51 107.03 189.12 112.11 190.44C122.17 193.06 132.41 194.79 142.67 196.31C144.12 196.52 145.6 196.73 147.08 196.83C148.95 196.96 150.68 197.49 152.16 198.88C156.63 203.07 162.39 205.06 167.73 207.77C173.13 210.51 178.74 212.8 184.42 214.82C188.19 216.16 192.2 216.96 196.18 217.69C203.37 219.01 210.63 219.47 217.89 220.02C230.95 221.01 244.02 221.21 257.1 220.99C268.07 220.8 279.04 220.64 289.99 219.62C295.49 219.11 300.98 218.53 306.42 217.62C309.27 217.14 312.05 216.28 314.86 215.55C323.07 213.41 330.95 210.4 338.69 206.93C343.86 204.62 348.89 202.11 353.44 198.7C353.83 198.41 354.42 198.33 354.27 197.63" stroke="black" stroke-opacity="0.2" stroke-width="4.21" stroke-linecap="round" stroke-linejoin="round"/>
<path d="M312.55 344.33C310.7 343.88 309.16 345.05 307.51 345.47C301.39 347.02 295.24 348.24 288.94 348.8C283.88 349.25 278.83 349.74 273.76 350.08C262.66 350.84 251.54 350.59 240.46 350.33C231.17 350.11 221.86 349.41 212.62 348C206.12 347.01 199.6 346.28 193.24 344.55C186.9 342.82 180.7 340.74 174.9 337.6C171.35 335.68 169.58 332.97 169.78 328.73C170.08 322.49 169.64 316.22 170.23 309.97C170.51 307.05 172.21 304.79 175.32 303.86" stroke="#2071B5" stroke-width="4.21" stroke-linecap="round" stroke-linejoin="round"/>
<path d="M189.88 344.12C191.96 348.11 194.65 351.71 197.06 355.5C200.53 360.96 204.25 366.26 208.01 371.53C208.73 372.54 209.09 373.63 209.08 374.9C209.04 381.01 209.2 387.13 209.02 393.24C208.87 398.37 209.06 403.51 208.8 408.63C208.59 412.83 210.74 415.33 214.13 417.04C218.97 419.48 224.08 421.04 229.5 421.77C233.29 422.28 237.09 422.63 240.88 423.04C247.42 423.74 253.98 423.65 260.48 423.29C268.91 422.83 277.38 422.02 285.37 418.78C288.08 417.68 290.75 416.6 292.74 414.34C293.75 413.19 294.24 411.91 294.24 410.33C294.2 397.68 294.24 385.04 294.16 372.39C294.16 371.31 294.59 370.58 295.08 369.88C298.98 364.32 303.38 359.13 307.07 353.42C309.01 350.42 311.16 347.56 312.78 344.36C313.13 343.67 313.84 343.47 314.64 343.24C319.21 341.97 323.56 340.04 327.69 337.75C330.9 335.97 332.72 333.07 332.83 329.17C332.91 326.43 333.45 323.7 333 320.95" stroke="#2071B5" stroke-width="4.21" stroke-linecap="round" stroke-linejoin="round"/>
<path d="M196.62 292.34C198.35 295.67 201.8 296.31 204.86 297.34C210.44 299.23 216.28 300 222.12 300.83C235.64 302.74 249.23 302.56 262.81 302.4C268.57 302.33 274.35 301.96 280.1 301.28C284.7 300.73 289.27 300.12 293.79 299.11C298.72 298.01 303.3 296.17 307.28 292.98C308.1 292.32 308.07 291.38 308.13 290.45C309.03 276.9 308.76 263.33 308.71 249.77C308.7 246.18 308.46 242.53 309.06 239.04C310.53 230.51 312.26 221.98 318.66 215.41C318.73 215.34 318.66 215.14 318.66 215" stroke="#2071B5" stroke-width="4.21" stroke-linecap="round" stroke-linejoin="round"/>
<path d="M332.36 310.19C326.89 315.38 319.96 317.56 312.98 319.71C308.47 321.11 303.87 322.14 299.25 322.95C295.85 323.54 292.4 324 288.95 324.38C285.3 324.79 281.62 324.97 277.97 325.51C275.69 325.85 273.32 325.87 271.02 325.91C262.52 326.07 254.02 326.75 245.52 326.39C238.92 326.11 232.29 326.11 225.71 325.51C220.58 325.05 215.44 324.52 210.31 323.96C203.75 323.24 197.33 321.96 190.93 320.49C185.38 319.22 180.01 317.38 174.9 314.82C173.21 313.97 171.78 312.79 170.48 311.44" stroke="#2071B5" stroke-width="4.21" stroke-linecap="round" stroke-linejoin="round"/>
<path d="M333.84 155.26C337.57 155.54 341.28 156.05 345.01 156.34C351.09 156.81 357.11 157.78 363.13 158.69C369.72 159.69 376.27 160.96 382.75 162.62C388.86 164.19 394.92 165.86 400.66 168.54C403.23 169.74 405.73 171.1 407.78 173.02C410.23 175.3 410.36 179.41 408.21 182.01C405.73 185 402.33 186.76 398.76 188.15C389.11 191.9 378.96 193.63 368.82 195.26C360.86 196.54 352.85 197.6 344.8 198.25C336.66 198.9 328.52 199.6 320.35 199.99C308.48 200.56 296.61 201.01 284.73 201.28C277.7 201.44 270.68 201.66 263.65 201.65C254.24 201.65 244.82 201.65 235.41 201.65C225.22 201.65 215.03 201.31 204.85 200.98C195.01 200.66 185.16 200.24 175.34 199.52C167.81 198.96 160.25 198.72 152.78 197.45C152.26 197.36 151.69 197.35 151.31 197.86" stroke="#2071B5" stroke-width="4.21" stroke-linecap="round" stroke-linejoin="round"/>
<path d="M333.84 155.26C337.57 155.54 341.28 156.05 345.01 156.34C351.09 156.81 357.11 157.78 363.13 158.69C369.72 159.69 376.27 160.96 382.75 162.62C388.86 164.19 394.92 165.86 400.66 168.54C403.23 169.74 405.73 171.1 407.78 173.02C410.23 175.3 410.36 179.41 408.21 182.01C405.73 185 402.33 186.76 398.76 188.15C389.11 191.9 378.96 193.63 368.82 195.26C360.86 196.54 352.85 197.6 344.8 198.25C336.66 198.9 328.52 199.6 320.35 199.99C308.48 200.56 296.61 201.01 284.73 201.28C277.7 201.44 270.68 201.66 263.65 201.65C254.24 201.65 244.82 201.65 235.41 201.65C225.22 201.65 215.03 201.31 204.85 200.98C195.01 200.66 185.16 200.24 175.34 199.52C167.81 198.96 160.25 198.72 152.78 197.45C152.26 197.36 151.69 197.35 151.31 197.86" stroke="black" stroke-opacity="0.2" stroke-width="4.21" stroke-linecap="round" stroke-linejoin="round"/>
<path d="M308.12 153.58C299.27 153.35 290.42 153.11 281.56 152.92C264.63 152.55 247.69 152.72 230.76 152.83C224.72 152.87 218.67 152.93 212.64 153.23C206.74 153.53 200.8 153.37 194.93 154.22" stroke="#2071B5" stroke-width="4.21" stroke-linecap="round" stroke-linejoin="round"/>
<path d="M308.34 248.01C303.66 252.4 297.74 253.71 291.69 254.76C273.58 257.9 255.31 256.53 237.1 256.89C232.93 256.97 228.79 256.67 224.67 256.35C216.81 255.72 208.95 254.82 201.48 251.99C199.87 251.38 198.4 250.43 196.84 249.69" stroke="#2071B5" stroke-width="4.21" stroke-linecap="round" stroke-linejoin="round"/>
<path d="M308.76 102.36C302.58 102.63 296.4 103.1 290.21 103.16C281.08 103.25 271.94 103.34 262.81 103.48C253.81 103.62 244.82 103.6 235.83 103.59C227.05 103.59 218.26 103.53 209.48 103.16C204.56 102.95 199.64 102.74 194.72 102.57" stroke="#2071B5" stroke-width="4.21" stroke-linecap="round" stroke-linejoin="round"/>
<path d="M195.57 286.58C196.11 287.28 195.57 287.99 195.57 288.69C195.57 295.51 195.57 302.32 195.56 309.14C195.56 310.57 196.18 311.38 197.44 312.14C201.3 314.48 205.64 315.12 209.91 315.83C217.64 317.12 225.44 317.85 233.3 318.04C235.97 318.1 238.64 318.15 241.31 318.2" stroke="#2071B5" stroke-width="4.21" stroke-linecap="round" stroke-linejoin="round"/>
<path d="M307.49 293.11C308.01 296.12 307.6 299.15 307.68 302.17C307.76 305.12 307.69 308.07 307.7 311.42C305.95 313.97 302.63 314.29 299.67 314.97C290.95 316.96 282.04 317.67 273.13 318.22C269.41 318.45 265.67 318.41 261.95 318.79C261.58 318.83 261.07 318.95 260.69 318.61" stroke="#2071B5" stroke-width="4.21" stroke-linecap="round" stroke-linejoin="round"/>
<path d="M185.24 215.55C186.2 217.65 187.94 219.19 189.3 220.99C192.77 225.61 194.15 231 195.58 236.41C196.74 240.78 196.55 245.28 196.54 249.69C196.51 260.86 196.43 272.03 196.41 283.2C196.41 284.08 196.65 285.05 195.78 285.73" stroke="#2071B5" stroke-width="4.21" stroke-linecap="round" stroke-linejoin="round"/>
<path d="M241.52 318.41C241.5 318.71 241.72 318.94 241.76 319.25C241.92 320.52 241.1 322.03 242.38 323.02C243.9 324.19 245.69 324.81 247.63 324.72C251.15 324.55 254.71 325.24 258.19 323.93C259.73 323.35 260.55 322.64 260.3 320.93C260.21 320.31 260.25 319.67 260.3 319.04C260.51 315.89 259.37 314.49 256.29 314.19C252.2 313.79 248.12 313.67 244.06 314.6C242.01 315.07 241.33 315.93 241.53 318.2" fill="#FFDA00" fill-opacity="0.7"/>
<path d="M241.52 318.41C241.5 318.71 241.72 318.94 241.76 319.25C241.92 320.52 241.1 322.03 242.38 323.02C243.9 324.19 245.69 324.81 247.63 324.72C251.15 324.55 254.71 325.24 258.19 323.93C259.73 323.35 260.55 322.64 260.3 320.93C260.21 320.31 260.25 319.67 260.3 319.04C260.51 315.89 259.37 314.49 256.29 314.19C252.2 313.79 248.12 313.67 244.06 314.6C242.01 315.07 241.33 315.93 241.53 318.2" stroke="#2071B5" stroke-width="4.21" stroke-linecap="round" stroke-linejoin="round"/>
<path d="M323.72 292.06C325.8 292.63 327.68 293.45 328.58 295.64C328.99 296.65 328.7 297.63 328.55 298.59C328.28 300.35 328.44 302.11 328.35 303.86C328.31 304.65 328.65 305.55 327.93 306.17C326.82 307.13 325.64 307.94 324.15 308.31C318.69 309.63 313.29 309.33 307.92 307.87" fill="#FFDA00" fill-opacity="0.7"/>
<path d="M323.72 292.06C325.8 292.63 327.68 293.45 328.58 295.64C328.99 296.65 328.7 297.63 328.55 298.59C328.28 300.35 328.44 302.11 328.35 303.86C328.31 304.65 328.65 305.55 327.93 306.17C326.82 307.13 325.64 307.94 324.15 308.31C318.69 309.63 313.29 309.33 307.92 307.87" stroke="#2071B5" stroke-width="4.21" stroke-linecap="round" stroke-linejoin="round"/>
<path d="M181.24 292.06C179.85 292.57 178.37 292.82 177.21 293.94C175.72 295.38 175.24 297.1 175.59 299.01C175.78 300.08 175.84 301.15 175.73 302.18C175.16 307.22 177.68 307.87 181.24 308.72C185.5 309.73 189.7 309.22 193.89 308.29C194.31 308.2 194.71 308.01 195.16 308.09" fill="#FFDA00" fill-opacity="0.7"/>
<path d="M181.24 292.06C179.85 292.57 178.37 292.82 177.21 293.94C175.72 295.38 175.24 297.1 175.59 299.01C175.78 300.08 175.84 301.15 175.73 302.18C175.16 307.22 177.68 307.87 181.24 308.72C185.5 309.73 189.7 309.22 193.89 308.29C194.31 308.2 194.71 308.01 195.16 308.09" stroke="#2071B5" stroke-width="4.21" stroke-linecap="round" stroke-linejoin="round"/>
<path d="M236.19 383.62C234.76 383.21 233.32 382.87 231.82 382.77C228.21 382.51 224.7 381.65 221.22 380.7C220.12 380.4 219 380.3 217.88 380.18" stroke="#2071B5" stroke-width="4.21" stroke-linecap="round" stroke-linejoin="round"/>
<path d="M195.15 285.73C194.97 282.64 192.63 282.15 190.3 281.98C187.55 281.77 184.79 282.07 182.31 283.44C181.14 284.08 181.28 286.45 182.52 286.98C186.05 288.48 189.65 288.67 193.26 287.21C194.02 286.9 194.69 286.33 195.58 286.37C195.58 286.33 195.59 286.29 195.58 286.27C195.52 286.16 195.44 286.06 195.37 285.95" fill="#FFDA00" fill-opacity="0.7"/>
<path d="M195.15 285.73C194.97 282.64 192.63 282.15 190.3 281.98C187.55 281.77 184.79 282.07 182.31 283.44C181.14 284.08 181.28 286.45 182.52 286.98C186.05 288.48 189.65 288.67 193.26 287.21C194.02 286.9 194.69 286.33 195.58 286.37C195.58 286.33 195.59 286.29 195.58 286.27C195.52 286.16 195.44 286.06 195.37 285.95" stroke="#2071B5" stroke-width="4.21" stroke-linecap="round" stroke-linejoin="round"/>
<path d="M182.08 287.21C181.21 289.41 181.47 291.74 181.75 293.94C181.96 295.59 183.95 295.9 185.25 295.98C188.56 296.19 191.99 296.53 194.94 294.38" fill="#FFDA00" fill-opacity="0.7"/>
<path d="M182.08 287.21C181.21 289.41 181.47 291.74 181.75 293.94C181.96 295.59 183.95 295.9 185.25 295.98C188.56 296.19 191.99 296.53 194.94 294.38" stroke="#2071B5" stroke-width="4.21" stroke-linecap="round" stroke-linejoin="round"/>
<path d="M308.97 284.05C312.77 280.98 316.97 281.79 321.2 282.78C323.84 283.4 323.27 285.83 323.38 287.43C323.51 289.27 323.73 291.2 323.38 293.12C323.16 294.33 322.92 294.9 321.64 295.26C316.94 296.58 312.43 296.57 308.14 293.95" stroke="#2071B5" stroke-width="4.21" stroke-linecap="round" stroke-linejoin="round"/>
<path d="M322.88 286.58C320.06 287.84 317.09 288.15 314.03 288.09C311.94 288.05 310.15 287.57 308.76 285.95" fill="#FFDA00" fill-opacity="0.7"/>
<path d="M322.88 286.58C320.06 287.84 317.09 288.15 314.03 288.09C311.94 288.05 310.15 287.57 308.76 285.95" stroke="#2071B5" stroke-width="4.21" stroke-linecap="round" stroke-linejoin="round"/>
<path d="M261.75 383.69C257.35 384.54 252.9 383.94 248.47 384.1C246.29 384.18 244.11 384.11 241.94 384.11" stroke="#2071B5" stroke-width="4.21" stroke-linecap="round" stroke-linejoin="round"/>
<path d="M274.36 382.31C271.66 382.29 268.98 382.52 266.35 383.15" stroke="#2071B5" stroke-width="4.21" stroke-linecap="round" stroke-linejoin="round"/>
<path d="M249.74 425.48C249.67 425.48 249.59 425.46 249.53 425.48C247.95 426 245.98 426.38 246.03 428.43C246.07 430.38 248.1 430.9 249.55 431.32C252.85 432.28 256.19 431.89 259.44 430.76C260.55 430.37 260.27 429.45 260.28 428.65C260.3 427.22 259.43 426.56 258.18 426.1C255.48 425.11 252.7 425.61 249.95 425.48" stroke="#2071B5" stroke-width="4.21" stroke-linecap="round" stroke-linejoin="round"/>
<path d="M309.13 408.84C309.06 408.84 308.98 408.82 308.92 408.84C307.34 409.36 305.37 409.74 305.42 411.79C305.46 413.74 307.49 414.26 308.94 414.68C312.24 415.64 315.58 415.25 318.83 414.12C319.94 413.73 319.66 412.81 319.67 412.01C319.69 410.58 318.82 409.92 317.57 409.46C314.87 408.47 312.09 408.97 309.34 408.84" stroke="#2071B5" stroke-width="4.21" stroke-linecap="round" stroke-linejoin="round"/>
<path d="M186.46 408.03C186.39 408.03 186.31 408.01 186.25 408.03C184.67 408.55 182.7 408.93 182.75 410.98C182.79 412.93 184.82 413.45 186.27 413.87C189.57 414.83 192.91 414.44 196.16 413.31C197.27 412.92 196.99 412 197 411.2C197.02 409.77 196.15 409.11 194.9 408.65C192.2 407.66 189.42 408.16 186.67 408.03" stroke="#2071B5" stroke-width="4.21" stroke-linecap="round" stroke-linejoin="round"/>
<path d="M409.51 88.2404C406.11 87.6904 402.8 86.7004 399.41 86.0604C395.69 85.3504 391.97 84.6404 388.23 83.9804C384.86 83.3804 381.47 82.8404 378.09 82.4404C373.41 81.8804 368.7 81.3704 363.98 81.0904C358.22 80.7504 352.47 80.2104 346.7 79.9904C343.4 79.8604 340.09 79.5304 336.79 79.4204C328.57 79.1504 320.35 79.0804 312.13 78.8704C304.89 78.6904 297.65 78.5904 290.42 78.2904C285.22 78.0704 280.01 78.3504 274.82 78.1004C263.72 77.5604 252.62 77.7004 241.52 77.7204C231.68 77.7404 221.85 78.1004 212.01 78.1804C202.81 78.2604 193.6 78.7204 184.4 79.0204C175.4 79.3104 166.4 79.6604 157.42 80.2504C151.16 80.6604 144.91 81.2904 138.65 81.8404C128.92 82.7004 119.24 83.9504 109.57 85.3204C104.77 86.0004 100.04 87.1504 95.2399 87.8404C93.9799 88.0204 93.3899 89.2104 92.9899 90.1704C92.6199 91.0504 93.4699 91.9004 94.1999 92.4404C96.1899 93.9304 98.6099 94.4804 100.94 94.9404C109.81 96.6604 118.72 98.2004 127.71 99.1304C134.14 99.8004 140.62 100.18 147.09 100.53C154.05 100.91 161 100.82 167.96 100.89C175.77 100.97 183.54 99.8904 191.36 100.04C194.38 100.1 194.33 100.04 194.32 103C194.29 113.54 194.12 124.08 194.38 134.61C194.54 141.14 194.43 147.68 194.62 154.22C194.72 157.57 194.95 160.96 194.77 164.34C194.71 165.5 194.5 166.22 193.26 166.46C186.33 167.78 179.41 168.65 172.39 167.11C170.56 166.71 169.77 165.97 169.81 163.92C169.91 158.09 170.15 152.26 170.25 146.43C170.4 137.44 170.19 128.44 170.32 119.45C170.41 113.48 170.49 107.51 170.5 101.53" stroke="#2071B5" stroke-width="4.21" stroke-linecap="round" stroke-linejoin="round"/>
<path d="M390.33 95.8198C385.7 96.0298 381.19 95.1398 376.62 94.6498C372.85 94.2398 369.04 93.9798 365.25 93.6498C359.28 93.1198 353.29 93.0598 347.32 92.5298C343.76 92.2098 340.16 92.1398 336.58 92.0598C325.69 91.8298 314.81 91.3098 303.91 91.1298C296.74 91.0098 289.58 91.1298 282.41 90.9798C269.97 90.7198 257.54 90.7198 245.1 90.7998C233.93 90.8698 222.76 91.1798 211.59 91.2598C204.64 91.3098 197.67 91.3798 190.73 91.6998C181.74 92.1198 172.73 92.1298 163.74 92.8598C160.59 93.1098 157.41 93.1498 154.26 93.2198C149.9 93.3098 145.54 93.5898 141.2 93.8398C136.49 94.1098 131.75 94.1398 127.07 94.9698C125.56 95.2398 123.94 95.3598 122.44 95.3298C119.54 95.2698 116.7 96.4098 113.8 95.6398" stroke="#2071B5" stroke-width="4.21" stroke-linecap="round" stroke-linejoin="round"/>
</svg>
