<svg width="500" height="500" viewBox="0 0 500 500" fill="none" xmlns="http://www.w3.org/2000/svg">
<path d="M210.03 428.02C214 427.04 217.84 425.76 220.86 422.82C225.43 418.37 227.12 412.77 226.93 406.57C226.73 399.76 224.31 393.67 219.91 388.55C216.31 384.36 211.7 381.33 206.17 380.46C201.24 379.68 196.55 380.89 192.65 384.23C187.75 388.43 185.76 393.92 185.63 400.25C185.52 405.62 185.98 410.84 188.79 415.61C190.88 419.16 193.82 421.79 197.11 424.24C200.96 427.11 205.2 427.96 209.8 427.91" fill="#FFDA00" fill-opacity="0.7"/>
<path d="M210.03 428.02C214 427.04 217.84 425.76 220.86 422.82C225.43 418.37 227.12 412.77 226.93 406.57C226.73 399.76 224.31 393.67 219.91 388.55C216.31 384.36 211.7 381.33 206.17 380.46C201.24 379.68 196.55 380.89 192.65 384.23C187.75 388.43 185.76 393.92 185.63 400.25C185.52 405.62 185.98 410.84 188.79 415.61C190.88 419.16 193.82 421.79 197.11 424.24C200.96 427.11 205.2 427.96 209.8 427.91" stroke="#2071B5" stroke-width="4.21" stroke-linecap="round" stroke-linejoin="round"/>
<path d="M157.5 236.5L135 273V288.5L169 291L198 248.5V242L157.5 236.5Z" fill="#FFDA00" fill-opacity="0.7"/>
<path d="M203.26 88.95C195.18 90.77 189.61 95.33 186.98 103.39C183.47 114.14 186.68 127.76 197.81 133.92C210.55 140.97 224.86 133.01 226.68 119.19C228.03 108.94 224.73 100.14 216.74 93.54C213.04 90.48 208.48 88.82 203.48 88.95" fill="#FFDA00" fill-opacity="0.7"/>
<path d="M203.26 88.95C195.18 90.77 189.61 95.33 186.98 103.39C183.47 114.14 186.68 127.76 197.81 133.92C210.55 140.97 224.86 133.01 226.68 119.19C228.03 108.94 224.73 100.14 216.74 93.54C213.04 90.48 208.48 88.82 203.48 88.95" stroke="#2071B5" stroke-width="4.21" stroke-linecap="round" stroke-linejoin="round"/>
<path d="M346.96 65.2898C344.24 63.9198 337.55 63.7698 336.22 63.6398C333.12 63.3398 330.03 62.7998 326.95 62.4198C324.1 62.0798 321.25 61.6898 318.39 61.3898C315.37 61.0698 312.36 60.5298 309.35 60.1598C306.58 59.8198 303.79 59.4698 301.01 59.1498C297 58.6898 293.03 57.9598 289.03 57.4398C286.12 57.0598 283.17 56.7498 280.24 56.4498C277.22 56.1398 274.22 55.6598 271.21 55.3298C268.19 54.9898 265.19 54.5998 262.18 54.1798C258.65 53.6898 255.1 53.2398 251.56 52.9198C247.48 52.5498 243.43 52.0398 239.38 51.4698C236.29 51.0398 233.19 50.6998 230.11 50.1998C226.15 49.5498 222.24 50.6498 218.39 51.5098C211.62 53.0198 204.85 54.5498 198.07 55.9998C188.14 58.1198 178.21 60.2598 168.28 62.3398C167.12 62.5798 165.97 62.9698 165.12 63.8998" stroke="#2071B5" stroke-width="4.21" stroke-linecap="round" stroke-linejoin="round"/>
<path d="M337.43 67.4001C340.33 63.4501 346.66 63.4101 350.24 67.9401C352.01 70.1701 352.52 72.7801 352.88 75.4201C353.16 77.4601 354.24 78.3501 356.09 78.5701C359.26 78.9501 362.43 79.6301 365.58 79.8101C370.83 80.1201 374.51 84.7001 375.54 89.8601C375.92 91.7501 375.96 93.6201 375.96 95.5101C375.96 117.93 375.96 140.36 375.96 162.78C375.96 164.15 375.75 165.49 375.53 166.85C375.09 169.48 373.25 170.64 370.98 171.32C370.46 171.48 369.93 171.64 369.41 171.8C364.92 173.12 364.63 173.43 364.68 178.14C365.18 219.75 364.76 261.36 364.9 302.98C364.9 305.09 364.56 307.18 364.66 309.3C364.74 311.03 364.35 312.85 365.97 314.2C367.24 314.03 368.68 313.79 370.1 313.39C372.82 312.62 375.17 314.22 375.5 316.98C375.57 317.57 375.51 318.18 375.51 318.78C375.51 341.58 375.54 364.38 375.49 387.18C375.48 393.92 374 398.53 365.57 400.95C362.16 401.93 358.82 403.14 355.41 404.12C353.72 404.61 352.78 405.54 352.64 407.5C352.47 409.77 352.5 412.02 352.49 414.28C352.46 421.76 350.86 423.72 343.68 425.82C332.92 428.97 322.14 432.06 311.39 435.28C296.5 439.74 281.54 443.98 266.69 448.59C266.18 448.75 265.52 448.65 265.13 448.86C261.56 450.82 257.85 449.88 254.28 449.22C246.47 447.77 238.62 446.54 230.8 445.16C223.5 443.88 216.19 442.68 208.89 441.37C202.35 440.19 195.8 439.07 189.26 437.96C182.71 436.85 176.16 435.75 169.62 434.59C165.1 433.79 160.55 433.12 156.08 432.1C150.56 430.84 146.45 427.5 146.41 419.94C146.3 400.6 146.37 381.26 146.37 361.92" stroke="#2071B5" stroke-width="4.21" stroke-linecap="round" stroke-linejoin="round"/>
<path d="M127.18 275.25C127.36 279.25 127.16 279.54 127.16 280.61C127.19 303.49 127.16 326.36 127.21 349.24C127.21 353.31 128.67 356.85 132.41 358.9C134.16 359.86 136.29 359.96 138.26 360.27C144.55 361.23 150.91 361.57 157.21 362.42C162.87 363.18 168.53 363.99 174.17 364.94C177.74 365.54 181.38 365.97 184.98 366.46C189.13 367.02 193.26 367.82 197.41 368.41C201.02 368.93 204.65 369.36 208.24 370.02C212.67 370.84 217.14 371.44 221.58 372.16C225.01 372.71 228.46 373.35 231.94 373.65C235.42 373.95 238.91 374.37 242.31 375.06C245.39 375.69 248.07 374.56 250.9 374.06C255.65 373.21 260.14 371.32 264.9 370.46" stroke="#2071B5" stroke-width="4.21" stroke-linecap="round" stroke-linejoin="round"/>
<path d="M355.18 125.75C355.66 126.46 355.39 127.26 355.39 128.01C355.41 177.37 355.41 226.73 355.41 276.1C355.41 285.81 355.6 295.52 355.36 305.22C355.06 317.64 355.31 330.05 355.19 342.47C355.19 343.3 355.03 344.15 355.41 344.95" stroke="#2071B5" stroke-width="4.21" stroke-linecap="round" stroke-linejoin="round"/>
<path d="M342.09 149.45C342.09 178.12 342.09 206.79 342.11 235.46C342.11 236.21 341.84 237.01 342.32 237.72" stroke="#2071B5" stroke-width="4.21" stroke-linecap="round" stroke-linejoin="round"/>
<path d="M250.89 160.74C249.49 161.81 247.79 161.93 246.16 162.35C243.44 163.05 240.5 162.81 238 164.54C236.11 165.86 235.32 167.82 234.96 169.78C234.64 171.52 234.36 173.33 234.36 175.18C234.43 198.88 234.4 222.59 234.4 246.29" stroke="#2071B5" stroke-width="4.21" stroke-linecap="round" stroke-linejoin="round"/>
<path d="M225.16 245.62C224.98 263.38 225.47 281.14 225.4 298.9C225.33 316.58 225.39 334.27 225.39 351.95" stroke="#2071B5" stroke-width="4.21" stroke-linecap="round" stroke-linejoin="round"/>
<path d="M146.82 144.71C146.39 142.78 146.14 140.82 146.14 138.84C146.14 119.28 146.14 99.7099 146.14 80.1499C146.14 77.0099 146.72 73.9599 148 71.1399C149.58 67.6599 152.7 66.0299 156.31 65.2499C158.55 64.7699 160.8 64.3499 163.08 64.1299C163.95 64.0499 164.84 63.9399 165.58 64.7699C166.48 65.7899 167.8 65.2999 168.94 65.4799C179.96 67.2499 191.06 68.3599 202.12 69.7699C210.84 70.8799 219.58 71.8399 228.31 72.9399C241.86 74.6399 255.39 76.4799 268.95 78.0799C269.73 78.1699 270.27 78.4799 270.75 79.0099" stroke="#2071B5" stroke-width="4.21" stroke-linecap="round" stroke-linejoin="round"/>
<path d="M277.08 165.25C277.08 188.65 276.88 212.06 277.14 235.46C277.37 256.38 277.49 277.3 277.42 298.22C277.31 332.31 277.44 366.39 277.36 400.48C277.36 401.1 276.37 402.52 278.21 402.51" stroke="#2071B5" stroke-width="4.21" stroke-linecap="round" stroke-linejoin="round"/>
<path d="M246.83 162.77C246.18 164.87 244.73 166.63 244.33 168.86C243.6 172.98 243.67 177.13 243.67 181.28C243.67 203.4 243.67 225.53 243.67 247.65" stroke="#2071B5" stroke-width="4.21" stroke-linecap="round" stroke-linejoin="round"/>
<path d="M337.12 67.1698C333.55 66.8198 330.34 68.4298 326.97 69.1098C317.07 71.0798 307.28 73.5798 297.4 75.6698C292.12 76.7898 286.8 77.8198 281.6 79.2798C279.05 79.9898 276.47 79.4998 273.91 79.8798C269.7 80.4998 265.45 81.0098 261.31 81.8998C259.52 82.2798 258.09 81.7098 256.54 81.6298C252.61 81.4198 248.7 80.7298 244.8 80.1498C241.8 79.6998 238.77 79.5398 235.77 79.0498C232.33 78.4898 228.84 78.1698 225.38 77.7598C222.23 77.3898 219.06 77.1598 215.91 76.7598C211.32 76.1798 206.72 75.5898 202.13 75.0498C197.78 74.5398 193.41 74.0398 189.05 73.5998C184.75 73.1698 180.47 72.5698 176.18 72.0198C171.29 71.3898 166.4 70.7698 161.51 70.2198C159.21 69.9598 158.16 71.5198 157.24 73.1698C155.72 75.8898 155.02 78.8498 154.97 81.9698" stroke="#2071B5" stroke-width="4.21" stroke-linecap="round" stroke-linejoin="round"/>
<path d="M276.85 366.84C272.93 367.94 268.95 368.83 265.34 369.99V448.55" stroke="#2071B5" stroke-width="4.21" stroke-linecap="round" stroke-linejoin="round"/>
<path d="M265.11 167.74C265.62 174.13 265.22 180.53 265.32 186.93C265.35 188.73 265.33 190.54 265.33 192.35C265.33 237.42 265.32 282.5 265.35 327.57C265.35 332.99 265.06 338.41 265.56 343.82" stroke="#2071B5" stroke-width="4.21" stroke-linecap="round" stroke-linejoin="round"/>
<path d="M315.68 68.41C311.89 68.18 308.15 67.6 304.38 67.13C300.4 66.64 296.41 66.23 292.42 65.71C288.05 65.14 283.69 64.44 279.32 64C274.95 63.56 270.61 62.95 266.24 62.49C262.01 62.05 257.76 61.73 253.58 60.77C252.51 60.52 251.33 60.73 250.2 60.73" stroke="#2071B5" stroke-width="4.21" stroke-linecap="round" stroke-linejoin="round"/>
<path d="M127.18 275.87V157.13C127.18 154.87 128.53 153.07 129.44 150.81C136.21 146.75 144.34 144.49 152.47 145.39C156.98 146.29 161.05 146.74 165.56 147.65C190.84 150.81 215.22 154.42 240.51 157.58C245.93 158.48 251.35 159.84 256.76 160.29C259.47 160.29 262.18 158.48 264.89 158.48" stroke="#2071B5" stroke-width="4.21" stroke-linecap="round" stroke-linejoin="round"/>
<path d="M192.65 228.24V237.5C192.65 239.76 192.2 242.01 190.84 244.27C184.52 252.4 179.1 260.07 172.78 268.2C170.07 271.81 167.36 274.97 165.56 279.04L167.51 291.48C168.93 292.73 193.76 257.34 196.49 251.05C198.83 245.64 198.06 246.31 198.06 242.14C198.06 237.09 198.49 237.62 197.84 229.38" stroke="#2071B5" stroke-width="4.21" stroke-linecap="round" stroke-linejoin="round"/>
<path d="M192.87 146.07C203.83 147.75 214.86 148.97 225.84 150.51C234.32 151.7 242.84 152.65 251.33 153.78C256.01 154.4 260.67 155.2 265.33 156.01" stroke="#2071B5" stroke-width="4.21" stroke-linecap="round" stroke-linejoin="round"/>
<path d="M138.02 161.87C146.16 163.09 154.27 164.48 162.41 165.62C168.05 166.41 173.7 167.18 179.31 168.07C192.17 170.11 205.08 171.76 217.93 173.82C219.81 174.12 221.7 174.29 223.58 174.67C224.86 174.93 225.16 175.47 225.15 176.55C225.15 176.93 225.15 177.3 225.15 177.68V244.95" stroke="#2071B5" stroke-width="4.21" stroke-linecap="round" stroke-linejoin="round"/>
<path d="M137.74 161.87C137.78 178.88 137.08 200.17 136.83 217.18C136.62 231.25 136.81 245.32 136.65 259.39C136.64 260.56 136.52 262.87 136.58 270.13" stroke="#2071B5" stroke-width="4.21" stroke-linecap="round" stroke-linejoin="round"/>
<path d="M367.37 171.12C366.99 170.32 367.15 169.47 367.15 168.64C367.15 146.29 367.15 123.94 367.14 101.59C367.14 94.29 366.92 92.9 356.11 92.27" stroke="#2071B5" stroke-width="4.21" stroke-linecap="round" stroke-linejoin="round"/>
<path d="M154.95 82.6299V139.29" stroke="#2071B5" stroke-width="4.21" stroke-linecap="round" stroke-linejoin="round"/>
<path d="M205.97 390.32C202.86 388.74 199.26 389.97 197.16 393.25C192.75 400.13 194.85 412.2 201.67 416.29C204.6 418.05 207.47 419.31 210.95 417.66C214.74 415.86 216.58 412.71 216.98 408.82C217.61 402.57 215.61 397.13 210.93 392.81C209.59 391.58 208.04 390.65 206.2 390.31" stroke="#2071B5" stroke-width="4.21" stroke-linecap="round" stroke-linejoin="round"/>
<path d="M342.09 415.38C334.3 417.84 326.48 420.17 318.63 422.44C306.56 425.93 294.58 429.76 282.5 433.23C280.92 433.68 279.36 434.19 277.76 434.57" stroke="#2071B5" stroke-width="4.21" stroke-linecap="round" stroke-linejoin="round"/>
<path d="M342.77 116.27C339.42 116.65 336.12 117.36 332.85 118.12C326.52 119.59 320.18 121.02 313.87 122.55C306.67 124.3 299.42 125.87 292.22 127.6C283.31 129.74 274.4 131.85 265.54 134.19C262.58 134.97 259.5 135.95 256.32 135.91" stroke="#2071B5" stroke-width="4.21" stroke-linecap="round" stroke-linejoin="round"/>
<path d="M331.25 151.48C313.21 155.99 295.18 160.54 277.07 164.8" stroke="#2071B5" stroke-width="4.21" stroke-linecap="round" stroke-linejoin="round"/>
<path d="M271.21 80.6001C271.31 81.6501 270.81 82.4001 270.09 83.0901C266.99 86.0301 265.62 89.7601 265.6 93.9201C265.53 107.24 265.57 120.56 265.57 133.88" stroke="#2071B5" stroke-width="4.21" stroke-linecap="round" stroke-linejoin="round"/>
<path d="M331.25 351.72C326.68 352.8 322.22 354.31 317.69 355.49C306.6 358.38 295.62 361.7 284.52 364.56C282.26 365.14 280.11 366.15 277.75 366.39" stroke="#2071B5" stroke-width="4.21" stroke-linecap="round" stroke-linejoin="round"/>
<path d="M366.92 342.24C366.92 354.35 366.8 366.47 366.97 378.58C367.05 384.32 365.51 387.43 359.01 389.38C353.76 390.95 348.5 392.5 343.25 394.05C340.09 394.98 336.83 395.69 333.73 396.98V402.52" stroke="#2071B5" stroke-width="4.21" stroke-linecap="round" stroke-linejoin="round"/>
<path d="M342.99 116.49C343.81 119.01 343.67 121.77 345.01 124.17C347.4 128.45 351.73 128.76 354.73 124.84C358.27 120.22 358.53 112.82 355.16 107.7C353.44 105.09 348.75 104.3 345.7 108.81C344.71 110.27 343.95 111.85 343.74 113.56C343.62 114.54 343.24 115.36 343 116.26" fill="#FFDA00" fill-opacity="0.7"/>
<path d="M342.99 116.49C343.81 119.01 343.67 121.77 345.01 124.17C347.4 128.45 351.73 128.76 354.73 124.84C358.27 120.22 358.53 112.82 355.16 107.7C353.44 105.09 348.75 104.3 345.7 108.81C344.71 110.27 343.95 111.85 343.74 113.56C343.62 114.54 343.24 115.36 343 116.26" stroke="#2071B5" stroke-width="4.21" stroke-linecap="round" stroke-linejoin="round"/>
<path d="M154.95 362.55C154.95 382.26 154.95 401.98 154.95 421.69C154.95 424.71 155.14 427.69 156.99 430.26C157.38 430.8 157.08 431.33 157.2 431.85" stroke="#2071B5" stroke-width="4.21" stroke-linecap="round" stroke-linejoin="round"/>
<path d="M324.03 242.23C317.17 244.28 310.18 245.82 303.24 247.57C296.71 249.22 290.18 250.86 283.62 252.37C281.57 252.84 279.51 253.26 277.53 253.97" stroke="#2071B5" stroke-width="4.21" stroke-linecap="round" stroke-linejoin="round"/>
<path d="M210.03 428.24C210.1 429.08 210.39 429.51 211.38 429.63C223.19 431.07 234.84 433.48 246.59 435.28C251.81 436.08 257.01 437.05 262.17 438.16C262.67 438.27 263.22 438.17 263.75 438.17" stroke="#2071B5" stroke-width="4.21" stroke-linecap="round" stroke-linejoin="round"/>
<path d="M204.84 98.8902C202.4 98.1602 200.59 99.4302 198.99 100.94C195.96 103.79 194.76 107.54 194.74 111.53C194.72 116.37 195.92 120.9 199.64 124.4C205.97 130.35 212.95 128.18 216.01 120.96C219.14 113.58 216.2 103.03 207.53 99.1603C206.85 98.8503 205.96 98.2102 205.07 98.8902" stroke="#2071B5" stroke-width="4.21" stroke-linecap="round" stroke-linejoin="round"/>
<path d="M331.48 118.98C331.48 142.23 331.25 165.49 331.56 188.73C331.78 205.36 331.92 221.99 331.94 238.62C331.94 239.15 331.84 239.71 332.16 240.2" stroke="#2071B5" stroke-width="4.21" stroke-linecap="round" stroke-linejoin="round"/>
<path d="M254.06 94.0601C250.98 93.5501 247.87 93.2601 244.79 92.8301C238.11 91.9001 231.39 91.2601 224.71 90.3001C220.2 89.6501 215.69 89.0301 211.17 88.4901C210.71 88.4401 210.38 88.7001 210.04 88.9401" stroke="#2071B5" stroke-width="4.21" stroke-linecap="round" stroke-linejoin="round"/>
<path d="M238.47 163.9C236.19 162.75 233.65 163.03 231.24 162.59C227.13 161.85 222.96 161.36 218.82 160.84C215.06 160.37 211.32 159.76 207.55 159.33C204.15 158.95 200.78 158.29 197.38 157.83C193.47 157.3 189.55 156.77 185.65 156.2C182.1 155.68 178.56 155 175.02 154.52C171.34 154.03 167.67 153.43 163.97 153.04C160.12 152.63 156.3 151.95 152.45 151.52C147.55 150.96 142.7 149.98 137.78 149.71C136.56 149.64 135.84 149.37 135.75 148.09" stroke="#2071B5" stroke-width="4.21" stroke-linecap="round" stroke-linejoin="round"/>
<path d="M342.09 349.01C342.09 363.23 342.09 377.45 342.09 391.68C342.09 392.51 341.93 393.36 342.31 394.16" stroke="#2071B5" stroke-width="4.21" stroke-linecap="round" stroke-linejoin="round"/>
<path d="M331.93 240.65C332.39 254.64 332.05 268.64 332.16 282.64C332.16 283.02 331.96 283.46 332.38 283.77" stroke="#2071B5" stroke-width="4.21" stroke-linecap="round" stroke-linejoin="round"/>
<path d="M342.09 238.4C342.09 251.87 342.09 265.34 342.11 278.81C342.11 279.56 341.84 280.36 342.32 281.07" stroke="#2071B5" stroke-width="4.21" stroke-linecap="round" stroke-linejoin="round"/>
<path d="M137.18 288.69C136.92 292.03 136.9 295.28 136.9 296.19C136.9 309.36 136.9 322.53 136.9 335.69" stroke="#2071B5" stroke-width="4.21" stroke-linecap="round" stroke-linejoin="round"/>
<path d="M342.09 281.74C342.09 303.19 342.09 324.63 342.11 346.08C342.11 346.83 341.84 347.63 342.32 348.34" stroke="#2071B5" stroke-width="4.21" stroke-linecap="round" stroke-linejoin="round"/>
<path d="M167.68 187.38C165.84 190.86 164.94 191.67 163.26 195.26C159.18 204.01 156.71 213.15 156.83 222.82C156.88 226.95 156.83 231.16 157.88 235.24" stroke="#2071B5" stroke-width="4.21" stroke-linecap="round" stroke-linejoin="round"/>
<path d="M259.47 82.4102C255.85 86.5602 255.76 91.5001 256.03 96.6301C256.22 100.23 256.01 103.85 255.95 107.46C255.87 111.74 256.18 116.04 256.07 120.33C255.86 128.46 255.82 136.58 255.9 144.71C255.92 147.04 255.69 149.38 256.07 151.71C256.2 152.54 256.23 153.44 255.64 154.19" stroke="#2071B5" stroke-width="4.21" stroke-linecap="round" stroke-linejoin="round"/>
<path d="M225.38 352.62C225.38 354.43 225.4 356.23 225.38 358.04C225.35 360.95 224.15 362.05 221.32 361.64C212.81 360.39 204.3 359.15 195.8 357.85C186.1 356.36 176.39 354.95 166.69 353.49C160.66 352.58 154.63 351.69 148.62 350.61C145.85 350.11 143.04 349.76 140.27 349.23C137.41 348.68 136.88 348.02 136.88 345.17V339.53" stroke="#2071B5" stroke-width="4.21" stroke-linecap="round" stroke-linejoin="round"/>
<path d="M167.51 291.47C162.73 291.75 156.98 290.51 149.59 289.88C144.85 289.48 140.25 288.32 135.24 288.39V273.04" stroke="#2071B5" stroke-width="4.21" stroke-linecap="round" stroke-linejoin="round"/>
<path d="M243.67 262.32C243.67 282.86 243.56 303.41 243.71 323.95C243.79 335.54 243.71 347.13 243.97 358.71C244.1 364.2 243.78 369.71 244.35 375.19" stroke="#2071B5" stroke-width="4.21" stroke-linecap="round" stroke-linejoin="round"/>
<path d="M160.92 180.96C160.92 177.89 160.92 177.59 160.96 175.86C160.98 175.14 160.89 174.36 160.93 173.68C165.03 173.24 169.01 174.17 173.01 174.76C177.67 175.45 182.34 176.11 187.02 176.72C193.34 177.54 199.63 178.58 205.97 179.27C207.55 179.44 209.13 179.79 210.72 179.89C212.56 180 213.4 180.88 213.42 182.64C213.45 184.45 213.42 186.25 213.42 188.06C213.42 211.76 213.42 235.47 213.42 259.17C213.42 262.26 213.42 265.34 213.42 268.43" stroke="#2071B5" stroke-width="4.21" stroke-linecap="round" stroke-linejoin="round"/>
<path d="M332.16 287.83C331.69 292.64 331.82 297.48 332 302.27C332.3 310.1 331.79 317.93 332.38 325.75" stroke="#2071B5" stroke-width="4.21" stroke-linecap="round" stroke-linejoin="round"/>
<path d="M201 88.0502C197.68 87.0702 194.22 87.2102 190.84 86.7302C179.65 85.1502 168.41 83.8902 157.2 82.4502" stroke="#2071B5" stroke-width="4.21" stroke-linecap="round" stroke-linejoin="round"/>
<path d="M234.41 246.97C234.41 268.79 234.41 290.61 234.41 312.44C234.41 318.46 233.99 324.48 234.23 330.5C234.51 337.5 234.31 344.5 234.4 351.5C234.4 352.17 234.7 352.9 234.19 353.53" stroke="#2071B5" stroke-width="4.21" stroke-linecap="round" stroke-linejoin="round"/>
<path d="M277.08 91.21C277.08 102.5 277.06 113.78 277.1 125.07C277.1 127.02 276.86 129 277.31 130.94" stroke="#2071B5" stroke-width="4.21" stroke-linecap="round" stroke-linejoin="round"/>
<path d="M313.42 331.18C309.94 331.72 306.66 333.02 303.26 333.89C293.07 336.5 282.94 339.29 272.79 342.03C264.44 344.28 256 346.25 247.72 348.77C247.24 348.92 246.67 348.79 246.15 348.79" stroke="#2071B5" stroke-width="4.21" stroke-linecap="round" stroke-linejoin="round"/>
<path d="M266.92 406.57C269.82 406.79 272.62 407.57 275.49 407.98C279.94 408.62 284.39 409.37 288.82 410.17C293.12 410.95 297.4 411.84 301.69 412.64C306.28 413.49 310.85 414.41 315.45 415.2C319.52 415.9 323.65 416.31 327.66 417.39C328.43 417.6 329.31 417.42 330.14 417.42" stroke="#2071B5" stroke-width="4.21" stroke-linecap="round" stroke-linejoin="round"/>
<path d="M155.18 420.12C159.11 420 162.86 421.13 166.69 421.71C173.63 422.75 180.51 424.11 187.45 425.12C190.41 425.55 193.34 426.23 196.26 426.88C197.38 427.13 198.56 427.37 199.64 426.67" stroke="#2071B5" stroke-width="4.21" stroke-linecap="round" stroke-linejoin="round"/>
<path d="M197.84 228.69C191.15 227.76 164.79 224.32 158.11 223.28C157.74 223.22 157.36 223.28 156.98 223.28" stroke="#2071B5" stroke-width="4.21" stroke-linecap="round" stroke-linejoin="round"/>
<path d="M206.19 194.38C206.4 199.02 204.41 203.08 202.81 207.25C200.15 214.16 197.79 221.15 197.84 228.69" stroke="#2071B5" stroke-width="4.21" stroke-linecap="round" stroke-linejoin="round"/>
<path d="M198.06 242.12C194.7 241.3 189.84 240.28 188.15 239.99C181.47 238.84 174.78 237.79 168.05 237.01C164.65 236.62 161.25 236.17 157.89 235.46" stroke="#2071B5" stroke-width="4.21" stroke-linecap="round" stroke-linejoin="round"/>
<path d="M277.08 131.85C277.08 141.78 277.08 151.72 277.08 161.65C277.08 162.63 277.01 163.62 277.3 164.58" stroke="#2071B5" stroke-width="4.21" stroke-linecap="round" stroke-linejoin="round"/>
<path d="M187.46 143.81C183.25 143.29 179.02 142.87 174.82 142.22C171.14 141.65 167.43 141.24 163.76 140.65C159.7 140 155.6 139.69 151.55 138.95C149.89 138.65 148.13 138.24 146.38 138.4" stroke="#2071B5" stroke-width="4.21" stroke-linecap="round" stroke-linejoin="round"/>
<path d="M342.54 118.07C341.94 118.56 342.09 119.24 342.09 119.88C342.09 129.29 342.09 138.69 342.09 148.1C342.09 148.35 342.04 148.62 342.32 148.78" stroke="#2071B5" stroke-width="4.21" stroke-linecap="round" stroke-linejoin="round"/>
<path d="M246.6 58.9302C243.06 59.1902 239.66 60.1902 236.22 60.9602C229.75 62.4002 223.24 63.6402 216.8 65.2402C216.52 65.3102 216.2 65.2402 215.9 65.2402" stroke="#2071B5" stroke-width="4.21" stroke-linecap="round" stroke-linejoin="round"/>
<path d="M185.65 406.57C183.02 406.55 180.67 407.72 178.19 408.35C170.68 410.26 163.28 412.52 155.84 414.69C155.63 414.75 155.39 414.69 155.17 414.69" stroke="#2071B5" stroke-width="4.21" stroke-linecap="round" stroke-linejoin="round"/>
<path d="M255.41 373.39C255.78 374.02 255.87 374.69 255.87 375.42C255.86 385.88 255.86 396.34 255.86 406.8V436.82" stroke="#2071B5" stroke-width="4.21" stroke-linecap="round" stroke-linejoin="round"/>
<path d="M190.17 135.45C184.74 134.91 179.35 134 173.92 133.38C170.46 132.98 166.99 132.57 163.53 132.07" stroke="#2071B5" stroke-width="4.21" stroke-linecap="round" stroke-linejoin="round"/>
<path d="M366.02 314.47C367.22 316.92 366.91 319.56 366.92 322.15C366.94 327.94 366.92 333.74 366.93 339.53C366.93 340.29 366.79 341.06 367.15 341.79" stroke="#2071B5" stroke-width="4.21" stroke-linecap="round" stroke-linejoin="round"/>
<path d="M205.74 390.55C202.95 393.18 201.31 396.26 201.65 400.26C201.89 403.16 202.62 405.86 204.41 408.14C206.29 410.52 208.45 412.58 211.84 412.48C212.1 412.48 212.39 412.85 212.74 412.9" stroke="#2071B5" stroke-width="4.21" stroke-linecap="round" stroke-linejoin="round"/>
<path d="M163.53 162.77C167.61 163.2 171.67 163.74 175.72 164.34C178.65 164.77 181.59 165.11 184.53 165.42C187.02 165.68 189.44 166.47 191.97 166.38" stroke="#2071B5" stroke-width="4.21" stroke-linecap="round" stroke-linejoin="round"/>
<path d="M265.34 344.49C265.34 352.17 265.34 359.84 265.34 367.52C265.34 368.28 265.2 369.05 265.56 369.78" stroke="#2071B5" stroke-width="4.21" stroke-linecap="round" stroke-linejoin="round"/>
<path d="M331.9 327.57C332.04 329.82 334.38 386.32 333.74 391.72" stroke="#2071B5" stroke-width="4.21" stroke-linecap="round" stroke-linejoin="round"/>
<path d="M342.09 77.6699C342.09 89.4099 342.09 101.15 342.09 112.89C342.09 113.73 341.83 114.65 342.53 115.37" stroke="#2071B5" stroke-width="4.21" stroke-linecap="round" stroke-linejoin="round"/>
<path d="M157.88 235.23C158.37 236.39 135.7 270.91 135.36 272.26C135 273.71 135.36 274.65 137.32 275.05C141.74 275.94 146.18 276.5 150.65 277.01C155.47 277.56 160.26 278.35 165.1 278.79" stroke="#2071B5" stroke-width="4.21" stroke-linecap="round" stroke-linejoin="round"/>
<path d="M167.59 343.82C172.52 344.12 177.39 344.98 182.25 345.7C191.89 347.13 201.53 348.62 211.16 350.14C219.05 351.38 226.99 352.37 234.86 353.77C237.79 354.29 240.71 354.81 243.67 355.11" stroke="#2071B5" stroke-width="4.21" stroke-linecap="round" stroke-linejoin="round"/>
<path d="M167.68 187.38C172.26 188.23 172.87 188.51 175.05 188.88C179.98 189.73 184.97 190.31 189.93 191.04C194.37 191.7 201.74 193.8 206.19 194.37" stroke="#2071B5" stroke-width="4.21" stroke-linecap="round" stroke-linejoin="round"/>
<path d="M323.35 221.01C324.51 229.41 324.42 237.86 324.19 246.29C324.04 251.88 323.71 257.5 322.47 263C322.31 263.72 322.45 264.5 322.45 265.25" stroke="#2071B5" stroke-width="4.21" stroke-linecap="round" stroke-linejoin="round"/>
<path d="M354.96 278.35C351.85 278.59 348.92 279.65 345.94 280.41C338.17 282.38 330.42 284.42 322.69 286.52C318.46 287.67 314.17 288.6 310.03 290.07C309.7 290.19 309.28 290.09 308.91 290.09" stroke="#2071B5" stroke-width="4.21" stroke-linecap="round" stroke-linejoin="round"/>
<path d="M265.56 134.55C265.56 145.46 265.62 156.37 265.33 167.28" stroke="#2071B5" stroke-width="4.21" stroke-linecap="round" stroke-linejoin="round"/>
<path d="M213.64 284.67C214.42 291.2 213.98 297.76 214.09 304.31C214.1 304.93 213.94 305.67 215 305.44" stroke="#2071B5" stroke-width="4.21" stroke-linecap="round" stroke-linejoin="round"/>
<path d="M234.41 353.98C234.41 357.37 234.39 360.75 234.41 364.14C234.43 367.2 234.72 370.18 237.1 372.51C237.4 372.81 237.43 373.37 237.34 373.85" stroke="#2071B5" stroke-width="4.21" stroke-linecap="round" stroke-linejoin="round"/>
<path d="M304.84 84.6699C301.53 84.9999 298.38 86.0699 295.13 86.6999C291.88 87.3299 288.75 88.4899 285.42 88.7299" stroke="#2071B5" stroke-width="4.21" stroke-linecap="round" stroke-linejoin="round"/>
<path d="M342.09 395.06C342.09 403.64 342.09 412.22 342.09 420.79C342.09 422.17 342.17 423.52 342.55 424.85" stroke="#2071B5" stroke-width="4.21" stroke-linecap="round" stroke-linejoin="round"/>
<path d="M166.69 343.37C162.58 343.17 158.57 342.22 154.5 341.8C152.39 341.58 150.32 340.99 148.18 341.11" stroke="#2071B5" stroke-width="4.21" stroke-linecap="round" stroke-linejoin="round"/>
<path d="M205.98 99.1099C201.11 103.43 203.48 111.57 205.83 115.27C207.84 118.44 212.92 120.7 215.84 120.56" stroke="#2071B5" stroke-width="4.21" stroke-linecap="round" stroke-linejoin="round"/>
<path d="M219.96 137C222.3 137.79 224.77 137.84 227.19 138.1C232.08 138.61 236.93 139.56 241.86 139.71" stroke="#2071B5" stroke-width="4.21" stroke-linecap="round" stroke-linejoin="round"/>
<path d="M331.03 78.7998C327.8 79.1698 324.73 80.2398 321.55 80.8198C317.79 81.5098 314.16 82.9298 310.27 82.8698" stroke="#2071B5" stroke-width="4.21" stroke-linecap="round" stroke-linejoin="round"/>
<path d="M263.31 361.42C258 362.54 252.77 363.97 247.52 365.3C246.89 365.46 246.3 365.36 245.7 365.48" stroke="#2071B5" stroke-width="4.21" stroke-linecap="round" stroke-linejoin="round"/>
<path d="M214.09 314.7V332.31" stroke="#2071B5" stroke-width="4.21" stroke-linecap="round" stroke-linejoin="round"/>
<path d="M294.91 294.15C290.41 294.94 286.05 296.33 281.61 297.38C280.34 297.68 278.99 297.9 277.76 298.44" stroke="#2071B5" stroke-width="4.21" stroke-linecap="round" stroke-linejoin="round"/>
<path d="M194 271.81C199.98 272.88 206 273.46 212.05 273.92C215.14 274.15 218.27 274.48 221.31 275.2" stroke="#2071B5" stroke-width="4.21" stroke-linecap="round" stroke-linejoin="round"/>
<path d="M277.3 402.74C277.3 415.83 277.3 428.93 277.3 442.02C277.3 442.78 277.16 443.55 277.52 444.28" stroke="#2071B5" stroke-width="4.21" stroke-linecap="round" stroke-linejoin="round"/>
<path d="M207.32 392.58C207.17 396.7 207.93 400.45 211.13 403.44C212.78 404.98 214.5 405.95 216.8 405.67" stroke="#2071B5" stroke-width="4.21" stroke-linecap="round" stroke-linejoin="round"/>
<path d="M352.88 75.4199C353.33 76.9299 355.39 81.5699 355.4 82.6399C355.42 90.3899 355.41 98.1399 355.42 105.89C355.42 106.04 355.42 106.19 355.18 106.34" stroke="#2071B5" stroke-width="4.21" stroke-linecap="round" stroke-linejoin="round"/>
<path d="M196.49 268.19C198.32 269.23 200.4 268.96 202.37 269.27C204.32 269.58 206.34 270.12 208.23 270.1C213.5 270.05 218.57 271.66 223.81 271.58C224.08 271.58 224.27 271.44 224.49 271.35" stroke="#2071B5" stroke-width="4.21" stroke-linecap="round" stroke-linejoin="round"/>
<path d="M355.18 345.4C355.29 349.76 354.92 354.14 355.42 358.49C355.46 358.86 355.16 359.07 355.18 359.39" stroke="#2071B5" stroke-width="4.21" stroke-linecap="round" stroke-linejoin="round"/>
<path d="M355.18 377.23C355.72 382.49 355.22 387.77 355.41 393.03C355.54 396.64 355.11 400.26 355.63 403.87" stroke="#2071B5" stroke-width="4.21" stroke-linecap="round" stroke-linejoin="round"/>
<path d="M375.27 340.2C372.07 340.22 369.04 341.29 366.04 342.1C358.28 344.18 350.6 346.52 342.77 348.34C341.56 348.62 340.49 349.47 339.16 349.24" stroke="#2071B5" stroke-width="4.21" stroke-linecap="round" stroke-linejoin="round"/>
<path d="M355.18 145.62C351.53 146.67 347.78 147.35 344.13 148.36C340.01 149.5 335.79 150.22 331.71 151.49" stroke="#2071B5" stroke-width="4.21" stroke-linecap="round" stroke-linejoin="round"/>
<path d="M355.18 234.56C351.68 235.61 348.1 236.35 344.57 237.26C337.89 238.98 331.17 240.54 324.48 242.23" stroke="#2071B5" stroke-width="4.21" stroke-linecap="round" stroke-linejoin="round"/>
<path d="M231.7 55.7699C228.54 55.3699 225.36 55.1099 222.23 54.5899C221.15 54.4099 220.11 54.5399 219.06 54.4199" stroke="#2071B5" stroke-width="4.21" stroke-linecap="round" stroke-linejoin="round"/>
<path d="M256.08 437.27C255.45 441.18 256.1 445.1 256.08 449.01" stroke="#2071B5" stroke-width="4.21" stroke-linecap="round" stroke-linejoin="round"/>
<path d="M366.92 142.91C363.14 143.72 359.42 144.8 355.63 145.62" stroke="#2071B5" stroke-width="4.21" stroke-linecap="round" stroke-linejoin="round"/>
<path d="M277.08 253.97C273.53 254.67 270.09 255.88 266.47 256.23" stroke="#2071B5" stroke-width="4.21" stroke-linecap="round" stroke-linejoin="round"/>
<path d="M192.42 347.65C192.62 352.09 192.8 356.53 192.61 360.97C192.33 367.44 192.5 373.91 192.4 380.39C192.39 381.32 192.46 382.16 193.09 382.87" stroke="#2071B5" stroke-width="4.21" stroke-linecap="round" stroke-linejoin="round"/>
<path d="M154.95 235.01C149.84 234.3 144.72 233.52 139.59 233.05C135.53 232.68 131.53 231.61 127.41 231.85" stroke="#2071B5" stroke-width="4.21" stroke-linecap="round" stroke-linejoin="round"/>
<path d="M337.8 67.73C341.08 69.97 341.85 73.31 342.13 77.22" stroke="#2071B5" stroke-width="4.21" stroke-linecap="round" stroke-linejoin="round"/>
<path d="M154.5 152.84C154.5 155.18 154.5 157.51 154.5 159.83C148.91 159.13 143.58 158.24 138.25 157.35" stroke="#2071B5" stroke-width="4.21" stroke-linecap="round" stroke-linejoin="round"/>
<path d="M165.33 153.52V162.55" stroke="#2071B5" stroke-width="4.21" stroke-linecap="round" stroke-linejoin="round"/>
<path d="M136.44 172.93C133.41 172.72 130.43 172.06 127.41 171.8" stroke="#2071B5" stroke-width="4.21" stroke-linecap="round" stroke-linejoin="round"/>
<path d="M364.66 232.75C361.54 232.79 358.67 234.09 355.63 234.56" stroke="#2071B5" stroke-width="4.21" stroke-linecap="round" stroke-linejoin="round"/>
<path d="M214.09 305.67C214.09 308.23 214.09 310.79 214.09 313.35C214.09 313.97 213.94 314.71 214.99 314.48" stroke="#2071B5" stroke-width="4.21" stroke-linecap="round" stroke-linejoin="round"/>
<path d="M375.73 141.1C372.86 141.29 370.19 142.42 367.38 142.91" stroke="#2071B5" stroke-width="4.21" stroke-linecap="round" stroke-linejoin="round"/>
<path d="M320.64 210.18C320.92 212.35 321.78 214.37 322.27 216.49C322.42 217.12 322.32 217.71 322.44 218.31" stroke="#2071B5" stroke-width="4.21" stroke-linecap="round" stroke-linejoin="round"/>
<path d="M154.72 419.21C151.96 419.37 149.32 418.46 146.59 418.31" stroke="#2071B5" stroke-width="4.21" stroke-linecap="round" stroke-linejoin="round"/>
<path d="M147.73 151.26V158.71" stroke="#2071B5" stroke-width="4.21" stroke-linecap="round" stroke-linejoin="round"/>
<path d="M154.95 139.97C154.97 141.86 154.97 143.74 154.72 145.61" stroke="#2071B5" stroke-width="4.21" stroke-linecap="round" stroke-linejoin="round"/>
<path d="M246.15 398.9V407.93" stroke="#2071B5" stroke-width="4.21" stroke-linecap="round" stroke-linejoin="round"/>
<path d="M245.92 402.51C244.19 402.33 242.49 401.83 240.73 402.06" stroke="#2071B5" stroke-width="4.21" stroke-linecap="round" stroke-linejoin="round"/>
<path d="M276.85 435.02C275.42 434.97 274.22 436 272.79 435.92" stroke="#2071B5" stroke-width="4.21" stroke-linecap="round" stroke-linejoin="round"/>
<path d="M332.16 284.45C332.52 285.58 331.56 286.51 331.71 287.61" stroke="#2071B5" stroke-width="4.21" stroke-linecap="round" stroke-linejoin="round"/>
<path d="M255.86 154.87C255.84 156.53 256.02 158.2 255.63 159.84" stroke="#2071B5" stroke-width="4.21" stroke-linecap="round" stroke-linejoin="round"/>
<path d="M350.44 358.49C344.24 360.51 342.4 370.31 345.21 375.22C347.61 379.41 352.13 379.89 354.93 375.86C357.83 371.69 358.35 367.1 356.52 362.34C355.45 359.55 353.7 358.5 350.67 358.5" fill="#FFDA00" fill-opacity="0.7"/>
<path d="M350.44 358.49C344.24 360.51 342.4 370.31 345.21 375.22C347.61 379.41 352.13 379.89 354.93 375.86C357.83 371.69 358.35 367.1 356.52 362.34C355.45 359.55 353.7 358.5 350.67 358.5" stroke="#2071B5" stroke-width="4.21" stroke-linecap="round" stroke-linejoin="round"/>
</svg>
