<?xml version="1.0" encoding="UTF-8"?>
<svg id="icons" xmlns="http://www.w3.org/2000/svg" viewBox="0 0 500 500">
  <defs>
    <style>
      .cls-1 {
        fill: none;
        stroke: #000;
        stroke-linecap: round;
        stroke-linejoin: round;
        stroke-width: .91px;
      }
    </style>
  </defs>
  <path class="cls-1" d="M179.84,114.49c7.86.64,15.64-7.48,16.31-14.57.58-6.12-1.35-10.84-5.63-14.8-4.61-4.26-10.31-5.49-16.12-3.79-7.82,2.28-13.77,9.24-12.97,17.88.78,8.55,8.39,15.18,16.13,15.27.68,0,1.37,0,2.05,0"/>
  <path class="cls-1" d="M144.29,145.82c0-25.18-.18-50.35.11-75.53.09-7.78,4.4-13.53,11.74-16.63,3.5-1.48,7.15-1.86,10.93-1.86,53.69.04,107.39-.03,161.08.09,9.33.02,16.62,4.79,19.11,15.21.55,2.3.7,4.69.7,7.06.02,19.37.11,38.73-.06,58.1-.04,4.48.53,8.97-.16,13.44"/>
  <path class="cls-1" d="M283.27,82.82c-23.69,0-47.39.02-71.08-.01-7.14,0-14.28.29-21.42.24-.31,0-.68-.15-.91.22"/>
  <path class="cls-1" d="M163.66,124.97c3.32,1.16,6.75,1.43,10.25,1.39,10.86-.13,21.72.26,32.58.23,24.3-.07,48.6-.02,72.91-.02,7.97,0,15.95.08,23.92-.04,3.04-.04,6.07-.18,9.11-.19"/>
  <path class="cls-1" d="M333.4,70.98h-188.65"/>
  <path class="cls-1" d="M189.86,112.44h112.55"/>
  <path class="cls-1" d="M347.98,168.49v143.31c0,6.38.16,12.76-.05,19.14-.18,5.69-1.8,10.88-6.07,15.08-2.86,2.82-6.2,4.61-9.82,6.14-5.89,2.49-12,4.19-18.25,5.41-6.33,1.23-12.71,2.14-19.13,2.8-6.07.63-12.14,1.01-18.23,1.4-13.74.89-27.49.93-41.24.78-5.69-.06-11.4-.19-17.08-.48-6.76-.34-13.54-.6-20.28-1.32-12.77-1.36-25.51-3.01-37.59-7.73-6.51-2.54-11.92-6.35-14.61-13.19-1.42-3.62-1.42-7.41-1.55-11.17-.18-5.16,0-10.33-.02-15.49-.02-6.15,0-12.3,0-18.45v-40.1c0-27.8,0-55.59,0-83.39,0-.92.1-1.84-.22-2.73"/>
  <path class="cls-1" d="M144.98,138.19c45.41-.52,90.83-.08,136.24-.22.83,0,1.71-.24,2.51.22"/>
  <path class="cls-1" d="M246.36,292.66c2.63.56,5.32.27,7.98.38,5.91.24,11.85.02,17.77.29,8.36.39,16.72.71,25.07,1.51,6.81.65,13.55,1.65,20.26,2.88,5.13.94,10.19,2.3,15.03,4.31.5.21.93.07,1.61.27v9.49c0,.84-.16,1.71.03,2.5,1.29,5.54-2.28,7.85-6.41,9.8-4.96,2.35-10.18,4.04-15.51,5.15-4.26.89-8.63,1.4-12.97,1.88-4.78.53-9.58.83-14.35,1.4-.37.04-.76,0-1.14,0"/>
  <path class="cls-1" d="M295.12,389.94c2.72.64,5.15,1.82,7.3,3.63,3.45,2.9,3.45,6.53,0,9.36-4.56,3.74-9.96,5.64-15.5,7.29-7.82,2.34-15.86,3.51-23.93,4.24-8.93.81-17.92.84-26.87.45-7.01-.31-14.05-.84-20.96-2.23-8.15-1.64-16.29-3.37-23.27-8.36-1.46-1.05-2.67-2.2-3.62-3.68-1.23-1.93-1.2-3.84.24-5.46,2.5-2.82,5.58-4.64,9.33-5.25"/>
  <path class="cls-1" d="M280.31,421.38c.51,6.22.29,12.46.12,18.68-.06,2.19-1.83,3.87-3.96,5.07-3.66,2.05-7.63,2.88-11.65,3.58-6.03,1.06-12.13,1.5-18.22,1.52-5.01.02-10.04-.34-15.05-.99-4.74-.61-9.42-1.23-13.89-3.02-3.89-1.56-5.98-4.47-5.91-8.67.09-5.39-.31-10.79.21-16.18"/>
  <path class="cls-1" d="M198.97,379.92c-.34,5.08-.59,10.17-.42,15.26.08,2.4,2.13,3.38,3.84,4.56,4.88,3.37,10.52,4.61,16.18,5.66,5.86,1.08,11.8,1.55,17.76,1.97,6.02.43,12.02.46,18,.25,9.14-.31,18.25-1.25,27.12-3.76,3.56-1.01,6.88-2.39,10.04-4.32,2.26-1.37,3.26-3.11,3.2-5.74-.11-4.78-.03-9.57-.03-14.35"/>
  <path class="cls-1" d="M156.37,351.67c-.85,4.18-1.06,8.5.13,12.49,1.21,4.04,4.94,6.01,8.74,7.58,5.67,2.35,11.57,3.83,17.56,4.96,4.98.94,9.96,1.87,15.02,2.37,4.48.44,8.95.95,13.44,1.35,5.92.53,11.86.57,17.77.95,11.63.74,23.25.28,34.86.25,3.31,0,6.75.14,10.01-.44,3.13-.55,6.32.27,9.36-.81"/>
  <path class="cls-1" d="M312.89,114.49c7.73.58,15.71-6.94,16.71-13.66,1.12-7.58-1.81-14.09-8.25-17.83-6.77-3.93-15.42-2.38-20.32,2.54-4.77,4.79-6.45,10.44-4.49,16.86,2.04,6.68,6.8,10.64,13.62,12.07.8.17,1.67.02,2.5.02"/>
  <path class="cls-1" d="M333.17,62.09c.65,2.55.45,5.16.45,7.75,0,22.71,0,45.41,0,68.12"/>
  <path class="cls-1" d="M158.65,62.55c-.67,2.23-.95,4.49-.94,6.84.05,22.78.03,45.57.03,68.35"/>
  <path class="cls-1" d="M336.81,350.53c.41,4.1.5,8.23-.06,12.29-.4,2.89-2.35,5.1-4.75,6.57-4.29,2.61-8.99,4.28-13.86,5.56-5.79,1.52-11.71,2.38-17.57,3.52-1.77.34-3.65.41-5.45.77"/>
  <path class="cls-1" d="M333.4,146.16h-46.02c-46.78,0-93.56,0-140.35,0-2.51,0-5.05-.4-7.52.45-2.93,1.01-4.3,2.86-4.32,5.93-.02,2.66,0,5.32,0,7.97,0,4.92,1.96,7.1,6.84,7.51,1.51.13,3.04.01,4.56.01,66.22,0,132.45,0,198.67,0,2.29,0,4.56.31,6.85-.42,3.37-1.07,4.97-2.96,5-6.41.02-2.89-.1-5.78.03-8.66.14-2.99-2.51-6.34-6.41-6.43-5.47-.13-10.94.46-16.41-.18"/>
  <path class="cls-1" d="M326.79,185.58c-3.52-.12-6.98-.83-10.47-1.21-1.97-.22-3.98-.34-5.94-.5-6.28-.51-12.59-.89-18.9-1.03-14.81-.34-29.62-.39-44.43-.52-10.03-.09-20.05.04-30.07.16-8.73.11-17.48.28-26.2.85-5.7.38-11.41.78-17.08,1.39-4.11.44-8.19,1.29-12.31,1.76"/>
  <path class="cls-1" d="M312.21,304.51c-3.24-.23-6.36-1.2-9.57-1.6-4.85-.6-9.71-1.2-14.58-1.6-7.28-.6-14.58-1.01-21.87-1.3-6.67-.27-13.36-.06-20.05-.06"/>
  <path class="cls-1" d="M333.62,154.59h-198.21"/>
  <path class="cls-1" d="M294.66,371.49c-3.87.37-7.74.84-11.62,1.13-5.39.41-10.78.69-16.18.91-12.98.53-25.98.38-38.96.15-10.42-.19-20.85-.73-31.22-2.12-7.05-.94-14.06-1.96-20.95-3.71-1.14-.29-2.17-1.02-3.42-.92"/>
  <path class="cls-1" d="M283.27,332.53c-5.32.12-10.65.26-15.94.54-14.28.77-28.56.27-42.84.28-5.91,0-11.87-.39-17.76-.92-7.68-.69-15.4-1.22-23.03-2.57-3.82-.67-7.59-1.79-11.4-2.17-2.46-.25-4.87-.47-7.28-1.06-2.49-.61-4.83-1.63-7.67-2.34,1.01-1.1-.52-2.67,1.26-3.67.59-.33.26-1.45.26-2.22,0-19.06,0-38.12,0-57.19s0-39.79,0-59.69c0-.65.2-1.34-.46-1.82"/>
  <path class="cls-1" d="M355.04,163.25c-72.15,0-144.29,0-216.44,0-.84,0-1.7-.16-2.51.22"/>
  <path class="cls-1" d="M335.9,193.32c-4.23-.44-8.29-1.87-12.53-2.29-3.2-.31-6.38-.76-9.57-1.15-5.45-.67-10.95-.76-16.41-1.28-3.85-.37-7.75-.34-11.62-.45-20.27-.55-40.55-.72-60.83-.49-5.31.06-10.63.46-15.95.41"/>
  <path class="cls-1" d="M268.24,201.3c-.73-.37-1.52-.22-2.28-.22-7.37,0-14.73-.04-22.1,0-9.57.05-19.14-.31-28.71-.52-10.87-.24-21.74-.85-32.58-1.8-4.03-.35-8.04-1.01-12.08-1.33"/>
  <path class="cls-1" d="M187.35,399.74c-1.7.7-.86,2.32-1.06,3.43-.83,4.7,1.01,8.25,5.16,10.69,5.87,3.45,12.34,5.16,18.91,6.62,6.02,1.34,12.13,2.07,18.24,2.64,4.98.46,10,.81,15.03.56.75-.04,1.56-.28,2.28.21"/>
  <path class="cls-1" d="M333.85,187.63c.29,15.72.22,31.44.23,47.16"/>
  <path class="cls-1" d="M275.98,252.79c-.26,2.18-2.05,3.44-3.25,4.96-7.93,10.08-15.8,20.2-23.64,30.34-5.99,7.75-12.09,15.42-17.98,23.26-2.45,3.27-3.43,3.92-3.43,3.92"/>
  <path class="cls-1" d="M305.14,400.2c1.92,4.11.6,9.87-3.14,12.59-3.79,2.76-8.04,4.34-12.36,5.83-2.97,1.02-6.1,1.94-9.13,2.35-3.17.42-6.34,1.04-9.54,1.34-8.26.77-16.52,1.65-24.83,1.36"/>
  <path class="cls-1" d="M245.91,293.8c.1,5.62.2,11.23.11,16.86-.07,4.16.07,8.35.1,12.53.06,7.67.23,15.35-.06,23.01-.2,5.41.24,10.79.07,16.18"/>
  <path class="cls-1" d="M283.27,285.37c-9.79.46-19.59.6-29.39.89-.75.02-1.56.27-2.28-.21"/>
  <path class="cls-1" d="M266.68,205.22c-2.82,2.3-4.6,5.57-6.85,8.4-4.2,5.3-8.37,10.62-12.54,16.03-1.57-.64-3.11-.85-4.81-.61-1.86.26-3.79.06-5.69.06-8.74-.01-17.47.15-26.2.43-.56.02-1.05.29-1.59.25"/>
  <path class="cls-1" d="M208.77,257.8c0,44.2.01,88.4-.02,132.6,0,3.95.34,7.91-.21,11.85"/>
  <path class="cls-1" d="M283.73,301.32c-.49.47-.21,1.07-.21,1.59-.02,18.61-.02,37.21-.01,55.82,0,.69-.12,1.4.22,2.05"/>
  <path class="cls-1" d="M239.3,238.21c-2.42-.5-4.88-.36-7.29-.17-4.1.33-8.21.11-12.31.32-3.48.18-6.98.41-10.48.3"/>
  <path class="cls-1" d="M283.5,52.07c0,19.29,0,38.58,0,57.87,0,.84.16,1.7-.22,2.51"/>
  <path class="cls-1" d="M333.85,278.08c-2.8,0-5.32,1.22-7.97,1.86-7.59,1.81-15.28,2.99-23.02,3.83-5.61.61-11.23,1.07-16.86,1.35-.77.04-1.5.35-2.28.25"/>
  <path class="cls-1" d="M208.77,83.28v54.45"/>
  <path class="cls-1" d="M208.77,238.89c-9.31.02-18.56,1.03-27.8,2.05-4.44.49-8.8,1.44-13.21,2.05"/>
  <path class="cls-1" d="M325.88,242.99c-2.94-.25-5.75-1.2-8.66-1.58-6.81-.89-13.64-1.64-20.5-2.11-12.98-.88-25.96-1.22-38.96-1.3-.36,0-.58-.27-.91-.25"/>
  <path class="cls-1" d="M312.44,254.38c-3.99.79-8.03,1.16-12.07,1.63-5.54.64-11.07,1.21-16.64,1.56"/>
  <path class="cls-1" d="M208.54,293.57c-3.83.78-7.75.68-11.63,1.07-5.72.57-11.39,1.42-17.08,2.12"/>
  <path class="cls-1" d="M335.45,235.24c-3.16-.47-6.18-1.59-9.34-2.06-5-.75-10-1.49-15.03-2.08-8.79-1.03-17.63-1.11-26.43-1.78-.6-.05-1.21-.02-1.82,0-7.14.13-14.28-.4-21.42-.22-.48.01-.93-.07-1.37-.24"/>
  <path class="cls-1" d="M208.54,188.08c-7.06.42-14.14.49-21.18,1.02-2.42.18-4.9.03-7.3.58"/>
  <path class="cls-1" d="M208.54,229.78c-8.76-.08-17.49.57-26.2,1.4-7.29.69-14.55,1.67-21.66,3.56-.49.13-.76.75-1.35.51"/>
  <path class="cls-1" d="M312.21,198.79c-5.48.17-10.91,1.03-16.4,1.17-4.03.1-8.04.64-12.08.65"/>
  <path class="cls-1" d="M208.54,300.86c-9.55.91-19.09,1.85-28.48,3.87"/>
  <path class="cls-1" d="M223.58,258.26c-3.01-.63-6.09-.55-9.11-.62-10.78-.23-21.44-1.56-32.12-2.81-2.75-.32-5.4-1.33-8.2-1.36"/>
  <path class="cls-1" d="M283.5,146.16v147.41"/>
  <path class="cls-1" d="M245.68,393.59c-3.49-.69-7.01-.1-10.47.12-2.5.16-5.02.1-7.54.41-3.39.4-6.8.92-10.23,1.07"/>
  <path class="cls-1" d="M312.44,329.8c.37.73.22,1.52.22,2.28,0,7.59,0,15.19.01,22.78,0,.76-.14,1.55.22,2.28"/>
  <path class="cls-1" d="M312.66,146.39c0,44.5,0,89.01,0,133.51,0,.84-.16,1.7.22,2.51"/>
  <path class="cls-1" d="M271.65,477.43c-8.35-.15-16.71-.1-25.06-.11-8.2,0-16.4-.02-24.61.09-.78.01-1.5.35-2.28.25"/>
  <path class="cls-1" d="M246.36,450.55v26.54"/>
  <path class="cls-1" d="M179.84,203.8c-.37,7.21-.41,14.43.02,21.64.12,1.98-.69,3.95-.02,5.92"/>
  <path class="cls-1" d="M242.94,266.63c-8.12.19-16.08,1.88-24.14,2.62-.85.08-1.55.07-2.28-.28"/>
  <path class="cls-1" d="M263,485.86c-2.05-.52-4.1.04-6.15.02-7.75-.07-15.49.06-23.24-.24-.84-.03-1.69-.09-2.51.22"/>
  <path class="cls-1" d="M179.15,88.98c-5.22-.68-9.27,5.25-8.9,9.11.55,5.78,5.08,9.24,10.03,8.6,3.8-.49,8.07-3.81,7.56-10.2-.3-3.78-4.18-7.47-8.23-7.52"/>
  <path class="cls-1" d="M312.93,106.76c4.53.29,8.1-2.96,8.79-7.54.73-4.82-2.78-9.79-6.78-10.25-7.13-.82-10.21,3.02-10.85,8.22-.56,4.54,3.46,9.37,8.57,9.57"/>
  <path class="cls-1" d="M275.77,252.49c-6.36.67-18.72.41-25.08,1.21"/>
  <path class="cls-1" d="M234.06,293.11c-8.36-.25-16.7.52-25.06.46"/>
  <path class="cls-1" d="M334.08,253.24v48.98"/>
  <path class="cls-1" d="M267.55,205.17c.65,1.39-.04,2.67-.49,3.86-4.43,11.69-8.82,23.39-13.23,35.08-1.01,2.67-1.83,5.43-3.1,8.01-.19.38-.68,1.04-.04,1.57"/>
  <path class="cls-1" d="M209,200.61c-.48.72-.21,1.52-.21,2.28-.02,17.39-.01,34.78-.02,52.17,0,.76.14,1.55-.22,2.28"/>
  <path class="cls-1" d="M247.05,393.36c1.57.39,3.2.4,4.78.42,5.36.06,10.67.5,15.95,1.39.81.14,1.67.02,2.5.02"/>
  <path class="cls-1" d="M231.33,300.18c-3.34-.65-6.68.08-10.02.08-4.1,0-8.2.36-12.3.61"/>
  <path class="cls-1" d="M179.61,189.91c-7.24.38-14.42,1.21-21.39,3.27"/>
  <path class="cls-1" d="M266.18,432.55c-6.45.38-12.88,1.03-19.37.97-6.01-.05-12.01-.19-17.99-.6-1.51-.1-3.03-.35-4.56-.38"/>
  <path class="cls-1" d="M179.61,241.4c0,10.86-.14,21.72.05,32.58.12,6.99.04,13.98.04,20.96,0,7.6.47,15.19.13,22.78-.43,9.57-.07,19.14-.21,28.71-.04,2.81.03,5.62.22,8.43.07.95-.05,1.86-.46,2.73"/>
  <path class="cls-1" d="M246.82,229.78c-2.36,3.85-5.48,7.13-8.22,10.69-5.81,7.53-12.07,14.7-17.8,22.31-1.54,2.04-3.44,3.81-4.5,6.19"/>
  <path class="cls-1" d="M335.9,252.56c-2.14-.15-3.8,1.21-5.7,1.82-5.37,1.74-10.81,3.24-16.41,4.08-.41.06-.47.59-.91.48"/>
  <path class="cls-1" d="M246.14,182.62c0,12.76,0,25.52,0,38.28,0,2.73-.54,5.47,0,8.2"/>
  <path class="cls-1" d="M179.38,296.76c-3.99,1.08-8.1,1.58-12.07,2.74-2.7.78-5.39,1.6-7.97,2.73"/>
  <path class="cls-1" d="M159.33,277.62c5.43,1.39,10.85,2.74,16.39,3.73,4.85.87,9.72,1.58,14.6,2.14,6.51.75,13.04,1.33,19.59,1.68,4.1.22,8.2.43,12.31.61,3.87.17,7.75,0,11.62.45.95.11,2,.33,2.96-.19"/>
  <path class="cls-1" d="M159.33,253.47c5.19,2.22,10.7,3.36,16.19,4.5,1.03.22,2.05.84,3.18.51"/>
  <path class="cls-1" d="M157.74,146.39v46.71"/>
  <path class="cls-1" d="M302.64,83.28c-.36-.27-.53-.75-1.14-.7-5.92.54-11.85.1-17.77.24"/>
  <path class="cls-1" d="M242.95,266.91c.37,2.73-1.48,4.82-2.08,7.28-.97,3.97-2.95,7.62-3.84,11.63"/>
  <path class="cls-1" d="M179.61,52.07v27.34"/>
  <path class="cls-1" d="M333.85,138.42c.15,6.15-.26,12.3-.26,18.45,0,9.27.44,18.53.24,27.8-.02.76.27,1.56-.21,2.28"/>
  <path class="cls-1" d="M208.77,52.07c0,9.49,0,18.99,0,28.48,0,.76.14,1.55-.22,2.28"/>
  <path class="cls-1" d="M180.06,258.94c3.63.69,7.3,1.23,10.95,1.72,2.23.3,4.51.88,6.82.56"/>
  <path class="cls-1" d="M312.89,297.22c-.49,2.72-.19,5.47-.21,8.2-.05,7.06-.02,14.13-.01,21.19,0,.61-.09,1.25.23,1.82"/>
  <path class="cls-1" d="M312.21,368.3c-4.49.79-8.93,1.82-13.43,2.56-1.21.2-2.55-.21-3.65.63"/>
  <path class="cls-1" d="M255.7,494.97c-3.26-.49-6.53-.19-9.8-.2-2.35,0-4.72-.33-7.06.2"/>
  <path class="cls-1" d="M263.45,206.08h-16.4"/>
  <path class="cls-1" d="M245.68,206.08h-15.95"/>
  <path class="cls-1" d="M227.45,205.63h-15.95"/>
  <path class="cls-1" d="M179.61,146.39v37.59"/>
  <path class="cls-1" d="M262.54,369.67h-15.49"/>
  <path class="cls-1" d="M261.63,437.1c-4.85.4-9.75.19-14.58.91"/>
  <path class="cls-1" d="M236.57,286.51c-2.87,8.54-5.82,17.05-8.91,25.51-.37,1.01-.69,1.94-.2,2.97"/>
  <path class="cls-1" d="M208.77,146.39c0,11.24,0,22.48,0,33.72,0,.84-.16,1.7.22,2.51"/>
  <path class="cls-1" d="M242.95,437.56c-4.72.26-9.42-.32-14.13-.46"/>
  <path class="cls-1" d="M283.27,262.58c-4.08.58-8.19.71-12.3.91-.61.03-1.25.1-1.82-.22"/>
  <path class="cls-1" d="M334.08,154.36c3.64.52,7.29.14,10.94.21,3.95.07,7.9.02,11.85.02"/>
  <path class="cls-1" d="M246.14,146.39c0,11.09,0,22.18,0,33.26,0,.84.16,1.7-.22,2.51"/>
  <path class="cls-1" d="M268.69,205.4c3.71.5,7.44.1,11.16.22.91.03,1.82,0,2.73,0"/>
  <path class="cls-1" d="M312.66,282.86v13.9"/>
  <path class="cls-1" d="M347.75,82.6h-24.15"/>
  <path class="cls-1" d="M347.29,70.98c-4.18-.1-8.36.25-12.53-.24-.37-.04-.58.27-.91.24"/>
  <path class="cls-1" d="M312.44,258.94c-3.49.61-7.02.99-10.49,1.79-.94.22-1.97.03-2.95.03"/>
  <path class="cls-1" d="M283.5,112.9v25.06"/>
  <path class="cls-1" d="M168.22,82.6h-23.69"/>
  <path class="cls-1" d="M270.29,200.61c3.03.49,6.08.27,9.11.15,1.28-.05,2.59-.02,3.88-.15"/>
  <path class="cls-1" d="M325.88,125.88c-3.68.9-7.46.09-11.16.68-.63.1-1.22-.14-1.82-.23"/>
  <path class="cls-1" d="M179.61,304.96c-4,.59-7.86,1.7-11.62,3.18-.2.08-.45.01-.68.01"/>
  <path class="cls-1" d="M313.12,304.96c4.25.48,8.21,2.08,12.3,3.19"/>
  <path class="cls-1" d="M324.97,251.65c-4.01.99-8.02,1.95-12.08,2.73"/>
  <path class="cls-1" d="M208.77,183.07v17.09"/>
  <path class="cls-1" d="M334.08,235.47v17.09"/>
  <path class="cls-1" d="M179.61,114.72v23.01"/>
  <path class="cls-1" d="M312.66,114.72v23.01"/>
  <path class="cls-1" d="M219.71,435.51v11.16"/>
  <path class="cls-1" d="M257.98,327.29h-10.94"/>
  <path class="cls-1" d="M324.05,196.97c-2.6.27-5.17.73-7.74,1.16-1.07.18-2.13.19-3.19.2"/>
  <path class="cls-1" d="M246.14,415.23c-.23,11.62-.16,23.24,0,34.86"/>
  <path class="cls-1" d="M333.85,324.33c0,3.57.07,7.14-.23,10.71"/>
  <path class="cls-1" d="M294.89,360.55c0,5.7.01,11.39-.02,17.09,0,.6.27,1.27-.21,1.82"/>
  <path class="cls-1" d="M294.44,379.69c-2.23-.8-4.4.32-6.6.37-1.31.03-2.74.18-4.1.31"/>
  <path class="cls-1" d="M323.6,364.65c-3.48,1.11-6.81,2.69-10.48,3.19"/>
  <path class="cls-1" d="M283.27,372.86c.53,5.08.09,10.18.22,15.26.02.91,0,1.82,0,2.73"/>
  <path class="cls-1" d="M283.27,362.15c.5,3.41.1,6.84.23,10.25"/>
  <path class="cls-1" d="M283.27,257.57c-3.33.3-6.67.55-10.02.46"/>
  <path class="cls-1" d="M271.43,423.89v21.42"/>
  <path class="cls-1" d="M232.47,326.83h-9.57"/>
  <path class="cls-1" d="M322.23,320.45c-3.19.43-6.16,1.81-9.34,2.28"/>
  <path class="cls-1" d="M312.44,358.5c.49,3.03.15,6.08.21,9.11.06,2.81.01,5.62.01,8.43"/>
  <path class="cls-1" d="M179.61,231.83c.13,3.04-.26,6.09.23,9.11"/>
  <path class="cls-1" d="M256.16,386.53h-9.11"/>
  <path class="cls-1" d="M157.74,324.78c-.7,2.96.21,5.92,0,8.89"/>
  <path class="cls-1" d="M219.93,422.75c-.53,4.02-.06,8.05-.22,12.08-.03.72.57.37.9.46"/>
  <path class="cls-1" d="M294.66,397.92c.49,2.11.11,4.25.23,6.38.05.84-.16,1.7.23,2.51"/>
  <path class="cls-1" d="M246.14,381.97v25.52"/>
  <path class="cls-1" d="M329.98,201.07c-2.78-.07-5.4,1.2-8.2.91"/>
  <path class="cls-1" d="M209,403.61c-.51,4.02-.08,8.05-.23,12.07-.05,1.29.22,2.6-.22,3.87"/>
  <path class="cls-1" d="M283.27,411.82c.49,2.65.1,5.32.23,7.97"/>
  <path class="cls-1" d="M294.66,408.17c.47,1.73.12,3.49.23,5.24.05.84-.16,1.7.23,2.51"/>
  <path class="cls-1" d="M291.25,262.13c-2.53-.32-5,.56-7.52.46"/>
  <path class="cls-1" d="M208.54,205.17h-7.52"/>
  <path class="cls-1" d="M144.07,155.5v7.52"/>
  <path class="cls-1" d="M283.5,391.31c-.14,2.35.3,4.72-.23,7.06"/>
  <path class="cls-1" d="M283.73,294.03c-.51,2.26-.09,4.56-.23,6.83"/>
  <path class="cls-1" d="M283.27,404.07c.63,2.09-.18,4.29.46,6.38"/>
  <path class="cls-1" d="M179.61,184.44v18.91"/>
  <path class="cls-1" d="M246.14,373.99c-.05,2.05,0,4.1,0,6.15"/>
  <path class="cls-1" d="M179.84,369.21c-.65,2.01.2,4.14-.46,6.15"/>
  <path class="cls-1" d="M179.61,106.97v6.15"/>
  <path class="cls-1" d="M246.14,409.31c-.5,1.82-.03,3.65,0,5.47"/>
  <path class="cls-1" d="M179.84,358.96c-.53,3.25.02,6.54-.23,9.8"/>
  <path class="cls-1" d="M198.97,398.37c-.49,1.5-.11,3.04-.23,4.56"/>
  <path class="cls-1" d="M245.68,299.72c-1.52-.02-3.04.03-4.56,0"/>
  <path class="cls-1" d="M282.59,398.37c.68-.07.94.16.94.91-.01,1.14-.25,2.3.2,3.42"/>
  <path class="cls-1" d="M246.14,362.83v10.71"/>
  <path class="cls-1" d="M157.05,235.7c-1.24-.07-2.21.87-3.42.91"/>
  <path class="cls-1" d="M209.23,262.58h2.73"/>
  <path class="cls-1" d="M181.43,203.35c-1.37,0-2.73,0-4.1,0"/>
  <path class="cls-1" d="M336.36,199.7c-.69.02-1.4-.11-2.05.23"/>
  <path class="cls-1" d="M314.03,203.35h-3.19"/>
  <path class="cls-1" d="M159.33,200.61h1.59"/>
</svg>