<svg width="500" height="500" viewBox="0 0 500 500" fill="none" xmlns="http://www.w3.org/2000/svg">
<path d="M82.6514 271.134L92.8068 265.492L90.2155 291.367L97.0957 293.374H101.109L124.043 304.986L138.664 296.527V287.64L145.544 304.986L138.664 308.568H130.923L146.969 319.091V339.401L82.6514 304.986V271.134Z" fill="#FFDA00" fill-opacity="0.7"/>
<path d="M251.289 201.222C249.795 187.478 265.606 176.573 273.698 172.838L320.757 196.367L303.95 206.451L306.938 247.907L260.253 228.113C257.887 224.876 252.783 214.966 251.289 201.222Z" fill="#FFDA00" fill-opacity="0.7"/>
<path d="M324.145 300.919C324.145 242.266 366.737 222.488 380.761 215.217C406.731 206.387 426.468 215.217 428.027 254.172C429.585 293.128 407.77 320.137 380.761 335.2C353.751 350.263 324.145 344.555 324.145 300.919Z" fill="#FFDA00" fill-opacity="0.7"/>
<path d="M163.96 301.409C164.62 298.819 163.37 296.699 162 294.799C157.33 288.289 153.26 281.339 147.69 275.489C145 272.659 141.65 270.819 138.25 269.089C130.45 265.129 122.68 261.109 114.92 257.049C108.78 253.839 102.43 251.019 96.5005 247.419C95.4405 246.779 94.3705 246.869 93.5105 247.459C87.3705 251.669 80.6105 254.849 74.4005 258.949C73.0005 259.879 72.5005 260.909 72.5005 262.429C72.5005 277.709 72.5305 292.989 72.4705 308.269C72.4705 310.119 73.6105 310.769 74.8705 311.479C79.5205 314.089 84.2805 316.499 89.0205 318.949C98.6405 323.919 108.1 329.189 117.71 334.179C125 337.959 132.11 342.079 139.55 345.549C141.58 346.489 143.59 347.509 145.51 348.609C148.74 350.459 151.56 349.579 154.31 347.869C156.57 346.469 158.9 345.169 161.22 343.899C163.28 342.779 164.18 341.339 164.18 339.109C164.18 327.119 164.17 315.119 164.2 303.129C164.2 302.599 163.81 302.159 163.97 301.629" stroke="#2071B5" stroke-width="4.20561" stroke-linecap="round" stroke-linejoin="round"/>
<path d="M449.05 289.629C449.55 291.829 449.15 294.059 449.26 296.269C449.32 297.479 448.34 298.139 447.53 298.589C438.8 303.429 430.28 308.639 421.63 313.619C409.76 320.469 397.99 327.489 386.29 334.609C378.53 339.329 370.61 343.789 362.75 348.359C355.55 352.539 348.5 356.979 341.32 361.199C330.45 367.589 319.66 374.129 308.77 380.489C296.77 387.499 284.88 394.689 272.93 401.799C260.49 409.199 248.03 416.569 235.68 424.109C234.44 424.869 233 425.209 231.4 424.389C224.91 421.089 218.5 417.619 212.13 414.089C206.57 410.999 201.02 407.889 195.46 404.819C186.15 399.669 176.74 394.699 167.37 389.679C160.47 385.979 153.52 382.389 146.64 378.679C137.47 373.739 128.36 368.689 119.16 363.809C111.88 359.949 104.65 355.979 97.3902 352.099C90.3502 348.339 83.3602 344.439 76.3002 340.729C69.5502 337.179 62.9802 333.239 55.9802 330.189C52.3602 328.609 50.6602 326.389 51.2602 322.409C51.4802 320.939 51.3002 319.419 51.3002 317.919C51.3002 311.989 51.3802 306.069 51.2902 300.139C50.9702 279.719 51.0402 259.299 50.7502 238.879C50.6202 229.879 50.6202 220.889 50.4602 211.889C50.3902 208.029 50.4402 204.169 50.8902 200.329C50.9102 200.139 50.9002 200.059 50.8902 199.999C50.3902 197.009 50.4502 197.099 53.0002 195.369C55.5002 193.669 58.1302 192.179 60.7602 190.739C66.6402 187.499 72.4402 184.109 78.2702 180.789C83.9402 177.559 89.6102 174.329 95.2302 170.999C108.38 163.189 121.71 155.679 134.86 147.869C149.17 139.379 163.59 131.059 177.88 122.539C185.97 117.719 194 112.779 202.15 108.089C217.68 99.1588 232.96 89.7888 248.55 80.9688C252.98 78.4688 257.21 75.5988 261.64 73.0888C263.33 72.1288 264.83 72.3688 266.59 73.2488C273.94 76.9088 281.42 80.2988 288.81 83.8588C295.28 86.9788 301.68 90.2588 308.15 93.3588C321.57 99.7888 334.86 106.489 348.18 113.109C356.99 117.479 365.93 121.589 374.7 126.039C388.89 133.229 403.35 139.839 417.57 146.969C427.42 151.909 437.36 156.659 447.12 161.779C449.79 163.179 449.98 163.869 449.06 166.909C448.74 167.959 448.6 169.119 448.89 170.109C449.47 172.049 449.25 173.979 449.25 175.909C449.27 212.969 449.27 250.019 449.25 287.079C449.25 287.869 449.4 288.679 449.04 289.439" stroke="#2071B5" stroke-width="4.20561" stroke-linecap="round" stroke-linejoin="round"/>
<path d="M445.2 167.97C441.76 165.08 437.56 163.55 433.63 161.55C422.51 155.87 411.25 150.48 400.01 145.03C384.84 137.67 369.66 130.33 354.56 122.84C342.03 116.62 329.41 110.59 316.92 104.29C306.66 99.1101 296.37 93.9701 286.01 89.0001C279.21 85.7401 272.48 82.3601 265.69 79.0901C264.8 78.6601 264.01 78.5101 262.87 79.2201C255.18 84.0101 247.38 88.6301 239.56 93.2001C232.9 97.0901 226.27 101.03 219.64 104.99C212.03 109.54 204.32 113.92 196.7 118.45C187.38 124 178.03 129.51 168.64 134.95C159.75 140.1 150.96 145.43 142.11 150.64C133.17 155.9 124.17 161.05 115.3 166.43C109.4 170.01 103.31 173.3 97.3404 176.76C86.1004 183.27 74.7604 189.62 63.6904 196.42C60.8404 198.17 58.0304 200.04 54.9304 201.39" stroke="#2071B5" stroke-width="4.20561" stroke-linecap="round" stroke-linejoin="round"/>
<path d="M67.57 327.76C67.63 328.2 67.57 328.59 67.28 328.74C78.53 334.63 89.74 340.76 101.01 346.77C110.7 351.94 120.46 356.99 130.12 362.23C145.65 370.65 161.3 378.84 176.81 387.31C186.93 392.84 197.12 398.25 207.27 403.72C214.47 407.6 221.54 411.72 228.85 415.38C230 415.95 231.28 416.38 232.07 417.51" stroke="#2071B5" stroke-width="4.20561" stroke-linecap="round" stroke-linejoin="round"/>
<path d="M208.51 398.661C208.51 396.871 208.5 395.081 208.53 393.121C199.33 388.321 189.99 383.221 180.69 378.051C169.91 372.061 158.93 366.451 148.09 360.571C138.77 355.521 129.47 350.421 120.1 345.451C110.79 340.511 101.4 335.711 92.2105 330.551C89.2005 328.861 86.0805 327.401 83.0005 325.841" stroke="#2071B5" stroke-width="4.20561" stroke-linecap="round" stroke-linejoin="round"/>
<path d="M90.7102 252.149C95.6902 253.879 100.15 256.689 104.84 259.009C109.44 261.299 114.03 263.639 118.52 266.119C126.43 270.499 134.65 274.389 141.68 280.209C147.94 285.399 152.23 291.989 155.14 299.499C156 301.719 156.23 304.159 156.23 306.549C156.26 319.039 156.24 331.539 156.25 344.029C156.25 344.819 156.1 345.629 156.46 346.389" stroke="#2071B5" stroke-width="4.20561" stroke-linecap="round" stroke-linejoin="round"/>
<path d="M264.85 100.07C267 100.43 268.71 101.78 270.63 102.65C279.7 106.79 288.58 111.3 297.59 115.56C307 120.01 316.37 124.54 325.68 129.2C342.36 137.54 359.09 145.77 375.84 153.98C387.02 159.46 398.28 164.78 409.44 170.33" stroke="#2071B5" stroke-width="4.20561" stroke-linecap="round" stroke-linejoin="round"/>
<path d="M146.18 318.12C146.69 317.66 147.02 317.1 147.03 316.41C147.18 308.44 147.19 300.48 143.6 293.07C140.47 286.6 135.51 282.09 128.85 279.32C124.52 277.52 120.3 275.44 116.2 273.14C110.68 270.05 105.1 267.08 99.5102 264.12C97.0302 262.81 94.9602 262.75 92.3602 264.23C90.0802 265.53 87.7402 266.83 85.3502 267.98C82.9602 269.13 81.8502 270.8 81.8902 273.57C82.0102 282.85 82.0802 292.14 81.8602 301.41C81.7802 304.81 83.0702 306.65 85.9802 308.1C90.7802 310.5 95.5902 312.87 100.36 315.33C109.56 320.07 118.76 324.79 128 329.46C134.13 332.56 140.14 335.88 146.29 338.72C147.29 338.4 147.28 337.69 147.28 336.96C147.28 331.68 147.27 326.39 147.28 321.11C147.28 320.43 147.17 319.84 146.63 319.4" stroke="#2071B5" stroke-width="4.20561" stroke-linecap="round" stroke-linejoin="round"/>
<path d="M51.0801 200.101C52.3101 200.031 52.9601 201.061 53.8601 201.611C60.1901 205.531 67.0301 208.381 73.7601 211.501C82.1301 215.381 90.2401 219.811 98.3901 224.141C109.71 230.141 121.18 235.831 132.69 241.431C141.28 245.611 149.68 250.141 158.37 254.131C165.39 257.351 172.24 260.931 179.17 264.351C186.3 267.871 193.32 271.621 200.33 275.361C204.72 277.711 208.93 280.441 213.45 282.531C218.4 284.821 222.9 287.881 227.76 290.331C230.91 291.921 233.57 292.241 237.05 290.821C245.1 287.551 252.17 282.611 259.72 278.511C265.74 275.241 271.54 271.591 277.5 268.231C278.5 267.661 279.33 266.791 280.41 266.431C289.03 271.441 297.98 275.621 306.65 280.351C311.29 282.891 316.06 285.231 320.76 287.681C321.44 288.041 322.12 288.421 322.9 288.541" stroke="#2071B5" stroke-width="4.20561" stroke-linecap="round" stroke-linejoin="round"/>
<path d="M249.64 163.261C250.13 160.061 249.73 156.831 249.85 153.621C249.9 152.221 249.52 150.581 251.78 150.621C255.52 147.401 260.05 145.461 264.18 142.881C270.81 138.741 277.64 134.951 284.32 130.901C285.34 130.281 286.22 130.121 287.34 130.681C298.42 136.231 309.42 141.931 320.53 147.401C332.56 153.321 344.54 159.351 356.53 165.361C363.09 168.651 369.67 171.931 376.24 175.201C378.34 176.251 379.31 177.491 379.27 179.951C379.15 188.301 378.85 196.651 379.01 205.011C379.02 205.811 378.77 206.681 379.43 207.371" stroke="#2071B5" stroke-width="4.20561" stroke-linecap="round" stroke-linejoin="round"/>
<path d="M410.5 213.809C413.03 213.399 414.51 215.239 416.03 216.629C421.5 221.649 424.48 228.129 426.11 235.229C428.45 245.469 428.67 255.829 427.91 266.289C427.48 272.159 426.59 277.869 424.65 283.419C422.71 288.959 420.14 294.139 416.28 298.619C415.89 299.069 415.43 299.339 414.8 299.529C413.74 299.839 412.97 300.609 412.42 301.619C410.37 305.409 407.65 308.789 405.6 312.569C403.54 316.379 400.31 318.939 397.04 321.589C390.48 326.899 383.75 331.959 376.66 336.539C371.45 339.899 365.72 341.749 359.53 342.109C358.03 342.199 356.87 342.599 355.6 343.739C352.49 346.519 348.76 348.549 345.15 350.629C337.3 355.159 329.73 360.149 321.86 364.649C315.38 368.339 309.06 372.299 302.57 375.979C295.17 380.179 287.83 384.489 280.53 388.859C270.12 395.089 259.65 401.229 249.23 407.459C243.82 410.699 238.47 414.039 232.94 417.079C231.87 417.669 231.63 418.519 231.63 419.659C231.63 421.089 231.9 422.539 231.44 423.939" stroke="#2071B5" stroke-width="4.20561" stroke-linecap="round" stroke-linejoin="round"/>
<path d="M214.94 128.77C207.58 132.85 200.38 137.2 193.07 141.36C185.48 145.68 177.91 150.04 170.39 154.47C163.97 158.26 157.53 162.03 151.08 165.77C144.11 169.81 137.16 173.9 130.14 177.86C123.59 181.55 117.14 185.42 110.62 189.16C102.41 193.88 94.22 198.62 85.99 203.3" stroke="#2071B5" stroke-width="4.20561" stroke-linecap="round" stroke-linejoin="round"/>
<path d="M418.64 253.43C419.96 254.18 419.55 255.57 419.67 256.65C420.76 266.68 418.69 276.29 415.66 285.78C411.7 298.19 404.85 308.76 395.02 317.19C388.38 322.88 381.7 328.66 373.67 332.48C370.03 334.21 366.34 335.78 362.31 336.32C357.44 336.97 352.59 337.48 347.93 335.11C347.22 334.75 346.48 334.33 345.86 333.92C337.01 328.14 330.72 320.56 328.86 309.78C327.84 303.84 327.87 297.94 328.48 292C328.7 289.84 329.22 287.72 329.51 285.57C329.66 284.5 329.9 283.96 331.04 284.5" stroke="#2071B5" stroke-width="4.20561" stroke-linecap="round" stroke-linejoin="round"/>
<path d="M444.13 175.891C444.13 211.371 444.14 246.861 444.07 282.341C444.07 283.291 445.09 284.521 443.7 285.341" stroke="#2071B5" stroke-width="4.20561" stroke-linecap="round" stroke-linejoin="round"/>
<path d="M57.2904 204.17C56.7904 207.45 57.2204 210.74 57.2904 214.02C57.2904 214.45 57.2904 214.88 57.2904 215.31C57.2704 226.38 57.6304 237.44 57.5104 248.51C57.3804 260.43 57.6604 272.36 57.7904 284.28C57.8904 292.99 57.8004 301.7 57.9404 310.41C57.9704 312.12 58.2404 313.83 58.1404 315.55" stroke="#2071B5" stroke-width="4.20561" stroke-linecap="round" stroke-linejoin="round"/>
<path d="M57.5105 210.381C62.8905 212.971 68.3005 215.541 73.5305 218.391C80.1505 221.991 86.8805 225.411 93.5405 228.931C100.481 232.591 107.48 236.171 114.45 239.791C123.24 244.351 132.041 248.891 140.811 253.471C146.531 256.461 152.221 259.501 158.001 262.351C162.691 264.661 167.531 266.711 172.321 268.841C172.701 269.011 172.861 269.331 173.221 269.531C172.601 270.221 172.741 271.061 172.741 271.871C172.741 284.791 172.561 297.721 172.781 310.641C173.091 328.491 172.811 346.341 172.961 364.191C172.961 364.831 172.861 365.451 173.111 366.141C173.391 366.881 172.71 367.031 172.09 366.981" stroke="#2071B5" stroke-width="4.20561" stroke-linecap="round" stroke-linejoin="round"/>
<path d="M254.78 105.64C247.69 109.55 240.77 113.75 233.77 117.81C228.79 120.7 223.79 123.55 218.8 126.38C218.8 127.2 218.8 127.98 218.8 128.77V218.73C218.8 239.86 218.8 261 218.8 282.13C218.8 282.92 218.95 283.73 218.59 284.49" stroke="#2071B5" stroke-width="4.20561" stroke-linecap="round" stroke-linejoin="round"/>
<path d="M414.36 299.479C414.39 298.669 414.33 297.909 414.76 297.109C418.21 290.779 420.47 283.949 421.96 276.969C422.99 272.149 423.78 267.229 423.85 262.219C423.92 257.559 424.11 252.919 423.35 248.299C421.94 239.729 419.4 231.569 413.46 224.989C409.38 220.469 405.11 216.089 398.96 214.169C396.89 213.529 394.81 213.329 392.73 212.939C386.23 211.699 380.91 214.939 375.63 217.739C369.48 220.999 363.72 224.959 357.92 228.859C355.03 230.809 351.82 232.469 348.81 234.359C346.93 235.539 345.99 237.539 344.51 239.059C340.3 243.379 336.87 248.269 333.84 253.439C329.72 260.479 326.89 268.089 324.96 275.949C324.12 279.379 323.83 283.039 323.45 286.619C322.98 291.059 323.12 295.489 322.98 299.909C322.69 309.279 324.3 318.319 329.33 326.469C332.83 332.139 337.52 336.729 343.32 339.839C346.12 341.349 349.4 342.569 352.89 342.139C354.05 341.999 355.29 341.899 356.31 342.759" stroke="#2071B5" stroke-width="4.20561" stroke-linecap="round" stroke-linejoin="round"/>
<path d="M402.15 264.999C404.99 263.479 407.86 261.939 410.77 260.619C412.71 259.739 412.45 258.809 412.26 257.279C411.98 255.009 412.16 252.729 411.87 250.419C411.31 246.039 410.13 241.899 408.11 238.029C406.88 235.679 405.75 233.259 404.09 231.149C399.56 225.379 393.85 223.299 386.5 224.419C379.13 225.549 373.17 229.179 367.7 233.759C356.89 242.799 349.2 254.179 343.95 267.159C341.44 273.359 339.97 279.889 339.31 286.619C339.01 289.639 338.94 292.629 339 295.619C339.13 302.239 340.74 308.529 343.69 314.469C345.19 317.489 346.68 320.419 349.2 322.879C355.42 328.969 364.21 329.709 371.95 326.229C378.63 323.219 384.18 318.529 389.52 313.609C395.65 307.959 400.7 301.459 404.29 293.909C407.41 287.359 409.62 280.489 410.92 273.349C411.69 269.109 412.46 264.849 412.23 260.499" stroke="#2071B5" stroke-width="4.20561" stroke-linecap="round" stroke-linejoin="round"/>
<path d="M334.03 202.239C330.21 200.449 326.5 198.449 322.69 196.649C307.3 189.379 292.28 181.349 277.04 173.789C274.96 172.759 272.97 171.509 270.66 170.869C269.71 170.609 269.03 170.509 268.28 170.969C263 174.219 257.33 176.859 252.64 181.029" stroke="#2071B5" stroke-width="4.20561" stroke-linecap="round" stroke-linejoin="round"/>
<path d="M448.63 167.33C447.43 166.89 446.21 167.59 445.47 168.06C438.17 172.66 430.68 176.93 423.34 181.44C413.9 187.23 404.33 192.83 394.85 198.57C385.01 204.52 375.16 210.45 365.28 216.32C358.78 220.17 352.37 224.18 345.85 227.99C345.34 228.29 344.78 228.26 344.33 228.59" stroke="#2071B5" stroke-width="4.20561" stroke-linecap="round" stroke-linejoin="round"/>
<path d="M231.43 328.188C231.88 328.558 231.63 329.048 231.63 329.478C231.64 358.038 231.64 386.598 231.63 415.158C231.63 415.578 231.88 416.078 231.43 416.448" stroke="#2071B5" stroke-width="4.20561" stroke-linecap="round" stroke-linejoin="round"/>
<path d="M357.17 229.871C357.24 231.191 356.17 231.871 355.43 232.631C350.56 237.591 346.8 243.331 343.48 249.371C339.8 256.071 336.66 263.011 334.46 270.351C332.05 278.391 330.93 286.621 330.59 294.981C330.35 301.071 330.61 307.091 332.33 312.971C333.61 317.341 335.5 321.441 338.13 325.161C338.76 326.061 339.26 326.851 338.96 327.961" stroke="#2071B5" stroke-width="4.20561" stroke-linecap="round" stroke-linejoin="round"/>
<path d="M406.43 262.641C405.96 260.941 406.3 259.211 406.22 257.501C405.95 251.281 404.86 245.371 401.1 240.131C397.51 235.111 392.56 233.071 386.72 233.601C380.76 234.141 375.67 237.361 370.92 240.661C363.21 246.031 357.79 253.551 353.59 261.821C350.74 267.431 349.01 273.511 347.91 279.771C346.97 285.111 346.86 290.491 347.17 295.841C347.51 301.721 348.8 307.571 352.51 312.291C358.71 320.171 367.31 321.461 376.42 316.361C382.62 312.891 387.55 307.851 391.84 302.251C397.27 295.151 401.45 287.361 403.84 278.701C405.22 273.731 406.31 268.701 406.21 263.501" stroke="#2071B5" stroke-width="4.20561" stroke-linecap="round" stroke-linejoin="round"/>
<path d="M161.61 190.459C161.15 191.189 161.18 191.999 161.18 192.819C161.18 208.669 161.05 224.519 161.28 240.369C161.34 244.429 161.59 248.509 161.62 252.579C161.62 253.399 161.65 254.209 161.19 254.939" stroke="#2071B5" stroke-width="4.20561" stroke-linecap="round" stroke-linejoin="round"/>
<path d="M232.93 170.969C232.15 172.259 232.5 173.689 232.52 175.039C232.83 190.959 232.66 206.879 232.72 222.809C232.72 223.629 232.75 224.439 232.29 225.169" stroke="#2071B5" stroke-width="4.20561" stroke-linecap="round" stroke-linejoin="round"/>
<path d="M380.3 258.15C376.15 258.87 373.51 261.6 371.06 264.77C365.96 271.38 364.26 278.92 364.7 287.06C364.78 288.5 365.21 289.96 365.73 291.34C367.37 295.73 373.17 297.58 377.21 294.86C380.13 292.9 382.55 290.05 384.37 286.85C386.27 283.51 387.93 280.1 388.88 276.36C389.22 275.01 388.69 273.55 389.5 272.28" stroke="#2071B5" stroke-width="4.20561" stroke-linecap="round" stroke-linejoin="round"/>
<path d="M261.63 316.829C261.2 316.779 260.84 316.929 260.68 317.119C260.84 319.399 260.83 321.549 260.76 323.689C260.3 338.179 260.71 352.679 260.55 367.169C260.47 374.949 260.6 382.729 260.44 390.519C260.37 393.779 260.33 397.089 260.56 400.369" stroke="#2071B5" stroke-width="4.20561" stroke-linecap="round" stroke-linejoin="round"/>
<path d="M208.73 313.62C208.84 323.26 208.29 332.9 208.57 342.53C208.63 344.68 208.49 346.82 208.51 348.96C208.63 360.03 208.36 371.09 208.3 382.16C208.28 385.66 208.3 389.16 208.3 392.66" stroke="#2071B5" stroke-width="4.20561" stroke-linecap="round" stroke-linejoin="round"/>
<path d="M273.2 173.751C270.67 174.491 268.61 176.001 266.55 177.591C258.53 183.781 253.79 192.011 252.12 201.831C251.41 205.991 251.08 210.681 252.61 214.591C254.71 219.971 257.65 225.241 263.37 227.911C265.1 228.721 265.84 229.691 265.3 231.591C264.86 233.131 264.92 234.751 265.12 236.291C265.38 238.331 264.55 239.801 262.91 240.531C259.34 242.101 256.58 244.941 253.07 246.561C252.42 246.861 252.75 247.601 252.22 247.871" stroke="#2071B5" stroke-width="4.20561" stroke-linecap="round" stroke-linejoin="round"/>
<path d="M448.84 289.421C444.28 291.481 440.06 294.151 435.78 296.721C426.94 302.031 417.91 307.021 409.18 312.501C407.72 313.421 406.58 315.141 404.5 314.911" stroke="#2071B5" stroke-width="4.20561" stroke-linecap="round" stroke-linejoin="round"/>
<path d="M279.63 266.709C278.17 264.779 275.79 264.359 273.82 263.329C263.18 257.759 252.7 251.889 241.93 246.569C240.1 245.659 238.36 244.549 236.36 243.999" stroke="#2071B5" stroke-width="4.20561" stroke-linecap="round" stroke-linejoin="round"/>
<path d="M251.78 150.831C257.29 154.281 263.21 156.961 268.96 159.951C276.38 163.811 283.91 167.451 291.4 171.181C308.26 179.581 325.1 188.021 341.97 196.421C342.33 196.601 342.51 196.901 342.82 197.091" stroke="#2071B5" stroke-width="4.20561" stroke-linecap="round" stroke-linejoin="round"/>
<path d="M264.42 96.6406C264.42 110.991 264.42 125.341 264.42 139.691C264.42 140.491 264.18 141.361 264.84 142.051" stroke="#2071B5" stroke-width="4.20561" stroke-linecap="round" stroke-linejoin="round"/>
<path d="M380.08 247.439C374.39 249.479 370.25 253.519 366.37 257.929C361.72 263.209 358.81 269.359 357.18 276.149C355.93 281.379 355.52 286.619 356.44 292.009C356.93 294.909 357.67 297.559 359.06 300.149C362.73 306.969 370.72 309.289 377.52 305.919C377.63 305.859 377.8 305.919 377.94 305.919" stroke="#2071B5" stroke-width="4.20561" stroke-linecap="round" stroke-linejoin="round"/>
<path d="M343.03 230.089C341.46 229.909 340.54 231.169 339.41 231.839C328.77 238.189 318.11 244.499 307.45 250.819C299.28 255.659 291.06 260.449 282.84 265.209C282.23 265.559 281.57 265.809 281.24 266.499" stroke="#2071B5" stroke-width="4.20561" stroke-linecap="round" stroke-linejoin="round"/>
<path d="M305.541 206.311C302.171 208.821 300.491 212.531 298.961 216.191C296.361 222.431 296.261 228.931 298.051 235.441C298.731 237.941 299.821 240.221 301.691 242.081C302.981 243.361 304.261 244.651 305.551 245.931" stroke="#2071B5" stroke-width="4.20561" stroke-linecap="round" stroke-linejoin="round"/>
<path d="M200.65 258.311C191.64 257.261 182.46 257.621 173.66 254.891C169.66 253.651 165.55 252.751 162.07 250.201" stroke="#2071B5" stroke-width="4.20561" stroke-linecap="round" stroke-linejoin="round"/>
<path d="M174.46 198.811C174.1 199.571 174.24 200.381 174.25 201.171C174.38 212.881 174.17 224.591 174.34 236.301C174.4 240.271 174.67 244.311 174.02 248.291" stroke="#2071B5" stroke-width="4.20561" stroke-linecap="round" stroke-linejoin="round"/>
<path d="M410.29 229.439C410.31 229.879 410.09 230.219 410.46 230.749C413.34 234.879 415.58 239.359 416.89 244.229C417.98 248.289 419.1 252.329 417.7 256.689C417.3 257.929 417.44 259.649 417.38 261.149C417.04 269.689 414.71 277.769 411.99 285.779C410.04 291.519 406.71 296.649 404.49 302.269C404.05 303.389 403.15 304.229 402.57 305.269" stroke="#2071B5" stroke-width="4.20561" stroke-linecap="round" stroke-linejoin="round"/>
<path d="M227.79 242.29C227.79 253.57 227.79 264.85 227.79 276.13C227.79 276.99 227.7 277.86 228 278.7" stroke="#2071B5" stroke-width="4.20561" stroke-linecap="round" stroke-linejoin="round"/>
<path d="M377.94 176.97C374.41 179.62 370.36 181.37 366.59 183.62C359.37 187.94 351.88 191.79 344.72 196.22C344.3 196.48 344.05 196.85 343.66 197.1" stroke="#2071B5" stroke-width="4.20561" stroke-linecap="round" stroke-linejoin="round"/>
<path d="M183.67 199.669C191.88 200.499 199.57 199.019 206.59 194.519C208.61 193.229 210.31 191.399 211.79 189.669C212.96 188.299 212.75 185.669 212.32 183.609C212.17 182.869 212.06 182.229 212.11 181.449C212.26 178.909 211.18 176.729 209.59 174.819C207.14 171.879 203.82 170.259 200.39 168.819C193.96 166.129 187.27 165.679 180.47 166.709C175 167.539 169.92 169.399 165.44 172.849C162.36 175.219 161.37 178.349 161.72 181.879C161.87 183.419 163.35 184.739 164.45 185.919C168.19 189.949 173.07 192.039 178.33 193.219C181.35 193.889 184.43 194.379 187.53 194.079C196.36 193.219 204.68 191.179 210.44 183.599C210.79 183.139 211.41 183.199 211.73 182.749" fill="#FFDA00" fill-opacity="0.7"/>
<path d="M183.67 199.669C191.88 200.499 199.57 199.019 206.59 194.519C208.61 193.229 210.31 191.399 211.79 189.669C212.96 188.299 212.75 185.669 212.32 183.609C212.17 182.869 212.06 182.229 212.11 181.449C212.26 178.909 211.18 176.729 209.59 174.819C207.14 171.879 203.82 170.259 200.39 168.819C193.96 166.129 187.27 165.679 180.47 166.709C175 167.539 169.92 169.399 165.44 172.849C162.36 175.219 161.37 178.349 161.72 181.879C161.87 183.419 163.35 184.739 164.45 185.919C168.19 189.949 173.07 192.039 178.33 193.219C181.35 193.889 184.43 194.379 187.53 194.079C196.36 193.219 204.68 191.179 210.44 183.599C210.79 183.139 211.41 183.199 211.73 182.749" stroke="#2071B5" stroke-width="4.20561" stroke-linecap="round" stroke-linejoin="round"/>
<path d="M243.21 178.04V210.17" stroke="#2071B5" stroke-width="4.20561" stroke-linecap="round" stroke-linejoin="round"/>
<path d="M162.68 193.891V225.591" stroke="#2071B5" stroke-width="4.20561" stroke-linecap="round" stroke-linejoin="round"/>
<path d="M211.94 190.249C212.42 191.129 212.37 192.079 212.37 193.029C212.37 202.599 212.37 212.159 212.37 221.729" stroke="#2071B5" stroke-width="4.20561" stroke-linecap="round" stroke-linejoin="round"/>
<path d="M296.55 276.139C296.06 281.779 296.38 287.419 296.35 293.059C296.29 304.979 296.33 316.909 296.33 328.829C296.33 341.899 296.33 354.959 296.33 368.029C296.33 368.269 296.27 368.519 296.54 368.659C287.66 373.629 279.05 379.069 270.2 384.089" stroke="#2071B5" stroke-width="4.20561" stroke-linecap="round" stroke-linejoin="round"/>
<path d="M288.19 260.929C280.71 257.459 273.45 253.569 266.14 249.769C263.13 248.209 260.21 246.469 257.35 244.649" stroke="#2071B5" stroke-width="4.20561" stroke-linecap="round" stroke-linejoin="round"/>
<path d="M343.24 197.53C343.8 199.14 343.66 200.8 343.67 202.46C343.67 210.1 343.67 217.74 343.67 225.38C343.67 227.95 343.53 230.53 343.71 233.09C343.9 235.73 344.76 235.54 342.88 237.37" stroke="#2071B5" stroke-width="4.20561" stroke-linecap="round" stroke-linejoin="round"/>
<path d="M186.24 306.12C184.59 309.35 183.65 312.73 183.66 316.4C183.69 330.25 183.66 344.1 183.69 357.95C183.69 358.66 183.44 359.42 183.89 360.09" stroke="#2071B5" stroke-width="4.20561" stroke-linecap="round" stroke-linejoin="round"/>
<path d="M186.88 276.349C186.8 276.699 186.65 277.029 186.65 277.419C186.65 285.489 186.8 293.559 186.28 301.629C186.2 302.869 185.71 304.029 185.81 305.269" stroke="#2071B5" stroke-width="4.20561" stroke-linecap="round" stroke-linejoin="round"/>
<path d="M91.3501 265C91.8901 265.87 91.7801 266.84 91.7801 267.78C91.7801 274.06 91.7801 280.35 91.7801 286.63C91.7801 288.42 91.7001 290.21 91.9901 291.98" stroke="#2071B5" stroke-width="4.20561" stroke-linecap="round" stroke-linejoin="round"/>
<path d="M268.06 243.579C276.06 247.579 284.06 251.569 292.04 255.589C293.04 256.089 294.29 256.079 295.04 257.079" stroke="#2071B5" stroke-width="4.20561" stroke-linecap="round" stroke-linejoin="round"/>
<path d="M319.9 195.81C318.31 197.52 316 198.02 314.08 199.17C311.02 201.01 308.01 202.81 305.98 205.32C305.98 209.8 305.91 213.95 306 218.09C306.19 226.95 305.35 235.84 306.84 244.65C306.91 245.08 306.65 245.4 306.41 245.72" stroke="#2071B5" stroke-width="4.20561" stroke-linecap="round" stroke-linejoin="round"/>
<path d="M209.16 287.06C208.55 287.76 208.74 288.61 208.74 289.42C208.74 297.35 208.74 305.27 208.74 313.27C216.27 315.59 223.82 316.54 231.44 313.62" stroke="#2071B5" stroke-width="4.20561" stroke-linecap="round" stroke-linejoin="round"/>
<path d="M286.27 270.351C283.75 272.671 280.57 273.941 277.69 275.681C271.72 279.291 265.85 283.121 259.67 286.321C252.56 290.001 245.68 294.051 238.72 297.971C238.17 298.281 237.5 298.461 237.44 299.261" stroke="#2071B5" stroke-width="4.20561" stroke-linecap="round" stroke-linejoin="round"/>
<path d="M202.09 283.63C201.64 284.31 201.89 285.06 201.89 285.77C201.87 296.62 201.97 307.48 201.83 318.33C201.78 322.42 203.51 325.24 207.03 326.86C213.85 330.01 220.97 330.28 228.22 328.61C230.03 328.19 231.79 327.59 233.56 327.05C237.79 325.76 241.07 320.89 241.07 316.4C241.07 312.97 241.04 309.55 241.07 306.12C241.12 301.3 239.52 300.33 236.1 299.17C233.61 298.33 231.19 297.36 228.88 296.22C220.75 292.21 212.62 288.19 204.44 284.27C194.1 279.32 183.79 274.3 173.38 269.49" stroke="#2071B5" stroke-width="4.20561" stroke-linecap="round" stroke-linejoin="round"/>
<path d="M265.92 229.871C268.81 229.741 270.99 231.571 273.41 232.681C280.96 236.131 288.39 239.841 295.92 243.361C298.35 244.501 300.76 245.671 303.18 246.831C303.99 247.221 304.69 247.531 305.55 247.221" stroke="#2071B5" stroke-width="4.20561" stroke-linecap="round" stroke-linejoin="round"/>
<path d="M443.91 169.68C444.38 171.38 444 173.11 444.12 174.82C444.15 175.27 444 175.42 443.52 175.73C436.49 180.22 429.35 184.53 422.29 188.97C420.83 189.89 419.37 190.9 418.64 192.59" stroke="#2071B5" stroke-width="4.20561" stroke-linecap="round" stroke-linejoin="round"/>
<path d="M260.99 286.199C261.15 294.559 260.64 302.909 260.8 311.259C260.84 313.119 260.5 314.989 260.99 316.829" stroke="#2071B5" stroke-width="4.20561" stroke-linecap="round" stroke-linejoin="round"/>
<path d="M305.97 206.52C306.62 206.54 307.29 206.42 307.9 206.74C312.3 209.02 316.89 210.94 320.97 213.8C321.42 214.12 321.62 214.47 321.64 215.09C321.9 223.16 322.01 231.23 321.62 239.29C321.58 240.17 321.54 241.06 322.04 241.86" stroke="#2071B5" stroke-width="4.20561" stroke-linecap="round" stroke-linejoin="round"/>
<path d="M418.42 192.821C414.75 193.591 411.84 196.511 411.35 201.391C410.88 206.141 414.25 209.471 417.57 210.561C419.38 211.151 421.26 211.061 422.92 209.761C425.71 207.561 427.52 205.011 427.47 201.181C427.42 197.451 423.74 192.951 419.69 193.061C419.35 193.061 419.14 192.811 418.83 192.831" stroke="#2071B5" stroke-width="4.20561" stroke-linecap="round" stroke-linejoin="round"/>
<path d="M431.92 166.039C429.13 162.619 425.46 162.519 421.65 163.509C418.85 164.239 416.41 167.939 418.16 170.789C418.49 171.329 418.86 171.829 419.3 171.999C423.25 173.589 427.29 174.119 431.26 172.219C433.91 170.949 434.19 168.339 432.13 166.039" stroke="#2071B5" stroke-width="4.20561" stroke-linecap="round" stroke-linejoin="round"/>
<path d="M301.26 138.199C300.69 138.659 300.84 139.309 300.84 139.909C300.84 146.409 300.69 152.909 300.89 159.399C301.03 163.969 300.98 168.539 301.05 173.109C301.06 173.829 301.19 174.569 300.84 175.249" stroke="#2071B5" stroke-width="4.20561" stroke-linecap="round" stroke-linejoin="round"/>
<path d="M108.27 271.43C106.71 272.11 105.14 272.77 103.64 273.54C102.29 274.24 100.63 274.95 99.07 275.53C96.24 276.57 96.27 276.65 96.27 279.57C96.27 283.43 96.25 287.28 96.28 291.14C96.28 292.27 95.87 293.69 97.15 294.31C98.6 295.02 99.44 293.73 100.34 292.85" stroke="#2071B5" stroke-width="4.20561" stroke-linecap="round" stroke-linejoin="round"/>
<path d="M380.51 247.439C388.79 244.679 395.94 250.169 398.06 257.719C400.1 264.999 399.17 272.239 397.18 279.339C394.7 288.179 389.95 295.729 383.27 302.029C381.89 303.329 380.53 304.749 378.58 305.269" stroke="#2071B5" stroke-width="4.20561" stroke-linecap="round" stroke-linejoin="round"/>
<path d="M333.39 204.38C334.62 206.58 334.79 209.06 334.84 211.45C334.98 218.16 334.89 224.87 334.89 231.58C334.89 232.46 334.82 233.35 335.32 234.15" stroke="#2071B5" stroke-width="4.20561" stroke-linecap="round" stroke-linejoin="round"/>
<path d="M219.22 291.771C218.86 292.531 219.01 293.341 219.01 294.131C219.01 307.771 219.01 321.401 219 335.041C219 339.831 218.89 344.611 218.58 349.391" stroke="#2071B5" stroke-width="4.20561" stroke-linecap="round" stroke-linejoin="round"/>
<path d="M365.52 185.321C366.02 188.171 365.69 191.031 365.71 193.891C365.77 200.241 365.73 206.601 365.73 212.951C365.73 213.671 365.6 214.411 365.94 215.091" stroke="#2071B5" stroke-width="4.20561" stroke-linecap="round" stroke-linejoin="round"/>
<path d="M71.6403 197.962C71.9503 199.022 71.1403 199.892 71.1603 200.962C71.1803 202.702 71.8503 203.472 73.5703 203.332C74.7803 203.242 76.0003 203.392 77.2103 203.292C78.0703 203.222 79.1103 203.332 79.3703 202.032C79.6103 200.832 79.9603 199.732 78.7203 198.802C76.5303 197.152 74.3803 196.162 71.6103 197.692C70.4003 198.362 68.8203 198.372 67.7903 199.472C66.5003 200.852 66.5103 203.052 68.0303 204.132C69.3203 205.042 70.7703 206.202 72.4803 205.852C74.7603 205.382 77.0603 205.912 79.3603 205.332C81.0603 204.902 82.8203 204.572 83.3303 202.872C83.8603 201.082 82.9503 199.502 81.5103 198.162C78.3603 195.222 74.3103 194.392 70.3403 196.032C69.1403 196.532 68.0803 197.022 68.4203 198.612" stroke="#2071B5" stroke-width="4.20561" stroke-linecap="round" stroke-linejoin="round"/>
<path d="M123.91 286.849C124.59 286.599 125.24 286.389 125.85 287.059C126.42 287.679 127.17 287.819 128.2 287.649C128.2 291.849 128.16 295.989 128.23 300.129C128.24 300.979 127.54 302.229 128.85 302.659C129.97 303.029 132.2 301.249 132.23 299.909C132.32 295.769 132.43 291.619 132.18 287.489C132.08 285.889 130.49 286.139 129.27 286.629" stroke="#2071B5" stroke-width="4.20561" stroke-linecap="round" stroke-linejoin="round"/>
<path d="M201.45 236.301C200.56 237.041 200.58 238.051 200.59 239.081C200.61 244.721 200.6 250.361 200.59 256.001C200.59 256.721 200.72 257.461 200.38 258.141" stroke="#2071B5" stroke-width="4.20561" stroke-linecap="round" stroke-linejoin="round"/>
<path d="M262.491 199.029C262.531 201.269 261.511 203.289 261.081 205.429C260.231 209.679 260.321 213.759 261.431 217.869C261.661 218.729 261.611 219.579 261.631 220.439" stroke="#2071B5" stroke-width="4.20561" stroke-linecap="round" stroke-linejoin="round"/>
<path d="M99.9202 275.5C100.79 276.02 100.56 276.87 100.56 277.64C100.56 282.5 100.56 287.35 100.56 292.2C103.95 292.36 104.84 291.56 104.84 288.57C104.84 284.5 104.84 280.43 104.84 276.36C104.84 275.55 104.48 274.85 103.99 274.22" stroke="#2071B5" stroke-width="4.20561" stroke-linecap="round" stroke-linejoin="round"/>
<path d="M208.94 393.299C213.47 396.269 218.33 398.639 223.09 401.199C225.34 402.409 227.39 404.019 229.93 404.659" stroke="#2071B5" stroke-width="4.20561" stroke-linecap="round" stroke-linejoin="round"/>
<path d="M235.72 237.581C236.08 240.431 235.93 243.291 235.93 246.151C235.93 255.931 235.93 265.711 235.93 275.491C235.93 276.281 236.08 277.091 235.72 277.851" stroke="#2071B5" stroke-width="4.20561" stroke-linecap="round" stroke-linejoin="round"/>
<path d="M218.58 221.949C213.16 221.659 208.13 222.749 203.8 226.229C201.1 228.399 200.24 232.259 201.6 235.469C201.8 235.939 202.12 235.969 202.31 236.059C206.02 237.709 209.29 240.309 213.43 241.029C220.11 242.199 226.61 242.169 232.72 238.679C232.96 238.539 233.12 238.319 233.35 238.229C235.15 237.589 236.99 236.859 236.95 234.579C236.9 232.099 236.67 229.729 234.68 227.679C230.86 223.739 226.04 222.559 220.92 221.939C220.42 221.879 219.86 222.189 219.42 221.729" fill="#FFDA00" fill-opacity="0.7"/>
<path d="M218.58 221.949C213.16 221.659 208.13 222.749 203.8 226.229C201.1 228.399 200.24 232.259 201.6 235.469C201.8 235.939 202.12 235.969 202.31 236.059C206.02 237.709 209.29 240.309 213.43 241.029C220.11 242.199 226.61 242.169 232.72 238.679C232.96 238.539 233.12 238.319 233.35 238.229C235.15 237.589 236.99 236.859 236.95 234.579C236.9 232.099 236.67 229.729 234.68 227.679C230.86 223.739 226.04 222.559 220.92 221.939C220.42 221.879 219.86 222.189 219.42 221.729" stroke="#2071B5" stroke-width="4.20561" stroke-linecap="round" stroke-linejoin="round"/>
<path d="M413.5 223.45C415 220.59 414.41 219.45 412.07 216.33C408.45 211.5 403.52 210.59 398.08 210.6C395.6 210.6 393.09 210.37 390.8 211.67" stroke="#2071B5" stroke-width="4.20561" stroke-linecap="round" stroke-linejoin="round"/>
<path d="M64.58 312.119C60.71 312.639 59.35 316.289 59.67 318.969C60.11 322.639 63.98 326.789 67.58 327.539C70.9 328.229 73.61 325.449 73.6 321.539C73.6 318.299 72.44 315.829 69.52 314.239C67.99 313.409 66.47 312.609 64.8 312.119" stroke="#2071B5" stroke-width="4.20561" stroke-linecap="round" stroke-linejoin="round"/>
<path d="M300.83 117.85C300.83 123.42 300.83 128.99 300.83 134.56C300.83 135.44 300.9 136.33 300.4 137.13" stroke="#2071B5" stroke-width="4.20561" stroke-linecap="round" stroke-linejoin="round"/>
<path d="M250.5 195.601C249.73 193.481 250.02 191.331 250.29 189.171C250.63 186.431 251.29 183.791 253.11 181.461C248.87 179.111 244.8 176.891 240.64 174.851C238.17 173.631 235.87 172.131 233.38 170.941C232.32 170.431 232.43 168.981 233.59 167.981C236.31 165.621 239.53 163.971 242.66 162.341C244.33 161.471 246.71 162.391 248.82 163.161C254.53 165.241 259.66 168.531 265.28 170.751C265.56 170.861 265.44 171.261 265.71 171.391" stroke="#2071B5" stroke-width="4.20561" stroke-linecap="round" stroke-linejoin="round"/>
<path d="M232.08 298.41C231.76 303.62 231.8 308.83 232.05 314.05C232.22 317.61 232.06 321.19 232.1 324.76C232.1 325.47 231.84 326.23 232.3 326.9" stroke="#2071B5" stroke-width="4.20561" stroke-linecap="round" stroke-linejoin="round"/>
<path d="M306.62 260.5C306.13 265.99 306.54 271.5 306.4 276.99C306.38 277.8 306.58 278.64 305.97 279.35" stroke="#2071B5" stroke-width="4.20561" stroke-linecap="round" stroke-linejoin="round"/>
<path d="M202.95 236.729C202.98 237.719 202.9 238.56 203.99 239.35C209.08 243.06 214.69 244.569 220.95 244.279C224.31 244.129 227.5 243.769 230.61 242.359C232.32 241.589 233.71 240.409 235.29 239.509" stroke="#2071B5" stroke-width="4.20561" stroke-linecap="round" stroke-linejoin="round"/>
<path d="M271.921 200.74C270.161 206.32 270.101 212.11 269.781 217.88" stroke="#2071B5" stroke-width="4.20561" stroke-linecap="round" stroke-linejoin="round"/>
<path d="M259.06 85.9311C256.15 86.4311 254.27 90.5811 255.84 93.0011C257.01 94.8111 258.77 95.8711 260.78 96.1511C263.05 96.4611 265.43 96.3611 267.62 95.5411C270.88 94.3211 271.92 90.1911 269.77 87.4311C268.22 85.4411 264.82 83.9511 261.87 84.9111C261.15 85.1411 260.35 84.7411 259.67 85.4611C259.18 85.9711 259.4 86.0711 259.71 86.3611" stroke="#2071B5" stroke-width="4.20561" stroke-linecap="round" stroke-linejoin="round"/>
<path d="M379.66 236.301C380.16 237.241 380.38 238.261 380.29 239.301C379.89 244.161 380.54 249.011 380.53 253.871C380.51 262.871 380.14 271.861 380.3 280.861C380.33 282.431 380.3 284.001 380.3 285.571" stroke="#2071B5" stroke-width="4.20561" stroke-linecap="round" stroke-linejoin="round"/>
<path d="M183.24 147.411C183.59 153.551 183.41 159.691 183.45 165.831" stroke="#2071B5" stroke-width="4.20561" stroke-linecap="round" stroke-linejoin="round"/>
<path d="M380.94 258.361C384.43 257.761 388.07 261.131 389.11 265.641C389.59 267.711 389.48 269.781 389.51 271.861" stroke="#2071B5" stroke-width="4.20561" stroke-linecap="round" stroke-linejoin="round"/>
<path d="M252.42 215.31C251.64 215.86 251.78 216.68 251.78 217.45C251.78 226.16 251.78 234.87 251.78 243.58C251.78 244.64 251.94 245.64 252.43 246.58" stroke="#2071B5" stroke-width="4.20561" stroke-linecap="round" stroke-linejoin="round"/>
<path d="M260.35 390.091C255.99 392.261 251.93 394.961 247.71 397.371C246.49 398.071 245.34 398.901 244.07 399.511" stroke="#2071B5" stroke-width="4.20561" stroke-linecap="round" stroke-linejoin="round"/>
<path d="M102.7 293.27C110.03 296.82 117.18 300.73 124.47 304.55C125.4 304.05 126.6 303.73 127.54 302.91" stroke="#2071B5" stroke-width="4.20561" stroke-linecap="round" stroke-linejoin="round"/>
<path d="M162.03 264.571C161.2 266.471 162.47 268.111 163.21 269.441C165.33 273.251 167.96 276.781 170.38 280.421" stroke="#2071B5" stroke-width="4.20561" stroke-linecap="round" stroke-linejoin="round"/>
<path d="M342.81 237.371C341.51 237.111 340.73 238.151 339.84 238.701C334.54 241.941 329.12 244.961 323.77 248.121C312.08 255.031 300.57 262.231 288.85 269.091C288.49 269.301 288.04 269.601 287.98 270.141" stroke="#2071B5" stroke-width="4.20561" stroke-linecap="round" stroke-linejoin="round"/>
<path d="M343.03 198.169C337.1 201.159 331.67 204.989 325.89 208.239C323.59 209.529 321.27 210.799 319.25 212.529" stroke="#2071B5" stroke-width="4.20561" stroke-linecap="round" stroke-linejoin="round"/>
<path d="M132.26 313.84C127.65 316.19 123.25 318.93 118.55 321.12" stroke="#2071B5" stroke-width="4.20561" stroke-linecap="round" stroke-linejoin="round"/>
<path d="M236.79 287.061C236.7 285.761 238.17 285.511 238.58 284.441C237.78 282.151 236.83 279.931 234 279.601C232.27 279.391 230.59 279.841 229.32 281.101C228.8 281.621 228.49 282.501 229.09 283.201C229.77 283.991 229.88 284.821 229.26 285.551C228.61 286.321 227.65 286.491 226.72 285.991C225.63 285.411 224.92 284.521 225.01 283.221C225.16 281.111 227.21 278.941 229.72 278.301C232.95 277.471 236.09 277.441 238.93 279.571C242.63 282.341 242.49 285.921 238.48 288.111C237.55 288.621 237.66 289.311 237.64 290.071" stroke="#2071B5" stroke-width="4.20561" stroke-linecap="round" stroke-linejoin="round"/>
<path d="M113.84 272.5C113.21 273.12 113.42 273.91 113.42 274.64C113.41 277.57 113.42 280.49 113.42 283.42C113.42 285.93 112.9 286.72 110.63 287.47C110.24 287.6 109.78 287.49 109.35 287.49" stroke="#2071B5" stroke-width="4.20561" stroke-linecap="round" stroke-linejoin="round"/>
<path d="M264.421 144.189C264.421 147.759 264.421 151.329 264.421 154.899C264.421 155.629 264.62 156.419 264 157.039" stroke="#2071B5" stroke-width="4.20561" stroke-linecap="round" stroke-linejoin="round"/>
<path d="M137.4 284.919C136.77 285.539 136.98 286.329 136.98 287.059C136.97 290.559 136.98 294.059 136.98 297.559" stroke="#2071B5" stroke-width="4.20561" stroke-linecap="round" stroke-linejoin="round"/>
<path d="M283.911 217.021C283.351 221.151 283.501 225.301 283.481 229.441" stroke="#2071B5" stroke-width="4.20561" stroke-linecap="round" stroke-linejoin="round"/>
<path d="M87.2803 203.1C87.2803 203.24 87.2303 203.49 87.2803 203.51C91.2903 205.41 95.1103 207.71 99.2703 209.31" stroke="#2071B5" stroke-width="4.20561" stroke-linecap="round" stroke-linejoin="round"/>
<path d="M161.61 183.181C160.89 185.491 160.59 187.991 161.93 189.961C162.93 191.431 164.39 192.821 165.92 193.851C171.14 197.361 176.89 199.451 183.24 199.671" stroke="#2071B5" stroke-width="4.20561" stroke-linecap="round" stroke-linejoin="round"/>
<path d="M253.5 350.68C250.26 351.28 247.16 352.44 243.88 352.93C243.11 353.04 242.29 353.09 241.51 353.25" stroke="#2071B5" stroke-width="4.20561" stroke-linecap="round" stroke-linejoin="round"/>
<path d="M146.61 306.12C144.09 306.31 142.05 307.95 140.3 309.27C137.31 311.52 135.04 311.52 132.48 309.11C132.04 308.69 131.46 308.57 130.97 308.26" stroke="#2071B5" stroke-width="4.20561" stroke-linecap="round" stroke-linejoin="round"/>
<path d="M275.34 208.02C275.31 210.55 274.47 212.96 274.34 215.51C274.27 216.83 274.27 218.24 274.06 219.59" stroke="#2071B5" stroke-width="4.20561" stroke-linecap="round" stroke-linejoin="round"/>
<path d="M428.49 169.899C430.39 167.279 429.77 165.829 426.56 165.399C425.42 165.249 424.26 164.919 423.14 165.399C421.24 166.219 420.63 167.709 421 169.679" stroke="#2071B5" stroke-width="4.20561" stroke-linecap="round" stroke-linejoin="round"/>
<path d="M372.8 239.94C373.28 242.64 372.88 245.37 373.02 248.08C373.06 248.94 372.84 249.82 373.23 250.65" stroke="#2071B5" stroke-width="4.20561" stroke-linecap="round" stroke-linejoin="round"/>
<path d="M311.761 318.12C308.111 320.12 304.701 322.54 301.051 324.55" stroke="#2071B5" stroke-width="4.20561" stroke-linecap="round" stroke-linejoin="round"/>
<path d="M173.811 237.149C170.121 237.799 166.791 239.309 163.761 241.459C163.131 241.909 162.531 242.389 161.811 242.719" stroke="#2071B5" stroke-width="4.20561" stroke-linecap="round" stroke-linejoin="round"/>
<path d="M232.72 227.3C232.25 229.57 232.42 231.89 232.59 234.15C232.68 235.3 232.39 236.46 232.72 237.58" stroke="#2071B5" stroke-width="4.20561" stroke-linecap="round" stroke-linejoin="round"/>
<path d="M163.53 242.08C169.4 247.06 176.34 249.77 183.66 251.74C186.78 252.58 190.01 252.89 193.09 253.86" stroke="#2071B5" stroke-width="4.20561" stroke-linecap="round" stroke-linejoin="round"/>
<path d="M111.7 274.421C110.86 274.771 110.03 275.111 109.13 275.271C109.13 278.841 109.13 282.411 109.13 285.981C109.13 288.521 107.97 289.731 105.06 290.261" stroke="#2071B5" stroke-width="4.20561" stroke-linecap="round" stroke-linejoin="round"/>
<path d="M51.9404 320.479C55.3904 322.019 58.5904 323.969 61.5804 326.259" stroke="#2071B5" stroke-width="4.20561" stroke-linecap="round" stroke-linejoin="round"/>
<path d="M251.57 232.009C248.33 233.289 245.46 235.239 242.59 237.169C242.23 237.409 241.94 237.639 241.5 237.579" stroke="#2071B5" stroke-width="4.20561" stroke-linecap="round" stroke-linejoin="round"/>
<path d="M216.23 348.539C220.41 350.449 224.34 352.899 228.65 354.539" stroke="#2071B5" stroke-width="4.20561" stroke-linecap="round" stroke-linejoin="round"/>
<path d="M377.621 295.2C377.681 295.57 377.971 295.85 377.951 296.27C377.701 301.91 378.571 307.55 378.141 313.19C378.101 313.78 378.491 314.18 378.581 314.69" stroke="#2071B5" stroke-width="4.20561" stroke-linecap="round" stroke-linejoin="round"/>
<path d="M261.421 227.94C258.711 229.72 256.02 231.55 253.3 233.33C252.85 233.62 252.48 233.76 252 233.73" stroke="#2071B5" stroke-width="4.20561" stroke-linecap="round" stroke-linejoin="round"/>
<path d="M265.49 207.6V217.02" stroke="#2071B5" stroke-width="4.20561" stroke-linecap="round" stroke-linejoin="round"/>
<path d="M296.12 265.21C296.79 266.06 296.52 267.05 296.54 267.99C296.58 270.07 296.42 272.14 296.12 274.2" stroke="#2071B5" stroke-width="4.20561" stroke-linecap="round" stroke-linejoin="round"/>
<path d="M200.591 258.789C200.441 263.499 200.891 268.209 200.701 272.929" stroke="#2071B5" stroke-width="4.20561" stroke-linecap="round" stroke-linejoin="round"/>
<path d="M120.69 284.709C122.01 284.719 122.52 286.139 123.63 286.249C122.94 292.119 123.28 297.839 123.48 303.559" stroke="#2071B5" stroke-width="4.20561" stroke-linecap="round" stroke-linejoin="round"/>
<path d="M199.521 339.109C202.431 340.589 205.29 342.139 208.09 343.819" stroke="#2071B5" stroke-width="4.20561" stroke-linecap="round" stroke-linejoin="round"/>
<path d="M162.68 227.3V235.44" stroke="#2071B5" stroke-width="4.20561" stroke-linecap="round" stroke-linejoin="round"/>
<path d="M432.52 278.489C435.09 279.779 437.66 281.059 440.23 282.349" stroke="#2071B5" stroke-width="4.20561" stroke-linecap="round" stroke-linejoin="round"/>
<path d="M274.91 223.02C274.77 225.69 275.08 228.28 276.2 230.73" stroke="#2071B5" stroke-width="4.20561" stroke-linecap="round" stroke-linejoin="round"/>
<path d="M142.76 254.931C140.58 256.971 137.79 257.981 135.26 259.431" stroke="#2071B5" stroke-width="4.20561" stroke-linecap="round" stroke-linejoin="round"/>
<path d="M288.62 221.301C288.42 223.721 288.14 226.131 288.15 228.581C288.15 230.651 288.63 232.601 289.05 234.581" stroke="#2071B5" stroke-width="4.20561" stroke-linecap="round" stroke-linejoin="round"/>
<path d="M164.6 299.48C167.24 300.37 169.58 302.01 172.31 302.69" stroke="#2071B5" stroke-width="4.20561" stroke-linecap="round" stroke-linejoin="round"/>
<path d="M372.8 231.37C373.27 233.14 372.9 234.94 373.01 236.72C373.06 237.45 372.81 238.24 373.44 238.86" stroke="#2071B5" stroke-width="4.20561" stroke-linecap="round" stroke-linejoin="round"/>
<path d="M142.76 308.27C143.42 310.52 144.34 312.69 144.3 315.12C144.28 316.27 145.1 317.2 145.76 318.12" stroke="#2071B5" stroke-width="4.20561" stroke-linecap="round" stroke-linejoin="round"/>
<path d="M118.12 274.64C117.08 276.92 117.49 279.35 117.52 281.71C117.54 283.48 117.26 284.85 115.34 285.35" stroke="#2071B5" stroke-width="4.20561" stroke-linecap="round" stroke-linejoin="round"/>
<path d="M187.09 332.26C189.61 333.37 191.88 334.95 194.37 336.12" stroke="#2071B5" stroke-width="4.20561" stroke-linecap="round" stroke-linejoin="round"/>
<path d="M154.11 269.28C151.73 270.67 149.15 271.73 147.04 273.56" stroke="#2071B5" stroke-width="4.20561" stroke-linecap="round" stroke-linejoin="round"/>
<path d="M132.26 282.991C130.02 284.161 127.59 284.981 125.62 286.631" stroke="#2071B5" stroke-width="4.20561" stroke-linecap="round" stroke-linejoin="round"/>
<path d="M322.041 250.009C322.171 252.509 322.391 254.969 322.161 257.519C321.941 259.959 321.711 262.519 322.251 265.009" stroke="#2071B5" stroke-width="4.20561" stroke-linecap="round" stroke-linejoin="round"/>
<path d="M229.72 285.779C230.95 287.269 232.73 287.059 234.2 286.769C235.98 286.419 236.88 287.289 237.86 288.349" stroke="#2071B5" stroke-width="4.20561" stroke-linecap="round" stroke-linejoin="round"/>
<path d="M144.04 315.76C141.48 314.97 139.47 313.18 137.19 311.9" stroke="#2071B5" stroke-width="4.20561" stroke-linecap="round" stroke-linejoin="round"/>
<path d="M365.52 216.811C365.99 218.941 365.61 221.101 365.73 223.241" stroke="#2071B5" stroke-width="4.20561" stroke-linecap="round" stroke-linejoin="round"/>
<path d="M388.44 282.56C390.18 284.16 392.27 285.14 394.44 285.99" stroke="#2071B5" stroke-width="4.20561" stroke-linecap="round" stroke-linejoin="round"/>
<path d="M273.2 341.681C271.2 342.681 269.2 343.681 267.2 344.681" stroke="#2071B5" stroke-width="4.20561" stroke-linecap="round" stroke-linejoin="round"/>
<path d="M368.95 295.629C367.44 297.549 366.29 299.749 364.45 301.409" stroke="#2071B5" stroke-width="4.20561" stroke-linecap="round" stroke-linejoin="round"/>
<path d="M397.86 267.03C395.74 267.06 393.43 268.7 392.72 270.67" stroke="#2071B5" stroke-width="4.20561" stroke-linecap="round" stroke-linejoin="round"/>
<path d="M377.94 315.979C378.36 317.169 378.1 318.409 378.14 319.619C378.17 320.439 378.12 321.249 378.58 321.979" stroke="#2071B5" stroke-width="4.20561" stroke-linecap="round" stroke-linejoin="round"/>
<path d="M306.4 251.931C306.68 253.001 306.65 254.051 306.45 255.151C306.29 256.051 306.16 257.081 306.83 257.931" stroke="#2071B5" stroke-width="4.20561" stroke-linecap="round" stroke-linejoin="round"/>
<path d="M187.09 180.609C189.09 181.609 191.09 182.609 193.09 183.609" stroke="#2071B5" stroke-width="4.20561" stroke-linecap="round" stroke-linejoin="round"/>
<path d="M322.89 255.569C324.59 256.229 326.35 256.759 327.82 257.919C328.7 258.619 329.84 258.219 330.82 258.569" stroke="#2071B5" stroke-width="4.20561" stroke-linecap="round" stroke-linejoin="round"/>
<path d="M56.8601 209.95C54.7001 209.73 53.0701 208.21 51.0801 207.59" stroke="#2071B5" stroke-width="4.20561" stroke-linecap="round" stroke-linejoin="round"/>
<path d="M268.06 91.9294C267.79 91.7494 267.15 92.3494 267.2 91.4994C267.33 89.1594 266.44 87.7294 264.42 86.9994C263.09 86.5194 259.63 87.4994 259.12 88.7294C258.6 89.9694 259.19 91.2994 259.5 92.5594" stroke="#2071B5" stroke-width="4.20561" stroke-linecap="round" stroke-linejoin="round"/>
<path d="M319.471 313.41C317.671 314.27 316.131 315.55 314.331 316.41" stroke="#2071B5" stroke-width="4.20561" stroke-linecap="round" stroke-linejoin="round"/>
<path d="M63.29 315.761C64.77 316.271 66.32 316.031 67.86 316.911C69.4 317.791 69.98 318.731 70.14 320.261" stroke="#2071B5" stroke-width="4.20561" stroke-linecap="round" stroke-linejoin="round"/>
<path d="M200.59 276.57C200.01 277.38 200.13 278.21 200.33 279.15C200.5 279.96 200.55 280.88 200.16 281.71" stroke="#2071B5" stroke-width="4.20561" stroke-linecap="round" stroke-linejoin="round"/>
<path d="M377.94 323.261C378.82 324.971 377.9 326.691 377.94 328.401" stroke="#2071B5" stroke-width="4.20561" stroke-linecap="round" stroke-linejoin="round"/>
<path d="M334.89 236.301C334.53 238.011 334.59 239.731 334.89 241.441" stroke="#2071B5" stroke-width="4.20561" stroke-linecap="round" stroke-linejoin="round"/>
<path d="M334.46 242.29C334.62 244.56 336.3 245.09 338.1 245.5" stroke="#2071B5" stroke-width="4.20561" stroke-linecap="round" stroke-linejoin="round"/>
<path d="M379.23 216.811C380.05 217.991 379.8 219.351 379.89 220.661C379.99 222.301 379.49 224.001 380.31 225.591" stroke="#2071B5" stroke-width="4.20561" stroke-linecap="round" stroke-linejoin="round"/>
<path d="M162.03 257.071C161.5 258.311 161.62 259.621 161.59 260.931C161.57 261.731 161.83 262.601 161.17 263.291" stroke="#2071B5" stroke-width="4.20561" stroke-linecap="round" stroke-linejoin="round"/>
<path d="M174.461 192.821C174.021 194.451 174.35 196.111 174.25 197.751" stroke="#2071B5" stroke-width="4.20561" stroke-linecap="round" stroke-linejoin="round"/>
<path d="M162.68 236.729C162.78 238.369 162.45 240.029 162.89 241.659" stroke="#2071B5" stroke-width="4.20561" stroke-linecap="round" stroke-linejoin="round"/>
<path d="M417.35 257.069C416.22 256.909 415.43 257.619 414.56 258.139C413.95 258.499 413.51 259.239 412.63 258.999" stroke="#2071B5" stroke-width="4.20561" stroke-linecap="round" stroke-linejoin="round"/>
<path d="M379.44 226.66C379.89 228.4 380.06 230.05 379.3 231.83C378.95 232.65 378.94 233.88 379.65 234.8" stroke="#2071B5" stroke-width="4.20561" stroke-linecap="round" stroke-linejoin="round"/>
<path d="M406.22 236.079C404.77 237.259 404.12 239.079 402.79 240.359" stroke="#2071B5" stroke-width="4.20561" stroke-linecap="round" stroke-linejoin="round"/>
<path d="M395.08 286.63C396.74 287.11 397.84 288.66 399.58 288.99" stroke="#2071B5" stroke-width="4.20561" stroke-linecap="round" stroke-linejoin="round"/>
<path d="M394.65 252.359C393.39 253.569 392.54 255.099 391.44 256.429" stroke="#2071B5" stroke-width="4.20561" stroke-linecap="round" stroke-linejoin="round"/>
<path d="M347.1 321.759C345.78 322.729 344.26 323.439 343.03 324.539" stroke="#2071B5" stroke-width="4.20561" stroke-linecap="round" stroke-linejoin="round"/>
<path d="M240.641 310.191C239.051 310.781 238.321 312.621 236.571 312.971" stroke="#2071B5" stroke-width="4.20561" stroke-linecap="round" stroke-linejoin="round"/>
<path d="M184.52 360.101C184.09 360.051 183.73 360.201 183.46 360.521C183.85 361.941 183.6 363.381 183.67 364.811" stroke="#2071B5" stroke-width="4.20561" stroke-linecap="round" stroke-linejoin="round"/>
<path d="M61.5806 320.26C63.0106 320.71 64.1806 321.64 65.4406 322.39C66.8006 323.19 68.2106 323.45 69.5006 322.19" stroke="#2071B5" stroke-width="4.20561" stroke-linecap="round" stroke-linejoin="round"/>
<path d="M428.06 253.861C426.63 253.511 425.68 255.301 424.2 254.721" stroke="#2071B5" stroke-width="4.20561" stroke-linecap="round" stroke-linejoin="round"/>
<path d="M400.22 290.06C401.31 291.09 402.9 291.42 403.86 292.63" stroke="#2071B5" stroke-width="4.20561" stroke-linecap="round" stroke-linejoin="round"/>
<path d="M65.8602 313.189C63.6202 313.589 61.9602 316.129 62.6302 318.549C62.8002 319.169 63.4501 319.829 62.6401 320.469" stroke="#2071B5" stroke-width="4.20561" stroke-linecap="round" stroke-linejoin="round"/>
<path d="M257.35 92.3604C259.97 92.9104 262.49 93.8904 265.29 93.5004C266.12 93.3804 267.36 93.5603 267.85 94.7103" stroke="#2071B5" stroke-width="4.20561" stroke-linecap="round" stroke-linejoin="round"/>
<path d="M355.88 265.431C357.21 265.851 358.28 266.761 359.52 267.361" stroke="#2071B5" stroke-width="4.20561" stroke-linecap="round" stroke-linejoin="round"/>
<path d="M416.93 211.67C416.58 212.87 416.47 214.12 416.07 215.31" stroke="#2071B5" stroke-width="4.20561" stroke-linecap="round" stroke-linejoin="round"/>
<path d="M428.49 172.679C427.93 172.239 428.74 171.279 427.58 170.979C424.97 171.549 422.26 171.489 420.14 169.039" stroke="#2071B5" stroke-width="4.20561" stroke-linecap="round" stroke-linejoin="round"/>
<path d="M268.061 237.371C267.081 237.491 266.441 238.711 265.281 238.231" stroke="#2071B5" stroke-width="4.20561" stroke-linecap="round" stroke-linejoin="round"/>
<path d="M326.75 308.27C325.74 308.66 325.04 309.8 323.75 309.56" stroke="#2071B5" stroke-width="4.20561" stroke-linecap="round" stroke-linejoin="round"/>
<path d="M131.83 261.57C130.88 262.19 129.57 262.27 129.05 263.5" stroke="#2071B5" stroke-width="4.20561" stroke-linecap="round" stroke-linejoin="round"/>
<path d="M373.02 226.02C373.09 226.95 372.83 227.9 373.23 228.8" stroke="#2071B5" stroke-width="4.20561" stroke-linecap="round" stroke-linejoin="round"/>
<path d="M412.64 225.159C411.97 226.329 411.15 227.419 410.93 228.799" stroke="#2071B5" stroke-width="4.20561" stroke-linecap="round" stroke-linejoin="round"/>
<path d="M409.64 230.729C409.24 231.759 408.27 232.439 407.93 233.509" stroke="#2071B5" stroke-width="4.20561" stroke-linecap="round" stroke-linejoin="round"/>
<path d="M430.42 169.47C429.99 170.55 429.17 170.92 428.07 170.75C428.06 170.75 428.04 170.6 428.07 170.55C428.12 170.47 428.21 170.4 428.28 170.33" stroke="#2071B5" stroke-width="4.20561" stroke-linecap="round" stroke-linejoin="round"/>
<path d="M405.36 293.06C406.27 293.39 406.86 294.35 407.93 294.35" stroke="#2071B5" stroke-width="4.20561" stroke-linecap="round" stroke-linejoin="round"/>
<path d="M136.54 298.2C135.49 299.32 134.31 300.09 132.68 299.49" stroke="#2071B5" stroke-width="4.20561" stroke-linecap="round" stroke-linejoin="round"/>
<path d="M378.58 208.67C378.95 210.16 378.77 211.67 378.79 213.17" stroke="#2071B5" stroke-width="4.20561" stroke-linecap="round" stroke-linejoin="round"/>
<path d="M422.28 255.57C421.37 255.5 420.77 256.31 419.92 256.43" stroke="#2071B5" stroke-width="4.20561" stroke-linecap="round" stroke-linejoin="round"/>
<path d="M299.76 242.719C300.4 243.419 300.22 244.259 300.19 245.079" stroke="#2071B5" stroke-width="4.20561" stroke-linecap="round" stroke-linejoin="round"/>
<path d="M204.23 310.411C203.53 310.101 203.06 309.211 202.09 309.551" stroke="#2071B5" stroke-width="4.20561" stroke-linecap="round" stroke-linejoin="round"/>
<path d="M229.08 278.711C229.12 279.441 228.88 280.231 229.51 280.851" stroke="#2071B5" stroke-width="4.20561" stroke-linecap="round" stroke-linejoin="round"/>
<path d="M396.581 248.72L395.291 250.65" stroke="#2071B5" stroke-width="4.20561" stroke-linecap="round" stroke-linejoin="round"/>
<path d="M81.2803 202.031C81.0503 201.271 80.4503 201.161 79.7803 201.171" stroke="#2071B5" stroke-width="4.20561" stroke-linecap="round" stroke-linejoin="round"/>
<path d="M201.23 187.891C201.81 188.231 202.53 188.361 202.94 188.961" stroke="#2071B5" stroke-width="4.20561" stroke-linecap="round" stroke-linejoin="round"/>
<path d="M267.63 86.5811C267.25 87.1511 266.51 86.4411 266.13 87.0111" stroke="#2071B5" stroke-width="4.20561" stroke-linecap="round" stroke-linejoin="round"/>
<path d="M234.43 299.061C234.15 299.771 235 300.001 235.07 300.561" stroke="#2071B5" stroke-width="4.20561" stroke-linecap="round" stroke-linejoin="round"/>
<path d="M113.41 286.199C113.83 286.699 113.27 287.199 113.41 287.699" stroke="#2071B5" stroke-width="4.20561" stroke-linecap="round" stroke-linejoin="round"/>
<path d="M172.96 367.169V368.669" stroke="#2071B5" stroke-width="4.20561" stroke-linecap="round" stroke-linejoin="round"/>
<path d="M106.56 276.139H105.06" stroke="#2071B5" stroke-width="4.20561" stroke-linecap="round" stroke-linejoin="round"/>
<path d="M296.33 369.31V370.81" stroke="#2071B5" stroke-width="4.20561" stroke-linecap="round" stroke-linejoin="round"/>
<path d="M263.35 226.02V227.52" stroke="#2071B5" stroke-width="4.20561" stroke-linecap="round" stroke-linejoin="round"/>
<path d="M361.45 304.631C361.05 305.151 360.38 305.441 360.16 306.131" stroke="#2071B5" stroke-width="4.20561" stroke-linecap="round" stroke-linejoin="round"/>
<path d="M69.9299 320.689C68.6499 322.229 70.8799 322.299 70.9999 323.259" stroke="#2071B5" stroke-width="4.20561" stroke-linecap="round" stroke-linejoin="round"/>
<path d="M138.26 297.56C137.84 297.74 137.16 297.12 136.97 297.99" stroke="#2071B5" stroke-width="4.20561" stroke-linecap="round" stroke-linejoin="round"/>
<path d="M305.97 259.221C306.25 259.881 306.63 260.401 307.47 260.291" stroke="#2071B5" stroke-width="4.20561" stroke-linecap="round" stroke-linejoin="round"/>
<path d="M65 310.41C63.97 310.66 64.78 311.43 64.57 311.91" stroke="#2071B5" stroke-width="4.20561" stroke-linecap="round" stroke-linejoin="round"/>
<path d="M129.051 287.06C128.921 287.33 128.541 287.22 128.411 287.49" stroke="#2071B5" stroke-width="4.20561" stroke-linecap="round" stroke-linejoin="round"/>
</svg>
