<svg width="500" height="500" viewBox="0 0 500 500" fill="none" xmlns="http://www.w3.org/2000/svg">
<path d="M251.5 308.5C223.5 310.9 194.833 301.5 184 296.5C186 312 212.5 336 214.5 341.5C216.1 345.9 221.167 350.333 223.5 352C239.9 358.4 256.667 357.667 263 356.5C279.8 354.9 284.333 347.5 284.5 344L304 320C310.4 316.8 316 303 318 296.5C273.5 310.5 286.5 305.5 251.5 308.5Z" fill="#FFDA00" fill-opacity="0.7"/>
<path d="M275.64 390.88C278.85 392.12 278.26 392.15 281.35 393.65C288.7 397.2 296.25 400.3 303.66 403.71C306.19 404.87 308.78 405.86 311.22 407.28C317.15 410.74 317.47 418.48 312.81 422.85C309.97 425.52 306.69 427.37 303.21 428.97C295.31 432.61 287.47 436.39 279.5 439.88C273.42 442.54 267.59 445.8 261.27 447.83C255.32 449.74 249.15 449.95 243.07 448.31C235.58 446.3 228.86 442.42 221.9 439.16C212.86 434.92 204 430.31 194.98 426.02C192.59 424.88 190.72 423.23 189.28 421.01C186.27 416.37 187.95 410.17 192.69 407.3C196.52 404.99 200.7 403.56 204.79 401.87C212.34 398.74 219.6 395.03 226.66 390.93" stroke="#2071B5" stroke-width="4.21" stroke-linecap="round" stroke-linejoin="round"/>
<path d="M278.39 107.5C283.43 110.09 288.41 112.76 292.97 116.15C304.73 124.9 312.45 136.53 316.79 150.36C318.44 155.6 319.17 161.16 319.17 166.73C319.17 189.82 318.98 212.91 319.25 235.99C319.37 246.68 314.49 254.03 305.7 259.19C300.17 262.43 294.08 264.52 288.18 266.97C286.95 267.48 285.5 266.88 284.31 267.66" stroke="#2071B5" stroke-width="4.21" stroke-linecap="round" stroke-linejoin="round"/>
<path d="M277.93 107.27C274.13 105.64 270.27 104.19 266.33 102.89C262.81 101.73 259.19 101.39 255.6 101.2C249.98 100.9 244.32 100.9 238.75 102.03C233.87 103.02 229.18 104.6 224.63 106.59C219.24 108.94 214.06 111.72 209.39 115.28C198.11 123.88 189.43 134.43 185.18 148.27C183.28 154.46 182.07 160.68 181.98 167.19C181.81 179.72 181.75 192.25 181.84 204.78C181.87 208.19 182.07 211.62 181.96 215.03C181.93 216.03 181.59 216.92 180.25 217.64C174.34 220.83 168.45 224.09 163.77 229.13C158.4 234.91 156.68 241.49 158.27 249.21C159.74 256.32 164.33 260.97 169.71 265.15C177.25 271 185.78 274.9 194.77 277.91C198.43 279.13 202.07 280.44 205.93 280.87" stroke="#2071B5" stroke-width="4.21" stroke-linecap="round" stroke-linejoin="round"/>
<path d="M193.18 415.75C195.91 418.57 199.57 419.98 203.03 421.32C208.74 423.52 214.09 426.43 219.6 429C225.29 431.66 230.82 434.66 236.49 437.37C241.65 439.84 247.05 441.58 252.88 441.01C256.21 440.69 259.35 439.57 262.46 438.33C271.32 434.81 279.7 430.27 288.39 426.38C293.24 424.21 298.29 422.56 303.04 420.14C304.81 419.24 306.45 418.32 307.79 416.88" stroke="#2071B5" stroke-width="4.21" stroke-linecap="round" stroke-linejoin="round"/>
<path d="M185.43 302.29C188.06 309.35 191.81 315.61 197.21 321.04C202.9 326.77 208.13 332.96 213.02 339.41C214.22 341 214.73 342.69 214.86 344.66C215.19 349.7 216.31 354.54 219.63 358.55C222.26 361.74 225.9 363.41 229.63 364.96C235.62 367.46 241.88 368.55 248.32 369.09C252.14 369.41 255.96 369.38 259.71 368.96C267.52 368.09 275.24 366.64 280.89 360.36C283.54 357.41 284.89 353.87 285 349.89C285.06 347.48 285.51 345.13 286.19 342.84C286.39 342.16 286.39 341.61 286.15 341.01" stroke="#2071B5" stroke-width="4.21" stroke-linecap="round" stroke-linejoin="round"/>
<path d="M168.12 269.94C176.65 278.07 187.14 282.77 197.98 286.76C206.75 289.98 215.83 292.25 225.08 293.6C231.42 294.53 237.81 295.04 244.21 295.5C250.54 295.96 256.85 295.61 263.12 295.13C274.01 294.3 284.86 293.15 295.5 290.3C303 288.29 310.22 285.74 317.12 282.24C318.52 281.53 319.75 280.54 321.22 279.96" stroke="#2071B5" stroke-width="4.21" stroke-linecap="round" stroke-linejoin="round"/>
<path d="M157.41 248.53C156.96 250.73 157.19 252.93 157.4 255.14C157.66 257.87 157.26 260.59 157.35 263.34C157.71 273.96 162.01 282.35 170.61 288.65C180.82 296.12 192.34 300.3 204.56 303.03C212.86 304.89 221.23 306.34 229.64 307.48C236.12 308.36 242.67 308.6 249.22 308.78C255.09 308.94 260.94 308.71 266.76 308.36C275.52 307.83 284.22 306.58 292.73 304.33C299.19 302.62 305.56 300.62 311.87 298.41C318.05 296.24 324.16 293.85 329.63 290.2C336.42 285.66 341.82 279.88 343.95 271.76C345 267.77 345.3 263.7 344.85 259.45C344.48 255.94 343.91 252.39 344.15 248.75C344.81 238.71 340.04 231.26 332.16 225.51C329.01 223.21 325.64 221.27 322.12 219.63C321.43 219.31 321.02 218.67 320.32 218.45" stroke="#2071B5" stroke-width="4.21" stroke-linecap="round" stroke-linejoin="round"/>
<path d="M193.63 170.61C193.56 173.46 194.61 176.18 194.61 179.04C194.61 179.76 194.75 180.56 194.75 181.32C194.77 192.71 194.9 204.11 194.71 215.49C194.6 222.29 197.29 227.57 202.29 231.88C202.94 232.44 203.29 233.41 204.33 233.49" stroke="#2071B5" stroke-width="4.21" stroke-linecap="round" stroke-linejoin="round"/>
<path d="M170.17 77.8799C172.62 79.9099 175.59 81.0799 178.41 82.3599C188.01 86.7099 197.27 91.7399 206.84 96.1499C211.96 98.5099 216.96 101.13 222.1 103.45C223.36 104.02 224.58 104.83 225.54 105.91" stroke="#2071B5" stroke-width="4.21" stroke-linecap="round" stroke-linejoin="round"/>
<path d="M331.7 78.1099C322.6 83.3599 313.26 88.1499 303.91 92.9299C295.77 97.0999 287.76 101.5 279.77 105.94C279.24 106.24 278.52 106.22 278.16 106.82" stroke="#2071B5" stroke-width="4.21" stroke-linecap="round" stroke-linejoin="round"/>
<path d="M251.5 49.3999C251.12 50.2099 251.28 51.0699 251.28 51.9099C251.28 67.7799 251.28 83.6499 251.28 99.5299" stroke="#2071B5" stroke-width="4.21" stroke-linecap="round" stroke-linejoin="round"/>
<path d="M339.9 255.36C332.08 265.56 321.54 271.88 309.83 276.55C302.14 279.62 294.2 281.86 286.12 283.55C284.19 283.95 282.2 284.34 280.21 284.53" stroke="#2071B5" stroke-width="4.21" stroke-linecap="round" stroke-linejoin="round"/>
<path d="M205.94 269.71V281.26C220.68 284.01 235.37 285.25 250.14 285.65" stroke="#2071B5" stroke-width="4.21" stroke-linecap="round" stroke-linejoin="round"/>
<path d="M292.51 249.89C286.38 251.66 280.2 253.1 273.83 253.81C268.22 254.44 262.6 254.96 256.96 255.1C246.8 255.36 236.69 254.72 226.66 253.06C220.06 251.97 213.64 250.16 207.29 248.06" stroke="#2071B5" stroke-width="4.21" stroke-linecap="round" stroke-linejoin="round"/>
<path d="M317.8 298.42C316.86 300.39 316.53 302.56 315.74 304.57C313.72 309.67 310.7 314.21 307.04 318.2C300.24 325.62 293.69 333.26 287.05 340.81C286.85 341.04 286.5 340.97 286.36 341.26" stroke="#2071B5" stroke-width="4.21" stroke-linecap="round" stroke-linejoin="round"/>
<path d="M181.56 217.54C181.52 223.01 181.78 228.47 181.84 233.94C181.88 237.28 181.7 240.69 182.7 243.96C184.55 250.02 188.05 254.81 193.38 258.35C196.87 260.66 200.65 262.16 204.52 263.67C207.65 264.9 210.86 265.97 213.91 267.42" stroke="#2071B5" stroke-width="4.21" stroke-linecap="round" stroke-linejoin="round"/>
<path d="M286.59 228.02C262.7 235.01 238.86 234.39 215.05 227.56" stroke="#2071B5" stroke-width="4.21" stroke-linecap="round" stroke-linejoin="round"/>
<path d="M276.11 391.6C275.62 396.83 275.74 402.09 275.94 407.32C276.14 412.59 274.19 416.43 269.74 419.19C265.25 421.96 260.17 422.79 255.13 423.35C252.95 423.59 250.59 423.69 248.31 423.5" stroke="#2071B5" stroke-width="4.21" stroke-linecap="round" stroke-linejoin="round"/>
<path d="M215.05 320.52C219.88 322.07 224.85 322.97 229.86 323.71C238.32 324.96 246.84 325.43 255.37 325.03C263.9 324.63 272.39 323.77 280.66 321.44C280.94 321.36 281.26 321.43 281.57 321.43" stroke="#2071B5" stroke-width="4.21" stroke-linecap="round" stroke-linejoin="round"/>
<path d="M251.27 350.14C251.82 345.21 251.28 340.27 251.57 335.01C239.25 334.99 227.22 333.29 215.5 329.64" stroke="#2071B5" stroke-width="4.21" stroke-linecap="round" stroke-linejoin="round"/>
<path d="M287.04 237.36C279.53 240.09 271.7 241 263.8 241.72C259.77 242.09 255.75 242.16 251.72 242.15" stroke="#2071B5" stroke-width="4.21" stroke-linecap="round" stroke-linejoin="round"/>
<path d="M217.78 345.13C219 347.91 221.31 349.66 223.71 351.27C228.87 354.73 234.81 355.84 240.79 356.74C246.08 357.53 251.44 357.53 256.73 357.13C264.83 356.51 272.88 355.41 280 350.87C282.08 349.54 283.36 347.75 284.31 345.6" stroke="#2071B5" stroke-width="4.21" stroke-linecap="round" stroke-linejoin="round"/>
<path d="M285.68 330.55C281.99 331.2 278.44 332.46 274.74 333.05C269.38 333.91 264 334.69 258.57 334.88C256.29 334.96 254.02 335.22 251.74 335.11" stroke="#2071B5" stroke-width="4.21" stroke-linecap="round" stroke-linejoin="round"/>
<path d="M217.78 341.94C226.41 346.86 235.64 349.79 245.58 350.37C251.45 350.71 257.32 350.52 263.12 349.65C269.56 348.68 275.73 346.71 281.6 343.8C283.21 343 284.38 341.54 286.14 341.03" stroke="#2071B5" stroke-width="4.21" stroke-linecap="round" stroke-linejoin="round"/>
<path d="M284.76 221.64C280.86 222.25 277.06 223.34 273.16 224C268.69 224.77 264.21 225.27 259.7 225.48C251.94 225.85 244.18 225.77 236.47 224.81C230.46 224.06 224.5 222.97 218.7 221.18" stroke="#2071B5" stroke-width="4.21" stroke-linecap="round" stroke-linejoin="round"/>
<path d="M251.27 242.15C243.23 242.04 235.26 241.47 227.33 239.97C225.39 239.6 223.47 238.79 221.43 238.96" stroke="#2071B5" stroke-width="4.21" stroke-linecap="round" stroke-linejoin="round"/>
<path d="M241.02 94.0598C234.96 90.7598 229.43 86.5898 223.47 83.1398C219.51 80.8398 215.96 77.9098 211.86 75.8398" stroke="#2071B5" stroke-width="4.21" stroke-linecap="round" stroke-linejoin="round"/>
<path d="M315.75 298.65C312.08 306.12 306.14 311.26 298.89 315.06C296.9 316.1 295.05 317.39 292.75 317.84" stroke="#2071B5" stroke-width="4.21" stroke-linecap="round" stroke-linejoin="round"/>
<path d="M280.39 284.51C275.71 285.33 270.79 285.4 266.06 285.7C262.65 285.92 259.25 286.18 255.82 286.05C254.45 286 253.09 285.77 251.51 285.32V277.7" stroke="#2071B5" stroke-width="4.21" stroke-linecap="round" stroke-linejoin="round"/>
<path d="M291.37 75.1499C286.99 78.3399 282.4 81.2099 277.94 84.2699C273.18 87.5399 268.34 90.6799 263.35 93.5999" stroke="#2071B5" stroke-width="4.21" stroke-linecap="round" stroke-linejoin="round"/>
<path d="M294.66 416.73C302.1 415.79 298.81 407.29 293.72 407.71Z" fill="#FFDA00" fill-opacity="0.7"/>
<path d="M294.66 416.73C302.1 415.79 298.81 407.29 293.72 407.71" stroke="#2071B5" stroke-width="4.21" stroke-linecap="round" stroke-linejoin="round"/>
<path d="M293.3 407.7C289.52 408.19 289.07 410.34 289.07 412.76C289.34 415.86 291.33 417.18 294.47 416.73" fill="#FFDA00" fill-opacity="0.7"/>
<path d="M293.3 407.7C289.52 408.19 289.07 410.34 289.07 412.76C289.34 415.86 291.33 417.18 294.47 416.73" stroke="#2071B5" stroke-width="4.21" stroke-linecap="round" stroke-linejoin="round"/>
<path d="M251.89 437.48C259.33 436.54 256.04 428.04 250.95 428.46Z" fill="#FFDA00" fill-opacity="0.7"/>
<path d="M251.89 437.48C259.33 436.54 256.04 428.04 250.95 428.46" stroke="#2071B5" stroke-width="4.21" stroke-linecap="round" stroke-linejoin="round"/>
<path d="M250.53 428.45C246.75 428.94 246.3 431.09 246.3 433.51C246.57 436.61 248.56 437.93 251.7 437.48" fill="#FFDA00" fill-opacity="0.7"/>
<path d="M250.53 428.45C246.75 428.94 246.3 431.09 246.3 433.51C246.57 436.61 248.56 437.93 251.7 437.48" stroke="#2071B5" stroke-width="4.21" stroke-linecap="round" stroke-linejoin="round"/>
<path d="M208.75 415.04C216.19 414.1 212.9 405.6 207.81 406.02Z" fill="#FFDA00" fill-opacity="0.7"/>
<path d="M208.75 415.04C216.19 414.1 212.9 405.6 207.81 406.02" stroke="#2071B5" stroke-width="4.21" stroke-linecap="round" stroke-linejoin="round"/>
<path d="M207.39 406.02C203.61 406.51 203.16 408.66 203.16 411.08C203.43 414.18 205.42 415.5 208.56 415.05" fill="#FFDA00" fill-opacity="0.7"/>
<path d="M207.39 406.02C203.61 406.51 203.16 408.66 203.16 411.08C203.43 414.18 205.42 415.5 208.56 415.05" stroke="#2071B5" stroke-width="4.21" stroke-linecap="round" stroke-linejoin="round"/>
<path d="M281.57 210.71C278.69 210.71 276 211.81 273.15 212.15C267.76 212.79 262.4 213.45 256.97 213.44C256.06 213.44 255.15 213.44 254.24 213.44" stroke="#2071B5" stroke-width="4.21" stroke-linecap="round" stroke-linejoin="round"/>
<path d="M276.11 198.86C274.08 198.82 272.16 199.49 270.19 199.81C261.5 201.22 252.79 201.64 243.98 201.21C238.86 200.96 233.8 200.29 228.72 199.76C227.18 199.6 225.77 198.73 224.16 198.86" stroke="#2071B5" stroke-width="4.21" stroke-linecap="round" stroke-linejoin="round"/>
<path d="M250.13 213.9C249.54 212.89 248.6 213.51 247.85 213.48C240.86 213.15 233.93 212.43 227.1 210.79C225.89 210.5 224.57 210.16 223.25 210.26" stroke="#2071B5" stroke-width="4.21" stroke-linecap="round" stroke-linejoin="round"/>
<path d="M249.68 193.85C240.8 193.88 231.98 193.26 223.25 191.57" stroke="#2071B5" stroke-width="4.21" stroke-linecap="round" stroke-linejoin="round"/>
<path d="M251.5 274.95V248.7C247.88 248.04 244.2 248.43 240.56 248.1C235.23 247.61 229.83 247.71 224.61 246.26C224.33 246.18 224.01 246.25 223.7 246.25" stroke="#2071B5" stroke-width="4.21" stroke-linecap="round" stroke-linejoin="round"/>
<path d="M227.12 365.18C227.12 378.47 227.06 391.76 227.17 405.05C227.19 408 227.08 411.01 227.81 413.94" stroke="#2071B5" stroke-width="4.21" stroke-linecap="round" stroke-linejoin="round"/>
<path d="M276.56 269.03C276.7 268.28 276.39 267.97 275.65 268.12C271.06 269.03 266.41 269.21 261.75 269.51C255.21 269.93 248.69 269.85 242.15 269.53C236.7 269.27 231.33 268.58 225.98 267.66" stroke="#2071B5" stroke-width="4.21" stroke-linecap="round" stroke-linejoin="round"/>
<path d="M275.65 365.18C276.16 368.74 275.87 372.32 275.85 375.89C275.83 380.83 276.17 385.77 275.65 390.7" stroke="#2071B5" stroke-width="4.21" stroke-linecap="round" stroke-linejoin="round"/>
<path d="M277.02 274.5C271.81 275.33 266.56 275.56 261.3 275.92C258.11 276.14 254.9 275.81 251.73 276.32" stroke="#2071B5" stroke-width="4.21" stroke-linecap="round" stroke-linejoin="round"/>
<path d="M251.27 276.32C243.81 276.14 236.35 276.06 228.94 274.98C227.95 274.84 226.99 274.48 225.98 274.49" stroke="#2071B5" stroke-width="4.21" stroke-linecap="round" stroke-linejoin="round"/>
<path d="M343.77 253.99C341.77 263.37 335.26 269.45 328.27 275.16C328.13 275.27 321.58 279.9 321.35 279.9" stroke="#2071B5" stroke-width="4.21" stroke-linecap="round" stroke-linejoin="round"/>
<path d="M250.13 142.81C247.02 142.81 243.9 142.88 240.79 142.79C236.88 142.68 233.08 143.86 229.17 143.72" stroke="#2071B5" stroke-width="4.21" stroke-linecap="round" stroke-linejoin="round"/>
<path d="M189.53 305.94C195.53 311.54 202.5 315.57 210.03 318.7" stroke="#2071B5" stroke-width="4.21" stroke-linecap="round" stroke-linejoin="round"/>
<path d="M272.01 247.16C266.23 247.48 260.5 248.33 254.7 248.37C253.74 248.37 252.72 248.37 251.74 248.53" stroke="#2071B5" stroke-width="4.21" stroke-linecap="round" stroke-linejoin="round"/>
<path d="M266.99 418.03C267.69 411.81 267.36 405.58 267.47 399.35" stroke="#2071B5" stroke-width="4.21" stroke-linecap="round" stroke-linejoin="round"/>
<path d="M267.91 134.16C264.68 134.21 261.55 135.04 258.34 135.3C252.5 135.78 246.64 135.64 240.8 135.43C237.85 135.32 234.87 134.62 231.91 134.16" stroke="#2071B5" stroke-width="4.21" stroke-linecap="round" stroke-linejoin="round"/>
<path d="M267.91 369.28C268.25 379.01 267.28 388.72 267.45 398.44" stroke="#2071B5" stroke-width="4.21" stroke-linecap="round" stroke-linejoin="round"/>
<path d="M337.39 242.6C338.72 241.7 338.44 240.61 337.86 239.41C336.82 237.28 335.02 235.96 332.83 235.62C330.52 235.26 328.07 235.21 326.45 237.59C325.25 239.35 325.46 240.48 327.38 241.47C329.62 242.63 331.89 243.29 334.46 242.44C335.25 242.18 336.3 242.13 337.18 242.61" fill="#FFDA00" fill-opacity="0.7"/>
<path d="M337.39 242.6C338.72 241.7 338.44 240.61 337.86 239.41C336.82 237.28 335.02 235.96 332.83 235.62C330.52 235.26 328.07 235.21 326.45 237.59C325.25 239.35 325.46 240.48 327.38 241.47C329.62 242.63 331.89 243.29 334.46 242.44C335.25 242.18 336.3 242.13 337.18 242.61" stroke="#2071B5" stroke-width="4.21" stroke-linecap="round" stroke-linejoin="round"/>
<path d="M165.66 239.25C164.33 238.35 164.61 237.26 165.19 236.06C166.23 233.93 168.03 232.61 170.22 232.27C172.53 231.91 174.98 231.86 176.6 234.24C177.8 236 177.59 237.13 175.67 238.12C173.43 239.28 171.16 239.94 168.59 239.09C167.8 238.83 166.75 238.78 165.87 239.26" fill="#FFDA00" fill-opacity="0.7"/>
<path d="M165.66 239.25C164.33 238.35 164.61 237.26 165.19 236.06C166.23 233.93 168.03 232.61 170.22 232.27C172.53 231.91 174.98 231.86 176.6 234.24C177.8 236 177.59 237.13 175.67 238.12C173.43 239.28 171.16 239.94 168.59 239.09C167.8 238.83 166.75 238.78 165.87 239.26" stroke="#2071B5" stroke-width="4.21" stroke-linecap="round" stroke-linejoin="round"/>
<path d="M251.5 165.14V158.88C245.57 158.47 239.65 158.92 233.73 159.22" stroke="#2071B5" stroke-width="4.21" stroke-linecap="round" stroke-linejoin="round"/>
<path d="M251.5 166.51C250.59 167.63 249.51 166.65 248.54 166.68C244.05 166.79 239.59 167.44 235.1 167.42" stroke="#2071B5" stroke-width="4.21" stroke-linecap="round" stroke-linejoin="round"/>
<path d="M293.31 150.63C295.56 155.81 296.64 161.3 297.64 166.81" stroke="#2071B5" stroke-width="4.21" stroke-linecap="round" stroke-linejoin="round"/>
<path d="M251.5 309.13V325.08" stroke="#2071B5" stroke-width="4.21" stroke-linecap="round" stroke-linejoin="round"/>
<path d="M204.11 246.25C205.58 246.12 204.99 247.24 205 247.85C205.04 252.03 205 256.2 205.04 260.38C205.04 260.98 204.77 261.65 205.25 262.2" stroke="#2071B5" stroke-width="4.21" stroke-linecap="round" stroke-linejoin="round"/>
<path d="M181.33 259.46C186 262.27 190.69 265.05 195.91 266.75" stroke="#2071B5" stroke-width="4.21" stroke-linecap="round" stroke-linejoin="round"/>
<path d="M251.5 136.89V157.39" stroke="#2071B5" stroke-width="4.21" stroke-linecap="round" stroke-linejoin="round"/>
<path d="M252.41 158.76C257.96 158.69 263.51 158.68 269.04 159.25C272.62 159.62 276.17 160.21 279.75 160.59" stroke="#2071B5" stroke-width="4.21" stroke-linecap="round" stroke-linejoin="round"/>
<path d="M254.92 166.74C258.16 167.3 261.47 166.66 264.73 167.37C266.05 167.66 267.4 168.16 268.82 167.88" stroke="#2071B5" stroke-width="4.21" stroke-linecap="round" stroke-linejoin="round"/>
<path d="M205.48 204.33C205.09 206.53 205.37 208.73 205.45 210.94C205.56 214.05 205.48 217.17 205.48 220.28" stroke="#2071B5" stroke-width="4.21" stroke-linecap="round" stroke-linejoin="round"/>
<path d="M250.59 370.64C250.45 375.04 250.89 379.46 250.36 383.85" stroke="#2071B5" stroke-width="4.21" stroke-linecap="round" stroke-linejoin="round"/>
<path d="M206.85 290.9C207.83 292.22 207.24 293.8 207.46 295.24C207.86 297.97 208.6 300.65 208.67 303.43" stroke="#2071B5" stroke-width="4.21" stroke-linecap="round" stroke-linejoin="round"/>
<path d="M295.24 249.89V262.19" stroke="#2071B5" stroke-width="4.21" stroke-linecap="round" stroke-linejoin="round"/>
<path d="M294.79 291.81C295.02 295.32 294.01 298.78 294.33 302.29C294.36 302.61 294.2 302.77 293.88 302.75" stroke="#2071B5" stroke-width="4.21" stroke-linecap="round" stroke-linejoin="round"/>
<path d="M209.58 155.12C208.83 158.33 208.01 161.53 207.06 164.68C206.83 165.43 206.41 166.15 207.76 166.05" stroke="#2071B5" stroke-width="4.21" stroke-linecap="round" stroke-linejoin="round"/>
<path d="M251.5 296.83V307.77" stroke="#2071B5" stroke-width="4.21" stroke-linecap="round" stroke-linejoin="round"/>
<path d="M295.24 270.4V281.11" stroke="#2071B5" stroke-width="4.21" stroke-linecap="round" stroke-linejoin="round"/>
<path d="M251.5 357.66V368.37" stroke="#2071B5" stroke-width="4.21" stroke-linecap="round" stroke-linejoin="round"/>
<path d="M293.88 304.34C293.91 307.2 293.23 309.98 292.69 312.76C292.57 313.39 292.64 313.99 292.51 314.59" stroke="#2071B5" stroke-width="4.21" stroke-linecap="round" stroke-linejoin="round"/>
<path d="M232.39 417.57C235.4 419.31 238.52 420.74 242.02 421.16" stroke="#2071B5" stroke-width="4.21" stroke-linecap="round" stroke-linejoin="round"/>
<path d="M251.5 202.5V212.07" stroke="#2071B5" stroke-width="4.21" stroke-linecap="round" stroke-linejoin="round"/>
<path d="M251.5 214.81V224.38" stroke="#2071B5" stroke-width="4.21" stroke-linecap="round" stroke-linejoin="round"/>
<path d="M206.53 170.15C206.74 172.3 205.8 174.37 206.06 176.53C206.12 177.05 205.87 177.71 206.11 178.1C206.86 179.39 206.79 180.36 205.39 181.09C205 181.29 205.21 181.69 205.16 182" stroke="#2071B5" stroke-width="4.21" stroke-linecap="round" stroke-linejoin="round"/>
<path d="M254.92 142.59C257.87 143.11 260.85 142.68 263.81 142.82" stroke="#2071B5" stroke-width="4.21" stroke-linecap="round" stroke-linejoin="round"/>
<path d="M251.5 233.26V247.16" stroke="#2071B5" stroke-width="4.21" stroke-linecap="round" stroke-linejoin="round"/>
<path d="M209.13 305.48C209.42 309.39 210.1 313.24 210.72 317.1" stroke="#2071B5" stroke-width="4.21" stroke-linecap="round" stroke-linejoin="round"/>
<path d="M193.18 152.38C191.48 154.72 192.12 157.54 191.59 160.13" stroke="#2071B5" stroke-width="4.21" stroke-linecap="round" stroke-linejoin="round"/>
<path d="M210.95 318.7C211.73 320.84 211.77 323.12 212.27 325.32C212.43 326 212.6 326.68 212.77 327.36" stroke="#2071B5" stroke-width="4.21" stroke-linecap="round" stroke-linejoin="round"/>
<path d="M184.52 298.19C186.05 300.25 186.85 302.74 188.39 304.8" stroke="#2071B5" stroke-width="4.21" stroke-linecap="round" stroke-linejoin="round"/>
<path d="M251.05 119.58C251.71 124.81 251.45 130.06 251.51 135.3" stroke="#2071B5" stroke-width="4.21" stroke-linecap="round" stroke-linejoin="round"/>
<path d="M295.24 282.7C295.39 285.13 294.94 287.57 295.47 289.99" stroke="#2071B5" stroke-width="4.21" stroke-linecap="round" stroke-linejoin="round"/>
<path d="M251.5 225.97V231.67" stroke="#2071B5" stroke-width="4.21" stroke-linecap="round" stroke-linejoin="round"/>
<path d="M204.57 232.58V238.96" stroke="#2071B5" stroke-width="4.21" stroke-linecap="round" stroke-linejoin="round"/>
<path d="M251.5 351.96C251.65 353.63 251.2 355.32 251.73 356.97" stroke="#2071B5" stroke-width="4.21" stroke-linecap="round" stroke-linejoin="round"/>
<path d="M205.57 264.5C205.44 265.29 205.73 266.41 205.84 267.53C205.86 267.75 205.9 270.4 205.94 272.74" stroke="#2071B5" stroke-width="4.21" stroke-linecap="round" stroke-linejoin="round"/>
<path d="M306.18 169.93C306.25 172.78 305.2 175.5 305.2 178.36C305.2 179.08 305.06 179.88 305.06 180.64C305.04 192.03 304.91 203.43 305.1 214.81C305.21 221.61 302.52 226.89 297.52 231.2C296.87 231.76 296.52 232.73 295.48 232.81" stroke="#2071B5" stroke-width="4.21" stroke-linecap="round" stroke-linejoin="round"/>
</svg>
