<?xml version="1.0" encoding="UTF-8"?>
<svg id="icons" xmlns="http://www.w3.org/2000/svg" viewBox="0 0 500 500">
  <defs>
    <style>
      .cls-1 {
        fill: none;
        stroke: #000;
        stroke-linecap: round;
        stroke-linejoin: round;
        stroke-width: .99px;
      }
    </style>
  </defs>
  <path class="cls-1" d="M308.32,376.35c3.99-4.8,6.77-10.33,9.67-15.8,4.3-8.12,8.06-16.46,10.86-25.22,2.12-6.63,4.46-13.23,5.81-20.05.92-4.63,1.6-9.34,2.2-14.05,1.21-9.55,1.81-19.12,1.26-28.68-.53-9.25-1.15-18.51-2.72-27.71-1.21-7.09-2.61-14.08-4.55-21-1.42-5.07-3.18-10.02-5.3-14.79-4.83-10.91-10.29-21.47-16.91-31.47-8.35-12.59-17.86-24.11-28.99-34.31-8.79-8.05-18.49-14.9-28.7-20.95-10.57-6.26-21.88-10.9-33.83-13.88-6.89-1.72-13.91-2.62-21-3.01-3.38-.19-6.74-.57-10.14-.46-15.16.48-30.08,2.5-44.22,8.21-13.28,5.37-25.17,13.03-35.63,22.91-11.18,10.56-20.22,22.75-27.61,36.14-5.11,9.27-8.86,19.14-11.73,29.36-2.97,10.55-4.83,21.3-5.77,32.16-.91,10.5-.87,21.06-.21,31.63.48,7.76,1.79,15.37,3.16,22.96,1.24,6.87,3.33,13.58,5.23,20.32,3.99,14.09,10.1,27.21,17.51,39.7,5.28,8.9,11.76,17.01,18.63,24.82,11.29,12.83,24.24,23.62,38.9,32.26,11.13,6.55,22.99,11.62,35.55,14.91,5.86,1.54,11.74,2.82,17.79,3.54,5.6.67,11.21,1.12,16.82,1.08,13.23-.08,25.95-2.65,38.35-7.5,12.75-4.99,24.48-11.51,35.36-19.8,6.39-4.87,11.93-10.5,16.91-16.7,1.08-1.34,2.96-2.3,3.06-4.38"/>
  <path class="cls-1" d="M346.2,394.51c19.58-1.35,30.08-11.79,40.46-19.65,14.23-10.77,25.97-23.95,36.05-38.58,9.31-13.53,15.96-28.37,20.31-44.21,2.23-8.12,3.59-16.41,5.04-24.7,2.23-12.73,2.06-25.53,1.77-38.32-.13-5.94-1.19-11.88-2.05-17.81-1.74-11.95-4.58-23.62-8.3-35.06-2.61-8.01-5.69-15.86-9.27-23.52-4.99-10.67-10.4-21.08-17.34-30.63-10.16-13.98-21.37-26.89-35.29-37.39-11.11-8.38-23.06-15.17-35.66-20.9-7.56-3.43-15.44-6.18-23.49-8.07-6.04-1.42-12.21-2.41-18.5-2.73-4.04-.2-8.08-.39-12.12-.32-9.54.16-19.01,1.24-28.16,3.98-11.67,3.49-22.63,8.66-32.9,15.25-.69.44-1.56.67-1.48,1.74"/>
  <path class="cls-1" d="M352.16,299.98c.68-9.32.4-18.63.32-27.94-.07-7.95-.76-15.88-2.32-23.74-1.3-6.56-2.11-13.21-3.49-19.77-1.96-9.3-5.13-18.17-8.68-26.94-5.32-13.12-12.02-25.5-19.78-37.32-3.82-5.82-8.08-11.29-12.63-16.54-5.32-6.13-10.96-11.94-17.27-17.08-7.99-6.51-16.4-12.32-25.4-17.41-7.99-4.52-16.07-8.65-24.79-11.48-11.12-3.61-22.37-6.76-34.1-7.66-8.39-.64-16.82-.55-25.2-.16-6.64.31-13.35.78-19.78,2.84-.45.14-1,.11-1.47,0-4.87-1.11-9.03,1.24-13.34,2.76-3.83,1.35-7.68,3.04-11.01,5.11-5.81,3.61-11.91,6.79-17.45,10.9-17.56,13.02-31.69,29.13-42.92,47.77-5.64,9.36-10.72,19.06-13.91,29.62-3.86,12.77-6.73,25.72-7.95,39.05-.75,8.15-1.19,16.31-.86,24.47.24,5.87.97,11.73,1.86,17.56,1.31,8.56,3,17.03,4.95,25.46,2.86,12.32,7.07,24.16,12.43,35.56,5.98,12.73,13.34,24.62,22.16,35.65,9.54,11.92,20.11,22.73,32.16,32.12,2.39,1.86,4.69,4.12,7.1,5.66,3.01,1.92,6.31,3.63,9.47,5.46,11.01,6.4,22.64,11.27,34.86,14.83,5.05,1.47,10.18,2.45,15.32,3.5,8.43,1.71,16.94,2.09,25.47,2.1,6.6,0,13.24-.07,19.77-1.22,7.78-1.37,15.32-3.69,22.75-6.37,3.46-1.25,6.56-3.19,9.87-4.73,3.69-1.71,7.15-3.84,10.63-5.92,12.5-7.47,23.59-16.71,33.32-27.48,9.96-11.03,18.12-23.36,25.03-36.53,4.02-7.66,6.69-15.81,9.4-23.98,1.79-5.42,5.02-14.13,5.5-28.18"/>
  <path class="cls-1" d="M347.27,379.86c9.68-.26,12.21-3.56,14.98-5.17,6.34-3.68,12.21-7.99,17.98-12.46,5.45-4.22,10.55-8.88,15.3-13.86,8.26-8.65,15.31-18.26,21.29-28.63,5.32-9.21,9.32-18.95,12.46-29.13,2.95-9.58,5-19.32,6.25-29.21.75-5.95.73-12.01.88-18.03.17-6.7-.25-13.36-.83-20.02-.47-5.4-1.54-10.73-2.47-16.06-1.17-6.78-2.94-13.45-5-20-2-6.35-4.35-12.61-6.83-18.81-5.49-13.73-12.68-26.54-21.28-38.54-5.8-8.1-11.83-16.03-19-23.01-10.99-10.67-23.28-19.56-36.83-26.69-8.18-4.3-16.81-7.42-25.69-9.93-5.86-1.66-11.79-2.86-17.81-3.65-2.54-.33-5.1-.57-7.66-.81-5.77-.53-11.56-.75-17.3-.36-6.29.42-12.58.96-18.82,2.25-4.73.98-9.55,1.67-14.31,2.6-3.89.75-7.71,1.81-11.61,2.51-1.73.31-3.36.8-5.19.87-2.24.1-4.4,1.5-6.68,2.06-7.23,1.76-14.39,3.73-21.51,5.92-10.39,3.2-20.7,6.61-30.9,10.36-3.07,1.13-6.32,1.78-9.39,2.98-.67.26-1.38.4-1.72,1.13"/>
  <path class="cls-1" d="M173.37,243.38c-4.19-1.4-8.57-1.95-12.86-2.94-6.74-1.56-13.51-2.99-20.28-4.41-6.85-1.43-13.64-3.15-20.5-4.53-6.61-1.33-13.18-2.82-19.78-4.19-1.66-.34-3.32-.7-4.96-1.17-2.09-.59-5.19,1.29-6.48,3.85-1.56,3.1-2.43,6.32-2.86,9.68-.58,4.52-.52,9.09.03,13.58.96,7.81,2.98,15.38,5.8,22.77,2.23,5.83,5.06,11.25,8.7,16.3,1.59,2.2,3.4,4.23,5.5,5.86,3.03,2.36,6.38,2.26,10.12,1.15,7.11-2.11,13.96-4.93,20.98-7.26,4.65-1.54,9.17-3.45,13.84-4.95,7.23-2.34,14.08-5.67,21.26-8.16"/>
  <path class="cls-1" d="M241.59,295.28c3.6,3.42,5.13,8.02,7.19,12.35,5.68,11.91,11.05,23.96,16.77,35.85,4.73,9.83,9.24,19.77,13.95,29.61,1.47,3.08,2.39,6.25,2.73,9.45.35,3.29-.99,6.57-2.86,9.35-3.17,4.71-7.71,7.81-12.81,10.16-7.47,3.44-15.31,5.45-23.48,6.47-7.87.98-15.65.88-23.22-1.57-5.71-1.85-7.03-3.81-7.16-9.84-.24-10.89-1.02-21.75-1.58-32.62-.55-10.46-.99-20.93-1.42-31.39-.33-8.16-1-16.3-1.22-24.47"/>
  <path class="cls-1" d="M261.62,112.38c8.94-.31,17.61.9,24.21,1.01,11.7.2,23.4-.45,35.1.39,4.65.33,9.28.47,13.84,1.55,5.22,1.24,9.59,3.9,13.08,7.93,2.86,3.31,2.95,7.58,3.73,11.6,1.71,8.85,1.06,17.8.88,26.69-.18,8.82.03,17.65-.5,26.44-.67,11.22.04,22.42-.46,33.62-.23,5.11.02,10.22-.36,15.33-.22,2.94.14,5.93.43,8.89"/>
  <path class="cls-1" d="M210.94,110.9c-.71,1.73-.21,3.53.07,5.18,1.87,11.4,2.72,22.92,4.16,34.36.73,5.8,1.8,11.56,2.79,17.33,1.27,7.41,2.88,14.76,3.97,22.2.61,4.21.28,8.61,2.12,12.62-1.11,4.99,1.54,9.85.49,14.83"/>
  <path class="cls-1" d="M132.34,104.47c-1.9-.81-3.96-.9-5.93-.93-7.33-.12-14.67-.39-21.99-.65-7.83-.28-15.66-.73-23.48-.78-6.96-.04-12.81,2.6-15.82,9.54-1.23,2.85-1.44,5.89-1.45,8.9-.06,17.8-.03,35.59-.03,53.39,0,1.08.08,2.16-.25,3.21"/>
  <path class="cls-1" d="M210.45,111.89c-6.3.27-12.63.57-18.77,2.02-7.39,1.75-14.56,4.21-21.27,7.87-6.38,3.48-12.41,7.41-16.54,13.6-1.34,2.02-2.42,4.18-2.77,6.66-.1.73,0,1.27.2,2,2.01,7.25,5.19,14.05,8.03,20.97,5.81,14.13,11.45,28.34,18.27,42.02,2.34,4.69,4.82,9.32,7.88,13.61"/>
  <path class="cls-1" d="M173.62,243.63c-2.39,7.6-3.11,15.26-2.07,23.25,1.13,8.63,4.06,16.44,9.04,23.43,4.98,7,11.28,12.57,19.49,15.59,9.7,3.57,19.4,3.2,28.63-1.28,12.66-6.14,19.41-16.94,22.55-30.33.94-4.01,1.27-8.06.92-12.11-.99-11.53-4.74-21.98-12.02-31.19-5.19-6.56-11.66-11.52-19.15-14.63-8.61-3.57-17.67-3.68-26.38.58-10.25,5.01-16.26,13.56-19.97,23.99-.3.85-1.12,1.46-1.04,2.45"/>
  <path class="cls-1" d="M62.89,323.95c.44,2.12.51,4.26.51,6.43-.02,15.24-.09,30.48.04,45.72.03,4.2-.12,8.43.26,12.6.85,9.38,6.72,14.45,15.02,16.32,4.31.97,8.73,1.06,13.1,1.45,7.57.68,15.14,1.36,22.73,1.79,4.21.24,8.41.63,12.61.95,1.05.08,2-.4,2.97-.73"/>
  <path class="cls-1" d="M154.09,286.38c2.45,6.63,5.89,12.78,9.12,19.04,5.15,9.98,11.88,18.79,19.25,27.22,7.67,8.77,16.45,16.24,25.57,23.36.65.51.78,1.05,1.17,1.56"/>
  <path class="cls-1" d="M157.95,161.7c-15.13,19.64-15.02,31.11-16.35,39.44-.38,2.39-.43,4.94-.69,7.39-.96,9.05-.73,18.13-1.16,27.2"/>
  <path class="cls-1" d="M310.05,181.34c-7.03,5.65-14.68,10.45-21.8,16-8.53,6.64-17.2,13.1-25.66,19.83-4.34,3.46-8.33,7.31-12.36,11.13"/>
  <path class="cls-1" d="M334.77,258.7c-12.04,1.73-24.03,3.77-36.08,5.44-6.34.88-12.66,1.84-19.03,2.52-5.93.63-11.9.53-17.8,1.43"/>
  <path class="cls-1" d="M351.51,308.36c-.28,9.11-4.77,73.09-5.13,80.34-.43,8.57.02,17.14-.32,25.7-.13,3.37.48,6.72-.33,10.16-1.51,6.39-6.62,9.9-12.93,9.83-9.2-.11-18.31-1.45-27.43-2.49-6.26-.71-12.53-1.4-18.79-2.17-7.82-.96-15.68-1.54-23.48-2.69-.55-.08-1.05-.14-1.48-.51"/>
  <path class="cls-1" d="M347.37,184.06c-.73-2.97-.19-5.98.1-8.89.77-7.65-.15-15.18-.85-22.75-.53-5.77-.9-11.56-1.72-17.3-.71-4.94-3.16-8.47-8.15-9.89"/>
  <path class="cls-1" d="M265.74,214.1c-1.77-5.36-7.6-8.87-10.2-10.2-5.86-3-8.67-4.77-15.32-5.07-4.42-.2-9.72,1.5-15.44,3.28-.2.06-.33.32-.5.48"/>
  <path class="cls-1" d="M276.26,140.27c-14.69-9.09-56.9-14.55-63.36-12.8"/>
  <path class="cls-1" d="M277.92,267.35c-.78,2.5-.74,5.17-1.51,7.65-2.47,7.96-7.71,13.64-14.79,17.82-4.56,2.69-9.5,4.39-14.6,5.63-.69.17-1.39.2-1.97.66"/>
  <path class="cls-1" d="M281.13,375.36c3.3.08,6.61-.28,9.88.27,2.71.45,5.44.17,8.17.41,2.87.25,5.77.17,8.65.56"/>
  <path class="cls-1" d="M323.4,137.59c.78,2.72,1.55,5.31,4.68,6.47,3.69,1.37,7.48-.93,8.63-3.77,1.41-3.48-.87-7.96-4.41-9.13-3.31-1.09-7.47,1.34-8.38,4.95-.12.46-.06.94-.52,1.23"/>
  <path class="cls-1" d="M179.55,276.99c2.38,5.55,4.72,11.13,9.89,14.83"/>
  <path class="cls-1" d="M261.36,268.09h-8.65"/>
  <path class="cls-1" d="M250.62,227.94c-1.29,1.09-4.66,4.81-5.82,6.05"/>
  <path class="cls-1" d="M76.49,377.34c-1.47.69-2.8,1.52-3.73,2.95-1.77,2.74-.91,6.58,2,8.42,3.08,1.94,7,1.08,8.9-1.98,1.12-1.81,1.55-3.73.48-5.67-1.22-2.19-2.87-3.86-5.66-3.72-.58.03-1.15,0-1.73,0"/>
  <path class="cls-1" d="M208.47,255.74c-2.91,1.09-5.37,4.49-5.19,7.17.19,2.91,2.25,5.75,4.7,6.15,2.85.47,5.42-.46,7.1-2.74,1.49-2.02,1.77-4.36.61-6.9-1.24-2.7-3.22-3.71-5.99-3.68-.33,0-.66,0-.99,0"/>
  <path class="cls-1" d="M207.48,241.4c-7.83,1.91-12.9,6.57-15.66,14.3-3.26,9.14,1.19,19.88,7.48,24.29,6.32,4.43,12.96,5.59,19.76,1.87,8.43-4.61,12.32-12.24,11.29-21.67-.99-8.98-5.64-15.74-15.46-18.53-2.33-.66-4.77-.16-7.16-.27"/>
  <path class="cls-1" d="M329.58,408.48c-4.21,2.01-5.42,3.93-4.7,7.41.74,3.59,3.56,5.89,6.92,5.41,3.1-.45,5.88-3.35,5.41-6.64-.61-4.3-2.45-5.61-6.4-6.18-.32-.05-.66,0-.99,0"/>
  <path class="cls-1" d="M76.98,113.87c-1.74.74-3.13,1.88-4.21,3.45-2.85,4.12.75,9.25,4.47,9.82,3.84.58,6.37-.03,7.9-4.62,1.33-3.98-1.8-8.58-5.94-8.65-.66-.01-1.32,0-1.98,0"/>
</svg>