<svg width="500" height="500" viewBox="0 0 500 500" fill="none" xmlns="http://www.w3.org/2000/svg">
<path d="M58.1903 351.116V317.81C55.5951 322.135 50.0585 332.516 48.6743 339.437C47.2902 346.358 54.4416 350.106 58.1903 351.116Z" fill="#FFDA00" fill-opacity="0.7"/>
<path d="M102.301 343.739L99.0287 341.012C95.7566 344.466 88.776 352.246 87.0308 355.736C84.8494 360.099 82.1226 381.914 93.0298 393.911C101.755 403.51 113.026 400.456 117.571 397.729V389.549C111.39 389.549 97.8289 386.713 93.0298 375.369C88.2306 364.026 97.2108 349.556 102.301 343.739Z" fill="#FFDA00" fill-opacity="0.7"/>
<path d="M187.734 345.055C180.932 345.481 176.751 337.084 175.511 332.832C252.379 299.865 408.044 233.127 415.76 229.912C423.476 226.697 420.939 209.105 418.707 200.711C423.735 203.653 434.109 210.92 435.384 216.447C436.979 223.356 429.538 235.579 421.035 244.082C412.532 252.585 196.237 344.524 187.734 345.055Z" fill="#FFDA00" fill-opacity="0.7"/>
<path d="M167.672 188.042C162.798 181.869 152.916 185.47 148.584 188.042C150.073 192.781 152.158 205.587 148.584 218.908C145.01 232.229 130.308 241.516 123.403 244.495C124.757 247.744 128.846 254.973 134.369 257.897C141.273 261.552 158.331 258.303 171.327 237.184C184.323 216.065 173.764 195.759 167.672 188.042Z" fill="#FFDA00" fill-opacity="0.7"/>
<path d="M84.8997 274.68C84.1697 294.96 84.4497 315.24 84.5097 335.52C84.5297 342.55 84.4197 349.6 84.7397 356.62C85.0297 362.94 84.4797 369.22 84.4697 375.51C84.4497 384.16 87.5697 390.91 94.3397 395.39C100.8 399.66 107.5 400.65 114.55 397.35C127.3 391.37 140.1 385.5 153.02 380.03C167.27 373.99 181.51 367.91 195.82 362.02C205.73 357.94 215.61 353.74 225.48 349.53C241.16 342.85 256.88 336.29 272.51 329.48C287.28 323.04 302.09 316.71 316.89 310.37C327.53 305.81 338.21 301.35 348.87 296.86C358.37 292.87 367.83 288.71 377.27 284.54C389.78 279.02 402.41 273.87 414.82 268.06C427.43 262.16 437.04 252.67 443.19 238.88C446.32 231.85 448.69 224.61 449.54 216.78C450.34 209.42 450.13 202.1 448.39 194.96C446.73 188.15 442.65 183.35 437.22 180C431.13 176.25 424.83 173 418.36 170.12C414.41 168.36 410.43 168.44 406.73 170.02C394.91 175.06 383.01 179.86 371.11 184.64C360.19 189.02 349.31 193.53 338.41 197.97C330.77 201.08 323.15 204.26 315.52 207.39C304.28 211.99 292.97 216.39 281.72 220.96C270.79 225.4 259.93 230.05 248.98 234.43C241.44 237.45 233.92 240.57 226.35 243.49C226.05 243.61 225.92 243.84 225.7 244" stroke="#2071B5" stroke-width="4.20561" stroke-linecap="round" stroke-linejoin="round"/>
<path d="M185.07 299.7C191.71 296.55 198.44 293.71 205.25 291.02C210.2 289.07 215.09 286.86 219.98 284.69C233.19 278.84 246.48 273.24 259.75 267.55C271.11 262.68 282.41 257.64 293.79 252.81C304.38 248.31 315.05 244.06 325.64 239.55C336.96 234.73 348.3 229.96 359.69 225.34C371.45 220.57 383.13 215.55 394.82 210.58C401.06 207.93 407.23 205.05 413.53 202.62C417.51 201.09 421.37 201.21 425.68 203.02C430.2 204.92 432.56 208.17 433.85 212.64C435.2 217.3 434.33 222.05 432.83 226.59C429.71 236.09 423.46 242.35 415.94 247.49C409.31 252.02 401.94 254.56 394.81 257.69C383.9 262.48 372.91 267.04 361.91 271.58C353.96 274.86 346.04 278.3 338.11 281.67C330.11 285.07 322.05 288.38 314.02 291.71C305.7 295.16 297.43 298.8 289.15 302.35C284.14 304.5 279.14 306.7 274.03 308.59C269.88 310.12 265.79 311.93 261.74 313.77C254.74 316.96 247.62 319.82 240.63 323.02C231.13 327.37 221.49 331.32 211.88 335.35C206.3 337.68 200.79 340.21 195.15 342.34C189.49 344.48 183.85 345.17 178.44 340.97C174.42 337.85 172.91 333.39 172.37 328.4C171.63 321.62 172.59 314.96 173.76 308.27C174.79 302.36 176.56 296.93 179.35 291.85" stroke="#2071B5" stroke-width="4.20561" stroke-linecap="round" stroke-linejoin="round"/>
<path d="M200.45 181.2C198.91 179.8 198.06 177.8 196.95 176.04C192.43 168.87 187.65 161.95 181.1 156.95C173.63 151.25 165.29 148.94 156.3 150.33C150.21 151.27 144.69 154.13 139.61 157.92C124.82 168.95 113.21 183.21 104.86 200.81C101.88 207.1 99.4301 213.67 98.0001 220.49C96.1001 229.54 95.2601 238.78 96.4801 248.19C97.8701 258.98 100.63 269.01 106.86 277.63C112.83 285.87 120.51 290.2 129.93 291.43C140.54 292.82 149.22 288.62 157.45 281.63C165.17 275.07 172.12 267.75 178.03 259.21C182.23 253.14 186.26 246.97 189.08 239.87C192.24 231.92 194.5 223.81 195.01 215.07C195.42 208.21 194.98 201.46 193.15 194.97C189.7 182.77 182.8 174.32 171.24 171.4C169.86 171.05 168.52 170.45 167.07 170.66" stroke="#2071B5" stroke-width="4.20561" stroke-linecap="round" stroke-linejoin="round"/>
<path d="M204.4 157.409C196.46 148.379 186.91 142.519 176.07 138.969C167.26 136.079 158.45 135.359 149.48 137.779C141.24 139.999 133.9 144.249 127.06 149.779C115.02 159.509 105.38 171.699 97.93 185.919C90.44 200.209 85.89 215.749 84 232.239C83.46 236.969 82.99 241.719 82.97 246.469C82.92 255.689 84.12 264.719 86.88 273.459C90.45 284.749 96.62 293.579 106.22 299.209C112.62 302.969 119.37 305.299 126.64 305.889C134.89 306.559 142.93 305.599 150.8 302.879C156.1 301.049 160.9 298.079 165.3 294.309" stroke="#2071B5" stroke-width="4.20561" stroke-linecap="round" stroke-linejoin="round"/>
<path d="M418.35 202.06C420.53 206.38 420.47 211.1 420.08 215.8C419.28 225.38 414.61 231.88 406.93 235.93C397.49 240.91 387.61 244.65 377.89 248.82C363.94 254.8 349.97 260.75 335.99 266.64C323.31 271.99 310.6 277.27 297.98 282.81C285.51 288.29 272.95 293.48 260.4 298.71C249.33 303.32 238.27 307.97 227.26 312.77C217.13 317.18 206.85 321.12 196.68 325.37C189.71 328.28 182.55 330.68 175.41 333.07" stroke="#2071B5" stroke-width="4.20561" stroke-linecap="round" stroke-linejoin="round"/>
<path d="M428.01 176.541C422.06 178.641 416.2 181.071 410.47 183.741C396.83 190.091 382.94 195.691 369.12 201.501C355.96 207.031 342.86 212.751 329.64 218.121C320.06 222.011 310.51 226.031 301.05 230.271C287.37 236.401 273.54 242.121 259.75 247.931C255.68 249.651 251.72 251.651 247.47 252.931C241.26 254.811 235.56 253.441 230.12 250.341C223.48 246.561 219.9 240.001 217.78 232.241C215.98 225.661 215.08 218.981 215.61 212.121C215.96 207.691 216.87 203.461 219.74 200.071C220 199.761 220.46 199.271 220.21 198.631" stroke="#2071B5" stroke-width="4.20561" stroke-linecap="round" stroke-linejoin="round"/>
<path d="M215.62 169.919C214.92 163.039 210.36 158.559 206.15 153.979C200.54 147.859 194.53 142.279 187.93 137.529C184 134.709 179.72 132.619 175.68 130.069C172.43 128.009 169.36 125.579 165.96 123.799C155.02 118.089 143.64 115.369 131.47 116.869C119.48 118.339 108.95 123.429 99.1603 131.109C84.6503 142.499 74.8403 157.999 67.3703 175.569C62.6303 186.719 60.1803 198.589 59.1803 210.879C58.4003 220.519 58.4403 230.169 58.3103 239.829C57.8703 274.749 58.2303 309.669 58.1203 344.589C58.1003 350.459 58.3903 356.339 59.8903 361.999C61.8703 369.469 65.7203 375.489 71.9803 379.109C75.5203 381.159 79.0403 383.299 82.6903 385.119C83.7203 385.629 84.6603 386.109 85.7903 386.049" stroke="#2071B5" stroke-width="4.20561" stroke-linecap="round" stroke-linejoin="round"/>
<path d="M124.88 243.76C132.81 241.59 138.82 236.33 143.79 229.3C146.57 225.37 148.95 221.14 150.52 216.5C153.13 208.77 154.39 200.91 150.84 192.95C149.49 189.93 147.17 189.16 144.4 190.95C134.19 197.57 127.6 207.47 123.37 219.48C120.17 228.57 120.21 237.57 124.39 246.48C128.9 256.09 137.06 259.71 146.18 257.25C158.2 254.01 167.03 246.04 173.41 234.43C177.94 226.19 179.74 217.2 178.17 207.71C176.96 200.36 174.39 193.58 168.58 189.06C162.81 184.58 156.71 183.51 149.89 186.03C143.94 188.23 138.93 191.8 134.53 196.65C133.99 197.24 133.45 197.79 133.22 198.62" stroke="#2071B5" stroke-width="4.20561" stroke-linecap="round" stroke-linejoin="round"/>
<path d="M191.22 179.489C191.82 176.529 191.52 173.769 189.68 171.399C184.43 164.629 177.73 160.679 169.91 159.159C157.34 156.709 146.27 161.169 136.11 168.979C126.91 176.049 119.38 185.099 113.31 195.479C107.38 205.609 103.3 216.749 101.9 228.809C100.66 239.509 101.11 250.159 104.65 260.459C108.51 271.679 115.44 279.369 125.56 283.199C131.12 285.299 136.98 285.259 142.66 283.699C150.52 281.549 157.91 278.069 164.18 272.189C168.85 267.819 172.92 262.769 176.5 257.249" stroke="#2071B5" stroke-width="4.20561" stroke-linecap="round" stroke-linejoin="round"/>
<path d="M174.09 129.69C171.31 129.69 168.72 128.49 165.97 128.14C162.38 127.67 158.79 126.98 155.2 127.3C150.16 127.75 145.15 128.42 140.24 130.11C134.79 131.98 129.58 134.41 124.69 137.59C116.7 142.79 109.25 148.89 102.96 156.48C91.7999 169.96 83.0499 185.13 78.0999 202.81C75.7099 211.36 74.3999 220.1 73.8699 229.06C73.2599 239.37 73.3699 249.68 73.5499 259.97C73.7699 272.81 73.4899 285.65 73.7299 298.49C73.9299 309.2 73.8799 319.92 74.0799 330.63C74.3399 344.36 74.1099 358.11 74.1699 371.84C74.1799 374.6 74.7599 377.31 76.1499 379.66C76.4899 380.24 76.5699 380.61 76.3299 381.16" stroke="#2071B5" stroke-width="4.20561" stroke-linecap="round" stroke-linejoin="round"/>
<path d="M164.86 259.959C166.36 259.269 167.5 258.049 168.59 256.769C174.04 250.379 178.89 243.499 182.2 235.429C185.14 228.269 186.89 220.769 187.28 212.869C187.77 203.139 185.96 194.029 181.52 185.649C178.46 179.879 174.64 174.719 168.57 172.949C160.64 170.629 152.92 171.489 145.74 176.309C137.2 182.049 130.11 189.499 124.44 198.639" stroke="#2071B5" stroke-width="4.20561" stroke-linecap="round" stroke-linejoin="round"/>
<path d="M133.45 124.29C127.3 125.03 121.5 127.05 115.86 129.89C109.88 132.91 104.43 136.84 99.4299 141.5C91.4499 148.94 85.2999 158.13 79.8399 167.95C73.5699 179.23 69.2499 191.44 66.5499 204.29C65.1699 210.84 64.3499 217.59 64.2599 224.38C64.2399 226.12 63.5399 227.77 63.8099 229.53" stroke="#2071B5" stroke-width="4.20561" stroke-linecap="round" stroke-linejoin="round"/>
<path d="M124.44 195.68C121.63 200.47 118.59 205.1 116.53 210.4C114.33 216.06 112.7 221.86 112.06 228.06C111.69 231.68 111.53 235.29 111.76 238.86C112.42 248.99 114.87 258.43 121.59 265.84C125.02 269.63 129.32 271.59 133.88 272.96" stroke="#2071B5" stroke-width="4.20561" stroke-linecap="round" stroke-linejoin="round"/>
<path d="M159.81 300.19C159.18 304.2 159.83 308.21 159.9 312.21C159.96 315.47 160.04 318.76 160.2 322.03C160.69 332 160.85 341.99 161.32 351.96C161.49 355.63 161.51 359.34 160.91 363" stroke="#2071B5" stroke-width="4.20561" stroke-linecap="round" stroke-linejoin="round"/>
<path d="M134.55 360.3C136.28 351.59 130.33 347.62 123.79 347.29C117.36 346.97 112.87 350.65 109.3 356.13C105.44 362.06 104.03 368.88 104.81 375.98C105.24 379.9 106.69 383.83 110.38 385.84C110.86 386.1 111.28 385.93 111.71 386.05" stroke="#2071B5" stroke-width="4.20561" stroke-linecap="round" stroke-linejoin="round"/>
<path d="M150.58 305.591C152.52 307.871 152.93 310.761 152.96 313.691C152.99 316.561 153.22 319.411 153.21 322.281C153.16 331.441 153.57 340.601 153.46 349.761C153.44 351.811 153.3 353.851 153.18 355.891C152.93 360.151 150.72 363.291 147.72 363.991" stroke="#2071B5" stroke-width="4.20561" stroke-linecap="round" stroke-linejoin="round"/>
<path d="M145.97 306.079C146.96 324.059 146.14 342.059 146.41 360.049" stroke="#2071B5" stroke-width="4.20561" stroke-linecap="round" stroke-linejoin="round"/>
<path d="M124 345.819C122.13 343.139 119.99 340.679 117.38 339.009C113.44 336.489 108.94 336.729 104.44 340.399C97.1801 346.309 93.5001 354.309 92.7901 364.219C92.4501 368.899 92.7001 373.499 94.6201 377.689C97.1701 383.249 100.36 388.279 106.22 389.959C109.18 390.809 112.14 390.729 115.02 389.289C115.59 389.009 116.26 388.599 116.98 388.749" stroke="#2071B5" stroke-width="4.20561" stroke-linecap="round" stroke-linejoin="round"/>
<path d="M163.98 258.97C158.61 263.77 153.01 267.96 146.21 270.09C136.74 273.06 128.79 270.5 121.8 263.15C121.54 262.87 121.39 262.4 120.93 262.41" stroke="#2071B5" stroke-width="4.20561" stroke-linecap="round" stroke-linejoin="round"/>
<path d="M192.1 286.94C184.57 294.09 179.23 302.92 176.33 313.45C174.71 319.34 173.85 325.41 175.15 331.6C175.17 331.7 174.89 331.92 174.96 332.08" stroke="#2071B5" stroke-width="4.20561" stroke-linecap="round" stroke-linejoin="round"/>
<path d="M112.58 385.32C114.77 385.72 116.79 386.75 118.95 387.3C121.97 388.08 124.77 387.53 127.53 386.08C128.79 385.41 129.32 384 130.34 383.07C135.81 378.07 136.69 371.3 135.86 363.98C135.4 359.93 130.26 357.34 126.42 358.31C120.93 359.7 115.83 363.64 115.09 372.09C114.82 375.21 115.13 378.57 116.77 381.39C119.09 385.38 122.47 385.65 126.21 384.6C127 384.38 127.82 383.55 128.62 384.59" stroke="#2071B5" stroke-width="4.20561" stroke-linecap="round" stroke-linejoin="round"/>
<path d="M425.6 203.531C428.22 209.691 428.57 216.031 426.45 222.411C424.84 227.261 422.51 231.651 418.79 234.931" stroke="#2071B5" stroke-width="4.20561" stroke-linecap="round" stroke-linejoin="round"/>
<path d="M227.57 180.711C226.96 180.891 226.57 180.401 226.38 179.961C223.98 174.171 219.75 173.591 214.95 175.831C211.26 177.541 208.35 180.371 207.54 184.891C206.85 188.741 206.53 192.761 209.03 196.151" stroke="#2071B5" stroke-width="4.20561" stroke-linecap="round" stroke-linejoin="round"/>
<path d="M97.2099 336.989C97.3099 338.139 96.8999 339.379 97.8099 340.639C91.7599 346.599 88.3299 354.259 86.6699 362.999" stroke="#2071B5" stroke-width="4.20561" stroke-linecap="round" stroke-linejoin="round"/>
<path d="M215.3 171.389C209.89 171.609 204.81 174.269 200.99 181.519C199.23 184.859 199.14 189.019 199.79 192.979C200.6 197.889 202.52 201.989 206.59 204.519C209.36 206.229 213.07 206.049 215.38 204.019" stroke="#2071B5" stroke-width="4.20561" stroke-linecap="round" stroke-linejoin="round"/>
<path d="M227.03 176.05C227.22 172.31 225.78 169.09 223.66 166.56C220.98 163.35 217.6 161.05 213.63 160.08C212.86 159.89 212.16 159.75 211.43 160.1" stroke="#2071B5" stroke-width="4.20561" stroke-linecap="round" stroke-linejoin="round"/>
<path d="M57.67 316.14C55.81 317.04 55.05 319.05 54.19 320.82C50.77 327.86 49.19 335.33 50.42 343.37C50.88 346.38 52.13 348.72 54.58 350.27C55.69 350.97 56.69 351.91 57.89 352.44" stroke="#2071B5" stroke-width="4.20561" stroke-linecap="round" stroke-linejoin="round"/>
<path d="M134.55 358.579C133.22 358.429 133.11 356.919 132.36 356.119C129.1 352.619 125.48 351.869 120.93 354.169C114.11 357.619 110.3 365.429 111.23 373.799" stroke="#2071B5" stroke-width="4.20561" stroke-linecap="round" stroke-linejoin="round"/>
<path d="M207.04 179.979C203.89 184.519 203.86 192.929 207.02 196.189C207.75 196.939 208.12 198.249 209.45 197.889" stroke="#2071B5" stroke-width="4.20561" stroke-linecap="round" stroke-linejoin="round"/>
<path d="M210.11 159.62C208.33 160.29 206.46 159.86 204.59 160.49C199.78 162.11 196.48 165.45 194.08 170.17" stroke="#2071B5" stroke-width="4.20561" stroke-linecap="round" stroke-linejoin="round"/>
<path d="M216.48 171.389C220.23 171.609 223.55 172.899 226.4 175.759C227.3 176.659 227.57 177.529 227.7 178.749C228.42 185.449 225.93 190.909 222.67 196.209C221.34 198.379 219.4 198.449 217.56 198.819C215.16 199.289 212.66 200.009 210.32 198.379" stroke="#2071B5" stroke-width="4.20561" stroke-linecap="round" stroke-linejoin="round"/>
<path d="M147.29 363.001C144.17 364.181 140.97 365.131 138.06 366.931" stroke="#2071B5" stroke-width="4.20561" stroke-linecap="round" stroke-linejoin="round"/>
<path d="M161.35 235.91C159.03 239.35 156.4 242.47 153.44 245.23" stroke="#2071B5" stroke-width="4.20561" stroke-linecap="round" stroke-linejoin="round"/>
<path d="M53.71 332.569C53.85 334.399 52.56 336.519 54.59 337.969" stroke="#2071B5" stroke-width="4.20561" stroke-linecap="round" stroke-linejoin="round"/>
<path d="M111.48 378.45C111.88 381.44 114.07 383.29 115.21 385.81" stroke="#2071B5" stroke-width="4.20561" stroke-linecap="round" stroke-linejoin="round"/>
<path d="M126.2 370.85C125.42 372.38 123.57 371.53 122.69 372.81" stroke="#2071B5" stroke-width="4.20561" stroke-linecap="round" stroke-linejoin="round"/>
<path d="M125.32 372.07C125.54 372.76 125.07 373.23 124.88 373.79" stroke="#2071B5" stroke-width="4.20561" stroke-linecap="round" stroke-linejoin="round"/>
</svg>
