<svg width="500" height="500" viewBox="0 0 500 500" fill="none" xmlns="http://www.w3.org/2000/svg">
<path d="M223 102.5V90.5C233 97.7 245.833 98.1667 251 97.5V111.5C233 112.3 224.833 105.833 223 102.5Z" fill="#FFDA00" fill-opacity="0.7"/>
<path d="M250.5 397.5C236.1 398.7 222.833 392 218 388.5C217.5 397.5 216.8 419 218 433C219.2 447 240.167 449.833 250.5 449.5C274.5 449.5 281.167 438.5 281.5 433L283.5 388.5C278.5 391 264.9 396.3 250.5 397.5Z" fill="#FFDA00" fill-opacity="0.7"/>
<path d="M278.6 97.25C277.18 97.61 276.77 99.08 275.67 99.86C270.91 103.26 265.44 104.75 259.86 105.9C256.75 106.54 253.58 106.84 250.2 106.95V99.04C248.29 99.14 246.38 98.98 244.49 98.79C238.66 98.22 232.9 97.29 227.51 94.74C225.76 93.91 224.52 92.57 223.23 91.31C221.83 89.94 222.5 86.35 224.18 85.04" fill="#FFDA00" fill-opacity="0.7"/>
<path d="M278.6 97.25C277.18 97.61 276.77 99.08 275.67 99.86C270.91 103.26 265.44 104.75 259.86 105.9C256.75 106.54 253.58 106.84 250.2 106.95V99.04C248.29 99.14 246.38 98.98 244.49 98.79C238.66 98.22 232.9 97.29 227.51 94.74C225.76 93.91 224.52 92.57 223.23 91.31C221.83 89.94 222.5 86.35 224.18 85.04" stroke="#2071B5" stroke-width="4.21" stroke-linecap="round" stroke-linejoin="round"/>
<path d="M353.53 287.36C356.19 287.17 358.51 285.86 360.8 284.74C373.04 278.76 381.98 269.28 389.06 257.79C395.3 247.67 399.74 236.8 403.01 225.42C404.48 220.31 405.5 215.1 406.45 209.86C407.61 203.5 407.81 197.11 407.51 190.72C407 179.91 404.73 169.47 399.27 159.96C395.18 152.84 389.77 147.2 381.53 144.97C379.44 144.41 377.3 144.91 375.23 145.03C369.6 145.36 364.13 146.66 358.86 148.7C353.01 150.96 348.05 154.53 343.68 158.96C336.69 166.06 330.44 173.8 325.63 182.48C321.04 190.76 317.83 199.7 315.25 208.84C313.84 213.84 312.81 218.89 312.08 224.03C311.22 230.12 310.72 236.24 311 242.37C311.17 245.98 311.56 249.61 312.01 253.23C312.81 259.65 314.54 265.76 316.83 271.76C317.7 274.05 318.98 276.1 320.41 278.05C322.78 281.28 325.69 283.93 329.28 285.73C332.31 287.26 335.47 288.3 338.93 288.59C340.91 288.75 342.9 289.07 344.85 288.86C347.7 288.55 350.64 288.58 353.34 287.33" stroke="#2071B5" stroke-width="4.21" stroke-linecap="round" stroke-linejoin="round"/>
<path d="M122.21 109.48C119.07 111.1 116.48 113.43 114.14 116C106.46 124.44 101.87 134.58 98.8401 145.4C97.5901 149.86 96.7001 154.47 96.2901 159.17C95.8301 164.38 95.6901 169.6 96.0801 174.75C96.7401 183.44 98.8401 191.84 103.47 199.41C106.59 204.52 111.09 208.11 116.07 211.28C118.86 213.06 122.01 213.74 124.96 215.02C128.36 216.5 131.7 218.06 135.43 218.53C140.08 219.12 144.75 219.43 149.43 218.91C154.48 218.35 159.43 217.34 164.23 215.59C165.93 214.97 167.57 214.26 169.15 213.4" stroke="#2071B5" stroke-width="4.21" stroke-linecap="round" stroke-linejoin="round"/>
<path d="M169.34 158.39C169.76 155.31 169.43 152.21 169.53 149.12C169.58 147.67 169.69 146.22 169.68 144.78C169.65 140.42 165.74 134.74 160.08 133.84C151.92 132.55 146.45 136.09 142.12 142.41C138.37 147.89 136.75 154.08 135.75 160.54C135.37 162.98 135.15 165.46 135.14 167.85C135.11 174.48 136.29 180.95 141.17 185.96C144.64 189.52 149.09 191.39 153.95 192.32C155.89 192.69 157.75 193.5 159.68 193.84C162.96 194.41 166.28 194.73 169.53 195.46" fill="#FFDA00" fill-opacity="0.7"/>
<path d="M169.34 158.39C169.76 155.31 169.43 152.21 169.53 149.12C169.58 147.67 169.69 146.22 169.68 144.78C169.65 140.42 165.74 134.74 160.08 133.84C151.92 132.55 146.45 136.09 142.12 142.41C138.37 147.89 136.75 154.08 135.75 160.54C135.37 162.98 135.15 165.46 135.14 167.85C135.11 174.48 136.29 180.95 141.17 185.96C144.64 189.52 149.09 191.39 153.95 192.32C155.89 192.69 157.75 193.5 159.68 193.84C162.96 194.41 166.28 194.73 169.53 195.46" stroke="#2071B5" stroke-width="4.21" stroke-linecap="round" stroke-linejoin="round"/>
<path d="M379.76 143.99C374.11 141.71 368.26 140.07 362.2 139.54C359.39 139.3 356.52 140.24 353.74 140.88C345 142.89 337.9 147.73 331.39 153.79C325.01 159.73 319.56 166.34 315.08 173.77C312.16 178.61 310.2 183.91 308.2 189.16C305.2 197.05 302.41 205.04 300.38 213.23C299.63 216.26 299.34 219.49 299 222.66C298.61 226.36 298.67 230.04 298.74 233.71C298.82 237.73 299.38 241.74 299.8 245.75C300.38 251.31 301.92 256.6 303.46 261.9C303.9 263.41 304.74 264.95 304.72 266.45C304.67 270.7 305.05 275.02 301.5 278.53C297.33 282.65 292.85 286.22 287.45 288.53C283.7 290.13 279.73 291.02 275.82 292.08C272.96 292.86 270.05 293.64 267.13 293.96C264.7 294.22 262.29 294.68 259.85 294.89C256.04 295.22 252.22 295.38 248.41 295.38C244.26 295.38 240.12 294.88 235.99 294.44C233.4 294.16 230.83 293.66 228.31 293.03C227.76 292.89 227.24 292.98 226.72 292.87" stroke="#2071B5" stroke-width="4.21" stroke-linecap="round" stroke-linejoin="round"/>
<path d="M130.1 118.95C126.48 123.9 123.16 129.03 120.44 134.53C117.58 140.31 115.59 146.39 114.09 152.66C113.11 156.77 112.47 160.94 111.85 165.11C111.56 167.03 111.36 169.03 111.37 171.01C111.39 175.22 111.17 179.44 111.41 183.63C112.04 194.62 115.3 204.66 122.83 213C123.07 213.27 123.21 213.47 123.21 213.8" stroke="#2071B5" stroke-width="4.21" stroke-linecap="round" stroke-linejoin="round"/>
<path d="M384.69 175.74C387.51 180.26 389.57 185.14 390.54 190.35C391.62 196.13 391.63 201.99 391.05 207.9C389.89 219.65 385.3 230.19 379.86 240.38C377.24 245.3 373.8 249.82 370.07 254.02C365.84 258.78 360.55 262.04 354.48 263.78C352.66 264.3 348.55 263.28 343.93 261.97C340.88 261.1 337.77 256.24 333.81 252.26" stroke="#2071B5" stroke-width="4.21" stroke-linecap="round" stroke-linejoin="round"/>
<path d="M192.22 103.17C189.99 101.99 187.81 100.94 186.22 98.69C184.47 96.21 184.75 93.89 185.5 91.33C186.68 87.35 189.74 85.1 193.01 83.06C199.5 78.99 206.79 77 214.11 75.19C223.36 72.9 232.76 71.68 242.3 71.37C247.23 71.21 252.16 71.21 257.09 71.24C263.88 71.28 270.7 71.57 277.39 72.69C283.17 73.66 288.97 74.76 294.58 76.68C299.65 78.41 304.69 80.1 308.95 83.46C311.81 85.72 314.04 88.39 314.93 92.11C315.63 95.05 315.28 97.57 313.51 100.02C308.95 106.33 302.73 110.16 295.35 112.22C289.38 113.88 283.42 115.55 277.22 116.22C275.44 116.41 273.67 116.56 271.89 116.57" stroke="#2071B5" stroke-width="4.21" stroke-linecap="round" stroke-linejoin="round"/>
<path d="M180.78 305.7C180.54 307.2 181.52 308.37 182.01 309.63C185.41 318.38 188.76 327.15 192.22 335.88C196.68 347.12 200.86 358.46 205.07 369.79C206.31 373.13 207.83 376.37 209.11 379.69C210.89 384.3 214.57 386.87 218.48 389.07C225.03 392.75 231.98 395.61 239.36 397.18C244.28 398.23 249.28 398.46 254.34 398.05C264.41 397.24 273.45 393.57 282.15 388.75C286.58 386.3 289.69 382.89 291.68 378.12C294.94 370.34 298.03 362.49 301.16 354.66C304.11 347.27 307.2 339.93 310.18 332.55C313.36 324.67 316.21 316.66 319.57 308.85C319.76 308.41 320.16 307.91 320.02 307.29C319.74 305.97 320.61 305.33 321.58 304.72C324.5 302.88 326.62 300.19 328.4 297.38C330.14 294.64 331.32 291.52 332.21 288.35C332.27 288.14 332.53 288.02 332.43 287.76" stroke="#2071B5" stroke-width="4.21" stroke-linecap="round" stroke-linejoin="round"/>
<path d="M303.64 314.18C302.33 318.14 300.33 321.8 298.72 325.62C295.94 332.21 293.17 338.81 290.22 345.33C287.27 351.85 284.65 358.51 281.82 365.08C280.17 368.92 278.55 372.8 277.11 376.72C274.85 382.87 270.39 386.3 264.6 388.52C258.36 390.92 251.87 391.75 245.28 391.03C238.04 390.24 231.39 387.89 226.55 382C224.5 379.5 223.39 376.48 222.22 373.52C217.35 361.31 212.12 349.24 207.21 337.05C204.13 329.39 200.58 321.93 197.76 314.17C197.5 313.47 197.09 313.02 196.37 312.79C191.27 311.13 186.5 308.72 181.99 305.87C178.19 303.46 174.58 300.76 171.92 297.02C169.99 294.31 169.42 291.13 169.4 287.95C169.3 272.7 169.24 257.45 169.4 242.2C169.49 233.39 169.77 224.58 169.75 215.77C169.73 205.98 169.84 196.18 169.71 186.39C169.62 178.96 169.55 171.53 169.54 164.11C169.54 162.4 169.54 160.69 169.54 158.98" stroke="#2071B5" stroke-width="4.21" stroke-linecap="round" stroke-linejoin="round"/>
<path d="M353.93 249.1C357.6 248.9 360.55 247.02 363.39 244.95C370.15 240.02 373.41 232.83 376.01 225.23C377.39 221.2 379 217.22 379.75 213C380.87 206.67 381.57 200.4 379.25 194.05C377.04 188 369.96 183.3 362.22 186C357.25 187.73 353.52 191.23 350.24 195.11C346.69 199.3 343.88 204.06 342.16 209.29C340 215.85 338.87 222.57 339.65 229.59C340.16 234.18 340.53 238.75 342.93 242.77C345.32 246.79 348.65 249.58 353.74 249.3" fill="#FFDA00" fill-opacity="0.7"/>
<path d="M353.93 249.1C357.6 248.9 360.55 247.02 363.39 244.95C370.15 240.02 373.41 232.83 376.01 225.23C377.39 221.2 379 217.22 379.75 213C380.87 206.67 381.57 200.4 379.25 194.05C377.04 188 369.96 183.3 362.22 186C357.25 187.73 353.52 191.23 350.24 195.11C346.69 199.3 343.88 204.06 342.16 209.29C340 215.85 338.87 222.57 339.65 229.59C340.16 234.18 340.53 238.75 342.93 242.77C345.32 246.79 348.65 249.58 353.74 249.3" stroke="#2071B5" stroke-width="4.21" stroke-linecap="round" stroke-linejoin="round"/>
<path d="M169.74 279.67C173.24 283.8 176.83 287.78 181.14 291.16C189.22 297.49 198.29 301.66 207.99 304.75C213.87 306.62 219.89 307.83 225.96 308.58C233.34 309.49 240.76 310.23 248.23 310.05C250.39 310 250.4 310.05 250.4 312.21C250.4 320.69 250.4 329.17 250.39 337.65C250.39 338.1 250.63 338.62 250.21 339.03" stroke="#2071B5" stroke-width="4.21" stroke-linecap="round" stroke-linejoin="round"/>
<path d="M262.09 52.4199C263.34 53.4799 265.2 53.3899 266.78 53.8299C275.79 56.3699 284.77 59.0199 293.8 61.5199C305.35 64.7199 316.84 68.1199 328.32 71.5499C332.44 72.7799 336.56 74.0599 340.72 75.1999C341.55 75.4299 342.63 75.5899 342.9 76.7399" stroke="#2071B5" stroke-width="4.21" stroke-linecap="round" stroke-linejoin="round"/>
<path d="M236.59 53.6699C232.97 54.2099 229.48 55.3499 225.93 56.2099C219.23 57.8299 212.64 59.8399 206.01 61.7299C198.43 63.8899 190.89 66.2099 183.35 68.4899C175.52 70.8499 167.65 73.0499 159.86 75.5099C158.54 75.9299 157.88 76.5499 157.51 77.7499C160.11 80.1399 160.83 83.0499 159.89 86.4199C159.8 86.7499 159.99 87.0999 160.04 87.4099C160.65 91.8899 159.28 93.8599 154.75 95.0899C152.81 95.6199 150.83 95.8799 148.63 96.1299C148.77 91.4799 148.18 87.0799 148.63 82.4799" stroke="#2071B5" stroke-width="4.21" stroke-linecap="round" stroke-linejoin="round"/>
<path d="M149.03 127.03C140.79 130.25 135.82 136.58 132.22 144.36C130.19 148.75 128.58 153.26 127.78 158C126.96 162.82 126.91 167.68 127.46 172.59C127.82 175.85 128.55 178.94 129.94 181.83C132.85 187.91 137.43 191.89 144.29 193.15C147.28 193.7 151.43 192.95 153.96 192.31" stroke="#2071B5" stroke-width="4.21" stroke-linecap="round" stroke-linejoin="round"/>
<path d="M236.59 62.5498C233.07 62.5698 229.71 63.6298 226.35 64.4098C218.99 66.1098 211.67 68.0198 204.45 70.2598C196.55 72.7198 188.64 75.2798 181.4 79.3598C177.56 81.5198 173.76 83.7998 170.88 87.3598C167.85 91.0898 166.54 94.8398 169.34 99.2298" stroke="#2071B5" stroke-width="4.21" stroke-linecap="round" stroke-linejoin="round"/>
<path d="M325.73 284.01C323.73 288.34 320.51 291.63 316.64 294.23C309.68 298.91 301.94 302.07 293.96 304.43C286.13 306.75 278.09 308.25 269.93 309.08C263.82 309.7 257.7 309.79 251.59 310.03C251.19 310.05 250.77 309.96 250.21 310.38C250.23 307.14 250.21 304.05 250.21 300.95" stroke="#2071B5" stroke-width="4.21" stroke-linecap="round" stroke-linejoin="round"/>
<path d="M192.02 144.78C191.6 145.4 191.81 146.1 191.84 146.75C192.15 153.19 191.11 159.67 192.41 166.08C191.43 167.75 192.2 169.5 192.24 171.21C192.33 175.81 192.26 180.41 192.24 185.02C192.16 212.5 192.34 239.98 192.08 267.45C192.05 270.86 192.25 274.29 192.15 277.7C192.03 282.02 194.33 284.82 197.33 287.37C201.45 290.87 206.47 292.65 211.36 294.6C214.86 295.99 218.48 297.16 222.18 298.03C227.63 299.31 233.2 299.75 238.75 300.13C242.22 300.36 245.69 300.73 249.2 300.65C254.01 300.55 258.8 300.37 263.59 299.98C270.24 299.45 276.85 298.5 283.3 296.8C289.91 295.07 296.33 292.78 301.84 288.54C305.94 285.38 308.46 281.24 309.34 276.12C309.45 275.5 309.92 275 309.93 274.35" stroke="#2071B5" stroke-width="4.21" stroke-linecap="round" stroke-linejoin="round"/>
<path d="M262.23 62.3496C265.98 62.6096 269.62 63.5896 273.26 64.3696C284.58 66.8196 295.86 69.4496 306.81 73.3496C313.57 75.7596 320.06 78.6696 325.67 83.1196C328.86 85.6496 331.97 88.5896 331.84 93.3096" stroke="#2071B5" stroke-width="4.21" stroke-linecap="round" stroke-linejoin="round"/>
<path d="M135.82 83.4502C131.61 84.2002 127.61 85.5402 124.22 88.2202C123.29 88.9502 123.19 90.3502 123.22 91.5302C123.35 96.8602 122.5 102.17 122.8 107.5C122.86 108.56 122.67 109.64 122.53 110.64C122.04 114.04 123.92 115.62 126.55 116.98C133.39 120.52 140.56 123.33 147.89 125.54C157.91 128.57 167.78 132.01 177.63 135.52C179.78 136.29 181.64 137.86 183.78 138.58C188.31 140.11 192.44 142.45 196.78 144.36C202.97 147.07 209.35 149.31 215.92 150.82C223.7 152.6 231.56 154.01 239.57 154.45C244.37 154.71 249.17 154.92 253.97 154.81C262.86 154.6 271.66 153.72 280.41 151.94C289.68 150.05 298.55 146.99 307.18 143.31C314.99 139.98 322.69 136.41 330.67 133.49C331.99 133.01 333.36 132.62 334.64 131.97C336.26 131.14 337.75 131.82 339.38 132.28C343.25 133.37 347.14 134.39 350.99 135.52C353.76 136.33 356.48 137.34 359.27 138.09C359.93 138.27 360.77 138.38 361.05 139.25" stroke="#2071B5" stroke-width="4.21" stroke-linecap="round" stroke-linejoin="round"/>
<path d="M376.81 98.4404C375.2 98.6104 374.04 99.7304 372.67 100.42C366.92 103.32 361.06 105.91 354.93 107.93C346.58 110.69 338.27 113.59 330.09 116.83C322.43 119.87 314.66 122.63 306.96 125.55C294.32 130.33 282.03 136.11 268.93 139.64C264.23 140.91 259.42 141.63 254.54 141.84C249.51 142.05 244.54 141.84 239.54 141.1C233.38 140.19 227.47 138.46 221.61 136.48C210.57 132.75 199.78 128.35 188.86 124.3C181.06 121.41 173.27 118.5 165.42 115.73C159.95 113.8 154.45 111.95 149.03 109.87" stroke="#2071B5" stroke-width="4.21" stroke-linecap="round" stroke-linejoin="round"/>
<path d="M336.57 195.07C336.63 197.16 335.16 198.65 334.34 200.37C332.17 204.94 330.56 209.69 329.5 214.6C328.18 220.69 327.44 226.84 327.83 233.13C328.19 238.8 329.45 244.17 331.83 249.3C332.34 250.39 332.93 251.42 333.8 252.26" stroke="#2071B5" stroke-width="4.21" stroke-linecap="round" stroke-linejoin="round"/>
<path d="M196.56 185.8C196.24 186.43 196.37 187.11 196.37 187.77C196.37 206.31 196.37 224.85 196.37 243.38C196.37 252.45 196.39 261.52 196.36 270.59C196.35 273.31 197.19 275.62 198.68 277.92C201.02 281.53 204.16 284.18 207.84 286.11C211.99 288.29 216.24 290.32 221.02 290.95C222.7 291.17 224.29 292.03 225.96 292.47" stroke="#2071B5" stroke-width="4.21" stroke-linecap="round" stroke-linejoin="round"/>
<path d="M353.53 196.25C353.53 210.58 353.57 224.91 353.5 239.24C353.48 242.6 353.13 245.96 353.73 249.3" stroke="#2071B5" stroke-width="4.21" stroke-linecap="round" stroke-linejoin="round"/>
<path d="M319.81 306.3C319.03 306.14 318.61 306.73 318.01 307.05C313.33 309.53 308.51 311.82 303.59 313.68C296.89 316.21 289.83 317.7 282.75 319.01C276.78 320.11 270.78 321.02 264.78 321.56C257.99 322.17 251.13 322.43 244.28 321.94C241.26 321.72 238.22 321.59 235.22 321.26C230.59 320.76 225.95 320.21 221.41 319.11C219.19 318.57 216.93 318.23 214.69 317.81C211.5 317.21 208.44 316.12 205.24 315.55C203.13 315.17 201.06 314.58 199.11 313.63C198.76 313.46 198.21 313.11 197.75 313.6" stroke="#2071B5" stroke-width="4.21" stroke-linecap="round" stroke-linejoin="round"/>
<path d="M123.98 89.7598C127.69 91.5998 131.39 93.4798 135.21 95.1098C139.37 96.8898 143.7 98.1098 148.06 99.1498C151.77 100.04 155.32 101.32 158.88 102.6C166.67 105.38 174.5 108.08 182.35 110.68C192.99 114.21 203.77 117.27 214.3 121.13C219.05 122.87 223.8 124.6 228.52 126.4C230.55 127.17 232.66 127.79 234.81 128.25C235.45 128.39 236 128.33 236.59 128.21" stroke="#2071B5" stroke-width="4.21" stroke-linecap="round" stroke-linejoin="round"/>
<path d="M184.92 97.25C183.89 99.64 184.86 101.62 186.53 103.13C191.39 107.53 197.21 110.32 203.27 112.61C209.94 115.13 216.85 116.68 223.96 117.43C225.47 117.59 227.01 117.61 228.5 117.96" stroke="#2071B5" stroke-width="4.21" stroke-linecap="round" stroke-linejoin="round"/>
<path d="M294.57 150.9C287.96 153.15 281.21 154.76 274.26 155.67C266.26 156.72 258.27 157.45 250 157.17C250 152.22 250 147.22 250 142.22" stroke="#2071B5" stroke-width="4.21" stroke-linecap="round" stroke-linejoin="round"/>
<path d="M307.19 167.07C303.83 168.96 300.87 171.45 297.55 173.42C291.67 176.9 285.44 179.4 278.79 180.87C273.91 181.94 268.98 182.69 264.01 183.33C257.3 184.19 250.58 184.23 243.89 183.96C235.07 183.61 226.36 182.08 217.86 179.67C208.85 177.11 200.61 173.02 193.57 166.71C193.37 166.53 193.06 166.1 192.61 166.29" stroke="#2071B5" stroke-width="4.21" stroke-linecap="round" stroke-linejoin="round"/>
<path d="M384.69 175.55C385.95 174.92 387.31 175.52 388.65 175.2C394.37 173.83 396.84 166.1 394.11 161.58C392.41 158.77 390.14 158.59 387.7 160.24C383.68 162.98 381.7 168.46 384 173.33C384.35 174.07 383.41 174.96 384.49 175.35" stroke="#2071B5" stroke-width="4.21" stroke-linecap="round" stroke-linejoin="round"/>
<path d="M281.55 429.35C282.25 434.57 280.93 439.01 276.63 442.38C271.86 446.12 266.31 447.79 260.45 448.67C256.27 449.3 252.04 449.66 247.83 449.43C240.92 449.04 234.03 448.25 227.73 445.1C223.49 442.98 220.06 439.91 218.87 435.07C218.25 432.56 217.91 429.98 218.45 427.39" stroke="#2071B5" stroke-width="4.21" stroke-linecap="round" stroke-linejoin="round"/>
<path d="M352.42 99.6299C342.55 103.39 330.29 108.62 320.11 111.61C310.67 114.38 301.37 117.68 292.07 120.95C283.87 123.83 275.6 126.5 267.41 129.4C265.96 129.91 264.4 130.85 262.7 130.05" stroke="#2071B5" stroke-width="4.21" stroke-linecap="round" stroke-linejoin="round"/>
<path d="M226.53 77.9297C222.44 78.3697 218.35 78.7897 214.31 79.5197C208.29 80.6097 202.41 82.1897 196.97 85.0597C193.85 86.6997 190.92 88.6697 189.46 92.1297" stroke="#2071B5" stroke-width="4.21" stroke-linecap="round" stroke-linejoin="round"/>
<path d="M336.77 194.68C338.77 193.01 340 190.83 340.7 188.36C341.24 186.46 339.59 182.92 338.16 182.04C336.62 181.09 334.67 181.25 332.64 182.86C329.94 185 328.37 187.74 328.47 191.32C328.54 194.17 330.85 196.71 334.22 195.5C334.97 195.23 335.72 194.81 336.57 194.87" stroke="#2071B5" stroke-width="4.21" stroke-linecap="round" stroke-linejoin="round"/>
<path d="M333.62 256.4C331.73 257.48 329.77 258.41 328.27 260.12C326 262.72 324.95 265.55 325.52 269.02C326.25 273.52 329.19 275.22 333.23 273.36C337.45 271.41 339.92 266.07 338.77 261.52C338.62 260.91 338.18 260.68 337.78 260.33C333.73 256.77 330.65 252.56 329.06 247.33C328.96 246.99 328.99 246.33 328.3 246.33" stroke="#2071B5" stroke-width="4.21" stroke-linecap="round" stroke-linejoin="round"/>
<path d="M218.45 398.19C217.95 399.83 218.52 401.48 218.45 403.12C218.17 409.89 218.33 416.66 218.22 423.43C218.19 425.5 218.73 426.99 220.15 428.62C223.4 432.37 227.16 435.41 231.7 437.14C236.54 438.99 241.56 440.43 246.85 440.6C258.26 440.96 268.94 438.88 278.23 431.74C279.31 430.91 280.06 429.75 281.33 429.09C282.05 428.72 281.9 427.57 281.93 426.78C282.22 417.58 282.14 408.38 282.16 399.17C282.16 399.04 282.16 398.91 281.95 398.78" stroke="#2071B5" stroke-width="4.21" stroke-linecap="round" stroke-linejoin="round"/>
<path d="M218.25 389.32C217.71 391.01 218.39 392.75 218.05 394.45C217.36 397.88 220.11 398.85 222.21 400.14C228.99 404.3 236.18 407.48 244.08 408.84C249.23 409.72 255.53 408.92 260.64 408.06" stroke="#2071B5" stroke-width="4.21" stroke-linecap="round" stroke-linejoin="round"/>
<path d="M247.24 200.59C248.07 203.12 247.65 205.73 247.57 208.28C247.45 212.29 247.5 216.3 247.44 220.31C247.43 221.3 247.44 222.28 247.44 223.27C247.44 238.78 247.44 254.3 247.44 269.81V295.05" stroke="#2071B5" stroke-width="4.21" stroke-linecap="round" stroke-linejoin="round"/>
<path d="M185.32 139.65C185.63 141.29 187.18 141.55 188.29 142.19C193.51 145.19 198.91 147.74 204.62 149.79C211.52 152.26 218.51 154.13 225.74 155.26C233.72 156.51 241.72 157.31 250 157.21V183.83" stroke="#2071B5" stroke-width="4.21" stroke-linecap="round" stroke-linejoin="round"/>
<path d="M322.18 162.92C321.72 162.76 321.32 162.73 320.79 162.89C316.33 164.23 311.84 165.48 307.59 166.7C307.55 171.34 307.92 175.84 307.31 180.27C306.81 183.91 304.13 186.25 301.28 188.39C296.44 192.03 290.81 194.07 285.26 196.18C282.74 197.14 279.93 197.46 277.2 197.83C272.8 198.42 268.41 199.02 264 199.5C257.23 200.24 250.45 200.39 243.68 200.12C240.34 199.99 236.96 199.54 233.61 199.14C231.06 198.84 228.47 198.56 225.94 198.17C222.16 197.58 218.36 197.1 214.68 195.9C208.07 193.74 202.01 190.72 197.13 185.63C195.93 184.38 194.95 183.01 194.19 181.48C193.81 180.7 193.7 179.71 192.61 179.51" stroke="#2071B5" stroke-width="4.21" stroke-linecap="round" stroke-linejoin="round"/>
<path d="M278.4 88.7703C274.38 94.5203 268.18 96.1603 261.84 97.6903C258.05 98.6003 254.23 98.7603 250.19 99.1103V75.5703" stroke="#2071B5" stroke-width="4.21" stroke-linecap="round" stroke-linejoin="round"/>
<path d="M250.39 339.62C250.39 355.79 250.43 371.96 250.37 388.13C250.34 394.9 250.56 401.67 250.29 408.45C250.23 410.05 249.93 411.75 250.39 413.38" stroke="#2071B5" stroke-width="4.21" stroke-linecap="round" stroke-linejoin="round"/>
<path d="M222.98 91.54C221.79 94.6 222.94 98.28 225.32 100.45C228.89 103.71 233.34 104.78 237.79 105.66C241.79 106.45 245.9 106.77 250.29 106.96" stroke="#2071B5" stroke-width="4.21" stroke-linecap="round" stroke-linejoin="round"/>
<path d="M239.55 330.55C239.83 334.96 240.12 339.37 240.56 343.76C241.17 349.86 241.55 355.98 241.94 362.1C242.52 371.23 242.59 380.37 242.7 389.51" stroke="#2071B5" stroke-width="4.21" stroke-linecap="round" stroke-linejoin="round"/>
<path d="M251.77 201.38C252.23 202.11 252.17 202.93 252.17 203.75C252.17 215.06 252.17 226.36 252.17 237.67C252.17 250.88 252.17 264.1 252.17 277.31C252.17 281.46 251.75 285.59 251.77 289.73C251.77 291.51 252.2 293.27 251.97 295.05" stroke="#2071B5" stroke-width="4.21" stroke-linecap="round" stroke-linejoin="round"/>
<path d="M262.82 321.87C262.61 328.06 262.08 334.23 261.68 340.41C261.38 345.07 261.1 349.74 260.88 354.41C260.77 356.71 260.7 359.01 260.48 361.31C260.33 362.94 260.45 364.59 260.45 366.24" stroke="#2071B5" stroke-width="4.21" stroke-linecap="round" stroke-linejoin="round"/>
<path d="M148.79 193.28C148.41 201.36 148.71 208.48 148.64 216.57C148.64 217.3 148.56 218.03 148.83 218.74" stroke="#2071B5" stroke-width="4.21" stroke-linecap="round" stroke-linejoin="round"/>
<path d="M206.02 150.9C205.89 158.4 206.32 165.89 206.62 173.38C206.64 173.93 206.49 174.43 206.41 174.96" stroke="#2071B5" stroke-width="4.21" stroke-linecap="round" stroke-linejoin="round"/>
<path d="M365.56 83.4502C369.11 83.4802 372.19 85.0102 375.21 86.6302C376.47 87.3002 376.47 88.6202 376.66 89.9502C377.34 94.7402 377.24 99.5502 377.16 104.35C377.11 107.77 376.63 111.18 376.81 114.6C376.88 116.04 375.77 116.45 374.82 116.96C369.91 119.58 364.71 121.49 359.45 123.3C352.83 125.58 346.25 128 339.54 130.05C338.95 130.23 337.86 130.29 337.75 131.37" stroke="#2071B5" stroke-width="4.21" stroke-linecap="round" stroke-linejoin="round"/>
<path d="M294.77 148.33C295.18 149.89 294.95 151.49 294.96 153.06C294.99 159.5 294.97 165.94 294.97 172.39C294.97 173.12 294.9 173.85 295.17 174.56" stroke="#2071B5" stroke-width="4.21" stroke-linecap="round" stroke-linejoin="round"/>
<path d="M376.21 90.3496C371.49 92.9396 366.39 94.6396 361.43 96.6796C359.15 97.6196 356.8 98.3096 354.53 99.2396C354.01 99.4496 353.52 99.6596 352.95 99.6196" stroke="#2071B5" stroke-width="4.21" stroke-linecap="round" stroke-linejoin="round"/>
<path d="M260.85 413.77C260.97 417.14 261.53 420.47 261.81 423.83C262.08 427.06 262.55 430.26 262.81 433.49C262.89 434.49 263.46 435.41 263.22 436.45" stroke="#2071B5" stroke-width="4.21" stroke-linecap="round" stroke-linejoin="round"/>
<path d="M249.8 190.34C244.91 190.49 240.05 190.07 235.21 189.52C232.7 189.23 230.25 188.52 227.71 188.37" stroke="#2071B5" stroke-width="4.21" stroke-linecap="round" stroke-linejoin="round"/>
<path d="M226.14 404.11C226.01 411.34 226.4 418.58 225.96 425.8C225.96 425.92 226.21 426.06 226.34 426.19" stroke="#2071B5" stroke-width="4.21" stroke-linecap="round" stroke-linejoin="round"/>
<path d="M353.53 151.49C353.85 152.12 353.72 152.8 353.72 153.46C353.72 159.24 353.72 165.03 353.72 170.81C353.72 171.54 353.65 172.27 353.92 172.98" stroke="#2071B5" stroke-width="4.21" stroke-linecap="round" stroke-linejoin="round"/>
<path d="M223.18 98.8301C222.13 100.73 222.48 102.83 224.17 104.75C226.34 107.22 229.21 108.45 232.24 109.52C234.56 110.34 237.06 110.2 239.35 111.06" stroke="#2071B5" stroke-width="4.21" stroke-linecap="round" stroke-linejoin="round"/>
<path d="M341.11 185.41C343.91 182.1 346.81 178.9 350.17 176.12C353.65 173.24 357.42 170.81 361.83 169.89C368.94 168.4 375.68 169.57 381.72 173.8C382.42 174.29 383.03 174.85 383.9 174.96" stroke="#2071B5" stroke-width="4.21" stroke-linecap="round" stroke-linejoin="round"/>
<path d="M283.54 396.83C279.63 400.66 276.96 401.58 272.08 403.9C268.41 405.65 264.55 406.93 260.65 408.05" stroke="#2071B5" stroke-width="4.21" stroke-linecap="round" stroke-linejoin="round"/>
<path d="M302.14 257.78C302.14 263.89 302.14 270.01 302.14 276.12C302.14 276.86 302.31 277.64 301.75 278.29" stroke="#2071B5" stroke-width="4.21" stroke-linecap="round" stroke-linejoin="round"/>
<path d="M353.53 264.09C353.23 271.12 353.35 278.16 353.34 285.19C353.34 285.85 353.22 286.53 353.53 287.16" stroke="#2071B5" stroke-width="4.21" stroke-linecap="round" stroke-linejoin="round"/>
<path d="M250.2 413.77C250.59 425.53 250.3 437.3 250.4 449.07" stroke="#2071B5" stroke-width="4.21" stroke-linecap="round" stroke-linejoin="round"/>
<path d="M148.04 150.7V171.41" stroke="#2071B5" stroke-width="4.21" stroke-linecap="round" stroke-linejoin="round"/>
<path d="M291.61 194.08C292.17 194.73 292 195.51 292 196.25C292.02 201.18 291.68 206.11 291.83 211.04C292.16 221.89 291.97 232.73 291.98 243.58C291.98 248.25 291.94 252.91 291.71 257.59C291.35 265.07 291.62 272.57 291.6 280.07C291.6 282.11 291.15 284.15 291.61 286.18" stroke="#2071B5" stroke-width="4.21" stroke-linecap="round" stroke-linejoin="round"/>
<path d="M123.59 97.6504C129.9 101.97 136.66 105.42 143.9 107.91C145.35 108.41 146.62 109.42 148.24 109.48" stroke="#2071B5" stroke-width="4.21" stroke-linecap="round" stroke-linejoin="round"/>
<path d="M352.75 109.09V125.46" stroke="#2071B5" stroke-width="4.21" stroke-linecap="round" stroke-linejoin="round"/>
<path d="M239.15 414.56C238.61 416.23 238.49 417.97 238.39 419.69C238.13 424.46 237.44 429.17 236.8 433.89C236.7 434.6 236.79 435.33 236.79 436.06" stroke="#2071B5" stroke-width="4.21" stroke-linecap="round" stroke-linejoin="round"/>
<path d="M264.59 199.8C265.13 206.37 264.59 212.95 264.69 219.52C264.72 221.65 265.01 223.89 264.39 226.03" stroke="#2071B5" stroke-width="4.21" stroke-linecap="round" stroke-linejoin="round"/>
<path d="M158.89 79.7097C156.15 76.4497 153.57 75.7197 148.44 75.7397C145.5 75.7397 143.96 76.1897 141.73 76.8597C138.81 77.7397 137.28 78.8297 136.56 81.8597C135.93 84.5097 136.43 87.1297 136.25 89.7597C136.12 91.5797 137.68 92.3497 138.99 93.0897C141.49 94.5097 144.27 95.1597 147.07 95.6497C148.07 95.8197 148.73 96.0397 148.65 97.2497C148.06 106.19 148.94 115.13 148.65 124.07C148.63 124.61 148.52 125.12 148.44 125.65" stroke="#2071B5" stroke-width="4.21" stroke-linecap="round" stroke-linejoin="round"/>
<path d="M130.89 102.58C130.46 105.2 130.8 107.84 130.69 110.47C130.58 113.1 130.92 115.74 130.49 118.36" stroke="#2071B5" stroke-width="4.21" stroke-linecap="round" stroke-linejoin="round"/>
<path d="M221.01 343.37C224.42 342.11 227.85 340.89 231.46 340.43C234.61 340.03 237.73 339.5 240.92 339.39C243.29 339.31 245.65 339.21 248.02 339.23C253.58 339.27 259.11 339.49 264.59 340.6C270.46 341.79 276.05 343.73 281.35 346.53" stroke="#2071B5" stroke-width="4.21" stroke-linecap="round" stroke-linejoin="round"/>
<path d="M340.52 79.1104C341.54 77.7004 342.6 76.8104 344.66 76.8504C348.66 76.9204 352.72 76.3804 356.67 76.8504C360.21 77.2804 363.81 78.3904 365.01 82.6404C365.15 83.1304 365.26 83.5004 365.21 84.0404C365.08 85.4704 365.09 86.9304 365.18 88.3704C365.43 92.3004 363.62 93.3604 360.82 94.2504C354.9 96.1204 348.98 95.9004 343.06 93.9504C341.49 93.4304 340.47 92.5204 339.53 91.3304" fill="#FFDA00" fill-opacity="0.7"/>
<path d="M340.52 79.1104C341.54 77.7004 342.6 76.8104 344.66 76.8504C348.66 76.9204 352.72 76.3804 356.67 76.8504C360.21 77.2804 363.81 78.3904 365.01 82.6404C365.15 83.1304 365.26 83.5004 365.21 84.0404C365.08 85.4704 365.09 86.9304 365.18 88.3704C365.43 92.3004 363.62 93.3604 360.82 94.2504C354.9 96.1204 348.98 95.9004 343.06 93.9504C341.49 93.4304 340.47 92.5204 339.53 91.3304" stroke="#2071B5" stroke-width="4.21" stroke-linecap="round" stroke-linejoin="round"/>
<path d="M329.47 134.13C329.83 135.96 329.65 137.81 329.66 139.65C329.68 144.38 329.68 149.12 329.66 153.85C329.66 154.22 330 154.47 329.87 154.84" stroke="#2071B5" stroke-width="4.21" stroke-linecap="round" stroke-linejoin="round"/>
<path d="M296.74 241.61V256.6" stroke="#2071B5" stroke-width="4.21" stroke-linecap="round" stroke-linejoin="round"/>
<path d="M209.38 221.1C209.96 221.43 209.81 222 209.76 222.48C209.36 226.55 209.55 230.63 209.57 234.71C209.6 242.4 209.59 250.09 209.57 257.78C209.57 258.5 209.79 259.26 209.39 259.95" stroke="#2071B5" stroke-width="4.21" stroke-linecap="round" stroke-linejoin="round"/>
<path d="M188.08 124.27C187.63 126.82 187.89 129.4 187.91 131.96C187.93 134.36 187.55 136.7 187.29 139.06" stroke="#2071B5" stroke-width="4.21" stroke-linecap="round" stroke-linejoin="round"/>
<path d="M226.33 198.62C226.06 208.54 226.14 218.47 226.13 228.4" stroke="#2071B5" stroke-width="4.21" stroke-linecap="round" stroke-linejoin="round"/>
<path d="M297.13 207.69V222.28" stroke="#2071B5" stroke-width="4.21" stroke-linecap="round" stroke-linejoin="round"/>
<path d="M353.53 249.7V263.7" stroke="#2071B5" stroke-width="4.21" stroke-linecap="round" stroke-linejoin="round"/>
<path d="M344.07 144.19C341.11 142.71 337.88 141.99 334.79 140.88C333.23 140.32 331.77 139.43 330.07 139.26" stroke="#2071B5" stroke-width="4.21" stroke-linecap="round" stroke-linejoin="round"/>
<path d="M208.39 259.75C209.16 259.89 209.64 260.09 209.61 261.13C209.41 267.17 209.7 273.22 209.45 279.27C209.35 281.69 209.73 284.13 209.38 286.56" stroke="#2071B5" stroke-width="4.21" stroke-linecap="round" stroke-linejoin="round"/>
<path d="M263.61 123.09C261.11 124.8 258.28 125.57 255.33 126.06C252.97 126.46 250.57 126.4 248.23 126.34C245.47 126.26 242.7 126.45 239.94 126.11C238.76 125.97 237.66 125.06 236.4 125.65" stroke="#2071B5" stroke-width="4.21" stroke-linecap="round" stroke-linejoin="round"/>
<path d="M264 171.8C260.59 172.19 257.16 172.26 253.74 172.56C252.64 172.66 251.49 172.78 250.39 172.39" stroke="#2071B5" stroke-width="4.21" stroke-linecap="round" stroke-linejoin="round"/>
<path d="M224.56 228.99C225.15 228.87 225.64 227.94 226.14 228.55C226.14 251.6 225.94 269.68 225.94 292.49" stroke="#2071B5" stroke-width="4.21" stroke-linecap="round" stroke-linejoin="round"/>
<path d="M241.52 138.27C237.36 137.83 233.29 136.93 229.3 135.67C228.88 135.54 228.49 135.61 228.1 135.51" stroke="#2071B5" stroke-width="4.21" stroke-linecap="round" stroke-linejoin="round"/>
<path d="M307.39 143.6C307.63 146.55 307.55 149.52 307.59 152.47C307.67 157.14 307.34 161.81 307.78 166.47" stroke="#2071B5" stroke-width="4.21" stroke-linecap="round" stroke-linejoin="round"/>
<path d="M204.44 224.26C206.33 226.05 205.43 228.29 205.42 230.37C205.39 237.86 205.63 245.36 205.62 252.85C205.62 259.56 205.62 266.26 205.62 272.97C205.62 276.32 205.5 279.68 205.48 283.03C205.48 283.51 205.01 283.77 205.22 284.21" stroke="#2071B5" stroke-width="4.21" stroke-linecap="round" stroke-linejoin="round"/>
<path d="M262.23 52.8801C262.19 56.0401 261.77 59.1601 261.93 62.3501C262.05 64.7101 260.12 66.4801 258.06 67.2101C251.81 69.4101 245.54 69.8701 239.33 66.7301C237.18 65.6401 236.56 63.7501 236.91 61.9701C237.41 59.4701 236.73 57.0801 236.93 54.6401C237.02 53.5201 237.16 52.6501 238.06 52.0901C238.68 52.0401 239.7 53.0701 240.11 53.3001C244.31 55.7601 251.4 55.6801 253.51 55.1601C260.3 53.4801 259.64 53.4201 261.44 52.0801" stroke="#2071B5" stroke-width="4.21" stroke-linecap="round" stroke-linejoin="round"/>
<path d="M191.82 167.66C190.29 167.64 188.99 166.85 187.7 166.24C185.09 165 182.22 164.37 179.78 162.75C179.55 162.6 179.14 162.73 178.81 162.73" stroke="#2071B5" stroke-width="4.21" stroke-linecap="round" stroke-linejoin="round"/>
<path d="M238.76 111.65C236.17 112.71 235.6 114.92 235.63 117.37C235.66 120.14 235.64 122.88 236.1 125.67C236.62 128.81 238.4 130.26 241.12 131.19C243.95 132.17 246.86 132.4 249.97 132.82C250.11 135.57 249.83 138.61 250.2 141.63" stroke="#2071B5" stroke-width="4.21" stroke-linecap="round" stroke-linejoin="round"/>
<path d="M261.04 111.65C265.37 114.02 264.5 118.2 264.23 121.89C264.14 123.03 264 124.44 263.75 125.68C263.23 128.35 261.53 129.59 259.45 130.55C256.54 131.91 253.42 132.55 250 132.39V118.95" stroke="#2071B5" stroke-width="4.21" stroke-linecap="round" stroke-linejoin="round"/>
<path d="M339.53 91.3397C339.63 88.1797 339.52 83.2497 339.91 80.0997C339.95 79.7397 340.08 79.5197 340.49 79.1797C342.58 80.4997 344.8 81.5997 347.39 82.1897C350.88 82.9897 354.14 82.5097 357.47 81.8597C358.98 81.5697 360.5 81.5397 362.02 81.3297C362.65 81.2397 363.12 81.0297 363.59 80.6997" stroke="#2071B5" stroke-width="4.21" stroke-linecap="round" stroke-linejoin="round"/>
<path d="M148.44 89.5598C144.24 89.8698 142.52 90.6398 136.61 85.5898" stroke="#2071B5" stroke-width="4.21" stroke-linecap="round" stroke-linejoin="round"/>
<path d="M307.19 146.16C303.63 147.67 300 149.03 296.35 150.33C296 150.46 295.68 150.43 295.35 150.5" stroke="#2071B5" stroke-width="4.21" stroke-linecap="round" stroke-linejoin="round"/>
<path d="M264.59 249.3C264.59 254.43 264.5 259.56 264.62 264.68C264.75 270.53 264.78 276.38 264.79 282.23C264.8 286.11 264.43 289.99 264.79 293.87" stroke="#2071B5" stroke-width="4.21" stroke-linecap="round" stroke-linejoin="round"/>
<path d="M360.44 186.98C360.93 190.71 361.56 194.43 361.43 198.22" stroke="#2071B5" stroke-width="4.21" stroke-linecap="round" stroke-linejoin="round"/>
<path d="M137.85 79.5596C140.49 83.3096 144.75 82.4296 148.63 82.4596" stroke="#2071B5" stroke-width="4.21" stroke-linecap="round" stroke-linejoin="round"/>
<path d="M210.16 177.52C209.92 182.25 209.98 186.99 209.95 191.72C209.95 192.46 210.17 193.25 209.56 193.89" stroke="#2071B5" stroke-width="4.21" stroke-linecap="round" stroke-linejoin="round"/>
<path d="M370.1 107.9C369.96 111.65 369.49 115.38 369.71 119.14" stroke="#2071B5" stroke-width="4.21" stroke-linecap="round" stroke-linejoin="round"/>
<path d="M261.44 59.7803C258.47 61.5903 255.22 62.5303 251.78 62.9803C251.25 63.0503 250.72 63.0203 250.2 63.1303" stroke="#2071B5" stroke-width="4.21" stroke-linecap="round" stroke-linejoin="round"/>
<path d="M284.31 276.52C281.58 278.79 280.39 282.1 278.59 285C278.19 285.65 277.87 286.35 277.41 286.97" stroke="#2071B5" stroke-width="4.21" stroke-linecap="round" stroke-linejoin="round"/>
<path d="M159.48 86.7998C156.21 88.8098 152.59 89.4398 148.83 89.5598" stroke="#2071B5" stroke-width="4.21" stroke-linecap="round" stroke-linejoin="round"/>
<path d="M239.55 413.97C245.78 413.42 252.05 413.27 258.28 413.28C262.14 413.28 266.12 413.16 269.92 414.34C270.4 414.49 270.97 414.36 271.49 414.36" stroke="#2071B5" stroke-width="4.21" stroke-linecap="round" stroke-linejoin="round"/>
<path d="M314.49 100.8C314.1 103.68 313.4 106.53 313.7 109.48C313.76 110.07 313.61 110.69 313.9 111.25" stroke="#2071B5" stroke-width="4.21" stroke-linecap="round" stroke-linejoin="round"/>
<path d="M292.01 177.72C291.75 182.12 291.82 186.53 291.82 190.93C291.82 191.59 291.7 192.27 292.01 192.9" stroke="#2071B5" stroke-width="4.21" stroke-linecap="round" stroke-linejoin="round"/>
<path d="M362.61 209.27C363.24 212.67 362.94 216.1 363 219.52" stroke="#2071B5" stroke-width="4.21" stroke-linecap="round" stroke-linejoin="round"/>
<path d="M237.77 60.3799C240.7 62.5899 244.17 62.8899 247.63 63.0999C248.33 63.1399 249.07 63.2999 249.8 63.1399" stroke="#2071B5" stroke-width="4.21" stroke-linecap="round" stroke-linejoin="round"/>
<path d="M209.77 195.07C209.25 202.89 210.1 210.72 209.4 218.54C209.32 219.38 210.13 220.4 208.79 220.9" stroke="#2071B5" stroke-width="4.21" stroke-linecap="round" stroke-linejoin="round"/>
<path d="M339.65 83.8799C341.86 88.7799 346.28 87.9899 346.28 87.9899C349.63 87.9899 350.77 87.7799 352.94 87.9899C356.14 88.2999 365.57 87.2599 365.16 84.6999" stroke="#2071B5" stroke-width="4.21" stroke-linecap="round" stroke-linejoin="round"/>
<path d="M250 184.22V200" stroke="#2071B5" stroke-width="4.21" stroke-linecap="round" stroke-linejoin="round"/>
<path d="M200.9 193.89V211.24" stroke="#2071B5" stroke-width="4.21" stroke-linecap="round" stroke-linejoin="round"/>
<path d="M236.39 114.81C237.46 117.15 239.15 117.83 242.7 118.4C246 118.93 255.29 118.46 258.54 117.96C260.96 117.59 262.76 113.66 262.78 112.96" stroke="#2071B5" stroke-width="4.21" stroke-linecap="round" stroke-linejoin="round"/>
<path d="M259.86 373.15C256.8 373.75 253.7 373.8 250.59 373.74" stroke="#2071B5" stroke-width="4.21" stroke-linecap="round" stroke-linejoin="round"/>
<path d="M260.25 366.64C259.95 373.15 259.85 379.67 259.29 386.17C259.19 387.34 259.07 388.55 259.46 389.72" stroke="#2071B5" stroke-width="4.21" stroke-linecap="round" stroke-linejoin="round"/>
<path d="M148.04 147.74C147.99 148.53 148.15 149.34 147.89 150.3C151.01 151.31 154.31 152.12 157.51 153.26" stroke="#2071B5" stroke-width="4.21" stroke-linecap="round" stroke-linejoin="round"/>
<path d="M285.1 252.06C285.09 257.72 285.12 263.37 284.74 269.02C284.53 272.1 284.86 275.2 284.51 278.29" stroke="#2071B5" stroke-width="4.21" stroke-linecap="round" stroke-linejoin="round"/>
<path d="M239.15 409.24C239.15 410.82 239.15 412.4 239.15 414.22C236.25 414.59 233.22 415.53 230.08 415.95" stroke="#2071B5" stroke-width="4.21" stroke-linecap="round" stroke-linejoin="round"/>
<path d="M352.75 98.04V108.29" stroke="#2071B5" stroke-width="4.21" stroke-linecap="round" stroke-linejoin="round"/>
<path d="M278.99 133.54C276.17 134.11 273.55 135.39 270.71 135.91" stroke="#2071B5" stroke-width="4.21" stroke-linecap="round" stroke-linejoin="round"/>
<path d="M332.24 219.13V227.41" stroke="#2071B5" stroke-width="4.21" stroke-linecap="round" stroke-linejoin="round"/>
<path d="M208.39 152.47V160.75" stroke="#2071B5" stroke-width="4.21" stroke-linecap="round" stroke-linejoin="round"/>
<path d="M284.91 196.65C285.28 201.31 285.07 205.98 285.1 210.65C285.13 215.25 285.08 219.85 285.11 224.45C285.16 230.63 285.06 236.81 285.11 242.99C285.13 245.69 285.03 248.38 285.15 251.07C285.2 252.12 284.62 251.81 284.12 251.86" stroke="#2071B5" stroke-width="4.21" stroke-linecap="round" stroke-linejoin="round"/>
<path d="M305.22 267.05C307.01 268.47 307.74 270.67 309.12 272.41C311.72 275.7 314.69 278.34 318.82 279.49C320.02 279.82 320.88 281.2 322.37 280.66" stroke="#2071B5" stroke-width="4.21" stroke-linecap="round" stroke-linejoin="round"/>
<path d="M200.9 220.71V233.73" stroke="#2071B5" stroke-width="4.21" stroke-linecap="round" stroke-linejoin="round"/>
<path d="M185.71 103.76C185.47 105.81 186.11 107.83 185.91 109.87C185.85 110.46 186 111.08 185.71 111.64" stroke="#2071B5" stroke-width="4.21" stroke-linecap="round" stroke-linejoin="round"/>
<path d="M307.29 180.28C307.29 182.91 306.74 190.5 306.74 193.12" stroke="#2071B5" stroke-width="4.21" stroke-linecap="round" stroke-linejoin="round"/>
<path d="M283.53 388.53C283.45 390.7 283.38 392.85 283.33 395.04C283.31 396.09 283.4 396.45 283.54 396.83" stroke="#2071B5" stroke-width="4.21" stroke-linecap="round" stroke-linejoin="round"/>
<path d="M200.5 212.03C200.63 211.96 200.88 212.03 200.88 212.23C200.83 214.6 201.07 216.97 200.7 219.33" stroke="#2071B5" stroke-width="4.21" stroke-linecap="round" stroke-linejoin="round"/>
<path d="M267.55 137.09C265.03 137.34 262.63 138.39 260.06 138.27" stroke="#2071B5" stroke-width="4.21" stroke-linecap="round" stroke-linejoin="round"/>
<path d="M239.15 322.86C238.91 325.31 239.66 327.71 239.54 330.16" stroke="#2071B5" stroke-width="4.21" stroke-linecap="round" stroke-linejoin="round"/>
<path d="M250 172.59C247.55 172.78 245.16 171.93 242.7 172.2" stroke="#2071B5" stroke-width="4.21" stroke-linecap="round" stroke-linejoin="round"/>
<path d="M242.9 373.35C245.31 373.91 247.76 373.78 250.2 373.74" stroke="#2071B5" stroke-width="4.21" stroke-linecap="round" stroke-linejoin="round"/>
<path d="M242.7 200.39C242.81 204.73 242.49 209.07 242.5 213.41C242.52 222.35 242.5 231.29 242.5 240.23C242.5 240.89 242.62 241.57 242.31 242.2" stroke="#2071B5" stroke-width="4.21" stroke-linecap="round" stroke-linejoin="round"/>
<path d="M229.29 260.54C231.19 263.09 234.01 264.82 235.6 267.64" stroke="#2071B5" stroke-width="4.21" stroke-linecap="round" stroke-linejoin="round"/>
<path d="M281.36 208.48C280.87 210.27 279.99 211.87 278.98 213.4C278.27 214.47 277.89 215.69 277.22 216.76" stroke="#2071B5" stroke-width="4.21" stroke-linecap="round" stroke-linejoin="round"/>
<path d="M213.91 110.66C211.98 110.85 210.18 110.22 208.4 109.64C207.84 109.46 207.33 109.58 206.81 109.48" stroke="#2071B5" stroke-width="4.21" stroke-linecap="round" stroke-linejoin="round"/>
<path d="M231.66 274.74C231.97 276.27 233.37 276.98 234.26 278.09C235.28 277.89 235.63 276.56 236.79 276.52" stroke="#2071B5" stroke-width="4.21" stroke-linecap="round" stroke-linejoin="round"/>
<path d="M158.89 80.0996C157.61 81.4696 155.8 81.7296 154.14 81.9996C153.41 82.1196 151.99 82.2896 148.63 82.4696" stroke="#2071B5" stroke-width="4.21" stroke-linecap="round" stroke-linejoin="round"/>
<path d="M275.83 206.11C275.21 207.93 275.78 209.8 275.74 211.63C275.66 215.5 276.17 219.42 275.72 223.25C275.35 226.45 275.85 229.57 275.72 232.73C275.42 239.88 275.63 247.06 275.62 254.22C275.62 254.35 275.62 254.48 275.83 254.61" stroke="#2071B5" stroke-width="4.21" stroke-linecap="round" stroke-linejoin="round"/>
<path d="M275.64 275.73C275.55 281.05 275.85 286.38 275.44 291.7" stroke="#2071B5" stroke-width="4.21" stroke-linecap="round" stroke-linejoin="round"/>
<path d="M205.43 209.86C204.86 211.82 205.21 213.82 205.3 215.77C205.42 218.14 205.23 220.52 205.61 222.87C205.74 223.68 205.58 224.48 205.23 225.23" stroke="#2071B5" stroke-width="4.21" stroke-linecap="round" stroke-linejoin="round"/>
<path d="M353.34 173.97C353.76 176 353.44 178.05 353.54 180.08" stroke="#2071B5" stroke-width="4.21" stroke-linecap="round" stroke-linejoin="round"/>
<path d="M241.32 241.41C242.56 242.23 242.62 243.48 242.5 244.76C242.23 247.52 242.53 250.27 242.3 253.06C242.09 255.66 242.52 258.43 242.51 261.13C242.48 267.11 242.65 273.09 242.62 279.08C242.59 283.54 242.37 288.02 242.65 292.49C242.69 293.13 242.73 293.98 242.32 294.66" stroke="#2071B5" stroke-width="4.21" stroke-linecap="round" stroke-linejoin="round"/>
<path d="M352.94 82.8604V88.7803" stroke="#2071B5" stroke-width="4.21" stroke-linecap="round" stroke-linejoin="round"/>
<path d="M281.75 244.77C281.33 244.77 280.89 244.65 280.95 245.36C281.08 246.93 280.93 248.47 280.17 249.89" stroke="#2071B5" stroke-width="4.21" stroke-linecap="round" stroke-linejoin="round"/>
<path d="M237.18 220.12C236.75 223.66 237.06 227.22 237 230.77C236.93 234.84 236.88 238.92 237.01 243C237.14 247.27 237.02 251.55 237.1 255.82C237.18 260.28 237.14 264.76 237.12 269.23C237.1 273.57 237.15 277.91 237.1 282.24C237.05 285.99 237.19 289.74 236.98 293.48C236.96 293.8 237.21 293.99 237.19 294.27" stroke="#2071B5" stroke-width="4.21" stroke-linecap="round" stroke-linejoin="round"/>
<path d="M215.49 217.95C213.95 219.1 212.73 220.58 211.35 221.89C210.96 222.26 210.68 222.86 209.97 222.68" stroke="#2071B5" stroke-width="4.21" stroke-linecap="round" stroke-linejoin="round"/>
<path d="M257.3 218.34C255.87 220.01 254.38 221.61 252.57 222.88" stroke="#2071B5" stroke-width="4.21" stroke-linecap="round" stroke-linejoin="round"/>
<path d="M205.63 192.51C205.19 193.2 205.47 193.97 205.46 194.68C205.41 199.61 205.46 204.54 205.41 209.47C206.19 209.99 206.54 209.52 206.81 208.88" stroke="#2071B5" stroke-width="4.21" stroke-linecap="round" stroke-linejoin="round"/>
<path d="M263.41 226.82C263.66 226.59 263.67 226.19 264.38 225.87C264.99 229.79 264.58 233.67 264.69 237.47C264.8 241.27 264.64 245.09 264.59 248.91" stroke="#2071B5" stroke-width="4.21" stroke-linecap="round" stroke-linejoin="round"/>
<path d="M300.88 110.47C301.43 112.15 300.72 113.92 301.27 115.6" stroke="#2071B5" stroke-width="4.21" stroke-linecap="round" stroke-linejoin="round"/>
<path d="M236.79 210.85C237.26 213.07 236.93 215.32 236.96 217.56C236.98 218.76 237.1 219.83 237.97 220.71" stroke="#2071B5" stroke-width="4.21" stroke-linecap="round" stroke-linejoin="round"/>
<path d="M236.79 200.99C237.36 203.86 236.71 206.78 237.14 209.67C237.26 210.49 236.32 210.9 235.61 211.24" stroke="#2071B5" stroke-width="4.21" stroke-linecap="round" stroke-linejoin="round"/>
<path d="M282.54 264.88C280.66 267.12 279.12 269.61 277.43 271.99C277.05 272.53 276.74 273.06 276.03 273.16" stroke="#2071B5" stroke-width="4.21" stroke-linecap="round" stroke-linejoin="round"/>
<path d="M222 283.62C220.58 281.89 219.32 280.02 217.66 278.49" stroke="#2071B5" stroke-width="4.21" stroke-linecap="round" stroke-linejoin="round"/>
<path d="M253.35 257.39C253.68 257.39 253.95 256.96 254.35 257.38C256.15 259.25 258.39 260.58 260.45 262.12" stroke="#2071B5" stroke-width="4.21" stroke-linecap="round" stroke-linejoin="round"/>
<path d="M238.77 111.58C240.37 110.99 245.59 111.58 250.77 111.98" stroke="#2071B5" stroke-width="4.21" stroke-linecap="round" stroke-linejoin="round"/>
<path d="M257.69 252.26C256.76 253.98 255.31 255.26 253.93 256.59C253.5 257 253.46 256.47 253.35 256.21" stroke="#2071B5" stroke-width="4.21" stroke-linecap="round" stroke-linejoin="round"/>
<path d="M275.64 255.22C275.64 260.54 275.66 265.87 275.62 271.19C275.62 272 275.82 272.76 275.86 273.56C275.9 274.6 275.67 275.45 274.66 275.93" stroke="#2071B5" stroke-width="4.21" stroke-linecap="round" stroke-linejoin="round"/>
<path d="M352.94 89.1699C352.9 91.8699 353.06 94.5699 352.74 97.2599" stroke="#2071B5" stroke-width="4.21" stroke-linecap="round" stroke-linejoin="round"/>
<path d="M201.09 251.87C200.88 253.33 200.54 254.79 201.29 256.21" stroke="#2071B5" stroke-width="4.21" stroke-linecap="round" stroke-linejoin="round"/>
<path d="M225.74 254.23C225.52 254.23 225.34 254.25 225.14 254.42C223.16 256.12 221.4 258.04 219.43 259.75" stroke="#2071B5" stroke-width="4.21" stroke-linecap="round" stroke-linejoin="round"/>
<path d="M282.93 199.8C281.59 201.62 281.08 203.88 279.77 205.72" stroke="#2071B5" stroke-width="4.21" stroke-linecap="round" stroke-linejoin="round"/>
<path d="M275.64 198.62C275.85 200.99 275.75 203.35 275.64 205.72" stroke="#2071B5" stroke-width="4.21" stroke-linecap="round" stroke-linejoin="round"/>
<path d="M284.51 278.69C284.51 281.65 284.52 284.61 284.32 287.56C284.28 288.15 284.24 288.76 284.51 289.33" stroke="#2071B5" stroke-width="4.21" stroke-linecap="round" stroke-linejoin="round"/>
<path d="M272.68 227.81C271.28 228.78 270.28 230.14 269.13 231.36" stroke="#2071B5" stroke-width="4.21" stroke-linecap="round" stroke-linejoin="round"/>
<path d="M217.07 217.95C218.07 219.43 219.62 220.42 220.62 221.89" stroke="#2071B5" stroke-width="4.21" stroke-linecap="round" stroke-linejoin="round"/>
<path d="M291.41 182.45C290 182.89 288.72 183.69 287.27 184.03" stroke="#2071B5" stroke-width="4.21" stroke-linecap="round" stroke-linejoin="round"/>
<path d="M170.13 100.02C171.15 101.53 172.55 102.62 174.07 103.57" stroke="#2071B5" stroke-width="4.21" stroke-linecap="round" stroke-linejoin="round"/>
<path d="M260.86 51.7996C256.15 48.0196 238.05 49.4596 238.05 52.0996" stroke="#2071B5" stroke-width="4.21" stroke-linecap="round" stroke-linejoin="round"/>
<path d="M222.79 284.21C222.35 285.94 220.34 286.25 219.62 287.75C219.28 288.47 219.15 288.98 220.22 288.94" stroke="#2071B5" stroke-width="4.21" stroke-linecap="round" stroke-linejoin="round"/>
<path d="M217.07 261.92C215.29 264.03 212.77 265.37 211.15 267.64" stroke="#2071B5" stroke-width="4.21" stroke-linecap="round" stroke-linejoin="round"/>
<path d="M229.29 240.03C230.44 240.84 231.78 241.43 232.45 242.79" stroke="#2071B5" stroke-width="4.21" stroke-linecap="round" stroke-linejoin="round"/>
<path d="M239.94 258.57C240.09 259.11 240.61 259.35 240.95 259.79C239.69 260.82 238.75 262.2 237.38 263.11" stroke="#2071B5" stroke-width="4.21" stroke-linecap="round" stroke-linejoin="round"/>
<path d="M282.54 252.26C281.31 253 280.61 254.27 279.58 255.22" stroke="#2071B5" stroke-width="4.21" stroke-linecap="round" stroke-linejoin="round"/>
<path d="M281.75 219.52C282.05 220.66 281.47 221.7 280.89 222.42C280.23 223.25 279.79 224.11 279.38 225.04" stroke="#2071B5" stroke-width="4.21" stroke-linecap="round" stroke-linejoin="round"/>
<path d="M240.93 241.81C239.66 242.54 238.69 243.69 237.38 244.37" stroke="#2071B5" stroke-width="4.21" stroke-linecap="round" stroke-linejoin="round"/>
<path d="M212.14 280.46C212.77 281.59 213.99 282.17 214.43 283.15C215.57 283.45 215.56 282.25 216.28 282.23" stroke="#2071B5" stroke-width="4.21" stroke-linecap="round" stroke-linejoin="round"/>
<path d="M259.27 284.21C258.17 283.93 257.29 282.35 255.92 283.62" stroke="#2071B5" stroke-width="4.21" stroke-linecap="round" stroke-linejoin="round"/>
<path d="M234.81 212.03C233.48 212.77 232.79 214.25 231.46 214.99" stroke="#2071B5" stroke-width="4.21" stroke-linecap="round" stroke-linejoin="round"/>
<path d="M235.6 245.95C235.6 246.28 236.11 246.64 235.6 246.93C233.57 248.08 232.38 250.18 230.48 251.47" stroke="#2071B5" stroke-width="4.21" stroke-linecap="round" stroke-linejoin="round"/>
<path d="M218.64 225.44C216.95 226.84 215.47 228.45 213.87 230.01C213.42 229.35 212.68 228.95 212.33 228.2" stroke="#2071B5" stroke-width="4.21" stroke-linecap="round" stroke-linejoin="round"/>
<path d="M224.17 263.3C222.65 264.26 221.74 265.89 220.23 266.85" stroke="#2071B5" stroke-width="4.21" stroke-linecap="round" stroke-linejoin="round"/>
<path d="M235.6 231.16C234.61 232.15 233.63 233.13 232.64 234.12" stroke="#2071B5" stroke-width="4.21" stroke-linecap="round" stroke-linejoin="round"/>
<path d="M263.21 227.21C262.29 228.2 261.21 229.03 260.45 230.17" stroke="#2071B5" stroke-width="4.21" stroke-linecap="round" stroke-linejoin="round"/>
<path d="M237.97 250.29C238.77 251.2 239.95 251.73 240.53 252.85" stroke="#2071B5" stroke-width="4.21" stroke-linecap="round" stroke-linejoin="round"/>
<path d="M216.87 252.85C216.98 253.31 217.68 253.7 216.88 254.25C215.92 254.9 215.37 256.04 214.3 256.6" stroke="#2071B5" stroke-width="4.21" stroke-linecap="round" stroke-linejoin="round"/>
<path d="M214.7 258.18C214.96 259.72 216.47 260.24 217.26 261.34" stroke="#2071B5" stroke-width="4.21" stroke-linecap="round" stroke-linejoin="round"/>
<path d="M232.65 234.91C233.17 236.1 234.25 236.91 234.82 238.07" stroke="#2071B5" stroke-width="4.21" stroke-linecap="round" stroke-linejoin="round"/>
<path d="M219.04 268.04C218.32 268.58 217.46 268.91 216.86 269.64C217.09 271.15 218.57 271.77 219.24 272.97" stroke="#2071B5" stroke-width="4.21" stroke-linecap="round" stroke-linejoin="round"/>
<path d="M234.03 258.97C233.09 257.92 232.45 256.53 230.87 256.21" stroke="#2071B5" stroke-width="4.21" stroke-linecap="round" stroke-linejoin="round"/>
<path d="M216.28 199.41C214.69 201.62 212.22 203 210.76 205.33" stroke="#2071B5" stroke-width="4.21" stroke-linecap="round" stroke-linejoin="round"/>
<path d="M222.59 211.24C220.86 212.52 219.6 214.31 217.86 215.58" stroke="#2071B5" stroke-width="4.21" stroke-linecap="round" stroke-linejoin="round"/>
<path d="M286.09 284.21C286.2 285.79 285.91 287.38 286.29 288.94" stroke="#2071B5" stroke-width="4.21" stroke-linecap="round" stroke-linejoin="round"/>
<path d="M262.82 246.74C262.04 248.17 260.45 248.87 259.66 250.29" stroke="#2071B5" stroke-width="4.21" stroke-linecap="round" stroke-linejoin="round"/>
<path d="M259.66 280.26C259.21 281.3 258.02 281.66 257.49 282.63" stroke="#2071B5" stroke-width="4.21" stroke-linecap="round" stroke-linejoin="round"/>
<path d="M290.03 196.45C289.16 197.98 290.14 199.95 288.85 201.38" stroke="#2071B5" stroke-width="4.21" stroke-linecap="round" stroke-linejoin="round"/>
<path d="M258.68 261.33C258.26 262.14 257.51 262.65 256.91 263.3" stroke="#2071B5" stroke-width="4.21" stroke-linecap="round" stroke-linejoin="round"/>
<path d="M280.57 261.73C279.86 262.4 279.39 263.22 278.99 264.1" stroke="#2071B5" stroke-width="4.21" stroke-linecap="round" stroke-linejoin="round"/>
<path d="M281.95 271.39C282.02 271.52 281.89 271.61 281.76 271.79C280.63 273.31 279.5 274.84 278.99 276.71" stroke="#2071B5" stroke-width="4.21" stroke-linecap="round" stroke-linejoin="round"/>
<path d="M148.44 169.43C149.23 169.54 149.96 170.02 150.81 169.82" stroke="#2071B5" stroke-width="4.21" stroke-linecap="round" stroke-linejoin="round"/>
<path d="M262.23 247.92C263.05 248.16 263.39 249.58 264.6 248.91" stroke="#2071B5" stroke-width="4.21" stroke-linecap="round" stroke-linejoin="round"/>
<path d="M213.12 273.56C214.7 274.52 215.43 276.24 216.67 277.5" stroke="#2071B5" stroke-width="4.21" stroke-linecap="round" stroke-linejoin="round"/>
<path d="M288.46 278.69C288.46 278.76 288.49 278.85 288.46 278.88C287.38 280.15 286.46 281.5 286.29 283.22" stroke="#2071B5" stroke-width="4.21" stroke-linecap="round" stroke-linejoin="round"/>
<path d="M207.99 238.85C207.17 239.16 206.85 240.25 205.82 240.23" stroke="#2071B5" stroke-width="4.21" stroke-linecap="round" stroke-linejoin="round"/>
<path d="M282.14 263.7C281.28 264.2 281.91 264.87 281.94 265.47" stroke="#2071B5" stroke-width="4.21" stroke-linecap="round" stroke-linejoin="round"/>
<path d="M260.45 237.47C261.12 238.05 261.61 238.83 262.42 239.24" stroke="#2071B5" stroke-width="4.21" stroke-linecap="round" stroke-linejoin="round"/>
<path d="M236.59 238.85C235.81 238.68 235.67 239.97 234.82 239.64" stroke="#2071B5" stroke-width="4.21" stroke-linecap="round" stroke-linejoin="round"/>
<path d="M227.72 271.39C228.41 271.89 228.86 272.62 229.49 273.16" stroke="#2071B5" stroke-width="4.21" stroke-linecap="round" stroke-linejoin="round"/>
<path d="M220.22 272.38C219.13 272.97 218.57 274.19 217.46 274.75" stroke="#2071B5" stroke-width="4.21" stroke-linecap="round" stroke-linejoin="round"/>
<path d="M254.14 212.42C253.68 211.85 253.1 211.57 252.37 211.63" stroke="#2071B5" stroke-width="4.21" stroke-linecap="round" stroke-linejoin="round"/>
<path d="M262.62 270.01C262.09 270.54 261.57 271.06 261.04 271.59" stroke="#2071B5" stroke-width="4.21" stroke-linecap="round" stroke-linejoin="round"/>
<path d="M254.93 279.47C254.37 280.69 253.44 280.7 252.37 280.26" stroke="#2071B5" stroke-width="4.21" stroke-linecap="round" stroke-linejoin="round"/>
<path d="M262.82 263.7C263.14 264.26 263.46 264.82 264.2 264.88" stroke="#2071B5" stroke-width="4.21" stroke-linecap="round" stroke-linejoin="round"/>
<path d="M225.74 278.88C225 278.95 224.68 279.5 224.36 280.06" stroke="#2071B5" stroke-width="4.21" stroke-linecap="round" stroke-linejoin="round"/>
<path d="M258.09 287.76C257.83 289.33 257.68 290.9 257.7 292.49" stroke="#2071B5" stroke-width="4.21" stroke-linecap="round" stroke-linejoin="round"/>
<path d="M218.64 197.24C218.42 197.85 218.12 198.39 217.46 198.62" stroke="#2071B5" stroke-width="4.21" stroke-linecap="round" stroke-linejoin="round"/>
<path d="M232.84 249.7C233.21 250.18 233.83 250.45 234.02 251.08" stroke="#2071B5" stroke-width="4.21" stroke-linecap="round" stroke-linejoin="round"/>
<path d="M200.9 249.1C200.56 250.76 201.34 251.98 202.48 253.04" stroke="#2071B5" stroke-width="4.21" stroke-linecap="round" stroke-linejoin="round"/>
<path d="M249.01 227.02C248.56 227.19 248.18 227.61 247.63 227.41" stroke="#2071B5" stroke-width="4.21" stroke-linecap="round" stroke-linejoin="round"/>
<path d="M261.24 225.83C261.43 226.46 262.05 226.73 262.42 227.21" stroke="#2071B5" stroke-width="4.21" stroke-linecap="round" stroke-linejoin="round"/>
<path d="M278.6 217.95C278 217.01 277.13 216.64 276.04 216.77" stroke="#2071B5" stroke-width="4.21" stroke-linecap="round" stroke-linejoin="round"/>
<path d="M261.64 269.22C262.54 269.67 263.31 270.34 264.2 270.8" stroke="#2071B5" stroke-width="4.21" stroke-linecap="round" stroke-linejoin="round"/>
<path d="M241.91 253.05C240.82 252.42 240.29 253.44 239.54 253.84" stroke="#2071B5" stroke-width="4.21" stroke-linecap="round" stroke-linejoin="round"/>
<path d="M230.48 214C230.98 214.8 231.56 215.53 232.25 216.17" stroke="#2071B5" stroke-width="4.21" stroke-linecap="round" stroke-linejoin="round"/>
<path d="M242.9 251.08C243.3 251 243.63 250.8 243.89 250.49C244.31 250.79 244.52 251.34 245.07 251.48" stroke="#2071B5" stroke-width="4.21" stroke-linecap="round" stroke-linejoin="round"/>
<path d="M244.28 290.91C243.25 291.32 244.07 291.95 244.08 292.49" stroke="#2071B5" stroke-width="4.21" stroke-linecap="round" stroke-linejoin="round"/>
<path d="M214.9 275.73C214.13 275.96 213.9 276.88 213.13 277.11" stroke="#2071B5" stroke-width="4.21" stroke-linecap="round" stroke-linejoin="round"/>
<path d="M221.8 265.87C222.42 266.3 222.5 266.97 222.59 267.64" stroke="#2071B5" stroke-width="4.21" stroke-linecap="round" stroke-linejoin="round"/>
<path d="M211.74 204.54C212.2 205.07 212.81 205.46 213.12 206.12" stroke="#2071B5" stroke-width="4.21" stroke-linecap="round" stroke-linejoin="round"/>
<path d="M276.62 254.23C276.12 254.89 275.42 255.04 274.65 255.02" stroke="#2071B5" stroke-width="4.21" stroke-linecap="round" stroke-linejoin="round"/>
<path d="M247.24 284.21C246.68 284.19 246.09 284.12 246.25 285" stroke="#2071B5" stroke-width="4.21" stroke-linecap="round" stroke-linejoin="round"/>
<path d="M284.31 282.83C283.77 283.33 283.38 282.77 282.93 282.63" stroke="#2071B5" stroke-width="4.21" stroke-linecap="round" stroke-linejoin="round"/>
<path d="M389.03 234.31C386.71 235.44 384.15 236.31 382.94 238.86C382.06 240.71 381.2 242.59 381.32 244.77C381.46 247.28 383.36 248.73 385.88 248.34C390.5 247.62 393.82 242.08 393.14 237.68C392.82 235.62 391.29 234.56 389.23 234.32" stroke="#2071B5" stroke-width="4.21" stroke-linecap="round" stroke-linejoin="round"/>
<path d="M133.25 196.25C128.1 197.25 125.8 204.09 127.11 207.7C128.49 211.49 132.07 212.73 135.63 209.88C138.93 207.24 139.27 202.18 138.36 199.61C137.51 197.19 136.07 196.25 133.44 196.25" stroke="#2071B5" stroke-width="4.21" stroke-linecap="round" stroke-linejoin="round"/>
<path d="M249.5 96.5054C250.81 96.5054 250.2 112.1 251.5 112C258.5 111.47 267.93 110.14 274.26 106.93C277.67 105.2 279.45 102.58 279 98.6399C278.79 96.8099 278.95 94.9599 279 93.1199C279.31 83.8999 274.43 79.4299 266.75 77.7599C262.97 76.9399 259.22 76.0799 255.33 75.6699C247.08 74.7999 239.3 76.2399 231.65 79.1099C230.08 79.6999 228.78 80.7299 227.34 81.5299C224.64 83.0399 224.14 85.7699 224.19 88.5799C224.21 89.6799 225.1 90.5099 225.94 91.1199C228.08 92.6899 230.42 93.8599 233.02 94.4999C241.02 96.4699 249.11 96.9999 257.28 96.0399C261.92 95.4899 266.45 94.3699 270.69 92.3199C273.61 90.9099 276.2 89.1599 277.2 85.8099" fill="#FFDA00" fill-opacity="0.7"/>
<path d="M249.5 96.5054C250.81 96.5054 250.2 112.1 251.5 112C258.5 111.47 267.93 110.14 274.26 106.93C277.67 105.2 279.45 102.58 279 98.6399C278.79 96.8099 278.95 94.9599 279 93.1199C279.31 83.8999 274.43 79.4299 266.75 77.7599C262.97 76.9399 259.22 76.0799 255.33 75.6699C247.08 74.7999 239.3 76.2399 231.65 79.1099C230.08 79.6999 228.78 80.7299 227.34 81.5299C224.64 83.0399 224.14 85.7699 224.19 88.5799C224.21 89.6799 225.1 90.5099 225.94 91.1199C228.08 92.6899 230.42 93.8599 233.02 94.4999C241.02 96.4699 249.11 96.9999 257.28 96.0399C261.92 95.4899 266.45 94.3699 270.69 92.3199C273.61 90.9099 276.2 89.1599 277.2 85.8099" stroke="#2071B5" stroke-width="4.21" stroke-linecap="round" stroke-linejoin="round"/>
</svg>
