<?xml version="1.0" encoding="UTF-8"?>
<svg id="icons" xmlns="http://www.w3.org/2000/svg" viewBox="0 0 500 500">
  <defs>
    <style>
      .cls-1 {
        fill: none;
        stroke: #000;
        stroke-linecap: round;
        stroke-linejoin: round;
        stroke-width: .88px;
      }
    </style>
  </defs>
  <path class="cls-1" d="M132.06,281.49c2.71.2,5.43-.27,8.14.18.5.08,1.19-.2,1.1-1.06-.05-.51,0-1.02,0-1.54v-59.35h-9.67v59.35c0,4.18-.01,3.96-4.17,4.23-5.36.35-10.7-.42-16.05.13-1.67.17-3.3-.39-4.37-1.75-1.01-1.29-2.24-1.55-3.77-1.54-7.62.05-15.25.23-22.86-.03-12.89-.43-22.42-6.33-27.91-18.2-3.54-7.66-3.15-15.61.13-23.01,3.16-7.11,8.84-12.31,16.13-15.44,3.71-1.6,7.6-2.31,11.64-2.72,6.46-.67,12.91-.3,19.35-.29,2.72,0,4.96-.75,6.77-2.54,1.26-1.25,2.62-1.5,4.22-1.5,12.46,0,24.91,0,37.37,0,45.5,0,91.01.04,136.51-.05,5.36-.01,6.11,2.05,7.48,5.77,1.02,2.78,1.13,5.74,1,8.57-.19,3.99.48,7.9.37,11.88-.19,6.96-.05,13.92-.05,20.88"/>
  <path class="cls-1" d="M287.48,217.96c-55.1,0-110.21-.01-165.31.02-4.39,0-8.8-.3-13.19.18-.65.07-1.35.12-1.98-.21"/>
  <path class="cls-1" d="M398.27,263.91c1.12,3.63,4.01,5.71,6.81,7.93,5.78,4.58,12.53,5.83,19.57,5.19,10.1-.91,20.17-7.03,23.97-18.39,3.18-9.52.71-17.83-5.51-25.27-4.36-5.21-10.2-8.45-16.71-9.31-9.35-1.24-17.11,1.59-24.82,8.2-.63.54-1.22.85-2.23,2.39-.47.72-.64,1.52-1.2,2.44h-12.62c-29.9,0-59.79,0-89.69,0-1.84,0-3.65.25-5.5.23-.89,0,0,0-1.98,0"/>
  <path class="cls-1" d="M288.14,219.72h-139.81"/>
  <path class="cls-1" d="M291.36,273.98c-.01,1.95.28,5.36-2,7.29-.46.39-1.57.44-2.1.44-46.9,0-93.79,0-140.69,0"/>
  <path class="cls-1" d="M79.96,236.43c-3.81.33-7.09,1.63-10.17,4.1-5.38,4.31-5.95,13.56-2.13,18.76,3.22,4.39,7.59,7.03,12.97,7.39,3.71.25,7.22-1,10.33-3.21,8.41-5.96,8.94-17.29,3.24-24.37-2.85-3.54-6.79-5.9-11.38-6.36-7.02-.7-14.16,3.15-17.27,7.65-3.3,4.77-4.25,9.65-3.61,15.37"/>
  <path class="cls-1" d="M398.2,263.41c-35.9,0-68.67.05-104.57.07-.36,0-.63.36-.88.64.83,1.55.54,3.22.41,4.83-.18,2.27-.22,4.54-.17,6.82.04,1.83-.58,3.46-1.35,5.05-1.01,2.09-3.04,2.85-5.04,2.8-6.23-.18-12.46-.09-18.69-.22-12.46-.26-24.92-.19-37.37-.07-5.87.06-11.73-.42-17.59-.06-7.04.43-14.07-.1-21.1-.05-12.46.1-24.91.02-37.37.03-2.2,0-4.4-.02-6.59,0-1.06,0-1.62.22-1.64-1.54-.17-17.59-.15-35.17,0-52.76.03-4.01.3-8.08-.34-12.09"/>
  <path class="cls-1" d="M270.77,228.73h-122.66"/>
  <path class="cls-1" d="M270.77,273.58h-122.44"/>
  <path class="cls-1" d="M387.72,239.29h-93.87"/>
  <path class="cls-1" d="M407.5,241.26c-4.31,4.55-4.57,12.8-.21,18.02,4.45,5.32,10.53,6.96,16.89,5.79,6.9-1.27,11.27-5.96,12.79-13.03.86-4-.54-7.51-2.48-10.75-5.14-8.57-16.38-10.78-24.36-4.86"/>
  <path class="cls-1" d="M398.27,265.01c-3.45.2-6.9-.03-10.33-.03-3.8,0-7.62-.14-11.43.02-2.2.09-4.4-.01-6.59.02-6.23.08-12.46.13-18.68.11-4.39-.01-8.81-.19-13.19-.01-4.7.19-9.38-.09-14.08.03-4.75.13-9.52-.14-14.29-.13-5.42.02-10.84-.01-16.27,0"/>
  <path class="cls-1" d="M422.45,262.37c3.94-.56,6.91-2.68,8.99-5.95,3.23-5.09,1.97-11.94-3.33-15.74-6.57-4.71-17.14-3.08-20.55,6.1-1.43,3.84-.63,7.58,2.14,10.75"/>
  <path class="cls-1" d="M119.31,228.73c-12.6,0-25.21.04-37.81-.03-3.13-.02-6.12.41-9.01,1.57"/>
  <path class="cls-1" d="M146.57,219.72h1.54v61.77"/>
  <path class="cls-1" d="M260,229.17v43.97"/>
  <path class="cls-1" d="M119.75,218.4c0,4.25,0,8.5,0,12.75,0,12.46-.01,24.91,0,37.37,0,4.25-.23,8.51.21,12.75"/>
  <path class="cls-1" d="M265.94,231.59c-.47.69-.2,1.47-.2,2.2-.02,10.48-.01,20.96-.02,31.44,0,1.98.09,3.97-.22,5.94"/>
  <path class="cls-1" d="M86.17,262.42c5.31-2.29,8.1-7.43,8.14-13.42.05-7.55-7.24-13.71-14.72-12.54"/>
  <path class="cls-1" d="M61.94,255.77c.96,6.29,4.58,10.58,10.12,13.4,3.39,1.72,7.05,1.9,10.77,1.78,2.42-.07,4.84-.01,7.25-.01,9.75,0,19.49,0,29.24,0"/>
  <path class="cls-1" d="M260.44,230.27c2.29-.15,4.34.32,6.41,1.47,1.99,1.11,2.84,2.49,2.83,4.69-.03,9.82-.08,19.64.03,29.46.03,2.56-.96,4.4-2.87,5.38-1.61.82-3.23,1.07-6.58,1.2"/>
  <path class="cls-1" d="M286.4,235.48c.02,1.01-.01,2.98-.01,3.8-.01,14,0,27.99,0,41.99"/>
  <path class="cls-1" d="M288.36,237.31c0,8.13-.01,16.27.02,24.4,0,.74-.38,1.6.42,2.2"/>
  <path class="cls-1" d="M68.75,232.2c-5.16,3.53-8.65,7.61-9.8,13.68-.69,3.63-1.52,10.38,2.64,17.98"/>
  <path class="cls-1" d="M271.43,219.94c-.35.55-.21,1.17-.21,1.76,0,16.71,0,33.41,0,50.12v9.45"/>
  <path class="cls-1" d="M387.94,237.53v27.04"/>
  <path class="cls-1" d="M269.01,221.48h-23.74"/>
  <path class="cls-1" d="M120.19,219.72h8.66c-.59,3.96-.18,7.91-.09,11.87"/>
  <path class="cls-1" d="M286.38,220.16v15.39"/>
  <path class="cls-1" d="M288.14,263.47h-18.03"/>
  <path class="cls-1" d="M288.71,264.12c-.49,4.39-.31,9.68-.26,14.07,0,.68-.11.55.41,2.4"/>
  <path class="cls-1" d="M121.73,253.57c.56,2.21,2.12,3.85,3.25,5.75,1.49,2.52,3.18,4.92,4.67,7.44"/>
  <path class="cls-1" d="M129.2,232.91c-2.03,4.19-5.14,7.73-7.27,11.86-.19.36-.25.75-.43,1.11"/>
  <path class="cls-1" d="M400.47,238.63c-.62,1.05-1.09.61-1.76.64-3.51.18-7.03.02-10.55.02"/>
  <path class="cls-1" d="M271.65,235.33c4.24.4,8.5.13,12.75.23.81.02,1.06.02,2.01.03"/>
  <path class="cls-1" d="M128.76,271.16c0,3.37,0,6.74,0,10.34-6.59-.02-12.97-.01-19.34.22"/>
  <path class="cls-1" d="M145.91,283.25c-3.52.65-7.03-.11-10.55-.09-1.17,0-.75.08-6.34.04"/>
  <path class="cls-1" d="M263.74,279.51h-8.79"/>
  <path class="cls-1" d="M288.58,217.74c-.28,6.01-.21,12.02-.22,18.03"/>
  <path class="cls-1" d="M165.69,279.07c-2.04.35-4.09.45-6.16.44"/>
  <path class="cls-1" d="M292.75,235.55c-1.97.12-2.25.13-4.4.17"/>
  <path class="cls-1" d="M175.37,279.51c-2.2.18-4.4-.42-6.59,0"/>
  <path class="cls-1" d="M417.84,227.86c-7.3,1.14-12.62,4.98-16.31,11.41-2.96,5.14-3.44,10.62-2.06,16.05,2.39,9.41,8.97,15.04,18.39,16.38,9.47,1.35,19.89-2,24.6-11.53,2.25-4.56,2.77-9.32,1.55-14.29-2.04-8.33-7.42-13.59-15.18-16.7-3.47-1.39-7.11-1.43-10.77-1.32"/>
  <path class="cls-1" d="M418.05,240.61c-3.44.95-6.34,2.77-7.64,6.17-1.63,4.26-.77,8.69,3.47,11.85,3.24,2.42,9.04,2.36,12.08-.23,2.49-2.12,4.31-4.6,4.2-8.12-.17-5.39-4.12-9.32-9.47-9.66-.8-.05-1.61,0-2.42,0"/>
  <path class="cls-1" d="M78.42,240.17c-3.91,1.15-6.62,3.45-7.95,7.46-2.07,6.28,2.79,13.06,9.05,13.26,4.57.15,8.11-1.47,10.29-5.36,3.45-6.16.51-12.5-5.89-14.92-1.72-.65-3.21-.67-5.4-.45"/>
</svg>