<svg width="500" height="500" viewBox="0 0 500 500" fill="none" xmlns="http://www.w3.org/2000/svg">
<path d="M310.88 383.94C310.81 387.21 310.82 417.45 309.98 420.43C308.14 426.98 304.41 432.74 298.62 437.32C294.62 440.48 290.12 441.32 285.08 439.45C283.58 438.89 281.57 439.22 279.98 438.55C275.57 436.71 273.66 433.02 273.08 428.5C271.95 419.59 272.41 410.63 272.35 401.69C272.3 393.65 272.25 385.62 272.57 377.58C272.6 376.76 272.73 375.91 272.33 375.12" fill="#FFDA00" fill-opacity="0.7"/>
<path d="M310.88 383.94C310.81 387.21 310.82 417.45 309.98 420.43C308.14 426.98 304.41 432.74 298.62 437.32C294.62 440.48 290.12 441.32 285.08 439.45C283.58 438.89 281.57 439.22 279.98 438.55C275.57 436.71 273.66 433.02 273.08 428.5C271.95 419.59 272.41 410.63 272.35 401.69C272.3 393.65 272.25 385.62 272.57 377.58C272.6 376.76 272.73 375.91 272.33 375.12" stroke="#2071B5" stroke-width="4.21" stroke-linecap="round" stroke-linejoin="round"/>
<path d="M246 370.778C245.935 374.032 245.944 404.126 245.16 407.092C243.443 413.61 239.962 419.343 234.558 423.901C230.825 427.045 226.625 427.881 221.921 426.02C220.521 425.463 218.645 425.791 217.161 425.125C213.046 423.293 211.263 419.621 210.722 415.123C209.667 406.256 210.096 397.339 210.04 388.442C209.994 380.441 209.947 372.449 210.246 364.448C210.274 363.632 210.395 362.786 210.022 362" fill="#FFDA00" fill-opacity="0.7"/>
<path d="M246 370.778C245.935 374.032 245.944 404.126 245.16 407.092C243.443 413.61 239.962 419.343 234.558 423.901C230.825 427.045 226.625 427.881 221.921 426.02C220.521 425.463 218.645 425.791 217.161 425.125C213.046 423.293 211.263 419.621 210.722 415.123C209.667 406.256 210.096 397.339 210.04 388.442C209.994 380.441 209.947 372.449 210.246 364.448C210.274 363.632 210.395 362.786 210.022 362" stroke="#2071B5" stroke-width="4.21" stroke-linecap="round" stroke-linejoin="round"/>
<path d="M179 355.778C178.935 359.032 178.944 389.126 178.16 392.092C176.443 398.61 172.962 404.343 167.558 408.901C163.825 412.045 159.625 412.881 154.921 411.02C153.521 410.463 151.645 410.791 150.161 410.125C146.046 408.293 144.263 404.621 143.722 400.123C142.667 391.256 143.096 382.339 143.04 373.442C142.994 365.441 142.947 357.449 143.246 349.448C143.274 348.632 143.395 347.786 143.022 347" fill="#FFDA00" fill-opacity="0.7"/>
<path d="M179 355.778C178.935 359.032 178.944 389.126 178.16 392.092C176.443 398.61 172.962 404.343 167.558 408.901C163.825 412.045 159.625 412.881 154.921 411.02C153.521 410.463 151.645 410.791 150.161 410.125C146.046 408.293 144.263 404.621 143.722 400.123C142.667 391.256 143.096 382.339 143.04 373.442C142.994 365.441 142.947 357.449 143.246 349.448C143.274 348.632 143.395 347.786 143.022 347" stroke="#2071B5" stroke-width="4.21" stroke-linecap="round" stroke-linejoin="round"/>
<path d="M354.58 365.29C354.92 366.17 354.82 367.09 354.82 368C354.82 385.55 355.1 403.1 354.72 420.63C354.49 431.1 350.44 440.24 342 446.91C338 450.07 333.5 450.91 328.46 449.04C326.96 448.48 324.95 448.81 323.36 448.14C318.95 446.3 317.04 442.61 316.46 438.09C315.33 429.18 315.79 420.22 315.73 411.28C315.68 403.24 315.63 395.21 315.95 387.17C315.98 386.35 316.11 385.5 315.71 384.71" fill="#FFDA00" fill-opacity="0.7"/>
<path d="M354.58 365.29C354.92 366.17 354.82 367.09 354.82 368C354.82 385.55 355.1 403.1 354.72 420.63C354.49 431.1 350.44 440.24 342 446.91C338 450.07 333.5 450.91 328.46 449.04C326.96 448.48 324.95 448.81 323.36 448.14C318.95 446.3 317.04 442.61 316.46 438.09C315.33 429.18 315.79 420.22 315.73 411.28C315.68 403.24 315.63 395.21 315.95 387.17C315.98 386.35 316.11 385.5 315.71 384.71" stroke="#2071B5" stroke-width="4.21" stroke-linecap="round" stroke-linejoin="round"/>
<path d="M220.208 121.954L314 144.5C316.667 145.333 322 147.4 322 149C322 150.511 342.809 139.358 354.95 132.638C356.22 131.935 357 130.6 357 129.149V117.645C357 115.799 355.737 114.193 353.943 113.76C321.47 105.915 261.391 91.9499 258.5 93.4998L219.253 114.539C216.014 116.276 216.635 121.095 220.208 121.954Z" fill="#FFDA00" fill-opacity="0.7"/>
<path d="M357.04 119.32C356.52 118.54 356.83 117.68 356.81 116.86C356.76 114.08 356.28 113.32 353.59 112.44C348.21 110.67 342.62 109.71 337.1 108.54C330.06 107.04 323.01 105.52 315.97 104C305.74 101.78 295.47 99.7701 285.2 97.7001C279.64 96.5801 274.01 95.6801 268.5 94.3701C263.26 93.1301 258.45 93.7801 253.99 96.2601C243.59 102.06 233.41 108.25 223.17 114.33C220.96 115.64 218.88 117.2 216.56 118.31C214.3 119.39 212.92 121.22 211.64 123.25C207.85 129.22 204.4 135.35 201.78 141.94C201.55 142.53 201.87 143.21 201.33 143.68" stroke="#2071B5" stroke-width="4.21" stroke-linecap="round" stroke-linejoin="round"/>
<path d="M203.8 136.79C200.55 134.93 193.93 135.88 190.48 138.21C186 141.24 184.74 145.6 184.63 150.56C184.49 156.65 185.13 157.21 190.98 159.72C195.36 161.6 199.96 161.99 204.54 162.29C210.72 162.7 216.9 162.32 222.99 160.94C224.73 160.54 226.36 159.92 227.87 159.12C230.58 157.7 231.16 155.02 230.78 152.29C230.54 150.54 230.66 148.84 230.61 147.12C230.56 145.46 230.86 143.76 229.4 142.42C228.71 141.79 229.22 141.23 229.85 140.71C231.57 139.27 233.61 138.39 235.5 137.25C239.44 134.88 243.64 132.94 247.33 130.15" stroke="#2071B5" stroke-width="4.21" stroke-linecap="round" stroke-linejoin="round"/>
<path d="M142.8 345.61C142.8 362.25 142.8 378.9 142.8 395.54C142.8 398.72 143.25 401.88 144.29 404.88C146.01 409.82 150.56 410.73 153.86 409.81" fill="#FFDA00" fill-opacity="0.7"/>
<path d="M142.8 345.61C142.8 362.25 142.8 378.9 142.8 395.54C142.8 398.72 143.25 401.88 144.29 404.88C146.01 409.82 150.56 410.73 153.86 409.81" stroke="#2071B5" stroke-width="4.21" stroke-linecap="round" stroke-linejoin="round"/>
<path d="M406.73 120.55C406.71 112.33 404.31 105 398.34 99.1803C394.58 95.5103 389.77 93.5903 384.84 92.0303C376.63 89.4303 368.12 88.0703 359.75 86.1403C350.68 84.0403 341.58 82.0903 332.46 80.1903C323.35 78.2903 314.23 76.3903 305.15 74.3003C297.78 72.6103 290.38 71.0603 282.99 69.5003C273.33 67.4703 263.66 65.4603 253.99 63.4603C247.56 62.1303 241.19 60.5303 234.78 59.1703C226.92 57.5003 219.04 55.8703 211.19 54.1503C205.13 52.8203 199.1 51.1603 192.97 50.3303C187.37 49.5703 181.67 50.1703 176.52 52.9303C166.91 58.0803 157.5 63.6003 147.95 68.8503C138.43 74.0903 128.93 79.3503 119.47 84.6803C111.42 89.2203 104.57 95.2403 100.33 103.61C98.03 108.15 96.9 113.14 96.79 118.33C96.28 141.94 96.44 165.56 96.63 189.17C96.97 230.82 96.74 272.47 96.76 314.12C96.76 327.45 104.12 335.43 115.76 338.93C123.42 341.23 131.29 342.83 139.13 344.28C152.67 346.78 166.08 349.79 179.44 353.03C189.26 355.41 199.09 357.76 208.97 359.85C220.51 362.29 231.96 365.12 243.4 367.99C252.74 370.33 262.09 372.61 271.44 374.9C280.52 377.12 289.56 379.48 298.73 381.36C304.05 382.45 309.23 384.16 314.73 384.25C317.28 384.29 319.72 383.67 322.1 382.96C327.78 381.25 332.88 378.38 337.89 375.18C354.25 364.71 370.92 354.72 387.08 343.93C391.15 341.21 395.41 338.79 399.12 335.54C404.78 330.57 407.75 324.45 407.74 316.84C407.69 289.78 407.8 262.73 407.67 235.67C407.63 227.72 407.6 219.76 407.45 211.81C406.95 186.23 407.45 160.65 407.15 135.07C407.09 130.32 407.31 125.54 406.73 120.8" stroke="#2071B5" stroke-width="4.21" stroke-linecap="round" stroke-linejoin="round"/>
<path d="M120.18 94.7305C114.09 99.3205 109.22 104.79 107.4 112.44C106.82 114.86 106.41 117.31 106.41 119.82C106.41 184.43 106.41 249.03 106.41 313.64C106.41 319.41 108.91 323.57 113.76 326.74C118.25 329.67 123.32 330.59 128.32 331.82C140.35 334.79 152.42 337.57 164.48 340.41C176.11 343.15 187.77 345.82 199.64 348.59" stroke="#2071B5" stroke-width="4.21" stroke-linecap="round" stroke-linejoin="round"/>
<path d="M385.57 103.34C382.14 101.05 378.12 100.4 374.25 99.4503C364.54 97.0603 354.76 94.9203 344.99 92.7703C333.27 90.1903 321.54 87.7003 309.83 85.0803C297.37 82.2903 284.91 79.4703 272.41 76.8603C259.05 74.0703 245.71 71.1603 232.34 68.3903C220.67 65.9703 209.04 63.3803 197.39 60.8803C188.89 59.0603 180.7 59.9903 173 64.8803C166.45 69.0403 159.4 72.4403 152.66 76.3203C143.18 81.7803 133.52 86.9403 124.1 92.5103C123.42 92.9103 122.97 93.5203 122.39 94.0003" stroke="#2071B5" stroke-width="4.21" stroke-linecap="round" stroke-linejoin="round"/>
<path d="M394.18 109.73C397.05 114.06 397.87 118.92 397.87 124C397.87 187.46 397.87 250.92 397.87 314.38C397.87 321.02 395.38 326.37 389.76 330.13C384.11 333.91 378.48 337.72 372.8 341.46C360.93 349.28 349.16 357.25 337.15 364.85C336.47 365.28 335.92 365.6 335.15 365.54" stroke="#2071B5" stroke-width="4.21" stroke-linecap="round" stroke-linejoin="round"/>
<path d="M115.5 123.01C114.01 127.1 114.61 131.36 114.59 135.55C114.59 136.32 114.74 137.19 114.74 138.01C114.76 166.79 114.66 195.57 114.81 224.34C114.86 233.36 115.11 242.38 114.94 251.4C114.84 256.81 114.6 262.23 114.81 267.63C115.05 273.7 114.69 279.76 114.9 285.84C115.26 296.16 115 306.5 115 316.83" stroke="#2071B5" stroke-width="4.21" stroke-linecap="round" stroke-linejoin="round"/>
<path d="M392.46 116.13C392.46 177.54 392.46 238.95 392.52 300.36" stroke="#2071B5" stroke-width="4.21" stroke-linecap="round" stroke-linejoin="round"/>
<path d="M328.02 310.44C328 315.69 328.02 320.93 327.82 326.18C327.68 329.7 328.38 333.25 328.2 336.75C327.9 342.66 328.38 348.58 327.76 354.46C327.39 357.97 326.87 361.42 325.65 364.82C323.91 369.66 320.35 371.78 315.73 372.92C310.76 374.16 305.99 372.86 301.22 371.89C281.94 367.99 262.86 363.17 243.67 358.83C229.45 355.62 215.25 352.34 201.1 348.83C200.71 348.73 200.35 348.32 199.62 348.76" stroke="#2071B5" stroke-width="4.21" stroke-linecap="round" stroke-linejoin="round"/>
<path d="M257.67 174.42C257.98 174.57 258.12 175.01 258.12 175.16C258.17 181.06 258.16 186.97 258.16 192.87C258.16 196.15 258.02 199.44 258.19 202.71C258.47 208.29 258.21 213.86 258.25 219.44C258.29 225.18 258.01 230.91 258.28 236.66C258.47 240.81 258.08 245.01 258.37 249.2C258.45 250.45 258.75 250.83 260.1 251.25C271.88 254.95 284.06 256.94 296.04 259.76C305.76 262.05 315.54 264.11 325.3 266.19C325.82 266.3 326.29 266.66 326.78 266.91" stroke="#2071B5" stroke-width="4.21" stroke-linecap="round" stroke-linejoin="round"/>
<path d="M131.74 147.61V281.42" stroke="#2071B5" stroke-width="4.21" stroke-linecap="round" stroke-linejoin="round"/>
<path d="M312.77 282.4C308.57 284.28 304.65 286.7 300.76 289.1C291.29 294.94 281.7 300.58 272.43 306.74C272.32 306.82 272.08 306.69 271.95 306.76C268.13 308.85 267.74 312.35 268.29 316.09C268.64 318.45 270.88 318.97 272.69 319.5C281.13 321.96 289.68 324.07 298.28 325.83C304.91 327.19 311.5 328.77 318.18 329.91C321.31 330.44 324.34 331.57 327.53 331.84" stroke="#2071B5" stroke-width="4.21" stroke-linecap="round" stroke-linejoin="round"/>
<path d="M145.02 282.4C143.86 282.25 142.82 282.55 141.82 283.13C138.86 284.83 135.59 285.89 132.69 287.75C131.14 288.75 130.83 290.25 131.1 291.48C131.84 294.86 131.39 298.22 131.47 301.59C131.58 306.43 134.3 310.41 138.88 311.65C147.83 314.07 156.87 316.11 165.92 318.11C173.72 319.84 181.51 321.68 189.28 323.56C196.98 325.42 204.73 327.04 212.42 328.89C214.78 329.46 217.16 330.03 219.56 330.33C223.29 330.8 226.63 329.31 229.62 327.38C244.85 317.54 260.26 308 275.68 298.45C278.18 296.9 279.43 295.26 279.15 292.24C278.87 289.23 279.08 286.18 278.89 283.14C278.76 281.2 278.05 280.02 276.15 279.43C272.44 278.28 268.55 278.02 264.83 276.97C262.73 276.38 260.55 276.44 258.43 276" stroke="#2071B5" stroke-width="4.21" stroke-linecap="round" stroke-linejoin="round"/>
<path d="M213.15 121.78C219.16 123.06 225.29 123.82 231.12 125.92C231.7 126.13 232.43 126.07 233.1 125.5C235.99 123.05 239.57 121.6 242.57 119.44C247.27 116.05 252.9 114.2 257.25 110.15C274.57 113.76 291.99 117.19 309.33 120.99C317.75 122.84 326.15 124.75 334.65 126.23C338.38 126.88 340.55 129.29 341.86 132.82C342.41 134.3 342.23 136.07 343.5 137.28" stroke="#2071B5" stroke-width="4.21" stroke-linecap="round" stroke-linejoin="round"/>
<path d="M277.35 281.66C265.44 288.91 253.57 296.25 241.72 303.6C237.15 306.43 232.59 309.28 227.9 311.88C225.16 313.4 222.21 313.74 219.05 312.93C211.04 310.86 202.95 309.14 194.95 307C187.57 305.03 180.17 303.14 172.82 301.09C164.73 298.84 156.56 296.93 148.48 294.67C142.83 293.09 137.14 291.65 131.5 290.02" stroke="#2071B5" stroke-width="4.21" stroke-linecap="round" stroke-linejoin="round"/>
<path d="M233.32 125.97C237.12 127.55 241.21 128.03 245.15 129.08C252.54 131.05 260.03 132.68 267.5 134.38C278.32 136.83 289.12 139.39 299.98 141.73C305.58 142.93 311.15 144.29 316.69 145.73C321.42 146.96 323.79 150.8 325.04 155.26C326.24 159.51 326.76 163.86 327.16 168.28C327.4 170.9 327.22 173.56 327.74 176.17C327.9 176.96 327.93 177.84 327.29 178.78C330.46 179.44 333.29 180.64 336.63 180.72C336.63 184.94 336.4 189.06 336.7 193.14C336.97 196.84 336.32 200.51 336.74 204.23C336.9 205.64 336.39 207.32 336.39 208.89C336.39 234.8 336.39 260.71 336.39 286.62C336.39 289.98 336.39 293.34 336.39 296.7C336.39 298 336.25 299.18 337.83 299.97C338.99 300.55 339.84 301.76 339.86 303.34C339.9 305.69 339.07 306.82 335.89 308C333.35 308.94 330.75 309.74 328.02 309.98" stroke="#2071B5" stroke-width="4.21" stroke-linecap="round" stroke-linejoin="round"/>
<path d="M152.03 173.44C151.45 175.63 151.95 177.87 151.76 180.09C151.59 182.17 151.9 184.34 151.9 186.48C151.9 207.14 151.75 227.8 151.97 248.46C152.08 258.96 151.99 269.45 152.19 279.94C152.25 283.15 153.2 286.15 155.58 288.56C159.51 292.54 164.44 294.7 169.61 296.41C175.78 298.45 182.17 299.53 188.56 300.52C191.21 300.93 193.96 300.98 196.67 301.05C206.12 301.29 215.59 301.52 224.95 299.84C233.86 298.24 242.55 296.13 250.32 291.06C255.82 287.48 258.3 282.36 257.94 276.26C257.77 273.44 257.65 270.5 257.22 267.63C256.53 263.04 253.67 259.76 251.01 256.33C250.59 255.78 250.11 255.21 249.53 254.87C246.74 253.21 246.53 250.65 246.54 247.72C246.63 225.91 246.59 204.1 246.59 182.29C246.59 181.3 246.7 180.3 246.35 179.34" stroke="#2071B5" stroke-width="4.21" stroke-linecap="round" stroke-linejoin="round"/>
<path d="M117.72 129.66C117.48 137.87 125.46 144.73 133.69 143.35C138.35 142.57 141.46 139.21 142.73 134.8C145.72 124.49 136.74 116.18 127.31 117.43C121.86 118.15 117.09 122.99 117.71 129.4" fill="#FFDA00" fill-opacity="0.7"/>
<path d="M117.72 129.66C117.48 137.87 125.46 144.73 133.69 143.35C138.35 142.57 141.46 139.21 142.73 134.8C145.72 124.49 136.74 116.18 127.31 117.43C121.86 118.15 117.09 122.99 117.71 129.4" stroke="#2071B5" stroke-width="4.21" stroke-linecap="round" stroke-linejoin="round"/>
<path d="M181.42 354.22C181.03 355.01 181.18 355.86 181.18 356.68C181.18 366.35 181.27 376.03 181.14 385.7C181.05 392.25 179.41 398.41 175.25 403.64C172.61 406.96 169.7 410.05 165.43 411.26C162.12 412.2 158.83 411.97 155.6 410.79C154.54 410.4 154.16 409.49 153.56 408.63C152.26 406.79 151.53 404.76 151.48 402.67C151.32 395.46 151.14 388.23 151.48 381.03C152.01 369.8 152.42 358.57 152.4 347.33" fill="#FFDA00" fill-opacity="0.7"/>
<path d="M181.42 354.22C181.03 355.01 181.18 355.86 181.18 356.68C181.18 366.35 181.27 376.03 181.14 385.7C181.05 392.25 179.41 398.41 175.25 403.64C172.61 406.96 169.7 410.05 165.43 411.26C162.12 412.2 158.83 411.97 155.6 410.79C154.54 410.4 154.16 409.49 153.56 408.63C152.26 406.79 151.53 404.76 151.48 402.67C151.32 395.46 151.14 388.23 151.48 381.03C152.01 369.8 152.42 358.57 152.4 347.33" stroke="#2071B5" stroke-width="4.21" stroke-linecap="round" stroke-linejoin="round"/>
<path d="M211.18 361.11C210.66 361.89 210.95 362.75 210.95 363.57C210.93 376.85 211.08 390.14 210.86 403.42C210.78 408.28 210.97 413.1 211.17 417.93C211.41 423.58 214.82 427.83 219.79 428.49C220.54 428.59 221.37 428.66 222 428.01" fill="#FFDA00" fill-opacity="0.7"/>
<path d="M211.18 361.11C210.66 361.89 210.95 362.75 210.95 363.57C210.93 376.85 211.08 390.14 210.86 403.42C210.78 408.28 210.97 413.1 211.17 417.93C211.41 423.58 214.82 427.83 219.79 428.49C220.54 428.59 221.37 428.66 222 428.01" stroke="#2071B5" stroke-width="4.21" stroke-linecap="round" stroke-linejoin="round"/>
<path d="M327.28 178.6C325.95 178.85 324.6 178.3 323.65 177.76C321.6 176.59 319.54 176.98 317.44 176.85C313.13 176.58 308.91 175.59 304.65 174.88C299.23 173.97 293.88 172.63 288.42 171.88C286.65 171.64 285.06 171.94 283.77 172.75C279.97 175.14 275.66 176.86 272.29 179.71C269.24 182.3 266.42 185.18 263.08 187.46C262.33 187.97 262.33 188.83 262.33 189.66C262.33 204.83 262.34 220 262.32 235.16C262.32 236.39 262.73 237.2 263.79 237.89C266.32 239.54 268.99 240.13 271.92 239.34" stroke="#2071B5" stroke-width="4.21" stroke-linecap="round" stroke-linejoin="round"/>
<path d="M326.54 381.53C326.66 390.23 326.1 398.91 325.89 407.6C325.76 412.84 326.02 418.13 325.48 423.34C325.07 427.29 325.21 431.22 325.06 435.15C324.89 439.84 325.4 444.37 328.02 448.43" stroke="#2071B5" stroke-width="4.21" stroke-linecap="round" stroke-linejoin="round"/>
<path d="M219.55 362.59C219.14 363.46 219.3 364.39 219.31 365.3C219.52 375.8 218.91 386.29 218.64 396.78C218.46 403.83 218.42 410.89 218.39 417.94C218.37 421.01 218.83 424.05 221.21 426.6C223.99 429.58 227.44 429.65 230.57 428.63C236.75 426.62 240.43 421.61 243.13 415.95C245.56 410.84 246.88 405.43 246.85 399.73C246.82 394.81 247.12 389.89 247.06 384.97C247.01 380.7 247.21 376.44 247.11 372.18C247.09 371.25 246.95 370.29 247.6 369.47" fill="#FFDA00" fill-opacity="0.7"/>
<path d="M219.55 362.59C219.14 363.46 219.3 364.39 219.31 365.3C219.52 375.8 218.91 386.29 218.64 396.78C218.46 403.83 218.42 410.89 218.39 417.94C218.37 421.01 218.83 424.05 221.21 426.6C223.99 429.58 227.44 429.65 230.57 428.63C236.75 426.62 240.43 421.61 243.13 415.95C245.56 410.84 246.88 405.43 246.85 399.73C246.82 394.81 247.12 389.89 247.06 384.97C247.01 380.7 247.21 376.44 247.11 372.18C247.09 371.25 246.95 370.29 247.6 369.47" stroke="#2071B5" stroke-width="4.21" stroke-linecap="round" stroke-linejoin="round"/>
<path d="M260.87 124.12C263.58 121.57 266.68 120.17 270.46 121.05C286.66 124.83 302.93 128.28 319.16 131.89C322.61 132.66 326.14 133.15 329.5 134.33C330.8 134.78 331.71 133.84 332.68 133.32C334.79 132.19 336.9 131.06 338.84 129.66" stroke="#2071B5" stroke-width="4.21" stroke-linecap="round" stroke-linejoin="round"/>
<path d="M172.07 78.2495C172.53 77.8095 172.84 77.9395 173.06 78.4995C174.56 82.2895 178.13 83.1595 181.44 83.8295C187.72 85.1095 194.08 85.1795 200.37 83.4495C202.08 82.9795 203.67 82.2095 205 81.1595C207 79.5895 207.96 77.3895 205.33 75.0095C201.97 71.9595 198.08 70.6195 193.72 70.1395C188.09 69.5195 182.61 70.1595 177.51 72.6595C175.35 73.7195 172.99 74.9795 172.93 78.0095" fill="#FFDA00" fill-opacity="0.7"/>
<path d="M172.07 78.2495C172.53 77.8095 172.84 77.9395 173.06 78.4995C174.56 82.2895 178.13 83.1595 181.44 83.8295C187.72 85.1095 194.08 85.1795 200.37 83.4495C202.08 82.9795 203.67 82.2095 205 81.1595C207 79.5895 207.96 77.3895 205.33 75.0095C201.97 71.9595 198.08 70.6195 193.72 70.1395C188.09 69.5195 182.61 70.1595 177.51 72.6595C175.35 73.7195 172.99 74.9795 172.93 78.0095" stroke="#2071B5" stroke-width="4.21" stroke-linecap="round" stroke-linejoin="round"/>
<path d="M318.67 302.08C318.1 302.08 317.51 302.16 316.95 302.07C313.89 301.57 312.58 299.8 313.02 296.67C313.74 291.5 313.76 286.34 313.02 281.17C312.6 278.26 311.52 277.23 308.35 276.49C295.28 273.45 282.19 270.45 269.22 266.98C265.63 266.02 261.98 265.3 258.41 264.21C257.87 264.04 257.36 264.32 256.94 264.69" stroke="#2071B5" stroke-width="4.21" stroke-linecap="round" stroke-linejoin="round"/>
<path d="M245.86 121.05C249.51 121.33 252.93 122.58 256.45 123.47C260.81 124.58 265.1 125.98 269.49 126.89C283.48 129.81 297.33 133.28 311.29 136.31C313.1 136.7 314.91 137.08 316.7 137.56C317.66 137.82 318.97 137.8 319.17 139.25" stroke="#2071B5" stroke-width="4.21" stroke-linecap="round" stroke-linejoin="round"/>
<path d="M319.16 177.13C319.12 177.72 319.42 178.24 319.43 178.85C319.54 188.36 319.63 197.88 319.54 207.38C319.35 227.06 319.54 246.74 319.41 266.41C319.36 274.69 319.61 282.98 319.33 291.25C319.13 297.07 319.47 302.91 318.91 308.72" stroke="#2071B5" stroke-width="4.21" stroke-linecap="round" stroke-linejoin="round"/>
<path d="M340.81 408.34C339.28 408.28 338.11 409.18 337.15 410.1C333.14 413.95 329.92 422.89 332.13 429.27C333.36 432.83 336.59 434.8 340.57 431.72C346.4 427.21 348.34 416.65 344.54 410.53C343.71 409.19 342.9 408.3 341.3 408.35" stroke="#2071B5" stroke-width="4.21" stroke-linecap="round" stroke-linejoin="round"/>
<path d="M114.76 100.63C119.74 102.24 124.94 102.88 130.01 104.06C140.71 106.55 151.52 108.53 162.23 110.95C171.14 112.96 180.13 114.61 189.04 116.62C196.08 118.21 203.19 119.52 210.18 121.34C210.93 121.53 211.76 121.19 212.41 121.78" stroke="#2071B5" stroke-width="4.21" stroke-linecap="round" stroke-linejoin="round"/>
<path d="M328.02 193.85C328.02 199.84 327.71 205.83 327.85 211.8C328.18 226.48 328.35 241.17 327.89 255.83C327.42 270.92 327.24 286 327.37 301.09C327.39 304.02 327.09 307.05 328.03 309.95" stroke="#2071B5" stroke-width="4.21" stroke-linecap="round" stroke-linejoin="round"/>
<path d="M356.55 120.31C356.86 123.88 356.69 127.44 356.66 131.01C356.63 134.5 356.3 137.98 356.3 141.46C356.3 156.71 356.36 171.96 356.26 187.21C356.23 191.51 354.2 195.18 350.84 197.73C346.62 200.94 341.79 203.19 336.86 205.17" stroke="#2071B5" stroke-width="4.21" stroke-linecap="round" stroke-linejoin="round"/>
<path d="M337.12 289.53C346.94 291.67 356.76 293.79 366.63 295.72C369.51 296.28 372.45 296.7 375.25 297.65C378.16 298.64 378.63 299.78 379.01 302.8C379.58 307.26 377.68 310.03 374.03 312.18C363.69 318.26 353.73 324.96 343.28 330.86C339.3 333.11 335.14 333.74 330.74 332.55C329.99 332.35 329.26 332.35 328.52 332.33" stroke="#2071B5" stroke-width="4.21" stroke-linecap="round" stroke-linejoin="round"/>
<path d="M352.86 133.84C353.38 134.62 353.09 135.48 353.09 136.3C353.14 148.44 353.19 160.57 352.81 172.7C352.69 176.47 352.67 180.24 352.61 184.02" stroke="#2071B5" stroke-width="4.21" stroke-linecap="round" stroke-linejoin="round"/>
<path d="M190.77 213.78V263.71" stroke="#2071B5" stroke-width="4.21" stroke-linecap="round" stroke-linejoin="round"/>
<path d="M171.34 210.09C170.82 210.87 171.11 211.73 171.11 212.55C171.09 228.29 171.09 244.03 171.09 259.78" stroke="#2071B5" stroke-width="4.21" stroke-linecap="round" stroke-linejoin="round"/>
<path d="M218.32 184.01C218.66 186.21 218.56 188.44 218.56 190.65C218.56 217.3 218.56 243.94 218.58 270.59C218.58 271.4 218.29 272.27 218.81 273.05" stroke="#2071B5" stroke-width="4.21" stroke-linecap="round" stroke-linejoin="round"/>
<path d="M185.11 213.04C184.53 216.71 184.78 220.43 184.7 224.11C184.47 233.86 184.62 243.62 184.62 253.38C184.62 259.78 184.34 266.17 184.37 272.57" stroke="#2071B5" stroke-width="4.21" stroke-linecap="round" stroke-linejoin="round"/>
<path d="M120.62 94.1201C130.91 96.3101 138.17 97.2201 148.45 99.4301C159.86 101.89 171.24 104.56 182.67 106.93C194.95 109.47 207.14 112.5 219.55 114.39C219.93 114.45 220.04 114.74 220.29 114.9" stroke="#2071B5" stroke-width="4.21" stroke-linecap="round" stroke-linejoin="round"/>
<path d="M233.32 182.78C233.89 186.71 233.54 190.65 233.55 194.59C233.59 219.68 233.55 244.77 233.59 269.86C233.59 273.22 233.28 276.59 233.82 279.94" stroke="#2071B5" stroke-width="4.21" stroke-linecap="round" stroke-linejoin="round"/>
<path d="M270.22 309.46C271.02 310.57 272.31 310.43 273.42 310.68C286.66 313.62 299.78 317.09 313.02 320.05C315.08 320.51 317.1 321.11 319.17 321.52" stroke="#2071B5" stroke-width="4.21" stroke-linecap="round" stroke-linejoin="round"/>
<path d="M270.95 181.31C275.1 182.79 279.49 183.22 283.74 184.24C294.84 186.92 306.02 189.3 317.21 191.5C323.55 192.75 329.87 194.36 336.37 194.84" stroke="#2071B5" stroke-width="4.21" stroke-linecap="round" stroke-linejoin="round"/>
<path d="M157.81 196.8V250.42" stroke="#2071B5" stroke-width="4.21" stroke-linecap="round" stroke-linejoin="round"/>
<path d="M185.36 148.1C192.27 153.96 200.67 154.9 209.22 155.22C214.38 155.41 219.49 155.18 224.48 153.55C226.57 152.87 228.06 151.2 230.13 150.56" stroke="#2071B5" stroke-width="4.21" stroke-linecap="round" stroke-linejoin="round"/>
<path d="M287.43 200C287.3 201.06 287.09 202.07 287.09 203.2C287.12 210.33 287.42 217.47 286.97 224.6C286.72 228.47 285.06 231.43 282.02 233.7C278.99 235.96 275.92 238.14 272.18 239.11" stroke="#2071B5" stroke-width="4.21" stroke-linecap="round" stroke-linejoin="round"/>
<path d="M342.78 139C343.36 139.35 343.27 139.92 343.28 140.48C343.43 154.42 343.08 168.36 343.38 182.3C343.42 184.12 343.35 186.07 343.28 187.95" stroke="#2071B5" stroke-width="4.21" stroke-linecap="round" stroke-linejoin="round"/>
<path d="M319.16 206.4C315.73 206.11 312.44 205.04 309.09 204.35C302.11 202.91 295.18 201.27 288.19 199.88C284.99 199.24 281.78 198.3 278.57 197.57C273.81 196.48 272.66 197.55 272.54 201.98C272.23 212.96 271.16 228.13 271.78 239.12" stroke="#2071B5" stroke-width="4.21" stroke-linecap="round" stroke-linejoin="round"/>
<path d="M377.46 299.37C364.85 307.48 352.22 315.56 339.33 323.23C337.66 324.22 335.94 324.46 333.91 324.3C328.98 323.91 324.14 323.16 319.4 321.76C319.4 317.66 319.4 313.56 319.4 309.22C316.23 308.37 312.65 307.9 309.3 306.54C307.92 305.98 306.67 305.41 306.37 303.81C306.07 302.25 306.85 301.24 308.07 300.35C309.51 299.3 311.06 298.43 312.51 297.42" stroke="#2071B5" stroke-width="4.21" stroke-linecap="round" stroke-linejoin="round"/>
<path d="M170.85 134.08C171.26 134.95 171.1 135.88 171.09 136.79C170.95 148.27 171.33 159.75 170.93 171.23C170.86 173.33 171 175.49 171.1 177.62" stroke="#2071B5" stroke-width="4.21" stroke-linecap="round" stroke-linejoin="round"/>
<path d="M237.5 136.79C241.1 138.4 245.05 138.22 248.82 139C256.82 140.65 263.42 144.49 265.86 152.59C267.22 157.08 268.28 162.22 265.28 166.79C263.03 170.21 259.96 172.7 256.22 174.47C253.37 175.82 250.61 177.35 247.6 178.38C240.64 180.77 233.46 182.09 226.19 183.03C220.23 183.8 214.22 184 208.24 183.95C200.76 183.88 193.3 183.32 185.84 182.4C176.61 181.27 167.75 178.97 159.05 175.89C154.85 174.4 150.98 172.3 147.48 169.51C144 166.74 143.73 163.13 144.66 159.17" stroke="#2071B5" stroke-width="4.21" stroke-linecap="round" stroke-linejoin="round"/>
<path d="M319.41 330.86C319.41 337.75 319.48 344.64 319.38 351.52C319.33 354.57 319.18 357.62 318.46 360.63C317.77 363.51 316.13 365.32 313.27 366.03" stroke="#2071B5" stroke-width="4.21" stroke-linecap="round" stroke-linejoin="round"/>
<path d="M393.69 109.49C386.34 113.72 378.9 117.8 371.55 122.04C367.44 124.41 363.25 126.63 359.25 129.17C358.65 129.55 357.99 129.72 357.28 129.66" stroke="#2071B5" stroke-width="4.21" stroke-linecap="round" stroke-linejoin="round"/>
<path d="M331.22 144.91C331.51 148.28 333.36 151.18 334.01 154.49C334.9 158.98 335.46 163.49 335.95 168.03C336.33 171.48 336.37 174.92 336.38 178.37C336.38 179.11 336.51 179.88 336.14 180.58" stroke="#2071B5" stroke-width="4.21" stroke-linecap="round" stroke-linejoin="round"/>
<path d="M226.93 405.63C227.79 405.55 228.22 406.33 228.9 406.61C234.26 403.04 236.7 395.25 234.06 390.13C236.53 389.18 237.12 389.52 238.74 392.34C242.27 398.46 239.16 408.67 233.29 412.48C231.9 413.38 230.17 413.19 228.91 412C227.27 410.44 226.65 408.57 226.53 406.13C226.35 402.56 226.85 399.27 228.16 396.04C228.97 394.04 230.17 392.25 231.59 390.63C232.24 389.88 233.03 389.47 234.05 389.89" stroke="#2071B5" stroke-width="4.21" stroke-linecap="round" stroke-linejoin="round"/>
<path d="M205.77 131.87C202.29 127.31 197.26 125.51 191.99 124.29C189.84 123.79 187.45 124.29 185.65 125.31C177.29 130.06 168.81 134.62 160.47 139.41C156.93 141.44 153.24 143.21 149.94 145.65C146.05 148.52 144.89 152.73 144.29 157.21C144.21 157.84 144.36 158.52 144.79 158.91C148.16 161.97 151.53 164.95 155.81 166.87C160.6 169.02 165.44 170.79 170.6 171.72" stroke="#2071B5" stroke-width="4.21" stroke-linecap="round" stroke-linejoin="round"/>
<path d="M265.79 156.71C264.13 159.83 262.15 162.47 258.96 164.43C253.75 167.62 248.27 169.92 242.42 171.46C234.6 173.53 226.64 174.71 218.56 175.15" stroke="#2071B5" stroke-width="4.21" stroke-linecap="round" stroke-linejoin="round"/>
<path d="M343.76 373.9C343.76 384.39 343.76 394.89 343.74 405.38C343.74 406.2 344.03 407.06 343.51 407.84" stroke="#2071B5" stroke-width="4.21" stroke-linecap="round" stroke-linejoin="round"/>
<path d="M171.58 172.21C178.31 173.72 185.16 174.39 192 175.12C199.68 175.94 207.41 175.66 215.12 175.62C216.09 175.62 217.06 175.16 218.07 175.16" stroke="#2071B5" stroke-width="4.21" stroke-linecap="round" stroke-linejoin="round"/>
<path d="M332.45 215.99V245.51" stroke="#2071B5" stroke-width="4.21" stroke-linecap="round" stroke-linejoin="round"/>
<path d="M162.97 397.02C167.16 396.47 169.53 393.5 170.99 390.09C172.84 385.77 173.15 381.17 171.38 376.58C171.05 375.74 170.65 375.02 170.09 374.4C168.33 372.45 166.4 372.18 164.47 373.92C160.41 377.58 158.08 382.21 157.59 387.67C157.44 389.38 156.94 391.1 157.78 392.85C158.81 395.02 160.08 396.72 162.73 396.77" stroke="#2071B5" stroke-width="4.21" stroke-linecap="round" stroke-linejoin="round"/>
<path d="M176.5 356.68V385.7" stroke="#2071B5" stroke-width="4.21" stroke-linecap="round" stroke-linejoin="round"/>
<path d="M284.73 331.59V359.63" stroke="#2071B5" stroke-width="4.21" stroke-linecap="round" stroke-linejoin="round"/>
<path d="M218.32 204.18C212.01 204.69 205.71 204.84 199.38 204.48C196.52 204.32 193.65 204.01 190.77 204.18" stroke="#2071B5" stroke-width="4.21" stroke-linecap="round" stroke-linejoin="round"/>
<path d="M218.32 263.71C207.05 265.35 195.82 264.8 184.62 262.97" stroke="#2071B5" stroke-width="4.21" stroke-linecap="round" stroke-linejoin="round"/>
<path d="M191.01 194.1C194.36 194.54 197.72 194.82 201.09 194.82C206.83 194.82 212.59 195.1 218.31 194.35" stroke="#2071B5" stroke-width="4.21" stroke-linecap="round" stroke-linejoin="round"/>
<path d="M233.07 280.43C224.5 282.54 215.83 283.93 207 284.1C194.92 284.34 183.06 282.95 171.58 278.95" stroke="#2071B5" stroke-width="4.21" stroke-linecap="round" stroke-linejoin="round"/>
<path d="M244.39 275.51C240.93 277.41 237.25 278.79 233.57 280.16C233.57 282.89 233.57 285.6 233.57 288.7C212.98 293.83 192.22 294.4 171.59 287.31" stroke="#2071B5" stroke-width="4.21" stroke-linecap="round" stroke-linejoin="round"/>
<path d="M233.07 270.59C228.4 271.44 223.81 272.63 219.06 273.14C215.78 273.5 212.49 273.84 209.21 273.99C203.06 274.27 196.91 273.95 190.76 273.54" stroke="#2071B5" stroke-width="4.21" stroke-linecap="round" stroke-linejoin="round"/>
<path d="M218.32 213.53C207.81 214.44 197.28 214.39 186.85 212.96C177.76 211.72 168.74 209.96 160.27 206.15C160.13 206.09 159.95 206.15 159.78 206.15" stroke="#2071B5" stroke-width="4.21" stroke-linecap="round" stroke-linejoin="round"/>
<path d="M242.91 369.96V395.05" stroke="#2071B5" stroke-width="4.21" stroke-linecap="round" stroke-linejoin="round"/>
<path d="M231.11 126.46C226.86 129.81 222.13 132.43 217.57 135.3C213.78 137.69 210 140.11 206.07 142.29C203.43 143.75 201.07 144.21 198.13 143.51C194.98 142.75 191.79 142.32 189.29 139.99" stroke="#2071B5" stroke-width="4.21" stroke-linecap="round" stroke-linejoin="round"/>
<path d="M207.34 88.4004C207.34 99.7104 217.83 100.88 217.83 112.19" stroke="#2071B5" stroke-width="4.21" stroke-linecap="round" stroke-linejoin="round"/>
<path d="M392.46 302.82V325.69" stroke="#2071B5" stroke-width="4.21" stroke-linecap="round" stroke-linejoin="round"/>
<path d="M272.92 337.01C271.88 337.55 272.46 338.5 272.46 339.22C272.41 347.5 272.43 355.78 272.43 364.06" stroke="#2071B5" stroke-width="4.21" stroke-linecap="round" stroke-linejoin="round"/>
<path d="M172.1 78.5195C171.04 80.8095 171.22 84.4495 171.16 86.7995C170.93 95.2395 171.09 102.76 171.09 111.2" stroke="#2071B5" stroke-width="4.21" stroke-linecap="round" stroke-linejoin="round"/>
<path d="M171.34 113.42C170.8 116.85 171.13 120.31 171.12 123.75C171.12 126.7 170.8 129.67 171.34 132.6" stroke="#2071B5" stroke-width="4.21" stroke-linecap="round" stroke-linejoin="round"/>
<path d="M355.81 185.24C353.62 185.2 352.13 186.76 350.42 187.73C345.98 190.24 341.8 193.25 336.87 194.83" stroke="#2071B5" stroke-width="4.21" stroke-linecap="round" stroke-linejoin="round"/>
<path d="M333.43 426.54C333.73 426.82 333.33 427.69 334.43 427.32C338.3 426.01 340.85 421.87 341.26 416.94C341.41 415.16 341.79 413.19 340.07 411.78C336.1 413.84 332.8 420.69 333.43 425.55" stroke="#2071B5" stroke-width="4.21" stroke-linecap="round" stroke-linejoin="round"/>
<path d="M283.13 377.79C283.25 386.49 282.71 389.31 282.5 398C282.37 403.24 282.63 408.53 282.09 413.74C281.68 417.69 281.82 421.62 281.67 425.55C281.5 430.24 282.01 434.77 284.63 438.83" stroke="#2071B5" stroke-width="4.21" stroke-linecap="round" stroke-linejoin="round"/>
<path d="M297.42 398.74C295.89 398.68 294.72 399.58 293.76 400.5C289.75 404.35 286.53 413.29 288.74 419.67C289.97 423.23 293.2 425.2 297.18 422.12C303.01 417.61 304.95 407.05 301.15 400.93C300.32 399.59 299.51 398.7 297.91 398.75" stroke="#2071B5" stroke-width="4.21" stroke-linecap="round" stroke-linejoin="round"/>
<path d="M300.28 381.53C300.28 392.02 300.38 385.3 300.35 395.8C300.35 396.62 300.64 397.48 300.12 398.26" stroke="#2071B5" stroke-width="4.21" stroke-linecap="round" stroke-linejoin="round"/>
<path d="M290.04 415.96C290.34 416.24 290.49 418.9 291.59 418.53C295.46 417.22 296.55 413.82 298.02 409.1C298.56 407.37 299.43 402.31 296.46 402.31C293.58 401.15 289.48 411.78 290.04 415.96Z" stroke="#2071B5" stroke-width="4.21" stroke-linecap="round" stroke-linejoin="round"/>
<path d="M165.93 373.65C169.31 378.65 166.93 388.29 160.46 390.89C159.24 390.89 159.1 389.11 157.81 389.15" stroke="#2071B5" stroke-width="4.21" stroke-linecap="round" stroke-linejoin="round"/>
<path d="M337.12 333.32C337.12 339.55 337.28 345.79 337.07 352.01C336.86 358.23 335.51 364.22 333 370C331.49 373.48 329.64 376.62 327 379.29C326.43 379.86 326.58 380.43 326.53 381.04" stroke="#2071B5" stroke-width="4.21" stroke-linecap="round" stroke-linejoin="round"/>
<path d="M240.95 119.57C237.73 117.79 234.04 117.67 230.62 116.62C228.35 115.93 225.91 115.96 223.73 114.89" stroke="#2071B5" stroke-width="4.21" stroke-linecap="round" stroke-linejoin="round"/>
<path d="M218.56 313.15C218.06 317.66 218.69 322.17 218.56 326.68C218.53 327.67 218.67 328.67 218.31 329.63" stroke="#2071B5" stroke-width="4.21" stroke-linecap="round" stroke-linejoin="round"/>
<path d="M329.49 134.57C327.13 137.38 323.55 138.3 320.65 140.25C318.48 141.72 315.87 142.48 313.99 144.41" stroke="#2071B5" stroke-width="4.21" stroke-linecap="round" stroke-linejoin="round"/>
<path d="M238.24 106.04C238.22 106.71 238.91 106.96 239.23 106.98C244.14 107.29 248.8 109.14 253.74 109.24" stroke="#2071B5" stroke-width="4.21" stroke-linecap="round" stroke-linejoin="round"/>
<path d="M336.38 308.23C336.59 308.79 336.92 309.26 336.9 309.95C336.75 314.87 337.02 319.79 336.66 324.71C336.46 327.41 336.77 330.13 337.12 332.82" stroke="#2071B5" stroke-width="4.21" stroke-linecap="round" stroke-linejoin="round"/>
<path d="M233.57 202.22C228.65 202.84 223.79 203.94 218.81 204.19" stroke="#2071B5" stroke-width="4.21" stroke-linecap="round" stroke-linejoin="round"/>
<path d="M233.07 211.56C228.94 211.91 224.95 213.23 220.77 213.35C220.15 213.37 219.45 213.39 218.8 213.53" stroke="#2071B5" stroke-width="4.21" stroke-linecap="round" stroke-linejoin="round"/>
<path d="M184.87 158.43V172.7" stroke="#2071B5" stroke-width="4.21" stroke-linecap="round" stroke-linejoin="round"/>
<path d="M233.07 192.38C228.94 192.76 224.93 193.92 220.78 194.17C220.15 194.21 219.46 194.22 218.81 194.35" stroke="#2071B5" stroke-width="4.21" stroke-linecap="round" stroke-linejoin="round"/>
<path d="M233.07 261.25C228.7 261.94 224.39 262.96 220.03 263.7C219.63 263.77 219.21 263.7 218.8 263.7" stroke="#2071B5" stroke-width="4.21" stroke-linecap="round" stroke-linejoin="round"/>
<path d="M328.02 179.34C328.02 183.19 328.02 187.05 328.02 190.9C328.02 191.72 328.17 192.57 327.78 193.36" stroke="#2071B5" stroke-width="4.21" stroke-linecap="round" stroke-linejoin="round"/>
<path d="M209.46 330.12C209.45 334.3 210.03 338.48 209.46 342.67C209.41 343.02 209.37 343.43 209.95 343.41" stroke="#2071B5" stroke-width="4.21" stroke-linecap="round" stroke-linejoin="round"/>
<path d="M158.79 196.31C165.03 198.71 171.37 200.74 177.96 202.02C182.05 202.81 186.17 203.3 190.27 203.93" stroke="#2071B5" stroke-width="4.21" stroke-linecap="round" stroke-linejoin="round"/>
<path d="M143.54 314.87V334.06" stroke="#2071B5" stroke-width="4.21" stroke-linecap="round" stroke-linejoin="round"/>
<path d="M158.3 185.98C168.52 190.72 179.37 192.9 190.52 193.85" stroke="#2071B5" stroke-width="4.21" stroke-linecap="round" stroke-linejoin="round"/>
<path d="M218.32 162.12C218.32 168.19 218.32 174.25 218.32 180.32C218.32 181.14 218.17 181.99 218.56 182.78" stroke="#2071B5" stroke-width="4.21" stroke-linecap="round" stroke-linejoin="round"/>
<path d="M157.32 318.31V331.1" stroke="#2071B5" stroke-width="4.21" stroke-linecap="round" stroke-linejoin="round"/>
<path d="M159.78 255.84C166.99 259.23 174.67 261.09 182.41 262.71C182.96 262.83 183.55 262.73 184.13 262.73" stroke="#2071B5" stroke-width="4.21" stroke-linecap="round" stroke-linejoin="round"/>
<path d="M162.73 266.66C168.49 269.51 174.73 270.7 180.93 272.09C184.02 272.79 187.17 272.85 190.28 273.3" stroke="#2071B5" stroke-width="4.21" stroke-linecap="round" stroke-linejoin="round"/>
<path d="M246.36 198.28C243.29 198.39 240.77 200.35 237.77 200.85C236.58 201.05 235.19 201.25 234.06 201.97" stroke="#2071B5" stroke-width="4.21" stroke-linecap="round" stroke-linejoin="round"/>
<path d="M356.06 131.13C352.73 132.61 349.73 134.72 346.45 136.26C341.49 138.59 337.12 142.04 331.94 143.87C328.46 145.1 325.27 147.08 321.63 147.86" stroke="#2071B5" stroke-width="4.21" stroke-linecap="round" stroke-linejoin="round"/>
<path d="M246.36 207.13C244.7 206.88 243.6 208.17 242.19 208.65C239.51 209.57 236.82 210.42 234.06 211.06" stroke="#2071B5" stroke-width="4.21" stroke-linecap="round" stroke-linejoin="round"/>
<path d="M207.18 77.9697C206.79 79.6797 206.68 85.6897 207.33 87.3497C205.16 90.9197 189.28 90.9097 185.6 90.5397" stroke="#2071B5" stroke-width="4.21" stroke-linecap="round" stroke-linejoin="round"/>
<path d="M184.87 174.42V212.54" stroke="#2071B5" stroke-width="4.21" stroke-linecap="round" stroke-linejoin="round"/>
<path d="M190.77 183.28C190.77 192.46 190.77 201.65 190.77 210.83C190.77 211.65 190.92 212.5 190.53 213.29" stroke="#2071B5" stroke-width="4.21" stroke-linecap="round" stroke-linejoin="round"/>
<path d="M228.89 142.2C226.06 143.07 223.51 144.68 220.53 145.18C216.81 145.79 213.13 145.7 209.46 144.91C207.81 144.56 208.18 143.02 207.74 141.96" stroke="#2071B5" stroke-width="4.21" stroke-linecap="round" stroke-linejoin="round"/>
<path d="M244.88 257.07V283.86C241.64 285.67 238.02 287.4 234.06 288.31" stroke="#2071B5" stroke-width="4.21" stroke-linecap="round" stroke-linejoin="round"/>
<path d="M160.27 281.91C163.57 283.84 166.9 285.72 170.6 286.83" stroke="#2071B5" stroke-width="4.21" stroke-linecap="round" stroke-linejoin="round"/>
<path d="M218.81 333.56V343.89" stroke="#2071B5" stroke-width="4.21" stroke-linecap="round" stroke-linejoin="round"/>
<path d="M171.34 180.32C170.8 183.67 171.24 187.04 171.09 190.4" stroke="#2071B5" stroke-width="4.21" stroke-linecap="round" stroke-linejoin="round"/>
<path d="M272.43 321.26V336.02" stroke="#2071B5" stroke-width="4.21" stroke-linecap="round" stroke-linejoin="round"/>
<path d="M184.62 90.2995C181.2 90.1795 173.6 88.3995 171.57 85.5195" stroke="#2071B5" stroke-width="4.21" stroke-linecap="round" stroke-linejoin="round"/>
<path d="M171.34 190.9C170.8 194 171.24 197.13 171.09 200.25" stroke="#2071B5" stroke-width="4.21" stroke-linecap="round" stroke-linejoin="round"/>
<path d="M191.01 264.2C190.5 268.04 190.79 271.91 190.78 275.76C190.74 283.96 190.77 292.16 190.77 300.36" stroke="#2071B5" stroke-width="4.21" stroke-linecap="round" stroke-linejoin="round"/>
<path d="M171.34 260.26C170.8 263.36 171.24 266.49 171.09 269.61" stroke="#2071B5" stroke-width="4.21" stroke-linecap="round" stroke-linejoin="round"/>
<path d="M142.56 294.7V304.05" stroke="#2071B5" stroke-width="4.21" stroke-linecap="round" stroke-linejoin="round"/>
<path d="M218.56 273.79C218.71 276.82 218.26 279.87 218.81 282.89" stroke="#2071B5" stroke-width="4.21" stroke-linecap="round" stroke-linejoin="round"/>
<path d="M171.34 200.74C170.78 203.68 171.25 206.65 171.09 209.59" stroke="#2071B5" stroke-width="4.21" stroke-linecap="round" stroke-linejoin="round"/>
<path d="M233.57 289.04V297.65" stroke="#2071B5" stroke-width="4.21" stroke-linecap="round" stroke-linejoin="round"/>
<path d="M244.64 284.37C245.36 287.21 244.42 290.14 245.13 292.98" stroke="#2071B5" stroke-width="4.21" stroke-linecap="round" stroke-linejoin="round"/>
<path d="M171.34 270.1C170.79 275.75 171.26 281.42 171.09 287.07C171 290.02 171.37 292.99 170.85 295.92" stroke="#2071B5" stroke-width="4.21" stroke-linecap="round" stroke-linejoin="round"/>
<path d="M218.32 291.99C218.94 294.75 218.2 297.59 218.81 300.35" stroke="#2071B5" stroke-width="4.21" stroke-linecap="round" stroke-linejoin="round"/>
<path d="M257.92 124.74C255.8 126.52 253.03 127.12 250.76 128.64C250.3 128.95 249.99 129.36 249.55 129.66" stroke="#2071B5" stroke-width="4.21" stroke-linecap="round" stroke-linejoin="round"/>
<path d="M157.81 177.62V194.35" stroke="#2071B5" stroke-width="4.21" stroke-linecap="round" stroke-linejoin="round"/>
<path d="M394.67 98.1699C392.38 100.26 389.09 100.88 387.05 103.34" stroke="#2071B5" stroke-width="4.21" stroke-linecap="round" stroke-linejoin="round"/>
<path d="M402.05 105.06C399.25 106.36 396.72 108.16 393.93 109.49" stroke="#2071B5" stroke-width="4.21" stroke-linecap="round" stroke-linejoin="round"/>
<path d="M233.32 173.93C233.85 176.54 233.43 179.18 233.57 181.8" stroke="#2071B5" stroke-width="4.21" stroke-linecap="round" stroke-linejoin="round"/>
<path d="M335.89 205.9C332.74 206.77 329.74 208.42 326.3 207.87C324.08 207.51 321.87 207.08 319.66 206.64" stroke="#2071B5" stroke-width="4.21" stroke-linecap="round" stroke-linejoin="round"/>
<path d="M184.62 273.05C184.07 278.95 184.53 284.86 184.37 290.76" stroke="#2071B5" stroke-width="4.21" stroke-linecap="round" stroke-linejoin="round"/>
<path d="M319.16 302.32C321.7 302.71 324.24 302.73 326.78 302.32" stroke="#2071B5" stroke-width="4.21" stroke-linecap="round" stroke-linejoin="round"/>
<path d="M319.9 309.46C322.44 309.69 324.96 310.24 327.52 309.71" stroke="#2071B5" stroke-width="4.21" stroke-linecap="round" stroke-linejoin="round"/>
<path d="M218.56 283.63C218.72 286.17 218.24 288.73 218.81 291.25" stroke="#2071B5" stroke-width="4.21" stroke-linecap="round" stroke-linejoin="round"/>
<path d="M241.44 258.3C238.88 258.83 236.64 260.3 234.06 260.76" stroke="#2071B5" stroke-width="4.21" stroke-linecap="round" stroke-linejoin="round"/>
<path d="M319.66 322.25C318.9 324.58 320.02 327.09 318.92 329.38" stroke="#2071B5" stroke-width="4.21" stroke-linecap="round" stroke-linejoin="round"/>
<path d="M218.32 147.61C218.45 149.82 218.05 152.05 218.57 154.25" stroke="#2071B5" stroke-width="4.21" stroke-linecap="round" stroke-linejoin="round"/>
<path d="M170.6 278.47C168.34 277.99 166.44 276.57 164.2 276.01" stroke="#2071B5" stroke-width="4.21" stroke-linecap="round" stroke-linejoin="round"/>
<path d="M336.87 181.06C338.92 181.22 340.89 182.34 343.02 181.55" stroke="#2071B5" stroke-width="4.21" stroke-linecap="round" stroke-linejoin="round"/>
<path d="M184.62 291.26C183.98 293.77 184.8 296.38 184.13 298.88" stroke="#2071B5" stroke-width="4.21" stroke-linecap="round" stroke-linejoin="round"/>
<path d="M185.36 84.6396C185.33 86.6096 185.46 88.5896 185.11 90.5396" stroke="#2071B5" stroke-width="4.21" stroke-linecap="round" stroke-linejoin="round"/>
<path d="M336.84 299.16C336.48 300.91 334.6 301.32 333.41 301.76C332.85 301.97 333.13 301.62 327.84 302.11" stroke="#2071B5" stroke-width="4.21" stroke-linecap="round" stroke-linejoin="round"/>
<path d="M238.98 190.9C237.28 190.92 235.75 191.79 234.06 191.88" stroke="#2071B5" stroke-width="4.21" stroke-linecap="round" stroke-linejoin="round"/>
<path d="M218.32 156.47C218.45 158.03 218.05 159.61 218.57 161.14" stroke="#2071B5" stroke-width="4.21" stroke-linecap="round" stroke-linejoin="round"/>
<path d="M244.88 253.87C244.88 254.61 244.82 255.35 244.89 256.08C244.98 256.97 244.41 256.83 243.89 256.82" stroke="#2071B5" stroke-width="4.21" stroke-linecap="round" stroke-linejoin="round"/>
<path d="M236.52 269.61C235.6 269.29 234.93 270.19 234.06 270.1" stroke="#2071B5" stroke-width="4.21" stroke-linecap="round" stroke-linejoin="round"/>
</svg>
