<?xml version="1.0" encoding="UTF-8"?>
<svg id="icons" xmlns="http://www.w3.org/2000/svg" viewBox="0 0 500 500">
  <defs>
    <style>
      .cls-1 {
        stroke-width: .89px;
      }

      .cls-1, .cls-2 {
        fill: none;
        stroke: #000;
        stroke-linecap: round;
        stroke-linejoin: round;
      }

      .cls-2 {
        stroke-width: .89px;
      }
    </style>
  </defs>
  <path class="cls-2" d="M154.2,374.96c-.65.64-.44,1.47-.44,2.23-.01,3.72.09,7.44-.05,11.15-.07,1.92.84,2.63,2.49,2.91,5.31.89,10.53,2.22,15.83,3.2,4.11.76,8.2,2.27,12.29,2.43,6.12.24,11.6,2.62,17.37,3.94,1.83.42,3.57,0,5.4.33,4.23.77,8.55,1.17,12.92,1.06,8.86-.22,17.31-2.18,25.43-5.62,8.15-3.46,15.82-7.88,23.15-12.79,4.67-3.13,8.47-7.42,12.29-11.56,4.33-4.7,8.22-9.8,11.39-15.37,3.98-6.98,7.12-14.34,9.42-22.06,1.68-5.64,2.66-11.39,3.55-17.18,1.23-7.99,1.33-16.04,1.33-24.1,0-27.96,0-55.92,0-83.88,0-7.19-.85-14.3-1.71-21.43-1.05-8.66-2.76-17.13-5.44-25.42-2.18-6.75-5-13.21-8.45-19.42-3.54-6.37-7.33-12.59-11.89-18.24-6.22-7.71-13.08-14.83-20.41-21.53-4.85-4.44-10.02-8.31-15.7-11.49-6.7-3.75-13.78-6.68-21.19-8.69-8.75-2.37-17.64-4.2-26.76-3.98-2.84.07-5.68-.38-8.47-.03-7.38.94-14.39,3.28-21.19,6.21-9.45,4.08-17.92,9.6-25.48,16.67-9.51,8.9-16.99,19.22-22.68,30.85-4.53,9.25-7.5,19.01-9.24,29.2-1.48,8.66-2.32,17.33-2.2,26.11.12,8.85.23,17.7-.04,26.55-.19,6.32-.14,12.64-.52,18.97-.6,9.87-.53,19.78-.24,29.66.3,10.17,1.22,20.33,3.11,30.33,1.61,8.51,4.24,16.77,7.56,24.76,5.25,12.65,12.11,24.41,20.5,35.26,4.94,6.38,10.33,12.37,16.03,18.1,6.14,6.17,12.99,11.41,20.34,16.01,4.32,2.7,8.72,5.3,13.59,6.96.87.3,1.66.82,2.01,1.77"/>
  <path class="cls-2" d="M136.1,290.63c-1.15-6.88-1.77-13.78-1.77-20.75.03-24.47.08-48.93-.02-73.4-.05-13.58,2.25-26.62,7.83-39.04,4.3-9.58,10.2-17.95,17.81-25.26,7.66-7.36,16.65-11.6,27.04-13.37,9.53-1.62,18.75-.63,27.91,2.22,2.85.89,5.4,2.3,8.07,3.49,2.78,1.23,5.55,2.42,8.2,3.92,6.19,3.51,11.03,8.52,15.61,13.84-.1,2.84,2.97,3.11,4.12,5.07,1.14,1.94,2.82,3.63,4.47,5.3,1.97,1.99,3.15,4.76,4.59,7.25,4.81,8.37,8.63,17.15,10.91,26.56,1.42,5.87,2.34,11.8,2.71,17.85,1.79,28.99.48,58.01.82,87.01.1,8.47-1.28,16.83-3.57,24.98-2.32,8.26-5.36,16.27-9.81,23.64-4.69,7.78-10.69,14.35-18.48,19.22-6.13,3.84-12.79,6.08-19.86,7.39-4,.74-8.01,1.37-12.05,1.25-7.94-.22-15.59-2.01-22.97-4.88-6.66-2.59-12.49-6.63-18.29-10.71"/>
  <path class="cls-2" d="M171.6,322.76c-3.32-.06-11.08,2.09-14.68,2.95-2.35.56-1.96-.59-4.29-4.96"/>
  <path class="cls-2" d="M409.19,219.46c.62-2.28-.13-4.48-.46-6.69-1.27-8.52-3.69-16.67-8.96-23.61-3.54-4.67-8.09-8.15-13.76-10.13-2.73-.95-5.72-1.65-8.23-1.09-4.51,1-9.06,2.37-13,5.14-9.11,6.4-14.69,15.41-19.45,25.2-5.21,10.71-8.12,22.07-9.66,33.73-1.76,13.34-1.28,26.71,3.56,39.44,3.11,8.19,7.88,15.65,16.24,19.34,9.44,4.16,18.59,2.88,26.96-3.44,8.9-6.72,14.49-15.72,18.54-25.88.24-.61-.12-1.3.41-1.8"/>
  <path class="cls-2" d="M361.45,358.9c3.77.28,7.29,1.62,10.93,2.45,7.32,1.66,14.54,3.7,21.85,5.4,3.82.89,3.81,1.42,4.08,5.98.25,4.39-.26,8.81.25,13.16.55,4.74-1.4,6.99-5.58,9.08-7.13,3.56-13.99,7.71-21.07,11.4-10.38,5.42-20.39,11.53-30.98,16.57-6.72,3.2-13.81,5.06-21.2,5.26-5.71.16-11.4-.79-16.95-2.18-6.23-1.57-12.48-3.02-18.75-4.43-4.33-.97-8.62-2.11-12.93-3.15-5.44-1.31-10.85-2.7-16.3-3.95-9.53-2.19-18.99-4.66-28.55-6.73-7.09-1.54-14.16-3.12-21.21-4.85-1.1-.27-1.62-.72-1.99-1.62"/>
  <path class="cls-2" d="M107.35,153.43c-3.65-1.1-7.45-1.39-11.16-2.19-3.39-.73-6.83-1.25-10.26-1.79-6.05-.95-11.96-.38-16.91,3.57-4.83,3.86-8.51,8.8-11.38,14.25-3.54,6.72-5.86,13.85-6.98,21.4-1.3,8.81-.77,17.36,2.69,25.67,3.52,8.45,9.44,13.61,18.74,15.01,8.8,1.32,17.56,2.93,26.34,4.33,2.16.35,4.35.79,6.57.73"/>
  <path class="cls-2" d="M397.37,217.23c.73-1.43-.31-2.58-.7-3.78-2.68-8.23-8.54-13.31-16.72-15.3-6.5-1.58-12.11,1.22-16.91,5.5-6.24,5.57-9.82,12.83-12.75,20.5-3.86,10.09-5.1,20.57-4.37,31.23.52,7.49,2.39,14.68,7.25,20.78,1.42,1.78,3.31,2.95,4.94,4.44"/>
  <path class="cls-2" d="M387,179.39c-.35-.26-10.47-2.74-11.05-2.79-6.53-.55-12.97-1.68-19.42-2.8-2.27-.39-4.6-.64-6.9-.96-.83-.12-1.51.19-2.25.63-7.38,4.44-13.34,10.35-18.52,17.19-7.66,10.11-11.97,21.57-14.27,33.92-1.7,9.08-2.5,18.22-2.18,27.44.35,10.19,2.41,20.06,6.48,29.43,1.4,3.22,3.29,6.22,5.56,8.93,2.82,3.35,6.76,4.87,10.67,6.53,5.67,2.4,30.49,7.46,33.64,6.14"/>
  <path class="cls-2" d="M204.39,211.43c9.86-.53,15.44-9.53,15.11-17.85-.29-7.48-3.05-14.01-9.56-18.26-7.57-4.94-15.25-2.5-20.05,5.32-5.3,8.63-2.18,23.69,6.89,28.81,2.34,1.32,4.84,1.64,7.38,1.98"/>
  <path class="cls-2" d="M327.09,192.47c-.54-.47-.93-.94-.92-1.79.03-2.68-.16-5.36-.34-8.04-.54-8.43-1.96-16.66-4.31-24.76-5.44-18.67-15.27-34.82-28.08-49.33-5.76-6.52-11.81-12.67-19.01-17.58-9.81-6.7-20.45-11.5-32.1-14.12-9.8-2.2-19.7-3.01-29.68-2.54-4.62.22-9.26.62-13.86,1.59-3.01.63-6.11.96-9.13,1.64-.8.18-1.48.31-1.78,1.15"/>
  <path class="cls-2" d="M204.39,320.3c9.13-1.86,13.71-9.78,13.35-16.95-.43-8.63-4.15-15.5-11.8-19.83-6.39-3.62-12.56-1.07-16.27,3.99-2.72,3.72-4.26,7.87-3.99,12.49.54,9.03,6.02,17.17,15.36,19.88,1.05.3,2.14-.06,3.13.42"/>
  <path class="cls-2" d="M181.64,127.99c-3.34,2.08-7.23,3.16-10.29,5.77-.52.45-1.11.86-1.51,1.39-2.72,3.58-6.05,6.73-9.33,9.62-4.6,4.06-7.46,8.96-9.81,14.27-2.4,5.44-3.98,11.17-4.83,17.14-.95,6.62-.93,13.23-.82,19.87,0,.45,0,.89,0,1.34,0,27.14,0,54.29,0,81.43,0,1.8.12,3.51,1.08,5.16.65,1.12.12,2.51.27,3.77.58,4.62,1.92,9.06,3.59,13.37,1.41,3.62,2.49,7.27,2.63,11.17.02.58.4,1.01.46,1.56"/>
  <path class="cls-2" d="M390.67,268.32c-2.5.64-10.33,8.19-23.55-1.45-8.43-6.15-8.1-18.82-7.94-23.09.34-8.89,2.7-16.24,8.69-22.81,7.7-8.45,5.82-5.45,11.87-5.96,2.41-.2,3.68-.03,5.33.33,3.93.87,7.91,1.36,11.84,2.15,3.42.69,6.8,1.48,10.26,2.04,4.7.75,9.35,1.86,14.06,2.66,5.35.91,10.71,1.79,16.07,2.64,4.1.65,7.21,2.52,9.2,6.44,4.11,8.12,4.39,16.45,1.95,25.01-1.46,5.11-3.09,10.12-6.65,14.31-3.03,3.57-7.65,5.06-12.23,2.52-2.46-1.36-4.19-4.03-4.99-7.01-3.59-13.34-.49-25.3,7.65-36.1,1.51-2.01,3.94-2.94,6.64-2.5"/>
  <path class="cls-2" d="M327.43,293.75c-.37.63-.36,1.31-.34,2.01.33,11.35-1.87,22.24-5.28,33.04-5.03,15.9-13.52,29.53-25.52,41.01-3.58,3.42-7.59,6.42-11.87,8.83-3.63,2.05-7.58,3.74-11.77,4.54-.86.16-1.81.25-2.67-.19"/>
  <path class="cls-2" d="M398.04,372.51c-.59-.4-1.09-.03-1.56.23-10.42,5.7-21.14,10.82-31.68,16.29-8.23,4.28-16.47,8.56-24.77,12.71-10.15,5.07-20.79,6.66-31.9,4.2-7.15-1.58-14.28-3.29-21.21-5.74-1.97-.7-2.39-1.36-2.33-3.59.17-5.79.39-11.6-.12-17.4"/>
  <path class="cls-2" d="M382.92,214.97c-.58.35-7.41,4.37-10.27,8.09-6.47,8.42-7.52,19.34-6.24,29.63.47,3.81,1.72,7.45,4.63,10.28,2.57,2.51,5.95,2.58,9.16,3.09,3.43.54,6.85,1.16,10.28,1.7,2.71.43,5.5.56,8.24,1.01,5.13.84,10.26,1.63,15.39,2.45,4.17.66,8.34,1.26,12.49,2,.61.11,4.96,1.17,7.29,1.14"/>
  <path class="cls-2" d="M359.89,174.39c0-9.15.01-20.96-.01-30.11-.01-5.99-.1-11.94-1.49-17.86-1.72-7.31-6.37-11.73-13-14.48-6.08-2.52-12.55-3.49-18.96-4.69-7.07-1.33-14.12-2.7-21.19-4.03-5.59-1.05-11.18-2.08-16.74-3.3-.71-.16-1.52-.3-2.23.2"/>
  <path class="cls-2" d="M296.08,257.84v52.2"/>
  <path class="cls-2" d="M431.98,229.93c-7.02-.61-16.48-1.77-23.45-2.72-8-1.09-16-2.34-23.87-4.2-.61-.14-1.19-.17-1.79-.2-1.34-.06-2.51.07-2.69,1.79-.16,1.57.4,2.51,2.01,2.92,2.43.62,4.92.97,7.37,1.26,5.91.7,11.75,1.83,17.61,2.78,6.02.97,12.11,1.53,18.08,2.86.69.16,2.73.89,3.41.94"/>
  <path class="cls-2" d="M320.4,403.07c3.7-.29,6.1.48,9.27-1.62,1.9-1.26,1.63-2.87-.37-3.93-3.55-1.89-7.48-1.96-11.36-1.76-1.96.1-3.41.18-5.64.62-.86.17-2.1,1.42-1.92,2.66.14.98.23,1.68,1.71,2.39,1.81.87,2.66,1.03,4.58,1.33.73.11,2.71.22,3.72.3"/>
  <path class="cls-2" d="M433.51,228.39c-.46-1.42-1.9-1.57-2.91-1.72-7.98-1.2-15.93-2.57-23.87-4.01-4.72-.86-9.43-1.96-14.27-2.08"/>
  <path class="cls-2" d="M317.11,340.91c-.49,1.52.61,5.69.61,7.28,0,11.97,0,23.95,0,35.95,2.2,1.27,4.75,1.27,7.15,1.71,5.67,1.03,11.33,2.13,16.93,3.45,2.25.53,1.4.27,3.14-.5"/>
  <path class="cls-2" d="M116.94,159.67c-.2,2.93,1.19,4.97,3.57,6.47,2.72,1.71,6.45.68,7.76-2.47,1.66-3.98.99-8.37-2.69-10.83-2.79-1.87-6.04-.99-7.77,2.36-.7,1.36-.72,2.84-1.1,4.25"/>
  <path class="cls-2" d="M320.7,333.01c1.81,5.14,4.87,12.66,7.09,17.62,4.14,9.23,8.31,18.45,12.47,27.67,1.57,3.49,3.33,6.9,4.68,10.49"/>
  <path class="cls-2" d="M281.58,329.89c.01,2.34.68,4.35,2.67,5.81,3.08,2.26,6.51,1.76,8.64-1.83,1.9-3.21,1.55-7.48-1.72-9.99-1.93-1.48-4.08-1.61-6.23-.65-2.35,1.05-3.14,3.16-3.35,5.55-.03.3,0,.59,0,.89"/>
  <path class="cls-2" d="M437.08,258.95c.7-.01,1.37.03,2.02-.43,3.93-2.79,4.78-9.44,1.98-13.17-1.68-2.24-4.24-2.78-6.66-.22-3.1,3.27-3.75,11.06,1.08,13.63.47.25.23.08,1.58.18"/>
  <path class="cls-2" d="M182.97,234.63c-6.19,5.23-3.71,2.31-6.69,5.8-.19.23-.03,0-.22.23-3.71,4.58-3.4,3.93-1.35,8.7,1.35,3.14,2.53,6.36,2.66,9.81.11,2.64-1.36,3.56-4,3.16-3.95-.6-7.31-2.67-10.89-4.15-1.78-.74-3.61-1.16-5.41-1.61-2.1-.52-4.04,2.1-3.81,4.39.41,4.08,3.25,6.75,5.42,9.79,1.75,2.44,4.1,4.44,5.71,6.97.75,1.18,1.67,2.58.95,4.2-.67,1.51-2.45,2.32-4.45,1.76-3.37-.94-6.88-.79-10.28-1.5-1.69-.35-2.92.92-4.23,1.75"/>
  <path class="cls-2" d="M382.42,375.41c-2.38-2.06-5.43-2.02-8.26-2.38-2.66-.34-5.43-.35-8.02.81-1.36.61-1.51,1.26-.44,2.24,1.01.94,2.42,1.12,3.58,1.25,3.62.39,7.28,1.11,10.92.09.99-.28,2.22-.27,2.23-1.78"/>
  <path class="cls-2" d="M125.64,231.96v34.36"/>
  <path class="cls-2" d="M248.18,345.74q-2.69,3.52-4.18,5.5c-2.08,2.76-14.51-17.99-15.08-14.48-.42,2.62,1.71,22.81,1.23,23.33-1.34,1.47-10.55,3.14-11.19.86-1.49-5.26-5.05-13.69-9-17.65-.38-.38-.86-.84-2.01-.58-1.95,5.29-3.47,10.92-3.77,16.85"/>
  <path class="cls-2" d="M126.09,179.31v32.57"/>
  <path class="cls-2" d="M339.36,110.37c-.39,1.45-1.74,1-2.68,1.32-4.82,1.68-9.64,3.38-14.51,4.87-4.86,1.49-9.59,3.38-14.48,4.74"/>
  <path class="cls-2" d="M177.95,350.87c3.31,1.24,12.26,6.37,15.64,7.4"/>
  <path class="cls-2" d="M140.66,308.07c1.21,3.95,6.2,17.03,6.87,18.01,2.52,3.68,4.94,7.42,7.96,10.76,3.67,4.06,9.23,12.36,13.88,15.35"/>
  <path class="cls-2" d="M280.47,258.28v30.34"/>
  <path class="cls-2" d="M361.28,303.02c-.1,3.85-.49,43.57-.49,44.27-.01,5.21-.02,10.41,0,15.62,0,1.12-.35,1.53-1.52,2.1-6.67,3.29-13.56,6.06-20.35,9.05"/>
  <path class="cls-2" d="M257.05,226.38c-.33.53-17.01-6.95-17.07-.59,0,0,.99,10.46,2.52,14.42.43,1.11-.05,2.06-.66,2.33-1.74.76-4.5,2.4-5.26,2.77"/>
  <path class="cls-2" d="M390.67,268.32c-1.57,2.77-3.15,5.5-5.09,8.07-3.63,4.8-8.44,7.77-14.13,8.99-3.45.74-10.13-2.76-13.36-4.79"/>
  <path class="cls-2" d="M235.14,169.01c.98.98,3.12,5.04,5.18,4.86,3.62-.32,16.98-2.71,20.56-2.35"/>
  <path class="cls-2" d="M237.63,163.91c-.6,1.64-3.46,4.12-2.49,5.09.98.98,1.71,2.15,3.76,1.96,3.62-.32,16.98-2.71,20.56-2.35"/>
  <path class="cls-2" d="M258.15,320.04c2.54-.7,5.29-1.04,7.36-2.88,2.09-1.85,2.53-6.91.89-9.56-.49-.79-.87-1.47-.93-2.47-.07-1.37-1.13-2.39-2.19-3.1-3.89-2.58-7.89-4.99-11.92-7.35-3.03-1.77-3.33-1.99-6.07-.77-4.46,1.99-6.22,2.27-4.71,4.04,4.52,5.3,9.94,9.35,16.94,10.67,2.06.39,4.73-1.47,6.68-2.15.52-.18.3-.06.89-.24"/>
  <path class="cls-2" d="M191.9,127.1c.41.78-9.14,1.9-8.9,3.57.67,4.8.22,9.67.44,14.5.05,1.15-.09,2.26-.46,3.35"/>
  <path class="cls-2" d="M222.69,252.03c-4.29,1.88-7.09,3.35-10,4.93-1.53-.75-2.19-2.13-2.23-3.6-.12-4.74-1.73-9.17-2.73-13.72-.42-1.91-1.15-2.7-2.5-4.03-1.95-1.92-2.43-1.6-3.08-.11-.58,1.3-1.35,3.42-1.99,4.69-1.13,2.24-2.37,6.23-3.37,9.59-.42,1.43-1.07,5.72-2.6,5.8-1.48-.55-5.72.4-6.17-.82-2.19-5.94-3.02-14.15-5.04-20.15l-2.9-11.15c-.95,1.26-3.23,3.71-4.56,4.54-6.92,4.34-12.22,9.5-13.96,8.8-2.94-1.2-4.28-2.55-5.98-4.86-.82-1.11,10.64-18.83,10.66-20.52.02-1.78.22-4.38-1.56-4.45-1.26-.05-2.54-.12-3.79.01-3.77.41-7.83,1.96-10.82-.09-1.16-.79-2.3-3.28-1.99-4.84.47-2.43,5.2-5.01,6.92-6.47,3.22-2.73,7.53-5.66,10.67-8.51,2.44-2.22-.08-3.48-2.77-5.55-2.21-1.71-4.64-3.09-6.94-4.65-2.76-1.86-4.77-3.89-4.29-7.63.18-1.4.52-2.8.52-4.23"/>
  <path class="cls-2" d="M236.57,245.31c-2.1-3.62-2.16-4.12-3.44-5.74-1.73-2.19-8.36-11.65-10.89-10.29-4.02,2.17-.98,20.5.44,22.75l1.92-5.54-2.36-17.21"/>
  <path class="cls-2" d="M177.12,351.1c2.33-4.89,6.89-11.36,11.23-14.7,1-.77,1.77-.27,2.24,1.06,1.28,3.63,1.37,7.44,1.99,11.17.48,2.91-.71,6.52.79,9.29.88,1.63,2.92,1.58,4.54,1.87,2.67.49,5.35.22,8.03.21,3.99-.02,7.96-.23,11.82-1.33"/>
  <path class="cls-2" d="M191.9,127.1c1.78,2.89,2.44,6.17,3.34,9.37.89,3.17,2.06,6.23,3.59,9.14,1.06,2.02,2.42,2.22,3.75.43,2.84-3.81,5.09-7.99,7.13-12.27.68-1.43,1.82-6.3,12.31-.65"/>
  <path class="cls-2" d="M246.54,149.36c-.5.93-8.19,13.82-8.91,14.55"/>
  <path class="cls-2" d="M234.06,251.14c-1.24,1.15-1.49,2.7-1.54,4.24-.16,4.65-1.83,8.86-3.85,12.92-1.39,2.8-1.54,3.45.5,5.8.87,1.01,1.48,2.22,2.44,3.13,1.53,1.43,3.21,2.07,5.35,1.16,3.92-1.66,13.24-6.15,17.29-7.42,3.11-.98,2.86-1.3,6.12-.46.77.2,3.25,11.1,3.79,11.21"/>
  <path class="cls-2" d="M222.02,133.13c-.32,4.92-.77,9.83-1.41,14.72-.25,1.88-.02,3.03,1.85,3.58"/>
  <path class="cls-2" d="M148.39,294.2c1.94-.21,3.71.33,5.47,1.1,3.36,1.47,6.84,2.64,9.92,4.7,2.02,1.35,1.95,1.4.69,3.59-2.59,4.48-6.82,7.21-10.77,10.2-2.12,1.6-2.86,3.31-1.5,5.62.26.44.15.95.43,1.35"/>
  <path class="cls-2" d="M235.18,140.49c-3.06,3.37-7.02,5.74-10.04,9.15-.35.4-1.61,2.01-2.68,1.78"/>
  <path class="cls-2" d="M171.6,322.76c2.83,2.27,2.88,2.83,1.81,6.49-.99,3.36-2.8,6.35-4.12,9.55-.42,1.01-.83,2.79-1.16,4.02-.11.42.04.86.39,1.12,2.07,1.51,7.98,6.89,8.61,7.17"/>
  <path class="cls-2" d="M265.5,183c-14.03-41.47-44.47-53.43-45.99-53.99-3.7-1.37-12.91-2.97-16.82-3.65-2.3-.4-11.41-.71-21.06,2.63"/>
  <path class="cls-2" d="M158.44,325.22c1.85,2.29,2.49,3.46,3.11,4.57,1.55,2.8,3.78,5.49,4.59,8.62.29,1.11,1.3,2.56,2.27,3.1"/>
  <path class="cls-2" d="M182.76,148.52c-2.89-2.5-13.83-3.34-17.39-4.96"/>
  <path class="cls-2" d="M152.19,165.03c.2-.99.61-4.62,4.33-3.27,1.34.49,9.52,5.88,10.53,5.2,1.97-1.32,3.64-3.26,4.75-5.41.71-1.38-10.66-9.59-11.45-10.63-2.65-3.49-.35-2.84,5.02-7.37"/>
  <path class="cls-2" d="M241.87,276.13c-.37-1.36.12-2.71.29-4.01.87-6.47.85-13.06,2.58-19.43.23-.83.03-1.78.03-2.73-3.35-1.31-7.23.74-10.71,1.17l-21.38,5.83"/>
  <path class="cls-2" d="M257.05,226.38c2.95.66,3.55,2.25,6.06.62,2.95-1.91-13.62-17.59-14.76-20.7.18-.39,18.04-.35,18.32-.64.15-.15.57-.03.87-.03l.85-5.33-23.14-7.33c1.82-2.36,4.59-3.82,7.02-4.89,2.66-1.17,4.92-2.69,7.28-4.22,1.87-1.22,3.05-3.06,4.66-4.5"/>
  <path class="cls-2" d="M295.64,234.63v9.82"/>
  <path class="cls-2" d="M257.93,308.92c-.14.87.07,1.72.47,2.44,1.29,2.32,2.22,4.75,2.66,7.37"/>
  <path class="cls-2" d="M280.47,202.06v8.48"/>
  <path class="cls-2" d="M240.22,296.42c1.53-2.43,12.35-7.29,14.79-8.73,3.14-1.85,5.69-4.63,9.17-5.98l-15.84,11.38"/>
  <path class="cls-2" d="M122.96,294.87c-3.82.95-4.71,2.89-5.1,5.58-.49,3.46,1.19,6.79,3.76,8.03,2.12,1.02,5.54-.31,6.92-2.68,2.98-5.13.3-10.6-5.35-10.93"/>
  <path class="cls-2" d="M286.94,176.41c-3.62,1-5.09,3.77-5.29,7.14-.17,2.84,1.11,5.17,3.71,6.71,3.21,1.9,6.06.72,7.8-2.49,2.35-4.32.56-11.64-6-11.37"/>
  <path class="cls-2" d="M201.71,376.3c-5.18,3.03-6.36,9.13-2.44,12.93,1.53,1.48,3.19,2.77,5.57,2.02,2.77-.87,4.35-2.92,4.84-5.59.35-1.91.13-3.9-.78-5.81-1.46-3.05-3.87-3.87-6.96-3.55"/>
  <path class="cls-2" d="M201.71,90.29c-4.02,1.29-5.25,4.59-5.52,8.26-.22,3.1,1.22,5.72,3.75,7.56,1.76,1.28,4.81.82,6.46-.64,3.97-3.5,3.89-11.92-1.79-14.73-.85-.42-1.75-.53-2.68-.45"/>
  <polyline class="cls-2" points="251.58 322.61 257.17 339.71 248.29 345.24 240.18 326.29 241.8 324.29 264.18 318.1"/>
  <polyline class="cls-2" points="243.99 351.24 252.92 346.02 257.17 339.71"/>
  <polyline class="cls-2" points="235.17 342.8 235 353.59 230.15 360.09"/>
  <polyline class="cls-2" points="242.6 241.53 244.97 237.15 241.29 223.64"/>
  <polyline class="cls-2" points="263.11 227 266.19 220.99 248.34 206.3"/>
  <polygon class="cls-1" points="271.2 203.87 267.53 205.64 268.36 200.3 271.27 198.94 271.2 203.87"/>
  <line class="cls-1" x1="271.27" y1="198.94" x2="246.06" y2="192.03"/>
</svg>