<svg width="500" height="500" viewBox="0 0 500 500" fill="none" xmlns="http://www.w3.org/2000/svg">
<path d="M179.55 52.5928H207.694V362.364V416.331L219.952 421.531V448.647L209.923 442.704V421.531L196.547 416.331V395.626V380.753L179.55 377.212V357.381V116.527C193.316 114.393 196.483 100.219 196.483 96.8871C196.483 91.1028 187.5 82.9859 180.798 79.0945C179.55 66.7717 179.55 52.5928 179.55 52.5928Z" fill="#FFDA00" fill-opacity="0.7"/>
<path d="M312.848 52.5928H284.703V362.364V416.331L272.445 421.531V448.647L282.474 442.704V421.531L295.85 416.331V395.626V380.753L312.848 377.212V357.381V116.527C299.081 114.393 295.914 100.219 295.914 96.8871C295.914 91.1028 304.897 82.9859 311.599 79.0945C312.848 66.7717 312.848 52.5928 312.848 52.5928Z" fill="#FFDA00" fill-opacity="0.7"/>
<path d="M179.84 114.491C187.7 115.131 195.48 107.011 196.15 99.9211C196.73 93.8011 194.8 89.0811 190.52 85.1211C185.91 80.8611 180.21 79.6311 174.4 81.3311C166.58 83.6111 160.63 90.5711 161.43 99.2111C162.21 107.761 169.82 114.391 177.56 114.481C178.24 114.481 178.93 114.481 179.61 114.481" stroke="#2071B5" stroke-width="4.20561" stroke-linecap="round" stroke-linejoin="round"/>
<path d="M144.29 145.819C144.29 120.639 144.11 95.4688 144.4 70.2888C144.49 62.5088 148.8 56.7588 156.14 53.6588C159.64 52.1788 163.29 51.7988 167.07 51.7988C220.76 51.8388 274.46 51.7688 328.15 51.8888C337.48 51.9088 344.77 56.6788 347.26 67.0988C347.81 69.3988 347.96 71.7888 347.96 74.1588C347.98 93.5288 348.07 112.889 347.9 132.259C347.86 136.739 348.43 141.229 347.74 145.699" stroke="#2071B5" stroke-width="4.20561" stroke-linecap="round" stroke-linejoin="round"/>
<path d="M283.27 82.8196C259.58 82.8196 235.88 82.8396 212.19 82.8096C205.05 82.8096 197.91 83.0996 190.77 83.0496C190.46 83.0496 190.09 82.8996 189.86 83.2696" stroke="#2071B5" stroke-width="4.20561" stroke-linecap="round" stroke-linejoin="round"/>
<path d="M163.66 124.971C166.98 126.131 170.41 126.401 173.91 126.361C184.77 126.231 195.63 126.621 206.49 126.591C230.79 126.521 255.09 126.571 279.4 126.571C287.37 126.571 295.35 126.651 303.32 126.531C306.36 126.491 309.39 126.351 312.43 126.341" stroke="#2071B5" stroke-width="4.20561" stroke-linecap="round" stroke-linejoin="round"/>
<path d="M333.4 70.9814H144.75" stroke="#2071B5" stroke-width="4.20561" stroke-linecap="round" stroke-linejoin="round"/>
<path d="M189.86 112.439H302.41" stroke="#2071B5" stroke-width="4.20561" stroke-linecap="round" stroke-linejoin="round"/>
<path d="M347.98 168.489V311.799C347.98 318.179 348.14 324.559 347.93 330.939C347.75 336.629 346.13 341.819 341.86 346.019C339 348.839 335.66 350.629 332.04 352.159C326.15 354.649 320.04 356.349 313.79 357.569C307.46 358.799 301.08 359.709 294.66 360.369C288.59 360.999 282.52 361.379 276.43 361.769C262.69 362.659 248.94 362.699 235.19 362.549C229.5 362.489 223.79 362.359 218.11 362.069C211.35 361.729 204.57 361.469 197.83 360.749C185.06 359.389 172.32 357.739 160.24 353.019C153.73 350.479 148.32 346.669 145.63 339.829C144.21 336.209 144.21 332.419 144.08 328.659C143.9 323.499 144.08 318.329 144.06 313.169C144.04 307.019 144.06 300.869 144.06 294.719V254.619C144.06 226.819 144.06 199.029 144.06 171.229C144.06 170.309 144.16 169.389 143.84 168.499" stroke="#2071B5" stroke-width="4.20561" stroke-linecap="round" stroke-linejoin="round"/>
<path d="M144.98 138.19C190.39 137.67 235.81 138.11 281.22 137.97C282.05 137.97 282.93 137.73 283.73 138.19" stroke="#2071B5" stroke-width="4.20561" stroke-linecap="round" stroke-linejoin="round"/>
<path d="M246.36 292.661C248.99 293.221 251.68 292.931 254.34 293.041C260.25 293.281 266.19 293.061 272.11 293.331C280.47 293.721 288.83 294.041 297.18 294.841C303.99 295.491 310.73 296.491 317.44 297.721C322.57 298.661 327.63 300.021 332.47 302.031C332.97 302.241 333.4 302.101 334.08 302.301V311.791C334.08 312.631 333.92 313.501 334.11 314.291C335.4 319.831 331.83 322.141 327.7 324.091C322.74 326.441 317.52 328.131 312.19 329.241C307.93 330.131 303.56 330.641 299.22 331.121C294.44 331.651 289.64 331.951 284.87 332.521C284.5 332.561 284.11 332.521 283.73 332.521" stroke="#2071B5" stroke-width="4.20561" stroke-linecap="round" stroke-linejoin="round"/>
<path d="M295.12 389.939C297.84 390.579 300.27 391.759 302.42 393.569C305.87 396.469 305.87 400.099 302.42 402.929C297.86 406.669 292.46 408.569 286.92 410.219C279.1 412.559 271.06 413.729 262.99 414.459C254.06 415.269 245.07 415.299 236.12 414.909C229.11 414.599 222.07 414.069 215.16 412.679C207.01 411.039 198.87 409.309 191.89 404.319C190.43 403.269 189.22 402.119 188.27 400.639C187.04 398.709 187.07 396.799 188.51 395.179C191.01 392.359 194.09 390.539 197.84 389.929" stroke="#2071B5" stroke-width="4.20561" stroke-linecap="round" stroke-linejoin="round"/>
<path d="M280.31 421.381C280.82 427.601 280.6 433.841 280.43 440.061C280.37 442.251 278.6 443.931 276.47 445.131C272.81 447.181 268.84 448.011 264.82 448.711C258.79 449.771 252.69 450.211 246.6 450.231C241.59 450.251 236.56 449.891 231.55 449.241C226.81 448.631 222.13 448.011 217.66 446.221C213.77 444.661 211.68 441.751 211.75 437.551C211.84 432.161 211.44 426.761 211.96 421.371" stroke="#2071B5" stroke-width="4.20561" stroke-linecap="round" stroke-linejoin="round"/>
<path d="M198.97 379.919C198.63 384.999 198.38 390.089 198.55 395.179C198.63 397.579 200.68 398.559 202.39 399.739C207.27 403.109 212.91 404.349 218.57 405.399C224.43 406.479 230.37 406.949 236.33 407.369C242.35 407.799 248.35 407.829 254.33 407.619C263.47 407.309 272.58 406.369 281.45 403.859C285.01 402.849 288.33 401.469 291.49 399.539C293.75 398.169 294.75 396.429 294.69 393.799C294.58 389.019 294.66 384.229 294.66 379.449" stroke="#2071B5" stroke-width="4.20561" stroke-linecap="round" stroke-linejoin="round"/>
<path d="M156.37 351.67C155.52 355.85 155.31 360.17 156.5 364.16C157.71 368.2 161.44 370.17 165.24 371.74C170.91 374.09 176.81 375.57 182.8 376.7C187.78 377.64 192.76 378.57 197.82 379.07C202.3 379.51 206.77 380.02 211.26 380.42C217.18 380.95 223.12 380.99 229.03 381.37C240.66 382.11 252.28 381.65 263.89 381.62C267.2 381.62 270.64 381.76 273.9 381.18C277.03 380.63 280.22 381.45 283.26 380.37" stroke="#2071B5" stroke-width="4.20561" stroke-linecap="round" stroke-linejoin="round"/>
<path d="M312.89 114.489C320.62 115.069 328.6 107.549 329.6 100.829C330.72 93.2492 327.79 86.7392 321.35 82.9992C314.58 79.0692 305.93 80.6192 301.03 85.5392C296.26 90.3292 294.58 95.9792 296.54 102.399C298.58 109.079 303.34 113.039 310.16 114.469C310.96 114.639 311.83 114.489 312.66 114.489" stroke="#2071B5" stroke-width="4.20561" stroke-linecap="round" stroke-linejoin="round"/>
<path d="M333.17 62.0889C333.82 64.6389 333.62 67.2489 333.62 69.8389C333.62 92.5489 333.62 115.249 333.62 137.959" stroke="#2071B5" stroke-width="4.20561" stroke-linecap="round" stroke-linejoin="round"/>
<path d="M158.65 62.5498C157.98 64.7798 157.7 67.0398 157.71 69.3898C157.76 92.1698 157.74 114.96 157.74 137.74" stroke="#2071B5" stroke-width="4.20561" stroke-linecap="round" stroke-linejoin="round"/>
<path d="M336.81 350.531C337.22 354.631 337.31 358.761 336.75 362.821C336.35 365.711 334.4 367.921 332 369.391C327.71 372.001 323.01 373.671 318.14 374.951C312.35 376.471 306.43 377.331 300.57 378.471C298.8 378.811 296.92 378.881 295.12 379.241" stroke="#2071B5" stroke-width="4.20561" stroke-linecap="round" stroke-linejoin="round"/>
<path d="M333.4 146.16H287.38C240.6 146.16 193.82 146.16 147.03 146.16C144.52 146.16 141.98 145.76 139.51 146.61C136.58 147.62 135.21 149.47 135.19 152.54C135.17 155.2 135.19 157.86 135.19 160.51C135.19 165.43 137.15 167.61 142.03 168.02C143.54 168.15 145.07 168.03 146.59 168.03C212.81 168.03 279.04 168.03 345.26 168.03C347.55 168.03 349.82 168.34 352.11 167.61C355.48 166.54 357.08 164.65 357.11 161.2C357.13 158.31 357.01 155.42 357.14 152.54C357.28 149.55 354.63 146.2 350.73 146.11C345.26 145.98 339.79 146.57 334.32 145.93" stroke="#2071B5" stroke-width="4.20561" stroke-linecap="round" stroke-linejoin="round"/>
<path d="M326.79 185.581C323.27 185.461 319.81 184.751 316.32 184.371C314.35 184.151 312.34 184.031 310.38 183.871C304.1 183.361 297.79 182.981 291.48 182.841C276.67 182.501 261.86 182.451 247.05 182.321C237.02 182.231 227 182.361 216.98 182.481C208.25 182.591 199.5 182.761 190.78 183.331C185.08 183.711 179.37 184.111 173.7 184.721C169.59 185.161 165.51 186.011 161.39 186.481" stroke="#2071B5" stroke-width="4.20561" stroke-linecap="round" stroke-linejoin="round"/>
<path d="M312.21 304.511C308.97 304.281 305.85 303.311 302.64 302.911C297.79 302.311 292.93 301.711 288.06 301.311C280.78 300.711 273.48 300.301 266.19 300.011C259.52 299.741 252.83 299.951 246.14 299.951" stroke="#2071B5" stroke-width="4.20561" stroke-linecap="round" stroke-linejoin="round"/>
<path d="M333.62 154.589H135.41" stroke="#2071B5" stroke-width="4.20561" stroke-linecap="round" stroke-linejoin="round"/>
<path d="M294.66 371.49C290.79 371.86 286.92 372.33 283.04 372.62C277.65 373.03 272.26 373.31 266.86 373.53C253.88 374.06 240.88 373.91 227.9 373.68C217.48 373.49 207.05 372.95 196.68 371.56C189.63 370.62 182.62 369.6 175.73 367.85C174.59 367.56 173.56 366.83 172.31 366.93" stroke="#2071B5" stroke-width="4.20561" stroke-linecap="round" stroke-linejoin="round"/>
<path d="M283.27 332.53C277.95 332.65 272.62 332.79 267.33 333.07C253.05 333.84 238.77 333.34 224.49 333.35C218.58 333.35 212.62 332.96 206.73 332.43C199.05 331.74 191.33 331.21 183.7 329.86C179.88 329.19 176.11 328.07 172.3 327.69C169.84 327.44 167.43 327.22 165.02 326.63C162.53 326.02 160.19 325 157.35 324.29C158.36 323.19 156.83 321.62 158.61 320.62C159.2 320.29 158.87 319.17 158.87 318.4C158.87 299.34 158.87 280.28 158.87 261.21C158.87 242.14 158.87 221.42 158.87 201.52C158.87 200.87 159.07 200.18 158.41 199.7" stroke="#2071B5" stroke-width="4.20561" stroke-linecap="round" stroke-linejoin="round"/>
<path d="M355.04 163.249C282.89 163.249 210.75 163.249 138.6 163.249C137.76 163.249 136.9 163.089 136.09 163.469" stroke="#2071B5" stroke-width="4.20561" stroke-linecap="round" stroke-linejoin="round"/>
<path d="M335.9 193.319C331.67 192.879 327.61 191.449 323.37 191.029C320.17 190.719 316.99 190.269 313.8 189.879C308.35 189.209 302.85 189.119 297.39 188.599C293.54 188.229 289.64 188.259 285.77 188.149C265.5 187.599 245.22 187.429 224.94 187.659C219.63 187.719 214.31 188.119 208.99 188.069" stroke="#2071B5" stroke-width="4.20561" stroke-linecap="round" stroke-linejoin="round"/>
<path d="M268.24 201.3C267.51 200.93 266.72 201.08 265.96 201.08C258.59 201.08 251.23 201.04 243.86 201.08C234.29 201.13 224.72 200.77 215.15 200.56C204.28 200.32 193.41 199.71 182.57 198.76C178.54 198.41 174.53 197.75 170.49 197.43" stroke="#2071B5" stroke-width="4.20561" stroke-linecap="round" stroke-linejoin="round"/>
<path d="M187.35 399.74C185.65 400.44 186.49 402.06 186.29 403.17C185.46 407.87 187.3 411.42 191.45 413.86C197.32 417.31 203.79 419.02 210.36 420.48C216.38 421.82 222.49 422.55 228.6 423.12C233.58 423.58 238.6 423.93 243.63 423.68C244.38 423.64 245.19 423.4 245.91 423.89" stroke="#2071B5" stroke-width="4.20561" stroke-linecap="round" stroke-linejoin="round"/>
<path d="M333.85 187.63C334.14 203.35 334.07 219.07 334.08 234.79" stroke="#2071B5" stroke-width="4.20561" stroke-linecap="round" stroke-linejoin="round"/>
<path d="M275.98 252.79C275.72 254.97 273.93 256.23 272.73 257.75C264.8 267.83 256.93 277.95 249.09 288.09C243.1 295.84 237 303.51 231.11 311.35C228.66 314.62 227.68 315.27 227.68 315.27" stroke="#2071B5" stroke-width="4.20561" stroke-linecap="round" stroke-linejoin="round"/>
<path d="M305.14 400.199C307.06 404.309 305.74 410.069 302 412.789C298.21 415.549 293.96 417.129 289.64 418.619C286.67 419.639 283.54 420.559 280.51 420.969C277.34 421.389 274.17 422.009 270.97 422.309C262.71 423.079 254.45 423.959 246.14 423.669" stroke="#2071B5" stroke-width="4.20561" stroke-linecap="round" stroke-linejoin="round"/>
<path d="M245.91 293.799C246.01 299.419 246.11 305.029 246.02 310.659C245.95 314.819 246.09 319.009 246.12 323.189C246.18 330.859 246.35 338.539 246.06 346.199C245.86 351.609 246.3 356.989 246.13 362.379" stroke="#2071B5" stroke-width="4.20561" stroke-linecap="round" stroke-linejoin="round"/>
<path d="M283.27 285.371C273.48 285.831 263.68 285.971 253.88 286.261C253.13 286.281 252.32 286.531 251.6 286.051" stroke="#2071B5" stroke-width="4.20561" stroke-linecap="round" stroke-linejoin="round"/>
<path d="M266.68 205.22C263.86 207.52 262.079 210.79 259.829 213.62C255.629 218.92 251.46 224.24 247.29 229.65C245.72 229.01 244.18 228.8 242.48 229.04C240.62 229.3 238.69 229.1 236.79 229.1C228.05 229.09 219.32 229.25 210.59 229.53C210.03 229.55 209.54 229.82 209 229.78" stroke="#2071B5" stroke-width="4.20561" stroke-linecap="round" stroke-linejoin="round"/>
<path d="M208.77 257.801C208.77 302.001 208.78 346.201 208.75 390.401C208.75 394.351 209.09 398.311 208.54 402.251" stroke="#2071B5" stroke-width="4.20561" stroke-linecap="round" stroke-linejoin="round"/>
<path d="M283.73 301.319C283.24 301.789 283.52 302.389 283.52 302.909C283.5 321.519 283.5 340.119 283.51 358.729C283.51 359.419 283.39 360.129 283.73 360.779" stroke="#2071B5" stroke-width="4.20561" stroke-linecap="round" stroke-linejoin="round"/>
<path d="M239.3 238.21C236.88 237.71 234.42 237.85 232.01 238.04C227.91 238.37 223.8 238.15 219.7 238.36C216.22 238.54 212.72 238.77 209.22 238.66" stroke="#2071B5" stroke-width="4.20561" stroke-linecap="round" stroke-linejoin="round"/>
<path d="M283.5 52.0703C283.5 71.3603 283.5 90.6503 283.5 109.94C283.5 110.78 283.66 111.64 283.28 112.45" stroke="#2071B5" stroke-width="4.20561" stroke-linecap="round" stroke-linejoin="round"/>
<path d="M333.85 278.081C331.05 278.081 328.53 279.301 325.88 279.941C318.29 281.751 310.6 282.931 302.86 283.771C297.25 284.381 291.63 284.841 286 285.121C285.23 285.161 284.5 285.471 283.72 285.371" stroke="#2071B5" stroke-width="4.20561" stroke-linecap="round" stroke-linejoin="round"/>
<path d="M208.77 83.2793V137.729" stroke="#2071B5" stroke-width="4.20561" stroke-linecap="round" stroke-linejoin="round"/>
<path d="M208.77 238.891C199.46 238.911 190.21 239.921 180.97 240.941C176.53 241.431 172.17 242.381 167.76 242.991" stroke="#2071B5" stroke-width="4.20561" stroke-linecap="round" stroke-linejoin="round"/>
<path d="M325.88 242.991C322.94 242.741 320.13 241.791 317.22 241.411C310.41 240.521 303.58 239.771 296.72 239.301C283.74 238.421 270.76 238.081 257.76 238.001C257.4 238.001 257.18 237.731 256.85 237.751" stroke="#2071B5" stroke-width="4.20561" stroke-linecap="round" stroke-linejoin="round"/>
<path d="M312.44 254.381C308.45 255.171 304.41 255.541 300.37 256.011C294.83 256.651 289.3 257.221 283.73 257.571" stroke="#2071B5" stroke-width="4.20561" stroke-linecap="round" stroke-linejoin="round"/>
<path d="M208.54 293.571C204.71 294.351 200.79 294.251 196.91 294.641C191.19 295.211 185.52 296.061 179.83 296.761" stroke="#2071B5" stroke-width="4.20561" stroke-linecap="round" stroke-linejoin="round"/>
<path d="M335.45 235.24C332.29 234.77 329.27 233.65 326.11 233.18C321.11 232.43 316.11 231.69 311.08 231.1C302.29 230.07 293.45 229.99 284.65 229.32C284.05 229.27 283.44 229.3 282.83 229.32C275.69 229.45 268.55 228.92 261.41 229.1C260.93 229.11 260.48 229.03 260.04 228.86" stroke="#2071B5" stroke-width="4.20561" stroke-linecap="round" stroke-linejoin="round"/>
<path d="M208.54 188.079C201.48 188.499 194.4 188.569 187.36 189.099C184.94 189.279 182.46 189.129 180.06 189.679" stroke="#2071B5" stroke-width="4.20561" stroke-linecap="round" stroke-linejoin="round"/>
<path d="M208.54 229.779C199.78 229.699 191.05 230.349 182.34 231.179C175.05 231.869 167.79 232.849 160.68 234.739C160.19 234.869 159.92 235.489 159.33 235.249" stroke="#2071B5" stroke-width="4.20561" stroke-linecap="round" stroke-linejoin="round"/>
<path d="M312.21 198.79C306.73 198.96 301.3 199.82 295.81 199.96C291.78 200.06 287.77 200.6 283.73 200.61" stroke="#2071B5" stroke-width="4.20561" stroke-linecap="round" stroke-linejoin="round"/>
<path d="M208.54 300.858C198.99 301.768 189.45 302.708 180.06 304.728" stroke="#2071B5" stroke-width="4.20561" stroke-linecap="round" stroke-linejoin="round"/>
<path d="M223.58 258.261C220.57 257.631 217.49 257.711 214.47 257.641C203.69 257.411 193.03 256.081 182.35 254.831C179.6 254.511 176.95 253.501 174.15 253.471" stroke="#2071B5" stroke-width="4.20561" stroke-linecap="round" stroke-linejoin="round"/>
<path d="M283.5 146.16V293.57" stroke="#2071B5" stroke-width="4.20561" stroke-linecap="round" stroke-linejoin="round"/>
<path d="M245.679 393.59C242.189 392.9 238.669 393.49 235.209 393.71C232.709 393.87 230.189 393.81 227.669 394.12C224.279 394.52 220.869 395.04 217.439 395.19" stroke="#2071B5" stroke-width="4.20561" stroke-linecap="round" stroke-linejoin="round"/>
<path d="M312.44 329.8C312.81 330.53 312.66 331.32 312.66 332.08C312.66 339.67 312.66 347.27 312.67 354.86C312.67 355.62 312.53 356.41 312.89 357.14" stroke="#2071B5" stroke-width="4.20561" stroke-linecap="round" stroke-linejoin="round"/>
<path d="M312.66 146.391C312.66 190.891 312.66 235.401 312.66 279.901C312.66 280.741 312.5 281.601 312.88 282.411" stroke="#2071B5" stroke-width="4.20561" stroke-linecap="round" stroke-linejoin="round"/>
<path d="M271.65 477.429C263.3 477.279 254.94 477.329 246.59 477.319C238.39 477.319 230.19 477.299 221.98 477.409C221.2 477.419 220.48 477.759 219.7 477.659" stroke="#2071B5" stroke-width="4.20561" stroke-linecap="round" stroke-linejoin="round"/>
<path d="M246.36 450.549V477.089" stroke="#2071B5" stroke-width="4.20561" stroke-linecap="round" stroke-linejoin="round"/>
<path d="M179.84 203.801C179.47 211.011 179.43 218.231 179.86 225.441C179.98 227.421 179.17 229.391 179.84 231.361" stroke="#2071B5" stroke-width="4.20561" stroke-linecap="round" stroke-linejoin="round"/>
<path d="M242.94 266.629C234.82 266.819 226.86 268.509 218.8 269.249C217.95 269.329 217.25 269.319 216.52 268.969" stroke="#2071B5" stroke-width="4.20561" stroke-linecap="round" stroke-linejoin="round"/>
<path d="M263 485.86C260.95 485.34 258.9 485.9 256.85 485.88C249.1 485.81 241.36 485.94 233.61 485.64C232.77 485.61 231.92 485.55 231.1 485.86" stroke="#2071B5" stroke-width="4.20561" stroke-linecap="round" stroke-linejoin="round"/>
<path d="M179.15 88.9805C173.93 88.3005 169.88 94.2305 170.25 98.0905C170.8 103.87 175.33 107.33 180.28 106.69C184.08 106.2 188.35 102.88 187.84 96.4905C187.54 92.7105 183.66 89.0205 179.61 88.9705" stroke="#2071B5" stroke-width="4.20561" stroke-linecap="round" stroke-linejoin="round"/>
<path d="M312.93 106.761C317.46 107.051 321.03 103.801 321.72 99.2209C322.45 94.4009 318.94 89.4309 314.94 88.9709C307.81 88.1509 304.73 91.9909 304.09 97.1909C303.53 101.731 307.55 106.561 312.66 106.761" stroke="#2071B5" stroke-width="4.20561" stroke-linecap="round" stroke-linejoin="round"/>
<path d="M275.77 252.489C269.41 253.159 257.05 252.899 250.69 253.699" stroke="#2071B5" stroke-width="4.20561" stroke-linecap="round" stroke-linejoin="round"/>
<path d="M234.06 293.11C225.7 292.86 217.36 293.63 209 293.57" stroke="#2071B5" stroke-width="4.20561" stroke-linecap="round" stroke-linejoin="round"/>
<path d="M334.08 253.24V302.22" stroke="#2071B5" stroke-width="4.20561" stroke-linecap="round" stroke-linejoin="round"/>
<path d="M267.55 205.169C268.2 206.559 267.51 207.839 267.06 209.029C262.63 220.719 258.24 232.419 253.83 244.109C252.82 246.779 252 249.539 250.73 252.119C250.54 252.499 250.05 253.159 250.69 253.689" stroke="#2071B5" stroke-width="4.20561" stroke-linecap="round" stroke-linejoin="round"/>
<path d="M209 200.61C208.52 201.33 208.79 202.13 208.79 202.89C208.77 220.28 208.78 237.67 208.77 255.06C208.77 255.82 208.91 256.61 208.55 257.34" stroke="#2071B5" stroke-width="4.20561" stroke-linecap="round" stroke-linejoin="round"/>
<path d="M247.05 393.36C248.62 393.75 250.25 393.76 251.83 393.78C257.19 393.84 262.5 394.28 267.78 395.17C268.59 395.31 269.45 395.19 270.28 395.19" stroke="#2071B5" stroke-width="4.20561" stroke-linecap="round" stroke-linejoin="round"/>
<path d="M231.33 300.179C227.99 299.529 224.65 300.259 221.31 300.259C217.21 300.259 213.11 300.619 209.01 300.869" stroke="#2071B5" stroke-width="4.20561" stroke-linecap="round" stroke-linejoin="round"/>
<path d="M179.61 189.909C172.37 190.289 165.19 191.119 158.22 193.179" stroke="#2071B5" stroke-width="4.20561" stroke-linecap="round" stroke-linejoin="round"/>
<path d="M266.18 432.55C259.73 432.93 253.3 433.58 246.81 433.52C240.8 433.47 234.8 433.33 228.82 432.92C227.31 432.82 225.79 432.57 224.26 432.54" stroke="#2071B5" stroke-width="4.20561" stroke-linecap="round" stroke-linejoin="round"/>
<path d="M179.61 241.4C179.61 252.26 179.47 263.12 179.66 273.98C179.78 280.97 179.7 287.96 179.7 294.94C179.7 302.54 180.17 310.13 179.83 317.72C179.4 327.29 179.76 336.86 179.62 346.43C179.58 349.24 179.65 352.05 179.84 354.86C179.91 355.81 179.79 356.72 179.38 357.59" stroke="#2071B5" stroke-width="4.20561" stroke-linecap="round" stroke-linejoin="round"/>
<path d="M246.82 229.779C244.46 233.629 241.34 236.909 238.6 240.469C232.79 247.999 226.53 255.169 220.8 262.779C219.26 264.819 217.36 266.589 216.3 268.969" stroke="#2071B5" stroke-width="4.20561" stroke-linecap="round" stroke-linejoin="round"/>
<path d="M335.9 252.56C333.76 252.41 332.1 253.77 330.2 254.38C324.83 256.12 319.39 257.62 313.79 258.46C313.38 258.52 313.32 259.05 312.88 258.94" stroke="#2071B5" stroke-width="4.20561" stroke-linecap="round" stroke-linejoin="round"/>
<path d="M246.14 182.619C246.14 195.379 246.14 208.139 246.14 220.899C246.14 223.629 245.6 226.369 246.14 229.099" stroke="#2071B5" stroke-width="4.20561" stroke-linecap="round" stroke-linejoin="round"/>
<path d="M179.38 296.761C175.39 297.841 171.28 298.341 167.31 299.501C164.61 300.281 161.92 301.101 159.34 302.231" stroke="#2071B5" stroke-width="4.20561" stroke-linecap="round" stroke-linejoin="round"/>
<path d="M159.33 277.62C164.76 279.01 170.18 280.36 175.72 281.35C180.57 282.22 185.44 282.93 190.32 283.49C196.83 284.24 203.36 284.82 209.91 285.17C214.01 285.39 218.11 285.6 222.22 285.78C226.09 285.95 229.97 285.78 233.84 286.23C234.79 286.34 235.84 286.56 236.8 286.04" stroke="#2071B5" stroke-width="4.20561" stroke-linecap="round" stroke-linejoin="round"/>
<path d="M159.33 253.471C164.52 255.691 170.03 256.831 175.52 257.971C176.55 258.191 177.57 258.811 178.7 258.481" stroke="#2071B5" stroke-width="4.20561" stroke-linecap="round" stroke-linejoin="round"/>
<path d="M157.74 146.391V193.101" stroke="#2071B5" stroke-width="4.20561" stroke-linecap="round" stroke-linejoin="round"/>
<path d="M302.64 83.2798C302.28 83.0098 302.11 82.5298 301.5 82.5798C295.58 83.1198 289.65 82.6798 283.73 82.8198" stroke="#2071B5" stroke-width="4.20561" stroke-linecap="round" stroke-linejoin="round"/>
<path d="M242.95 266.909C243.32 269.639 241.47 271.729 240.87 274.189C239.9 278.159 237.92 281.809 237.03 285.819" stroke="#2071B5" stroke-width="4.20561" stroke-linecap="round" stroke-linejoin="round"/>
<path d="M179.61 52.0703V79.4103" stroke="#2071B5" stroke-width="4.20561" stroke-linecap="round" stroke-linejoin="round"/>
<path d="M313.12 52.0703V79.4103" stroke="#2071B5" stroke-width="4.20561" stroke-linecap="round" stroke-linejoin="round"/>
<path d="M333.85 138.421C334 144.571 333.59 150.721 333.59 156.871C333.59 166.141 334.03 175.401 333.83 184.671C333.81 185.431 334.1 186.231 333.62 186.951" stroke="#2071B5" stroke-width="4.20561" stroke-linecap="round" stroke-linejoin="round"/>
<path d="M208.77 52.0703C208.77 61.5603 208.77 71.0603 208.77 80.5503C208.77 81.3103 208.91 82.1003 208.55 82.8303" stroke="#2071B5" stroke-width="4.20561" stroke-linecap="round" stroke-linejoin="round"/>
<path d="M180.06 258.939C183.69 259.629 187.36 260.169 191.01 260.659C193.24 260.959 195.52 261.539 197.83 261.219" stroke="#2071B5" stroke-width="4.20561" stroke-linecap="round" stroke-linejoin="round"/>
<path d="M312.89 297.22C312.4 299.94 312.7 302.69 312.68 305.42C312.63 312.48 312.66 319.55 312.67 326.61C312.67 327.22 312.58 327.86 312.9 328.43" stroke="#2071B5" stroke-width="4.20561" stroke-linecap="round" stroke-linejoin="round"/>
<path d="M312.21 368.301C307.72 369.091 303.28 370.121 298.78 370.861C297.57 371.061 296.23 370.651 295.13 371.491" stroke="#2071B5" stroke-width="4.20561" stroke-linecap="round" stroke-linejoin="round"/>
<path d="M255.7 494.969C252.44 494.479 249.17 494.779 245.9 494.769C243.55 494.769 241.18 494.439 238.84 494.969" stroke="#2071B5" stroke-width="4.20561" stroke-linecap="round" stroke-linejoin="round"/>
<path d="M263.45 206.08H247.05" stroke="#2071B5" stroke-width="4.20561" stroke-linecap="round" stroke-linejoin="round"/>
<path d="M245.68 206.08H229.73" stroke="#2071B5" stroke-width="4.20561" stroke-linecap="round" stroke-linejoin="round"/>
<path d="M227.45 205.63H211.5" stroke="#2071B5" stroke-width="4.20561" stroke-linecap="round" stroke-linejoin="round"/>
<path d="M179.61 146.391V183.981" stroke="#2071B5" stroke-width="4.20561" stroke-linecap="round" stroke-linejoin="round"/>
<path d="M262.54 369.67H247.05" stroke="#2071B5" stroke-width="4.20561" stroke-linecap="round" stroke-linejoin="round"/>
<path d="M261.63 437.101C256.78 437.501 251.88 437.291 247.05 438.011" stroke="#2071B5" stroke-width="4.20561" stroke-linecap="round" stroke-linejoin="round"/>
<path d="M236.569 286.51C233.699 295.05 230.749 303.56 227.659 312.02C227.289 313.03 226.969 313.96 227.459 314.99" stroke="#2071B5" stroke-width="4.20561" stroke-linecap="round" stroke-linejoin="round"/>
<path d="M208.77 146.391C208.77 157.631 208.77 168.871 208.77 180.111C208.77 180.951 208.61 181.811 208.99 182.621" stroke="#2071B5" stroke-width="4.20561" stroke-linecap="round" stroke-linejoin="round"/>
<path d="M242.95 437.561C238.23 437.821 233.53 437.241 228.82 437.101" stroke="#2071B5" stroke-width="4.20561" stroke-linecap="round" stroke-linejoin="round"/>
<path d="M283.27 262.579C279.19 263.159 275.08 263.289 270.97 263.489C270.36 263.519 269.72 263.589 269.15 263.269" stroke="#2071B5" stroke-width="4.20561" stroke-linecap="round" stroke-linejoin="round"/>
<path d="M334.08 154.36C337.72 154.88 341.37 154.5 345.02 154.57C348.97 154.64 352.92 154.59 356.87 154.59" stroke="#2071B5" stroke-width="4.20561" stroke-linecap="round" stroke-linejoin="round"/>
<path d="M246.14 146.391C246.14 157.481 246.14 168.571 246.14 179.651C246.14 180.491 246.3 181.351 245.92 182.161" stroke="#2071B5" stroke-width="4.20561" stroke-linecap="round" stroke-linejoin="round"/>
<path d="M268.69 205.399C272.4 205.899 276.13 205.499 279.85 205.619C280.76 205.649 281.67 205.619 282.58 205.619" stroke="#2071B5" stroke-width="4.20561" stroke-linecap="round" stroke-linejoin="round"/>
<path d="M312.66 282.861V296.761" stroke="#2071B5" stroke-width="4.20561" stroke-linecap="round" stroke-linejoin="round"/>
<path d="M347.75 82.5996H323.6" stroke="#2071B5" stroke-width="4.20561" stroke-linecap="round" stroke-linejoin="round"/>
<path d="M347.29 70.9809C343.11 70.8809 338.93 71.2309 334.76 70.7409C334.39 70.7009 334.18 71.0109 333.85 70.9809" stroke="#2071B5" stroke-width="4.20561" stroke-linecap="round" stroke-linejoin="round"/>
<path d="M312.44 258.939C308.95 259.549 305.42 259.929 301.95 260.729C301.01 260.949 299.98 260.759 299 260.759" stroke="#2071B5" stroke-width="4.20561" stroke-linecap="round" stroke-linejoin="round"/>
<path d="M283.5 112.9V137.96" stroke="#2071B5" stroke-width="4.20561" stroke-linecap="round" stroke-linejoin="round"/>
<path d="M168.22 82.5996H144.53" stroke="#2071B5" stroke-width="4.20561" stroke-linecap="round" stroke-linejoin="round"/>
<path d="M270.29 200.61C273.32 201.1 276.37 200.88 279.4 200.76C280.68 200.71 281.99 200.74 283.28 200.61" stroke="#2071B5" stroke-width="4.20561" stroke-linecap="round" stroke-linejoin="round"/>
<path d="M325.88 125.881C322.2 126.781 318.42 125.971 314.72 126.561C314.09 126.661 313.5 126.421 312.9 126.331" stroke="#2071B5" stroke-width="4.20561" stroke-linecap="round" stroke-linejoin="round"/>
<path d="M179.61 304.959C175.61 305.549 171.75 306.659 167.99 308.139C167.79 308.219 167.54 308.149 167.31 308.149" stroke="#2071B5" stroke-width="4.20561" stroke-linecap="round" stroke-linejoin="round"/>
<path d="M313.12 304.959C317.37 305.439 321.33 307.039 325.42 308.149" stroke="#2071B5" stroke-width="4.20561" stroke-linecap="round" stroke-linejoin="round"/>
<path d="M324.97 251.649C320.96 252.639 316.95 253.599 312.89 254.379" stroke="#2071B5" stroke-width="4.20561" stroke-linecap="round" stroke-linejoin="round"/>
<path d="M208.77 183.069V200.159" stroke="#2071B5" stroke-width="4.20561" stroke-linecap="round" stroke-linejoin="round"/>
<path d="M334.08 235.471V252.561" stroke="#2071B5" stroke-width="4.20561" stroke-linecap="round" stroke-linejoin="round"/>
<path d="M179.61 114.721V137.731" stroke="#2071B5" stroke-width="4.20561" stroke-linecap="round" stroke-linejoin="round"/>
<path d="M312.66 114.721L312.932 146.391" stroke="#2071B5" stroke-width="4.20561" stroke-linecap="round" stroke-linejoin="round"/>
<path d="M219.71 435.511V446.671" stroke="#2071B5" stroke-width="4.20561" stroke-linecap="round" stroke-linejoin="round"/>
<path d="M257.98 327.29H247.04" stroke="#2071B5" stroke-width="4.20561" stroke-linecap="round" stroke-linejoin="round"/>
<path d="M324.05 196.969C321.45 197.239 318.88 197.699 316.31 198.129C315.24 198.309 314.18 198.319 313.12 198.329" stroke="#2071B5" stroke-width="4.20561" stroke-linecap="round" stroke-linejoin="round"/>
<path d="M246.14 415.23C245.91 426.85 245.98 438.47 246.14 450.09" stroke="#2071B5" stroke-width="4.20561" stroke-linecap="round" stroke-linejoin="round"/>
<path d="M333.85 324.33C333.85 327.9 333.92 331.47 333.62 335.04" stroke="#2071B5" stroke-width="4.20561" stroke-linecap="round" stroke-linejoin="round"/>
<path d="M294.89 360.55C294.89 366.25 294.9 371.94 294.87 377.64C294.87 378.24 295.14 378.91 294.66 379.46" stroke="#2071B5" stroke-width="4.20561" stroke-linecap="round" stroke-linejoin="round"/>
<path d="M294.44 379.691C292.21 378.891 290.04 380.011 287.84 380.061C286.53 380.091 285.1 380.24 283.74 380.37" stroke="#2071B5" stroke-width="4.20561" stroke-linecap="round" stroke-linejoin="round"/>
<path d="M323.6 364.65C320.12 365.76 316.79 367.34 313.12 367.84" stroke="#2071B5" stroke-width="4.20561" stroke-linecap="round" stroke-linejoin="round"/>
<path d="M283.27 372.859C283.8 377.939 283.36 383.039 283.49 388.119C283.51 389.029 283.49 389.939 283.49 390.849" stroke="#2071B5" stroke-width="4.20561" stroke-linecap="round" stroke-linejoin="round"/>
<path d="M283.27 362.149C283.77 365.559 283.37 368.989 283.5 372.399" stroke="#2071B5" stroke-width="4.20561" stroke-linecap="round" stroke-linejoin="round"/>
<path d="M283.27 257.57C279.94 257.87 276.6 258.12 273.25 258.03" stroke="#2071B5" stroke-width="4.20561" stroke-linecap="round" stroke-linejoin="round"/>
<path d="M271.43 423.89V445.31" stroke="#2071B5" stroke-width="4.20561" stroke-linecap="round" stroke-linejoin="round"/>
<path d="M232.47 326.829H222.9" stroke="#2071B5" stroke-width="4.20561" stroke-linecap="round" stroke-linejoin="round"/>
<path d="M322.23 320.449C319.04 320.879 316.07 322.259 312.89 322.729" stroke="#2071B5" stroke-width="4.20561" stroke-linecap="round" stroke-linejoin="round"/>
<path d="M312.44 358.501C312.93 361.531 312.59 364.581 312.65 367.611C312.71 370.421 312.66 373.231 312.66 376.041" stroke="#2071B5" stroke-width="4.20561" stroke-linecap="round" stroke-linejoin="round"/>
<path d="M179.61 231.831C179.74 234.871 179.35 237.921 179.84 240.941" stroke="#2071B5" stroke-width="4.20561" stroke-linecap="round" stroke-linejoin="round"/>
<path d="M256.16 386.529H247.05" stroke="#2071B5" stroke-width="4.20561" stroke-linecap="round" stroke-linejoin="round"/>
<path d="M157.74 324.78C157.04 327.74 157.95 330.7 157.74 333.67" stroke="#2071B5" stroke-width="4.20561" stroke-linecap="round" stroke-linejoin="round"/>
<path d="M219.93 422.749C219.4 426.769 219.87 430.799 219.71 434.829C219.68 435.549 220.28 435.199 220.61 435.289" stroke="#2071B5" stroke-width="4.20561" stroke-linecap="round" stroke-linejoin="round"/>
<path d="M294.66 397.92C295.15 400.03 294.77 402.17 294.89 404.3C294.94 405.14 294.73 406 295.12 406.81" stroke="#2071B5" stroke-width="4.20561" stroke-linecap="round" stroke-linejoin="round"/>
<path d="M246.14 381.971V407.491" stroke="#2071B5" stroke-width="4.20561" stroke-linecap="round" stroke-linejoin="round"/>
<path d="M329.98 201.07C327.2 201 324.58 202.27 321.78 201.98" stroke="#2071B5" stroke-width="4.20561" stroke-linecap="round" stroke-linejoin="round"/>
<path d="M209 403.61C208.49 407.63 208.92 411.66 208.77 415.68C208.72 416.97 208.99 418.28 208.55 419.55" stroke="#2071B5" stroke-width="4.20561" stroke-linecap="round" stroke-linejoin="round"/>
<path d="M283.27 411.819C283.76 414.469 283.37 417.139 283.5 419.789" stroke="#2071B5" stroke-width="4.20561" stroke-linecap="round" stroke-linejoin="round"/>
<path d="M294.66 408.171C295.13 409.901 294.78 411.661 294.89 413.411C294.94 414.251 294.73 415.111 295.12 415.921" stroke="#2071B5" stroke-width="4.20561" stroke-linecap="round" stroke-linejoin="round"/>
<path d="M291.25 262.129C288.72 261.809 286.25 262.689 283.73 262.589" stroke="#2071B5" stroke-width="4.20561" stroke-linecap="round" stroke-linejoin="round"/>
<path d="M208.54 205.169H201.02" stroke="#2071B5" stroke-width="4.20561" stroke-linecap="round" stroke-linejoin="round"/>
<path d="M144.07 155.499V163.019" stroke="#2071B5" stroke-width="4.20561" stroke-linecap="round" stroke-linejoin="round"/>
<path d="M283.5 391.31C283.36 393.66 283.8 396.03 283.27 398.37" stroke="#2071B5" stroke-width="4.20561" stroke-linecap="round" stroke-linejoin="round"/>
<path d="M283.73 294.029C283.22 296.289 283.64 298.589 283.5 300.859" stroke="#2071B5" stroke-width="4.20561" stroke-linecap="round" stroke-linejoin="round"/>
<path d="M283.27 404.071C283.9 406.161 283.09 408.361 283.73 410.451" stroke="#2071B5" stroke-width="4.20561" stroke-linecap="round" stroke-linejoin="round"/>
<path d="M179.61 184.44V203.35" stroke="#2071B5" stroke-width="4.20561" stroke-linecap="round" stroke-linejoin="round"/>
<path d="M246.14 373.989C246.09 376.039 246.14 378.089 246.14 380.139" stroke="#2071B5" stroke-width="4.20561" stroke-linecap="round" stroke-linejoin="round"/>
<path d="M179.84 369.209C179.19 371.219 180.04 373.349 179.38 375.359" stroke="#2071B5" stroke-width="4.20561" stroke-linecap="round" stroke-linejoin="round"/>
<path d="M179.61 106.97V113.12" stroke="#2071B5" stroke-width="4.20561" stroke-linecap="round" stroke-linejoin="round"/>
<path d="M246.14 409.31C245.64 411.13 246.11 412.96 246.14 414.78" stroke="#2071B5" stroke-width="4.20561" stroke-linecap="round" stroke-linejoin="round"/>
<path d="M179.84 358.96C179.31 362.21 179.86 365.5 179.61 368.76" stroke="#2071B5" stroke-width="4.20561" stroke-linecap="round" stroke-linejoin="round"/>
<path d="M198.495 398.369C198.905 403.767 198.587 409.309 198.688 414.779" stroke="#2071B5" stroke-width="4.20561" stroke-linecap="round" stroke-linejoin="round"/>
<path d="M245.68 299.721C244.16 299.701 242.64 299.751 241.12 299.721" stroke="#2071B5" stroke-width="4.20561" stroke-linecap="round" stroke-linejoin="round"/>
<path d="M282.59 398.369C283.27 398.299 283.53 398.529 283.53 399.279C283.52 400.419 283.28 401.579 283.73 402.699" stroke="#2071B5" stroke-width="4.20561" stroke-linecap="round" stroke-linejoin="round"/>
<path d="M246.14 362.829V373.539" stroke="#2071B5" stroke-width="4.20561" stroke-linecap="round" stroke-linejoin="round"/>
<path d="M157.05 235.7C155.81 235.63 154.84 236.57 153.63 236.61" stroke="#2071B5" stroke-width="4.20561" stroke-linecap="round" stroke-linejoin="round"/>
<path d="M209.23 262.579H211.96" stroke="#2071B5" stroke-width="4.20561" stroke-linecap="round" stroke-linejoin="round"/>
<path d="M181.43 203.351C180.06 203.351 178.7 203.351 177.33 203.351" stroke="#2071B5" stroke-width="4.20561" stroke-linecap="round" stroke-linejoin="round"/>
<path d="M336.36 199.7C335.67 199.72 334.96 199.59 334.31 199.93" stroke="#2071B5" stroke-width="4.20561" stroke-linecap="round" stroke-linejoin="round"/>
<path d="M314.03 203.351H310.84" stroke="#2071B5" stroke-width="4.20561" stroke-linecap="round" stroke-linejoin="round"/>
<path d="M159.33 200.61H160.92" stroke="#2071B5" stroke-width="4.20561" stroke-linecap="round" stroke-linejoin="round"/>
</svg>
