<?xml version="1.0" encoding="UTF-8"?>
<svg id="icons" xmlns="http://www.w3.org/2000/svg" viewBox="0 0 500 500">
  <defs>
    <style>
      .cls-1 {
        fill: none;
        stroke: #000;
        stroke-linecap: round;
        stroke-linejoin: round;
        stroke-width: .82px;
      }
    </style>
  </defs>
  <path class="cls-1" d="M258.67,265.67c4.89-2.48,9.46-5.53,14.21-8.26,17.05-9.81,33.99-19.81,50.91-29.86,9.96-5.91,20.07-11.57,29.86-17.75,2.75-1.74,5.19-3.93,8.04-5.56,6.49-3.73,12.92-7.54,19.36-11.35,3.79-2.24,7.96-4.04,10.57-7.96,1.78-2.67,2.82-5.54,2.83-8.67.04-39.97.03-79.95.02-119.92,0-4.81-4.98-7.81-9.26-5.55-5.93,3.13-11.43,6.96-17.1,10.51-8.92,5.58-17.83,11.17-26.78,16.71-2.73,1.69-5.58,3.25-8.05,5.34-4.05,3.43-6.09,8-7.68,12.96-2.09,6.49-4.33,12.94-6.52,19.39-3.54,10.43-6.94,20.9-10.57,31.3-4.05,11.59-7.85,23.25-11.83,34.86-5.3,15.47-10.44,31-15.52,46.54-.44,1.36-1.02,2.36-2.45,3.15-9.64,5.29-18.98,11.08-28.48,16.61-.41.24-.65.6-1.02.85"/>
  <path class="cls-1" d="M391.36,51.78c-11.48,6.9-22.62,14.36-34,21.43-5.92,3.68-11.73,7.54-17.72,11.13-5.2,3.12-7.84,8.08-9.69,13.6-5.79,17.26-11.69,34.48-17.53,51.71-4.21,12.42-8.25,24.91-12.55,37.3-3.88,11.16-7.45,22.43-11.33,33.59-1.21,3.49-2.18,7.06-3.53,10.5-.24.61.02.99.23,1.45"/>
  <path class="cls-1" d="M356.95,206.53c-.63-1.67.11-3.41-.55-5.18-1.7-4.51-6.43-6.75-11.19-3.88-16.22,9.79-32.6,19.3-48.87,28.99-3.55,2.12-8.22,5.67-12.21,7.06"/>
  <path class="cls-1" d="M271.44,385.59c.98,1.04.16,2.21.16,3.3.07,11.06-.12,22.12.11,33.17.12,5.88-2.32,10.09-6.87,13.39-5.11,3.7-10.97,5.38-17.1,6.42-4.33.74-8.66.75-12.98.33-3.13-.3-6.23-.87-9.29-1.76-4.29-1.24-8.29-2.97-11.72-5.83-3.56-2.98-5.81-6.67-5.79-11.52.03-11.74,0-23.49.02-35.24,0-.77-.23-1.6.4-2.27"/>
  <path class="cls-1" d="M236.83,395.27v52.75"/>
  <path class="cls-1" d="M160.17,321.09c-1.7-.18-.99-1.85-1.09-2.49-.49-3.12-2.06-5.64-3.91-7.97-.92-1.16-1.72-2.51-3.03-3.35-1.86-1.18-3.79-1.6-5.77-.4-5.13,3.13-10.32,6.16-15.46,9.26-2.4,1.45-4.74,3.06-7.25,4.25-3.38,1.61-5.49,4.46-7.75,7.12-3.05,3.61-6.07,7.26-9.12,10.87-1.03,1.22-1.63,2.57-1,4.12.65,1.59,2.21,2.26,3.68,2.22,6.13-.18,12.25-.78,18.12-2.66,3-.96,5.55-2.92,8.25-4.5,6.96-4.08,13.87-8.25,20.85-12.3,1.62-.94,2.41-2.12,2.85-3.77"/>
  <path class="cls-1" d="M277.21,352c-.37.09-.64.25-.83.61-4.01,7.63-10.94,11.32-18.75,13.8-3.55,1.13-7.16,1.99-10.92,2.07-1.18.03-2.29.62-3.5.4"/>
  <path class="cls-1" d="M242.8,368.9c-6.62.25-13.18-.32-19.57-2.09-6.59-1.82-12.87-4.38-17.47-9.7-1.75-2.03-3.79-3.99-4.2-6.96-.94-6.83,2.01-11.95,7.06-16.04,3.61-2.93,7.87-4.73,12.34-5.99.38-.11.82-.01,1.23-.01"/>
  <path class="cls-1" d="M243.01,396.51v45.78"/>
  <path class="cls-1" d="M257.22,327.89c5.42,1.08,10.16,3.45,14.46,6.96,3.39,2.76,5.32,6.18,6.13,10.35.1.53.01,1.1.01,1.65,0,8.1-.06,16.21.02,24.31.06,6.45-2.81,11.25-7.83,15.06-5.14,3.9-10.92,6.45-17.14,7.72-5.59,1.14-11.32,1.35-17.09.98-5.61-.37-11.07-1.34-16.26-3.4-6.38-2.53-12.39-5.71-15.89-12.11-1.58-2.9-1.97-6.07-2.03-9.27-.09-4.81-.02-9.62-.03-14.42,0-.95-.04-1.89.62-2.68"/>
  <path class="cls-1" d="M160.38,320.68c.85-3.61,4.28-4.36,6.83-5.92,7.7-4.71,15.35-9.5,23.23-13.89,1.07-.59,2-1.5,3.12-2,1.52-.68,1.45-1.99,1.18-3.11-.79-3.25-2.69-5.82-5.53-7.62-1.29-.82-2.81-.64-3.87.23-4.27,3.5-9.25,5.85-13.88,8.76-5.05,3.17-10.23,6.16-15.39,9.18-.96.56-2.02.93-2.91,1.61"/>
  <path class="cls-1" d="M236.35,277.42c.41-1.06-.27-3.29-.34-4.34-.33-4.71-3.21-9.65-7.6-11.02-1.74-.54-3.12-.23-4.33.56-4.19,2.74-8.54,5.19-12.79,7.81-6.81,4.21-13.84,8.07-20.66,12.28-.53.33-.9.78-1.41,1.08"/>
  <path class="cls-1" d="M231.67,281.12c2.16,2.36,4.84,3.59,8.04,3.71,1.51.06,2.82-.57,4.12-1.23,4.25-2.15,8.04-5.06,12.17-7.4,1.96-1.11,2.26-2.82,2.25-4.77,0-4.53-.1-9.07.04-13.6.07-2.18-.78-3.63-2.51-4.74-5.01-3.2-10.33-5.86-15.46-8.85-.97-.57-1.96-.92-3.09-.23-4.96,3.05-9.96,6.02-15.05,8.85-1.09.6-1.08,1.88-1.1,2.5-.1,2.87-.51,5.79.18,8.65"/>
  <path class="cls-1" d="M250.22,283.18c4.26.88,7.31,5.07,6.33,9.05-.39,1.6.08,3.04.07,4.55-.03,9.41-.05,18.82,0,28.23.02,3.3-.07,6.61-.05,9.89.02,2.93.01,5.91.24,8.86.25,3.23-1.22,5.57-3.71,7.42-2.95,2.19-6.3,3.25-9.89,3.71"/>
  <path class="cls-1" d="M243.01,300.49v91.9"/>
  <path class="cls-1" d="M236.35,277.42c-3.1,1.85-16.31,9.96-17.63,10.75-6.51,3.87-13.01,7.77-19.63,11.45-1.43.79-2.65,2.02-4.5,2.18-1.37.12-2.5.05-3.51-.89"/>
  <path class="cls-1" d="M236.83,300.69v53.99"/>
  <path class="cls-1" d="M230.65,283.78c-5.46,1.59-7.42,3.67-8,8.26-.21,1.69-.1,3.3-.04,4.95.35,9.34.16,18.68.2,28.02.02,6.59.18,13.19-.07,19.78-.14,3.64,1.63,5.83,4.42,7.38,4.86,2.71,10.16,3.34,15.64,2.72"/>
  <path class="cls-1" d="M237.03,355.5c-.35.73-.2,1.51-.2,2.27,0,11.95,0,23.9,0,35.85"/>
  <path class="cls-1" d="M224.05,440.6c.65,4.23,3.42,6.53,7.21,7.82,6.41,2.19,12.8,2.26,18.93-.86,2.88-1.47,5.05-3.75,5.58-7.17"/>
  <path class="cls-1" d="M248.98,281.12c.76.98,1,2.04.86,3.3-.15,1.29-.15,2.62-.01,3.91.48,4.64-2.13,5.53-5.18,6.79-2.38.98-4.9.93-7.41.8"/>
  <path class="cls-1" d="M257.22,254.74c-4.89,3.16-10.05,5.86-15.05,8.85-1.71,1.02-3.36.57-4.94-.4-5.05-3.13-10.35-5.83-15.45-8.86"/>
  <path class="cls-1" d="M120.2,323.36c2.87.54,4.93,2.43,6.53,4.58,1.93,2.61,3.63,5.44,4.28,8.79.2,1.05-.75,2.2.32,3.11"/>
  <path class="cls-1" d="M241.76,264.23c0,5.91.21,13.66.21,19.57"/>
  <path class="cls-1" d="M185.52,288.13c-.85-1.57,0-2.77,1.06-3.67.94-.79,2.09-.7,3.28-.06,5.52,2.99,8.07,7.59,7.83,13.83-.02.54-.25,1.14.19,1.65"/>
  <path class="cls-1" d="M223.23,294.31c2.32,1.82,4.42,3.94,7.41,4.75,7.52,2.03,14.85,2.38,21.87-1.82,1.36-.81,2.1-2.23,3.48-2.93"/>
  <path class="cls-1" d="M223.23,335.11c.86.17,1.31.88,1.85,1.45,2.97,3.15,6.92,4.11,10.94,4.67,2.22.31,4.53.53,6.79.06"/>
  <path class="cls-1" d="M256.19,334.9c-2.82,2.75-5.93,5-9.89,5.75-1.03.2-2.01.67-3.09.63"/>
  <path class="cls-1" d="M237.86,264.02c-.47,3.29.13,7.32,0,10.62-.03.81,0,5.15-.21,9.95"/>
  <path class="cls-1" d="M231.73,281.46c-2.89,7.66.1,13.85,5.09,14.5.32.04,0-.14.21,0"/>
  <path class="cls-1" d="M155.85,307.29c3.02,2.3,4.9,5.32,5.57,9.07.07.42.44.67.62,1.03"/>
  <path class="cls-1" d="M242.8,442.87c.12,2.18,0,4.4.1,6.59"/>
  <path class="cls-1" d="M237.65,286.06v8.24"/>
  <path class="cls-1" d="M242.18,286.06v8.24"/>
  <path class="cls-1" d="M280.3,231.05c.99,1.07,2.29,1.71,3.5,2.47"/>
  <path class="cls-1" d="M237.24,291.22c-.94-.28-1.95-.26-2.88-.62"/>
  <path class="cls-1" d="M245.07,290.19c-.88.33-1.8.5-2.68.82"/>
</svg>