<svg width="500" height="500" viewBox="0 0 500 500" fill="none" xmlns="http://www.w3.org/2000/svg">
<path d="M216.01 241.491C216.64 240.891 220.56 237.859 222.34 236.501C226.98 234.061 231.93 232.211 236.74 230.101C243.41 227.181 250.14 224.401 256.83 221.521C263.33 218.721 269.91 216.041 276.37 213.151C283.95 209.761 291.51 206.271 299.17 203.091C311.47 197.991 323.64 192.601 335.87 187.361C346.63 182.751 357.28 177.911 367.98 173.181C370.68 171.991 373.2 170.361 376.19 169.761C378.74 169.241 382.34 170.431 383.34 173.351C384.3 176.181 385.08 179.051 385.08 182.041C385.1 228.221 385.09 274.401 385.09 320.581C385.09 322.411 384.7 324.181 384.21 325.931C382.47 332.131 378.63 336.551 372.84 339.291C362.45 344.221 351.91 348.821 341.47 353.631C329.29 359.251 317.13 364.931 304.89 370.441C295.34 374.741 285.8 379.061 276.15 383.121C265.45 387.621 255 392.671 244.31 397.181C236.52 400.461 228.94 404.181 221.16 407.471C215.91 409.691 211.33 408.951 208.24 404.981C206.58 402.841 206.02 400.281 206.02 397.641C205.98 382.351 206 367.051 206 351.761V330.151V300.301C206 297.701 206.17 295.091 205.97 292.511C205.48 286.191 206.03 279.881 205.85 273.571C205.76 270.691 205.84 267.781 205.85 264.891C205.86 260.631 206.23 256.381 208.19 252.401C210.2 248.301 212.68 244.611 216.01 241.491Z" fill="#FFDA00" fill-opacity="0.7"/>
<path d="M203.34 244.381C199.11 246.221 194.68 247.331 189.99 246.421C187.15 245.871 184.58 244.701 182.19 243.091C169.13 234.261 155.59 226.191 142.29 217.741C132.24 211.351 122.16 205.011 111.99 198.831C104.01 193.991 96.0497 189.111 88.2097 184.041C86.1597 182.711 84.1397 181.371 81.9497 180.291C78.9797 178.821 77.4997 176.511 77.7197 173.151C78.0097 168.481 77.6597 163.801 77.9697 159.101C78.1397 156.621 77.6797 153.921 77.7497 151.321C77.7997 149.391 76.9697 147.421 77.9497 145.531M222.34 236.501C220.56 237.859 216.64 240.891 216.01 241.491C212.68 244.611 210.2 248.301 208.19 252.401C206.23 256.381 205.86 260.631 205.85 264.891C205.84 267.781 205.76 270.691 205.85 273.571C206.03 279.881 205.48 286.191 205.97 292.511C206.17 295.091 206 297.701 206 300.301C206 310.251 206 320.201 206 330.151C206 337.351 206 344.551 206 351.761C206 367.051 205.98 382.351 206.02 397.641C206.02 400.281 206.58 402.841 208.24 404.981C211.33 408.951 215.91 409.691 221.16 407.471C228.94 404.181 236.52 400.461 244.31 397.181C255 392.671 265.45 387.621 276.15 383.121C285.8 379.061 295.34 374.741 304.89 370.441C317.13 364.931 329.29 359.251 341.47 353.631C351.91 348.821 362.45 344.221 372.84 339.291C378.63 336.551 382.47 332.131 384.21 325.931C384.7 324.181 385.09 322.411 385.09 320.581C385.09 274.401 385.1 228.221 385.08 182.041C385.08 179.051 384.3 176.181 383.34 173.351C382.34 170.431 378.74 169.241 376.19 169.761C373.2 170.361 370.68 171.991 367.98 173.181C357.28 177.911 346.63 182.751 335.87 187.361C323.64 192.601 311.47 197.991 299.17 203.091C291.51 206.271 283.95 209.761 276.37 213.151C269.91 216.041 263.33 218.721 256.83 221.521C250.14 224.401 243.41 227.181 236.74 230.101C231.93 232.211 226.98 234.061 222.34 236.501Z" stroke="#2071B5" stroke-width="4.20561" stroke-linecap="round" stroke-linejoin="round"/>
<path d="M78.3598 145.27C83.3198 150.3 89.7198 153.28 95.5798 156.97C104.71 162.72 113.99 168.26 123.1 174.06C138.4 183.8 154.03 193.01 169.51 202.44C173.41 204.81 177.44 207.05 181.47 209.24C186.23 211.83 191.32 212.99 196.64 213.17C201.5 213.34 206.36 213.43 211.13 211.92C214.15 210.97 216.95 209.56 219.77 208.25C228.53 204.2 237.47 200.58 246.32 196.77C255.06 193.01 263.85 189.36 272.58 185.57C282.74 181.15 292.96 176.88 303.1 172.44C321.72 164.29 340.53 156.58 359.27 148.7C371.82 143.42 384.28 137.95 396.87 132.77C400.34 131.34 402.1 128.48 402.44 124.78C402.76 121.27 401.13 118.8 398.22 116.97C394.27 114.49 390.21 112.2 386.17 109.88C373.67 102.72 361.18 95.5396 348.79 88.2096C338.91 82.3596 329.01 76.5296 319.12 70.6796C310.53 65.5996 301.96 60.4596 293.25 55.5896C289.86 53.6996 286.48 51.5896 282.4 50.9596C278.44 50.3496 274.94 51.3596 271.48 52.8396C259.73 57.8696 247.84 62.5596 236.06 67.5296C228.49 70.7296 220.89 73.8596 213.32 77.0496C205.01 80.5496 196.69 84.0296 188.39 87.5596C171.67 94.6596 154.96 101.77 138.25 108.9C122.15 115.77 106.01 122.53 89.9598 129.5C87.3898 130.62 84.7098 131.57 82.3498 133.2C77.4998 136.57 76.3998 139.54 78.1298 145.25" stroke="#2071B5" stroke-width="4.20561" stroke-linecap="round" stroke-linejoin="round"/>
<path d="M397.1 329.921C399.72 331.001 401.6 332.581 401.8 335.711C402.24 342.541 401.98 349.371 401.94 356.201C401.92 359.281 400 361.391 397.33 362.901C394.08 364.741 390.67 366.221 387.28 367.741C377.87 371.941 368.57 376.351 359.22 380.671C349 385.401 338.73 390.041 328.52 394.781C321.17 398.191 313.78 401.521 306.43 404.941C297.34 409.181 288.16 413.251 279.04 417.431C272.15 420.581 265.27 423.751 258.36 426.861C248.55 431.281 238.79 435.831 228.95 440.221C223.3 442.741 217.69 445.331 211.99 447.731C204.42 450.921 196.91 450.781 189.98 446.151C180.29 439.681 170.59 433.211 160.97 426.631C149.77 418.971 138.6 411.251 127.32 403.721C115.71 395.971 104.35 387.831 92.6301 380.251C91.4401 379.481 90.2701 378.651 89.2701 377.601C87.8901 376.161 87.0101 374.551 87.0301 372.471C87.0801 367.501 86.8201 362.511 87.1201 357.551C87.3301 354.111 86.2001 350.711 87.0401 347.301" stroke="#2071B5" stroke-width="4.20561" stroke-linecap="round" stroke-linejoin="round"/>
<path d="M401.34 136.81C389.44 141.74 377.55 146.7 365.72 151.78C354.59 156.56 343.37 161.1 332.28 165.97C322.35 170.33 312.36 174.54 302.43 178.88C291.34 183.73 280.2 188.48 269.02 193.14C257.93 197.76 246.94 202.59 235.86 207.24C227.74 210.65 219.64 214.14 211.55 217.64C205.86 220.1 199.84 220.55 193.74 219.87C191.5 219.62 189.23 219.49 187.06 218.78" stroke="#2071B5" stroke-width="4.20561" stroke-linecap="round" stroke-linejoin="round"/>
<path d="M403.12 244.389C401.51 246.579 400.35 249.049 398.1 250.869C397.17 251.619 396.82 253.599 396.83 255.309C396.92 267.709 396.81 280.109 396.9 292.509C396.98 304.089 396.56 315.669 396.65 327.259C396.69 331.639 396.64 336.019 396.67 340.399C396.68 341.999 396.37 342.729 394.49 343.449C390.95 344.809 387.43 346.359 383.97 347.979C374.03 352.629 363.88 356.799 353.89 361.329C344.93 365.389 335.92 369.329 326.92 373.319C313.83 379.129 300.84 385.169 287.75 390.979C279.06 394.839 270.38 398.699 261.68 402.549C249.91 407.759 238.02 412.689 226.27 417.939C220.41 420.559 214.58 423.259 208.63 425.639C202.22 428.199 196.15 427.089 190.12 423.559C179.95 417.599 170.53 410.539 160.58 404.269C153.79 399.989 147.13 395.479 140.54 390.899C130.63 384.009 120.59 377.309 110.6 370.539C102.98 365.379 95.3401 360.249 87.7001 355.109" stroke="#2071B5" stroke-width="4.20561" stroke-linecap="round" stroke-linejoin="round"/>
<path d="M402.01 128.79C403.23 133.37 402.86 137.99 402.19 142.59C402.09 143.31 401.25 143.63 400.48 143.99C393.72 147.18 386.59 149.44 379.74 152.41C372.2 155.68 364.52 158.62 356.99 161.91C347.97 165.85 338.87 169.62 329.85 173.58C324.28 176.03 318.7 178.45 313.12 180.88C304.67 184.56 296.26 188.32 287.76 191.87C282.52 194.06 277.38 196.52 272.14 198.7C263.2 202.42 254.36 206.37 245.45 210.15C240.09 212.42 234.72 214.67 229.37 216.96C221.88 220.17 214.58 223.79 207.09 226.96C202.29 228.99 197.2 229.21 191.95 228.47C189 228.06 186.54 226.88 184.2 225.42C176.11 220.37 168.03 215.29 159.86 210.37C149.73 204.26 139.64 198.08 129.6 191.83C120.44 186.13 111.28 180.43 102.4 174.28C94.5802 168.86 86.3002 164.14 78.3702 158.87" stroke="#2071B5" stroke-width="4.20561" stroke-linecap="round" stroke-linejoin="round"/>
<path d="M284.62 56.1687C278.43 54.4987 273.1 57.1787 267.69 59.4987C256.83 64.1587 245.88 68.6187 234.99 73.1887C225.24 77.2787 215.51 81.4287 205.76 85.5287C196.19 89.5587 186.66 93.6687 177.08 97.6787C168.95 101.079 160.86 104.579 152.76 108.039C143.06 112.189 133.36 116.329 123.62 120.389C120.76 121.579 117.92 122.939 115.1 124.269C114.46 124.569 114.2 124.879 114.01 125.439" stroke="#2071B5" stroke-width="4.20561" stroke-linecap="round" stroke-linejoin="round"/>
<path d="M388.42 149.279C389.21 167.909 388.98 186.549 389.13 205.189C389.26 220.929 389.47 236.669 389.25 252.409C389.09 263.549 389.05 274.689 389.14 285.819C389.22 296.139 389.3 306.459 389.31 316.779C389.31 319.899 389.39 323.019 389.09 326.139" stroke="#2071B5" stroke-width="4.20561" stroke-linecap="round" stroke-linejoin="round"/>
<path d="M357.23 352.861C353.87 354.061 350.68 355.661 347.45 357.141C337.21 361.831 326.95 366.481 316.69 371.131C307.61 375.251 298.54 379.391 289.33 383.251C283.86 385.541 278.41 387.971 273.01 390.461C265.56 393.901 258.01 397.141 250.53 400.521C243.78 403.571 237 406.561 230.26 409.661C222.93 413.041 215.48 416.161 208.18 419.631C206.63 420.371 204.89 420.961 203.08 421.021" stroke="#2071B5" stroke-width="4.20561" stroke-linecap="round" stroke-linejoin="round"/>
<path d="M378.17 318.121C379.18 274.321 378.33 230.511 378.63 186.701C378.64 185.201 378.45 183.721 378.34 182.251C378.13 179.531 376.26 178.411 373.72 179.371C371.2 180.321 368.84 181.641 366.36 182.691C357.72 186.341 349.14 190.121 340.53 193.851C334.12 196.621 327.61 199.161 321.36 202.291C321.18 202.381 320.92 202.301 320.7 202.301" stroke="#2071B5" stroke-width="4.20561" stroke-linecap="round" stroke-linejoin="round"/>
<path d="M218.25 249.069C214.28 253.769 212.74 259.399 212.73 265.329C212.64 304.979 212.66 344.629 212.73 384.269C212.73 387.929 212.55 391.709 214.24 395.179" stroke="#2071B5" stroke-width="4.20561" stroke-linecap="round" stroke-linejoin="round"/>
<path d="M266.8 70.21C262.7 71.25 258.88 73.09 255.02 74.72C242.56 79.95 230.04 85.04 217.58 90.27C205.55 95.32 193.52 100.37 181.47 105.35C164.77 112.26 148.13 119.32 131.39 126.14C130.41 126.54 129.29 126.85 128.71 127.9" stroke="#2071B5" stroke-width="4.20561" stroke-linecap="round" stroke-linejoin="round"/>
<path d="M330.51 350.189C327.24 351.339 324.08 352.769 320.94 354.219C312.79 357.979 304.58 361.579 296.42 365.319C289.99 368.279 283.5 371.109 277.03 373.989C269.1 377.509 261.18 381.059 253.24 384.569C248.53 386.649 243.85 388.799 239.17 390.939C231.33 394.529 223.54 398.239 215.33 400.939C214.49 401.209 213.88 402.039 212.89 401.869" stroke="#2071B5" stroke-width="4.20561" stroke-linecap="round" stroke-linejoin="round"/>
<path d="M368.82 182.02C368.82 188.55 368.73 195.09 368.83 201.62C369.31 232.73 368.96 263.84 368.99 294.95C368.99 301.55 368.76 308.17 368.87 314.77C368.91 317.1 368.53 319.2 367.48 321.23" stroke="#2071B5" stroke-width="4.20561" stroke-linecap="round" stroke-linejoin="round"/>
<path d="M251.66 82.46C245.98 84.41 240.51 86.9 234.97 89.18C228.2 91.97 221.48 94.88 214.71 97.67C209.7 99.73 204.77 102.01 199.75 104.03C190.14 107.89 180.59 111.9 171.03 115.87C159.96 120.46 148.89 125.04 137.84 129.68C137.78 129.71 137.69 129.68 137.62 129.68" stroke="#2071B5" stroke-width="4.20561" stroke-linecap="round" stroke-linejoin="round"/>
<path d="M256.56 86.2412C254.09 86.3812 252.09 87.8412 249.89 88.7312C240.72 92.4212 231.58 96.2012 222.48 100.051C215.74 102.901 209 105.771 202.21 108.511C192.61 112.401 183.06 116.401 173.52 120.421C163.47 124.651 153.34 128.721 143.4 133.231C143.28 133.291 143.11 133.231 142.96 133.231" stroke="#2071B5" stroke-width="4.20561" stroke-linecap="round" stroke-linejoin="round"/>
<path d="M124.69 252.631C124.02 253.771 125.27 253.681 125.58 253.701C131.08 253.931 135.86 256.121 140.51 258.851C150.22 264.551 157.09 272.921 162.01 282.751C167.11 292.951 169.44 303.991 168.73 315.441C168.26 323.151 166.67 330.651 161.87 337.041C160.21 339.241 158.25 341.151 155.88 342.641C155.03 343.171 154.23 343.661 153.19 343.511" stroke="#2071B5" stroke-width="4.20561" stroke-linecap="round" stroke-linejoin="round"/>
<path d="M181.05 243.05C180.67 243.84 180.83 244.68 180.83 245.5C180.83 278.17 180.83 310.84 180.83 343.51C180.83 344.62 180.71 345.75 180.85 346.85C180.97 347.79 180.34 347.44 179.94 347.52" stroke="#2071B5" stroke-width="4.20561" stroke-linecap="round" stroke-linejoin="round"/>
<path d="M95.7399 280.031C95.1299 275.941 96.8599 272.391 98.7299 269.061C99.8699 267.021 100.79 264.701 102.66 263.121C105.54 260.671 108.55 259.291 112.69 259.611C117.69 260.001 122.45 260.971 126.67 263.411C134.41 267.881 140.54 274.161 145.2 281.821C149.61 289.081 152.76 296.841 154.33 305.211C155.58 311.861 155.94 318.481 155.09 325.271C154.26 331.841 152.25 337.761 148.38 343.121C147.74 344.001 146.95 344.681 146.3 345.521C145.82 346.141 145.06 346.591 145.2 347.541" stroke="#2071B5" stroke-width="4.20561" stroke-linecap="round" stroke-linejoin="round"/>
<path d="M112.22 344.4C114.15 344.31 115.64 342.06 117.3 342.55C119.24 343.11 120.7 345.02 122.48 346.17C126.4 348.71 130.43 351 135.39 350.66C137.31 350.53 139.16 350.26 140.96 349.54C142.84 348.79 144.44 347.12 146.76 347.71C146.84 347.73 147.31 347.62 147.4 347.51C148.75 345.79 151 345.29 152.49 343.91C158.01 338.79 161.76 332.66 163.06 325.04C164.99 313.65 164.08 302.51 159.81 291.88C154.74 279.27 146.6 268.85 134.91 261.61C130.34 258.78 125.39 256.53 119.8 256.42C119.45 256.42 119.18 256.19 118.91 255.98" stroke="#2071B5" stroke-width="4.20561" stroke-linecap="round" stroke-linejoin="round"/>
<path d="M314.47 349.299C310.17 350.929 305.97 352.809 301.8 354.699C294.84 357.859 287.81 360.859 280.83 363.979C273.42 367.289 265.98 370.509 258.55 373.759C251.36 376.899 244.14 379.989 236.98 383.189C229.57 386.499 222.15 389.769 214.69 392.959" stroke="#2071B5" stroke-width="4.20561" stroke-linecap="round" stroke-linejoin="round"/>
<path d="M87.27 183.799C86.62 184.439 86.83 185.259 86.83 186.029C86.83 217.809 86.83 249.589 86.83 281.359C86.83 282.119 86.62 282.949 87.27 283.589" stroke="#2071B5" stroke-width="4.20561" stroke-linecap="round" stroke-linejoin="round"/>
<path d="M126.48 339.72C130.17 341.1 133.38 339.55 136.24 337.66C141.73 334.03 144.22 328.57 145.25 322.14C146.38 315.07 145.78 308.16 143.79 301.43C140.6 290.68 134.78 281.62 125.6 274.89C122.56 272.66 119.23 271.29 115.56 270.69C112.17 270.14 106.17 273.13 104.65 276.02" stroke="#2071B5" stroke-width="4.20561" stroke-linecap="round" stroke-linejoin="round"/>
<path d="M190.63 228.801C190.16 229.501 190.42 230.291 190.42 231.031C190.4 294.141 190.41 357.251 190.4 420.361C190.4 421.261 190.59 422.191 190.07 423.031" stroke="#2071B5" stroke-width="4.20561" stroke-linecap="round" stroke-linejoin="round"/>
<path d="M270.81 113.64C265.83 115.45 261.01 117.66 256.12 119.67C249.26 122.5 242.43 125.41 235.64 128.38C229.57 131.03 223.44 133.51 217.35 136.11C207.41 140.35 197.52 144.74 187.53 148.87C183.79 150.42 180.16 152.26 176.37 153.72" stroke="#2071B5" stroke-width="4.20561" stroke-linecap="round" stroke-linejoin="round"/>
<path d="M91.95 187.37C91.62 188.01 91.73 188.7 91.73 189.37C91.73 219.22 91.73 249.06 91.73 278.91C91.73 279.58 91.62 280.28 91.95 280.91" stroke="#2071B5" stroke-width="4.20561" stroke-linecap="round" stroke-linejoin="round"/>
<path d="M201.32 245.5C201.63 247.5 201.54 249.51 201.54 251.51C201.54 301.03 201.49 350.55 201.6 400.08C201.61 406.53 201.53 413.01 201.96 419.46C201.99 419.93 202.29 420.321 202.18 420.951C201.49 421.111 200.72 420.96 199.98 421.01" stroke="#2071B5" stroke-width="4.20561" stroke-linecap="round" stroke-linejoin="round"/>
<path d="M77.6999 329.48C77.2399 331.1 78.5299 331.99 79.2799 333.03C81.5299 336.11 84.0499 338.9 87.9399 339.96C92.2299 341.12 96.5499 338.53 97.5099 334.16C98.7499 328.55 97.5099 323.25 95.2799 318.13C92.7299 312.27 89.2399 307.21 83.7299 303.61C77.8199 299.75 73.8599 302.73 73.0199 309C72.1799 315.29 73.4499 321.27 75.9099 327.04C76.2899 327.94 76.7099 328.83 77.6899 329.27" fill="#FFDA00" fill-opacity="0.7"/>
<path d="M77.6999 329.48C77.2399 331.1 78.5299 331.99 79.2799 333.03C81.5299 336.11 84.0499 338.9 87.9399 339.96C92.2299 341.12 96.5499 338.53 97.5099 334.16C98.7499 328.55 97.5099 323.25 95.2799 318.13C92.7299 312.27 89.2399 307.21 83.7299 303.61C77.8199 299.75 73.8599 302.73 73.0199 309C72.1799 315.29 73.4499 321.27 75.9099 327.04C76.2899 327.94 76.7099 328.83 77.6899 329.27" stroke="#2071B5" stroke-width="4.20561" stroke-linecap="round" stroke-linejoin="round"/>
<path d="M363.47 110.301C362.18 111.401 360.47 111.571 359.01 112.291C355.95 113.811 354.25 116.051 354.29 119.651C354.33 123.061 354.33 126.481 354.05 129.911C353.89 131.831 356.06 133.171 357.9 134.141C361.93 136.271 366.25 136.501 370.59 135.841C372.95 135.481 375.37 134.911 377.5 133.681C380.83 131.751 382.08 128.471 382.32 124.991C382.59 121.081 383.18 116.821 379.49 113.881C377.36 112.191 374.82 111.281 372.16 110.741C370.76 110.461 369.41 110.211 367.92 110.461C366.19 110.751 364.58 110.281 363 109.221C355.87 104.471 348.37 100.341 340.99 96.0209C333.32 91.5309 325.67 87.0109 318.05 82.4309C310.34 77.8009 302.44 73.5009 294.88 68.6309C294.34 68.2809 293.82 68.5409 293.31 68.4209" fill="#FFDA00" fill-opacity="0.7"/>
<path d="M363.47 110.301C362.18 111.401 360.47 111.571 359.01 112.291C355.95 113.811 354.25 116.051 354.29 119.651C354.33 123.061 354.33 126.481 354.05 129.911C353.89 131.831 356.06 133.171 357.9 134.141C361.93 136.271 366.25 136.501 370.59 135.841C372.95 135.481 375.37 134.911 377.5 133.681C380.83 131.751 382.08 128.471 382.32 124.991C382.59 121.081 383.18 116.821 379.49 113.881C377.36 112.191 374.82 111.281 372.16 110.741C370.76 110.461 369.41 110.211 367.92 110.461C366.19 110.751 364.58 110.281 363 109.221C355.87 104.471 348.37 100.341 340.99 96.0209C333.32 91.5309 325.67 87.0109 318.05 82.4309C310.34 77.8009 302.44 73.5009 294.88 68.6309C294.34 68.2809 293.82 68.5409 293.31 68.4209" stroke="#2071B5" stroke-width="4.20561" stroke-linecap="round" stroke-linejoin="round"/>
<path d="M272.59 105.179C266.85 107.229 261.26 109.669 255.67 112.099C250.33 114.419 244.93 116.589 239.62 118.969C234.91 121.079 230.09 122.929 225.38 125.009C219.26 127.709 213.02 130.129 206.88 132.789C201.78 134.999 196.63 137.099 191.51 139.249C189.15 140.239 186.81 141.299 184.39 142.149" stroke="#2071B5" stroke-width="4.20561" stroke-linecap="round" stroke-linejoin="round"/>
<path d="M311.8 396.08C309.51 396.63 307.44 397.82 305.38 398.83C294.65 404.13 283.58 408.66 272.79 413.83C265.21 417.46 257.53 420.89 249.86 424.33C241.67 428 233.67 432.08 225.37 435.48C224.24 435.94 223.94 436.62 224.03 437.73C224.11 438.69 224.05 439.66 224.05 440.62" stroke="#2071B5" stroke-width="4.20561" stroke-linecap="round" stroke-linejoin="round"/>
<path d="M121.58 340.61C123.13 341.29 124.63 340.23 125.5 339.6C128.64 337.33 132.24 335.71 134.96 332.83C138.35 329.23 140.13 324.98 140.5 320.12C141.06 312.79 139.08 306 136.08 299.39C133.2 293.04 129.7 287.17 124.46 282.49C120.69 279.12 116.66 276.2 111.33 275.77C108.72 275.56 106.11 275.77 103.78 276.75C99.1799 278.69 94.4499 280.36 89.9799 282.56C86.4499 284.3 82.6999 285.68 79.4399 288C78.6899 288.53 77.4799 288.37 76.5899 288.74C70.9399 291.09 68.2399 295.83 67.0499 301.42C64.9599 311.31 66.1399 320.92 70.3299 330.15C73.9599 338.14 79.3699 344.1 87.8799 347.23C90.0299 348.02 92.0599 349.42 94.3999 349.96C96.5699 350.46 98.6999 349.95 100.86 349.76C107.27 349.21 110.81 345.2 112.11 339.47C113.54 333.2 113.07 326.85 111.39 320.54C109.97 315.24 107.48 310.48 105.09 305.63" stroke="#2071B5" stroke-width="4.20561" stroke-linecap="round" stroke-linejoin="round"/>
<path d="M278.83 204.959C274.79 206.339 270.97 208.249 267.05 209.919C259.16 213.289 251.3 216.739 243.45 220.189C236.69 223.159 229.87 225.979 223.12 228.969C216 232.129 208.87 235.279 201.53 237.919" stroke="#2071B5" stroke-width="4.20561" stroke-linecap="round" stroke-linejoin="round"/>
<path d="M88.6099 347.299C89.1199 346.609 89.8599 346.599 90.6099 346.629C96.7899 346.849 102.11 342.279 103.34 335.719C104.52 329.389 103.02 323.459 100.82 317.689C97.2899 308.429 91.9699 300.469 83.2799 295.159C79.4499 292.819 75.6199 291.509 71.4799 294.309C70.9999 294.629 70.5699 294.399 70.1299 294.509" stroke="#2071B5" stroke-width="4.20561" stroke-linecap="round" stroke-linejoin="round"/>
<path d="M351.44 173.78C348.39 174.84 345.5 176.31 342.54 177.58C335.48 180.6 328.41 183.62 321.41 186.78C313.41 190.39 305.35 193.86 297.28 197.3C291.4 199.8 285.52 202.35 279.5 204.52" stroke="#2071B5" stroke-width="4.20561" stroke-linecap="round" stroke-linejoin="round"/>
<path d="M294.87 395.631C291.51 396.831 288.33 398.451 285.09 399.901C275.35 404.251 265.59 408.571 255.91 413.031C246.73 417.261 237.51 421.381 228.27 425.471C223.74 427.481 219.21 429.481 214.7 431.521C214.38 431.671 214.1 431.671 213.8 431.711" stroke="#2071B5" stroke-width="4.20561" stroke-linecap="round" stroke-linejoin="round"/>
<path d="M387.53 360.881C382.26 363.171 377.15 365.811 371.94 368.231C360.5 373.561 349.06 378.911 337.62 384.231C331.33 387.161 324.94 389.891 318.7 392.941C318.52 393.031 318.26 392.951 318.04 392.951" stroke="#2071B5" stroke-width="4.20561" stroke-linecap="round" stroke-linejoin="round"/>
<path d="M103.09 194.719C102.62 195.419 102.88 196.209 102.88 196.949C102.86 218.179 102.86 239.419 102.86 260.649" stroke="#2071B5" stroke-width="4.20561" stroke-linecap="round" stroke-linejoin="round"/>
<path d="M105.09 195.39C104.02 196.59 104.92 197.93 104.92 199.18C104.85 218.86 104.87 238.53 104.88 258.21C104.88 259.11 104.7 260.04 105.21 260.88" stroke="#2071B5" stroke-width="4.20561" stroke-linecap="round" stroke-linejoin="round"/>
<path d="M97.74 190.929C97.42 191.419 97.52 191.959 97.52 192.489C97.52 200.139 97.36 207.789 97.56 215.429C97.81 225.309 97.56 235.179 97.78 245.049C97.95 252.479 97.91 259.899 97.97 267.319C97.97 267.619 97.82 267.989 98.19 268.209" stroke="#2071B5" stroke-width="4.20561" stroke-linecap="round" stroke-linejoin="round"/>
<path d="M228.05 115.871C223.72 117.411 219.6 119.461 215.35 121.201C203.93 125.881 192.62 130.831 181.27 135.671C175.36 138.191 169.51 140.851 163.46 143.051" stroke="#2071B5" stroke-width="4.20561" stroke-linecap="round" stroke-linejoin="round"/>
<path d="M165.68 274.9C169.17 281.14 171.78 287.78 173.18 294.74C175.71 307.35 175.31 319.82 169.64 331.68C168.7 333.64 167.45 335.5 166.12 337.27" stroke="#2071B5" stroke-width="4.20561" stroke-linecap="round" stroke-linejoin="round"/>
<path d="M112.44 199.839C111.87 200.409 111.99 201.149 112 201.839C112.19 219.879 112.27 237.919 112.21 255.969C112.21 256.439 112.28 256.879 112.44 257.309" stroke="#2071B5" stroke-width="4.20561" stroke-linecap="round" stroke-linejoin="round"/>
<path d="M153.21 285.149C154.91 289.559 156.71 293.929 157.89 298.509C160.9 310.299 161.18 322.049 157.19 333.689C156.55 335.559 155.44 337.269 154.55 339.049" stroke="#2071B5" stroke-width="4.20561" stroke-linecap="round" stroke-linejoin="round"/>
<path d="M424.72 228.129C427.34 228.099 430.18 225.559 431.42 222.339C433.27 217.519 432.73 212.729 431.66 207.849C430.57 202.839 428.4 198.439 425.18 194.479C421.71 190.219 417.1 188.349 411.8 187.809C410.26 187.649 408.97 188.109 408.01 189.369" stroke="#2071B5" stroke-width="4.20561" stroke-linecap="round" stroke-linejoin="round"/>
<path d="M79.6999 288.049C83.0699 289.099 86.2599 290.529 89.0599 292.729C97.0499 299.009 102.7 306.949 105.99 316.559C107.92 322.189 109.24 327.989 109.02 333.929C108.85 338.719 107.97 343.499 104.19 347.059C103.64 347.579 103.44 348.249 103.09 348.849" stroke="#2071B5" stroke-width="4.20561" stroke-linecap="round" stroke-linejoin="round"/>
<path d="M304.22 162.201C299.42 164.091 294.73 166.241 289.97 168.221C280.41 172.191 270.95 176.421 261.25 180.061C260.27 180.431 259.44 181.211 258.34 181.361" stroke="#2071B5" stroke-width="4.20561" stroke-linecap="round" stroke-linejoin="round"/>
<path d="M279.05 103.399C278.51 106.509 278.86 109.639 278.85 112.759C278.8 132.359 278.82 151.959 278.82 171.559" stroke="#2071B5" stroke-width="4.20561" stroke-linecap="round" stroke-linejoin="round"/>
<path d="M278.38 156.85C271.46 159.96 264.41 162.76 257.44 165.75C249.73 169.05 241.9 172.06 234.28 175.55C234.16 175.61 233.99 175.55 233.84 175.55" stroke="#2071B5" stroke-width="4.20561" stroke-linecap="round" stroke-linejoin="round"/>
<path d="M409.23 230.261C408.51 230.811 408.54 232.661 408.22 233.911C407.3 237.491 406.35 241.081 403.79 243.941" stroke="#2071B5" stroke-width="4.20561" stroke-linecap="round" stroke-linejoin="round"/>
<path d="M397.77 200.729C396.79 201.729 396.62 202.959 396.65 204.289C396.71 207.719 396.5 211.149 397.29 214.539C397.57 215.759 397.98 216.799 398.59 217.909C400.01 220.509 400.75 223.429 401.31 226.339C402.25 231.189 402.84 236.049 402.3 241.039C401.97 244.099 404.35 245.589 408.01 244.999C414.23 243.999 418.36 239.979 421.32 234.759C422.52 232.639 423.96 230.569 424.5 227.889" stroke="#2071B5" stroke-width="4.20561" stroke-linecap="round" stroke-linejoin="round"/>
<path d="M106.88 302.08C112.43 310.3 115.38 319.47 116.13 329.26C116.38 332.55 116.15 336.05 114.89 339.27C113.61 342.52 111.37 345.12 108.86 347.49C108.63 347.7 108 347.86 107.55 347.52" stroke="#2071B5" stroke-width="4.20561" stroke-linecap="round" stroke-linejoin="round"/>
<path d="M359.02 329.699C351.55 332.869 344.19 336.289 336.74 339.469C330.5 342.139 324.41 345.139 318.04 347.509" stroke="#2071B5" stroke-width="4.20561" stroke-linecap="round" stroke-linejoin="round"/>
<path d="M191.29 198.95C193.48 199.82 194.9 201.89 197.29 202.55C204.71 204.6 211.47 203.87 217.63 198.8C219.07 197.62 219.44 196.56 219.37 194.94C219.28 193.01 219.58 191.05 219.3 189.16C218.52 183.93 215.78 182 210.2 180.73C205.47 179.65 200.75 180.21 196.18 181.81C192.52 183.09 190.84 185.51 190.83 189.38C190.83 192.94 190.63 196.52 190.9 200.07C191.09 202.58 193.22 204.04 195.31 204.92C202.3 207.86 209.19 207.37 215.76 203.59C217.3 202.7 218.69 201.47 219.39 199.64C219.65 198.95 219.49 198.54 219.13 198.07" fill="#FFDA00" fill-opacity="0.7"/>
<path d="M191.29 198.95C193.48 199.82 194.9 201.89 197.29 202.55C204.71 204.6 211.47 203.87 217.63 198.8C219.07 197.62 219.44 196.56 219.37 194.94C219.28 193.01 219.58 191.05 219.3 189.16C218.52 183.93 215.78 182 210.2 180.73C205.47 179.65 200.75 180.21 196.18 181.81C192.52 183.09 190.84 185.51 190.83 189.38C190.83 192.94 190.63 196.52 190.9 200.07C191.09 202.58 193.22 204.04 195.31 204.92C202.3 207.86 209.19 207.37 215.76 203.59C217.3 202.7 218.69 201.47 219.39 199.64C219.65 198.95 219.49 198.54 219.13 198.07" stroke="#2071B5" stroke-width="4.20561" stroke-linecap="round" stroke-linejoin="round"/>
<path d="M397.55 184.699C400.75 184.449 403.96 184.599 406.17 187.209C407.24 188.479 408.07 190.009 409.6 190.679C412.77 192.069 415.48 194.049 417.58 196.749C423.75 204.669 426.97 213.489 425.42 223.689C425.22 224.999 424.61 226.099 424.06 227.249" stroke="#2071B5" stroke-width="4.20561" stroke-linecap="round" stroke-linejoin="round"/>
<path d="M128.93 210.091C128.55 210.881 128.71 211.721 128.71 212.541C128.71 225.011 128.71 237.491 128.71 249.961" stroke="#2071B5" stroke-width="4.20561" stroke-linecap="round" stroke-linejoin="round"/>
<path d="M372.83 329.25C370.33 332.88 366.24 334.13 362.56 335.89C355.01 339.5 347.21 342.6 339.61 346.12C337.09 347.29 334.52 348.45 331.84 349.3" stroke="#2071B5" stroke-width="4.20561" stroke-linecap="round" stroke-linejoin="round"/>
<path d="M395.55 349.751C388.78 352.601 382.17 355.811 375.49 358.851C369.71 361.481 364.03 364.311 358.13 366.681" stroke="#2071B5" stroke-width="4.20561" stroke-linecap="round" stroke-linejoin="round"/>
<path d="M157.21 146.16C156.17 147.16 156.35 148.64 156.41 149.72C156.71 154.55 156.51 159.38 156.52 164.2C156.54 173.78 156.9 183.35 156.77 192.93" stroke="#2071B5" stroke-width="4.20561" stroke-linecap="round" stroke-linejoin="round"/>
<path d="M185.28 197.841C184.06 202.221 184.76 204.381 189.97 206.721C197.23 209.971 204.75 210.621 212.46 208.331C213.97 207.881 215.54 207.591 216.91 206.761" stroke="#2071B5" stroke-width="4.20561" stroke-linecap="round" stroke-linejoin="round"/>
<path d="M180.82 347.741C180.68 359.771 180.86 371.801 180.7 383.831C180.62 389.911 180.69 396.011 180.81 402.091C180.81 402.461 181.01 402.901 180.6 403.201" stroke="#2071B5" stroke-width="4.20561" stroke-linecap="round" stroke-linejoin="round"/>
<path d="M125.14 305.639C127.9 311.569 129.16 317.819 128.92 324.349C128.72 329.789 127.16 334.699 123.14 338.609C121.84 339.869 120.94 341.709 118.68 341.509C118.09 341.459 118.09 342.029 117.9 342.389" stroke="#2071B5" stroke-width="4.20561" stroke-linecap="round" stroke-linejoin="round"/>
<path d="M114.89 304.749C118.54 311.429 120.76 318.559 121.31 326.139C121.64 330.669 120.53 334.999 118.46 339.059" stroke="#2071B5" stroke-width="4.20561" stroke-linecap="round" stroke-linejoin="round"/>
<path d="M133.94 145.051C134.19 147.221 132.82 148.481 131.38 149.731C129.01 151.811 126.09 152.681 123.13 153.251C117.8 154.281 112.6 153.891 107.76 151.071C104.98 149.451 104.45 148.201 105.07 145.041C105.66 142.031 105.62 138.901 105.21 135.931C104.67 132.001 106.25 129.421 109.35 127.721C115.28 124.461 121.61 124.421 127.53 127.351C131.63 129.381 134.03 133.181 133.84 138.141C133.75 140.361 133.83 142.591 133.83 144.821" fill="#FFDA00" fill-opacity="0.7"/>
<path d="M133.94 145.051C134.19 147.221 132.82 148.481 131.38 149.731C129.01 151.811 126.09 152.681 123.13 153.251C117.8 154.281 112.6 153.891 107.76 151.071C104.98 149.451 104.45 148.201 105.07 145.041C105.66 142.031 105.62 138.901 105.21 135.931C104.67 132.001 106.25 129.421 109.35 127.721C115.28 124.461 121.61 124.421 127.53 127.351C131.63 129.381 134.03 133.181 133.84 138.141C133.75 140.361 133.83 142.591 133.83 144.821" stroke="#2071B5" stroke-width="4.20561" stroke-linecap="round" stroke-linejoin="round"/>
<path d="M148.08 222.12C147.72 222.83 147.86 223.6 147.86 224.35C147.86 231.4 147.85 238.46 147.86 245.51C147.86 247.81 147.39 250.09 147.79 252.43C147.94 253.34 147.52 254.47 146.52 255.02C139.72 251.6 132.81 248.96 125.14 252.42" stroke="#2071B5" stroke-width="4.20561" stroke-linecap="round" stroke-linejoin="round"/>
<path d="M397.55 217.44C396.8 218.09 396.64 218.94 396.65 219.89C396.68 222.64 396.52 225.39 396.69 228.13C397.08 234.59 396.77 241.05 396.89 247.51C396.91 248.38 396.7 249.32 397.56 249.96" stroke="#2071B5" stroke-width="4.20561" stroke-linecap="round" stroke-linejoin="round"/>
<path d="M72.1297 302.52C71.3697 305.67 70.6797 308.79 70.7497 312.1C70.9297 320.33 73.2397 327.83 77.9197 334.6" stroke="#2071B5" stroke-width="4.20561" stroke-linecap="round" stroke-linejoin="round"/>
<path d="M293.31 75.3305C294.09 76.7505 293.61 78.4805 291.97 80.0005C289.45 82.3505 286.29 83.7205 283.05 84.1205C278.66 84.6605 274.15 84.6305 270.12 82.0405C268.77 81.1705 267.23 80.1905 267.39 78.6805C267.51 77.4705 267.38 76.2905 267.43 75.1005C267.54 72.8005 267.12 70.4505 267.35 68.2105C267.6 65.6805 268.34 63.1805 271.24 61.9205C277.02 59.4205 282.73 59.6405 288.4 62.0005C291.15 63.1405 293.07 66.7805 292.87 69.7605C292.85 70.1305 292.88 70.5005 292.87 70.8705C292.8 72.3605 293.27 73.9605 292.6 75.3005C291.34 77.8505 288.98 79.2605 286.4 80.2105C280.05 82.5505 274.04 82.1405 268.6 77.7705C268.37 77.5905 268.17 77.5505 267.92 77.5605" fill="#FFDA00" fill-opacity="0.7"/>
<path d="M293.31 75.3305C294.09 76.7505 293.61 78.4805 291.97 80.0005C289.45 82.3505 286.29 83.7205 283.05 84.1205C278.66 84.6605 274.15 84.6305 270.12 82.0405C268.77 81.1705 267.23 80.1905 267.39 78.6805C267.51 77.4705 267.38 76.2905 267.43 75.1005C267.54 72.8005 267.12 70.4505 267.35 68.2105C267.6 65.6805 268.34 63.1805 271.24 61.9205C277.02 59.4205 282.73 59.6405 288.4 62.0005C291.15 63.1405 293.07 66.7805 292.87 69.7605C292.85 70.1305 292.88 70.5005 292.87 70.8705C292.8 72.3605 293.27 73.9605 292.6 75.3005C291.34 77.8505 288.98 79.2605 286.4 80.2105C280.05 82.5505 274.04 82.1405 268.6 77.7705C268.37 77.5905 268.17 77.5505 267.92 77.5605" stroke="#2071B5" stroke-width="4.20561" stroke-linecap="round" stroke-linejoin="round"/>
<path d="M135.39 304.311C137.01 309.151 137.94 314.111 137.83 319.231C137.79 320.971 137.76 322.721 136.99 324.371C136.85 324.681 136.8 325.031 136.51 325.241C133.96 327.041 133.08 330.091 131.16 332.371C130.53 333.121 129.83 333.821 128.72 333.711" stroke="#2071B5" stroke-width="4.20561" stroke-linecap="round" stroke-linejoin="round"/>
<path d="M255.22 230.8C251 232.36 246.91 234.22 242.76 235.96C236.96 238.39 231.21 240.93 225.37 243.27" stroke="#2071B5" stroke-width="4.20561" stroke-linecap="round" stroke-linejoin="round"/>
<path d="M407.13 189.371C403.52 189.701 400.83 191.791 398.21 194.031C397.83 194.361 397.61 194.731 397.57 195.161C397.34 197.421 396.8 199.601 399.05 201.471C400.49 202.671 400.97 204.771 401.8 206.511C404.84 212.921 407.24 219.531 408.37 226.561C408.55 227.691 408.22 228.941 409.14 229.901" stroke="#2071B5" stroke-width="4.20561" stroke-linecap="round" stroke-linejoin="round"/>
<path d="M130.93 130.791C130.36 133.031 129.98 135.311 127.61 136.611C124.87 138.111 122.04 138.991 118.91 139.051C116.69 139.091 114.58 138.731 112.44 138.161C109.1 137.271 107.12 135.151 106.21 131.901" stroke="#2071B5" stroke-width="4.20561" stroke-linecap="round" stroke-linejoin="round"/>
<path d="M217.35 185.141C215.79 189.821 212.03 192.421 206.88 192.501C203.27 192.561 199.75 192.351 196.4 190.741C194.57 189.861 193.26 188.561 192.18 186.921" stroke="#2071B5" stroke-width="4.20561" stroke-linecap="round" stroke-linejoin="round"/>
<path d="M377.28 114.529C379.35 116.599 378.99 118.679 375.93 120.289C370.88 122.949 362.93 123.039 357.69 119.199C356.76 118.519 356.33 117.439 355.68 116.529" stroke="#2071B5" stroke-width="4.20561" stroke-linecap="round" stroke-linejoin="round"/>
<path d="M104.65 153.731C110.57 157.011 116.96 158.071 123.57 157.211C126.51 156.831 129.16 155.111 131.82 153.731" stroke="#2071B5" stroke-width="4.20561" stroke-linecap="round" stroke-linejoin="round"/>
<path d="M326.5 381.371C323.14 382.571 319.94 384.131 316.7 385.611C311.23 388.121 305.75 390.611 300.21 392.951" stroke="#2071B5" stroke-width="4.20561" stroke-linecap="round" stroke-linejoin="round"/>
<path d="M252.55 184.03C247.12 185.97 241.85 188.31 236.51 190.49C233.09 191.89 229.79 193.57 226.27 194.73" stroke="#2071B5" stroke-width="4.20561" stroke-linecap="round" stroke-linejoin="round"/>
<path d="M106.88 127.451C100.48 130.711 93.7303 133.201 87.2803 136.361C86.0703 136.951 84.9503 137.651 83.9203 138.571C82.0303 140.251 81.6103 142.481 83.5303 145.251C84.1403 146.131 84.9303 146.981 85.9403 147.501" stroke="#2071B5" stroke-width="4.20561" stroke-linecap="round" stroke-linejoin="round"/>
<path d="M396.44 335.49C393.96 335.62 392.05 337.28 389.76 337.95C380.43 340.7 372.19 345.86 363.49 349.99C363.17 350.14 362.89 350.14 362.59 350.19" stroke="#2071B5" stroke-width="4.20561" stroke-linecap="round" stroke-linejoin="round"/>
<path d="M291.08 65.9795C289.52 70.0695 285.82 71.1595 282.16 71.6795C278.49 72.1995 274.83 71.6795 271.43 69.6395C270.06 68.8095 269.56 67.2695 268.14 66.6595" stroke="#2071B5" stroke-width="4.20561" stroke-linecap="round" stroke-linejoin="round"/>
<path d="M109.99 384.049C114 386.619 117.81 389.469 121.75 392.139C126.02 395.039 130.23 398.059 134.49 400.979" stroke="#2071B5" stroke-width="4.20561" stroke-linecap="round" stroke-linejoin="round"/>
<path d="M125.14 295.839C129.08 302.599 131 310.029 132.25 317.669C132.39 318.539 132.27 319.449 132.27 320.339" stroke="#2071B5" stroke-width="4.20561" stroke-linecap="round" stroke-linejoin="round"/>
<path d="M85.9397 285.82C87.1297 286.71 88.6297 286.75 89.9497 286.87C96.9197 287.5 102.74 290.36 107.53 295.4C108.36 296.28 109.41 296.96 109.99 298.07" stroke="#2071B5" stroke-width="4.20561" stroke-linecap="round" stroke-linejoin="round"/>
<path d="M351.89 369.791C348.14 371.171 344.63 373.101 340.96 374.661C336.55 376.531 332.34 378.831 327.83 380.481" stroke="#2071B5" stroke-width="4.20561" stroke-linecap="round" stroke-linejoin="round"/>
<path d="M352.78 135.471C359.29 140.181 366.52 140.121 373.93 138.551C374.6 138.411 375.23 138.101 375.94 138.141" stroke="#2071B5" stroke-width="4.20561" stroke-linecap="round" stroke-linejoin="round"/>
<path d="M323.82 78.4492C330.85 82.2392 337.69 86.3692 344.53 90.4892C345.33 90.9692 346.18 91.3592 346.99 91.8092" stroke="#2071B5" stroke-width="4.20561" stroke-linecap="round" stroke-linejoin="round"/>
<path d="M402.01 143.71C402.6 144.19 402.45 144.87 402.45 145.49C402.45 149.57 402.49 153.66 402.45 157.74C402.4 161.55 400.68 163.8 397.12 164.87" stroke="#2071B5" stroke-width="4.20561" stroke-linecap="round" stroke-linejoin="round"/>
<path d="M190.18 438.84C197.9 443.93 205.93 444.06 214.24 440.41C216.89 439.25 219.51 438 222.25 437.06" stroke="#2071B5" stroke-width="4.20561" stroke-linecap="round" stroke-linejoin="round"/>
<path d="M190.18 430.381C194.59 432.941 199.35 434.121 204.44 433.941C207.22 433.841 209.9 433.291 212.46 432.171" stroke="#2071B5" stroke-width="4.20561" stroke-linecap="round" stroke-linejoin="round"/>
<path d="M153.21 404.979C160.56 409.769 167.71 414.859 175.04 419.679" stroke="#2071B5" stroke-width="4.20561" stroke-linecap="round" stroke-linejoin="round"/>
<path d="M350.11 142.6C345.04 144.46 340.12 146.67 335.18 148.81C332.98 149.76 330.7 150.53 328.28 151.86C328.28 147.72 328.28 143.94 328.28 140.15" stroke="#2071B5" stroke-width="4.20561" stroke-linecap="round" stroke-linejoin="round"/>
<path d="M128.26 388.061C135.39 392.811 142.52 397.561 149.64 402.321" stroke="#2071B5" stroke-width="4.20561" stroke-linecap="round" stroke-linejoin="round"/>
<path d="M108.66 287.38C104.6 285.24 100.47 283.35 95.74 283.36C93.73 283.36 91.86 283.99 89.94 284.46C89.23 284.63 88.46 285.06 87.72 284.48" stroke="#2071B5" stroke-width="4.20561" stroke-linecap="round" stroke-linejoin="round"/>
<path d="M354.78 129.01C361.24 134.99 373.09 134.39 379.05 129.22C379.73 128.63 380.33 128.07 381.29 128.12" stroke="#2071B5" stroke-width="4.20561" stroke-linecap="round" stroke-linejoin="round"/>
<path d="M167.46 353.31C163.02 354.95 158.69 356.85 154.35 358.74C152.41 359.58 150.34 360.15 148.49 361.27C147.4 361.93 146.13 361.37 145.18 360.44" stroke="#2071B5" stroke-width="4.20561" stroke-linecap="round" stroke-linejoin="round"/>
<path d="M254.33 104.729C249.04 106.669 243.93 109.029 238.74 111.189C237.42 111.739 236.11 112.349 234.73 112.749" stroke="#2071B5" stroke-width="4.20561" stroke-linecap="round" stroke-linejoin="round"/>
<path d="M396.21 146.379C396.81 147.199 396.65 148.139 396.65 149.049C396.65 159.739 396.51 170.439 396.74 181.119C396.81 184.469 396.47 187.799 396.64 191.149C396.69 192.159 396.72 193.109 397.55 193.819" stroke="#2071B5" stroke-width="4.20561" stroke-linecap="round" stroke-linejoin="round"/>
<path d="M303.78 209.86C300.01 211.28 296.37 213 292.64 214.53C289.96 215.63 287.37 216.93 284.62 217.88" stroke="#2071B5" stroke-width="4.20561" stroke-linecap="round" stroke-linejoin="round"/>
<path d="M293.53 61.0693C300.04 64.4093 306.26 68.2693 312.69 71.7593" stroke="#2071B5" stroke-width="4.20561" stroke-linecap="round" stroke-linejoin="round"/>
<path d="M77.92 329.03C82.06 325.82 86.29 322.71 90.43 319.5C91.32 318.81 91.46 318.35 91.07 317.45C88.7 311.99 85.46 307.39 79.73 304.92C78.57 304.42 77.62 304.87 76.59 304.76" stroke="#2071B5" stroke-width="4.20561" stroke-linecap="round" stroke-linejoin="round"/>
<path d="M295.76 113.199C302.11 116.729 308.16 120.749 314.47 124.339" stroke="#2071B5" stroke-width="4.20561" stroke-linecap="round" stroke-linejoin="round"/>
<path d="M279.05 220.329C273.31 223.049 267.33 225.229 261.67 228.109C261.49 228.199 261.23 228.119 261.01 228.119" stroke="#2071B5" stroke-width="4.20561" stroke-linecap="round" stroke-linejoin="round"/>
<path d="M105.32 145.49C106.99 146.7 108.19 148.48 110.21 149.3C114.06 150.86 118.01 150.83 122.02 150.39C126.12 149.94 129.78 148.59 132.52 145.3C132.7 145.09 133.17 144.83 133.6 144.83" stroke="#2071B5" stroke-width="4.20561" stroke-linecap="round" stroke-linejoin="round"/>
<path d="M310.01 89.1411C315.69 92.4911 321.26 96.0311 326.94 99.3911" stroke="#2071B5" stroke-width="4.20561" stroke-linecap="round" stroke-linejoin="round"/>
<path d="M381.51 152.18C382 154.84 381.66 157.53 381.72 160.2C381.78 163.09 381.73 165.99 381.73 168.89" stroke="#2071B5" stroke-width="4.20561" stroke-linecap="round" stroke-linejoin="round"/>
<path d="M91.5099 319.45C93.5399 322.74 94.1199 326.38 93.9199 330.14C93.8399 331.67 91.8199 333.05 90.1799 333.28C88.4699 333.52 86.8599 334.43 85.0499 334.15" stroke="#2071B5" stroke-width="4.20561" stroke-linecap="round" stroke-linejoin="round"/>
<path d="M155.88 367.56C161.42 370.94 166.7 374.71 172.14 378.25C172.19 378.28 172.29 378.25 172.36 378.25" stroke="#2071B5" stroke-width="4.20561" stroke-linecap="round" stroke-linejoin="round"/>
<path d="M125.14 325.69C124.32 330.67 123.24 335.54 119.81 339.51C119.45 339.92 118.97 340.37 119.13 341.06" stroke="#2071B5" stroke-width="4.20561" stroke-linecap="round" stroke-linejoin="round"/>
<path d="M103.09 175.341C102.43 177.641 103.19 179.941 103.11 182.251C103.01 185.071 103.09 187.891 103.09 190.711" stroke="#2071B5" stroke-width="4.20561" stroke-linecap="round" stroke-linejoin="round"/>
<path d="M368.59 157.521C369.1 160.701 368.7 163.911 368.8 167.101C368.86 168.951 368.81 170.811 368.81 172.671" stroke="#2071B5" stroke-width="4.20561" stroke-linecap="round" stroke-linejoin="round"/>
<path d="M292.19 83.7905C284.74 87.8805 276.97 87.8205 269.03 85.5705" stroke="#2071B5" stroke-width="4.20561" stroke-linecap="round" stroke-linejoin="round"/>
<path d="M111.78 284.709C108.03 282.599 104.08 281.059 99.7499 280.719C99.0499 280.659 98.5099 280.399 97.9699 280.029" stroke="#2071B5" stroke-width="4.20561" stroke-linecap="round" stroke-linejoin="round"/>
<path d="M161.67 341.73C158.3 344.07 154.41 345.33 150.73 347.03C150.15 347.3 149.19 347.35 148.53 346.75" stroke="#2071B5" stroke-width="4.20561" stroke-linecap="round" stroke-linejoin="round"/>
<path d="M276.16 95.8193C271.96 96.8893 268.15 98.9693 264.14 100.529C263.82 100.649 263.54 100.679 263.24 100.719" stroke="#2071B5" stroke-width="4.20561" stroke-linecap="round" stroke-linejoin="round"/>
<path d="M322.93 138.14C318.62 139.91 314.44 141.99 310.01 143.49" stroke="#2071B5" stroke-width="4.20561" stroke-linecap="round" stroke-linejoin="round"/>
<path d="M142.96 363.11C138.86 364.6 134.94 366.53 130.95 368.26C130.63 368.4 130.35 368.41 130.05 368.45" stroke="#2071B5" stroke-width="4.20561" stroke-linecap="round" stroke-linejoin="round"/>
<path d="M198.2 185.809C196.87 186.329 197.66 186.919 198.2 187.359C200.71 189.339 203.7 189.259 206.65 189.129C207.85 189.079 209 188.589 210.21 188.489" stroke="#2071B5" stroke-width="4.20561" stroke-linecap="round" stroke-linejoin="round"/>
<path d="M150.09 257.979C154.66 260.949 158.4 264.799 161.67 269.119" stroke="#2071B5" stroke-width="4.20561" stroke-linecap="round" stroke-linejoin="round"/>
<path d="M129.59 183.58C133.8 185.63 137.39 188.69 141.62 190.71" stroke="#2071B5" stroke-width="4.20561" stroke-linecap="round" stroke-linejoin="round"/>
<path d="M128.7 355.09C128.68 359.1 128.72 363.11 128.54 367.12C128.5 367.96 127.6 368.98 128.7 369.79" stroke="#2071B5" stroke-width="4.20561" stroke-linecap="round" stroke-linejoin="round"/>
<path d="M124.25 253.299C121.21 253.069 119.13 255.419 116.47 256.239C115.2 256.629 114 257.239 112.68 257.559C111.79 257.779 110.88 258.199 110.67 259.309" stroke="#2071B5" stroke-width="4.20561" stroke-linecap="round" stroke-linejoin="round"/>
<path d="M113.11 261.989C109.58 261.689 106.4 262.649 103.55 264.689C102.83 265.209 102.28 265.889 101.31 265.329" stroke="#2071B5" stroke-width="4.20561" stroke-linecap="round" stroke-linejoin="round"/>
<path d="M119.35 361.549C115.76 362.809 112.54 364.869 109.12 366.489C108.84 366.619 108.13 366.389 108.21 367.119" stroke="#2071B5" stroke-width="4.20561" stroke-linecap="round" stroke-linejoin="round"/>
<path d="M300.66 85.5791C296.91 86.9591 293.28 88.6491 289.52 90.0291" stroke="#2071B5" stroke-width="4.20561" stroke-linecap="round" stroke-linejoin="round"/>
<path d="M330.95 307.871C334.76 309.941 338.3 312.451 342.09 314.551" stroke="#2071B5" stroke-width="4.20561" stroke-linecap="round" stroke-linejoin="round"/>
<path d="M179.93 403.201C181.37 403.121 181.03 404.481 180.97 404.971C180.59 408.541 180.97 412.111 180.82 415.671" stroke="#2071B5" stroke-width="4.20561" stroke-linecap="round" stroke-linejoin="round"/>
<path d="M146.97 349.751V360.441" stroke="#2071B5" stroke-width="4.20561" stroke-linecap="round" stroke-linejoin="round"/>
<path d="M126.25 164.43C126.58 167.69 125.93 170.97 126.47 174.23" stroke="#2071B5" stroke-width="4.20561" stroke-linecap="round" stroke-linejoin="round"/>
<path d="M317.14 204.07C313.82 205.27 310.73 207.05 307.34 208.08" stroke="#2071B5" stroke-width="4.20561" stroke-linecap="round" stroke-linejoin="round"/>
<path d="M226.71 178.679C223.45 179.859 220.24 181.149 217.13 182.689" stroke="#2071B5" stroke-width="4.20561" stroke-linecap="round" stroke-linejoin="round"/>
<path d="M86.6097 164.87C86.2097 166.94 86.2397 169.05 86.4397 171.1C86.7397 174.3 86.4597 177.49 86.6197 180.68C86.6497 181.28 86.1397 181.56 85.9397 182.02" stroke="#2071B5" stroke-width="4.20561" stroke-linecap="round" stroke-linejoin="round"/>
<path d="M373.27 107.399C376.5 108.989 379.45 111.059 382.63 112.749" stroke="#2071B5" stroke-width="4.20561" stroke-linecap="round" stroke-linejoin="round"/>
<path d="M201.32 228.801C201.32 233.251 201.32 237.711 201.32 242.161C201.32 242.911 201.18 243.671 201.54 244.391" stroke="#2071B5" stroke-width="4.20561" stroke-linecap="round" stroke-linejoin="round"/>
<path d="M181.05 224.34C180.58 228.27 180.92 232.21 180.82 236.14C180.77 237.85 181.07 239.57 180.61 241.26" stroke="#2071B5" stroke-width="4.20561" stroke-linecap="round" stroke-linejoin="round"/>
<path d="M83.71 286.71C86.28 288.08 89.29 288.37 91.75 290.01C91.99 290.17 92.19 290.6 92.62 290.49" stroke="#2071B5" stroke-width="4.20561" stroke-linecap="round" stroke-linejoin="round"/>
<path d="M120.24 354.649C117.32 356.099 114.44 357.639 111.33 358.659" stroke="#2071B5" stroke-width="4.20561" stroke-linecap="round" stroke-linejoin="round"/>
<path d="M275.71 66.8696C278.28 68.8896 281.24 68.4896 284.17 68.2096" stroke="#2071B5" stroke-width="4.20561" stroke-linecap="round" stroke-linejoin="round"/>
<path d="M183.94 166.65C186.91 168.2 189.43 170.45 192.4 172" stroke="#2071B5" stroke-width="4.20561" stroke-linecap="round" stroke-linejoin="round"/>
<path d="M212.68 425.03C213.09 429.48 212.81 433.94 212.91 438.39C212.93 439.21 212.75 440.05 213.13 440.84" stroke="#2071B5" stroke-width="4.20561" stroke-linecap="round" stroke-linejoin="round"/>
<path d="M102.42 371.13C105.39 372.68 107.91 374.93 110.88 376.48" stroke="#2071B5" stroke-width="4.20561" stroke-linecap="round" stroke-linejoin="round"/>
<path d="M128.93 192.271C128.3 194.991 129.09 197.791 128.54 200.521C128.5 200.701 129.04 201.341 129.6 201.401" stroke="#2071B5" stroke-width="4.20561" stroke-linecap="round" stroke-linejoin="round"/>
<path d="M109.99 171.551C112.76 173.031 115.24 174.971 118.01 176.451" stroke="#2071B5" stroke-width="4.20561" stroke-linecap="round" stroke-linejoin="round"/>
<path d="M279.05 196.28C279.56 200.13 279.1 204 279.28 207.86C279.33 208.9 279.06 209.97 279.5 210.98" stroke="#2071B5" stroke-width="4.20561" stroke-linecap="round" stroke-linejoin="round"/>
<path d="M306.45 145.271C303.7 146.101 301.2 147.611 298.43 148.391" stroke="#2071B5" stroke-width="4.20561" stroke-linecap="round" stroke-linejoin="round"/>
<path d="M175.48 146.16C172.72 146.96 170.23 148.48 167.46 149.28" stroke="#2071B5" stroke-width="4.20561" stroke-linecap="round" stroke-linejoin="round"/>
<path d="M171.47 158.63C174.24 160.11 176.72 162.05 179.49 163.53" stroke="#2071B5" stroke-width="4.20561" stroke-linecap="round" stroke-linejoin="round"/>
<path d="M136.28 158.63C133.65 159.91 131.1 161.39 128.26 162.19" stroke="#2071B5" stroke-width="4.20561" stroke-linecap="round" stroke-linejoin="round"/>
<path d="M322.04 154.63C319.29 155.46 316.79 156.97 314.02 157.75" stroke="#2071B5" stroke-width="4.20561" stroke-linecap="round" stroke-linejoin="round"/>
<path d="M368.59 173.559C369.23 176.129 368.38 178.789 369.04 181.359" stroke="#2071B5" stroke-width="4.20561" stroke-linecap="round" stroke-linejoin="round"/>
<path d="M181.27 233.921C183.8 235.251 186.24 236.741 188.84 237.931" stroke="#2071B5" stroke-width="4.20561" stroke-linecap="round" stroke-linejoin="round"/>
<path d="M147.41 204.959C147.41 207.109 147.41 209.269 147.41 211.419C147.41 212.089 147.16 212.939 148.3 212.979" stroke="#2071B5" stroke-width="4.20561" stroke-linecap="round" stroke-linejoin="round"/>
<path d="M189.96 424.59C189.46 427.25 189.83 429.94 189.73 432.61C189.59 436.54 190.01 440.49 189.51 444.42" stroke="#2071B5" stroke-width="4.20561" stroke-linecap="round" stroke-linejoin="round"/>
<path d="M278.83 89.1411C278.83 93.0811 278.85 97.0111 278.81 100.941C278.81 101.451 279.21 102.171 278.39 102.501" stroke="#2071B5" stroke-width="4.20561" stroke-linecap="round" stroke-linejoin="round"/>
<path d="M168.8 207.641C171.36 209.061 173.81 210.681 176.37 212.091" stroke="#2071B5" stroke-width="4.20561" stroke-linecap="round" stroke-linejoin="round"/>
<path d="M224.04 427.931C224.17 430.451 223.77 432.991 224.26 435.501" stroke="#2071B5" stroke-width="4.20561" stroke-linecap="round" stroke-linejoin="round"/>
<path d="M115.34 192.49C117.97 193.8 120.31 195.59 122.91 196.94" stroke="#2071B5" stroke-width="4.20561" stroke-linecap="round" stroke-linejoin="round"/>
<path d="M388.86 327.47C389.22 331.04 388.11 334.59 388.64 338.16" stroke="#2071B5" stroke-width="4.20561" stroke-linecap="round" stroke-linejoin="round"/>
<path d="M358.13 98.5005C360.63 99.6205 362.76 101.39 365.26 102.51" stroke="#2071B5" stroke-width="4.20561" stroke-linecap="round" stroke-linejoin="round"/>
<path d="M282.39 105.179C284.89 106.299 287.02 108.069 289.52 109.189" stroke="#2071B5" stroke-width="4.20561" stroke-linecap="round" stroke-linejoin="round"/>
<path d="M365.7 167.54C363.37 168.16 361.35 169.59 359.02 170.21" stroke="#2071B5" stroke-width="4.20561" stroke-linecap="round" stroke-linejoin="round"/>
<path d="M128.93 201.619C128.32 203.819 129.09 206.109 128.48 208.299" stroke="#2071B5" stroke-width="4.20561" stroke-linecap="round" stroke-linejoin="round"/>
<path d="M157.21 416.57C159.44 418.05 161.66 419.54 163.89 421.02" stroke="#2071B5" stroke-width="4.20561" stroke-linecap="round" stroke-linejoin="round"/>
<path d="M387.53 119.88C389.86 120.88 391.94 122.33 394.21 123.44" stroke="#2071B5" stroke-width="4.20561" stroke-linecap="round" stroke-linejoin="round"/>
<path d="M395.77 343.729C396.22 345.649 395.92 347.589 395.99 349.519C396.15 353.969 395.71 358.439 396.22 362.879" stroke="#2071B5" stroke-width="4.20561" stroke-linecap="round" stroke-linejoin="round"/>
<path d="M176.82 421.02C179.07 422.47 181.19 424.12 183.5 425.47" stroke="#2071B5" stroke-width="4.20561" stroke-linecap="round" stroke-linejoin="round"/>
<path d="M169.69 425.03C171.92 426.51 174.14 428 176.37 429.48" stroke="#2071B5" stroke-width="4.20561" stroke-linecap="round" stroke-linejoin="round"/>
<path d="M134.94 204.959C137.25 206.159 139.28 207.819 141.62 208.969" stroke="#2071B5" stroke-width="4.20561" stroke-linecap="round" stroke-linejoin="round"/>
<path d="M303.78 111.41C305.98 112.39 307.88 113.89 310.02 114.97" stroke="#2071B5" stroke-width="4.20561" stroke-linecap="round" stroke-linejoin="round"/>
<path d="M112.22 183.14C112.63 185.21 112.37 187.3 112.44 189.38" stroke="#2071B5" stroke-width="4.20561" stroke-linecap="round" stroke-linejoin="round"/>
<path d="M377.28 320.79C376.4 322.88 375.69 325.03 374.61 327.03" stroke="#2071B5" stroke-width="4.20561" stroke-linecap="round" stroke-linejoin="round"/>
<path d="M386.64 354.649C386.76 356.729 386.39 358.819 386.86 360.889" stroke="#2071B5" stroke-width="4.20561" stroke-linecap="round" stroke-linejoin="round"/>
<path d="M112.67 192.05C112.25 193.52 112.46 195.02 112.48 196.5C112.48 197.13 112.19 197.55 112 198.06" stroke="#2071B5" stroke-width="4.20561" stroke-linecap="round" stroke-linejoin="round"/>
<path d="M139.4 376.919C141.46 377.889 143.13 379.509 145.19 380.479" stroke="#2071B5" stroke-width="4.20561" stroke-linecap="round" stroke-linejoin="round"/>
<path d="M115.34 379.591C117.4 380.561 119.07 382.181 121.13 383.151" stroke="#2071B5" stroke-width="4.20561" stroke-linecap="round" stroke-linejoin="round"/>
<path d="M212.9 441.29C213.02 443.07 212.64 444.87 213.12 446.64" stroke="#2071B5" stroke-width="4.20561" stroke-linecap="round" stroke-linejoin="round"/>
<path d="M83.71 155.07C85.58 155.96 87.19 157.3 89.06 158.19" stroke="#2071B5" stroke-width="4.20561" stroke-linecap="round" stroke-linejoin="round"/>
<path d="M201.09 237.93C198.57 238.91 195.96 239.09 193.29 238.83C192.41 238.75 191.51 238.82 190.62 238.82" stroke="#2071B5" stroke-width="4.20561" stroke-linecap="round" stroke-linejoin="round"/>
<path d="M350.55 319.899C352.42 320.789 354.03 322.129 355.9 323.019" stroke="#2071B5" stroke-width="4.20561" stroke-linecap="round" stroke-linejoin="round"/>
<path d="M189.73 220.56C189.25 222.32 189.63 224.13 189.51 225.91" stroke="#2071B5" stroke-width="4.20561" stroke-linecap="round" stroke-linejoin="round"/>
<path d="M330.95 102.06C332.82 102.95 334.43 104.29 336.3 105.18" stroke="#2071B5" stroke-width="4.20561" stroke-linecap="round" stroke-linejoin="round"/>
<path d="M189.73 213.87C189.07 215.61 190.36 217.51 189.28 219.22" stroke="#2071B5" stroke-width="4.20561" stroke-linecap="round" stroke-linejoin="round"/>
<path d="M296.65 121.21C298.52 122.1 300.13 123.44 302 124.33" stroke="#2071B5" stroke-width="4.20561" stroke-linecap="round" stroke-linejoin="round"/>
<path d="M349.22 304.749C351.09 305.639 352.7 306.979 354.57 307.869" stroke="#2071B5" stroke-width="4.20561" stroke-linecap="round" stroke-linejoin="round"/>
<path d="M279.28 189.82C279.39 191.53 279.04 193.25 279.5 194.94" stroke="#2071B5" stroke-width="4.20561" stroke-linecap="round" stroke-linejoin="round"/>
<path d="M175.48 230.359C177.2 231.179 178.66 232.439 180.38 233.259" stroke="#2071B5" stroke-width="4.20561" stroke-linecap="round" stroke-linejoin="round"/>
<path d="M83.0401 149.95C83.0201 153.07 83.3301 156.18 83.2601 159.31C83.2501 159.91 83.3501 160.53 83.0401 161.09" stroke="#2071B5" stroke-width="4.20561" stroke-linecap="round" stroke-linejoin="round"/>
<path d="M267.03 75.9989C265.21 75.7489 264.03 77.3989 262.35 77.5589" stroke="#2071B5" stroke-width="4.20561" stroke-linecap="round" stroke-linejoin="round"/>
<path d="M209.78 413.229V417.909" stroke="#2071B5" stroke-width="4.20561" stroke-linecap="round" stroke-linejoin="round"/>
<path d="M326.5 131.909C326.95 132.129 327.44 132.289 327.83 132.589C328.89 133.389 329.71 134.259 328.74 135.709C328.07 136.719 328.25 137.909 328.3 139.039C328.33 139.769 328.12 140.069 327.39 139.929" stroke="#2071B5" stroke-width="4.20561" stroke-linecap="round" stroke-linejoin="round"/>
<path d="M283.29 155.07C281.85 155.21 280.79 156.48 279.28 156.41" stroke="#2071B5" stroke-width="4.20561" stroke-linecap="round" stroke-linejoin="round"/>
<path d="M86.3801 330.589C86.9501 331.649 87.9301 332.309 88.8301 333.039" stroke="#2071B5" stroke-width="4.20561" stroke-linecap="round" stroke-linejoin="round"/>
<path d="M223.81 419.91C224.19 420.7 223.98 421.54 224.03 422.36" stroke="#2071B5" stroke-width="4.20561" stroke-linecap="round" stroke-linejoin="round"/>
<path d="M192.85 341.729C192.06 341.649 191.45 342.459 190.62 342.179" stroke="#2071B5" stroke-width="4.20561" stroke-linecap="round" stroke-linejoin="round"/>
<path d="M366.59 315.441C367.19 315.731 367.78 316.041 368.37 316.331" stroke="#2071B5" stroke-width="4.20561" stroke-linecap="round" stroke-linejoin="round"/>
<path d="M187.51 437.06C188.17 437.33 188.56 438.02 189.29 438.17" stroke="#2071B5" stroke-width="4.20561" stroke-linecap="round" stroke-linejoin="round"/>
<path d="M220.92 197.389C220.72 196.489 220.02 197.129 219.58 196.939" stroke="#2071B5" stroke-width="4.20561" stroke-linecap="round" stroke-linejoin="round"/>
<path d="M136.28 136.36C135.59 137.23 134.63 136.58 133.83 136.81" stroke="#2071B5" stroke-width="4.20561" stroke-linecap="round" stroke-linejoin="round"/>
<path d="M136.05 337.051C135.58 336.641 135.02 336.871 134.49 336.831" stroke="#2071B5" stroke-width="4.20561" stroke-linecap="round" stroke-linejoin="round"/>
</svg>
