<svg width="500" height="500" viewBox="0 0 500 500" fill="none" xmlns="http://www.w3.org/2000/svg">
<path d="M258.67 265.67C263.56 263.19 268.13 260.14 272.88 257.41C289.93 247.6 306.87 237.6 323.79 227.55C333.75 221.64 343.86 215.98 353.65 209.8C356.4 208.06 358.84 205.87 361.69 204.24C368.18 200.51 374.61 196.7 381.05 192.89C384.84 190.65 389.01 188.85 391.62 184.93C393.4 182.26 394.44 179.39 394.45 176.26C394.49 136.29 394.48 96.3101 394.47 56.3401C394.47 51.5301 389.49 48.5301 385.21 50.7901C379.28 53.9201 373.78 57.7501 368.11 61.3001C359.19 66.8801 350.28 72.4701 341.33 78.0101C338.6 79.7001 335.75 81.2601 333.28 83.3501C329.23 86.7801 327.19 91.3501 325.6 96.3101C323.51 102.8 321.27 109.25 319.08 115.7C315.54 126.13 312.14 136.6 308.51 147C304.46 158.59 300.66 170.25 296.68 181.86C291.38 197.33 286.24 212.86 281.16 228.4C280.72 229.76 280.14 230.76 278.71 231.55C269.07 236.84 259.73 242.63 250.23 248.16C249.82 248.4 249.58 248.76 249.21 249.01" fill="#FFDA00" fill-opacity="0.7"/>
<path d="M258.67 265.67C263.56 263.19 268.13 260.14 272.88 257.41C289.93 247.6 306.87 237.6 323.79 227.55C333.75 221.64 343.86 215.98 353.65 209.8C356.4 208.06 358.84 205.87 361.69 204.24C368.18 200.51 374.61 196.7 381.05 192.89C384.84 190.65 389.01 188.85 391.62 184.93C393.4 182.26 394.44 179.39 394.45 176.26C394.49 136.29 394.48 96.3101 394.47 56.3401C394.47 51.5301 389.49 48.5301 385.21 50.7901C379.28 53.9201 373.78 57.7501 368.11 61.3001C359.19 66.8801 350.28 72.4701 341.33 78.0101C338.6 79.7001 335.75 81.2601 333.28 83.3501C329.23 86.7801 327.19 91.3501 325.6 96.3101C323.51 102.8 321.27 109.25 319.08 115.7C315.54 126.13 312.14 136.6 308.51 147C304.46 158.59 300.66 170.25 296.68 181.86C291.38 197.33 286.24 212.86 281.16 228.4C280.72 229.76 280.14 230.76 278.71 231.55C269.07 236.84 259.73 242.63 250.23 248.16C249.82 248.4 249.58 248.76 249.21 249.01" stroke="#2071B5" stroke-width="4.21" stroke-linecap="round" stroke-linejoin="round"/>
<path d="M391.36 51.7803C379.88 58.6803 368.74 66.1403 357.36 73.2103C351.44 76.8903 345.63 80.7503 339.64 84.3403C334.44 87.4603 331.8 92.4203 329.95 97.9403C324.16 115.2 318.26 132.42 312.42 149.65C308.21 162.07 304.17 174.56 299.87 186.95C295.99 198.11 292.42 209.38 288.54 220.54C287.33 224.03 286.36 227.6 285.01 231.04C284.77 231.65 285.03 232.03 285.24 232.49" fill="#FFDA00" fill-opacity="0.7"/>
<path d="M391.36 51.7803C379.88 58.6803 368.74 66.1403 357.36 73.2103C351.44 76.8903 345.63 80.7503 339.64 84.3403C334.44 87.4603 331.8 92.4203 329.95 97.9403C324.16 115.2 318.26 132.42 312.42 149.65C308.21 162.07 304.17 174.56 299.87 186.95C295.99 198.11 292.42 209.38 288.54 220.54C287.33 224.03 286.36 227.6 285.01 231.04C284.77 231.65 285.03 232.03 285.24 232.49" stroke="#2071B5" stroke-width="4.21" stroke-linecap="round" stroke-linejoin="round"/>
<path d="M356.95 206.53C356.32 204.86 357.06 203.12 356.4 201.35C354.7 196.84 349.97 194.6 345.21 197.47C328.99 207.26 312.61 216.77 296.34 226.46C292.79 228.58 288.12 232.13 284.13 233.52" stroke="#2071B5" stroke-width="4.21" stroke-linecap="round" stroke-linejoin="round"/>
<path d="M271.44 385.59C272.42 386.63 271.6 387.8 271.6 388.89C271.67 399.95 271.48 411.01 271.71 422.06C271.83 427.94 269.39 432.15 264.84 435.45C259.73 439.15 253.87 440.83 247.74 441.87C243.41 442.61 239.08 442.62 234.76 442.2C231.63 441.9 228.53 441.33 225.47 440.44C221.18 439.2 217.18 437.47 213.75 434.61C210.19 431.63 207.94 427.94 207.96 423.09C207.99 411.35 207.96 399.6 207.98 387.85C207.98 387.08 207.75 386.25 208.38 385.58" stroke="#2071B5" stroke-width="4.21" stroke-linecap="round" stroke-linejoin="round"/>
<path d="M236.83 395.27V448.02" stroke="#2071B5" stroke-width="4.21" stroke-linecap="round" stroke-linejoin="round"/>
<path d="M160.17 321.09C158.47 320.91 159.18 319.24 159.08 318.6C158.59 315.48 157.02 312.96 155.17 310.63C154.25 309.47 153.45 308.12 152.14 307.28C150.28 306.1 148.35 305.68 146.37 306.88C141.24 310.01 136.05 313.04 130.91 316.14C128.51 317.59 126.17 319.2 123.66 320.39C120.28 322 118.17 324.85 115.91 327.51C112.86 331.12 109.84 334.77 106.79 338.38C105.76 339.6 105.16 340.95 105.79 342.5C106.44 344.09 108 344.76 109.47 344.72C115.6 344.54 121.72 343.94 127.59 342.06C130.59 341.1 133.14 339.14 135.84 337.56C142.8 333.48 149.71 329.31 156.69 325.26C158.31 324.32 159.1 323.14 159.54 321.49" fill="#FFDA00" fill-opacity="0.7"/>
<path d="M160.17 321.09C158.47 320.91 159.18 319.24 159.08 318.6C158.59 315.48 157.02 312.96 155.17 310.63C154.25 309.47 153.45 308.12 152.14 307.28C150.28 306.1 148.35 305.68 146.37 306.88C141.24 310.01 136.05 313.04 130.91 316.14C128.51 317.59 126.17 319.2 123.66 320.39C120.28 322 118.17 324.85 115.91 327.51C112.86 331.12 109.84 334.77 106.79 338.38C105.76 339.6 105.16 340.95 105.79 342.5C106.44 344.09 108 344.76 109.47 344.72C115.6 344.54 121.72 343.94 127.59 342.06C130.59 341.1 133.14 339.14 135.84 337.56C142.8 333.48 149.71 329.31 156.69 325.26C158.31 324.32 159.1 323.14 159.54 321.49" stroke="#2071B5" stroke-width="4.21" stroke-linecap="round" stroke-linejoin="round"/>
<path d="M277.21 352C276.84 352.09 276.57 352.25 276.38 352.61C272.37 360.24 265.44 363.93 257.63 366.41C254.08 367.54 250.47 368.4 246.71 368.48C245.53 368.51 244.42 369.1 243.21 368.88" stroke="#2071B5" stroke-width="4.21" stroke-linecap="round" stroke-linejoin="round"/>
<path d="M242.8 368.9C236.18 369.15 229.62 368.58 223.23 366.81C216.64 364.99 210.36 362.43 205.76 357.11C204.01 355.08 201.97 353.12 201.56 350.15C200.62 343.32 203.57 338.2 208.62 334.11C212.23 331.18 216.49 329.38 220.96 328.12C221.34 328.01 221.78 328.11 222.19 328.11" stroke="#2071B5" stroke-width="4.21" stroke-linecap="round" stroke-linejoin="round"/>
<path d="M243.01 396.51V442.29" stroke="#2071B5" stroke-width="4.21" stroke-linecap="round" stroke-linejoin="round"/>
<path d="M257.22 327.89C262.64 328.97 267.38 331.34 271.68 334.85C275.07 337.61 277 341.03 277.81 345.2C277.91 345.73 277.82 346.3 277.82 346.85C277.82 354.95 277.76 363.06 277.84 371.16C277.9 377.61 275.03 382.41 270.01 386.22C264.87 390.12 259.09 392.67 252.87 393.94C247.28 395.08 241.55 395.29 235.78 394.92C230.17 394.55 224.71 393.58 219.52 391.52C213.14 388.99 207.13 385.81 203.63 379.41C202.05 376.51 201.66 373.34 201.6 370.14C201.51 365.33 201.58 360.52 201.57 355.72C201.57 354.77 201.53 353.83 202.19 353.04" stroke="#2071B5" stroke-width="4.21" stroke-linecap="round" stroke-linejoin="round"/>
<path d="M160.38 320.68C161.23 317.07 164.66 316.32 167.21 314.76C174.91 310.05 182.56 305.26 190.44 300.87C191.51 300.28 192.44 299.37 193.56 298.87C195.08 298.19 195.01 296.88 194.74 295.76C193.95 292.51 192.05 289.94 189.21 288.14C187.92 287.32 186.4 287.5 185.34 288.37C181.07 291.87 176.09 294.22 171.46 297.13C166.41 300.3 161.23 303.29 156.07 306.31C155.11 306.87 154.05 307.24 153.16 307.92" stroke="#2071B5" stroke-width="4.21" stroke-linecap="round" stroke-linejoin="round"/>
<path d="M236.35 277.42C236.76 276.36 236.08 274.13 236.01 273.08C235.68 268.37 232.8 263.43 228.41 262.06C226.67 261.52 225.29 261.83 224.08 262.62C219.89 265.36 215.54 267.81 211.29 270.43C204.48 274.64 197.45 278.5 190.63 282.71C190.1 283.04 189.73 283.49 189.22 283.79" stroke="#2071B5" stroke-width="4.21" stroke-linecap="round" stroke-linejoin="round"/>
<path d="M231.67 281.12C233.83 283.48 236.51 284.71 239.71 284.83C241.22 284.89 242.53 284.26 243.83 283.6C248.08 281.45 251.87 278.54 256 276.2C257.96 275.09 258.26 273.38 258.25 271.43C258.25 266.9 258.15 262.36 258.29 257.83C258.36 255.65 257.51 254.2 255.78 253.09C250.77 249.89 245.45 247.23 240.32 244.24C239.35 243.67 238.36 243.32 237.23 244.01C232.27 247.06 227.27 250.03 222.18 252.86C221.09 253.46 221.1 254.74 221.08 255.36C220.98 258.23 220.57 261.15 221.26 264.01" stroke="#2071B5" stroke-width="4.21" stroke-linecap="round" stroke-linejoin="round"/>
<path d="M250.22 283.18C254.48 284.06 257.53 288.25 256.55 292.23C256.16 293.83 256.63 295.27 256.62 296.78C256.59 306.19 256.57 315.6 256.62 325.01C256.64 328.31 256.55 331.62 256.57 334.9C256.59 337.83 256.58 340.81 256.81 343.76C257.06 346.99 255.59 349.33 253.1 351.18C250.15 353.37 246.8 354.43 243.21 354.89" stroke="#2071B5" stroke-width="4.21" stroke-linecap="round" stroke-linejoin="round"/>
<path d="M243.01 300.49V392.39" stroke="#2071B5" stroke-width="4.21" stroke-linecap="round" stroke-linejoin="round"/>
<path d="M236.35 277.42C233.25 279.27 220.04 287.38 218.72 288.17C212.21 292.04 205.71 295.94 199.09 299.62C197.66 300.41 196.44 301.64 194.59 301.8C193.22 301.92 192.09 301.85 191.08 300.91" stroke="#2071B5" stroke-width="4.21" stroke-linecap="round" stroke-linejoin="round"/>
<path d="M236.83 300.69V354.68" stroke="#2071B5" stroke-width="4.21" stroke-linecap="round" stroke-linejoin="round"/>
<path d="M230.65 283.78C225.19 285.37 223.23 287.45 222.65 292.04C222.44 293.73 222.55 295.34 222.61 296.99C222.96 306.33 222.77 315.67 222.81 325.01C222.83 331.6 222.99 338.2 222.74 344.79C222.6 348.43 224.37 350.62 227.16 352.17C232.02 354.88 237.32 355.51 242.8 354.89" stroke="#2071B5" stroke-width="4.21" stroke-linecap="round" stroke-linejoin="round"/>
<path d="M237.03 355.5C236.68 356.23 236.83 357.01 236.83 357.77C236.83 369.72 236.83 381.67 236.83 393.62" stroke="#2071B5" stroke-width="4.21" stroke-linecap="round" stroke-linejoin="round"/>
<path d="M224.05 440.6C224.7 444.83 227.47 447.13 231.26 448.42C237.67 450.61 244.06 450.68 250.19 447.56C253.07 446.09 255.24 443.81 255.77 440.39" stroke="#2071B5" stroke-width="4.21" stroke-linecap="round" stroke-linejoin="round"/>
<path d="M248.98 281.12C249.74 282.1 249.98 283.16 249.84 284.42C249.69 285.71 249.69 287.04 249.83 288.33C250.31 292.97 247.7 293.86 244.65 295.12C242.27 296.1 239.75 296.05 237.24 295.92" stroke="#2071B5" stroke-width="4.21" stroke-linecap="round" stroke-linejoin="round"/>
<path d="M257.22 254.74C252.33 257.9 247.17 260.6 242.17 263.59C240.46 264.61 238.81 264.16 237.23 263.19C232.18 260.06 226.88 257.36 221.78 254.33" stroke="#2071B5" stroke-width="4.21" stroke-linecap="round" stroke-linejoin="round"/>
<path d="M120.2 323.36C123.07 323.9 125.13 325.79 126.73 327.94C128.66 330.55 130.36 333.38 131.01 336.73C131.21 337.78 130.26 338.93 131.33 339.84" fill="#FFDA00" fill-opacity="0.7"/>
<path d="M120.2 323.36C123.07 323.9 125.13 325.79 126.73 327.94C128.66 330.55 130.36 333.38 131.01 336.73C131.21 337.78 130.26 338.93 131.33 339.84" stroke="#2071B5" stroke-width="4.21" stroke-linecap="round" stroke-linejoin="round"/>
<path d="M241.76 264.23C241.76 270.14 241.97 277.89 241.97 283.8" stroke="#2071B5" stroke-width="4.21" stroke-linecap="round" stroke-linejoin="round"/>
<path d="M185.52 288.13C184.67 286.56 185.52 285.36 186.58 284.46C187.52 283.67 188.67 283.76 189.86 284.4C195.38 287.39 197.93 291.99 197.69 298.23C197.67 298.77 197.44 299.37 197.88 299.88" stroke="#2071B5" stroke-width="4.21" stroke-linecap="round" stroke-linejoin="round"/>
<path d="M223.23 294.31C225.55 296.13 227.65 298.25 230.64 299.06C238.16 301.09 245.49 301.44 252.51 297.24C253.87 296.43 254.61 295.01 255.99 294.31" stroke="#2071B5" stroke-width="4.21" stroke-linecap="round" stroke-linejoin="round"/>
<path d="M223.23 335.11C224.09 335.28 224.54 335.99 225.08 336.56C228.05 339.71 232 340.67 236.02 341.23C238.24 341.54 240.55 341.76 242.81 341.29" stroke="#2071B5" stroke-width="4.21" stroke-linecap="round" stroke-linejoin="round"/>
<path d="M256.19 334.9C253.37 337.65 250.26 339.9 246.3 340.65C245.27 340.85 244.29 341.32 243.21 341.28" stroke="#2071B5" stroke-width="4.21" stroke-linecap="round" stroke-linejoin="round"/>
<path d="M237.86 264.02C237.39 267.31 237.99 271.34 237.86 274.64C237.83 275.45 237.86 279.79 237.65 284.59" stroke="#2071B5" stroke-width="4.21" stroke-linecap="round" stroke-linejoin="round"/>
<path d="M231.73 281.46C228.84 289.12 231.83 295.31 236.82 295.96C237.14 296 236.82 295.82 237.03 295.96" stroke="#2071B5" stroke-width="4.21" stroke-linecap="round" stroke-linejoin="round"/>
<path d="M155.85 307.29C158.87 309.59 160.75 312.61 161.42 316.36C161.49 316.78 161.86 317.03 162.04 317.39" stroke="#2071B5" stroke-width="4.21" stroke-linecap="round" stroke-linejoin="round"/>
<path d="M242.8 442.87C242.92 445.05 242.8 447.27 242.9 449.46" stroke="#2071B5" stroke-width="4.21" stroke-linecap="round" stroke-linejoin="round"/>
<path d="M237.65 286.06V294.3" stroke="#2071B5" stroke-width="4.21" stroke-linecap="round" stroke-linejoin="round"/>
<path d="M242.18 286.06V294.3" stroke="#2071B5" stroke-width="4.21" stroke-linecap="round" stroke-linejoin="round"/>
<path d="M280.3 231.05C281.29 232.12 282.59 232.76 283.8 233.52" stroke="#2071B5" stroke-width="4.21" stroke-linecap="round" stroke-linejoin="round"/>
<path d="M237.24 291.22C236.3 290.94 235.29 290.96 234.36 290.6" stroke="#2071B5" stroke-width="4.21" stroke-linecap="round" stroke-linejoin="round"/>
<path d="M245.07 290.19C244.19 290.52 243.27 290.69 242.39 291.01" stroke="#2071B5" stroke-width="4.21" stroke-linecap="round" stroke-linejoin="round"/>
</svg>
