<?xml version="1.0" encoding="UTF-8"?>
<svg id="icons" xmlns="http://www.w3.org/2000/svg" viewBox="0 0 500 500">
  <defs>
    <style>
      .cls-1 {
        fill: none;
        stroke: #000;
        stroke-linecap: round;
        stroke-linejoin: round;
        stroke-width: .92px;
      }
    </style>
  </defs>
  <path class="cls-1" d="M90.17,295.18c-2.88-1.52-6.11-1.7-9.22-2.02-15.01-1.52-27.49,9.9-30.34,23.45-1.16,5.52-.67,11.12.88,16.57,3.87,13.64,9.47,26.47,17.47,38.26,9.04,13.33,20.62,23.77,34.83,31.28,6.38,3.37,13.11,5.92,20.48,5.51,6.06-.34,11.18-2.66,15.27-7.5,4.63-5.49,6.05-11.88,6.67-18.7.14-1.53.07-3.08.35-4.62.2-1.11.39-2.41-.52-3.44"/>
  <path class="cls-1" d="M132.78,266.62c-2.54,2.96-5.42,3.36-8.55,5.49-6.24,4.24-12.39,8.6-18.43,13.13-3.62,2.72-7.41,5.23-11.23,7.68-5.16,3.31-10.39,6.61-15.11,10.47-3.01,2.46-6.33,4.13-9.56,6.08-5.37,3.26-8.83,7.94-10.37,14.05-1.27,5.04-.92,10.09.52,14.96,3.29,11.15,8.01,21.63,14.87,31.15,4.74,6.58,10.15,12.37,16.61,17.28,3.91,2.97,7.89,5.75,12.47,7.55,3.91,1.53,7.95,2.72,12.2,2.28,4.6-.48,8.08-3.05,10.82-6.65,1.6-2.1,3.38-3.92,5.46-5.61,3.6-2.93,7.49-5.5,10.89-8.67,2.48-2.32,5.38-4.1,7.89-6.38,1.01-.92,1.46-1.83,1.56-3.05.14-1.93.74-3.78.74-5.76,0-5.43-1.44-10.55-3.02-15.67-4.03-13.08-11.96-23.65-21.47-33.13-6.57-6.56-13.66-12.54-21.85-17.07-2.3-1.27-4.57-2.67-7.37-2.54"/>
  <path class="cls-1" d="M331.33,231.61c2.45.47,3.61-1.66,5-2.85,3.5-2.98,5.01-7.22,5.32-11.67.95-13.74-4.17-25.77-11.29-37.05-4.83-7.66-11.2-14.02-18.87-18.86-5.14-3.25-10.69-5.82-17.01-5.55-5,.21-9.56,1.75-13.13,5.49"/>
  <path class="cls-1" d="M200.5,219.17c1.33-1.54,3.27-2.26,4.89-3.38,5.8-4,11.15-8.61,17.03-12.46,7.8-5.11,14.89-11.19,22.77-16.18,2.59-3.94,6.78-6.04,10.42-8.68,7.5-5.44,14.85-11.1,22.74-15.98,2.68-1.65,5.72-1.41,8.54-1.49,10.14-.29,18.99,3.48,26.95,9.57,11.07,8.48,17.05,20.24,20.88,33.19,2.3,7.78,2.14,15.79-.92,23.44-.89,2.24-2.25,4.47-4.3,6.02-11.12,8.38-22.25,16.76-33.45,25.03-6.04,4.47-11.87,9.21-17.96,13.6-4.55,3.28-8.84,6.93-13.6,9.88-.91.56-1.36,1.33-1.97,1.98-2.32,2.48-5.66,3.53-7.98,6.09-1.08,1.19-1.33,1.83-.6,3.09,1.82,3.15,2.53,6.67,3.49,10.12.53,1.89-.21,3.69-.03,5.54"/>
  <path class="cls-1" d="M111.13,288.5c6.49,1.59,12.17,4.66,17.31,8.94,3.7,3.08,7.26,6.23,10.35,9.93,8.13,9.74,15.31,20.02,18.62,32.5,1.38,5.19,2.03,10.51,1.58,15.88-.15,1.76-.3,3.66-.97,5.26-.46,1.08-.05,1.73.1,2.58"/>
  <path class="cls-1" d="M117.35,287.12c3.77.93,7.05,2.93,10.37,4.84,11.17,6.44,20.69,14.8,28.04,25.38,4.71,6.78,7.49,14.44,8.44,22.75.22,1.91.76,3.96.68,5.76-.14,3.22-.03,6.57-1.24,9.67-.53,1.36-1.17,2.64-.21,4.04"/>
  <path class="cls-1" d="M66.22,312.19c14.49-6.98,19.95-1.41,24.39,1.21,7.16,4.23,13.46,9.52,19.44,15.33,6.6,6.41,10.85,14.2,14.87,22.21,2.14,4.27,3.26,8.9,4.19,13.57.69,3.43,1.41,6.85,1.35,10.37-.05,3.25.13,5-.62,8.57-.12.59-.57,3.03-2.97,6.35"/>
  <path class="cls-1" d="M449.96,103.77c-2.49.43-4.13,2.34-5.94,3.75-14.48,11.23-29.41,21.86-44,32.94-9.38,7.12-18.87,14.11-28.16,21.34-.61.48-1.07,1.32-2.06,1.17"/>
  <path class="cls-1" d="M121.93,244.73c16.57-2.81,18.1-3.21,30.2-4.01,8.19-.54,19.6.8,27.6,7.75,10.7,9.3,21.09,17.77,27.9,30.13,2.16,3.91,6.47,11.43,7.98,15.65,2.67,7.44,2.21,9.42,4.41,17.06,1.77,6.14-.99,20.2-1.83,26.68"/>
  <path class="cls-1" d="M433.61,85.11c-15.16,12.03-30.91,23.29-46.27,35.05-9.32,7.13-18.81,14.03-28.11,21.17-1.73,1.33-3.49,2.63-5.08,4.13"/>
  <path class="cls-1" d="M282.5,266.62c.12-.3-.36-.39-.23-.69,1.46-3.45,1.13-6.97.77-10.6-.41-4.24-1.12-8.43-2.46-12.41-3.2-9.51-8.28-18-14.87-25.62-4.12-4.77-8.65-9.01-14.1-12.14-4.3-2.47-8.53-5.19-13.57-6.03"/>
  <path class="cls-1" d="M227.91,200.74c2.09,1.66,4.79,1.86,7.17,2.4,7.24,1.65,12.56,6.2,17.66,11,7.81,7.35,13.79,16.13,18.44,25.77,2.58,5.35,4.69,10.95,5.72,16.81.83,4.67.74,9.45-.88,14.03-.24.69-.19,1.24.03,1.85"/>
  <path class="cls-1" d="M127.25,271.69c4.72.21,9.35.94,13.82,2.54,5.29,1.9,10.61,3.84,15.17,7.18,6.38,4.68,11.21,10.85,15.46,17.47,4.88,7.59,8.7,15.7,10.99,24.43,1.13,4.32,1.81,8.82.77,13.34-.43,1.88-10.47,14.94-11.21,16.69"/>
  <path class="cls-1" d="M145.68,228.85c-5.07,2.3-9.21,5.99-14.28,9.21-5.53,3.69-10.6,7.37-15.66,11.52-9.21,8.29-12.9,22.11-8.75,33.63"/>
  <path class="cls-1" d="M226.53,242.21c-3.97,2.38-7.91,4.92-11.99,7.1-3.77,2.01-7.57,5.92-17.55,13.86"/>
  <path class="cls-1" d="M245.93,272.94c-3.97,2.38-7.91,4.92-11.99,7.1-3.77,2.01-7.57,5.92-17.55,13.86"/>
  <path class="cls-1" d="M112.28,310.16c6.74,5.49,12.1,12.2,17.32,19.08,3.53,4.65,6.89,9.41,9.58,14.57,3.2,6.14,5.34,12.69,6.55,19.55.45,2.54.65,5.05.64,7.61,0,.58-.1,1.19.46,1.61"/>
  <path class="cls-1" d="M245.88,186.92c2.28,1.71,5.12,2.18,7.61,3.45,3.34,1.7,6.42,3.8,9.43,6,8.24,6.04,14.67,13.77,19.99,22.37,5.16,8.35,9.4,17.18,11.32,26.92.75,3.81.87,7.67.04,11.52-.14.66-.02,1.38-.02,2.07"/>
  <path class="cls-1" d="M164.11,277.22c9.89,9.99,17.11,21.66,22.15,34.77,1.93,5.02,3.58,10.1,4.07,15.45.47,5.21,1.25,10.45-.18,15.66-2.41,8.81-10.09,12.28-16.6,11.06-.36-.07-.65-.25-.92-.46"/>
  <path class="cls-1" d="M123.01,272.65c.68-11.19,2.51-12.11,2.91-12.43,26.57-21.11,60.97,28.68,67.09,37.47,4.81,6.91,6.55,23.37,7.16,30.15.6,6.61.66,8.81-1.15,15.43-3.06,11.17-6.48,17.84-14.73,16.29-.45-.08-11.31-5.6-11.66-5.87"/>
  <path class="cls-1" d="M243.57,217.1c7.83,5.64,12.66,13.76,17.72,21.66,3.61,5.64,6.41,11.72,8.01,18.21,1.52,6.17,2.16,12.48-.39,18.64"/>
  <path class="cls-1" d="M263.38,206.5c5.61,6.06,11.15,12.15,15.69,19.1,4.72,7.22,7.99,15.06,10.25,23.31.97,3.55,1,7.37.03,11.02-.29,1.07-.28,1.9.28,2.78"/>
  <path class="cls-1" d="M311.99,160.66c6.15-4.78,12.81-8.82,19.12-13.36.49-.36,1.14-.49,1.61-.41,3.48.55,7.11.62,10.35,2.07,5.26,2.35,9.29,6.19,12.48,11,2.48,3.73,4.53,7.59,5.51,11.99.81,3.62,1.19,7.24-.04,10.82-.37,1.09-.41,2.14-.43,3.24"/>
  <path class="cls-1" d="M244.49,237.83c5.36,9.18,9.92,18.71,12.67,29.02.91,3.4,1.86,6.78,1.87,10.37,0,2.12-.51,4.17-.86,6.2-.18,1.05-.08,1.87.14,2.79"/>
  <path class="cls-1" d="M146.37,228.38c1.4-2.4,3.91-3.6,6.05-4.97,6.7-4.3,12.97-9.2,19.45-13.78,2.29-1.62,4.27-1.87,6.5-.8,7.15,3.44,14.76,6.06,21.37,10.43,7.96,5.26,16.46,9.83,23.12,16.93,3.91,4.17,7.3,8.72,10.57,13.39,5.48,7.84,10.27,16.07,14.07,24.87,2.15,4.96,3.81,10.09,5.51,15.21"/>
  <path class="cls-1" d="M164.34,304.17c2.04,4.37,4.99,8.23,6.92,12.67,1.73,3.99,2.56,8.22,3.44,12.44.93,4.45,1,8.89.03,13.36-.65,2.98-1.23,5.96-3.03,8.51-.17.24-.29.46-.21.7.97,2.65-1.33,2.9-2.74,3.96-2.09,1.56-4.46,2.87-5.97,5.06-.6.87-1.5.68-2.09,1.15-1.63,1.28-3.47,2.29-4.87,3.87-.74.84-1.5,1.74-2.75,1.85"/>
  <path class="cls-1" d="M226.07,230.92c4.09,3.74,8.73,6.87,12.01,11.49,1.65,2.32,3.17,4.72,4.54,7.19,3.95,7.15,7.5,14.48,9.98,22.31,1.53,4.83,2.42,9.69,2.05,14.75-.04.54-.11,1.11.22,1.61"/>
  <path class="cls-1" d="M242.65,225.85c6.73,7.87,12.35,16.52,16.69,25.86,2.93,6.31,4.99,13.09,5.17,20.21.06,2.43-.54,4.8-1.17,7.13-.31,1.15-.26,2.1.5,3"/>
  <path class="cls-1" d="M333.18,146.61c1.16-2.93,4-3.37,6.46-3.84,6.02-1.13,11.39.33,16.15,4.48,5.65,4.93,9.73,10.91,12.32,17.81,1.97,5.24,2.18,10.66-.6,15.88-.93,1.75-2.14,3.07-3.93,3.91-3.79,1.79-6.51,5.02-9.89,7.39-3.59,2.52-7.26,4.95-10.63,7.79-.71.6-1.71.71-2.52,1.17"/>
  <path class="cls-1" d="M153.28,300.94c4.69,5.07,8.93,10.45,12.24,16.57,3.87,7.15,5.72,14.75,6.53,22.81.49,4.9-1.53,8.8-3.37,12.89-.43.95-.39,1.84-.42,2.78"/>
  <path class="cls-1" d="M120.34,275.84c1.15,1.16,2.77.96,4.16,1.33,5.82,1.53,11.65,2.99,17.03,5.81,3.45,1.81,6.77,3.88,9.63,6.5,2.99,2.75,5.96,5.56,8.57,8.71"/>
  <path class="cls-1" d="M124.72,339.64c2.74,4.1,5.26,8.37,7.07,12.93,2.36,5.92,4.49,11.94,5.24,18.39.32,2.75.13,5.26-.53,7.85-.14.55-.62,1.22-.04,1.83"/>
  <path class="cls-1" d="M132.78,266.62c1.28.51,2.61.12,3.92.23,6.11.48,11.68,2.82,17.28,5.06,3.35,1.34,6.7,2.63,9.44,5.08.04.04.15-.01.23,0"/>
  <path class="cls-1" d="M162.72,361.75c5.2,6.49,12.94,8.06,20.31,9.98,3.39.88,7.15.39,10.37-2.09,3.25-2.51,6.33-5.24,9.67-7.6,5.24-3.72,10.19-7.82,15.43-11.52,9.63-6.8,18.89-13.93,26.25-23.29,4.04-5.14,8.11-10.24,11.71-15.69.59-.89,1.55-1.71.93-2.99"/>
  <path class="cls-1" d="M203.03,219.63c6.43-.8,11.93,1.93,17.24,4.91,2.68,1.5,5.34,3.28,7.18,5.92"/>
  <path class="cls-1" d="M216.39,210.19c5.06.93,9.84,2.82,14.47,4.92,2.77,1.26,5.26,3.22,7.64,5.21"/>
  <path class="cls-1" d="M93.39,295.18c3.04,1.75,6.38,2.91,9.44,4.62,4.15,2.33,7.86,5.33,11.76,8.05"/>
  <path class="cls-1" d="M199.12,219.63c-4.11,3.12-8.41,5.98-12.44,9.21-2.4,1.92-4.87,3.74-7.37,5.53"/>
  <path class="cls-1" d="M238.97,193.6c2.62.34,5.28.3,7.84,1.14,3.89,1.28,7.36,3.3,10.59,5.77"/>
  <path class="cls-1" d="M240.81,213.41c-4.66-2.96-9.47-5.64-14.74-7.36-.89-.29-1.81-.52-2.76-.47"/>
  <path class="cls-1" d="M228.83,220.78c5.82,4.14,11.44,8.48,15.2,14.74"/>
  <path class="cls-1" d="M129.78,285.28c-4.51-1.57-9.2-2.51-13.82-3.67-.43-.11-.92-.01-1.38-.01"/>
  <path class="cls-1" d="M256.93,308.31c-5.04,2.12-9.39,5.27-13.35,8.99-1.16,1.09-2.24,2.26-3.69,2.99"/>
  <path class="cls-1" d="M209.71,214.33c3.68,1.38,7.52,2.16,11.29,3.22"/>
  <path class="cls-1" d="M237.81,322.83c-1.46.17-2.05,1.47-2.99,2.31-5.23,4.69-10.68,9.09-16.62,12.84-1.16.74.46.59,2.84,10.72"/>
  <path class="cls-1" d="M177.7,235.76c-2.45,2.02-5.16,3.72-7.6,5.76"/>
  <path class="cls-1" d="M144.53,293.11c2.61,1.64,4.59,4.01,6.91,5.99"/>
  <path class="cls-1" d="M203.49,217.56c-.18.94,1.22.75,1.15,1.61"/>
</svg>