<?xml version="1.0" encoding="UTF-8"?>
<svg id="icons" xmlns="http://www.w3.org/2000/svg" viewBox="0 0 500 500">
  <defs>
    <style>
      .cls-1 {
        fill: none;
        stroke: #000;
        stroke-linecap: round;
        stroke-linejoin: round;
        stroke-width: .94px;
      }
    </style>
  </defs>
  <path class="cls-1" d="M396.83,219.71c-.52,3.19-.16,6.41-.16,9.62,0,.49.15,1.1.15,1.64,0,13.37.39,26.74.27,40.11-.03,3.25-.37,6.47-2.66,8.85-1.81,1.88-4.27,3.11-6.51,4.51-12.12,7.55-24.29,15.04-36.63,22.21-21.39,12.43-42.61,25.16-63.98,37.62-12.91,7.52-25.62,15.37-38.48,22.96-13.01,7.68-25.89,15.6-38.92,23.25-7.77,4.56-15.7,8.86-23.25,13.8-1.49.98-3.03.78-4.7-.17-7.93-4.49-15.76-9.13-23.65-13.67-11.2-6.46-22.39-12.93-33.54-19.47-15.17-8.9-30.33-17.84-45.53-26.69-8.54-4.97-17-10.09-25.59-14.97-3.27-1.86-4.39-4.26-3.74-7.8.26-1.4-.23-2.8-.23-4.22.02-20.8-.16-41.6.06-62.39.29-27.6.1-55.2.17-82.8,0-1.34.38-2.64.26-3.99-.11-1.2.79-1.76,1.63-2.35,4.28-2.96,8.86-5.43,13.41-7.91,9.17-4.99,18.15-10.3,27.16-15.57,14.64-8.56,29.39-16.91,44.08-25.36,14.34-8.24,28.63-16.56,42.96-24.8,13.96-8.03,27.91-16.1,41.95-23.99,8.43-4.73,16.87-9.46,25.16-14.44,4.08-2.45,8.29-4.68,12.42-7.05,1.78-1.02,3.85-1.24,5.84-.06,7.84,4.63,15.82,9.02,23.7,13.59,10.63,6.16,21.54,11.82,32.18,17.98,9.86,5.71,19.98,11.01,29.97,16.52,14.52,8.02,29.06,16,43.62,23.94,1.49.82,1.72,1.92,1.77,3.75.24,10.32.19,20.65.39,30.96.3,16.11.11,32.22.27,48.32.05,5.16-.02,10.32-.07,15.48,0,.79-.09,1.59.23,2.35"/>
  <path class="cls-1" d="M395.65,129.87c-1.35-.33-2.34.63-3.25,1.22-11.44,7.53-23.47,14.05-35.2,21.09-9.03,5.41-17.98,10.97-27.03,16.32-9.69,5.72-19.36,11.47-29.03,17.21-7.81,4.63-15.66,9.19-23.46,13.84-6.11,3.64-12.23,7.24-18.51,10.6-6.54,3.51-12.83,7.5-19.32,11.11-11.21,6.24-22.11,12.99-33.21,19.41-6.47,3.73-13,7.44-19.04,11.9-1.4,1.03-2.53.88-4.02.02-14.48-8.39-29.06-16.61-43.6-24.91-11.23-6.41-22.4-12.91-33.54-19.48-8.39-4.95-16.92-9.65-25.39-14.45-9.41-5.33-18.92-10.48-28.32-15.83-.88-.5-1.68-.65-2.6-.66"/>
  <path class="cls-1" d="M395.65,122.36c-1.81-.09-2.85,1.37-4.2,2.15-7,3.99-14.01,8-20.85,12.24-7.01,4.35-14.18,8.42-21.21,12.73-8.05,4.94-16.38,9.45-24.57,14.18-14.32,8.27-28.59,16.62-42.93,24.85-7.86,4.52-15.8,8.9-23.7,13.35-8.03,4.52-15.9,9.3-23.9,13.89-13.59,7.79-27.13,15.66-40.59,23.68-2.62,1.56-5.08,3.42-7.77,4.87-.86.46-1.65.54-2.85-.11-7.78-4.23-15.47-8.64-23.12-13.08-10.6-6.16-21.41-11.95-32-18.13-6.7-3.91-13.55-7.6-20.35-11.35-8.4-4.63-16.76-9.34-25.11-14.05-8.14-4.6-16.18-9.38-24.38-13.86-2.52-1.38-4.88-3.04-7.51-4.21"/>
  <path class="cls-1" d="M163.43,300.63c-.18-5.43-1.15-10.73-2.58-15.95-3.52-12.88-8.67-24.96-16.85-35.68-7.21-9.45-15.48-17.72-26.12-23.1-8.76-4.43-18.16-6.75-28.1-4.52-6.26,1.4-10.95,5.25-15.04,10.04-3.98,4.66-6.05,10.14-7.5,15.97-1.4,5.64-1.81,11.4-1.32,17.12.8,9.5,3.2,18.68,6.99,27.44,3.08,7.11,6.54,14.01,10.96,20.44,7.45,10.84,16.45,20.06,28,26.39,7.03,3.86,14.88,5.65,22.93,4.93,8.88-.79,16.35-4.63,21.57-12.13,4.22-6.05,6.35-12.82,7.13-20.16.37-3.49.43-6.89-.08-10.33"/>
  <path class="cls-1" d="M306.75,294.3c.53,1.19,2.41,4.16,3.99,4.02,4.34-.38,7.48-3.26,10.99-5.25,12.58-7.13,24.95-14.61,37.14-22.39,3.06-1.95,6.37-3.56,9.32-5.72,4.02-2.94,5.1-7.25,5.43-11.95.37-5.4.18-10.79.2-16.19.04-16.19.02-32.37.01-48.56,0-1.56.07-3.13,0-4.69-.21-4.28-4.23-6.9-8.19-5.12-3.79,1.71-7.45,3.73-11.03,5.85-8.11,4.81-16.25,9.57-24.42,14.26-7.41,4.25-14.76,8.6-22.23,12.76-4.73,2.63-6.81,7.23-6.82,12.6-.04,21.5-.02,43-.02,64.51,0,3.4.35,4.01,3.53,4.87.82.22,1.58.27,2.09,1"/>
  <path class="cls-1" d="M391.2,268.97c.77,4.92-2.4,7.06-6.07,9.19-13.75,7.99-27.71,15.62-41.38,23.76-15.66,9.32-31.33,18.62-47.02,27.9-14.25,8.43-28.44,16.98-42.56,25.62-11.48,7.03-23.17,13.72-34.68,20.7-10.29,6.23-20.67,12.31-30.95,18.55-1.2.73-2.65,1.13-3.21,2.77-5.79-3.15-11.43-6.28-16.93-9.61-11.63-7.05-23.47-13.75-35.18-20.65-8.76-5.16-17.63-10.12-26.31-15.42-10.42-6.36-20.94-12.54-31.45-18.74-6.3-3.72-12.58-7.5-18.97-11.07"/>
  <path class="cls-1" d="M397.06,201.88c.65.17,1.32.32,1.87.71,7.71,5.4,15.85,10.16,23.46,15.71,8.72,6.36,16.15,13.92,21.32,23.47,4.83,8.91,6.54,18.5,5.67,28.6-1.35,15.63-8.09,28.85-18.1,40.56-7.73,9.03-16.54,16.95-25.75,24.44-6.69,5.44-13.45,10.79-20.19,16.16-1.18.94-2.59,1.57-3.52,2.81"/>
  <path class="cls-1" d="M371.49,339.34c8.49-5.99,17.27-11.56,25.57-17.82,10.63-8.03,20.59-16.8,28.32-27.73,6.05-8.56,10.26-17.94,10.18-28.81-.06-8.29-2.92-15.48-7.76-22.06-4.95-6.71-11.47-11.61-18.3-16.19-3.39-2.27-6.82-4.47-10.34-6.54-.63-.37-1.28-.83-2.1-.72"/>
  <path class="cls-1" d="M354.13,209.15c-.65-.18-.96-.76-1.4-1.18-10.11,5.7-19.94,11.88-30.05,17.57-5.42,3.04-7.39,7.86-7.45,13.64-.12,10.16.1,20.33-.09,30.49-.09,5.28,7.49,11.36,13.23,7.8,8.67-5.38,17.51-10.48,26.27-15.72,1.71-1.02,3.64-1.49,5.18-3.05,3.28-3.33,4.41-7.49,5.32-11.79,1.16-5.42.94-10.93.95-16.42.02-8.52.03-17.05.2-25.57.11-5.63-.73-11.25-.41-16.89.06-.95-.52-1.47-.83-2.37-3.55,1.58-6.57,3.65-9.74,5.43-11.64,6.53-23.02,13.5-34.7,19.96-2.39,1.32-4.64,2.93-7.08,4.14-3.03,1.5-6.87,5.7-7.48,8.73"/>
  <path class="cls-1" d="M263.12,51.76c1.88,1.84,4.4,2.63,6.59,3.95,9.46,5.66,19.27,10.72,28.84,16.21,11.38,6.53,23.01,12.63,34.45,19.05,10.99,6.16,22.13,12.05,33.11,18.24,8.36,4.71,16.69,9.45,25.08,14.1"/>
  <path class="cls-1" d="M246,62.31c6.32,4.75,12.74,9.31,19.65,13.23,5.67,3.21,11.05,6.97,16.73,10.19,14.23,8.08,28.24,16.52,42.42,24.7,13.96,8.06,28.01,15.97,41.77,24.37.99.6,2.24.71,3.05,1.64"/>
  <path class="cls-1" d="M319.42,275.53c6.02-3.23,11.89-6.72,17.81-10.11,4.71-2.7,9.5-5.27,14.08-8.2,3.58-2.29,4.9-6.05,6.1-9.84,1.49-4.73,2-9.58,1.91-14.54-.11-6.18-.03-12.35-.02-18.53,0-3.9-.97-7.3-4.45-9.64-1.95-1.31-3.8-1.13-5.64.03-9.73,6.14-19.58,12.09-29.52,17.88-4.47,2.6-6.85,6.86-7.6,12.12-.72,5.09-.31,10.17-.39,15.25-.11,7.27.02,14.54-.07,21.81-.02,1.24.31,2.39.58,3.5.53,2.09,2.32,2.86,4.62,2.36"/>
  <path class="cls-1" d="M263.83,94.45c0,28.15,0,56.3.02,84.44,0,.78-.28,1.61.22,2.35"/>
  <path class="cls-1" d="M178.91,291.48c-.48-.06-.86.11-.94.2v84.71"/>
  <path class="cls-1" d="M245.53,407.83c-.98-1.28-.2-2.66-.22-3.99-.05-3.6-.2-7.2.02-10.79.38-6.05,3.76-10.16,9.12-12.63,2.1-.97,4.19-.1,6.07.92,5.47,2.95,10.63,6.41,15.93,9.64,7.92,4.83,15.67,9.95,23.47,15,5.11,3.31,7.35,8.19,7.58,14.28.25,6.33-.09,12.68.39,19,.16,2.1-.6,4.22.02,6.33"/>
  <path class="cls-1" d="M251.63,87.41v83.04"/>
  <path class="cls-1" d="M250.46,404.55c-.69-.68-.46-1.54-.46-2.35-.02-2.58.19-5.18-.05-7.74-.38-3.94,1.23-6.89,4.06-9.51,3.29,1.13,5.77,3.56,8.62,5.33,10.86,6.77,21.69,13.59,32.43,20.55,3.19,2.07,4.65,4.99,5.36,8.48.69,3.4.82,6.87.69,10.32-.21,5.48.66,10.94.05,16.42-.14,1.24-.92,2.45-.26,3.75"/>
  <path class="cls-1" d="M328.57,388.59c1.61-1.67,1.58-5.01,0-7.51-2.01-3.2-4.8-5.52-7.96-7.53-6.04-3.84-12.28-7.32-18.53-10.8-2.6-1.45-4.66-1.15-7.09.46-6.56,4.34-13.27,8.47-19.91,12.7-1.81,1.15-3.74,2.13-5.75,3.56,1.45,1.78,3.44,2.43,5.08,3.44,10.11,6.22,19.92,12.95,30.28,18.72,6.4,3.56,8.53,8.75,8.42,15.58-.12,6.88-.03,13.76-.02,20.64,0,.79-.15,1.59.23,2.35"/>
  <path class="cls-1" d="M390.49,134.79v62.86"/>
  <path class="cls-1" d="M287.52,416.51c2.64,1.71,4.16,3.79,4.1,7.27-.07,4.11.02,8.19-1.06,12.19-.31,1.15-.97,1.91-2.06,2.64-10.22,6.85-21.06,12.66-31.47,19.18-2.13,1.33-4.73,1.87-6.74,1.01-2.5-1.07-3.18-3.86-3.14-6.64.04-2.24.44-4.4.93-6.57,1.41-6.2,5.23-10.41,10.56-13.63,8.69-5.26,17.87-9.66,26.54-14.95.58-.35,1.32-.68,2.09-.5"/>
  <path class="cls-1" d="M350.26,401.96c.24-4.77.26-9.56-.17-14.3-.36-3.93-.7-7.87-1.75-11.75-1.55-5.78-5.22-9.56-10.17-12.41-5.85-3.38-11.51-7.1-17.59-10.08-.13-.06-.31,0-.47,0"/>
  <path class="cls-1" d="M186.42,289.61v52.07c0,17.05,0,34.09,0,51.14,0,.86-.17,1.75.23,2.58"/>
  <path class="cls-1" d="M289.86,419.56c-9.16,5.36-18.46,10.47-27.68,15.72-2.89,1.64-5.97,2.99-7.76,6.09-3.18,5.49-4.6,11.17-2.33,17.37"/>
  <path class="cls-1" d="M306.05,223.93c-.38.75-.23,1.56-.23,2.35,0,15.87,0,31.74,0,47.62,0,5.47,0,10.95,0,16.42,0,.94.07,1.88,0,2.81"/>
  <path class="cls-1" d="M440.69,254.89c-.93-4.95-3.37-9.26-6.4-13.08-4.85-6.13-10.11-11.92-16.57-16.49-6.07-4.3-12.24-8.47-18.56-12.38-.64-.4-1.47-.74-2.33-.5"/>
  <path class="cls-1" d="M366.1,182.18c1.93.77,2.38,2.29,2.37,4.22-.12,14.7-.37,29.4-.27,44.1.01,1.56-.3,3.12-.22,4.69"/>
  <path class="cls-1" d="M261.71,403.84c-8.95,5.39-17.91,10.76-26.97,15.96-2.6,1.49-5.5,2.67-7.46,4.96-3.6,4.2-5.73,8.99-4.29,14.74.11.44.01.93.01,1.4"/>
  <path class="cls-1" d="M280.01,444.89c3.89,3,8.26,5.19,12.69,7.21,2.37,1.08,4.93,1.06,7.03-1.09.6-.61,1.51-.89,2.27-1.29,3.27-1.72,6.79-3.31,8.92-6.5,2-3.01,5.25-4.06,8.05-5.79,5.8-3.58,11.49-7.34,17.38-10.76,4.35-2.52,4.87-6.57,5.03-10.64.31-7.66.33-15.39-.75-22.96-.85-5.91-1.71-12.11-6.43-16.68-3.32-3.22-7.26-5.56-11.29-7.69-5.78-3.06-11.36-6.48-17.32-9.23-2.89-1.33-5.88-2.27-8.94-2.97-2.63-.59-5.06.45-7.25,1.84-9.58,6.08-19.38,11.8-28.85,18.07-1.48.98-3.56,1.23-4.24,3.26"/>
  <path class="cls-1" d="M122.85,241.76c.57,1.02.23,2.01.01,3.05-2.07,9.78-4.09,19.58-6.37,29.31-.3,1.27-.22,1.93,1.16,2.65,4.1,2.14,7.98,4.67,12.07,6.94-1.01,3.92-3.52,7.03-5.55,10.3-4.38,7.03-8.7,14.11-12.98,21.2-.88,1.46-2.76,2.37-2.64,4.42"/>
  <path class="cls-1" d="M356.01,379.45c3.45-2.66,7.21-4.65,11.49-5.66,1.62-.39,3.04-1.47,4.17-2.61,1.23-1.23,2.54-2.27,4.06-2.96,3.81-1.74,5.16-4.62,4.71-8.71-.54-5.04-1.3-10.01-4.99-13.8-3.12-3.2-6.63-5.88-11.46-5.9-2.1-.01-3.76,1.07-5.38,2.15-2.37,1.58-5.09,2.72-6.81,5.14-.36.51-.89.94-.96,1.63"/>
  <path class="cls-1" d="M99.86,278.58c3.69,2.71,7.88,4.6,11.77,6.96,1.3.79,1.46,1.4,1.15,2.66-1.18,4.79-1.74,9.69-2.66,14.53-.8,4.21-.69,8.56-2.03,12.69-.3.91.14,1.8.68,2.57"/>
  <path class="cls-1" d="M262.89,52.46c-7.59,3.94-14.94,8.3-22.31,12.63-11.09,6.52-22.26,12.88-33.3,19.48-1.92,1.15-3.83,2.34-5.85,3.31"/>
  <path class="cls-1" d="M308.86,232.84c.32,11.41.33,22.83.15,34.25-.04,2.79.82,5.73-.62,8.45"/>
  <path class="cls-1" d="M245.29,408.06c-4.94,3.29-10.08,6.25-15.26,9.12-7.54,4.17-10.59,10.73-10.53,19.03.02,2.84,1.41,3.71,3.68,5.03,4.05,2.37,6.96-.16,9.87-1.83,6.9-3.95,13.81-7.88,20.69-11.88,2.63-1.53,5.1-3.31,7.94-4.54,2.33-1.01,2.43-3.75,2.26-5.77-.29-3.46.41-6.88-.06-10.34-.42-3.08-2.54-4.57-4.76-6.07-.96-.65-1.86-.07-2.82.42-3.71,1.9-6.87,4.64-10.54,6.6"/>
  <path class="cls-1" d="M177.97,251.61c0,12.51,0,25.02.02,37.53,0,.78-.28,1.61.22,2.35"/>
  <path class="cls-1" d="M429.9,302.74c-5.36,7.22-11.84,13.3-18.71,19.06-4.42,3.7-8.81,7.44-13.17,11.22-1.22,1.06-2.57,1.95-3.77,3.03"/>
  <path class="cls-1" d="M123.79,240.11c-6.69,7.48-10.94,16.58-16.4,24.88-2.88,4.37-5.22,9.07-8.23,13.36"/>
  <path class="cls-1" d="M297.6,420.96c0,7.04,0,14.07,0,21.11,0,3.64-1.93,4.66-5.18,3.1-2.27-1.08-4.35-2.57-6.78-3.34"/>
  <path class="cls-1" d="M196.27,260.05c.51,2.86,2.32,4.85,4.69,5.16,2.43.32,5.13-1.44,6.35-3.98,1.15-2.39.05-4.66-1.67-6.1-1.43-1.2-5.15-1.06-6.79.23-1.43,1.13-2.41,2.57-2.59,4.45"/>
  <path class="cls-1" d="M272.27,65.13c.05-2.55-2.01-3.03-3.76-3.74-2.63-1.06-5.31-1.01-7.71.5-2.16,1.35-2.24,3.56-.29,5.39,2.62,2.46,10.53,2.37,11.75-1.44.05-.14,0-.31,0-.47"/>
  <path class="cls-1" d="M340.53,356.93c1.32-1.51,2.82-2.78,3.85-4.64,1.47-2.65,6.52-3.9,9.27-2.61,3.54,1.66,7.07,3.3,9.68,6.5,2.08,2.56,2.28,5.54,2.74,8.49.47,3.02.23,6.09.26,9.14"/>
  <path class="cls-1" d="M346.63,112.27c.98.21,1.81-.34,2.56-.75,1.65-.88,1.9-2.92.73-4.41-1.98-2.52-7.74-3.49-10.3-1.61-.9.66-2.04,1.47-1.86,2.78.22,1.58,1.3,2.7,2.78,3.27,1.5.58,3.07.84,4.69.49.48-.1.89.02,1.17.46"/>
  <path class="cls-1" d="M356.95,343.56c2.43,1.4,5.13,2.17,7.55,3.69,5.19,3.28,7.13,8.25,8.2,13.9.49,2.57.24,5.21.9,7.75"/>
  <path class="cls-1" d="M306.05,91.63c1.92-.4,4.1-.09,5.4-2.11.72-1.12.82-2.25-.02-3.28-2.17-2.66-7.11-3.45-10.33-1.93-1.33.63-2.2,1.57-2.25,2.86-.05,1.23.84,2.24,2.04,2.81,1.19.58,2.4,1.1,3.75,1.17"/>
  <path class="cls-1" d="M186.89,255.83v29.09"/>
  <path class="cls-1" d="M344.05,354.11c5.25,1.77,9.99,4.29,13.39,8.9,2.41,3.26,2.59,7.02,2.79,10.81.04.71-.11,1.44.24,2.11"/>
  <path class="cls-1" d="M303.94,358.34c.28-1.26,1.57-1.09,2.35-1.64,3.42-2.41,7.1-4.44,10.53-6.83,3.09-2.15,5.99-1.97,9.19-.25,3.39,1.83,6.67,3.85,10.06,5.69,3.08,1.67,6.19,3.28,9.16,5.13,5.36,3.35,8.79,7.79,9.7,14.31.85,6.1,1.35,12.2,1,18.3-.21,3.75-1.01,7.13-5.43,9.16-2.96,1.36-5.78,3.76-8.56,5.86"/>
  <path class="cls-1" d="M390.96,223.46v23.46"/>
  <path class="cls-1" d="M87.9,153.56c-7.86,4.21-15.33,9.07-22.99,13.6"/>
  <path class="cls-1" d="M366.33,121.66c1.57-1.78,1.52-2.63,0-4.23-2.87-3.05-9.38-2.99-11.73.48-.59.87-1.01,1.77-.25,2.82,2.6,3.58,8.91,4.26,11.97,1.17"/>
  <path class="cls-1" d="M349.68,227.21c-.01-.64.65-.6.94-.93.91.47.7,1.32.7,2.1,0,3.44,0,6.88,0,10.32,0,1.38-.31,2.65-1.18,3.75"/>
  <path class="cls-1" d="M251.63,69.11v15.48"/>
  <path class="cls-1" d="M252.1,189.21v14.54"/>
  <path class="cls-1" d="M393.31,336.99c-4.59,3.72-9.47,7.07-14.07,10.79"/>
  <path class="cls-1" d="M263.83,182.64v14.07"/>
  <path class="cls-1" d="M58.81,239.41v12.67"/>
  <path class="cls-1" d="M323.84,242.46c-1.64-1.29-.23,8.75-.21,12.67,0,.45,1.14-.2,2.18-.78"/>
  <path class="cls-1" d="M328.1,240.82c.39,4.22,1.25,7.94.86,12.17"/>
  <path class="cls-1" d="M261.95,439.96c-3.34,2.77-4.79,7.13-3.28,9.85,3.33-1.55,5.63-6.75,4.45-10.08-.19-.53-.46-.2-.7,0"/>
  <path class="cls-1" d="M346.86,229.09c-.08.08-.22.16-.22.23-.01,3.67,0,7.35,0,11.03.54-.19,1.3.39,1.64-.47"/>
  <path class="cls-1" d="M234.27,424.72c-4.09,2.63-5.97,7.9-3.73,10.58,2.93-1.44,3.52-4.33,4.13-7.08.22-1,1.35-2.17.07-3.27"/>
  <path class="cls-1" d="M58.81,253.95v9.38"/>
  <path class="cls-1" d="M252.1,179.36c0,2.58.02,5.16-.02,7.74,0,.4.4,1.06-.45,1.17"/>
  <path class="cls-1" d="M261.71,423.31c.15.91.46,1.67,1.39,2.14.89.45,1.74,1.02,2.36,1.85"/>
  <path class="cls-1" d="M381.58,261.69c-2.09.27-3.87.99-5.18,2.8-1.32,1.81-1.48,5.66.74,7.28,1.73,1.26,3.26,3.18,5.86,2.12,2.59-1.05,4.6-2.45,4.98-5.63.42-3.59-1.97-6.33-6.15-6.57"/>
  <path class="cls-1" d="M66.79,309.08c-.99.6-2.17.79-3.06,1.63-1.97,1.85-2.55,4.77-1.15,6.58,1.74,2.26,4.73,2.9,7.48,1.39,1.94-1.06,2.93-3.93,2.36-6.07-.63-2.36-2.36-3.49-5.4-3.52"/>
  <path class="cls-1" d="M201.9,364.43c-2.64.77-4.82,2.07-5.63,4.93-.49,1.72-.46,3.41.96,4.67,1.52,1.35,3.16,2.39,5.4,1.24,1.08-.56,2.15-1.07,3.03-1.92,2.96-2.84,2.6-7.24-2.12-8.65-.43-.13-.88-.45-1.4-.26"/>
  <path class="cls-1" d="M79.93,165.05c-1.51.69-2.9,1.53-3.99,2.82-1.27,1.51-1.26,3.66,0,5.16,2.26,2.69,4.55,3.45,7.04,2.35,2.54-1.13,4.12-3.6,3.75-5.86-.36-2.24-2.51-4.1-5.16-4.45-.46-.06-.94,0-1.41,0"/>
  <path class="cls-1" d="M379.94,147.93c-1.09.02-1.9.82-2.77,1.26-2.28,1.15-3,4.05-1.92,6.25,1,2.04,3.71,3.06,6.1,2.35,1.81-.53,3.13-1.63,3.98-3.29,1.71-3.33-.8-6.52-5.16-6.57"/>
  <path class="cls-1" d="M322.94,94.45c-1.64.37-3.24.75-4.48,2.09-1.25,1.35-1.28,2.79-.18,3.98,2.95,3.18,8.39,3.74,11.69.73,1.41-1.29,1.45-3.41,0-4.67-1.93-1.67-4.27-2.22-6.79-2.13"/>
  <path class="cls-1" d="M282.36,72.16c-.5.07-1.13.35-1.35.53-1.28,1.09-2.95,2.05-2.63,4.16.21,1.42,2.86,3.56,4.92,3.71,1.71.12,3.52.42,5.15-.44,1.34-.7,2.81-1.62,2.75-3.26-.06-1.66-1.11-2.88-2.7-3.82-1.94-1.15-3.92-.74-5.9-.87"/>
</svg>