<svg width="500" height="500" viewBox="0 0 500 500" fill="none" xmlns="http://www.w3.org/2000/svg">
<path d="M364.47 119.79C375.73 123.61 376.86 123.38 377.13 125.42C377.45 127.89 377.49 130.39 377.5 132.86C377.57 148.68 377.25 164.5 377.6 180.31C378.28 210.74 377.48 241.17 378 271.59C378.7 312.61 378.09 353.62 378.34 394.63C378.36 397.67 377.77 398.66 375.12 399.65C367.33 402.56 359.6 405.63 351.78 408.45C341.45 412.18 331.16 416.02 320.88 419.86C309.68 424.05 298.44 428.16 287.26 432.4C278.1 435.87 268.91 439.27 259.75 442.74C254.04 444.9 248.3 447.02 242.64 449.33C241.21 449.91 239.9 449.44 238.84 448.69C232.88 444.46 226.86 440.31 220.96 436.01C211.45 429.07 201.8 422.33 192.19 415.53C183.43 409.33 174.6 403.25 165.81 397.1C158.17 391.75 150.87 385.95 143.16 380.72C142.01 379.94 141.09 378.72 139.89 377.99C137.67 376.65 137.07 374.72 137.29 372.33C137.33 371.86 137.29 371.39 137.29 370.92" stroke="#2071B5" stroke-width="4.21" stroke-linecap="round" stroke-linejoin="round"/>
<path d="M373.31 390.21C373.31 353.02 373.39 315.82 373.23 278.63C373.21 273.07 373.69 267.5 373.12 261.94C372.83 259.13 373.36 256.32 373.36 253.5C373.38 237.01 373.33 220.52 373 204.04C372.68 188.09 372.96 172.14 372.66 156.19C372.52 148.62 372.27 141.05 372.29 133.47C372.29 131.52 371.68 131.13 369.68 131.66C362.29 133.59 355.06 136.05 347.76 138.29C338.3 141.19 328.85 144.16 319.42 147.16C304.41 151.94 289.43 156.77 274.38 161.42C264.25 164.55 254.18 167.86 244.02 170.88C241.63 171.59 240.03 173.82 240.01 176.71C239.97 184.15 239.84 191.59 240.04 199.03C240.21 205.13 240.4 211.23 240.4 217.33C240.4 273.22 240.57 329.12 240.29 385.01C240.21 401.83 240.15 418.65 239.99 435.47C239.98 436.74 240.14 438.02 239.99 439.29" stroke="#2071B5" stroke-width="4.21" stroke-linecap="round" stroke-linejoin="round"/>
<path d="M375.73 123.61C364.84 126.66 353.98 129.78 343.13 132.97C329.35 137.01 315.72 141.49 301.95 145.54C292.68 148.27 283.46 151.2 274.22 154.03C267.68 156.03 261.18 158.19 254.69 160.36C248.02 162.59 241.3 164.7 234.58 166.78C231.76 167.65 230.39 168.75 230.39 172.86C230.36 191.62 230.38 210.39 230.38 229.15C230.38 236.99 230.46 244.83 230.37 252.67C229.95 289.13 230.29 325.59 230.19 362.04C230.15 376.85 230.25 391.66 230.15 406.47C230.1 413.31 229.87 420.14 230.02 426.98C230.12 431.74 230.04 436.51 230.59 441.26" stroke="#2071B5" stroke-width="4.21" stroke-linecap="round" stroke-linejoin="round"/>
<path d="M156.58 136.48V364.07" stroke="#2071B5" stroke-width="4.21" stroke-linecap="round" stroke-linejoin="round"/>
<path d="M142.1 137.68C142.1 139.49 142.1 141.3 142.1 143.11C142.09 181.58 142.25 220.05 142.37 258.51C142.45 283.24 142.4 307.97 142.48 332.7C142.5 337.53 142.86 342.35 142.7 347.18C142.45 354.28 142.52 361.39 142.51 368.49" stroke="#2071B5" stroke-width="4.21" stroke-linecap="round" stroke-linejoin="round"/>
<path d="M369.29 144.92C369.29 206.37 369.23 267.83 369.33 329.28C369.36 347.91 369.48 366.54 369.49 385.17C369.49 386.98 369.57 388.8 369.29 390.6" stroke="#2071B5" stroke-width="4.21" stroke-linecap="round" stroke-linejoin="round"/>
<path d="M238.01 173.27C238.45 263.47 238.26 353.68 237.79 443.69C241.61 444.94 244.32 442.769 247.23 441.799C250.68 440.639 254 439.09 257.51 438.06" stroke="#2071B5" stroke-width="4.21" stroke-linecap="round" stroke-linejoin="round"/>
<path d="M136.48 125.62C136.74 180.71 136.71 235.8 136.88 290.88" stroke="#2071B5" stroke-width="4.21" stroke-linecap="round" stroke-linejoin="round"/>
<path d="M136.88 290.89C137.16 316.36 137.07 341.82 137.06 367.29C137.06 368.37 137.31 369.06 138.26 369.73C151.56 379.16 164.86 388.6 178.33 397.79C191.15 406.54 203.77 415.58 216.67 424.22C217.01 424.45 217.43 424.48 217.69 424.79" stroke="#2071B5" stroke-width="4.21" stroke-linecap="round" stroke-linejoin="round"/>
<path d="M125.42 115.17V144.93C125.42 184.2 125.46 223.47 125.38 262.75C125.37 269.58 125.38 276.42 125.1 283.26C125.04 284.58 124.99 285.94 124.99 287.28C125.02 313.48 125.05 339.69 124.96 365.89C124.96 368.5 125.87 369.98 128 371.37C132.58 374.36 136.96 377.64 141.31 380.97" stroke="#2071B5" stroke-width="4.21" stroke-linecap="round" stroke-linejoin="round"/>
<path d="M364.47 119.79C362.09 118.23 359.41 117.29 356.83 116.18C349.77 113.15 342.76 110 335.74 106.89C325.92 102.55 316.2 97.9798 306.37 93.6498C296.9 89.4798 287.46 85.2398 278.01 81.0198C271.9 78.2898 265.6 75.9298 259.6 72.9998C256.44 71.4598 253.8 71.7698 250.89 72.7498C243.56 75.2198 236.14 77.4098 228.77 79.7798C227.64 80.1398 226.43 80.1798 225.33 80.7398C224.77 81.0298 223.12 84.2898 223.62 85.0498" stroke="#2071B5" stroke-width="4.21" stroke-linecap="round" stroke-linejoin="round"/>
<path d="M219.11 166.43C218.37 167.78 218.71 169.24 218.71 170.65C218.71 196.92 218.71 223.19 218.71 249.46C218.71 262.39 218.71 275.33 218.71 288.26C218.71 290.07 218.4 291.87 218.48 293.69C218.51 294.34 218.65 294.61 219.31 294.49" stroke="#2071B5" stroke-width="4.21" stroke-linecap="round" stroke-linejoin="round"/>
<path d="M256.89 153.02C254.32 153.46 251.89 154.41 249.47 155.28C243.2 157.53 236.83 159.46 230.55 161.66C228.95 162.22 227.37 162.84 225.73 163.29C224.16 163.72 223.89 165.98 223.9 167.64C224.08 196.66 224.06 225.68 224.03 254.7C224 289.28 224.03 323.86 223.94 358.44C223.88 380.96 223.93 403.48 223.93 425.99C223.93 428.94 223.96 431.89 223.91 434.84C223.9 435.61 224.04 436.27 224.53 436.85" stroke="#2071B5" stroke-width="4.21" stroke-linecap="round" stroke-linejoin="round"/>
<path d="M373.11 390.61C372.6 392.19 373.47 394.24 371.32 395.27C370.18 395.81 369.04 396.4 367.87 396.81C357.43 400.42 347.15 404.46 336.73 408.15C326.1 411.91 315.53 415.88 304.96 419.8C297.8 422.45 290.58 424.92 283.42 427.56C275.37 430.52 267.36 433.63 259.11 436.06" stroke="#2071B5" stroke-width="4.21" stroke-linecap="round" stroke-linejoin="round"/>
<path d="M257.11 207.65V312C257.11 317.29 257.26 322.59 257.08 327.88C256.78 336.66 257.18 345.45 256.87 354.22C256.52 363.74 257.04 373.26 256.56 382.77C256.51 383.74 257.03 384.78 257.32 385.78C258.71 390.54 256.75 396.48 251.9 398.49M251.9 398.49C249.25 399.58 245.98 397.88 245.63 394.23C245.24 390.24 247.26 387.46 250.13 385.25C251.05 384.55 252.56 384.33 253.91 385.15C255.19 385.92 256.48 388.03 255.96 391.65C255.46 395.07 251.9 397.61 251.9 398.49Z" stroke="#2071B5" stroke-width="4.21" stroke-linecap="round" stroke-linejoin="round"/>
<path d="M223.61 85.0502C226.42 82.9202 227.26 83.6502 228.4 84.3402C230.14 85.3702 232.05 86.1402 234.19 86.2702C235.69 86.3602 237.04 87.2302 238.41 87.8402C244.33 90.4802 250.42 92.7502 256.29 95.5102C264.38 99.3102 272.57 102.89 280.66 106.68C289.32 110.74 297.86 115.05 306.58 118.97C313.23 121.95 319.6 125.5 326.27 128.44" stroke="#2071B5" stroke-width="4.21" stroke-linecap="round" stroke-linejoin="round"/>
<path d="M337.12 114.56C334.71 113.99 332.73 112.48 330.48 111.55C320.58 107.45 310.99 102.67 301.15 98.4197C295.21 95.8497 289.32 93.1397 283.41 90.4897C274.18 86.3597 264.92 82.3097 255.69 78.1697C255.01 77.8697 254.38 78.0197 253.67 78.1397C249.78 78.8497 246.19 80.5097 242.43 81.6397C241.41 81.9497 240.45 82.2097 239.4 82.1897" stroke="#2071B5" stroke-width="4.21" stroke-linecap="round" stroke-linejoin="round"/>
<path d="M130.12 119.37C130.12 131.03 129.99 142.69 130.19 154.35C130.27 158.77 130.39 163.2 130.46 167.62C130.65 181.49 130.26 195.37 130.61 209.23C130.94 222.44 130.82 235.64 130.93 248.84" stroke="#2071B5" stroke-width="4.21" stroke-linecap="round" stroke-linejoin="round"/>
<path d="M224.94 162.61C211.42 155.01 197.81 147.57 184.35 139.86C176.59 135.41 168.84 130.95 160.99 126.66C157.07 124.52 153.21 122.25 149.13 120.42C147.6 119.73 146.23 118.66 144.52 118.38" stroke="#2071B5" stroke-width="4.21" stroke-linecap="round" stroke-linejoin="round"/>
<path d="M214.08 56.46C206.64 59.01 199.13 61.35 191.75 64.07C186.86 65.87 181.77 67.09 176.89 68.94C175.97 69.29 174.79 68.8 174.08 69.74C173.25 70.84 173.7 72.15 173.69 73.35C173.65 82.06 173.67 90.77 173.67 99.49" stroke="#2071B5" stroke-width="4.21" stroke-linecap="round" stroke-linejoin="round"/>
<path d="M160.6 138.09V257.92C160.6 263.15 160.54 268.38 160.61 273.6C160.87 291.36 160.94 309.12 160.74 326.88C160.62 338.14 160.72 349.4 160.57 360.66C160.57 361.18 161.13 362.21 159.79 362.07" stroke="#2071B5" stroke-width="4.21" stroke-linecap="round" stroke-linejoin="round"/>
<path d="M249.25 98.4804C247.96 97.9704 226.95 86.8904 225.54 86.5904C223.9 86.2404 223.36 85.0804 223.29 83.4004C222.92 74.1504 223.22 64.9004 223.12 55.6504C223.09 52.6004 222.31 51.9704 219.53 50.5504C215.81 48.6404 212.41 49.9204 209.06 51.0904C204.13 52.8004 199.07 54.1104 194.18 55.9004C189.56 57.5904 184.99 59.3904 180.31 60.9204C177.78 61.7504 175.21 62.4004 172.64 63.0404C168.52 64.0704 167.88 66.1404 167.84 69.3204C167.79 73.6804 167.83 78.0304 167.83 82.3904C167.83 87.9504 168.04 93.5304 167.74 99.0704C167.6 101.72 168.83 102.99 170.86 103.65C174.91 104.98 178.39 107.37 182.09 109.34C187.88 112.43 193.7 115.42 199.99 117.38" fill="#FFDA00" fill-opacity="0.7"/>
<path d="M249.25 98.4804C247.96 97.9704 226.95 86.8904 225.54 86.5904C223.9 86.2404 223.36 85.0804 223.29 83.4004C222.92 74.1504 223.22 64.9004 223.12 55.6504C223.09 52.6004 222.31 51.9704 219.53 50.5504C215.81 48.6404 212.41 49.9204 209.06 51.0904C204.13 52.8004 199.07 54.1104 194.18 55.9004C189.56 57.5904 184.99 59.3904 180.31 60.9204C177.78 61.7504 175.21 62.4004 172.64 63.0404C168.52 64.0704 167.88 66.1404 167.84 69.3204C167.79 73.6804 167.83 78.0304 167.83 82.3904C167.83 87.9504 168.04 93.5304 167.74 99.0704C167.6 101.72 168.83 102.99 170.86 103.65C174.91 104.98 178.39 107.37 182.09 109.34C187.88 112.43 193.7 115.42 199.99 117.38" stroke="#2071B5" stroke-width="4.21" stroke-linecap="round" stroke-linejoin="round"/>
<path d="M166.23 97.0703C160.56 98.9603 154.84 100.71 149.13 102.47C142.63 104.47 136.13 106.49 129.62 108.49C128.66 108.79 127.83 109.36 126.82 109.56C125.34 109.84 125.14 111.31 125.1 112.35C125.06 113.35 125.19 114.53 126.59 115.21C131.79 117.75 136.93 120.39 142.09 123.01C147.81 125.91 153.83 128.4 159.09 131.99C163.98 135.33 169.18 137.98 174.29 140.86C181.19 144.74 188.26 148.32 195.15 152.2C201.16 155.59 207.39 158.59 213.27 162.2C215.03 163.28 216.92 164.15 218.69 165.23C219.77 165.89 220.94 165.81 222.11 165.83" stroke="#2071B5" stroke-width="4.21" stroke-linecap="round" stroke-linejoin="round"/>
<path d="M130.85 230.17C130.85 232.05 130.87 233.92 130.85 235.8C130.72 245.32 130.85 254.84 131.13 264.35C131.56 278.83 131.13 293.31 131.51 307.78C131.98 326.28 131.73 344.77 131.9 363.27C131.93 365.95 132.03 368.63 132.06 371.31" stroke="#2071B5" stroke-width="4.21" stroke-linecap="round" stroke-linejoin="round"/>
<path d="M187.94 211.67V336.72C187.94 339.6 187.7 342.51 187.99 345.36C188.74 352.87 188.11 360.38 188.32 367.88C188.33 368.39 188.88 369.43 187.54 369.29" stroke="#2071B5" stroke-width="4.21" stroke-linecap="round" stroke-linejoin="round"/>
<path d="M299.73 278.02C299.66 274.22 299.61 239 299.26 238.11C291.22 240.76 283.17 243.49 275 245.83C275 248.4 275.75 256.09 274.76 256.31C273.02 256.7 270.67 256.8 266.96 257.72" stroke="#2071B5" stroke-width="4.21" stroke-linecap="round" stroke-linejoin="round"/>
<path d="M266.96 289.68C268.82 290.04 270.37 289.04 271.98 288.45C280.89 285.17 289.81 281.89 298.74 278.65C300.19 278.12 301.68 277.69 303.36 277.15C303.29 261.8 303.52 246.39 303.13 230.92C301.69 230.51 300.64 231.24 299.53 231.58C291.88 233.97 284.29 236.53 276.62 238.84C273.84 239.67 271.12 240.74 268.35 241.55C266.91 241.97 266.75 242.64 266.75 243.84C266.77 253.42 266.59 263.01 266.83 272.59C266.97 277.96 266.48 283.31 266.74 288.68C266.77 289.34 267.2 290.32 265.96 290.49" fill="#FFDA00" fill-opacity="0.7"/>
<path d="M266.96 289.68C268.82 290.04 270.37 289.04 271.98 288.45C280.89 285.17 289.81 281.89 298.74 278.65C300.19 278.12 301.68 277.69 303.36 277.15C303.29 261.8 303.52 246.39 303.13 230.92C301.69 230.51 300.64 231.24 299.53 231.58C291.88 233.97 284.29 236.53 276.62 238.84C273.84 239.67 271.12 240.74 268.35 241.55C266.91 241.97 266.75 242.64 266.75 243.84C266.77 253.42 266.59 263.01 266.83 272.59C266.97 277.96 266.48 283.31 266.74 288.68C266.77 289.34 267.2 290.32 265.96 290.49" stroke="#2071B5" stroke-width="4.21" stroke-linecap="round" stroke-linejoin="round"/>
<path d="M218.5 294.71C218.76 337.4 217.95 380.09 218.1 422.78" stroke="#2071B5" stroke-width="4.21" stroke-linecap="round" stroke-linejoin="round"/>
<path d="M269.17 106.72C284.08 113.83 298.83 121.27 313.81 128.23C316.41 129.44 318.92 130.91 321.85 131.25" stroke="#2071B5" stroke-width="4.21" stroke-linecap="round" stroke-linejoin="round"/>
<path d="M222.32 86.4199C213.52 89.2499 204.58 91.6199 195.75 94.3699C190.39 96.0399 184.93 97.4299 179.5 98.9199C178.16 99.2899 176.78 99.5799 175.47 100.08" stroke="#2071B5" stroke-width="4.21" stroke-linecap="round" stroke-linejoin="round"/>
<path d="M364.87 393.02C358.74 395.33 352.52 397.39 346.37 399.64C337.37 402.93 328.43 406.39 319.45 409.75C319.01 409.91 318.63 409.82 318.23 409.92" stroke="#2071B5" stroke-width="4.21" stroke-linecap="round" stroke-linejoin="round"/>
<path d="M264.75 240.62C263.4 240.45 263.56 241.38 263.54 242.23C263.28 251.34 263.35 260.46 263.35 269.57C263.35 276.27 263.34 282.97 263.37 289.68C263.37 290.22 262.87 291.08 263.95 291.29" stroke="#2071B5" stroke-width="4.21" stroke-linecap="round" stroke-linejoin="round"/>
<path d="M187.94 171.06V210.47" stroke="#2071B5" stroke-width="4.21" stroke-linecap="round" stroke-linejoin="round"/>
<path d="M223.93 96.67C220.49 95.82 217.1 94.85 213.47 95.64C210.51 96.28 207.86 97.3 206.03 99.88C205.24 100.99 205.15 101.91 206.23 102.91C209.36 105.83 213.31 106.51 217.3 106.87C220.22 107.13 223.04 106.31 225.75 105.14C227.23 104.51 228.03 103.33 228.72 102.08C229.45 100.75 228.64 99.49 227.9 98.51C227.02 97.35 225.97 96.07 224.13 96.66C223.87 96.74 223.68 96.95 223.93 96.87C223.97 96.86 224.06 96.99 224.13 97.06" stroke="#2071B5" stroke-width="4.21" stroke-linecap="round" stroke-linejoin="round"/>
<path d="M357.23 215.69V246.65" stroke="#2071B5" stroke-width="4.21" stroke-linecap="round" stroke-linejoin="round"/>
<path d="M268.92 257.42C274.23 260.32 279.84 263.33 285.01 266.23C288.81 268.36 293.3 270.81 298.74 273.71" stroke="#2071B5" stroke-width="4.21" stroke-linecap="round" stroke-linejoin="round"/>
<path d="M255.7 396.24C256.13 396.73 255.89 397.32 255.89 397.85C255.91 406.16 255.91 414.47 255.89 422.78C255.89 423.64 256.3 424.84 254.69 424.79" stroke="#2071B5" stroke-width="4.21" stroke-linecap="round" stroke-linejoin="round"/>
<path d="M214.89 113.96C212.62 114.12 210.59 115.13 208.46 115.78C206.84 116.27 205.2 116.71 203.61 117.33C202.66 117.71 201.67 117.43 201.82 115.97C202.07 113.52 200.71 112.41 198.64 111.28C191.75 107.5 184.43 104.52 177.89 100.09" stroke="#2071B5" stroke-width="4.21" stroke-linecap="round" stroke-linejoin="round"/>
<path d="M256.1 199.41C254.53 198.52 253.11 198.98 251.67 199.8C248.74 201.47 247.14 205.13 248.06 208.26C248.65 210.29 250.41 211.25 252.28 210.46C254.56 209.5 256.1 207.73 256.86 205.43C257.2 204.41 256.94 203.21 255.71 202.63" stroke="#2071B5" stroke-width="4.21" stroke-linecap="round" stroke-linejoin="round"/>
<path d="M193.83 75.9C193.51 79.78 198.59 83.81 201.73 83.81C209.05 83.81 210.19 76.67 210.25 75.35C210.51 69.64 206.92 65.75 201.42 66.09C194.11 66.54 193.76 71.29 193.83 75.9Z" stroke="#2071B5" stroke-width="4.21" stroke-linecap="round" stroke-linejoin="round"/>
<path d="M290.48 420.36C283.3 422.75 276.23 425.47 269.16 428.19C267.84 428.7 266.56 429.37 265.14 429.61" stroke="#2071B5" stroke-width="4.21" stroke-linecap="round" stroke-linejoin="round"/>
<path d="M257.11 173.47C257.11 181.78 257.11 190.09 257.11 198.4" stroke="#2071B5" stroke-width="4.21" stroke-linecap="round" stroke-linejoin="round"/>
<path d="M358.03 294.1V315.81" stroke="#2071B5" stroke-width="4.21" stroke-linecap="round" stroke-linejoin="round"/>
<path d="M315.81 411.11C309.16 413.23 302.68 415.81 296.11 418.16C295.45 418.4 294.83 418.78 294.1 418.75" stroke="#2071B5" stroke-width="4.21" stroke-linecap="round" stroke-linejoin="round"/>
<path d="M262.74 430.82C257.54 432.24 252.79 434.84 247.68 436.5C245.65 437.16 243.6 437.81 241.63 438.66" stroke="#2071B5" stroke-width="4.21" stroke-linecap="round" stroke-linejoin="round"/>
<path d="M358.03 327.48V348.39" stroke="#2071B5" stroke-width="4.21" stroke-linecap="round" stroke-linejoin="round"/>
<path d="M251.89 101.09C248.57 102.73 244.17 104.83 240.61 105.68C232.75 107.55 225.14 110.21 217.5 112.76C217.28 112.83 217.23 113.02 217.3 113.15" stroke="#2071B5" stroke-width="4.21" stroke-linecap="round" stroke-linejoin="round"/>
<path d="M167.64 102.1C165.26 103.69 162.48 104.15 159.8 104.93C156.19 105.98 142.61 110.91 138.89 111.55" stroke="#2071B5" stroke-width="4.21" stroke-linecap="round" stroke-linejoin="round"/>
<path d="M358.03 351.4V364.27" stroke="#2071B5" stroke-width="4.21" stroke-linecap="round" stroke-linejoin="round"/>
<path d="M273.16 266.11C277.72 269.34 285.51 273.61 290.03 276.85" stroke="#2071B5" stroke-width="4.21" stroke-linecap="round" stroke-linejoin="round"/>
<path d="M277.1 275.46C281.66 278.69 278.21 276.31 282.74 279.55" stroke="#2071B5" stroke-width="4.21" stroke-linecap="round" stroke-linejoin="round"/>
<path d="M298.74 273.71C292.67 276.6 285.21 278.8 276.84 281.69" stroke="#2071B5" stroke-width="4.21" stroke-linecap="round" stroke-linejoin="round"/>
<path d="M284.66 243.39V265.43" stroke="#2071B5" stroke-width="4.21" stroke-linecap="round" stroke-linejoin="round"/>
<path d="M278 244.95V261.92" stroke="#2071B5" stroke-width="4.21" stroke-linecap="round" stroke-linejoin="round"/>
<path d="M365.27 138.09C361.95 138.69 358.94 140.33 355.62 140.9" stroke="#2071B5" stroke-width="4.21" stroke-linecap="round" stroke-linejoin="round"/>
<path d="M355.97 161.21C356.07 164.29 355.39 167.38 355.97 170.46" stroke="#2071B5" stroke-width="4.21" stroke-linecap="round" stroke-linejoin="round"/>
<path d="M267.36 274.8C268.82 273.86 269.52 269.37 270.58 269.36C271.48 269.36 271.81 269.8 272.23 270.56C273.31 272.47 273.94 277.84 276.21 277.62" stroke="#2071B5" stroke-width="4.21" stroke-linecap="round" stroke-linejoin="round"/>
<path d="M254.69 101.09C258.14 101.77 261.14 103.59 264.33 104.94C264.77 105.13 265.15 105.01 265.55 105.11" stroke="#2071B5" stroke-width="4.21" stroke-linecap="round" stroke-linejoin="round"/>
<path d="M266.96 263.94C269.76 263.9 272.1 265.26 273.72 267.22C276.03 270.02 276.16 273.3 276.58 277.2C276.73 278.57 276.83 280.48 276.85 281.69" stroke="#2071B5" stroke-width="4.21" stroke-linecap="round" stroke-linejoin="round"/>
<path d="M345.17 118.38C342.6 117.14 339.92 116.16 337.33 114.96" stroke="#2071B5" stroke-width="4.21" stroke-linecap="round" stroke-linejoin="round"/>
<path d="M292.16 241.05C292.22 246.68 291.7 264.36 291.82 269.45" stroke="#2071B5" stroke-width="4.21" stroke-linecap="round" stroke-linejoin="round"/>
<path d="M299.47 219.5C299.4 215.7 299.35 180.48 299 179.59C290.96 182.24 282.91 184.97 274.74 187.31C274.74 189.88 275.49 197.57 274.5 197.79C272.76 198.18 270.41 198.28 266.7 199.2" stroke="#2071B5" stroke-width="4.21" stroke-linecap="round" stroke-linejoin="round"/>
<path d="M266.7 231.16C268.56 231.52 270.11 230.52 271.72 229.93C280.63 226.65 289.55 223.37 298.48 220.13C299.93 219.6 301.42 219.17 303.1 218.63C303.03 203.28 303.26 187.87 302.87 172.4C301.43 171.99 300.38 172.72 299.27 173.06C291.62 175.45 284.03 178.01 276.36 180.32C273.58 181.15 270.86 182.22 268.09 183.03C266.65 183.45 266.49 184.12 266.49 185.32C266.51 194.9 266.33 204.49 266.57 214.07C266.71 219.44 266.22 224.79 266.48 230.16C266.51 230.82 266.94 231.8 265.7 231.97" fill="#FFDA00" fill-opacity="0.7"/>
<path d="M266.7 231.16C268.56 231.52 270.11 230.52 271.72 229.93C280.63 226.65 289.55 223.37 298.48 220.13C299.93 219.6 301.42 219.17 303.1 218.63C303.03 203.28 303.26 187.87 302.87 172.4C301.43 171.99 300.38 172.72 299.27 173.06C291.62 175.45 284.03 178.01 276.36 180.32C273.58 181.15 270.86 182.22 268.09 183.03C266.65 183.45 266.49 184.12 266.49 185.32C266.51 194.9 266.33 204.49 266.57 214.07C266.71 219.44 266.22 224.79 266.48 230.16C266.51 230.82 266.94 231.8 265.7 231.97" stroke="#2071B5" stroke-width="4.21" stroke-linecap="round" stroke-linejoin="round"/>
<path d="M264.49 182.1C263.14 181.93 263.3 182.86 263.28 183.71C263.02 192.82 263.09 201.94 263.09 211.05C263.09 217.75 263.08 224.45 263.11 231.16C263.11 231.7 262.61 232.56 263.69 232.77" stroke="#2071B5" stroke-width="4.21" stroke-linecap="round" stroke-linejoin="round"/>
<path d="M268.66 198.9C273.97 201.8 279.58 204.81 284.75 207.71C288.55 209.84 293.04 212.29 298.48 215.19" stroke="#2071B5" stroke-width="4.21" stroke-linecap="round" stroke-linejoin="round"/>
<path d="M272.9 207.6C277.46 210.83 285.25 215.1 289.77 218.34" stroke="#2071B5" stroke-width="4.21" stroke-linecap="round" stroke-linejoin="round"/>
<path d="M276.84 216.94C281.4 220.17 277.95 217.79 282.48 221.03" stroke="#2071B5" stroke-width="4.21" stroke-linecap="round" stroke-linejoin="round"/>
<path d="M298.48 215.2C292.41 218.09 284.95 220.29 276.58 223.18" stroke="#2071B5" stroke-width="4.21" stroke-linecap="round" stroke-linejoin="round"/>
<path d="M284.39 184.87V206.91" stroke="#2071B5" stroke-width="4.21" stroke-linecap="round" stroke-linejoin="round"/>
<path d="M277.74 186.43V203.4" stroke="#2071B5" stroke-width="4.21" stroke-linecap="round" stroke-linejoin="round"/>
<path d="M267.1 216.28C268.56 215.34 269.26 210.85 270.32 210.84C271.22 210.84 271.55 211.28 271.97 212.04C273.05 213.95 273.68 219.32 275.95 219.1" stroke="#2071B5" stroke-width="4.21" stroke-linecap="round" stroke-linejoin="round"/>
<path d="M266.7 205.43C269.5 205.39 271.84 206.75 273.46 208.71C275.77 211.51 275.9 214.79 276.32 218.69C276.47 220.06 276.57 221.97 276.59 223.18" stroke="#2071B5" stroke-width="4.21" stroke-linecap="round" stroke-linejoin="round"/>
<path d="M291.9 182.53C291.96 188.16 291.44 205.84 291.56 210.93" stroke="#2071B5" stroke-width="4.21" stroke-linecap="round" stroke-linejoin="round"/>
<path d="M350.26 263.64C350.19 259.84 350.14 224.62 349.79 223.73C341.75 226.38 333.7 229.11 325.53 231.45C325.53 234.02 326.28 241.71 325.29 241.93C323.55 242.32 321.2 242.42 317.49 243.34" stroke="#2071B5" stroke-width="4.21" stroke-linecap="round" stroke-linejoin="round"/>
<path d="M317.49 275.3C319.35 275.66 320.9 274.66 322.51 274.07C331.42 270.79 340.34 267.51 349.27 264.27C350.72 263.74 352.21 263.31 353.89 262.77C353.82 247.42 354.05 232.01 353.66 216.54C352.22 216.13 351.17 216.86 350.06 217.2C342.41 219.59 334.82 222.15 327.15 224.46C324.37 225.29 321.65 226.36 318.88 227.17C317.44 227.59 317.28 228.26 317.28 229.46C317.3 239.04 317.12 248.63 317.36 258.21C317.5 263.58 317.01 268.93 317.27 274.3C317.3 274.96 317.73 275.94 316.49 276.11" fill="#FFDA00" fill-opacity="0.7"/>
<path d="M317.49 275.3C319.35 275.66 320.9 274.66 322.51 274.07C331.42 270.79 340.34 267.51 349.27 264.27C350.72 263.74 352.21 263.31 353.89 262.77C353.82 247.42 354.05 232.01 353.66 216.54C352.22 216.13 351.17 216.86 350.06 217.2C342.41 219.59 334.82 222.15 327.15 224.46C324.37 225.29 321.65 226.36 318.88 227.17C317.44 227.59 317.28 228.26 317.28 229.46C317.3 239.04 317.12 248.63 317.36 258.21C317.5 263.58 317.01 268.93 317.27 274.3C317.3 274.96 317.73 275.94 316.49 276.11" stroke="#2071B5" stroke-width="4.21" stroke-linecap="round" stroke-linejoin="round"/>
<path d="M315.28 226.24C313.93 226.07 314.09 227 314.07 227.85C313.81 236.96 313.88 246.08 313.88 255.19C313.88 261.89 313.87 268.59 313.9 275.3C313.9 275.84 313.4 276.7 314.48 276.91" stroke="#2071B5" stroke-width="4.21" stroke-linecap="round" stroke-linejoin="round"/>
<path d="M319.45 243.04C324.76 245.94 330.37 248.95 335.54 251.85C339.34 253.98 343.83 256.43 349.27 259.33" stroke="#2071B5" stroke-width="4.21" stroke-linecap="round" stroke-linejoin="round"/>
<path d="M323.69 251.73C328.25 254.96 336.04 259.23 340.56 262.47" stroke="#2071B5" stroke-width="4.21" stroke-linecap="round" stroke-linejoin="round"/>
<path d="M327.64 261.08C332.2 264.31 328.75 261.93 333.28 265.17" stroke="#2071B5" stroke-width="4.21" stroke-linecap="round" stroke-linejoin="round"/>
<path d="M349.27 259.33C343.2 262.22 335.74 264.42 327.37 267.31" stroke="#2071B5" stroke-width="4.21" stroke-linecap="round" stroke-linejoin="round"/>
<path d="M335.19 229.01V251.05" stroke="#2071B5" stroke-width="4.21" stroke-linecap="round" stroke-linejoin="round"/>
<path d="M328.53 230.57V247.54" stroke="#2071B5" stroke-width="4.21" stroke-linecap="round" stroke-linejoin="round"/>
<path d="M317.89 260.42C319.35 259.48 320.05 254.99 321.11 254.98C322.01 254.98 322.34 255.42 322.76 256.18C323.84 258.09 324.47 263.46 326.74 263.24" stroke="#2071B5" stroke-width="4.21" stroke-linecap="round" stroke-linejoin="round"/>
<path d="M317.49 249.56C320.29 249.52 322.63 250.88 324.25 252.84C326.56 255.64 326.69 258.92 327.11 262.82C327.26 264.19 327.36 266.1 327.38 267.31" stroke="#2071B5" stroke-width="4.21" stroke-linecap="round" stroke-linejoin="round"/>
<path d="M342.7 226.66C342.76 232.29 342.24 249.97 342.36 255.06" stroke="#2071B5" stroke-width="4.21" stroke-linecap="round" stroke-linejoin="round"/>
<path d="M350 205.12C349.93 201.32 349.88 166.1 349.53 165.21C341.49 167.86 333.44 170.59 325.27 172.93C325.27 175.5 326.02 183.19 325.03 183.41C323.29 183.8 320.94 183.9 317.23 184.82" stroke="#2071B5" stroke-width="4.21" stroke-linecap="round" stroke-linejoin="round"/>
<path d="M317.23 216.78C319.09 217.14 320.64 216.14 322.25 215.55C331.16 212.27 340.08 208.99 349.01 205.75C350.46 205.22 351.95 204.79 353.63 204.25C353.56 188.9 353.79 173.49 353.4 158.02C351.96 157.61 350.91 158.34 349.8 158.68C342.15 161.07 334.56 163.63 326.89 165.94C324.11 166.77 321.39 167.84 318.62 168.65C317.18 169.07 317.02 169.74 317.02 170.94C317.04 180.52 316.86 190.11 317.1 199.69C317.24 205.06 316.75 210.41 317.01 215.78C317.04 216.44 317.47 217.42 316.23 217.59" fill="#FFDA00" fill-opacity="0.7"/>
<path d="M317.23 216.78C319.09 217.14 320.64 216.14 322.25 215.55C331.16 212.27 340.08 208.99 349.01 205.75C350.46 205.22 351.95 204.79 353.63 204.25C353.56 188.9 353.79 173.49 353.4 158.02C351.96 157.61 350.91 158.34 349.8 158.68C342.15 161.07 334.56 163.63 326.89 165.94C324.11 166.77 321.39 167.84 318.62 168.65C317.18 169.07 317.02 169.74 317.02 170.94C317.04 180.52 316.86 190.11 317.1 199.69C317.24 205.06 316.75 210.41 317.01 215.78C317.04 216.44 317.47 217.42 316.23 217.59" stroke="#2071B5" stroke-width="4.21" stroke-linecap="round" stroke-linejoin="round"/>
<path d="M315.02 167.72C313.67 167.55 313.83 168.48 313.81 169.33C313.55 178.44 313.62 187.56 313.62 196.67C313.62 203.37 313.61 210.07 313.64 216.78C313.64 217.32 313.14 218.18 314.22 218.39" stroke="#2071B5" stroke-width="4.21" stroke-linecap="round" stroke-linejoin="round"/>
<path d="M319.19 184.52C324.5 187.42 330.11 190.43 335.28 193.33C339.08 195.46 343.57 197.91 349.01 200.81" stroke="#2071B5" stroke-width="4.21" stroke-linecap="round" stroke-linejoin="round"/>
<path d="M323.43 193.21C327.99 196.44 335.78 200.71 340.3 203.95" stroke="#2071B5" stroke-width="4.21" stroke-linecap="round" stroke-linejoin="round"/>
<path d="M327.37 202.56C331.93 205.79 328.48 203.41 333.01 206.65" stroke="#2071B5" stroke-width="4.21" stroke-linecap="round" stroke-linejoin="round"/>
<path d="M349.01 200.81C342.94 203.7 335.48 205.9 327.11 208.79" stroke="#2071B5" stroke-width="4.21" stroke-linecap="round" stroke-linejoin="round"/>
<path d="M334.93 170.49V192.53" stroke="#2071B5" stroke-width="4.21" stroke-linecap="round" stroke-linejoin="round"/>
<path d="M328.27 172.05V189.02" stroke="#2071B5" stroke-width="4.21" stroke-linecap="round" stroke-linejoin="round"/>
<path d="M317.63 201.9C319.09 200.96 319.79 196.47 320.85 196.46C321.75 196.46 322.08 196.9 322.5 197.66C323.58 199.57 324.21 204.94 326.48 204.72" stroke="#2071B5" stroke-width="4.21" stroke-linecap="round" stroke-linejoin="round"/>
<path d="M317.23 191.05C320.03 191.01 322.37 192.37 323.99 194.33C326.3 197.13 326.43 200.41 326.85 204.31C327 205.68 327.1 207.59 327.12 208.8" stroke="#2071B5" stroke-width="4.21" stroke-linecap="round" stroke-linejoin="round"/>
<path d="M342.44 168.15C342.5 173.78 341.98 191.46 342.1 196.55" stroke="#2071B5" stroke-width="4.21" stroke-linecap="round" stroke-linejoin="round"/>
<path d="M300.74 393.61C300.67 389.81 300.62 354.59 300.27 353.7C292.23 356.35 284.18 359.08 276.01 361.42C276.01 363.99 276.76 371.68 275.77 371.9C274.03 372.29 271.68 372.39 267.97 373.31" stroke="#2071B5" stroke-width="4.21" stroke-linecap="round" stroke-linejoin="round"/>
<path d="M267.97 405.27C269.83 405.63 271.38 404.63 272.99 404.04C281.9 400.76 290.82 397.48 299.75 394.24C301.2 393.71 302.69 393.28 304.37 392.74C304.3 377.39 304.53 361.98 304.14 346.51C302.7 346.1 301.65 346.83 300.54 347.17C292.89 349.56 285.3 352.12 277.63 354.43C274.85 355.26 272.13 356.33 269.36 357.14C267.92 357.56 267.76 358.23 267.76 359.43C267.78 369.01 267.6 378.6 267.84 388.18C267.98 393.55 267.49 398.9 267.75 404.27C267.78 404.93 268.21 405.91 266.97 406.08" fill="#FFDA00" fill-opacity="0.7"/>
<path d="M267.97 405.27C269.83 405.63 271.38 404.63 272.99 404.04C281.9 400.76 290.82 397.48 299.75 394.24C301.2 393.71 302.69 393.28 304.37 392.74C304.3 377.39 304.53 361.98 304.14 346.51C302.7 346.1 301.65 346.83 300.54 347.17C292.89 349.56 285.3 352.12 277.63 354.43C274.85 355.26 272.13 356.33 269.36 357.14C267.92 357.56 267.76 358.23 267.76 359.43C267.78 369.01 267.6 378.6 267.84 388.18C267.98 393.55 267.49 398.9 267.75 404.27C267.78 404.93 268.21 405.91 266.97 406.08" stroke="#2071B5" stroke-width="4.21" stroke-linecap="round" stroke-linejoin="round"/>
<path d="M265.76 356.21C264.41 356.04 264.57 356.97 264.55 357.82C264.29 366.93 264.36 376.05 264.36 385.16C264.36 391.86 264.35 398.56 264.38 405.27C264.38 405.81 263.88 406.67 264.96 406.88" stroke="#2071B5" stroke-width="4.21" stroke-linecap="round" stroke-linejoin="round"/>
<path d="M269.93 373.01C275.24 375.91 280.85 378.92 286.02 381.82C289.82 383.95 294.31 386.4 299.75 389.3" stroke="#2071B5" stroke-width="4.21" stroke-linecap="round" stroke-linejoin="round"/>
<path d="M274.17 381.71C278.73 384.94 286.52 389.21 291.04 392.45" stroke="#2071B5" stroke-width="4.21" stroke-linecap="round" stroke-linejoin="round"/>
<path d="M278.11 391.05C282.67 394.28 279.22 391.9 283.75 395.14" stroke="#2071B5" stroke-width="4.21" stroke-linecap="round" stroke-linejoin="round"/>
<path d="M299.75 389.31C293.68 392.2 286.22 394.4 277.85 397.29" stroke="#2071B5" stroke-width="4.21" stroke-linecap="round" stroke-linejoin="round"/>
<path d="M285.67 358.98V381.02" stroke="#2071B5" stroke-width="4.21" stroke-linecap="round" stroke-linejoin="round"/>
<path d="M279.01 360.54V377.51" stroke="#2071B5" stroke-width="4.21" stroke-linecap="round" stroke-linejoin="round"/>
<path d="M268.37 390.39C269.83 389.45 270.53 384.96 271.59 384.95C272.49 384.95 272.82 385.39 273.24 386.15C274.32 388.06 274.95 393.43 277.22 393.21" stroke="#2071B5" stroke-width="4.21" stroke-linecap="round" stroke-linejoin="round"/>
<path d="M267.97 379.54C270.77 379.5 273.11 380.86 274.73 382.82C277.04 385.62 277.17 388.9 277.59 392.8C277.74 394.17 277.84 396.08 277.86 397.29" stroke="#2071B5" stroke-width="4.21" stroke-linecap="round" stroke-linejoin="round"/>
<path d="M293.17 356.64C293.23 362.27 292.71 379.95 292.83 385.04" stroke="#2071B5" stroke-width="4.21" stroke-linecap="round" stroke-linejoin="round"/>
<path d="M300.48 335.09C300.41 331.29 300.36 296.07 300.01 295.18C291.97 297.83 283.92 300.56 275.75 302.9C275.75 305.47 276.5 313.16 275.51 313.38C273.77 313.77 271.42 313.87 267.71 314.79" stroke="#2071B5" stroke-width="4.21" stroke-linecap="round" stroke-linejoin="round"/>
<path d="M267.71 346.75C269.57 347.11 271.12 346.11 272.73 345.52C281.64 342.24 290.56 338.96 299.49 335.72C300.94 335.19 302.43 334.76 304.11 334.22C304.04 318.87 304.27 303.46 303.88 287.99C302.44 287.58 301.39 288.31 300.28 288.65C292.63 291.04 285.04 293.6 277.37 295.91C274.59 296.74 271.87 297.81 269.1 298.62C267.66 299.04 267.5 299.71 267.5 300.91C267.52 310.49 267.34 320.08 267.58 329.66C267.72 335.03 267.23 340.38 267.49 345.75C267.52 346.41 267.95 347.39 266.71 347.56" fill="#FFDA00" fill-opacity="0.7"/>
<path d="M267.71 346.75C269.57 347.11 271.12 346.11 272.73 345.52C281.64 342.24 290.56 338.96 299.49 335.72C300.94 335.19 302.43 334.76 304.11 334.22C304.04 318.87 304.27 303.46 303.88 287.99C302.44 287.58 301.39 288.31 300.28 288.65C292.63 291.04 285.04 293.6 277.37 295.91C274.59 296.74 271.87 297.81 269.1 298.62C267.66 299.04 267.5 299.71 267.5 300.91C267.52 310.49 267.34 320.08 267.58 329.66C267.72 335.03 267.23 340.38 267.49 345.75C267.52 346.41 267.95 347.39 266.71 347.56" stroke="#2071B5" stroke-width="4.21" stroke-linecap="round" stroke-linejoin="round"/>
<path d="M265.5 297.7C264.15 297.53 264.31 298.46 264.29 299.31C264.03 308.42 264.1 317.54 264.1 326.65C264.1 333.35 264.09 340.05 264.12 346.76C264.12 347.3 263.62 348.16 264.7 348.37" stroke="#2071B5" stroke-width="4.21" stroke-linecap="round" stroke-linejoin="round"/>
<path d="M269.67 314.49C274.98 317.39 280.59 320.4 285.76 323.3C289.56 325.43 294.05 327.88 299.49 330.78" stroke="#2071B5" stroke-width="4.21" stroke-linecap="round" stroke-linejoin="round"/>
<path d="M273.91 323.19C278.47 326.42 286.26 330.69 290.78 333.93" stroke="#2071B5" stroke-width="4.21" stroke-linecap="round" stroke-linejoin="round"/>
<path d="M277.85 332.53C282.41 335.76 278.96 333.38 283.49 336.62" stroke="#2071B5" stroke-width="4.21" stroke-linecap="round" stroke-linejoin="round"/>
<path d="M299.49 330.79C293.42 333.68 285.96 335.88 277.59 338.77" stroke="#2071B5" stroke-width="4.21" stroke-linecap="round" stroke-linejoin="round"/>
<path d="M285.4 300.47V322.51" stroke="#2071B5" stroke-width="4.21" stroke-linecap="round" stroke-linejoin="round"/>
<path d="M278.75 302.02V318.99" stroke="#2071B5" stroke-width="4.21" stroke-linecap="round" stroke-linejoin="round"/>
<path d="M268.11 331.88C269.57 330.94 270.27 326.45 271.33 326.44C272.23 326.44 272.56 326.88 272.98 327.64C274.06 329.55 274.69 334.92 276.96 334.7" stroke="#2071B5" stroke-width="4.21" stroke-linecap="round" stroke-linejoin="round"/>
<path d="M267.71 321.02C270.51 320.98 272.85 322.34 274.47 324.3C276.78 327.1 276.91 330.38 277.33 334.28C277.48 335.65 277.58 337.56 277.6 338.77" stroke="#2071B5" stroke-width="4.21" stroke-linecap="round" stroke-linejoin="round"/>
<path d="M292.91 298.12C292.97 303.75 292.45 321.43 292.57 326.52" stroke="#2071B5" stroke-width="4.21" stroke-linecap="round" stroke-linejoin="round"/>
<path d="M351.27 379.23C351.2 375.43 351.15 340.21 350.8 339.32C342.76 341.97 334.71 344.7 326.54 347.04C326.54 349.61 327.29 357.3 326.3 357.52C324.56 357.91 322.21 358.01 318.5 358.93" stroke="#2071B5" stroke-width="4.21" stroke-linecap="round" stroke-linejoin="round"/>
<path d="M318.5 390.89C320.36 391.25 321.91 390.25 323.52 389.66C332.43 386.38 341.35 383.1 350.28 379.86C351.73 379.33 353.22 378.9 354.9 378.36C354.83 363.01 355.06 347.6 354.67 332.13C353.23 331.72 352.18 332.45 351.07 332.79C343.42 335.18 335.83 337.74 328.16 340.05C325.38 340.88 322.66 341.95 319.89 342.76C318.45 343.18 318.29 343.85 318.29 345.05C318.31 354.63 318.13 364.22 318.37 373.8C318.51 379.17 318.02 384.52 318.28 389.89C318.31 390.55 318.74 391.53 317.5 391.7" fill="#FFDA00" fill-opacity="0.7"/>
<path d="M318.5 390.89C320.36 391.25 321.91 390.25 323.52 389.66C332.43 386.38 341.35 383.1 350.28 379.86C351.73 379.33 353.22 378.9 354.9 378.36C354.83 363.01 355.06 347.6 354.67 332.13C353.23 331.72 352.18 332.45 351.07 332.79C343.42 335.18 335.83 337.74 328.16 340.05C325.38 340.88 322.66 341.95 319.89 342.76C318.45 343.18 318.29 343.85 318.29 345.05C318.31 354.63 318.13 364.22 318.37 373.8C318.51 379.17 318.02 384.52 318.28 389.89C318.31 390.55 318.74 391.53 317.5 391.7" stroke="#2071B5" stroke-width="4.21" stroke-linecap="round" stroke-linejoin="round"/>
<path d="M316.29 341.83C314.94 341.66 315.1 342.59 315.08 343.44C314.82 352.55 314.89 361.67 314.89 370.78C314.89 377.48 314.88 384.18 314.91 390.89C314.91 391.43 314.41 392.29 315.49 392.5" stroke="#2071B5" stroke-width="4.21" stroke-linecap="round" stroke-linejoin="round"/>
<path d="M320.46 358.63C325.77 361.53 331.38 364.54 336.55 367.44C340.35 369.57 344.84 372.02 350.28 374.92" stroke="#2071B5" stroke-width="4.21" stroke-linecap="round" stroke-linejoin="round"/>
<path d="M324.7 367.32C329.26 370.55 337.05 374.82 341.57 378.06" stroke="#2071B5" stroke-width="4.21" stroke-linecap="round" stroke-linejoin="round"/>
<path d="M328.65 376.67C333.21 379.9 329.76 377.52 334.29 380.76" stroke="#2071B5" stroke-width="4.21" stroke-linecap="round" stroke-linejoin="round"/>
<path d="M350.28 374.92C344.21 377.81 336.75 380.01 328.38 382.9" stroke="#2071B5" stroke-width="4.21" stroke-linecap="round" stroke-linejoin="round"/>
<path d="M336.2 344.6V366.64" stroke="#2071B5" stroke-width="4.21" stroke-linecap="round" stroke-linejoin="round"/>
<path d="M329.54 346.16V363.13" stroke="#2071B5" stroke-width="4.21" stroke-linecap="round" stroke-linejoin="round"/>
<path d="M318.9 376.01C320.36 375.07 321.06 370.58 322.12 370.57C323.02 370.57 323.35 371.01 323.77 371.77C324.85 373.68 325.48 379.05 327.75 378.83" stroke="#2071B5" stroke-width="4.21" stroke-linecap="round" stroke-linejoin="round"/>
<path d="M318.5 365.16C321.3 365.12 323.64 366.48 325.26 368.44C327.57 371.24 327.7 374.52 328.12 378.42C328.27 379.79 328.37 381.7 328.39 382.91" stroke="#2071B5" stroke-width="4.21" stroke-linecap="round" stroke-linejoin="round"/>
<path d="M343.71 342.26C343.77 347.89 343.25 365.57 343.37 370.66" stroke="#2071B5" stroke-width="4.21" stroke-linecap="round" stroke-linejoin="round"/>
<path d="M351.01 320.71C350.94 316.91 350.89 281.69 350.54 280.8C342.5 283.45 334.45 286.18 326.28 288.52C326.28 291.09 327.03 298.78 326.04 299C324.3 299.39 321.95 299.49 318.24 300.41" stroke="#2071B5" stroke-width="4.21" stroke-linecap="round" stroke-linejoin="round"/>
<path d="M318.24 332.37C320.1 332.73 321.65 331.73 323.26 331.14C332.17 327.86 341.09 324.58 350.02 321.34C351.47 320.81 352.96 320.38 354.64 319.84C354.57 304.49 354.8 289.08 354.41 273.61C352.97 273.2 351.92 273.93 350.81 274.27C343.16 276.66 335.57 279.22 327.9 281.53C325.12 282.36 322.4 283.43 319.63 284.24C318.19 284.66 318.03 285.33 318.03 286.53C318.05 296.11 317.87 305.7 318.11 315.28C318.25 320.65 317.76 326 318.02 331.37C318.05 332.03 318.48 333.01 317.24 333.18" fill="#FFDA00" fill-opacity="0.7"/>
<path d="M318.24 332.37C320.1 332.73 321.65 331.73 323.26 331.14C332.17 327.86 341.09 324.58 350.02 321.34C351.47 320.81 352.96 320.38 354.64 319.84C354.57 304.49 354.8 289.08 354.41 273.61C352.97 273.2 351.92 273.93 350.81 274.27C343.16 276.66 335.57 279.22 327.9 281.53C325.12 282.36 322.4 283.43 319.63 284.24C318.19 284.66 318.03 285.33 318.03 286.53C318.05 296.11 317.87 305.7 318.11 315.28C318.25 320.65 317.76 326 318.02 331.37C318.05 332.03 318.48 333.01 317.24 333.18" stroke="#2071B5" stroke-width="4.21" stroke-linecap="round" stroke-linejoin="round"/>
<path d="M316.03 283.32C314.68 283.15 314.84 284.08 314.82 284.93C314.56 294.04 314.63 303.16 314.63 312.27C314.63 318.97 314.62 325.67 314.65 332.38C314.65 332.92 314.15 333.78 315.23 333.99" stroke="#2071B5" stroke-width="4.21" stroke-linecap="round" stroke-linejoin="round"/>
<path d="M320.2 300.11C325.51 303.01 331.12 306.02 336.29 308.92C340.09 311.05 344.58 313.5 350.02 316.4" stroke="#2071B5" stroke-width="4.21" stroke-linecap="round" stroke-linejoin="round"/>
<path d="M324.44 308.81C329 312.04 336.79 316.31 341.31 319.55" stroke="#2071B5" stroke-width="4.21" stroke-linecap="round" stroke-linejoin="round"/>
<path d="M328.38 318.15C332.94 321.38 329.49 319 334.02 322.24" stroke="#2071B5" stroke-width="4.21" stroke-linecap="round" stroke-linejoin="round"/>
<path d="M350.02 316.41C343.95 319.3 336.49 321.5 328.12 324.39" stroke="#2071B5" stroke-width="4.21" stroke-linecap="round" stroke-linejoin="round"/>
<path d="M335.94 286.08V308.12" stroke="#2071B5" stroke-width="4.21" stroke-linecap="round" stroke-linejoin="round"/>
<path d="M329.28 287.64V304.61" stroke="#2071B5" stroke-width="4.21" stroke-linecap="round" stroke-linejoin="round"/>
<path d="M318.64 317.49C320.1 316.55 320.8 312.06 321.86 312.05C322.76 312.05 323.09 312.49 323.51 313.25C324.59 315.16 325.22 320.53 327.49 320.31" stroke="#2071B5" stroke-width="4.21" stroke-linecap="round" stroke-linejoin="round"/>
<path d="M318.24 306.64C321.04 306.6 323.38 307.96 325 309.92C327.31 312.72 327.44 316 327.86 319.9C328.01 321.27 328.11 323.18 328.13 324.39" stroke="#2071B5" stroke-width="4.21" stroke-linecap="round" stroke-linejoin="round"/>
<path d="M343.45 283.74C343.51 289.37 342.99 307.05 343.11 312.14" stroke="#2071B5" stroke-width="4.21" stroke-linecap="round" stroke-linejoin="round"/>
<path d="M128.23 109.34C130.62 112.25 134.15 113 138.69 111.55C138.75 111.53 138.82 111.55 138.89 111.55" stroke="#2071B5" stroke-width="4.21" stroke-linecap="round" stroke-linejoin="round"/>
<path d="M175.08 100.29C173.68 100.78 172.21 101.08 170.86 101.7" stroke="#2071B5" stroke-width="4.21" stroke-linecap="round" stroke-linejoin="round"/>
</svg>
