<?xml version="1.0" encoding="UTF-8"?>
<svg id="icons" xmlns="http://www.w3.org/2000/svg" viewBox="0 0 500 500">
  <defs>
    <style>
      .cls-1 {
        fill: none;
        stroke: #000;
        stroke-linecap: round;
        stroke-linejoin: round;
        stroke-width: .9px;
      }
    </style>
  </defs>
  <path class="cls-1" d="M185.85,359.67c.01,1.11.02,1.99,1.2,2.84,10.39,7.44,21.28,13.96,33.52,17.88,6.24,2,12.64,3.3,19.18,4.21,6.76.94,13.48.98,20.15.39,11.23-.99,21.92-4.24,31.92-9.52,10.56-5.58,20.68-11.95,30.99-17.97,8.75-5.11,17.7-9.92,26.29-15.27,10.47-6.52,21.54-12.01,31.7-19.06,8.86-6.15,16.16-13.63,21.98-22.67,5.57-8.65,9.64-17.93,12.01-27.91,1.06-4.47,1.78-9.02,2.33-13.61.67-5.6.67-11.18.44-16.74-.48-11.53-1.56-22.97-5.06-34.13-1.61-5.14-3.17-10.31-4.78-15.45-1.19-3.79-3.85-6.74-5.68-10.17-2.92-5.46-4.86-11.44-8.59-16.47-7.34-9.88-15.58-18.95-24.63-27.27-9.16-8.42-19.59-14.98-30.87-20.05-6.95-3.12-14.38-5.07-21.95-6.31-5.86-.96-11.75-1.52-17.67-1.5-17.63.05-34.12,4.57-49.58,12.98-18.42,10.02-36.52,20.59-54.57,31.25-9.58,5.66-19.44,10.83-28.5,17.37-11.77,8.49-21.55,18.75-28.78,31.34-5.39,9.38-8.96,19.51-11.08,30.07-1.22,6.09-2.07,12.41-1.72,18.56.25,4.39-.73,9.14,1.62,13.34"/>
  <path class="cls-1" d="M130.69,263.3c.94-.16,1.82-.09,2.83-.53,5.14-2.23,10.75-2.23,16.05-1.48,6.12.86,11.79,3.55,17.08,6.94,12.68,8.13,21.06,19.74,27.27,33.17,3.17,6.85,5.44,14.04,6.69,21.41,1.62,9.53,1.46,19.02-4.21,27.57-3.43,5.17-8.47,8.12-13.96,10.53-2.64,1.16-5.08,2.69-8.04,3.19-1.43.25-2.26,2.03-3.39,3.02-7.76,6.79-23.74,20.36-30.74,24.08-1.29.68-2.67,1.39-3.92,2.06-6.11,3.25-11.38,1.19-16.82-1.64-5.67-2.95-11.32-5.9-16.71-9.33"/>
  <path class="cls-1" d="M118.52,270.75c.89,1.1,2.78,2.5,3.8,2.38,10.76-1.35,19.15,4.19,27.2,9.81,9.59,6.69,16.19,16.17,21.46,26.54,4.32,8.51,7.46,17.37,8.41,26.95.58,5.86.17,11.61-.91,17.37-.15.82-.44,1.36-.99,1.85-2.05,1.82-1.56,4.89-3.39,6.84-.34.36.32.77.29,1.22"/>
  <path class="cls-1" d="M417.02,232.97c3.74-.43,21.2-16.68,24.46-23.3,1.33-2.7,2.04-5.59,1.9-8.67-.09-1.97.14-3.92.36-5.9.28-2.51-.92-4.96-1.47-7.39-1.57-7-3.42-14.01-6.68-20.47-4.75-9.43-10.42-18-19.06-24.66-6.08-4.68-12.33-8.67-19.34-11.62-2.29-.97-4.62-2.58-6.84-1.02-1.81,1.27-15.1,7.66-18.74,10.34"/>
  <path class="cls-1" d="M79.87,389.42c-9.27-1.58-15.19-7.84-20.42-14.9-4.98-6.72-7.91-14.45-9.21-22.62-.86-5.44.55-10.53,4.09-15.26,3.34-4.46,8.14-6.25,12.54-8.87,5.81-3.47,11.65-6.89,17.35-10.54,1.24-.8,1.83-2.16,2.67-3.2,4.9-6.07,12.04-6.26,18.71-2.42,9.69,5.59,16.18,13.89,20.74,23.89,3.05,6.68,4.89,13.74,4.88,21.07-.01,7.57-3.29,13.59-10.14,17.36-.6.33-1.22.67-1.86.59-5.15-.68-9,2.1-13.05,4.62-3.33,2.07-7.25,3.22-10.14,6-.85.81-1.87.13-2.53.88"/>
  <path class="cls-1" d="M444.03,191.15c1,.08,5.53-4.5,5.78-8.12.6-8.48-.07-16.82-4.29-24.47-4.69-8.51-10.85-15.57-20.16-19.16-3.24-1.25-7.2-1.48-10.36,1.03"/>
  <path class="cls-1" d="M80.49,389.11c2.85-1.62,6.08-2.33,8.18-5.5,2.53-3.83,2.44-7.82,1.97-11.85-.75-6.43-2.65-12.57-5.79-18.31-1.37-2.51-3.28-4.64-4.67-7.11"/>
  <path class="cls-1" d="M103.42,335.5c6.41,7.07,9.75,15.61,11.37,24.81.65,3.7.27,7.59-1.45,11.14"/>
  <path class="cls-1" d="M115.2,342.32c1.69,4.18,4.13,8.12,4.62,12.71.53,5.01,1.23,10.06-2.09,14.6-.86,1.18-1.72,2.61-1.29,4.3"/>
  <path class="cls-1" d="M130.69,263.3c-12.48,7.22-34.59,19.74-47.41,26.35-5.13,2.65-8.12,7.3-9.79,12.43-2.06,6.34-2.73,13.04-2.37,19.79.05.96.76,1.58.69,2.48"/>
  <path class="cls-1" d="M100.95,355.95c1.38,5.39,3.03,10.72,1.9,16.43-.45,2.29-1.03,4.52-2.26,6.47-.68,1.07-1.14,1.94-.57,3.13"/>
  <path class="cls-1" d="M137.48,392.66c-.6-.33,9.16-16.56,9.5-18.73,1.25-8.02.84-22.37.85-30.37,0-3.7-22.1-35.72-24.21-38.32-2.06-2.55-32.12-10.94-35.07-11.41-3.38-.54-11.45,5.63-14.47,7.14"/>
  <path class="cls-1" d="M80.49,372.62c-12.75-2.61-15.53-15.68-13.95-20.7.84-2.67,2.89-3.55,5.26-2.15.49.29.9.76,1.24,1.23,3.16,4.28,6.81,7.37,8.41,12.52.6,1.95,1.02,7.35-.34,9.6"/>
  <path class="cls-1" d="M409.37,288.44c4.08-5.41-3.44-52.87-9.09-69.29-13.55-39.39-37.09-64.37-70.22-92-11.81-9.85-34.21-15.57-40.36-15.2"/>
  <path class="cls-1" d="M379.12,323.16c4.55-6.03-3.83-58.96-10.13-77.28-15.11-43.93-41.37-71.78-78.31-102.6-13.17-10.99-38.15-17.36-45.01-16.95"/>
  <path class="cls-1" d="M334.96,346.55c4.55-6.03-3.83-58.96-10.13-77.28-15.11-43.93-41.37-71.78-78.31-102.6-13.17-10.99-38.15-17.36-45.01-16.95"/>
  <path class="cls-1" d="M328.73,350.88c4.55-6.03-3.83-58.96-10.13-77.28-15.11-43.93-41.37-71.78-78.31-102.6-13.17-10.99-38.15-17.36-45.01-16.95"/>
  <path class="cls-1" d="M291.67,375.96c4.55-6.03-3.83-58.96-10.13-77.28-15.11-43.93-41.37-71.78-78.31-102.6-13.17-10.99-38.15-17.36-45.01-16.95"/>
  <path class="cls-1" d="M185.85,359.67c110.94-33-19.97-168.51-60.12-93.89"/>
  <path class="cls-1" d="M400.29,144.73c28.82,13.49,35.06,61.51,37.19,68.65"/>
  <path class="cls-1" d="M394.51,151.87c28.82,13.49,35.06,61.51,37.19,68.65"/>
  <path class="cls-1" d="M79.56,345.72c-2.53-3.43-5.84-5.96-9.29-8.38-2.92-2.05-9.91-3.43-14.58-2.05"/>
  <path class="cls-1" d="M105.9,352.85c.82,4.65,2.66,9.1,2.53,13.95-.04,1.6-.46,3.1-.67,4.65"/>
  <path class="cls-1" d="M122.02,343.56c1.86,4.89,3.68,9.79,3.11,15.19-.11,1.09.33,2.38-1.25,2.79"/>
  <path class="cls-1" d="M70.35,349.23c-4.95-.67-9.73,1.09-9.65,7.03.1,7.22,3.99,12.86,9.41,16.82,2.81,2.05,7.22,3.15,11,.03"/>
  <path class="cls-1" d="M102.8,325.58c-4.08-3.61-9.2-4.83-14.25-6.2"/>
  <path class="cls-1" d="M109.62,359.05c.25,3.82,1.85,7.52.73,11.5-.25.88-1.02,1.72-.73,2.76"/>
  <path class="cls-1" d="M96.47,362.08c2.76,5.34,1.02,23.17-4.08,24.39-2.94.7-8.7,4.92-11.9,3.26"/>
  <path class="cls-1" d="M88.55,322.48c3.36,2.19,7.01,3.96,9.92,6.82"/>
  <path class="cls-1" d="M122.64,365.87c.2,3.91-2.22,6.04-5.27,7.75"/>
  <path class="cls-1" d="M73.06,333.64c2.82,1.14,5.14,3.03,7.44,4.96"/>
  <path class="cls-1" d="M89.79,328.68c2.07,1.86,4.33,3.49,6.2,5.58"/>
  <path class="cls-1" d="M78.01,327.44c-1.86-.51-3.7-1.11-5.58-1.55"/>
  <path class="cls-1" d="M87.93,333.95c1.69,1.72,3.48,3.34,4.96,5.27"/>
  <path class="cls-1" d="M85.45,316.6c.98.59,2.06.27,3.1.31"/>
  <path class="cls-1" d="M81.42,319.69c.87.67,1.85.26,2.79.31"/>
  <polyline class="cls-1" points="120.27 324.93 122.65 305.11 149.08 291.87 176.07 277.53 199.38 259.53 224.47 214.71 263.16 191.16 270.87 188.24 319.46 169.17 359.5 154.03 380.42 151.87"/>
  <path class="cls-1" d="M89.79,310.3l-1.24-16.48,35.33-19.99c3.22,2.13,6.94,3.25,10.24,5.25,16.76,10.2,28.93,24.1,35.73,42.74,2.59,7.11,4.65,14.2,5.56,21.72.45,3.65.67,7.22.26,10.86-.07.62.33,1.36.89,1.85"/>
  <polyline class="cls-1" points="124.94 272.36 146.79 260.98 159.02 243.67 181.12 185.47 223.31 161.21 232.27 158.08 277.58 135.23 319.53 120.5 346.82 123.08"/>
  <polyline class="cls-1" points="130.69 348.71 146.98 342.32 173.15 334.26 178.8 332.12 200.81 331.47 226.49 327.44 283.86 311.13 324.18 296 330.03 292.01 374.59 268.35 404.84 236.97 413.98 213.38"/>
</svg>