<svg width="500" height="500" viewBox="0 0 500 500" fill="none" xmlns="http://www.w3.org/2000/svg">
<path d="M333 147L312.5 160C331.3 176.4 339.333 194.5 341 201.5L361.5 185C364.7 155 343.833 147.167 333 147Z" fill="#FFDA00" fill-opacity="0.7"/>
<ellipse cx="98.7054" cy="349.936" rx="37.0399" ry="63.4813" transform="rotate(-34.5357 98.7054 349.936)" fill="#FFDA00" fill-opacity="0.7"/>
<path d="M127.25 271.69C131.97 271.9 136.6 272.63 141.07 274.23C146.36 276.13 151.68 278.07 156.24 281.41C162.62 286.09 167.45 292.26 171.7 298.88C176.58 306.47 180.4 314.58 182.69 323.31C183.82 327.63 184.5 332.13 183.46 336.65C183.03 338.53 172.99 351.59 172.25 353.34" stroke="#2071B5" stroke-width="4.21" stroke-linecap="round" stroke-linejoin="round"/>
<path d="M117.35 287.12C121.12 288.05 124.4 290.05 127.72 291.96C138.89 298.4 148.41 306.76 155.76 317.34C160.47 324.12 163.25 331.78 164.2 340.09C164.42 342 164.96 344.05 164.88 345.85C164.74 349.07 164.85 352.42 163.64 355.52C163.11 356.88 162.47 358.16 163.43 359.56" stroke="#2071B5" stroke-width="4.21" stroke-linecap="round" stroke-linejoin="round"/>
<path d="M333.18 146.61C334.34 143.68 337.18 143.24 339.64 142.77C345.66 141.64 351.03 143.1 355.79 147.25C361.44 152.18 365.52 158.16 368.11 165.06C370.08 170.3 370.29 175.72 367.51 180.94C366.58 182.69 365.37 184.01 363.58 184.85C359.79 186.64 357.07 189.87 353.69 192.24C350.1 194.76 346.43 197.19 343.06 200.03C342.35 200.63 341.35 200.74 340.54 201.2" stroke="#2071B5" stroke-width="4.21" stroke-linecap="round" stroke-linejoin="round"/>
<path d="M311.99 160.66C318.14 155.88 324.8 151.84 331.11 147.3C331.6 146.94 332.25 146.81 332.72 146.89C336.2 147.44 339.83 147.51 343.07 148.96C348.33 151.31 352.36 155.15 355.55 159.96C358.03 163.69 360.08 167.55 361.06 171.95C361.87 175.57 362.25 179.19 361.02 182.77C360.65 183.86 360.61 184.91 360.59 186.01" stroke="#2071B5" stroke-width="4.21" stroke-linecap="round" stroke-linejoin="round"/>
<path d="M90.17 295.18C87.29 293.66 84.06 293.48 80.95 293.16C65.94 291.64 53.46 303.06 50.61 316.61C49.45 322.13 49.94 327.73 51.49 333.18C55.36 346.82 60.96 359.65 68.96 371.44C78 384.77 89.58 395.21 103.79 402.72C110.17 406.09 116.9 408.64 124.27 408.23C130.33 407.89 135.45 405.57 139.54 400.73C144.17 395.24 145.59 388.85 146.21 382.03C146.35 380.5 146.28 378.95 146.56 377.41C146.76 376.3 146.95 375 146.04 373.97" stroke="#2071B5" stroke-width="4.21" stroke-linecap="round" stroke-linejoin="round"/>
<path d="M132.78 266.62C130.24 269.58 127.36 269.98 124.23 272.11C117.99 276.35 111.84 280.71 105.8 285.24C102.18 287.96 98.39 290.47 94.57 292.92C89.41 296.23 84.18 299.53 79.46 303.39C76.45 305.85 73.13 307.52 69.9 309.47C64.53 312.73 61.07 317.41 59.53 323.52C58.26 328.56 58.61 333.61 60.05 338.48C63.34 349.63 68.06 360.11 74.92 369.63C79.66 376.21 85.07 382 91.53 386.91C95.44 389.88 99.42 392.66 104 394.46C107.91 395.99 111.95 397.18 116.2 396.74C120.8 396.26 124.28 393.69 127.02 390.09C128.62 387.99 130.4 386.17 132.48 384.48C136.08 381.55 139.97 378.98 143.37 375.81C145.85 373.49 148.75 371.71 151.26 369.43C152.27 368.51 152.72 367.6 152.82 366.38C152.96 364.45 153.56 362.6 153.56 360.62C153.56 355.19 152.12 350.07 150.54 344.95C146.51 331.87 138.58 321.3 129.07 311.82C122.5 305.26 115.41 299.28 107.22 294.75C104.92 293.48 102.65 292.08 99.85 292.21" stroke="#2071B5" stroke-width="4.21" stroke-linecap="round" stroke-linejoin="round"/>
<path d="M331.33 231.61C333.78 232.08 334.94 229.95 336.33 228.76C339.83 225.78 341.34 221.54 341.65 217.09C342.6 203.35 337.48 191.32 330.36 180.04C325.53 172.38 319.16 166.02 311.49 161.18C306.35 157.93 300.8 155.36 294.48 155.63C289.48 155.84 284.92 157.38 281.35 161.12" stroke="#2071B5" stroke-width="4.21" stroke-linecap="round" stroke-linejoin="round"/>
<path d="M200.5 219.17C201.83 217.63 203.77 216.91 205.39 215.79C211.19 211.79 216.54 207.18 222.42 203.33C230.22 198.22 237.31 192.14 245.19 187.15C247.78 183.21 251.97 181.11 255.61 178.47C263.11 173.03 270.46 167.37 278.35 162.49C281.03 160.84 284.07 161.08 286.89 161C297.03 160.71 305.88 164.48 313.84 170.57C324.91 179.05 330.89 190.81 334.72 203.76C337.02 211.54 336.86 219.55 333.8 227.2C332.91 229.44 331.55 231.67 329.5 233.22C318.38 241.6 307.25 249.98 296.05 258.25C290.01 262.72 284.18 267.46 278.09 271.85C273.54 275.13 269.25 278.78 264.49 281.73C263.58 282.29 263.13 283.06 262.52 283.71C260.2 286.19 256.86 287.24 254.54 289.8C253.46 290.99 253.21 291.63 253.94 292.89C255.76 296.04 256.47 299.56 257.43 303.01C257.96 304.9 257.22 306.7 257.4 308.55" stroke="#2071B5" stroke-width="4.21" stroke-linecap="round" stroke-linejoin="round"/>
<path d="M111.13 288.5C117.62 290.09 123.3 293.16 128.44 297.44C132.14 300.52 135.7 303.67 138.79 307.37C146.92 317.11 154.1 327.39 157.41 339.87C158.79 345.06 159.44 350.38 158.99 355.75C158.84 357.51 158.69 359.41 158.02 361.01C157.56 362.09 157.97 362.74 158.12 363.59" stroke="#2071B5" stroke-width="4.21" stroke-linecap="round" stroke-linejoin="round"/>
<path d="M66.22 312.19C80.71 305.21 86.17 310.78 90.61 313.4C97.77 317.63 104.07 322.92 110.05 328.73C116.65 335.14 120.9 342.93 124.92 350.94C127.06 355.21 128.18 359.84 129.11 364.51C129.8 367.94 130.52 371.36 130.46 374.88C130.41 378.13 130.59 379.88 129.84 383.45C129.72 384.04 129.27 386.48 126.87 389.8" stroke="#2071B5" stroke-width="4.21" stroke-linecap="round" stroke-linejoin="round"/>
<path d="M449.96 103.77C447.47 104.2 445.83 106.11 444.02 107.52C429.54 118.75 414.61 129.38 400.02 140.46C390.64 147.58 381.15 154.57 371.86 161.8C371.25 162.28 370.79 163.12 369.8 162.97" stroke="#2071B5" stroke-width="4.21" stroke-linecap="round" stroke-linejoin="round"/>
<path d="M121.93 244.73C138.5 241.92 140.03 241.52 152.13 240.72C160.32 240.18 171.73 241.52 179.73 248.47C190.43 257.77 200.82 266.24 207.63 278.6C209.79 282.51 214.1 290.03 215.61 294.25C218.28 301.69 217.82 303.67 220.02 311.31C221.79 317.45 219.03 331.51 218.19 337.99" stroke="#2071B5" stroke-width="4.21" stroke-linecap="round" stroke-linejoin="round"/>
<path d="M433.61 85.1104C418.45 97.1404 402.7 108.4 387.34 120.16C378.02 127.29 368.53 134.19 359.23 141.33C357.5 142.66 355.74 143.96 354.15 145.46" stroke="#2071B5" stroke-width="4.21" stroke-linecap="round" stroke-linejoin="round"/>
<path d="M282.5 266.62C282.62 266.32 282.14 266.23 282.27 265.93C283.73 262.48 283.4 258.96 283.04 255.33C282.63 251.09 281.92 246.9 280.58 242.92C277.38 233.41 272.3 224.92 265.71 217.3C261.59 212.53 257.06 208.29 251.61 205.16C247.31 202.69 243.08 199.97 238.04 199.13" stroke="#2071B5" stroke-width="4.21" stroke-linecap="round" stroke-linejoin="round"/>
<path d="M227.91 200.74C230 202.4 232.7 202.6 235.08 203.14C242.32 204.79 247.64 209.34 252.74 214.14C260.55 221.49 266.53 230.27 271.18 239.91C273.76 245.26 275.87 250.86 276.9 256.72C277.73 261.39 277.64 266.17 276.02 270.75C275.78 271.44 275.83 271.99 276.05 272.6" stroke="#2071B5" stroke-width="4.21" stroke-linecap="round" stroke-linejoin="round"/>
<path d="M145.68 228.85C140.61 231.15 136.47 234.84 131.4 238.06C125.87 241.75 120.8 245.43 115.74 249.58C106.53 257.87 102.84 271.69 106.99 283.21" stroke="#2071B5" stroke-width="4.21" stroke-linecap="round" stroke-linejoin="round"/>
<path d="M226.53 242.21C222.56 244.59 218.62 247.13 214.54 249.31C210.77 251.32 206.97 255.23 196.99 263.17" stroke="#2071B5" stroke-width="4.21" stroke-linecap="round" stroke-linejoin="round"/>
<path d="M245.93 272.94C241.96 275.32 238.02 277.86 233.94 280.04C230.17 282.05 226.37 285.96 216.39 293.9" stroke="#2071B5" stroke-width="4.21" stroke-linecap="round" stroke-linejoin="round"/>
<path d="M112.28 310.16C119.02 315.65 124.38 322.36 129.6 329.24C133.13 333.89 136.49 338.65 139.18 343.81C142.38 349.95 144.52 356.5 145.73 363.36C146.18 365.9 146.38 368.41 146.37 370.97C146.37 371.55 146.27 372.16 146.83 372.58" stroke="#2071B5" stroke-width="4.21" stroke-linecap="round" stroke-linejoin="round"/>
<path d="M245.88 186.92C248.16 188.63 251 189.1 253.49 190.37C256.83 192.07 259.91 194.17 262.92 196.37C271.16 202.41 277.59 210.14 282.91 218.74C288.07 227.09 292.31 235.92 294.23 245.66C294.98 249.47 295.1 253.33 294.27 257.18C294.13 257.84 294.25 258.56 294.25 259.25" stroke="#2071B5" stroke-width="4.21" stroke-linecap="round" stroke-linejoin="round"/>
<path d="M164.11 277.22C174 287.21 181.22 298.88 186.26 311.99C188.19 317.01 189.84 322.09 190.33 327.44C190.8 332.65 191.58 337.89 190.15 343.1C187.74 351.91 180.06 355.38 173.55 354.16C173.19 354.09 172.9 353.91 172.63 353.7" stroke="#2071B5" stroke-width="4.21" stroke-linecap="round" stroke-linejoin="round"/>
<path d="M123.01 272.65C123.69 261.46 125.52 260.54 125.92 260.22C152.49 239.11 186.89 288.9 193.01 297.69C197.82 304.6 199.56 321.06 200.17 327.84C200.77 334.45 200.83 336.65 199.02 343.27C195.96 354.44 192.54 361.11 184.29 359.56C183.84 359.48 172.98 353.96 172.63 353.69" stroke="#2071B5" stroke-width="4.21" stroke-linecap="round" stroke-linejoin="round"/>
<path d="M243.57 217.1C251.4 222.74 256.23 230.86 261.29 238.76C264.9 244.4 267.7 250.48 269.3 256.97C270.82 263.14 271.46 269.45 268.91 275.61" stroke="#2071B5" stroke-width="4.21" stroke-linecap="round" stroke-linejoin="round"/>
<path d="M263.38 206.5C268.99 212.56 274.53 218.65 279.07 225.6C283.79 232.82 287.06 240.66 289.32 248.91C290.29 252.46 290.32 256.28 289.35 259.93C289.06 261 289.07 261.83 289.63 262.71" stroke="#2071B5" stroke-width="4.21" stroke-linecap="round" stroke-linejoin="round"/>
<path d="M244.49 237.83C249.85 247.01 254.41 256.54 257.16 266.85C258.07 270.25 259.02 273.63 259.03 277.22C259.03 279.34 258.52 281.39 258.17 283.42C257.99 284.47 258.09 285.29 258.31 286.21" stroke="#2071B5" stroke-width="4.21" stroke-linecap="round" stroke-linejoin="round"/>
<path d="M146.37 228.38C147.77 225.98 150.28 224.78 152.42 223.41C159.12 219.11 165.39 214.21 171.87 209.63C174.16 208.01 176.14 207.76 178.37 208.83C185.52 212.27 193.13 214.89 199.74 219.26C207.7 224.52 216.2 229.09 222.86 236.19C226.77 240.36 230.16 244.91 233.43 249.58C238.91 257.42 243.7 265.65 247.5 274.45C249.65 279.41 251.31 284.54 253.01 289.66" stroke="#2071B5" stroke-width="4.21" stroke-linecap="round" stroke-linejoin="round"/>
<path d="M164.34 304.17C166.38 308.54 169.33 312.4 171.26 316.84C172.99 320.83 173.82 325.06 174.7 329.28C175.63 333.73 175.7 338.17 174.73 342.64C174.08 345.62 173.5 348.6 171.7 351.15C171.53 351.39 171.41 351.61 171.49 351.85C172.46 354.5 170.16 354.75 168.75 355.81C166.66 357.37 164.29 358.68 162.78 360.87C162.18 361.74 161.28 361.55 160.69 362.02C159.06 363.3 157.22 364.31 155.82 365.89C155.08 366.73 154.32 367.63 153.07 367.74" stroke="#2071B5" stroke-width="4.21" stroke-linecap="round" stroke-linejoin="round"/>
<path d="M226.07 230.92C230.16 234.66 234.8 237.79 238.08 242.41C239.73 244.73 241.25 247.13 242.62 249.6C246.57 256.75 250.12 264.08 252.6 271.91C254.13 276.74 255.02 281.6 254.65 286.66C254.61 287.2 254.54 287.77 254.87 288.27" stroke="#2071B5" stroke-width="4.21" stroke-linecap="round" stroke-linejoin="round"/>
<path d="M242.65 225.85C249.38 233.72 255 242.37 259.34 251.71C262.27 258.02 264.33 264.8 264.51 271.92C264.57 274.35 263.97 276.72 263.34 279.05C263.03 280.2 263.08 281.15 263.84 282.05" stroke="#2071B5" stroke-width="4.21" stroke-linecap="round" stroke-linejoin="round"/>
<path d="M153.28 300.94C157.97 306.01 162.21 311.39 165.52 317.51C169.39 324.66 171.24 332.26 172.05 340.32C172.54 345.22 170.52 349.12 168.68 353.21C168.25 354.16 168.29 355.05 168.26 355.99" stroke="#2071B5" stroke-width="4.21" stroke-linecap="round" stroke-linejoin="round"/>
<path d="M120.34 275.84C121.49 277 123.11 276.8 124.5 277.17C130.32 278.7 136.15 280.16 141.53 282.98C144.98 284.79 148.3 286.86 151.16 289.48C154.15 292.23 157.12 295.04 159.73 298.19" stroke="#2071B5" stroke-width="4.21" stroke-linecap="round" stroke-linejoin="round"/>
<path d="M124.72 339.64C127.46 343.74 129.98 348.01 131.79 352.57C134.15 358.49 136.28 364.51 137.03 370.96C137.35 373.71 137.16 376.22 136.5 378.81C136.36 379.36 135.88 380.03 136.46 380.64" stroke="#2071B5" stroke-width="4.21" stroke-linecap="round" stroke-linejoin="round"/>
<path d="M132.78 266.62C134.06 267.13 135.39 266.74 136.7 266.85C142.81 267.33 148.38 269.67 153.98 271.91C157.33 273.25 160.68 274.54 163.42 276.99C163.46 277.03 163.57 276.98 163.65 276.99" stroke="#2071B5" stroke-width="4.21" stroke-linecap="round" stroke-linejoin="round"/>
<path d="M162.72 361.75C167.92 368.24 175.66 369.81 183.03 371.73C186.42 372.61 190.18 372.12 193.4 369.64C196.65 367.13 199.73 364.4 203.07 362.04C208.31 358.32 213.26 354.22 218.5 350.52C228.13 343.72 237.39 336.59 244.75 327.23C248.79 322.09 252.86 316.99 256.46 311.54C257.05 310.65 258.01 309.83 257.39 308.55" stroke="#2071B5" stroke-width="4.21" stroke-linecap="round" stroke-linejoin="round"/>
<path d="M203.03 219.63C209.46 218.83 214.96 221.56 220.27 224.54C222.95 226.04 225.61 227.82 227.45 230.46" stroke="#2071B5" stroke-width="4.21" stroke-linecap="round" stroke-linejoin="round"/>
<path d="M216.39 210.19C221.45 211.12 226.23 213.01 230.86 215.11C233.63 216.37 236.12 218.33 238.5 220.32" stroke="#2071B5" stroke-width="4.21" stroke-linecap="round" stroke-linejoin="round"/>
<path d="M93.3899 295.18C96.4299 296.93 99.7699 298.09 102.83 299.8C106.98 302.13 110.69 305.13 114.59 307.85" stroke="#2071B5" stroke-width="4.21" stroke-linecap="round" stroke-linejoin="round"/>
<path d="M199.12 219.63C195.01 222.75 190.71 225.61 186.68 228.84C184.28 230.76 181.81 232.58 179.31 234.37" stroke="#2071B5" stroke-width="4.21" stroke-linecap="round" stroke-linejoin="round"/>
<path d="M238.97 193.6C241.59 193.94 244.25 193.9 246.81 194.74C250.7 196.02 254.17 198.04 257.4 200.51" stroke="#2071B5" stroke-width="4.21" stroke-linecap="round" stroke-linejoin="round"/>
<path d="M240.81 213.41C236.15 210.45 231.34 207.77 226.07 206.05C225.18 205.76 224.26 205.53 223.31 205.58" stroke="#2071B5" stroke-width="4.21" stroke-linecap="round" stroke-linejoin="round"/>
<path d="M228.83 220.78C234.65 224.92 240.27 229.26 244.03 235.52" stroke="#2071B5" stroke-width="4.21" stroke-linecap="round" stroke-linejoin="round"/>
<path d="M129.78 285.28C125.27 283.71 120.58 282.77 115.96 281.61C115.53 281.5 115.04 281.6 114.58 281.6" stroke="#2071B5" stroke-width="4.21" stroke-linecap="round" stroke-linejoin="round"/>
<path d="M256.93 308.31C251.89 310.43 247.54 313.58 243.58 317.3C242.42 318.39 241.34 319.56 239.89 320.29" stroke="#2071B5" stroke-width="4.21" stroke-linecap="round" stroke-linejoin="round"/>
<path d="M209.71 214.33C213.39 215.71 217.23 216.49 221 217.55" stroke="#2071B5" stroke-width="4.21" stroke-linecap="round" stroke-linejoin="round"/>
<path d="M237.81 322.83C236.35 323 235.76 324.3 234.82 325.14C229.59 329.83 224.14 334.23 218.2 337.98C217.04 338.72 218.66 338.57 221.04 348.7" stroke="#2071B5" stroke-width="4.21" stroke-linecap="round" stroke-linejoin="round"/>
<path d="M177.7 235.76C175.25 237.78 172.54 239.48 170.1 241.52" stroke="#2071B5" stroke-width="4.21" stroke-linecap="round" stroke-linejoin="round"/>
<path d="M144.53 293.11C147.14 294.75 149.12 297.12 151.44 299.1" stroke="#2071B5" stroke-width="4.21" stroke-linecap="round" stroke-linejoin="round"/>
<path d="M203.49 217.56C203.31 218.5 204.71 218.31 204.64 219.17" stroke="#2071B5" stroke-width="4.21" stroke-linecap="round" stroke-linejoin="round"/>
</svg>
