<?xml version="1.0" encoding="UTF-8"?>
<svg id="icons" xmlns="http://www.w3.org/2000/svg" viewBox="0 0 500 500">
  <defs>
    <style>
      .cls-1 {
        fill: none;
        stroke: #000;
        stroke-linecap: round;
        stroke-linejoin: round;
        stroke-width: .88px;
      }
    </style>
  </defs>
  <path class="cls-1" d="M378.24,318.42c2.41.19,4.83.94,9.31.04,8.46-1.7,16.31-5.73,23.98-9.7,5.66-2.93,10.54-6.98,14.82-11.79,5.45-6.14,9.91-12.88,13.37-20.29,2.84-6.1,4.73-12.51,6.02-19.13.82-4.17,1.66-8.37,2.03-12.57.49-5.54.89-11.14.52-16.72-.24-3.6-.54-7.19-.87-10.79-.45-4.88-1.23-9.73-2.24-14.52-1.78-8.47-4.55-16.69-7.95-24.63-3.14-7.34-7.03-14.35-11.6-20.93-4.83-6.95-10.07-13.56-16.26-19.4-11.17-10.52-23.78-18.64-38.55-23.05-5.14-1.53-10.43-2.51-15.83-3-5.23-.47-10.42-.34-15.64-.15"/>
  <path class="cls-1" d="M362.77,332.28q2.5,1.68,4.83,2.89c9.6,5,19.32,9.79,28.87,14.9,1.33.71,1.61,1.35,1.63,2.9.04,3.3-.46,6.61.08,9.91.22,1.36-.05,2.38-1.7,3.14-15.98,7.29-32.87,13.77-48.86,21.03-17.01,7.73-33.12,16.28-50.24,23.78-15.53,6.8-34.21,13.93-49.74,20.73"/>
  <path class="cls-1" d="M114.91,193.38c4.8-1.52,9.63-2.69,14.75-2.69,7.55,0,14.42,2.26,20.89,5.81,11.48,6.3,21.11,14.91,29.48,24.87,10.93,13.02,19.43,27.58,25.74,43.35,3.45,8.63,5.87,17.61,7.35,26.83.98,6.07,1.71,12.14,2.27,18.27.83,9.14.22,18.15-1.48,27.07-2.13,11.13-5.19,26.18-11.95,37.38-1.3,2.16-2.95,5.28-4.74,7.07-1.58,1.59-5.93,4.6-9.18,5.72"/>
  <path class="cls-1" d="M101.71,284.07c-.55-2.76-.79-5.57-.84-8.37-.1-6.16-.32-12.35.42-18.49,1.19-9.86,3.78-19.15,11.43-26.19,4.46-4.11,9.72-6.17,15.84-6.43,11.13-.47,20.3,3.94,28.63,10.81,10.84,8.95,17.63,20.73,23.29,33.26,4.33,9.58,6.83,19.71,7.92,30.15,1.29,12.36.34,24.53-4.63,36.08-3.42,7.95-8.4,14.52-17.12,17.44-6.92,2.32-13.61,1.41-20.25-.94-1.2-.42-2.34-1.04-3.53-1.51"/>
  <path class="cls-1" d="M191.31,95.55c-3.38,1.35-20.9,6.11-24.37,7.29-1.3.44-1.42,1.01-1.41,2.06.03,2.71.02,5.43,0,8.14,0,.99.14,1.51,1.29,2.06,4.21,2.03,8.55,3.76,12.84,5.57,7.67,3.23,15.38,6.37,23.09,9.52,13.72,5.61,27.55,10.96,41.39,16.28,1.38.53,2.76,1.11,4.15,1.62,2.71.98,4.93-.48,7.27-1.18,7.74-2.31,15.4-4.86,23.11-7.27,8.68-2.72,17.3-5.63,25.98-8.36,5.88-1.86,11.8-3.63,17.62-5.7,5.12-1.82,10.17-3.84,15.42-5.25.97-.26,1.34-.8,1.33-1.77-.03-2.13.08-4.26-.06-6.38-.05-.74.09-1.57-1.24-2.06-11.42-4.25-22.86-8.45-34.38-12.44-13.99-4.84-27.84-10.08-42.03-14.35-4-1.21-7.85-2.85-11.85-4.07-1.48-.45-2.66-.14-3.76.19-8.86,2.69-17.78,5.19-26.66,7.84-9.83,2.93-19.69,5.77-29.49,8.83"/>
  <path class="cls-1" d="M386.43,300.14c-10.01,3.88-22.25,9.3-32.25,13.21-14.93,5.85-29.83,11.78-44.71,17.77-10.66,4.29-21.31,8.58-31.9,13.03-5.94,2.5-11.98,4.76-17.84,7.47-2.07.96-3.95,2.25-5.88,3.41-2.33,1.39-4.82,2.18-7.33,2.94-1.08.32-2.27.35-3.54-.3-1.94-1-4.19-1.38-6.12-2.5"/>
  <path class="cls-1" d="M378.62,182.6c-1.16.19-2.22.66-3.31,1.08-9.22,3.51-18.66,6.39-27.97,9.64-12.31,4.3-24.6,8.66-36.94,12.87-13.92,4.76-27.88,9.42-41.85,14.01-10.71,3.52-21.35,7.26-32.09,10.73-3,.97-5.65.45-8.38-.02-1.01-.17-7.22-.3-8.17-.88"/>
  <path class="cls-1" d="M382.14,278.57c2.39,2.42,5.55,3.8,8.17,5.91.51.41.89.88,1.55,1.3-1.9,1.95-4.26,2.61-6.43,3.55-15.15,6.62-30.66,12.34-46.01,18.47-12.94,5.17-25.93,10.25-38.92,15.28-11.05,4.28-22.04,8.74-33.03,13.19-5.48,2.22-10.78,4.88-16.31,6.99-3.91,1.49-7.64,3.36-11.44,5.07-.24.11-.58.01-.87.01"/>
  <path class="cls-1" d="M393.37,273.07c-5.91,2.99-12.08,5.37-18.27,7.7-8.54,3.22-17.03,6.58-25.55,9.87-7.69,2.97-15.45,5.77-23.11,8.82-7.01,2.79-14.06,5.51-21.12,8.18-10.15,3.83-20.2,7.91-30.36,11.72-6.24,2.34-12.38,5.01-18.54,7.58-6.46,2.7-12.65,5.99-19.12,8.67-.32.13-.59.15-.89.19"/>
  <path class="cls-1" d="M390.29,200.87c-5.66,2.24-11.45,4.1-17.18,6.14-12.14,4.33-24.23,8.75-36.34,13.15-12.06,4.38-24.22,8.51-36.28,12.86-12.75,4.6-25.59,8.94-38.28,13.7-6.11,2.29-12.36,4.21-18.33,6.91-2.07.94-4.42.14-6.57-.4-2-.51-3.87-1.49-5.95-1.73"/>
  <path class="cls-1" d="M324.91,129.55c2.56.25,4.5,1.92,6.57,3.14,7.67,4.51,14.73,9.84,21.42,15.75,12.41,10.96,22.2,24.01,30.46,38.18,4.89,8.39,9.32,17.1,12.04,26.56,1.75,6.11,3.28,12.23,4.41,18.5,1.69,9.43,1.61,18.95,1.15,28.4-.57,11.5-2.79,22.86-7.47,33.42-4.85,10.95-10.77,21.35-20.11,29.36-2.88,2.47-6.24,3.57-9.72,4.58"/>
  <path class="cls-1" d="M154.32,191.84c-3.13-3.05-7.25-3.9-11.23-5.05-5.39-1.56-10.96-2.13-16.51-2.58-4.02-.33-7.98.76-11.65,2.38-11.28,4.99-19.22,13.44-25.18,24.14-3.67,6.59-6.24,13.51-8.01,20.75-1.04,4.24-1.64,8.59-2.1,12.97-.53,4.99-.83,9.96-.83,14.98,0,5.62.62,11.17,1.28,16.74.49,4.1,1.22,8.12,2.19,12.11.17.71.75,1.22.74,2.06,5.63-1.6,11.13-3.61,16.72-5.34,8.18-2.54,16.24-5.44,24.43-7.95.95-.29,2.13-1.08,2.81-.97,3.41.56,3.41.9,5.55,2.28-1.71.97-6.06,1.01-7.6,1.55-9.57,3.34-15.84,5.25-25.42,8.57-4.08,1.41-8.09,3.03-12.32,3.97"/>
  <path class="cls-1" d="M374.44,267.34c-3.93,1.89-8.08,3.23-12.13,4.79-9.54,3.67-19.08,7.34-28.63,10.96-10.49,3.98-20.94,8.05-31.42,12.04-13.68,5.21-27.28,10.61-40.94,15.84-3.32,1.27-6.68,2.49-9.88,4-2.1.99-3.89,1.03-5.51-.34-2.08-1.77-5.09-1.9-6.89-4.11-.26-.32-1.36-.25-1.46-.18-3.52,2.31-7.73,3.18-11.27,5.44-.17.11-.3.29-.44.44"/>
  <path class="cls-1" d="M389.19,217.16c-6.55,2.9-13.3,5.28-20.03,7.69-12.21,4.39-24.39,8.89-36.51,13.51-9.92,3.78-19.87,7.5-29.79,11.25-9.3,3.52-18.69,6.87-28.12,10.05-4.95,1.67-9.84,3.49-14.74,5.3-.48.18-.9.07-1.33.18"/>
  <path class="cls-1" d="M395.35,245.33c-2.5.18-4.59,1.55-6.8,2.47-13,5.41-26.3,10.05-39.44,15.1-15.26,5.87-30.53,11.72-45.8,17.58-12.2,4.68-24.41,9.35-36.72,13.75-2.66.95-5.23,2.18-7.94,3.05"/>
  <path class="cls-1" d="M374.22,239.17c-4.19,1.23-8.23,2.91-12.31,4.44-12.97,4.9-26,9.61-38.96,14.52-12.31,4.67-24.64,9.29-37,13.81-8.68,3.18-17.3,6.49-25.95,9.74-.48.18-.9.08-1.33.18"/>
  <path class="cls-1" d="M393.59,187.22c5.94,10.93,10.33,22.5,13.1,34.58,1.62,7.04,2.37,14.27,2.85,21.54.5,7.61.1,15.15-.61,22.67-.91,9.73-3.04,19.23-7.18,28.19-.67,1.46-1.22,2.98-1.99,4.4"/>
  <path class="cls-1" d="M428.81,179.74c1.45,3.96,3.45,7.69,4.83,11.67,2.24,6.47,4.04,13.05,5.34,19.8,1.92,9.99,2.36,20.05,2.15,30.16-.12,5.71-1.03,11.33-1.96,16.95-.65,3.97-2.02,7.75-2.88,11.66"/>
  <path class="cls-1" d="M154.1,322.82c2-3.04,4-6.02,4.9-9.67,1.12-4.53,1.53-9.04,1.05-13.66-.68-6.52-2.06-12.89-4.65-18.92-3.79-8.81-9.17-16.32-18.04-20.67-4.2-2.06-8.52-1.85-12.76.18-.75.36-1.45,1.05-2.42.67"/>
  <path class="cls-1" d="M397.11,351.21c-10.46,4.37-20.87,8.88-31.22,13.52-7.79,3.49-15.56,7.03-23.37,10.48-10.19,4.5-20.41,8.93-30.58,13.47-8.9,3.98-17.83,7.9-26.7,11.95-7.28,3.33-14.59,6.64-21.96,9.8-4.92,2.11-9.73,4.5-14.76,6.35-.71.26-1.13.5-1.1,1.34.17,4.84-.28,9.69.23,14.53"/>
  <path class="cls-1" d="M82.78,290.46c-8.22,3.13-16.63,5.75-24.87,8.82-1.17.44-2.31.96-3.52,1.32-3.81,1.12-4.83,4.47-5.44,7.7-1.57,8.25.57,15.78,5.22,22.66,2.06,3.05,4.66,5.33,8.36,6.18.98.23,1.89.19,2.87,0,4.51-.87,8.55-2.99,12.77-4.62,6.08-2.35,11.99-5.13,18.07-7.43,9.22-3.49,18.47-6.94,27.92-9.78,2.98-.9,5.92-1.88,8.83-3.02,1.69-.67,3.48-.36,5.28.15,6.43,1.83,10.3-1.85,10.89-7.68.81-8.01-.79-15.68-5.15-22.68-3.12-5-7.49-7.92-13.22-9.06-1.25-.25-2.48-.13-3.51.14-4.09,1.06-6.72,1.34-9.68,5.98"/>
  <path class="cls-1" d="M366.07,166.97c-1.14-1.31-2.41-1.2-3.97-.69-11.44,3.7-22.78,7.68-34.14,11.6-15.96,5.51-31.91,11.09-47.94,16.41-10.66,3.54-21.21,7.38-31.91,10.82-4.52,1.45-8.88,3.43-13.45,4.79-3.06.91-19.14,7.05-22.18,8.03"/>
  <path class="cls-1" d="M286.61,118.98c-3.92,1.4-7.81,2.88-11.89,3.72-4.58.94-9.18,1.65-13.86,2.07-4.19.38-8.37.45-12.55.35-8.98-.23-17.79-1.6-26.42-4.13-3.41-1-6.75-2.2-10.12-3.33"/>
  <path class="cls-1" d="M338.73,110.87c-9.31,2.71-7.69,2.18-14.28,4.1-13.42,3.9-26.76,8.05-40.07,12.29-7.16,2.28-14.41,4.28-21.56,6.64-3.21,1.06-6.47,2-9.68,3.09-1.75.59-3.51.72-5.52-.08-6.39-2.55-12.68-5.36-19.09-7.86-8.71-3.39-17.31-7.06-25.99-10.51-9.01-3.58-17.8-7.67-26.64-11.65-2.91-1.31-5.97-2.25-8.8-3.74"/>
  <path class="cls-1" d="M98.18,325.02c1.82,3.72,3.29,7.58,5.25,11.25,4.12,7.72,8.52,15.23,14.12,22,9.53,11.53,20.76,21.02,33.93,28.13,4.48,2.42,9.36,3.84,14.5,4.26,1.1.09,2.18.36,3.3.44,5.89.41,11.31-1.45,16.74-3.32,1.71-.59,3.45-1.49,5.27-.43.69.4,1.05-.09,1.55-.24,17.67-5.54,30.84-16.32,38.74-33.24,3.03-6.48,4.69-13.26,4.43-20.47-.12-3.45-.02-6.9-.03-10.68,3.84-1.46,7.61-3.87,11.89-5.17"/>
  <path class="cls-1" d="M371.8,306.75c1.69,1.85,4.45,2.27,5.84,4.73-.31.83-1.47.65-2.32.97-7.08,2.68-14.33,4.86-21.34,7.74-3.8,1.56-7.49,3.36-11.27,4.97-3.36,1.43-6.71,2.88-10.1,4.24-10.45,4.19-20.79,8.62-31.25,12.78-9.2,3.66-18.34,7.48-27.51,11.24-13.43,5.5-26.76,11.24-40.28,16.52-3.12,1.22-6,2.97-9.05,4.36-.58.27-.41.59-.41.92-.01,7.19-.01,14.38.02,21.57,0,.15.27.29.19.44"/>
  <path class="cls-1" d="M159.82,174.45v8.34c2.11.85,4.1,1.95,6.16,2.88,6.66,3,12.61,7.06,18.32,11.61,6.95,5.54,13.43,11.55,19.04,18.38,7.14,8.7,13.36,18.05,18.16,28.32,4.87,10.43,8.93,21.08,11.5,32.35,1.58,6.94,2.82,13.92,3.8,20.94.6,4.28.68,8.64.5,12.98"/>
  <path class="cls-1" d="M402.39,182.82c4.22,8.05,7.73,16.4,10.3,25.11,1.89,6.41,3.31,12.93,4.28,19.57.96,6.51,1.54,13.03,1.47,19.6-.1,8.89-.8,17.7-2.76,26.44-1.29,5.77-3.05,11.36-5,16.91-.68,1.95-2.15,3.6-3.02,5.52"/>
  <path class="cls-1" d="M340.76,355.83c-6.35,2.2-12.35,5.23-18.47,7.98-8.51,3.83-17.06,7.55-25.57,11.37-5.21,2.34-10.42,4.7-15.62,7.06"/>
  <path class="cls-1" d="M100.39,236.09c-1.25,3.35-2.73,6.6-3.57,10.11-1.21,5.09-1.94,10.21-2.41,15.42-.54,5.97.02,11.9.37,17.83.13,2.26.02,4.59.55,6.83"/>
  <path class="cls-1" d="M183.59,247.97c4.23,8.14,8.06,16.43,10.61,25.3,1.75,6.09,3.02,12.24,3.95,18.5.96,6.44,1.49,14.5,1.26,20.99"/>
  <path class="cls-1" d="M142.43,255.46c8.47,2.53,14.29,8.33,18.68,15.65,6.03,10.06,8.6,21.1,7.89,32.77-.33,5.33-1.79,10.45-4.94,15.01-1.64,2.38-3.81,3.57-6.44,3.87-2.33.26-4.45.77-6.63,1.74-6.03,2.68-11.81,1.22-17.11-2.17-2.99-1.91-5.69-4.27-7.51-7.44"/>
  <path class="cls-1" d="M303.56,159.26c.43-3.39.26-6.69-1.08-9.91-2.02-4.84-6.52-7.95-11.68-7.92-2.42.02-4.54.99-6.37,2.44-5.7,4.54-8.72,10.51-8.79,17.81-.05,5.75,2.96,9.94,8.34,11.87,3.36,1.2,6.61.41,9.67-1.1,4.88-2.42,7.65-6.6,9.2-11.66.14-.45.73-.74.49-1.31"/>
  <path class="cls-1" d="M178.09,393.47c4.92,2.97,10.12,5.43,15.18,8.16,5.35,2.88,10.56,5.96,15.48,9.59,4.27,3.15,9.36,5.03,14.01,7.6,7.73,4.27,15.71,8.08,23.34,12.53.4.23.75.12,1.11.2"/>
  <path class="cls-1" d="M348.24,323.04c1.62,6.02,3.22,12.04,4.84,18.05,2.25,8.37,4.44,16.76,6.8,25.1.1.36.58.45.47.87"/>
  <path class="cls-1" d="M179.63,121.18c-.14,10.35.23,20.7.59,31.04.06,1.66,0,3.38-.18,5.06-.12,1.13.34,1.54,1.33,2.02,12.17,5.85,23.92,12.49,35.69,19.1,4.32,2.42,7.46,5.71,8.81,10.58.54,1.96,2.44,1.62,3.73,1.69,4.61.26,7.49,2.16,9.01,6.46.7,1.99,1.19,4.03,1.1,6.16-.04.96.08,1.77,1.32,1.76"/>
  <path class="cls-1" d="M266.58,356.93c4.28,12.81,8.49,25.64,12.54,38.52.53,1.68,1.52,3.22,1.54,5.06"/>
  <path class="cls-1" d="M189.76,268.67c1.38,4.22,2.6,8.48,3.72,12.77.69,2.67,1.13,5.41,1.57,8.14,1.4,8.83,1.45,17.73,1.32,26.63"/>
  <path class="cls-1" d="M213.97,263.82c1.99,6.32,3.96,12.64,5.32,19.14,1.36,6.49,2.58,12.96,3.13,19.59.35,4.27.21,8.52.35,12.77"/>
  <path class="cls-1" d="M259.97,400.52c-3.52-2.88-7.6-3.16-11.89-2.65-2.79.33-5.4.97-7.32,3.17.35,2.33,2.22,2.74,3.81,3.18,4.39,1.19,8.71,1.3,13.01-.76,1.37-.66,1.98-1.47,2.38-2.72"/>
  <path class="cls-1" d="M169.94,180.4c5.83,2.51,10.64,6.59,15.59,10.39,7.26,5.58,13.88,11.93,19.82,18.9,6.97,8.17,13.04,16.94,17.96,26.56,2.62,5.12,5.18,10.27,7.52,15.5,2.17,4.84,4.02,9.85,5.54,14.94,2.05,6.86,3.86,13.78,4.92,20.89.93,6.21,1.5,12.45,1.72,18.72.03.75.21,1.57-.43,2.2"/>
  <path class="cls-1" d="M296.73,156.84c-.16-2.53-1.5-4.4-3.77-5.22-2.12-.77-4.15.03-5.93,1.46-2.49,2-4.26,6.78-2.72,9.74,2.11,4.07,5.51,4.76,9.1,1.93,2.46-1.94,3.14-4.77,3.53-7.69"/>
  <path class="cls-1" d="M181.83,357.59c-10.56,7.36-21.9,8.39-33.91,4.21-1.56-.54-2.93-1.58-4.61-1.79"/>
  <path class="cls-1" d="M342.74,325.68c3.48,11.76,6.45,23.67,9.87,35.45.2.7.76,1.37.48,2.19"/>
  <path class="cls-1" d="M359.03,351.21c5.41,4.23,15.29,3.87,17.87-.73-1.02-1.46-2.4-2.26-4.22-2.6-3.82-.72-7.55-.81-11.24.67-1.22.49-2.18,1.06-2.41,2.45"/>
  <path class="cls-1" d="M56.58,300.36c2.23,1.74,4.9,2.83,6.86,5.03,6.06,6.82,8.81,14.74,8.3,23.8-.13,2.37-1.47,4.37-2.61,6.39"/>
  <path class="cls-1" d="M247.43,181.06c-3.05,1.6-5.53-.12-8.15-1.31-6.9-3.14-13.86-6.16-20.69-9.48-11.42-5.55-22.86-11.08-34.36-16.47-1.17-.55-2.39-1.17-3.72-1.36"/>
  <path class="cls-1" d="M281.77,95.65c-5.27-1.85-10.61-3.46-16.07-4.62-9.24-1.97-18.58-2.77-27.95-1.48-8.84,1.21-17.44,3.52-25.55,7.42-.12.06-.29,0-.44,0"/>
  <path class="cls-1" d="M132.52,278.35c7.51,3.4,9.11,9.16,11.01,15.85.83,2.92.65,4.96.66,9.94,0,1.91-2.16,3.23-3.55,3.63-2.99.85-6.08,1.41-9.01,2.44-1.14.4-.97.42-4.61,2.05"/>
  <path class="cls-1" d="M87.61,228.75c-2.25,8.52-4.06,17.1-4.23,25.97-.04,2.27-.13,4.55-.17,6.82"/>
  <path class="cls-1" d="M115.57,318.63c4.39,9.47,10.25,17.89,18.07,24.85,2.65,2.36,5.55,4.43,8.79,5.96"/>
  <path class="cls-1" d="M373.34,123.38c-4.51-1.45-8.98-3.04-13.64-3.98-4.58-.92-9.19-1.45-13.87-1.31-1.83.05-4.8.07-6.64.07"/>
  <path class="cls-1" d="M199.44,312.47c-.6,8.41-1.68,16.74-3.98,24.87-.77,2.73-1.77,5.39-3.06,7.93"/>
  <path class="cls-1" d="M96.42,231.68c-3.02,7.28-5.02,14.79-5.78,22.67-.38,3.89-.9,7.76-.82,11.67"/>
  <path class="cls-1" d="M248.09,148.48c.16.55-.24.99-.24,1.54.03,10.05.02,20.1.03,30.16,0,.07.14.15.21.22"/>
  <path class="cls-1" d="M201.64,319.29c-.61,10.66-2.88,20.87-7.89,30.39"/>
  <path class="cls-1" d="M216.83,179.08c-5.73,2.11-11.61,3.76-17.39,5.74-4.7,1.61-9.49,2.94-14.09,4.83"/>
  <path class="cls-1" d="M259.53,146.06c.37.78.21,1.61.21,2.42,0,9.39,0,18.78,0,28.18"/>
  <path class="cls-1" d="M219.03,400.96c3.65,2.16,7.47,3.99,11.22,5.95,5.35,2.79,10.63,5.73,16.07,8.37.71.34,1.48.67,1.77,1.53"/>
  <path class="cls-1" d="M198.56,168.95c-8.75,2.51-17.28,5.67-25.97,8.37-.6.19-1.33.4-1.71.71-1.09.92-1.94.43-2.91-.05-5.77-2.84-11.45-5.86-17.35-8.46-1.29-.57-2.23-.52-3.34-.12-2.41.85-4.95,1.19-7.33,2.27-1.11.5-1.89,1-2.32,1.92-1.06,2.29-2.48,4.4-3.37,6.8-.56,1.49-1.65,2.37-3.49,2.26-1.4-.08-2.88.09-3.96,1.27"/>
  <path class="cls-1" d="M187.99,163.23c-5.79,2.43-11.87,4.01-17.82,5.98-3.7,1.23-7.63,1.84-11.02,3.93"/>
  <path class="cls-1" d="M239.94,205.05c-9.52,3.84-18.96,7.88-28.84,10.79"/>
  <path class="cls-1" d="M215.07,402.06c9.47-5,19.32-9.2,29.05-13.65,1.76-.81,3.52-1.63,5.26-2.46,1.43-.68,2.6-.74,4,.03,8.63,4.76,17.52,9.01,25.98,14.08.19.12.54.28.86.25"/>
  <path class="cls-1" d="M161.14,221.56c-6.31-4.41-12.93-8.18-20.47-10.14-10.09-2.62-19.68-1.37-28.84,3.53"/>
  <path class="cls-1" d="M225.86,190.08c-9.49,2.86-18.73,6.48-28.18,9.47"/>
  <path class="cls-1" d="M271.64,354.95c2.86,8.56,5.73,17.12,8.35,25.76,1.85,6.08,3.99,12.08,5.53,18.26.04.17.28.3.43.44"/>
  <path class="cls-1" d="M236.2,322.38c-.98-1.39-2.59-1.9-3.99-2.59-1.83-.89-3.66-1.78-5.46-2.72-2.36-1.23-4.95.01-5.3,2.67-.08.59-.15,1.23-.15,1.76.03,3.78-.85,7.51-.84,11.23.02,7.06-1.64,13.76-3.41,20.47"/>
  <path class="cls-1" d="M141.11,230.73c-.02,8.16.7,16.29.87,24.43"/>
  <path class="cls-1" d="M83.22,261.4c-.12,8.37,1.25,19.3,2.85,27.53"/>
  <path class="cls-1" d="M214.41,376.31c.35.71.21,1.46.21,2.2,0,5.94-.15,17.83-.04,23.77"/>
  <path class="cls-1" d="M179.92,158.2c-4.56,1.66-12.18,4.24-16.79,5.74-3.33,1.08-7.31,2.41-14.76,5.01"/>
  <path class="cls-1" d="M324.47,153.32v25.31"/>
  <path class="cls-1" d="M168.62,276.15c1.7,4.35,2.89,8.85,3.72,13.43,1.01,5.55.92,11.11.34,16.73-.41,3.92-1.44,7.57-2.73,11.22"/>
  <path class="cls-1" d="M275.16,172.25c-2.71.59-5.27,1.66-7.93,2.41-5.92,1.66-11.76,3.61-17.59,5.56-.6.2-1.29-.17-1.78.39,0,8.14,0,16.29,0,24.43"/>
  <path class="cls-1" d="M240.82,153.76v23.77"/>
  <path class="cls-1" d="M324.25,125.37c.45,2.04.21,4.11.21,6.16.01,6.53,0,13.06.02,19.59,0,.51-.27,1.08.2,1.54"/>
  <path class="cls-1" d="M202.52,383.79c-.12,7.48.27,14.97-.22,22.45"/>
  <path class="cls-1" d="M108.09,345.93c-1.33,2.65-3.18,5.07-3.6,8.2,2.5,2.28,5.57,3.6,8.46,5.19,1.46.8,3.1.6,4.6-.18"/>
  <path class="cls-1" d="M284.41,229.48c-6.9,2.12-13.69,4.58-20.47,7.04-.19.07-.44,0-.66,0"/>
  <path class="cls-1" d="M257.99,265.58c-3.92,1.46-7.87,2.84-11.69,4.57-1.26.57-2.71.32-4.18-.07-1.49-.39-2.9-1.49-4.6-.98"/>
  <path class="cls-1" d="M141.55,255.02c-1.63.04-3.18-.55-4.84-.48-4.08.17-7.79,1.41-11.47,3.06-2.06.92-2.89,2.7-4.21,4.19-2.06,2.32-3.82,4.82-5.19,7.56-1.62,3.25-2.33,6.85-3.33,10.33-.09.3.36.53.21.88"/>
  <path class="cls-1" d="M142.21,326.78c-.09,6.68.29,13.35.44,20.03.02.95,0,1.91,0,2.86"/>
  <path class="cls-1" d="M396.23,259.42c-.43-.16-.9-.4-1.31-.21-6.52,3.1-13.33,5.5-20.04,8.13"/>
  <path class="cls-1" d="M309.5,220.68c-6.33,1.93-12.5,4.34-18.71,6.59-.19.07-.44,0-.66,0"/>
  <path class="cls-1" d="M140.23,192.28c-.34,4.85-.4,9.69.18,14.53.17,1.43.29,2.95-.18,4.4"/>
  <path class="cls-1" d="M331.95,332.94c.72,4.11,2.2,8.03,3.13,12.1.49,2.14,1.28,4.23,1.71,6.39"/>
  <path class="cls-1" d="M366.29,186.56c4.59,4.84,17.55,15.74,17.61,16.29"/>
  <path class="cls-1" d="M307.3,253.26c-5.46,1.6-10.64,4-16.05,5.79-.53.17-1.02.33-1.56.38"/>
  <path class="cls-1" d="M241.04,334.48c.17,1.64-.12,3.27-.48,4.83-1.14,5.09-2.2,10.21-3.74,15.19-1.31,4.22-3.8,7.85-6.61,11.2-1.75,2.09-3.37,4.26-5.03,6.42"/>
  <path class="cls-1" d="M176.99,384.45c-2.54.58-5.13.34-7.7.46-3.21.15-6.34-.31-9.47-.9"/>
  <path class="cls-1" d="M366.29,167.41v19.15"/>
  <path class="cls-1" d="M243.02,184.14c-4.68,1.36-9.22,3.17-13.87,4.61-.74.23-1.21.57-1.32,1.34"/>
  <path class="cls-1" d="M332.39,116.78c-4.74,1.42-9.4,3.07-14.07,4.66-.48.16-.9.07-1.33.18"/>
  <path class="cls-1" d="M412.08,160.37c-4.74,1.42-9.4,3.07-14.07,4.66-.48.16-.9.07-1.33.18"/>
  <path class="cls-1" d="M416.87,161.47c-4.74,1.42-9.4,3.07-14.07,4.66-.48.16-.9.07-1.33.18"/>
  <path class="cls-1" d="M224.97,330.96c-1.69,2.88-1.14,4.47,2.44,5.41,1.96.51,3.97,1.5,6.18.86.78-2.34.54-3.22-1.59-3.81-2.5-.7-4.61-2.4-7.25-2.68"/>
  <path class="cls-1" d="M243.02,297.28c1.52.17,2.9.8,4.17,1.56,2.5,1.49,5,1.22,7.48.17,1.16-.49,2.3-1.01,3.53-1.29"/>
  <path class="cls-1" d="M380.16,209.89c-5.15,1.43-10.04,3.63-15.19,5.06"/>
  <path class="cls-1" d="M294.53,194.7c-5.04,1.47-9.93,3.37-14.97,4.84"/>
  <path class="cls-1" d="M260.19,105.78c-3.03.04-6.01-.49-9.02-.73-6.29-.49-12.48.52-18.72.73"/>
  <path class="cls-1" d="M258.21,248.63c.5,2.48.19,4.99.2,7.48.05,8.36.02,16.73.02,25.09v16.29"/>
  <path class="cls-1" d="M298.94,203.95c-4.93,1.34-9.63,3.38-14.53,4.84"/>
  <path class="cls-1" d="M216.17,142.76c0,4.18-.07,9.69,0,13.87"/>
  <path class="cls-1" d="M278.68,210.99c-4.27,1.21-8.42,2.77-12.55,4.39-.19.08-.44,0-.66,0"/>
  <path class="cls-1" d="M147.05,170.05v17.61"/>
  <path class="cls-1" d="M381.48,220.68c.87,1.64,2.65,2.2,3.99,3.27,2.89,2.31,5.71,4.69,8.7,7.39-6.45,2.76-12.82,4.92-19.07,7.39"/>
  <path class="cls-1" d="M317.87,186.78c-4.16,1.17-8.17,2.79-12.33,3.96"/>
  <path class="cls-1" d="M377.52,206.37c4.17,3.86,8.74,7.24,12.99,11.01"/>
  <path class="cls-1" d="M124.16,312.69c-3.43.93-6.73,2.26-10.13,3.29-.73.22-1.4.67-2.2.67"/>
  <path class="cls-1" d="M216.17,156.62c-.14,4.11.28,8.23-.22,12.33"/>
  <path class="cls-1" d="M120.64,301.24c-4.16,1.17-8.17,2.79-12.33,3.96"/>
  <path class="cls-1" d="M248.31,315.99c.09,4.62-.25,9.25.22,13.87"/>
  <path class="cls-1" d="M382.58,236.31c2.59,2.5,5.83,4.13,8.55,6.43.93.79,2.39,1.13,2.68,2.6"/>
  <path class="cls-1" d="M383.68,250.4c3.53,2.71,7.27,5.13,10.58,8.13.23.21.49.32.43.68"/>
  <path class="cls-1" d="M167.96,187.22c-2.96,1.49-6.16,2.36-9.23,3.55-3.14,1.22-6.21,2.6-9.46,3.54-.25.07-.9.24-.89.83"/>
  <path class="cls-1" d="M322.71,215.84c-3.88,1.13-7.52,2.96-11.45,3.96"/>
  <path class="cls-1" d="M250.73,363.98c.41,3.6.15,7.19.04,10.79-.11,3.45-.36,6.94.62,10.34"/>
  <path class="cls-1" d="M327.99,245.33c-3.78,1.01-7.24,2.9-11.01,3.96"/>
  <path class="cls-1" d="M224.53,318.85c2.99,2.05,6.04,3.92,9.67,4.68.63.13.92-.06,1.33-.28"/>
  <path class="cls-1" d="M383.24,264.92c3.41,2.53,7.19,4.56,10.12,7.71.45.49.99.43,1.55.43"/>
  <path class="cls-1" d="M352.65,129.99c-3.48-1.71-6.88-3.6-10.57-4.84"/>
  <path class="cls-1" d="M71.33,312.69c1.19,3.44,2.07,6.97,2.64,10.57"/>
  <path class="cls-1" d="M352.65,157.28c-3.2.56-6.16,1.93-9.23,2.9-.47.15-.9.07-1.33.18"/>
  <path class="cls-1" d="M363.43,317.09c.03,4.48-.01,8.95-.2,13.43-.03.65-.14,1.22-.46,1.76"/>
  <path class="cls-1" d="M374.66,228.38c.15,5.06-.28,10.13.22,15.19"/>
  <path class="cls-1" d="M207.81,185.9c-2.97.83-5.88,1.88-8.79,2.9-.48.17-.9.07-1.34.18"/>
  <path class="cls-1" d="M140.45,211.65c-.18,3.97.35,7.92.44,11.89.02.81.09,1.63-.22,2.42"/>
  <path class="cls-1" d="M114.03,295.52c-3.28.87-6.41,2.22-9.69,3.08"/>
  <path class="cls-1" d="M143.09,314.45c-.34,3.25.68,6.44.44,9.69"/>
  <path class="cls-1" d="M240.82,282.09c1.07-.49,2.16-.04,3.06.29,1.96.72,4.02,1.01,5.96,1.72,2.2.81,3.97-.63,5.94-.99.69-.12,1.5-.45,2.22-.8"/>
  <path class="cls-1" d="M150.13,176.21c2.68,1.52,5.67,2.49,8.17,4.37.28.21,1.08,2.21,1.52,2.21"/>
  <path class="cls-1" d="M300.7,239.17c-3.19.72-6.08,2.32-9.25,3.08"/>
  <path class="cls-1" d="M375.54,243.57c-.86-.09-.95.26-.92,1.1.1,2.78.04,5.57.04,8.36"/>
  <path class="cls-1" d="M374.44,253.48c.45,1.97.15,3.96.22,5.94.14,4.25-.29,8.52.22,12.77"/>
  <path class="cls-1" d="M93.78,213.19c-1.4,2.9-3.05,5.68-3.96,8.8"/>
  <path class="cls-1" d="M257.55,342.19c-.28,2.93.65,5.87,0,8.8"/>
  <path class="cls-1" d="M378.18,293.1c1.73,1.76,3.82,3.08,5.73,4.61.92.74,2.03,1.26,2.52,2.43"/>
  <path class="cls-1" d="M102.15,292.88c-2.83.73-5.53,1.91-8.36,2.64"/>
  <path class="cls-1" d="M269,137.03c-2.42.41-4.75,1.16-7.03,2.02-.48.18-.9.07-1.34.18"/>
  <path class="cls-1" d="M99.95,300.36c-2.83.73-5.53,1.91-8.36,2.64"/>
  <path class="cls-1" d="M374.66,272.85v7.92"/>
  <path class="cls-1" d="M434.09,275.27c-.92,2.75-2.21,5.34-3.52,7.92"/>
  <path class="cls-1" d="M374.44,281.21c.49,3.22.07,6.46.22,9.69.04.88-.18,1.79.22,2.64"/>
  <path class="cls-1" d="M205.6,373.88c-1.94,2.32-3.17,5.22-5.72,7.04"/>
  <path class="cls-1" d="M309.06,200.43c-2.39.6-4.65,1.6-7.04,2.2"/>
  <path class="cls-1" d="M335.04,191.18c-2.39.6-4.65,1.6-7.04,2.2"/>
  <path class="cls-1" d="M277.8,183.26c-2.39.6-4.65,1.6-7.04,2.2"/>
  <path class="cls-1" d="M286.61,180.18c-2.42.49-4.6,1.79-7.04,2.2"/>
  <path class="cls-1" d="M354.41,174.01c-2.39.6-4.65,1.6-7.04,2.2"/>
  <path class="cls-1" d="M345.6,177.09c-2.39.6-4.65,1.6-7.04,2.2"/>
  <path class="cls-1" d="M295.41,177.09c-2.39.6-4.65,1.6-7.04,2.2"/>
  <path class="cls-1" d="M159.82,183.26v6.82"/>
  <path class="cls-1" d="M140.23,172.03c2.13,1,4.07,2.51,6.6,2.42"/>
  <path class="cls-1" d="M240.82,229.7c1.13,1.94,15.77,15.9,17.17,17.6"/>
  <path class="cls-1" d="M398.87,299.92c-1.12,2.32-2.53,4.47-3.96,6.6"/>
  <path class="cls-1" d="M382.58,127.79c-2.22-.99-4.25-2.38-6.6-3.08"/>
  <path class="cls-1" d="M337.68,162.13c-2.32.13-4.28,1.63-6.6,1.76"/>
  <path class="cls-1" d="M277.36,264.26c-2.31.41-4.32,1.73-6.6,2.2"/>
  <path class="cls-1" d="M364.53,148.48c2.09,1.73,3.99,3.64,5.72,5.72"/>
  <path class="cls-1" d="M125.48,361.12c1.58,1.94,3.34,3.71,5.28,5.28"/>
  <path class="cls-1" d="M258.43,314.01v10.57"/>
  <path class="cls-1" d="M102.15,320.17c-2.72.64-5.15,2.16-7.92,2.64"/>
  <path class="cls-1" d="M163.78,223.76c1.98,1.37,3.3,3.47,5.28,4.84"/>
  <path class="cls-1" d="M209.13,252.38c.7,1.78,1.7,3.42,2.2,5.28"/>
  <path class="cls-1" d="M401.07,141.43c1.79,1.44,3.4,3.05,4.84,4.84"/>
  <path class="cls-1" d="M374.66,217.6v5.06"/>
  <path class="cls-1" d="M104.79,199.99c-1.79,1.44-3.4,3.05-4.84,4.84"/>
  <path class="cls-1" d="M195.04,375.2c-1.62,1.16-3.14,2.47-4.84,3.52"/>
  <path class="cls-1" d="M372.46,144.08c1.69,1.07,2.71,2.89,4.4,3.96"/>
  <path class="cls-1" d="M242.8,308.95c.7,1.24.68,2.6.66,3.96"/>
  <path class="cls-1" d="M169.5,178.86c-.29,2.72.95,5.41.22,8.14"/>
  <path class="cls-1" d="M183.59,350.55c.62,1.19,1.86,1.81,2.6,2.94.73-.92,1.72-1.5,2.24-2.5"/>
  <path class="cls-1" d="M57.68,311.37c-2.51,1.6-2,4.15-1.69,6.37.35,2.52,1.26,5,3.25,6.81.69.63,1.38,1.35,2.64.95,1.43-.45,1.78-1.59,1.93-2.69.53-3.92-.7-7.36-3.27-10.34-.68-.79-1.55-1.22-2.64-1.11"/>
</svg>