<?xml version="1.0" encoding="UTF-8"?>
<svg id="icons" xmlns="http://www.w3.org/2000/svg" viewBox="0 0 500 500">
  <defs>
    <style>
      .cls-1 {
        fill: none;
        stroke: #000;
        stroke-linecap: round;
        stroke-linejoin: round;
        stroke-width: .81px;
      }
    </style>
  </defs>
  <path class="cls-1" d="M366.31,352.08c-2.02,5.94-5.87,10.36-11.34,13.34-5.67,3.09-11.95,4.61-18.01,6.65-8.98,3.01-17.92,6.13-26.89,9.14-12.67,4.26-25.38,8.41-38.04,12.73-12.19,4.16-24.46,8.06-36.64,12.27-7.43,2.57-14.85,5.23-22.43,7.34-5.76,1.6-11.63,1.84-17.6,1.1-5.34-.66-10.44-1.94-15.16-4.52-4.69-2.56-9.04-5.66-13.56-8.49-7.99-5-15.86-10.2-23.9-15.12-4.09-2.5-7.53-5.63-9.24-10.01-.93-2.38-.44-5.35,1.39-7.62,3.17-3.94,7.51-6.3,11.94-8.48.78-.38,1.54-.86,2.41-1.04"/>
  <path class="cls-1" d="M196.79,98.4c-4.94,1.94-10.12,3.07-15.17,4.65-8.86,2.77-17.82,5.18-26.71,7.87-3.76,1.14-7.53,2.24-11.12,3.86-1.44.65-2.73,1.47-3.87,2.61-1.06,1.06-1.09,1.84,0,2.87,1.83,1.71,3.93,3.05,6.1,4.2,9.06,4.78,17.74,10.23,26.7,15.18,7.43,4.11,15.39,6.59,23.85,7.54,5.53.63,11.09.65,16.58.26,5.7-.41,11.28-1.94,16.8-3.53,13.35-3.85,26.74-7.56,40.07-11.49,12.43-3.66,24.95-7.01,37.4-10.59,12.45-3.57,24.87-7.25,37.22-11.12,4.07-1.28,8.18-2.49,11.77-4.99.9-.62,1.6-1.38,2.39-2.08,1.7-1.5,1.74-2.99,0-4.42-2.59-2.13-5.47-3.8-8.47-5.29-7.76-3.87-15.65-7.43-23.67-10.72-8.77-3.6-17.67-6.75-27.11-8.1-.88-.13-1.74-.46-2.63-.58"/>
  <path class="cls-1" d="M297.13,68.46c8.87,1.13,17.45,3.26,25.71,6.82,10.26,4.42,20.44,9.04,30.72,13.42,3.69,1.57,7.22,3.43,10.35,6.02,1.75,1.45,2.81,3.2,3.4,5.3,1.2,4.25.96,8.63.73,12.94-.16,3.06-1.99,5.58-4.59,7.25-1.53.98-2.06,2.07-2.04,3.88.1,9.24.04,18.48.04,27.71v117.53c0,15.64.1,31.29-.04,46.93-.07,8.02-.14,16.05-.16,24.07,0,.63.13,1.3-.4,1.82"/>
  <path class="cls-1" d="M139.34,137.24c-.97,1.83-.33,3.79-.35,5.66-.12,9.03-.05,18.07-.05,27.11,0,7.01,0,14.03,0,21.04,0,5.87-.06,11.73,0,17.6.44,36.55.17,73.09.12,109.64-.01,8.69-.16,17.4-.39,26.09-.17,6.34-.03,12.68-.16,19.02-.01.56.13,1.08.21,1.62"/>
  <path class="cls-1" d="M367.73,106.9c-1.22.47-1.41,1.81-2.2,2.65-3.25,3.48-7.46,5.26-11.77,6.84-10.8,3.94-21.98,6.61-32.96,9.96-7.47,2.28-14.99,4.38-22.49,6.56-9.14,2.65-18.27,5.36-27.48,7.79-9.68,2.55-19.24,5.54-28.91,8.14-5.54,1.49-11,3.31-16.61,4.57-6.32,1.41-12.68,2.68-19.41,2.66"/>
  <path class="cls-1" d="M361.46,121.06c-.33-.35-.66-.85-1.21-.59-8.68,4.06-18.02,6.08-27.12,8.88-10.81,3.32-21.71,6.36-32.55,9.57-8.43,2.5-16.88,4.93-25.33,7.34-11.17,3.18-22.34,6.38-33.55,9.43-5.05,1.37-10.08,2.8-15.17,4.04-5.66,1.38-11.4,2.17-17.2,2.59-1.08.08-2.14.4-3.44.15,0-2.02,0-4.11,0-6.32-3.09-.3-6.2-.06-9.31-.41-5.55-.63-10.83-1.96-15.99-4.08-8.1-3.34-15.49-8-23.22-12.03-4.62-2.41-9.15-5.04-13.8-7.39-4.09-2.07-7.34-5.05-9.81-8.79-.77-1.17-.37-3.02-.11-4.6.93-5.66,4.74-8.67,9.75-10.27,10.32-3.3,20.74-6.29,31.13-9.38,6.81-2.03,13.63-4.02,20.45-6.02.66-.19,1.01-1,1.82-.83"/>
  <path class="cls-1" d="M351.55,363.2c-8.33,2.92-16.77,5.54-25.08,8.5-11.95,4.25-24.01,8.21-36.04,12.24-11.09,3.72-22.22,7.39-33.33,11.08-9.93,3.3-19.88,6.59-29.76,10.04-4.43,1.55-8.92,2.92-13.33,4.51-2.39.86-4.87,1.11-7.3,1.31-10.45.88-20.24-1.23-29.13-7.02-8.36-5.44-16.86-10.64-25.27-16.01-3.77-2.4-7.82-4.37-11.15-7.45-2.71-2.51-3.33-5.65-3.02-9.12.15-1.69.39-3.37,0-5.06"/>
  <path class="cls-1" d="M352.15,337.11c3.05,1.98,6.28,3.64,9.34,5.61,2.87,1.84,4.81,3.87,5.13,7.53.2,2.29.37,4.59.51,6.89.39,6.4-2.56,10.78-8.12,13.54-4.26,2.11-8.88,3.29-13.33,4.91-9.19,3.37-18.51,6.39-27.76,9.58-7.17,2.48-14.38,4.87-21.61,7.18-8.61,2.75-17.17,5.68-25.7,8.67-6.94,2.43-13.93,4.75-20.85,7.25-3.58,1.29-3.76,2.07-4.42,5.09-.58,2.68-1.78,7.86-1.5,10.74.36,3.77,1.9,6.76,4.94,8.87,6.03,4.18,12.29,8.01,18.61,11.74,2.65,1.56,5.34,3.03,8.27,4.11,5.03,1.85,9.97,1.43,14.77-.49,7.04-2.81,14.17-5.36,21.26-8.04,9.3-3.52,18.69-6.79,27.92-10.51,3.06-1.23,5.34-3.05,5.84-6.5.08-.53.28-1.21-.38-1.62"/>
  <path class="cls-1" d="M133.28,376.75c-.49,3.11-.55,6.26.25,9.29.9,3.41,3.61,5.41,6.41,7.31,11.32,7.68,23.12,14.61,34.64,21.97,4.31,2.75,9.19,4.33,14.32,5.17,3.77.62,7.54,1.01,11.34,1.13,8.13.25,15.9-1.69,23.45-4.46,7.05-2.58,14.25-4.73,21.27-7.4.48-.18,1.2-.58,1.8-.04"/>
  <path class="cls-1" d="M244.54,419.84c1.45,4.49,4.9,7.17,8.7,9.51,7.65,4.7,15.32,9.38,23.3,13.49,3.49,1.8,7.3,2.25,11.31.93,5.93-1.94,11.72-4.24,17.57-6.35,9.61-3.47,19.15-7.15,28.72-10.74,3.18-1.19,6.57-2.02,9.32-4.21,2-1.59,2.18-3.35.61-5.47-1.63-2.2-4.01-3.31-6.26-4.67-6.24-3.76-12.54-7.43-18.84-11.08-.88-.51-.99-1.16-1.02-2.04-.13-4.59.36-9.17.22-13.76"/>
  <path class="cls-1" d="M183.04,112.36c0,.81-1.82,6.06-2.22,6.87-2.02,4.05.4,15.64,6.87,17.26,16.59,4.05,61.01,7.04,54.45-18.22"/>
  <path class="cls-1" d="M267.6,84.24c-4,1.41-7.41,3.62-9.7,7.29-.86,1.38-2.44,2.01-3.27,3.42-1.59,2.71-1.57,5.75-2.02,8.71-.8,5.23,2.03,8.19,6.28,10.32,4.47,2.25,9.24,3.33,14.16,4.09,6.37.98,12.71.99,19.02-.08,6.41-1.09,12.53-2.84,17.45-7.6,3.01-2.91,3.46-6.32,2.7-9.94-.53-2.5-1.05-5.18-3.12-7.13-.57-.54-.94-1.23-1.85-1.18"/>
  <path class="cls-1" d="M292.48,225.04c-8.76,2.95-17.66,5.42-26.51,8.06-8.47,2.52-16.92,5.1-25.47,7.35-6.87,1.81-13.82,3.16-20.85,3.93-4.54.5-9.15.62-13.75.49"/>
  <path class="cls-1" d="M292.48,286.94c-4.36.24-8.61,1.24-12.72,2.5-12.03,3.68-24.06,7.36-36.05,11.19-7.64,2.43-15.34,4.71-23.05,6.9-10.68,3.02-21.3,6.22-31.94,9.38-2.26.67-4.54,1.38-6.68,2.3v2.94"/>
  <path class="cls-1" d="M292.48,237.58c-3.79.43-7.46,1.43-11.13,2.41-7.94,2.13-15.78,4.59-23.67,6.88-6.54,1.9-13.06,3.85-19.61,5.72-4.72,1.35-9.37,2.95-14.17,4"/>
  <path class="cls-1" d="M320.39,174.67c-3.47.9-6.86,2.1-10.32,3.03-8.95,2.39-17.81,5.11-26.69,7.73-9.74,2.87-19.45,5.85-29.17,8.77-8.29,2.49-16.58,5.06-25.04,7.05-8.23,1.93-16.47,2.67-24.9,2.2-5.46-.31-10.87-.84-16.17-2.09-6.5-1.54-12.73-3.89-18.82-6.64-6.45-2.91-12.88-5.81-18.81-9.72"/>
  <path class="cls-1" d="M299.36,141.69c-3.53.61-6.88,1.9-10.31,2.85-8.99,2.49-17.95,5.09-26.91,7.66-9.5,2.72-19.05,5.28-28.54,8.02-3.19.92-6.44,1.75-9.69,2.5"/>
  <path class="cls-1" d="M314.93,166.17c-5.31,1.38-10.51,3.12-15.78,4.63-10.07,2.89-20.12,5.86-30.13,8.92-11.4,3.49-22.86,6.78-34.22,10.42-3.57,1.14-7.31,2.05-11.1,2.52"/>
  <path class="cls-1" d="M320.19,318.7c-5.17-1.96-10.56-3.18-15.99-3.97-4.73-.69-9.56-.78-14.35-.28-7.78.82-15.09,3.43-22.46,5.85-8.87,2.91-17.8,5.67-26.7,8.5-5.12,1.62-10.24,3.27-15.36,4.89-.47.15-.9.43-1.42.39"/>
  <path class="cls-1" d="M314.93,176.49c.43.42.19.95.19,1.42.02,20.09.01,40.19.01,60.28,0,18.54,0,37.09,0,55.63,0,.28-.14.61.34.89-7.84,2.66-15.63,5.11-23.41,7.59-5.47,1.74-10.92,3.51-16.39,5.26-13.41,4.28-26.84,8.5-40.26,12.75-3.82,1.21-7.7,2.23-11.53,3.46"/>
  <path class="cls-1" d="M292.28,319.51c-7.87.44-15.41,2.39-22.87,4.83-10.42,3.41-20.88,6.68-31.33,9.99-4.73,1.5-9.48,2.99-14.18,4.6"/>
  <path class="cls-1" d="M291.67,277.23c-2.63.94-5.41,1.29-8.11,1.94-5.93,1.43-11.76,3.18-17.56,4.99-11.48,3.59-23.04,6.93-34.43,10.79-2.48.84-5.04,1.67-7.86,2.17-.02-1.35,0-2.63,0-3.92,0-18.21.08-36.41-.04-54.62-.05-8.29-.34-16.59-.12-24.88.24-8.77.01-17.53.14-26.3,0-.67.24-1.38-.19-2.02"/>
  <path class="cls-1" d="M319.99,402.45c-3.27,1.84-6.86,2.94-10.34,4.17-10.74,3.8-21.37,7.88-32.13,11.61-8.4,2.92-16.73,6.04-25.09,9.1"/>
  <path class="cls-1" d="M314.73,399.82c-9,3.4-18.07,6.6-27.11,9.91-6.87,2.52-13.78,4.93-20.64,7.47-5.3,1.96-10.61,3.9-15.96,5.74-.68.23-1.37.33-2.25.71,0-4,0-11.15,0-15"/>
  <path class="cls-1" d="M282.16,356.32c-1.61,1.45-3.77,1.55-5.68,2.16-5.34,1.71-10.61,3.66-15.97,5.28-9.4,2.84-18.57,6.34-27.9,9.35-5.82,1.88-11.62,3.87-17.43,5.75-2.94.95-19.8,5.27-22.99,5.38"/>
  <path class="cls-1" d="M181.62,119.64c-.65,5.12-.3,8.16,5.64,11.57,6.19,3.55,12.88,4.65,19.85,4.82,5.72.14,11.43-.06,16.98-1.46,5.48-1.38,11.03-2.77,15.17-7.05,2-2.07,2.79-4.59,2.24-7.47"/>
  <path class="cls-1" d="M159.98,190.65c-3.38,1.52-6.95,2.65-10.12,4.63.02,1.1,0,2.18,0,3.26,0,26.7.04,53.4-.02,80.11-.02,8.09.33,16.19-.18,24.27-.07,1.13.4,1.73,1.41,2.25,3.64,1.91,7.1,4.13,10.74,6.04"/>
  <path class="cls-1" d="M313.31,87.47c-5.66-1.81-10.92-3.43-16.59-4.84"/>
  <path class="cls-1" d="M354.58,106.29c-4.4-3.34-9.4-5.74-14.45-7.9-5.38-2.3-10.78-4.57-16.19-6.8-3.09-1.27-6.2-2.53-9.34-3.67"/>
  <path class="cls-1" d="M296.93,78.78c7.66,1.52,15.02,3.84,22.31,6.74,9.11,3.62,18.19,7.32,27.23,11.11,2.85,1.19,5.54,2.81,8.31,4.2"/>
  <path class="cls-1" d="M133.68,123.89c-.72,4.58-.03,8.44,4.2,11.4,4.54,3.18,9.54,5.51,14.23,8.4,7.09,4.38,14.27,8.63,21.84,12.14,7.31,3.39,14.91,5.79,23.05,6.36,2.91.2,5.8.3,8.89.35,0,.8-.15,1.61-.15,2.42.04,7.82-.29,15.65.16,23.47"/>
  <path class="cls-1" d="M311.09,395.37c-6.57,2.09-12.94,4.74-19.41,7.12-12.81,4.72-25.62,9.44-38.47,14.07-1.36.49-2.69,1.28-4.23,1.27"/>
  <path class="cls-1" d="M188.91,106.29c-.6,1.07-1.73,1.65-2.42,2.63-2.23,3.15-1.76,5.96.24,8.46,2.07,2.59,4.94,4.15,8.05,5.3,6.15,2.28,12.55,3.11,19.02,2.76,7.1-.38,14.11-1.57,20.22-5.62,2.83-1.87,5.19-4.18,5.47-7.87"/>
  <path class="cls-1" d="M352.76,206.43c-.41-.05-.74.1-1.02.41.28.71.21,1.47.21,2.22,0,15.78,0,31.56,0,47.34v39.45c0,8.56,0,17.13.01,25.69,0,.6-.26,1.26.19,1.82"/>
  <path class="cls-1" d="M302.06,367.65c-8.52-4.92-35.23-21.03-43.73-25.97-6.62-3.85-12.62-2.37-18.39,1.19-2.7,1.67-74.36,19.78-76.18,25.89"/>
  <path class="cls-1" d="M296.93,87.07c3.54.35,6.59,1.92,9.27,4.09,2.16,1.74,2.16,5.02.45,7.25-3.74,4.87-9.03,6.75-14.77,7.9-9.97,1.98-19.56,1.13-28.73-3.45-1.1-.55-2.08-1.24-3.05-2.01-1.91-1.52-2.97-3.39-2.83-5.88.04-.61.11-1.24-.19-1.82"/>
  <path class="cls-1" d="M196.59,102.65c-2.31,1.24-5.05,1.61-7.08,3.44-4.2.14-7.96,2.01-11.92,3.08-7.17,1.93-14.31,3.99-21.44,6.07-3.56,1.03-7.21,1.81-10.55,3.57-.93.49-1.9.91-2.82,1.45"/>
  <path class="cls-1" d="M301.49,367.99c-7.4,2.42-23.71,8.65-31.07,11.16-7.14,2.44-14.29,4.88-21.43,7.32-8.23,2.81-16.58,5.29-24.68,8.48"/>
  <path class="cls-1" d="M231.17,104.07c2.04,5.76-1.52,9.03-4.45,10.71-4.5,2.58-9.39,3.59-14.56,3.68-4.96.09-9.85-.18-14.35-2.48-2.84-1.46-6.83-5.38-4.1-11.5"/>
  <path class="cls-1" d="M268,74.33c-5.19,2.12-10.67,3.34-16,5-5.58,1.74-11.17,3.46-16.78,5.09-3.32.97-6.59,2.07-9.91,3.06"/>
  <path class="cls-1" d="M267.8,80.8c-3.97.64-7.7,2.12-11.53,3.25-9.23,2.73-18.48,5.39-27.72,8.06-1.03.3-2,.73-3.03,1.03"/>
  <path class="cls-1" d="M306.03,179.12c0,13.28,0,26.57.01,39.85,0,.67-.24,1.38.19,2.02"/>
  <path class="cls-1" d="M320.6,135.62c.46,1.59.31,3.25.35,4.86.29,11.19-.03,22.39-.03,33.58,0,6.4-.03,12.81-.1,19.22-.07,7.08.04,14.16-.2,21.24-.02.67-.24,1.38.18,2.02"/>
  <path class="cls-1" d="M292.68,183.16v91.84c0,8.29,0,16.59.01,24.88,0,.67-.24,1.38.19,2.02"/>
  <path class="cls-1" d="M205.9,188.83c-.44,2.48-.17,4.99-.18,7.48-.05,15.17-.02,30.34-.02,45.52,0,6.07,0,12.14.01,18.21,0,.6-.26,1.26.19,1.82"/>
  <path class="cls-1" d="M320.6,216.94v62.51c0,3.37,0,6.74,0,10.11,0,.7.15,1.43-.4,2.02"/>
  <path class="cls-1" d="M205.7,262.46c0,15.71,0,31.42.01,47.13,0,.67-.24,1.38.19,2.02"/>
  <path class="cls-1" d="M306.03,221.6c0,17.67,0,35.33,0,53,0,.88.06,1.77-.2,2.63"/>
  <path class="cls-1" d="M233.81,125.31c-6.14,3.51-12.84,5.01-19.83,5.23-5.77.18-11.55.21-17.19-1.38-3.91-1.11-7.67-2.47-10.96-5.01-1.76-1.36-2.64-3.3-4-4.91-.57-.67.49-1.54-.21-2.22"/>
  <path class="cls-1" d="M185.67,200.96v67.11c-10.2,2.97-20.58,6.12-30.75,9.96"/>
  <path class="cls-1" d="M185.67,268.53c0,13.28,0,26.57.02,40.05-6.29,1.54-12.66,3.65-19,5.79-6.56,2.21-13.37,3.85-19.47,7.34-1.11.64-2.13,1.4-3.22,2.04"/>
  <path class="cls-1" d="M298.55,88.69c.41,4.38-1.23,6.94-6.08,8.67-8.11,2.88-16.01,1.99-23.65-1.79-1.23-.61-2.15-1.63-3.01-2.65-.39-.47-.97-1.19-.03-1.8"/>
  <path class="cls-1" d="M182.23,199.95c-.43.64-.19,1.35-.19,2.02-.02,11.6-.01,23.2-.02,34.79,0,.74.14,1.51-.2,2.23"/>
  <path class="cls-1" d="M182.03,269.34c.28.72.2,1.48.2,2.23,0,11.46-.02,22.93.03,34.39,0,1.15-.6,2.29-.03,3.44"/>
  <path class="cls-1" d="M184.86,111.55c-4,.74-7.84,2.13-11.72,3.28-7.48,2.23-15.01,4.32-22.47,6.61-1.78.55-3.47,1.31-5.25,1.84"/>
  <path class="cls-1" d="M253.44,100.63c1.79,4.55,5.59,7.11,9.75,8.8,4.65,1.89,9.67,2.74,14.72,3.16,7.5.63,14.75-.48,21.85-2.85"/>
  <path class="cls-1" d="M268,369.27c-6.87,2.24-13.8,4.32-20.62,6.72-7.68,2.71-15.46,5.13-23.11,7.94-3.67,1.35-7.37,2.7-11.09,3.94"/>
  <path class="cls-1" d="M329.3,331.04c-2.87.44-5.56,1.56-8.27,2.49-12.32,4.21-24.91,7.52-37.27,11.6-4.02,1.33-8.1,2.52-12.11,3.92"/>
  <path class="cls-1" d="M259.5,88.69c-1.93-.23-3.69.56-5.45,1.06-8.72,2.43-17.4,4.96-26.12,7.41-.75.21-1.65.36-2.42-.17"/>
  <path class="cls-1" d="M269.62,349.45c-15.08,4.79-30.16,9.59-45.11,14.76-.12.04-.27,0-.4,0"/>
  <path class="cls-1" d="M351.75,125.71c-4.57,1.79-9.29,3.18-13.98,4.59-4.35,1.31-8.69,2.69-13.12,3.74-3.15.75-6.08,2.3-9.32,2.79"/>
  <path class="cls-1" d="M351.55,207.03c-6.16,2.85-12.75,4.36-19.22,6.26-5.59,1.64-11.17,3.32-16.79,4.87"/>
  <path class="cls-1" d="M286.41,166.37c-3.4.62-6.62,1.87-9.89,2.89-6.48,2.01-13.05,3.72-19.44,6-.3.11-.67.01-1.01.01"/>
  <path class="cls-1" d="M351.55,154.64c-4.18,2.18-8.7,3.47-13.16,4.8-5.69,1.7-11.38,3.39-17.18,4.7"/>
  <path class="cls-1" d="M185.87,318.29c-.09,9.31.15,18.61-.14,28.07-4.3,1.89-9.02,3.12-13.63,4.68-6.31,2.13-12.63,4.2-18.8,6.72-1.07.44-2.24.58-3.25,1.19"/>
  <path class="cls-1" d="M173.13,234.75c3.05,1.52,6.1,3.05,8.9,4.45,0,10.05-.06,19.89.2,29.74"/>
  <path class="cls-1" d="M252.83,176.49c-3.37.72-6.62,1.85-9.91,2.84-5.93,1.77-11.89,3.45-17.8,5.26-4.65,1.43-9.33,2.72-14.16,3.46-9.11,1.4-18.15,1.39-27.12-1.01-.53-.14-.92-.47-1.41-.63"/>
  <path class="cls-1" d="M320.39,293.61c-.13.32.21.52.2.81,0,7.96,0,15.91-.03,23.87,0,.14-.24.27-.08.6,11.02,4.42,20.5,11.87,30.85,17.81"/>
  <path class="cls-1" d="M181.83,319.3c-5.44,1.6-10.77,3.61-16.21,5.18-5.43,1.57-10.67,3.51-15.76,5.94"/>
  <path class="cls-1" d="M250.6,112.16c1.62,2.63,6.99,5.43,9.83,6.64,6.07,2.43,52.11,13.08,52.11-14.95"/>
  <path class="cls-1" d="M255.05,93.75c-1.45-.47-2.77.27-4.03.66-7.36,2.27-14.76,4.4-22.07,6.81-.24.08-.54.01-.81.01"/>
  <path class="cls-1" d="M351.75,308.38c-4.9-2.23-9.44-5.12-14.17-7.67-3.82-2.06-7.39-4.61-11.52-6.09"/>
  <path class="cls-1" d="M315.13,136.03v40.05"/>
  <path class="cls-1" d="M182.23,322.54v25.08"/>
  <path class="cls-1" d="M157.75,178.51c4.79,3.02,9.84,5.58,15.02,7.78,2.96,1.26,5.76,3.08,9.06,3.55"/>
  <path class="cls-1" d="M178.79,160.71c2.6.39,4.95,1.63,7.82,2.17-1.34,1.04-2.67.81-3.77.61-6.75-1.19-13.31-3.06-19.41-6.25-1.34-.7-3.37-1.42-5.07-2.4"/>
  <path class="cls-1" d="M185.67,163.94v23.47"/>
  <path class="cls-1" d="M351.75,124.09c.52,1.35-.04,2.7,0,4.05.48,11.93.28,23.87.29,35.81.01,13.48.03,26.97-.08,40.46,0,.67-.24,1.38.19,2.02"/>
  <path class="cls-1" d="M182.23,163.54c-.45.92-.18,1.89-.19,2.83-.03,7.89-.02,15.78-.02,23.69,1.04.45,2.14.72,3.24.99"/>
  <path class="cls-1" d="M223.7,161.92v23.06"/>
  <path class="cls-1" d="M220.87,68.06c-.21-2.05.61-4.29-1.6-5.9-2.54-1.85-5.39-2.28-8.3-1.9-1.18.15-2.47.51-3.69,1.02-2.39,1-2.81,2.85-2.97,4.95-.12,1.61.09,3.24-.05,4.85-.17,1.96.76,3.02,2.46,3.64,4.4,1.63,8.7,1.18,12.95-.6,1.64-.68,1.33-2.27,1.51-3.47.1-.66.18-1.66-.3-2.41"/>
  <path class="cls-1" d="M351.55,164.75c-4.3,2.22-8.95,3.49-13.56,4.82-2.54.73-5.04,1.62-7.65,2.17-.89.18-1.51.02-2.25-.11"/>
  <path class="cls-1" d="M306.23,139.27c-.29.44-.2.94-.2,1.42,0,8.97,0,17.94,0,26.9,0,.28-.14.61.2.81"/>
  <path class="cls-1" d="M238.08,401.37c-4.57-1.13-10.28-4.49-14.32-6.43-6.8,2.15-13.27,5.48-20.7,5.08"/>
  <path class="cls-1" d="M310.68,424.5c-5.06-2.35-10.33-2.76-15.78-1.85-1.55.26-2.87.84-4.04,1.85"/>
  <path class="cls-1" d="M185.87,240.82c4.47,1.88,9.2,2.59,13.96,3.25,1.88.26,3.79.29,5.67.59"/>
  <path class="cls-1" d="M186.07,191.46c6.84,1.68,13.75,2.7,20.84,2.68,5.23-.02,10.41-.29,15.58-1.06"/>
  <path class="cls-1" d="M223.29,334.48c-3.64.86-7.16,2.13-10.7,3.3-7.47,2.47-15.09,4.47-22.49,7.18-1.31.48-2.57,1.21-4.03,1.26"/>
  <path class="cls-1" d="M223.29,257c-12.44,3.55-24.74,7.53-37.22,10.92"/>
  <path class="cls-1" d="M292.68,143.72c0,8.9,0,17.8.01,26.7,0,.67-.24,1.38.19,2.02"/>
  <path class="cls-1" d="M224.71,76.97c-3.63,1.09-4.12,2.53-7.95,2.2-2.97-.25-8.77,1.01-11.55-.54-.9-.5-3.83-2.23-4.97-2.28"/>
  <path class="cls-1" d="M358.02,318.9c-1.58,2.28-3.98,3.49-6.07,4.76,0,14.32-.2,24.92-.2,39.15"/>
  <path class="cls-1" d="M185.87,323.55c4.3,1.63,8.81,2.25,13.35,2.6,2.08.16,4.18.34,6.27.03"/>
  <path class="cls-1" d="M223.5,162.73c-3.37.45-6.7,1.14-10.11,1.46-6.08.57-12.14.46-18.21.13-2.51-.14-4.99-.67-7.49-.98"/>
  <path class="cls-1" d="M351.55,282.08c-5.57,2.77-11.47,4.67-17.4,6.46-.29.09-.4.29-.6.42"/>
  <path class="cls-1" d="M223.5,323.75c-5.76,1.58-11.59,2.63-17.6,2.43"/>
  <path class="cls-1" d="M223.29,339.33c-5.3,1.49-10.5,3.3-15.77,4.89-.57.17-1.09.06-1.63.17"/>
  <path class="cls-1" d="M223.29,364.62c-5.11,1.59-10.15,3.44-15.37,4.67-.68.16-23.69,6.49-24.37,6.5"/>
  <path class="cls-1" d="M223.29,353.69c-4.23.83-8.19,2.53-12.33,3.68-1.61.45-32.43,10.12-34.11,10.28"/>
  <path class="cls-1" d="M221.68,71.3c2.36.94,3.45,2.38,3.42,4.85-.05,4.11.12,8.22-.14,12.34-.19,2.95.2,5.93.29,8.89.1,3.38-1.87,4.89-4.21,6.01-4.31,2.06-8.99,2.49-13.72,1.85-1.36-.18-2.79-.3-4.05-.98"/>
  <path class="cls-1" d="M206.71,302.31c5.65-1.52,11.22-3.3,16.99-5.12,0,11.59-.02,23.12.02,34.65.02,4.32-.28,8.64.19,12.95"/>
  <path class="cls-1" d="M315.13,295.23c0,2.43-.2,4.86-.16,7.28.16,9.17-.56,18.34-.12,27.52.09,1.78-.02,3.64-.13,5.46"/>
  <path class="cls-1" d="M226.94,102.25c3.84.81,6.45,3.88,9.91,5.26,1.97.79,4.48,9.68,5.29,10.49"/>
  <path class="cls-1" d="M225.52,98.4c.92-.12.83,4.25,1.08,5.65.79,4.34-.98,7.34-5.72,8.97-5.98,2.05-11.85,1.97-17.82.17-1.87-.57-3.38-1.66-4.85-2.85-1.37-1.11-1.43-2.8-1.35-4.24.24-4.32.16-8.64.54-12.95"/>
  <path class="cls-1" d="M205.29,302.72c-5.59,1.64-11.09,3.58-16.79,4.85"/>
  <path class="cls-1" d="M296.32,76.76c.47,3.9.4,7.84.12,11.73-.21,3.02-2.74,4.26-5.38,5.06-5.51,1.69-11.04,1.68-16.59.2"/>
  <path class="cls-1" d="M203.87,69.88c-2.79,1.16-4.23,3.13-4.07,6.27.13,2.49.02,4.99.03,7.48,0,1.13-3.09,6.69-2.67,8.66.18.83,1.76,1.75,2.84,2.51,3.02,2.13,6.41,2.61,9.95,2.79,3.41.18,6.76-.29,10.12-.81,1.49-.23,3.43-1.65,4.84-2.03"/>
  <path class="cls-1" d="M275.28,58.55c4.94,3.18,9.98,3.39,15.2.65.46-.24.77-.29.79-.86.08-1.94.14-3.83-.77-5.69-.45-.91-1.03-1.46-1.87-1.78-3.45-1.32-6.96-1.08-10.29.26-1.84.74-3.15,2.2-3.14,4.59,0,1.25-.2,2.59-.23,3.85-.02.9-.14,1.09-.9,1.44-3.42,1.58-4.75,4.44-4.43,8.06.15,1.69-.67,3.35.13,5.08.94,2.02,2.5,3.31,4.28,4.43"/>
  <path class="cls-1" d="M220.67,68.06c-5.22,3.01-10.55,3.21-15.98.61"/>
  <path class="cls-1" d="M295.31,67.25c-2.31,3.2-5.89,3.4-9.31,3.81-3.95.47-7.86-.17-11.73-1-1.34-.29-2.64-.77-3.24-2.21"/>
  <path class="cls-1" d="M149.86,304.74c0,4.52-.01,9.04.01,13.55,0,.6-.26,1.26.19,1.82"/>
  <path class="cls-1" d="M149.86,320.72c-.36,8.02-.21,16.05-.17,24.07.02,4.58-.21,9.17.11,13.76.11,1.59-.28,3.23.06,4.85"/>
  <path class="cls-1" d="M290.46,53.49c-4.11,3.05-8.58,2.64-13.15,1.42-.67-.18-.87-.9-1.42-1.21"/>
  <path class="cls-1" d="M204.89,64.42c3.21,2.97,11.23,2.91,14.77.4"/>
  <path class="cls-1" d="M150.47,363.4c-1.19-.21-.81.64-.81,1.21,0,6.41,0,12.81,0,19.22,0,.68.13,1.37-.2,2.02"/>
  <path class="cls-1" d="M274.68,61.18c-.13.32.25.52.2.81-.56,2.95,1.82,3.66,3.67,4.16,3.23.88,6.61.69,9.88-.13,1.37-.35,2.75-2.28,2.82-3.83.03-.71.31-1.34.42-2.02"/>
  <path class="cls-1" d="M150.07,158.48v25.89"/>
  <path class="cls-1" d="M205.7,312.22v27.71"/>
  <path class="cls-1" d="M139.75,173.05c1.32,4.44,4.09,7.78,7.9,10.3.78.52,1.38,1.34,2.39,1.35.22,3.45-.51,6.82.03,10.2"/>
  <path class="cls-1" d="M314.73,238.59c-4.61-1.44-9.32-2.05-14.16-1.84-2.59.11-5.14.4-7.69.83"/>
  <path class="cls-1" d="M314.33,322.54c-6.43-2.19-13.03-3.23-19.82-3.02-.61.02-1.21-.55-1.82-.02"/>
  <path class="cls-1" d="M314.73,289.37c-7.02-3.15-14.38-3.28-21.85-2.43"/>
  <path class="cls-1" d="M314.73,162.73c-7.51-2.48-14.69-.61-21.85,1.62"/>
  <path class="cls-1" d="M311.29,99.41c-2.71,4.56-6.59,7.82-11.33,10.11"/>
  <path class="cls-1" d="M314.73,218.56c-2.44.4-4.72,1.34-7.08,2.04-4.58,1.37-9.16,2.73-13.77,4.01-.37.1-.54.61-1.01.42"/>
  <path class="cls-1" d="M205.29,345.2c-3.07.42-5.92,1.66-8.88,2.49-1.28.36-2.58.76-3.86,1.15"/>
  <path class="cls-1" d="M314.73,279.66c-5.14-1.6-10.34-2.87-15.78-2.83-1.96.01-3.9.49-5.87.41"/>
  <path class="cls-1" d="M321,282.89c2.11.3,3.78,1.62,5.64,2.48,3.39,1.57,6.53,3.64,9.94,5.21"/>
  <path class="cls-1" d="M358.83,188.62c2.27,4.05,2.23,8.09,0,12.14"/>
  <path class="cls-1" d="M274.88,78.98c5.21,1.55,10.48,1.47,15.78.61"/>
  <path class="cls-1" d="M292.68,302.51c.12,7.01-.34,14.02-.2,21.04.01.76-.17,1.56.4,2.23"/>
  <path class="cls-1" d="M150.27,220.99c3.84,2.3,7.64,4.67,11.53,6.88"/>
  <path class="cls-1" d="M361.46,342.97c-.45,2.15-.15,4.32-.19,6.47-.11,5.96-2.52,10.44-8.12,12.92-.29.13-.41.53-.8.43"/>
  <path class="cls-1" d="M269.21,72.91c-.72.41-.93.84-.89,1.82.14,3.03.13,6.07-.48,9.11-.98,4.87,1.32,8.29,6.02,9.5"/>
  <path class="cls-1" d="M258.49,343.58c-3.64,1.08-7.23,2.34-10.92,3.24"/>
  <path class="cls-1" d="M306.03,277.83c-.02,5.33.07,10.66-.2,15.98-.06,1.28.12,2.56.2,3.84"/>
  <path class="cls-1" d="M205.49,340.34c.48,3.23.15,6.47.18,9.71.07,8.43.02,16.86.02,25.29,0,4.92-.03,9.85.2,14.77"/>
  <path class="cls-1" d="M144.4,162.33c-1.51,2.08-1.47,3.25.64,5.64,1.35,1.53,2.76,3.04,4.42,4.27"/>
  <path class="cls-1" d="M270.02,379.59c3.12,2.21,8.68,5.49,12.14,7.12"/>
  <path class="cls-1" d="M351.55,323.96c-2.83,1.09-5.58,2.37-8.48,3.28-.43.14-.83.06-1.23.16"/>
  <path class="cls-1" d="M332.33,289.16c-3,1.1-6.06,2.05-9.09,3.08-.96.33-1.59.32-2.46-.21-1.63-.99-3.45-1.61-5.24-2.26"/>
  <path class="cls-1" d="M253.22,99.06c-4.82,0-4.97,10.38-2.36,13.5"/>
  <path class="cls-1" d="M292.68,173.05c.12,3.17-.25,6.35.2,9.51"/>
  <path class="cls-1" d="M306.03,169c.12,3.17-.25,6.35.2,9.51"/>
  <path class="cls-1" d="M342.04,337.51c3,1.99,6.24,3.58,9.31,5.46"/>
  <path class="cls-1" d="M182.23,309.8c.13,3.03-.3,6.08.2,9.1"/>
  <path class="cls-1" d="M332.13,331.85c3.11,1.61,6.09,3.46,9.1,5.26"/>
  <path class="cls-1" d="M291.26,59.36c.23.55.8.74,1.23.99,3.93,2.2,4.5,5.73,4.05,9.74-.12,1.07-.05,2.16-.01,3.23.11,3.35-1.57,5.3-5.06,5.87"/>
  <path class="cls-1" d="M182.03,190.44v9.1"/>
  <path class="cls-1" d="M237.05,350.05c-2.92.4-5.68,1.46-8.46,2.33-1.11.35-1.68.09-2.46-.31"/>
  <path class="cls-1" d="M185.87,187.82c-.46,3.5-.07,7.01-.2,10.52-.03.74.14,1.51-.2,2.23"/>
  <path class="cls-1" d="M204.48,83.03c-.72,3.02-1.06,10.55-.81,13.6"/>
  <path class="cls-1" d="M185.67,308.99c.48,2.21-.08,4.46.21,6.68.09.67-.23,1.39.2,2.02"/>
  <path class="cls-1" d="M203.27,104.67v8.5"/>
  <path class="cls-1" d="M291.06,70.69c.13,4.92-.26,9.85.2,14.77"/>
  <path class="cls-1" d="M220.26,83.23c0,2.63-.03,5.26.01,7.89.03,1.82-.2,3.65.19,5.46"/>
  <path class="cls-1" d="M220.26,104.27c.12,2.83-.25,5.67.2,8.5"/>
  <path class="cls-1" d="M140.76,210.88c.45,3.12,2.61,5.04,4.89,6.84.36.28.6.84,1.18.85"/>
  <path class="cls-1" d="M224.9,81.28c-.42.5-2.15,1.23-2.81,1.37-4.75.97-9.53,1.63-14.36.95-2.76-.39-5.33-1.48-7.69-3"/>
  <path class="cls-1" d="M274.88,70.49c-.23,4.18-.41,8.36-.6,12.54-.04.81,0,1.62,0,2.43,5.57,1.87,11.18,1.66,16.79.2"/>
  <path class="cls-1" d="M360.04,123.08c-2.62.9-5.21,1.91-7.89,2.63"/>
  <path class="cls-1" d="M150.47,150.59c2.56,1.54,5.3,2.76,7.89,4.25"/>
  <path class="cls-1" d="M219.65,92.33c-5.06,1.46-10.71.99-15.77-.48"/>
  <path class="cls-1" d="M348.31,181.34c-2.58-1.18-4.98-2.72-7.69-3.64"/>
  <path class="cls-1" d="M328.69,172.04c-2.36,1.21-4.96,1.6-7.48,2.23"/>
  <path class="cls-1" d="M150.07,142.91c0,4.65-.04,10.69,0,15.34"/>
  <path class="cls-1" d="M320.8,319.3c-.35,4.72-.32,9.44,0,14.16"/>
  <path class="cls-1" d="M327.27,244.46c2.5,1.22,4.78,2.83,7.28,4.05"/>
  <path class="cls-1" d="M274.27,85.86c-.56,3.64.02,7.28,0,10.92"/>
  <path class="cls-1" d="M291.06,86.06c.11,2.43-.24,4.87.2,7.28"/>
  <path class="cls-1" d="M205.7,390.51c.46,2.42.08,4.86.2,7.28"/>
  <path class="cls-1" d="M203.47,96.99c-.53,2.34.18,4.75-.4,7.08"/>
  <path class="cls-1" d="M351.55,298.06c-2.42-.73-4.45-2.33-6.88-3.03"/>
  <path class="cls-1" d="M241.91,118.43c-2.03,2.98-4.74,5.18-7.91,6.84.78,1.75-.19,3.58.42,5.3"/>
  <path class="cls-1" d="M198.01,89c.76.23,3.48,2.26,5.66,2.73"/>
  <path class="cls-1" d="M358.83,276.01c-1.73,2.37-4.08,4.05-6.47,5.66"/>
  <path class="cls-1" d="M314.73,137.24c-2.17.49-4.22,1.45-6.47,1.62"/>
  <path class="cls-1" d="M360.25,324.36c-.94,2.69-2.94,4.53-5.06,6.27"/>
  <path class="cls-1" d="M143.19,145.74c2.06,1.57,4.2,3.01,6.47,4.25"/>
  <path class="cls-1" d="M220.26,96.99c.11,2.16-.23,4.33.2,6.47"/>
  <path class="cls-1" d="M321,325.78c2.12.59,3.85,2.01,5.87,2.83"/>
  <path class="cls-1" d="M280.34,446.75c-2.05-.44-3.59-2.04-5.66-2.43"/>
  <path class="cls-1" d="M320.6,334.07v5.46"/>
  <path class="cls-1" d="M197.07,102.55c2.53.92,4.02.92,6.2,1.72"/>
  <path class="cls-1" d="M269.21,80.8c1,2.16,2.84,3.4,4.85,4.45"/>
  <path class="cls-1" d="M141.97,350.05c1.09,1.84,2.26,3.6,4.05,4.85"/>
  <path class="cls-1" d="M296.32,82.42c-1.87.88-3.1,2.82-5.26,3.24"/>
  <path class="cls-1" d="M263.15,103.06c-.1,1.68-.72,3.35-.2,5.06"/>
  <path class="cls-1" d="M193.96,123.08c-.49,3.23-.06,6.47-.2,9.71"/>
  <path class="cls-1" d="M274.88,65.23c-.44,1.6-.08,3.24-.2,4.85"/>
  <path class="cls-1" d="M259.1,107.71c-.44,1.6-.08,3.24-.2,4.85"/>
  <path class="cls-1" d="M299.56,110.14c.75,1.59.24,3.23.2,4.85"/>
  <path class="cls-1" d="M144.81,300.69c1.49,1.16,2.89,2.46,4.65,3.24"/>
  <path class="cls-1" d="M165.84,189.03c-1.59.44-3.17.89-4.65,1.62"/>
  <path class="cls-1" d="M321.41,292.6c-1.77,1.2-3.85,1.54-5.87,2.02"/>
  <path class="cls-1" d="M356.81,161.11c-1.4,1.13-2.75,2.34-4.45,3.03"/>
  <path class="cls-1" d="M315.54,280.06c1.47.7,2.88,1.55,4.45,2.02"/>
  <path class="cls-1" d="M263.15,109.73c-.45,1.45.01,2.99-.4,4.45"/>
  <path class="cls-1" d="M234.02,120.05c.68,1.43.32,2.96.4,4.45"/>
  <path class="cls-1" d="M224.71,89.5c-1.36.91-2.42,2.33-4.25,2.43"/>
  <path class="cls-1" d="M315.54,238.99c1.43.23,2.62,1.16,4.05,1.42"/>
  <path class="cls-1" d="M352.15,343.58c1.38.31,2.41,1.44,3.84,1.62"/>
  <path class="cls-1" d="M315.13,322.95c1.16.19,2.14.86,3.24,1.21"/>
  <path class="cls-1" d="M178.59,320.52c2.15,1.3,4.4,2.33,6.88,2.83"/>
  <path class="cls-1" d="M351.55,333.26c-.86.57-2,.68-2.63,1.62"/>
  <path class="cls-1" d="M299.76,107.3c0,.81,0,1.62,0,2.43"/>
  <path class="cls-1" d="M167.46,314.65c.67.34,1.35.67,2.02,1.01"/>
  <path class="cls-1" d="M175.55,319.3c.66.24,1.2.69,1.82,1.01"/>
  <path class="cls-1" d="M182.43,239.4c.54.19.95.74,1.62.61"/>
  <path class="cls-1" d="M321,241.22c.54-.09.84.63,1.42.4"/>
  <path class="cls-1" d="M296.93,419.03c-1.12.71-2.47.27-3.66.78-1,.42-2.04.74-3.04,1.2-2.29,1.07-3.02,3.11-.81,5.13,2.62,2.39,5.75,3.2,9.12,3.64,3.69.48,7.15.02,10.54-1.6,2.1-1.01,3.38-2.45,3.86-4.76-1.76-3.05-4.99-3.26-7.93-3.97-2.59-.63-5.25-.39-7.89-.42"/>
  <path class="cls-1" d="M163.76,368.76c3.86,8.8,22.39,21.67,38.62,30.99"/>
</svg>