<?xml version="1.0" encoding="UTF-8"?>
<svg id="icons" xmlns="http://www.w3.org/2000/svg" viewBox="0 0 500 500">
  <defs>
    <style>
      .cls-1 {
        fill: none;
        stroke: #000;
        stroke-linecap: round;
        stroke-linejoin: round;
        stroke-width: .89px;
      }
    </style>
  </defs>
  <path class="cls-1" d="M78.36,145.27c4.96,5.03,11.36,8.01,17.22,11.7,9.13,5.75,18.41,11.29,27.52,17.09,15.3,9.74,30.93,18.95,46.41,28.38,3.9,2.37,7.93,4.61,11.96,6.8,4.76,2.59,9.85,3.75,15.17,3.93,4.86.17,9.72.26,14.49-1.25,3.02-.95,5.82-2.36,8.64-3.67,8.76-4.05,17.7-7.67,26.55-11.48,8.74-3.76,17.53-7.41,26.26-11.2,10.16-4.42,20.38-8.69,30.52-13.13,18.62-8.15,37.43-15.86,56.17-23.74,12.55-5.28,25.01-10.75,37.6-15.93,3.47-1.43,5.23-4.29,5.57-7.99.32-3.51-1.31-5.98-4.22-7.81-3.95-2.48-8.01-4.77-12.05-7.09-12.5-7.16-24.99-14.34-37.38-21.67-9.88-5.85-19.78-11.68-29.67-17.53-8.59-5.08-17.16-10.22-25.87-15.09-3.39-1.89-6.77-4-10.85-4.63-3.96-.61-7.46.4-10.92,1.88-11.75,5.03-23.64,9.72-35.42,14.69-7.57,3.2-15.17,6.33-22.74,9.52-8.31,3.5-16.63,6.98-24.93,10.51-16.72,7.1-33.43,14.21-50.14,21.34-16.1,6.87-32.24,13.63-48.29,20.6-2.57,1.12-5.25,2.07-7.61,3.7-4.85,3.37-5.95,6.34-4.22,12.05"/>
  <path class="cls-1" d="M217.35,239.27c.14,1.1-.71,1.62-1.34,2.22-3.33,3.12-5.81,6.81-7.82,10.91-1.96,3.98-2.33,8.23-2.34,12.49-.01,2.89-.09,5.8,0,8.68.18,6.31-.37,12.62.12,18.94.2,2.58.03,5.19.03,7.79,0,9.95,0,19.9,0,29.85,0,7.2,0,14.4,0,21.61,0,15.29-.02,30.59.02,45.88,0,2.64.56,5.2,2.22,7.34,3.09,3.97,7.67,4.71,12.92,2.49,7.78-3.29,15.36-7.01,23.15-10.29,10.69-4.51,21.14-9.56,31.84-14.06,9.65-4.06,19.19-8.38,28.74-12.68,12.24-5.51,24.4-11.19,36.58-16.81,10.44-4.81,20.98-9.41,31.37-14.34,5.79-2.74,9.63-7.16,11.37-13.36.49-1.75.88-3.52.88-5.35,0-46.18.01-92.36-.01-138.54,0-2.99-.78-5.86-1.74-8.69-1-2.92-4.6-4.11-7.15-3.59-2.99.6-5.51,2.23-8.21,3.42-10.7,4.73-21.35,9.57-32.11,14.18-12.23,5.24-24.4,10.63-36.7,15.73-7.66,3.18-15.22,6.67-22.8,10.06-6.46,2.89-13.04,5.57-19.54,8.37-6.69,2.88-13.42,5.66-20.09,8.58-4.81,2.11-9.76,3.96-14.4,6.4-2.97,1.56-6.16,2.23-9.17,3.5-3.3,1.4-6.55,2.95-9.83,4.38-4.23,1.84-8.66,2.95-13.35,2.04-2.84-.55-5.41-1.72-7.8-3.33-13.06-8.83-26.6-16.9-39.9-25.35-10.05-6.39-20.13-12.73-30.3-18.91-7.98-4.84-15.94-9.72-23.78-14.79-2.05-1.33-4.07-2.67-6.26-3.75-2.97-1.47-4.45-3.78-4.23-7.14.29-4.67-.06-9.35.25-14.05.17-2.48-.29-5.18-.22-7.78.05-1.93-.78-3.9.2-5.79"/>
  <path class="cls-1" d="M397.1,329.92c2.62,1.08,4.5,2.66,4.7,5.79.44,6.83.18,13.66.14,20.49-.02,3.08-1.94,5.19-4.61,6.7-3.25,1.84-6.66,3.32-10.05,4.84-9.41,4.2-18.71,8.61-28.06,12.93-10.22,4.73-20.49,9.37-30.7,14.11-7.35,3.41-14.74,6.74-22.09,10.16-9.09,4.24-18.27,8.31-27.39,12.49-6.89,3.15-13.77,6.32-20.68,9.43-9.81,4.42-19.57,8.97-29.41,13.36-5.65,2.52-11.26,5.11-16.96,7.51-7.57,3.19-15.08,3.05-22.01-1.58-9.69-6.47-19.39-12.94-29.01-19.52-11.2-7.66-22.37-15.38-33.65-22.91-11.61-7.75-22.97-15.89-34.69-23.47-1.19-.77-2.36-1.6-3.36-2.65-1.38-1.44-2.26-3.05-2.24-5.13.05-4.97-.21-9.96.09-14.92.21-3.44-.92-6.84-.08-10.25"/>
  <path class="cls-1" d="M401.34,136.81c-11.9,4.93-23.79,9.89-35.62,14.97-11.13,4.78-22.35,9.32-33.44,14.19-9.93,4.36-19.92,8.57-29.85,12.91-11.09,4.85-22.23,9.6-33.41,14.26-11.09,4.62-22.08,9.45-33.16,14.1-8.12,3.41-16.22,6.9-24.31,10.4-5.69,2.46-11.71,2.91-17.81,2.23-2.24-.25-4.51-.38-6.68-1.09"/>
  <path class="cls-1" d="M403.12,244.39c-1.61,2.19-2.77,4.66-5.02,6.48-.93.75-1.28,2.73-1.27,4.44.09,12.4-.02,24.8.07,37.2.08,11.58-.34,23.16-.25,34.75.04,4.38-.01,8.76.02,13.14.01,1.6-.3,2.33-2.18,3.05-3.54,1.36-7.06,2.91-10.52,4.53-9.94,4.65-20.09,8.82-30.08,13.35-8.96,4.06-17.97,8-26.97,11.99-13.09,5.81-26.08,11.85-39.17,17.66-8.69,3.86-17.37,7.72-26.07,11.57-11.77,5.21-23.66,10.14-35.41,15.39-5.86,2.62-11.69,5.32-17.64,7.7-6.41,2.56-12.48,1.45-18.51-2.08-10.17-5.96-19.59-13.02-29.54-19.29-6.79-4.28-13.45-8.79-20.04-13.37-9.91-6.89-19.95-13.59-29.94-20.36-7.62-5.16-15.26-10.29-22.9-15.43"/>
  <path class="cls-1" d="M402.01,128.79c1.22,4.58.85,9.2.18,13.8-.1.72-.94,1.04-1.71,1.4-6.76,3.19-13.89,5.45-20.74,8.42-7.54,3.27-15.22,6.21-22.75,9.5-9.02,3.94-18.12,7.71-27.14,11.67-5.57,2.45-11.15,4.87-16.73,7.3-8.45,3.68-16.86,7.44-25.36,10.99-5.24,2.19-10.38,4.65-15.62,6.83-8.94,3.72-17.78,7.67-26.69,11.45-5.36,2.27-10.73,4.52-16.08,6.81-7.49,3.21-14.79,6.83-22.28,10-4.8,2.03-9.89,2.25-15.14,1.51-2.95-.41-5.41-1.59-7.75-3.05-8.09-5.05-16.17-10.13-24.34-15.05-10.13-6.11-20.22-12.29-30.26-18.54-9.16-5.7-18.32-11.4-27.2-17.55-7.82-5.42-16.1-10.14-24.03-15.41"/>
  <path class="cls-1" d="M284.62,56.17c-6.19-1.67-11.52,1.01-16.93,3.33-10.86,4.66-21.81,9.12-32.7,13.69-9.75,4.09-19.48,8.24-29.23,12.34-9.57,4.03-19.1,8.14-28.68,12.15-8.13,3.4-16.22,6.9-24.32,10.36-9.7,4.15-19.4,8.29-29.14,12.35-2.86,1.19-5.7,2.55-8.52,3.88-.64.3-.9.61-1.09,1.17"/>
  <path class="cls-1" d="M388.42,149.28c.79,18.63.56,37.27.71,55.91.13,15.74.34,31.48.12,47.22-.16,11.14-.2,22.28-.11,33.41.08,10.32.16,20.64.17,30.96,0,3.12.08,6.24-.22,9.36"/>
  <path class="cls-1" d="M357.23,352.86c-3.36,1.2-6.55,2.8-9.78,4.28-10.24,4.69-20.5,9.34-30.76,13.99-9.08,4.12-18.15,8.26-27.36,12.12-5.47,2.29-10.92,4.72-16.32,7.21-7.45,3.44-15,6.68-22.48,10.06-6.75,3.05-13.53,6.04-20.27,9.14-7.33,3.38-14.78,6.5-22.08,9.97-1.55.74-3.29,1.33-5.1,1.39"/>
  <path class="cls-1" d="M378.17,318.12c1.01-43.8.16-87.61.46-131.42.01-1.5-.18-2.98-.29-4.45-.21-2.72-2.08-3.84-4.62-2.88-2.52.95-4.88,2.27-7.36,3.32-8.64,3.65-17.22,7.43-25.83,11.16-6.41,2.77-12.92,5.31-19.17,8.44-.18.09-.44.01-.66.01"/>
  <path class="cls-1" d="M218.25,249.07c-3.97,4.7-5.51,10.33-5.52,16.26-.09,39.65-.07,79.3,0,118.94,0,3.66-.18,7.44,1.51,10.91"/>
  <path class="cls-1" d="M266.8,70.21c-4.1,1.04-7.92,2.88-11.78,4.51-12.46,5.23-24.98,10.32-37.44,15.55-12.03,5.05-24.06,10.1-36.11,15.08-16.7,6.91-33.34,13.97-50.08,20.79-.98.4-2.1.71-2.68,1.76"/>
  <path class="cls-1" d="M330.51,350.19c-3.27,1.15-6.43,2.58-9.57,4.03-8.15,3.76-16.36,7.36-24.52,11.1-6.43,2.96-12.92,5.79-19.39,8.67-7.93,3.52-15.85,7.07-23.79,10.58-4.71,2.08-9.39,4.23-14.07,6.37-7.84,3.59-15.63,7.3-23.84,10-.84.27-1.45,1.1-2.44.93"/>
  <path class="cls-1" d="M368.82,182.02c0,6.53-.09,13.07.01,19.6.48,31.11.13,62.22.16,93.33,0,6.6-.23,13.22-.12,19.82.04,2.33-.34,4.43-1.39,6.46"/>
  <path class="cls-1" d="M251.66,82.46c-5.68,1.95-11.15,4.44-16.69,6.72-6.77,2.79-13.49,5.7-20.26,8.49-5.01,2.06-9.94,4.34-14.96,6.36-9.61,3.86-19.16,7.87-28.72,11.84-11.07,4.59-22.14,9.17-33.19,13.81-.06.03-.15,0-.22,0"/>
  <path class="cls-1" d="M256.56,86.24c-2.47.14-4.47,1.6-6.67,2.49-9.17,3.69-18.31,7.47-27.41,11.32-6.74,2.85-13.48,5.72-20.27,8.46-9.6,3.89-19.15,7.89-28.69,11.91-10.05,4.23-20.18,8.3-30.12,12.81-.12.06-.29,0-.44,0"/>
  <path class="cls-1" d="M124.69,252.63c-.67,1.14.58,1.05.89,1.07,5.5.23,10.28,2.42,14.93,5.15,9.71,5.7,16.58,14.07,21.5,23.9,5.1,10.2,7.43,21.24,6.72,32.69-.47,7.71-2.06,15.21-6.86,21.6-1.66,2.2-3.62,4.11-5.99,5.6-.85.53-1.65,1.02-2.69.87"/>
  <path class="cls-1" d="M181.05,243.05c-.38.79-.22,1.63-.22,2.45,0,32.67,0,65.34,0,98.01,0,1.11-.12,2.24.02,3.34.12.94-.51.59-.91.67"/>
  <path class="cls-1" d="M95.74,280.03c-.61-4.09,1.12-7.64,2.99-10.97,1.14-2.04,2.06-4.36,3.93-5.94,2.88-2.45,5.89-3.83,10.03-3.51,5,.39,9.76,1.36,13.98,3.8,7.74,4.47,13.87,10.75,18.53,18.41,4.41,7.26,7.56,15.02,9.13,23.39,1.25,6.65,1.61,13.27.76,20.06-.83,6.57-2.84,12.49-6.71,17.85-.64.88-1.43,1.56-2.08,2.4-.48.62-1.24,1.07-1.1,2.02"/>
  <path class="cls-1" d="M112.22,344.4c1.93-.09,3.42-2.34,5.08-1.85,1.94.56,3.4,2.47,5.18,3.62,3.92,2.54,7.95,4.83,12.91,4.49,1.92-.13,3.77-.4,5.57-1.12,1.88-.75,3.48-2.42,5.8-1.83.08.02.55-.09.64-.2,1.35-1.72,3.6-2.22,5.09-3.6,5.52-5.12,9.27-11.25,10.57-18.87,1.93-11.39,1.02-22.53-3.25-33.16-5.07-12.61-13.21-23.03-24.9-30.27-4.57-2.83-9.52-5.08-15.11-5.19-.35,0-.62-.23-.89-.44"/>
  <path class="cls-1" d="M314.47,349.3c-4.3,1.63-8.5,3.51-12.67,5.4-6.96,3.16-13.99,6.16-20.97,9.28-7.41,3.31-14.85,6.53-22.28,9.78-7.19,3.14-14.41,6.23-21.57,9.43-7.41,3.31-14.83,6.58-22.29,9.77"/>
  <path class="cls-1" d="M87.27,183.8c-.65.64-.44,1.46-.44,2.23,0,31.78,0,63.56,0,95.33,0,.76-.21,1.59.44,2.23"/>
  <path class="cls-1" d="M126.48,339.72c3.69,1.38,6.9-.17,9.76-2.06,5.49-3.63,7.98-9.09,9.01-15.52,1.13-7.07.53-13.98-1.46-20.71-3.19-10.75-9.01-19.81-18.19-26.54-3.04-2.23-6.37-3.6-10.04-4.2-3.39-.55-9.39,2.44-10.91,5.33"/>
  <path class="cls-1" d="M190.63,228.8c-.47.7-.21,1.49-.21,2.23-.02,63.11-.01,126.22-.02,189.33,0,.9.19,1.83-.33,2.67"/>
  <path class="cls-1" d="M270.81,113.64c-4.98,1.81-9.8,4.02-14.69,6.03-6.86,2.83-13.69,5.74-20.48,8.71-6.07,2.65-12.2,5.13-18.29,7.73-9.94,4.24-19.83,8.63-29.82,12.76-3.74,1.55-7.37,3.39-11.16,4.85"/>
  <path class="cls-1" d="M91.95,187.37c-.33.64-.22,1.33-.22,2,0,29.85,0,59.69,0,89.54,0,.67-.11,1.37.22,2"/>
  <path class="cls-1" d="M201.32,245.5c.31,2,.22,4.01.22,6.01,0,49.52-.05,99.04.06,148.57.01,6.45-.07,12.93.36,19.38.03.47.33.86.22,1.49-.69.16-1.46.01-2.2.06"/>
  <path class="cls-1" d="M77.7,329.48c-.46,1.62.83,2.51,1.58,3.55,2.25,3.08,4.77,5.87,8.66,6.93,4.29,1.16,8.61-1.43,9.57-5.8,1.24-5.61,0-10.91-2.23-16.03-2.55-5.86-6.04-10.92-11.55-14.52-5.91-3.86-9.87-.88-10.71,5.39-.84,6.29.43,12.27,2.89,18.04.38.9.8,1.79,1.78,2.23"/>
  <path class="cls-1" d="M363.47,110.3c-1.29,1.1-3,1.27-4.46,1.99-3.06,1.52-4.76,3.76-4.72,7.36.04,3.41.04,6.83-.24,10.26-.16,1.92,2.01,3.26,3.85,4.23,4.03,2.13,8.35,2.36,12.69,1.7,2.36-.36,4.78-.93,6.91-2.16,3.33-1.93,4.58-5.21,4.82-8.69.27-3.91.86-8.17-2.83-11.11-2.13-1.69-4.67-2.6-7.33-3.14-1.4-.28-2.75-.53-4.24-.28-1.73.29-3.34-.18-4.92-1.24-7.13-4.75-14.63-8.88-22.01-13.2-7.67-4.49-15.32-9.01-22.94-13.59-7.71-4.63-15.61-8.93-23.17-13.8-.54-.35-1.06-.09-1.57-.21"/>
  <path class="cls-1" d="M272.59,105.18c-5.74,2.05-11.33,4.49-16.92,6.92-5.34,2.32-10.74,4.49-16.05,6.87-4.71,2.11-9.53,3.96-14.24,6.04-6.12,2.7-12.36,5.12-18.5,7.78-5.1,2.21-10.25,4.31-15.37,6.46-2.36.99-4.7,2.05-7.12,2.9"/>
  <path class="cls-1" d="M311.8,396.08c-2.29.55-4.36,1.74-6.42,2.75-10.73,5.3-21.8,9.83-32.59,15-7.58,3.63-15.26,7.06-22.93,10.5-8.19,3.67-16.19,7.75-24.49,11.15-1.13.46-1.43,1.14-1.34,2.25.08.96.02,1.93.02,2.89"/>
  <path class="cls-1" d="M121.58,340.61c1.55.68,3.05-.38,3.92-1.01,3.14-2.27,6.74-3.89,9.46-6.77,3.39-3.6,5.17-7.85,5.54-12.71.56-7.33-1.42-14.12-4.42-20.73-2.88-6.35-6.38-12.22-11.62-16.9-3.77-3.37-7.8-6.29-13.13-6.72-2.61-.21-5.22,0-7.55.98-4.6,1.94-9.33,3.61-13.8,5.81-3.53,1.74-7.28,3.12-10.54,5.44-.75.53-1.96.37-2.85.74-5.65,2.35-8.35,7.09-9.54,12.68-2.09,9.89-.91,19.5,3.28,28.73,3.63,7.99,9.04,13.95,17.55,17.08,2.15.79,4.18,2.19,6.52,2.73,2.17.5,4.3-.01,6.46-.2,6.41-.55,9.95-4.56,11.25-10.29,1.43-6.27.96-12.62-.72-18.93-1.42-5.3-3.91-10.06-6.3-14.91"/>
  <path class="cls-1" d="M278.83,204.96c-4.04,1.38-7.86,3.29-11.78,4.96-7.89,3.37-15.75,6.82-23.6,10.27-6.76,2.97-13.58,5.79-20.33,8.78-7.12,3.16-14.25,6.31-21.59,8.95"/>
  <path class="cls-1" d="M88.61,347.3c.51-.69,1.25-.7,2-.67,6.18.22,11.5-4.35,12.73-10.91,1.18-6.33-.32-12.26-2.52-18.03-3.53-9.26-8.85-17.22-17.54-22.53-3.83-2.34-7.66-3.65-11.8-.85-.48.32-.91.09-1.35.2"/>
  <path class="cls-1" d="M351.44,173.78c-3.05,1.06-5.94,2.53-8.9,3.8-7.06,3.02-14.13,6.04-21.13,9.2-8,3.61-16.06,7.08-24.13,10.52-5.88,2.5-11.76,5.05-17.78,7.22"/>
  <path class="cls-1" d="M294.87,395.63c-3.36,1.2-6.54,2.82-9.78,4.27-9.74,4.35-19.5,8.67-29.18,13.13-9.18,4.23-18.4,8.35-27.64,12.44-4.53,2.01-9.06,4.01-13.57,6.05-.32.15-.6.15-.9.19"/>
  <path class="cls-1" d="M387.53,360.88c-5.27,2.29-10.38,4.93-15.59,7.35-11.44,5.33-22.88,10.68-34.32,16-6.29,2.93-12.68,5.66-18.92,8.71-.18.09-.44.01-.66.01"/>
  <path class="cls-1" d="M103.09,194.72c-.47.7-.21,1.49-.21,2.23-.02,21.23-.02,42.47-.02,63.7"/>
  <path class="cls-1" d="M105.09,195.39c-1.07,1.2-.17,2.54-.17,3.79-.07,19.68-.05,39.35-.04,59.03,0,.9-.18,1.83.33,2.67"/>
  <path class="cls-1" d="M97.74,190.93c-.32.49-.22,1.03-.22,1.56,0,7.65-.16,15.3.04,22.94.25,9.88,0,19.75.22,29.62.17,7.43.13,14.85.19,22.27,0,.3-.15.67.22.89"/>
  <path class="cls-1" d="M228.05,115.87c-4.33,1.54-8.45,3.59-12.7,5.33-11.42,4.68-22.73,9.63-34.08,14.47-5.91,2.52-11.76,5.18-17.81,7.38"/>
  <path class="cls-1" d="M165.68,274.9c3.49,6.24,6.1,12.88,7.5,19.84,2.53,12.61,2.13,25.08-3.54,36.94-.94,1.96-2.19,3.82-3.52,5.59"/>
  <path class="cls-1" d="M112.44,199.84c-.57.57-.45,1.31-.44,2,.19,18.04.27,36.08.21,54.13,0,.47.07.91.23,1.34"/>
  <path class="cls-1" d="M153.21,285.15c1.7,4.41,3.5,8.78,4.68,13.36,3.01,11.79,3.29,23.54-.7,35.18-.64,1.87-1.75,3.58-2.64,5.36"/>
  <path class="cls-1" d="M424.72,228.13c2.62-.03,5.46-2.57,6.7-5.79,1.85-4.82,1.31-9.61.24-14.49-1.09-5.01-3.26-9.41-6.48-13.37-3.47-4.26-8.08-6.13-13.38-6.67-1.54-.16-2.83.3-3.79,1.56"/>
  <path class="cls-1" d="M79.7,288.05c3.37,1.05,6.56,2.48,9.36,4.68,7.99,6.28,13.64,14.22,16.93,23.83,1.93,5.63,3.25,11.43,3.03,17.37-.17,4.79-1.05,9.57-4.83,13.13-.55.52-.75,1.19-1.1,1.79"/>
  <path class="cls-1" d="M304.22,162.2c-4.8,1.89-9.49,4.04-14.25,6.02-9.56,3.97-19.02,8.2-28.72,11.84-.98.37-1.81,1.15-2.91,1.3"/>
  <path class="cls-1" d="M279.05,103.4c-.54,3.11-.19,6.24-.2,9.36-.05,19.6-.03,39.2-.03,58.8"/>
  <path class="cls-1" d="M278.38,156.85c-6.92,3.11-13.97,5.91-20.94,8.9-7.71,3.3-15.54,6.31-23.16,9.8-.12.06-.29,0-.44,0"/>
  <path class="cls-1" d="M409.23,230.26c-.72.55-.69,2.4-1.01,3.65-.92,3.58-1.87,7.17-4.43,10.03"/>
  <path class="cls-1" d="M397.77,200.73c-.98,1-1.15,2.23-1.12,3.56.06,3.43-.15,6.86.64,10.25.28,1.22.69,2.26,1.3,3.37,1.42,2.6,2.16,5.52,2.72,8.43.94,4.85,1.53,9.71.99,14.7-.33,3.06,2.05,4.55,5.71,3.96,6.22-1,10.35-5.02,13.31-10.24,1.2-2.12,2.64-4.19,3.18-6.87"/>
  <path class="cls-1" d="M106.88,302.08c5.55,8.22,8.5,17.39,9.25,27.18.25,3.29.02,6.79-1.24,10.01-1.28,3.25-3.52,5.85-6.03,8.22-.23.21-.86.37-1.31.03"/>
  <path class="cls-1" d="M359.02,329.7c-7.47,3.17-14.83,6.59-22.28,9.77-6.24,2.67-12.33,5.67-18.7,8.04"/>
  <path class="cls-1" d="M191.29,198.95c2.19.87,3.61,2.94,6,3.6,7.42,2.05,14.18,1.32,20.34-3.75,1.44-1.18,1.81-2.24,1.74-3.86-.09-1.93.21-3.89-.07-5.78-.78-5.23-3.52-7.16-9.1-8.43-4.73-1.08-9.45-.52-14.02,1.08-3.66,1.28-5.34,3.7-5.35,7.57,0,3.56-.2,7.14.07,10.69.19,2.51,2.32,3.97,4.41,4.85,6.99,2.94,13.88,2.45,20.45-1.33,1.54-.89,2.93-2.12,3.63-3.95.26-.69.1-1.1-.26-1.57"/>
  <path class="cls-1" d="M397.55,184.7c3.2-.25,6.41-.1,8.62,2.51,1.07,1.27,1.9,2.8,3.43,3.47,3.17,1.39,5.88,3.37,7.98,6.07,6.17,7.92,9.39,16.74,7.84,26.94-.2,1.31-.81,2.41-1.36,3.56"/>
  <path class="cls-1" d="M128.93,210.09c-.38.79-.22,1.63-.22,2.45,0,12.47,0,24.95,0,37.42"/>
  <path class="cls-1" d="M372.83,329.25c-2.5,3.63-6.59,4.88-10.27,6.64-7.55,3.61-15.35,6.71-22.95,10.23-2.52,1.17-5.09,2.33-7.77,3.18"/>
  <path class="cls-1" d="M395.55,349.75c-6.77,2.85-13.38,6.06-20.06,9.1-5.78,2.63-11.46,5.46-17.36,7.83"/>
  <path class="cls-1" d="M157.21,146.16c-1.04,1-.86,2.48-.8,3.56.3,4.83.1,9.66.11,14.48.02,9.58.38,19.15.25,28.73"/>
  <path class="cls-1" d="M185.28,197.84c-1.22,4.38-.52,6.54,4.69,8.88,7.26,3.25,14.78,3.9,22.49,1.61,1.51-.45,3.08-.74,4.45-1.57"/>
  <path class="cls-1" d="M180.82,347.74c-.14,12.03.04,24.06-.12,36.09-.08,6.08-.01,12.18.11,18.26,0,.37.2.81-.21,1.11"/>
  <path class="cls-1" d="M125.14,305.64c2.76,5.93,4.02,12.18,3.78,18.71-.2,5.44-1.76,10.35-5.78,14.26-1.3,1.26-2.2,3.1-4.46,2.9-.59-.05-.59.52-.78.88"/>
  <path class="cls-1" d="M114.89,304.75c3.65,6.68,5.87,13.81,6.42,21.39.33,4.53-.78,8.86-2.85,12.92"/>
  <path class="cls-1" d="M133.94,145.05c.25,2.17-1.12,3.43-2.56,4.68-2.37,2.08-5.29,2.95-8.25,3.52-5.33,1.03-10.53.64-15.37-2.18-2.78-1.62-3.31-2.87-2.69-6.03.59-3.01.55-6.14.14-9.11-.54-3.93,1.04-6.51,4.14-8.21,5.93-3.26,12.26-3.3,18.18-.37,4.1,2.03,6.5,5.83,6.31,10.79-.09,2.22-.01,4.45-.01,6.68"/>
  <path class="cls-1" d="M148.08,222.12c-.36.71-.22,1.48-.22,2.23,0,7.05-.01,14.11,0,21.16,0,2.3-.47,4.58-.07,6.92.15.91-.27,2.04-1.27,2.59-6.8-3.42-13.71-6.06-21.38-2.6"/>
  <path class="cls-1" d="M397.55,217.44c-.75.65-.91,1.5-.9,2.45.03,2.75-.13,5.5.04,8.24.39,6.46.08,12.92.2,19.38.02.87-.19,1.81.67,2.45"/>
  <path class="cls-1" d="M72.13,302.52c-.76,3.15-1.45,6.27-1.38,9.58.18,8.23,2.49,15.73,7.17,22.5"/>
  <path class="cls-1" d="M293.31,75.33c.78,1.42.3,3.15-1.34,4.67-2.52,2.35-5.68,3.72-8.92,4.12-4.39.54-8.9.51-12.93-2.08-1.35-.87-2.89-1.85-2.73-3.36.12-1.21-.01-2.39.04-3.58.11-2.3-.31-4.65-.08-6.89.25-2.53.99-5.03,3.89-6.29,5.78-2.5,11.49-2.28,17.16.08,2.75,1.14,4.67,4.78,4.47,7.76-.02.37.01.74,0,1.11-.07,1.49.4,3.09-.27,4.43-1.26,2.55-3.62,3.96-6.2,4.91-6.35,2.34-12.36,1.93-17.8-2.44-.23-.18-.43-.22-.68-.21"/>
  <path class="cls-1" d="M135.39,304.31c1.62,4.84,2.55,9.8,2.44,14.92-.04,1.74-.07,3.49-.84,5.14-.14.31-.19.66-.48.87-2.55,1.8-3.43,4.85-5.35,7.13-.63.75-1.33,1.45-2.44,1.34"/>
  <path class="cls-1" d="M255.22,230.8c-4.22,1.56-8.31,3.42-12.46,5.16-5.8,2.43-11.55,4.97-17.39,7.31"/>
  <path class="cls-1" d="M407.13,189.37c-3.61.33-6.3,2.42-8.92,4.66-.38.33-.6.7-.64,1.13-.23,2.26-.77,4.44,1.48,6.31,1.44,1.2,1.92,3.3,2.75,5.04,3.04,6.41,5.44,13.02,6.57,20.05.18,1.13-.15,2.38.77,3.34"/>
  <path class="cls-1" d="M130.93,130.79c-.57,2.24-.95,4.52-3.32,5.82-2.74,1.5-5.57,2.38-8.7,2.44-2.22.04-4.33-.32-6.47-.89-3.34-.89-5.32-3.01-6.23-6.26"/>
  <path class="cls-1" d="M217.35,185.14c-1.56,4.68-5.32,7.28-10.47,7.36-3.61.06-7.13-.15-10.48-1.76-1.83-.88-3.14-2.18-4.22-3.82"/>
  <path class="cls-1" d="M377.28,114.53c2.07,2.07,1.71,4.15-1.35,5.76-5.05,2.66-13,2.75-18.24-1.09-.93-.68-1.36-1.76-2.01-2.67"/>
  <path class="cls-1" d="M104.65,153.73c5.92,3.28,12.31,4.34,18.92,3.48,2.94-.38,5.59-2.1,8.25-3.48"/>
  <path class="cls-1" d="M326.5,381.37c-3.36,1.2-6.56,2.76-9.8,4.24-5.47,2.51-10.95,5-16.49,7.34"/>
  <path class="cls-1" d="M252.55,184.03c-5.43,1.94-10.7,4.28-16.04,6.46-3.42,1.4-6.72,3.08-10.24,4.24"/>
  <path class="cls-1" d="M106.88,127.45c-6.4,3.26-13.15,5.75-19.6,8.91-1.21.59-2.33,1.29-3.36,2.21-1.89,1.68-2.31,3.91-.39,6.68.61.88,1.4,1.73,2.41,2.25"/>
  <path class="cls-1" d="M396.44,335.49c-2.48.13-4.39,1.79-6.68,2.46-9.33,2.75-17.57,7.91-26.27,12.04-.32.15-.6.15-.9.2"/>
  <path class="cls-1" d="M291.08,65.98c-1.56,4.09-5.26,5.18-8.92,5.7-3.67.52-7.33,0-10.73-2.04-1.37-.83-1.87-2.37-3.29-2.98"/>
  <path class="cls-1" d="M109.99,384.05c4.01,2.57,7.82,5.42,11.76,8.09,4.27,2.9,8.48,5.92,12.74,8.84"/>
  <path class="cls-1" d="M125.14,295.84c3.94,6.76,5.86,14.19,7.11,21.83.14.87.02,1.78.02,2.67"/>
  <path class="cls-1" d="M85.94,285.82c1.19.89,2.69.93,4.01,1.05,6.97.63,12.79,3.49,17.58,8.53.83.88,1.88,1.56,2.46,2.67"/>
  <path class="cls-1" d="M351.89,369.79c-3.75,1.38-7.26,3.31-10.93,4.87-4.41,1.87-8.62,4.17-13.13,5.82"/>
  <path class="cls-1" d="M352.78,135.47c6.51,4.71,13.74,4.65,21.15,3.08.67-.14,1.3-.45,2.01-.41"/>
  <path class="cls-1" d="M323.82,78.45c7.03,3.79,13.87,7.92,20.71,12.04.8.48,1.65.87,2.46,1.32"/>
  <path class="cls-1" d="M402.01,143.71c.59.48.44,1.16.44,1.78,0,4.08.04,8.17,0,12.25-.05,3.81-1.77,6.06-5.33,7.13"/>
  <path class="cls-1" d="M190.18,438.84c7.72,5.09,15.75,5.22,24.06,1.57,2.65-1.16,5.27-2.41,8.01-3.35"/>
  <path class="cls-1" d="M190.18,430.38c4.41,2.56,9.17,3.74,14.26,3.56,2.78-.1,5.46-.65,8.02-1.77"/>
  <path class="cls-1" d="M153.21,404.98c7.35,4.79,14.5,9.88,21.83,14.7"/>
  <path class="cls-1" d="M350.11,142.6c-5.07,1.86-9.99,4.07-14.93,6.21-2.2.95-4.48,1.72-6.9,3.05,0-4.14,0-7.92,0-11.71"/>
  <path class="cls-1" d="M128.26,388.06c7.13,4.75,14.26,9.5,21.38,14.26"/>
  <path class="cls-1" d="M108.66,287.38c-4.06-2.14-8.19-4.03-12.92-4.02-2.01,0-3.88.63-5.8,1.1-.71.17-1.48.6-2.22.02"/>
  <path class="cls-1" d="M354.78,129.01c6.46,5.98,18.31,5.38,24.27.21.68-.59,1.28-1.15,2.24-1.1"/>
  <path class="cls-1" d="M167.46,353.31c-4.44,1.64-8.77,3.54-13.11,5.43-1.94.84-4.01,1.41-5.86,2.53-1.09.66-2.36.1-3.31-.83"/>
  <path class="cls-1" d="M254.33,104.73c-5.29,1.94-10.4,4.3-15.59,6.46-1.32.55-2.63,1.16-4.01,1.56"/>
  <path class="cls-1" d="M396.21,146.38c.6.82.44,1.76.44,2.67,0,10.69-.14,21.39.09,32.07.07,3.35-.27,6.68-.1,10.03.05,1.01.08,1.96.91,2.67"/>
  <path class="cls-1" d="M303.78,209.86c-3.77,1.42-7.41,3.14-11.14,4.67-2.68,1.1-5.27,2.4-8.02,3.35"/>
  <path class="cls-1" d="M293.53,61.07c6.51,3.34,12.73,7.2,19.16,10.69"/>
  <path class="cls-1" d="M77.92,329.03c4.14-3.21,8.37-6.32,12.51-9.53.89-.69,1.03-1.15.64-2.05-2.37-5.46-5.61-10.06-11.34-12.53-1.16-.5-2.11-.05-3.14-.16"/>
  <path class="cls-1" d="M295.76,113.2c6.35,3.53,12.4,7.55,18.71,11.14"/>
  <path class="cls-1" d="M279.05,220.33c-5.74,2.72-11.72,4.9-17.38,7.78-.18.09-.44.01-.66.01"/>
  <path class="cls-1" d="M105.32,145.49c1.67,1.21,2.87,2.99,4.89,3.81,3.85,1.56,7.8,1.53,11.81,1.09,4.1-.45,7.76-1.8,10.5-5.09.18-.21.65-.47,1.08-.47"/>
  <path class="cls-1" d="M310.01,89.14c5.68,3.35,11.25,6.89,16.93,10.25"/>
  <path class="cls-1" d="M381.51,152.18c.49,2.66.15,5.35.21,8.02.06,2.89.01,5.79.01,8.69"/>
  <path class="cls-1" d="M91.51,319.45c2.03,3.29,2.61,6.93,2.41,10.69-.08,1.53-2.1,2.91-3.74,3.14-1.71.24-3.32,1.15-5.13.87"/>
  <path class="cls-1" d="M155.88,367.56c5.54,3.38,10.82,7.15,16.26,10.69.05.03.15,0,.22,0"/>
  <path class="cls-1" d="M125.14,325.69c-.82,4.98-1.9,9.85-5.33,13.82-.36.41-.84.86-.68,1.55"/>
  <path class="cls-1" d="M103.09,175.34c-.66,2.3.1,4.6.02,6.91-.1,2.82-.02,5.64-.02,8.46"/>
  <path class="cls-1" d="M368.59,157.52c.51,3.18.11,6.39.21,9.58.06,1.85.01,3.71.01,5.57"/>
  <path class="cls-1" d="M292.19,83.79c-7.45,4.09-15.22,4.03-23.16,1.78"/>
  <path class="cls-1" d="M111.78,284.71c-3.75-2.11-7.7-3.65-12.03-3.99-.7-.06-1.24-.32-1.78-.69"/>
  <path class="cls-1" d="M161.67,341.73c-3.37,2.34-7.26,3.6-10.94,5.3-.58.27-1.54.32-2.2-.28"/>
  <path class="cls-1" d="M276.16,95.82c-4.2,1.07-8.01,3.15-12.02,4.71-.32.12-.6.15-.9.19"/>
  <path class="cls-1" d="M322.93,138.14c-4.31,1.77-8.49,3.85-12.92,5.35"/>
  <path class="cls-1" d="M142.96,363.11c-4.1,1.49-8.02,3.42-12.01,5.15-.32.14-.6.15-.9.19"/>
  <path class="cls-1" d="M198.2,185.81c-1.33.52-.54,1.11,0,1.55,2.51,1.98,5.5,1.9,8.45,1.77,1.2-.05,2.35-.54,3.56-.64"/>
  <path class="cls-1" d="M150.09,257.98c4.57,2.97,8.31,6.82,11.58,11.14"/>
  <path class="cls-1" d="M129.59,183.58c4.21,2.05,7.8,5.11,12.03,7.13"/>
  <path class="cls-1" d="M128.7,355.09c-.02,4.01.02,8.02-.16,12.03-.04.84-.94,1.86.16,2.67"/>
  <path class="cls-1" d="M124.25,253.3c-3.04-.23-5.12,2.12-7.78,2.94-1.27.39-2.47,1-3.79,1.32-.89.22-1.8.64-2.01,1.75"/>
  <path class="cls-1" d="M113.11,261.99c-3.53-.3-6.71.66-9.56,2.7-.72.52-1.27,1.2-2.24.64"/>
  <path class="cls-1" d="M119.35,361.55c-3.59,1.26-6.81,3.32-10.23,4.94-.28.13-.99-.1-.91.63"/>
  <path class="cls-1" d="M300.66,85.58c-3.75,1.38-7.38,3.07-11.14,4.45"/>
  <path class="cls-1" d="M330.95,307.87c3.81,2.07,7.35,4.58,11.14,6.68"/>
  <path class="cls-1" d="M179.93,403.2c1.44-.08,1.1,1.28,1.04,1.77-.38,3.57,0,7.14-.15,10.7"/>
  <path class="cls-1" d="M146.97,349.75v10.69"/>
  <path class="cls-1" d="M126.25,164.43c.33,3.26-.32,6.54.22,9.8"/>
  <path class="cls-1" d="M317.14,204.07c-3.32,1.2-6.41,2.98-9.8,4.01"/>
  <path class="cls-1" d="M226.71,178.68c-3.26,1.18-6.47,2.47-9.58,4.01"/>
  <path class="cls-1" d="M86.61,164.87c-.4,2.07-.37,4.18-.17,6.23.3,3.2.02,6.39.18,9.58.03.6-.48.88-.68,1.34"/>
  <path class="cls-1" d="M373.27,107.4c3.23,1.59,6.18,3.66,9.36,5.35"/>
  <path class="cls-1" d="M201.32,228.8c0,4.45,0,8.91,0,13.36,0,.75-.14,1.51.22,2.23"/>
  <path class="cls-1" d="M181.05,224.34c-.47,3.93-.13,7.87-.23,11.8-.05,1.71.25,3.43-.21,5.12"/>
  <path class="cls-1" d="M83.71,286.71c2.57,1.37,5.58,1.66,8.04,3.3.24.16.44.59.87.48"/>
  <path class="cls-1" d="M120.24,354.65c-2.92,1.45-5.8,2.99-8.91,4.01"/>
  <path class="cls-1" d="M275.71,66.87c2.57,2.02,5.53,1.62,8.46,1.34"/>
  <path class="cls-1" d="M183.94,166.65c2.97,1.55,5.49,3.8,8.46,5.35"/>
  <path class="cls-1" d="M212.68,425.03c.41,4.45.13,8.91.23,13.36.02.82-.16,1.66.22,2.45"/>
  <path class="cls-1" d="M102.42,371.13c2.97,1.55,5.49,3.8,8.46,5.35"/>
  <path class="cls-1" d="M128.93,192.27c-.63,2.72.16,5.52-.39,8.25-.04.18.5.82,1.06.88"/>
  <path class="cls-1" d="M109.99,171.55c2.77,1.48,5.25,3.42,8.02,4.9"/>
  <path class="cls-1" d="M279.05,196.28c.51,3.85.05,7.72.23,11.58.05,1.04-.22,2.11.22,3.12"/>
  <path class="cls-1" d="M306.45,145.27c-2.75.83-5.25,2.34-8.02,3.12"/>
  <path class="cls-1" d="M175.48,146.16c-2.76.8-5.25,2.32-8.02,3.12"/>
  <path class="cls-1" d="M171.47,158.63c2.77,1.48,5.25,3.42,8.02,4.9"/>
  <path class="cls-1" d="M136.28,158.63c-2.63,1.28-5.18,2.76-8.02,3.56"/>
  <path class="cls-1" d="M322.04,154.63c-2.75.83-5.25,2.34-8.02,3.12"/>
  <path class="cls-1" d="M368.59,173.56c.64,2.57-.21,5.23.45,7.8"/>
  <path class="cls-1" d="M181.27,233.92c2.53,1.33,4.97,2.82,7.57,4.01"/>
  <path class="cls-1" d="M147.41,204.96c0,2.15,0,4.31,0,6.46,0,.67-.25,1.52.89,1.56"/>
  <path class="cls-1" d="M189.96,424.59c-.5,2.66-.13,5.35-.23,8.02-.14,3.93.28,7.88-.22,11.81"/>
  <path class="cls-1" d="M278.83,89.14c0,3.94.02,7.87-.02,11.8,0,.51.4,1.23-.42,1.56"/>
  <path class="cls-1" d="M168.8,207.64c2.56,1.42,5.01,3.04,7.57,4.45"/>
  <path class="cls-1" d="M224.04,427.93c.13,2.52-.27,5.06.22,7.57"/>
  <path class="cls-1" d="M115.34,192.49c2.63,1.31,4.97,3.1,7.57,4.45"/>
  <path class="cls-1" d="M388.86,327.47c.36,3.57-.75,7.12-.22,10.69"/>
  <path class="cls-1" d="M358.13,98.5c2.5,1.12,4.63,2.89,7.13,4.01"/>
  <path class="cls-1" d="M282.39,105.18c2.5,1.12,4.63,2.89,7.13,4.01"/>
  <path class="cls-1" d="M365.7,167.54c-2.33.62-4.35,2.05-6.68,2.67"/>
  <path class="cls-1" d="M128.93,201.62c-.61,2.2.16,4.49-.45,6.68"/>
  <path class="cls-1" d="M157.21,416.57c2.23,1.48,4.45,2.97,6.68,4.45"/>
  <path class="cls-1" d="M387.53,119.88c2.33,1,4.41,2.45,6.68,3.56"/>
  <path class="cls-1" d="M395.77,343.73c.45,1.92.15,3.86.22,5.79.16,4.45-.28,8.92.23,13.36"/>
  <path class="cls-1" d="M176.82,421.02c2.25,1.45,4.37,3.1,6.68,4.45"/>
  <path class="cls-1" d="M169.69,425.03c2.23,1.48,4.45,2.97,6.68,4.45"/>
  <path class="cls-1" d="M134.94,204.96c2.31,1.2,4.34,2.86,6.68,4.01"/>
  <path class="cls-1" d="M303.78,111.41c2.2.98,4.1,2.48,6.24,3.56"/>
  <path class="cls-1" d="M112.22,183.14c.41,2.07.15,4.16.22,6.24"/>
  <path class="cls-1" d="M377.28,320.79c-.88,2.09-1.59,4.24-2.67,6.24"/>
  <path class="cls-1" d="M386.64,354.65c.12,2.08-.25,4.17.22,6.24"/>
  <path class="cls-1" d="M112.67,192.05c-.42,1.47-.21,2.97-.19,4.45,0,.63-.29,1.05-.48,1.56"/>
  <path class="cls-1" d="M139.4,376.92c2.06.97,3.73,2.59,5.79,3.56"/>
  <path class="cls-1" d="M115.34,379.59c2.06.97,3.73,2.59,5.79,3.56"/>
  <path class="cls-1" d="M212.9,441.29c.12,1.78-.26,3.58.22,5.35"/>
  <path class="cls-1" d="M83.71,155.07c1.87.89,3.48,2.23,5.35,3.12"/>
  <path class="cls-1" d="M201.09,237.93c-2.52.98-5.13,1.16-7.8.9-.88-.08-1.78-.01-2.67-.01"/>
  <path class="cls-1" d="M350.55,319.9c1.87.89,3.48,2.23,5.35,3.12"/>
  <path class="cls-1" d="M189.73,220.56c-.48,1.76-.1,3.57-.22,5.35"/>
  <path class="cls-1" d="M330.95,102.06c1.87.89,3.48,2.23,5.35,3.12"/>
  <path class="cls-1" d="M189.73,213.87c-.66,1.74.63,3.64-.45,5.35"/>
  <path class="cls-1" d="M296.65,121.21c1.87.89,3.48,2.23,5.35,3.12"/>
  <path class="cls-1" d="M349.22,304.75c1.87.89,3.48,2.23,5.35,3.12"/>
  <path class="cls-1" d="M279.28,189.82c.11,1.71-.24,3.43.22,5.12"/>
  <path class="cls-1" d="M175.48,230.36c1.72.82,3.18,2.08,4.9,2.9"/>
  <path class="cls-1" d="M83.04,149.95c-.02,3.12.29,6.23.22,9.36-.01.6.09,1.22-.22,1.78"/>
  <path class="cls-1" d="M267.03,76c-1.82-.25-3,1.4-4.68,1.56"/>
  <path class="cls-1" d="M209.78,413.23v4.68"/>
  <path class="cls-1" d="M326.5,131.91c.45.22.94.38,1.33.68,1.06.8,1.88,1.67.91,3.12-.67,1.01-.49,2.2-.44,3.33.03.73-.18,1.03-.91.89"/>
  <path class="cls-1" d="M283.29,155.07c-1.44.14-2.5,1.41-4.01,1.34"/>
  <path class="cls-1" d="M86.38,330.59c.57,1.06,1.55,1.72,2.45,2.45"/>
  <path class="cls-1" d="M223.81,419.91c.38.79.17,1.63.22,2.45"/>
  <path class="cls-1" d="M192.85,341.73c-.79-.08-1.4.73-2.23.45"/>
  <path class="cls-1" d="M366.59,315.44c.6.29,1.19.6,1.78.89"/>
  <path class="cls-1" d="M187.51,437.06c.66.27,1.05.96,1.78,1.11"/>
  <path class="cls-1" d="M220.92,197.39c-.2-.9-.9-.26-1.34-.45"/>
  <path class="cls-1" d="M136.28,136.36c-.69.87-1.65.22-2.45.45"/>
  <path class="cls-1" d="M136.05,337.05c-.47-.41-1.03-.18-1.56-.22"/>
</svg>