<?xml version="1.0" encoding="UTF-8"?>
<svg id="icons" xmlns="http://www.w3.org/2000/svg" viewBox="0 0 500 500">
  <defs>
    <style>
      .cls-1 {
        fill: none;
        stroke: #000;
        stroke-linecap: round;
        stroke-linejoin: round;
        stroke-width: .87px;
      }
    </style>
  </defs>
  <path class="cls-1" d="M173.39,75.03c3.63-.52,7.27.13,10.9-.02,4.8-.19,9.59.26,14.4-.15,2.6-.22,5.23.15,7.85.19,4.37.07,8.74-.53,13.08-.17,4.59.37,9.16-.44,13.75.12,2.53.31,5.08-.15,7.63-.2,5.09-.11,10.19.49,15.26.18,6.92-.42,13.81.1,20.72.08,28.93-.07,57.86-.03,86.79-.02,3.38,0,6.3.98,8.06,4.14.91,1.64.14,3.52.64,5.24.14.47.02,1.01.02,1.52.32,48.63.21,97.25.22,145.88,0,61.06,0,122.11,0,183.17,0,4.91-1.96,8.32-5.68,9.56-1.38.46-2.86.7-4.35.7-75.88,0-151.77.01-227.65-.04-6.24,0-10.01-3.56-10.02-10-.02-60.11-.01-120.22-.01-180.33"/>
  <path class="cls-1" d="M101.87,183.84c0,80.61-.01,161.22.02,241.83,0,7.56,2.96,13.75,9.13,18.33,5.01,3.72,10.59,5.45,16.8,5.45,32.35-.02,64.69-.19,97.04.03,48.12.33,96.24,0,144.35.24,4.13.02,8.29.12,12.43.28,4.22.16,15.5-10.27,15.5-18.11"/>
  <path class="cls-1" d="M119.97,187.76c.92.48.42,1.32.41,1.96-.26,13.3-.19,26.6-.19,39.91,0,62.73.02,125.46-.03,188.18,0,8.39,5.93,11.79,11.81,11.79,77.27-.02,154.53-.02,231.8.02,3.64,0,7-.57,10.03-2.65"/>
  <path class="cls-1" d="M382.08,50.38c16.43-.42,13.81,12.66,14.41,20.5.16,2.11.19,4.22.19,6.33,0,14.61-.14,29.22.03,43.83.41,33.87-.02,67.74.2,101.62.45,68.83.08,137.67.19,206.5"/>
  <path class="cls-1" d="M168.16,69.79h155.69c14.46,0,28.93-.06,43.39.04,3.85.03,7.37,1.05,9.42,4.95,1.37,2.59,1.68,5.3,1.69,8.09.02,28.57-.11,57.13.04,85.7.42,82.86.06,165.72.2,248.59,0,3.93-.94,7.42-4.17,9.93"/>
  <path class="cls-1" d="M121.5,54.53c-3.03.53-6.11.17-9.17.59-5.59.77-10.92,2.46-16.1,4.49-9.88,3.86-17.41,10.67-23.16,19.55-2.79,4.3-5.69,8.49-7.66,13.29-3.4,8.27-5.24,16.78-5.46,25.75-.34,13.85,3.11,26.39,11.57,37.53,7.01,9.23,16.01,15.48,26.84,19.44,6.32,2.31,12.81,3.46,19.43,3.56,5.27.08,10.58-.63,15.69-2.1,7.87-2.26,15.33-5.31,22.06-10.18,9.6-6.94,16.69-15.71,20.66-26.88,3.06-8.61,3.64-17.52,3.14-26.6-.29-5.23-.89-10.37-1.99-15.49-1.48-6.88-4.72-12.91-8.79-18.51-5.51-7.58-12.2-13.94-20.7-18.1-7.96-3.9-16.33-6.26-25.28-6.13-.3,0-.65.15-.87-.21"/>
  <path class="cls-1" d="M166.2,111c-.36-6.89-2.67-13.21-5.93-19.17-4.48-8.2-10.83-14.62-19.16-18.98-5.66-2.97-11.73-4.58-18.09-5.01-6.66-.46-13.25.3-19.6,2.23-5.95,1.81-11.49,4.62-16.16,8.88-6.92,6.32-11.8,13.94-14.62,22.89-2.41,7.66-2.88,15.47-1.49,23.33,1.72,9.65,5.24,18.62,12.24,25.68,5.86,5.91,12.73,10.64,20.88,12.88,11.08,3.05,21.86,2.31,32.53-2.46,6.81-3.04,12.58-7.22,17.59-12.56,5.9-6.29,9.88-13.62,11.38-22.22.67-3.84.95-7.69,1.06-11.56"/>
  <path class="cls-1" d="M125.2,184.71c-6.51.23-13.02.02-19.4-1.36-4.91-1.06-9.66-2.78-14.17-4.99-7.2-3.53-13.41-8.38-18.78-14.35-5.83-6.47-10.49-13.64-13.49-21.82-3.29-8.95-4.47-18.16-3.75-27.69.8-10.64,3.6-20.67,8.58-30.07,2.47-4.67,5.71-8.84,9.11-12.9,6.84-8.15,15.66-13.39,25.31-17.43,8.04-3.36,16.4-4.36,25.08-4.03,3.61.14,7.26.1,10.9.1,76.83,0,153.66,0,230.49.02,5.67,0,11.34-.23,17.01.2"/>
  <path class="cls-1" d="M170.34,72.84c5.96,5.53,10.27,12.28,13.9,19.43,3.6,7.09,5.9,14.61,6.41,22.65.64,10.21-.91,19.99-4.81,29.45-3.66,8.86-9.15,16.37-16.12,22.92-5.27,4.96-11.13,9-17.48,12.39-7.36,3.94-15.23,6.07-23.55,6.79-6.34.55-12.55-.18-18.76-1.32-.7-.13-2.04-.33-10.16-3.47"/>
  <path class="cls-1" d="M300.96,136.74c3.22-.07,6.46-.49,9.59.66,6.38,2.32,10.26,5.8,10.94,13.3.21,2.27-.02,4.51-.02,6.76-.02,48.55-.02,97.11,0,145.66,0,.65-.28,1.35.2,1.96"/>
  <path class="cls-1" d="M208.94,265.39c.54,3.56.18,7.13-.02,10.68-.24,4.29-.28,8.58-.62,12.87-.45,5.65-.78,11.3-2.38,16.8-.88,3.03-2.34,5.82-3.56,8.69-3.73,8.79-4.81,17.85-3.69,27.28.42,3.54.75,7.09.71,10.68-.08,8.65-.05,17.3-.02,25.95.03,8.51-.16,17.01-.22,25.51-.02,3.05-.49,6.22.3,9.14,1.84,6.84,3.7,8.72,11.48,10.23,2.2.43,4.48.62,6.75.48"/>
  <path class="cls-1" d="M223.54,281.74c-1.14,7.63-1.93,15.3-3.23,22.9-.77,4.55-2.55,8.73-4.44,12.84-2.03,4.41-2.84,9.01-3.22,13.76-.51,6.28.25,12.5.54,18.76.44,9.43.12,18.89.11,28.34,0,2.04-.68,4.04-.43,6.11"/>
  <path class="cls-1" d="M309.68,329.94c5.13-2.87,6.7-7.71,6.72-13.08.09-25.8.04-51.61.04-77.41,0-28.78.08-57.57-.06-86.35-.03-7.29-3.68-11.96-10.63-13.74-1.03-.26-1.96-.84-3.05-.87"/>
  <path class="cls-1" d="M304.01,332.55c0,15.55,0,31.11,0,46.66,0,1.73-.16,3.02,2.05,4.35,3.29,1.97,5.31,5.45,6.09,9.59.83,4.38.74,8.64-.34,12.87-1.06,4.15-6.38,5.7-10.43,6.21"/>
  <path class="cls-1" d="M211.12,234.21h-85.48"/>
  <path class="cls-1" d="M184.95,107.95c.31,4.07,1.06,8.1.89,12.21-.36,8.62-2.15,16.87-5.43,24.87-3.19,7.78-7.96,14.25-14.39,19.66-3.06,2.57-5.96,5.32-9.42,7.37"/>
  <path class="cls-1" d="M276.54,292.43c-1.65,4.71-2.92,9.54-4.8,14.17-1.52,3.77-3.23,7.47-5.05,11.11-2.28,4.56-3.3,9.4-3.42,14.41-.16,6.76-.04,13.52-.04,20.28"/>
  <path class="cls-1" d="M263.23,353.92c0,19.26,0,38.52,0,57.79,0,5.64,1.7,10.15,7.64,11.99"/>
  <path class="cls-1" d="M291.36,298.97c-3.09,3.57-4.19,7.86-4.88,12.42-.26,1.68-.19,3.37-.49,5.04-.09.49-.04.68-.47,1.12-5.35,5.41-7.97,11.9-8.2,19.58-.14,4.81.14,9.6.11,14.39-.08,15.63-.03,31.25-.03,46.88,0,7.7,0,15.41-.02,23.11,0,.72.26,1.49-.2,2.18"/>
  <path class="cls-1" d="M257.35,75.46c.36,1.51.13,3.07.14,4.58.12,15.84.07,31.69.07,47.54,0,2.47,0,4.94,0,7.41"/>
  <path class="cls-1" d="M372.26,233.99c-.85.31-1.74.22-2.62.22-14.83,0-29.66,0-44.48,0-.8,0-1.63-.16-2.4.21"/>
  <path class="cls-1" d="M302.7,136.68c-3.01.26-4.07-.6-5.02-.6-7.85,0-15.7.13-23.55-.05-4.8-.11-13.23-1.06-17.23,1.57"/>
  <path class="cls-1" d="M295.51,169.44c6.07.25,8.07-4.26,7.9-8.72-.12-3.1-.95-5.59-3.75-7.2-4.44-2.55-9.42-.28-10.9,5.02-1.54,5.49.61,9.59,6.54,11.12"/>
  <path class="cls-1" d="M125.2,187.76c.12,12.29-.38,24.57-.22,36.85.04,3.27-.08,6.55.22,9.81"/>
  <path class="cls-1" d="M192.36,126.71c2.63,2.98,5.85,5.35,8.79,7.99,4.37,3.92,9.1,7.46,13.43,11.44,4.47,4.11,9.44,7.66,13.57,12.16,2.64,2.88,5.46,5.6,8.46,8.11,1.03.86,1.89,1.92,3.15,2.54,3.11-.8,5.61-2.96,8.44-4.49.81-.44,1.28-1.02,1.78-1.74.27-.38,1.12-.97,1.48.18"/>
  <path class="cls-1" d="M200.43,234.43c-.05,5.6.88,11.04,2.62,16.35,2.66,8.17,6.65,15.51,13.32,21.13,2.56,2.16,4.56,4.93,7.4,6.78"/>
  <path class="cls-1" d="M240.77,169.01c.46,1.93,2.28,2.68,3.52,3.89,4.42,4.31,9.57,7.73,14.3,11.66,2.62,2.18,5.3,4.29,7.95,6.42,1.88,1.51,2.37,3.46,2.76,5.52,1.17,6.19,1.34,12.38-.4,18.53-2.32,8.2-6.49,15.25-12.89,20.91-.43.38-1.01.82-1.72.68"/>
  <path class="cls-1" d="M304.45,298.97c3.86,6.84,2.86,14.03,1.25,21.14-1.09,4.79-3,9.36-6.07,13.29-1.01,1.29-1.36,2.6-1.29,4.17.08,1.81.02,3.63.02,5.45"/>
  <path class="cls-1" d="M264.32,318.81c-8.36,0-16.72,0-25.08,0-6.96,0-10.89,3.63-12.31,7.89-1.51,4.51-1.84,9.3-1.27,14.14.32,2.72.75,5.31,2.25,7.62,1.83,2.81,4.45,4.39,7.84,4.35,9.09-.1,18.17.08,27.26-.1,4.34-.09,8.72-.01,13.08.12"/>
  <path class="cls-1" d="M219.4,381.4c-1.72.8-2.76,2.27-3.97,3.67-3.49,4.01-3.21,8.79-3.24,13.56-.02,3.74.44,7.36,1.71,10.92,1.16,3.26,3.06,5.62,6.37,6.74"/>
  <path class="cls-1" d="M302.7,259.28c-.76.97-.88,2.09-.88,3.27,0,10.32,0,20.64,0,30.96,0,.68-.12,1.4.43,1.96"/>
  <path class="cls-1" d="M183.42,201.5c6.05,5,12.38,9.63,18.17,14.97,3.25,2.99,6.69,5.84,10.21,8.54,1.37,1.05,1.85,2.18,1.49,3.75-.77,3.38-1.08,6.83-1.45,10.26-.46,4.22.87,8.31,1.65,12.43,1.36,7.16,5.51,12.88,9.4,18.75"/>
  <path class="cls-1" d="M272.61,198.66c2.38,3.1,2.56,6.83,2.8,10.47.59,8.79-2.44,16.55-7.16,23.77-.14.22-.29.29-.44.22"/>
  <path class="cls-1" d="M135.23,51.69c4.93,1.28,9.61,3.22,14.17,5.45,6.13,2.99,11.49,7.08,16.56,11.57,1.19,1.06,2.44,2.05,3.5,3.26"/>
  <path class="cls-1" d="M321.89,305.51c-.17,5.27-.37,10.55-1.58,15.69-1.06,4.5-3.16,8.51-7.59,10.67-2.03.99-4.27,1.21-6.53,1.11"/>
  <path class="cls-1" d="M225.73,280.87c3.87,3.24,7.02,7.23,10.9,10.46,7.28,6.06,13.65,13.11,20.71,19.41"/>
  <path class="cls-1" d="M280.24,202.81c2.01,5.15,2.61,10.48,1.72,15.91-.81,4.9-2.85,9.41-4.73,13.98-.55,1.33-1.66,1.7-2.65,1.64-1.01-.06-2.04-.04-3.06-.12-2.41-.18-4.55-.06-6.18,2.34-1.1,1.61-2.84,2.82-4.5,3.98"/>
  <path class="cls-1" d="M226.82,383.58c-3.29,6.02-4.01,12.41-3.38,19.2.35,3.78,1.16,7.52,1.19,11.33"/>
  <path class="cls-1" d="M229.43,274.55c7.51,7.42,15.92,13.85,23.32,21.38,1.88,1.91,4.06,3.41,6.33,4.79"/>
  <path class="cls-1" d="M302.7,300.28c-2.07-.87-4.36-.17-5.67,1.75-3.65,5.35-4.33,16.32,1.74,21.15.95.76,1.5,1.85,2.18,2.83"/>
  <path class="cls-1" d="M256.91,137.61c-3.06,1.98-4.24,5.34-5.85,8.31-3.02,5.58-5.15,11.51-5.93,17.86-.06.46-.69.74-.44,1.31"/>
  <path class="cls-1" d="M266.07,137.17c-3.81.36-6.17,2.76-7.83,5.9-2.43,4.59-3.74,9.6-5.04,14.6-.4,1.52-.77,3.06-1.74,4.36"/>
  <path class="cls-1" d="M283.51,184.27c4.57,4.64,6.88,10.4,8.55,16.56.95,3.49,1.99,6.95,2.79,10.48"/>
  <path class="cls-1" d="M251.24,291.99c9.81,0,19.63-.05,29.44.02,4.3.03,8.62,0,12.86.87,3.83.78,7.27,2.3,9.6,5.66"/>
  <path class="cls-1" d="M238.37,385.98c-.28-1.14-.87-1.89-2.48-1.69-3.54,5.07-5.14,10.78-4.53,17.17.21,2.21-.06,4.49,2.43,5.67"/>
  <path class="cls-1" d="M252.98,237.48c-8.84,3.13-17.55,2.55-26.17-.87"/>
  <path class="cls-1" d="M157.91,180.78c5.99,4.51,11.62,9.46,17.44,14.18,2.53,2.06,5.11,4.05,7.64,6.1"/>
  <path class="cls-1" d="M219.84,387.07c-1.25,6.24-1.64,12.49-.22,18.75.44,1.96.9,3.92,1.96,5.67"/>
  <path class="cls-1" d="M257.78,241.84c-7.5,2.9-15.07,5.01-23.12,2.19-.26-.09-.58-.01-.87-.01"/>
  <path class="cls-1" d="M262.14,385.32c-2.07,3.47-3.99,6.95-4.4,11.12-.45,4.53-.22,8.87,2.22,12.87"/>
  <path class="cls-1" d="M198.03,384.01c-3.76,7.37-3.6,14.96-1.31,22.68"/>
  <path class="cls-1" d="M243.83,381.4c-.03,8.75-.49,17.47-1.52,26.17-.39,3.29-1.57,6.2-3.72,8.72"/>
  <path class="cls-1" d="M299.21,234.86c-.62.71-.59,1.62-.41,2.39,1.68,6.91,1.21,13.66-1.34,20.29"/>
  <path class="cls-1" d="M230.31,314.67c-3.82,1.39-6.56,3.87-8.32,7.62-2.74,5.85-3.64,12.03-3.16,18.33.43,5.49,1.21,11.07,5.8,15.05"/>
  <path class="cls-1" d="M294.42,380.96c-6.36-.42-9.91,3.53-11.79,9.37-1.44,4.51-1.61,9.03-1.2,13.75.31,3.55.84,6.93,2.08,10.24.54,1.43.87,2.99,2.63,3.49"/>
  <path class="cls-1" d="M299,218.29c-.23.63.33.85.66,1.07,4.39,3.01,6.69,7.22,7.42,12.44.88,6.32.5,12.57-.92,18.75-.48,2.09-1.59,4.02-2.14,6.11"/>
  <path class="cls-1" d="M372.04,50.6c.31,1.66.26,3.34.21,5.01-.16,4.95.36,9.88.23,14.83"/>
  <path class="cls-1" d="M239.03,385.98c-.96,1.89-.22,3.8.03,5.67.61,4.55-.08,8.89-1.81,13.07-.49,1.18-1.39,2.2-2.58,2.85"/>
  <path class="cls-1" d="M291.8,238.35c-2.43,3.23-4.54,6.68-5.15,10.7-.36,2.38-.33,4.83-.95,7.18"/>
  <path class="cls-1" d="M201.3,216.98c-.75,5.65-1.13,11.31-1.09,17.01"/>
  <path class="cls-1" d="M270.87,177.29c-3.61-1.39-7.24-.91-10.91-.25-1.9.34-3.77.78-5.66,1.12"/>
  <path class="cls-1" d="M290.93,394.05c-1.59,4.27-1.34,8.73-.77,13.07.4,3.05,2.95,4.89,5.57,6.33.6.33,1.49.21,1.74,1.09"/>
  <path class="cls-1" d="M284.82,328.19c-1.83,2.54-2.42,5.51-2.8,8.51-.32,2.52-.78,5.07-.25,7.63"/>
  <path class="cls-1" d="M142.65,180.35c-4.7,1.61-9.47,2.95-14.39,3.71"/>
  <path class="cls-1" d="M285.26,206.08c3.35,2.98,6.87,5.78,10.24,8.73,1.18,1.03,1.83,2.27,2.01,3.92.48,4.58.65,9.18,1.28,13.74.05.36-.25.56-.23.87"/>
  <path class="cls-1" d="M307.06,388.92c4.49,3.08,3.44,7.62,3.22,10.16-.33,3.9-.27,5.22-4.28,8.05"/>
  <path class="cls-1" d="M241.65,380.96c-3.38-2.92-7.34-4.29-11.78-4.36"/>
  <path class="cls-1" d="M287.44,332.99c-.22,2.26-.66,4.49-.89,6.76-.4,3.95-.38,7.78,2.2,11.12"/>
  <path class="cls-1" d="M301.39,380.53c-3.72-.96-3.16-.99-12.92,1.63"/>
  <path class="cls-1" d="M280.9,346.07c.02,3.81,1.89,6.66,4.54,9.2.6.57,1.31.09,1.78.62"/>
  <path class="cls-1" d="M236.19,248.38c2.62,4.1,6.3,7.21,9.81,10.47"/>
  <path class="cls-1" d="M215.04,228.76c3.16,2.7,6.61,4.96,10.47,6.54"/>
  <path class="cls-1" d="M234.67,355.67c-1.54.15-2.81,1.3-4.36,1.29-3.89-.01-7.87.63-11.57-1.27-.53-.27-1.14-.36-1.52-.89"/>
  <path class="cls-1" d="M270.43,193.87c4.06,3.35,8.05,6.8,12.21,10.03"/>
  <path class="cls-1" d="M301.39,412.36c-.44,2.67-2.24,4.43-4.15,6.1-2.06,1.8-6.55,2.36-8.93,1.08-.4-.21-.76-.57-.88-1.07"/>
  <path class="cls-1" d="M248.62,261.03c3.07,2.3,6.12,4.63,9.16,6.98"/>
  <path class="cls-1" d="M296.6,344.76c-.98,3.37-2.46,6.43-5.23,8.72"/>
  <path class="cls-1" d="M288.31,319.91c1.46.05,2.94-.03,4.36.44,1.33.45,2.77.74,3.49,2.18"/>
  <path class="cls-1" d="M287.87,249.25c-.46,2.6-.38,5.26-.87,7.85"/>
  <path class="cls-1" d="M320.58,234.21h-11.78"/>
  <path class="cls-1" d="M299.21,397.32c-.08.58.26,1.06.07,1.76-.84,3.12-.67,6.27.34,9.37.18.55.28.9.9.86"/>
  <path class="cls-1" d="M263.02,161.59c-3.37,0-6.71.35-10.03.87"/>
  <path class="cls-1" d="M301.39,389.68c-1.1,2.29-1.99,4.63-2.18,7.2"/>
  <path class="cls-1" d="M226.6,416.51c1.9,1.88,4.34,1.87,6.76,1.96"/>
  <path class="cls-1" d="M294.85,329.5c-1.61-3.44-4.22-4.76-8.05-.86-.21.22-.39.36-.67.42"/>
  <path class="cls-1" d="M304.66,383.36c-1.06.37-1.45,1.29-1.82,1.87-.89,1.39-.26,2.48-1,3.68"/>
  <path class="cls-1" d="M261.27,304.64c2.28,1.63,3.82,4.04,6.11,5.67"/>
  <path class="cls-1" d="M301.18,384.23c-2.35.4-3.93,2.18-5.89,3.27"/>
  <path class="cls-1" d="M272.39,177.51c1.93.54,3.67,1.53,5.45,2.4"/>
  <path class="cls-1" d="M246.88,257.1c1.46,1.48,2.98,2.89,4.8,3.93"/>
  <path class="cls-1" d="M263.02,304.2c1.84,1.19,2.95,3.18,4.8,4.36"/>
</svg>