<?xml version="1.0" encoding="UTF-8"?>
<svg id="icons" xmlns="http://www.w3.org/2000/svg" viewBox="0 0 500 500">
  <defs>
    <style>
      .cls-1 {
        fill: none;
        stroke: #000;
        stroke-linecap: round;
        stroke-linejoin: round;
        stroke-width: .79px;
      }
    </style>
  </defs>
  <path class="cls-1" d="M353.53,287.36c2.66-.19,4.98-1.5,7.27-2.62,12.24-5.98,21.18-15.46,28.26-26.95,6.24-10.12,10.68-20.99,13.95-32.37,1.47-5.11,2.49-10.32,3.44-15.56,1.16-6.36,1.36-12.75,1.06-19.14-.51-10.81-2.78-21.25-8.24-30.76-4.09-7.12-9.5-12.76-17.74-14.99-2.09-.56-4.23-.06-6.3.06-5.63.33-11.1,1.63-16.37,3.67-5.85,2.26-10.81,5.83-15.18,10.26-6.99,7.1-13.24,14.84-18.05,23.52-4.59,8.28-7.8,17.22-10.38,26.36-1.41,5-2.44,10.05-3.17,15.19-.86,6.09-1.36,12.21-1.08,18.34.17,3.61.56,7.24,1.01,10.86.8,6.42,2.53,12.53,4.82,18.53.87,2.29,2.15,4.34,3.58,6.29,2.37,3.23,5.28,5.88,8.87,7.68,3.03,1.53,6.19,2.57,9.65,2.86,1.98.16,3.97.48,5.92.27,2.85-.31,5.79-.28,8.49-1.53"/>
  <path class="cls-1" d="M122.21,109.48c-3.14,1.62-5.73,3.95-8.07,6.52-7.68,8.44-12.27,18.58-15.3,29.4-1.25,4.46-2.14,9.07-2.55,13.77-.46,5.21-.6,10.43-.21,15.58.66,8.69,2.76,17.09,7.39,24.66,3.12,5.11,7.62,8.7,12.6,11.87,2.79,1.78,5.94,2.46,8.89,3.74,3.4,1.48,6.74,3.04,10.47,3.51,4.65.59,9.32.9,14,.38,5.05-.56,10-1.57,14.8-3.32,1.7-.62,3.34-1.33,4.92-2.19"/>
  <path class="cls-1" d="M169.34,158.39c.42-3.08.09-6.18.19-9.27.05-1.45.16-2.9.15-4.34-.03-4.36-3.94-10.04-9.6-10.94-8.16-1.29-13.63,2.25-17.96,8.57-3.75,5.48-5.37,11.67-6.37,18.13-.38,2.44-.6,4.92-.61,7.31-.03,6.63,1.15,13.1,6.03,18.11,3.47,3.56,7.92,5.43,12.78,6.36,1.94.37,3.8,1.18,5.73,1.52,3.28.57,6.6.89,9.85,1.62"/>
  <path class="cls-1" d="M379.76,143.99c-5.65-2.28-11.5-3.92-17.56-4.45-2.81-.24-5.68.7-8.46,1.34-8.74,2.01-15.84,6.85-22.35,12.91-6.38,5.94-11.83,12.55-16.31,19.98-2.92,4.84-4.88,10.14-6.88,15.39-3,7.89-5.79,15.88-7.82,24.07-.75,3.03-1.04,6.26-1.38,9.43-.39,3.7-.33,7.38-.26,11.05.08,4.02.64,8.03,1.06,12.04.58,5.56,2.12,10.85,3.66,16.15.44,1.51,1.28,3.05,1.26,4.55-.05,4.25.33,8.57-3.22,12.08-4.17,4.12-8.65,7.69-14.05,10-3.75,1.6-7.72,2.49-11.63,3.55-2.86.78-5.77,1.56-8.69,1.88-2.43.26-4.84.72-7.28.93-3.81.33-7.63.49-11.44.49-4.15,0-8.29-.5-12.42-.94-2.59-.28-5.16-.78-7.68-1.41-.55-.14-1.07-.05-1.59-.16"/>
  <path class="cls-1" d="M130.1,118.95c-3.62,4.95-6.94,10.08-9.66,15.58-2.86,5.78-4.85,11.86-6.35,18.13-.98,4.11-1.62,8.28-2.24,12.45-.29,1.92-.49,3.92-.48,5.9.02,4.21-.2,8.43.04,12.62.63,10.99,3.89,21.03,11.42,29.37.24.27.38.47.38.8"/>
  <path class="cls-1" d="M384.69,175.74c2.82,4.52,4.88,9.4,5.85,14.61,1.08,5.78,1.09,11.64.51,17.55-1.16,11.75-5.75,22.29-11.19,32.48-2.62,4.92-6.06,9.44-9.79,13.64-4.23,4.76-9.52,8.02-15.59,9.76-1.82.52-5.93-.5-10.55-1.81-3.05-.87-6.16-5.73-10.12-9.71"/>
  <path class="cls-1" d="M192.22,103.17c-2.23-1.18-4.41-2.23-6-4.48-1.75-2.48-1.47-4.8-.72-7.36,1.18-3.98,4.24-6.23,7.51-8.27,6.49-4.07,13.78-6.06,21.1-7.87,9.25-2.29,18.65-3.51,28.19-3.82,4.93-.16,9.86-.16,14.79-.13,6.79.04,13.61.33,20.3,1.45,5.78.97,11.58,2.07,17.19,3.99,5.07,1.73,10.11,3.42,14.37,6.78,2.86,2.26,5.09,4.93,5.98,8.65.7,2.94.35,5.46-1.42,7.91-4.56,6.31-10.78,10.14-18.16,12.2-5.97,1.66-11.93,3.33-18.13,4-1.78.19-3.55.34-5.33.35"/>
  <path class="cls-1" d="M180.78,305.7c-.24,1.5.74,2.67,1.23,3.93,3.4,8.75,6.75,17.52,10.21,26.25,4.46,11.24,8.64,22.58,12.85,33.91,1.24,3.34,2.76,6.58,4.04,9.9,1.78,4.61,5.46,7.18,9.37,9.38,6.55,3.68,13.5,6.54,20.88,8.11,4.92,1.05,9.92,1.28,14.98.87,10.07-.81,19.11-4.48,27.81-9.3,4.43-2.45,7.54-5.86,9.53-10.63,3.26-7.78,6.35-15.63,9.48-23.46,2.95-7.39,6.04-14.73,9.02-22.11,3.18-7.88,6.03-15.89,9.39-23.7.19-.44.59-.94.45-1.56-.28-1.32.59-1.96,1.56-2.57,2.92-1.84,5.04-4.53,6.82-7.34,1.74-2.74,2.92-5.86,3.81-9.03.06-.21.32-.33.22-.59"/>
  <path class="cls-1" d="M303.64,314.18c-1.31,3.96-3.31,7.62-4.92,11.44-2.78,6.59-5.55,13.19-8.5,19.71-2.95,6.52-5.57,13.18-8.4,19.75-1.65,3.84-3.27,7.72-4.71,11.64-2.26,6.15-6.72,9.58-12.51,11.8-6.24,2.4-12.73,3.23-19.32,2.51-7.24-.79-13.89-3.14-18.73-9.03-2.05-2.5-3.16-5.52-4.33-8.48-4.87-12.21-10.1-24.28-15.01-36.47-3.08-7.66-6.63-15.12-9.45-22.88-.26-.7-.67-1.15-1.39-1.38-5.1-1.66-9.87-4.07-14.38-6.92-3.8-2.41-7.41-5.11-10.07-8.85-1.93-2.71-2.5-5.89-2.52-9.07-.1-15.25-.16-30.5,0-45.75.09-8.81.37-17.62.35-26.43-.02-9.79.09-19.59-.04-29.38-.09-7.43-.16-14.86-.17-22.28,0-1.71,0-3.42,0-5.13"/>
  <path class="cls-1" d="M353.93,249.1c3.67-.2,6.62-2.08,9.46-4.15,6.76-4.93,10.02-12.12,12.62-19.72,1.38-4.03,2.99-8.01,3.74-12.23,1.12-6.33,1.82-12.6-.5-18.95-2.21-6.05-9.29-10.75-17.03-8.05-4.97,1.73-8.7,5.23-11.98,9.11-3.55,4.19-6.36,8.95-8.08,14.18-2.16,6.56-3.29,13.28-2.51,20.3.51,4.59.88,9.16,3.28,13.18,2.39,4.02,5.72,6.81,10.81,6.53"/>
  <path class="cls-1" d="M169.74,279.67c3.5,4.13,7.09,8.11,11.4,11.49,8.08,6.33,17.15,10.5,26.85,13.59,5.88,1.87,11.9,3.08,17.97,3.83,7.38.91,14.8,1.65,22.27,1.47,2.16-.05,2.17,0,2.17,2.16,0,8.48,0,16.96-.01,25.44,0,.45.24.97-.18,1.38"/>
  <path class="cls-1" d="M262.09,52.42c1.25,1.06,3.11.97,4.69,1.41,9.01,2.54,17.99,5.19,27.02,7.69,11.55,3.2,23.04,6.6,34.52,10.03,4.12,1.23,8.24,2.51,12.4,3.65.83.23,1.91.39,2.18,1.54"/>
  <path class="cls-1" d="M236.59,53.67c-3.62.54-7.11,1.68-10.66,2.54-6.7,1.62-13.29,3.63-19.92,5.52-7.58,2.16-15.12,4.48-22.66,6.76-7.83,2.36-15.7,4.56-23.49,7.02-1.32.42-1.98,1.04-2.35,2.24,2.6,2.39,3.32,5.3,2.38,8.67-.09.33.1.68.15.99.61,4.48-.76,6.45-5.29,7.68-1.94.53-3.92.79-6.12,1.04.14-4.65-.45-9.05,0-13.65"/>
  <path class="cls-1" d="M149.03,127.03c-8.24,3.22-13.21,9.55-16.81,17.33-2.03,4.39-3.64,8.9-4.44,13.64-.82,4.82-.87,9.68-.32,14.59.36,3.26,1.09,6.35,2.48,9.24,2.91,6.08,7.49,10.06,14.35,11.32,2.99.55,7.14-.2,9.67-.84"/>
  <path class="cls-1" d="M236.59,62.55c-3.52.02-6.88,1.08-10.24,1.86-7.36,1.7-14.68,3.61-21.9,5.85-7.9,2.46-15.81,5.02-23.05,9.1-3.84,2.16-7.64,4.44-10.52,8-3.03,3.73-4.34,7.48-1.54,11.87"/>
  <path class="cls-1" d="M325.73,284.01c-2,4.33-5.22,7.62-9.09,10.22-6.96,4.68-14.7,7.84-22.68,10.2-7.83,2.32-15.87,3.82-24.03,4.65-6.11.62-12.23.71-18.34.95-.4.02-.82-.07-1.38.35.02-3.24,0-6.33,0-9.43"/>
  <path class="cls-1" d="M192.02,144.78c-.42.62-.21,1.32-.18,1.97.31,6.44-.73,12.92.57,19.33-.98,1.67-.21,3.42-.17,5.13.09,4.6.02,9.2,0,13.81-.08,27.48.1,54.96-.16,82.43-.03,3.41.17,6.84.07,10.25-.12,4.32,2.18,7.12,5.18,9.67,4.12,3.5,9.14,5.28,14.03,7.23,3.5,1.39,7.12,2.56,10.82,3.43,5.45,1.28,11.02,1.72,16.57,2.1,3.47.23,6.94.6,10.45.52,4.81-.1,9.6-.28,14.39-.67,6.65-.53,13.26-1.48,19.71-3.18,6.61-1.73,13.03-4.02,18.54-8.26,4.1-3.16,6.62-7.3,7.5-12.42.11-.62.58-1.12.59-1.77"/>
  <path class="cls-1" d="M262.23,62.35c3.75.26,7.39,1.24,11.03,2.02,11.32,2.45,22.6,5.08,33.55,8.98,6.76,2.41,13.25,5.32,18.86,9.77,3.19,2.53,6.3,5.47,6.17,10.19"/>
  <path class="cls-1" d="M135.82,83.45c-4.21.75-8.21,2.09-11.6,4.77-.93.73-1.03,2.13-1,3.31.13,5.33-.72,10.64-.42,15.97.06,1.06-.13,2.14-.27,3.14-.49,3.4,1.39,4.98,4.02,6.34,6.84,3.54,14.01,6.35,21.34,8.56,10.02,3.03,19.89,6.47,29.74,9.98,2.15.77,4.01,2.34,6.15,3.06,4.53,1.53,8.66,3.87,13,5.78,6.19,2.71,12.57,4.95,19.14,6.46,7.78,1.78,15.64,3.19,23.65,3.63,4.8.26,9.6.47,14.4.36,8.89-.21,17.69-1.09,26.44-2.87,9.27-1.89,18.14-4.95,26.77-8.63,7.81-3.33,15.51-6.9,23.49-9.82,1.32-.48,2.69-.87,3.97-1.52,1.62-.83,3.11-.15,4.74.31,3.87,1.09,7.76,2.11,11.61,3.24,2.77.81,5.49,1.82,8.28,2.57.66.18,1.5.29,1.78,1.16"/>
  <path class="cls-1" d="M376.81,98.44c-1.61.17-2.77,1.29-4.14,1.98-5.75,2.9-11.61,5.49-17.74,7.51-8.35,2.76-16.66,5.66-24.84,8.9-7.66,3.04-15.43,5.8-23.13,8.72-12.64,4.78-24.93,10.56-38.03,14.09-4.7,1.27-9.51,1.99-14.39,2.2-5.03.21-10,0-15-.74-6.16-.91-12.07-2.64-17.93-4.62-11.04-3.73-21.83-8.13-32.75-12.18-7.8-2.89-15.59-5.8-23.44-8.57-5.47-1.93-10.97-3.78-16.39-5.86"/>
  <path class="cls-1" d="M336.57,195.07c.06,2.09-1.41,3.58-2.23,5.3-2.17,4.57-3.78,9.32-4.84,14.23-1.32,6.09-2.06,12.24-1.67,18.53.36,5.67,1.62,11.04,4,16.17.51,1.09,1.1,2.12,1.97,2.96"/>
  <path class="cls-1" d="M196.56,185.8c-.32.63-.19,1.31-.19,1.97,0,18.54,0,37.08,0,55.61,0,9.07.02,18.14-.01,27.21-.01,2.72.83,5.03,2.32,7.33,2.34,3.61,5.48,6.26,9.16,8.19,4.15,2.18,8.4,4.21,13.18,4.84,1.68.22,3.27,1.08,4.94,1.52"/>
  <path class="cls-1" d="M353.53,196.25c0,14.33.04,28.66-.03,42.99-.02,3.36-.37,6.72.23,10.06"/>
  <path class="cls-1" d="M319.81,306.3c-.78-.16-1.2.43-1.8.75-4.68,2.48-9.5,4.77-14.42,6.63-6.7,2.53-13.76,4.02-20.84,5.33-5.97,1.1-11.97,2.01-17.97,2.55-6.79.61-13.65.87-20.5.38-3.02-.22-6.06-.35-9.06-.68-4.63-.5-9.27-1.05-13.81-2.15-2.22-.54-4.48-.88-6.72-1.3-3.19-.6-6.25-1.69-9.45-2.26-2.11-.38-4.18-.97-6.13-1.92-.35-.17-.9-.52-1.36-.03"/>
  <path class="cls-1" d="M123.98,89.76c3.71,1.84,7.41,3.72,11.23,5.35,4.16,1.78,8.49,3,12.85,4.04,3.71.89,7.26,2.17,10.82,3.45,7.79,2.78,15.62,5.48,23.47,8.08,10.64,3.53,21.42,6.59,31.95,10.45,4.75,1.74,9.5,3.47,14.22,5.27,2.03.77,4.14,1.39,6.29,1.85.64.14,1.19.08,1.78-.04"/>
  <path class="cls-1" d="M184.92,97.25c-1.03,2.39-.06,4.37,1.61,5.88,4.86,4.4,10.68,7.19,16.74,9.48,6.67,2.52,13.58,4.07,20.69,4.82,1.51.16,3.05.18,4.54.53"/>
  <path class="cls-1" d="M294.57,150.9c-6.61,2.25-13.36,3.86-20.31,4.77-8,1.05-15.99,1.78-24.26,1.5,0-4.95,0-9.95,0-14.95"/>
  <path class="cls-1" d="M307.19,167.07c-3.36,1.89-6.32,4.38-9.64,6.35-5.88,3.48-12.11,5.98-18.76,7.45-4.88,1.07-9.81,1.82-14.78,2.46-6.71.86-13.43.9-20.12.63-8.82-.35-17.53-1.88-26.03-4.29-9.01-2.56-17.25-6.65-24.29-12.96-.2-.18-.51-.61-.96-.42"/>
  <path class="cls-1" d="M384.69,175.55c1.26-.63,2.62-.03,3.96-.35,5.72-1.37,8.19-9.1,5.46-13.62-1.7-2.81-3.97-2.99-6.41-1.34-4.02,2.74-6,8.22-3.7,13.09.35.74-.59,1.63.49,2.02"/>
  <path class="cls-1" d="M281.55,429.35c.7,5.22-.62,9.66-4.92,13.03-4.77,3.74-10.32,5.41-16.18,6.29-4.18.63-8.41.99-12.62.76-6.91-.39-13.8-1.18-20.1-4.33-4.24-2.12-7.67-5.19-8.86-10.03-.62-2.51-.96-5.09-.42-7.68"/>
  <path class="cls-1" d="M352.42,99.63c-9.87,3.76-22.13,8.99-32.31,11.98-9.44,2.77-18.74,6.07-28.04,9.34-8.2,2.88-16.47,5.55-24.66,8.45-1.45.51-3.01,1.45-4.71.65"/>
  <path class="cls-1" d="M226.53,77.93c-4.09.44-8.18.86-12.22,1.59-6.02,1.09-11.9,2.67-17.34,5.54-3.12,1.64-6.05,3.61-7.51,7.07"/>
  <path class="cls-1" d="M336.77,194.68c2-1.67,3.23-3.85,3.93-6.32.54-1.9-1.11-5.44-2.54-6.32-1.54-.95-3.49-.79-5.52.82-2.7,2.14-4.27,4.88-4.17,8.46.07,2.85,2.38,5.39,5.75,4.18.75-.27,1.5-.69,2.35-.63"/>
  <path class="cls-1" d="M333.62,256.4c-1.89,1.08-3.85,2.01-5.35,3.72-2.27,2.6-3.32,5.43-2.75,8.9.73,4.5,3.67,6.2,7.71,4.34,4.22-1.95,6.69-7.29,5.54-11.84-.15-.61-.59-.84-.99-1.19-4.05-3.56-7.13-7.77-8.72-13-.1-.34-.07-1-.76-1"/>
  <path class="cls-1" d="M250.2,112.05c1.31,0,2.64.09,3.94-.01,7-.53,13.79-1.9,20.12-5.11,3.41-1.73,5.19-4.35,4.74-8.29-.21-1.83-.05-3.68,0-5.52.31-9.22-4.57-13.69-12.25-15.36-3.78-.82-7.53-1.68-11.42-2.09-8.25-.87-16.03.57-23.68,3.44-1.57.59-2.87,1.62-4.31,2.42-2.7,1.51-3.2,4.24-3.15,7.05.02,1.1.91,1.93,1.75,2.54,2.14,1.57,4.48,2.74,7.08,3.38,8,1.97,16.09,2.5,24.26,1.54,4.64-.55,9.17-1.67,13.41-3.72,2.92-1.41,5.51-3.16,6.51-6.51"/>
  <path class="cls-1" d="M218.45,398.19c-.5,1.64.07,3.29,0,4.93-.28,6.77-.12,13.54-.23,20.31-.03,2.07.51,3.56,1.93,5.19,3.25,3.75,7.01,6.79,11.55,8.52,4.84,1.85,9.86,3.29,15.15,3.46,11.41.36,22.09-1.72,31.38-8.86,1.08-.83,1.83-1.99,3.1-2.65.72-.37.57-1.52.6-2.31.29-9.2.21-18.4.23-27.61,0-.13,0-.26-.21-.39"/>
  <path class="cls-1" d="M218.25,389.32c-.54,1.69.14,3.43-.2,5.13-.69,3.43,2.06,4.4,4.16,5.69,6.78,4.16,13.97,7.34,21.87,8.7,5.15.88,11.45.08,16.56-.78"/>
  <path class="cls-1" d="M247.24,200.59c.83,2.53.41,5.14.33,7.69-.12,4.01-.07,8.02-.13,12.03-.01.99,0,1.97,0,2.96,0,15.51,0,31.03,0,46.54v25.24"/>
  <path class="cls-1" d="M185.32,139.65c.31,1.64,1.86,1.9,2.97,2.54,5.22,3,10.62,5.55,16.33,7.6,6.9,2.47,13.89,4.34,21.12,5.47,7.98,1.25,15.98,2.05,24.26,1.95v26.62"/>
  <path class="cls-1" d="M322.18,162.92c-.46-.16-.86-.19-1.39-.03-4.46,1.34-8.95,2.59-13.2,3.81-.04,4.64.33,9.14-.28,13.57-.5,3.64-3.18,5.98-6.03,8.12-4.84,3.64-10.47,5.68-16.02,7.79-2.52.96-5.33,1.28-8.06,1.65-4.4.59-8.79,1.19-13.2,1.67-6.77.74-13.55.89-20.32.62-3.34-.13-6.72-.58-10.07-.98-2.55-.3-5.14-.58-7.67-.97-3.78-.59-7.58-1.07-11.26-2.27-6.61-2.16-12.67-5.18-17.55-10.27-1.2-1.25-2.18-2.62-2.94-4.15-.38-.78-.49-1.77-1.58-1.97"/>
  <path class="cls-1" d="M278.4,88.77c-4.02,5.75-10.22,7.39-16.56,8.92-3.79.91-7.61,1.07-11.65,1.42v-23.54"/>
  <path class="cls-1" d="M278.6,97.25c-1.42.36-1.83,1.83-2.93,2.61-4.76,3.4-10.23,4.89-15.81,6.04-3.11.64-6.28.94-9.66,1.05v-7.91c-1.91.1-3.82-.06-5.71-.25-5.83-.57-11.59-1.5-16.98-4.05-1.75-.83-2.99-2.17-4.28-3.43-1.4-1.37-.73-4.96.95-6.27"/>
  <path class="cls-1" d="M250.39,339.62c0,16.17.04,32.34-.02,48.51-.03,6.77.19,13.54-.08,20.32-.06,1.6-.36,3.3.1,4.93"/>
  <path class="cls-1" d="M222.98,91.54c-1.19,3.06-.04,6.74,2.34,8.91,3.57,3.26,8.02,4.33,12.47,5.21,4,.79,8.11,1.11,12.5,1.3"/>
  <path class="cls-1" d="M239.55,330.55c.28,4.41.57,8.82,1.01,13.21.61,6.1.99,12.22,1.38,18.34.58,9.13.65,18.27.76,27.41"/>
  <path class="cls-1" d="M251.77,201.38c.46.73.4,1.55.4,2.37,0,11.31,0,22.61,0,33.92,0,13.21,0,26.43,0,39.64,0,4.15-.42,8.28-.4,12.42,0,1.78.43,3.54.2,5.32"/>
  <path class="cls-1" d="M262.82,321.87c-.21,6.19-.74,12.36-1.14,18.54-.3,4.66-.58,9.33-.8,14-.11,2.3-.18,4.6-.4,6.9-.15,1.63-.03,3.28-.03,4.93"/>
  <path class="cls-1" d="M148.79,193.28c-.38,8.08-.08,15.2-.15,23.29,0,.73-.08,1.46.19,2.17"/>
  <path class="cls-1" d="M206.02,150.9c-.13,7.5.3,14.99.6,22.48.02.55-.13,1.05-.21,1.58"/>
  <path class="cls-1" d="M365.56,83.45c3.55.03,6.63,1.56,9.65,3.18,1.26.67,1.26,1.99,1.45,3.32.68,4.79.58,9.6.5,14.4-.05,3.42-.53,6.83-.35,10.25.07,1.44-1.04,1.85-1.99,2.36-4.91,2.62-10.11,4.53-15.37,6.34-6.62,2.28-13.2,4.7-19.91,6.75-.59.18-1.68.24-1.79,1.32"/>
  <path class="cls-1" d="M294.77,148.33c.41,1.56.18,3.16.19,4.73.03,6.44.01,12.88.01,19.33,0,.73-.07,1.46.2,2.17"/>
  <path class="cls-1" d="M376.21,90.35c-4.72,2.59-9.82,4.29-14.78,6.33-2.28.94-4.63,1.63-6.9,2.56-.52.21-1.01.42-1.58.38"/>
  <path class="cls-1" d="M260.85,413.77c.12,3.37.68,6.7.96,10.06.27,3.23.74,6.43,1,9.66.08,1,.65,1.92.41,2.96"/>
  <path class="cls-1" d="M249.8,190.34c-4.89.15-9.75-.27-14.59-.82-2.51-.29-4.96-1-7.5-1.15"/>
  <path class="cls-1" d="M226.14,404.11c-.13,7.23.26,14.47-.18,21.69,0,.12.25.26.38.39"/>
  <path class="cls-1" d="M353.53,151.49c.32.63.19,1.31.19,1.97,0,5.78,0,11.57,0,17.35,0,.73-.07,1.46.2,2.17"/>
  <path class="cls-1" d="M223.18,98.83c-1.05,1.9-.7,4,.99,5.92,2.17,2.47,5.04,3.7,8.07,4.77,2.32.82,4.82.68,7.11,1.54"/>
  <path class="cls-1" d="M341.11,185.41c2.8-3.31,5.7-6.51,9.06-9.29,3.48-2.88,7.25-5.31,11.66-6.23,7.11-1.49,13.85-.32,19.89,3.91.7.49,1.31,1.05,2.18,1.16"/>
  <path class="cls-1" d="M283.54,396.83c-3.91,3.83-6.58,4.75-11.46,7.07-3.67,1.75-7.53,3.03-11.43,4.15"/>
  <path class="cls-1" d="M302.14,257.78c0,6.11,0,12.23,0,18.34,0,.74.17,1.52-.39,2.17"/>
  <path class="cls-1" d="M353.53,264.09c-.3,7.03-.18,14.07-.19,21.1,0,.66-.12,1.34.19,1.97"/>
  <path class="cls-1" d="M250.2,413.77c.39,11.76.1,23.53.2,35.3"/>
  <path class="cls-1" d="M148.04,150.7v20.71"/>
  <path class="cls-1" d="M291.61,194.08c.56.65.39,1.43.39,2.17.02,4.93-.32,9.86-.17,14.79.33,10.85.14,21.69.15,32.54,0,4.67-.04,9.33-.27,14.01-.36,7.48-.09,14.98-.11,22.48,0,2.04-.45,4.08.01,6.11"/>
  <path class="cls-1" d="M123.59,97.65c6.31,4.32,13.07,7.77,20.31,10.26,1.45.5,2.72,1.51,4.34,1.57"/>
  <path class="cls-1" d="M352.75,109.09v16.37"/>
  <path class="cls-1" d="M239.15,414.56c-.54,1.67-.66,3.41-.76,5.13-.26,4.77-.95,9.48-1.59,14.2-.1.71-.01,1.44-.01,2.17"/>
  <path class="cls-1" d="M264.59,199.8c.54,6.57,0,13.15.1,19.72.03,2.13.32,4.37-.3,6.51"/>
  <path class="cls-1" d="M158.89,79.71c-2.74-3.26-5.32-3.99-10.45-3.97-2.94,0-4.48.45-6.71,1.12-2.92.88-4.45,1.97-5.17,5-.63,2.65-.13,5.27-.31,7.9-.13,1.82,1.43,2.59,2.74,3.33,2.5,1.42,5.28,2.07,8.08,2.56,1,.17,1.66.39,1.58,1.6-.59,8.94.29,17.88,0,26.82-.02.54-.13,1.05-.21,1.58"/>
  <path class="cls-1" d="M130.89,102.58c-.43,2.62-.09,5.26-.2,7.89-.11,2.63.23,5.27-.2,7.89"/>
  <path class="cls-1" d="M221.01,343.37c3.41-1.26,6.84-2.48,10.45-2.94,3.15-.4,6.27-.93,9.46-1.04,2.37-.08,4.73-.18,7.1-.16,5.56.04,11.09.26,16.57,1.37,5.87,1.19,11.46,3.13,16.76,5.93"/>
  <path class="cls-1" d="M340.52,79.11c1.02-1.41,2.08-2.3,4.14-2.26,4,.07,8.06-.47,12.01,0,3.54.43,7.14,1.54,8.34,5.79.14.49.25.86.2,1.4-.13,1.43-.12,2.89-.03,4.33.25,3.93-1.56,4.99-4.36,5.88-5.92,1.87-11.84,1.65-17.76-.3-1.57-.52-2.59-1.43-3.53-2.62"/>
  <path class="cls-1" d="M329.47,134.13c.36,1.83.18,3.68.19,5.52.02,4.73.02,9.47,0,14.2,0,.37.34.62.21.99"/>
  <path class="cls-1" d="M296.74,241.61v14.99"/>
  <path class="cls-1" d="M209.38,221.1c.58.33.43.9.38,1.38-.4,4.07-.21,8.15-.19,12.23.03,7.69.02,15.38,0,23.07,0,.72.22,1.48-.18,2.17"/>
  <path class="cls-1" d="M188.08,124.27c-.45,2.55-.19,5.13-.17,7.69.02,2.4-.36,4.74-.62,7.1"/>
  <path class="cls-1" d="M226.33,198.62c-.27,9.92-.19,19.85-.2,29.78"/>
  <path class="cls-1" d="M297.13,207.69v14.59"/>
  <path class="cls-1" d="M353.53,249.7v14"/>
  <path class="cls-1" d="M344.07,144.19c-2.96-1.48-6.19-2.2-9.28-3.31-1.56-.56-3.02-1.45-4.72-1.62"/>
  <path class="cls-1" d="M208.39,259.75c.77.14,1.25.34,1.22,1.38-.2,6.04.09,12.09-.16,18.14-.1,2.42.28,4.86-.07,7.29"/>
  <path class="cls-1" d="M263.61,123.09c-2.5,1.71-5.33,2.48-8.28,2.97-2.36.4-4.76.34-7.1.28-2.76-.08-5.53.11-8.29-.23-1.18-.14-2.28-1.05-3.54-.46"/>
  <path class="cls-1" d="M264,171.8c-3.41.39-6.84.46-10.26.76-1.1.1-2.25.22-3.35-.17"/>
  <path class="cls-1" d="M224.56,228.99c.59-.12,1.08-1.05,1.58-.44,0,23.05-.2,41.13-.2,63.94"/>
  <path class="cls-1" d="M241.52,138.27c-4.16-.44-8.23-1.34-12.22-2.6-.42-.13-.81-.06-1.2-.16"/>
  <path class="cls-1" d="M307.39,143.6c.24,2.95.16,5.92.2,8.87.08,4.67-.25,9.34.19,14"/>
  <path class="cls-1" d="M204.44,224.26c1.89,1.79.99,4.03.98,6.11-.03,7.49.21,14.99.2,22.48,0,6.71,0,13.41,0,20.12,0,3.35-.12,6.71-.14,10.06,0,.48-.47.74-.26,1.18"/>
  <path class="cls-1" d="M262.23,52.88c-.04,3.16-.46,6.28-.3,9.47.12,2.36-1.81,4.13-3.87,4.86-6.25,2.2-12.52,2.66-18.73-.48-2.15-1.09-2.77-2.98-2.42-4.76.5-2.5-.18-4.89.02-7.33.09-1.12.23-1.99,1.13-2.55.62-.05,1.64.98,2.05,1.21,4.2,2.46,11.29,2.38,13.4,1.86,6.79-1.68,6.13-1.74,7.93-3.08"/>
  <path class="cls-1" d="M191.82,167.66c-1.53-.02-2.83-.81-4.12-1.42-2.61-1.24-5.48-1.87-7.92-3.49-.23-.15-.64-.02-.97-.02"/>
  <path class="cls-1" d="M238.76,111.65c-2.59,1.06-3.16,3.27-3.13,5.72.03,2.77.01,5.51.47,8.3.52,3.14,2.3,4.59,5.02,5.52,2.83.98,5.74,1.21,8.85,1.63.14,2.75-.14,5.79.23,8.81"/>
  <path class="cls-1" d="M261.04,111.65c4.33,2.37,3.46,6.55,3.19,10.24-.09,1.14-.23,2.55-.48,3.79-.52,2.67-2.22,3.91-4.3,4.87-2.91,1.36-6.03,2-9.45,1.84v-13.44"/>
  <path class="cls-1" d="M339.53,91.34c.1-3.16-.01-8.09.38-11.24.04-.36.17-.58.58-.92,2.09,1.32,4.31,2.42,6.9,3.01,3.49.8,6.75.32,10.08-.33,1.51-.29,3.03-.32,4.55-.53.63-.09,1.1-.3,1.57-.63"/>
  <path class="cls-1" d="M148.44,89.56c-4.2.31-5.92,1.08-11.83-3.97"/>
  <path class="cls-1" d="M307.19,146.16c-3.56,1.51-7.19,2.87-10.84,4.17-.35.13-.67.1-1,.17"/>
  <path class="cls-1" d="M264.59,249.3c0,5.13-.09,10.26.03,15.38.13,5.85.16,11.7.17,17.55.01,3.88-.36,7.76,0,11.64"/>
  <path class="cls-1" d="M360.44,186.98c.49,3.73,1.12,7.45.99,11.24"/>
  <path class="cls-1" d="M137.85,79.56c2.64,3.75,6.9,2.87,10.78,2.9"/>
  <path class="cls-1" d="M210.16,177.52c-.24,4.73-.18,9.47-.21,14.2,0,.74.22,1.53-.39,2.17"/>
  <path class="cls-1" d="M370.1,107.9c-.14,3.75-.61,7.48-.39,11.24"/>
  <path class="cls-1" d="M261.44,59.78c-2.97,1.81-6.22,2.75-9.66,3.2-.53.07-1.06.04-1.58.15"/>
  <path class="cls-1" d="M284.31,276.52c-2.73,2.27-3.92,5.58-5.72,8.48-.4.65-.72,1.35-1.18,1.97"/>
  <path class="cls-1" d="M159.48,86.8c-3.27,2.01-6.89,2.64-10.65,2.76"/>
  <path class="cls-1" d="M239.55,413.97c6.23-.55,12.5-.7,18.73-.69,3.86,0,7.84-.12,11.64,1.06.48.15,1.05.02,1.57.02"/>
  <path class="cls-1" d="M314.49,100.8c-.39,2.88-1.09,5.73-.79,8.68.06.59-.09,1.21.2,1.77"/>
  <path class="cls-1" d="M292.01,177.72c-.26,4.4-.19,8.81-.19,13.21,0,.66-.12,1.34.19,1.97"/>
  <path class="cls-1" d="M362.61,209.27c.63,3.4.33,6.83.39,10.25"/>
  <path class="cls-1" d="M237.77,60.38c2.93,2.21,6.4,2.51,9.86,2.72.7.04,1.44.2,2.17.04"/>
  <path class="cls-1" d="M209.77,195.07c-.52,7.82.33,15.65-.37,23.47-.08.84.73,1.86-.61,2.36"/>
  <path class="cls-1" d="M339.65,83.88c2.21,4.9,6.63,4.11,6.63,4.11,3.35,0,4.49-.21,6.66,0,3.2.31,12.63-.73,12.22-3.29"/>
  <path class="cls-1" d="M250,184.22v15.78"/>
  <path class="cls-1" d="M200.9,193.89v17.35"/>
  <path class="cls-1" d="M236.39,114.81c1.07,2.34,2.76,3.02,6.31,3.59,3.3.53,12.59.06,15.84-.44,2.42-.37,4.22-4.3,4.24-5"/>
  <path class="cls-1" d="M259.86,373.15c-3.06.6-6.16.65-9.27.59"/>
  <path class="cls-1" d="M260.25,366.64c-.3,6.51-.4,13.03-.96,19.53-.1,1.17-.22,2.38.17,3.55"/>
  <path class="cls-1" d="M148.04,147.74c-.05.79.11,1.6-.15,2.56,3.12,1.01,6.42,1.82,9.62,2.96"/>
  <path class="cls-1" d="M285.1,252.06c-.01,5.66.02,11.31-.36,16.96-.21,3.08.12,6.18-.23,9.27"/>
  <path class="cls-1" d="M239.15,409.24c0,1.58,0,3.16,0,4.98-2.9.37-5.93,1.31-9.07,1.73"/>
  <path class="cls-1" d="M352.75,98.04v10.25"/>
  <path class="cls-1" d="M278.99,133.54c-2.82.57-5.44,1.85-8.28,2.37"/>
  <path class="cls-1" d="M332.24,219.13v8.28"/>
  <path class="cls-1" d="M208.39,152.47v8.28"/>
  <path class="cls-1" d="M284.91,196.65c.37,4.66.16,9.33.19,14,.03,4.6-.02,9.2.01,13.8.05,6.18-.05,12.36,0,18.54.02,2.7-.08,5.39.04,8.08.05,1.05-.53.74-1.03.79"/>
  <path class="cls-1" d="M305.22,267.05c1.79,1.42,2.52,3.62,3.9,5.36,2.6,3.29,5.57,5.93,9.7,7.08,1.2.33,2.06,1.71,3.55,1.17"/>
  <path class="cls-1" d="M200.9,220.71v13.02"/>
  <path class="cls-1" d="M185.71,103.76c-.24,2.05.4,4.07.2,6.11-.06.59.09,1.21-.2,1.77"/>
  <path class="cls-1" d="M307.29,180.28c0,2.63-.55,10.22-.55,12.84"/>
  <path class="cls-1" d="M283.53,388.53c-.08,2.17-.15,4.32-.2,6.51-.02,1.05.07,1.41.21,1.79"/>
  <path class="cls-1" d="M200.5,212.03c.13-.07.38,0,.38.2-.05,2.37.19,4.74-.18,7.1"/>
  <path class="cls-1" d="M267.55,137.09c-2.52.25-4.92,1.3-7.49,1.18"/>
  <path class="cls-1" d="M239.15,322.86c-.24,2.45.51,4.85.39,7.3"/>
  <path class="cls-1" d="M250,172.59c-2.45.19-4.84-.66-7.3-.39"/>
  <path class="cls-1" d="M242.9,373.35c2.41.56,4.86.43,7.3.39"/>
  <path class="cls-1" d="M242.7,200.39c.11,4.34-.21,8.68-.2,13.02.02,8.94,0,17.88,0,26.82,0,.66.12,1.34-.19,1.97"/>
  <path class="cls-1" d="M229.29,260.54c1.9,2.55,4.72,4.28,6.31,7.1"/>
  <path class="cls-1" d="M281.36,208.48c-.49,1.79-1.37,3.39-2.38,4.92-.71,1.07-1.09,2.29-1.76,3.36"/>
  <path class="cls-1" d="M213.91,110.66c-1.93.19-3.73-.44-5.51-1.02-.56-.18-1.07-.06-1.59-.16"/>
  <path class="cls-1" d="M231.66,274.74c.31,1.53,1.71,2.24,2.6,3.35,1.02-.2,1.37-1.53,2.53-1.57"/>
  <path class="cls-1" d="M158.89,80.1c-1.28,1.37-3.09,1.63-4.75,1.9-.73.12-2.15.29-5.51.47"/>
  <path class="cls-1" d="M275.83,206.11c-.62,1.82-.05,3.69-.09,5.52-.08,3.87.43,7.79-.02,11.62-.37,3.2.13,6.32,0,9.48-.3,7.15-.09,14.33-.1,21.49,0,.13,0,.26.21.39"/>
  <path class="cls-1" d="M275.64,275.73c-.09,5.32.21,10.65-.2,15.97"/>
  <path class="cls-1" d="M205.43,209.86c-.57,1.96-.22,3.96-.13,5.91.12,2.37-.07,4.75.31,7.1.13.81-.03,1.61-.38,2.36"/>
  <path class="cls-1" d="M353.34,173.97c.42,2.03.1,4.08.2,6.11"/>
  <path class="cls-1" d="M241.32,241.41c1.24.82,1.3,2.07,1.18,3.35-.27,2.76.03,5.51-.2,8.3-.21,2.6.22,5.37.21,8.07-.03,5.98.14,11.96.11,17.95-.03,4.46-.25,8.94.03,13.41.04.64.08,1.49-.33,2.17"/>
  <path class="cls-1" d="M352.94,82.86v5.92"/>
  <path class="cls-1" d="M281.75,244.77c-.42,0-.86-.12-.8.59.13,1.57-.02,3.11-.78,4.53"/>
  <path class="cls-1" d="M237.18,220.12c-.43,3.54-.12,7.1-.18,10.65-.07,4.07-.12,8.15.01,12.23.13,4.27.01,8.55.09,12.82.08,4.46.04,8.94.02,13.41-.02,4.34.03,8.68-.02,13.01-.05,3.75.09,7.5-.12,11.24-.02.32.23.51.21.79"/>
  <path class="cls-1" d="M215.49,217.95c-1.54,1.15-2.76,2.63-4.14,3.94-.39.37-.67.97-1.38.79"/>
  <path class="cls-1" d="M257.3,218.34c-1.43,1.67-2.92,3.27-4.73,4.54"/>
  <path class="cls-1" d="M205.63,192.51c-.44.69-.16,1.46-.17,2.17-.05,4.93,0,9.86-.05,14.79.78.52,1.13.05,1.4-.59"/>
  <path class="cls-1" d="M263.41,226.82c.25-.23.26-.63.97-.95.61,3.92.2,7.8.31,11.6.11,3.8-.05,7.62-.1,11.44"/>
  <path class="cls-1" d="M300.88,110.47c.55,1.68-.16,3.45.39,5.13"/>
  <path class="cls-1" d="M236.79,210.85c.47,2.22.14,4.47.17,6.71.02,1.2.14,2.27,1.01,3.15"/>
  <path class="cls-1" d="M236.79,200.99c.57,2.87-.08,5.79.35,8.68.12.82-.82,1.23-1.53,1.57"/>
  <path class="cls-1" d="M282.54,264.88c-1.88,2.24-3.42,4.73-5.11,7.11-.38.54-.69,1.07-1.4,1.17"/>
  <path class="cls-1" d="M222,283.62c-1.42-1.73-2.68-3.6-4.34-5.13"/>
  <path class="cls-1" d="M253.35,257.39c.33,0,.6-.43,1-.01,1.8,1.87,4.04,3.2,6.1,4.74"/>
  <path class="cls-1" d="M238.77,111.58c1.6-.59,6.82,0,12,.4"/>
  <path class="cls-1" d="M257.69,252.26c-.93,1.72-2.38,3-3.76,4.33-.43.41-.47-.12-.58-.38"/>
  <path class="cls-1" d="M275.64,255.22c0,5.32.02,10.65-.02,15.97,0,.81.2,1.57.24,2.37.04,1.04-.19,1.89-1.2,2.37"/>
  <path class="cls-1" d="M352.94,89.17c-.04,2.7.12,5.4-.2,8.09"/>
  <path class="cls-1" d="M201.09,251.87c-.21,1.46-.55,2.92.2,4.34"/>
  <path class="cls-1" d="M225.74,254.23c-.22,0-.4.02-.6.19-1.98,1.7-3.74,3.62-5.71,5.33"/>
  <path class="cls-1" d="M282.93,199.8c-1.34,1.82-1.85,4.08-3.16,5.92"/>
  <path class="cls-1" d="M275.64,198.62c.21,2.37.11,4.73,0,7.1"/>
  <path class="cls-1" d="M284.51,278.69c0,2.96.01,5.92-.19,8.87-.04.59-.08,1.2.19,1.77"/>
  <path class="cls-1" d="M272.68,227.81c-1.4.97-2.4,2.33-3.55,3.55"/>
  <path class="cls-1" d="M217.07,217.95c1,1.48,2.55,2.47,3.55,3.94"/>
  <path class="cls-1" d="M291.41,182.45c-1.41.44-2.69,1.24-4.14,1.58"/>
  <path class="cls-1" d="M170.13,100.02c1.02,1.51,2.42,2.6,3.94,3.55"/>
  <path class="cls-1" d="M260.86,51.8c-4.71-3.78-22.81-2.34-22.81.3"/>
  <path class="cls-1" d="M222.79,284.21c-.44,1.73-2.45,2.04-3.17,3.54-.34.72-.47,1.23.6,1.19"/>
  <path class="cls-1" d="M217.07,261.92c-1.78,2.11-4.3,3.45-5.92,5.72"/>
  <path class="cls-1" d="M229.29,240.03c1.15.81,2.49,1.4,3.16,2.76"/>
  <path class="cls-1" d="M239.94,258.57c.15.54.67.78,1.01,1.22-1.26,1.03-2.2,2.41-3.57,3.32"/>
  <path class="cls-1" d="M282.54,252.26c-1.23.74-1.93,2.01-2.96,2.96"/>
  <path class="cls-1" d="M281.75,219.52c.3,1.14-.28,2.18-.86,2.9-.66.83-1.1,1.69-1.51,2.62"/>
  <path class="cls-1" d="M240.93,241.81c-1.27.73-2.24,1.88-3.55,2.56"/>
  <path class="cls-1" d="M212.14,280.46c.63,1.13,1.85,1.71,2.29,2.69,1.14.3,1.13-.9,1.85-.92"/>
  <path class="cls-1" d="M259.27,284.21c-1.1-.28-1.98-1.86-3.35-.59"/>
  <path class="cls-1" d="M234.81,212.03c-1.33.74-2.02,2.22-3.35,2.96"/>
  <path class="cls-1" d="M235.6,245.95c0,.33.51.69,0,.98-2.03,1.15-3.22,3.25-5.12,4.54"/>
  <path class="cls-1" d="M218.64,225.44c-1.69,1.4-3.17,3.01-4.77,4.57-.45-.66-1.19-1.06-1.54-1.81"/>
  <path class="cls-1" d="M224.17,263.3c-1.52.96-2.43,2.59-3.94,3.55"/>
  <path class="cls-1" d="M235.6,231.16c-.99.99-1.97,1.97-2.96,2.96"/>
  <path class="cls-1" d="M263.21,227.21c-.92.99-2,1.82-2.76,2.96"/>
  <path class="cls-1" d="M237.97,250.29c.8.91,1.98,1.44,2.56,2.56"/>
  <path class="cls-1" d="M216.87,252.85c.11.46.81.85.01,1.4-.96.65-1.51,1.79-2.58,2.35"/>
  <path class="cls-1" d="M214.7,258.18c.26,1.54,1.77,2.06,2.56,3.16"/>
  <path class="cls-1" d="M232.65,234.91c.52,1.19,1.6,2,2.17,3.16"/>
  <path class="cls-1" d="M219.04,268.04c-.72.54-1.58.87-2.18,1.6.23,1.51,1.71,2.13,2.38,3.33"/>
  <path class="cls-1" d="M234.03,258.97c-.94-1.05-1.58-2.44-3.16-2.76"/>
  <path class="cls-1" d="M216.28,199.41c-1.59,2.21-4.06,3.59-5.52,5.92"/>
  <path class="cls-1" d="M222.59,211.24c-1.73,1.28-2.99,3.07-4.73,4.34"/>
  <path class="cls-1" d="M286.09,284.21c.11,1.58-.18,3.17.2,4.73"/>
  <path class="cls-1" d="M262.82,246.74c-.78,1.43-2.37,2.13-3.16,3.55"/>
  <path class="cls-1" d="M259.66,280.26c-.45,1.04-1.64,1.4-2.17,2.37"/>
  <path class="cls-1" d="M290.03,196.45c-.87,1.53.11,3.5-1.18,4.93"/>
  <path class="cls-1" d="M258.68,261.33c-.42.81-1.17,1.32-1.77,1.97"/>
  <path class="cls-1" d="M280.57,261.73c-.71.67-1.18,1.49-1.58,2.37"/>
  <path class="cls-1" d="M281.95,271.39c.07.13-.06.22-.19.4-1.13,1.52-2.26,3.05-2.77,4.92"/>
  <path class="cls-1" d="M148.44,169.43c.79.11,1.52.59,2.37.39"/>
  <path class="cls-1" d="M262.23,247.92c.82.24,1.16,1.66,2.37.99"/>
  <path class="cls-1" d="M213.12,273.56c1.58.96,2.31,2.68,3.55,3.94"/>
  <path class="cls-1" d="M288.46,278.69c0,.07.03.16,0,.19-1.08,1.27-2,2.62-2.17,4.34"/>
  <path class="cls-1" d="M207.99,238.85c-.82.31-1.14,1.4-2.17,1.38"/>
  <path class="cls-1" d="M282.14,263.7c-.86.5-.23,1.17-.2,1.77"/>
  <path class="cls-1" d="M260.45,237.47c.67.58,1.16,1.36,1.97,1.77"/>
  <path class="cls-1" d="M236.59,238.85c-.78-.17-.92,1.12-1.77.79"/>
  <path class="cls-1" d="M227.72,271.39c.69.5,1.14,1.23,1.77,1.77"/>
  <path class="cls-1" d="M220.22,272.38c-1.09.59-1.65,1.81-2.76,2.37"/>
  <path class="cls-1" d="M254.14,212.42c-.46-.57-1.04-.85-1.77-.79"/>
  <path class="cls-1" d="M262.62,270.01c-.53.53-1.05,1.05-1.58,1.58"/>
  <path class="cls-1" d="M254.93,279.47c-.56,1.22-1.49,1.23-2.56.79"/>
  <path class="cls-1" d="M262.82,263.7c.32.56.64,1.12,1.38,1.18"/>
  <path class="cls-1" d="M225.74,278.88c-.74.07-1.06.62-1.38,1.18"/>
  <path class="cls-1" d="M258.09,287.76c-.26,1.57-.41,3.14-.39,4.73"/>
  <path class="cls-1" d="M218.64,197.24c-.22.61-.52,1.15-1.18,1.38"/>
  <path class="cls-1" d="M232.84,249.7c.37.48.99.75,1.18,1.38"/>
  <path class="cls-1" d="M200.9,249.1c-.34,1.66.44,2.88,1.58,3.94"/>
  <path class="cls-1" d="M249.01,227.02c-.45.17-.83.59-1.38.39"/>
  <path class="cls-1" d="M261.24,225.83c.19.63.81.9,1.18,1.38"/>
  <path class="cls-1" d="M278.6,217.95c-.6-.94-1.47-1.31-2.56-1.18"/>
  <path class="cls-1" d="M261.64,269.22c.9.45,1.67,1.12,2.56,1.58"/>
  <path class="cls-1" d="M241.91,253.05c-1.09-.63-1.62.39-2.37.79"/>
  <path class="cls-1" d="M230.48,214c.5.8,1.08,1.53,1.77,2.17"/>
  <path class="cls-1" d="M242.9,251.08c.4-.08.73-.28.99-.59.42.3.63.85,1.18.99"/>
  <path class="cls-1" d="M244.28,290.91c-1.03.41-.21,1.04-.2,1.58"/>
  <path class="cls-1" d="M214.9,275.73c-.77.23-1,1.15-1.77,1.38"/>
  <path class="cls-1" d="M221.8,265.87c.62.43.7,1.1.79,1.77"/>
  <path class="cls-1" d="M211.74,204.54c.46.53,1.07.92,1.38,1.58"/>
  <path class="cls-1" d="M276.62,254.23c-.5.66-1.2.81-1.97.79"/>
  <path class="cls-1" d="M247.24,284.21c-.56-.02-1.15-.09-.99.79"/>
  <path class="cls-1" d="M284.31,282.83c-.54.5-.93-.06-1.38-.2"/>
  <path class="cls-1" d="M389.03,234.31c-2.32,1.13-4.88,2-6.09,4.55-.88,1.85-1.74,3.73-1.62,5.91.14,2.51,2.04,3.96,4.56,3.57,4.62-.72,7.94-6.26,7.26-10.66-.32-2.06-1.85-3.12-3.91-3.36"/>
  <path class="cls-1" d="M133.25,196.25c-5.15,1-7.45,7.84-6.14,11.45,1.38,3.79,4.96,5.03,8.52,2.18,3.3-2.64,3.64-7.7,2.73-10.27-.85-2.42-2.29-3.36-4.92-3.36"/>
</svg>