<?xml version="1.0" encoding="UTF-8"?>
<svg id="icons" xmlns="http://www.w3.org/2000/svg" viewBox="0 0 500 500">
  <defs>
    <style>
      .cls-1 {
        fill: none;
        stroke: #000;
        stroke-linecap: round;
        stroke-linejoin: round;
        stroke-width: .92px;
      }
    </style>
  </defs>
  <path class="cls-1" d="M434.69,162.47h-219.7"/>
  <path class="cls-1" d="M221.66,309.63c.82.39,1.69.22,2.53.22,70.16,0,140.33,0,210.49,0"/>
  <path class="cls-1" d="M434.92,273.48c-74.54,0-149.08,0-223.62,0-.85,0-1.72.16-2.53-.22"/>
  <path class="cls-1" d="M434.69,199.32h-219.7"/>
  <path class="cls-1" d="M421.79,362.14c-.74-.37-1.53-.23-2.3-.23-61.87,0-123.75,0-185.62,0-.77,0-1.56-.14-2.3.23"/>
  <path class="cls-1" d="M186.2,382.87c2.15,5.8,3.73,6.91,9.9,6.91h242.5c6.19,0,10.87-4.38,11.28-10.59.31-4.6.3-9.2.05-13.82-.21-3.83-.29-7.7.05-11.5.2-2.17.11-4.31.11-6.46.03-65.02.03-130.04.03-195.06,0-8.14.03-16.27-.02-24.41-.02-3.15-.69-6.13-2.97-8.53-1.89-1.98-4.14-2.98-6.91-3-68.63-.51-137.26-.07-205.88-.21-11.28-.02-22.57-.07-33.85.05-2.52.03-5.06-.37-7.62.36-3.68,1.05-5.93,3.23-6.64,6.97-.11.57-.43,1.04-.49,1.61"/>
  <path class="cls-1" d="M449.43,149.58c-4.76.14-9.53-.28-14.28.22-1.14.12-1.7-.9-2.52-1.4-4.85-2.94-9.55-6.08-13.12-10.59-.89-1.13-1.64-1.81-3.27-1.45-.87.19-1.97-.14-2.97-.14-60.26,0-120.52,0-180.78,0"/>
  <path class="cls-1" d="M405.44,376.88h-152.92"/>
  <path class="cls-1" d="M175.84,272.09c-1.45-11.2-5.42-21.27-13.12-29.71-6.12-6.71-13.76-10.62-22.57-12.44-4.45-.92-8.82-.32-13.12.72-14.93,3.63-26.13,12.25-33.35,25.79-3.15,5.91-4.61,12.37-4.9,19.09-.31,7.32.84,14.37,3.47,21.19"/>
  <path class="cls-1" d="M214.99,236.17h219.7"/>
  <path class="cls-1" d="M82.57,344.64c.73,11.92,5.37,21.82,14.71,29.51,7.23,5.95,15.49,8.3,24.67,8.27,20.57-.05,41.15-.06,61.72.01,5.07.02,10.14.03,15.2.07,3.94.03,7.62-1.82,10.82-4.25,7.61-5.78,11.22-13.74,12.13-23.03.11-1.15-.14-2.45-.14-3.68-.02-10.06.09-20.11-.04-30.17-.2-15.97-5.56-29.83-17.76-40.48-6.22-5.43-13.75-8.05-22.06-8.36-6.68-.25-13.36-.19-20.04-.23-1.77-.01-3.55.14-5.29.3-4.06.38-6.71,3.58-6.67,7.77.02,2.3-.4,4.66,1.33,6.71,1.1,1.31,2.28,1.86,3.95,1.83,8.06-.14,16.14.19,24.18-.15,10.16-.43,17.1,3.95,22.12,12.33,4.05,6.75,6.32,13.95,6.23,21.88-.09,7.91-.18,15.82.04,23.72.12,4.42.34,8.83-.8,13.12-1.18,4.43-4.13,7.42-8.47,8.99"/>
  <path class="cls-1" d="M221.89,327.13c1.37-.3,2.76-.23,4.15-.23,69.55,0,139.1,0,208.65,0"/>
  <path class="cls-1" d="M197.71,125.63c-24.64-.38-49.28-.11-73.92-.27-7.96-.05-15.1,2.14-21.64,6.5-9.95,6.61-15.62,15.98-17.74,27.63-.29,1.6-.46,3.21-.46,4.84,0,9.83,0,19.65,0,29.48,0,2,0,3.99,0,5.99"/>
  <path class="cls-1" d="M76.58,230.87c-3.14.63-5.61,2.61-8.01,4.44-5.01,3.83-9.01,8.57-12.08,14.18-3.26,5.96-5.41,12.26-6.09,18.92-1.14,11.36,1.3,22.01,7.81,31.5,1.08,1.57,1.6,3.03,1.57,4.88-.08,5.3.38,10.6.17,15.89-.19,4.69-.11,9.37-.2,14.05,0,.43.39.72.25,1.15"/>
  <path class="cls-1" d="M96.84,344.41c.41,7.03,3.18,12.86,8.75,17.27,5.26,4.16,11.4,5.73,17.96,5.99,12.82.5,25.64.16,38.46.21,11.82.04,23.64.28,35.47.26"/>
  <path class="cls-1" d="M173.76,270.48c-1.14-12.5-13.7-20-24.87-18.2-11.45,1.84-19.98,7.79-24.55,18.47-3.32,7.78-2.38,15.69,1.51,23.23,2.94,5.69,7.43,10.1,12.99,12.71,4.99,2.34,10.77,2.54,16.26.85,8.13-2.5,13.62-7.98,17.02-15.65.38-.85.37-1.86.72-2.75"/>
  <path class="cls-1" d="M197.71,141.75c-17.35.32-34.7.22-52.05.23-7.91,0-15.82.13-23.72-.03-11.2-.22-17.08,5.47-20.91,14.33-1.91,4.42-2.69,9.14-2.62,14.03.12,9.82.05,19.65.04,29.48"/>
  <path class="cls-1" d="M111.35,229.95c-1.57,1.49-3.74,1.9-5.53,2.99-11.09,6.78-19.18,16.02-23.75,28.32-2.54,6.83-3.12,13.8-2.51,20.97.6,7.12,2.73,13.73,6.47,19.8,4.71,7.64,11.17,13.55,18.91,17.91,9.74,5.5,20.48,7.91,31.5,6.59,15.19-1.81,27.26-8.94,34.11-23.34,2.13-4.48,3.13-9.26,4.13-14.05"/>
  <path class="cls-1" d="M316.55,130h-76.92"/>
  <path class="cls-1" d="M214.99,218.67c1.54.11,3.07,0,4.61,0,15.2,0,30.4,0,45.6,0h117.91c15.81,0,31.63,0,47.44,0,1.38,0,2.76,0,4.15,0"/>
  <path class="cls-1" d="M198.17,297.43c-.39.82-.22,1.69-.22,2.53,0,21.8,0,43.6,0,65.4,0,4.84,0,9.67,0,14.51,0,.77.14,1.56-.22,2.3"/>
  <path class="cls-1" d="M198.17,116.65c0,3.76,0,7.52,0,11.28,0,7.14.09,14.28-.02,21.42-.49,34.08-.07,68.17-.21,102.25-.03,8.21,0,16.43,0,24.64"/>
  <path class="cls-1" d="M316.55,133.69h-48.82"/>
  <path class="cls-1" d="M185.74,142.44c.03,42.83-.53,85.67,0,128.5"/>
  <path class="cls-1" d="M117.8,336.12c2.3,0,4.61.03,6.91,0,1.46-.02,2.18.53,2.09,2.08-.08,1.38-.05,2.76,0,4.14.04,1.32-.54,1.88-1.85,1.85-8.83-.17-17.65.06-26.49-.15-5.2-.12-10.45-.66-15.67.3-.81.15-1.83-.16-2.75-.16-7.52,0-15.05-.02-22.57.02-1.36,0-2.04-.19-2.12-1.86-.37-7.18-1.16-6.32,6.27-6.13,1.24.03,2.45-.15,3.69-.13,6.29.11,12.59.21,18.88.18,4.45-.02,8.91-.04,13.36-.12,4.91-.09,9.83-.02,14.74-.02,1.69,0,3.38,0,5.07,0"/>
  <path class="cls-1" d="M308.26,124.48h-41.91"/>
  <path class="cls-1" d="M440.91,253.9c-77.84.35-155.68.36-233.52,0"/>
  <path class="cls-1" d="M358.46,133.69h-40.99"/>
  <path class="cls-1" d="M406.36,130h-40.53"/>
  <path class="cls-1" d="M204.62,162.24v37.31"/>
  <path class="cls-1" d="M209.69,130c.58,1,.43,2.24.95,3.21,1.18,2.22,3.73,3.68,5.72,3.21,2.48-.58,4.75-1.93,5.31-5.5.5-3.15-.75-5.42-3.93-6.91-2.21-1.04-4.89-.3-6.68,1.84-.95,1.14-.94,2.61-1.38,3.92"/>
  <path class="cls-1" d="M226.5,142.44c4.14.51,8.29.2,12.44.21,15.66.04,31.32.02,46.98.02h49.28c25.87,0,51.74,0,77.61,0,3.46,0,6.92.22,10.36-.23"/>
  <path class="cls-1" d="M136.04,229.5c-11.38.16-19.39-.22-24.23.13-1.47.11-3.04-.2-4.6-.19-8.35.05-16.2,2.1-23.71,5.6-.76.35-1.53.64-2.31.9-2.71.87-4.14-.15-4.14-2.99-.01-9.9,0-19.81,0-29.71,0-2.52.37-2.95,2.99-2.98,4.14-.05,8.29-.01,12.44-.01,2.84,0,5.68.01,8.52,0,1.72-.01,2.37.68,2.6,2.53,1.06,8.51.27,17.06.82,25.57,0,.14-.21.43-.19.69"/>
  <path class="cls-1" d="M238.71,133.69h26.71"/>
  <path class="cls-1" d="M434,136.91c5.4-.97,8.21-6.97,5.07-10.82-1.75-2.14-4.63-3.01-6.91-2.07-3.02,1.24-4.32,3.63-3.92,7.14.37,3.2,2.16,4.98,5.53,5.53"/>
  <path class="cls-1" d="M449.43,353.16c-4.15,0-8.3.18-12.43-.06-2.87-.16-5.17.79-7.12,2.62-4.5,4.21-9.48,7.86-14.02,12-.78.71-1.46.87-2.35.87-2.46,0-4.91,0-7.37,0-57.34,0-114.69,0-172.03-.02-.53,0-1.13.28-1.61-.22"/>
  <path class="cls-1" d="M343.26,130h-25.79"/>
  <path class="cls-1" d="M406.36,133.69h-25.79"/>
  <path class="cls-1" d="M86.71,303.88c-.39.82-.22,1.69-.22,2.53-.01,9.9,0,19.81,0,29.71"/>
  <path class="cls-1" d="M218.9,371.81c4.07,2.12,4.44,7.55.69,10.13-2.52,1.73-6.79.01-7.64-2.98-.18-.62.07-1.32-.42-1.86"/>
  <path class="cls-1" d="M107.44,265.42c-1.85,4.34-2.8,8.89-2.98,13.59-.11,2.71.52,5.37.68,8.06"/>
  <path class="cls-1" d="M185.74,289.6c-.68,1.58-.15,3.26-.13,4.83.15,11.44-.14,22.88,0,34.32.08,6.66.03,13.36,0,20.03-.02,5.14.04,10.29.13,15.43.02,1.15-.04,2.3,0,3.45"/>
  <path class="cls-1" d="M222.13,355.23c3.35,1.84,5.89,4.73,8.97,6.93.47.33.72.9.72,1.59-.03,8.14,0,16.27-.04,24.41,0,.45-.29.89-.21,1.38"/>
  <path class="cls-1" d="M364.91,130h-20.73"/>
  <path class="cls-1" d="M111.58,266.8c-1.87,4.74-3.13,9.57-2.79,14.74.13,2.04.76,3.97.95,5.99"/>
  <path class="cls-1" d="M231.8,116.65c.25,6.6-.41,13.22.37,19.99-3.01,3.65-7.11,6.32-10.97,9.25-.06.05-.28.03-.45.24-2.59,3.14-6.09,4.02-9.9,3.64-3.47-.34-6.91.06-10.37.07-.65,0-1.2-.37-1.84-.26"/>
  <path class="cls-1" d="M418.11,116.65c0,5.76,0,11.51,0,17.27,0,.77.14,1.56-.22,2.3"/>
  <path class="cls-1" d="M372.74,124.48h-19.34"/>
  <path class="cls-1" d="M434.92,150.04c.39.82.22,1.69.22,2.53,0,11.13.07,22.26-.01,33.39-.08,10.9-.2,21.81-.11,32.7.23,29.56.01,59.11.12,88.66.06,14.89,0,29.78,0,44.68"/>
  <path class="cls-1" d="M214.53,150.04v103.86"/>
  <path class="cls-1" d="M160.41,272.09c-2.23-2.95-6.97-3.8-10.12-1.59-6.27,4.4-8.08,14.76-.01,20.24,2.72,1.85,6.95,1.15,8.75-1.38"/>
  <path class="cls-1" d="M214.76,254.36c-.49.73-.21,1.54-.21,2.3-.02,11.28-.02,22.57-.02,33.86,1.91.21,3.82.49,5.76.46,10.82-.16,21.65-.2,32.47-.13,17.81.12,35.62.02,53.43.11,13.97.07,27.94.01,41.91.01h64.71c5.68,0,11.36,0,17.04,0,1.62,0,3.24.08,4.84-.23"/>
  <path class="cls-1" d="M336.35,124.48h-18.88"/>
  <path class="cls-1" d="M365.83,143.13v18.19"/>
  <path class="cls-1" d="M366.06,254.36c-.53,5.14-.09,10.29-.23,15.43-.02.84,0,1.69,0,2.53"/>
  <path class="cls-1" d="M426.63,273.94v34.77"/>
  <path class="cls-1" d="M204.62,254.82v17.5"/>
  <path class="cls-1" d="M358.46,255.28v17.04"/>
  <path class="cls-1" d="M386.56,144.28v17.04"/>
  <path class="cls-1" d="M351.09,255.28v17.04"/>
  <path class="cls-1" d="M426.63,163.63v17.04"/>
  <path class="cls-1" d="M344.18,255.28v17.04"/>
  <path class="cls-1" d="M426.63,328.06v24.87"/>
  <path class="cls-1" d="M294.9,163.63v17.27h-80.14"/>
  <path class="cls-1" d="M426.63,255.28v17.04"/>
  <path class="cls-1" d="M386.56,255.28v17.04"/>
  <path class="cls-1" d="M294.9,144.28v17.04"/>
  <path class="cls-1" d="M351.09,144.28v17.04"/>
  <path class="cls-1" d="M358.46,144.28v17.04"/>
  <path class="cls-1" d="M404.52,124.48h-17.04"/>
  <path class="cls-1" d="M323.92,255.28v17.04"/>
  <path class="cls-1" d="M316.55,255.28v17.04"/>
  <path class="cls-1" d="M309.18,255.28v17.04"/>
  <path class="cls-1" d="M301.81,255.28v17.04"/>
  <path class="cls-1" d="M294.9,255.28v17.04"/>
  <path class="cls-1" d="M280.62,255.28v17.04"/>
  <path class="cls-1" d="M407.74,255.28v17.04"/>
  <path class="cls-1" d="M351.09,163.63v17.04"/>
  <path class="cls-1" d="M323.92,328.06v16.81"/>
  <path class="cls-1" d="M351.09,328.06v16.81"/>
  <path class="cls-1" d="M358.46,163.63c0,4.84,0,9.67,0,14.51,0,.77.14,1.56-.22,2.3"/>
  <path class="cls-1" d="M358.46,328.06v30.4"/>
  <path class="cls-1" d="M386.56,328.06c0,4.84,0,9.67,0,14.51,0,.77-.14,1.56.22,2.3"/>
  <path class="cls-1" d="M309.18,200.93v16.58"/>
  <path class="cls-1" d="M386.56,200.93v16.58"/>
  <path class="cls-1" d="M294.9,292.13v16.58"/>
  <path class="cls-1" d="M301.81,292.13v16.58"/>
  <path class="cls-1" d="M309.18,292.13v16.58"/>
  <path class="cls-1" d="M407.74,237.32v16.58"/>
  <path class="cls-1" d="M337.27,292.13v16.58"/>
  <path class="cls-1" d="M344.18,292.13v16.58"/>
  <path class="cls-1" d="M351.09,292.13v16.58"/>
  <path class="cls-1" d="M358.46,292.13v16.58"/>
  <path class="cls-1" d="M337.27,255.28v16.58"/>
  <path class="cls-1" d="M386.56,292.13v16.58"/>
  <path class="cls-1" d="M407.74,292.13v16.58"/>
  <path class="cls-1" d="M386.56,237.32v16.58"/>
  <path class="cls-1" d="M358.46,237.32v16.58"/>
  <path class="cls-1" d="M309.18,164.09c0,4.68,0,9.37,0,14.05,0,.77.14,1.56-.22,2.3"/>
  <path class="cls-1" d="M351.09,237.78v16.12"/>
  <path class="cls-1" d="M365.83,237.78v16.12"/>
  <path class="cls-1" d="M407.74,214.75v20.27"/>
  <path class="cls-1" d="M294.9,182.05v16.12"/>
  <path class="cls-1" d="M351.09,182.05v16.12"/>
  <path class="cls-1" d="M358.46,182.05v16.12"/>
  <path class="cls-1" d="M365.83,182.05v16.12"/>
  <path class="cls-1" d="M407.74,274.63v16.12"/>
  <path class="cls-1" d="M407.74,182.05v16.12"/>
  <path class="cls-1" d="M358.46,274.63v16.12"/>
  <path class="cls-1" d="M351.09,274.63v16.12"/>
  <path class="cls-1" d="M259.43,237.78v16.12"/>
  <path class="cls-1" d="M259.43,219.13v15.89"/>
  <path class="cls-1" d="M344.18,219.13v15.89"/>
  <path class="cls-1" d="M144.52,125.86c.4,5.29.17,10.59.23,15.89"/>
  <path class="cls-1" d="M351.09,219.13v15.89"/>
  <path class="cls-1" d="M358.46,219.13v15.89"/>
  <path class="cls-1" d="M386.56,219.13v15.89"/>
  <path class="cls-1" d="M426.63,219.13v15.89"/>
  <path class="cls-1" d="M204.62,237.32v15.66"/>
  <path class="cls-1" d="M287.53,255.28v15.66"/>
  <path class="cls-1" d="M287.53,163.63v15.66"/>
  <path class="cls-1" d="M301.81,163.63v15.66"/>
  <path class="cls-1" d="M323.92,163.63v15.66"/>
  <path class="cls-1" d="M344.18,163.63v15.66"/>
  <path class="cls-1" d="M365.83,163.63v15.66"/>
  <path class="cls-1" d="M386.56,163.63v15.66"/>
  <path class="cls-1" d="M365.83,328.06v15.66"/>
  <path class="cls-1" d="M316.55,328.06v15.66"/>
  <path class="cls-1" d="M309.18,328.06v15.66"/>
  <path class="cls-1" d="M294.9,328.06v15.66"/>
  <path class="cls-1" d="M294.9,275.09v15.66"/>
  <path class="cls-1" d="M280.62,328.06v15.66"/>
  <path class="cls-1" d="M426.63,311.01v15.66"/>
  <path class="cls-1" d="M77.5,207.61c6.22-.28,12.44-.25,18.65-.22,2.46.01,4.91.54,7.37-.01"/>
  <path class="cls-1" d="M280.62,237.78v15.2"/>
  <path class="cls-1" d="M204.62,219.82v15.2"/>
  <path class="cls-1" d="M294.9,219.82v15.2"/>
  <path class="cls-1" d="M301.81,219.82v15.2"/>
  <path class="cls-1" d="M309.18,219.82v15.2"/>
  <path class="cls-1" d="M323.92,219.82v15.2"/>
  <path class="cls-1" d="M365.83,219.82v15.2"/>
  <path class="cls-1" d="M224.89,164.09v15.2"/>
  <path class="cls-1" d="M273.25,164.09v15.2"/>
  <path class="cls-1" d="M309.18,311.47v15.2"/>
  <path class="cls-1" d="M280.62,164.09v15.2"/>
  <path class="cls-1" d="M76.58,327.13h-15.2"/>
  <path class="cls-1" d="M316.55,164.09v15.2"/>
  <path class="cls-1" d="M294.9,202.78v14.74"/>
  <path class="cls-1" d="M280.62,220.28v14.74"/>
  <path class="cls-1" d="M273.25,220.28v14.74"/>
  <path class="cls-1" d="M351.09,311.01v14.74"/>
  <path class="cls-1" d="M344.18,311.01v14.74"/>
  <path class="cls-1" d="M259.43,311.01v14.74"/>
  <path class="cls-1" d="M301.81,311.01v14.74"/>
  <path class="cls-1" d="M238.71,220.28v14.74"/>
  <path class="cls-1" d="M358.46,311.01v14.74"/>
  <path class="cls-1" d="M386.56,311.01v14.74"/>
  <path class="cls-1" d="M407.74,311.01v14.74"/>
  <path class="cls-1" d="M316.55,220.28v14.74"/>
  <path class="cls-1" d="M316.55,311.01v14.74"/>
  <path class="cls-1" d="M323.92,311.01v14.74"/>
  <path class="cls-1" d="M295.13,180.9h103.4c10.44,0,20.88,0,31.32,0,1.62,0,3.24.08,4.84-.23"/>
  <path class="cls-1" d="M224.89,220.28v14.28"/>
  <path class="cls-1" d="M294.9,311.47v14.28"/>
  <path class="cls-1" d="M365.83,311.47v14.28"/>
  <path class="cls-1" d="M280.62,311.47v14.28"/>
  <path class="cls-1" d="M273.25,275.09v14.28"/>
  <path class="cls-1" d="M386.56,346.48v14.28"/>
  <path class="cls-1" d="M379.65,133.69h-13.82"/>
  <path class="cls-1" d="M231.8,220.28v13.36"/>
  <path class="cls-1" d="M91.78,181.59v13.36"/>
  <path class="cls-1" d="M323.92,200.93c0,3.84.02,7.68-.02,11.51,0,.45.49,1.18-.44,1.38"/>
  <path class="cls-1" d="M302.04,345.1c2.3.14,4.61-.69,7.14.23v13.13"/>
  <path class="cls-1" d="M316.55,200.93c0,3.84.02,7.68-.02,11.51,0,.45.49,1.18-.44,1.38"/>
  <path class="cls-1" d="M231.8,292.13v12.9"/>
  <path class="cls-1" d="M259.43,292.13v12.9"/>
  <path class="cls-1" d="M386.56,124.48h-12.9"/>
  <path class="cls-1" d="M316.55,292.13v12.9"/>
  <path class="cls-1" d="M238.71,292.13v12.9"/>
  <path class="cls-1" d="M301.81,200.93v12.9"/>
  <path class="cls-1" d="M358.46,200.93v12.9"/>
  <path class="cls-1" d="M426.63,200.93v12.9"/>
  <path class="cls-1" d="M365.83,200.93v12.9"/>
  <path class="cls-1" d="M294.9,236.63v12.67"/>
  <path class="cls-1" d="M418.34,367.21c-.56,1.59-.22,3.22-.23,4.84,0,5.76,0,11.51,0,17.27"/>
  <path class="cls-1" d="M204.62,200.47v12.44"/>
  <path class="cls-1" d="M331.28,255.74v11.98"/>
  <path class="cls-1" d="M379.65,255.28v11.98"/>
  <path class="cls-1" d="M259.43,200.93v11.98"/>
  <path class="cls-1" d="M365.83,346.48v11.98"/>
  <path class="cls-1" d="M426.63,182.05v11.98"/>
  <path class="cls-1" d="M386.56,182.05v11.98"/>
  <path class="cls-1" d="M344.18,182.05v11.98"/>
  <path class="cls-1" d="M280.62,346.48v11.98"/>
  <path class="cls-1" d="M323.92,182.05v11.98"/>
  <path class="cls-1" d="M316.55,182.05v11.98"/>
  <path class="cls-1" d="M309.18,182.05v11.98"/>
  <path class="cls-1" d="M301.81,182.05v11.98"/>
  <path class="cls-1" d="M287.53,182.05v11.98"/>
  <path class="cls-1" d="M259.43,182.05v11.98"/>
  <path class="cls-1" d="M72.43,288.45h-11.98"/>
  <path class="cls-1" d="M238.71,182.05v11.98"/>
  <path class="cls-1" d="M287.53,346.48v11.98"/>
  <path class="cls-1" d="M273.25,346.48v11.98"/>
  <path class="cls-1" d="M351.09,346.48v11.98"/>
  <path class="cls-1" d="M224.89,182.05v11.98"/>
  <path class="cls-1" d="M182.97,132.31h-11.98"/>
  <path class="cls-1" d="M294.9,346.48v11.98"/>
  <path class="cls-1" d="M301.81,346.48v11.98"/>
  <path class="cls-1" d="M316.55,346.48v11.98"/>
  <path class="cls-1" d="M309.18,237.32v11.98"/>
  <path class="cls-1" d="M323.92,237.32v11.98"/>
  <path class="cls-1" d="M337.27,237.32v11.98"/>
  <path class="cls-1" d="M323.92,346.48v11.98"/>
  <path class="cls-1" d="M331.28,346.48v11.98"/>
  <path class="cls-1" d="M265.42,124.48h-11.98"/>
  <path class="cls-1" d="M426.63,237.32v11.98"/>
  <path class="cls-1" d="M316.55,274.63v11.51"/>
  <path class="cls-1" d="M238.71,237.78v11.51"/>
  <path class="cls-1" d="M273.25,237.78v11.51"/>
  <path class="cls-1" d="M231.8,237.78v11.51"/>
  <path class="cls-1" d="M287.53,237.78v11.51"/>
  <path class="cls-1" d="M301.81,237.78v11.51"/>
  <path class="cls-1" d="M316.55,237.78v11.51"/>
  <path class="cls-1" d="M331.28,237.78v11.51"/>
  <path class="cls-1" d="M344.18,237.78v11.51"/>
  <path class="cls-1" d="M259.43,274.63v11.51"/>
  <path class="cls-1" d="M280.62,274.63v11.51"/>
  <path class="cls-1" d="M301.81,274.63v11.51"/>
  <path class="cls-1" d="M309.18,274.63v11.51"/>
  <path class="cls-1" d="M323.92,274.63v11.51"/>
  <path class="cls-1" d="M344.18,274.63v11.51"/>
  <path class="cls-1" d="M365.83,274.63v11.51"/>
  <path class="cls-1" d="M250.22,376.88h-11.51"/>
  <path class="cls-1" d="M207.16,353.39h-20.96"/>
  <path class="cls-1" d="M386.56,274.63v11.51"/>
  <path class="cls-1" d="M224.89,292.13v11.51"/>
  <path class="cls-1" d="M252.52,292.13v11.51"/>
  <path class="cls-1" d="M186.2,150.04h11.51"/>
  <path class="cls-1" d="M273.25,292.13v11.51"/>
  <path class="cls-1" d="M280.62,292.13v11.51"/>
  <path class="cls-1" d="M287.53,292.13v11.51"/>
  <path class="cls-1" d="M323.92,292.13v11.51"/>
  <path class="cls-1" d="M331.28,292.13v11.51"/>
  <path class="cls-1" d="M365.83,292.13v11.51"/>
  <path class="cls-1" d="M379.65,292.13v11.51"/>
  <path class="cls-1" d="M114.35,324.14v11.51"/>
  <path class="cls-1" d="M224.89,202.78v11.05"/>
  <path class="cls-1" d="M273.25,255.28v11.05"/>
  <path class="cls-1" d="M379.65,311.01v11.05"/>
  <path class="cls-1" d="M231.8,311.01v11.05"/>
  <path class="cls-1" d="M301.81,328.06v11.05"/>
  <path class="cls-1" d="M344.18,328.06v11.05"/>
  <path class="cls-1" d="M331.28,164.09v11.05"/>
  <path class="cls-1" d="M344.18,202.78v11.05"/>
  <path class="cls-1" d="M379.65,346.48v11.05"/>
  <path class="cls-1" d="M259.43,346.48v11.05"/>
  <path class="cls-1" d="M379.65,182.05v11.05"/>
  <path class="cls-1" d="M344.18,346.48v11.05"/>
  <path class="cls-1" d="M224.89,255.28v11.05"/>
  <path class="cls-1" d="M231.8,255.28v11.05"/>
  <path class="cls-1" d="M238.71,255.28v11.05"/>
  <path class="cls-1" d="M252.52,255.28v11.05"/>
  <path class="cls-1" d="M259.43,255.28v11.05"/>
  <path class="cls-1" d="M407.74,202.78v11.05"/>
  <path class="cls-1" d="M231.8,182.05v11.05"/>
  <path class="cls-1" d="M231.8,275.09v11.05"/>
  <path class="cls-1" d="M252.52,182.05v11.05"/>
  <path class="cls-1" d="M273.25,182.05v11.05"/>
  <path class="cls-1" d="M280.62,182.05v11.05"/>
  <path class="cls-1" d="M337.27,275.09v11.05"/>
  <path class="cls-1" d="M331.28,275.09v11.05"/>
  <path class="cls-1" d="M331.28,182.05v11.05"/>
  <path class="cls-1" d="M337.27,182.05v11.05"/>
  <path class="cls-1" d="M273.25,311.47v10.59"/>
  <path class="cls-1" d="M287.53,311.47v10.59"/>
  <path class="cls-1" d="M231.8,163.63v10.59"/>
  <path class="cls-1" d="M252.52,163.63v10.59"/>
  <path class="cls-1" d="M379.65,163.63v10.59"/>
  <path class="cls-1" d="M407.74,163.63v10.59"/>
  <path class="cls-1" d="M331.28,311.47v10.59"/>
  <path class="cls-1" d="M238.71,311.47v10.59"/>
  <path class="cls-1" d="M224.89,237.32v10.59"/>
  <path class="cls-1" d="M337.27,311.47v10.59"/>
  <path class="cls-1" d="M273.25,328.06v10.13"/>
  <path class="cls-1" d="M238.71,202.78v10.13"/>
  <path class="cls-1" d="M231.8,202.78v10.13"/>
  <path class="cls-1" d="M238.71,328.06v10.13"/>
  <path class="cls-1" d="M259.43,328.06v10.13"/>
  <path class="cls-1" d="M287.53,328.06v10.13"/>
  <path class="cls-1" d="M379.65,237.78v10.13"/>
  <path class="cls-1" d="M337.27,328.06v10.13"/>
  <path class="cls-1" d="M331.28,220.28v10.13"/>
  <path class="cls-1" d="M407.74,328.06v10.13"/>
  <path class="cls-1" d="M379.65,328.98v10.13"/>
  <path class="cls-1" d="M252.52,220.28v10.13"/>
  <path class="cls-1" d="M224.89,274.63v10.13"/>
  <path class="cls-1" d="M238.71,274.63v10.13"/>
  <path class="cls-1" d="M252.52,202.78v10.13"/>
  <path class="cls-1" d="M337.27,164.09v10.13"/>
  <path class="cls-1" d="M273.25,202.78v10.13"/>
  <path class="cls-1" d="M280.62,202.78v10.13"/>
  <path class="cls-1" d="M252.52,237.78v10.13"/>
  <path class="cls-1" d="M287.53,202.78v10.13"/>
  <path class="cls-1" d="M331.28,202.78v10.13"/>
  <path class="cls-1" d="M252.52,311.01v10.13"/>
  <path class="cls-1" d="M259.43,164.09v10.13"/>
  <path class="cls-1" d="M337.27,202.78v10.13"/>
  <path class="cls-1" d="M379.65,274.63v10.13"/>
  <path class="cls-1" d="M351.09,202.78v10.13"/>
  <path class="cls-1" d="M379.65,202.78v10.13"/>
  <path class="cls-1" d="M231.8,328.06v10.13"/>
  <path class="cls-1" d="M238.71,164.09v10.13"/>
  <path class="cls-1" d="M287.53,275.09v9.67"/>
  <path class="cls-1" d="M252.52,275.09v9.67"/>
  <path class="cls-1" d="M287.53,144.28v9.21"/>
  <path class="cls-1" d="M337.27,220.28v9.21"/>
  <path class="cls-1" d="M309.18,144.28v9.21"/>
  <path class="cls-1" d="M301.81,144.28v9.21"/>
  <path class="cls-1" d="M287.53,220.28v9.21"/>
  <path class="cls-1" d="M224.89,311.47v9.21"/>
  <path class="cls-1" d="M259.43,144.28v9.21"/>
  <path class="cls-1" d="M323.92,144.28v9.21"/>
  <path class="cls-1" d="M280.62,144.28v9.21"/>
  <path class="cls-1" d="M224.89,329.9v9.21"/>
  <path class="cls-1" d="M344.18,144.28v9.21"/>
  <path class="cls-1" d="M379.65,220.28v8.75"/>
  <path class="cls-1" d="M379.42,345.1c-7.52-.18-15.04-.28-22.57-.04-7.6.24-15.2-.2-22.8-.19-.85,0-1.71-.09-2.53.23"/>
  <path class="cls-1" d="M415.11,345.1c-2.38-.54-4.76-.06-7.14,0"/>
  <path class="cls-1" d="M280.39,345.1h-6.91"/>
  <path class="cls-1" d="M331.05,345.1c-4.76-.33-9.52.02-14.28,0"/>
  <path class="cls-1" d="M316.32,345.1c-2.3-.66-4.61.2-6.91,0"/>
  <path class="cls-1" d="M259.2,345.1c-4.45-.02-8.9-.04-13.36,0"/>
  <path class="cls-1" d="M225.12,345.1c6.76,0,13.51,0,20.27,0"/>
  <path class="cls-1" d="M400.83,345.1c-4.52-.43-9.06-.23-13.59-.19-2.45.02-4.93-.33-7.37.19"/>
  <path class="cls-1" d="M266.34,345.1h-6.68"/>
  <path class="cls-1" d="M287.3,345.1h-6.45"/>
  <path class="cls-1" d="M301.58,345.1h-6.45"/>
  <path class="cls-1" d="M407.51,345.1h-6.22"/>
  <path class="cls-1" d="M421.33,345.1c-1.92.07-3.84-.54-5.76,0"/>
  <path class="cls-1" d="M273.25,340.03v5.07h-6.45"/>
  <path class="cls-1" d="M214.3,180.67h-5.53"/>
  <path class="cls-1" d="M407.74,175.14v5.53"/>
  <path class="cls-1" d="M344.18,340.03v4.84"/>
  <path class="cls-1" d="M426.4,345.1c-1.54-.44-3.07-.2-4.61,0"/>
  <path class="cls-1" d="M439.98,273.25c-1.54-.03-3.06.39-4.61.23"/>
  <path class="cls-1" d="M434.69,345.1c-1.75-.54-3.53.01-5.3-.21-.85-.11-1.78-.21-2.53.44"/>
  <path class="cls-1" d="M358.46,214.75c-.1,1.3.22,2.63-.23,3.92"/>
  <path class="cls-1" d="M344.18,250.22v3.68"/>
  <path class="cls-1" d="M294.9,250.22v3.68"/>
  <path class="cls-1" d="M365.83,287.06v3.68"/>
  <path class="cls-1" d="M344.18,287.06v3.68"/>
  <path class="cls-1" d="M309.18,287.06v3.68"/>
  <path class="cls-1" d="M301.81,287.06v3.68"/>
  <path class="cls-1" d="M301.81,250.22v3.68"/>
  <path class="cls-1" d="M231.8,250.22v3.68"/>
  <path class="cls-1" d="M287.53,250.22v3.45"/>
  <path class="cls-1" d="M426.63,250.22v3.45"/>
  <path class="cls-1" d="M294.67,345.1h-6.91"/>
  <path class="cls-1" d="M224.66,345.1h-2.76"/>
  <path class="cls-1" d="M433.31,368.13c-4.93,1.8-6.51,6.14-3.68,10.13,1.45,2.05,3.67,2.93,6.21,2.29,2.26-.57,3.66-1.96,4.18-4.35,1.02-4.78-1.51-8.01-6.48-8.07"/>
</svg>