<svg width="500" height="500" viewBox="0 0 500 500" fill="none" xmlns="http://www.w3.org/2000/svg">
<path d="M359.52 246.69C360.04 249.31 359.69 251.95 359.71 254.58C359.78 264.17 359.83 273.77 359.71 283.36C359.31 317.61 359.61 351.87 359.52 386.12C359.5 391.9 357.06 396.22 352.05 399.13C344.36 403.59 336.2 407.08 328.16 410.83C309.17 419.69 290.02 428.2 271.03 437.06C263.6 440.53 256.03 443.73 248.66 447.32C242.32 450.4 236.41 449.44 230.52 446.05C219.74 439.85 208.6 434.3 197.71 428.32C185.72 421.74 173.58 415.45 161.65 408.75C157.03 406.15 152.26 403.8 147.6 401.26C144.28 399.44 141.05 397.49 139.53 393.78C139.01 392.52 138.63 391.18 138.63 389.74C138.65 343.26 138.64 296.79 138.63 250.31C138.63 249.33 138.59 248.35 139.27 247.54" stroke="#2071B5" stroke-width="4.21" stroke-linecap="round" stroke-linejoin="round"/>
<path d="M353.34 255.01C353.79 255.68 353.54 256.44 353.54 257.14C353.56 293.38 353.55 329.63 353.55 365.87C353.55 371.7 353.35 377.53 353.61 383.35C353.85 388.68 351.49 392.09 346.95 394.46C341.53 397.29 335.83 399.52 330.33 402.15C326.37 404.04 322.33 405.75 318.37 407.64C310.7 411.29 302.88 414.62 295.13 418.09C291.36 419.78 287.67 421.67 283.77 423.1" stroke="#2071B5" stroke-width="4.21" stroke-linecap="round" stroke-linejoin="round"/>
<path d="M145.04 257.78V366.3C145.04 372.34 145.04 378.38 145.04 384.42C145.04 385.13 144.91 385.87 145.25 386.55" stroke="#2071B5" stroke-width="4.21" stroke-linecap="round" stroke-linejoin="round"/>
<path d="M346.3 252.24C346.78 254.57 346.49 256.93 346.5 259.28C346.53 293.96 346.52 328.64 346.52 363.32C346.52 370 346.45 376.68 346.55 383.36C346.6 386.84 346.2 390.33 346.74 393.81" stroke="#2071B5" stroke-width="4.21" stroke-linecap="round" stroke-linejoin="round"/>
<path d="M151.65 260.34V364.17C151.65 373.69 151.65 383.22 151.65 392.74C151.65 393.38 151.76 394.05 151.44 394.66" stroke="#2071B5" stroke-width="4.21" stroke-linecap="round" stroke-linejoin="round"/>
<path d="M203.03 194.03C202.08 194.42 202.06 195.55 201.66 196.23C200.29 198.56 197.85 198.13 195.96 198.83C193.61 199.69 191.7 201.04 189.81 202.55C187.27 204.59 188.2 207.44 188.18 210.01C188.18 210.64 188.29 211.29 188.11 211.92C181.34 213.79 174.59 215.7 167.85 217.68C159.35 220.18 150.82 222.61 142.28 224.98C139.41 225.78 136.45 226.37 133.74 227.7C131.1 228.99 130.2 230.53 130.31 233.25C130.4 235.45 130.54 237.68 130.28 239.85C129.94 242.6 131.41 244.12 133.55 244.92C136.75 246.11 139.92 247.4 143.1 248.65C152.66 252.4 162.19 256.22 171.71 260.06C182.59 264.46 193.36 269.1 204.29 273.38C211.8 276.32 219.27 279.37 226.67 282.57C233.7 285.61 240.83 287.19 248.44 285.89C251.23 285.41 253.88 284.32 256.54 283.34C263 280.96 269.51 278.74 275.96 276.35C276.8 276.04 277.54 275.41 278.51 275.47" stroke="#2071B5" stroke-width="4.21" stroke-linecap="round" stroke-linejoin="round"/>
<path d="M207.3 60.9999C210.7 62.3799 214.1 63.7799 217.75 64.3999C222.28 65.1699 226.79 66.0599 231.39 66.3199C241.05 66.8699 250.71 67.3699 260.38 67.1399C269.76 66.9199 279.13 66.3799 288.31 64.1799C290.68 63.6099 293.04 62.9299 295.12 61.6199C297.1 60.3799 297.12 58.5099 295.35 56.9399C292.42 54.3299 288.71 53.6299 285.1 52.7099C280.7 51.5899 276.2 51.0399 271.68 50.5199C262.32 49.4399 252.93 48.9399 243.54 49.3299C232.92 49.7699 222.34 50.7899 212.18 54.3499C210.53 54.9299 209.06 55.8099 207.53 56.5699C205.8 57.4299 206.25 59.0799 206.65 60.5699" fill="#FFDA00" fill-opacity="0.7"/>
<path d="M207.3 60.9999C210.7 62.3799 214.1 63.7799 217.75 64.3999C222.28 65.1699 226.79 66.0599 231.39 66.3199C241.05 66.8699 250.71 67.3699 260.38 67.1399C269.76 66.9199 279.13 66.3799 288.31 64.1799C290.68 63.6099 293.04 62.9299 295.12 61.6199C297.1 60.3799 297.12 58.5099 295.35 56.9399C292.42 54.3299 288.71 53.6299 285.1 52.7099C280.7 51.5899 276.2 51.0399 271.68 50.5199C262.32 49.4399 252.93 48.9399 243.54 49.3299C232.92 49.7699 222.34 50.7899 212.18 54.3499C210.53 54.9299 209.06 55.8099 207.53 56.5699C205.8 57.4299 206.25 59.0799 206.65 60.5699" stroke="#2071B5" stroke-width="4.21" stroke-linecap="round" stroke-linejoin="round"/>
<path d="M130.76 233.47C135.39 236.18 140.57 237.59 145.5 239.57C151.69 242.06 158 244.29 164.22 246.7C176.98 251.64 189.63 256.87 202.36 261.9C210.36 265.06 218.26 268.47 226.26 271.65C229.92 273.11 233.48 274.9 237.36 275.64C243.25 276.76 248.99 276.07 254.63 273.99C262.71 271.01 270.76 267.95 278.93 265.22" stroke="#2071B5" stroke-width="4.21" stroke-linecap="round" stroke-linejoin="round"/>
<path d="M369.97 231.34C365.08 235.04 359.15 236.37 353.53 238.3C348.07 240.18 342.6 242.06 337.18 244.03C329.49 246.83 321.79 249.6 314.1 252.4C304.51 255.89 294.94 259.43 285.32 262.86C283.42 263.54 281.63 264.57 279.58 264.81" stroke="#2071B5" stroke-width="4.21" stroke-linecap="round" stroke-linejoin="round"/>
<path d="M305.37 96.3901C303.8 96.5401 303.24 98.1101 301.98 98.7801C297.12 101.39 291.97 103.13 286.6 104.26C282.16 105.19 277.69 105.87 273.18 106.48C263.11 107.83 253 107.92 242.9 107.6C237.07 107.42 231.21 107 225.41 106.03C218.79 104.93 212.18 103.88 205.8 101.72C202.31 100.54 198.94 99.1001 195.99 96.8201" stroke="#2071B5" stroke-width="4.21" stroke-linecap="round" stroke-linejoin="round"/>
<path d="M294.92 77.41C289.54 78.97 284.06 80 278.51 80.89C266.4 82.82 254.22 82.69 242.04 82.43C237.58 82.33 233.07 81.84 228.6 81.35C221.31 80.56 214.16 79.21 207.32 77.47C207.2 71.86 207.47 66.32 207.05 60.5C203.55 62.14 200.18 63.8 197.71 66.77C196.43 68.31 197.61 70.17 197.56 71.87C197.52 73.27 199.24 73.74 200.27 74.37C202.24 75.59 204.35 76.61 206.63 77.2" stroke="#2071B5" stroke-width="4.21" stroke-linecap="round" stroke-linejoin="round"/>
<path d="M250.79 115.36V194.07C252.9 194.44 255.08 194.4 257.18 194.21C267.65 193.24 277.99 191.67 287.89 187.88C291.84 186.37 295.74 184.83 299.17 182.3C299.77 181.86 300.62 181.96 301.05 181.62C302.41 180.53 303.27 179.18 303.27 177.2C303.2 157.37 303.25 137.55 303.21 117.72C303.21 114.66 303.59 111.61 303.44 108.55C303.4 107.82 303.64 107.03 303.01 106.42" stroke="#2071B5" stroke-width="4.21" stroke-linecap="round" stroke-linejoin="round"/>
<path d="M279.36 114.08C279.81 114.75 279.56 115.51 279.56 116.21C279.58 139.8 279.57 163.4 279.58 186.99C279.58 188.06 279.54 189.12 279.58 190.19" stroke="#2071B5" stroke-width="4.21" stroke-linecap="round" stroke-linejoin="round"/>
<path d="M195.57 111.52C196.16 112.3 197.02 112.52 197.91 112.83C203.1 114.59 208.56 115.62 213.47 118.15C218.73 120.86 221.7 125.32 222.18 131.14C223.28 144.41 222.37 157.72 222.67 171C222.7 172.37 221.52 173.65 222.43 175.05" stroke="#2071B5" stroke-width="4.21" stroke-linecap="round" stroke-linejoin="round"/>
<path d="M238.2 350.5C227.45 354.39 204.96 363.69 194.31 367.84C182.15 372.57 169.96 377.24 157.82 382.05C153.58 383.73 149.32 385.38 144.91 386.89C145.14 389.25 146.26 390.87 147.99 392.34C151.97 395.74 156.75 397.72 161.26 400.15C172.31 406.12 183.28 412.25 194.3 418.28C208.08 425.82 221.62 433.81 235.64 440.91C236.47 441.33 237.3 441.73 238.2 441.98" fill="#FFDA00" fill-opacity="0.7"/>
<path d="M238.2 350.5C227.45 354.39 204.96 363.69 194.31 367.84C182.15 372.57 169.96 377.24 157.82 382.05C153.58 383.73 149.32 385.38 144.91 386.89C145.14 389.25 146.26 390.87 147.99 392.34C151.97 395.74 156.75 397.72 161.26 400.15C172.31 406.12 183.28 412.25 194.3 418.28C208.08 425.82 221.62 433.81 235.64 440.91C236.47 441.33 237.3 441.73 238.2 441.98" stroke="#2071B5" stroke-width="4.21" stroke-linecap="round" stroke-linejoin="round"/>
<path d="M261.23 115.36C261.68 116.03 261.43 116.79 261.43 117.49C261.45 140.94 261.45 164.39 261.43 187.85C261.43 189.7 261.61 191.54 261.65 193.39" stroke="#2071B5" stroke-width="4.21" stroke-linecap="round" stroke-linejoin="round"/>
<path d="M240.77 114.93C240.77 141.08 240.79 167.23 240.74 193.39C240.74 196.73 240.39 200.07 240.77 203.41" stroke="#2071B5" stroke-width="4.21" stroke-linecap="round" stroke-linejoin="round"/>
<path d="M269.98 114.93V188.7" stroke="#2071B5" stroke-width="4.21" stroke-linecap="round" stroke-linejoin="round"/>
<path d="M224.56 290.82C220.43 289.31 216.46 287.39 212.42 285.66C203.4 281.8 194.38 277.95 185.35 274.13C178.02 271.03 170.67 267.96 163.34 264.87C157.26 262.31 151.21 259.67 145.03 257.3C145.03 254.92 145.03 252.51 145.03 250.09" stroke="#2071B5" stroke-width="4.21" stroke-linecap="round" stroke-linejoin="round"/>
<path d="M298.97 108.75C299.33 109.51 299.18 110.31 299.18 111.1C299.18 133.84 299.18 156.58 299.19 179.32C299.19 180.1 299.04 180.91 299.4 181.67" stroke="#2071B5" stroke-width="4.21" stroke-linecap="round" stroke-linejoin="round"/>
<path d="M288.95 112.16C289.3 113.2 289.39 114.26 289.39 115.36C289.37 138.1 289.37 160.84 289.4 183.58C289.4 184.71 288.86 185.9 289.59 186.99" stroke="#2071B5" stroke-width="4.21" stroke-linecap="round" stroke-linejoin="round"/>
<path d="M293.64 110.88C293.91 111.57 293.85 112.29 293.85 113.01C293.85 136.32 293.85 159.63 293.85 182.94C293.85 183.66 293.79 184.38 294.06 185.07" stroke="#2071B5" stroke-width="4.21" stroke-linecap="round" stroke-linejoin="round"/>
<path d="M290.02 271.85C290.38 272.61 290.23 273.41 290.23 274.2C290.23 296.87 290.23 319.54 290.23 342.21V353.51" stroke="#2071B5" stroke-width="4.21" stroke-linecap="round" stroke-linejoin="round"/>
<path d="M238.42 351.16C238.87 351.83 238.62 352.59 238.62 353.29C238.5 382.85 238.88 412.42 238.49 441.98" stroke="#2071B5" stroke-width="4.21" stroke-linecap="round" stroke-linejoin="round"/>
<path d="M356.39 222.11C364.46 224.35 364.26 224.11 365.67 224.8C368.91 226.39 370.8 229.03 370.61 232.84C370.58 233.55 370.58 234.26 370.61 234.97C370.94 242.39 369.24 242.6 363.75 244.7C348.66 250.5 333.37 255.73 318.15 261.17C305.49 265.7 292.89 270.39 280.22 274.86C279.92 274.97 279.65 275 279.36 275.04" stroke="#2071B5" stroke-width="4.21" stroke-linecap="round" stroke-linejoin="round"/>
<path d="M284.69 358.62C287.52 359.1 289.98 360.52 292.58 361.61C302.13 365.6 311.62 369.74 321.17 373.71C329.55 377.2 337.85 380.9 346.31 384.2" stroke="#2071B5" stroke-width="4.21" stroke-linecap="round" stroke-linejoin="round"/>
<path d="M250.57 285.71C250.87 286.54 250.78 287.41 250.78 288.27C250.78 310.51 250.78 332.76 250.78 355" stroke="#2071B5" stroke-width="4.21" stroke-linecap="round" stroke-linejoin="round"/>
<path d="M284.05 279.95C284.16 284.78 283.81 289.62 284.26 294.45C284.39 295.81 284.02 297.14 284.03 298.5C284.07 306.32 283.97 314.14 284.09 321.95C284.14 325 284.26 328.06 284.26 331.12C284.26 338.94 284.26 346.75 284.26 354.57C284.26 355.66 283.95 356.7 283.83 357.77" stroke="#2071B5" stroke-width="4.21" stroke-linecap="round" stroke-linejoin="round"/>
<path d="M238.64 286.35C238.09 289.75 238.64 293.17 238.5 296.59C238.47 297.24 238.63 298.01 238.63 298.72C238.65 315.21 238.64 331.69 238.66 348.18C238.66 348.89 238.41 349.64 238.86 350.31" stroke="#2071B5" stroke-width="4.21" stroke-linecap="round" stroke-linejoin="round"/>
<path d="M279.14 275.18C279.14 291.24 279.14 320.39 279.18 336.45" stroke="#2071B5" stroke-width="4.21" stroke-linecap="round" stroke-linejoin="round"/>
<path d="M196.85 68.6699C195.86 69.1499 195.54 69.8999 195.55 71.0199C195.6 78.9099 195.57 86.7999 195.58 94.6799C195.58 96.3099 195.75 97.9699 195.54 99.5799C195.13 102.81 196.99 104.68 199.44 105.94C204.46 108.51 209.96 109.75 215.41 111.1C219.34 112.07 223.35 112.63 227.35 113.2C228.37 113.35 228.58 113.88 228.86 114.71C230.11 118.39 230.91 122.14 231.19 126.02C232.12 138.73 231.31 151.46 231.63 164.18C231.7 166.73 231.05 168.54 228.89 170.22C223.98 174.05 219.31 178.17 214.16 181.72C211.49 183.56 208.45 184.26 205.59 185.48C205.35 185.58 205.01 185.55 204.75 185.48C200.09 184.35 195.44 183.25 190.86 181.73C186.43 180.26 182 178.73 177.46 177.6C175.56 177.12 173.81 176.21 171.93 175.63C168.78 174.66 167.23 171.65 167.23 167.15C167.22 157.13 167.23 147.11 167.23 137.09C167.23 132.54 167.17 127.99 167.05 123.44C166.93 119.21 168.77 116.77 172.78 115.34C176.71 113.94 180.71 113.16 184.91 112.79C187.4 112.57 189.95 111.53 192.6 111.49C192.67 111.49 192.73 111.31 192.81 111.29C194.01 111.02 195.5 111.95 196.42 110.53C197.19 109.35 197.52 108.01 197.51 106.59C197.51 106.26 197.73 105.99 197.93 105.74" stroke="#2071B5" stroke-width="4.21" stroke-linecap="round" stroke-linejoin="round"/>
<path d="M248.02 374.61V439.29" stroke="#2071B5" stroke-width="4.21" stroke-linecap="round" stroke-linejoin="round"/>
<path d="M227.12 355C234.34 352.41 241.43 349.47 248.64 346.85C250.54 346.16 252.31 346.21 254.2 346.46C259.23 347.13 263.67 349.48 268.27 351.36C273.73 353.58 279.11 355.96 284.52 358.29C283.75 359.7 284.01 361.11 284.06 362.46C284.51 374.33 284.26 386.2 284.2 398.06C284.16 404.88 283.92 411.7 284.23 418.53C284.29 419.87 283.76 421.23 284.26 422.58" stroke="#2071B5" stroke-width="4.21" stroke-linecap="round" stroke-linejoin="round"/>
<path d="M310.48 205.76C307.25 207.99 303.4 208.71 299.8 209.97C293.51 212.19 287.18 214.31 280.85 216.45C271.03 219.76 261.29 223.28 251.41 226.41C247.71 227.58 244.08 226.69 240.54 225.38C224.67 219.49 208.67 213.96 192.76 208.17C191.33 207.65 189.94 206.76 188.31 206.82" stroke="#2071B5" stroke-width="4.21" stroke-linecap="round" stroke-linejoin="round"/>
<path d="M190.45 230.49C190.49 235.92 191.43 241.3 191.62 246.7C191.79 251.24 194.66 253.57 197.96 254.89C206.92 258.47 215.85 262.13 224.99 265.25" stroke="#2071B5" stroke-width="4.21" stroke-linecap="round" stroke-linejoin="round"/>
<path d="M346.09 257.14C337.67 260.11 329.36 263.37 320.93 266.31C311.82 269.48 302.84 273 293.64 275.9" stroke="#2071B5" stroke-width="4.21" stroke-linecap="round" stroke-linejoin="round"/>
<path d="M257.4 289.97C257.4 299.71 257.4 309.44 257.4 319.18V346.9" stroke="#2071B5" stroke-width="4.21" stroke-linecap="round" stroke-linejoin="round"/>
<path d="M208.57 133.7C208.57 148.62 208.57 163.55 208.57 178.47C208.57 180.39 208.48 182.32 208.78 184.23" stroke="#2071B5" stroke-width="4.21" stroke-linecap="round" stroke-linejoin="round"/>
<path d="M248.02 286.13C248.02 304.04 248.02 321.95 248.01 339.86C248.01 340.57 248.01 340.68 248.04 342.95" stroke="#2071B5" stroke-width="4.21" stroke-linecap="round" stroke-linejoin="round"/>
<path d="M226.7 293.81V349.03C226.7 356.14 226.7 363.24 226.7 370.35" stroke="#2071B5" stroke-width="4.21" stroke-linecap="round" stroke-linejoin="round"/>
<path d="M189.17 226.86C186.03 227.04 183.18 228.35 180.22 229.22C169.83 232.3 159.44 235.37 149.1 238.63C148.6 238.79 147.97 238.44 147.59 239" stroke="#2071B5" stroke-width="4.21" stroke-linecap="round" stroke-linejoin="round"/>
<path d="M226.7 381.65C226.67 398.07 226.7 417.25 226.69 433.67C226.69 434.38 226.94 435.13 226.49 435.8" stroke="#2071B5" stroke-width="4.21" stroke-linecap="round" stroke-linejoin="round"/>
<path d="M285.75 199.15C285.65 201.35 286.29 203.51 285.64 205.79C285.26 207.11 284.69 207.84 283.64 208.56C279.99 211.03 275.82 212.2 271.68 213.42C264.97 215.39 258.1 215.07 251.22 214.75C248.17 214.61 245.11 214.85 242.06 214.96C237.49 215.13 233.02 214.66 228.63 213.43C224.59 212.29 220.67 210.84 216.88 209C214.97 208.07 213.72 207.08 213.86 204.69C213.97 202.72 213.1 200.71 213.92 198.72" stroke="#2071B5" stroke-width="4.21" stroke-linecap="round" stroke-linejoin="round"/>
<path d="M188.11 212.37C188.94 213.55 190.34 213.73 191.52 214.29C199.88 218.25 208.7 221.02 217.34 224.25C223.61 226.6 229.92 228.84 236.28 230.95C236.66 231.08 237 231.06 237.36 231.13" stroke="#2071B5" stroke-width="4.21" stroke-linecap="round" stroke-linejoin="round"/>
<path d="M221.37 129.86C216.25 131.19 211.18 132.72 206.01 133.89C204.84 134.15 204.47 134.71 204.51 135.83C205.01 147.91 204.62 159.99 204.69 172.07C204.69 173.13 205.32 174.2 204.73 175.27" stroke="#2071B5" stroke-width="4.21" stroke-linecap="round" stroke-linejoin="round"/>
<path d="M188.32 220.26C184.06 220.89 180.09 222.57 175.96 223.7C168.02 225.87 160.2 228.44 152.29 230.7C152.09 230.76 151.87 230.7 151.65 230.7" stroke="#2071B5" stroke-width="4.21" stroke-linecap="round" stroke-linejoin="round"/>
<path d="M196.85 137.53C196.51 138.21 196.64 138.95 196.64 139.66C196.64 150.18 196.64 160.7 196.64 171.21C196.64 172.99 196.73 174.75 196.51 176.55C196.25 178.6 197.37 180.42 198.57 182.08" stroke="#2071B5" stroke-width="4.21" stroke-linecap="round" stroke-linejoin="round"/>
<path d="M283.62 423.22C272.19 428.43 260.82 433.78 249.31 438.81C248.92 438.98 248.59 438.92 248.23 438.99" stroke="#2071B5" stroke-width="4.21" stroke-linecap="round" stroke-linejoin="round"/>
<path d="M188.75 213.43C187.85 214.37 188.51 215.42 188.55 216.41C188.72 220.04 188.86 223.68 189.39 227.28C189.57 228.47 189.91 229.47 191.06 230.31C196.65 234.41 203.08 236.74 209.44 239.18C217.08 242.12 224.76 244.95 232.45 247.74" stroke="#2071B5" stroke-width="4.21" stroke-linecap="round" stroke-linejoin="round"/>
<path d="M175.32 129.22C175.72 129.51 175.52 129.93 175.52 130.29C175.53 141.09 175.52 151.89 175.52 162.7C175.52 163.28 175.61 163.87 175.31 164.41" stroke="#2071B5" stroke-width="4.21" stroke-linecap="round" stroke-linejoin="round"/>
<path d="M298.76 183.16C300.29 185.73 299.88 188.57 299.51 191.25C299.27 192.98 297.28 193.64 295.78 194.47C290.43 197.45 284.64 199.11 278.72 200.42C273.37 201.61 268 202.59 262.52 203C253.56 203.68 244.61 204.08 235.66 202.98C228.43 202.09 221.33 200.51 214.36 198.45C210.58 197.34 206.86 195.97 203.43 193.88C202.11 193.08 201.44 192.11 201.39 190.82C201.32 188.98 201.07 187.11 201.55 185.28" stroke="#2071B5" stroke-width="4.21" stroke-linecap="round" stroke-linejoin="round"/>
<path d="M304.09 215.35C286.46 221.37 269.05 228.04 251.22 233.47" stroke="#2071B5" stroke-width="4.21" stroke-linecap="round" stroke-linejoin="round"/>
<path d="M304.51 69.1001C305.69 69.7701 305.82 70.8301 305.81 72.0801C305.77 81.5301 305.7 90.9801 305.84 100.43C305.88 103.28 304.31 105.08 302.34 106.34C296.45 110.07 289.86 111.8 282.99 112.88C278.87 113.53 274.72 113.82 270.6 114.46C268.65 114.76 266.63 114.59 264.63 114.67C257.67 114.96 250.72 115.1 243.73 114.6C239.04 114.27 234.34 113.94 229.67 113.42C229.32 113.38 229.12 113.67 228.82 113.65" stroke="#2071B5" stroke-width="4.21" stroke-linecap="round" stroke-linejoin="round"/>
<path d="M247.8 347.32C248.14 348 248.01 348.74 248.01 349.45C248.01 357.27 248.01 365.08 248.04 372.9" stroke="#2071B5" stroke-width="4.21" stroke-linecap="round" stroke-linejoin="round"/>
<path d="M345.45 202.35C344.9 201.36 345.66 200.35 345.44 199.37C344.7 196.07 342.27 194.57 339.26 193.87C338.5 193.69 337.76 193.39 336.93 193.37C332.71 193.24 328.26 197.24 327.55 201.93C326.75 207.24 327.15 212.59 327.12 217.92C327.12 218.86 327.52 219.45 328.4 219.85C331.28 221.16 334.37 221.86 337.38 222.76C339.24 223.32 341.06 222.14 342.9 221.73C343.4 221.62 343.88 221.4 344.4 221.33" fill="#FFDA00" fill-opacity="0.7"/>
<path d="M345.45 202.35C344.9 201.36 345.66 200.35 345.44 199.37C344.7 196.07 342.27 194.57 339.26 193.87C338.5 193.69 337.76 193.39 336.93 193.37C332.71 193.24 328.26 197.24 327.55 201.93C326.75 207.24 327.15 212.59 327.12 217.92C327.12 218.86 327.52 219.45 328.4 219.85C331.28 221.16 334.37 221.86 337.38 222.76C339.24 223.32 341.06 222.14 342.9 221.73C343.4 221.62 343.88 221.4 344.4 221.33" stroke="#2071B5" stroke-width="4.21" stroke-linecap="round" stroke-linejoin="round"/>
<path d="M204.95 134.12C204.68 131.6 204.43 129.14 202.65 127.05C201.71 125.94 200.59 125.26 199.44 124.48C198.55 123.87 197.88 124.24 197.29 124.57C196.22 125.18 195.33 126.08 194.93 127.3C193.73 131 194.68 135.67 197.91 137.95C199.76 139.26 201.66 138.96 203.24 137.33C203.64 136.92 203.59 136.18 204.29 136.04" stroke="#2071B5" stroke-width="4.21" stroke-linecap="round" stroke-linejoin="round"/>
<path d="M196.85 124.32C192.17 122.62 187.31 121.52 182.56 120.09C179.61 119.2 176.67 118.26 173.63 117.65C173.12 117.55 169.98 117.7 168.75 118.3" stroke="#2071B5" stroke-width="4.21" stroke-linecap="round" stroke-linejoin="round"/>
<path d="M207.3 77.8398C207.3 84.9498 207.3 92.0499 207.3 99.1599C207.3 100.09 207.37 101.02 207.09 101.93" stroke="#2071B5" stroke-width="4.21" stroke-linecap="round" stroke-linejoin="round"/>
<path d="M295.13 62.4902C295.47 63.1702 295.34 63.9102 295.34 64.6202C295.34 76.9902 295.34 89.3502 295.34 101.72" stroke="#2071B5" stroke-width="4.21" stroke-linecap="round" stroke-linejoin="round"/>
<path d="M333.3 193.61C330.12 192.04 326.69 190.99 323.26 190.57C321.19 190.31 318.92 191.41 317.27 193.36C313.9 197.35 312.32 201.91 312.22 207.04C312.2 208.15 311.6 209.1 311.74 210.24C312.19 213.78 311.74 217.36 312.02 220.89C312.56 227.67 309.13 231.82 303.44 234.52C295.68 238.2 287.49 240.77 279.36 243.49" stroke="#2071B5" stroke-width="4.21" stroke-linecap="round" stroke-linejoin="round"/>
<path d="M177.65 114.05C182.8 115.99 189.96 116.96 195.2 118.57C197.46 119.26 199.73 119.93 202.02 120.48C202.46 120.58 205.7 121.52 205.77 122.02" stroke="#2071B5" stroke-width="4.21" stroke-linecap="round" stroke-linejoin="round"/>
<path d="M349.29 235.61C343.55 233.5 337.69 231.73 331.8 230.1C330.11 229.63 328.6 228.42 326.69 228.79" stroke="#2071B5" stroke-width="4.21" stroke-linecap="round" stroke-linejoin="round"/>
<path d="M340.76 201.71C338.71 200.85 337.11 201.03 336.12 202.8C333.94 206.69 332.92 210.81 335.01 215.14C336.02 217.22 337.25 217.87 339.27 217.49" stroke="#2071B5" stroke-width="4.21" stroke-linecap="round" stroke-linejoin="round"/>
<path d="M193.65 126.87C187.76 125.12 181.87 123.4 175.97 121.7C175.5 121.57 175.24 121.75 174.89 121.75" stroke="#2071B5" stroke-width="4.21" stroke-linecap="round" stroke-linejoin="round"/>
<path d="M298.33 252.87C286.44 257.21 274.46 261.28 262.51 265.44C261.81 265.68 261.16 266.1 260.38 266.09" stroke="#2071B5" stroke-width="4.21" stroke-linecap="round" stroke-linejoin="round"/>
<path d="M317.95 192.33C317.57 191.2 316.5 191.12 315.6 190.85C310.35 189.25 305.17 187.44 299.83 186.15" stroke="#2071B5" stroke-width="4.21" stroke-linecap="round" stroke-linejoin="round"/>
<path d="M278.5 243.92C273.07 245.54 267.86 247.82 262.32 249.12C261.68 249.27 261.03 249.36 260.38 249.47" stroke="#2071B5" stroke-width="4.21" stroke-linecap="round" stroke-linejoin="round"/>
<path d="M251 226.86C251 239.72 250.98 252.59 251.04 265.45C251.04 266.72 250.24 268.06 251.22 269.29" stroke="#2071B5" stroke-width="4.21" stroke-linecap="round" stroke-linejoin="round"/>
<path d="M231.57 165.67C231.19 168.38 230.48 171.64 230.49 172.71C230.57 179.32 230.53 185.93 230.53 192.54" stroke="#2071B5" stroke-width="4.21" stroke-linecap="round" stroke-linejoin="round"/>
<path d="M312.13 224.08C312.53 227.18 312.53 235.45 312.61 237.7C312.76 241.58 312.37 245.59 312.15 247.39C311.99 248.67 301.38 251.72 298.33 252.88" stroke="#2071B5" stroke-width="4.21" stroke-linecap="round" stroke-linejoin="round"/>
<path d="M351.21 204.69C354.87 205.11 358.35 206.31 361.85 207.31C364.26 208 365.08 210.54 365.37 212.59C365.82 215.73 365.44 218.99 362.69 221.28C361.18 222.54 357.28 222.39 355.23 220.64" stroke="#2071B5" stroke-width="4.21" stroke-linecap="round" stroke-linejoin="round"/>
<path d="M203.46 184.65C203.32 183.82 204.02 183.37 204.31 182.73C206.13 178.77 204.71 174.75 201.74 172.52C199.9 171.14 199.55 171.27 197.06 173.35" stroke="#2071B5" stroke-width="4.21" stroke-linecap="round" stroke-linejoin="round"/>
<path d="M279.14 338.37C279.14 343.34 279.14 348.32 279.14 353.29C279.14 354.08 279.22 354.87 278.93 355.64" stroke="#2071B5" stroke-width="4.21" stroke-linecap="round" stroke-linejoin="round"/>
<path d="M279.12 224.28C279.21 224.91 279.12 243 279.12 243.64" stroke="#2071B5" stroke-width="4.21" stroke-linecap="round" stroke-linejoin="round"/>
<path d="M350.78 204.9C346.41 207.98 345.45 212.28 346.28 217.27C346.44 218.24 347.1 219.21 346.51 220.25" stroke="#2071B5" stroke-width="4.21" stroke-linecap="round" stroke-linejoin="round"/>
<path d="M350.78 204.48C349.17 203.39 347.14 203.44 345.56 202.51C340.61 204.7 339.38 213.99 342.88 217.7C343.16 218 343.66 218.2 343.52 218.76" stroke="#2071B5" stroke-width="4.21" stroke-linecap="round" stroke-linejoin="round"/>
<path d="M357.81 206.61C355.58 208.38 353.93 210.34 353.44 213.42C353.01 216.15 353.45 218.37 355.06 220.46" stroke="#2071B5" stroke-width="4.21" stroke-linecap="round" stroke-linejoin="round"/>
<path d="M177.02 169.73C182.12 171.7 190.2 173.61 195.4 175.27" stroke="#2071B5" stroke-width="4.21" stroke-linecap="round" stroke-linejoin="round"/>
<path d="M344.6 202.77C343.68 201.97 342.17 202.24 340.93 201.74C339.93 204.01 337.89 204.88 337.33 207.45C336.51 211.22 336.8 214.77 339.55 217.63C340.41 218.52 341.66 219.67 343.33 218.97C344.46 218.5 344.95 219.69 345.63 220.11C347.92 221.51 350.53 221.15 352.96 222.1C353.57 222.34 357.2 221.97 359.36 222.1" stroke="#2071B5" stroke-width="4.21" stroke-linecap="round" stroke-linejoin="round"/>
<path d="M205.38 185.72C205.79 186.1 206.09 186.59 206.66 186.79C212.52 188.89 218.38 190.87 224.56 191.96C232.55 193.37 240.54 194.42 248.66 194.24C249.31 194.23 249.97 194.35 250.58 194.03" stroke="#2071B5" stroke-width="4.21" stroke-linecap="round" stroke-linejoin="round"/>
<path d="M197.28 217.06C196.93 218.04 196.96 219 197.01 220.05C197.21 224.17 196.9 228.3 197.28 232.41C197.33 232.91 197.17 233.32 196.85 233.69" stroke="#2071B5" stroke-width="4.21" stroke-linecap="round" stroke-linejoin="round"/>
<path d="M315.39 215.78C315.39 221.18 310.39 224.84 326.02 225.17" stroke="#2071B5" stroke-width="4.21" stroke-linecap="round" stroke-linejoin="round"/>
<path d="M259.74 231.34C260.16 232.82 259.93 234.33 259.94 235.82C259.97 246.98 259.94 255.3 259.94 266.46" stroke="#2071B5" stroke-width="4.21" stroke-linecap="round" stroke-linejoin="round"/>
<path d="M233.31 248.18C236.91 249.53 240.61 250.65 244.41 251.08C247.2 251.4 250.08 251.27 252.93 250.99C255.24 250.76 257.42 249.92 259.75 249.89" stroke="#2071B5" stroke-width="4.21" stroke-linecap="round" stroke-linejoin="round"/>
<path d="M218.17 226.01C218.17 229.21 218.17 232.41 218.17 235.6C218.17 237.39 218.03 239.19 218.59 240.93" stroke="#2071B5" stroke-width="4.21" stroke-linecap="round" stroke-linejoin="round"/>
<path d="M237.57 224.73C237.06 229.27 237.55 233.83 237.38 238.38C237.25 242 237.35 245.63 237.35 249.25" stroke="#2071B5" stroke-width="4.21" stroke-linecap="round" stroke-linejoin="round"/>
<path d="M312.62 200.64C309.45 199.54 306.21 198.68 303.04 197.61C301.05 196.94 299.19 198.24 296.88 197.38C296.53 197.14 296.95 196.38 296.84 195.73" stroke="#2071B5" stroke-width="4.21" stroke-linecap="round" stroke-linejoin="round"/>
<path d="M361.23 216.84C361.49 215.63 361.42 214.44 361.27 213.21C361.11 211.94 360.57 211.09 359.32 211.13C358.14 211.17 357.87 212.1 357.8 213.22C357.61 215.92 358.25 217.32 360.18 217.91" stroke="#2071B5" stroke-width="4.21" stroke-linecap="round" stroke-linejoin="round"/>
<path d="M226.7 370.35V381.65" stroke="#2071B5" stroke-width="4.21" stroke-linecap="round" stroke-linejoin="round"/>
<path d="M142.54 227.54C144.8 227.15 148.86 228.18 148.52 229.45C147.93 231.71 144.92 235.08 141.7 234.11C139.06 233.31 138.7 228.66 142.42 227.45" stroke="#2071B5" stroke-width="4.21" stroke-linecap="round" stroke-linejoin="round"/>
<path d="M296.63 60.7798C297.64 61.6998 298.91 62.1998 300.06 62.8898C301.8 63.9398 303.16 65.3298 303.84 67.1898C304.65 69.4098 303.69 73.6698 300.9 74.8598C299.2 75.5898 297.56 76.4598 295.78 76.9798" stroke="#2071B5" stroke-width="4.21" stroke-linecap="round" stroke-linejoin="round"/>
<path d="M312.62 214.71C316.92 215.73 320.97 217.51 325.19 218.78C326.02 219.03 326.33 219.7 326.29 220.68C326.2 223.59 326.56 225.87 326.68 228.78" stroke="#2071B5" stroke-width="4.21" stroke-linecap="round" stroke-linejoin="round"/>
<path d="M345.24 220.26C343.87 223.09 343.19 226.09 343.38 229.21C343.44 230.27 343.36 232.11 343.45 233.17" stroke="#2071B5" stroke-width="4.21" stroke-linecap="round" stroke-linejoin="round"/>
<path d="M250.57 204.05C250.58 207.46 250.5 210.88 250.78 214.28" stroke="#2071B5" stroke-width="4.21" stroke-linecap="round" stroke-linejoin="round"/>
<path d="M238 231.55C242.13 233.06 246.39 233.75 250.79 233.47" stroke="#2071B5" stroke-width="4.21" stroke-linecap="round" stroke-linejoin="round"/>
<path d="M237.36 275.9C236.93 277.66 237.21 279.45 237.15 281.23C237.1 282.72 237.21 284.22 236.93 285.71" stroke="#2071B5" stroke-width="4.21" stroke-linecap="round" stroke-linejoin="round"/>
<path d="M214.54 119.84C211.68 121.09 208.5 121.14 205.59 122.2C203.57 122.94 201.36 122.95 199.4 123.89" stroke="#2071B5" stroke-width="4.21" stroke-linecap="round" stroke-linejoin="round"/>
<path d="M220.09 185.72C223.14 186.4 226.18 187.09 229.26 187.64" stroke="#2071B5" stroke-width="4.21" stroke-linecap="round" stroke-linejoin="round"/>
<path d="M304.3 208.74C304.19 214.01 305.13 219.25 304.68 224.51C304.47 227 304.78 229.51 304.3 231.98C304.19 232.57 304.43 233.12 304.51 233.69" stroke="#2071B5" stroke-width="4.21" stroke-linecap="round" stroke-linejoin="round"/>
<path d="M247.59 439.42C244.75 440.8 241.84 441.97 238.64 442.19" stroke="#2071B5" stroke-width="4.21" stroke-linecap="round" stroke-linejoin="round"/>
<path d="M261.02 189.98C258.11 190.18 255.22 190.74 252.28 190.62" stroke="#2071B5" stroke-width="4.21" stroke-linecap="round" stroke-linejoin="round"/>
<path d="M167.32 127.79C169.77 131.37 173.02 132.94 174.89 129.22" stroke="#2071B5" stroke-width="4.21" stroke-linecap="round" stroke-linejoin="round"/>
<path d="M240.77 205.12V213.65" stroke="#2071B5" stroke-width="4.21" stroke-linecap="round" stroke-linejoin="round"/>
<path d="M239.06 189.34C238.41 188.32 237.29 188.88 236.49 188.8C234.57 188.6 232.69 187.99 230.74 188.06" stroke="#2071B5" stroke-width="4.21" stroke-linecap="round" stroke-linejoin="round"/>
<path d="M226.91 283.36C226.45 285.34 226.83 287.34 226.69 289.33C226.64 290.11 226.69 290.37 226.69 292.06" stroke="#2071B5" stroke-width="4.21" stroke-linecap="round" stroke-linejoin="round"/>
<path d="M274.88 188.06C270.49 188.77 266.13 189.67 261.66 189.77" stroke="#2071B5" stroke-width="4.21" stroke-linecap="round" stroke-linejoin="round"/>
<path d="M230.75 127.3C228.12 128.28 225.34 128.7 222.65 129.43" stroke="#2071B5" stroke-width="4.21" stroke-linecap="round" stroke-linejoin="round"/>
<path d="M259.53 266.52C255.9 267.52 252.48 269.07 248.88 270.18C244.75 271.45 240.66 271.57 236.5 270.57" stroke="#2071B5" stroke-width="4.21" stroke-linecap="round" stroke-linejoin="round"/>
<path d="M174.25 175.48C177.4 173.36 177.28 168.37 175.26 164.64C174.91 163.99 174.45 163.25 173.84 162.68C172.11 161.05 170.8 160.96 168.93 162.49C168.54 162.81 168.26 163.29 167.65 163.12" stroke="#2071B5" stroke-width="4.21" stroke-linecap="round" stroke-linejoin="round"/>
<path d="M250.79 276.75V284.64" stroke="#2071B5" stroke-width="4.21" stroke-linecap="round" stroke-linejoin="round"/>
<path d="M145.04 239.87C144.58 242.49 144.94 245.13 144.83 247.76" stroke="#2071B5" stroke-width="4.21" stroke-linecap="round" stroke-linejoin="round"/>
<path d="M248.44 189.77C247.25 188.79 245.88 189.52 244.6 189.37C243.41 189.23 242.19 189.34 240.98 189.34" stroke="#2071B5" stroke-width="4.21" stroke-linecap="round" stroke-linejoin="round"/>
<path d="M362.29 210.66C363.03 211.84 362.91 213.22 363.11 214.5C363.3 215.72 362.96 216.77 361.45 217.09C360.83 217.22 359.94 217.49 360.27 218.55" stroke="#2071B5" stroke-width="4.21" stroke-linecap="round" stroke-linejoin="round"/>
<path d="M151.86 252.66C151.42 254.28 151.75 255.93 151.65 257.56C151.6 258.34 151.8 259.15 151.44 259.91" stroke="#2071B5" stroke-width="4.21" stroke-linecap="round" stroke-linejoin="round"/>
<path d="M219.88 177.59C220.2 177.96 220.1 179.04 220.1 179.53C220.06 183.23 220.18 186.93 219.88 190.62" stroke="#2071B5" stroke-width="4.21" stroke-linecap="round" stroke-linejoin="round"/>
<path d="M295.13 102.14C295.74 104.39 294.95 106.72 295.56 108.96" stroke="#2071B5" stroke-width="4.21" stroke-linecap="round" stroke-linejoin="round"/>
<path d="M167.94 120.18C174.89 116.68 176.13 124.01 175.1 128.79" stroke="#2071B5" stroke-width="4.21" stroke-linecap="round" stroke-linejoin="round"/>
<path d="M311.34 211.94C309.38 213.31 307.22 214.23 304.94 214.92" stroke="#2071B5" stroke-width="4.21" stroke-linecap="round" stroke-linejoin="round"/>
<path d="M359.31 252.66C355.27 253.62 351.48 255.32 347.58 256.7C347.39 256.77 347.16 256.7 346.94 256.7" stroke="#2071B5" stroke-width="4.21" stroke-linecap="round" stroke-linejoin="round"/>
<path d="M346.94 384.63C349.12 385.29 351 386.62 353.12 387.4" stroke="#2071B5" stroke-width="4.21" stroke-linecap="round" stroke-linejoin="round"/>
<path d="M207.3 109.39C206.93 111.22 207.88 113.15 206.87 114.93" stroke="#2071B5" stroke-width="4.21" stroke-linecap="round" stroke-linejoin="round"/>
<path d="M259.96 224.73C260.08 226.5 259.7 228.3 260.17 230.06" stroke="#2071B5" stroke-width="4.21" stroke-linecap="round" stroke-linejoin="round"/>
<path d="M219.66 185.5C217.82 185.34 216.19 184.29 214.33 184.22" stroke="#2071B5" stroke-width="4.21" stroke-linecap="round" stroke-linejoin="round"/>
<path d="M353.34 249.04C353.88 250.71 353.21 252.49 353.77 254.16" stroke="#2071B5" stroke-width="4.21" stroke-linecap="round" stroke-linejoin="round"/>
<path d="M257.18 283.79C257.77 285.39 257.46 287.05 257.46 288.77" stroke="#2071B5" stroke-width="4.21" stroke-linecap="round" stroke-linejoin="round"/>
<path d="M248.03 342.85C247.97 344.2 248.01 345.55 248.01 346.9" stroke="#2071B5" stroke-width="4.21" stroke-linecap="round" stroke-linejoin="round"/>
<path d="M289.16 188.28C289.63 190.33 289.24 192.4 289.37 194.46C289.42 195.24 289.22 196.05 289.58 196.81" stroke="#2071B5" stroke-width="4.21" stroke-linecap="round" stroke-linejoin="round"/>
<path d="M283.83 273.77C284.48 275.51 284.09 277.16 284.04 279.81" stroke="#2071B5" stroke-width="4.21" stroke-linecap="round" stroke-linejoin="round"/>
<path d="M269.98 189.13V192.33" stroke="#2071B5" stroke-width="4.21" stroke-linecap="round" stroke-linejoin="round"/>
<path d="M351.84 238.16C351.34 237.24 350.55 236.61 349.71 236.03" stroke="#2071B5" stroke-width="4.21" stroke-linecap="round" stroke-linejoin="round"/>
<path d="M230.89 262.76C233.15 262.37 237.21 263.4 236.87 264.67C236.28 266.93 233.27 270.3 230.05 269.33C227.41 268.53 227.05 263.88 230.77 262.67" stroke="#2071B5" stroke-width="4.21" stroke-linecap="round" stroke-linejoin="round"/>
<path d="M247.09 216.93C249.35 216.54 253.41 217.57 253.07 218.84C252.48 221.1 249.47 224.47 246.25 223.5C243.61 222.7 243.25 218.05 246.97 216.84" stroke="#2071B5" stroke-width="4.21" stroke-linecap="round" stroke-linejoin="round"/>
<path d="M297.83 200.72C300.09 200.33 304.15 201.36 303.81 202.63C303.22 204.89 300.21 208.26 296.99 207.29C294.35 206.49 293.99 201.84 297.71 200.63" stroke="#2071B5" stroke-width="4.21" stroke-linecap="round" stroke-linejoin="round"/>
<path d="M201.42 200.34C203.68 199.95 207.74 200.98 207.4 202.25C206.81 204.51 203.8 207.88 200.58 206.91C197.94 206.11 197.58 201.46 201.3 200.25" stroke="#2071B5" stroke-width="4.21" stroke-linecap="round" stroke-linejoin="round"/>
<path d="M331.73 234.03C333.99 233.64 338.05 234.67 337.71 235.94C337.12 238.2 334.11 241.57 330.89 240.6C328.25 239.8 327.89 235.15 331.61 233.94" fill="#FFDA00" fill-opacity="0.7"/>
<path d="M331.73 234.03C333.99 233.64 338.05 234.67 337.71 235.94C337.12 238.2 334.11 241.57 330.89 240.6C328.25 239.8 327.89 235.15 331.61 233.94" stroke="#2071B5" stroke-width="4.21" stroke-linecap="round" stroke-linejoin="round"/>
<path d="M169.35 166.32C169.98 169.98 169.57 170.58 172.62 172.77C173.67 171.95 174.52 171.03 174.25 169.52C173.89 167.51 173.78 165.25 171.67 164.25C170.13 163.52 169.73 164.98 169.35 166.11" fill="#FFDA00" fill-opacity="0.7"/>
<path d="M169.35 166.32C169.98 169.98 169.57 170.58 172.62 172.77C173.67 171.95 174.52 171.03 174.25 169.52C173.89 167.51 173.78 165.25 171.67 164.25C170.13 163.52 169.73 164.98 169.35 166.11" stroke="#2071B5" stroke-width="4.21" stroke-linecap="round" stroke-linejoin="round"/>
<path d="M198.55 176.5C199.08 179.58 198.73 180.09 201.31 181.93C202.19 181.24 202.91 180.47 202.68 179.19C202.37 177.5 202.28 175.59 200.5 174.75C199.2 174.13 198.87 175.37 198.55 176.32" fill="#FFDA00" fill-opacity="0.7"/>
<path d="M198.55 176.5C199.08 179.58 198.73 180.09 201.31 181.93C202.19 181.24 202.91 180.47 202.68 179.19C202.37 177.5 202.28 175.59 200.5 174.75C199.2 174.13 198.87 175.37 198.55 176.32" stroke="#2071B5" stroke-width="4.21" stroke-linecap="round" stroke-linejoin="round"/>
<path d="M200.69 134.98C201.98 132.95 201.89 130.21 200.48 128.58C199.32 127.25 197.7 127.55 197.07 129.22C196.5 130.74 197.37 134.31 198.56 135.41C199.38 136.17 200.05 135.95 200.7 135.19" fill="#FFDA00" fill-opacity="0.7"/>
<path d="M200.69 134.98C201.98 132.95 201.89 130.21 200.48 128.58C199.32 127.25 197.7 127.55 197.07 129.22C196.5 130.74 197.37 134.31 198.56 135.41C199.38 136.17 200.05 135.95 200.7 135.19" stroke="#2071B5" stroke-width="4.21" stroke-linecap="round" stroke-linejoin="round"/>
<path d="M172.55 128.19C173.84 126.16 173.75 123.42 172.34 121.79C171.18 120.46 169.56 120.76 168.93 122.43C168.36 123.95 169.23 127.52 170.42 128.62C171.24 129.38 171.91 129.16 172.56 128.4" fill="#FFDA00" fill-opacity="0.7"/>
<path d="M172.55 128.19C173.84 126.16 173.75 123.42 172.34 121.79C171.18 120.46 169.56 120.76 168.93 122.43C168.36 123.95 169.23 127.52 170.42 128.62C171.24 129.38 171.91 129.16 172.56 128.4" stroke="#2071B5" stroke-width="4.21" stroke-linecap="round" stroke-linejoin="round"/>
</svg>
