<?xml version="1.0" encoding="UTF-8"?>
<svg id="icons" xmlns="http://www.w3.org/2000/svg" viewBox="0 0 500 500">
  <defs>
    <style>
      .cls-1 {
        fill: none;
        stroke: #000;
        stroke-linecap: round;
        stroke-linejoin: round;
        stroke-width: .9px;
      }
    </style>
  </defs>
  <path class="cls-1" d="M346.96,65.29c-2.72-1.37-9.41-1.52-10.74-1.65-3.1-.3-6.19-.84-9.27-1.22-2.85-.34-5.7-.73-8.56-1.03-3.02-.32-6.03-.86-9.04-1.23-2.77-.34-5.56-.69-8.34-1.01-4.01-.46-7.98-1.19-11.98-1.71-2.91-.38-5.86-.69-8.79-.99-3.02-.31-6.02-.79-9.03-1.12-3.02-.34-6.02-.73-9.03-1.15-3.53-.49-7.08-.94-10.62-1.26-4.08-.37-8.13-.88-12.18-1.45-3.09-.43-6.19-.77-9.27-1.27-3.96-.65-7.87.45-11.72,1.31-6.77,1.51-13.54,3.04-20.32,4.49-9.93,2.12-19.86,4.26-29.79,6.34-1.16.24-2.31.63-3.16,1.56"/>
  <path class="cls-1" d="M337.43,67.4c2.9-3.95,9.23-3.99,12.81.54,1.77,2.23,2.28,4.84,2.64,7.48.28,2.04,1.36,2.93,3.21,3.15,3.17.38,6.34,1.06,9.49,1.24,5.25.31,8.93,4.89,9.96,10.05.38,1.89.42,3.76.42,5.65,0,22.42,0,44.85,0,67.27,0,1.37-.21,2.71-.43,4.07-.44,2.63-2.28,3.79-4.55,4.47-.52.16-1.05.32-1.57.48-4.49,1.32-4.78,1.63-4.73,6.34.5,41.61.08,83.22.22,124.84,0,2.11-.34,4.2-.24,6.32.08,1.73-.31,3.55,1.31,4.9,1.27-.17,2.71-.41,4.13-.81,2.72-.77,5.07.83,5.4,3.59.07.59.01,1.2.01,1.8,0,22.8.03,45.6-.02,68.4-.01,6.74-1.49,11.35-9.92,13.77-3.41.98-6.75,2.19-10.16,3.17-1.69.49-2.63,1.42-2.77,3.38-.17,2.27-.14,4.52-.15,6.78-.03,7.48-1.63,9.44-8.81,11.54-10.76,3.15-21.54,6.24-32.29,9.46-14.89,4.46-29.85,8.7-44.7,13.31-.51.16-1.17.06-1.56.27-3.57,1.96-7.28,1.02-10.85.36-7.81-1.45-15.66-2.68-23.48-4.06-7.3-1.28-14.61-2.48-21.91-3.79-6.54-1.18-13.09-2.3-19.63-3.41-6.55-1.11-13.1-2.21-19.64-3.37-4.52-.8-9.07-1.47-13.54-2.49-5.52-1.26-9.63-4.6-9.67-12.16-.11-19.34-.04-38.68-.04-58.02"/>
  <path class="cls-1" d="M127.18,275.25c.18,4-.02,4.29-.02,5.36.03,22.88,0,45.75.05,68.63,0,4.07,1.46,7.61,5.2,9.66,1.75.96,3.88,1.06,5.85,1.37,6.29.96,12.65,1.3,18.95,2.15,5.66.76,11.32,1.57,16.96,2.52,3.57.6,7.21,1.03,10.81,1.52,4.15.56,8.28,1.36,12.43,1.95,3.61.52,7.24.95,10.83,1.61,4.43.82,8.9,1.42,13.34,2.14,3.43.55,6.88,1.19,10.36,1.49,3.48.3,6.97.72,10.37,1.41,3.08.63,5.76-.5,8.59-1,4.75-.85,9.24-2.74,14-3.6"/>
  <path class="cls-1" d="M210.03,428.02c3.97-.98,7.81-2.26,10.83-5.2,4.57-4.45,6.26-10.05,6.07-16.25-.2-6.81-2.62-12.9-7.02-18.02-3.6-4.19-8.21-7.22-13.74-8.09-4.93-.78-9.62.43-13.52,3.77-4.9,4.2-6.89,9.69-7.02,16.02-.11,5.37.35,10.59,3.16,15.36,2.09,3.55,5.03,6.18,8.32,8.63,3.85,2.87,8.09,3.72,12.69,3.67"/>
  <path class="cls-1" d="M355.18,125.75c.48.71.21,1.51.21,2.26.02,49.36.02,98.72.02,148.09,0,9.71.19,19.42-.05,29.12-.3,12.42-.05,24.83-.17,37.25,0,.83-.16,1.68.22,2.48"/>
  <path class="cls-1" d="M342.09,149.45c0,28.67,0,57.34.02,86.01,0,.75-.27,1.55.21,2.26"/>
  <path class="cls-1" d="M250.89,160.74c-1.4,1.07-3.1,1.19-4.73,1.61-2.72.7-5.66.46-8.16,2.19-1.89,1.32-2.68,3.28-3.04,5.24-.32,1.74-.6,3.55-.6,5.4.07,23.7.04,47.41.04,71.11"/>
  <path class="cls-1" d="M225.16,245.62c-.18,17.76.31,35.52.24,53.28-.07,17.68-.01,35.37-.01,53.05"/>
  <path class="cls-1" d="M146.82,144.71c-.43-1.93-.68-3.89-.68-5.87,0-19.56,0-39.13,0-58.69,0-3.14.58-6.19,1.86-9.01,1.58-3.48,4.7-5.11,8.31-5.89,2.24-.48,4.49-.9,6.77-1.12.87-.08,1.76-.19,2.5.64.9,1.02,2.22.53,3.36.71,11.02,1.77,22.12,2.88,33.18,4.29,8.72,1.11,17.46,2.07,26.19,3.17,13.55,1.7,27.08,3.54,40.64,5.14.78.09,1.32.4,1.8.93"/>
  <path class="cls-1" d="M277.08,165.25c0,23.4-.2,46.81.06,70.21.23,20.92.35,41.84.28,62.76-.11,34.09.02,68.17-.06,102.26,0,.62-.99,2.04.85,2.03"/>
  <path class="cls-1" d="M246.83,162.77c-.65,2.1-2.1,3.86-2.5,6.09-.73,4.12-.66,8.27-.66,12.42,0,22.12,0,44.25,0,66.37"/>
  <path class="cls-1" d="M337.12,67.17c-3.57-.35-6.78,1.26-10.15,1.94-9.9,1.97-19.69,4.47-29.57,6.56-5.28,1.12-10.6,2.15-15.8,3.61-2.55.71-5.13.22-7.69.6-4.21.62-8.46,1.13-12.6,2.02-1.79.38-3.22-.19-4.77-.27-3.93-.21-7.84-.9-11.74-1.48-3-.45-6.03-.61-9.03-1.1-3.44-.56-6.93-.88-10.39-1.29-3.15-.37-6.32-.6-9.47-1-4.59-.58-9.19-1.17-13.78-1.71-4.35-.51-8.72-1.01-13.08-1.45-4.3-.43-8.58-1.03-12.87-1.58-4.89-.63-9.78-1.25-14.67-1.8-2.3-.26-3.35,1.3-4.27,2.95-1.52,2.72-2.22,5.68-2.27,8.8"/>
  <path class="cls-1" d="M276.85,366.84c-3.92,1.1-7.9,1.99-11.51,3.15v78.56"/>
  <path class="cls-1" d="M265.11,167.74c.51,6.39.11,12.79.21,19.19.03,1.8.01,3.61.01,5.42,0,45.07-.01,90.15.02,135.22,0,5.42-.29,10.84.21,16.25"/>
  <path class="cls-1" d="M315.68,68.41c-3.79-.23-7.53-.81-11.3-1.28-3.98-.49-7.97-.9-11.96-1.42-4.37-.57-8.73-1.27-13.1-1.71-4.37-.44-8.71-1.05-13.08-1.51-4.23-.44-8.48-.76-12.66-1.72-1.07-.25-2.25-.04-3.38-.04"/>
  <path class="cls-1" d="M127.18,275.87v-118.74c0-2.26,1.35-4.06,2.26-6.32,6.77-4.06,14.9-6.32,23.03-5.42,4.51.9,8.58,1.35,13.09,2.26,25.28,3.16,49.66,6.77,74.95,9.93,5.42.9,10.84,2.26,16.25,2.71,2.71,0,5.42-1.81,8.13-1.81"/>
  <path class="cls-1" d="M192.65,228.24v9.26c0,2.26-.45,4.51-1.81,6.77-6.32,8.13-11.74,15.8-18.06,23.93-2.71,3.61-5.42,6.77-7.22,10.84l1.95,12.44c1.42,1.25,26.25-34.14,28.98-40.43,2.34-5.41,1.57-4.74,1.57-8.91,0-5.05.43-4.52-.22-12.76"/>
  <path class="cls-1" d="M192.87,146.07c10.96,1.68,21.99,2.9,32.97,4.44,8.48,1.19,17,2.14,25.49,3.27,4.68.62,9.34,1.42,14,2.23"/>
  <path class="cls-1" d="M138.02,161.87c8.14,1.22,16.25,2.61,24.39,3.75,5.64.79,11.29,1.56,16.9,2.45,12.86,2.04,25.77,3.69,38.62,5.75,1.88.3,3.77.47,5.65.85,1.28.26,1.58.8,1.57,1.88,0,.38,0,.75,0,1.13v67.27"/>
  <path class="cls-1" d="M137.74,161.87c.04,17.01-.66,38.3-.91,55.31-.21,14.07-.02,28.14-.18,42.21-.01,1.17-.13,3.48-.07,10.74"/>
  <path class="cls-1" d="M367.37,171.12c-.38-.8-.22-1.65-.22-2.48,0-22.35,0-44.7-.01-67.05,0-7.3-.22-8.69-11.03-9.32"/>
  <path class="cls-1" d="M154.95,82.63v56.66"/>
  <path class="cls-1" d="M205.97,390.32c-3.11-1.58-6.71-.35-8.81,2.93-4.41,6.88-2.31,18.95,4.51,23.04,2.93,1.76,5.8,3.02,9.28,1.37,3.79-1.8,5.63-4.95,6.03-8.84.63-6.25-1.37-11.69-6.05-16.01-1.34-1.23-2.89-2.16-4.73-2.5"/>
  <path class="cls-1" d="M342.09,415.38c-7.79,2.46-15.61,4.79-23.46,7.06-12.07,3.49-24.05,7.32-36.13,10.79-1.58.45-3.14.96-4.74,1.34"/>
  <path class="cls-1" d="M342.77,116.27c-3.35.38-6.65,1.09-9.92,1.85-6.33,1.47-12.67,2.9-18.98,4.43-7.2,1.75-14.45,3.32-21.65,5.05-8.91,2.14-17.82,4.25-26.68,6.59-2.96.78-6.04,1.76-9.22,1.72"/>
  <path class="cls-1" d="M331.25,151.48c-18.04,4.51-36.07,9.06-54.18,13.32"/>
  <path class="cls-1" d="M271.21,80.6c.1,1.05-.4,1.8-1.12,2.49-3.1,2.94-4.47,6.67-4.49,10.83-.07,13.32-.03,26.64-.03,39.96"/>
  <path class="cls-1" d="M331.25,351.72c-4.57,1.08-9.03,2.59-13.56,3.77-11.09,2.89-22.07,6.21-33.17,9.07-2.26.58-4.41,1.59-6.77,1.83"/>
  <path class="cls-1" d="M366.92,342.24c0,12.11-.12,24.23.05,36.34.08,5.74-1.46,8.85-7.96,10.8-5.25,1.57-10.51,3.12-15.76,4.67-3.16.93-6.42,1.64-9.52,2.93v5.54"/>
  <path class="cls-1" d="M342.99,116.49c.82,2.52.68,5.28,2.02,7.68,2.39,4.28,6.72,4.59,9.72.67,3.54-4.62,3.8-12.02.43-17.14-1.72-2.61-6.41-3.4-9.46,1.11-.99,1.46-1.75,3.04-1.96,4.75-.12.98-.5,1.8-.74,2.7"/>
  <path class="cls-1" d="M154.95,362.55c0,19.71,0,39.43,0,59.14,0,3.02.19,6,2.04,8.57.39.54.09,1.07.21,1.59"/>
  <path class="cls-1" d="M324.03,242.23c-6.86,2.05-13.85,3.59-20.79,5.34-6.53,1.65-13.06,3.29-19.62,4.8-2.05.47-4.11.89-6.09,1.6"/>
  <path class="cls-1" d="M210.03,428.24c.07.84.36,1.27,1.35,1.39,11.81,1.44,23.46,3.85,35.21,5.65,5.22.8,10.42,1.77,15.58,2.88.5.11,1.05.01,1.58.01"/>
  <path class="cls-1" d="M204.84,98.89c-2.44-.73-4.25.54-5.85,2.05-3.03,2.85-4.23,6.6-4.25,10.59-.02,4.84,1.18,9.37,4.9,12.87,6.33,5.95,13.31,3.78,16.37-3.44,3.13-7.38.19-17.93-8.48-21.8-.68-.31-1.57-.95-2.46-.27"/>
  <path class="cls-1" d="M331.48,118.98c0,23.25-.23,46.51.08,69.75.22,16.63.36,33.26.38,49.89,0,.53-.1,1.09.22,1.58"/>
  <path class="cls-1" d="M254.06,94.06c-3.08-.51-6.19-.8-9.27-1.23-6.68-.93-13.4-1.57-20.08-2.53-4.51-.65-9.02-1.27-13.54-1.81-.46-.05-.79.21-1.13.45"/>
  <path class="cls-1" d="M238.47,163.9c-2.28-1.15-4.82-.87-7.23-1.31-4.11-.74-8.28-1.23-12.42-1.75-3.76-.47-7.5-1.08-11.27-1.51-3.4-.38-6.77-1.04-10.17-1.5-3.91-.53-7.83-1.06-11.73-1.63-3.55-.52-7.09-1.2-10.63-1.68-3.68-.49-7.35-1.09-11.05-1.48-3.85-.41-7.67-1.09-11.52-1.52-4.9-.56-9.75-1.54-14.67-1.81-1.22-.07-1.94-.34-2.03-1.62"/>
  <path class="cls-1" d="M342.09,349.01c0,14.22,0,28.44,0,42.67,0,.83-.16,1.68.22,2.48"/>
  <path class="cls-1" d="M331.93,240.65c.46,13.99.12,27.99.23,41.99,0,.38-.2.82.22,1.13"/>
  <path class="cls-1" d="M342.09,238.4c0,13.47,0,26.94.02,40.41,0,.75-.27,1.55.21,2.26"/>
  <path class="cls-1" d="M137.18,288.69c-.26,3.34-.28,6.59-.28,7.5,0,13.17,0,26.34,0,39.5"/>
  <path class="cls-1" d="M342.09,281.74c0,21.45,0,42.89.02,64.34,0,.75-.27,1.55.21,2.26"/>
  <path class="cls-1" d="M167.68,187.38c-1.84,3.48-2.74,4.29-4.42,7.88-4.08,8.75-6.55,17.89-6.43,27.56.05,4.13,0,8.34,1.05,12.42"/>
  <path class="cls-1" d="M259.47,82.41c-3.62,4.15-3.71,9.09-3.44,14.22.19,3.6-.02,7.22-.08,10.83-.08,4.28.23,8.58.12,12.87-.21,8.13-.25,16.25-.17,24.38.02,2.33-.21,4.67.17,7,.13.83.16,1.73-.43,2.48"/>
  <path class="cls-1" d="M225.38,352.62c0,1.81.02,3.61,0,5.42-.03,2.91-1.23,4.01-4.06,3.6-8.51-1.25-17.02-2.49-25.52-3.79-9.7-1.49-19.41-2.9-29.11-4.36-6.03-.91-12.06-1.8-18.07-2.88-2.77-.5-5.58-.85-8.35-1.38-2.86-.55-3.39-1.21-3.39-4.06v-5.64"/>
  <path class="cls-1" d="M167.51,291.47c-4.78.28-10.53-.96-17.92-1.59-4.74-.4-9.34-1.56-14.35-1.49v-15.35"/>
  <path class="cls-1" d="M243.67,262.32c0,20.54-.11,41.09.04,61.63.08,11.59,0,23.18.26,34.76.13,5.49-.19,11,.38,16.48"/>
  <path class="cls-1" d="M160.92,180.96c0-3.07,0-3.37.04-5.1.02-.72-.07-1.5-.03-2.18,4.1-.44,8.08.49,12.08,1.08,4.66.69,9.33,1.35,14.01,1.96,6.32.82,12.61,1.86,18.95,2.55,1.58.17,3.16.52,4.75.62,1.84.11,2.68.99,2.7,2.75.03,1.81,0,3.61,0,5.42,0,23.7,0,47.41,0,71.11,0,3.09,0,6.17,0,9.26"/>
  <path class="cls-1" d="M332.16,287.83c-.47,4.81-.34,9.65-.16,14.44.3,7.83-.21,15.66.38,23.48"/>
  <path class="cls-1" d="M201,88.05c-3.32-.98-6.78-.84-10.16-1.32-11.19-1.58-22.43-2.84-33.64-4.28"/>
  <path class="cls-1" d="M234.41,246.97c0,21.82,0,43.64,0,65.47,0,6.02-.42,12.04-.18,18.06.28,7,.08,14,.17,21,0,.67.3,1.4-.21,2.03"/>
  <path class="cls-1" d="M277.08,91.21c0,11.29-.02,22.57.02,33.86,0,1.95-.24,3.93.21,5.87"/>
  <path class="cls-1" d="M313.42,331.18c-3.48.54-6.76,1.84-10.16,2.71-10.19,2.61-20.32,5.4-30.47,8.14-8.35,2.25-16.79,4.22-25.07,6.74-.48.15-1.05.02-1.57.02"/>
  <path class="cls-1" d="M266.92,406.57c2.9.22,5.7,1,8.57,1.41,4.45.64,8.9,1.39,13.33,2.19,4.3.78,8.58,1.67,12.87,2.47,4.59.85,9.16,1.77,13.76,2.56,4.07.7,8.2,1.11,12.21,2.19.77.21,1.65.03,2.48.03"/>
  <path class="cls-1" d="M155.18,420.12c3.93-.12,7.68,1.01,11.51,1.59,6.94,1.04,13.82,2.4,20.76,3.41,2.96.43,5.89,1.11,8.81,1.76,1.12.25,2.3.49,3.38-.21"/>
  <path class="cls-1" d="M197.84,228.69c-6.69-.93-33.05-4.37-39.73-5.41-.37-.06-.75,0-1.13,0"/>
  <path class="cls-1" d="M206.19,194.38c.21,4.64-1.78,8.7-3.38,12.87-2.66,6.91-5.02,13.9-4.97,21.44"/>
  <path class="cls-1" d="M198.06,242.12c-3.36-.82-8.22-1.84-9.91-2.13-6.68-1.15-13.37-2.2-20.1-2.98-3.4-.39-6.8-.84-10.16-1.55"/>
  <path class="cls-1" d="M277.08,131.85c0,9.93,0,19.87,0,29.8,0,.98-.07,1.97.22,2.93"/>
  <path class="cls-1" d="M187.46,143.81c-4.21-.52-8.44-.94-12.64-1.59-3.68-.57-7.39-.98-11.06-1.57-4.06-.65-8.16-.96-12.21-1.7-1.66-.3-3.42-.71-5.17-.55"/>
  <path class="cls-1" d="M342.54,118.07c-.6.49-.45,1.17-.45,1.81,0,9.41,0,18.81,0,28.22,0,.25-.05.52.23.68"/>
  <path class="cls-1" d="M246.6,58.93c-3.54.26-6.94,1.26-10.38,2.03-6.47,1.44-12.98,2.68-19.42,4.28-.28.07-.6,0-.9,0"/>
  <path class="cls-1" d="M185.65,406.57c-2.63-.02-4.98,1.15-7.46,1.78-7.51,1.91-14.91,4.17-22.35,6.34-.21.06-.45,0-.67,0"/>
  <path class="cls-1" d="M255.41,373.39c.37.63.46,1.3.46,2.03-.01,10.46-.01,20.92-.01,31.38v30.02"/>
  <path class="cls-1" d="M190.17,135.45c-5.43-.54-10.82-1.45-16.25-2.07-3.46-.4-6.93-.81-10.39-1.31"/>
  <path class="cls-1" d="M366.02,314.47c1.2,2.45.89,5.09.9,7.68.02,5.79,0,11.59.01,17.38,0,.76-.14,1.53.22,2.26"/>
  <path class="cls-1" d="M205.74,390.55c-2.79,2.63-4.43,5.71-4.09,9.71.24,2.9.97,5.6,2.76,7.88,1.88,2.38,4.04,4.44,7.43,4.34.26,0,.55.37.9.42"/>
  <path class="cls-1" d="M163.53,162.77c4.08.43,8.14.97,12.19,1.57,2.93.43,5.87.77,8.81,1.08,2.49.26,4.91,1.05,7.44.96"/>
  <path class="cls-1" d="M265.34,344.49c0,7.68,0,15.35,0,23.03,0,.76-.14,1.53.22,2.26"/>
  <path class="cls-1" d="M331.9,327.57c.14,2.25,2.48,58.75,1.84,64.15"/>
  <path class="cls-1" d="M342.09,77.67c0,11.74,0,23.48,0,35.22,0,.84-.26,1.76.44,2.48"/>
  <path class="cls-1" d="M157.88,235.23c.49,1.16-22.18,35.68-22.52,37.03-.36,1.45,0,2.39,1.96,2.79,4.42.89,8.86,1.45,13.33,1.96,4.82.55,9.61,1.34,14.45,1.78"/>
  <path class="cls-1" d="M167.59,343.82c4.93.3,9.8,1.16,14.66,1.88,9.64,1.43,19.28,2.92,28.91,4.44,7.89,1.24,15.83,2.23,23.7,3.63,2.93.52,5.85,1.04,8.81,1.34"/>
  <path class="cls-1" d="M167.68,187.38c4.58.85,5.19,1.13,7.37,1.5,4.93.85,9.92,1.43,14.88,2.16,4.44.66,11.81,2.76,16.26,3.33"/>
  <path class="cls-1" d="M323.35,221.01c1.16,8.4,1.07,16.85.84,25.28-.15,5.59-.48,11.21-1.72,16.71-.16.72-.02,1.5-.02,2.25"/>
  <path class="cls-1" d="M354.96,278.35c-3.11.24-6.04,1.3-9.02,2.06-7.77,1.97-15.52,4.01-23.25,6.11-4.23,1.15-8.52,2.08-12.66,3.55-.33.12-.75.02-1.12.02"/>
  <path class="cls-1" d="M265.56,134.55c0,10.91.06,21.82-.23,32.73"/>
  <path class="cls-1" d="M213.64,284.67c.78,6.53.34,13.09.45,19.64.01.62-.15,1.36.91,1.13"/>
  <path class="cls-1" d="M234.41,353.98c0,3.39-.02,6.77,0,10.16.02,3.06.31,6.04,2.69,8.37.3.3.33.86.24,1.34"/>
  <path class="cls-1" d="M304.84,84.67c-3.31.33-6.46,1.4-9.71,2.03-3.25.63-6.38,1.79-9.71,2.03"/>
  <path class="cls-1" d="M342.09,395.06c0,8.58,0,17.16,0,25.73,0,1.38.08,2.73.46,4.06"/>
  <path class="cls-1" d="M166.69,343.37c-4.11-.2-8.12-1.15-12.19-1.57-2.11-.22-4.18-.81-6.32-.69"/>
  <path class="cls-1" d="M205.98,99.11c-4.87,4.32-2.5,12.46-.15,16.16,2.01,3.17,7.09,5.43,10.01,5.29"/>
  <path class="cls-1" d="M219.96,137c2.34.79,4.81.84,7.23,1.1,4.89.51,9.74,1.46,14.67,1.61"/>
  <path class="cls-1" d="M331.03,78.8c-3.23.37-6.3,1.44-9.48,2.02-3.76.69-7.39,2.11-11.28,2.05"/>
  <path class="cls-1" d="M263.31,361.42c-5.31,1.12-10.54,2.55-15.79,3.88-.63.16-1.22.06-1.82.18"/>
  <path class="cls-1" d="M214.09,314.7v17.61"/>
  <path class="cls-1" d="M294.91,294.15c-4.5.79-8.86,2.18-13.3,3.23-1.27.3-2.62.52-3.85,1.06"/>
  <path class="cls-1" d="M194,271.81c5.98,1.07,12,1.65,18.05,2.11,3.09.23,6.22.56,9.26,1.28"/>
  <path class="cls-1" d="M277.3,402.74c0,13.09,0,26.19,0,39.28,0,.76-.14,1.53.22,2.26"/>
  <path class="cls-1" d="M207.32,392.58c-.15,4.12.61,7.87,3.81,10.86,1.65,1.54,3.37,2.51,5.67,2.23"/>
  <path class="cls-1" d="M352.88,75.42c.45,1.51,2.51,6.15,2.52,7.22.02,7.75.01,15.5.02,23.25,0,.15,0,.3-.24.45"/>
  <path class="cls-1" d="M196.49,268.19c1.83,1.04,3.91.77,5.88,1.08,1.95.31,3.97.85,5.86.83,5.27-.05,10.34,1.56,15.58,1.48.27,0,.46-.14.68-.23"/>
  <path class="cls-1" d="M355.18,345.4c.11,4.36-.26,8.74.24,13.09.04.37-.26.58-.24.9"/>
  <path class="cls-1" d="M355.18,377.23c.54,5.26.04,10.54.23,15.8.13,3.61-.3,7.23.22,10.84"/>
  <path class="cls-1" d="M375.27,340.2c-3.2.02-6.23,1.09-9.23,1.9-7.76,2.08-15.44,4.42-23.27,6.24-1.21.28-2.28,1.13-3.61.9"/>
  <path class="cls-1" d="M355.18,145.62c-3.65,1.05-7.4,1.73-11.05,2.74-4.12,1.14-8.34,1.86-12.42,3.13"/>
  <path class="cls-1" d="M355.18,234.56c-3.5,1.05-7.08,1.79-10.61,2.7-6.68,1.72-13.4,3.28-20.09,4.97"/>
  <path class="cls-1" d="M231.7,55.77c-3.16-.4-6.34-.66-9.47-1.18-1.08-.18-2.12-.05-3.17-.17"/>
  <path class="cls-1" d="M256.08,437.27c-.63,3.91.02,7.83,0,11.74"/>
  <path class="cls-1" d="M366.92,142.91c-3.78.81-7.5,1.89-11.29,2.71"/>
  <path class="cls-1" d="M277.08,253.97c-3.55.7-6.99,1.91-10.61,2.26"/>
  <path class="cls-1" d="M192.42,347.65c.2,4.44.38,8.88.19,13.32-.28,6.47-.11,12.94-.21,19.42-.01.93.06,1.77.69,2.48"/>
  <path class="cls-1" d="M154.95,235.01c-5.11-.71-10.23-1.49-15.36-1.96-4.06-.37-8.06-1.44-12.18-1.2"/>
  <path class="cls-1" d="M337.8,67.73c3.28,2.24,4.05,5.58,4.33,9.49"/>
  <path class="cls-1" d="M154.5,152.84c0,2.34,0,4.67,0,6.99-5.59-.7-10.92-1.59-16.25-2.48"/>
  <path class="cls-1" d="M165.33,153.52v9.03"/>
  <path class="cls-1" d="M136.44,172.93c-3.03-.21-6.01-.87-9.03-1.13"/>
  <path class="cls-1" d="M364.66,232.75c-3.12.04-5.99,1.34-9.03,1.81"/>
  <path class="cls-1" d="M214.09,305.67c0,2.56,0,5.12,0,7.68,0,.62-.15,1.36.9,1.13"/>
  <path class="cls-1" d="M375.73,141.1c-2.87.19-5.54,1.32-8.35,1.81"/>
  <path class="cls-1" d="M320.64,210.18c.28,2.17,1.14,4.19,1.63,6.31.15.63.05,1.22.17,1.82"/>
  <path class="cls-1" d="M154.72,419.21c-2.76.16-5.4-.75-8.13-.9"/>
  <path class="cls-1" d="M147.73,151.26v7.45"/>
  <path class="cls-1" d="M154.95,139.97c.02,1.89.02,3.77-.23,5.64"/>
  <path class="cls-1" d="M246.15,398.9v9.03"/>
  <path class="cls-1" d="M245.92,402.51c-1.73-.18-3.43-.68-5.19-.45"/>
  <path class="cls-1" d="M276.85,435.02c-1.43-.05-2.63.98-4.06.9"/>
  <path class="cls-1" d="M332.16,284.45c.36,1.13-.6,2.06-.45,3.16"/>
  <path class="cls-1" d="M255.86,154.87c-.02,1.66.16,3.33-.23,4.97"/>
  <path class="cls-1" d="M350.44,358.49c-6.2,2.02-8.04,11.82-5.23,16.73,2.4,4.19,6.92,4.67,9.72.64,2.9-4.17,3.42-8.76,1.59-13.52-1.07-2.79-2.82-3.84-5.85-3.84"/>
  <path class="cls-1" d="M203.26,88.95c-8.08,1.82-13.65,6.38-16.28,14.44-3.51,10.75-.3,24.37,10.83,30.53,12.74,7.05,27.05-.91,28.87-14.73,1.35-10.25-1.95-19.05-9.94-25.65-3.7-3.06-8.26-4.72-13.26-4.59"/>
</svg>