<?xml version="1.0" encoding="UTF-8"?>
<svg id="icons" xmlns="http://www.w3.org/2000/svg" viewBox="0 0 500 500">
  <defs>
    <style>
      .cls-1 {
        fill: none;
        stroke: #000;
        stroke-linecap: round;
        stroke-linejoin: round;
        stroke-width: .99px;
      }
    </style>
  </defs>
  <path class="cls-1" d="M326.88,149.18c.35.96.24,1.97.24,2.96,0,40.07-.1,80.14.07,120.22.05,10.57,4.4,19.18,14.24,24.09,5.05,2.52,10.71,3.13,16.24,3.97,7.08,1.07,14.13,2.31,21.17,3.55,8.06,1.42,16.11,2.84,24.16,4.36,5.33,1.01,10.72,1.73,16.01,2.95,2.65.61,4.65,2.95,4.67,5.67.04,5.58.11,11.17-.03,16.75-.08,3.09-1.28,5.66-4.13,7.42-19.33,11.91-38.89,23.44-58.17,35.42-18.53,11.51-37.21,22.78-55.94,33.95-15.33,9.15-30.59,18.44-46.01,27.44-6.04,3.53-12.04,7.16-17.93,10.92-2.6,1.65-5.16,1.18-7.43.75-8.3-1.6-16.62-3.14-24.93-4.67-8.83-1.63-17.7-3.18-26.57-4.61-6.91-1.11-13.81-2.4-20.7-3.65-5.25-.95-10.52-1.76-15.77-2.7-5.99-1.08-11.99-2.14-17.99-3.19-6.08-1.06-12.16-2.12-18.22-3.28-7.06-1.35-14.22-2.08-21.22-3.79-1.9-.46-3.92-.74-5.89-1.09-3.65-.65-5.63-3.18-5.95-6.88-.39-4.43-.19-8.87-.37-13.31-.14-3.63-.03-7.59,4.84-8.62,11.87-8.36,25.13-14.27,37.71-21.4,9.85-5.58,19.81-10.95,29.75-16.36.75-.41,1.53-.55,2.25-.92"/>
  <path class="cls-1" d="M237.46,449.47c2.87-3.1,3.08-6.9,2.98-10.84-.11-4.1-.13-8.21,0-12.32.16-4.88-2.25-7-6.2-8.09-4.52-1.25-9.19-1.8-13.79-2.74-7.82-1.6-15.69-2.71-22.95-6.59-13.14-7.03-21.2-17.38-23.18-32.34-.41-3.06-.41-6.08-.41-9.12-.03-33.58.14-67.17-.09-100.75-.09-13.8-.07-27.59-.15-41.39-.03-4.43.84-8.66,3.15-12.58,3.58-6.07,9.11-8.47,15.8-8.84,5.36-.29,10.53,1.22,15.75,2.05,7.41,1.18,14.81,2.44,22.19,3.8,4.58.84,7.18-2.34,7.33-6.36.19-5.08.12-10.18.03-15.27-.08-4.53-2.45-6.93-6.87-7.66-13.79-2.25-27.59-4.45-41.38-6.68-14.46-2.34-28.9-4.8-43.36-7.14-13.06-2.11-26.08-4.48-39.17-6.37-7.23-1.05-14.42-2.35-21.68-3.18-.35-.04-.67-.19-.97-.29-1.59-.53-3.09-1.41-4.7.03-1.88,1.67-3.35,3.62-3.4,6.17-.11,6.24-.25,12.49.04,18.72.17,3.58,2.14,6.26,6.33,7.37,4.52,1.2,9.2,1.65,13.78,2.52,4.18.79,8.38,1.45,12.57,2.16,4.51.77,9.04,1.43,13.54,2.28,5.27,1,10.74,1.08,15.77,3.18,6.41,2.67,9.92,7.86,11.81,14.28,1.3,4.41,1.46,9,1.47,13.54.05,41.71.03,83.43.03,125.14,0,7.23.03,14.45-.01,21.68-.02,3.45-.42,6.9-1.76,10.08-1.36,3.22-3.84,5.54-6.82,7.45-5.9,3.76-12.2,6.73-19.02,7.95-5.23.93-10.63.57-16.01-.5-6.75-1.35-13.6-2.32-20.42-3.33-2.07-.31-4.29-.21-6.16-1.44"/>
  <path class="cls-1" d="M318.02,154.36c.42.87.24,1.8.24,2.71,0,39.99,0,79.98.01,119.97,0,7.81,2.85,14.49,8.12,20.21,7.51,8.16,17.27,11.65,27.85,13.27,11.36,1.74,22.66,3.82,33.98,5.74,6,1.02,12.12,1.57,17.97,3.24,6.8,1.95,10.9-2.39,15.54-5.75"/>
  <path class="cls-1" d="M238.45,199.44c2.29-.06,3.89-1.72,5.61-2.79,12.38-7.72,25.11-14.82,37.73-22.11,11.18-6.46,22.2-13.22,33.54-19.39,14.59-7.94,29.18-15.9,43.54-24.24,13.97-8.12,28.03-16.06,41.93-24.29,6.4-3.79,12.93-7.35,19.21-11.34,2.28-1.45,3.03-3.61,3.12-5.95.19-4.76.08-9.52.04-14.29-.02-2.26-2.28-4.23-5.16-4.69-5.57-.89-11.16-1.71-16.76-2.42-7.16-.91-14.28-2.06-21.42-3.07-10.27-1.46-20.55-2.78-30.8-4.37-8.78-1.36-17.58-2.62-26.37-3.84-9.61-1.33-19.21-2.64-28.8-4.09-5.1-.77-10.22-1.41-15.3-2.33-2.52-.45-5.19-.34-7.64,1.12-11.34,6.76-23.02,12.93-34.5,19.44-11.35,6.44-22.77,12.75-34.2,19.04-13.3,7.32-26.62,14.6-39.9,21.94-15.08,8.34-30.19,16.64-45.35,24.85-10.66,5.77-21.31,11.56-32.04,17.22-.91.48-1.76,1-2.21,1.98"/>
  <path class="cls-1" d="M420.5,71.83c-2.66,2.75-6.19,4.25-9.41,6.08-15.81,8.96-31.47,18.17-47.22,27.23-12.12,6.97-24.16,14.09-36.26,21.11-13.3,7.72-26.61,15.44-39.91,23.15-15.62,9.06-31.27,18.08-47,26.93-2.36,1.33-5.07,2.21-6.93,4.38"/>
  <path class="cls-1" d="M410.15,320.64c-.05,1.1-.92,1.29-1.71,1.75-19.64,11.47-39.27,22.96-58.85,34.52-13.88,8.2-27.8,16.34-41.66,24.59-11.77,7.01-23.54,14.04-35.3,21.07-10.87,6.49-21.97,12.59-32.71,19.31"/>
  <path class="cls-1" d="M184.01,213.48c.32,54.85-.65,109.71.49,164.56"/>
  <path class="cls-1" d="M158.88,212.98v166.04"/>
  <path class="cls-1" d="M307.92,160.02c.8,2.07.74,4.24.74,6.4,0,33.75.1,67.5-.11,101.25-.03,5.16-.36,10.34-.35,15.52,0,1.02-.58.65-1.02.74"/>
  <path class="cls-1" d="M303.73,171.11c0,37.36,0,74.72.06,112.09,0,.68-1.08,2.22.93,2.22"/>
  <path class="cls-1" d="M192.87,223.82v151.25"/>
  <path class="cls-1" d="M270,221.98v105.43"/>
  <path class="cls-1" d="M205.95,276.71c-.21,26.91.35,91.36,6.58,105.91,8.48,19.79,38.8,20.63,40.8,20.63"/>
  <path class="cls-1" d="M165.28,208.06v176.87"/>
  <path class="cls-1" d="M217.75,184.16c-3.58.1-5.78,1.94-6.37,5.43-.57,3.35.87,6.06,3.43,8.1,2.31,1.84,4.92,1.96,7.62.77,1.8-.79,3.96-4.18,3.42-6.66-.82-3.71-2.56-6.93-7.61-7.64"/>
  <path class="cls-1" d="M308.16,284.18v39.66"/>
  <path class="cls-1" d="M165.28,180.96v26.11"/>
  <path class="cls-1" d="M96.06,402.67c-3.46,1.6-5.69,4.08-5.14,8.12.52,3.79,2.46,6.36,6.34,7.73,3.98,1.41,8.52-2.24,8.94-5.75.62-5.18-3.82-11.15-9.9-10.11"/>
  <path class="cls-1" d="M95.57,165.69c-6.38,2.08-6.48,10.13-2.75,13.84,2.93,2.91,7.42,3.07,9.64,1.43,3.26-2.42,4.27-7.08,2.2-10.57-1.96-3.32-4.81-5.19-8.85-4.69"/>
  <path class="cls-1" d="M218.99,423.12c-4.54.91-7.2,4.39-6.4,8.38.96,4.77,5.24,8.1,9.6,7.1,5.41-1.25,7.5-7.15,4.16-12-1.64-2.37-4.11-3.6-7.1-3.48"/>
</svg>