<svg width="500" height="500" viewBox="0 0 500 500" fill="none" xmlns="http://www.w3.org/2000/svg">
<path d="M264 279C239.6 293.8 240.5 328.167 244 343.5C244.571 346 247.5 346 248 346L255.5 341C253 301.5 264 299 264 296.5C264 294 272 286.5 305.5 268.5C332.3 254.1 338.667 223.167 338.5 209.5L323 218C322.5 222.667 320.6 233.8 317 241C312.5 250 294.5 260.5 264 279Z" fill="#FFDA00" fill-opacity="0.7"/>
<path d="M219.39 411.55C227.36 410.91 229.33 403.97 227.93 397.55C226.21 389.66 222.33 382.84 215.48 378.16C213.7 376.94 211.7 376.04 209.49 375.43C204.47 374.05 202.03 377.03 200.8 380.69C199.15 385.61 199.7 390.5 201.36 395.12C203.46 401 206.79 406.15 212.47 409.43C214.59 410.65 216.81 411.26 219.18 411.55" fill="#FFDA00" fill-opacity="0.7"/>
<path d="M219.39 411.55C227.36 410.91 229.33 403.97 227.93 397.55C226.21 389.66 222.33 382.84 215.48 378.16C213.7 376.94 211.7 376.04 209.49 375.43C204.47 374.05 202.03 377.03 200.8 380.69C199.15 385.61 199.7 390.5 201.36 395.12C203.46 401 206.79 406.15 212.47 409.43C214.59 410.65 216.81 411.26 219.18 411.55" stroke="#2071B5" stroke-width="4.21" stroke-linecap="round" stroke-linejoin="round"/>
<path d="M323.17 218.24C329.55 214.53 335.9 210.77 342.36 207.21C344.1 206.25 345.66 204.94 347.11 203.55C348.39 202.32 347.66 200.51 348.18 199.03C348.34 198.58 348.2 198.03 348.2 197.53C348.2 169.63 348.2 141.72 348.2 113.82C348.2 111.5 348.06 109.17 347.53 106.92C346.71 103.5 344.38 101.28 341.54 99.3199C335.83 95.3999 329.57 92.4599 323.59 89.0399C315.17 84.2299 306.8 79.3399 298.37 74.5399C289.72 69.6099 281.19 64.4799 272.5 59.6099C267.33 56.7099 262.25 53.6799 256.95 50.9999C253.11 49.0499 249.18 47.8999 244.85 48.4399C243.24 48.6399 241.75 49.2699 240.33 49.9699C234.04 53.0599 227.84 56.3599 221.52 59.3699C218.41 60.8499 217.64 63.0899 217.66 66.1299C217.7 74.1099 217.82 82.0999 217.65 90.0799C217.21 110 217.2 129.92 217.26 149.84C217.27 154.16 218.95 157.62 223.07 159.55" stroke="#2071B5" stroke-width="4.21" stroke-linecap="round" stroke-linejoin="round"/>
<path d="M160.06 292.24C158.91 292.66 158.2 293.75 157.05 294.2C156.19 294.54 156.4 295.41 156.4 296.12C156.4 305.61 156.12 315.12 156.45 324.6C157.23 346.54 156.6 368.47 156.81 390.41C156.85 394.79 158.29 398.17 162.2 400.59C170.92 406.01 179.75 411.24 188.58 416.46C201.51 424.11 214.42 431.79 227.37 439.4C232.04 442.14 236.67 444.94 241.38 447.62C243.31 448.72 244.57 448.42 246.42 447.24C250.54 444.62 254.8 442.18 259.06 439.76C261.53 438.35 264.1 436.94 265.61 434.23C266.27 433.03 266.7 431.79 266.81 430.53C267.13 426.95 267.37 423.36 267.31 419.75C267.21 413.85 267.47 407.95 267.25 402.06C266.43 380.41 267.05 358.76 266.88 337.12C266.86 334.93 266.45 333.16 264.05 332.61C263 332.37 262.4 331.27 261.25 331.3" stroke="#2071B5" stroke-width="4.21" stroke-linecap="round" stroke-linejoin="round"/>
<path d="M219.39 61.1699C224.73 63.9499 230.17 66.5299 235.34 69.6099C243.54 74.4799 251.85 79.1599 260.21 83.7499C269.98 89.1199 279.6 94.7399 289.27 100.27C299.23 105.97 309.21 111.62 319.09 117.46C322.53 119.49 322.88 122.76 322.93 126.12C323.03 133.02 322.96 139.93 322.96 146.83C322.96 167.33 322.96 187.82 322.96 208.32C322.96 209.11 323.11 209.93 322.75 210.69" stroke="#2071B5" stroke-width="4.21" stroke-linecap="round" stroke-linejoin="round"/>
<path d="M340.65 208.75C341.05 213.87 340.83 218.96 340.26 224.07C339.59 230.04 338.09 235.77 335.89 241.32C333.62 247.03 330.35 252.13 326.45 256.89C320.11 264.61 311.99 269.97 303.55 275C294.13 280.62 284.36 285.62 275.26 291.79C269.35 295.8 264.9 300.89 262.79 307.79C261.85 310.86 261.24 314.01 261.21 317.27C261.18 321.15 260.53 325.03 260.84 328.92C261.07 331.8 260.33 334.71 261.25 337.55" stroke="#2071B5" stroke-width="4.21" stroke-linecap="round" stroke-linejoin="round"/>
<path d="M337.41 211.77C337.53 222.83 335.48 233.37 330.33 243.29C325.9 251.81 319.65 258.59 311.96 264.21C304.06 269.99 295.35 274.4 286.94 279.33C280.85 282.91 274.56 286.16 269.19 290.91C264.6 294.96 261.79 299.93 259.66 305.59C256.81 313.17 256.43 321.01 256.29 328.92C256.23 332.01 256.29 335.1 256.29 338.2" stroke="#2071B5" stroke-width="4.21" stroke-linecap="round" stroke-linejoin="round"/>
<path d="M222.84 161.71C222.05 162.3 222.41 163.15 222.43 163.87C222.55 169.24 222.17 174.6 221.04 179.82C219.76 185.72 216.84 190.91 212.95 195.61C206.26 203.69 198.4 210.56 190.67 217.56C181.81 225.59 174.26 234.56 169.14 245.43C165.68 252.78 163.12 260.4 161.96 268.5C160.96 275.53 160.71 282.58 160.7 289.65C160.7 291.81 160.07 293.99 160.92 296.12" stroke="#2071B5" stroke-width="4.21" stroke-linecap="round" stroke-linejoin="round"/>
<path d="M226.51 164.73C226.37 170.83 226.33 176.92 224.59 182.86C223.04 188.16 220.58 192.92 217.25 197.32C209.21 207.97 198.52 215.99 189.4 225.57C185.3 229.88 181.58 234.5 178.18 239.37C172.68 247.24 169 255.91 167 265.27C166.2 269.03 165.71 272.84 165.36 276.69C164.82 282.66 165 288.67 164.14 294.6C163.98 295.72 164.74 296.73 164.37 297.84" stroke="#2071B5" stroke-width="4.21" stroke-linecap="round" stroke-linejoin="round"/>
<path d="M343.02 107.34C341.88 105.32 340.4 103.75 338.3 102.55C328.23 96.79 318.05 91.24 308.02 85.42C298.19 79.71 288.35 73.99 278.52 68.28C272.25 64.64 265.91 61.12 259.73 57.31C256.82 55.52 253.86 53.74 250.46 52.98C247.08 52.22 243.83 52.67 240.75 54.27" stroke="#2071B5" stroke-width="4.21" stroke-linecap="round" stroke-linejoin="round"/>
<path d="M229.53 156.96C235.51 160.04 241.38 163.33 247.22 166.67C257.13 172.32 267 178.06 276.76 183.95C287.14 190.22 297.68 196.21 308.08 202.45C312.58 205.15 317.2 207.67 321.66 210.45C322.57 211.02 323.56 211.12 324.69 210.51C326.79 209.38 328.84 208.17 330.93 207.02" stroke="#2071B5" stroke-width="4.21" stroke-linecap="round" stroke-linejoin="round"/>
<path d="M343.02 110.79C344 135.09 343.3 159.41 343.37 183.71C343.39 189.74 343.52 195.8 343.01 201.83C342.98 202.15 343.27 202.67 342.59 202.69" stroke="#2071B5" stroke-width="4.21" stroke-linecap="round" stroke-linejoin="round"/>
<path d="M282.82 132.8C285.49 133.5 288.3 133.87 290.58 135.61C297.93 141.24 302.58 148.48 303.5 157.83C303.81 160.94 302.96 163.9 301.14 166.44C297.78 171.12 292.15 170.67 287.83 167.26C279.91 161.01 276.34 152.54 276.85 142.51C277.02 139.18 278.16 135.99 280.87 133.65C281.33 133.25 281.82 133.07 282.39 133.01" fill="#FFDA00" fill-opacity="0.7"/>
<path d="M282.82 132.8C285.49 133.5 288.3 133.87 290.58 135.61C297.93 141.24 302.58 148.48 303.5 157.83C303.81 160.94 302.96 163.9 301.14 166.44C297.78 171.12 292.15 170.67 287.83 167.26C279.91 161.01 276.34 152.54 276.85 142.51C277.02 139.18 278.16 135.99 280.87 133.65C281.33 133.25 281.82 133.07 282.39 133.01" stroke="#2071B5" stroke-width="4.21" stroke-linecap="round" stroke-linejoin="round"/>
<path d="M169.34 348.77C165.1 350.03 162.88 352.93 162.42 357.4C161.29 368.37 165.94 376.71 174.59 382.76C179.43 386.14 183.45 386.01 187.19 382.38C190.02 379.64 190.63 375.82 189.99 372.09C188.33 362.36 183.21 354.93 174.52 350.06C173.02 349.22 171.36 349.29 169.77 348.99" fill="#FFDA00" fill-opacity="0.7"/>
<path d="M169.34 348.77C165.1 350.03 162.88 352.93 162.42 357.4C161.29 368.37 165.94 376.71 174.59 382.76C179.43 386.14 183.45 386.01 187.19 382.38C190.02 379.64 190.63 375.82 189.99 372.09C188.33 362.36 183.21 354.93 174.52 350.06C173.02 349.22 171.36 349.29 169.77 348.99" stroke="#2071B5" stroke-width="4.21" stroke-linecap="round" stroke-linejoin="round"/>
<path d="M262.76 341.65C262.56 371.14 262.7 400.62 262.33 430.11" stroke="#2071B5" stroke-width="4.21" stroke-linecap="round" stroke-linejoin="round"/>
<path d="M160.49 301.09C159.89 302.89 160.54 304.68 160.53 306.48C160.45 315.4 160.32 324.32 160.53 333.23C160.78 343.8 160.45 354.38 160.75 364.95C160.98 373.15 160.8 381.35 160.92 389.55" stroke="#2071B5" stroke-width="4.21" stroke-linecap="round" stroke-linejoin="round"/>
<path d="M324.9 123.74V208.75" stroke="#2071B5" stroke-width="4.21" stroke-linecap="round" stroke-linejoin="round"/>
<path d="M223.22 161.27C227.62 164.16 232.25 166.66 236.82 169.24C244.03 173.3 251.16 177.51 258.38 181.57C265.31 185.47 272.07 189.68 279.1 193.42C285.71 196.93 291.9 201.17 298.55 204.58C301.26 205.97 303.85 207.61 306.65 208.88C308.36 209.65 310.02 210.9 311.67 211.99C314.2 213.68 318.69 216.29 321.51 217.31C325.11 218.61 322.91 225.3 322.96 228.51" stroke="#2071B5" stroke-width="4.21" stroke-linecap="round" stroke-linejoin="round"/>
<path d="M317.56 123.31C317.99 123.52 318.42 123.74 318.83 123.94C318.91 127.69 319 131.44 319.02 135.17C319.12 156.74 319.07 178.32 319.07 199.9C319.07 202.13 319.07 204.36 319.07 206.59" stroke="#2071B5" stroke-width="4.21" stroke-linecap="round" stroke-linejoin="round"/>
<path d="M157.69 294.83C166.2 298.88 174.09 304.03 182.31 308.59C192.07 314 201.51 319.94 211.2 325.46C221.14 331.12 231.05 336.81 240.96 342.54C241.35 342.77 241.69 342.66 242.05 342.73" stroke="#2071B5" stroke-width="4.21" stroke-linecap="round" stroke-linejoin="round"/>
<path d="M169.99 309.72C183.82 316.99 197.25 324.98 210.77 332.81C219.44 337.83 228.07 342.91 236.87 347.71C238.71 348.71 240.44 349.91 242.05 350.85V374.89" stroke="#2071B5" stroke-width="4.21" stroke-linecap="round" stroke-linejoin="round"/>
<path d="M258.01 283.83C255.47 286.18 253.81 289.17 251.97 292.03C248.21 297.88 245.69 304.25 244.23 311.02C243.64 313.78 243.27 316.63 243.19 319.43C242.97 326.91 242.58 334.38 242.47 341.87C242.44 344.2 246.09 346.5 248.07 345.3C251.27 343.36 254.5 341.49 257.75 339.64C260.59 338.03 263.51 336.62 266.42 335.17" stroke="#2071B5" stroke-width="4.21" stroke-linecap="round" stroke-linejoin="round"/>
<path d="M301.59 167.75C304.15 165.71 306.99 164.05 308.75 161.08C310.72 157.75 311.6 154.44 310.96 150.47C309.95 144.21 307.13 139.03 302.64 134.77C298.96 131.27 294.6 128.95 289.3 129.61C286.81 129.92 284.03 130.05 282.61 132.79" stroke="#2071B5" stroke-width="4.21" stroke-linecap="round" stroke-linejoin="round"/>
<path d="M255.21 137.98C258.48 136.76 261.01 134.74 262.56 131.51C265.61 125.13 264.22 118.97 261.16 113.21C258.82 108.8 255.15 105.32 250.45 103.26C246.52 101.54 242.54 101.8 238.85 103.95C237.97 104.47 236.62 104.55 236.22 105.82" stroke="#2071B5" stroke-width="4.21" stroke-linecap="round" stroke-linejoin="round"/>
<path d="M190.27 381.78C193.07 380.09 195.96 378.45 197.37 375.3C199.45 370.69 199.09 365.95 197.58 361.29C195.49 354.86 191.34 349.89 185.94 345.99C181.24 342.59 173.51 343.68 169.57 348.14C169.46 348.26 169.56 348.56 169.56 348.78" stroke="#2071B5" stroke-width="4.21" stroke-linecap="round" stroke-linejoin="round"/>
<path d="M236.22 106.05C230.74 107.67 228.94 111.15 228.95 116.84C228.97 126.74 232.62 135.02 241.2 140.54C245.98 143.62 251.36 142.98 254.3 139.03C256.35 136.27 256.86 132.87 256.44 129.57C255.36 121.01 251.1 114.23 244.21 109.06C241.88 107.32 239.2 106.61 236.43 106.05" fill="#FFDA00" fill-opacity="0.7"/>
<path d="M236.22 106.05C230.74 107.67 228.94 111.15 228.95 116.84C228.97 126.74 232.62 135.02 241.2 140.54C245.98 143.62 251.36 142.98 254.3 139.03C256.35 136.27 256.86 132.87 256.44 129.57C255.36 121.01 251.1 114.23 244.21 109.06C241.88 107.32 239.2 106.61 236.43 106.05" stroke="#2071B5" stroke-width="4.21" stroke-linecap="round" stroke-linejoin="round"/>
<path d="M206.02 388.47C206.51 393.02 208.12 397.06 211.41 400.34C212.85 401.78 214.61 402.56 216.59 402.94C219.36 403.47 221.2 402.2 221.09 399.48C220.84 392.88 217.78 387.81 212.03 384.65C208.49 382.71 205.88 384.15 206.24 388.26" stroke="#2071B5" stroke-width="4.21" stroke-linecap="round" stroke-linejoin="round"/>
<path d="M322.95 229.03C321.83 235.91 318.15 241.3 313.51 246.34C308.38 251.91 302.08 255.76 295.77 259.67C290.62 262.87 285.21 265.61 280.02 268.72" stroke="#2071B5" stroke-width="4.21" stroke-linecap="round" stroke-linejoin="round"/>
<path d="M314.97 121.58C307.69 117.32 300.48 112.93 293.02 108.95C289.76 107.21 286.38 105.63 283.27 103.64C279.3 101.1 275.06 99.0496 270.95 96.7696C265.84 93.9496 260.75 91.1096 255.75 88.0796C250.85 85.1096 245.78 82.3096 240.76 79.4796C234.64 76.0196 228.65 72.3396 222.55 68.5996C221.76 69.2896 221.76 70.1796 221.76 71.0796C221.76 83.3096 221.76 95.5296 221.76 107.76C221.76 117.33 221.76 126.89 221.76 136.46C221.76 140.87 221.58 145.28 222.63 149.62" stroke="#2071B5" stroke-width="4.21" stroke-linecap="round" stroke-linejoin="round"/>
<path d="M245.93 402.71C246.28 403.4 246.14 404.14 246.14 404.87C246.14 417.24 246.14 429.61 246.17 441.98C246.17 443.08 245.83 444.13 245.93 445.22" stroke="#2071B5" stroke-width="4.21" stroke-linecap="round" stroke-linejoin="round"/>
<path d="M273.55 99.5703V139.7" stroke="#2071B5" stroke-width="4.21" stroke-linecap="round" stroke-linejoin="round"/>
<path d="M246.79 351.14C246.04 350.97 245.9 351.25 245.9 352C245.93 355.96 245.93 359.91 245.92 363.87C245.92 370.56 245.76 392.58 245.9 399.26" stroke="#2071B5" stroke-width="4.21" stroke-linecap="round" stroke-linejoin="round"/>
<path d="M174.3 313.6C175.21 314.08 174.7 314.91 174.71 315.54C174.75 325.1 174.73 334.67 174.75 344.24" stroke="#2071B5" stroke-width="4.21" stroke-linecap="round" stroke-linejoin="round"/>
<path d="M222.44 411.21C231.55 411.54 236.55 401.63 235.66 392.24C235.19 387.22 230.87 380.12 230.21 379.16C227.19 374.82 223.21 371.78 218.31 369.91C215.48 368.83 212.86 369.79 210.34 371C208.8 371.74 207.49 372.92 205.99 373.74C205.3 374.12 205.39 374.55 205.37 375.08" stroke="#2071B5" stroke-width="4.21" stroke-linecap="round" stroke-linejoin="round"/>
<path d="M252.83 312.74C252.41 318.56 251.88 324.37 251.69 330.21C251.56 334.03 251.67 337.84 251.54 341.65" stroke="#2071B5" stroke-width="4.21" stroke-linecap="round" stroke-linejoin="round"/>
<path d="M226.94 304.97C226.59 308.42 226.14 311.86 225.84 315.32C225.75 316.4 225.6 317.47 225.65 318.56C225.86 323.1 224.91 327.61 225.21 332.15" stroke="#2071B5" stroke-width="4.21" stroke-linecap="round" stroke-linejoin="round"/>
<path d="M185.09 276.06C183.27 283.58 181.59 291.13 181.64 298.93" stroke="#2071B5" stroke-width="4.21" stroke-linecap="round" stroke-linejoin="round"/>
<path d="M329.21 114.68C332.15 115.76 333.09 117.87 332.93 120.94C332.67 126.04 333.26 131.15 333.09 136.26" stroke="#2071B5" stroke-width="4.21" stroke-linecap="round" stroke-linejoin="round"/>
<path d="M248.09 309.72C247.94 314.49 247.03 319.19 246.77 323.96C246.43 330.22 246.68 336.48 246.58 342.73C246.57 343.67 246.65 344.62 246.36 345.53" stroke="#2071B5" stroke-width="4.21" stroke-linecap="round" stroke-linejoin="round"/>
<path d="M175.59 279.94C175.92 283.13 175.33 286.29 175.04 289.42C174.63 293.9 174.9 298.35 174.72 302.81" stroke="#2071B5" stroke-width="4.21" stroke-linecap="round" stroke-linejoin="round"/>
<path d="M235.14 315.76C235.9 316.52 235.65 317.51 235.54 318.34C234.76 324.22 234.65 330.12 234.69 336.04C234.69 336.68 234.97 337.38 234.49 337.98" stroke="#2071B5" stroke-width="4.21" stroke-linecap="round" stroke-linejoin="round"/>
<path d="M242.26 405.94V415.43C242.26 421.97 242.18 428.52 242.3 435.06C242.35 437.72 242.47 440.38 242.48 443.04" stroke="#2071B5" stroke-width="4.21" stroke-linecap="round" stroke-linejoin="round"/>
<path d="M191.56 286.85C191.08 290.58 190.68 294.33 190.34 298.08C189.95 302.37 189.56 306.69 189.83 311.02" stroke="#2071B5" stroke-width="4.21" stroke-linecap="round" stroke-linejoin="round"/>
<path d="M237.3 171.2C237.56 175.87 236.66 180.43 236.01 185.01" stroke="#2071B5" stroke-width="4.21" stroke-linecap="round" stroke-linejoin="round"/>
<path d="M250.25 178.97C250.23 183.15 250.38 187.33 249.82 191.48" stroke="#2071B5" stroke-width="4.21" stroke-linecap="round" stroke-linejoin="round"/>
<path d="M332.66 191.48C333.09 195.5 332.21 199.55 332.88 203.56" stroke="#2071B5" stroke-width="4.21" stroke-linecap="round" stroke-linejoin="round"/>
<path d="M215.29 315.76V326.12" stroke="#2071B5" stroke-width="4.21" stroke-linecap="round" stroke-linejoin="round"/>
<path d="M277.86 270.23C275.31 271.28 273.07 272.88 270.74 274.33C269.84 274.89 268.98 275.55 267.93 275.84" stroke="#2071B5" stroke-width="4.21" stroke-linecap="round" stroke-linejoin="round"/>
<path d="M272.68 191.48C272.9 194.8 272.43 198.1 272.25 201.4" stroke="#2071B5" stroke-width="4.21" stroke-linecap="round" stroke-linejoin="round"/>
<path d="M295.99 205.72V214.35" stroke="#2071B5" stroke-width="4.21" stroke-linecap="round" stroke-linejoin="round"/>
<path d="M288.65 256.64C286.06 257.93 283.47 259.23 280.88 260.52" stroke="#2071B5" stroke-width="4.21" stroke-linecap="round" stroke-linejoin="round"/>
<path d="M280.45 252.33C277.98 253.43 275.72 254.98 273.11 255.78" stroke="#2071B5" stroke-width="4.21" stroke-linecap="round" stroke-linejoin="round"/>
<path d="M238.16 304.11C237.9 306.44 236.85 308.63 236.87 311.01" stroke="#2071B5" stroke-width="4.21" stroke-linecap="round" stroke-linejoin="round"/>
<path d="M160.92 304.32C162.78 305.42 164.51 306.73 166.53 307.56" stroke="#2071B5" stroke-width="4.21" stroke-linecap="round" stroke-linejoin="round"/>
<path d="M302.89 262.68C301.07 263.53 299.61 264.99 297.71 265.7" stroke="#2071B5" stroke-width="4.21" stroke-linecap="round" stroke-linejoin="round"/>
<path d="M296.42 239.81C295.16 241.43 293.72 242.87 292.1 244.13" stroke="#2071B5" stroke-width="4.21" stroke-linecap="round" stroke-linejoin="round"/>
<path d="M221.33 208.31C220.07 209.93 218.63 211.37 217.01 212.63" stroke="#2071B5" stroke-width="4.21" stroke-linecap="round" stroke-linejoin="round"/>
<path d="M284.98 142.29C282.23 143.96 282.43 146.56 282.83 149.19C283.55 154 285.79 157.81 290.16 160.19C291.7 161.03 293.47 161.37 294.85 160.34C296.2 159.33 296.31 157.65 296.03 155.87C295.24 150.74 293.17 146.44 288.87 143.36C287.76 142.57 286.54 142.25 285.2 142.29" stroke="#2071B5" stroke-width="4.21" stroke-linecap="round" stroke-linejoin="round"/>
<path d="M171.71 356.97C168.55 357.33 168.12 358.99 168.05 361.5C167.87 367.31 170.44 371.71 175.2 374.83C176.34 375.58 177.82 375.94 179.27 375.95C181.7 375.97 183.24 373.6 182.71 370.56C181.93 366.05 179.85 362.22 176.46 359.13C175.17 357.95 173.61 357.33 171.93 356.97" stroke="#2071B5" stroke-width="4.21" stroke-linecap="round" stroke-linejoin="round"/>
<path d="M237.52 114.68C234.42 115.74 234.69 118.39 234.99 120.71C235.66 125.95 238.24 130.12 242.93 132.78C243.57 133.14 244.37 133.22 245.07 133.47C247.13 134.19 249.4 133.2 249.6 130.21C249.94 124.96 245.4 117.1 239.69 114.89C239.05 114.64 238.4 114.69 237.75 114.68" stroke="#2071B5" stroke-width="4.21" stroke-linecap="round" stroke-linejoin="round"/>
</svg>
