<svg width="500" height="500" viewBox="0 0 500 500" fill="none" xmlns="http://www.w3.org/2000/svg">
<path d="M235.55 234.21C234.47 237.22 234.61 240.48 233.55 243.53C230.92 251.14 225.97 256.76 219.21 260.96C216.11 262.88 212.75 263.84 209.18 264.3C194.58 266.17 182.38 255.68 178.59 244.97C172.53 227.87 182.44 207.76 202.51 205.18C216.54 203.38 228.43 211.99 233.27 224.2C234.18 226.49 234.72 228.9 234.92 231.36C235 232.32 235.26 233.15 235.67 233.98" fill="#FFDA00" fill-opacity="0.7"/>
<path d="M235.55 234.21C234.47 237.22 234.61 240.48 233.55 243.53C230.92 251.14 225.97 256.76 219.21 260.96C216.11 262.88 212.75 263.84 209.18 264.3C194.58 266.17 182.38 255.68 178.59 244.97C172.53 227.87 182.44 207.76 202.51 205.18C216.54 203.38 228.43 211.99 233.27 224.2C234.18 226.49 234.72 228.9 234.92 231.36C235 232.32 235.26 233.15 235.67 233.98" stroke="#2071B5" stroke-width="4.21" stroke-linecap="round" stroke-linejoin="round"/>
<path d="M313.46 399.59C311.31 398.98 311.24 411.27 312.03 411.27C357.05 411.29 402.08 411.29 447.1 411.29C447.98 411.29 448.88 411.12 449.96 411.62V443.26H113V411.62C114.08 411.12 114.99 411.29 115.86 411.29C179.5 411.29 243.14 411.29 306.78 411.28C307.66 411.28 306.78 411.28 312.03 411.28" fill="#FFDA00" fill-opacity="0.7"/>
<path d="M313.46 399.59C311.31 398.98 311.24 411.27 312.03 411.27C357.05 411.29 402.08 411.29 447.1 411.29C447.98 411.29 448.88 411.12 449.96 411.62V443.26H113V411.62C114.08 411.12 114.99 411.29 115.86 411.29C179.5 411.29 243.14 411.29 306.78 411.28C307.66 411.28 306.78 411.28 312.03 411.28" stroke="#2071B5" stroke-width="4.21" stroke-linecap="round" stroke-linejoin="round"/>
<path d="M288.65 233.5C289.6 231.57 289.25 229.49 289.08 227.54C288.03 215.55 284.96 204.2 278.93 193.61C272.8 182.83 264.63 174 254.74 166.7C245.1 159.58 234.3 154.97 222.54 152.59C212.78 150.61 203.02 150.4 193.18 152.1C178.04 154.71 164.54 160.74 152.58 170.46C142.51 178.65 134.84 188.59 129.49 200.34C125.46 209.2 123.12 218.51 122.26 228.25C121.07 241.79 122.96 254.81 128.03 267.39C131.14 275.11 135.5 282.06 140.89 288.41C148.29 297.13 157.27 303.8 167.42 308.88C176.2 313.27 185.57 315.86 195.32 317.03C208.36 318.59 221.15 317.08 233.47 312.89C249.93 307.3 263.49 297.54 273.63 283.17C279.97 274.19 284.31 264.36 286.89 253.77C288.35 247.78 289.3 241.64 289.14 235.41C289.12 234.78 288.88 234.29 288.75 233.74" stroke="#2071B5" stroke-width="4.21" stroke-linecap="round" stroke-linejoin="round"/>
<path d="M280.53 120.62C276.94 119.1 273.77 116.81 270.27 115.12C258.35 109.35 245.97 104.81 233.02 102.08C226.14 100.63 219.13 99.7102 212.04 99.5302C209.27 99.4602 206.46 98.9502 203.69 99.1902C196.37 99.8102 189.03 99.9102 181.72 100.96C167.33 103.04 153.7 107.36 140.7 113.72C126.84 120.5 114.26 129.09 102.92 139.65C92.7501 149.12 84.2201 159.84 77.3101 171.75C71.2101 182.25 66.8401 193.59 63.5801 205.33C61.5501 212.63 59.9801 220.05 59.1901 227.54C58.5401 233.68 58.2901 239.9 58.4701 246.15C58.6601 252.72 59.2101 259.22 60.0301 265.71C61.0801 274.07 62.9501 282.29 65.5801 290.27C67.4601 295.95 69.5401 301.58 72.1501 307.02C77.2901 317.72 83.4701 327.74 90.7901 337.08C101.16 350.31 113.82 361.04 127.61 370.4C137.79 377.31 148.72 382.93 160.22 387.51C170.93 391.77 182.04 394.43 193.21 396.87C196.99 397.7 200.96 398.04 204.88 398.16" stroke="#2071B5" stroke-width="4.21" stroke-linecap="round" stroke-linejoin="round"/>
<path d="M280.53 107.49C278.01 107.04 275.93 105.53 273.65 104.54C260.5 98.8301 246.96 94.5801 232.81 92.1901C224.82 90.8401 216.79 90.1301 208.7 89.8001C199.57 89.4201 190.49 90.0401 181.51 91.3601C170.41 93.0001 159.53 95.7701 149.05 99.8701C135.87 105.02 123.64 111.91 112.29 120.37C103.12 127.2 94.8301 134.96 87.1901 143.48C80.8301 150.57 75.3601 158.27 70.5601 166.45C60.3301 183.89 53.9001 202.64 51.4001 222.75C50.4101 230.69 49.8901 238.64 50.0401 246.62C50.2301 256.67 51.4901 266.64 53.6501 276.44C56.1501 287.77 59.7401 298.8 64.5601 309.39C69.0701 319.28 74.5101 328.6 81.0201 337.32C87.7201 346.3 95.1301 354.65 103.48 362.11C111.61 369.38 120.49 375.66 129.71 381.47C137.82 386.58 146.39 390.74 155.24 394.37C166.58 399.03 178.31 402.31 190.33 404.62C201.53 406.77 212.85 407.4 224.22 407.22C239.63 406.97 254.86 405.2 269.8 401.27C287.93 396.49 304.73 388.67 320.63 378.84C333.49 370.9 345.59 361.99 356.18 351.14C369.21 337.79 379.55 322.56 387.68 305.8C393.72 293.35 398.18 280.33 401.55 266.91C403.56 258.88 405.05 250.75 405.98 242.55C406.6 237.1 406.84 231.59 407.05 226.09C408.99 175.51 407.5 124.9 407.97 74.3101C408 70.6501 407.97 66.9901 407.97 63.3301" stroke="#2071B5" stroke-width="4.21" stroke-linecap="round" stroke-linejoin="round"/>
<path d="M205.12 111.07C209.75 110.84 214.38 111.09 218.96 111.6C225.65 112.35 232.25 113.74 238.77 115.39C247.2 117.53 255.33 120.6 263.1 124.48C272.59 129.22 281.37 135.09 289.38 142.09C297.75 149.41 304.93 157.73 310.87 167.14C319.47 180.77 325.35 195.41 328.34 211.29C330.28 221.6 330.64 231.97 330.08 242.32C329.28 257.11 325.99 271.4 319.98 285.07C313.3 300.25 304.11 313.67 292.44 325.34C281.02 336.76 267.71 345.4 252.66 351.46C243.52 355.14 234.09 357.53 224.46 359.21C216.12 360.67 207.64 361.12 199.18 360.66C190.37 360.18 181.64 358.8 173.18 356.35C148.13 349.08 127.24 335.2 110.19 315.57C100.05 303.9 92.8399 290.45 87.4899 275.98C84.3499 267.48 82.4899 258.64 81.1399 249.72C80.7899 247.4 80.5899 244.98 80.4799 242.58C80.3499 239.64 79.8999 236.69 80.1099 233.75C80.5399 227.76 80.8699 221.79 81.8999 215.83C83.7999 204.86 87.2099 194.44 91.7699 184.34C98.6699 169.07 108.26 155.78 120.64 144.47C129.7 136.19 139.73 129.37 150.73 123.98C160.15 119.37 169.98 115.94 180.3 113.89C185.68 112.82 191.05 111.9 196.53 111.43C199.33 111.19 202.11 111.22 204.89 111.07" stroke="#2071B5" stroke-width="4.21" stroke-linecap="round" stroke-linejoin="round"/>
<path d="M205.36 342.32V339.16C202.39 339.6 199.5 338.81 196.53 338.66C192.44 338.46 188.35 337.75 184.36 336.79C174.55 334.44 165.15 331.07 156.4 325.89C149.24 321.65 142.54 316.89 136.35 311.32C129.08 304.78 122.94 297.38 117.73 289.12C111.7 279.56 107.44 269.29 104.9 258.31C103.74 253.29 102.99 248.19 102.39 243.05C101.79 237.93 101.69 232.8 102.14 227.78C102.99 218.31 105.04 209.03 108.44 200.08C112.55 189.26 118.11 179.31 125.35 170.22C133.57 159.89 143.3 151.42 154.77 145C163.72 139.99 173.37 136.76 183.37 134.39C193.72 131.93 204.18 131.66 214.64 132.17C225.69 132.72 236.41 135.38 246.61 139.73C262.01 146.3 275.42 155.68 286.23 168.58C295.54 179.69 301.9 192.36 305.79 206.29C307.62 212.84 308.65 219.52 309.25 226.32C309.69 231.35 309.83 236.38 309.53 241.36C308.91 251.59 306.93 261.6 303.18 271.2C298.86 282.28 292.99 292.47 285.24 301.48C275.89 312.35 265.05 321.48 252.33 328.21C244.43 332.39 236.06 335.33 227.28 337.06C222.94 337.92 218.57 338.44 214.16 338.81C211.29 339.06 208.43 339.14 205.42 339.22C205.06 334.2 205.68 329.17 205.09 324.17" stroke="#2071B5" stroke-width="4.21" stroke-linecap="round" stroke-linejoin="round"/>
<path d="M114.67 427.28H448.3" stroke="#2071B5" stroke-width="4.21" stroke-linecap="round" stroke-linejoin="round"/>
<path d="M250.22 62.1498C251.46 61.0598 250.07 59.4898 251.21 58.0898H438.04V61.7998C437.06 62.4198 436 62.3998 434.94 62.3998C427.78 62.3898 420.61 62.1498 413.46 62.4598C404.78 62.8298 396.1 61.9998 387.45 62.4598C380.6 62.8298 373.75 62.5598 366.92 62.5098C342.66 62.3198 318.39 62.4898 294.13 62.3998C280.13 62.3498 266.13 62.3998 252.13 62.3798C251.73 62.3798 251.26 62.5898 250.94 62.1498" stroke="#2071B5" stroke-width="4.21" stroke-linecap="round" stroke-linejoin="round"/>
<path d="M416.32 278.6C416.92 281.93 416.49 285.28 416.52 288.62C416.62 298.4 416.56 308.19 416.56 317.97C416.56 330.62 416.61 343.27 416.54 355.91C416.5 362.75 416.65 369.59 416.33 376.44C416.22 378.78 416.54 381.19 416.36 383.6C416.22 385.53 416.99 386.21 418.95 386.22C423.41 386.22 427.86 386.38 432.31 386.5C443.63 386.81 449.99 378.11 449.98 368.81C449.95 344.63 450.08 320.44 449.9 296.26C449.84 288.83 447.01 282.61 439.7 279.32C437.89 278.51 435.95 278.18 433.98 278.12C428.65 277.97 423.29 277.82 418 278.04C412.2 278.28 406.37 278.33 400.57 278.83" fill="#FFDA00" fill-opacity="0.7"/>
<path d="M416.32 278.6C416.92 281.93 416.49 285.28 416.52 288.62C416.62 298.4 416.56 308.19 416.56 317.97C416.56 330.62 416.61 343.27 416.54 355.91C416.5 362.75 416.65 369.59 416.33 376.44C416.22 378.78 416.54 381.19 416.36 383.6C416.22 385.53 416.99 386.21 418.95 386.22C423.41 386.22 427.86 386.38 432.31 386.5C443.63 386.81 449.99 378.11 449.98 368.81C449.95 344.63 450.08 320.44 449.9 296.26C449.84 288.83 447.01 282.61 439.7 279.32C437.89 278.51 435.95 278.18 433.98 278.12C428.65 277.97 423.29 277.82 418 278.04C412.2 278.28 406.37 278.33 400.57 278.83" stroke="#2071B5" stroke-width="4.21" stroke-linecap="round" stroke-linejoin="round"/>
<path d="M344.73 71.6899C344.73 96.1899 344.67 120.69 344.75 145.19C344.79 157.44 344.68 169.69 344.44 181.94C344.08 200.4 344.53 218.85 344.17 237.31C344.04 243.85 343.83 250.44 342.36 256.89C342.19 257.65 342.34 258.48 342.34 259.27" stroke="#2071B5" stroke-width="4.21" stroke-linecap="round" stroke-linejoin="round"/>
<path d="M399.62 71.6899C399.62 124.99 399.61 178.29 399.65 231.58C399.65 235.6 398.71 239.51 398.67 243.51" stroke="#2071B5" stroke-width="4.21" stroke-linecap="round" stroke-linejoin="round"/>
<path d="M149.99 289.1C157.3 296.23 165.66 301.85 175.07 305.76C181.77 308.55 188.76 310.32 196.05 311.11C215.66 313.23 233.63 308.8 249.97 297.91C264.89 287.97 274.8 274.2 280.01 257.11C282.16 250.07 283.04 242.81 283.24 235.41C283.46 227.21 282.16 219.32 279.8 211.55C276.81 201.71 272 192.83 265.24 185.07C259.32 178.26 252.66 172.36 244.75 167.83C236.52 163.12 227.85 159.86 218.48 158.3C204.96 156.05 191.86 157.73 179.11 162.41C164.01 167.94 151.87 177.38 142.57 190.54C135.43 200.64 130.64 211.65 128.97 223.96C128.53 227.21 127.87 230.44 128.03 233.75" stroke="#2071B5" stroke-width="4.21" stroke-linecap="round" stroke-linejoin="round"/>
<path d="M223.97 234.93C223.67 224.73 217.22 217.71 207.48 215.7C203.49 214.88 199.6 216.14 196.02 218.42C190.17 222.15 187.26 227.54 187.05 234.22C186.79 242.64 192.62 250.51 201.29 252.86C212.65 255.94 222.82 247.63 223.72 237.08C223.77 236.51 224.16 236.01 223.97 235.41" stroke="#2071B5" stroke-width="4.21" stroke-linecap="round" stroke-linejoin="round"/>
<path d="M415.84 358.79H352.12C352.12 372.51 352.12 386 352.12 399.48" stroke="#2071B5" stroke-width="4.21" stroke-linecap="round" stroke-linejoin="round"/>
<path d="M415.84 367.85C395.55 367.85 375.27 367.85 354.98 367.85C354.02 367.85 353.05 367.74 352.12 368.09" stroke="#2071B5" stroke-width="4.21" stroke-linecap="round" stroke-linejoin="round"/>
<path d="M407.49 71.2202C405.35 71.5502 403.2 71.4602 401.05 71.4602C361.2 71.4602 321.34 71.4602 281.49 71.4602" stroke="#2071B5" stroke-width="4.21" stroke-linecap="round" stroke-linejoin="round"/>
<path d="M414.89 350.43C413.95 350.13 412.99 350.19 412.03 350.19C395.4 350.19 378.78 350.19 362.15 350.19C361.09 350.19 360.03 350.16 359.05 350.67" stroke="#2071B5" stroke-width="4.21" stroke-linecap="round" stroke-linejoin="round"/>
<path d="M406.3 120.85H283.16" stroke="#2071B5" stroke-width="4.21" stroke-linecap="round" stroke-linejoin="round"/>
<path d="M288.41 137.56V79.8101H399.62" stroke="#2071B5" stroke-width="4.21" stroke-linecap="round" stroke-linejoin="round"/>
<path d="M399.14 235.17C398.39 235.68 397.54 235.39 396.75 235.39C379.57 235.41 362.38 235.41 345.2 235.41" stroke="#2071B5" stroke-width="4.21" stroke-linecap="round" stroke-linejoin="round"/>
<path d="M214.9 234.93C214.85 230.05 211.59 225.75 207.26 225.17C202.5 224.54 198.29 226.44 196.82 231.36C195.3 236.46 196.86 241.48 202.75 243.48C207.95 245.24 212.38 242.63 214.64 237.54C214.96 236.82 214.27 235.82 215.14 235.16" stroke="#2071B5" stroke-width="4.21" stroke-linecap="round" stroke-linejoin="round"/>
<path d="M176.24 236.36C175.64 236.7 174.97 236.6 174.33 236.6C159.06 236.5 143.78 237.1 128.54 236.78C127.45 239.28 128 241.82 128.33 244.23C129.68 254.13 132.31 263.62 137.29 272.43C140.55 278.2 144.47 283.39 149.04 288.15" stroke="#2071B5" stroke-width="4.21" stroke-linecap="round" stroke-linejoin="round"/>
<path d="M414.89 340.65C414 341.21 413.01 341.13 412.03 341.13C398.19 341.13 384.35 341.13 370.51 341.14C369.72 341.14 368.88 340.86 368.12 341.36" stroke="#2071B5" stroke-width="4.21" stroke-linecap="round" stroke-linejoin="round"/>
<path d="M415.84 376.45C409.24 376.38 402.63 376.66 396.03 376.22C379.34 375.11 362.62 376.02 345.91 375.74C342.57 375.68 339.23 375.8 335.89 375.7C334.25 375.66 333.7 376.24 333.71 377.88C333.77 385.04 333.74 392.2 333.74 399.36" stroke="#2071B5" stroke-width="4.21" stroke-linecap="round" stroke-linejoin="round"/>
<path d="M313.46 399.59C319.98 400.14 326.51 399.69 333.03 399.82C334.14 399.84 335.26 399.84 336.37 399.84C354.98 399.84 373.6 399.84 392.21 399.84C400.09 399.84 407.96 399.84 415.84 399.84C416.64 399.84 417.46 399.69 418.19 400.04C418.38 401.94 418.13 404.5 418.23 410.81" stroke="#2071B5" stroke-width="4.21" stroke-linecap="round" stroke-linejoin="round"/>
<path d="M394.84 392.91H353.79" stroke="#2071B5" stroke-width="4.21" stroke-linecap="round" stroke-linejoin="round"/>
<path d="M414.89 331.58C402.4 331.58 389.91 331.58 377.42 331.58C376.36 331.58 375.3 331.55 374.32 332.06" stroke="#2071B5" stroke-width="4.21" stroke-linecap="round" stroke-linejoin="round"/>
<path d="M392.93 384.32H353.79" stroke="#2071B5" stroke-width="4.21" stroke-linecap="round" stroke-linejoin="round"/>
<path d="M183.16 254.26C175.11 263.23 166.31 271.46 157.86 280.03C153.83 284.12 149.98 288.37 145.94 292.45" stroke="#2071B5" stroke-width="4.21" stroke-linecap="round" stroke-linejoin="round"/>
<path d="M281.01 62.8599V104.86C281.01 112.1 281 119.34 281.03 126.58C281.03 127.37 280.75 128.21 281.25 128.97" stroke="#2071B5" stroke-width="4.21" stroke-linecap="round" stroke-linejoin="round"/>
<path d="M150.23 182.19C157.42 189.72 164.84 197.01 172.19 204.38C175.76 207.97 179.35 211.54 182.93 215.12" stroke="#2071B5" stroke-width="4.21" stroke-linecap="round" stroke-linejoin="round"/>
<path d="M185.31 256.64C174.26 267.39 163.89 278.81 152.86 289.58C152.56 289.87 152.04 290.07 152.14 290.65" stroke="#2071B5" stroke-width="4.21" stroke-linecap="round" stroke-linejoin="round"/>
<path d="M415.84 322.51C405.02 322.51 394.2 322.51 383.38 322.53C382.59 322.53 381.75 322.25 380.99 322.75" stroke="#2071B5" stroke-width="4.21" stroke-linecap="round" stroke-linejoin="round"/>
<path d="M225.17 257.36C236.17 268.47 247.69 279.06 258.58 290.29" stroke="#2071B5" stroke-width="4.21" stroke-linecap="round" stroke-linejoin="round"/>
<path d="M259.05 179.8C255 183.78 251.18 188 247.13 191.99C240.16 198.86 233.27 205.82 226.35 212.74" stroke="#2071B5" stroke-width="4.21" stroke-linecap="round" stroke-linejoin="round"/>
<path d="M152.14 180.04C162.76 190.5 173.05 201.29 183.88 211.54C184.34 211.97 184.53 212.62 185.07 212.98" stroke="#2071B5" stroke-width="4.21" stroke-linecap="round" stroke-linejoin="round"/>
<path d="M227.55 255.69C228.95 257.57 230.95 258.8 232.58 260.44C241.92 269.87 251.33 279.23 260.72 288.62" stroke="#2071B5" stroke-width="4.21" stroke-linecap="round" stroke-linejoin="round"/>
<path d="M176.24 233.73C159.69 233.64 143.15 233.82 126.6 233.97" stroke="#2071B5" stroke-width="4.21" stroke-linecap="round" stroke-linejoin="round"/>
<path d="M283.16 233.73C267.41 233.71 251.66 233.7 235.91 233.97" stroke="#2071B5" stroke-width="4.21" stroke-linecap="round" stroke-linejoin="round"/>
<path d="M205.6 354.73C209.12 353.91 210.98 351.5 210.37 348.53C209.75 345.46 207.1 343.69 203.93 344.23C201.71 344.61 200.04 346.6 199.87 349C199.67 351.89 200.87 353.62 204.18 354.71C204.54 354.83 204.97 354.73 205.37 354.73" fill="#FFDA00" fill-opacity="0.7"/>
<path d="M205.6 354.73C209.12 353.91 210.98 351.5 210.37 348.53C209.75 345.46 207.1 343.69 203.93 344.23C201.71 344.61 200.04 346.6 199.87 349C199.67 351.89 200.87 353.62 204.18 354.71C204.54 354.83 204.97 354.73 205.37 354.73" stroke="#2071B5" stroke-width="4.21" stroke-linecap="round" stroke-linejoin="round"/>
<path d="M280.77 150.21C280.88 153.2 282.94 155.26 286.02 155.46C288.34 155.61 290.84 153.56 291.27 151.16C291.76 148.45 290.39 146.26 287.69 145.43C284.76 144.53 282.52 145.66 281.2 148.51C280.97 149.01 280.74 149.42 280.77 149.96" fill="#FFDA00" fill-opacity="0.7"/>
<path d="M280.77 150.21C280.88 153.2 282.94 155.26 286.02 155.46C288.34 155.61 290.84 153.56 291.27 151.16C291.76 148.45 290.39 146.26 287.69 145.43C284.76 144.53 282.52 145.66 281.2 148.51C280.97 149.01 280.74 149.42 280.77 149.96" stroke="#2071B5" stroke-width="4.21" stroke-linecap="round" stroke-linejoin="round"/>
<path d="M414.41 312.73C411.88 313.26 409.32 312.92 406.77 312.95C401.6 313.01 396.43 313 391.26 312.95C389.17 312.93 387.1 312.95 385.06 313.44" stroke="#2071B5" stroke-width="4.21" stroke-linecap="round" stroke-linejoin="round"/>
<path d="M433.03 279.79C433.03 296.18 433.03 312.56 433.05 328.95C433.05 329.74 432.77 330.58 433.27 331.34" stroke="#2071B5" stroke-width="4.21" stroke-linecap="round" stroke-linejoin="round"/>
<path d="M205.36 265.24C205.99 277.17 205.82 289.1 205.83 301.04C205.83 304.01 206.14 307.03 204.88 309.87" stroke="#2071B5" stroke-width="4.21" stroke-linecap="round" stroke-linejoin="round"/>
<path d="M433.03 332.77V358.54" stroke="#2071B5" stroke-width="4.21" stroke-linecap="round" stroke-linejoin="round"/>
<path d="M230.65 320.84C227.06 321.52 223.52 322.43 219.91 322.98C218.09 323.26 216.26 323.65 214.42 323.67C207.9 323.75 201.37 323.7 194.85 323.7" stroke="#2071B5" stroke-width="4.21" stroke-linecap="round" stroke-linejoin="round"/>
<path d="M433.03 359.98V384.32" stroke="#2071B5" stroke-width="4.21" stroke-linecap="round" stroke-linejoin="round"/>
<path d="M231.13 398.64C223.02 398.43 214.89 399.12 206.79 398.16" stroke="#2071B5" stroke-width="4.21" stroke-linecap="round" stroke-linejoin="round"/>
<path d="M205.36 362.84C205.36 373.66 205.36 384.48 205.34 395.3C205.34 396.09 205.62 396.93 205.12 397.69" stroke="#2071B5" stroke-width="4.21" stroke-linecap="round" stroke-linejoin="round"/>
<path d="M261.2 181.71C250.96 192.15 240.88 202.75 230.41 212.97C229.65 213.72 229.02 214.62 228.03 215.12" stroke="#2071B5" stroke-width="4.21" stroke-linecap="round" stroke-linejoin="round"/>
<path d="M117.06 213.45C116.08 217.87 115.11 222.35 114.82 226.82C114.54 231.15 113.98 235.49 114.5 239.96C115 244.33 115.67 248.69 116.11 253.07" stroke="#2071B5" stroke-width="4.21" stroke-linecap="round" stroke-linejoin="round"/>
<path d="M131.62 150.45C131.07 147.87 130.1 145.62 127.08 145.21C124.34 144.84 122.02 146.51 121.35 149.26C120.77 151.64 122.3 154.37 124.69 155.23C126.81 155.99 129.64 154.66 130.91 152.37C131.21 151.83 131.22 151.18 131.61 150.69" fill="#FFDA00" fill-opacity="0.7"/>
<path d="M131.62 150.45C131.07 147.87 130.1 145.62 127.08 145.21C124.34 144.84 122.02 146.51 121.35 149.26C120.77 151.64 122.3 154.37 124.69 155.23C126.81 155.99 129.64 154.66 130.91 152.37C131.21 151.83 131.22 151.18 131.61 150.69" stroke="#2071B5" stroke-width="4.21" stroke-linecap="round" stroke-linejoin="round"/>
<path d="M413.46 303.66C408.85 304.1 404.23 303.82 399.62 303.89C397 303.93 394.37 303.88 391.74 303.91C390.85 303.92 390.01 303.89 389.35 303.18" stroke="#2071B5" stroke-width="4.21" stroke-linecap="round" stroke-linejoin="round"/>
<path d="M296.52 236.36C296.44 242.66 295.62 248.86 294.15 254.98C294.04 255.43 294.14 255.93 294.14 256.41" stroke="#2071B5" stroke-width="4.21" stroke-linecap="round" stroke-linejoin="round"/>
<path d="M135.67 385.51C135.12 386.3 134.94 387.2 134.96 388.13C135.09 393.54 134.64 398.96 135.21 404.36C135.25 404.79 134.85 405.04 134.96 405.44" stroke="#2071B5" stroke-width="4.21" stroke-linecap="round" stroke-linejoin="round"/>
<path d="M124.46 312.73C121.29 314.59 120.26 316.3 121.16 318.92C121.89 321.04 123.44 322.63 125.66 323.19C127.92 323.76 129.7 322.6 130.85 320.81C131.82 319.29 131.97 317.56 130.92 315.81C129.5 313.43 127.67 312.43 124.69 312.72" fill="#FFDA00" fill-opacity="0.7"/>
<path d="M124.46 312.73C121.29 314.59 120.26 316.3 121.16 318.92C121.89 321.04 123.44 322.63 125.66 323.19C127.92 323.76 129.7 322.6 130.85 320.81C131.82 319.29 131.97 317.56 130.92 315.81C129.5 313.43 127.67 312.43 124.69 312.72" stroke="#2071B5" stroke-width="4.21" stroke-linecap="round" stroke-linejoin="round"/>
<path d="M205.6 157.84C205.11 163.56 205.41 169.3 205.38 175.02C205.32 184.01 205.36 193 205.37 201.99C205.37 202.87 205.28 203.76 205.61 204.62" stroke="#2071B5" stroke-width="4.21" stroke-linecap="round" stroke-linejoin="round"/>
<path d="M77.92 235.4H61.21" stroke="#2071B5" stroke-width="4.21" stroke-linecap="round" stroke-linejoin="round"/>
<path d="M350.46 392.91H333.99" stroke="#2071B5" stroke-width="4.21" stroke-linecap="round" stroke-linejoin="round"/>
<path d="M141.88 237.08C142.53 242.23 142.91 247.43 144.73 252.36C144.86 252.71 144.75 253.15 144.75 253.55" stroke="#2071B5" stroke-width="4.21" stroke-linecap="round" stroke-linejoin="round"/>
<path d="M416.08 293.63C409.48 293.12 402.87 293.52 396.27 293.38C395.3 293.36 394.42 294.22 393.41 293.63" stroke="#2071B5" stroke-width="4.21" stroke-linecap="round" stroke-linejoin="round"/>
<path d="M448.3 302.23H416.8" stroke="#2071B5" stroke-width="4.21" stroke-linecap="round" stroke-linejoin="round"/>
<path d="M295.57 219.65C295.74 224.91 296.81 230.11 296.52 235.4" stroke="#2071B5" stroke-width="4.21" stroke-linecap="round" stroke-linejoin="round"/>
<path d="M325.87 235.4C326.14 232.78 325.13 230.82 322.76 229.69C320.71 228.72 317.96 229.69 316.33 231.82C315.29 233.17 315.28 236.62 316.33 238.02C317.65 239.78 319.43 240.63 321.57 240.13C323.9 239.59 325.42 238.07 325.87 235.63" fill="#FFDA00" fill-opacity="0.7"/>
<path d="M325.87 235.4C326.14 232.78 325.13 230.82 322.76 229.69C320.71 228.72 317.96 229.69 316.33 231.82C315.29 233.17 315.28 236.62 316.33 238.02C317.65 239.78 319.43 240.63 321.57 240.13C323.9 239.59 325.42 238.07 325.87 235.63" stroke="#2071B5" stroke-width="4.21" stroke-linecap="round" stroke-linejoin="round"/>
<path d="M351.65 367.85C348.86 367.85 346.08 367.85 343.06 367.85C343.06 370.47 343.06 372.86 343.06 375.25" stroke="#2071B5" stroke-width="4.21" stroke-linecap="round" stroke-linejoin="round"/>
<path d="M131.85 411.53V437.3" stroke="#2071B5" stroke-width="4.21" stroke-linecap="round" stroke-linejoin="round"/>
<path d="M418.23 359.5H448.3" stroke="#2071B5" stroke-width="4.21" stroke-linecap="round" stroke-linejoin="round"/>
<path d="M448.3 331.82H418.23" stroke="#2071B5" stroke-width="4.21" stroke-linecap="round" stroke-linejoin="round"/>
<path d="M416.08 383.6C413.65 382.87 411.16 383.07 408.68 383.12C404.31 383.22 399.92 382.89 395.55 383.36" stroke="#2071B5" stroke-width="4.21" stroke-linecap="round" stroke-linejoin="round"/>
<path d="M349.98 384.32H335.66" stroke="#2071B5" stroke-width="4.21" stroke-linecap="round" stroke-linejoin="round"/>
<path d="M205.36 412.96C205.41 417.65 205.96 422.35 205.36 427.04" stroke="#2071B5" stroke-width="4.21" stroke-linecap="round" stroke-linejoin="round"/>
<path d="M426.82 412.96V427.04" stroke="#2071B5" stroke-width="4.21" stroke-linecap="round" stroke-linejoin="round"/>
<path d="M315.14 212.97C315.11 215.95 315.98 218.83 316.24 221.79C316.37 223.29 316.33 224.83 316.57 226.34" stroke="#2071B5" stroke-width="4.21" stroke-linecap="round" stroke-linejoin="round"/>
<path d="M110.38 327.05C105.65 331.06 101.74 335.92 97.02 339.94" stroke="#2071B5" stroke-width="4.21" stroke-linecap="round" stroke-linejoin="round"/>
<path d="M265.97 221.56C266.06 224.47 266.85 227.27 267.2 230.15C267.33 231.27 267.39 232.38 267.41 233.5" stroke="#2071B5" stroke-width="4.21" stroke-linecap="round" stroke-linejoin="round"/>
<path d="M142.35 440.16C141.87 437.94 140.42 437.34 138.29 437.5C136.31 437.65 134.31 437.54 132.33 437.53C131.52 437.53 130.67 437.48 130.2 438.26C129.74 439.03 129.73 439.95 130.9 439.89C134.56 439.7 138.22 440.65 141.88 439.92" stroke="#2071B5" stroke-width="4.21" stroke-linecap="round" stroke-linejoin="round"/>
<path d="M205.12 172.4C201.17 172.11 197.33 173.11 193.43 173.35" stroke="#2071B5" stroke-width="4.21" stroke-linecap="round" stroke-linejoin="round"/>
<path d="M322.29 380.02H333.27" stroke="#2071B5" stroke-width="4.21" stroke-linecap="round" stroke-linejoin="round"/>
<path d="M160.97 238.75C160.94 242.03 161.82 245.16 162.69 248.28C162.83 248.79 162.76 249.25 162.88 249.73" stroke="#2071B5" stroke-width="4.21" stroke-linecap="round" stroke-linejoin="round"/>
<path d="M218.24 173.36C214.57 173.19 210.97 172.13 207.26 172.41" stroke="#2071B5" stroke-width="4.21" stroke-linecap="round" stroke-linejoin="round"/>
<path d="M244.97 216.79C245.82 219.82 246.92 222.77 247.65 225.85C247.81 226.52 247.71 227.14 247.84 227.77" stroke="#2071B5" stroke-width="4.21" stroke-linecap="round" stroke-linejoin="round"/>
<path d="M415.84 370.72C414.17 370.76 412.5 370.64 410.84 370.78C410.35 372.69 410.69 374.58 410.59 376.45" stroke="#2071B5" stroke-width="4.21" stroke-linecap="round" stroke-linejoin="round"/>
<path d="M205.6 428.23C205.63 431.73 205.19 435.24 205.84 438.73" stroke="#2071B5" stroke-width="4.21" stroke-linecap="round" stroke-linejoin="round"/>
<path d="M267.41 235.88C266.99 239.21 266.71 242.56 266.46 245.9" stroke="#2071B5" stroke-width="4.21" stroke-linecap="round" stroke-linejoin="round"/>
<path d="M205.36 133.74V149.01" stroke="#2071B5" stroke-width="4.21" stroke-linecap="round" stroke-linejoin="round"/>
<path d="M409.88 279.08C410 287.19 409.61 295.31 410.12 303.42" stroke="#2071B5" stroke-width="4.21" stroke-linecap="round" stroke-linejoin="round"/>
<path d="M214.9 191.49C211.79 191.23 208.76 190.22 205.59 190.54" stroke="#2071B5" stroke-width="4.21" stroke-linecap="round" stroke-linejoin="round"/>
<path d="M203.45 190.54C200.37 190.32 197.42 191.3 194.38 191.49" stroke="#2071B5" stroke-width="4.21" stroke-linecap="round" stroke-linejoin="round"/>
<path d="M395.08 376.68V399.47" stroke="#2071B5" stroke-width="4.21" stroke-linecap="round" stroke-linejoin="round"/>
<path d="M138.54 408.66C137.26 407.9 135.84 408.22 134.48 408.19C132.01 408.15 129.55 408.18 127.08 408.18" stroke="#2071B5" stroke-width="4.21" stroke-linecap="round" stroke-linejoin="round"/>
<path d="M244.5 340.41C241.74 341.01 239.22 342.44 236.39 342.8" stroke="#2071B5" stroke-width="4.21" stroke-linecap="round" stroke-linejoin="round"/>
<path d="M227.31 275.02C224.78 276.16 222.46 277.8 219.67 278.36" stroke="#2071B5" stroke-width="4.21" stroke-linecap="round" stroke-linejoin="round"/>
<path d="M205.12 398.64C205.51 401.11 205.5 403.57 205.12 406.04" stroke="#2071B5" stroke-width="4.21" stroke-linecap="round" stroke-linejoin="round"/>
<path d="M151.9 333.25C154.3 334.33 156.51 335.83 159.06 336.59" stroke="#2071B5" stroke-width="4.21" stroke-linecap="round" stroke-linejoin="round"/>
<path d="M181.02 177.65C178.47 178.41 176.26 179.91 173.86 180.99" stroke="#2071B5" stroke-width="4.21" stroke-linecap="round" stroke-linejoin="round"/>
<path d="M273.13 294.59C271.27 296.86 269.16 298.9 266.93 300.79" stroke="#2071B5" stroke-width="4.21" stroke-linecap="round" stroke-linejoin="round"/>
<path d="M136.15 406.04C133.56 405.38 130.91 405.61 128.27 405.56" stroke="#2071B5" stroke-width="4.21" stroke-linecap="round" stroke-linejoin="round"/>
<path d="M237.34 180.52C235.24 179.63 233.38 178.22 231.14 177.66" stroke="#2071B5" stroke-width="4.21" stroke-linecap="round" stroke-linejoin="round"/>
<path d="M281.49 129.45C283.41 130.5 285.48 129.66 287.46 129.93" stroke="#2071B5" stroke-width="4.21" stroke-linecap="round" stroke-linejoin="round"/>
<path d="M416.08 286C414.1 286.26 412.11 286.26 410.11 286.24" stroke="#2071B5" stroke-width="4.21" stroke-linecap="round" stroke-linejoin="round"/>
<path d="M410.83 376.92V382.77" stroke="#2071B5" stroke-width="4.21" stroke-linecap="round" stroke-linejoin="round"/>
<path d="M400.09 79.5698C401.98 80.0898 403.91 79.6698 405.82 79.8098" stroke="#2071B5" stroke-width="4.21" stroke-linecap="round" stroke-linejoin="round"/>
<path d="M205.36 354.97V360.46" stroke="#2071B5" stroke-width="4.21" stroke-linecap="round" stroke-linejoin="round"/>
<path d="M205.36 319.41V323.71" stroke="#2071B5" stroke-width="4.21" stroke-linecap="round" stroke-linejoin="round"/>
<path d="M210.13 281.22H206.07" stroke="#2071B5" stroke-width="4.21" stroke-linecap="round" stroke-linejoin="round"/>
<path d="M145.93 177.89C147.44 178.78 148.26 180.46 149.87 181.23" stroke="#2071B5" stroke-width="4.21" stroke-linecap="round" stroke-linejoin="round"/>
<path d="M264.54 177.65C264.08 178.94 263.08 179.82 262.15 180.75" stroke="#2071B5" stroke-width="4.21" stroke-linecap="round" stroke-linejoin="round"/>
<path d="M156.67 275.02C157.23 276.11 158.3 276.74 159.06 277.65" stroke="#2071B5" stroke-width="4.21" stroke-linecap="round" stroke-linejoin="round"/>
<path d="M174.09 268.82C174.83 269.43 175.32 270.32 176.24 270.73" stroke="#2071B5" stroke-width="4.21" stroke-linecap="round" stroke-linejoin="round"/>
<path d="M249.51 279.08C249.21 279.22 249.33 279.65 249.03 279.8" stroke="#2071B5" stroke-width="4.21" stroke-linecap="round" stroke-linejoin="round"/>
<path d="M205.12 113.69C203.41 114.32 201.6 114.47 200.5 116.51C199.25 118.82 200.13 122.68 202.47 123.77C205.49 125.18 208.03 124.75 209.65 122.04C211.05 119.71 210.66 116.19 207.98 114.66C207.18 114.2 206.37 113.66 205.36 113.69" fill="#FFDA00" fill-opacity="0.7"/>
<path d="M205.12 113.69C203.41 114.32 201.6 114.47 200.5 116.51C199.25 118.82 200.13 122.68 202.47 123.77C205.49 125.18 208.03 124.75 209.65 122.04C211.05 119.71 210.66 116.19 207.98 114.66C207.18 114.2 206.37 113.66 205.36 113.69" stroke="#2071B5" stroke-width="4.21" stroke-linecap="round" stroke-linejoin="round"/>
<path d="M90.8099 229.44C86.5599 230.65 84.6699 233.93 86.2799 237.32C87.4999 239.89 90.1999 240.99 92.7199 239.95C95.4399 238.83 97.1099 235.51 96.0299 233.04C95.1099 230.93 93.6599 229.32 91.0499 229.45" fill="#FFDA00" fill-opacity="0.7"/>
<path d="M90.8099 229.44C86.5599 230.65 84.6699 233.93 86.2799 237.32C87.4999 239.89 90.1999 240.99 92.7199 239.95C95.4399 238.83 97.1099 235.51 96.0299 233.04C95.1099 230.93 93.6599 229.32 91.0499 229.45" stroke="#2071B5" stroke-width="4.21" stroke-linecap="round" stroke-linejoin="round"/>
<path d="M286.02 312.49C281.77 313.34 279.46 317.27 281.25 320.6C282.24 322.45 285.14 323.73 287.22 323.23C289.63 322.65 291.32 320.54 291.55 318.22C291.76 316.09 289.79 313.19 287.45 312.76C287.05 312.69 286.71 312.34 286.26 312.49" fill="#FFDA00" fill-opacity="0.7"/>
<path d="M286.02 312.49C281.77 313.34 279.46 317.27 281.25 320.6C282.24 322.45 285.14 323.73 287.22 323.23C289.63 322.65 291.32 320.54 291.55 318.22C291.76 316.09 289.79 313.19 287.45 312.76C287.05 312.69 286.71 312.34 286.26 312.49" stroke="#2071B5" stroke-width="4.21" stroke-linecap="round" stroke-linejoin="round"/>
</svg>
