<svg width="500" height="500" viewBox="0 0 500 500" fill="none" xmlns="http://www.w3.org/2000/svg">
<path d="M247 218V174.5L259.5 181.5V221L247 218Z" fill="#FFDA00" fill-opacity="0.7"/>
<path d="M339.5 122L291.5 144C333.1 183.6 340.833 235.167 339.5 256C339.5 297.2 310.5 332.167 296 344.5L343.5 322.5C380.3 297.3 389.5 253.333 389.5 234.5C393.5 178.9 357.833 136.333 339.5 122Z" fill="#FFDA00" fill-opacity="0.7"/>
<path d="M296.398 442.638V342.618C300.798 342.248 304.778 339.488 309.098 337.648C316.648 334.418 324.038 330.798 331.388 327.118C335.798 324.908 340.278 322.728 344.438 320.178C350.008 316.748 355.058 312.448 359.588 307.608C365.488 301.318 370.468 294.328 374.568 286.788C378.428 279.698 381.368 272.158 383.528 264.348C384.978 259.108 386.308 253.848 387.198 248.458C388.078 243.108 388.808 237.708 388.928 232.338C389.108 224.198 388.668 216.028 387.328 207.968C385.948 199.678 383.878 191.568 381.228 183.578C377.588 172.578 372.278 162.408 366.138 152.648C362.258 146.488 357.648 140.888 352.828 135.438C349.208 131.348 345.268 127.588 341.328 123.828C340.348 122.898 339.628 122.058 340.258 120.618C340.418 120.268 340.278 119.778 340.278 119.358C340.278 103.808 340.288 88.2677 340.268 72.7177C340.268 70.5177 339.878 68.4777 338.208 66.7377C336.998 65.4877 335.488 65.5377 334.128 65.3577C328.618 64.6177 323.108 63.9077 317.608 63.1277C310.408 62.1077 303.198 61.0977 295.988 60.1577C289.628 59.3277 283.268 58.4577 276.908 57.6077C272.238 56.9777 267.568 56.2277 262.898 55.6377C257.038 54.8877 251.188 54.0877 245.328 53.3577C240.518 52.7577 235.688 52.1477 230.898 51.3677C228.798 51.0277 226.658 50.8377 224.548 50.4677C222.848 50.1677 221.208 50.8677 219.698 51.3677C205.878 55.9477 191.708 59.3477 177.898 63.9577C176.388 64.4577 174.808 64.8577 173.248 65.2677C169.208 66.3277 170.158 67.3777 169.458 70.5977C169.158 71.9877 169.668 73.4077 169.668 74.8277C169.638 89.5977 169.668 104.368 169.638 119.128C169.638 120.918 169.858 122.668 170.078 124.428" stroke="#2071B5" stroke-width="4.21" stroke-linecap="round" stroke-linejoin="round"/>
<path d="M295.753 342.772C294.353 343.032 293.313 344.002 292.173 344.712C282.613 350.652 272.223 354.212 261.223 356.422C253.043 358.062 244.823 358.062 236.623 357.732C227.873 357.392 219.383 355.202 210.953 352.802C203.933 350.802 197.173 348.162 190.663 345.012C183.953 341.762 177.813 337.472 171.973 332.802C167.463 329.202 163.093 325.462 158.783 321.612C149.693 313.472 142.213 304.082 135.683 293.812C126.893 279.992 121.123 264.972 117.783 249.042C116.353 242.242 115.573 235.292 115.303 228.292C114.933 218.822 115.283 209.432 116.853 200.092C118.833 188.272 122.433 176.982 128.093 166.392C135.303 152.902 144.893 141.502 157.303 132.422C166.673 125.562 177.073 121.332 188.273 118.632C194.163 117.212 200.073 116.292 206.083 115.652C211.323 115.092 216.563 115.172 221.773 115.372C229.093 115.662 236.333 116.922 243.393 118.932C251.223 121.162 258.733 124.242 265.883 128.202C277.043 134.392 287.633 141.322 296.833 150.252C305.213 158.382 312.603 167.242 318.463 177.392C323.773 186.592 328.493 196.032 331.593 206.232C333.983 214.092 335.723 222.092 337.143 230.182C338.523 238.052 339.223 245.972 339.643 253.932C339.663 254.262 339.863 254.522 340.063 254.782" stroke="#2071B5" stroke-width="4.21" stroke-linecap="round" stroke-linejoin="round"/>
<path d="M344.626 320.525C345.456 322.685 344.976 324.895 344.966 327.095C344.926 340.595 344.946 354.085 344.946 367.585C344.946 374.505 344.996 381.435 344.906 388.355C344.886 389.875 345.376 390.625 346.846 390.905C355.406 392.535 363.986 394.105 372.516 395.915C374.316 396.295 376.176 396.545 378.016 396.835C379.666 397.095 380.356 397.835 380.436 399.785C380.716 407.065 380.386 414.345 380.596 421.625C380.646 423.355 379.466 424.155 378.406 424.755C374.096 427.195 369.956 429.895 365.726 432.455C357.486 437.445 349.106 442.235 340.996 447.405C336.616 450.195 332.466 451.075 327.556 449.855C319.636 447.895 311.576 446.475 303.626 444.665C293.526 442.365 283.346 440.465 273.266 438.065C269.096 437.075 264.896 435.925 260.576 435.625" stroke="#2071B5" stroke-width="4.21" stroke-linecap="round" stroke-linejoin="round"/>
<path d="M259.734 301.196C263.004 299.106 266.564 297.186 269.684 294.646C280.844 285.566 288.304 274.266 290.944 259.906C292.294 252.566 292.744 245.226 292.104 237.856C291.464 230.456 289.454 223.316 286.634 216.446C282.004 205.156 275.274 195.286 266.524 186.746C257.074 177.526 246.104 171.056 233.214 168.166C226.344 166.626 219.234 166.106 212.244 166.716C194.184 168.286 180.994 177.576 171.944 193.116C166.514 202.446 164.034 212.586 163.034 223.226C162.114 232.966 164.604 242.086 167.464 251.226C170.284 260.246 174.114 268.736 179.604 276.426C185.714 285.006 193.344 291.896 202.464 297.256C210.664 302.086 219.384 305.156 228.774 306.566C234.834 307.476 240.814 307.316 246.794 306.106" stroke="#2071B5" stroke-width="4.21" stroke-linecap="round" stroke-linejoin="round"/>
<path d="M184.896 66.3525C189.466 66.5025 193.976 67.0425 198.486 67.9525C200.756 68.4125 203.136 68.5725 205.456 68.9025C208.856 69.3925 212.256 70.0125 215.646 70.4825C218.816 70.9225 221.996 71.3725 225.176 71.8525C229.706 72.5325 234.226 73.2225 238.756 73.8925C242.986 74.5125 247.216 75.1725 251.446 75.7625C255.486 76.3325 259.516 77.1225 263.556 77.6925C267.856 78.3025 272.176 78.8825 276.466 79.5525C280.496 80.1825 284.566 80.6725 288.576 81.5425C290.326 81.9225 292.216 81.7025 293.866 82.6625C294.116 82.8125 294.306 82.5125 294.486 82.4325C302.676 78.7325 311.326 76.2725 319.736 73.1725C325.496 71.0525 331.326 69.0825 337.106 66.9825" stroke="#2071B5" stroke-width="4.21" stroke-linecap="round" stroke-linejoin="round"/>
<path d="M156.288 368.011C151.778 369.851 147.388 371.971 142.918 373.921C138.278 375.941 133.898 378.531 129.158 380.321C127.328 381.011 126.568 382.351 126.588 384.341C126.658 390.631 126.678 396.921 126.568 403.211C126.538 405.201 127.308 406.131 129.148 406.621C133.428 407.761 137.788 408.511 142.088 409.541C150.188 411.481 158.338 413.221 166.468 415.021C175.638 417.051 184.828 419.011 194.018 420.981C202.438 422.781 210.818 424.751 219.248 426.481C228.018 428.271 236.748 430.291 245.508 432.121C250.248 433.111 254.988 434.171 259.728 435.231" stroke="#2071B5" stroke-width="4.21" stroke-linecap="round" stroke-linejoin="round"/>
<path d="M339.426 255.66C340.116 259.46 339.236 263.2 338.706 266.88C337.546 275.04 335.716 283.06 332.896 290.86C326.846 307.62 318.076 322.58 304.846 334.7C302.776 336.59 300.586 338.38 298.296 340.02C297.436 340.64 296.566 341.2 296.396 342.36" stroke="#2071B5" stroke-width="4.21" stroke-linecap="round" stroke-linejoin="round"/>
<path d="M169.629 71.8672C174.659 72.4572 179.679 73.2272 184.669 74.0372C208.899 77.9572 233.169 81.6772 257.399 85.5672C268.899 87.4172 280.469 88.8672 291.939 90.9272C292.489 91.0272 293.069 90.9372 293.629 90.9372" stroke="#2071B5" stroke-width="4.21" stroke-linecap="round" stroke-linejoin="round"/>
<path d="M380.122 399.808C377.742 400.248 375.802 401.678 373.792 402.818C364.292 408.198 354.722 413.458 345.342 419.068C342.002 421.058 338.602 422.958 335.202 424.858C333.792 425.648 332.612 425.958 330.922 425.528C325.172 424.068 319.362 422.868 313.552 421.648C308.822 420.658 304.072 419.688 299.362 418.608C290.552 416.578 281.662 414.918 272.862 412.898C267.282 411.618 261.682 410.378 256.082 409.228C247.312 407.428 238.572 405.468 229.822 403.608C220.932 401.718 212.002 399.968 203.122 398.048C195.352 396.358 187.562 394.698 179.772 393.098C172.212 391.548 164.692 389.728 157.092 388.458C149.362 387.168 141.732 385.368 134.012 384.058C131.812 383.688 129.452 383.638 127.432 382.428" stroke="#2071B5" stroke-width="4.21" stroke-linecap="round" stroke-linejoin="round"/>
<path d="M224.529 167.464C224.479 169.484 222.809 170.534 221.739 171.894C216.019 179.164 211.879 187.174 210.119 196.304C207.319 210.864 208.929 224.874 214.919 238.514C218.669 247.054 223.439 254.854 229.859 261.554C234.719 266.634 241.729 272.604 247.959 276.014" stroke="#2071B5" stroke-width="4.21" stroke-linecap="round" stroke-linejoin="round"/>
<path d="M335.393 325.613C335.753 326.363 335.603 327.163 335.603 327.943C335.603 346.813 335.603 365.673 335.603 384.543C335.603 387.793 336.093 391.043 335.643 394.303C335.633 394.393 335.763 394.803 336.033 394.933" stroke="#2071B5" stroke-width="4.21" stroke-linecap="round" stroke-linejoin="round"/>
<path d="M289.607 352.533V405.103" stroke="#2071B5" stroke-width="4.21" stroke-linecap="round" stroke-linejoin="round"/>
<path d="M293.846 82.8955V141.196" stroke="#2071B5" stroke-width="4.21" stroke-linecap="round" stroke-linejoin="round"/>
<path d="M232.382 118.504V166.414" stroke="#2071B5" stroke-width="4.21" stroke-linecap="round" stroke-linejoin="round"/>
<path d="M162.637 229.584C157.047 228.564 151.477 227.394 145.877 226.484C139.867 225.504 133.897 224.324 127.877 223.394C123.697 222.744 119.567 221.674 115.367 221.114" stroke="#2071B5" stroke-width="4.21" stroke-linecap="round" stroke-linejoin="round"/>
<path d="M157.342 320.95C156.662 321.92 156.702 323.03 156.702 324.13C156.702 333.88 156.652 343.63 156.742 353.38C156.762 355.42 156.912 357.48 156.912 359.53C156.912 365.4 156.982 371.26 157.232 377.13" stroke="#2071B5" stroke-width="4.21" stroke-linecap="round" stroke-linejoin="round"/>
<path d="M247.425 173.616C247.065 174.366 247.215 175.166 247.215 175.946C247.215 190.436 247.215 204.916 247.215 219.406" stroke="#2071B5" stroke-width="4.21" stroke-linecap="round" stroke-linejoin="round"/>
<path d="M339.635 121.886C337.885 121.396 336.545 122.586 335.215 123.226C324.305 128.436 313.095 132.956 302.125 138.016C298.185 139.836 294.025 141.146 290.245 143.296" stroke="#2071B5" stroke-width="4.21" stroke-linecap="round" stroke-linejoin="round"/>
<path d="M388.403 231.066C383.383 232.786 378.674 235.196 374.004 237.656C363.824 243.016 353.573 248.236 343.243 253.296C342.953 253.436 342.633 253.626 342.433 253.786C340.023 255.696 337.324 255.616 334.564 255.016C328.884 253.766 323.104 253.076 317.404 251.996C312.104 250.996 306.774 250.156 301.474 249.196C298.544 248.666 295.583 248.066 292.583 247.826" stroke="#2071B5" stroke-width="4.21" stroke-linecap="round" stroke-linejoin="round"/>
<path d="M224.317 117.228V165.138" stroke="#2071B5" stroke-width="4.21" stroke-linecap="round" stroke-linejoin="round"/>
<path d="M340.068 74.8301C336.718 75.5901 333.558 76.9401 330.328 78.0401C320.108 81.5201 310.048 85.4501 299.798 88.8201" stroke="#2071B5" stroke-width="4.21" stroke-linecap="round" stroke-linejoin="round"/>
<path d="M329.461 79.4941C329.461 92.2141 329.471 104.934 329.431 117.654C329.431 118.224 329.401 120.174 329.361 125.604" stroke="#2071B5" stroke-width="4.21" stroke-linecap="round" stroke-linejoin="round"/>
<path d="M260.564 182.106C259.624 182.686 259.934 183.626 259.934 184.436C259.924 196.806 259.934 209.166 259.934 221.536" stroke="#2071B5" stroke-width="4.21" stroke-linecap="round" stroke-linejoin="round"/>
<path d="M277.956 96.4614C281.076 97.3314 282.106 99.9414 283.046 102.611C284.456 106.631 283.986 110.521 281.736 114.031C279.676 117.231 276.406 118.911 272.676 118.421C268.136 117.831 264.906 115.341 263.266 110.691C261.506 105.721 262.866 101.891 266.536 98.6014C269.196 96.2214 272.536 96.1214 275.846 96.3114C276.466 96.3514 277.126 96.3414 277.756 96.4614" fill="#FFDA00" fill-opacity="0.7"/>
<path d="M277.956 96.4614C281.076 97.3314 282.106 99.9414 283.046 102.611C284.456 106.631 283.986 110.521 281.736 114.031C279.676 117.231 276.406 118.911 272.676 118.421C268.136 117.831 264.906 115.341 263.266 110.691C261.506 105.721 262.866 101.891 266.536 98.6014C269.196 96.2214 272.536 96.1214 275.846 96.3114C276.466 96.3514 277.126 96.3414 277.756 96.4614" stroke="#2071B5" stroke-width="4.21" stroke-linecap="round" stroke-linejoin="round"/>
<path d="M190.613 82.016C193.393 82.796 194.303 85.116 195.143 87.496C196.403 91.076 195.983 94.546 193.973 97.676C192.143 100.526 189.223 102.026 185.903 101.586C181.853 101.056 178.983 98.836 177.513 94.696C175.943 90.266 177.153 86.856 180.423 83.916C182.793 81.786 185.773 81.706 188.723 81.876C189.273 81.906 189.863 81.906 190.423 82.006" fill="#FFDA00" fill-opacity="0.7"/>
<path d="M190.613 82.016C193.393 82.796 194.303 85.116 195.143 87.496C196.403 91.076 195.983 94.546 193.973 97.676C192.143 100.526 189.223 102.026 185.903 101.586C181.853 101.056 178.983 98.836 177.513 94.696C175.943 90.266 177.153 86.856 180.423 83.916C182.793 81.786 185.773 81.706 188.723 81.876C189.273 81.906 189.863 81.906 190.423 82.006" stroke="#2071B5" stroke-width="4.21" stroke-linecap="round" stroke-linejoin="round"/>
<path d="M345.152 389.814C329.992 398.364 312.642 408.314 297.672 417.194" stroke="#2071B5" stroke-width="4.21" stroke-linecap="round" stroke-linejoin="round"/>
<path d="M304.887 346.168V383.478" stroke="#2071B5" stroke-width="4.21" stroke-linecap="round" stroke-linejoin="round"/>
<path d="M208.636 211.781C206.466 211.681 204.596 212.791 202.726 213.551C193.686 217.231 184.706 221.071 175.596 224.581C171.966 225.981 168.336 227.431 164.786 229.011C164.176 229.281 163.646 229.291 163.066 229.371" stroke="#2071B5" stroke-width="4.21" stroke-linecap="round" stroke-linejoin="round"/>
<path d="M289.397 226.401C286.777 227.151 284.257 226.111 281.777 225.681C274.637 224.451 267.487 223.231 260.357 221.931C245.807 219.271 231.277 216.531 216.687 214.111C214.567 213.761 212.477 213.201 210.327 213.051" stroke="#2071B5" stroke-width="4.21" stroke-linecap="round" stroke-linejoin="round"/>
<path d="M165.391 329.64V365.25" stroke="#2071B5" stroke-width="4.21" stroke-linecap="round" stroke-linejoin="round"/>
<path d="M213.714 355.496V390.686" stroke="#2071B5" stroke-width="4.21" stroke-linecap="round" stroke-linejoin="round"/>
<path d="M273.079 305.896V338.546" stroke="#2071B5" stroke-width="4.21" stroke-linecap="round" stroke-linejoin="round"/>
<path d="M205.676 313.537V341.097" stroke="#2071B5" stroke-width="4.21" stroke-linecap="round" stroke-linejoin="round"/>
<path d="M178.107 154.962V180.822" stroke="#2071B5" stroke-width="4.21" stroke-linecap="round" stroke-linejoin="round"/>
<path d="M232.382 308.435V334.295" stroke="#2071B5" stroke-width="4.21" stroke-linecap="round" stroke-linejoin="round"/>
<path d="M332.43 426.3V450.25" stroke="#2071B5" stroke-width="4.21" stroke-linecap="round" stroke-linejoin="round"/>
<path d="M347.694 407.44C346.594 405.35 344.344 405.36 342.594 405.21C336.244 404.64 330.484 406.46 325.434 410.41C325.084 410.68 324.904 411.05 324.724 411.67C325.924 413.47 327.924 413.78 329.884 414C336.244 414.72 341.754 412.51 346.834 408.92C347.244 408.63 347.644 408.27 347.474 407.66" fill="#FFDA00" fill-opacity="0.7"/>
<path d="M347.694 407.44C346.594 405.35 344.344 405.36 342.594 405.21C336.244 404.64 330.484 406.46 325.434 410.41C325.084 410.68 324.904 411.05 324.724 411.67C325.924 413.47 327.924 413.78 329.884 414C336.244 414.72 341.754 412.51 346.834 408.92C347.244 408.63 347.644 408.27 347.474 407.66" stroke="#2071B5" stroke-width="4.21" stroke-linecap="round" stroke-linejoin="round"/>
<path d="M157.093 373.433C152.733 374.853 151.593 375.553 151.573 378.173C152.843 381.393 154.773 380.283 156.733 380.503" fill="#FFDA00" fill-opacity="0.7"/>
<path d="M157.093 373.433C152.733 374.853 151.593 375.553 151.573 378.173C152.843 381.393 154.773 380.283 156.733 380.503" stroke="#2071B5" stroke-width="4.21" stroke-linecap="round" stroke-linejoin="round"/>
<path d="M273.079 356.346V379.666" stroke="#2071B5" stroke-width="4.21" stroke-linecap="round" stroke-linejoin="round"/>
<path d="M224.317 80.5566V103.667" stroke="#2071B5" stroke-width="4.21" stroke-linecap="round" stroke-linejoin="round"/>
<path d="M232.375 82.8955C232.375 89.8155 232.375 96.7455 232.355 103.666C232.355 104.366 232.375 105.406 232.375 108.016" stroke="#2071B5" stroke-width="4.21" stroke-linecap="round" stroke-linejoin="round"/>
<path d="M214.153 79.9189V102.389" stroke="#2071B5" stroke-width="4.21" stroke-linecap="round" stroke-linejoin="round"/>
<path d="M281.137 281.932C276.997 281.132 272.787 280.742 268.627 280.022C262.327 278.942 254.137 277.832 247.967 276.002" stroke="#2071B5" stroke-width="4.21" stroke-linecap="round" stroke-linejoin="round"/>
<path d="M165.391 367.374V387.724" stroke="#2071B5" stroke-width="4.21" stroke-linecap="round" stroke-linejoin="round"/>
<path d="M205.676 369.924V387.734" stroke="#2071B5" stroke-width="4.21" stroke-linecap="round" stroke-linejoin="round"/>
<path d="M205.886 351.895C205.416 354.005 205.726 356.135 205.686 358.255C205.626 361.855 205.666 365.465 205.666 369.065" stroke="#2071B5" stroke-width="4.21" stroke-linecap="round" stroke-linejoin="round"/>
<path d="M300.21 121.04V137.15" stroke="#2071B5" stroke-width="4.21" stroke-linecap="round" stroke-linejoin="round"/>
<path d="M157.227 377.14C157.217 381.8 157.337 394.09 157.337 398.76C157.337 402.72 157.337 406.67 157.337 410.63C157.337 411.3 156.777 411.84 156.907 412.54" stroke="#2071B5" stroke-width="4.21" stroke-linecap="round" stroke-linejoin="round"/>
<path d="M289.607 417.822V439.872" stroke="#2071B5" stroke-width="4.21" stroke-linecap="round" stroke-linejoin="round"/>
<path d="M224.317 402.77V416.97" stroke="#2071B5" stroke-width="4.21" stroke-linecap="round" stroke-linejoin="round"/>
<path d="M153.938 212.199V225.769" stroke="#2071B5" stroke-width="4.21" stroke-linecap="round" stroke-linejoin="round"/>
<path d="M273.504 159.638V172.778" stroke="#2071B5" stroke-width="4.21" stroke-linecap="round" stroke-linejoin="round"/>
<path d="M165.391 391.541V404.681" stroke="#2071B5" stroke-width="4.21" stroke-linecap="round" stroke-linejoin="round"/>
<path d="M232.382 358.897V371.617" stroke="#2071B5" stroke-width="4.21" stroke-linecap="round" stroke-linejoin="round"/>
<path d="M259.505 301.432C256.645 302.052 254.185 303.672 251.455 304.622C250.205 305.052 249.025 305.722 247.635 305.672" stroke="#2071B5" stroke-width="4.21" stroke-linecap="round" stroke-linejoin="round"/>
<path d="M348.547 237.205V249.075" stroke="#2071B5" stroke-width="4.21" stroke-linecap="round" stroke-linejoin="round"/>
<path d="M232.382 336.415V347.865" stroke="#2071B5" stroke-width="4.21" stroke-linecap="round" stroke-linejoin="round"/>
<path d="M273.079 294.031V305.051" stroke="#2071B5" stroke-width="4.21" stroke-linecap="round" stroke-linejoin="round"/>
<path d="M232.382 383.065V393.245" stroke="#2071B5" stroke-width="4.21" stroke-linecap="round" stroke-linejoin="round"/>
<path d="M232.382 107.063V116.393" stroke="#2071B5" stroke-width="4.21" stroke-linecap="round" stroke-linejoin="round"/>
<path d="M385.01 223.652C385.12 226.482 384.76 229.312 385.22 232.132" stroke="#2071B5" stroke-width="4.21" stroke-linecap="round" stroke-linejoin="round"/>
<path d="M301.911 238.905V247.385" stroke="#2071B5" stroke-width="4.21" stroke-linecap="round" stroke-linejoin="round"/>
<path d="M304.887 396.205V404.265" stroke="#2071B5" stroke-width="4.21" stroke-linecap="round" stroke-linejoin="round"/>
<path d="M273.079 344.694V351.694" stroke="#2071B5" stroke-width="4.21" stroke-linecap="round" stroke-linejoin="round"/>
<path d="M273.085 339.512C273.085 340.922 273.125 342.342 273.065 343.752" stroke="#2071B5" stroke-width="4.21" stroke-linecap="round" stroke-linejoin="round"/>
<path d="M302.125 249.721C301.824 250.181 301.935 250.702 301.915 251.202" stroke="#2071B5" stroke-width="4.21" stroke-linecap="round" stroke-linejoin="round"/>
</svg>
