<svg width="500" height="500" viewBox="0 0 500 500" fill="none" xmlns="http://www.w3.org/2000/svg">
<path d="M342.116 181.859L297.866 200.957V383.545L342.116 359.79V181.859Z" fill="#FFDA00" fill-opacity="0.7"/>
<path d="M201.057 107.47L170.227 121.234L203.259 138.576L266.572 111.599V66.1794L236.292 49.6631L232.163 51.8653L230.511 74.1623L207.939 62.8761L201.057 66.1794V107.47Z" fill="#FFDA00" fill-opacity="0.7"/>
<path d="M316.015 143.081L263.437 166.668L292.92 181.901L350.412 155.366V106.227L320.438 90.5029L316.015 93.4512V143.081Z" fill="#FFDA00" fill-opacity="0.7"/>
<path d="M272.289 118.688L218.817 146.657L247.61 161.054L308.485 133.495V83.3142L276.813 68.918L272.289 72.2085V118.688Z" fill="#FFDA00" fill-opacity="0.7"/>
<path d="M103.76 356.261C108.28 359.551 113.43 361.681 118.31 364.321C126.55 368.771 134.85 373.121 143.16 377.431C152.68 382.381 161.94 387.791 171.51 392.651C181.24 397.591 190.76 402.971 200.44 408.021C209.72 412.861 218.87 417.951 228.07 422.951C238.17 428.451 248.3 433.921 258.51 439.221C261.47 440.761 264.47 442.241 267.36 443.901C268.6 444.621 269.42 444.401 270.44 443.841C277.62 439.881 284.97 436.241 292.17 432.331C304.22 425.801 316.42 419.571 328.62 413.321C339.03 407.991 349.61 403.001 359.99 397.611C368.64 393.111 377.35 388.721 386.04 384.301" stroke="#2071B5" stroke-width="4.20561" stroke-linecap="round" stroke-linejoin="round"/>
<path d="M278.9 393.421V421.591C281.63 421.001 283.76 419.571 286.05 418.591C288.7 417.461 291.22 416.021 293.9 414.951C295.93 414.141 296.81 412.661 296.71 410.591C296.28 402.261 296.61 393.931 296.53 385.601C296.53 385.061 296.13 384.621 296.31 384.011C300 382.921 303.19 380.661 306.69 379.031C313.44 375.891 320.05 372.441 326.71 369.091C336.34 364.231 345.88 359.191 355.61 354.521C358.41 353.181 361.05 351.491 363.89 350.231C364.91 349.781 365.26 349.231 365.18 348.231C365.16 347.941 365.18 347.651 365.18 347.361V170.041C365.18 169.611 365.17 169.171 365.18 168.741C365.22 167.491 364.58 167.411 363.66 167.871C351.28 174.031 338.96 180.331 326.5 186.331C318.53 190.161 310.7 194.281 302.6 197.851C300.7 198.691 299.16 200.291 296.95 200.461" stroke="#2071B5" stroke-width="4.20561" stroke-linecap="round" stroke-linejoin="round"/>
<path d="M363.21 168.51C363.56 169.21 363.42 169.96 363.42 170.68C363.42 229.42 363.42 288.17 363.42 346.91C363.42 347.64 363.56 348.39 363.21 349.08" stroke="#2071B5" stroke-width="4.20561" stroke-linecap="round" stroke-linejoin="round"/>
<path d="M133.96 340.179C127.57 343.049 121.6 346.749 115.29 349.789C112.52 351.119 109.79 352.549 106.99 353.839C105.23 354.649 103.93 356.209 102.01 356.709C101.44 356.859 101.6 357.369 101.57 357.789C101.24 361.609 101.3 361.489 104.82 363.469C112.62 367.849 120.64 371.819 128.55 375.999C135.62 379.739 142.8 383.299 149.8 387.159C161.63 393.689 173.63 399.909 185.47 406.449C192.22 410.179 199.07 413.729 205.87 417.359C214.34 421.869 222.83 426.319 231.3 430.819C239.69 435.269 248.11 439.649 256.49 444.099C260.01 445.969 263.57 447.759 267.13 449.549C268.36 450.169 269.21 450.189 270.43 449.549C277.16 445.989 283.89 442.419 290.61 438.839C302.51 432.509 314.47 426.289 326.45 420.129C338.23 414.069 350.11 408.199 361.92 402.189C369.51 398.319 377.19 394.629 384.74 390.679C386.28 389.879 386.8 389.019 386.71 387.369C386.63 385.829 386.28 384.329 386.26 382.809C386.26 382.149 386.13 381.589 385.57 381.299C382.87 379.899 380.27 378.249 377.32 377.369" stroke="#2071B5" stroke-width="4.20561" stroke-linecap="round" stroke-linejoin="round"/>
<path d="M127.66 147.429C126.6 150.159 126.81 150.419 129.6 151.799C132.85 153.409 136.01 155.209 139.16 157.019C146.53 161.259 154.09 165.109 161.58 169.109C173.5 175.469 185.56 181.559 197.82 187.249C206.02 191.049 213.95 195.399 221.98 199.549C231.07 204.249 240.21 208.869 249.34 213.499C256.53 217.149 263.68 220.899 270.88 224.529C272.38 225.279 272.64 226.139 272.62 227.629C272.55 236.609 272.59 245.589 272.59 254.579V310.209C272.59 337.949 272.59 365.689 272.59 393.439C272.59 394.239 272.43 395.059 272.8 395.829" stroke="#2071B5" stroke-width="4.20561" stroke-linecap="round" stroke-linejoin="round"/>
<path d="M371.47 154.391V299.981" stroke="#2071B5" stroke-width="4.20561" stroke-linecap="round" stroke-linejoin="round"/>
<path d="M135.05 122.011C137.5 124.131 140.51 125.291 143.32 126.761C155.09 132.921 166.77 139.251 178.52 145.461C189.78 151.411 201.32 156.801 212.81 162.291C221.4 166.401 229.94 170.631 238.5 174.791C251.32 181.021 264.12 187.301 276.98 193.451C278.85 194.351 279.39 195.411 279.4 197.411C279.44 204.511 279.13 211.611 279.48 218.711C279.55 220.041 279.38 221.461 279.34 222.831C279.31 223.661 279.2 224.451 278.26 224.791C276.51 225.421 274.89 226.371 273.04 226.741" stroke="#2071B5" stroke-width="4.20561" stroke-linecap="round" stroke-linejoin="round"/>
<path d="M357.13 171.551C357.5 172.321 357.34 173.141 357.34 173.941C357.34 215.731 357.34 257.531 357.34 299.321C357.34 316.121 357.34 332.931 357.34 349.731C357.34 350.531 357.18 351.351 357.55 352.121" stroke="#2071B5" stroke-width="4.20561" stroke-linecap="round" stroke-linejoin="round"/>
<path d="M142 327.79C143.91 330.27 146.77 331.41 149.41 332.75C164.34 340.35 179.09 348.28 193.92 356.07C204.91 361.84 215.78 367.83 226.74 373.66C238.09 379.71 249.49 385.67 260.83 391.74C262.54 392.66 264.73 393.23 265.68 395.35C265.88 395.8 266.45 396.2 266.96 396.2C269.15 396.23 270.46 397.9 272.19 398.81C274.56 400.05 275.11 402.13 274.98 404.48C274.79 408.1 274.81 411.72 274.77 415.35C274.77 416.15 275.13 417.09 273.92 417.55C272.5 418.08 271.29 419.58 269.57 418.6C267.12 417.19 264.65 415.83 262.21 414.43C251.43 408.26 240.4 402.56 229.34 396.94C217.79 391.06 206.36 384.95 194.82 379.05C186.8 374.95 178.88 370.65 170.9 366.49C162.16 361.94 153.56 357.12 144.8 352.63C139.29 349.81 133.97 346.63 128.32 344.09" stroke="#2071B5" stroke-width="4.20561" stroke-linecap="round" stroke-linejoin="round"/>
<path d="M349.96 136.35C353.47 137.34 356.51 139.35 359.7 140.99C364.32 143.36 369.02 145.52 373.67 147.82C376.07 149.01 377.21 150.4 377.2 153.3C377.07 174.88 377.13 196.47 377.13 218.06C377.13 270.94 377.13 323.81 377.11 376.69C377.11 378.38 377.28 380.03 377.56 381.69" stroke="#2071B5" stroke-width="4.20561" stroke-linecap="round" stroke-linejoin="round"/>
<path d="M140.26 150.039C142.37 152.239 145.29 153.029 147.88 154.359C156.5 158.779 165.02 163.399 173.75 167.599C181.14 171.149 188.53 174.709 195.86 178.359C206.18 183.499 216.43 188.799 226.75 193.929C233.77 197.419 240.71 201.059 247.8 204.419C256.27 208.429 264.13 213.609 272.38 218.049C274.49 219.189 276.61 220.329 278.89 221.099" stroke="#2071B5" stroke-width="4.20561" stroke-linecap="round" stroke-linejoin="round"/>
<path d="M166.56 267.171C166.12 263.491 166.34 259.781 166.17 256.091C165.97 251.901 166.35 247.701 166.2 243.491C165.96 236.691 166.13 229.871 166.13 223.071C166.13 220.531 166.12 218.001 166.13 215.461C166.13 214.681 165.87 213.801 166.85 213.251C173.9 216.851 181.01 220.441 188.08 224.131C197.81 229.211 207.63 234.141 217.62 238.721C218.58 239.161 219.18 239.811 219.18 241.101C219.13 268.121 219.15 295.141 219.14 322.151C219.14 322.811 219.23 323.481 218.84 324.151C216.8 323.661 214.76 322.921 212.84 321.921C207.96 319.371 203.02 316.901 198.02 314.621C189.7 310.831 181.78 306.231 173.33 302.701C171.38 301.881 169.27 300.891 167.63 299.331" stroke="#2071B5" stroke-width="4.20561" stroke-linecap="round" stroke-linejoin="round"/>
<path d="M340.62 191.979V313.019C340.62 316.349 340.61 319.679 340.63 323.019C340.63 323.589 340.24 324.529 341.49 324.319" stroke="#2071B5" stroke-width="4.20561" stroke-linecap="round" stroke-linejoin="round"/>
<path d="M236.53 207.839C236.17 208.059 236.32 208.409 236.32 208.709C236.01 250.649 236.11 292.589 236.1 334.529C236.1 335.119 236.12 335.689 236.28 336.279C236.43 336.819 236.53 337.559 236.28 337.989C235.18 339.839 232.98 340.039 231.32 341.049C230.56 341.509 230.02 341.359 229.11 340.919C219.95 336.469 211 331.649 201.96 326.969C196.23 324.009 190.52 321.019 184.82 318.009C176.56 313.669 168.38 309.169 160.04 304.999C159.41 304.689 158.72 304.539 158.31 303.899" stroke="#2071B5" stroke-width="4.20561" stroke-linecap="round" stroke-linejoin="round"/>
<path d="M376.25 382.55C370.32 385.39 364.34 388.14 358.43 391.02C341.07 399.48 323.72 407.94 306.48 416.64C298.96 420.44 291.37 424.08 283.89 427.96C282.8 428.52 281.78 428.63 280.6 427.8C279.23 426.83 277.54 426.35 276.29 425.15" stroke="#2071B5" stroke-width="4.20561" stroke-linecap="round" stroke-linejoin="round"/>
<path d="M127.88 151.78C127.59 153.29 127.44 154.81 127.44 156.34C127.44 168.22 127.31 180.1 127.47 191.98C127.89 222.47 127.53 252.97 127.63 283.46C127.63 284.46 127.92 285.35 128.09 286.28" stroke="#2071B5" stroke-width="4.20561" stroke-linecap="round" stroke-linejoin="round"/>
<path d="M308.02 245.438V334.748" stroke="#2071B5" stroke-width="4.20561" stroke-linecap="round" stroke-linejoin="round"/>
<path d="M151.78 113.749C153.83 115.539 156.44 116.309 158.75 117.629C164.76 121.089 171.02 124.099 177.22 127.179C187.61 132.339 198.07 137.359 208.45 142.509C218.49 147.489 228.55 152.429 238.5 157.599C243.41 160.149 248.5 162.389 253.43 164.889C263.92 170.209 274.52 175.299 284.98 180.669C288.21 182.329 291.48 183.909 294.79 185.379C296.28 186.039 296.52 186.899 296.51 188.269C296.47 193.769 296.37 199.279 296.52 204.779C296.83 215.569 296.63 226.369 296.59 237.159C296.5 259.249 296.59 281.349 296.5 303.439C296.45 315.029 296.5 326.619 296.5 338.209C296.5 352.699 296.5 367.179 296.5 381.669C296.5 382.329 296.39 382.999 296.71 383.629" stroke="#2071B5" stroke-width="4.20561" stroke-linecap="round" stroke-linejoin="round"/>
<path d="M375.6 149.61C372.83 151.88 369.35 152.79 366.21 154.29C361.3 156.63 356.2 158.62 351.29 160.97C339.12 166.77 326.7 172.03 314.56 177.9C308.55 180.81 302.41 183.43 296.51 186.56" stroke="#2071B5" stroke-width="4.20561" stroke-linecap="round" stroke-linejoin="round"/>
<path d="M160.04 190.459C159.51 192.829 159.91 195.239 159.68 197.639C159.54 199.039 161.27 199.539 162.24 199.949C167.81 202.289 173.08 205.239 178.53 207.799C185.68 211.169 192.72 214.769 199.81 218.269C205.68 221.159 211.51 224.139 217.39 226.999C221.58 229.039 225.82 231.009 229.86 233.369C230.37 233.669 231.75 234.469 232.9 233.329C233.53 232.709 234.75 232.219 235.88 232.829" stroke="#2071B5" stroke-width="4.20561" stroke-linecap="round" stroke-linejoin="round"/>
<path d="M157.86 188.721C166.23 193.351 175.08 197.041 183.48 201.591C195.2 207.941 207.34 213.421 219.17 219.521C224.49 222.271 229.76 225.141 235.21 227.641C235.53 227.791 235.79 227.791 236.09 227.831" stroke="#2071B5" stroke-width="4.20561" stroke-linecap="round" stroke-linejoin="round"/>
<path d="M197.85 267.82C198.34 272.3 197.96 276.8 198.05 281.29C198.07 282.32 197.1 282.64 196.33 283.03C190.12 286.19 183.95 289.43 177.87 292.82C171.33 296.47 164.61 299.78 158.02 303.33C153.28 305.88 148.46 308.4 143.51 310.59C142.8 310.9 142.44 311.74 141.44 311.74C137.18 309.42 132.99 306.76 128.38 304.84C127.29 304.38 125.82 303 125.83 300.86C125.85 297.68 125.78 294.49 125.7 291.3C125.64 288.82 126.67 287.12 128.96 286.07C139.3 281.32 149.45 276.21 159.61 271.1C164.76 268.51 169.91 265.89 175.1 263.4C177.85 262.08 180.61 260.64 183.5 259.53C184.33 259.21 184.89 259.13 185.7 259.55C189.48 261.48 193.22 263.49 197 265.41C198.18 266.01 198.39 266.6 197.64 267.61" stroke="#2071B5" stroke-width="4.20561" stroke-linecap="round" stroke-linejoin="round"/>
<path d="M197.41 267.601C190.65 270.971 183.92 274.361 177.2 277.811C166.07 283.521 154.96 289.251 143.73 294.751C141.12 296.031 139.49 297.581 139.98 300.861C140.39 303.641 139.82 306.511 140.27 309.321C140.35 309.811 140.09 310.201 139.94 310.621" stroke="#2071B5" stroke-width="4.20561" stroke-linecap="round" stroke-linejoin="round"/>
<path d="M213.71 244.779C213.71 267.159 213.71 289.539 213.71 311.929C213.71 313.019 213.75 314.099 213.71 315.189" stroke="#2071B5" stroke-width="4.20561" stroke-linecap="round" stroke-linejoin="round"/>
<path d="M229.57 233.921C229.11 234.611 229.37 235.371 229.37 236.091C229.35 265.501 229.36 294.911 229.36 324.311" stroke="#2071B5" stroke-width="4.20561" stroke-linecap="round" stroke-linejoin="round"/>
<path d="M371.47 302.591V370.391" stroke="#2071B5" stroke-width="4.20561" stroke-linecap="round" stroke-linejoin="round"/>
<path d="M348.87 202.63C350.15 202.4 349.74 203.32 349.74 203.93C349.74 211.9 349.74 219.87 349.74 227.83V267.81" stroke="#2071B5" stroke-width="4.20561" stroke-linecap="round" stroke-linejoin="round"/>
<path d="M314.97 135.92C313.16 135.91 311.7 136.94 310.21 137.7C303.52 141.08 296.48 143.69 289.74 146.97C282.78 150.36 275.68 153.47 268.67 156.75C264.06 158.91 259.53 161.21 254.98 163.5C254.52 163.73 254.29 164.13 253.9 164.39" stroke="#2071B5" stroke-width="4.20561" stroke-linecap="round" stroke-linejoin="round"/>
<path d="M220.66 144.391C229.88 139.801 239.02 135.051 248.25 130.481C256.73 126.291 265.14 121.951 273.92 117.811C272.66 114.841 269.43 115.181 267.43 113.601C264.85 116.081 261.62 117.281 258.62 118.621C253.05 121.121 247.69 124.011 242.16 126.571C234.22 130.251 226.4 134.171 218.48 137.881C215.4 139.321 212.16 140.461 209.35 142.431" stroke="#2071B5" stroke-width="4.20561" stroke-linecap="round" stroke-linejoin="round"/>
<path d="M348.87 106.361C343.32 108.531 344.35 107.351 344.33 112.661C344.27 126.491 344.28 140.331 344.34 154.161C344.34 156.141 343.8 157.511 341.92 158.301C336.02 160.761 330.27 163.551 324.57 166.411C316.69 170.361 308.67 174.011 300.81 178.001C298.14 179.361 295.35 180.571 292.58 181.741C291.79 182.081 291.04 182.331 290.85 183.281" stroke="#2071B5" stroke-width="4.20561" stroke-linecap="round" stroke-linejoin="round"/>
<path d="M157.65 169.16C157.65 174.45 157.57 179.74 157.47 185.02C157.32 192.98 157.43 200.95 157.43 208.92C157.43 228.62 157.42 248.32 157.47 268.03C157.47 269.19 156.84 270.35 157.43 271.51" stroke="#2071B5" stroke-width="4.20561" stroke-linecap="round" stroke-linejoin="round"/>
<path d="M315.63 141.569C308.55 145.169 301.2 148.199 294.11 151.769C289.25 154.219 284.25 156.389 279.35 158.759C273.81 161.439 268.41 164.409 262.82 166.989" stroke="#2071B5" stroke-width="4.20561" stroke-linecap="round" stroke-linejoin="round"/>
<path d="M201.76 89.6289C198.91 90.2289 196.52 91.8989 193.93 93.0889C186.39 96.5389 178.81 99.9489 171.37 103.589C164.68 106.869 157.82 109.799 151.33 113.489C147.14 115.869 142.69 117.809 138.28 119.759C136.53 120.539 135.16 122.139 132.89 122.049C132.86 125.479 132.89 128.739 132.89 131.999C132.89 133.389 132.66 134.629 131.6 135.709C129.3 138.069 129.6 140.859 130.48 143.729C131.22 146.149 133.12 147.439 135.06 148.719" stroke="#2071B5" stroke-width="4.20561" stroke-linecap="round" stroke-linejoin="round"/>
<path d="M308.02 192.2C308.02 209.29 308.02 226.39 307.98 243.48C307.98 244.07 308.76 245.3 307.15 245.22" stroke="#2071B5" stroke-width="4.20561" stroke-linecap="round" stroke-linejoin="round"/>
<path d="M233.7 79.4197V122.16C231.09 123.61 229.42 121.76 227.64 120.88C220.96 117.59 214.35 114.13 207.66 110.87C206.42 110.27 205.16 109.64 203.92 109.01C202.54 108.31 202.31 107.41 202.36 105.93C202.48 102.02 202.28 98.0997 202.27 94.1997C202.26 88.9197 202.37 83.6297 202.43 78.3397C202.48 74.7197 202.16 71.0897 202.62 67.4697C202.68 67.0197 202.24 66.6397 202.2 66.1697C203.18 65.1497 204.41 64.5597 205.67 63.9797C206.87 63.4197 207.96 63.4297 209.16 63.9797C215.51 66.9197 221.69 70.2197 228.04 73.1697C228.69 73.4697 229.5 73.3997 230.02 73.9897" stroke="#2071B5" stroke-width="4.20561" stroke-linecap="round" stroke-linejoin="round"/>
<path d="M236.53 122.66C236.04 120.78 236.53 118.89 236.51 117.01C236.46 111.79 236.47 106.58 236.41 101.36C236.35 96.6597 236.63 91.9397 236.48 87.2397C236.39 84.3797 236.47 81.4997 236.21 78.5297C234.16 78.6297 232.37 79.3397 230.71 80.1497C229.68 80.6497 229.22 80.3797 228.49 79.8697C224.87 77.2897 220.7 75.7497 216.75 73.7997C212.42 71.6597 208 69.7297 203.71 67.4897C203.48 67.3697 203.14 67.4697 202.85 67.4697" stroke="#2071B5" stroke-width="4.20561" stroke-linecap="round" stroke-linejoin="round"/>
<path d="M241.53 244.779V289.539" stroke="#2071B5" stroke-width="4.20561" stroke-linecap="round" stroke-linejoin="round"/>
<path d="M261.3 67.9004C261.3 81.8104 261.3 95.7104 261.31 109.62C261.31 110.34 261.05 111.11 261.51 111.79" stroke="#2071B5" stroke-width="4.20561" stroke-linecap="round" stroke-linejoin="round"/>
<path d="M166.56 222.181C167.91 221.921 169 222.741 170.01 223.311C177.92 227.751 186.48 230.791 194.57 234.811C200.87 237.941 207.43 240.531 213.47 244.151C214.18 244.571 214.8 244.151 215.44 244.341" stroke="#2071B5" stroke-width="4.20561" stroke-linecap="round" stroke-linejoin="round"/>
<path d="M146.13 161.56C145.76 162.33 145.92 163.15 145.92 163.95C145.92 176.99 145.92 190.03 145.92 203.06" stroke="#2071B5" stroke-width="4.20561" stroke-linecap="round" stroke-linejoin="round"/>
<path d="M201.76 98.9707C196.31 101.391 190.9 103.911 185.47 106.371C180.45 108.641 175.44 110.941 170.47 113.301C167.57 114.681 164.59 115.861 161.77 117.411C161.33 117.651 161.08 118.051 160.7 118.301" stroke="#2071B5" stroke-width="4.20561" stroke-linecap="round" stroke-linejoin="round"/>
<path d="M302.15 87.459C302.15 98.689 302.23 109.919 302.1 121.139C302.06 124.399 302.22 127.659 302.16 130.919C302.13 132.519 301.48 134.079 301.93 135.699" stroke="#2071B5" stroke-width="4.20561" stroke-linecap="round" stroke-linejoin="round"/>
<path d="M228.92 80.7197C228.55 81.4897 228.71 82.3097 228.71 83.1097C228.71 94.8397 228.71 106.58 228.71 118.31C228.71 119.18 228.81 120.07 228.5 120.92" stroke="#2071B5" stroke-width="4.20561" stroke-linecap="round" stroke-linejoin="round"/>
<path d="M136.57 231.091C133.24 232.071 131.81 235.411 133.33 239.121C135.26 243.831 138.4 245.191 143.09 245.611C145.01 245.781 146 244.751 146.35 242.821C147.34 237.361 142.95 231.681 137.44 231.321C137.17 231.301 137.07 230.971 136.79 231.091" stroke="#2071B5" stroke-width="4.20561" stroke-linecap="round" stroke-linejoin="round"/>
<path d="M307.59 133.091C307.45 116.861 307.89 100.641 307.79 83.9806C306.24 82.3106 303.57 81.7006 301.26 80.5606C294.14 77.0506 286.91 73.7606 279.77 70.3006C279.15 70.0006 278.61 69.5706 278.02 69.2306C276.87 68.5706 273.4 69.9006 273.08 71.1706C272.85 72.0906 272.98 73.0606 274.12 73.5606C283.4 77.5806 292.15 82.7206 301.47 86.6706C302.52 87.1206 303.02 86.9606 303.92 86.6506C305.09 86.2406 306.01 85.1806 307.38 85.2906" stroke="#2071B5" stroke-width="4.20561" stroke-linecap="round" stroke-linejoin="round"/>
<path d="M176.33 296.72C180.03 298.15 183.38 300.29 186.96 301.98C192.23 304.46 197.37 307.24 202.61 309.79C207.71 312.27 212.91 314.59 217.62 317.8" stroke="#2071B5" stroke-width="4.20561" stroke-linecap="round" stroke-linejoin="round"/>
<path d="M171.34 224.79C171.05 227.55 171.28 230.33 171.63 233.04C172 235.87 171.98 238.73 172.47 241.52C173.28 246.13 173.12 250.83 173.93 255.44C174.36 257.88 174.48 260.37 174.82 262.83" stroke="#2071B5" stroke-width="4.20561" stroke-linecap="round" stroke-linejoin="round"/>
<path d="M139.39 342.791C142.14 341.661 142.08 339.331 141.28 336.511C140.62 334.191 139.07 332.251 137.22 330.621C136.32 329.821 135.08 329.651 134.21 330.061C133.18 330.541 132.58 331.671 132.63 333.021C132.84 338.711 136.49 343.241 141.99 344.531C143.42 344.861 144.56 344.061 145.42 343.181C146.2 342.391 146.23 341.201 145.47 340.181" stroke="#2071B5" stroke-width="4.20561" stroke-linecap="round" stroke-linejoin="round"/>
<path d="M267.06 113.75C266.78 113.44 266.77 112.88 266.79 112.67C267.29 108.23 265.94 103.78 266.63 99.4301C267.04 96.8501 266.78 94.3301 266.88 91.8001C267.22 82.9701 266.66 74.1301 266.74 65.2901C266.74 64.5901 266.5 64.2901 265.87 63.9601C256.52 59.1001 246.76 55.1101 237.38 50.3201C235.55 49.3901 233.99 50.7101 232.39 51.3801" stroke="#2071B5" stroke-width="4.20561" stroke-linecap="round" stroke-linejoin="round"/>
<path d="M357.13 379.511C352.95 381.581 348.91 383.991 344.5 385.521C341.63 386.521 339.44 388.591 336.7 389.721C333.37 391.101 330.23 392.951 327.22 394.841C324.22 396.721 320.83 397.091 317.76 398.551C312.06 401.271 306.33 403.951 300.63 406.671C299.4 407.261 298.11 407.711 296.93 408.401" stroke="#2071B5" stroke-width="4.20561" stroke-linecap="round" stroke-linejoin="round"/>
<path d="M260.65 268.47C260.09 264.58 258.56 261.31 254.78 259.57C250.98 257.82 248.68 260.2 248.89 263.48C249.09 266.65 251.66 270.45 254.57 271.52C257.63 272.64 259.32 271.86 260.65 268.7" stroke="#2071B5" stroke-width="4.20561" stroke-linecap="round" stroke-linejoin="round"/>
<path d="M201.98 106.58C199.53 106.75 197.61 108.27 195.48 109.22C186.83 113.06 178.25 117.06 169.6 120.92C169.11 121.14 168.68 121.43 168.3 121.79" stroke="#2071B5" stroke-width="4.20561" stroke-linecap="round" stroke-linejoin="round"/>
<path d="M340.62 324.529V357.339" stroke="#2071B5" stroke-width="4.20561" stroke-linecap="round" stroke-linejoin="round"/>
<path d="M316.28 143.089C315.87 138.539 315.46 133.989 315.6 129.399C315.72 125.409 314.94 121.359 315.15 117.459C315.49 110.929 315.18 104.409 315.38 97.8895C315.42 96.4495 315.66 95.0095 315.25 93.5295C314.92 92.3395 316.73 91.0795 318.67 90.9395C319.5 90.8795 320.32 90.9994 321.06 91.3794C329.53 95.6794 338.22 99.5095 346.72 103.729C348.74 104.729 349.56 106.129 349.55 108.319C349.5 115.639 349.63 122.949 349.49 130.269C349.41 134.329 349.22 138.379 349.53 142.439C349.8 146.059 348.95 149.679 349.51 153.309C349.67 154.339 349.41 155.329 348.01 155.259C346.59 155.189 345.9 157.119 344.32 156.569" stroke="#2071B5" stroke-width="4.20561" stroke-linecap="round" stroke-linejoin="round"/>
<path d="M210.23 90.5002C210.03 93.9302 211.84 96.2402 214.6 97.8502C216.15 98.7502 218.01 98.9202 219.55 97.8502C221.21 96.6902 220.83 94.7202 220.6 93.1202C220.21 90.3502 216.65 87.0702 213.92 86.5902C212.15 86.2802 210.35 87.9802 210.01 90.2802" stroke="#2071B5" stroke-width="4.20561" stroke-linecap="round" stroke-linejoin="round"/>
<path d="M250.87 215.229C250.41 215.919 250.67 216.679 250.67 217.399C250.65 226.669 250.59 235.94 250.71 245.21C250.73 247.08 250.06 249.049 251.09 250.859" stroke="#2071B5" stroke-width="4.20561" stroke-linecap="round" stroke-linejoin="round"/>
<path d="M344.53 108.101C340.68 106.701 337.17 104.561 333.46 102.861C327.78 100.251 322.15 97.5206 316.49 94.8606C316.31 94.7806 316.06 94.8506 315.84 94.8506" stroke="#2071B5" stroke-width="4.20561" stroke-linecap="round" stroke-linejoin="round"/>
<path d="M253.48 426.23C254.38 428.48 256.59 429.14 258.49 429.36C260.67 429.62 263.1 430.16 265.22 428.63C266.81 427.48 267.1 426.12 265.62 424.95C263.12 422.98 260.3 422.35 257.16 423.38C255.66 423.87 253.82 423.76 253.69 426.01" stroke="#2071B5" stroke-width="4.20561" stroke-linecap="round" stroke-linejoin="round"/>
<path d="M246.31 266.95V294.76" stroke="#2071B5" stroke-width="4.20561" stroke-linecap="round" stroke-linejoin="round"/>
<path d="M333.01 129.611C334.4 129.701 334.74 128.491 334.91 127.641C335.42 125.061 332.54 119.811 329.1 119.601C325.9 119.401 324.85 120.871 325.6 124.621C326.15 127.321 329.89 130.261 332.79 129.831" stroke="#2071B5" stroke-width="4.20561" stroke-linecap="round" stroke-linejoin="round"/>
<path d="M132.87 248.259V275.639" stroke="#2071B5" stroke-width="4.20561" stroke-linecap="round" stroke-linejoin="round"/>
<path d="M232.83 54.4289C234.32 53.8589 235.59 54.7189 236.72 55.3389C244.01 59.3189 251.67 62.5489 259.05 66.3089C261.9 67.7589 263.91 67.3189 266.3 66.1589" stroke="#2071B5" stroke-width="4.20561" stroke-linecap="round" stroke-linejoin="round"/>
<path d="M306.93 133.739C304.02 134.929 301.26 136.449 298.44 137.839C292.52 140.769 286.76 144.009 280.65 146.599C271.49 150.479 262.32 154.359 253.45 158.909C252.19 159.559 250.83 160.019 249.52 160.609C248.78 160.949 248.53 161.399 248.25 161.979" stroke="#2071B5" stroke-width="4.20561" stroke-linecap="round" stroke-linejoin="round"/>
<path d="M127.66 360.171C127.95 361.081 128.4 361.711 129.38 362.171C132.48 363.641 135.46 363.671 138.55 362.161C139.45 361.721 139.69 360.931 139.36 360.421C137.47 357.491 131.31 355.701 128.13 358.901C127.92 359.111 127.67 359.541 127.67 359.961" stroke="#2071B5" stroke-width="4.20561" stroke-linecap="round" stroke-linejoin="round"/>
<path d="M141.13 218.27C143.34 218.07 143.65 217.7 143.75 215.66C143.89 212.58 142.63 210.23 140.02 208.74C137.98 207.58 135.46 209.35 135.48 211.75C135.5 214.71 137.81 217.57 140.91 218.49" stroke="#2071B5" stroke-width="4.20561" stroke-linecap="round" stroke-linejoin="round"/>
<path d="M322.36 397.331C322.44 398.141 321.73 398.181 321.27 398.411C313.68 402.211 306.13 406.101 298.48 409.771C297.97 410.021 297.39 410.041 296.93 410.371" stroke="#2071B5" stroke-width="4.20561" stroke-linecap="round" stroke-linejoin="round"/>
<path d="M145.91 251.741C145.91 259.491 145.91 267.241 145.91 274.991C145.91 275.721 145.77 276.471 146.12 277.161" stroke="#2071B5" stroke-width="4.20561" stroke-linecap="round" stroke-linejoin="round"/>
<path d="M232.18 51.8193C232.67 60.7293 232.27 69.6393 232.38 78.5493C232.38 78.8293 232.73 78.9193 232.61 79.1993" stroke="#2071B5" stroke-width="4.20561" stroke-linecap="round" stroke-linejoin="round"/>
<path d="M282.81 120.051C282.81 128.021 282.43 135.981 282.59 143.951" stroke="#2071B5" stroke-width="4.20561" stroke-linecap="round" stroke-linejoin="round"/>
<path d="M266.3 409.931C268.75 409.121 269.68 407.601 268.86 404.951C268.25 402.991 267.45 400.971 265.63 399.751C264.77 399.181 263.79 397.981 262.65 398.891C261.64 399.691 260.87 400.891 261.11 402.321C261.65 405.571 262.62 408.581 266.09 409.931" stroke="#2071B5" stroke-width="4.20561" stroke-linecap="round" stroke-linejoin="round"/>
<path d="M262.6 112.88C260.43 113.78 258.29 114.7 255.87 114.9C254.17 115.04 252.74 116.25 251.1 116.84C246.02 118.66 241.08 120.88 236.15 123.01C226.01 127.39 215.77 131.6 205.89 136.56C204.91 137.05 203.81 137.31 202.85 137.87" stroke="#2071B5" stroke-width="4.20561" stroke-linecap="round" stroke-linejoin="round"/>
<path d="M349.52 175.25C349.99 176.68 349.71 178.15 349.72 179.6C349.75 186.55 349.75 193.51 349.72 200.46C349.72 201.18 349.98 201.95 349.52 202.63" stroke="#2071B5" stroke-width="4.20561" stroke-linecap="round" stroke-linejoin="round"/>
<path d="M271.51 197.411C265.88 195.441 260.78 192.351 255.43 189.801C253.24 188.751 251.08 187.631 248.91 186.551" stroke="#2071B5" stroke-width="4.20561" stroke-linecap="round" stroke-linejoin="round"/>
<path d="M308.02 147.429V172.639" stroke="#2071B5" stroke-width="4.20561" stroke-linecap="round" stroke-linejoin="round"/>
<path d="M272.6 206.969C271.7 205.789 271.41 204.309 270.65 203.059C269.09 200.489 267.18 198.379 263.91 198.299C261.25 198.239 260 199.549 260.01 202.189C260.01 203.219 259.77 204.289 260.44 205.229" stroke="#2071B5" stroke-width="4.20561" stroke-linecap="round" stroke-linejoin="round"/>
<path d="M204.15 115.709V135.269" stroke="#2071B5" stroke-width="4.20561" stroke-linecap="round" stroke-linejoin="round"/>
<path d="M308.02 343.871V362.561" stroke="#2071B5" stroke-width="4.20561" stroke-linecap="round" stroke-linejoin="round"/>
<path d="M207.63 251.741V269.561" stroke="#2071B5" stroke-width="4.20561" stroke-linecap="round" stroke-linejoin="round"/>
<path d="M266.73 211.97C268.45 210.63 269.35 209.17 268.77 206.74C268.09 203.9 266.31 202.32 263.88 201.4C262.86 201.01 261.91 202.09 261.54 203.08C260.06 207.06 262.12 210.83 266.29 211.97C266.67 212.07 267.04 212.34 267.38 212.37C268.61 212.49 269.88 213.14 271.07 212.19C272.47 211.07 273.84 209.95 273.24 207.84" stroke="#2071B5" stroke-width="4.20561" stroke-linecap="round" stroke-linejoin="round"/>
<path d="M265.21 395.589C264.78 395.589 264.32 395.669 263.91 395.579C261.23 394.959 259.8 395.669 259.38 398.209C258.83 401.549 258.79 404.829 261.72 407.349C262.15 407.719 262.32 407.239 262.61 407.329" stroke="#2071B5" stroke-width="4.20561" stroke-linecap="round" stroke-linejoin="round"/>
<path d="M296.07 384.291C287.49 388.431 279.05 392.851 270.65 397.331" stroke="#2071B5" stroke-width="4.20561" stroke-linecap="round" stroke-linejoin="round"/>
<path d="M316.28 143.961C315.75 150.471 316.4 157.011 315.83 163.521C315.8 163.811 316.17 163.891 316.06 164.171" stroke="#2071B5" stroke-width="4.20561" stroke-linecap="round" stroke-linejoin="round"/>
<path d="M324.1 147.869V164.819" stroke="#2071B5" stroke-width="4.20561" stroke-linecap="round" stroke-linejoin="round"/>
<path d="M133.09 134.18C137.59 135.51 141.06 139.73 141.13 143.96C141.18 147.18 140.78 147.69 137.65 148.31" stroke="#2071B5" stroke-width="4.20561" stroke-linecap="round" stroke-linejoin="round"/>
<path d="M202.41 264.341V280.421" stroke="#2071B5" stroke-width="4.20561" stroke-linecap="round" stroke-linejoin="round"/>
<path d="M250.87 187.849C250.38 193.199 250.79 198.569 250.65 203.929" stroke="#2071B5" stroke-width="4.20561" stroke-linecap="round" stroke-linejoin="round"/>
<path d="M236.31 176.55C236.65 183.36 236.29 190.17 236.31 196.98" stroke="#2071B5" stroke-width="4.20561" stroke-linecap="round" stroke-linejoin="round"/>
<path d="M141.13 343.661C144.26 343.321 145.74 339.911 144.59 336.491C143.72 333.931 142.46 331.431 140.81 329.401C139.1 327.281 136.38 326.071 133.73 325.241C132.27 324.781 130 327.581 129.84 329.751C129.6 333.001 130.16 336.041 132.25 338.641C132.69 339.191 132.71 339.801 132.88 340.391" stroke="#2071B5" stroke-width="4.20561" stroke-linecap="round" stroke-linejoin="round"/>
<path d="M142.22 242.389C143.8 239.639 142.97 236.629 140.26 235.449C139.13 234.959 137.99 234.699 137 235.859C135.97 237.069 136.09 238.309 136.81 239.549C137.07 239.989 137.56 240.299 137.66 240.869" stroke="#2071B5" stroke-width="4.20561" stroke-linecap="round" stroke-linejoin="round"/>
<path d="M277.6 128.311V143.521" stroke="#2071B5" stroke-width="4.20561" stroke-linecap="round" stroke-linejoin="round"/>
<path d="M273.47 73.5498C272.98 76.2898 273.39 79.0598 273.25 81.8098C273.11 84.6398 273.29 87.4798 273.37 90.2798C273.49 94.3398 273.19 98.3898 273.42 102.46C273.64 106.36 273.47 110.28 273.46 114.19C273.46 114.84 273.13 115.39 272.81 115.93" stroke="#2071B5" stroke-width="4.20561" stroke-linecap="round" stroke-linejoin="round"/>
<path d="M265.43 324.75V339.09" stroke="#2071B5" stroke-width="4.20561" stroke-linecap="round" stroke-linejoin="round"/>
<path d="M128.09 305.189C127.4 306.629 127.21 308.139 127.18 309.749C127.13 313.009 127.45 316.269 127.03 319.529C126.77 321.579 128.76 323.409 131.78 324.049C132.45 324.189 133.08 324.149 133.29 324.949" stroke="#2071B5" stroke-width="4.20561" stroke-linecap="round" stroke-linejoin="round"/>
<path d="M241.09 70.9404V84.4104" stroke="#2071B5" stroke-width="4.20561" stroke-linecap="round" stroke-linejoin="round"/>
<path d="M230.23 325.619C228.83 325.489 229.39 326.559 229.38 327.139C229.34 331.119 229.36 335.109 229.36 339.089" stroke="#2071B5" stroke-width="4.20561" stroke-linecap="round" stroke-linejoin="round"/>
<path d="M157.21 143.961C158.13 145.021 157.69 146.311 157.59 147.431C157.29 150.921 157.51 154.391 157.64 157.861" stroke="#2071B5" stroke-width="4.20561" stroke-linecap="round" stroke-linejoin="round"/>
<path d="M279.34 83.9795V97.0195" stroke="#2071B5" stroke-width="4.20561" stroke-linecap="round" stroke-linejoin="round"/>
<path d="M201.11 160.909V173.509" stroke="#2071B5" stroke-width="4.20561" stroke-linecap="round" stroke-linejoin="round"/>
<path d="M357.78 373.209C358.41 376.369 357.15 378.299 354.1 379.339C352.43 379.909 350.9 380.889 349.31 381.689" stroke="#2071B5" stroke-width="4.20561" stroke-linecap="round" stroke-linejoin="round"/>
<path d="M133.31 130.699C135.45 131.569 137.56 132.469 139.41 133.939C143.53 137.209 144.96 141.509 144.6 146.569C144.55 147.309 144.28 147.889 143.54 148.339C142.43 149.029 141.21 149.349 140.02 149.779C139.55 149.949 138.68 150.159 138.33 149.589C137.35 148.029 135.64 147.349 134.38 146.139C132.6 144.439 132.67 142.209 132.44 140.039" stroke="#2071B5" stroke-width="4.20561" stroke-linecap="round" stroke-linejoin="round"/>
<path d="M330.62 353.441C326.68 351.981 323.11 349.781 319.33 347.981C319.01 347.831 318.74 347.831 318.45 347.791" stroke="#2071B5" stroke-width="4.20561" stroke-linecap="round" stroke-linejoin="round"/>
<path d="M267.17 396.681C268.59 398.951 270.59 400.741 271.62 403.381C272.54 405.751 272.24 408.041 272.39 410.371C272.46 411.451 271.6 411.971 270.88 411.831C269.3 411.511 267.45 411.711 266.3 410.151" stroke="#2071B5" stroke-width="4.20561" stroke-linecap="round" stroke-linejoin="round"/>
<path d="M340.4 179.811C340.88 183.421 340.54 187.051 340.58 190.681C340.58 191.471 340.61 191.881 341.49 191.771" stroke="#2071B5" stroke-width="4.20561" stroke-linecap="round" stroke-linejoin="round"/>
<path d="M241.09 298.68V309.98" stroke="#2071B5" stroke-width="4.20561" stroke-linecap="round" stroke-linejoin="round"/>
<path d="M357.56 353.869C357.91 359.809 358.06 365.759 357.48 371.679C357.32 373.289 358.39 372.599 358.86 372.989" stroke="#2071B5" stroke-width="4.20561" stroke-linecap="round" stroke-linejoin="round"/>
<path d="M166.34 316.71V327.79" stroke="#2071B5" stroke-width="4.20561" stroke-linecap="round" stroke-linejoin="round"/>
<path d="M143.74 195.239C140.27 197.019 136.74 198.649 133.09 200.019" stroke="#2071B5" stroke-width="4.20561" stroke-linecap="round" stroke-linejoin="round"/>
<path d="M289.77 190.891C286.39 192.311 283.14 194.001 279.77 195.451" stroke="#2071B5" stroke-width="4.20561" stroke-linecap="round" stroke-linejoin="round"/>
<path d="M376.9 379.729C373.71 380.939 370.71 382.579 367.56 383.859" stroke="#2071B5" stroke-width="4.20561" stroke-linecap="round" stroke-linejoin="round"/>
<path d="M232.83 82.6797V91.8097" stroke="#2071B5" stroke-width="4.20561" stroke-linecap="round" stroke-linejoin="round"/>
<path d="M183.72 246.521V255.211" stroke="#2071B5" stroke-width="4.20561" stroke-linecap="round" stroke-linejoin="round"/>
<path d="M236.74 146.131C236.27 149.011 236.78 151.941 236.31 154.821" stroke="#2071B5" stroke-width="4.20561" stroke-linecap="round" stroke-linejoin="round"/>
<path d="M192.42 290.42V298.68" stroke="#2071B5" stroke-width="4.20561" stroke-linecap="round" stroke-linejoin="round"/>
<path d="M127.66 318.67C129.46 319.18 130.97 320.3 132.65 321.08C133.96 321.69 133.38 322.73 133.09 323.67" stroke="#2071B5" stroke-width="4.20561" stroke-linecap="round" stroke-linejoin="round"/>
<path d="M126.14 290.201C128.68 290.961 130.85 292.541 133.31 293.461" stroke="#2071B5" stroke-width="4.20561" stroke-linecap="round" stroke-linejoin="round"/>
<path d="M216.32 90.9303C215.63 89.1903 214.13 89.8803 213.34 90.3803C212.55 90.8803 212.22 92.1603 213.27 93.1103C213.51 93.3303 213.66 93.6403 213.71 93.9703" stroke="#2071B5" stroke-width="4.20561" stroke-linecap="round" stroke-linejoin="round"/>
<path d="M285.64 100.931C285.16 102.741 286.09 104.731 287.6 105.051C288.14 105.161 288.72 104.981 289.1 104.611C289.54 104.191 289.48 103.611 289.12 103.111C288.29 101.971 287.5 100.771 285.86 100.721" stroke="#2071B5" stroke-width="4.20561" stroke-linecap="round" stroke-linejoin="round"/>
<path d="M308.24 115.05C310.5 115.62 312.45 117.02 314.76 117.44" stroke="#2071B5" stroke-width="4.20561" stroke-linecap="round" stroke-linejoin="round"/>
<path d="M175.25 294.979C176.46 297.729 175.63 300.488 175.25 303.238" stroke="#2071B5" stroke-width="4.20561" stroke-linecap="round" stroke-linejoin="round"/>
<path d="M251.96 342.999C253.99 344.009 256.02 345.029 258.04 346.039" stroke="#2071B5" stroke-width="4.20561" stroke-linecap="round" stroke-linejoin="round"/>
<path d="M222.4 321.709C224.43 322.719 226.46 323.739 228.48 324.749" stroke="#2071B5" stroke-width="4.20561" stroke-linecap="round" stroke-linejoin="round"/>
<path d="M273.47 118.529C273.7 120.819 274.15 123.129 272.82 125.269" stroke="#2071B5" stroke-width="4.20561" stroke-linecap="round" stroke-linejoin="round"/>
<path d="M280.64 328.661C278.7 327.911 277.05 326.551 274.99 326.051" stroke="#2071B5" stroke-width="4.20561" stroke-linecap="round" stroke-linejoin="round"/>
<path d="M198.5 305.63C196.61 304.78 194.8 303.74 192.85 303.02" stroke="#2071B5" stroke-width="4.20561" stroke-linecap="round" stroke-linejoin="round"/>
<path d="M267.6 97.0195C269.48 97.1695 271.17 98.1195 273.03 98.3195" stroke="#2071B5" stroke-width="4.20561" stroke-linecap="round" stroke-linejoin="round"/>
<path d="M258.47 250.429C256.01 249.199 253.54 247.969 251.08 246.739" stroke="#2071B5" stroke-width="4.20561" stroke-linecap="round" stroke-linejoin="round"/>
<path d="M262.39 111.801C260.47 112.311 258.51 112.741 257.17 114.411" stroke="#2071B5" stroke-width="4.20561" stroke-linecap="round" stroke-linejoin="round"/>
<path d="M331.49 125.269C331.54 122.989 329.98 123.949 328.88 123.969" stroke="#2071B5" stroke-width="4.20561" stroke-linecap="round" stroke-linejoin="round"/>
<path d="M329.1 124.4C329.43 125.56 330.4 126.15 331.3 126.76C331.55 126.93 331.89 126.53 331.93 126.14" stroke="#2071B5" stroke-width="4.20561" stroke-linecap="round" stroke-linejoin="round"/>
<path d="M264.12 110.931C263.03 111.091 263.89 111.641 263.9 112.021C264.75 111.871 265.42 112.711 266.29 112.451" stroke="#2071B5" stroke-width="4.20561" stroke-linecap="round" stroke-linejoin="round"/>
<path d="M292.37 137.439C292.44 138.379 292.18 139.349 292.59 140.259" stroke="#2071B5" stroke-width="4.20561" stroke-linecap="round" stroke-linejoin="round"/>
<path d="M255.87 249.781V251.741" stroke="#2071B5" stroke-width="4.20561" stroke-linecap="round" stroke-linejoin="round"/>
<path d="M219.36 145.259C218.87 145.649 218.02 145.519 217.84 146.349" stroke="#2071B5" stroke-width="4.20561" stroke-linecap="round" stroke-linejoin="round"/>
<path d="M238.48 181.33C237.77 181.47 237.33 180.88 236.74 180.68" stroke="#2071B5" stroke-width="4.20561" stroke-linecap="round" stroke-linejoin="round"/>
<path d="M251.96 296.94C249.2 298.2 249.03 300.45 249.56 303.03C250.36 306.86 254.37 309.91 257.61 309.11C259.41 308.67 260.8 307.04 260.63 305.31C260.19 300.67 256.33 296.38 252.17 296.94" stroke="#2071B5" stroke-width="4.20561" stroke-linecap="round" stroke-linejoin="round"/>
<path d="M136.35 204.8C133.29 206.27 132.13 208.47 132.89 211.75C134 216.6 136.35 220.38 141.56 221.78C144.42 222.55 146.92 221.02 147.22 218.06C147.71 213.21 144.15 207.34 139.64 205.19C138.57 204.68 137.58 204.99 136.57 204.81" stroke="#2071B5" stroke-width="4.20561" stroke-linecap="round" stroke-linejoin="round"/>
<path d="M284.55 97.4504C280.73 100.63 281.59 105 286.49 107.68C287.74 108.36 289.05 108.96 290.4 108.7C292.76 108.24 294 105.29 293.01 102.88C291.85 100.08 288.83 96.8804 284.76 97.4404" stroke="#2071B5" stroke-width="4.20561" stroke-linecap="round" stroke-linejoin="round"/>
<path d="M246.31 79.1992C243.34 80.8692 244.05 83.6892 245.7 86.7792C246.16 87.6392 246.95 88.3692 247.81 88.9992C250.35 90.8592 251.95 90.2792 252.58 87.2292C253.22 84.1292 249.76 79.6692 246.53 79.1992" stroke="#2071B5" stroke-width="4.20561" stroke-linecap="round" stroke-linejoin="round"/>
</svg>
