<?xml version="1.0" encoding="UTF-8"?>
<svg id="icons" xmlns="http://www.w3.org/2000/svg" viewBox="0 0 500 500">
  <defs>
    <style>
      .cls-1 {
        stroke-width: .76px;
      }

      .cls-1, .cls-2 {
        fill: none;
        stroke: #000;
        stroke-linecap: round;
        stroke-linejoin: round;
      }

      .cls-2 {
        stroke-width: .85px;
      }
    </style>
  </defs>
  <path class="cls-2" d="M296.4,442.63v-100.02c4.4-.37,8.38-3.13,12.7-4.97,7.55-3.23,14.94-6.85,22.29-10.53,4.41-2.21,8.89-4.39,13.05-6.94,5.57-3.43,10.62-7.73,15.15-12.57,5.9-6.29,10.88-13.28,14.98-20.82,3.86-7.09,6.8-14.63,8.96-22.44,1.45-5.24,2.78-10.5,3.67-15.89.88-5.35,1.61-10.75,1.73-16.12.18-8.14-.26-16.31-1.6-24.37-1.38-8.29-3.45-16.4-6.1-24.39-3.64-11-8.95-21.17-15.09-30.93-3.88-6.16-8.49-11.76-13.31-17.21-3.62-4.09-7.56-7.85-11.5-11.61-.98-.93-1.7-1.77-1.07-3.21.16-.35.02-.84.02-1.26,0-15.55.01-31.09-.01-46.64,0-2.2-.39-4.24-2.06-5.98-1.21-1.25-2.72-1.2-4.08-1.38-5.51-.74-11.02-1.45-16.52-2.23-7.2-1.02-14.41-2.03-21.62-2.97-6.36-.83-12.72-1.7-19.08-2.55-4.67-.63-9.34-1.38-14.01-1.97-5.86-.75-11.71-1.55-17.57-2.28-4.81-.6-9.64-1.21-14.43-1.99-2.1-.34-4.24-.53-6.35-.9-1.7-.3-3.34.4-4.85.9-13.82,4.58-27.99,7.98-41.8,12.59-1.51.5-3.09.9-4.65,1.31-4.04,1.06-3.09,2.11-3.79,5.33-.3,1.39.21,2.81.21,4.23-.03,14.77,0,29.54-.03,44.3,0,1.79.22,3.54.44,5.3"/>
  <path class="cls-2" d="M295.76,342.78c-1.4.26-2.44,1.23-3.58,1.94-9.56,5.94-19.95,9.5-30.95,11.71-8.18,1.64-16.4,1.64-24.6,1.31-8.75-.34-17.24-2.53-25.67-4.93-7.02-2-13.78-4.64-20.29-7.79-6.71-3.25-12.85-7.54-18.69-12.21-4.51-3.6-8.88-7.34-13.19-11.19-9.09-8.14-16.57-17.53-23.1-27.8-8.79-13.82-14.56-28.84-17.9-44.77-1.43-6.8-2.21-13.75-2.48-20.75-.37-9.47-.02-18.86,1.55-28.2,1.98-11.82,5.58-23.11,11.24-33.7,7.21-13.49,16.8-24.89,29.21-33.97,9.37-6.86,19.77-11.09,30.97-13.79,5.89-1.42,11.8-2.34,17.81-2.98,5.24-.56,10.48-.48,15.69-.28,7.32.29,14.56,1.55,21.62,3.56,7.83,2.23,15.34,5.31,22.49,9.27,11.16,6.19,21.75,13.12,30.95,22.05,8.38,8.13,15.77,16.99,21.63,27.14,5.31,9.2,10.03,18.64,13.13,28.84,2.39,7.86,4.13,15.86,5.55,23.95,1.38,7.87,2.08,15.79,2.5,23.75.02.33.22.59.42.85"/>
  <path class="cls-2" d="M344.62,320.52c.83,2.16.35,4.37.34,6.57-.04,13.5-.02,26.99-.02,40.49,0,6.92.05,13.85-.04,20.77-.02,1.52.47,2.27,1.94,2.55,8.56,1.63,17.14,3.2,25.67,5.01,1.8.38,3.66.63,5.5.92,1.65.26,2.34,1,2.42,2.95.28,7.28-.05,14.56.16,21.84.05,1.73-1.13,2.53-2.19,3.13-4.31,2.44-8.45,5.14-12.68,7.7-8.24,4.99-16.62,9.78-24.73,14.95-4.38,2.79-8.53,3.67-13.44,2.45-7.92-1.96-15.98-3.38-23.93-5.19-10.1-2.3-20.28-4.2-30.36-6.6-4.17-.99-8.37-2.14-12.69-2.44"/>
  <path class="cls-2" d="M259.73,301.2c3.27-2.09,6.83-4.01,9.95-6.55,11.16-9.08,18.62-20.38,21.26-34.74,1.35-7.34,1.8-14.68,1.16-22.05-.64-7.4-2.65-14.54-5.47-21.41-4.63-11.29-11.36-21.16-20.11-29.7-9.45-9.22-20.42-15.69-33.31-18.58-6.87-1.54-13.98-2.06-20.97-1.45-18.06,1.57-31.25,10.86-40.3,26.4-5.43,9.33-7.91,19.47-8.91,30.11-.92,9.74,1.57,18.86,4.43,28,2.82,9.02,6.65,17.51,12.14,25.2,6.11,8.58,13.74,15.47,22.86,20.83,8.2,4.83,16.92,7.9,26.31,9.31,6.06.91,12.04.75,18.02-.46"/>
  <path class="cls-2" d="M184.89,66.35c4.57.15,9.08.69,13.59,1.6,2.27.46,4.65.62,6.97.95,3.4.49,6.8,1.11,10.19,1.58,3.17.44,6.35.89,9.53,1.37,4.53.68,9.05,1.37,13.58,2.04,4.23.62,8.46,1.28,12.69,1.87,4.04.57,8.07,1.36,12.11,1.93,4.3.61,8.62,1.19,12.91,1.86,4.03.63,8.1,1.12,12.11,1.99,1.75.38,3.64.16,5.29,1.12.25.15.44-.15.62-.23,8.19-3.7,16.84-6.16,25.25-9.26,5.76-2.12,11.59-4.09,17.37-6.19"/>
  <path class="cls-2" d="M156.28,368.01c-4.51,1.84-8.9,3.96-13.37,5.91-4.64,2.02-9.02,4.61-13.76,6.4-1.83.69-2.59,2.03-2.57,4.02.07,6.29.09,12.58-.02,18.87-.03,1.99.74,2.92,2.58,3.41,4.28,1.14,8.64,1.89,12.94,2.92,8.1,1.94,16.25,3.68,24.38,5.48,9.17,2.03,18.36,3.99,27.55,5.96,8.42,1.8,16.8,3.77,25.23,5.5,8.77,1.79,17.5,3.81,26.26,5.64,4.74.99,9.48,2.05,14.22,3.11"/>
  <path class="cls-2" d="M339.43,255.66c.69,3.8-.19,7.54-.72,11.22-1.16,8.16-2.99,16.18-5.81,23.98-6.05,16.76-14.82,31.72-28.05,43.84-2.07,1.89-4.26,3.68-6.55,5.32-.86.62-1.73,1.18-1.9,2.34"/>
  <path class="cls-2" d="M169.63,71.87c5.03.59,10.05,1.36,15.04,2.17,24.23,3.92,48.5,7.64,72.73,11.53,11.5,1.85,23.07,3.3,34.54,5.36.55.1,1.13.01,1.69.01"/>
  <path class="cls-2" d="M380.13,399.81c-2.38.44-4.32,1.87-6.33,3.01-9.5,5.38-19.07,10.64-28.45,16.25-3.34,1.99-6.74,3.89-10.14,5.79-1.41.79-2.59,1.1-4.28.67-5.75-1.46-11.56-2.66-17.37-3.88-4.73-.99-9.48-1.96-14.19-3.04-8.81-2.03-17.7-3.69-26.5-5.71-5.58-1.28-11.18-2.52-16.78-3.67-8.77-1.8-17.51-3.76-26.26-5.62-8.89-1.89-17.82-3.64-26.7-5.56-7.77-1.69-15.56-3.35-23.35-4.95-7.56-1.55-15.08-3.37-22.68-4.64-7.73-1.29-15.36-3.09-23.08-4.4-2.2-.37-4.56-.42-6.58-1.63"/>
  <path class="cls-2" d="M224.53,167.47c-.05,2.02-1.72,3.07-2.79,4.43-5.72,7.27-9.86,15.28-11.62,24.41-2.8,14.56-1.19,28.57,4.8,42.21,3.75,8.54,8.52,16.34,14.94,23.04,4.86,5.08,11.87,11.05,18.1,14.46"/>
  <path class="cls-2" d="M335.4,325.61c.36.75.21,1.55.21,2.33,0,18.87,0,37.73,0,56.6,0,3.25.49,6.5.04,9.76-.01.09.12.5.39.63"/>
  <path class="cls-2" d="M289.61,352.53v52.57"/>
  <path class="cls-2" d="M293.85,82.89v58.3"/>
  <path class="cls-2" d="M232.38,118.5v47.91"/>
  <path class="cls-2" d="M162.64,229.58c-5.59-1.02-11.16-2.19-16.76-3.1-6.01-.98-11.98-2.16-18-3.09-4.18-.65-8.31-1.72-12.51-2.28"/>
  <path class="cls-2" d="M157.34,320.95c-.68.97-.64,2.08-.64,3.18,0,9.75-.05,19.5.04,29.25.02,2.04.17,4.1.17,6.15,0,5.87.07,11.73.32,17.6"/>
  <path class="cls-2" d="M247.43,173.62c-.36.75-.21,1.55-.21,2.33,0,14.49,0,28.97,0,43.46"/>
  <path class="cls-2" d="M339.64,121.89c-1.75-.49-3.09.7-4.42,1.34-10.91,5.21-22.12,9.73-33.09,14.79-3.94,1.82-8.1,3.13-11.88,5.28"/>
  <path class="cls-2" d="M388.4,231.07c-5.02,1.72-9.73,4.13-14.4,6.59-10.18,5.36-20.43,10.58-30.76,15.64-.29.14-.61.33-.81.49-2.41,1.91-5.11,1.83-7.87,1.23-5.68-1.25-11.46-1.94-17.16-3.02-5.3-1-10.63-1.84-15.93-2.8-2.93-.53-5.89-1.13-8.89-1.37"/>
  <path class="cls-2" d="M224.32,117.23v47.91"/>
  <path class="cls-2" d="M340.07,74.83c-3.35.76-6.51,2.11-9.74,3.21-10.22,3.48-20.28,7.41-30.53,10.78"/>
  <path class="cls-2" d="M329.47,79.5c0,12.72.01,25.44-.03,38.16,0,.57-.03,2.52-.07,7.95"/>
  <path class="cls-2" d="M260.57,182.1c-.94.58-.63,1.52-.63,2.33-.01,12.37,0,24.73,0,37.1"/>
  <path class="cls-2" d="M277.95,96.46c3.12.87,4.15,3.48,5.09,6.15,1.41,4.02.94,7.91-1.31,11.42-2.06,3.2-5.33,4.88-9.06,4.39-4.54-.59-7.77-3.08-9.41-7.73-1.76-4.97-.4-8.8,3.27-12.09,2.66-2.38,6-2.48,9.31-2.29.62.04,1.28.03,1.91.15"/>
  <path class="cls-1" d="M190.61,82.02c2.78.78,3.69,3.1,4.53,5.48,1.26,3.58.84,7.05-1.17,10.18-1.83,2.85-4.75,4.35-8.07,3.91-4.05-.53-6.92-2.75-8.39-6.89-1.57-4.43-.36-7.84,2.91-10.78,2.37-2.13,5.35-2.21,8.3-2.04.55.03,1.14.03,1.7.13"/>
  <path class="cls-2" d="M345.15,389.81c-15.16,8.55-32.51,18.5-47.48,27.38"/>
  <path class="cls-2" d="M304.88,346.17v37.31"/>
  <path class="cls-2" d="M208.64,211.78c-2.17-.1-4.04,1.01-5.91,1.77-9.04,3.68-18.02,7.52-27.13,11.03-3.63,1.4-7.26,2.85-10.81,4.43-.61.27-1.14.28-1.72.36"/>
  <path class="cls-2" d="M289.4,226.4c-2.62.75-5.14-.29-7.62-.72-7.14-1.23-14.29-2.45-21.42-3.75-14.55-2.66-29.08-5.4-43.67-7.82-2.12-.35-4.21-.91-6.36-1.06"/>
  <path class="cls-2" d="M165.39,329.64v35.61"/>
  <path class="cls-2" d="M213.72,355.5v35.19"/>
  <path class="cls-2" d="M273.08,305.9v32.65"/>
  <path class="cls-2" d="M205.67,313.53v27.56"/>
  <path class="cls-2" d="M178.11,154.96v25.86"/>
  <path class="cls-2" d="M232.38,308.44v25.86"/>
  <path class="cls-2" d="M332.43,426.3v23.95"/>
  <path class="cls-2" d="M347.7,407.44c-1.1-2.09-3.35-2.08-5.1-2.23-6.35-.57-12.11,1.25-17.16,5.2-.35.27-.53.64-.71,1.26,1.2,1.8,3.2,2.11,5.16,2.33,6.36.72,11.87-1.49,16.95-5.08.41-.29.81-.65.64-1.26"/>
  <path class="cls-2" d="M157.1,373.43c-4.36,1.42-5.5,2.12-5.52,4.74,1.27,3.22,3.2,2.11,5.16,2.33"/>
  <path class="cls-2" d="M273.08,356.35v23.32"/>
  <path class="cls-2" d="M224.32,80.56v23.11"/>
  <path class="cls-2" d="M232.38,82.89c0,6.92,0,13.85-.02,20.77,0,.7.02,1.74.02,4.35"/>
  <path class="cls-2" d="M214.15,79.92v22.47"/>
  <path class="cls-2" d="M281.13,281.94c-4.14-.8-8.35-1.19-12.51-1.91-6.3-1.08-14.49-2.19-20.66-4.02"/>
  <path class="cls-2" d="M165.39,367.37v20.35"/>
  <path class="cls-2" d="M205.67,369.92v17.81"/>
  <path class="cls-2" d="M205.88,351.9c-.47,2.11-.16,4.24-.2,6.36-.06,3.6-.02,7.21-.02,10.81"/>
  <path class="cls-2" d="M300.21,121.05v16.11"/>
  <path class="cls-2" d="M157.23,377.13c-.01,4.66.11,16.95.11,21.62,0,3.96,0,7.91,0,11.87,0,.67-.56,1.21-.43,1.91"/>
  <path class="cls-2" d="M289.61,417.82v22.05"/>
  <path class="cls-2" d="M224.32,402.77v14.2"/>
  <path class="cls-2" d="M153.94,212.2v13.57"/>
  <path class="cls-2" d="M273.5,159.63v13.14"/>
  <path class="cls-2" d="M165.39,391.54v13.14"/>
  <path class="cls-2" d="M232.38,358.89v12.72"/>
  <path class="cls-2" d="M259.51,301.44c-2.86.62-5.32,2.24-8.05,3.19-1.25.43-2.43,1.1-3.82,1.05"/>
  <path class="cls-2" d="M348.55,237.21v11.87"/>
  <path class="cls-2" d="M232.38,336.42v11.45"/>
  <path class="cls-2" d="M273.08,294.03v11.02"/>
  <path class="cls-2" d="M232.38,383.06v10.18"/>
  <path class="cls-2" d="M232.38,107.06v9.33"/>
  <path class="cls-2" d="M385.01,223.65c.11,2.83-.25,5.66.21,8.48"/>
  <path class="cls-2" d="M301.91,238.91v8.48"/>
  <path class="cls-2" d="M304.88,396.2v8.06"/>
  <path class="cls-2" d="M273.08,344.69v7"/>
  <path class="cls-2" d="M273.08,339.51c0,1.41.04,2.83-.02,4.24"/>
  <path class="cls-2" d="M302.12,249.72c-.3.46-.19.98-.21,1.48"/>
</svg>