<?xml version="1.0" encoding="UTF-8"?>
<svg id="icons" xmlns="http://www.w3.org/2000/svg" viewBox="0 0 500 500">
  <defs>
    <style>
      .cls-1 {
        fill: none;
        stroke: #000;
        stroke-linecap: round;
        stroke-linejoin: round;
        stroke-width: .8px;
      }
    </style>
  </defs>
  <path class="cls-1" d="M364.47,119.79c11.26,3.82,12.39,3.59,12.66,5.63.32,2.47.36,4.97.37,7.44.07,15.82-.25,31.64.1,47.45.68,30.43-.12,60.86.4,91.28.7,41.02.09,82.03.34,123.04.02,3.04-.57,4.03-3.22,5.02-7.79,2.91-15.52,5.98-23.34,8.8-10.33,3.73-20.62,7.57-30.9,11.41-11.2,4.19-22.44,8.3-33.62,12.54-9.16,3.47-18.35,6.87-27.51,10.34-5.71,2.16-11.45,4.28-17.11,6.59-1.43.58-2.74.11-3.8-.64-5.96-4.23-11.98-8.38-17.88-12.68-9.51-6.94-19.16-13.68-28.77-20.48-8.76-6.2-17.59-12.28-26.38-18.43-7.64-5.35-14.94-11.15-22.65-16.38-1.15-.78-2.07-2-3.27-2.73-2.22-1.34-2.82-3.27-2.6-5.66.04-.47,0-.94,0-1.41"/>
  <path class="cls-1" d="M373.31,390.21c0-37.19.08-74.39-.08-111.58-.02-5.56.46-11.13-.11-16.69-.29-2.81.24-5.62.24-8.44.02-16.49-.03-32.98-.36-49.46-.32-15.95-.04-31.9-.34-47.85-.14-7.57-.39-15.14-.37-22.72,0-1.95-.61-2.34-2.61-1.81-7.39,1.93-14.62,4.39-21.92,6.63-9.46,2.9-18.91,5.87-28.34,8.87-15.01,4.78-29.99,9.61-45.04,14.26-10.13,3.13-20.2,6.44-30.36,9.46-2.39.71-3.99,2.94-4.01,5.83-.04,7.44-.17,14.88.03,22.32.17,6.1.36,12.2.36,18.3,0,55.89.17,111.79-.11,167.68-.08,16.82-.14,33.64-.3,50.46-.01,1.27.15,2.55,0,3.82"/>
  <path class="cls-1" d="M375.73,123.61c-10.89,3.05-21.75,6.17-32.6,9.36-13.78,4.04-27.41,8.52-41.18,12.57-9.27,2.73-18.49,5.66-27.73,8.49-6.54,2-13.04,4.16-19.53,6.33-6.67,2.23-13.39,4.34-20.11,6.42-2.82.87-4.19,1.97-4.19,6.08-.03,18.76-.01,37.53-.01,56.29,0,7.84.08,15.68-.01,23.52-.42,36.46-.08,72.92-.18,109.37-.04,14.81.06,29.62-.04,44.43-.05,6.84-.28,13.67-.13,20.51.1,4.76.02,9.53.57,14.28"/>
  <path class="cls-1" d="M156.58,136.48v227.59"/>
  <path class="cls-1" d="M142.1,137.68c0,1.81,0,3.62,0,5.43-.01,38.47.15,76.94.27,115.4.08,24.73.03,49.46.11,74.19.02,4.83.38,9.65.22,14.48-.25,7.1-.18,14.21-.19,21.31"/>
  <path class="cls-1" d="M369.29,144.92c0,61.45-.06,122.91.04,184.36.03,18.63.15,37.26.16,55.89,0,1.81.08,3.63-.2,5.43"/>
  <path class="cls-1" d="M238.01,173.27c.44,90.2.25,180.41-.22,270.42,3.82,1.25,6.53-.92,9.44-1.89,3.45-1.16,6.77-2.71,10.28-3.74"/>
  <path class="cls-1" d="M136.48,125.62c.26,55.09.23,110.18.4,165.26"/>
  <path class="cls-1" d="M136.88,290.89c.28,25.47.19,50.93.18,76.4,0,1.08.25,1.77,1.2,2.44,13.3,9.43,26.6,18.87,40.07,28.06,12.82,8.75,25.44,17.79,38.34,26.43.34.23.76.26,1.02.57"/>
  <path class="cls-1" d="M125.42,115.17v29.76c0,39.27.04,78.54-.04,117.82-.01,6.83,0,13.67-.28,20.51-.06,1.32-.11,2.68-.11,4.02.03,26.2.06,52.41-.03,78.61,0,2.61.91,4.09,3.04,5.48,4.58,2.99,8.96,6.27,13.31,9.6"/>
  <path class="cls-1" d="M364.47,119.79c-2.38-1.56-5.06-2.5-7.64-3.61-7.06-3.03-14.07-6.18-21.09-9.29-9.82-4.34-19.54-8.91-29.37-13.24-9.47-4.17-18.91-8.41-28.36-12.63-6.11-2.73-12.41-5.09-18.41-8.02-3.16-1.54-5.8-1.23-8.71-.25-7.33,2.47-14.75,4.66-22.12,7.03-1.13.36-2.34.4-3.44.96-.56.29-2.21,3.55-1.71,4.31"/>
  <path class="cls-1" d="M219.11,166.43c-.74,1.35-.4,2.81-.4,4.22,0,26.27,0,52.54,0,78.81,0,12.93,0,25.87,0,38.8,0,1.81-.31,3.61-.23,5.43.03.65.17.92.83.8"/>
  <path class="cls-1" d="M256.89,153.02c-2.57.44-5,1.39-7.42,2.26-6.27,2.25-12.64,4.18-18.92,6.38-1.6.56-3.18,1.18-4.82,1.63-1.57.43-1.84,2.69-1.83,4.35.18,29.02.16,58.04.13,87.06-.03,34.58,0,69.16-.09,103.74-.06,22.52-.01,45.04-.01,67.55,0,2.95.03,5.9-.02,8.85-.01.77.13,1.43.62,2.01"/>
  <path class="cls-1" d="M373.11,390.61c-.51,1.58.36,3.63-1.79,4.66-1.14.54-2.28,1.13-3.45,1.54-10.44,3.61-20.72,7.65-31.14,11.34-10.63,3.76-21.2,7.73-31.77,11.65-7.16,2.65-14.38,5.12-21.54,7.76-8.05,2.96-16.06,6.07-24.31,8.5"/>
  <path class="cls-1" d="M257.11,207.65v104.35c0,5.29.15,10.59-.03,15.88-.3,8.78.1,17.57-.21,26.34-.35,9.52.17,19.04-.31,28.55-.05.97.47,2.01.76,3.01,1.39,4.76-.57,10.7-5.42,12.71-2.65,1.09-5.92-.61-6.27-4.26-.39-3.99,1.63-6.77,4.5-8.98.92-.7,2.43-.92,3.78-.1,1.28.77,2.57,2.88,2.05,6.5-.5,3.42-4.06,5.96-4.06,6.84"/>
  <path class="cls-1" d="M223.61,85.05c2.81-2.13,3.65-1.4,4.79-.71,1.74,1.03,3.65,1.8,5.79,1.93,1.5.09,2.85.96,4.22,1.57,5.92,2.64,12.01,4.91,17.88,7.67,8.09,3.8,16.28,7.38,24.37,11.17,8.66,4.06,17.2,8.37,25.92,12.29,6.65,2.98,13.02,6.53,19.69,9.47"/>
  <path class="cls-1" d="M337.12,114.56c-2.41-.57-4.39-2.08-6.64-3.01-9.9-4.1-19.49-8.88-29.33-13.13-5.94-2.57-11.83-5.28-17.74-7.93-9.23-4.13-18.49-8.18-27.72-12.32-.68-.3-1.31-.15-2.02-.03-3.89.71-7.48,2.37-11.24,3.5-1.02.31-1.98.57-3.03.55"/>
  <path class="cls-1" d="M130.12,119.37c0,11.66-.13,23.32.07,34.98.08,4.42.2,8.85.27,13.27.19,13.87-.2,27.75.15,41.61.33,13.21.21,26.41.32,39.61"/>
  <path class="cls-1" d="M224.94,162.61c-13.52-7.6-27.13-15.04-40.59-22.75-7.76-4.45-15.51-8.91-23.36-13.2-3.92-2.14-7.78-4.41-11.86-6.24-1.53-.69-2.9-1.76-4.61-2.04"/>
  <path class="cls-1" d="M214.08,56.46c-7.44,2.55-14.95,4.89-22.33,7.61-4.89,1.8-9.98,3.02-14.86,4.87-.92.35-2.1-.14-2.81.8-.83,1.1-.38,2.41-.39,3.61-.04,8.71-.02,17.42-.02,26.14"/>
  <path class="cls-1" d="M160.6,138.09v119.83c0,5.23-.06,10.46.01,15.68.26,17.76.33,35.52.13,53.28-.12,11.26-.02,22.52-.17,33.78,0,.52.56,1.55-.78,1.41"/>
  <path class="cls-1" d="M249.25,98.48c-1.29-.51-22.3-11.59-23.71-11.89-1.64-.35-2.18-1.51-2.25-3.19-.37-9.25-.07-18.5-.17-27.75-.03-3.05-.81-3.68-3.59-5.1-3.72-1.91-7.12-.63-10.47.54-4.93,1.71-9.99,3.02-14.88,4.81-4.62,1.69-9.19,3.49-13.87,5.02-2.53.83-5.1,1.48-7.67,2.12-4.12,1.03-4.76,3.1-4.8,6.28-.05,4.36-.01,8.71-.01,13.07,0,5.56.21,11.14-.09,16.68-.14,2.65,1.09,3.92,3.12,4.58,4.05,1.33,7.53,3.72,11.23,5.69,5.79,3.09,11.61,6.08,17.9,8.04"/>
  <path class="cls-1" d="M166.23,97.07c-5.67,1.89-11.39,3.64-17.1,5.4-6.5,2-13,4.02-19.51,6.02-.96.3-1.79.87-2.8,1.07-1.48.28-1.68,1.75-1.72,2.79-.04,1,.09,2.18,1.49,2.86,5.2,2.54,10.34,5.18,15.5,7.8,5.72,2.9,11.74,5.39,17,8.98,4.89,3.34,10.09,5.99,15.2,8.87,6.9,3.88,13.97,7.46,20.86,11.34,6.01,3.39,12.24,6.39,18.12,10,1.76,1.08,3.65,1.95,5.42,3.03,1.08.66,2.25.58,3.42.6"/>
  <path class="cls-1" d="M130.85,230.17c0,1.88.02,3.75,0,5.63-.13,9.52,0,19.04.28,28.55.43,14.48,0,28.96.38,43.43.47,18.5.22,36.99.39,55.49.03,2.68.13,5.36.16,8.04"/>
  <path class="cls-1" d="M187.94,211.67v125.05c0,2.88-.24,5.79.05,8.64.75,7.51.12,15.02.33,22.52.01.51.56,1.55-.78,1.41"/>
  <path class="cls-1" d="M299.73,278.02c-.07-3.8-.12-39.02-.47-39.91-8.04,2.65-16.09,5.38-24.26,7.72,0,2.57.75,10.26-.24,10.48-1.74.39-4.09.49-7.8,1.41"/>
  <path class="cls-1" d="M266.96,289.68c1.86.36,3.41-.64,5.02-1.23,8.91-3.28,17.83-6.56,26.76-9.8,1.45-.53,2.94-.96,4.62-1.5-.07-15.35.16-30.76-.23-46.23-1.44-.41-2.49.32-3.6.66-7.65,2.39-15.24,4.95-22.91,7.26-2.78.83-5.5,1.9-8.27,2.71-1.44.42-1.6,1.09-1.6,2.29.02,9.58-.16,19.17.08,28.75.14,5.37-.35,10.72-.09,16.09.03.66.46,1.64-.78,1.81"/>
  <path class="cls-1" d="M218.5,294.71c.26,42.69-.55,85.38-.4,128.07"/>
  <path class="cls-1" d="M269.17,106.72c14.91,7.11,29.66,14.55,44.64,21.51,2.6,1.21,5.11,2.68,8.04,3.02"/>
  <path class="cls-1" d="M222.32,86.42c-8.8,2.83-17.74,5.2-26.57,7.95-5.36,1.67-10.82,3.06-16.25,4.55-1.34.37-2.72.66-4.03,1.16"/>
  <path class="cls-1" d="M364.87,393.02c-6.13,2.31-12.35,4.37-18.5,6.62-9,3.29-17.94,6.75-26.92,10.11-.44.16-.82.07-1.22.17"/>
  <path class="cls-1" d="M264.75,240.62c-1.35-.17-1.19.76-1.21,1.61-.26,9.11-.19,18.23-.19,27.34,0,6.7-.01,13.4.02,20.11,0,.54-.5,1.4.58,1.61"/>
  <path class="cls-1" d="M187.94,171.06v39.41"/>
  <path class="cls-1" d="M223.93,96.67c-3.44-.85-6.83-1.82-10.46-1.03-2.96.64-5.61,1.66-7.44,4.24-.79,1.11-.88,2.03.2,3.03,3.13,2.92,7.08,3.6,11.07,3.96,2.92.26,5.74-.56,8.45-1.73,1.48-.63,2.28-1.81,2.97-3.06.73-1.33-.08-2.59-.82-3.57-.88-1.16-1.93-2.44-3.77-1.85-.26.08-.45.29-.2.21.04-.01.13.12.2.19"/>
  <path class="cls-1" d="M357.23,215.69v30.96"/>
  <path class="cls-1" d="M268.92,257.42c5.31,2.9,10.92,5.91,16.09,8.81,3.8,2.13,8.29,4.58,13.73,7.48"/>
  <path class="cls-1" d="M255.7,396.24c.43.49.19,1.08.19,1.61.02,8.31.02,16.62,0,24.93,0,.86.41,2.06-1.2,2.01"/>
  <path class="cls-1" d="M214.89,113.96c-2.27.16-4.3,1.17-6.43,1.82-1.62.49-3.26.93-4.85,1.55-.95.38-1.94.1-1.79-1.36.25-2.45-1.11-3.56-3.18-4.69-6.89-3.78-14.21-6.76-20.75-11.19"/>
  <path class="cls-1" d="M256.1,199.41c-1.57-.89-2.99-.43-4.43.39-2.93,1.67-4.53,5.33-3.61,8.46.59,2.03,2.35,2.99,4.22,2.2,2.28-.96,3.82-2.73,4.58-5.03.34-1.02.08-2.22-1.15-2.8"/>
  <path class="cls-1" d="M193.83,75.9c-.32,3.88,4.76,7.91,7.9,7.91,7.32,0,8.46-7.14,8.52-8.46.26-5.71-3.33-9.6-8.83-9.26-7.31.45-7.66,5.2-7.59,9.81"/>
  <path class="cls-1" d="M290.48,420.36c-7.18,2.39-14.25,5.11-21.32,7.83-1.32.51-2.6,1.18-4.02,1.42"/>
  <path class="cls-1" d="M257.11,173.47c0,8.31,0,16.62,0,24.93"/>
  <path class="cls-1" d="M358.03,294.1v21.71"/>
  <path class="cls-1" d="M315.81,411.11c-6.65,2.12-13.13,4.7-19.7,7.05-.66.24-1.28.62-2.01.59"/>
  <path class="cls-1" d="M262.74,430.82c-5.2,1.42-9.95,4.02-15.06,5.68-2.03.66-4.08,1.31-6.05,2.16"/>
  <path class="cls-1" d="M358.03,327.48v20.91"/>
  <path class="cls-1" d="M251.89,101.09c-3.32,1.64-7.72,3.74-11.28,4.59-7.86,1.87-15.47,4.53-23.11,7.08-.22.07-.27.26-.2.39"/>
  <path class="cls-1" d="M167.64,102.1c-2.38,1.59-5.16,2.05-7.84,2.83-3.61,1.05-17.19,5.98-20.91,6.62"/>
  <path class="cls-1" d="M358.03,351.4v12.87"/>
  <path class="cls-1" d="M273.16,266.11c4.56,3.23,12.35,7.5,16.87,10.74"/>
  <path class="cls-1" d="M277.1,275.46c4.56,3.23,1.11.85,5.64,4.09"/>
  <path class="cls-1" d="M298.74,273.71c-6.07,2.89-13.53,5.09-21.9,7.98"/>
  <path class="cls-1" d="M284.66,243.39v22.04"/>
  <path class="cls-1" d="M278,244.95v16.97"/>
  <path class="cls-1" d="M365.27,138.09c-3.32.6-6.33,2.24-9.65,2.81"/>
  <path class="cls-1" d="M355.97,161.21c.1,3.08-.58,6.17,0,9.25"/>
  <path class="cls-1" d="M267.36,274.8c1.46-.94,2.16-5.43,3.22-5.44.9,0,1.23.44,1.65,1.2,1.08,1.91,1.71,7.28,3.98,7.06"/>
  <path class="cls-1" d="M254.69,101.09c3.45.68,6.45,2.5,9.64,3.85.44.19.82.07,1.22.17"/>
  <path class="cls-1" d="M266.96,263.94c2.8-.04,5.14,1.32,6.76,3.28,2.31,2.8,2.44,6.08,2.86,9.98.15,1.37.25,3.28.27,4.49"/>
  <path class="cls-1" d="M345.17,118.38c-2.57-1.24-5.25-2.22-7.84-3.42"/>
  <path class="cls-1" d="M292.16,241.05c.06,5.63-.46,23.31-.34,28.4"/>
  <path class="cls-1" d="M299.47,219.5c-.07-3.8-.12-39.02-.47-39.91-8.04,2.65-16.09,5.38-24.26,7.72,0,2.57.75,10.26-.24,10.48-1.74.39-4.09.49-7.8,1.41"/>
  <path class="cls-1" d="M266.7,231.16c1.86.36,3.41-.64,5.02-1.23,8.91-3.28,17.83-6.56,26.76-9.8,1.45-.53,2.94-.96,4.62-1.5-.07-15.35.16-30.76-.23-46.23-1.44-.41-2.49.32-3.6.66-7.65,2.39-15.24,4.95-22.91,7.26-2.78.83-5.5,1.9-8.27,2.71-1.44.42-1.6,1.09-1.6,2.29.02,9.58-.16,19.17.08,28.75.14,5.37-.35,10.72-.09,16.09.03.66.46,1.64-.78,1.81"/>
  <path class="cls-1" d="M264.49,182.1c-1.35-.17-1.19.76-1.21,1.61-.26,9.11-.19,18.23-.19,27.34,0,6.7-.01,13.4.02,20.11,0,.54-.5,1.4.58,1.61"/>
  <path class="cls-1" d="M268.66,198.9c5.31,2.9,10.92,5.91,16.09,8.81,3.8,2.13,8.29,4.58,13.73,7.48"/>
  <path class="cls-1" d="M272.9,207.6c4.56,3.23,12.35,7.5,16.87,10.74"/>
  <path class="cls-1" d="M276.84,216.94c4.56,3.23,1.11.85,5.64,4.09"/>
  <path class="cls-1" d="M298.48,215.2c-6.07,2.89-13.53,5.09-21.9,7.98"/>
  <path class="cls-1" d="M284.39,184.87v22.04"/>
  <path class="cls-1" d="M277.74,186.43v16.97"/>
  <path class="cls-1" d="M267.1,216.28c1.46-.94,2.16-5.43,3.22-5.44.9,0,1.23.44,1.65,1.2,1.08,1.91,1.71,7.28,3.98,7.06"/>
  <path class="cls-1" d="M266.7,205.43c2.8-.04,5.14,1.32,6.76,3.28,2.31,2.8,2.44,6.08,2.86,9.98.15,1.37.25,3.28.27,4.49"/>
  <path class="cls-1" d="M291.9,182.53c.06,5.63-.46,23.31-.34,28.4"/>
  <path class="cls-1" d="M350.26,263.64c-.07-3.8-.12-39.02-.47-39.91-8.04,2.65-16.09,5.38-24.26,7.72,0,2.57.75,10.26-.24,10.48-1.74.39-4.09.49-7.8,1.41"/>
  <path class="cls-1" d="M317.49,275.3c1.86.36,3.41-.64,5.02-1.23,8.91-3.28,17.83-6.56,26.76-9.8,1.45-.53,2.94-.96,4.62-1.5-.07-15.35.16-30.76-.23-46.23-1.44-.41-2.49.32-3.6.66-7.65,2.39-15.24,4.95-22.91,7.26-2.78.83-5.5,1.9-8.27,2.71-1.44.42-1.6,1.09-1.6,2.29.02,9.58-.16,19.17.08,28.75.14,5.37-.35,10.72-.09,16.09.03.66.46,1.64-.78,1.81"/>
  <path class="cls-1" d="M315.28,226.24c-1.35-.17-1.19.76-1.21,1.61-.26,9.11-.19,18.23-.19,27.34,0,6.7-.01,13.4.02,20.11,0,.54-.5,1.4.58,1.61"/>
  <path class="cls-1" d="M319.45,243.04c5.31,2.9,10.92,5.91,16.09,8.81,3.8,2.13,8.29,4.58,13.73,7.48"/>
  <path class="cls-1" d="M323.69,251.73c4.56,3.23,12.35,7.5,16.87,10.74"/>
  <path class="cls-1" d="M327.64,261.08c4.56,3.23,1.11.85,5.64,4.09"/>
  <path class="cls-1" d="M349.27,259.33c-6.07,2.89-13.53,5.09-21.9,7.98"/>
  <path class="cls-1" d="M335.19,229.01v22.04"/>
  <path class="cls-1" d="M328.53,230.57v16.97"/>
  <path class="cls-1" d="M317.89,260.42c1.46-.94,2.16-5.43,3.22-5.44.9,0,1.23.44,1.65,1.2,1.08,1.91,1.71,7.28,3.98,7.06"/>
  <path class="cls-1" d="M317.49,249.56c2.8-.04,5.14,1.32,6.76,3.28,2.31,2.8,2.44,6.08,2.86,9.98.15,1.37.25,3.28.27,4.49"/>
  <path class="cls-1" d="M342.7,226.66c.06,5.63-.46,23.31-.34,28.4"/>
  <path class="cls-1" d="M350,205.12c-.07-3.8-.12-39.02-.47-39.91-8.04,2.65-16.09,5.38-24.26,7.72,0,2.57.75,10.26-.24,10.48-1.74.39-4.09.49-7.8,1.41"/>
  <path class="cls-1" d="M317.23,216.78c1.86.36,3.41-.64,5.02-1.23,8.91-3.28,17.83-6.56,26.76-9.8,1.45-.53,2.94-.96,4.62-1.5-.07-15.35.16-30.76-.23-46.23-1.44-.41-2.49.32-3.6.66-7.65,2.39-15.24,4.95-22.91,7.26-2.78.83-5.5,1.9-8.27,2.71-1.44.42-1.6,1.09-1.6,2.29.02,9.58-.16,19.17.08,28.75.14,5.37-.35,10.72-.09,16.09.03.66.46,1.64-.78,1.81"/>
  <path class="cls-1" d="M315.02,167.72c-1.35-.17-1.19.76-1.21,1.61-.26,9.11-.19,18.23-.19,27.34,0,6.7-.01,13.4.02,20.11,0,.54-.5,1.4.58,1.61"/>
  <path class="cls-1" d="M319.19,184.52c5.31,2.9,10.92,5.91,16.09,8.81,3.8,2.13,8.29,4.58,13.73,7.48"/>
  <path class="cls-1" d="M323.43,193.21c4.56,3.23,12.35,7.5,16.87,10.74"/>
  <path class="cls-1" d="M327.37,202.56c4.56,3.23,1.11.85,5.64,4.09"/>
  <path class="cls-1" d="M349.01,200.81c-6.07,2.89-13.53,5.09-21.9,7.98"/>
  <path class="cls-1" d="M334.93,170.49v22.04"/>
  <path class="cls-1" d="M328.27,172.05v16.97"/>
  <path class="cls-1" d="M317.63,201.9c1.46-.94,2.16-5.43,3.22-5.44.9,0,1.23.44,1.65,1.2,1.08,1.91,1.71,7.28,3.98,7.06"/>
  <path class="cls-1" d="M317.23,191.05c2.8-.04,5.14,1.32,6.76,3.28,2.31,2.8,2.44,6.08,2.86,9.98.15,1.37.25,3.28.27,4.49"/>
  <path class="cls-1" d="M342.44,168.15c.06,5.63-.46,23.31-.34,28.4"/>
  <path class="cls-1" d="M300.74,393.61c-.07-3.8-.12-39.02-.47-39.91-8.04,2.65-16.09,5.38-24.26,7.72,0,2.57.75,10.26-.24,10.48-1.74.39-4.09.49-7.8,1.41"/>
  <path class="cls-1" d="M267.97,405.27c1.86.36,3.41-.64,5.02-1.23,8.91-3.28,17.83-6.56,26.76-9.8,1.45-.53,2.94-.96,4.62-1.5-.07-15.35.16-30.76-.23-46.23-1.44-.41-2.49.32-3.6.66-7.65,2.39-15.24,4.95-22.91,7.26-2.78.83-5.5,1.9-8.27,2.71-1.44.42-1.6,1.09-1.6,2.29.02,9.58-.16,19.17.08,28.75.14,5.37-.35,10.72-.09,16.09.03.66.46,1.64-.78,1.81"/>
  <path class="cls-1" d="M265.76,356.21c-1.35-.17-1.19.76-1.21,1.61-.26,9.11-.19,18.23-.19,27.34,0,6.7-.01,13.4.02,20.11,0,.54-.5,1.4.58,1.61"/>
  <path class="cls-1" d="M269.93,373.01c5.31,2.9,10.92,5.91,16.09,8.81,3.8,2.13,8.29,4.58,13.73,7.48"/>
  <path class="cls-1" d="M274.17,381.71c4.56,3.23,12.35,7.5,16.87,10.74"/>
  <path class="cls-1" d="M278.11,391.05c4.56,3.23,1.11.85,5.64,4.09"/>
  <path class="cls-1" d="M299.75,389.31c-6.07,2.89-13.53,5.09-21.9,7.98"/>
  <path class="cls-1" d="M285.67,358.98v22.04"/>
  <path class="cls-1" d="M279.01,360.54v16.97"/>
  <path class="cls-1" d="M268.37,390.39c1.46-.94,2.16-5.43,3.22-5.44.9,0,1.23.44,1.65,1.2,1.08,1.91,1.71,7.28,3.98,7.06"/>
  <path class="cls-1" d="M267.97,379.54c2.8-.04,5.14,1.32,6.76,3.28,2.31,2.8,2.44,6.08,2.86,9.98.15,1.37.25,3.28.27,4.49"/>
  <path class="cls-1" d="M293.17,356.64c.06,5.63-.46,23.31-.34,28.4"/>
  <path class="cls-1" d="M300.48,335.09c-.07-3.8-.12-39.02-.47-39.91-8.04,2.65-16.09,5.38-24.26,7.72,0,2.57.75,10.26-.24,10.48-1.74.39-4.09.49-7.8,1.41"/>
  <path class="cls-1" d="M267.71,346.75c1.86.36,3.41-.64,5.02-1.23,8.91-3.28,17.83-6.56,26.76-9.8,1.45-.53,2.94-.96,4.62-1.5-.07-15.35.16-30.76-.23-46.23-1.44-.41-2.49.32-3.6.66-7.65,2.39-15.24,4.95-22.91,7.26-2.78.83-5.5,1.9-8.27,2.71-1.44.42-1.6,1.09-1.6,2.29.02,9.58-.16,19.17.08,28.75.14,5.37-.35,10.72-.09,16.09.03.66.46,1.64-.78,1.81"/>
  <path class="cls-1" d="M265.5,297.7c-1.35-.17-1.19.76-1.21,1.61-.26,9.11-.19,18.23-.19,27.34,0,6.7-.01,13.4.02,20.11,0,.54-.5,1.4.58,1.61"/>
  <path class="cls-1" d="M269.67,314.49c5.31,2.9,10.92,5.91,16.09,8.81,3.8,2.13,8.29,4.58,13.73,7.48"/>
  <path class="cls-1" d="M273.91,323.19c4.56,3.23,12.35,7.5,16.87,10.74"/>
  <path class="cls-1" d="M277.85,332.53c4.56,3.23,1.11.85,5.64,4.09"/>
  <path class="cls-1" d="M299.49,330.79c-6.07,2.89-13.53,5.09-21.9,7.98"/>
  <path class="cls-1" d="M285.4,300.47v22.04"/>
  <path class="cls-1" d="M278.75,302.02v16.97"/>
  <path class="cls-1" d="M268.11,331.88c1.46-.94,2.16-5.43,3.22-5.44.9,0,1.23.44,1.65,1.2,1.08,1.91,1.71,7.28,3.98,7.06"/>
  <path class="cls-1" d="M267.71,321.02c2.8-.04,5.14,1.32,6.76,3.28,2.31,2.8,2.44,6.08,2.86,9.98.15,1.37.25,3.28.27,4.49"/>
  <path class="cls-1" d="M292.91,298.12c.06,5.63-.46,23.31-.34,28.4"/>
  <path class="cls-1" d="M351.27,379.23c-.07-3.8-.12-39.02-.47-39.91-8.04,2.65-16.09,5.38-24.26,7.72,0,2.57.75,10.26-.24,10.48-1.74.39-4.09.49-7.8,1.41"/>
  <path class="cls-1" d="M318.5,390.89c1.86.36,3.41-.64,5.02-1.23,8.91-3.28,17.83-6.56,26.76-9.8,1.45-.53,2.94-.96,4.62-1.5-.07-15.35.16-30.76-.23-46.23-1.44-.41-2.49.32-3.6.66-7.65,2.39-15.24,4.95-22.91,7.26-2.78.83-5.5,1.9-8.27,2.71-1.44.42-1.6,1.09-1.6,2.29.02,9.58-.16,19.17.08,28.75.14,5.37-.35,10.72-.09,16.09.03.66.46,1.64-.78,1.81"/>
  <path class="cls-1" d="M316.29,341.83c-1.35-.17-1.19.76-1.21,1.61-.26,9.11-.19,18.23-.19,27.34,0,6.7-.01,13.4.02,20.11,0,.54-.5,1.4.58,1.61"/>
  <path class="cls-1" d="M320.46,358.63c5.31,2.9,10.92,5.91,16.09,8.81,3.8,2.13,8.29,4.58,13.73,7.48"/>
  <path class="cls-1" d="M324.7,367.32c4.56,3.23,12.35,7.5,16.87,10.74"/>
  <path class="cls-1" d="M328.65,376.67c4.56,3.23,1.11.85,5.64,4.09"/>
  <path class="cls-1" d="M350.28,374.92c-6.07,2.89-13.53,5.09-21.9,7.98"/>
  <path class="cls-1" d="M336.2,344.6v22.04"/>
  <path class="cls-1" d="M329.54,346.16v16.97"/>
  <path class="cls-1" d="M318.9,376.01c1.46-.94,2.16-5.43,3.22-5.44.9,0,1.23.44,1.65,1.2,1.08,1.91,1.71,7.28,3.98,7.06"/>
  <path class="cls-1" d="M318.5,365.16c2.8-.04,5.14,1.32,6.76,3.28,2.31,2.8,2.44,6.08,2.86,9.98.15,1.37.25,3.28.27,4.49"/>
  <path class="cls-1" d="M343.71,342.26c.06,5.63-.46,23.31-.34,28.4"/>
  <path class="cls-1" d="M351.01,320.71c-.07-3.8-.12-39.02-.47-39.91-8.04,2.65-16.09,5.38-24.26,7.72,0,2.57.75,10.26-.24,10.48-1.74.39-4.09.49-7.8,1.41"/>
  <path class="cls-1" d="M318.24,332.37c1.86.36,3.41-.64,5.02-1.23,8.91-3.28,17.83-6.56,26.76-9.8,1.45-.53,2.94-.96,4.62-1.5-.07-15.35.16-30.76-.23-46.23-1.44-.41-2.49.32-3.6.66-7.65,2.39-15.24,4.95-22.91,7.26-2.78.83-5.5,1.9-8.27,2.71-1.44.42-1.6,1.09-1.6,2.29.02,9.58-.16,19.17.08,28.75.14,5.37-.35,10.72-.09,16.09.03.66.46,1.64-.78,1.81"/>
  <path class="cls-1" d="M316.03,283.32c-1.35-.17-1.19.76-1.21,1.61-.26,9.11-.19,18.23-.19,27.34,0,6.7-.01,13.4.02,20.11,0,.54-.5,1.4.58,1.61"/>
  <path class="cls-1" d="M320.2,300.11c5.31,2.9,10.92,5.91,16.09,8.81,3.8,2.13,8.29,4.58,13.73,7.48"/>
  <path class="cls-1" d="M324.44,308.81c4.56,3.23,12.35,7.5,16.87,10.74"/>
  <path class="cls-1" d="M328.38,318.15c4.56,3.23,1.11.85,5.64,4.09"/>
  <path class="cls-1" d="M350.02,316.41c-6.07,2.89-13.53,5.09-21.9,7.98"/>
  <path class="cls-1" d="M335.94,286.08v22.04"/>
  <path class="cls-1" d="M329.28,287.64v16.97"/>
  <path class="cls-1" d="M318.64,317.49c1.46-.94,2.16-5.43,3.22-5.44.9,0,1.23.44,1.65,1.2,1.08,1.91,1.71,7.28,3.98,7.06"/>
  <path class="cls-1" d="M318.24,306.64c2.8-.04,5.14,1.32,6.76,3.28,2.31,2.8,2.44,6.08,2.86,9.98.15,1.37.25,3.28.27,4.49"/>
  <path class="cls-1" d="M343.45,283.74c.06,5.63-.46,23.31-.34,28.4"/>
  <path class="cls-1" d="M128.23,109.34c2.39,2.91,5.92,3.66,10.46,2.21.06-.02.13,0,.2,0"/>
  <path class="cls-1" d="M175.08,100.29c-1.4.49-2.87.79-4.22,1.41"/>
</svg>