<svg width="500" height="500" viewBox="0 0 500 500" fill="none" xmlns="http://www.w3.org/2000/svg">
<path d="M149.91 418.341C149.32 419.111 149.93 419.511 150.38 420.011C154.7 424.761 159.99 428.161 165.59 431.201C175.8 436.741 186.86 439.991 197.97 442.941C204.34 444.631 210.88 445.881 217.43 446.871C224.14 447.881 230.84 448.831 237.63 449.351C246.84 450.061 256.03 449.981 265.21 449.621C272.23 449.341 279.2 448.201 286.15 446.941C297.05 444.961 307.71 442.271 318.26 438.881C331.09 434.751 342.99 429.091 353.38 420.451C353.85 420.061 355.2 419.791 354.36 418.581" stroke="#2071B5" stroke-width="4.20561" stroke-linecap="round" stroke-linejoin="round"/>
<path d="M101.29 321.589C99.84 327.609 99.7 333.769 99.28 339.899C98.76 347.439 98.87 354.969 99.75 362.479C101.11 373.949 105.48 384.069 113.29 392.679C123.08 403.459 135.07 410.939 148.2 417.009C160.07 422.499 172.48 426.089 185.07 429.339C193.17 431.429 201.39 432.849 209.59 434.429C213.33 435.149 217.18 435.479 220.98 435.999C227.3 436.869 233.67 437.319 240.01 437.709C246 438.079 252.03 438.339 258.07 437.909C262.41 437.599 266.79 437.809 271.14 437.369C275.5 436.929 279.87 436.589 284.22 435.999C287.94 435.499 291.68 435.129 295.38 434.499C301.45 433.449 307.45 432.089 313.47 430.799C324.58 428.409 335.32 424.899 346.02 421.189C356.7 417.489 366.8 412.619 375.97 405.969C385.97 398.709 394.59 390.119 400.43 379.099C403.92 372.529 405.46 365.389 405.98 357.959C406.53 350.089 406.07 342.249 405.6 334.429C405.19 327.579 404.12 320.759 402.96 313.959C401.34 304.399 399.77 294.859 397.39 285.449C394.51 274.079 391.07 262.909 386.98 251.909C383.59 242.799 379.92 233.849 375.8 225.039C370.38 213.439 364.75 201.969 358.94 190.559C354.44 181.709 349.91 172.879 345.04 164.229C337.56 150.949 329.57 137.969 320.85 125.449C311.97 112.699 302.92 100.069 293.19 87.9491C287.85 81.2991 282.19 74.8991 276.44 68.5791C271.11 62.7191 265.42 57.3491 259.02 52.7091C253.4 48.6391 250.21 49.3191 245.02 52.5191C238.94 56.2691 233.93 61.3491 229.1 66.5291C223.89 72.1191 218.93 77.9391 214.08 83.8391C207.61 91.6991 201.51 99.8591 195.61 108.139C188.91 117.529 182.63 127.219 176.28 136.849C169.2 147.569 162.87 158.729 156.6 169.919C150.57 180.679 144.87 191.619 139.44 202.699C129.19 223.609 119.73 244.839 112.85 267.139C108.83 280.179 105.35 293.359 103.06 306.829C102.32 311.179 101.4 315.489 101.19 319.909C101.17 320.389 101.07 320.909 101.43 321.339C102.45 321.419 102.63 320.399 102.8 319.899C105.93 310.769 112.04 304.059 119.72 298.509C132.44 289.319 146.48 282.809 161.36 278.159C173.1 274.489 185.06 271.549 197.22 269.439C202.06 268.599 206.91 267.579 211.76 266.799C215.02 266.269 218.4 265.989 221.71 265.619C226.7 265.059 231.69 264.589 236.7 264.289C243.91 263.849 251.12 263.769 258.33 263.829C265.33 263.889 272.29 264.549 279.26 265.159C283.79 265.559 288.3 266.139 292.79 266.749C298.93 267.579 305.03 268.749 311.11 269.989C317.23 271.249 323.34 272.579 329.43 273.979C335.61 275.399 341.7 277.099 347.71 279.069C353.19 280.859 358.72 282.639 363.87 285.249C372.69 289.719 381.32 294.489 388.66 301.329C393.45 305.789 397.81 310.519 401.22 316.109" stroke="#2071B5" stroke-width="4.20561" stroke-linecap="round" stroke-linejoin="round"/>
<path d="M356.25 354.161C357.21 349.461 354.68 345.981 351.94 342.781C343.76 333.241 333.53 326.631 321.78 322.311C314.51 319.641 306.99 317.821 299.44 316.101C294.71 315.021 289.93 314.111 285.15 313.381C281.72 312.861 278.21 312.521 274.71 312.271C266 311.651 257.29 311.141 248.56 311.381C242.69 311.541 236.8 311.741 230.98 312.401C222.44 313.371 213.92 314.561 205.52 316.531C198.61 318.151 191.81 319.981 185.05 322.171C175.06 325.411 166.34 330.681 158.29 337.121C153.92 340.621 149.57 344.341 147 349.611C146.45 350.731 146.46 352.241 145.16 352.971" stroke="#2071B5" stroke-width="4.20561" stroke-linecap="round" stroke-linejoin="round"/>
<path d="M351.5 370.56C350.37 365.02 346.1 361.8 342.19 358.48C335.26 352.61 327.16 348.8 318.72 345.54C311.4 342.71 303.92 340.38 296.32 338.59C290.49 337.22 284.54 336.17 278.52 335.56C272.9 334.99 267.26 334.609 261.65 334.079C253.84 333.339 246.08 333.669 238.35 334.299C231.33 334.869 224.36 336.11 217.4 337.41C208.07 339.15 198.89 341.349 189.85 344.179C182.42 346.509 175.31 349.529 168.69 353.679C164.14 356.529 160.16 359.99 157.05 364.39C156 365.87 155.19 367.47 155.38 369.38" fill="#FFDA00" fill-opacity="0.7"/>
<path d="M351.5 370.56C350.37 365.02 346.1 361.8 342.19 358.48C335.26 352.61 327.16 348.8 318.72 345.54C311.4 342.71 303.92 340.38 296.32 338.59C290.49 337.22 284.54 336.17 278.52 335.56C272.9 334.99 267.26 334.609 261.65 334.079C253.84 333.339 246.08 333.669 238.35 334.299C231.33 334.869 224.36 336.11 217.4 337.41C208.07 339.15 198.89 341.349 189.85 344.179C182.42 346.509 175.31 349.529 168.69 353.679C164.14 356.529 160.16 359.99 157.05 364.39C156 365.87 155.19 367.47 155.38 369.38" stroke="#2071B5" stroke-width="4.20561" stroke-linecap="round" stroke-linejoin="round"/>
<path d="M351.044 370.449C349.914 375.989 346.018 380.509 342.108 383.829C335.178 389.699 327.078 393.509 318.638 396.769C311.318 399.599 303.838 401.929 296.238 403.719C290.408 405.089 284.458 406.139 278.438 406.749C272.818 407.319 267.178 407.699 261.568 408.229C253.758 408.969 245.998 408.639 238.268 408.009C231.248 407.439 224.278 406.199 217.318 404.899C207.988 403.159 198.808 400.959 189.768 398.129C182.338 395.799 175.228 392.779 168.608 388.629C164.058 385.779 160.078 382.319 156.968 377.919C155.918 376.439 154.516 371.288 154.706 369.378" fill="#FFDA00" fill-opacity="0.7"/>
<path d="M351.044 370.449C349.914 375.989 346.018 380.509 342.108 383.829C335.178 389.699 327.078 393.509 318.638 396.769C311.318 399.599 303.838 401.929 296.238 403.719C290.408 405.089 284.458 406.139 278.438 406.749C272.818 407.319 267.178 407.699 261.568 408.229C253.758 408.969 245.998 408.639 238.268 408.009C231.248 407.439 224.278 406.199 217.318 404.899C207.988 403.159 198.808 400.959 189.768 398.129C182.338 395.799 175.228 392.779 168.608 388.629C164.058 385.779 160.078 382.319 156.968 377.919C155.918 376.439 154.516 371.288 154.706 369.378" stroke="#2071B5" stroke-width="4.20561" stroke-linecap="round" stroke-linejoin="round"/>
<path d="M177.25 381.731C189.32 388.241 202.16 392.741 215.54 395.411C226.08 397.521 236.78 398.771 247.61 398.951C254.93 399.071 262.22 398.931 269.48 398.311C282.85 397.171 295.95 394.471 308.7 390.251C314.36 388.371 319.819 385.921 325.109 383.151" stroke="#2071B5" stroke-width="4.20561" stroke-linecap="round" stroke-linejoin="round"/>
<path d="M104.53 353.48C103.59 347.65 103.62 342.13 105.79 336.85C107.87 331.77 111.52 327.6 115.44 323.73C124.01 315.26 134.89 310.52 145.41 305.21C154.02 300.87 163.38 298.61 172.5 295.67C180.68 293.03 189.07 291.17 197.48 289.59C206.81 287.84 216.26 286.83 225.75 286.13C237.79 285.24 249.84 285.32 261.89 285.55C269.34 285.69 276.8 286.15 284.23 286.74C293.25 287.46 302.21 289 311.09 290.77C321.31 292.8 331.41 295.41 341.31 298.74C348.17 301.05 355.03 303.34 361.5 306.64C368.28 310.09 375.1 313.5 381.22 318.07C388.16 323.26 394.66 328.91 399.09 336.57C401.79 341.25 401.34 345.83 399.34 350.62C395.54 359.74 389.74 367.43 382.35 373.82C378.64 377.03 374.39 379.72 369.83 381.75" stroke="#2071B5" stroke-width="4.20561" stroke-linecap="round" stroke-linejoin="round"/>
<path d="M357.21 352.491C358.36 355.491 357.35 358.361 356.76 361.291C354.7 371.591 348.1 378.591 340.08 384.571C328.87 392.931 316.13 398.031 302.76 401.681C296.21 403.471 289.55 404.671 282.81 405.581C271.75 407.081 260.67 407.961 249.52 407.621C240.93 407.361 232.38 406.731 223.83 405.611C216.12 404.601 208.53 403.201 201.02 401.241C194.64 399.571 188.52 397.181 182.48 394.581C176.21 391.881 170.42 388.321 164.9 384.341C157.96 379.341 152.23 373.311 149.68 364.861C148.11 359.621 148.66 354.491 151.14 349.671C152.47 347.091 153.34 344.241 155.33 342.001C155.62 341.681 155.78 340.841 155.13 340.371" stroke="#2071B5" stroke-width="4.20561" stroke-linecap="round" stroke-linejoin="round"/>
<path d="M307.05 335.14C303.57 334.76 300.25 333.65 296.83 332.98C290.13 331.68 283.41 330.65 276.63 329.81C265.63 328.45 254.61 328.34 243.58 328.53C238.18 328.63 232.79 329.14 227.4 329.8C223.36 330.29 219.32 330.78 215.28 331.3C207.87 332.25 200.6 333.87 193.42 335.89C192.75 336.08 192.13 335.96 191.51 336.09" stroke="#2071B5" stroke-width="4.20561" stroke-linecap="round" stroke-linejoin="round"/>
<path d="M312.28 350.08C308.96 349.57 305.83 348.34 302.55 347.62C298.6 346.76 294.64 345.97 290.65 345.3C283.95 344.18 277.21 343.56 270.44 343.2C263 342.8 255.56 342.59 248.09 342.87C242.29 343.09 236.51 343.38 230.74 343.9C225.17 344.4 219.62 345.11 214.1 346.02C209.06 346.85 204.16 348.29 199.13 349.12" stroke="#2071B5" stroke-width="4.20561" stroke-linecap="round" stroke-linejoin="round"/>
<path d="M352.69 251.46C344.31 247.21 335.82 243.29 326.81 240.44C318.23 237.72 309.69 234.88 300.85 233.25C294.65 232.11 288.38 231.22 282.1 230.45C270.7 229.04 259.29 228.67 247.86 228.94C238.31 229.17 228.8 229.94 219.32 231.39C212.74 232.4 206.23 233.85 199.6 234.59" stroke="#2071B5" stroke-width="4.20561" stroke-linecap="round" stroke-linejoin="round"/>
<path d="M305.14 242.431C300.08 241.321 295.03 240.171 289.92 239.391C281.26 238.061 272.55 237.071 263.78 236.681C259.02 236.471 254.27 236.061 249.52 236.301C241.9 236.681 234.28 237.041 226.69 238.081C219.19 239.111 211.76 240.421 204.35 241.961C202.5 242.351 200.76 243.111 198.88 243.391" stroke="#2071B5" stroke-width="4.20561" stroke-linecap="round" stroke-linejoin="round"/>
<path d="M370.35 381.489C363.37 386.869 356.47 389.499 348.92 392.289C340.03 395.569 330.87 397.779 321.77 400.209C314.81 402.059 307.66 403.199 300.64 404.829C291.16 407.029 281.5 408.069 271.86 408.999C260.8 410.069 249.69 410.039 238.58 409.129C229.18 408.359 219.81 407.459 210.54 405.719C204.53 404.589 198.61 403.079 192.67 401.589C186.13 399.949 179.57 398.419 173.23 396.179C164.46 393.079 155.51 390.449 147.06 386.499C146.62 386.289 146.14 386.169 145.64 386.259" stroke="#2071B5" stroke-width="4.20561" stroke-linecap="round" stroke-linejoin="round"/>
<path d="M296.109 269.53C292.839 269.18 289.599 268.67 286.349 268.18C282.979 267.67 279.549 267.45 276.139 267.18C266.329 266.41 256.499 265.88 246.669 266.23C239.689 266.48 232.709 266.99 225.739 267.52C218.869 268.04 212.129 269.34 205.299 270" stroke="#2071B5" stroke-width="4.20561" stroke-linecap="round" stroke-linejoin="round"/>
<path d="M297.3 184.179C288.89 182.569 280.41 181.619 271.87 181.029C263 180.419 254.12 179.919 245.24 180.189C237.85 180.409 230.48 181.109 223.12 181.949C214.39 182.959 205.8 184.539 197.2 186.249C196.61 186.369 196.05 187.349 195.31 186.559" stroke="#2071B5" stroke-width="4.20561" stroke-linecap="round" stroke-linejoin="round"/>
<path d="M293.73 167.3C287.68 168.67 281.59 169.78 275.44 170.71C265.56 172.2 255.66 172.74 245.71 172.48C238.3 172.29 230.91 171.63 223.58 170.24C219.63 169.49 215.67 168.76 211.71 168.01" stroke="#2071B5" stroke-width="4.20561" stroke-linecap="round" stroke-linejoin="round"/>
<path d="M268.53 282.359C261.87 282.359 255.22 282.359 248.56 282.359C240.9 282.369 233.33 281.279 225.73 280.529C219.28 279.899 212.9 278.869 206.49 277.989C201.8 277.339 197.05 276.739 192.45 275.459C191.19 275.109 189.92 275.269 188.65 275.229" stroke="#2071B5" stroke-width="4.20561" stroke-linecap="round" stroke-linejoin="round"/>
<path d="M243.81 296.631C241.38 297.131 238.89 296.901 236.44 297.051C226.47 297.661 216.55 298.531 206.72 300.401C198.5 301.971 190.4 303.921 182.47 306.591C178.28 308.001 174.23 309.781 170.11 311.361" stroke="#2071B5" stroke-width="4.20561" stroke-linecap="round" stroke-linejoin="round"/>
<path d="M281.37 117.139C284.56 116.979 287.57 117.939 290.64 118.559C291.36 118.709 291.21 119.249 291.38 119.749C293.34 125.649 295.51 131.479 297.61 137.319C300.36 144.949 302.61 152.719 305.16 160.399C308.07 169.189 310.59 178.089 313.06 187.009C315.56 196.059 317.63 205.219 319.57 214.379C321.33 222.719 323.25 231.059 324.17 239.559" stroke="#2071B5" stroke-width="4.20561" stroke-linecap="round" stroke-linejoin="round"/>
<path d="M200.54 165.639C199.25 170.069 197.96 174.519 196.82 178.969C194 189.949 190.97 200.879 188.61 211.979C186.64 221.239 184.79 230.519 183.04 239.819C182.64 241.919 182.03 244.039 182.01 246.219C182 248.149 180.87 248.889 179.15 249.069" stroke="#2071B5" stroke-width="4.20561" stroke-linecap="round" stroke-linejoin="round"/>
<path d="M279.47 116.429C276.05 115.469 272.49 115.359 269 115.079C263.71 114.649 258.4 114.319 253.08 114.509C244.81 114.819 236.52 114.799 228.35 116.399C227.43 116.579 226.43 116.369 225.5 116.659" stroke="#2071B5" stroke-width="4.20561" stroke-linecap="round" stroke-linejoin="round"/>
<path d="M224.79 117.379C224 122.339 222.25 127.059 220.89 131.849C217.2 144.919 213.96 158.089 210.98 171.329C210.03 175.529 208.67 179.639 208.15 183.929" stroke="#2071B5" stroke-width="4.20561" stroke-linecap="round" stroke-linejoin="round"/>
<path d="M207.68 184.659C203.65 201.179 201.5 218.019 199.19 234.879C194.18 235.969 189.36 237.599 184.38 238.619" stroke="#2071B5" stroke-width="4.20561" stroke-linecap="round" stroke-linejoin="round"/>
<path d="M298.01 184.659C300.31 194.089 302.09 203.619 303.7 213.189C304.74 219.359 305.85 225.509 306.57 231.729C306.67 232.609 307.22 233.409 307.05 234.349" stroke="#2071B5" stroke-width="4.20561" stroke-linecap="round" stroke-linejoin="round"/>
<path d="M273.291 95.0391C274.781 99.6991 276.661 104.219 278.261 108.829C280.201 114.389 281.951 120.009 283.531 125.699C286.181 135.259 288.791 144.829 291.071 154.479C292.961 162.489 294.851 170.489 296.811 178.479C297.271 180.349 297.701 182.239 297.801 184.289C302.811 184.769 307.661 186.169 312.521 187.509" stroke="#2071B5" stroke-width="4.20561" stroke-linecap="round" stroke-linejoin="round"/>
<path d="M271.39 74.5908C277.27 86.3308 283.13 98.0808 287.6 110.471C288.54 113.091 290.27 115.421 290.41 118.331" stroke="#2071B5" stroke-width="4.20561" stroke-linecap="round" stroke-linejoin="round"/>
<path d="M143.98 385.259C132.1 380.439 121.36 373.909 112.82 364.139C110.23 361.179 108.03 357.929 105.97 354.609C105.68 354.149 105.26 354.039 104.98 353.689" stroke="#2071B5" stroke-width="4.20561" stroke-linecap="round" stroke-linejoin="round"/>
<path d="M239.53 76.4893C238.03 80.9393 235.94 85.1593 234.3 89.5593C231.05 98.2693 228.06 107.079 225.32 115.969C225.11 116.669 225.07 116.799 224.33 116.959C221.24 117.619 218.12 118.079 215.05 118.809" stroke="#2071B5" stroke-width="4.20561" stroke-linecap="round" stroke-linejoin="round"/>
<path d="M356.49 204.86C344.08 197.76 330.84 192.74 317.03 189.17" stroke="#2071B5" stroke-width="4.20561" stroke-linecap="round" stroke-linejoin="round"/>
<path d="M124 319.92C124.05 328.08 124.01 336.24 124.16 344.41C124.24 348.87 124.49 353.23 125.87 357.49C126.21 358.54 126.54 359.53 127.32 360.33" stroke="#2071B5" stroke-width="4.20561" stroke-linecap="round" stroke-linejoin="round"/>
<path d="M260.931 297.58C271.621 297.9 282.241 298.82 292.791 300.63C299.671 301.81 306.551 302.85 313.231 304.93C313.741 305.09 314.331 304.95 314.891 304.95" stroke="#2071B5" stroke-width="4.20561" stroke-linecap="round" stroke-linejoin="round"/>
<path d="M211 129.269C210.79 131.649 209.56 133.699 208.87 135.929C206.23 144.429 203.7 152.969 201.53 161.609C201.34 162.379 200.71 163.089 201.02 163.979" stroke="#2071B5" stroke-width="4.20561" stroke-linecap="round" stroke-linejoin="round"/>
<path d="M322.74 274.279C319.39 274.379 316.3 275.819 312.99 276.199C307.11 276.859 301.3 278.009 295.4 278.619C289.77 279.199 284.18 280.209 278.52 280.459" stroke="#2071B5" stroke-width="4.20561" stroke-linecap="round" stroke-linejoin="round"/>
<path d="M381.69 320.399C382.32 330.699 381.61 340.999 381.61 351.299C381.61 354.659 381.3 358.119 379.69 361.279C375.74 360.909 372.65 362.339 370.75 366.039" stroke="#2071B5" stroke-width="4.20561" stroke-linecap="round" stroke-linejoin="round"/>
<path d="M307.521 235.769C308.231 240.839 309.111 245.899 309.611 250.989C310.241 257.319 310.971 263.649 311.321 269.999" stroke="#2071B5" stroke-width="4.20561" stroke-linecap="round" stroke-linejoin="round"/>
<path d="M187.71 188.7C181.93 189.96 176.35 191.86 170.84 193.96C168.33 194.92 165.96 196.25 163.46 197.26" stroke="#2071B5" stroke-width="4.20561" stroke-linecap="round" stroke-linejoin="round"/>
<path d="M181.53 248.841C180.65 253.671 179.53 258.461 178.92 263.341C178.52 266.591 177.61 269.781 177.72 273.091" stroke="#2071B5" stroke-width="4.20561" stroke-linecap="round" stroke-linejoin="round"/>
<path d="M326.06 249.32C326.56 253.37 327.16 257.4 327.69 261.45C328.06 264.21 328.33 266.98 328.43 269.77C328.46 270.52 328.3 271.3 328.91 271.91" stroke="#2071B5" stroke-width="4.20561" stroke-linecap="round" stroke-linejoin="round"/>
<path d="M373.13 315.169C366.94 321.879 359.48 326.799 351.26 330.619" stroke="#2071B5" stroke-width="4.20561" stroke-linecap="round" stroke-linejoin="round"/>
<path d="M143.011 255.741C149.731 260.641 157.101 264.281 164.881 267.151" stroke="#2071B5" stroke-width="4.20561" stroke-linecap="round" stroke-linejoin="round"/>
<path d="M252.131 291.6C251.451 291.61 248.571 292.52 248.121 292.86C246.531 294.04 244.871 298.31 248.571 300.31C252.111 302.22 255.601 301.97 257.401 299.73C258.681 298.14 259.301 294.92 258.531 293.56C258.071 292.73 253.711 291.49 252.451 291.6" fill="#FFDA00" fill-opacity="0.7"/>
<path d="M252.131 291.6C251.451 291.61 248.571 292.52 248.121 292.86C246.531 294.04 244.871 298.31 248.571 300.31C252.111 302.22 255.601 301.97 257.401 299.73C258.681 298.14 259.301 294.92 258.531 293.56C258.071 292.73 253.711 291.49 252.451 291.6" stroke="#2071B5" stroke-width="4.20561" stroke-linecap="round" stroke-linejoin="round"/>
<path d="M344.68 311.971C344 311.981 341.12 312.891 340.67 313.231C339.08 314.411 337.42 318.681 341.12 320.681C344.66 322.591 348.15 322.341 349.95 320.101C351.23 318.511 351.85 315.291 351.08 313.931C350.62 313.101 346.26 311.861 345 311.971" fill="#FFDA00" fill-opacity="0.7"/>
<path d="M344.68 311.971C344 311.981 341.12 312.891 340.67 313.231C339.08 314.411 337.42 318.681 341.12 320.681C344.66 322.591 348.15 322.341 349.95 320.101C351.23 318.511 351.85 315.291 351.08 313.931C350.62 313.101 346.26 311.861 345 311.971" stroke="#2071B5" stroke-width="4.20561" stroke-linecap="round" stroke-linejoin="round"/>
<path d="M156.809 309.7C156.129 309.71 153.249 310.62 152.799 310.96C151.209 312.14 149.549 316.41 153.249 318.41C156.789 320.32 160.279 320.07 162.079 317.83C163.359 316.24 163.979 313.02 163.209 311.66C162.749 310.83 158.389 309.59 157.129 309.7" fill="#FFDA00" fill-opacity="0.7"/>
<path d="M156.809 309.7C156.129 309.71 153.249 310.62 152.799 310.96C151.209 312.14 149.549 316.41 153.249 318.41C156.789 320.32 160.279 320.07 162.079 317.83C163.359 316.24 163.979 313.02 163.209 311.66C162.749 310.83 158.389 309.59 157.129 309.7" stroke="#2071B5" stroke-width="4.20561" stroke-linecap="round" stroke-linejoin="round"/>
<path d="M262.83 70.3101C264.62 75.4201 267.11 80.2301 269.03 85.2801C269.91 87.6001 271.32 89.7101 271.86 92.1801" stroke="#2071B5" stroke-width="4.20561" stroke-linecap="round" stroke-linejoin="round"/>
<path d="M222.89 98.8403C220.95 104.04 218.5 109.03 216.67 114.28C216.17 115.7 215.53 117.07 215.28 118.57" stroke="#2071B5" stroke-width="4.20561" stroke-linecap="round" stroke-linejoin="round"/>
<path d="M236.2 73.6392C232.55 79.6492 229.27 85.8592 226.22 92.1792" stroke="#2071B5" stroke-width="4.20561" stroke-linecap="round" stroke-linejoin="round"/>
<path d="M123.05 298.529C123.03 304.479 123.02 310.439 123.76 316.359" stroke="#2071B5" stroke-width="4.20561" stroke-linecap="round" stroke-linejoin="round"/>
<path d="M175.82 141.629C175.26 148.929 178.31 154.379 184.38 158.269" stroke="#2071B5" stroke-width="4.20561" stroke-linecap="round" stroke-linejoin="round"/>
<path d="M360.771 269.999C364.171 274.839 367.091 279.909 368.661 285.679C368.831 286.319 368.811 286.799 368.621 287.359" stroke="#2071B5" stroke-width="4.20561" stroke-linecap="round" stroke-linejoin="round"/>
<path d="M126.37 277.129C124.42 282.669 122.96 288.309 123.04 294.249" stroke="#2071B5" stroke-width="4.20561" stroke-linecap="round" stroke-linejoin="round"/>
<path d="M309.9 243.851C315.6 245.621 321.28 247.451 327.02 249.081" stroke="#2071B5" stroke-width="4.20561" stroke-linecap="round" stroke-linejoin="round"/>
<path d="M369.33 289.971C368.77 295.551 367.23 300.751 363.62 305.181" stroke="#2071B5" stroke-width="4.20561" stroke-linecap="round" stroke-linejoin="round"/>
<path d="M310.851 321.83C312.201 321.83 313.391 322.47 314.661 322.75C315.611 322.96 315.631 323.48 315.611 324.21C315.501 327.95 314.491 331.61 314.611 335.38C314.621 335.7 314.371 336.18 314.181 336.57" stroke="#2071B5" stroke-width="4.20561" stroke-linecap="round" stroke-linejoin="round"/>
<path d="M178.33 328.721C176.98 328.721 175.79 329.361 174.52 329.641C173.57 329.851 173.55 330.371 173.57 331.101C173.68 334.841 174.69 338.501 174.57 342.271C174.56 342.591 174.81 343.071 175 343.461" stroke="#2071B5" stroke-width="4.20561" stroke-linecap="round" stroke-linejoin="round"/>
<path d="M314.42 292.111C313.74 293.731 314.5 295.301 314.71 296.861C315.1 299.711 315.16 302.571 315.1 305.471C318.86 306.151 322.14 307.611 325.59 308.511" stroke="#2071B5" stroke-width="4.20561" stroke-linecap="round" stroke-linejoin="round"/>
<path d="M379.31 280.939C380.33 284.999 381.07 289.109 381.21 293.299" stroke="#2071B5" stroke-width="4.20561" stroke-linecap="round" stroke-linejoin="round"/>
<path d="M312.75 277.611C312.9 281.611 313.33 285.581 314.18 289.501" stroke="#2071B5" stroke-width="4.20561" stroke-linecap="round" stroke-linejoin="round"/>
<path d="M122.571 367.469C121.561 365.679 122.331 364.329 123.501 362.939C124.891 361.289 126.731 361.429 128.241 362.089C130.541 363.099 132.091 365.019 133.081 367.449C133.831 369.279 132.071 370.249 132.081 371.749" stroke="#2071B5" stroke-width="4.20561" stroke-linecap="round" stroke-linejoin="round"/>
<path d="M209.1 120.229C205.2 120.759 201.55 122.109 197.92 123.549C197.71 123.629 197.45 123.559 197.21 123.559" stroke="#2071B5" stroke-width="4.20561" stroke-linecap="round" stroke-linejoin="round"/>
<path d="M203.4 320.881C199.46 321.031 195.79 322.451 191.99 323.261" stroke="#2071B5" stroke-width="4.20561" stroke-linecap="round" stroke-linejoin="round"/>
<path d="M198.17 243.85C195.1 243.71 192.5 245.42 189.61 246C188.65 246.19 187.81 246.87 186.76 246.71" stroke="#2071B5" stroke-width="4.20561" stroke-linecap="round" stroke-linejoin="round"/>
<path d="M174.389 284.271C173.939 288.011 173.219 291.711 172.729 295.441" stroke="#2071B5" stroke-width="4.20561" stroke-linecap="round" stroke-linejoin="round"/>
<path d="M305.14 164.45C301.56 165.64 297.88 166.46 294.2 167.3" stroke="#2071B5" stroke-width="4.20561" stroke-linecap="round" stroke-linejoin="round"/>
<path d="M372.66 268.101C374.97 271.531 377.35 274.931 378.37 279.041" stroke="#2071B5" stroke-width="4.20561" stroke-linecap="round" stroke-linejoin="round"/>
<path d="M199.12 164.93C202.59 165.56 205.92 166.75 209.34 167.57C209.99 167.73 210.61 167.76 211.25 167.78" stroke="#2071B5" stroke-width="4.20561" stroke-linecap="round" stroke-linejoin="round"/>
<path d="M351.74 262.871C348.38 264.391 345.26 266.411 341.76 267.621" stroke="#2071B5" stroke-width="4.20561" stroke-linecap="round" stroke-linejoin="round"/>
<path d="M182 239.57C178.58 240.41 175.38 241.9 172.02 242.9" stroke="#2071B5" stroke-width="4.20561" stroke-linecap="round" stroke-linejoin="round"/>
<path d="M381.22 302.331C381.3 306.451 381.92 310.561 381.7 314.691" stroke="#2071B5" stroke-width="4.20561" stroke-linecap="round" stroke-linejoin="round"/>
<path d="M291.589 118.81C294.909 119.3 298.039 120.59 301.339 121.19" stroke="#2071B5" stroke-width="4.20561" stroke-linecap="round" stroke-linejoin="round"/>
<path d="M318.46 128.32C315.28 126.92 312.4 124.84 308.95 124.04" stroke="#2071B5" stroke-width="4.20561" stroke-linecap="round" stroke-linejoin="round"/>
<path d="M375.51 231.009C375.73 234.229 375.25 237.389 374.56 240.519" stroke="#2071B5" stroke-width="4.20561" stroke-linecap="round" stroke-linejoin="round"/>
<path d="M379.31 303.761C378.69 306.761 376.94 309.231 375.51 311.841" stroke="#2071B5" stroke-width="4.20561" stroke-linecap="round" stroke-linejoin="round"/>
<path d="M198.88 235.29C199 238.08 198.61 240.84 198.4 243.61" stroke="#2071B5" stroke-width="4.20561" stroke-linecap="round" stroke-linejoin="round"/>
<path d="M315.601 305.899C314.991 307.169 315.581 308.439 315.631 309.699C315.741 312.479 315.141 315.249 315.601 318.019" stroke="#2071B5" stroke-width="4.20561" stroke-linecap="round" stroke-linejoin="round"/>
<path d="M172.84 296.631C172.23 297.901 172.82 299.171 172.87 300.431C172.98 303.211 172.38 305.981 172.84 308.751" stroke="#2071B5" stroke-width="4.20561" stroke-linecap="round" stroke-linejoin="round"/>
<path d="M172.84 312.44C172.23 313.71 172.82 314.98 172.87 316.24C172.98 319.02 172.38 321.79 172.84 324.56" stroke="#2071B5" stroke-width="4.20561" stroke-linecap="round" stroke-linejoin="round"/>
<path d="M324.64 240.289C324.56 242.799 325.85 245.129 325.59 247.659" stroke="#2071B5" stroke-width="4.20561" stroke-linecap="round" stroke-linejoin="round"/>
<path d="M333.67 312.32C331.5 311.27 329.4 310.02 327.01 309.47" stroke="#2071B5" stroke-width="4.20561" stroke-linecap="round" stroke-linejoin="round"/>
<path d="M350.79 330.619C348.45 331.479 346.31 332.749 344.13 333.949" stroke="#2071B5" stroke-width="4.20561" stroke-linecap="round" stroke-linejoin="round"/>
<path d="M383.121 362.241C384.671 364.231 385.691 366.331 384.551 368.901" stroke="#2071B5" stroke-width="4.20561" stroke-linecap="round" stroke-linejoin="round"/>
<path d="M346.03 257.639C343.94 256.759 342.09 255.349 339.85 254.789" stroke="#2071B5" stroke-width="4.20561" stroke-linecap="round" stroke-linejoin="round"/>
<path d="M160.61 258.121C158.64 259.111 156.63 260.041 154.9 261.451" stroke="#2071B5" stroke-width="4.20561" stroke-linecap="round" stroke-linejoin="round"/>
<path d="M322.74 155.89C320.84 157.16 319.12 158.7 317.03 159.69" stroke="#2071B5" stroke-width="4.20561" stroke-linecap="round" stroke-linejoin="round"/>
<path d="M135.41 248.61C136.96 250.54 138.71 252.29 140.64 253.84" stroke="#2071B5" stroke-width="4.20561" stroke-linecap="round" stroke-linejoin="round"/>
<path d="M311.8 271.899C311.71 273.349 312.49 274.709 312.28 276.179" stroke="#2071B5" stroke-width="4.20561" stroke-linecap="round" stroke-linejoin="round"/>
<path d="M214.811 119.28C214.851 120.49 213.821 121.4 213.861 122.61" stroke="#2071B5" stroke-width="4.20561" stroke-linecap="round" stroke-linejoin="round"/>
</svg>
