<svg width="500" height="500" viewBox="0 0 500 500" fill="none" xmlns="http://www.w3.org/2000/svg">
<path d="M308.32 376.35C312.31 371.55 315.09 366.02 317.99 360.55C322.29 352.43 326.05 344.09 328.85 335.33C330.97 328.7 333.31 322.1 334.66 315.28C335.58 310.65 336.26 305.94 336.86 301.23C338.07 291.68 338.67 282.11 338.12 272.55C337.59 263.3 336.97 254.04 335.4 244.84C334.19 237.75 332.79 230.76 330.85 223.84C329.43 218.77 327.67 213.82 325.55 209.05C320.72 198.14 315.26 187.58 308.64 177.58C300.29 164.99 290.78 153.47 279.65 143.27C270.86 135.22 261.16 128.37 250.95 122.32C240.38 116.06 229.07 111.42 217.12 108.44C210.23 106.72 203.21 105.82 196.12 105.43C192.74 105.24 189.38 104.86 185.98 104.97C170.82 105.45 155.9 107.47 141.76 113.18C128.48 118.55 116.59 126.21 106.13 136.09C94.9499 146.65 85.9099 158.84 78.5199 172.23C73.4099 181.5 69.6599 191.37 66.7899 201.59C63.8199 212.14 61.9599 222.89 61.0199 233.75C60.1099 244.25 60.1499 254.81 60.8099 265.38C61.2899 273.14 62.5999 280.75 63.9699 288.34C65.2099 295.21 67.2999 301.92 69.1999 308.66C73.1899 322.75 79.2999 335.87 86.7099 348.36C91.9899 357.26 98.4699 365.37 105.34 373.18C116.63 386.01 129.58 396.8 144.24 405.44C155.37 411.99 167.23 417.06 179.79 420.35C185.65 421.89 191.53 423.17 197.58 423.89C203.18 424.56 208.79 425.01 214.4 424.97C227.63 424.89 240.35 422.32 252.75 417.47C265.5 412.48 277.23 405.96 288.11 397.67C294.5 392.8 300.04 387.17 305.02 380.97C306.1 379.63 307.98 378.67 308.08 376.59" stroke="#2071B5" stroke-width="4.21" stroke-linecap="round" stroke-linejoin="round"/>
<path d="M346.2 394.51C365.78 393.16 376.28 382.72 386.66 374.86C400.89 364.09 412.63 350.91 422.71 336.28C432.02 322.75 438.67 307.91 443.02 292.07C445.25 283.95 446.61 275.66 448.06 267.37C450.29 254.64 450.12 241.84 449.83 229.05C449.7 223.11 448.64 217.17 447.78 211.24C446.04 199.29 443.2 187.62 439.48 176.18C436.87 168.17 433.79 160.32 430.21 152.66C425.22 141.99 419.81 131.58 412.87 122.03C402.71 108.05 391.5 95.1398 377.58 84.6398C366.47 76.2598 354.52 69.4698 341.92 63.7398C334.36 60.3098 326.48 57.5598 318.43 55.6698C312.39 54.2498 306.22 53.2598 299.93 52.9398C295.89 52.7398 291.85 52.5498 287.81 52.6198C278.27 52.7798 268.8 53.8598 259.65 56.5998C247.98 60.0898 237.02 65.2598 226.75 71.8498C226.06 72.2898 225.19 72.5198 225.27 73.5898" stroke="#2071B5" stroke-width="4.21" stroke-linecap="round" stroke-linejoin="round"/>
<path d="M352.16 299.98C352.84 290.66 352.56 281.35 352.48 272.04C352.41 264.09 351.72 256.16 350.16 248.3C348.86 241.74 348.05 235.09 346.67 228.53C344.71 219.23 341.54 210.36 337.99 201.59C332.67 188.47 325.97 176.09 318.21 164.27C314.39 158.45 310.13 152.98 305.58 147.73C300.26 141.6 294.62 135.79 288.31 130.65C280.32 124.14 271.91 118.33 262.91 113.24C254.92 108.72 246.84 104.59 238.12 101.76C227 98.15 215.75 95 204.02 94.1C195.63 93.46 187.2 93.55 178.82 93.94C172.18 94.25 165.47 94.72 159.04 96.78C158.59 96.92 158.04 96.89 157.57 96.78C152.7 95.67 148.54 98.02 144.23 99.54C140.4 100.89 136.55 102.58 133.22 104.65C127.41 108.26 121.31 111.44 115.77 115.55C98.2099 128.57 84.0799 144.68 72.8499 163.32C67.2099 172.68 62.1299 182.38 58.9399 192.94C55.0799 205.71 52.2099 218.66 50.9899 231.99C50.2399 240.14 49.7999 248.3 50.1299 256.46C50.3699 262.33 51.0999 268.19 51.9899 274.02C53.2999 282.58 54.9899 291.05 56.9399 299.48C59.7999 311.8 64.0099 323.64 69.3699 335.04C75.3499 347.77 82.7099 359.66 91.5299 370.69C101.07 382.61 111.64 393.42 123.69 402.81C126.08 404.67 128.38 406.93 130.79 408.47C133.8 410.39 137.1 412.1 140.26 413.93C151.27 420.33 162.9 425.2 175.12 428.76C180.17 430.23 185.3 431.21 190.44 432.26C198.87 433.97 207.38 434.35 215.91 434.36C222.51 434.36 229.15 434.29 235.68 433.14C243.46 431.77 251 429.45 258.43 426.77C261.89 425.52 264.99 423.58 268.3 422.04C271.99 420.33 275.45 418.2 278.93 416.12C291.43 408.65 302.52 399.41 312.25 388.64C322.21 377.61 330.37 365.28 337.28 352.11C341.3 344.45 343.97 336.3 346.68 328.13C348.47 322.71 351.7 314 352.18 299.95" stroke="#2071B5" stroke-width="4.21" stroke-linecap="round" stroke-linejoin="round"/>
<path d="M347.27 379.86C356.95 379.6 359.48 376.3 362.25 374.69C368.59 371.01 374.46 366.7 380.23 362.23C385.68 358.01 390.78 353.35 395.53 348.37C403.79 339.72 410.84 330.11 416.82 319.74C422.14 310.53 426.14 300.79 429.28 290.61C432.23 281.03 434.28 271.29 435.53 261.4C436.28 255.45 436.26 249.39 436.41 243.37C436.58 236.67 436.16 230.01 435.58 223.35C435.11 217.95 434.04 212.62 433.11 207.29C431.94 200.51 430.17 193.84 428.11 187.29C426.11 180.94 423.76 174.68 421.28 168.48C415.79 154.75 408.6 141.94 400 129.94C394.2 121.84 388.17 113.91 381 106.93C370.01 96.2602 357.72 87.3702 344.17 80.2402C335.99 75.9402 327.36 72.8202 318.48 70.3102C312.62 68.6502 306.69 67.4502 300.67 66.6602C298.13 66.3302 295.57 66.0902 293.01 65.8502C287.24 65.3202 281.45 65.1002 275.71 65.4902C269.42 65.9102 263.13 66.4502 256.89 67.7402C252.16 68.7202 247.34 69.4102 242.58 70.3402C238.69 71.0902 234.87 72.1502 230.97 72.8502C229.24 73.1602 227.61 73.6502 225.78 73.7202C223.54 73.8202 221.38 75.2202 219.1 75.7802C211.87 77.5402 204.71 79.5102 197.59 81.7002C187.2 84.9002 176.89 88.3102 166.69 92.0602C163.62 93.1902 160.37 93.8402 157.3 95.0402C156.63 95.3002 155.92 95.4402 155.58 96.1702" stroke="#2071B5" stroke-width="4.21" stroke-linecap="round" stroke-linejoin="round"/>
<path d="M173.37 243.38C169.18 241.98 164.8 241.43 160.51 240.44C153.77 238.88 147 237.45 140.23 236.03C133.38 234.6 126.59 232.88 119.73 231.5C113.12 230.17 106.55 228.68 99.9499 227.31C98.2899 226.97 96.6299 226.61 94.9899 226.14C92.8999 225.55 89.7999 227.43 88.5099 229.99C86.9499 233.09 86.0799 236.31 85.6499 239.67C85.0699 244.19 85.1299 248.76 85.6799 253.25C86.6399 261.06 88.6599 268.63 91.4799 276.02C93.7099 281.85 96.5399 287.27 100.18 292.32C101.77 294.52 103.58 296.55 105.68 298.18C108.71 300.54 112.06 300.44 115.8 299.33C122.91 297.22 129.76 294.4 136.78 292.07C141.43 290.53 145.95 288.62 150.62 287.12C157.85 284.78 164.7 281.45 171.88 278.96" stroke="#2071B5" stroke-width="4.21" stroke-linecap="round" stroke-linejoin="round"/>
<path d="M241.59 295.28C245.19 298.7 246.72 303.3 248.78 307.63C254.46 319.54 259.83 331.59 265.55 343.48C270.28 353.31 274.79 363.25 279.5 373.09C280.97 376.17 281.89 379.34 282.23 382.54C282.58 385.83 281.24 389.11 279.37 391.89C276.2 396.6 271.66 399.7 266.56 402.05C259.09 405.49 251.25 407.5 243.08 408.52C235.21 409.5 227.43 409.4 219.86 406.95C214.15 405.1 212.83 403.14 212.7 397.11C212.46 386.22 211.68 375.36 211.12 364.49C210.57 354.03 210.13 343.56 209.7 333.1C209.37 324.94 208.7 316.8 208.48 308.63" stroke="#2071B5" stroke-width="4.21" stroke-linecap="round" stroke-linejoin="round"/>
<path d="M261.62 112.38C270.56 112.07 279.23 113.28 285.83 113.39C297.53 113.59 309.23 112.94 320.93 113.78C325.58 114.11 330.21 114.25 334.77 115.33C339.99 116.57 344.36 119.23 347.85 123.26C350.71 126.57 350.8 130.84 351.58 134.86C353.29 143.71 352.64 152.66 352.46 161.55C352.28 170.37 352.49 179.2 351.96 187.99C351.29 199.21 352 210.41 351.5 221.61C351.27 226.72 351.52 231.83 351.14 236.94C350.92 239.88 351.28 242.87 351.57 245.83" stroke="#2071B5" stroke-width="4.21" stroke-linecap="round" stroke-linejoin="round"/>
<path d="M210.94 110.9C210.23 112.63 210.73 114.43 211.01 116.08C212.88 127.48 213.73 139 215.17 150.44C215.9 156.24 216.97 162 217.96 167.77C219.23 175.18 220.84 182.53 221.93 189.97C222.54 194.18 222.21 198.58 224.05 202.59C222.94 207.58 225.59 212.44 224.54 217.42" stroke="#2071B5" stroke-width="4.21" stroke-linecap="round" stroke-linejoin="round"/>
<path d="M132.34 104.47C130.44 103.66 128.38 103.57 126.41 103.54C119.08 103.42 111.74 103.15 104.42 102.89C96.5899 102.61 88.7599 102.16 80.9399 102.11C73.9799 102.07 68.1299 104.71 65.1199 111.65C63.8899 114.5 63.6799 117.54 63.6699 120.55C63.6099 138.35 63.6399 156.14 63.6399 173.94C63.6399 175.02 63.7199 176.1 63.3899 177.15" stroke="#2071B5" stroke-width="4.21" stroke-linecap="round" stroke-linejoin="round"/>
<path d="M210.45 111.89C204.15 112.16 197.82 112.46 191.68 113.91C184.29 115.66 177.12 118.12 170.41 121.78C164.03 125.26 158 129.19 153.87 135.38C152.53 137.4 151.45 139.56 151.1 142.04C151 142.77 151.1 143.31 151.3 144.04C153.31 151.29 156.49 158.09 159.33 165.01C165.14 179.14 170.78 193.35 177.6 207.03C179.94 211.72 182.42 216.35 185.48 220.64" stroke="#2071B5" stroke-width="4.21" stroke-linecap="round" stroke-linejoin="round"/>
<path d="M173.62 243.63C171.23 251.23 170.51 258.89 171.55 266.88C172.68 275.51 175.61 283.32 180.59 290.31C185.57 297.31 191.87 302.88 200.08 305.9C209.78 309.47 219.48 309.1 228.71 304.62C241.37 298.48 248.12 287.68 251.26 274.29C252.2 270.28 252.53 266.23 252.18 262.18C251.19 250.65 247.44 240.2 240.16 230.99C234.97 224.43 228.5 219.47 221.01 216.36C212.4 212.79 203.34 212.68 194.63 216.94C184.38 221.95 178.37 230.5 174.66 240.93C174.36 241.78 173.54 242.39 173.62 243.38" fill="#FFDA00" fill-opacity="0.7"/>
<path d="M173.62 243.63C171.23 251.23 170.51 258.89 171.55 266.88C172.68 275.51 175.61 283.32 180.59 290.31C185.57 297.31 191.87 302.88 200.08 305.9C209.78 309.47 219.48 309.1 228.71 304.62C241.37 298.48 248.12 287.68 251.26 274.29C252.2 270.28 252.53 266.23 252.18 262.18C251.19 250.65 247.44 240.2 240.16 230.99C234.97 224.43 228.5 219.47 221.01 216.36C212.4 212.79 203.34 212.68 194.63 216.94C184.38 221.95 178.37 230.5 174.66 240.93C174.36 241.78 173.54 242.39 173.62 243.38" stroke="#2071B5" stroke-width="4.21" stroke-linecap="round" stroke-linejoin="round"/>
<path d="M62.8899 323.95C63.3299 326.07 63.3999 328.21 63.3999 330.38C63.3799 345.62 63.3099 360.86 63.4399 376.1C63.4699 380.3 63.3199 384.53 63.6999 388.7C64.5499 398.08 70.4199 403.15 78.7199 405.02C83.0299 405.99 87.4499 406.08 91.8199 406.47C99.3899 407.15 106.96 407.83 114.55 408.26C118.76 408.5 122.96 408.89 127.16 409.21C128.21 409.29 129.16 408.81 130.13 408.48" stroke="#2071B5" stroke-width="4.21" stroke-linecap="round" stroke-linejoin="round"/>
<path d="M154.09 286.38C156.54 293.01 159.98 299.16 163.21 305.42C168.36 315.4 175.09 324.21 182.46 332.64C190.13 341.41 198.91 348.88 208.03 356C208.68 356.51 208.81 357.05 209.2 357.56" stroke="#2071B5" stroke-width="4.21" stroke-linecap="round" stroke-linejoin="round"/>
<path d="M157.95 161.7C142.82 181.34 142.93 192.81 141.6 201.14C141.22 203.53 141.17 206.08 140.91 208.53C139.95 217.58 140.18 226.66 139.75 235.73" stroke="#2071B5" stroke-width="4.21" stroke-linecap="round" stroke-linejoin="round"/>
<path d="M310.05 181.34C303.02 186.99 295.37 191.79 288.25 197.34C279.72 203.98 271.05 210.44 262.59 217.17C258.25 220.63 254.26 224.48 250.23 228.3" stroke="#2071B5" stroke-width="4.21" stroke-linecap="round" stroke-linejoin="round"/>
<path d="M334.77 258.7C322.73 260.43 310.74 262.47 298.69 264.14C292.35 265.02 286.03 265.98 279.66 266.66C273.73 267.29 267.76 267.19 261.86 268.09" stroke="#2071B5" stroke-width="4.21" stroke-linecap="round" stroke-linejoin="round"/>
<path d="M351.51 308.36C351.23 317.47 346.74 381.45 346.38 388.7C345.95 397.27 346.4 405.84 346.06 414.4C345.93 417.77 346.54 421.12 345.73 424.56C344.22 430.95 339.11 434.46 332.8 434.39C323.6 434.28 314.49 432.94 305.37 431.9C299.11 431.19 292.84 430.5 286.58 429.73C278.76 428.77 270.9 428.19 263.1 427.04C262.55 426.96 262.05 426.9 261.62 426.53" stroke="#2071B5" stroke-width="4.21" stroke-linecap="round" stroke-linejoin="round"/>
<path d="M347.37 184.06C346.64 181.09 347.18 178.08 347.47 175.17C348.24 167.52 347.32 159.99 346.62 152.42C346.09 146.65 345.72 140.86 344.9 135.12C344.19 130.18 341.74 126.65 336.75 125.23" stroke="#2071B5" stroke-width="4.21" stroke-linecap="round" stroke-linejoin="round"/>
<path d="M265.74 214.1C263.97 208.74 258.14 205.23 255.54 203.9C249.68 200.9 246.87 199.13 240.22 198.83C235.8 198.63 230.5 200.33 224.78 202.11C224.58 202.17 224.45 202.43 224.28 202.59" stroke="#2071B5" stroke-width="4.21" stroke-linecap="round" stroke-linejoin="round"/>
<path d="M276.26 140.27C261.57 131.18 219.36 125.72 212.9 127.47" stroke="#2071B5" stroke-width="4.21" stroke-linecap="round" stroke-linejoin="round"/>
<path d="M277.92 267.35C277.14 269.85 277.18 272.52 276.41 275C273.94 282.96 268.7 288.64 261.62 292.82C257.06 295.51 252.12 297.21 247.02 298.45C246.33 298.62 245.63 298.65 245.05 299.11" stroke="#2071B5" stroke-width="4.21" stroke-linecap="round" stroke-linejoin="round"/>
<path d="M281.13 375.36C284.43 375.44 287.74 375.08 291.01 375.63C293.72 376.08 296.45 375.8 299.18 376.04C302.05 376.29 304.95 376.21 307.83 376.6" stroke="#2071B5" stroke-width="4.21" stroke-linecap="round" stroke-linejoin="round"/>
<path d="M323.4 137.59C324.18 140.31 324.95 142.9 328.08 144.06C331.77 145.43 335.56 143.13 336.71 140.29C338.12 136.81 335.84 132.33 332.3 131.16C328.99 130.07 324.83 132.5 323.92 136.11C323.8 136.57 323.86 137.05 323.4 137.34" fill="#FFDA00" fill-opacity="0.7"/>
<path d="M323.4 137.59C324.18 140.31 324.95 142.9 328.08 144.06C331.77 145.43 335.56 143.13 336.71 140.29C338.12 136.81 335.84 132.33 332.3 131.16C328.99 130.07 324.83 132.5 323.92 136.11C323.8 136.57 323.86 137.05 323.4 137.34" stroke="#2071B5" stroke-width="4.21" stroke-linecap="round" stroke-linejoin="round"/>
<path d="M179.55 276.99C181.93 282.54 184.27 288.12 189.44 291.82" stroke="#2071B5" stroke-width="4.21" stroke-linecap="round" stroke-linejoin="round"/>
<path d="M261.36 268.09H252.71" stroke="#2071B5" stroke-width="4.21" stroke-linecap="round" stroke-linejoin="round"/>
<path d="M250.62 227.94C249.33 229.03 245.96 232.75 244.8 233.99" stroke="#2071B5" stroke-width="4.21" stroke-linecap="round" stroke-linejoin="round"/>
<path d="M76.4901 377.34C75.0201 378.03 73.6901 378.86 72.7601 380.29C70.9901 383.03 71.8501 386.87 74.7601 388.71C77.8401 390.65 81.7601 389.79 83.6601 386.73C84.7801 384.92 85.2101 383 84.1401 381.06C82.9201 378.87 81.2701 377.2 78.4801 377.34C77.9001 377.37 77.3301 377.34 76.7501 377.34" fill="#FFDA00" fill-opacity="0.7"/>
<path d="M76.4901 377.34C75.0201 378.03 73.6901 378.86 72.7601 380.29C70.9901 383.03 71.8501 386.87 74.7601 388.71C77.8401 390.65 81.7601 389.79 83.6601 386.73C84.7801 384.92 85.2101 383 84.1401 381.06C82.9201 378.87 81.2701 377.2 78.4801 377.34C77.9001 377.37 77.3301 377.34 76.7501 377.34" stroke="#2071B5" stroke-width="4.21" stroke-linecap="round" stroke-linejoin="round"/>
<path d="M208.47 255.74C205.56 256.83 203.1 260.23 203.28 262.91C203.47 265.82 205.53 268.66 207.98 269.06C210.83 269.53 213.4 268.6 215.08 266.32C216.57 264.3 216.85 261.96 215.69 259.42C214.45 256.72 212.47 255.71 209.7 255.74C209.37 255.74 209.04 255.74 208.71 255.74" stroke="#2071B5" stroke-width="4.21" stroke-linecap="round" stroke-linejoin="round"/>
<path d="M207.48 241.4C199.65 243.31 194.58 247.97 191.82 255.7C188.56 264.84 193.01 275.58 199.3 279.99C205.62 284.42 212.26 285.58 219.06 281.86C227.49 277.25 231.38 269.62 230.35 260.19C229.36 251.21 224.71 244.45 214.89 241.66C212.56 241 210.12 241.5 207.73 241.39" stroke="#2071B5" stroke-width="4.21" stroke-linecap="round" stroke-linejoin="round"/>
<path d="M329.58 408.48C325.37 410.49 324.16 412.41 324.88 415.89C325.62 419.48 328.44 421.78 331.8 421.3C334.9 420.85 337.68 417.95 337.21 414.66C336.6 410.36 334.76 409.05 330.81 408.48C330.49 408.43 330.15 408.48 329.82 408.48" fill="#FFDA00" fill-opacity="0.7"/>
<path d="M329.58 408.48C325.37 410.49 324.16 412.41 324.88 415.89C325.62 419.48 328.44 421.78 331.8 421.3C334.9 420.85 337.68 417.95 337.21 414.66C336.6 410.36 334.76 409.05 330.81 408.48C330.49 408.43 330.15 408.48 329.82 408.48" stroke="#2071B5" stroke-width="4.21" stroke-linecap="round" stroke-linejoin="round"/>
<path d="M76.98 113.87C75.24 114.61 73.85 115.75 72.77 117.32C69.92 121.44 73.52 126.57 77.24 127.14C81.08 127.72 83.61 127.11 85.14 122.52C86.47 118.54 83.34 113.94 79.2 113.87C78.54 113.86 77.88 113.87 77.22 113.87" fill="#FFDA00" fill-opacity="0.7"/>
<path d="M76.98 113.87C75.24 114.61 73.85 115.75 72.77 117.32C69.92 121.44 73.52 126.57 77.24 127.14C81.08 127.72 83.61 127.11 85.14 122.52C86.47 118.54 83.34 113.94 79.2 113.87C78.54 113.86 77.88 113.87 77.22 113.87" stroke="#2071B5" stroke-width="4.21" stroke-linecap="round" stroke-linejoin="round"/>
</svg>
