<svg width="500" height="500" viewBox="0 0 500 500" fill="none" xmlns="http://www.w3.org/2000/svg">
<path d="M245.29 408.06C240.35 411.35 235.21 414.31 230.03 417.18C222.49 421.35 219.44 427.91 219.5 436.21C219.52 439.05 220.91 439.92 223.18 441.24C227.23 443.61 230.14 441.08 233.05 439.41C239.95 435.46 246.86 431.53 253.74 427.53C256.37 426 258.84 424.22 261.68 422.99C264.01 421.98 264.11 419.24 263.94 417.22C263.65 413.76 264.35 410.34 263.88 406.88C263.46 403.8 261.34 402.31 259.12 400.81C258.16 400.16 257.26 400.74 256.3 401.23C252.59 403.13 249.43 405.87 245.76 407.83" fill="#FFDA00" fill-opacity="0.7"/>
<path d="M245.29 408.06C240.35 411.35 235.21 414.31 230.03 417.18C222.49 421.35 219.44 427.91 219.5 436.21C219.52 439.05 220.91 439.92 223.18 441.24C227.23 443.61 230.14 441.08 233.05 439.41C239.95 435.46 246.86 431.53 253.74 427.53C256.37 426 258.84 424.22 261.68 422.99C264.01 421.98 264.11 419.24 263.94 417.22C263.65 413.76 264.35 410.34 263.88 406.88C263.46 403.8 261.34 402.31 259.12 400.81C258.16 400.16 257.26 400.74 256.3 401.23C252.59 403.13 249.43 405.87 245.76 407.83" stroke="#2071B5" stroke-width="4.20561" stroke-linecap="round" stroke-linejoin="round"/>
<path d="M396.83 219.711C396.31 222.901 396.67 226.121 396.67 229.331C396.67 229.821 396.82 230.431 396.82 230.971C396.82 244.341 397.21 257.711 397.09 271.081C397.06 274.331 396.72 277.551 394.43 279.931C392.62 281.811 390.16 283.041 387.92 284.441C375.8 291.991 363.63 299.481 351.29 306.651C329.9 319.081 308.68 331.811 287.31 344.271C274.4 351.791 261.69 359.641 248.83 367.231C235.82 374.911 222.94 382.831 209.91 390.481C202.14 395.041 194.21 399.341 186.66 404.281C185.17 405.261 183.63 405.061 181.96 404.111C174.03 399.621 166.2 394.981 158.31 390.441C147.11 383.981 135.92 377.511 124.77 370.971C109.6 362.071 94.4401 353.131 79.2401 344.281C70.7001 339.311 62.2401 334.191 53.6501 329.311C50.3801 327.451 49.2601 325.051 49.9101 321.511C50.1701 320.111 49.6801 318.711 49.6801 317.291C49.7001 296.491 49.5201 275.691 49.7401 254.901C50.0301 227.301 49.8401 199.701 49.9101 172.101C49.9101 170.761 50.2901 169.461 50.1701 168.111C50.0601 166.911 50.9601 166.351 51.8001 165.761C56.0801 162.801 60.6601 160.331 65.2101 157.851C74.3801 152.861 83.3601 147.551 92.3701 142.281C107.01 133.721 121.76 125.371 136.45 116.921C150.79 108.681 165.08 100.361 179.41 92.1206C193.37 84.0906 207.32 76.0205 221.36 68.1305C229.79 63.4005 238.23 58.6705 246.52 53.6905C250.6 51.2405 254.81 49.0105 258.94 46.6405C260.72 45.6205 262.79 45.4005 264.78 46.5805C272.62 51.2106 280.6 55.6005 288.48 60.1705C299.11 66.3305 310.02 71.9906 320.66 78.1506C330.52 83.8606 340.64 89.1606 350.63 94.6706C365.15 102.691 379.69 110.671 394.25 118.611C395.74 119.431 395.97 120.531 396.02 122.361C396.26 132.681 396.21 143.011 396.41 153.321C396.71 169.431 396.52 185.541 396.68 201.641C396.73 206.801 396.66 211.961 396.61 217.121C396.61 217.911 396.52 218.711 396.84 219.471" stroke="#2071B5" stroke-width="4.20561" stroke-linecap="round" stroke-linejoin="round"/>
<path d="M395.65 129.87C394.3 129.54 393.31 130.5 392.4 131.09C380.96 138.62 368.93 145.14 357.2 152.18C348.17 157.59 339.22 163.15 330.17 168.5C320.48 174.22 310.81 179.97 301.14 185.71C293.33 190.34 285.48 194.9 277.68 199.55C271.57 203.19 265.45 206.79 259.17 210.15C252.63 213.66 246.34 217.65 239.85 221.26C228.64 227.5 217.74 234.25 206.64 240.67C200.17 244.4 193.64 248.11 187.6 252.57C186.2 253.6 185.07 253.45 183.58 252.59C169.1 244.2 154.52 235.98 139.98 227.68C128.75 221.27 117.58 214.77 106.44 208.2C98.0499 203.25 89.5199 198.55 81.0499 193.75C71.6399 188.42 62.1299 183.27 52.7299 177.92C51.8499 177.42 51.0499 177.27 50.1299 177.26" stroke="#2071B5" stroke-width="4.20561" stroke-linecap="round" stroke-linejoin="round"/>
<path d="M395.65 122.359C393.84 122.269 392.8 123.729 391.45 124.509C384.45 128.499 377.44 132.509 370.6 136.749C363.59 141.099 356.42 145.169 349.39 149.479C341.34 154.419 333.01 158.929 324.82 163.659C310.5 171.929 296.23 180.279 281.89 188.509C274.03 193.029 266.09 197.409 258.19 201.859C250.16 206.379 242.29 211.159 234.29 215.749C220.7 223.539 207.16 231.409 193.7 239.429C191.08 240.989 188.62 242.849 185.93 244.299C185.07 244.759 184.28 244.839 183.08 244.189C175.3 239.959 167.61 235.549 159.96 231.109C149.36 224.949 138.55 219.159 127.96 212.979C121.26 209.069 114.41 205.379 107.61 201.629C99.2104 196.999 90.8504 192.289 82.5004 187.579C74.3604 182.979 66.3203 178.199 58.1203 173.719C55.6003 172.339 53.2404 170.679 50.6104 169.509" stroke="#2071B5" stroke-width="4.20561" stroke-linecap="round" stroke-linejoin="round"/>
<path d="M163.43 300.63C163.25 295.2 162.28 289.9 160.85 284.68C157.33 271.8 152.18 259.72 144 249C136.79 239.55 128.52 231.28 117.88 225.9C109.12 221.47 99.7202 219.15 89.7802 221.38C83.5202 222.78 78.8302 226.63 74.7402 231.42C70.7602 236.08 68.6902 241.56 67.2402 247.39C65.8402 253.03 65.4302 258.79 65.9202 264.51C66.7202 274.01 69.1202 283.19 72.9102 291.95C75.9902 299.06 79.4502 305.96 83.8702 312.39C91.3202 323.23 100.32 332.45 111.87 338.78C118.9 342.64 126.75 344.43 134.8 343.71C143.68 342.92 151.15 339.08 156.37 331.58C160.59 325.53 162.72 318.76 163.5 311.42C163.87 307.93 163.93 304.53 163.42 301.09" fill="#FFDA00" fill-opacity="0.7"/>
<path d="M163.43 300.63C163.25 295.2 162.28 289.9 160.85 284.68C157.33 271.8 152.18 259.72 144 249C136.79 239.55 128.52 231.28 117.88 225.9C109.12 221.47 99.7202 219.15 89.7802 221.38C83.5202 222.78 78.8302 226.63 74.7402 231.42C70.7602 236.08 68.6902 241.56 67.2402 247.39C65.8402 253.03 65.4302 258.79 65.9202 264.51C66.7202 274.01 69.1202 283.19 72.9102 291.95C75.9902 299.06 79.4502 305.96 83.8702 312.39C91.3202 323.23 100.32 332.45 111.87 338.78C118.9 342.64 126.75 344.43 134.8 343.71C143.68 342.92 151.15 339.08 156.37 331.58C160.59 325.53 162.72 318.76 163.5 311.42C163.87 307.93 163.93 304.53 163.42 301.09" stroke="#2071B5" stroke-width="4.20561" stroke-linecap="round" stroke-linejoin="round"/>
<path d="M116.729 274.551L121.942 242.5L98.5793 278.413L112.481 286.329L108.62 317.994L128.893 283.819L116.729 274.551Z" fill="#F3F3F3"/>
<path d="M306.75 294.3C307.28 295.49 309.16 298.46 310.74 298.32C315.08 297.94 318.22 295.06 321.73 293.07C334.31 285.94 346.68 278.46 358.87 270.68C361.93 268.73 365.24 267.12 368.19 264.96C372.21 262.02 373.29 257.71 373.62 253.01C373.99 247.61 373.8 242.22 373.82 236.82C373.86 220.63 373.84 204.45 373.83 188.26C373.83 186.7 373.9 185.13 373.83 183.57C373.62 179.29 369.6 176.67 365.64 178.45C361.85 180.16 358.19 182.18 354.61 184.3C346.5 189.11 338.36 193.87 330.19 198.56C322.78 202.81 315.43 207.16 307.96 211.32C303.23 213.95 301.15 218.55 301.14 223.92C301.1 245.42 301.12 266.92 301.12 288.43C301.12 291.83 301.47 292.44 304.65 293.3C305.47 293.52 306.23 293.57 306.74 294.3" fill="#FFDA00" fill-opacity="0.7"/>
<path d="M306.75 294.3C307.28 295.49 309.16 298.46 310.74 298.32C315.08 297.94 318.22 295.06 321.73 293.07C334.31 285.94 346.68 278.46 358.87 270.68C361.93 268.73 365.24 267.12 368.19 264.96C372.21 262.02 373.29 257.71 373.62 253.01C373.99 247.61 373.8 242.22 373.82 236.82C373.86 220.63 373.84 204.45 373.83 188.26C373.83 186.7 373.9 185.13 373.83 183.57C373.62 179.29 369.6 176.67 365.64 178.45C361.85 180.16 358.19 182.18 354.61 184.3C346.5 189.11 338.36 193.87 330.19 198.56C322.78 202.81 315.43 207.16 307.96 211.32C303.23 213.95 301.15 218.55 301.14 223.92C301.1 245.42 301.12 266.92 301.12 288.43C301.12 291.83 301.47 292.44 304.65 293.3C305.47 293.52 306.23 293.57 306.74 294.3" stroke="#2071B5" stroke-width="4.20561" stroke-linecap="round" stroke-linejoin="round"/>
<path d="M391.2 268.97C391.97 273.89 388.8 276.03 385.13 278.16C371.38 286.15 357.42 293.78 343.75 301.92C328.09 311.24 312.42 320.54 296.73 329.82C282.48 338.25 268.29 346.8 254.17 355.44C242.69 362.47 231 369.16 219.49 376.14C209.2 382.37 198.82 388.45 188.54 394.69C187.34 395.42 185.89 395.82 185.33 397.46C179.54 394.31 173.9 391.18 168.4 387.85C156.77 380.8 144.93 374.1 133.22 367.2C124.46 362.04 115.59 357.08 106.91 351.78C96.4902 345.42 85.9702 339.24 75.4602 333.04C69.1602 329.32 62.8802 325.54 56.4902 321.97" stroke="#2071B5" stroke-width="4.20561" stroke-linecap="round" stroke-linejoin="round"/>
<path d="M397.06 201.879C397.71 202.049 398.38 202.199 398.93 202.589C406.64 207.989 414.78 212.749 422.39 218.299C431.11 224.659 438.54 232.219 443.71 241.769C448.54 250.679 450.25 260.269 449.38 270.369C448.03 285.999 441.29 299.219 431.28 310.929C423.55 319.959 414.74 327.879 405.53 335.369C398.84 340.809 392.08 346.159 385.34 351.529C384.16 352.469 382.75 353.099 381.82 354.339" stroke="#2071B5" stroke-width="4.20561" stroke-linecap="round" stroke-linejoin="round"/>
<path d="M397.06 219.469C397.88 219.359 398.53 219.819 399.16 220.189C402.68 222.259 406.11 224.459 409.5 226.729C416.33 231.309 422.85 236.209 427.8 242.919C432.64 249.499 435.5 256.689 435.56 264.979C435.64 275.849 431.43 285.229 425.38 293.789C417.65 304.719 407.69 313.489 397.06 321.519C388.76 327.779 379.98 333.349 371.49 339.339L381.955 354.17" stroke="#2071B5" stroke-width="4.20561" stroke-linecap="round" stroke-linejoin="round"/>
<path d="M354.13 209.151C353.48 208.971 353.17 208.391 352.73 207.971C342.62 213.671 332.79 219.851 322.68 225.541C317.26 228.581 315.29 233.401 315.23 239.181C315.11 249.341 315.33 259.511 315.14 269.671C315.05 274.951 322.63 281.031 328.37 277.471C337.04 272.091 345.88 266.991 354.64 261.751C356.35 260.731 358.28 260.261 359.82 258.701C363.1 255.371 364.23 251.211 365.14 246.911C366.3 241.491 366.08 235.981 366.09 230.491C366.11 221.971 366.12 213.441 366.29 204.921C366.4 199.291 365.56 193.671 365.88 188.031C365.94 187.081 365.36 186.561 365.05 185.661C361.5 187.241 358.48 189.311 355.31 191.091C343.67 197.621 332.29 204.591 320.61 211.051C318.22 212.371 315.97 213.981 313.53 215.191C310.5 216.691 306.66 220.891 306.05 223.921" stroke="#2071B5" stroke-width="4.20561" stroke-linecap="round" stroke-linejoin="round"/>
<path d="M263.12 51.7603C265 53.6003 267.52 54.3903 269.71 55.7103C279.17 61.3703 288.98 66.4303 298.55 71.9203C309.93 78.4503 321.56 84.5503 333 90.9703C343.99 97.1303 355.13 103.02 366.11 109.21C374.47 113.92 382.8 118.66 391.19 123.31" stroke="#2071B5" stroke-width="4.20561" stroke-linecap="round" stroke-linejoin="round"/>
<path d="M246 62.3105C252.32 67.0605 258.74 71.6205 265.65 75.5405C271.32 78.7505 276.7 82.5105 282.38 85.7305C296.61 93.8105 310.62 102.251 324.8 110.431C338.76 118.491 352.81 126.401 366.57 134.801C367.56 135.401 368.81 135.511 369.62 136.441" stroke="#2071B5" stroke-width="4.20561" stroke-linecap="round" stroke-linejoin="round"/>
<path d="M319.42 275.53C325.44 272.3 331.31 268.81 337.23 265.42C341.94 262.72 346.73 260.15 351.31 257.22C354.89 254.93 356.21 251.17 357.41 247.38C358.9 242.65 359.41 237.8 359.32 232.84C359.21 226.66 359.29 220.49 359.3 214.31C359.3 210.41 358.33 207.01 354.85 204.67C352.9 203.36 351.05 203.54 349.21 204.7C339.48 210.84 329.63 216.79 319.69 222.58C315.22 225.18 312.84 229.44 312.09 234.7C311.37 239.79 311.78 244.87 311.7 249.95C311.59 257.22 311.72 264.49 311.63 271.76C311.61 273 311.94 274.15 312.21 275.26C312.74 277.35 314.53 278.12 316.83 277.62" stroke="#2071B5" stroke-width="4.20561" stroke-linecap="round" stroke-linejoin="round"/>
<path d="M263.83 94.4507C263.83 122.601 263.83 150.751 263.85 178.891C263.85 179.671 263.57 180.501 264.07 181.241" stroke="#2071B5" stroke-width="4.20561" stroke-linecap="round" stroke-linejoin="round"/>
<path d="M178.91 291.48C178.43 291.42 178.05 291.59 177.97 291.68V376.39" stroke="#2071B5" stroke-width="4.20561" stroke-linecap="round" stroke-linejoin="round"/>
<path d="M245.53 407.829C244.55 406.549 245.33 405.169 245.31 403.839C245.26 400.239 245.11 396.639 245.33 393.049C245.71 386.999 249.09 382.889 254.45 380.419C256.55 379.449 258.64 380.319 260.52 381.339C265.99 384.289 271.15 387.749 276.45 390.979C284.37 395.809 292.12 400.929 299.92 405.979C305.03 409.289 307.27 414.169 307.5 420.259C307.75 426.589 307.41 432.939 307.89 439.259C308.05 441.359 307.29 443.479 307.91 445.589" stroke="#2071B5" stroke-width="4.20561" stroke-linecap="round" stroke-linejoin="round"/>
<path d="M251.63 87.4092V170.449" stroke="#2071B5" stroke-width="4.20561" stroke-linecap="round" stroke-linejoin="round"/>
<path d="M250.46 404.55C249.77 403.87 250 403.01 250 402.2C249.98 399.62 250.19 397.02 249.95 394.46C249.57 390.52 251.18 387.57 254.01 384.95C257.3 386.08 259.78 388.51 262.63 390.28C273.49 397.05 284.32 403.87 295.06 410.83C298.25 412.9 299.71 415.82 300.42 419.31C301.11 422.71 301.24 426.18 301.11 429.63C300.9 435.11 301.77 440.57 301.16 446.05C301.02 447.29 300.24 448.5 300.9 449.8" stroke="#2071B5" stroke-width="4.20561" stroke-linecap="round" stroke-linejoin="round"/>
<path d="M328.57 388.589C330.18 386.919 330.15 383.579 328.57 381.079C326.56 377.879 323.77 375.559 320.61 373.549C314.57 369.709 308.33 366.229 302.08 362.749C299.48 361.299 297.42 361.599 294.99 363.209C288.43 367.549 281.72 371.679 275.08 375.909C273.27 377.059 271.34 378.039 269.33 379.469C270.78 381.249 272.77 381.899 274.41 382.909C284.52 389.129 294.33 395.859 304.69 401.629C311.09 405.189 313.22 410.379 313.11 417.209C312.99 424.089 313.08 430.969 313.09 437.849C313.09 438.639 312.94 439.439 313.32 440.199" stroke="#2071B5" stroke-width="4.20561" stroke-linecap="round" stroke-linejoin="round"/>
<path d="M390.49 134.791V197.651" stroke="#2071B5" stroke-width="4.20561" stroke-linecap="round" stroke-linejoin="round"/>
<path d="M287.52 416.509C290.16 418.219 291.68 420.299 291.62 423.779C291.55 427.889 291.64 431.969 290.56 435.969C290.25 437.119 289.59 437.879 288.5 438.609C278.28 445.459 267.44 451.269 257.03 457.789C254.9 459.119 252.3 459.659 250.29 458.799C247.79 457.729 247.11 454.939 247.15 452.159C247.19 449.919 247.59 447.759 248.08 445.589C249.49 439.389 253.31 435.179 258.64 431.959C267.33 426.699 276.51 422.299 285.18 417.009C285.76 416.659 286.5 416.329 287.27 416.509" fill="#FFDA00" fill-opacity="0.7"/>
<path d="M287.52 416.509C290.16 418.219 291.68 420.299 291.62 423.779C291.55 427.889 291.64 431.969 290.56 435.969C290.25 437.119 289.59 437.879 288.5 438.609C278.28 445.459 267.44 451.269 257.03 457.789C254.9 459.119 252.3 459.659 250.29 458.799C247.79 457.729 247.11 454.939 247.15 452.159C247.19 449.919 247.59 447.759 248.08 445.589C249.49 439.389 253.31 435.179 258.64 431.959C267.33 426.699 276.51 422.299 285.18 417.009C285.76 416.659 286.5 416.329 287.27 416.509" stroke="#2071B5" stroke-width="4.20561" stroke-linecap="round" stroke-linejoin="round"/>
<path d="M350.26 401.959C350.5 397.189 350.52 392.399 350.09 387.659C349.73 383.729 349.39 379.789 348.34 375.909C346.79 370.129 343.12 366.349 338.17 363.499C332.32 360.119 326.66 356.399 320.58 353.419C320.45 353.359 320.27 353.419 320.11 353.419" stroke="#2071B5" stroke-width="4.20561" stroke-linecap="round" stroke-linejoin="round"/>
<path d="M186.42 289.61V341.68C186.42 358.73 186.42 375.77 186.42 392.82C186.42 393.68 186.25 394.57 186.65 395.4" stroke="#2071B5" stroke-width="4.20561" stroke-linecap="round" stroke-linejoin="round"/>
<path d="M289.86 419.559C280.7 424.919 271.4 430.029 262.18 435.279C259.29 436.919 256.21 438.269 254.42 441.369C251.24 446.859 249.82 452.539 252.09 458.739" stroke="#2071B5" stroke-width="4.20561" stroke-linecap="round" stroke-linejoin="round"/>
<path d="M306.05 223.929C305.67 224.679 305.82 225.489 305.82 226.279C305.82 242.149 305.82 258.019 305.82 273.899C305.82 279.369 305.82 284.849 305.82 290.319C305.82 291.259 305.89 292.199 305.82 293.129" stroke="#2071B5" stroke-width="4.20561" stroke-linecap="round" stroke-linejoin="round"/>
<path d="M440.69 254.889C439.76 249.939 437.32 245.629 434.29 241.809C429.44 235.679 424.18 229.889 417.72 225.319C411.65 221.019 405.48 216.849 399.16 212.939C398.52 212.539 397.69 212.199 396.83 212.439" stroke="#2071B5" stroke-width="4.20561" stroke-linecap="round" stroke-linejoin="round"/>
<path d="M366.1 182.179C368.03 182.949 368.48 184.469 368.47 186.399C368.35 201.099 368.1 215.799 368.2 230.499C368.21 232.059 367.9 233.619 367.98 235.189" stroke="#2071B5" stroke-width="4.20561" stroke-linecap="round" stroke-linejoin="round"/>
<path d="M261.71 403.841C252.76 409.231 243.8 414.601 234.74 419.801C232.14 421.291 229.24 422.471 227.28 424.761C223.68 428.961 221.55 433.751 222.99 439.501C223.1 439.941 223 440.431 223 440.901" stroke="#2071B5" stroke-width="4.20561" stroke-linecap="round" stroke-linejoin="round"/>
<path d="M280.01 444.89C283.9 447.89 288.27 450.08 292.7 452.1C295.07 453.18 297.63 453.16 299.73 451.01C300.33 450.4 301.24 450.12 302 449.72C305.27 448 308.79 446.41 310.92 443.22C312.92 440.21 316.17 439.16 318.97 437.43C324.77 433.85 330.46 430.09 336.35 426.67C340.7 424.15 341.22 420.1 341.38 416.03C341.69 408.37 341.71 400.64 340.63 393.07C339.78 387.16 338.92 380.96 334.2 376.39C330.88 373.17 326.94 370.83 322.91 368.7C317.13 365.64 311.55 362.22 305.59 359.47C302.7 358.14 299.71 357.2 296.65 356.5C294.02 355.91 291.59 356.95 289.4 358.34C279.82 364.42 270.02 370.14 260.55 376.41C259.07 377.39 256.99 377.64 256.31 379.67" stroke="#2071B5" stroke-width="4.20561" stroke-linecap="round" stroke-linejoin="round"/>
<path d="M122.85 241.761C123.42 242.781 123.08 243.771 122.86 244.811C120.79 254.591 118.77 264.391 116.49 274.121C116.19 275.391 116.27 276.051 117.65 276.771C121.75 278.911 125.63 281.441 129.72 283.711C128.71 287.631 126.2 290.741 124.17 294.011C119.79 301.041 115.47 308.121 111.19 315.211C110.31 316.671 108.43 317.581 108.55 319.631" stroke="#2071B5" stroke-width="4.20561" stroke-linecap="round" stroke-linejoin="round"/>
<path d="M356.01 379.45C359.46 376.79 363.22 374.8 367.5 373.79C369.12 373.4 370.54 372.32 371.67 371.18C372.9 369.95 374.21 368.91 375.73 368.22C379.54 366.48 380.89 363.6 380.44 359.51C379.9 354.47 379.14 349.5 375.45 345.71C372.33 342.51 368.82 339.83 363.99 339.81C361.89 339.8 360.23 340.88 358.61 341.96C356.24 343.54 353.52 344.68 351.8 347.1C351.44 347.61 350.91 348.04 350.84 348.73" stroke="#2071B5" stroke-width="4.20561" stroke-linecap="round" stroke-linejoin="round"/>
<path d="M99.8599 278.581C103.55 281.291 107.74 283.181 111.63 285.541C112.93 286.331 113.09 286.941 112.78 288.201C111.6 292.991 111.04 297.891 110.12 302.731C109.32 306.941 108.37 314.971 108.37 318.911" stroke="#2071B5" stroke-width="4.20561" stroke-linecap="round" stroke-linejoin="round"/>
<path d="M262.89 52.4604C255.3 56.4004 247.95 60.7604 240.58 65.0904C229.49 71.6104 218.32 77.9704 207.28 84.5704C205.36 85.7204 203.45 86.9104 201.43 87.8804" stroke="#2071B5" stroke-width="4.20561" stroke-linecap="round" stroke-linejoin="round"/>
<path d="M308.86 232.839C309.18 244.249 309.19 255.669 309.01 267.089C308.97 269.879 309.83 272.819 308.39 275.539" stroke="#2071B5" stroke-width="4.20561" stroke-linecap="round" stroke-linejoin="round"/>
<path d="M177.97 251.611C177.97 264.121 177.97 276.631 177.99 289.141C177.99 289.921 177.71 290.751 178.21 291.491" stroke="#2071B5" stroke-width="4.20561" stroke-linecap="round" stroke-linejoin="round"/>
<path d="M429.9 302.739C424.54 309.959 418.06 316.039 411.19 321.799C406.77 325.499 402.38 329.239 398.02 333.019C396.8 334.079 395.45 334.969 394.25 336.049" stroke="#2071B5" stroke-width="4.20561" stroke-linecap="round" stroke-linejoin="round"/>
<path d="M123.79 240.109C117.1 247.589 112.85 256.689 107.39 264.989C104.51 269.359 102.17 274.059 99.1599 278.349" stroke="#2071B5" stroke-width="4.20561" stroke-linecap="round" stroke-linejoin="round"/>
<path d="M297.6 420.96C297.6 428 297.6 435.03 297.6 442.07C297.6 445.71 295.67 446.73 292.42 445.17C290.15 444.09 288.07 442.6 285.64 441.83" stroke="#2071B5" stroke-width="4.20561" stroke-linecap="round" stroke-linejoin="round"/>
<path d="M196.27 260.05C196.78 262.91 198.59 264.9 200.96 265.21C203.39 265.53 206.09 263.77 207.31 261.23C208.46 258.84 207.36 256.57 205.64 255.13C204.21 253.93 200.49 254.07 198.85 255.36C197.42 256.49 196.44 257.93 196.26 259.81" stroke="#2071B5" stroke-width="4.20561" stroke-linecap="round" stroke-linejoin="round"/>
<path d="M272.27 65.1304C272.32 62.5804 270.26 62.1004 268.51 61.3904C265.88 60.3304 263.2 60.3804 260.8 61.8904C258.64 63.2404 258.56 65.4504 260.51 67.2804C263.13 69.7404 271.04 69.6504 272.26 65.8404C272.31 65.7004 272.26 65.5304 272.26 65.3704" fill="#FFDA00" fill-opacity="0.7"/>
<path d="M272.27 65.1304C272.32 62.5804 270.26 62.1004 268.51 61.3904C265.88 60.3304 263.2 60.3804 260.8 61.8904C258.64 63.2404 258.56 65.4504 260.51 67.2804C263.13 69.7404 271.04 69.6504 272.26 65.8404C272.31 65.7004 272.26 65.5304 272.26 65.3704" stroke="#2071B5" stroke-width="4.20561" stroke-linecap="round" stroke-linejoin="round"/>
<path d="M340.53 356.931C341.85 355.421 343.35 354.151 344.38 352.291C345.85 349.641 350.9 348.391 353.65 349.681C357.19 351.341 360.72 352.981 363.33 356.181C365.41 358.741 365.61 361.721 366.07 364.671C366.54 367.691 366.3 370.761 366.33 373.811" stroke="#2071B5" stroke-width="4.20561" stroke-linecap="round" stroke-linejoin="round"/>
<path d="M346.63 112.27C347.61 112.48 348.44 111.93 349.19 111.52C350.84 110.64 351.09 108.6 349.92 107.11C347.94 104.59 342.18 103.62 339.62 105.5C338.72 106.16 337.58 106.97 337.76 108.28C337.98 109.86 339.06 110.98 340.54 111.55C342.04 112.13 343.61 112.39 345.23 112.04C345.71 111.94 346.12 112.06 346.4 112.5" fill="#FFDA00" fill-opacity="0.7"/>
<path d="M346.63 112.27C347.61 112.48 348.44 111.93 349.19 111.52C350.84 110.64 351.09 108.6 349.92 107.11C347.94 104.59 342.18 103.62 339.62 105.5C338.72 106.16 337.58 106.97 337.76 108.28C337.98 109.86 339.06 110.98 340.54 111.55C342.04 112.13 343.61 112.39 345.23 112.04C345.71 111.94 346.12 112.06 346.4 112.5" stroke="#2071B5" stroke-width="4.20561" stroke-linecap="round" stroke-linejoin="round"/>
<path d="M356.95 343.561C359.38 344.961 362.08 345.731 364.5 347.251C369.69 350.531 371.63 355.501 372.7 361.151C373.19 363.721 372.94 366.361 373.6 368.901" stroke="#2071B5" stroke-width="4.20561" stroke-linecap="round" stroke-linejoin="round"/>
<path d="M306.05 91.6305C307.97 91.2305 310.15 91.5405 311.45 89.5205C312.17 88.4005 312.27 87.2705 311.43 86.2405C309.26 83.5805 304.32 82.7905 301.1 84.3105C299.77 84.9405 298.9 85.8805 298.85 87.1705C298.8 88.4005 299.69 89.4105 300.89 89.9805C302.08 90.5605 303.29 91.0805 304.64 91.1505" fill="#FFDA00" fill-opacity="0.7"/>
<path d="M306.05 91.6305C307.97 91.2305 310.15 91.5405 311.45 89.5205C312.17 88.4005 312.27 87.2705 311.43 86.2405C309.26 83.5805 304.32 82.7905 301.1 84.3105C299.77 84.9405 298.9 85.8805 298.85 87.1705C298.8 88.4005 299.69 89.4105 300.89 89.9805C302.08 90.5605 303.29 91.0805 304.64 91.1505" stroke="#2071B5" stroke-width="4.20561" stroke-linecap="round" stroke-linejoin="round"/>
<path d="M186.89 255.83V284.92" stroke="#2071B5" stroke-width="4.20561" stroke-linecap="round" stroke-linejoin="round"/>
<path d="M344.05 354.109C349.3 355.879 354.04 358.399 357.44 363.009C359.85 366.269 360.03 370.029 360.23 373.819C360.27 374.529 360.12 375.259 360.47 375.929" stroke="#2071B5" stroke-width="4.20561" stroke-linecap="round" stroke-linejoin="round"/>
<path d="M303.94 358.339C304.22 357.079 305.51 357.249 306.29 356.699C309.71 354.289 313.39 352.259 316.82 349.869C319.91 347.719 322.81 347.899 326.01 349.619C329.4 351.449 332.68 353.469 336.07 355.309C339.15 356.979 342.26 358.589 345.23 360.439C350.59 363.789 354.02 368.229 354.93 374.749C355.78 380.849 356.28 386.949 355.93 393.049C355.72 396.799 354.92 400.179 350.5 402.209C347.54 403.569 344.72 405.969 341.94 408.069" stroke="#2071B5" stroke-width="4.20561" stroke-linecap="round" stroke-linejoin="round"/>
<path d="M390.96 223.459V246.919" stroke="#2071B5" stroke-width="4.20561" stroke-linecap="round" stroke-linejoin="round"/>
<path d="M87.9002 153.56C80.0402 157.77 72.5702 162.63 64.9102 167.16" stroke="#2071B5" stroke-width="4.20561" stroke-linecap="round" stroke-linejoin="round"/>
<path d="M366.33 121.66C367.9 119.88 367.85 119.03 366.33 117.43C363.46 114.38 356.95 114.44 354.6 117.91C354.01 118.78 353.59 119.68 354.35 120.73C356.95 124.31 363.26 124.99 366.32 121.9" fill="#FFDA00" fill-opacity="0.7"/>
<path d="M366.33 121.66C367.9 119.88 367.85 119.03 366.33 117.43C363.46 114.38 356.95 114.44 354.6 117.91C354.01 118.78 353.59 119.68 354.35 120.73C356.95 124.31 363.26 124.99 366.32 121.9" stroke="#2071B5" stroke-width="4.20561" stroke-linecap="round" stroke-linejoin="round"/>
<path d="M349.68 227.21C349.67 226.57 350.33 226.61 350.62 226.28C351.53 226.75 351.32 227.6 351.32 228.38C351.32 231.82 351.32 235.26 351.32 238.7C351.32 240.08 351.01 241.35 350.14 242.45" stroke="#2071B5" stroke-width="4.20561" stroke-linecap="round" stroke-linejoin="round"/>
<path d="M251.63 69.1099V84.5899" stroke="#2071B5" stroke-width="4.20561" stroke-linecap="round" stroke-linejoin="round"/>
<path d="M252.1 189.209V203.749" stroke="#2071B5" stroke-width="4.20561" stroke-linecap="round" stroke-linejoin="round"/>
<path d="M393.31 336.989C388.72 340.709 383.84 344.059 379.24 347.779" stroke="#2071B5" stroke-width="4.20561" stroke-linecap="round" stroke-linejoin="round"/>
<path d="M263.83 182.64V196.71" stroke="#2071B5" stroke-width="4.20561" stroke-linecap="round" stroke-linejoin="round"/>
<path d="M58.8101 239.411V252.081" stroke="#2071B5" stroke-width="4.20561" stroke-linecap="round" stroke-linejoin="round"/>
<path d="M323.84 242.461C322.2 241.171 323.61 251.211 323.63 255.131C323.63 255.581 324.77 254.931 325.81 254.351" stroke="#2071B5" stroke-width="4.20561" stroke-linecap="round" stroke-linejoin="round"/>
<path d="M328.1 240.821C328.49 245.041 329.35 248.761 328.96 252.991" stroke="#2071B5" stroke-width="4.20561" stroke-linecap="round" stroke-linejoin="round"/>
<path d="M261.95 439.961C258.61 442.731 257.16 447.091 258.67 449.811C262 448.261 264.3 443.061 263.12 439.731C262.93 439.201 262.66 439.531 262.42 439.731" stroke="#2071B5" stroke-width="4.20561" stroke-linecap="round" stroke-linejoin="round"/>
<path d="M346.86 229.091C346.78 229.171 346.64 229.251 346.64 229.321C346.63 232.991 346.64 236.671 346.64 240.351C347.18 240.161 347.94 240.741 348.28 239.881" stroke="#2071B5" stroke-width="4.20561" stroke-linecap="round" stroke-linejoin="round"/>
<path d="M234.27 424.721C230.18 427.351 228.3 432.621 230.54 435.301C233.47 433.861 234.06 430.971 234.67 428.221C234.89 427.221 236.02 426.051 234.74 424.951" stroke="#2071B5" stroke-width="4.20561" stroke-linecap="round" stroke-linejoin="round"/>
<path d="M58.8101 253.95V263.33" stroke="#2071B5" stroke-width="4.20561" stroke-linecap="round" stroke-linejoin="round"/>
<path d="M252.1 179.359C252.1 181.939 252.12 184.519 252.08 187.099C252.08 187.499 252.48 188.159 251.63 188.269" stroke="#2071B5" stroke-width="4.20561" stroke-linecap="round" stroke-linejoin="round"/>
<path d="M261.71 423.311C261.86 424.221 262.17 424.981 263.1 425.451C263.99 425.901 264.84 426.471 265.46 427.301" stroke="#2071B5" stroke-width="4.20561" stroke-linecap="round" stroke-linejoin="round"/>
<path d="M381.58 261.689C379.49 261.959 377.71 262.679 376.4 264.489C375.08 266.299 374.92 270.149 377.14 271.769C378.87 273.029 380.4 274.949 383 273.889C385.59 272.839 387.6 271.439 387.98 268.259C388.4 264.669 386.01 261.929 381.83 261.689" stroke="#2071B5" stroke-width="4.20561" stroke-linecap="round" stroke-linejoin="round"/>
<path d="M66.7901 309.08C65.8001 309.68 64.6201 309.87 63.7301 310.71C61.7601 312.56 61.1801 315.48 62.5801 317.29C64.3201 319.55 67.3101 320.19 70.0601 318.68C72.0001 317.62 72.9901 314.75 72.4201 312.61C71.7901 310.25 70.0601 309.12 67.0201 309.09" stroke="#2071B5" stroke-width="4.20561" stroke-linecap="round" stroke-linejoin="round"/>
<path d="M201.9 364.43C199.26 365.2 197.08 366.5 196.27 369.36C195.78 371.08 195.81 372.77 197.23 374.03C198.75 375.38 200.39 376.42 202.63 375.27C203.71 374.71 204.78 374.2 205.66 373.35C208.62 370.51 208.26 366.11 203.54 364.7C203.11 364.57 202.66 364.25 202.14 364.44" stroke="#2071B5" stroke-width="4.20561" stroke-linecap="round" stroke-linejoin="round"/>
<path d="M79.93 165.05C78.42 165.74 77.03 166.58 75.94 167.87C74.67 169.38 74.68 171.53 75.94 173.03C78.2 175.72 80.49 176.48 82.98 175.38C85.52 174.25 87.1 171.78 86.73 169.52C86.37 167.28 84.22 165.42 81.57 165.07C81.11 165.01 80.63 165.07 80.16 165.07" stroke="#2071B5" stroke-width="4.20561" stroke-linecap="round" stroke-linejoin="round"/>
<path d="M379.94 147.931C378.85 147.951 378.04 148.751 377.17 149.191C374.89 150.341 374.17 153.241 375.25 155.441C376.25 157.481 378.96 158.501 381.35 157.791C383.16 157.261 384.48 156.161 385.33 154.501C387.04 151.171 384.53 147.981 380.17 147.931" stroke="#2071B5" stroke-width="4.20561" stroke-linecap="round" stroke-linejoin="round"/>
<path d="M322.94 94.4507C321.3 94.8207 319.7 95.2007 318.46 96.5407C317.21 97.8907 317.18 99.3307 318.28 100.521C321.23 103.701 326.67 104.261 329.97 101.251C331.38 99.9607 331.42 97.8407 329.97 96.5807C328.04 94.9107 325.7 94.3607 323.18 94.4507" fill="#FFDA00" fill-opacity="0.7"/>
<path d="M322.94 94.4507C321.3 94.8207 319.7 95.2007 318.46 96.5407C317.21 97.8907 317.18 99.3307 318.28 100.521C321.23 103.701 326.67 104.261 329.97 101.251C331.38 99.9607 331.42 97.8407 329.97 96.5807C328.04 94.9107 325.7 94.3607 323.18 94.4507" stroke="#2071B5" stroke-width="4.20561" stroke-linecap="round" stroke-linejoin="round"/>
<path d="M282.36 72.1606C281.86 72.2306 281.23 72.5106 281.01 72.6906C279.73 73.7806 278.06 74.7406 278.38 76.8506C278.59 78.2706 281.24 80.4106 283.3 80.5606C285.01 80.6806 286.82 80.9806 288.45 80.1206C289.79 79.4206 291.26 78.5006 291.2 76.8606C291.14 75.2006 290.09 73.9806 288.5 73.0406C286.56 71.8906 284.58 72.3006 282.6 72.1706" fill="#FFDA00" fill-opacity="0.7"/>
<path d="M282.36 72.1606C281.86 72.2306 281.23 72.5106 281.01 72.6906C279.73 73.7806 278.06 74.7406 278.38 76.8506C278.59 78.2706 281.24 80.4106 283.3 80.5606C285.01 80.6806 286.82 80.9806 288.45 80.1206C289.79 79.4206 291.26 78.5006 291.2 76.8606C291.14 75.2006 290.09 73.9806 288.5 73.0406C286.56 71.8906 284.58 72.3006 282.6 72.1706" stroke="#2071B5" stroke-width="4.20561" stroke-linecap="round" stroke-linejoin="round"/>
</svg>
