<svg width="500" height="500" viewBox="0 0 500 500" fill="none" xmlns="http://www.w3.org/2000/svg">
<path d="M242 84.5005C241.6 76.1005 244.5 72.0005 246 71.0005C238.8 70.2005 235.333 78.0005 234.5 82.0005C234.833 83.1672 235.3 87.5005 234.5 95.5005C233.7 103.5 236.5 107.834 238 109C248 117.5 256.5 110.5 253.5 110.5C251.1 110.5 248.5 108.834 247.5 108C240.5 104.5 242.5 95.0005 242 84.5005Z" fill="#FFDA00" fill-opacity="0.7"/>
<path d="M243.973 384.97C244.159 384.764 244.336 384.609 244.5 384.5C244.906 384.5 245.077 384.611 243.973 384.97C242.458 386.648 240.431 391.664 241.5 402C242.7 413.6 244 417.833 244.5 418.5C245.833 420.667 250 425.1 256 425.5C254.167 427.833 248.4 431.1 240 425.5C238 423.667 234.1 417.9 234.5 409.5C235 399 233.5 387.5 240 386C242.032 385.531 243.265 385.2 243.973 384.97Z" fill="#FFDA00" fill-opacity="0.7"/>
<path d="M244.5 384.5C243 385.5 240.3 390.4 241.5 402C242.7 413.6 244 417.833 244.5 418.5C245.833 420.667 250 425.1 256 425.5C254.167 427.833 248.4 431.1 240 425.5C238 423.667 234.1 417.9 234.5 409.5C235 399 233.5 387.5 240 386C245.2 384.8 245.167 384.5 244.5 384.5Z" stroke="black"/>
<path d="M256.5 220L227.5 263L248 265L238 301.5L269 252.5H248L256.5 220Z" fill="#FFDA00" fill-opacity="0.7"/>
<path d="M211.91 378.96C211.91 389.95 211.94 400.93 211.9 411.92C211.88 416.18 212.1 420.43 212.09 424.69C212.09 427.1 213.5 428.63 215.63 429.6C217.99 430.67 220.47 431.4 222.91 432.25C228.78 434.28 234.69 436.2 240.58 438.2C246.91 440.35 253.25 442.46 259.58 444.6C264.72 446.34 269.87 448.07 275.02 449.79C275.72 450.02 276.47 450.14 277.09 449.77C279.25 448.47 281.74 447.92 283.96 446.72C285.86 445.69 286.42 444.05 286.43 442.22C286.48 426.14 286.46 410.05 286.46 393.97C286.46 391.47 285.61 389.3 283.77 387.61C283.05 386.95 282.86 386.27 282.88 385.36C282.93 383.73 282.89 382.09 282.89 380.46" stroke="#2071B5" stroke-width="4.21" stroke-linecap="round" stroke-linejoin="round"/>
<path d="M196.17 193.22C195.76 194.01 196.19 194.8 196.19 195.6C196.16 231.73 196.17 267.86 196.17 303.98C196.17 307.79 196.17 311.6 196.17 315.41" stroke="#2071B5" stroke-width="4.21" stroke-linecap="round" stroke-linejoin="round"/>
<path d="M301.73 193.82C302.04 194.29 301.87 194.81 301.87 195.3C301.88 231.72 301.87 268.15 301.88 304.57C301.88 305.63 302.04 306.44 302.81 307.47C304.83 310.16 307.48 312.13 309.74 314.53C311.77 316.69 312.45 319.31 312.44 322.24C312.39 331.74 312.38 341.24 312.45 350.75C312.47 352.91 312.14 355.02 311.91 357.13C311.76 358.46 310.7 359.58 309.89 360.69C308.22 362.98 305.88 364.63 303.6 366.1C299.69 368.62 295.35 370.47 291.03 372.26C285.66 374.5 279.97 375.72 274.25 376.52C269.04 377.25 263.8 377.81 258.53 378.14C252.68 378.51 246.84 378.32 241.01 378.3C238.05 378.3 235.06 377.91 232.09 377.52C228.76 377.09 225.45 376.6 222.14 376.02C218.52 375.39 214.97 374.49 211.46 373.44C205.91 371.77 200.56 369.6 195.58 366.61C195.05 366.29 194.37 366.23 193.96 365.86C192.99 364.98 192.37 363.97 192.41 362.47C192.53 357.62 192.45 352.77 192.45 347.92C192.45 338.62 192.45 329.31 192.45 320.01C192.45 319.46 192.28 318.86 192.74 318.38" stroke="#2071B5" stroke-width="4.21" stroke-linecap="round" stroke-linejoin="round"/>
<path d="M201.81 196.79C201.59 197.22 201.66 197.68 201.66 198.13C201.76 225.94 201.44 253.76 201.49 281.57C201.5 288.6 201.55 295.62 201.42 302.65C201.36 306.1 201.4 309.58 201.52 313.04C201.61 315.68 203.2 317.5 205.22 318.97C209.71 322.24 214.78 324.28 220.07 325.79C223.63 326.81 227.26 327.57 230.91 328.13C232.87 328.43 234.87 328.57 236.84 328.82C242.62 329.55 248.42 329.39 254.22 329.34C257.64 329.31 261.06 328.96 264.47 328.52C270.12 327.79 275.7 326.79 281.09 324.91C285.08 323.52 289.03 322.04 292.53 319.58C294.3 318.33 295.65 316.85 296.28 314.69C296.54 313.8 296.53 313.01 296.38 312.15" stroke="#2071B5" stroke-width="4.21" stroke-linecap="round" stroke-linejoin="round"/>
<path d="M285.85 205.69V285.72C285.85 289.98 285.85 294.23 285.85 298.49" stroke="#2071B5" stroke-width="4.21" stroke-linecap="round" stroke-linejoin="round"/>
<path d="M305.3 186.99C305.78 188.94 304.55 190.24 303.51 191.59C301.85 193.73 299.46 194.86 297.12 196.03C296.87 196.15 296.75 196.37 296.48 196.52C297 197.49 296.52 198.48 296.52 199.47C296.54 235.85 296.52 272.22 296.59 308.6C296.59 310.79 295.94 312.41 294.49 313.97C291.65 317.01 288.14 319.01 284.35 320.43C279.47 322.27 274.39 323.47 269.23 324.39C263.51 325.41 257.76 325.74 252 325.94C245.84 326.15 239.71 325.74 233.59 324.97C227.3 324.18 221.19 322.72 215.19 320.76C211.26 319.47 207.58 317.71 204.47 314.86C203.4 313.88 202.87 312.53 201.82 311.57" stroke="#2071B5" stroke-width="4.21" stroke-linecap="round" stroke-linejoin="round"/>
<path d="M285.7 176.74C281.8 177.47 277.89 178.21 273.96 178.77C270.32 179.28 266.63 179.54 262.99 180.07C258.73 180.69 254.47 180.47 250.21 180.73C246.35 180.96 242.48 180.7 238.63 180.42C236.06 180.23 233.47 180.05 230.91 179.7C227.8 179.28 224.65 179.05 221.56 178.5C217.23 177.72 212.91 176.9 208.63 175.87C207.44 175.58 206.31 175.05 205.07 174.96" stroke="#2071B5" stroke-width="4.21" stroke-linecap="round" stroke-linejoin="round"/>
<path d="M293.57 220.99V290.47" stroke="#2071B5" stroke-width="4.21" stroke-linecap="round" stroke-linejoin="round"/>
<path d="M204.48 208.81V275.62" stroke="#2071B5" stroke-width="4.21" stroke-linecap="round" stroke-linejoin="round"/>
<path d="M278.42 355.21C271.98 353.19 265.36 352.04 258.67 351.41C254.2 350.99 249.67 351.08 245.16 351.32C242.43 351.46 239.71 351.64 236.99 351.92C233.59 352.27 230.25 352.96 226.89 353.57C223.57 354.18 220.41 355.28 217.24 356.4" stroke="#2071B5" stroke-width="4.21" stroke-linecap="round" stroke-linejoin="round"/>
<path d="M255.26 110.67C253.96 110.23 252.57 110.51 251.25 110.09C247.15 108.79 244.77 105.78 243.09 102.05C242.09 99.84 241.77 97.47 241.76 95.07C241.73 90.42 241.71 85.77 241.76 81.11C241.8 78.33 242.24 75.65 244.1 73.37C244.88 72.42 246.2 72.14 246.82 70.97C246.32 70.26 245.52 70.3 244.86 70.44C239.99 71.46 236.88 74.39 235.49 79.17C235.11 80.49 234.9 81.81 234.91 83.18C234.91 88.23 234.91 93.28 234.91 98.32C234.91 103.3 236.84 107.48 240.74 110.44C244.16 113.04 250.08 114.19 253.76 111.98C256.76 110.18 258.54 107.55 259.1 104.11C259.76 100.02 259.33 95.9 259.38 91.79C259.42 88.67 259.67 85.53 259.09 82.44C258.17 77.55 255.71 73.75 251.07 71.62C249.79 71.03 248.31 71.12 246.92 70.86" stroke="#2071B5" stroke-width="4.21" stroke-linecap="round" stroke-linejoin="round"/>
<path d="M276.64 312.45C272.56 313.36 268.49 314.29 264.32 314.87C256.71 315.93 249.08 315.8 241.45 315.67C236.03 315.58 230.69 314.57 225.42 313.32C222.97 312.73 220.57 311.92 218.14 311.27" stroke="#2071B5" stroke-width="4.21" stroke-linecap="round" stroke-linejoin="round"/>
<path d="M192.16 311.55C192.56 313.06 192.44 314.64 192.5 316.16C192.6 318.34 193.81 319.73 195 321.18C197.73 324.52 201.45 326.56 205.22 328.47C210.39 331.08 215.95 332.51 221.54 333.84C224.78 334.61 228.07 335.14 231.35 335.54C234.2 335.88 237.08 336.03 239.95 336.26C245.15 336.66 250.35 336.56 255.54 336.43C259.7 336.32 263.87 336 268.02 335.37C272.84 334.64 277.57 333.62 282.27 332.37C288.16 330.81 293.58 328.39 298.62 324.95C301.62 322.9 303.83 320.25 305.52 317.16C306.35 315.63 306.19 313.75 305.87 312C305.85 311.9 305.87 311.8 306.02 311.7" stroke="#2071B5" stroke-width="4.21" stroke-linecap="round" stroke-linejoin="round"/>
<path d="M192.76 135.47C196.24 140.1 201.29 142.1 206.56 143.8C209.74 144.82 212.95 145.68 216.22 146.29C218.88 146.79 221.55 147.26 224.23 147.68C227.44 148.18 230.67 148.48 233.89 148.78C236.69 149.04 239.53 149.15 242.35 149.3C247.74 149.58 253.15 149.56 258.53 149.35C261.34 149.24 264.18 149.29 267 148.86C272.86 147.96 278.75 147.41 284.54 145.94C288.26 145 291.97 144.07 295.5 142.57C299.18 141 302.55 138.88 305.31 135.91C305.89 135.28 305.67 131.82 305.02 130.87C303.28 128.33 300.82 126.74 298.05 125.51C294.64 124 291.13 122.82 287.51 121.94C286.01 121.58 285.88 121.24 286.48 119.88C286.92 118.88 287.07 117.84 287.07 116.76C287.07 108.35 287.17 99.9295 287.04 91.5195C286.91 83.0095 286.97 74.4895 286.92 65.9795C286.92 64.5395 287.28 63.0995 286.65 61.6595C285.88 59.9095 284.74 59.0595 282.78 58.6295C275.26 56.9995 267.63 56.1395 260.04 55.0595C251.99 53.9095 243.93 52.8095 235.85 51.8395C232.52 51.4395 229.18 51.0395 225.91 50.3295C221.92 49.4595 218.2 50.4295 214.47 51.4595C212.55 51.9895 212.27 53.7495 212.25 55.4395C212.21 58.2595 212.34 61.0795 212.35 63.8995C212.41 79.3395 212.41 94.7795 212.35 110.22C212.35 112.46 212.78 114.37 214.48 115.84C215.09 116.37 215.21 116.93 215.21 117.64C215.2 121.2 215.2 124.77 215.21 128.33C215.21 129.17 215.05 129.81 214.34 130.44C212.02 132.51 212.26 134.96 214.45 136.96C216.17 138.53 218.34 139.17 220.42 139.86C223.49 140.88 227.56 141.7 229.91 141.99C232.76 142.34 252.07 144.86 276.97 140.81" stroke="#2071B5" stroke-width="4.21" stroke-linecap="round" stroke-linejoin="round"/>
<path d="M192.01 133.54C189.11 134.11 187.42 136.07 186.22 138.59C185.55 139.99 185.34 141.42 185.93 142.89C186.24 143.67 185.72 144.35 185.75 145.12C185.88 148.83 185.82 152.54 185.86 156.26C185.9 159.47 185.67 162.7 185.81 165.91C185.98 169.67 185.5 173.43 186.02 177.2C186.39 179.83 187.59 181.82 189.47 183.59C193.29 187.2 198.16 188.8 202.86 190.66C207.83 192.63 213.07 193.74 218.3 194.8C221.13 195.37 224.02 195.73 226.9 196.08C230.11 196.47 233.34 196.66 236.55 197C243.23 197.7 249.92 197.62 256.6 197.46C260.16 197.38 263.74 197.04 267.3 196.72C271.34 196.36 275.3 195.58 279.31 195.09C282.41 194.71 285.49 193.93 288.53 193.1C291.78 192.21 295.03 191.34 298.17 190.1C302.52 188.39 306.59 186.21 309.9 182.83C311.71 180.98 312.53 178.64 312.54 176.15C312.61 164.37 312.62 152.59 312.54 140.81C312.52 137.74 310.51 135.74 308.11 134.14C307.44 133.69 306.78 133.17 305.89 133.24" stroke="#2071B5" stroke-width="4.21" stroke-linecap="round" stroke-linejoin="round"/>
<path d="M275.75 390.54V444.88" stroke="#2071B5" stroke-width="4.21" stroke-linecap="round" stroke-linejoin="round"/>
<path d="M195.87 306.51C194.44 307.57 192.99 308.61 192.6 310.52C192.5 311.03 192.13 311.32 191.71 311.56C189.02 313.08 187.19 315.31 186.21 318.24C186.03 318.78 185.91 319.31 185.92 319.87C185.95 323.19 185.92 326.51 185.83 329.81C185.73 333.48 185.9 337.14 185.86 340.8C185.82 345.2 185.84 349.61 185.92 354.01C186.01 358.64 188.37 361.88 192.16 364.25C192.25 364.31 192.36 364.25 192.46 364.1" stroke="#2071B5" stroke-width="4.21" stroke-linecap="round" stroke-linejoin="round"/>
<path d="M194.09 366.19C194.39 368.2 195.73 369.62 197.08 370.92C199.87 373.57 203.4 375.03 206.85 376.59C211.53 378.7 216.43 380.17 221.41 381.28C225.4 382.17 229.48 382.71 233.57 383.14C237.38 383.54 241.19 384.09 245.01 384.24C248.06 384.36 251.16 384.65 254.21 384.01C254.45 383.96 254.7 384.01 254.95 384.01C259.34 384.04 263.7 383.54 268 382.74C269.46 382.47 270.89 382.58 272.33 382.45C273.6 382.34 274.76 383.35 276.03 383.74C276.6 383.92 276.36 384.61 276.32 385.04C276.13 386.9 276.64 388.45 277.78 389.97C279.11 391.75 279.62 393.9 279.62 396.17C279.6 410.52 279.62 424.87 279.59 439.23C279.59 442.37 280.03 445.56 278.71 448.58" stroke="#2071B5" stroke-width="4.21" stroke-linecap="round" stroke-linejoin="round"/>
<path d="M198.55 335.61C203.45 338.43 208.75 340.36 214.16 341.76C218.52 342.89 223.02 343.55 227.49 344.29C234.49 345.45 241.54 345.77 248.59 345.92C251.98 345.99 255.42 345.85 258.83 345.56C261.6 345.33 264.38 345.11 267.14 344.81C269.73 344.53 272.3 344.08 274.85 343.59C278.45 342.89 282.02 342 285.55 340.96" stroke="#2071B5" stroke-width="4.21" stroke-linecap="round" stroke-linejoin="round"/>
<path d="M214.88 124.04C210.84 125.01 206.75 125.83 203.44 128.64C201.33 130.43 201.15 133.11 203.16 135.02C205.03 136.79 207.34 137.88 209.68 138.91C213.77 140.71 218.08 141.58 222.45 142.34C226.59 143.06 230.75 143.44 234.92 143.85C242.19 144.55 249.47 144.43 256.75 144.34C260.91 144.29 265.08 143.97 269.22 143.47C275.85 142.68 282.44 141.6 288.67 139.04C291.06 138.06 293.2 136.68 295.05 134.88C296.98 133.01 296.54 130.53 294.88 128.96C292.63 126.83 285.46 123.55 283.76 123.45" stroke="#2071B5" stroke-width="4.21" stroke-linecap="round" stroke-linejoin="round"/>
<path d="M276.05 62.4199V112.31" stroke="#2071B5" stroke-width="4.21" stroke-linecap="round" stroke-linejoin="round"/>
<path d="M246.76 384.16C239.84 384.55 240.7 384.55 240.27 384.81C236.79 386.88 234.77 390.17 234.78 394.4C234.78 399.94 234.68 405.49 234.81 411.03C234.96 417.88 237.49 423.57 243.71 427.03C247.02 428.87 250.6 429.43 254.07 427.34C257.05 425.55 258.45 422.72 258.83 419.34C259.49 413.4 259.4 407.43 258.75 401.53C258.05 395.15 254.8 390.13 248.9 387.11C247.76 386.53 246.55 386.34 245.33 386.25C243.42 386.12 242.32 387.25 241.91 389.49C241.62 391.07 241.71 392.65 241.73 394.24C241.81 399.39 241.64 404.54 241.79 409.68C241.97 416.07 244.75 420.96 250.67 423.77C252.02 424.41 253.51 424.54 254.96 424.34C255.58 424.26 256.15 424.25 256.75 424.38" stroke="#2071B5" stroke-width="4.21" stroke-linecap="round" stroke-linejoin="round"/>
<path d="M216.51 51.2803C217.27 52.3403 218.5 51.9203 219.49 52.1303C221.69 52.5903 223.93 52.9003 226.16 53.2503C228.59 53.6303 231.02 53.9503 233.45 54.3503C235.56 54.7003 237.7 54.9603 239.83 55.2903C242.45 55.6903 245.08 56.0403 247.71 56.4203C249.52 56.6803 251.37 56.8203 253.19 57.1003C255.71 57.4903 258.25 57.7703 260.78 58.2003C263.13 58.6003 265.52 58.8703 267.89 59.1703C271.17 59.5803 274.41 60.2303 277.69 60.6703C278.76 60.8103 280.01 63.1103 280.07 64.6603C280.31 70.9903 280.22 77.3303 280.2 83.6603C280.19 87.1203 280.1 90.5903 280.12 94.0503C280.17 100.24 280.23 106.42 280.18 112.61C280.16 115.43 280.18 118.26 280.01 121.07C279.92 122.6 279.55 124.12 278.48 125.42C278.05 125.94 277.31 126.35 277.24 127.16" stroke="#2071B5" stroke-width="4.21" stroke-linecap="round" stroke-linejoin="round"/>
<path d="M192.76 186.54C192.44 188.17 193.12 189.52 194.11 190.68C195.26 192.02 196.67 193.08 198.09 194.12C203.12 197.82 208.86 199.72 214.86 201.14C217.83 201.84 220.81 202.5 223.8 203.09C225.44 203.41 227.16 203.54 228.83 203.77C232.87 204.34 236.95 204.59 241.01 204.9C243.67 205.1 246.35 204.94 249.02 204.94C250.95 204.94 252.88 204.86 254.81 204.96C257.6 205.1 260.37 204.8 263.12 204.57C267.34 204.21 271.56 203.62 275.76 202.92C282.67 201.77 289.28 199.81 295.65 196.94C295.89 196.83 296.04 196.49 296.38 196.63" stroke="#2071B5" stroke-width="4.21" stroke-linecap="round" stroke-linejoin="round"/>
<path d="M257.11 218.91C253.57 224.53 244.74 237.17 241.03 242.68C236.41 249.53 231.94 256.48 227.5 263.46" stroke="#2071B5" stroke-width="4.21" stroke-linecap="round" stroke-linejoin="round"/>
<path d="M217.55 381.63V424.69" stroke="#2071B5" stroke-width="4.21" stroke-linecap="round" stroke-linejoin="round"/>
<path d="M269.52 252.31C268.38 254.14 239.43 298.39 238.03 300.45" stroke="#2071B5" stroke-width="4.21" stroke-linecap="round" stroke-linejoin="round"/>
<path d="M211.91 310.96C216.3 313.1 220.95 314.39 225.71 315.47C228.23 316.04 230.75 316.59 233.3 317.04C235.41 317.41 237.55 317.55 239.68 317.78C244.17 318.27 248.69 318.12 253.19 318.08C262.87 317.99 272.3 316.41 281.4 313.04C282.11 312.78 282.69 312.23 283.48 312.15" stroke="#2071B5" stroke-width="4.21" stroke-linecap="round" stroke-linejoin="round"/>
<path d="M312.54 141.4C312.51 142.91 310.89 144.67 309.89 145.71C307.47 148.24 304.42 149.79 301.28 151.21C296.97 153.17 292.52 154.75 287.91 155.77C284.87 156.45 281.79 156.96 278.72 157.48C274.97 158.12 271.2 158.61 267.43 158.87C262.79 159.2 258.14 159.6 253.48 159.52C250.91 159.48 248.33 159.52 245.76 159.51C240.8 159.47 235.86 159.09 230.91 158.67C227.79 158.41 224.65 158.14 221.57 157.68C212.24 156.28 203.03 154.43 194.53 150.02C191.37 148.38 188.38 146.55 186.22 143.62" stroke="#2071B5" stroke-width="4.21" stroke-linecap="round" stroke-linejoin="round"/>
<path d="M290.3 203.76C286.83 205.18 283.26 206.32 279.6 207.15C276.37 207.88 273.09 208.34 269.81 208.84C260.19 210.31 250.52 210.09 240.85 209.95C234.76 209.86 228.71 209.01 222.73 207.78C220.29 207.28 217.86 206.77 215.46 206.14" stroke="#2071B5" stroke-width="4.21" stroke-linecap="round" stroke-linejoin="round"/>
<path d="M285.55 154.47C283.14 154.75 280.81 155.43 278.42 155.81C276.1 156.19 273.77 156.54 271.45 156.88C268.83 157.26 266.19 157.4 263.57 157.67C261.71 157.87 259.81 157.98 257.93 158.01C252.78 158.07 247.63 158.19 242.49 157.98C238.78 157.83 235.05 157.66 231.34 157.22C229.08 156.95 226.79 156.75 224.53 156.5C221.43 156.15 218.38 155.42 215.32 154.76C210.26 153.67 205.35 152.14 200.62 150.02C198.14 148.91 195.88 147.51 193.92 145.59C192.62 144.32 192.22 142.75 192.05 141.11C191.89 139.54 192.42 136.85 192.42 135.26" stroke="#2071B5" stroke-width="4.21" stroke-linecap="round" stroke-linejoin="round"/>
<path d="M283.77 307.99C281.1 307.23 278.58 306.06 275.91 305.28C271.67 304.03 267.37 303.22 262.99 302.59C257.16 301.76 251.31 301.61 245.46 301.78C235.23 302.09 225.23 303.74 215.63 307.42C215.07 307.63 214.53 307.98 213.99 308.29" stroke="#2071B5" stroke-width="4.21" stroke-linecap="round" stroke-linejoin="round"/>
<path d="M257.19 218.91C257.4 219.29 257.44 219.73 257.32 220.09C255.17 226.66 253.52 233.37 251.57 240C250.38 244.04 248.05 252.76 247.98 253.06" stroke="#2071B5" stroke-width="4.21" stroke-linecap="round" stroke-linejoin="round"/>
<path d="M215.17 129.97C216.55 130.95 218.23 130.85 219.78 131.12C226.01 132.18 232.26 133.18 238.48 134.3C246.06 135.66 253.63 137.02 261.2 138.43C266.04 139.33 271.87 140.15 276.94 140.81" stroke="#2071B5" stroke-width="4.21" stroke-linecap="round" stroke-linejoin="round"/>
<path d="M281.99 357.58C279.95 357.69 278.05 358.45 276.06 358.81C272.26 359.5 268.45 360.07 264.63 360.59C259.5 361.28 254.35 361.5 249.18 361.45" stroke="#2071B5" stroke-width="4.21" stroke-linecap="round" stroke-linejoin="round"/>
<path d="M215.47 248.31V280.08" stroke="#2071B5" stroke-width="4.21" stroke-linecap="round" stroke-linejoin="round"/>
<path d="M279.91 296.71C274.92 295.07 269.8 293.91 264.61 293.18C259.15 292.41 253.65 292.12 248.13 292.24C246.7 292.27 245.25 292.45 243.82 292.11" stroke="#2071B5" stroke-width="4.21" stroke-linecap="round" stroke-linejoin="round"/>
<path d="M207.45 354.91C209.02 355.22 210.51 355.82 212.05 356.25C217.91 357.92 223.8 359.44 229.86 360.29C235.64 361.11 241.41 361.54 247.24 361.44C247.78 361.44 248.32 361.65 248.87 361.58" stroke="#2071B5" stroke-width="4.21" stroke-linecap="round" stroke-linejoin="round"/>
<path d="M248.95 264.19C248.2 266.51 239.13 296.95 238.03 300.46" stroke="#2071B5" stroke-width="4.21" stroke-linecap="round" stroke-linejoin="round"/>
<path d="M215.77 366.19C218.69 367.34 221.73 368.13 224.66 369.21C230.21 371.26 236.02 372.35 241.61 374.2C241.79 374.26 242 374.2 242.2 374.2" stroke="#2071B5" stroke-width="4.21" stroke-linecap="round" stroke-linejoin="round"/>
<path d="M214.88 121.07C208.68 122.33 202.65 124.07 197.06 127.15C194.79 128.4 193.19 130.13 192.45 132.65C192.19 133.52 192.24 134.34 192.47 135.18" stroke="#2071B5" stroke-width="4.21" stroke-linecap="round" stroke-linejoin="round"/>
<path d="M240.27 292.7C239.01 292.16 237.79 292.81 236.56 292.9C232.59 293.18 228.7 294.04 224.83 294.96C221.81 295.67 218.88 296.71 215.91 297.6C215.14 297.83 214.52 298.42 213.69 298.5" stroke="#2071B5" stroke-width="4.21" stroke-linecap="round" stroke-linejoin="round"/>
<path d="M215.47 224.25V247.71" stroke="#2071B5" stroke-width="4.21" stroke-linecap="round" stroke-linejoin="round"/>
<path d="M303.66 366.49C303.69 368.47 302.32 369.73 301.11 370.91C297.38 374.53 292.77 376.59 287.95 378.44C283.49 380.15 278.9 381.08 274.26 381.91C273.81 381.99 273.67 382.33 273.37 382.52" stroke="#2071B5" stroke-width="4.21" stroke-linecap="round" stroke-linejoin="round"/>
<path d="M248.88 264.19C244.87 264.03 230.65 263.72 227.44 263.61" stroke="#2071B5" stroke-width="4.21" stroke-linecap="round" stroke-linejoin="round"/>
<path d="M192.31 149.13C192.59 154.52 192.5 164.23 192.46 169.62" stroke="#2071B5" stroke-width="4.21" stroke-linecap="round" stroke-linejoin="round"/>
<path d="M269.52 252.31C267.15 252.39 251.66 253 247.99 253.05" stroke="#2071B5" stroke-width="4.21" stroke-linecap="round" stroke-linejoin="round"/>
<path d="M215.47 280.67C215.47 285.82 215.47 290.96 215.48 296.11C215.48 296.6 215.3 297.13 215.62 297.59" stroke="#2071B5" stroke-width="4.21" stroke-linecap="round" stroke-linejoin="round"/>
<path d="M305.59 317.49C306.02 317.92 305.88 318.47 305.88 318.97C305.88 327.63 305.88 336.29 305.88 344.95C305.88 349.95 305.86 354.95 305.89 359.95C305.89 361.34 305.22 362.7 305.73 364.11" stroke="#2071B5" stroke-width="4.21" stroke-linecap="round" stroke-linejoin="round"/>
<path d="M192.46 169.62C192.46 174.47 192.45 179.32 192.46 184.17C192.46 184.65 192.39 185.09 192.16 185.51" stroke="#2071B5" stroke-width="4.21" stroke-linecap="round" stroke-linejoin="round"/>
<path d="M204.48 277.11C204.48 283.49 204.48 289.88 204.48 296.26C204.48 297.65 204.41 299.39 204.52 302.79" stroke="#2071B5" stroke-width="4.21" stroke-linecap="round" stroke-linejoin="round"/>
<path d="M262.09 401.83V416.68" stroke="#2071B5" stroke-width="4.21" stroke-linecap="round" stroke-linejoin="round"/>
<path d="M305.3 136.06C305.56 136.3 305.75 136.57 305.75 136.95C305.75 138.63 305.9 140.33 305.71 141.99C305.46 144.19 303.96 145.68 302.34 147.05C299.35 149.56 295.89 151.14 292.24 152.39C290.24 153.07 288.25 153.8 286.15 154.18" stroke="#2071B5" stroke-width="4.21" stroke-linecap="round" stroke-linejoin="round"/>
<path d="M285.7 331.6C285.94 332.08 285.84 332.59 285.85 333.08C285.85 340.65 285.85 348.22 285.85 355.8" stroke="#2071B5" stroke-width="4.21" stroke-linecap="round" stroke-linejoin="round"/>
<path d="M249.03 352.24V376.59" stroke="#2071B5" stroke-width="4.21" stroke-linecap="round" stroke-linejoin="round"/>
<path d="M285.85 357.28V371.83" stroke="#2071B5" stroke-width="4.21" stroke-linecap="round" stroke-linejoin="round"/>
<path d="M293.57 208.22C293.57 211.88 293.58 215.54 293.55 219.21C293.55 219.6 293.85 220.12 293.27 220.4" stroke="#2071B5" stroke-width="4.21" stroke-linecap="round" stroke-linejoin="round"/>
<path d="M305.59 149.28C306 151.54 305.72 153.83 305.83 156.11C306.02 159.91 305.87 163.73 305.88 167.54C305.9 173.13 305.71 178.72 305.74 184.32C305.74 184.61 305.57 184.96 305.88 185.21" stroke="#2071B5" stroke-width="4.21" stroke-linecap="round" stroke-linejoin="round"/>
<path d="M195.87 172.29V183.87" stroke="#2071B5" stroke-width="4.21" stroke-linecap="round" stroke-linejoin="round"/>
<path d="M257.19 378.81C257.54 379.22 258.04 379.29 258.53 379.41C261.88 380.19 265.22 380.99 268.48 382.08" stroke="#2071B5" stroke-width="4.21" stroke-linecap="round" stroke-linejoin="round"/>
<path d="M302.03 307.1C301.71 308.87 301.93 310.66 301.89 312.45C301.85 314.33 301.88 316.21 301.89 318.09" stroke="#2071B5" stroke-width="4.21" stroke-linecap="round" stroke-linejoin="round"/>
<path d="M215.47 211.78V222.77" stroke="#2071B5" stroke-width="4.21" stroke-linecap="round" stroke-linejoin="round"/>
<path d="M249.03 169.32V180.01" stroke="#2071B5" stroke-width="4.21" stroke-linecap="round" stroke-linejoin="round"/>
<path d="M196.02 322.99C195.69 326.4 195.96 329.82 195.87 333.23" stroke="#2071B5" stroke-width="4.21" stroke-linecap="round" stroke-linejoin="round"/>
<path d="M215.47 346.3V356.4" stroke="#2071B5" stroke-width="4.21" stroke-linecap="round" stroke-linejoin="round"/>
<path d="M301.73 323.28C302.07 326.59 301.78 329.91 301.88 333.23" stroke="#2071B5" stroke-width="4.21" stroke-linecap="round" stroke-linejoin="round"/>
<path d="M215.47 167.24V177.19" stroke="#2071B5" stroke-width="4.21" stroke-linecap="round" stroke-linejoin="round"/>
<path d="M249.03 185.95V195.75" stroke="#2071B5" stroke-width="4.21" stroke-linecap="round" stroke-linejoin="round"/>
<path d="M286.14 121.66C285.56 122.13 285.11 122.68 284.38 123.05C282.87 123.81 282.68 124.98 282.83 126.86C283.01 129.02 283.1 134.58 283.24 136.61" stroke="#2071B5" stroke-width="4.21" stroke-linecap="round" stroke-linejoin="round"/>
<path d="M201.81 163.68V173.18" stroke="#2071B5" stroke-width="4.21" stroke-linecap="round" stroke-linejoin="round"/>
<path d="M215.44 185.65C215.53 187.92 215.48 190.2 215.47 192.48C215.47 192.99 215.61 193.54 215.18 193.96" stroke="#2071B5" stroke-width="4.21" stroke-linecap="round" stroke-linejoin="round"/>
<path d="M205.08 202.28C207.89 203.81 210.9 204.79 213.99 205.55" stroke="#2071B5" stroke-width="4.21" stroke-linecap="round" stroke-linejoin="round"/>
<path d="M285.85 157.14V165.75" stroke="#2071B5" stroke-width="4.21" stroke-linecap="round" stroke-linejoin="round"/>
<path d="M285.85 171.4V185.36" stroke="#2071B5" stroke-width="4.21" stroke-linecap="round" stroke-linejoin="round"/>
<path d="M249.03 337.39V350.46" stroke="#2071B5" stroke-width="4.21" stroke-linecap="round" stroke-linejoin="round"/>
<path d="M230.62 181.79C227.81 181.94 225.07 182.51 222.31 182.98" stroke="#2071B5" stroke-width="4.21" stroke-linecap="round" stroke-linejoin="round"/>
<path d="M285.85 299.53V307.7" stroke="#2071B5" stroke-width="4.21" stroke-linecap="round" stroke-linejoin="round"/>
<path d="M283.17 365.9C282.57 366.03 282.89 366.5 282.89 366.79C282.86 369.17 282.87 371.54 282.87 373.92" stroke="#2071B5" stroke-width="4.21" stroke-linecap="round" stroke-linejoin="round"/>
<path d="M282.58 184.76C280.29 184.29 278.06 183.55 275.76 183.09C275.35 183.01 274.96 183.05 274.57 182.97" stroke="#2071B5" stroke-width="4.21" stroke-linecap="round" stroke-linejoin="round"/>
<path d="M215.47 156.85V164.87" stroke="#2071B5" stroke-width="4.21" stroke-linecap="round" stroke-linejoin="round"/>
<path d="M215.47 358.17V373.61" stroke="#2071B5" stroke-width="4.21" stroke-linecap="round" stroke-linejoin="round"/>
<path d="M298.62 327.29V335.01" stroke="#2071B5" stroke-width="4.21" stroke-linecap="round" stroke-linejoin="round"/>
<path d="M282.88 347.78V355.5" stroke="#2071B5" stroke-width="4.21" stroke-linecap="round" stroke-linejoin="round"/>
<path d="M293.57 296.41C293.57 298.98 293.57 301.56 293.57 304.13" stroke="#2071B5" stroke-width="4.21" stroke-linecap="round" stroke-linejoin="round"/>
<path d="M192.31 199.9V207.32" stroke="#2071B5" stroke-width="4.21" stroke-linecap="round" stroke-linejoin="round"/>
<path d="M285.85 146.75V154.34" stroke="#2071B5" stroke-width="4.21" stroke-linecap="round" stroke-linejoin="round"/>
<path d="M215.47 147.35V154.79" stroke="#2071B5" stroke-width="4.21" stroke-linecap="round" stroke-linejoin="round"/>
<path d="M285.85 311.85V318.98" stroke="#2071B5" stroke-width="4.21" stroke-linecap="round" stroke-linejoin="round"/>
<path d="M276.94 127.6V134.58" stroke="#2071B5" stroke-width="4.21" stroke-linecap="round" stroke-linejoin="round"/>
<path d="M249.03 159.67V166.65" stroke="#2071B5" stroke-width="4.21" stroke-linecap="round" stroke-linejoin="round"/>
<path d="M285.7 194.11C286.03 196.28 285.76 198.47 285.85 200.64" stroke="#2071B5" stroke-width="4.21" stroke-linecap="round" stroke-linejoin="round"/>
<path d="M301.88 342.73V349.26" stroke="#2071B5" stroke-width="4.21" stroke-linecap="round" stroke-linejoin="round"/>
<path d="M296.83 163.38V169.91" stroke="#2071B5" stroke-width="4.21" stroke-linecap="round" stroke-linejoin="round"/>
<path d="M249.03 197.68V204.06" stroke="#2071B5" stroke-width="4.21" stroke-linecap="round" stroke-linejoin="round"/>
<path d="M286.55 62.4199C284.65 63.1099 284.59 63.6499 282.86 63.7899C282.52 63.8199 281.57 64.1799 280.19 63.9599" stroke="#2071B5" stroke-width="4.21" stroke-linecap="round" stroke-linejoin="round"/>
<path d="M212.5 146.75V152.99" stroke="#2071B5" stroke-width="4.21" stroke-linecap="round" stroke-linejoin="round"/>
<path d="M249.03 318.98V325.22" stroke="#2071B5" stroke-width="4.21" stroke-linecap="round" stroke-linejoin="round"/>
<path d="M215.47 177.93V184.17" stroke="#2071B5" stroke-width="4.21" stroke-linecap="round" stroke-linejoin="round"/>
<path d="M299.8 248.01V254.25" stroke="#2071B5" stroke-width="4.21" stroke-linecap="round" stroke-linejoin="round"/>
<path d="M295.05 353.42C293.24 353.98 291.5 354.76 289.71 355.38C289.39 355.49 289.1 355.43 288.81 355.5" stroke="#2071B5" stroke-width="4.21" stroke-linecap="round" stroke-linejoin="round"/>
<path d="M215.47 313.34V319.28" stroke="#2071B5" stroke-width="4.21" stroke-linecap="round" stroke-linejoin="round"/>
<path d="M276.94 135.02V140.81" stroke="#2071B5" stroke-width="4.21" stroke-linecap="round" stroke-linejoin="round"/>
<path d="M195.87 164.87V170.51" stroke="#2071B5" stroke-width="4.21" stroke-linecap="round" stroke-linejoin="round"/>
<path d="M249.03 429.74V435.38" stroke="#2071B5" stroke-width="4.21" stroke-linecap="round" stroke-linejoin="round"/>
<path d="M285.4 444.73C284.03 444.71 282.88 445.38 281.68 445.9C281.07 446.16 280.47 446.55 279.76 446.51" stroke="#2071B5" stroke-width="4.21" stroke-linecap="round" stroke-linejoin="round"/>
<path d="M282.88 386.83C281.23 387.21 279.7 388.04 277.98 388.19C277.77 388.21 277.58 388.56 277.38 388.76" stroke="#2071B5" stroke-width="4.21" stroke-linecap="round" stroke-linejoin="round"/>
<path d="M290.9 365C291.47 366.76 291.09 368.56 291.2 370.34" stroke="#2071B5" stroke-width="4.21" stroke-linecap="round" stroke-linejoin="round"/>
<path d="M282.43 126.11C281.29 126.29 280.26 126.84 279.16 127.14C278.49 127.32 277.8 127.53 277.09 127.3" stroke="#2071B5" stroke-width="4.21" stroke-linecap="round" stroke-linejoin="round"/>
<path d="M301.59 306.06C300.27 305.34 299.31 304.09 297.88 303.52C297.49 303.36 297.12 303.2 296.69 303.23" stroke="#2071B5" stroke-width="4.21" stroke-linecap="round" stroke-linejoin="round"/>
<path d="M201.22 302.65C199.76 303.3 198.54 304.29 197.36 305.33C197.1 305.56 196.9 305.89 196.47 305.77" stroke="#2071B5" stroke-width="4.21" stroke-linecap="round" stroke-linejoin="round"/>
<path d="M292.97 202.28C293.6 202.18 293.58 202.58 293.57 203.02C293.55 204.36 293.57 205.69 293.57 207.03" stroke="#2071B5" stroke-width="4.21" stroke-linecap="round" stroke-linejoin="round"/>
<path d="M206.27 354.31C204.71 354.03 203.36 353.15 201.82 352.83" stroke="#2071B5" stroke-width="4.21" stroke-linecap="round" stroke-linejoin="round"/>
<path d="M300.4 335.01C298.99 335.55 297.77 336.52 296.24 336.79" stroke="#2071B5" stroke-width="4.21" stroke-linecap="round" stroke-linejoin="round"/>
<path d="M283.17 123.74C281.85 123.56 280.74 124.44 279.46 124.48" stroke="#2071B5" stroke-width="4.21" stroke-linecap="round" stroke-linejoin="round"/>
<path d="M249.03 329.52V336.35" stroke="#2071B5" stroke-width="4.21" stroke-linecap="round" stroke-linejoin="round"/>
<path d="M285.7 200.94C286.03 202.17 285.76 203.42 285.85 204.65" stroke="#2071B5" stroke-width="4.21" stroke-linecap="round" stroke-linejoin="round"/>
<path d="M288.52 307.1C287.33 307.69 286.14 308.29 284.96 308.88" stroke="#2071B5" stroke-width="4.21" stroke-linecap="round" stroke-linejoin="round"/>
<path d="M289.41 339.76C288.27 339.88 287.32 340.68 286.14 340.65" stroke="#2071B5" stroke-width="4.21" stroke-linecap="round" stroke-linejoin="round"/>
<path d="M282.87 58.8604C280.36 59.7504 279.79 60.2004 278.3 60.6404" stroke="#2071B5" stroke-width="4.21" stroke-linecap="round" stroke-linejoin="round"/>
<path d="M195.87 184.76C195.75 185.65 196.16 186.6 195.57 187.43" stroke="#2071B5" stroke-width="4.21" stroke-linecap="round" stroke-linejoin="round"/>
<path d="M249.03 326.25V328.48" stroke="#2071B5" stroke-width="4.21" stroke-linecap="round" stroke-linejoin="round"/>
<path d="M285.85 320.76C285.9 321.4 285.72 322.06 286 322.69" stroke="#2071B5" stroke-width="4.21" stroke-linecap="round" stroke-linejoin="round"/>
<path d="M283.25 136.61C281.93 136.43 278.37 140.76 277.09 140.81" stroke="#2071B5" stroke-width="4.21" stroke-linecap="round" stroke-linejoin="round"/>
</svg>
