<?xml version="1.0" encoding="UTF-8"?>
<svg id="icons" xmlns="http://www.w3.org/2000/svg" viewBox="0 0 500 500">
  <defs>
    <style>
      .cls-1 {
        fill: none;
        stroke: #000;
        stroke-linecap: round;
        stroke-linejoin: round;
        stroke-width: .8px;
      }
    </style>
  </defs>
  <path class="cls-1" d="M276.46,135.05c4.86.51,9.54,1.79,14.03,3.63,12.86,5.26,23.71,13.29,32.49,24.06,8.96,10.99,14.57,23.57,17.01,37.51,1.01,5.74.96,11.61.86,17.44-.06,3.34-.12,6.69,0,10.03.87,23.53.15,47.07.38,70.6.05,4.82-.84,9.55-1.84,14.23-1.56,7.29-4.11,14.26-7.59,20.87-2.95,5.63-6.38,10.98-10.48,15.81-5.89,6.95-12.18,13.56-19.82,18.68-6.4,4.29-14.23,9.16-21.71,11.36"/>
  <path class="cls-1" d="M314.57,284.88c-.43,2.13-.24,4.29-.17,6.42.24,7.6-1.31,14.91-3.66,22.06-2.71,8.24-7.24,15.45-12.8,22.09-5.12,6.12-11.21,11.02-18.29,14.58-5.72,2.87-11.83,4.65-18.22,5.51-4.01.54-8.01.83-12.04.75"/>
  <path class="cls-1" d="M334.83,215.88c-1.99-.65-4.01-.12-6.03-.02.27-12.27-2.31-23.67-7.77-34.5-6.17-12.23-15.53-21.21-27.32-27.86-7.05-3.97-14.61-6.62-22.47-8.39-2.29-.52-4.62-1.09-7.01-1.04"/>
  <path class="cls-1" d="M329.01,216.08c-.29,8.02-.13,16.05-.09,24.07.02,4.95-.04,9.89.06,14.84.12,5.41-.33,10.84-.13,16.24.25,6.62.09,13.24.14,19.86.08,10.46-1.39,20.67-5.19,30.49-3.39,8.77-7.9,16.84-14.22,23.89-5.14,5.73-10.88,10.62-17.45,14.66-7.31,4.49-15.12,7.54-23.5,9.17-7.54,1.47-15.19,2.14-22.86,1.77-7.7-.37-15.26-1.61-22.69-3.89-9.25-2.84-17.52-7.33-25.05-13.31-5.38-4.26-9.79-9.37-13.67-15.02-5.23-7.61-9.06-15.87-11.55-24.71-1.5-5.35-2.42-10.85-2.66-16.43-.91-21.19-.16-42.39-.39-63.58-.07-6.08-.01-12.17-.01-18.25"/>
  <path class="cls-1" d="M263.83,143.87c-6.52-1.05-13.09-1.27-19.65-.95-6.4.31-12.82.94-19.05,2.58-10.81,2.84-20.72,7.61-29.26,14.85-9.9,8.39-17.48,18.56-21.85,30.87-2.66,7.49-4.17,15.26-4.24,23.25,0,.33-.18.73.19,1"/>
  <path class="cls-1" d="M219.5,135.45c-3.94.51-7.64,1.8-11.23,3.42-10.46,4.73-19.63,11.27-27.48,19.65-7.49,7.99-13.38,17.03-17.21,27.29-2.82,7.53-4.5,15.36-4.65,23.45-.45,24.47-.09,48.94-.2,73.41-.02,4.08,0,8.16,0,12.24,0,11.56,2.29,22.63,6.77,33.32,4.05,9.65,9.59,18.33,16.35,26.21,4.53,5.28,10.1,9.47,15.78,13.51,6.41,4.56,13.36,8.02,20.67,10.81.46.18,1,.04,1.41.39"/>
  <path class="cls-1" d="M185.4,284.68c-.27-.72-.2-1.47-.2-2.21,0-22.73-.12-45.47.07-68.2.05-6.68,1.62-13.21,4.13-19.46,4.43-10.99,11.5-19.84,21.49-26.25,6.12-3.93,12.78-6.45,20.02-7.74,8.76-1.56,17.53-1.04,26.29-1.05,6.28,0,12.51,1.26,18.42,3.25,6.6,2.22,12.78,5.55,18.28,9.93,9.5,7.56,15.13,17.59,18.46,29.08,1.46,5.05,1.97,10.23,1.98,15.45.05,22.33.02,44.66.02,66.99"/>
  <path class="cls-1" d="M248.98,285.08c.27.72.2,1.47.2,2.21,0,29.28,0,58.57,0,87.85v16.85"/>
  <path class="cls-1" d="M249.18,160.12v123.36"/>
  <path class="cls-1" d="M328.61,284.88c-4.39-.8-8.83-.25-13.24-.38-1-.03-2.01-.01-3.01-.03-7.89-.13-15.78.22-23.67.21-8.89,0-17.79-.12-26.68.02-22.73.35-45.47.08-68.2.18-2.87.01-5.75,0-8.62,0"/>
  <path class="cls-1" d="M185.4,242.36c4.01.19,7.22-1.64,10.01-4.23,4.02-3.73,7.6-7.93,12.04-11.23,6.96-5.15,14.72-8.53,23.08-10.61,7.31-1.81,14.78-2.37,22.26-1.96,14.05.76,27.34,4.32,39.3,12.01,3.32,2.14,6.16,4.85,8.69,7.96,3.41,4.19,7.81,7.18,13.39,7.17,4.74,0,9.49-.02,14.24-.12"/>
  <path class="cls-1" d="M335.43,219.69v63.78"/>
  <path class="cls-1" d="M327.81,233.53c-4.68.11-9.36-.03-14.04.14-3.45.12-6.46-1.49-9-3.77-1.97-1.76-3.78-3.71-5.63-5.6-8.3-8.43-18.33-13.82-29.69-16.83-4.26-1.13-8.61-1.72-13.02-2.12-4.03-.37-8.05-.41-12.04-.24-8.31.37-16.37,1.93-24.09,5.3-7.59,3.31-14,8.17-19.82,13.9-2.43,2.39-4.86,4.78-7.44,7-2.18,1.87-4.76,2.66-7.62,2.61"/>
  <path class="cls-1" d="M258.41,437.52c0,3.48-.05,6.95.02,10.43.03,1.51-.52,2.05-2.03,2.03-5.35-.06-10.7-.1-16.05.02-1.79.04-2.22-.75-2.21-2.25.01-3.34,0-6.69,0-10.03"/>
  <path class="cls-1" d="M264.83,68.45c0-5.01,0-10.03,0-15.04,0-2.72-.71-3.41-3.41-3.41-7.49,0-14.98,0-22.46,0-2.43,0-2.82.32-2.79,2.81.06,5.22-.21,10.43.19,15.65"/>
  <path class="cls-1" d="M230.13,423.88h65.19"/>
  <path class="cls-1" d="M223.51,75.27c-5.76-.03-5.62.69-5.62,3.21,0,5.62.02,11.23-.02,16.85-.01,1.46.07,2.29,2.01,2.49,4.56.47,9.1.42,13.65.09.98-.07,1.85.28,2.81.27,9.09-.06,18.19-.04,27.28-.04,4.75,0,9.49,0,14.24,0,.84,0,1.61-.15,2.41-.38.89-.26,1.2-.77,1.2-1.63.02-6.08-.17-12.17.18-18.25.08-1.45-1.09-2.6-2.79-2.57-4.21.06-8.43-.25-12.64.16-.94.09-1.86-.21-2.81-.21-8.83.03-17.65-.06-26.48.07-2.74.04-5.47-.12-8.24.22-1.62.2-3.45-.24-5.2-.26"/>
  <path class="cls-1" d="M281.28,414.45c0-6.62,0-13.24,0-19.86,0-1.98-.33-2.14-2.4-2.23-3.68-.16-7.36-.31-11.03-.14-5.28.24-10.57.13-15.85.16-6.55.03-13.11.12-19.66-.03-3.68-.08-7.35-.14-11.03-.15-3.01,0-3.39.34-3.4,3.2-.02,5.95.05,11.9-.05,17.85-.03,1.49.61,1.96,1.85,2,3.74.11,7.48.33,11.23.22,1.47-.04,2.94,0,4.41,0,10.56,0,21.13.07,31.69-.04,4.28-.04,8.56-.51,12.84-.53,5.61-.02,11.24-.28,16.85.16"/>
  <path class="cls-1" d="M266.23,110.17c5.21-.26,10.43.16,15.65-.16,2.99-.18,3.01,0,3.01,2.97v23.47"/>
  <path class="cls-1" d="M280.07,394.4c-1.66-.39-3.34-.18-5.01-.19-9.96-.03-19.92-.01-29.89-.01-3.48,0-6.97-.22-10.43.05-5.49.43-10.98-.45-16.45.15"/>
  <path class="cls-1" d="M284.49,130.03h-70"/>
  <path class="cls-1" d="M266.23,129.63c-.57-.83-.17-1.74-.18-2.61-.04-5.55-.02-11.1-.02-16.65-1.58-.66-3.21-.19-4.81-.19-8.02-.01-16.05.18-24.07-.07-4.82-.15-9.63.11-14.45-.09-2.13-.09-4.27.16-6.42,0-1.71-.13-2.36.66-2.4,2.37-.16,5.75.29,11.5.2,17.25-.03,1.67.16,3.37-.08,5-.1.69.34,1.07.28,1.62"/>
  <path class="cls-1" d="M317.18,415.46c-.4-1.18-.23-2.41-.17-3.61.06-1.38-.51-2-1.83-2-5.42,0-10.83-.03-16.25.02-1.31.01-2.05.64-2.04,2.19.07,7.96.03,15.91.03,23.87,0,1.69.68,2.39,2.4,2.4,5.01.02,10.03.02,15.04,0,1.76,0,2.6-.86,2.6-2.6.01-6.02,0-12.03.02-18.05,0-.66-.24-1.37.19-2.01"/>
  <path class="cls-1" d="M229.73,75.27c-.44-.95-.67-1.93-.62-3.01.13-2.83.67-3.41,3.43-3.41,10.03,0,20.06,0,30.09,0,1.87,0,3.75.04,5.62-.01,1.45-.04,2.09.47,2.27,2.01.17,1.42-.12,2.82.14,4.22"/>
  <path class="cls-1" d="M236.55,57.82c1.96,0,1.33,0,2.01,0,7.62,0,15.24,0,22.87,0,1,0,2.01.03,3.01,0"/>
  <path class="cls-1" d="M296.52,433.11h-25.27"/>
  <path class="cls-1" d="M211.34,215.32c-1.24.56-5.06.1-6.29.12-5.68.09-11.37.04-17.05.04-5.28,0-10.56,0-15.85,0-2.08,0-4.14.33-6.22.19-.34-.02.58.01-3.16.01"/>
  <path class="cls-1" d="M328.41,215.48c-12.37.11-24.74-.23-37.11.2"/>
  <path class="cls-1" d="M265.83,75.87c.46,2.6.15,5.22.18,7.82.06,4.61.02,9.23.02,13.84"/>
  <path class="cls-1" d="M233.94,75.87v21.66"/>
  <path class="cls-1" d="M229.93,415.86c0,6.42.05,12.84-.04,19.26-.02,1.61.44,2.08,2.04,2.06,2-.03,4.01-.31,6.04.28.86.25,1.94-.36,2.99-.35,9.09.04,18.19.03,27.28.02,2.54,0,2.61,0,2.59-2.61-.05-6.28.25-12.57-.19-18.85"/>
  <path class="cls-1" d="M264.83,394.6c-.12,6.62.25,13.24-.17,19.86,0,.13.18.37.17.6"/>
  <path class="cls-1" d="M232.94,394.8c.46,4.54.13,9.09.18,13.64.02,2.2.27,4.42-.18,6.62"/>
  <path class="cls-1" d="M279.24,379.52c-5.91,2.28-8.88,2.71-13,3.28-5.07.7-10.19.99-15.25,1.03-5.74.05-11.53-.18-17.25-1.04-4.71-.71-9.24-2.09-13.84-3.24"/>
  <path class="cls-1" d="M232.74,110.58v19.26"/>
  <path class="cls-1" d="M277.06,367.52c1.09,1.72.87,3.78,1.28,5.64.66,2.97,1.39,5.96,1.78,9.45-2.73-.2-7.83.91-10.51,1.11"/>
  <path class="cls-1" d="M233.14,144.27c.42,2.53.14,5.08.19,7.62.05,2.74.01,5.48.01,8.22"/>
  <path class="cls-1" d="M264.23,130.43c-.35.74.01,1.47.01,2.21-.02,8.76-.02,17.52,0,26.28,0,.42-.06.82-.21,1.2"/>
  <path class="cls-1" d="M244.37,376.94c-4.82.14-9.56-.51-14.24-1.59-.44-.1-.93-.01-1.4-.01"/>
  <path class="cls-1" d="M249.18,143.27v15.44"/>
  <path class="cls-1" d="M185,285.08c-.48.03-.9-.23-1.4-.22-7.89.21-15.78-.3-23.67-.02-.19,0-.53-.12-.8-.16"/>
  <path class="cls-1" d="M170.16,242.36h14.84"/>
  <path class="cls-1" d="M185,233.93c-4.95-.31-9.9-.34-14.84,0"/>
  <path class="cls-1" d="M221.1,367.12c-1.08,5.12-1.97,10.28-3.11,15.64,3.66-.46,8.4.36,11.74.62"/>
  <path class="cls-1" d="M272.45,98.54c-.12,3.74.26,7.5-.2,11.23"/>
  <path class="cls-1" d="M226.72,98.54c.12,3.74-.26,7.5.2,11.23"/>
  <path class="cls-1" d="M334.63,204.45c-.24,3.36.69,6.67.4,10.03"/>
  <path class="cls-1" d="M163.34,228.92v9.63"/>
  <path class="cls-1" d="M229.93,382.56v9.43"/>
  <path class="cls-1" d="M259.21,135.45c-3.06-.49-6.14-.41-9.23-.4"/>
  <path class="cls-1" d="M166.54,195.62c-.31,2.44-1.16,4.77-1.46,7.21-.08.67-.04,1.35-.15,2.01"/>
  <path class="cls-1" d="M256.81,438.92c-4.34-.46-8.69-.06-13.04-.2-1.14-.03-2.27,0-3.41,0"/>
  <path class="cls-1" d="M341.05,284.68c-1.81,0-3.62,0-5.62,0,0,2.81,0,5.82,0,8.83"/>
  <path class="cls-1" d="M270.44,375.34c-1.98-.04-3.84.73-5.8.93-.98.1-2.02.11-3.02.28"/>
  <path class="cls-1" d="M269.24,382.96v8.83"/>
  <path class="cls-1" d="M335.43,295.51c.22,2.96-.27,5.88-.4,8.83"/>
  <path class="cls-1" d="M164.94,305.94c-.1,1.95.53,3.78,1.04,5.6.16.56.05,1.09.16,1.62"/>
  <path class="cls-1" d="M233.14,130.43c-.11,4.48.32,8.96.2,13.44"/>
  <path class="cls-1" d="M249.18,131.03v10.83"/>
  <path class="cls-1" d="M340.45,215.68c-1.34,0-2.68.06-4.01-.02-1.44-.08-1.35.66-1,1.62"/>
  <path class="cls-1" d="M248.78,135.05h-4.81"/>
  <path class="cls-1" d="M163.34,215.68c-1.4-.17-2.81-.36-4.21,0"/>
  <path class="cls-1" d="M185.4,284.88c.43,2.13.24,4.29.17,6.42-.24,7.6,1.31,14.91,3.66,22.06,2.71,8.24,7.24,15.45,12.8,22.09,5.12,6.12,11.21,11.02,18.29,14.58,5.72,2.87,11.83,4.65,18.22,5.51,4.01.54,8.01.83,12.04.75"/>
</svg>