<?xml version="1.0" encoding="UTF-8"?>
<svg id="icons" xmlns="http://www.w3.org/2000/svg" viewBox="0 0 500 500">
  <defs>
    <style>
      .cls-1 {
        fill: none;
        stroke: #000;
        stroke-linecap: round;
        stroke-linejoin: round;
        stroke-width: .87px;
      }
    </style>
  </defs>
  <path class="cls-1" d="M103.76,356.26c4.52,3.29,9.67,5.42,14.55,8.06,8.24,4.45,16.54,8.8,24.85,13.11,9.52,4.95,18.78,10.36,28.35,15.22,9.73,4.94,19.25,10.32,28.93,15.37,9.28,4.84,18.43,9.93,27.63,14.93,10.1,5.5,20.23,10.97,30.44,16.27,2.96,1.54,5.96,3.02,8.85,4.68,1.24.72,2.06.5,3.08-.06,7.18-3.96,14.53-7.6,21.73-11.51,12.05-6.53,24.25-12.76,36.45-19.01,10.41-5.33,20.99-10.32,31.37-15.71,8.65-4.5,17.36-8.89,26.05-13.31"/>
  <path class="cls-1" d="M278.9,393.42v28.17c2.73-.59,4.86-2.02,7.15-3,2.65-1.13,5.17-2.57,7.85-3.64,2.03-.81,2.91-2.29,2.81-4.36-.43-8.33-.1-16.66-.18-24.99,0-.54-.4-.98-.22-1.59,3.69-1.09,6.88-3.35,10.38-4.98,6.75-3.14,13.36-6.59,20.02-9.94,9.63-4.86,19.17-9.9,28.9-14.57,2.8-1.34,5.44-3.03,8.28-4.29,1.02-.45,1.37-1,1.29-2-.02-.29,0-.58,0-.87v-177.32c0-.43-.01-.87,0-1.3.04-1.25-.6-1.33-1.52-.87-12.38,6.16-24.7,12.46-37.16,18.46-7.97,3.83-15.8,7.95-23.9,11.52-1.9.84-3.44,2.44-5.65,2.61"/>
  <path class="cls-1" d="M363.21,168.51c.35.7.21,1.45.21,2.17,0,58.74,0,117.49,0,176.23,0,.73.14,1.48-.21,2.17"/>
  <path class="cls-1" d="M133.96,340.18c-6.39,2.87-12.36,6.57-18.67,9.61-2.77,1.33-5.5,2.76-8.3,4.05-1.76.81-3.06,2.37-4.98,2.87-.57.15-.41.66-.44,1.08-.33,3.82-.27,3.7,3.25,5.68,7.8,4.38,15.82,8.35,23.73,12.53,7.07,3.74,14.25,7.3,21.25,11.16,11.83,6.53,23.83,12.75,35.67,19.29,6.75,3.73,13.6,7.28,20.4,10.91,8.47,4.51,16.96,8.96,25.43,13.46,8.39,4.45,16.81,8.83,25.19,13.28,3.52,1.87,7.08,3.66,10.64,5.45,1.23.62,2.08.64,3.3,0,6.73-3.56,13.46-7.13,20.18-10.71,11.9-6.33,23.86-12.55,35.84-18.71,11.78-6.06,23.66-11.93,35.47-17.94,7.59-3.87,15.27-7.56,22.82-11.51,1.54-.8,2.06-1.66,1.97-3.31-.08-1.54-.43-3.04-.45-4.56,0-.66-.13-1.22-.69-1.51-2.7-1.4-5.3-3.05-8.25-3.93"/>
  <path class="cls-1" d="M127.66,147.43c-1.06,2.73-.85,2.99,1.94,4.37,3.25,1.61,6.41,3.41,9.56,5.22,7.37,4.24,14.93,8.09,22.42,12.09,11.92,6.36,23.98,12.45,36.24,18.14,8.2,3.8,16.13,8.15,24.16,12.3,9.09,4.7,18.23,9.32,27.36,13.95,7.19,3.65,14.34,7.4,21.54,11.03,1.5.75,1.76,1.61,1.74,3.1-.07,8.98-.03,17.96-.03,26.95v55.63c0,27.74,0,55.48,0,83.23,0,.8-.16,1.62.21,2.39"/>
  <path class="cls-1" d="M371.47,154.39v145.59"/>
  <path class="cls-1" d="M135.05,122.01c2.45,2.12,5.46,3.28,8.27,4.75,11.77,6.16,23.45,12.49,35.2,18.7,11.26,5.95,22.8,11.34,34.29,16.83,8.59,4.11,17.13,8.34,25.69,12.5,12.82,6.23,25.62,12.51,38.48,18.66,1.87.9,2.41,1.96,2.42,3.96.04,7.1-.27,14.2.08,21.3.07,1.33-.1,2.75-.14,4.12-.03.83-.14,1.62-1.08,1.96-1.75.63-3.37,1.58-5.22,1.95"/>
  <path class="cls-1" d="M357.13,171.55c.37.77.21,1.59.21,2.39,0,41.79,0,83.59,0,125.38,0,16.8,0,33.61,0,50.41,0,.8-.16,1.62.21,2.39"/>
  <path class="cls-1" d="M142,327.79c1.91,2.48,4.77,3.62,7.41,4.96,14.93,7.6,29.68,15.53,44.51,23.32,10.99,5.77,21.86,11.76,32.82,17.59,11.35,6.05,22.75,12.01,34.09,18.08,1.71.92,3.9,1.49,4.85,3.61.2.45.77.85,1.28.85,2.19.03,3.5,1.7,5.23,2.61,2.37,1.24,2.92,3.32,2.79,5.67-.19,3.62-.17,7.24-.21,10.87,0,.8.36,1.74-.85,2.2-1.42.53-2.63,2.03-4.35,1.05-2.45-1.41-4.92-2.77-7.36-4.17-10.78-6.17-21.81-11.87-32.87-17.49-11.55-5.88-22.98-11.99-34.52-17.89-8.02-4.1-15.94-8.4-23.92-12.56-8.74-4.55-17.34-9.37-26.1-13.86-5.51-2.82-10.83-6-16.48-8.54"/>
  <path class="cls-1" d="M349.96,136.35c3.51.99,6.55,3,9.74,4.64,4.62,2.37,9.32,4.53,13.97,6.83,2.4,1.19,3.54,2.58,3.53,5.48-.13,21.58-.07,43.17-.07,64.76,0,52.88,0,105.75-.02,158.63,0,1.69.17,3.34.45,5"/>
  <path class="cls-1" d="M140.26,150.04c2.11,2.2,5.03,2.99,7.62,4.32,8.62,4.42,17.14,9.04,25.87,13.24,7.39,3.55,14.78,7.11,22.11,10.76,10.32,5.14,20.57,10.44,30.89,15.57,7.02,3.49,13.96,7.13,21.05,10.49,8.47,4.01,16.33,9.19,24.58,13.63,2.11,1.14,4.23,2.28,6.51,3.05"/>
  <path class="cls-1" d="M166.56,267.17c-.44-3.68-.22-7.39-.39-11.08-.2-4.19.18-8.39.03-12.6-.24-6.8-.07-13.62-.07-20.42,0-2.54-.01-5.07,0-7.61,0-.78-.26-1.66.72-2.21,7.05,3.6,14.16,7.19,21.23,10.88,9.73,5.08,19.55,10.01,29.54,14.59.96.44,1.56,1.09,1.56,2.38-.05,27.02-.03,54.04-.04,81.05,0,.66.09,1.33-.3,2-2.04-.49-4.08-1.23-6-2.23-4.88-2.55-9.82-5.02-14.82-7.3-8.32-3.79-16.24-8.39-24.69-11.92-1.95-.82-4.06-1.81-5.7-3.37"/>
  <path class="cls-1" d="M340.62,191.98v121.04c0,3.33-.01,6.66.01,10,0,.57-.39,1.51.86,1.3"/>
  <path class="cls-1" d="M236.53,207.84c-.36.22-.21.57-.21.87-.31,41.94-.21,83.88-.22,125.82,0,.59.02,1.16.18,1.75.15.54.25,1.28,0,1.71-1.1,1.85-3.3,2.05-4.96,3.06-.76.46-1.3.31-2.21-.13-9.16-4.45-18.11-9.27-27.15-13.95-5.73-2.96-11.44-5.95-17.14-8.96-8.26-4.34-16.44-8.84-24.78-13.01-.63-.31-1.32-.46-1.73-1.1"/>
  <path class="cls-1" d="M376.25,382.55c-5.93,2.84-11.91,5.59-17.82,8.47-17.36,8.46-34.71,16.92-51.95,25.62-7.52,3.8-15.11,7.44-22.59,11.32-1.09.56-2.11.67-3.29-.16-1.37-.97-3.06-1.45-4.31-2.65"/>
  <path class="cls-1" d="M127.88,151.78c-.29,1.51-.44,3.03-.44,4.56,0,11.88-.13,23.76.03,35.64.42,30.49.06,60.99.16,91.48,0,1,.29,1.89.46,2.82"/>
  <path class="cls-1" d="M308.02,245.44v89.31"/>
  <path class="cls-1" d="M151.78,113.75c2.05,1.79,4.66,2.56,6.97,3.88,6.01,3.46,12.27,6.47,18.47,9.55,10.39,5.16,20.85,10.18,31.23,15.33,10.04,4.98,20.1,9.92,30.05,15.09,4.91,2.55,10,4.79,14.93,7.29,10.49,5.32,21.09,10.41,31.55,15.78,3.23,1.66,6.5,3.24,9.81,4.71,1.49.66,1.73,1.52,1.72,2.89-.04,5.5-.14,11.01.01,16.51.31,10.79.11,21.59.07,32.38-.09,22.09,0,44.19-.09,66.28-.05,11.59,0,23.18,0,34.77,0,14.49,0,28.97,0,43.46,0,.66-.11,1.33.21,1.96"/>
  <path class="cls-1" d="M375.6,149.61c-2.77,2.27-6.25,3.18-9.39,4.68-4.91,2.34-10.01,4.33-14.92,6.68-12.17,5.8-24.59,11.06-36.73,16.93-6.01,2.91-12.15,5.53-18.05,8.66"/>
  <path class="cls-1" d="M160.04,190.46c-.53,2.37-.13,4.78-.36,7.18-.14,1.4,1.59,1.9,2.56,2.31,5.57,2.34,10.84,5.29,16.29,7.85,7.15,3.37,14.19,6.97,21.28,10.47,5.87,2.89,11.7,5.87,17.58,8.73,4.19,2.04,8.43,4.01,12.47,6.37.51.3,1.89,1.1,3.04-.04.63-.62,1.85-1.11,2.98-.5"/>
  <path class="cls-1" d="M157.86,188.72c8.37,4.63,17.22,8.32,25.62,12.87,11.72,6.35,23.86,11.83,35.69,17.93,5.32,2.75,10.59,5.62,16.04,8.12.32.15.58.15.88.19"/>
  <path class="cls-1" d="M197.85,267.82c.49,4.48.11,8.98.2,13.47.02,1.03-.95,1.35-1.72,1.74-6.21,3.16-12.38,6.4-18.46,9.79-6.54,3.65-13.26,6.96-19.85,10.51-4.74,2.55-9.56,5.07-14.51,7.26-.71.31-1.07,1.15-2.07,1.15-4.26-2.32-8.45-4.98-13.06-6.9-1.09-.46-2.56-1.84-2.55-3.98.02-3.18-.05-6.37-.13-9.56-.06-2.48.97-4.18,3.26-5.23,10.34-4.75,20.49-9.86,30.65-14.97,5.15-2.59,10.3-5.21,15.49-7.7,2.75-1.32,5.51-2.76,8.4-3.87.83-.32,1.39-.4,2.2.02,3.78,1.93,7.52,3.94,11.3,5.86,1.18.6,1.39,1.19.64,2.2"/>
  <path class="cls-1" d="M197.41,267.6c-6.76,3.37-13.49,6.76-20.21,10.21-11.13,5.71-22.24,11.44-33.47,16.94-2.61,1.28-4.24,2.83-3.75,6.11.41,2.78-.16,5.65.29,8.46.08.49-.18.88-.33,1.3"/>
  <path class="cls-1" d="M213.71,244.78c0,22.38,0,44.76,0,67.15,0,1.09.04,2.17,0,3.26"/>
  <path class="cls-1" d="M229.57,233.92c-.46.69-.2,1.45-.2,2.17-.02,29.41-.01,58.82-.01,88.22"/>
  <path class="cls-1" d="M371.47,302.59v67.8"/>
  <path class="cls-1" d="M348.87,202.63c1.28-.23.87.69.87,1.3,0,7.97,0,15.94,0,23.9v39.98"/>
  <path class="cls-1" d="M314.97,135.92c-1.81-.01-3.27,1.02-4.76,1.78-6.69,3.38-13.73,5.99-20.47,9.27-6.96,3.39-14.06,6.5-21.07,9.78-4.61,2.16-9.14,4.46-13.69,6.75-.46.23-.69.63-1.08.89"/>
  <path class="cls-1" d="M220.66,144.39c9.22-4.59,18.36-9.34,27.59-13.91,8.48-4.19,16.89-8.53,25.67-12.67-1.26-2.97-4.49-2.63-6.49-4.21-2.58,2.48-5.81,3.68-8.81,5.02-5.57,2.5-10.93,5.39-16.46,7.95-7.94,3.68-15.76,7.6-23.68,11.31-3.08,1.44-6.32,2.58-9.13,4.55"/>
  <path class="cls-1" d="M348.87,106.36c-5.55,2.17-4.52.99-4.54,6.3-.06,13.83-.05,27.67.01,41.5,0,1.98-.54,3.35-2.42,4.14-5.9,2.46-11.65,5.25-17.35,8.11-7.88,3.95-15.9,7.6-23.76,11.59-2.67,1.36-5.46,2.57-8.23,3.74-.79.34-1.54.59-1.73,1.54"/>
  <path class="cls-1" d="M157.65,169.16c0,5.29-.08,10.58-.18,15.86-.15,7.96-.04,15.93-.04,23.9,0,19.7-.01,39.4.04,59.11,0,1.16-.63,2.32-.04,3.48"/>
  <path class="cls-1" d="M315.63,141.57c-7.08,3.6-14.43,6.63-21.52,10.2-4.86,2.45-9.86,4.62-14.76,6.99-5.54,2.68-10.94,5.65-16.53,8.23"/>
  <path class="cls-1" d="M201.76,89.63c-2.85.6-5.24,2.27-7.83,3.46-7.54,3.45-15.12,6.86-22.56,10.5-6.69,3.28-13.55,6.21-20.04,9.9-4.19,2.38-8.64,4.32-13.05,6.27-1.75.78-3.12,2.38-5.39,2.29-.03,3.43,0,6.69,0,9.95,0,1.39-.23,2.63-1.29,3.71-2.3,2.36-2,5.15-1.12,8.02.74,2.42,2.64,3.71,4.58,4.99"/>
  <path class="cls-1" d="M308.02,192.2c0,17.09,0,34.19-.04,51.28,0,.59.78,1.82-.83,1.74"/>
  <path class="cls-1" d="M233.7,79.42v42.74c-2.61,1.45-4.28-.4-6.06-1.28-6.68-3.29-13.29-6.75-19.98-10.01-1.24-.6-2.5-1.23-3.74-1.86-1.38-.7-1.61-1.6-1.56-3.08.12-3.91-.08-7.83-.09-11.73-.01-5.28.1-10.57.16-15.86.05-3.62-.27-7.25.19-10.87.06-.45-.38-.83-.42-1.3.98-1.02,2.21-1.61,3.47-2.19,1.2-.56,2.29-.55,3.49,0,6.35,2.94,12.53,6.24,18.88,9.19.65.3,1.46.23,1.98.82"/>
  <path class="cls-1" d="M236.53,122.66c-.49-1.88,0-3.77-.02-5.65-.05-5.22-.04-10.43-.1-15.65-.06-4.7.22-9.42.07-14.12-.09-2.86-.01-5.74-.27-8.71-2.05.1-3.84.81-5.5,1.62-1.03.5-1.49.23-2.22-.28-3.62-2.58-7.79-4.12-11.74-6.07-4.33-2.14-8.75-4.07-13.04-6.31-.23-.12-.57-.02-.86-.02"/>
  <path class="cls-1" d="M241.53,244.78v44.76"/>
  <path class="cls-1" d="M261.3,67.9c0,13.91,0,27.81.01,41.72,0,.72-.26,1.49.2,2.17"/>
  <path class="cls-1" d="M166.56,222.18c1.35-.26,2.44.56,3.45,1.13,7.91,4.44,16.47,7.48,24.56,11.5,6.3,3.13,12.86,5.72,18.9,9.34.71.42,1.33,0,1.97.19"/>
  <path class="cls-1" d="M146.13,161.56c-.37.77-.21,1.59-.21,2.39,0,13.04,0,26.08,0,39.11"/>
  <path class="cls-1" d="M201.76,98.97c-5.45,2.42-10.86,4.94-16.29,7.4-5.02,2.27-10.03,4.57-15,6.93-2.9,1.38-5.88,2.56-8.7,4.11-.44.24-.69.64-1.07.89"/>
  <path class="cls-1" d="M302.15,87.46c0,11.23.08,22.46-.05,33.68-.04,3.26.12,6.52.06,9.78-.03,1.6-.68,3.16-.23,4.78"/>
  <path class="cls-1" d="M228.92,80.72c-.37.77-.21,1.59-.21,2.39,0,11.73,0,23.47,0,35.2,0,.87.1,1.76-.21,2.61"/>
  <path class="cls-1" d="M136.57,231.09c-3.33.98-4.76,4.32-3.24,8.03,1.93,4.71,5.07,6.07,9.76,6.49,1.92.17,2.91-.86,3.26-2.79.99-5.46-3.4-11.14-8.91-11.5-.27-.02-.37-.35-.65-.23"/>
  <path class="cls-1" d="M307.59,133.09c-.14-16.23.3-32.45.2-49.11-1.55-1.67-4.22-2.28-6.53-3.42-7.12-3.51-14.35-6.8-21.49-10.26-.62-.3-1.16-.73-1.75-1.07-1.15-.66-4.62.67-4.94,1.94-.23.92-.1,1.89,1.04,2.39,9.28,4.02,18.03,9.16,27.35,13.11,1.05.45,1.55.29,2.45-.02,1.17-.41,2.09-1.47,3.46-1.36"/>
  <path class="cls-1" d="M176.33,296.72c3.7,1.43,7.05,3.57,10.63,5.26,5.27,2.48,10.41,5.26,15.65,7.81,5.1,2.48,10.3,4.8,15.01,8.01"/>
  <path class="cls-1" d="M171.34,224.79c-.29,2.76-.06,5.54.29,8.25.37,2.83.35,5.69.84,8.48.81,4.61.65,9.31,1.46,13.92.43,2.44.55,4.93.89,7.39"/>
  <path class="cls-1" d="M139.39,342.79c2.75-1.13,2.69-3.46,1.89-6.28-.66-2.32-2.21-4.26-4.06-5.89-.9-.8-2.14-.97-3.01-.56-1.03.48-1.63,1.61-1.58,2.96.21,5.69,3.86,10.22,9.36,11.51,1.43.33,2.57-.47,3.43-1.35.78-.79.81-1.98.05-3"/>
  <path class="cls-1" d="M267.06,113.75c-.28-.31-.29-.87-.27-1.08.5-4.44-.85-8.89-.16-13.24.41-2.58.15-5.1.25-7.63.34-8.83-.22-17.67-.14-26.51,0-.7-.24-1-.87-1.33-9.35-4.86-19.11-8.85-28.49-13.64-1.83-.93-3.39.39-4.99,1.06"/>
  <path class="cls-1" d="M357.13,379.51c-4.18,2.07-8.22,4.48-12.63,6.01-2.87,1-5.06,3.07-7.8,4.2-3.33,1.38-6.47,3.23-9.48,5.12-3,1.88-6.39,2.25-9.46,3.71-5.7,2.72-11.43,5.4-17.13,8.12-1.23.59-2.52,1.04-3.7,1.73"/>
  <path class="cls-1" d="M260.65,268.47c-.56-3.89-2.09-7.16-5.87-8.9-3.8-1.75-6.1.63-5.89,3.91.2,3.17,2.77,6.97,5.68,8.04,3.06,1.12,4.75.34,6.08-2.82"/>
  <path class="cls-1" d="M201.98,106.58c-2.45.17-4.37,1.69-6.5,2.64-8.65,3.84-17.23,7.84-25.88,11.7-.49.22-.92.51-1.3.87"/>
  <path class="cls-1" d="M340.62,324.53v32.81"/>
  <path class="cls-1" d="M316.28,143.09c-.41-4.55-.82-9.1-.68-13.69.12-3.99-.66-8.04-.45-11.94.34-6.53.03-13.05.23-19.57.04-1.44.28-2.88-.13-4.36-.33-1.19,1.48-2.45,3.42-2.59.83-.06,1.65.06,2.39.44,8.47,4.3,17.16,8.13,25.66,12.35,2.02,1,2.84,2.4,2.83,4.59-.05,7.32.08,14.63-.06,21.95-.08,4.06-.27,8.11.04,12.17.27,3.62-.58,7.24-.02,10.87.16,1.03-.1,2.02-1.5,1.95-1.42-.07-2.11,1.86-3.69,1.31"/>
  <path class="cls-1" d="M210.23,90.5c-.2,3.43,1.61,5.74,4.37,7.35,1.55.9,3.41,1.07,4.95,0,1.66-1.16,1.28-3.13,1.05-4.73-.39-2.77-3.95-6.05-6.68-6.53-1.77-.31-3.57,1.39-3.91,3.69"/>
  <path class="cls-1" d="M250.87,215.23c-.46.69-.2,1.45-.2,2.17-.02,9.27-.08,18.54.04,27.81.02,1.87-.65,3.84.38,5.65"/>
  <path class="cls-1" d="M344.53,108.1c-3.85-1.4-7.36-3.54-11.07-5.24-5.68-2.61-11.31-5.34-16.97-8-.18-.08-.43-.01-.65-.01"/>
  <path class="cls-1" d="M253.48,426.23c.9,2.25,3.11,2.91,5.01,3.13,2.18.26,4.61.8,6.73-.73,1.59-1.15,1.88-2.51.4-3.68-2.5-1.97-5.32-2.6-8.46-1.57-1.5.49-3.34.38-3.47,2.63"/>
  <path class="cls-1" d="M246.31,266.95v27.81"/>
  <path class="cls-1" d="M333.01,129.61c1.39.09,1.73-1.12,1.9-1.97.51-2.58-2.37-7.83-5.81-8.04-3.2-.2-4.25,1.27-3.5,5.02.55,2.7,4.29,5.64,7.19,5.21"/>
  <path class="cls-1" d="M132.87,248.26v27.38"/>
  <path class="cls-1" d="M232.83,54.43c1.49-.57,2.76.29,3.89.91,7.29,3.98,14.95,7.21,22.33,10.97,2.85,1.45,4.86,1.01,7.25-.15"/>
  <path class="cls-1" d="M306.93,133.74c-2.91,1.19-5.67,2.71-8.49,4.1-5.92,2.93-11.68,6.17-17.79,8.76-9.16,3.88-18.33,7.76-27.2,12.31-1.26.65-2.62,1.11-3.93,1.7-.74.34-.99.79-1.27,1.37"/>
  <path class="cls-1" d="M127.66,360.17c.29.91.74,1.54,1.72,2,3.1,1.47,6.08,1.5,9.17-.01.9-.44,1.14-1.23.81-1.74-1.89-2.93-8.05-4.72-11.23-1.52-.21.21-.46.64-.46,1.06"/>
  <path class="cls-1" d="M141.13,218.27c2.21-.2,2.52-.57,2.62-2.61.14-3.08-1.12-5.43-3.73-6.92-2.04-1.16-4.56.61-4.54,3.01.02,2.96,2.33,5.82,5.43,6.74"/>
  <path class="cls-1" d="M322.36,397.33c.08.81-.63.85-1.09,1.08-7.59,3.8-15.14,7.69-22.79,11.36-.51.25-1.09.27-1.55.6"/>
  <path class="cls-1" d="M145.91,251.74c0,7.75,0,15.5,0,23.25,0,.73-.14,1.48.21,2.17"/>
  <path class="cls-1" d="M232.18,51.82c.49,8.91.09,17.82.2,26.73,0,.28.35.37.23.65"/>
  <path class="cls-1" d="M282.81,120.05c0,7.97-.38,15.93-.22,23.9"/>
  <path class="cls-1" d="M266.3,409.93c2.45-.81,3.38-2.33,2.56-4.98-.61-1.96-1.41-3.98-3.23-5.2-.86-.57-1.84-1.77-2.98-.86-1.01.8-1.78,2-1.54,3.43.54,3.25,1.51,6.26,4.98,7.61"/>
  <path class="cls-1" d="M262.6,112.88c-2.17.9-4.31,1.82-6.73,2.02-1.7.14-3.13,1.35-4.77,1.94-5.08,1.82-10.02,4.04-14.95,6.17-10.14,4.38-20.38,8.59-30.26,13.55-.98.49-2.08.75-3.04,1.31"/>
  <path class="cls-1" d="M349.52,175.25c.47,1.43.19,2.9.2,4.35.03,6.95.03,13.91,0,20.86,0,.72.26,1.49-.2,2.17"/>
  <path class="cls-1" d="M271.51,197.41c-5.63-1.97-10.73-5.06-16.08-7.61-2.19-1.05-4.35-2.17-6.52-3.25"/>
  <path class="cls-1" d="M308.02,147.43v25.21"/>
  <path class="cls-1" d="M272.6,206.97c-.9-1.18-1.19-2.66-1.95-3.91-1.56-2.57-3.47-4.68-6.74-4.76-2.66-.06-3.91,1.25-3.9,3.89,0,1.03-.24,2.1.43,3.04"/>
  <path class="cls-1" d="M204.15,115.71v19.56"/>
  <path class="cls-1" d="M308.02,343.87v18.69"/>
  <path class="cls-1" d="M207.63,251.74v17.82"/>
  <path class="cls-1" d="M266.73,211.97c1.72-1.34,2.62-2.8,2.04-5.23-.68-2.84-2.46-4.42-4.89-5.34-1.02-.39-1.97.69-2.34,1.68-1.48,3.98.58,7.75,4.75,8.89.38.1.75.37,1.09.4,1.23.12,2.5.77,3.69-.18,1.4-1.12,2.77-2.24,2.17-4.35"/>
  <path class="cls-1" d="M265.21,395.59c-.43,0-.89.08-1.3-.01-2.68-.62-4.11.09-4.53,2.63-.55,3.34-.59,6.62,2.34,9.14.43.37.6-.11.89-.02"/>
  <path class="cls-1" d="M296.07,384.29c-8.58,4.14-17.02,8.56-25.42,13.04"/>
  <path class="cls-1" d="M316.28,143.96c-.53,6.51.12,13.05-.45,19.56-.03.29.34.37.23.65"/>
  <path class="cls-1" d="M324.1,147.87v16.95"/>
  <path class="cls-1" d="M133.09,134.18c4.5,1.33,7.97,5.55,8.04,9.78.05,3.22-.35,3.73-3.48,4.35"/>
  <path class="cls-1" d="M202.41,264.34v16.08"/>
  <path class="cls-1" d="M250.87,187.85c-.49,5.35-.08,10.72-.22,16.08"/>
  <path class="cls-1" d="M236.31,176.55c.34,6.81-.02,13.62,0,20.43"/>
  <path class="cls-1" d="M141.13,343.66c3.13-.34,4.61-3.75,3.46-7.17-.87-2.56-2.13-5.06-3.78-7.09-1.71-2.12-4.43-3.33-7.08-4.16-1.46-.46-3.73,2.34-3.89,4.51-.24,3.25.32,6.29,2.41,8.89.44.55.46,1.16.63,1.75"/>
  <path class="cls-1" d="M142.22,242.39c1.58-2.75.75-5.76-1.96-6.94-1.13-.49-2.27-.75-3.26.41-1.03,1.21-.91,2.45-.19,3.69.26.44.75.75.85,1.32"/>
  <path class="cls-1" d="M277.6,128.31v15.21"/>
  <path class="cls-1" d="M273.47,73.55c-.49,2.74-.08,5.51-.22,8.26-.14,2.83.04,5.67.12,8.47.12,4.06-.18,8.11.05,12.18.22,3.9.05,7.82.04,11.73,0,.65-.33,1.2-.65,1.74"/>
  <path class="cls-1" d="M265.43,324.75v14.34"/>
  <path class="cls-1" d="M128.09,305.19c-.69,1.44-.88,2.95-.91,4.56-.05,3.26.27,6.52-.15,9.78-.26,2.05,1.73,3.88,4.75,4.52.67.14,1.3.1,1.51.9"/>
  <path class="cls-1" d="M241.09,70.94v13.47"/>
  <path class="cls-1" d="M230.23,325.62c-1.4-.13-.84.94-.85,1.52-.04,3.98-.02,7.97-.02,11.95"/>
  <path class="cls-1" d="M157.21,143.96c.92,1.06.48,2.35.38,3.47-.3,3.49-.08,6.96.05,10.43"/>
  <path class="cls-1" d="M279.34,83.98v13.04"/>
  <path class="cls-1" d="M201.11,160.91v12.6"/>
  <path class="cls-1" d="M357.78,373.21c.63,3.16-.63,5.09-3.68,6.13-1.67.57-3.2,1.55-4.79,2.35"/>
  <path class="cls-1" d="M133.31,130.7c2.14.87,4.25,1.77,6.1,3.24,4.12,3.27,5.55,7.57,5.19,12.63-.05.74-.32,1.32-1.06,1.77-1.11.69-2.33,1.01-3.52,1.44-.47.17-1.34.38-1.69-.19-.98-1.56-2.69-2.24-3.95-3.45-1.78-1.7-1.71-3.93-1.94-6.1"/>
  <path class="cls-1" d="M330.62,353.44c-3.94-1.46-7.51-3.66-11.29-5.46-.32-.15-.59-.15-.88-.19"/>
  <path class="cls-1" d="M267.17,396.68c1.42,2.27,3.42,4.06,4.45,6.7.92,2.37.62,4.66.77,6.99.07,1.08-.79,1.6-1.51,1.46-1.58-.32-3.43-.12-4.58-1.68"/>
  <path class="cls-1" d="M340.4,179.81c.48,3.61.14,7.24.18,10.87,0,.79.03,1.2.91,1.09"/>
  <path class="cls-1" d="M241.09,298.68v11.3"/>
  <path class="cls-1" d="M357.56,353.87c.35,5.94.5,11.89-.08,17.81-.16,1.61.91.92,1.38,1.31"/>
  <path class="cls-1" d="M166.34,316.71v11.08"/>
  <path class="cls-1" d="M143.74,195.24c-3.47,1.78-7,3.41-10.65,4.78"/>
  <path class="cls-1" d="M289.77,190.89c-3.38,1.42-6.63,3.11-10,4.56"/>
  <path class="cls-1" d="M376.9,379.73c-3.19,1.21-6.19,2.85-9.34,4.13"/>
  <path class="cls-1" d="M232.83,82.68v9.13"/>
  <path class="cls-1" d="M183.72,246.52v8.69"/>
  <path class="cls-1" d="M236.74,146.13c-.47,2.88.04,5.81-.43,8.69"/>
  <path class="cls-1" d="M192.42,290.42v8.26"/>
  <path class="cls-1" d="M127.66,318.67c1.8.51,3.31,1.63,4.99,2.41,1.31.61.73,1.65.44,2.59"/>
  <path class="cls-1" d="M126.14,290.2c2.54.76,4.71,2.34,7.17,3.26"/>
  <path class="cls-1" d="M216.32,90.93c-.69-1.74-2.19-1.05-2.98-.55-.79.5-1.12,1.78-.07,2.73.24.22.39.53.44.86"/>
  <path class="cls-1" d="M285.64,100.93c-.48,1.81.45,3.8,1.96,4.12.54.11,1.12-.07,1.5-.44.44-.42.38-1,.02-1.5-.83-1.14-1.62-2.34-3.26-2.39"/>
  <path class="cls-1" d="M308.24,115.05c2.26.57,4.21,1.97,6.52,2.39"/>
  <path class="cls-1" d="M175.25,294.98c1.21,2.75.38,5.51,0,8.26"/>
  <path class="cls-1" d="M251.96,343c2.03,1.01,4.06,2.03,6.08,3.04"/>
  <path class="cls-1" d="M222.4,321.71c2.03,1.01,4.06,2.03,6.08,3.04"/>
  <path class="cls-1" d="M273.47,118.53c.23,2.29.68,4.6-.65,6.74"/>
  <path class="cls-1" d="M280.64,328.66c-1.94-.75-3.59-2.11-5.65-2.61"/>
  <path class="cls-1" d="M198.5,305.63c-1.89-.85-3.7-1.89-5.65-2.61"/>
  <path class="cls-1" d="M267.6,97.02c1.88.15,3.57,1.1,5.43,1.3"/>
  <path class="cls-1" d="M258.47,250.43c-2.46-1.23-4.93-2.46-7.39-3.69"/>
  <path class="cls-1" d="M262.39,111.8c-1.92.51-3.88.94-5.22,2.61"/>
  <path class="cls-1" d="M331.49,125.27c.05-2.28-1.51-1.32-2.61-1.3"/>
  <path class="cls-1" d="M329.1,124.4c.33,1.16,1.3,1.75,2.2,2.36.25.17.59-.23.63-.62"/>
  <path class="cls-1" d="M264.12,110.93c-1.09.16-.23.71-.22,1.09.85-.15,1.52.69,2.39.43"/>
  <path class="cls-1" d="M292.37,137.44c.07.94-.19,1.91.22,2.82"/>
  <path class="cls-1" d="M255.87,249.78v1.96"/>
  <path class="cls-1" d="M219.36,145.26c-.49.39-1.34.26-1.52,1.09"/>
  <path class="cls-1" d="M238.48,181.33c-.71.14-1.15-.45-1.74-.65"/>
  <path class="cls-1" d="M251.96,296.94c-2.76,1.26-2.93,3.51-2.4,6.09.8,3.83,4.81,6.88,8.05,6.08,1.8-.44,3.19-2.07,3.02-3.8-.44-4.64-4.3-8.93-8.46-8.37"/>
  <path class="cls-1" d="M136.35,204.8c-3.06,1.47-4.22,3.67-3.46,6.95,1.11,4.85,3.46,8.63,8.67,10.03,2.86.77,5.36-.76,5.66-3.72.49-4.85-3.07-10.72-7.58-12.87-1.07-.51-2.06-.2-3.07-.38"/>
  <path class="cls-1" d="M284.55,97.45c-3.82,3.18-2.96,7.55,1.94,10.23,1.25.68,2.56,1.28,3.91,1.02,2.36-.46,3.6-3.41,2.61-5.82-1.16-2.8-4.18-6-8.25-5.44"/>
  <path class="cls-1" d="M246.31,79.2c-2.97,1.67-2.26,4.49-.61,7.58.46.86,1.25,1.59,2.11,2.22,2.54,1.86,4.14,1.28,4.77-1.77.64-3.1-2.82-7.56-6.05-8.03"/>
</svg>