<?xml version="1.0" encoding="UTF-8"?>
<svg id="icons" xmlns="http://www.w3.org/2000/svg" viewBox="0 0 500 500">
  <defs>
    <style>
      .cls-1 {
        fill: none;
        stroke: #000;
        stroke-linecap: round;
        stroke-linejoin: round;
        stroke-width: .87px;
      }
    </style>
  </defs>
  <path class="cls-1" d="M184.25,427.86c.38-.69.94-1.24,1.53-1.73,3.44-2.83,4.86-6.61,4.98-10.9.47-17.2.17-34.41.23-51.61.05-15.61.06-31.21-.03-46.82-.02-3.78-.07-7.6-1.04-11.33-1.27-4.88-3.73-8.92-8.3-11.29-2.27-1.18-4.89-1.32-7.39-1.77-4.06-.74-8.14-1.46-12.21-2.08-3.85-.59-7.66-1.36-11.52-1.85-3.79-.48-7.54-1.24-11.31-1.83-4.73-.74-9.45-1.65-14.16-2.57-1.98-.39-3.98-.75-5.95-1.4-2.05-.67-4.59-.06-6.91-.08-1.76-.02-3.46.4-4.99,1.13-4.04,1.92-6.27,5.36-7.4,9.55-.47,1.77-.9,3.57-.9,5.44,0,33.75-.05,67.51.05,101.26.02,6.96,2.84,12.73,9.11,16.3,2.59,1.48,5.58,1.9,8.48,2.41,6.39,1.13,12.77,2.37,19.17,3.42,6.31,1.03,12.61,2.14,18.92,3.18,7.19,1.19,14.34,2.65,21.56,3.68,2.31.33,4.53.13,6.76-.45,2.07-.53,4.22-.15,6.32-.61,2.32-.51,4.67-.81,6.98-1.5,2.36-.71,4.92-.32,7.39-.66,2.16-.3,4.38-.36,6.51-.77,1.84-.35,3.66.47,5.45-.17"/>
  <path class="cls-1" d="M118.05,391.93c.95.09,1.29.92,1.72,1.54,3.3,4.75,7.66,8.37,12.68,11.03,5.18,2.75,10.71,3.89,16.75,2.98,9.41-1.42,15.85-7.06,21.04-14.29,4.8-6.7,7.43-14.49,8.72-22.6.87-5.52,1.05-11.1.61-16.77-.67-8.68-2.43-17.04-6.28-24.78-5.35-10.78-12.65-19.81-24.32-24.44-10.02-3.98-19.4-2.91-27.82,3.79-3.46,2.75-5.77,6.68-7.9,10.59-3.32,6.08-5.58,12.56-6.46,19.39-.88,6.85-1.48,13.76-.49,20.68,1.33,9.33,3.67,18.35,8.48,26.57.43.73.86,1.48.66,2.39"/>
  <path class="cls-1" d="M354.32,303.95c5.8-.51,11.58-1.44,17.42-1.06,6,.39,11.43,2.36,16.13,6.27,7.64,6.38,10.88,14.91,12.44,24.4.66,3.99,1.05,7.98.8,11.98-.64,9.99-3.19,19.41-9.82,27.18-4.42,5.19-10.36,7.77-17.15,8.56-8.12.94-16.32,1.13-24.39,2.58-3.88.69-6.55,3.01-8.71,6.11-2.65,3.8-3.5,8.08-3.49,12.63.03,10.89,0,21.78,0,32.66,0,4.96-2.47,7.63-7.4,8.29-10.5,1.39-21.05,2.19-31.58,3.24-12.71,1.26-25.42,2.47-38.11,3.92-5.5.63-10.91.16-16.35-1.01-5.96-1.29-12.02-2.22-18.06-3.1-1.22-.18-1.8-.65-1.76-1.98.08-2.61.09-5.23,0-7.84-.16-4.94-1.92-8.99-6.76-11.06-.51-.22-1.12-.2-1.5-.7"/>
  <path class="cls-1" d="M141.14,281.31c1.2,1.39,2.98.8,4.37.96,6.72.81,13.32,2.3,20.01,3.24,6.26.88,12.47,2.11,18.73,3.01,6.06.87,11.64,2.74,15.48,8.02,2.53,3.48,4.28,7.27,4.52,11.56,1.05,18.5.1,37.02.5,55.53.27,12.56.12,25.12.16,37.67.01,4.52-.07,9.08-1.12,13.49-.75,3.16-2.27,6.06-4.51,8.52-.73.8-1.86,1.33-1.97,2.6"/>
  <path class="cls-1" d="M151.59,379.08c4.5-2.91,6.14-7.43,6.98-12.41.71-4.2.72-8.46.34-12.62-.69-7.59-2.86-14.8-8.89-19.98-3.9-3.35-8.46-5.63-13.88-3.74-4.42,1.54-7.29,4.87-9.36,8.91-2.06,4.02-2.94,8.32-3.09,12.84-.22,6.52.92,12.73,3.97,18.5,2.81,5.32,6.69,9.75,12.63,11.47,4.06,1.17,8.11.53,11.3-2.74"/>
  <path class="cls-1" d="M226.28,272.38c-3.18.53-6.39.96-9.59,1.23-3.77.31-7.54.67-11.32.96-5.96.45-11.9,1.02-17.86,1.53-4.14.35-8.27.73-12.41,1.09-4.43.39-8.85.79-13.28,1.09-4.21.29-8.43.62-12.62,1.12-2.84.34-5.84-.07-8.52,1.43-.61.34-1.43-.15-2.16-.17-5.84-.23-11.6.87-17.42,1.07-.5.02-.93.12-1.31.45"/>
  <path class="cls-1" d="M330.15,242.55c0,33.17,0,66.34-.01,99.52,0,.72.26,1.49-.2,2.18"/>
  <path class="cls-1" d="M273.75,106.66c-3.34.51-6.68.04-10.02.03-2.47-.01-4.93-.2-7.41.17-3.68.54-5.72,2.3-6.29,5.91-.28,1.79-.49,3.6-.48,5.44.05,16.55-.07,33.1.07,49.65.05,6.39.13,12.78.18,19.16.01,1.68-.13,3.35-.29,5-.23,2.39-1.29,4.48-3.4,5.91-.46.31-1.23.54-1.11,1.39"/>
  <path class="cls-1" d="M263.08,367.54c.34-.25.51-.7,1.09-.67,3.87.21,7.67-.76,11.98-.62v51.96c8.65-.6,17.09-1.06,25.7-2.02,0-4.52.07-8.95-.02-13.38-.1-5.08.33-10.17-.21-15.24-.06-.59.39-.76.67-1.09,7.07-8.41,13.38-17.4,19.96-26.19.78-1.05,1.44-1.19,2.47-1.26,8.15-.52,16.27-1.34,24.39-2.14,1.11-.11,1.32-.6,1.31-1.55-.03-3.7-.03-7.4,0-11.11.01-1.51-.64-1.45-1.97-1.38-6.11.35-12.18,1.13-18.29,1.38"/>
  <path class="cls-1" d="M216.05,322.46v100.61"/>
  <path class="cls-1" d="M321.44,121.25c.02,26.28-.18,52.56.44,78.83"/>
  <path class="cls-1" d="M314.04,106.66c3.12.14,6.25-.26,9.36.21,3.11.47,4.97,2.06,5.41,5.02.26,1.72.49,3.46.49,5.22-.03,12.12-.13,24.25.02,36.37.12,9.8.01,19.6.27,29.4.09,3.47-.37,7.01.55,10.46.69,2.57,2.24,4.6,4.43,5.78,1.67.9,3.83.81,5.83.77,1.9-.04,2.42.87,1.77,2.61-.32.85-.85.94-1.55.86-4.2-.51-8.42-.07-12.63-.22-1.76-.07-2.25.74-2.21,2.41.09,4.14.03,8.27.03,12.41"/>
  <path class="cls-1" d="M213.43,283.27c6.47,0,11.57-4.56,13.18-10.86.89-3.47.66-6.85.73-10.26.11-5.8.03-11.61.03-17.42v-22.65c0-2.76,1.36-4.11,4.14-3.91,4.72.34,9.44.13,14.16.01,4.5-.11,9.05-.21,13.49.48,4.23.66,8.46.47,12.63.23,2.59-.15,5.19-.78,7.85-.75,6.17.06,12.35-.2,18.51.08,6.24.29,12.5,1.45,18.72.72,7.34-.85,14.67-.74,22-.76,3.63,0,7.25.4,10.89.01,1.09-.12,2.19.49,3.26.82.84.26.66.94.65,1.53-.13,7.11.24,14.23-.17,21.34-.05.91.17,1.88.17,2.83,0,18.8,0,37.6,0,56.4v10.1c3.44.39,6.82-.23,10.24-.47,4.13-.29,8.32-1.26,12.41.38"/>
  <path class="cls-1" d="M145.49,331.83c-.71.77-1.77.47-2.62.86-4.67,2.15-7.35,6.02-8.89,10.69-1.7,5.18-1.68,10.5-.95,15.89.75,5.56,2.71,10.5,6.59,14.57,3.17,3.32,6.91,5.55,11.74,5.24"/>
  <path class="cls-1" d="M256.11,107.1c-.16,8.2.11,16.41.28,24.61.1,4.86-.1,9.74.19,14.59.91,15.6.14,31.22.41,46.82"/>
  <path class="cls-1" d="M245.23,357.31v-54.3c-.69-.31-1.45-.06-2.18-.14"/>
  <path class="cls-1" d="M289.65,287.62v59.67"/>
  <path class="cls-1" d="M258.29,301.56c-.92.48-.41,1.32-.41,1.96-.03,15.17-.02,30.34-.02,45.51"/>
  <path class="cls-1" d="M320.14,288.06v45.73"/>
  <path class="cls-1" d="M289.43,194.42c-7.78,1.55-15.56,3.07-23.31,4.74-1.34.29-1.72.86-1.73,2.01,0,1.52-.04,3.05,0,4.57.06,1.84.38,1.88,2.18,1.12,2.2-.92,4.63-1.05,6.96-1.53,6.25-1.28,12.5-2.57,18.74-3.86,6.63-1.37,13.15-3.2,19.81-4.39,1.3-.23,1.56-.68,1.53-1.8-.05-1.89,0-3.78-.02-5.57-5.22-1.93-10.47-1.66-15.67-1.83"/>
  <path class="cls-1" d="M281.59,175.04c-5.3,1.07-10.63,2-15.91,3.22-.93.21-1.25.64-1.27,1.36-.06,2.18-.02,4.36-.02,6.52,2.08.81,3.56-.66,5.2-1,6.25-1.27,12.54-2.37,18.75-3.8,6.68-1.53,13.39-2.9,20.04-4.56.09-.02.14-.2.22-.2,1.81-.06,4.22-.17,4.83-1.61.75-1.79.18-4.14.18-6.55-2.15.41-3.96,1.15-5.88,1.41-5.72.78-11.25,2.53-16.98,3.32-2.92.4-5.78,1.26-8.72,1.68"/>
  <path class="cls-1" d="M316.22,399.12v43.55"/>
  <path class="cls-1" d="M366.3,322.03v37.89"/>
  <path class="cls-1" d="M275.49,285.88c-.16-1.85-1.49-3.17-2.21-4.78-1.33-2.99-2.84-5.89-3.48-9.16-.42-2.15.44-3.64,2.64-3.89,1.36-.16,2.76-.01,4.13-.03,9.58-.12,19.16.24,28.75-.19,2.94-.13,4.53,2.3,3.43,5.62-1.43,4.33-3.38,8.46-6.04,12.21-.45.63-1.08.66-1.75.65-8.35-.14-16.69.16-25.05-.14-2.43-.09-4.95-.04-7.77.26,2.53,10.45,5.49,20.61,8.35,30.76,2.85,10.12,5.75,20.24,8.78,30.31"/>
  <path class="cls-1" d="M289.65,349.03v37.46"/>
  <path class="cls-1" d="M114.57,311.14c2.54-.08,2.97-2.18,3.69-3.93,1.71-4.16.52-8.05-1.03-11.99-1.26-3.19-5.07-4.45-7.67-3.26-1.38.63-2.56,1.54-3.24,2.85-2.69,5.23-2.98,10.52.21,15.65,1.9,3.07,4.49,4.02,8.04,3.28.46-.1.89.05,1.31.22"/>
  <path class="cls-1" d="M107.38,303.08c.66,2.53,1.03,5.2,3.27,6.96,1.05.83,2.15,1.17,3.26.01,3.1-3.22,3.45-11.13-.44-14.37-1.5-1.25-3.13-1.18-4.09.46-1.19,2.04-2.15,4.23-1.78,6.73"/>
  <path class="cls-1" d="M298.14,347.51c-.41,2.03-.15,4.06-.04,6.1.15,2.75.07,5.52.03,8.27-.13,7.99.37,15.97.23,23.95,0,.51-.1,1.05.21,1.52"/>
  <path class="cls-1" d="M178.37,401.08c.4-.14.85.11,1.06.25,3.83,2.65,5.24,11.58,1.36,15.23-.96.9-1.73,1.16-2.86.42-4.63-3.07-4.64-12.64,0-15.9"/>
  <path class="cls-1" d="M302.93,285.88c1.75.9,3.63.27,5.45.42,1.09.09,2.19.01,3.48.02,0,.85.18,1.58-.03,2.17-3.44,9.66-5.74,19.66-8.88,29.41-2.78,8.64-5.17,17.4-7.6,26.14-.26.92-1.4,1.66-.7,2.82"/>
  <path class="cls-1" d="M326.67,344.24c-2.08,1-4.36.6-6.54.84-7.17.79-14.37,1.32-21.56,1.89-4.92.39-9.86.77-14.8,1-5.82.28-11.64.75-17.42,1.5-1.81.24-3.62-.42-5.46.16-.83.26-1.29.43-1.3,1.36-.04,5.08.06,10.16-.02,15.24,0,.63.49,1.07.67,1.04,2.39-.41,3.46,1.68,4.97,2.73,2.71,1.88,5.43,3.8,7.88,6.03"/>
  <path class="cls-1" d="M272.88,222.95c.77.37,1.59.21,2.4.21,9.8,0,19.6,0,29.4,0"/>
  <path class="cls-1" d="M115.22,388.01c-1.12-.07-1.94-.94-3.05-1.1-2.22-.32-5.04,1.09-6.29,3.51-2.67,5.15-2.04,13.93,2.33,17.89,3.7,3.36,7.88,1.56,9.47-1.76,1.87-3.91,1.77-7.78.81-11.79-.57-2.39-.91-4.88-3.05-6.53"/>
  <path class="cls-1" d="M260.25,219.46c-.47.31-1.01.21-1.52.21-9.58,0-19.16,0-28.74,0-.3,0-.65.15-.87-.21"/>
  <path class="cls-1" d="M275.93,318.11c-2.11,3-3.05,6.54-4.54,9.82-2.89,6.36-5.78,12.72-8.55,19.14-.28.65-.35,1.34-.63,1.97"/>
  <path class="cls-1" d="M305.11,254.52h-44.21v-11.32"/>
  <path class="cls-1" d="M304.89,242.98c-14.73-.13-29.47.26-44.21-.23-.22,0-.29-.27-.22-.42.26-.13-.16.02,0-.22.09-.13.17-.19.22-.22.4-.3.86-.21,1.31-.21,18.15,0,36.29,0,54.44-.01.46,0,.82.38,1.31.25.1-.03.28.27.76.75-4.6.49-8.88.44-13.18.1"/>
  <path class="cls-1" d="M317.52,235.8h-56.18"/>
  <path class="cls-1" d="M304.67,112.11h-30.05"/>
  <path class="cls-1" d="M272.45,219.25c.62,1.09-.04,2.18-.06,3.27-.04,2.43.02,2.61,2.45,2.61,9.8,0,19.6,0,29.4,0"/>
  <path class="cls-1" d="M300.32,64.63c-.09-5.24.29-10.5-.52-15.63-5.5.34-10.65.09-15.81.17-.36,0-.73,0-1.09,0-1.45,0-3.13-.46-4.3.12-1.4.7-.36,2.7-.93,4.02"/>
  <path class="cls-1" d="M327.54,396.5v47.25"/>
  <path class="cls-1" d="M312.95,107.1c-1.18-1.01-2.48-.17-3.7-.18-11.69-.07-23.37-.04-35.06-.04"/>
  <path class="cls-1" d="M302.93,82.27c-8.49.13-16.99,0-25.48.11-4.7.06-9.44.08-14.15-.08-1.43-.05-1.99-.17-1.83-1.99.33-3.82-.2-7.68-.13-11.53.01-.73,0-1.47,0-2.4h55.96c0,4.28.08,8.35-.06,12.41-.04,1.08.99,2.37-.19,3.23-.91.66-2.15.26-3.24.24-3.48-.08-6.98.3-10.45-.2"/>
  <path class="cls-1" d="M289.65,417.63v28.09"/>
  <path class="cls-1" d="M325.36,208.79h-27.44"/>
  <path class="cls-1" d="M135.91,354.69c-.24,7.43,2.2,13.84,7.41,19.16,2.14,2.18,4.82,3.48,7.62,4.58"/>
  <path class="cls-1" d="M324.49,204h-25.26"/>
  <path class="cls-1" d="M265.48,106.44c.19-.81.76-1.53.64-2.39-.27-1.91,1.23-2.33,2.41-2.34,9.87-.1,19.74-.06,29.62-.05,1.75,0,3.52-.19,5.27.45.38,1.42.09,2.89.18,4.34"/>
  <path class="cls-1" d="M313.39,82.71c.48,6.02-.06,12.06.27,18.07.22,3.83-.86,7.52-.76,11.33.09,3.69.1,7.4-.04,11.11-.05,1.41-.53,1.55-1.43,1.73-2.9.55-5.78,1.17-8.71,1.53-4.23.51-8.41,1.37-12.63,1.97-4.22.6-8.41,1.36-12.63,1.98-2.98.43-5.94.96-8.93,1.3-.94.11-1.41.68-1.56,1.72-.27,1.81-.09,3.64-.36,5.45-.24,1.62.77,2.73,2.8,3.02,3.9.54,7.82.79,11.76.9"/>
  <path class="cls-1" d="M302.93,320.29c3.18,2.69,5.98,5.78,8.91,8.72,4.88,4.92,9.98,9.63,14.58,14.81,1.14,1.28,2.35.21,3.5.42"/>
  <path class="cls-1" d="M301.41,87.72h-23.74"/>
  <path class="cls-1" d="M317.96,242.98c0,3.85,0,7.7,0,11.8-4.28-.15-8.35.18-12.41-.26"/>
  <path class="cls-1" d="M300.32,98.61h-23.3"/>
  <path class="cls-1" d="M297.92,157.62c4.39-.36,8.57-1.72,12.84-2.66.45-.1.89-.15,1.32-.15,1.23,0,1.59-.62,1.54-1.76-.06-1.3-.02-2.61-.01-3.92,0-.91-.03-1.8-1.31-1.74"/>
  <path class="cls-1" d="M303.15,66.81c0,7.77,0,15.54,0,23.52h-25.26"/>
  <path class="cls-1" d="M289.43,152.17c-5.98,1.02-11.88,2.45-17.83,3.6-.79.15-2,.58-2.64.59-2.04.02-2,1.29-2.16,2.56-.17,1.37.11,2.75-.19,4.14-.19.91,1.43,2.17,2.12,1.71,2.85-1.92,6.23-1.82,9.38-2.6,3.76-.93,7.56-1.69,11.33-2.6"/>
  <path class="cls-1" d="M237.82,425.25c-4.09-2.4-8.42-2.83-13.08-2.06-1.89.31-3.89.65-5.86.51-1.11-.08-1.93.49-2.83.9"/>
  <path class="cls-1" d="M353.02,242.11c-2.98-.1-5.97-.02-8.92.09-4,.15-7.98-.22-11.99.05-4.55.31-9.14.07-13.71.07"/>
  <path class="cls-1" d="M342.13,203.13c1.53.91,3.2.24,4.79.43.87.1,1.76-.11,2.83.17v14.21"/>
  <path class="cls-1" d="M300.32,100.35h-21.56"/>
  <path class="cls-1" d="M312.51,124.95c1.16,2.16.49,4.5.64,6.75.06.85-.95,1.2-1.3,1.24-4.8.47-9.3,2.53-14.15,2.68"/>
  <path class="cls-1" d="M264.39,399.55v49.21"/>
  <path class="cls-1" d="M331.02,219.68c-.38-.03-.76-.04-.87.1v20.81"/>
  <path class="cls-1" d="M255.68,203.35c-.7.35-1.45.21-2.18.21-6.61,0-13.21,0-19.82.02-.73,0-1.48-.18-2.4.23v14.13"/>
  <path class="cls-1" d="M299.88,53.31c-6.09.51-12.2.1-18.29.21-3.27.06-6.53.01-9.99.01-.39,4.19.54,8.46-.46,12.63"/>
  <path class="cls-1" d="M299.23,85.1h-20.03"/>
  <path class="cls-1" d="M238.69,220.55v20.03"/>
  <path class="cls-1" d="M113.7,406.52c2.32-.87,2.98-2.95,3.21-5.01.39-3.45-.06-6.82-2.12-9.8-1.87-2.7-4.88-2.74-6.53.01-2.88,4.83-1.36,12.02,2.17,14.37.86.57,1.69,1.27,2.83.65"/>
  <path class="cls-1" d="M308.38,271.94c-11.98,0-23.95,0-35.93.02-.72,0-1.49-.26-2.18.2"/>
  <path class="cls-1" d="M305.33,65.07c-7.69,0-15.39,0-23.08-.02-.72,0-1.49.26-2.18-.2"/>
  <path class="cls-1" d="M228.02,242.11c4.43,0,8.86.03,13.28,0,6.32-.06,12.63.34,18.95.23"/>
  <path class="cls-1" d="M268.31,82.71v18.73"/>
  <path class="cls-1" d="M306.85,65.94c0-3.48-.07-6.97.03-10.45.04-1.54-.45-2.1-1.99-1.99-1.52.11-3.05.02-4.57.02"/>
  <path class="cls-1" d="M329.06,136.06h-25.91"/>
  <path class="cls-1" d="M350.19,359.05v17.42"/>
  <path class="cls-1" d="M351.49,219.46c-4.86.5-9.73.08-14.59.21-.8.02-1.6,0-2.4,0"/>
  <path class="cls-1" d="M317.74,219.25c.35.7.21,1.45.21,2.18,0,6.82,0,13.65,0,20.47"/>
  <path class="cls-1" d="M249.15,263.23v16.11"/>
  <path class="cls-1" d="M110.21,390.62c-.25,1.72-1.25,3.2-1.35,5.01-.18,3.25.45,6.21,2.22,8.93.54.82,1.56,1.03,2.18,1.74"/>
  <path class="cls-1" d="M350.19,319.85v21.34"/>
  <path class="cls-1" d="M303.15,108.84c-6.24.02-12.49-.45-18.72-.13-3.28.17-6.55-.52-9.8.13"/>
  <path class="cls-1" d="M294,240.59h-15.24"/>
  <path class="cls-1" d="M275.28,66.81v15.03"/>
  <path class="cls-1" d="M304.89,107.32c0,1.74-.09,3.49.03,5.22.1,1.54-.45,2.01-1.99,1.99-5.95-.08-11.9-.03-17.86-.03s-12.49-.05-18.73.03c-1.69.02-2.33-.52-2.2-2.21.13-1.73.01-3.48.02-5.22"/>
  <path class="cls-1" d="M175.98,304.61c.01,1.59-1.06,2.81-1.4,4.34-.87,3.96.3,7.45,1.87,10.89.65,1.43,2.28,1.53,3.67.69,1.85-1.11,2.67-2.99,2.95-4.82.52-3.36.22-6.75-1.66-9.78-1.88-3.03-5.87-2.95-7.6.23-2.28,4.18-1.68,8.33.42,12.4"/>
  <path class="cls-1" d="M275.28,101.22c.24-1.52-.29-3.07.22-4.6.99-.66,2.11-.64,3.26-.64,7.11.03,14.23.01,21.34.01"/>
  <path class="cls-1" d="M238.69,203.13c0-1.09,0-2.19,0-3.49,5.23.06,10.24-.36,15.25.41.72.11,1.45.18,1.48.91.06,1.62,1.18,2.92,1.15,4.57-.07,4.21-.02,8.42-.02,12.63"/>
  <path class="cls-1" d="M281.37,208.36c-4.36,0-8.71,0-13.07,0-.65,0-1.2-.33-1.74-.65"/>
  <path class="cls-1" d="M117.18,294.37c1.5.36,2.08,1.74,2.55,2.86,1.24,2.97,1.97,6.11.9,9.33-.24.73-.15,1.32.04,1.97"/>
  <path class="cls-1" d="M150.28,352.08h-14.37"/>
  <path class="cls-1" d="M142.88,382.78v14.15"/>
  <path class="cls-1" d="M340.82,203.78c-.49,3.91-.08,7.84-.22,11.76-.03.8.15,1.62-.22,2.4"/>
  <path class="cls-1" d="M281.37,122.34c-4.66.48-9.33.86-13.94,1.74"/>
  <path class="cls-1" d="M311.43,189.41c-1.04,1.67-2.95,1.12-4.38,1.41-3.02.62-6.02,1.43-9.12,1.64"/>
  <path class="cls-1" d="M238.04,204c.1,4.65-.22,9.3.22,13.94"/>
  <path class="cls-1" d="M267.44,186.36c1.39,1.28,3.25.91,4.8.97,3.05.13,6.09.47,9.14.55"/>
  <path class="cls-1" d="M311.86,147.17c-1.31-1.25-3.08-.71-4.59-.99-3.06-.57-6.2-.91-9.35-.97"/>
  <path class="cls-1" d="M311.86,147.6c-2.77,1.24-5.82,1.26-8.73,1.89-3.68.79-7.42,1.38-11.1,2.23-.55.13-1.16.02-1.74.02"/>
  <path class="cls-1" d="M289.65,202.48v13.72"/>
  <path class="cls-1" d="M260.9,219.46v22.21"/>
  <path class="cls-1" d="M267,124.95c2.11,1.24,4.53.67,6.77.95,2.49.31,5.05.62,7.6.58"/>
  <path class="cls-1" d="M297.05,136.06c-4.97,1.05-10.03,1.54-15.05,2.26-4.23.61-8.45,1.13-12.62,2.06-.52.12-.74.43-1.08.69"/>
  <path class="cls-1" d="M289.65,138.67v33.1"/>
  <path class="cls-1" d="M301.41,387.36c-5.44.37-10.88.83-16.33,1.1-2.83.14-5.65.59-8.49.64"/>
  <path class="cls-1" d="M274.41,243.2v24.39"/>
  <path class="cls-1" d="M289.65,181.14v19.38"/>
  <path class="cls-1" d="M301.41,402.17c-5.16.34-10.3.81-15.46,1.1-3.12.18-6.24.53-9.36.64"/>
  <path class="cls-1" d="M281.37,211.41c-2.22.55-4.56-.19-7.01.74.18,1.91-.2,3.91.26,5.91"/>
  <path class="cls-1" d="M257.86,352.95v12.63"/>
  <path class="cls-1" d="M289.65,403.25v12.41"/>
  <path class="cls-1" d="M300.54,110.8h-12.19"/>
  <path class="cls-1" d="M297.27,114.94c0,2.98.03,5.95-.02,8.93-.02,1.12.1,2.21.45,3.27"/>
  <path class="cls-1" d="M321.44,108.19v11.98"/>
  <path class="cls-1" d="M281.16,166.33c-3.05-.22-6.1-.46-9.15-.64-.99-.06-1.97-.1-2.83-.67"/>
  <path class="cls-1" d="M338.21,217.94c.39-2.18-.7-3.16-2.83-2.83-1.37.21-2.77-.33-4.16.39-1.13.58-1.88,1.08-1.28,2.44"/>
  <path class="cls-1" d="M265.26,114.72c-.51,2.74-.14,5.52-.37,8.28-.16,1.92.68,2.27,2.11,1.3"/>
  <path class="cls-1" d="M241.74,255.83v11.32"/>
  <path class="cls-1" d="M323.62,211.84h-11.32"/>
  <path class="cls-1" d="M250.67,217.94c-.09-2.74-.16-2.82-2.83-2.83-.94,0-1.89,0-2.83,0q-2.83.01-2.83,2.83"/>
  <path class="cls-1" d="M251.76,421.33c0,3.19-.02,6.39.02,9.58,0,.43-.47,1.12.41,1.31"/>
  <path class="cls-1" d="M305.11,242.11c-.02,3.27-.14,6.54.03,9.8.28,5.23.1,10.45.18,15.68"/>
  <path class="cls-1" d="M289.65,116.03v10.89"/>
  <path class="cls-1" d="M301.41,75.52h-10.45"/>
  <path class="cls-1" d="M279.63,54.18v10.45"/>
  <path class="cls-1" d="M258.29,281.96v10.45"/>
  <path class="cls-1" d="M289.21,75.52h-10.45"/>
  <path class="cls-1" d="M341.48,281.09h-10.45"/>
  <path class="cls-1" d="M305.11,219.25c-.42,2.68-.2,5.37-.21,8.06-.02,4.79,0,9.58,0,14.37"/>
  <path class="cls-1" d="M274.19,225.56c-.01,2.54-.07,5.07.08,7.63.19,3.15.5,6.39-.08,9.57"/>
  <path class="cls-1" d="M281.81,138.67c.03,4.86-.22,9.73.22,14.59"/>
  <path class="cls-1" d="M297.92,211.62q4.36,0,4.36,4.36v1.96"/>
  <path class="cls-1" d="M285.73,103.83h-10.02"/>
  <path class="cls-1" d="M232.6,368.19h-9.58"/>
  <path class="cls-1" d="M297.92,185.06c3.18.45,6.4-.02,9.58.44"/>
  <path class="cls-1" d="M289.87,276.52c-.48,3.18-.09,6.39-.22,9.58"/>
  <path class="cls-1" d="M302.28,281.09h-9.58"/>
  <path class="cls-1" d="M302.28,239.28h-9.58"/>
  <path class="cls-1" d="M299.23,55.49v9.36"/>
  <path class="cls-1" d="M334.07,199.21c-1.61.6-3.32.68-5.01.88-2.12.24-2.56.89-2.18,3.04"/>
  <path class="cls-1" d="M287.47,281.53h-9.15"/>
  <path class="cls-1" d="M297.49,127.57c.11,4.57-.12,9.15.02,13.72.09,2.98-.27,5.96.2,8.93"/>
  <path class="cls-1" d="M289.21,244.07v8.71"/>
  <path class="cls-1" d="M311.86,120.38h-8.71"/>
  <path class="cls-1" d="M243.92,367.76h-8.27"/>
  <path class="cls-1" d="M281.59,161.76c.36,3.91.22,7.84.14,11.76,0,.45.25.87.08,1.31"/>
  <path class="cls-1" d="M379.8,338.14v12.19"/>
  <path class="cls-1" d="M295.75,80.75h-8.27"/>
  <path class="cls-1" d="M297.27,179.83c.34,4.36.05,8.72.1,13.06.06,5.08.02,10.16.11,15.24.05,2.68,0,5.37,0,8.06"/>
  <path class="cls-1" d="M289.65,128.87c.24,2.68-.52,5.42.44,8.06"/>
  <path class="cls-1" d="M281.81,184.4v11.32"/>
  <path class="cls-1" d="M317.74,239.28h-7.62"/>
  <path class="cls-1" d="M264.39,136.06h-13.5"/>
  <path class="cls-1" d="M281.81,114.94c0,4.5,0,9-.01,13.5,0,.4.15.73.23,1.09"/>
  <path class="cls-1" d="M297.05,158.27c-2.45.15-4.79.88-7.19,1.31"/>
  <path class="cls-1" d="M298.14,162.84c2.29.55,4.7-.18,6.96.74.13,1.08-.79,2.02-.65,3.18"/>
  <path class="cls-1" d="M279.2,64.85c-2.32.36-4.65.36-6.97,0"/>
  <path class="cls-1" d="M289.65,388.45v13.28"/>
  <path class="cls-1" d="M327.1,120.38h-12.63"/>
  <path class="cls-1" d="M297.05,192.9c-2.27.25-4.46.95-6.75,1.09"/>
  <path class="cls-1" d="M297.27,150.87c.49,3.18.06,6.39.23,9.58.21,3.77-.34,7.56.2,11.32"/>
  <path class="cls-1" d="M297.27,172.43c.63,2.07-.18,4.24.44,6.32"/>
  <path class="cls-1" d="M311.86,168.51c-.38-.51-.83-.81-1.52-.89-4.13-.44-8.26-.79-12.41-.64"/>
  <path class="cls-1" d="M289.65,173.73v5.88"/>
  <path class="cls-1" d="M264.82,420.46h5.66"/>
  <path class="cls-1" d="M277.45,82.71v13.07"/>
  <path class="cls-1" d="M300.54,90.77v10.45"/>
  <path class="cls-1" d="M281.59,204.22c.22,4.58.51,9.16-.22,13.72"/>
  <path class="cls-1" d="M273.97,102.09c.31,4.06.22,8.13.22,12.19"/>
  <path class="cls-1" d="M391.56,341.63v5.66"/>
  <path class="cls-1" d="M391.13,345.55h-3.05"/>
  <path class="cls-1" d="M353.24,325.08h-5.66"/>
  <path class="cls-1" d="M289.65,272.16v2.83"/>
  <path class="cls-1" d="M263.95,431.35h-2.61"/>
  <path class="cls-1" d="M292.26,395.63h-3.92"/>
  <path class="cls-1" d="M328.85,426.12h-3.92"/>
  <path class="cls-1" d="M316.65,437.01h2.18"/>
  <path class="cls-1" d="M243.92,199.65v2.18"/>
  <path class="cls-1" d="M379.37,346.42h-2.18"/>
  <path class="cls-1" d="M400.93,344.68h-1.96"/>
  <path class="cls-1" d="M135.47,310.27c-3.21.74-6.36,1.69-9.14,3.5-6.34,4.11-10.44,9.98-13.08,16.97-1.72,4.57-2.63,9.28-3.14,14.15-.43,4.09-.57,8.17-.27,12.2,1.15,15.19,6.28,28.58,18.67,38.31,5.53,4.35,11.95,6.22,18.92,5.41,5.32-.62,9.9-3.19,13.71-6.93,5.21-5.12,8.89-11.16,10.96-18.26,2.21-7.6,2.96-15.25,2.14-23.1-.85-8.08-2.76-15.77-6.93-22.89-4.28-7.31-9.88-13.16-17.48-16.93-4.43-2.2-9.24-2.72-14.14-2.42"/>
  <path class="cls-1" d="M176.2,300.25c-5.27,1.77-7.16,7.7-6.55,12.85.37,3.13,1.15,6.05,3.28,8.5,3.78,4.35,7.72,4.08,10.8-.5,3.76-5.59,2.72-12.82-.58-17.56-1.59-2.29-3.81-3.57-6.73-3.28"/>
  <path class="cls-1" d="M175.76,397.81c-4.68,2.52-7.24,7.71-6.29,13.06.66,3.74,1.88,7.27,5.21,9.58,1.97,1.37,4.97,1.18,6.74-.43,3.99-3.62,4.97-8.17,3.91-13.28-.3-1.45-.77-2.81-1.47-4.16-1.69-3.26-4.02-5.21-7.88-4.77"/>
</svg>