<svg width="500" height="500" viewBox="0 0 500 500" fill="none" xmlns="http://www.w3.org/2000/svg">
<path d="M167.36 370.459C165.811 368.865 166.473 366.199 168.587 365.514L250.733 338.91C251.54 338.649 252.419 338.741 253.154 339.165L295.793 363.714C298.023 364.998 297.708 368.31 295.275 369.15L205.923 400.009C205.028 400.318 204.039 400.186 203.255 399.653L181.251 384.671C181.084 384.557 180.929 384.427 180.788 384.282L167.36 370.459Z" fill="#FFDA00" fill-opacity="0.7"/>
<path d="M140 176V163C146.167 168.5 163.4 181.5 183 189.5C202.6 197.5 222.833 194.167 230.5 191.5C267.833 180.167 344 157 350 155C356 153 361.167 149.5 363 148V155C361.4 160.2 355 163.833 352 165C340.167 168.667 311.7 177.4 292.5 183C268.5 190 223.5 210 187.5 201.5C158.7 194.7 143.833 181.667 140 176Z" fill="#FFDA00" fill-opacity="0.7"/>
<path d="M140 225V212C146.167 217.5 163.4 230.5 183 238.5C202.6 246.5 222.833 243.167 230.5 240.5C267.833 229.167 344 206 350 204C356 202 361.167 198.5 363 197V204C361.4 209.2 355 212.833 352 214C340.167 217.667 311.7 226.4 292.5 232C268.5 239 223.5 259 187.5 250.5C158.7 243.7 143.833 230.667 140 225Z" fill="#FFDA00" fill-opacity="0.7"/>
<path d="M366.31 352.08C364.29 358.02 360.44 362.44 354.97 365.42C349.3 368.51 343.02 370.03 336.96 372.07C327.98 375.08 319.04 378.2 310.07 381.21C297.4 385.47 284.69 389.62 272.03 393.94C259.84 398.1 247.57 402 235.39 406.21C227.96 408.78 220.54 411.44 212.96 413.55C207.2 415.15 201.33 415.39 195.36 414.65C190.02 413.99 184.92 412.71 180.2 410.13C175.51 407.57 171.16 404.47 166.64 401.64C158.65 396.64 150.78 391.44 142.74 386.52C138.65 384.02 135.21 380.89 133.5 376.51C132.57 374.13 133.06 371.16 134.89 368.89C138.06 364.95 142.4 362.59 146.83 360.41C147.61 360.03 148.37 359.55 149.24 359.37" stroke="#2071B5" stroke-width="4.21" stroke-linecap="round" stroke-linejoin="round"/>
<path d="M196.79 98.3998C191.85 100.34 186.67 101.47 181.62 103.05C172.76 105.82 163.8 108.23 154.91 110.92C151.15 112.06 147.38 113.16 143.79 114.78C142.35 115.43 141.06 116.25 139.92 117.39C138.86 118.45 138.83 119.23 139.92 120.26C141.75 121.97 143.85 123.31 146.02 124.46C155.08 129.24 163.76 134.69 172.72 139.64C180.15 143.75 188.11 146.23 196.57 147.18C202.1 147.81 207.66 147.83 213.15 147.44C218.85 147.03 224.43 145.5 229.95 143.91C243.3 140.06 256.69 136.35 270.02 132.42C282.45 128.76 294.97 125.41 307.42 121.83C319.87 118.26 332.29 114.58 344.64 110.71C348.71 109.43 352.82 108.22 356.41 105.72C357.31 105.1 358.01 104.34 358.8 103.64C360.5 102.14 360.54 100.65 358.8 99.2198C356.21 97.0898 353.33 95.4198 350.33 93.9298C342.57 90.0598 334.68 86.4998 326.66 83.2098C317.89 79.6098 308.99 76.4598 299.55 75.1098C298.67 74.9798 297.81 74.6498 296.92 74.5298" stroke="#2071B5" stroke-width="4.21" stroke-linecap="round" stroke-linejoin="round"/>
<path d="M297.13 68.46C306 69.59 314.58 71.72 322.84 75.28C333.1 79.7 343.28 84.32 353.56 88.7C357.25 90.27 360.78 92.13 363.91 94.72C365.66 96.17 366.72 97.92 367.31 100.02C368.51 104.27 368.27 108.65 368.04 112.96C367.88 116.02 366.05 118.54 363.45 120.21C361.92 121.19 361.39 122.28 361.41 124.09C361.51 133.33 361.45 142.57 361.45 151.8V269.33C361.45 284.97 361.55 300.62 361.41 316.26C361.34 324.28 361.27 332.31 361.25 340.33C361.25 340.96 361.38 341.63 360.85 342.15" stroke="#2071B5" stroke-width="4.21" stroke-linecap="round" stroke-linejoin="round"/>
<path d="M139.34 137.24C138.37 139.07 139.01 141.03 138.99 142.9C138.87 151.93 138.94 160.97 138.94 170.01C138.94 177.02 138.94 184.04 138.94 191.05C138.94 196.92 138.88 202.78 138.94 208.65C139.38 245.2 139.11 281.74 139.06 318.29C139.05 326.98 138.9 335.69 138.67 344.38C138.5 350.72 138.64 357.06 138.51 363.4C138.5 363.96 138.64 364.48 138.72 365.02" stroke="#2071B5" stroke-width="4.21" stroke-linecap="round" stroke-linejoin="round"/>
<path d="M367.73 106.9C366.51 107.37 366.32 108.71 365.53 109.55C362.28 113.03 358.07 114.81 353.76 116.39C342.96 120.33 331.78 123 320.8 126.35C313.33 128.63 305.81 130.73 298.31 132.91C289.17 135.56 280.04 138.27 270.83 140.7C261.15 143.25 251.59 146.24 241.92 148.84C236.38 150.33 230.92 152.15 225.31 153.41C218.99 154.82 212.63 156.09 205.9 156.07" stroke="#2071B5" stroke-width="4.21" stroke-linecap="round" stroke-linejoin="round"/>
<path d="M361.46 121.06C361.13 120.71 360.8 120.21 360.25 120.47C351.57 124.53 342.23 126.55 333.13 129.35C322.32 132.67 311.42 135.71 300.58 138.92C292.15 141.42 283.7 143.85 275.25 146.26C264.08 149.44 252.91 152.64 241.7 155.69C236.65 157.06 231.62 158.49 226.53 159.73C220.87 161.11 215.13 161.9 209.33 162.32C208.25 162.4 207.19 162.72 205.89 162.47C205.89 160.45 205.89 158.36 205.89 156.15C202.8 155.85 199.69 156.09 196.58 155.74C191.03 155.11 185.75 153.78 180.59 151.66C172.49 148.32 165.1 143.66 157.37 139.63C152.75 137.22 148.22 134.59 143.57 132.24C139.48 130.17 136.23 127.19 133.76 123.45C132.99 122.28 133.39 120.43 133.65 118.85C134.58 113.19 138.39 110.18 143.4 108.58C153.72 105.28 164.14 102.29 174.53 99.1999C181.34 97.1699 188.16 95.18 194.98 93.18C195.64 92.99 195.99 92.18 196.8 92.35" stroke="#2071B5" stroke-width="4.21" stroke-linecap="round" stroke-linejoin="round"/>
<path d="M351.55 363.2C343.22 366.12 334.78 368.74 326.47 371.7C314.52 375.95 302.46 379.91 290.43 383.94C279.34 387.66 268.21 391.33 257.1 395.02C247.17 398.32 237.22 401.61 227.34 405.06C222.91 406.61 218.42 407.98 214.01 409.57C211.62 410.43 209.14 410.68 206.71 410.88C196.26 411.76 186.47 409.65 177.58 403.86C169.22 398.42 160.72 393.22 152.31 387.85C148.54 385.45 144.49 383.48 141.16 380.4C138.45 377.89 137.83 374.75 138.14 371.28C138.29 369.59 138.53 367.91 138.14 366.22" stroke="#2071B5" stroke-width="4.21" stroke-linecap="round" stroke-linejoin="round"/>
<path d="M352.15 337.11C355.2 339.09 358.43 340.75 361.49 342.72C364.36 344.56 366.3 346.59 366.62 350.25C366.82 352.54 366.99 354.84 367.13 357.14C367.52 363.54 364.57 367.92 359.01 370.68C354.75 372.79 350.13 373.97 345.68 375.59C336.49 378.96 327.17 381.98 317.92 385.17C310.75 387.65 303.54 390.04 296.31 392.35C287.7 395.1 279.14 398.03 270.61 401.02C263.67 403.45 256.68 405.77 249.76 408.27C246.18 409.56 246 410.34 245.34 413.36C244.76 416.04 243.56 421.22 243.84 424.1C244.2 427.87 245.74 430.86 248.78 432.97C254.81 437.15 261.07 440.98 267.39 444.71C270.04 446.27 272.73 447.74 275.66 448.82C280.69 450.67 285.63 450.25 290.43 448.33C297.47 445.52 304.6 442.97 311.69 440.29C320.99 436.77 330.38 433.5 339.61 429.78C342.67 428.55 344.95 426.73 345.45 423.28C345.53 422.75 345.73 422.07 345.07 421.66" stroke="#2071B5" stroke-width="4.21" stroke-linecap="round" stroke-linejoin="round"/>
<path d="M133.28 376.75C132.79 379.86 132.73 383.01 133.53 386.04C134.43 389.45 137.14 391.45 139.94 393.35C151.26 401.03 163.06 407.96 174.58 415.32C178.89 418.07 183.77 419.65 188.9 420.49C192.67 421.11 196.44 421.5 200.24 421.62C208.37 421.87 216.14 419.93 223.69 417.16C230.74 414.58 237.94 412.43 244.96 409.76C245.44 409.58 246.16 409.18 246.76 409.72" stroke="#2071B5" stroke-width="4.21" stroke-linecap="round" stroke-linejoin="round"/>
<path d="M244.54 419.84C245.99 424.33 249.44 427.01 253.24 429.35C260.89 434.05 268.56 438.73 276.54 442.84C280.03 444.64 283.84 445.09 287.85 443.77C293.78 441.83 299.57 439.53 305.42 437.42C315.03 433.95 324.57 430.27 334.14 426.68C337.32 425.49 340.71 424.66 343.46 422.47C345.46 420.88 345.64 419.12 344.07 417C342.44 414.8 340.06 413.69 337.81 412.33C331.57 408.57 325.27 404.9 318.97 401.25C318.09 400.74 317.98 400.09 317.95 399.21C317.82 394.62 318.31 390.04 318.17 385.45" stroke="#2071B5" stroke-width="4.21" stroke-linecap="round" stroke-linejoin="round"/>
<path d="M183.04 112.36C183.04 113.17 181.22 118.42 180.82 119.23C178.8 123.28 181.22 134.87 187.69 136.49C204.28 140.54 248.7 143.53 242.14 118.27" stroke="#2071B5" stroke-width="4.21" stroke-linecap="round" stroke-linejoin="round"/>
<path d="M267.6 84.2402C263.6 85.6502 260.19 87.8602 257.9 91.5302C257.04 92.9102 255.46 93.5402 254.63 94.9502C253.04 97.6602 253.06 100.7 252.61 103.66C251.81 108.89 254.64 111.85 258.89 113.98C263.36 116.23 268.13 117.31 273.05 118.07C279.42 119.05 285.76 119.06 292.07 117.99C298.48 116.9 304.6 115.15 309.52 110.39C312.53 107.48 312.98 104.07 312.22 100.45C311.69 97.9502 311.17 95.2702 309.1 93.3202C308.53 92.7802 308.16 92.0902 307.25 92.1402" stroke="#2071B5" stroke-width="4.21" stroke-linecap="round" stroke-linejoin="round"/>
<path d="M292.48 225.04C283.72 227.99 274.82 230.46 265.97 233.1C257.5 235.62 249.05 238.2 240.5 240.45C233.63 242.26 226.68 243.61 219.65 244.38C215.11 244.88 210.5 245 205.9 244.87" stroke="#2071B5" stroke-width="4.21" stroke-linecap="round" stroke-linejoin="round"/>
<path d="M292.48 286.94C288.12 287.18 283.87 288.18 279.76 289.44C267.73 293.12 255.7 296.8 243.71 300.63C236.07 303.06 228.37 305.34 220.66 307.53C209.98 310.55 199.36 313.75 188.72 316.91C186.46 317.58 184.18 318.29 182.04 319.21V322.15" stroke="#2071B5" stroke-width="4.21" stroke-linecap="round" stroke-linejoin="round"/>
<path d="M292.48 237.58C288.69 238.01 285.02 239.01 281.35 239.99C273.41 242.12 265.57 244.58 257.68 246.87C251.14 248.77 244.62 250.72 238.07 252.59C233.35 253.94 228.7 255.54 223.9 256.59" stroke="#2071B5" stroke-width="4.21" stroke-linecap="round" stroke-linejoin="round"/>
<path d="M320.39 174.67C316.92 175.57 313.53 176.77 310.07 177.7C301.12 180.09 292.26 182.81 283.38 185.43C273.64 188.3 263.93 191.28 254.21 194.2C245.92 196.69 237.63 199.26 229.17 201.25C220.94 203.18 212.7 203.92 204.27 203.45C198.81 203.14 193.4 202.61 188.1 201.36C181.6 199.82 175.37 197.47 169.28 194.72C162.83 191.81 156.4 188.91 150.47 185" stroke="#2071B5" stroke-width="4.21" stroke-linecap="round" stroke-linejoin="round"/>
<path d="M299.36 141.69C295.83 142.3 292.48 143.59 289.05 144.54C280.06 147.03 271.1 149.63 262.14 152.2C252.64 154.92 243.09 157.48 233.6 160.22C230.41 161.14 227.16 161.97 223.91 162.72" stroke="#2071B5" stroke-width="4.21" stroke-linecap="round" stroke-linejoin="round"/>
<path d="M314.93 166.17C309.62 167.55 304.42 169.29 299.15 170.8C289.08 173.69 279.03 176.66 269.02 179.72C257.62 183.21 246.16 186.5 234.8 190.14C231.23 191.28 227.49 192.19 223.7 192.66" stroke="#2071B5" stroke-width="4.21" stroke-linecap="round" stroke-linejoin="round"/>
<path d="M320.19 318.7C315.02 316.74 309.63 315.52 304.2 314.73C299.47 314.04 294.64 313.95 289.85 314.45C282.07 315.27 274.76 317.88 267.39 320.3C258.52 323.21 249.59 325.97 240.69 328.8C235.57 330.42 230.45 332.07 225.33 333.69C224.86 333.84 224.43 334.12 223.91 334.08" stroke="#2071B5" stroke-width="4.21" stroke-linecap="round" stroke-linejoin="round"/>
<path d="M314.93 176.49C315.36 176.91 315.12 177.44 315.12 177.91C315.14 198 315.13 218.1 315.13 238.19C315.13 256.73 315.13 275.28 315.13 293.82C315.13 294.1 314.99 294.43 315.47 294.71C307.63 297.37 299.84 299.82 292.06 302.3C286.59 304.04 281.14 305.81 275.67 307.56C262.26 311.84 248.83 316.06 235.41 320.31C231.59 321.52 227.71 322.54 223.88 323.77" stroke="#2071B5" stroke-width="4.21" stroke-linecap="round" stroke-linejoin="round"/>
<path d="M292.28 319.51C284.41 319.95 276.87 321.9 269.41 324.34C258.99 327.75 248.53 331.02 238.08 334.33C233.35 335.83 228.6 337.32 223.9 338.93" stroke="#2071B5" stroke-width="4.21" stroke-linecap="round" stroke-linejoin="round"/>
<path d="M291.67 277.23C289.04 278.17 286.26 278.52 283.56 279.17C277.63 280.6 271.8 282.35 266 284.16C254.52 287.75 242.96 291.09 231.57 294.95C229.09 295.79 226.53 296.62 223.71 297.12C223.69 295.77 223.71 294.49 223.71 293.2C223.71 274.99 223.79 256.79 223.67 238.58C223.62 230.29 223.33 221.99 223.55 213.7C223.79 204.93 223.56 196.17 223.69 187.4C223.69 186.73 223.93 186.02 223.5 185.38" stroke="#2071B5" stroke-width="4.21" stroke-linecap="round" stroke-linejoin="round"/>
<path d="M319.99 402.45C316.72 404.29 313.13 405.39 309.65 406.62C298.91 410.42 288.28 414.5 277.52 418.23C269.12 421.15 260.79 424.27 252.43 427.33" stroke="#2071B5" stroke-width="4.21" stroke-linecap="round" stroke-linejoin="round"/>
<path d="M314.73 399.82C305.73 403.22 296.66 406.42 287.62 409.73C280.75 412.25 273.84 414.66 266.98 417.2C261.68 419.16 256.37 421.1 251.02 422.94C250.34 423.17 249.65 423.27 248.77 423.65C248.77 419.65 248.77 412.5 248.77 408.65" stroke="#2071B5" stroke-width="4.21" stroke-linecap="round" stroke-linejoin="round"/>
<path d="M282.16 356.32C280.55 357.77 278.39 357.87 276.48 358.48C271.14 360.19 265.87 362.14 260.51 363.76C251.11 366.6 241.94 370.1 232.61 373.11C226.79 374.99 220.99 376.98 215.18 378.86C212.24 379.81 195.38 384.13 192.19 384.24" stroke="#2071B5" stroke-width="4.21" stroke-linecap="round" stroke-linejoin="round"/>
<path d="M181.62 119.64C180.97 124.76 181.32 127.8 187.26 131.21C193.45 134.76 200.14 135.86 207.11 136.03C212.83 136.17 218.54 135.97 224.09 134.57C229.57 133.19 235.12 131.8 239.26 127.52C241.26 125.45 242.05 122.93 241.5 120.05" stroke="#2071B5" stroke-width="4.21" stroke-linecap="round" stroke-linejoin="round"/>
<path d="M159.98 190.65C156.6 192.17 153.03 193.3 149.86 195.28C149.88 196.38 149.86 197.46 149.86 198.54C149.86 225.24 149.9 251.94 149.84 278.65C149.82 286.74 150.17 294.84 149.66 302.92C149.59 304.05 150.06 304.65 151.07 305.17C154.71 307.08 158.17 309.3 161.81 311.21" stroke="#2071B5" stroke-width="4.21" stroke-linecap="round" stroke-linejoin="round"/>
<path d="M313.31 87.4699C307.65 85.6599 302.39 84.0399 296.72 82.6299" stroke="#2071B5" stroke-width="4.21" stroke-linecap="round" stroke-linejoin="round"/>
<path d="M354.58 106.29C350.18 102.95 345.18 100.55 340.13 98.3899C334.75 96.0899 329.35 93.8199 323.94 91.5899C320.85 90.3199 317.74 89.0599 314.6 87.9199" stroke="#2071B5" stroke-width="4.21" stroke-linecap="round" stroke-linejoin="round"/>
<path d="M296.93 78.7798C304.59 80.2998 311.95 82.6198 319.24 85.5198C328.35 89.1398 337.43 92.8398 346.47 96.6298C349.32 97.8198 352.01 99.4398 354.78 100.83" stroke="#2071B5" stroke-width="4.21" stroke-linecap="round" stroke-linejoin="round"/>
<path d="M133.68 123.89C132.96 128.47 133.65 132.33 137.88 135.29C142.42 138.47 147.42 140.8 152.11 143.69C159.2 148.07 166.38 152.32 173.95 155.83C181.26 159.22 188.86 161.62 197 162.19C199.91 162.39 202.8 162.49 205.89 162.54C205.89 163.34 205.74 164.15 205.74 164.96C205.78 172.78 205.45 180.61 205.9 188.43" stroke="#2071B5" stroke-width="4.21" stroke-linecap="round" stroke-linejoin="round"/>
<path d="M311.09 395.37C304.52 397.46 298.15 400.11 291.68 402.49C278.87 407.21 266.06 411.93 253.21 416.56C251.85 417.05 250.52 417.84 248.98 417.83" stroke="#2071B5" stroke-width="4.21" stroke-linecap="round" stroke-linejoin="round"/>
<path d="M188.91 106.29C188.31 107.36 187.18 107.94 186.49 108.92C184.26 112.07 184.73 114.88 186.73 117.38C188.8 119.97 191.67 121.53 194.78 122.68C200.93 124.96 207.33 125.79 213.8 125.44C220.9 125.06 227.91 123.87 234.02 119.82C236.85 117.95 239.21 115.64 239.49 111.95" stroke="#2071B5" stroke-width="4.21" stroke-linecap="round" stroke-linejoin="round"/>
<path d="M352.76 206.43C352.35 206.38 352.02 206.53 351.74 206.84C352.02 207.55 351.95 208.31 351.95 209.06C351.95 224.84 351.95 240.62 351.95 256.4V295.85C351.95 304.41 351.95 312.98 351.96 321.54C351.96 322.14 351.7 322.8 352.15 323.36" stroke="#2071B5" stroke-width="4.21" stroke-linecap="round" stroke-linejoin="round"/>
<path d="M302.06 367.65C293.54 362.73 266.83 346.62 258.33 341.68C251.71 337.83 245.71 339.31 239.94 342.87C237.24 344.54 165.58 362.65 163.76 368.76" stroke="#2071B5" stroke-width="4.21" stroke-linecap="round" stroke-linejoin="round"/>
<path d="M296.93 87.0698C300.47 87.4198 303.52 88.9898 306.2 91.1598C308.36 92.8998 308.36 96.1798 306.65 98.4098C302.91 103.28 297.62 105.16 291.88 106.31C281.91 108.29 272.32 107.44 263.15 102.86C262.05 102.31 261.07 101.62 260.1 100.85C258.19 99.3298 257.13 97.4598 257.27 94.9698C257.31 94.3598 257.38 93.7298 257.08 93.1498" stroke="#2071B5" stroke-width="4.21" stroke-linecap="round" stroke-linejoin="round"/>
<path d="M196.59 102.65C194.28 103.89 191.54 104.26 189.51 106.09C185.31 106.23 181.55 108.1 177.59 109.17C170.42 111.1 163.28 113.16 156.15 115.24C152.59 116.27 148.94 117.05 145.6 118.81C144.67 119.3 143.7 119.72 142.78 120.26" stroke="#2071B5" stroke-width="4.21" stroke-linecap="round" stroke-linejoin="round"/>
<path d="M301.49 367.99C294.09 370.41 277.78 376.64 270.42 379.15C263.28 381.59 256.13 384.03 248.99 386.47C240.76 389.28 232.41 391.76 224.31 394.95" stroke="#2071B5" stroke-width="4.21" stroke-linecap="round" stroke-linejoin="round"/>
<path d="M231.17 104.07C233.21 109.83 229.65 113.1 226.72 114.78C222.22 117.36 217.33 118.37 212.16 118.46C207.2 118.55 202.31 118.28 197.81 115.98C194.97 114.52 190.98 110.6 193.71 104.48" stroke="#2071B5" stroke-width="4.21" stroke-linecap="round" stroke-linejoin="round"/>
<path d="M268 74.3301C262.81 76.4501 257.33 77.6701 252 79.3301C246.42 81.0701 240.83 82.7901 235.22 84.4201C231.9 85.3901 228.63 86.4901 225.31 87.4801" stroke="#2071B5" stroke-width="4.21" stroke-linecap="round" stroke-linejoin="round"/>
<path d="M267.8 80.7998C263.83 81.4398 260.1 82.9198 256.27 84.0498C247.04 86.7798 237.79 89.4398 228.55 92.1098C227.52 92.4098 226.55 92.8398 225.52 93.1398" stroke="#2071B5" stroke-width="4.21" stroke-linecap="round" stroke-linejoin="round"/>
<path d="M306.03 179.12C306.03 192.4 306.03 205.69 306.04 218.97C306.04 219.64 305.8 220.35 306.23 220.99" stroke="#2071B5" stroke-width="4.21" stroke-linecap="round" stroke-linejoin="round"/>
<path d="M320.6 135.62C321.06 137.21 320.91 138.87 320.95 140.48C321.24 151.67 320.92 162.87 320.92 174.06C320.92 180.46 320.89 186.87 320.82 193.28C320.75 200.36 320.86 207.44 320.62 214.52C320.6 215.19 320.38 215.9 320.8 216.54" stroke="#2071B5" stroke-width="4.21" stroke-linecap="round" stroke-linejoin="round"/>
<path d="M292.68 183.16V275C292.68 283.29 292.68 291.59 292.69 299.88C292.69 300.55 292.45 301.26 292.88 301.9" stroke="#2071B5" stroke-width="4.21" stroke-linecap="round" stroke-linejoin="round"/>
<path d="M205.9 188.83C205.46 191.31 205.73 193.82 205.72 196.31C205.67 211.48 205.7 226.65 205.7 241.83C205.7 247.9 205.7 253.97 205.71 260.04C205.71 260.64 205.45 261.3 205.9 261.86" stroke="#2071B5" stroke-width="4.21" stroke-linecap="round" stroke-linejoin="round"/>
<path d="M320.6 216.94V279.45C320.6 282.82 320.6 286.19 320.6 289.56C320.6 290.26 320.75 290.99 320.2 291.58" stroke="#2071B5" stroke-width="4.21" stroke-linecap="round" stroke-linejoin="round"/>
<path d="M205.7 262.46C205.7 278.17 205.7 293.88 205.71 309.59C205.71 310.26 205.47 310.97 205.9 311.61" stroke="#2071B5" stroke-width="4.21" stroke-linecap="round" stroke-linejoin="round"/>
<path d="M306.03 221.6C306.03 239.27 306.03 256.93 306.03 274.6C306.03 275.48 306.09 276.37 305.83 277.23" stroke="#2071B5" stroke-width="4.21" stroke-linecap="round" stroke-linejoin="round"/>
<path d="M233.81 125.31C227.67 128.82 220.97 130.32 213.98 130.54C208.21 130.72 202.43 130.75 196.79 129.16C192.88 128.05 189.12 126.69 185.83 124.15C184.07 122.79 183.19 120.85 181.83 119.24C181.26 118.57 182.32 117.7 181.62 117.02" stroke="#2071B5" stroke-width="4.21" stroke-linecap="round" stroke-linejoin="round"/>
<path d="M185.67 200.96V268.07C175.47 271.04 165.09 274.19 154.92 278.03" stroke="#2071B5" stroke-width="4.21" stroke-linecap="round" stroke-linejoin="round"/>
<path d="M185.67 268.53C185.67 281.81 185.67 295.1 185.69 308.58C179.4 310.12 173.03 312.23 166.69 314.37C160.13 316.58 153.32 318.22 147.22 321.71C146.11 322.35 145.09 323.11 144 323.75" stroke="#2071B5" stroke-width="4.21" stroke-linecap="round" stroke-linejoin="round"/>
<path d="M298.55 88.6899C298.96 93.0699 297.32 95.6299 292.47 97.3599C284.36 100.24 276.46 99.3499 268.82 95.5699C267.59 94.9599 266.67 93.9399 265.81 92.9199C265.42 92.4499 264.84 91.7299 265.78 91.1199" stroke="#2071B5" stroke-width="4.21" stroke-linecap="round" stroke-linejoin="round"/>
<path d="M182.23 199.95C181.8 200.59 182.04 201.3 182.04 201.97C182.02 213.57 182.03 225.17 182.02 236.76C182.02 237.5 182.16 238.27 181.82 238.99" stroke="#2071B5" stroke-width="4.21" stroke-linecap="round" stroke-linejoin="round"/>
<path d="M182.03 269.34C182.31 270.06 182.23 270.82 182.23 271.57C182.23 283.03 182.21 294.5 182.26 305.96C182.26 307.11 181.66 308.25 182.23 309.4" stroke="#2071B5" stroke-width="4.21" stroke-linecap="round" stroke-linejoin="round"/>
<path d="M184.86 111.55C180.86 112.29 177.02 113.68 173.14 114.83C165.66 117.06 158.13 119.15 150.67 121.44C148.89 121.99 147.2 122.75 145.42 123.28" stroke="#2071B5" stroke-width="4.21" stroke-linecap="round" stroke-linejoin="round"/>
<path d="M253.44 100.63C255.23 105.18 259.03 107.74 263.19 109.43C267.84 111.32 272.86 112.17 277.91 112.59C285.41 113.22 292.66 112.11 299.76 109.74" stroke="#2071B5" stroke-width="4.21" stroke-linecap="round" stroke-linejoin="round"/>
<path d="M268 369.27C261.13 371.51 254.2 373.59 247.38 375.99C239.7 378.7 231.92 381.12 224.27 383.93C220.6 385.28 216.9 386.63 213.18 387.87" stroke="#2071B5" stroke-width="4.21" stroke-linecap="round" stroke-linejoin="round"/>
<path d="M329.3 331.04C326.43 331.48 323.74 332.6 321.03 333.53C308.71 337.74 296.12 341.05 283.76 345.13C279.74 346.46 275.66 347.65 271.65 349.05" stroke="#2071B5" stroke-width="4.21" stroke-linecap="round" stroke-linejoin="round"/>
<path d="M259.5 88.6899C257.57 88.4599 255.81 89.2499 254.05 89.7499C245.33 92.1799 236.65 94.7099 227.93 97.1599C227.18 97.3699 226.28 97.5199 225.51 96.9899" stroke="#2071B5" stroke-width="4.21" stroke-linecap="round" stroke-linejoin="round"/>
<path d="M269.62 349.45C254.54 354.24 239.46 359.04 224.51 364.21C224.39 364.25 224.24 364.21 224.11 364.21" stroke="#2071B5" stroke-width="4.21" stroke-linecap="round" stroke-linejoin="round"/>
<path d="M351.75 125.71C347.18 127.5 342.46 128.89 337.77 130.3C333.42 131.61 329.08 132.99 324.65 134.04C321.5 134.79 318.57 136.34 315.33 136.83" stroke="#2071B5" stroke-width="4.21" stroke-linecap="round" stroke-linejoin="round"/>
<path d="M351.55 207.03C345.39 209.88 338.8 211.39 332.33 213.29C326.74 214.93 321.16 216.61 315.54 218.16" stroke="#2071B5" stroke-width="4.21" stroke-linecap="round" stroke-linejoin="round"/>
<path d="M286.41 166.37C283.01 166.99 279.79 168.24 276.52 169.26C270.04 171.27 263.47 172.98 257.08 175.26C256.78 175.37 256.41 175.27 256.07 175.27" stroke="#2071B5" stroke-width="4.21" stroke-linecap="round" stroke-linejoin="round"/>
<path d="M351.55 154.64C347.37 156.82 342.85 158.11 338.39 159.44C332.7 161.14 327.01 162.83 321.21 164.14" stroke="#2071B5" stroke-width="4.21" stroke-linecap="round" stroke-linejoin="round"/>
<path d="M185.87 318.29C185.78 327.6 186.02 336.9 185.73 346.36C181.43 348.25 176.71 349.48 172.1 351.04C165.79 353.17 159.47 355.24 153.3 357.76C152.23 358.2 151.06 358.34 150.05 358.95" stroke="#2071B5" stroke-width="4.21" stroke-linecap="round" stroke-linejoin="round"/>
<path d="M173.13 234.75C176.18 236.27 179.23 237.8 182.03 239.2C182.03 249.25 181.97 259.09 182.23 268.94" stroke="#2071B5" stroke-width="4.21" stroke-linecap="round" stroke-linejoin="round"/>
<path d="M252.83 176.49C249.46 177.21 246.21 178.34 242.92 179.33C236.99 181.1 231.03 182.78 225.12 184.59C220.47 186.02 215.79 187.31 210.96 188.05C201.85 189.45 192.81 189.44 183.84 187.04C183.31 186.9 182.92 186.57 182.43 186.41" stroke="#2071B5" stroke-width="4.21" stroke-linecap="round" stroke-linejoin="round"/>
<path d="M320.39 293.61C320.26 293.93 320.6 294.13 320.59 294.42C320.59 302.38 320.59 310.33 320.56 318.29C320.56 318.43 320.32 318.56 320.48 318.89C331.5 323.31 340.98 330.76 351.33 336.7" stroke="#2071B5" stroke-width="4.21" stroke-linecap="round" stroke-linejoin="round"/>
<path d="M181.83 319.3C176.39 320.9 171.06 322.91 165.62 324.48C160.19 326.05 154.95 327.99 149.86 330.42" stroke="#2071B5" stroke-width="4.21" stroke-linecap="round" stroke-linejoin="round"/>
<path d="M250.6 112.16C252.22 114.79 257.59 117.59 260.43 118.8C266.5 121.23 312.54 131.88 312.54 103.85" stroke="#2071B5" stroke-width="4.21" stroke-linecap="round" stroke-linejoin="round"/>
<path d="M255.05 93.7499C253.6 93.2799 252.28 94.0199 251.02 94.4099C243.66 96.6799 236.26 98.8099 228.95 101.22C228.71 101.3 228.41 101.23 228.14 101.23" stroke="#2071B5" stroke-width="4.21" stroke-linecap="round" stroke-linejoin="round"/>
<path d="M351.75 308.38C346.85 306.15 342.31 303.26 337.58 300.71C333.76 298.65 330.19 296.1 326.06 294.62" stroke="#2071B5" stroke-width="4.21" stroke-linecap="round" stroke-linejoin="round"/>
<path d="M315.13 136.03V176.08" stroke="#2071B5" stroke-width="4.21" stroke-linecap="round" stroke-linejoin="round"/>
<path d="M182.23 322.54V347.62" stroke="#2071B5" stroke-width="4.21" stroke-linecap="round" stroke-linejoin="round"/>
<path d="M157.75 178.51C162.54 181.53 167.59 184.09 172.77 186.29C175.73 187.55 178.53 189.37 181.83 189.84" stroke="#2071B5" stroke-width="4.21" stroke-linecap="round" stroke-linejoin="round"/>
<path d="M178.79 160.71C181.39 161.1 183.74 162.34 186.61 162.88C185.27 163.92 183.94 163.69 182.84 163.49C176.09 162.3 169.53 160.43 163.43 157.24C162.09 156.54 160.06 155.82 158.36 154.84" stroke="#2071B5" stroke-width="4.21" stroke-linecap="round" stroke-linejoin="round"/>
<path d="M185.67 163.94V187.41" stroke="#2071B5" stroke-width="4.21" stroke-linecap="round" stroke-linejoin="round"/>
<path d="M351.75 124.09C352.27 125.44 351.71 126.79 351.75 128.14C352.23 140.07 352.03 152.01 352.04 163.95C352.05 177.43 352.07 190.92 351.96 204.41C351.96 205.08 351.72 205.79 352.15 206.43" stroke="#2071B5" stroke-width="4.21" stroke-linecap="round" stroke-linejoin="round"/>
<path d="M182.23 163.54C181.78 164.46 182.05 165.43 182.04 166.37C182.01 174.26 182.02 182.15 182.02 190.06C183.06 190.51 184.16 190.78 185.26 191.05" stroke="#2071B5" stroke-width="4.21" stroke-linecap="round" stroke-linejoin="round"/>
<path d="M223.7 161.92V184.98" stroke="#2071B5" stroke-width="4.21" stroke-linecap="round" stroke-linejoin="round"/>
<path d="M220.87 68.06C220.66 66.01 221.48 63.77 219.27 62.16C216.73 60.31 213.88 59.88 210.97 60.26C209.79 60.41 208.5 60.77 207.28 61.28C204.89 62.28 204.47 64.13 204.31 66.23C204.19 67.84 204.4 69.47 204.26 71.08C204.09 73.04 205.02 74.1 206.72 74.72C211.12 76.35 215.42 75.9 219.67 74.12C221.31 73.44 221 71.85 221.18 70.65C221.28 69.99 221.36 68.99 220.88 68.24" fill="#FFDA00" fill-opacity="0.7"/>
<path d="M220.87 68.06C220.66 66.01 221.48 63.77 219.27 62.16C216.73 60.31 213.88 59.88 210.97 60.26C209.79 60.41 208.5 60.77 207.28 61.28C204.89 62.28 204.47 64.13 204.31 66.23C204.19 67.84 204.4 69.47 204.26 71.08C204.09 73.04 205.02 74.1 206.72 74.72C211.12 76.35 215.42 75.9 219.67 74.12C221.31 73.44 221 71.85 221.18 70.65C221.28 69.99 221.36 68.99 220.88 68.24" stroke="#2071B5" stroke-width="4.21" stroke-linecap="round" stroke-linejoin="round"/>
<path d="M351.55 164.75C347.25 166.97 342.6 168.24 337.99 169.57C335.45 170.3 332.95 171.19 330.34 171.74C329.45 171.92 328.83 171.76 328.09 171.63" stroke="#2071B5" stroke-width="4.21" stroke-linecap="round" stroke-linejoin="round"/>
<path d="M306.23 139.27C305.94 139.71 306.03 140.21 306.03 140.69C306.03 149.66 306.03 158.63 306.03 167.59C306.03 167.87 305.89 168.2 306.23 168.4" stroke="#2071B5" stroke-width="4.21" stroke-linecap="round" stroke-linejoin="round"/>
<path d="M238.08 401.37C233.51 400.24 227.8 396.88 223.76 394.94C216.96 397.09 210.49 400.42 203.06 400.02" stroke="#2071B5" stroke-width="4.21" stroke-linecap="round" stroke-linejoin="round"/>
<path d="M310.68 424.5C305.62 422.15 300.35 421.74 294.9 422.65C293.35 422.91 292.03 423.49 290.86 424.5" stroke="#2071B5" stroke-width="4.21" stroke-linecap="round" stroke-linejoin="round"/>
<path d="M185.87 240.82C190.34 242.7 195.07 243.41 199.83 244.07C201.71 244.33 203.62 244.36 205.5 244.66" stroke="#2071B5" stroke-width="4.21" stroke-linecap="round" stroke-linejoin="round"/>
<path d="M186.07 191.46C192.91 193.14 199.82 194.16 206.91 194.14C212.14 194.12 217.32 193.85 222.49 193.08" stroke="#2071B5" stroke-width="4.21" stroke-linecap="round" stroke-linejoin="round"/>
<path d="M223.29 334.48C219.65 335.34 216.13 336.61 212.59 337.78C205.12 340.25 197.5 342.25 190.1 344.96C188.79 345.44 187.53 346.17 186.07 346.22" stroke="#2071B5" stroke-width="4.21" stroke-linecap="round" stroke-linejoin="round"/>
<path d="M223.29 257C210.85 260.55 198.55 264.53 186.07 267.92" stroke="#2071B5" stroke-width="4.21" stroke-linecap="round" stroke-linejoin="round"/>
<path d="M292.68 143.72C292.68 152.62 292.68 161.52 292.69 170.42C292.69 171.09 292.45 171.8 292.88 172.44" stroke="#2071B5" stroke-width="4.21" stroke-linecap="round" stroke-linejoin="round"/>
<path d="M224.71 76.9701C221.08 78.0601 220.59 79.5001 216.76 79.1701C213.79 78.9201 207.99 80.1801 205.21 78.6301C204.31 78.1301 201.38 76.4001 200.24 76.3501" stroke="#2071B5" stroke-width="4.21" stroke-linecap="round" stroke-linejoin="round"/>
<path d="M358.02 318.9C356.44 321.18 354.04 322.39 351.95 323.66C351.95 337.98 351.75 348.58 351.75 362.81" stroke="#2071B5" stroke-width="4.21" stroke-linecap="round" stroke-linejoin="round"/>
<path d="M185.87 323.55C190.17 325.18 194.68 325.8 199.22 326.15C201.3 326.31 203.4 326.49 205.49 326.18" stroke="#2071B5" stroke-width="4.21" stroke-linecap="round" stroke-linejoin="round"/>
<path d="M223.5 162.73C220.13 163.18 216.8 163.87 213.39 164.19C207.31 164.76 201.25 164.65 195.18 164.32C192.67 164.18 190.19 163.65 187.69 163.34" stroke="#2071B5" stroke-width="4.21" stroke-linecap="round" stroke-linejoin="round"/>
<path d="M351.55 282.08C345.98 284.85 340.08 286.75 334.15 288.54C333.86 288.63 333.75 288.83 333.55 288.96" stroke="#2071B5" stroke-width="4.21" stroke-linecap="round" stroke-linejoin="round"/>
<path d="M223.5 323.75C217.74 325.33 211.91 326.38 205.9 326.18" stroke="#2071B5" stroke-width="4.21" stroke-linecap="round" stroke-linejoin="round"/>
<path d="M223.29 339.33C217.99 340.82 212.79 342.63 207.52 344.22C206.95 344.39 206.43 344.28 205.89 344.39" stroke="#2071B5" stroke-width="4.21" stroke-linecap="round" stroke-linejoin="round"/>
<path d="M223.29 364.62C218.18 366.21 213.14 368.06 207.92 369.29C207.24 369.45 184.23 375.78 183.55 375.79" stroke="#2071B5" stroke-width="4.21" stroke-linecap="round" stroke-linejoin="round"/>
<path d="M223.29 353.69C219.06 354.52 215.1 356.22 210.96 357.37C209.35 357.82 178.53 367.49 176.85 367.65" stroke="#2071B5" stroke-width="4.21" stroke-linecap="round" stroke-linejoin="round"/>
<path d="M221.68 71.2998C224.04 72.2398 225.13 73.6798 225.1 76.1498C225.05 80.2598 225.22 84.3698 224.96 88.4898C224.77 91.4398 225.16 94.4198 225.25 97.3798C225.35 100.76 223.38 102.27 221.04 103.39C216.73 105.45 212.05 105.88 207.32 105.24C205.96 105.06 204.53 104.94 203.27 104.26" stroke="#2071B5" stroke-width="4.21" stroke-linecap="round" stroke-linejoin="round"/>
<path d="M206.71 302.31C212.36 300.79 217.93 299.01 223.7 297.19C223.7 308.78 223.68 320.31 223.72 331.84C223.74 336.16 223.44 340.48 223.91 344.79" stroke="#2071B5" stroke-width="4.21" stroke-linecap="round" stroke-linejoin="round"/>
<path d="M315.13 295.23C315.13 297.66 314.93 300.09 314.97 302.51C315.13 311.68 314.41 320.85 314.85 330.03C314.94 331.81 314.83 333.67 314.72 335.49" stroke="#2071B5" stroke-width="4.21" stroke-linecap="round" stroke-linejoin="round"/>
<path d="M226.94 102.25C230.78 103.06 233.39 106.13 236.85 107.51C238.82 108.3 241.33 117.19 242.14 118" stroke="#2071B5" stroke-width="4.21" stroke-linecap="round" stroke-linejoin="round"/>
<path d="M225.52 98.3999C226.44 98.2799 226.35 102.65 226.6 104.05C227.39 108.39 225.62 111.39 220.88 113.02C214.9 115.07 209.03 114.99 203.06 113.19C201.19 112.62 199.68 111.53 198.21 110.34C196.84 109.23 196.78 107.54 196.86 106.1C197.1 101.78 197.02 97.4599 197.4 93.1499" stroke="#2071B5" stroke-width="4.21" stroke-linecap="round" stroke-linejoin="round"/>
<path d="M205.29 302.72C199.7 304.36 194.2 306.3 188.5 307.57" stroke="#2071B5" stroke-width="4.21" stroke-linecap="round" stroke-linejoin="round"/>
<path d="M296.32 76.7598C296.79 80.6598 296.72 84.5998 296.44 88.4898C296.23 91.5098 293.7 92.7498 291.06 93.5498C285.55 95.2398 280.02 95.2298 274.47 93.7498" stroke="#2071B5" stroke-width="4.21" stroke-linecap="round" stroke-linejoin="round"/>
<path d="M203.87 69.8799C201.08 71.0399 199.64 73.0099 199.8 76.1499C199.93 78.6399 199.82 81.1399 199.83 83.6299C199.83 84.7599 196.74 90.3199 197.16 92.2899C197.34 93.1199 198.92 94.0399 200 94.7999C203.02 96.9299 206.41 97.4099 209.95 97.5899C213.36 97.7699 216.71 97.2999 220.07 96.7799C221.56 96.5499 223.5 95.1299 224.91 94.7499" stroke="#2071B5" stroke-width="4.21" stroke-linecap="round" stroke-linejoin="round"/>
<path d="M275.28 58.5499C280.22 61.7299 285.26 61.9399 290.48 59.1999C290.94 58.9599 291.25 58.9099 291.27 58.3399C291.35 56.3999 291.41 54.5099 290.5 52.6499C290.05 51.7399 289.47 51.1899 288.63 50.8699C285.18 49.5499 281.67 49.7899 278.34 51.1299C276.5 51.8699 275.19 53.3299 275.2 55.7199C275.2 56.9699 275 58.3099 274.97 59.5699C274.95 60.4699 274.83 60.6599 274.07 61.0099C270.65 62.5899 269.32 65.4499 269.64 69.0699C269.79 70.7599 268.97 72.4199 269.77 74.1499C270.71 76.1699 272.27 77.4599 274.05 78.5799" stroke="#2071B5" stroke-width="4.21" stroke-linecap="round" stroke-linejoin="round"/>
<path d="M291.63 57.9267C291.42 55.8767 292.24 53.6367 290.03 52.0267C287.49 50.1767 284.64 49.7467 281.73 50.1267C280.55 50.2767 279.26 50.6367 278.04 51.1467C275.65 52.1467 275.23 53.9967 275.07 56.0967C274.95 57.7067 275.16 59.3367 275.02 60.9467C274.85 62.9067 275.78 63.9667 277.48 64.5867C281.88 66.2167 286.18 65.7667 290.43 63.9867C292.07 63.3067 291.76 61.7167 291.94 60.5167C292.04 59.8567 292.12 58.8567 291.64 58.1067" fill="#FFDA00" fill-opacity="0.7"/>
<path d="M291.63 57.9267C291.42 55.8767 292.24 53.6367 290.03 52.0267C287.49 50.1767 284.64 49.7467 281.73 50.1267C280.55 50.2767 279.26 50.6367 278.04 51.1467C275.65 52.1467 275.23 53.9967 275.07 56.0967C274.95 57.7067 275.16 59.3367 275.02 60.9467C274.85 62.9067 275.78 63.9667 277.48 64.5867C281.88 66.2167 286.18 65.7667 290.43 63.9867C292.07 63.3067 291.76 61.7167 291.94 60.5167C292.04 59.8567 292.12 58.8567 291.64 58.1067" stroke="#2071B5" stroke-width="4.21" stroke-linecap="round" stroke-linejoin="round"/>
<path d="M220.67 68.0601C215.45 71.0701 210.12 71.2701 204.69 68.6701" stroke="#2071B5" stroke-width="4.21" stroke-linecap="round" stroke-linejoin="round"/>
<path d="M295.31 67.25C293 70.45 289.42 70.65 286 71.06C282.05 71.53 278.14 70.89 274.27 70.06C272.93 69.77 271.63 69.29 271.03 67.85" stroke="#2071B5" stroke-width="4.21" stroke-linecap="round" stroke-linejoin="round"/>
<path d="M149.86 304.74C149.86 309.26 149.85 313.78 149.87 318.29C149.87 318.89 149.61 319.55 150.06 320.11" stroke="#2071B5" stroke-width="4.21" stroke-linecap="round" stroke-linejoin="round"/>
<path d="M149.86 320.72C149.5 328.74 149.65 336.77 149.69 344.79C149.71 349.37 149.48 353.96 149.8 358.55C149.91 360.14 149.52 361.78 149.86 363.4" stroke="#2071B5" stroke-width="4.21" stroke-linecap="round" stroke-linejoin="round"/>
<path d="M290.46 53.4902C286.35 56.5402 281.88 56.1302 277.31 54.9102C276.64 54.7302 276.44 54.0102 275.89 53.7002" stroke="#2071B5" stroke-width="4.21" stroke-linecap="round" stroke-linejoin="round"/>
<path d="M204.89 64.4199C208.1 67.3899 216.12 67.3299 219.66 64.8199" stroke="#2071B5" stroke-width="4.21" stroke-linecap="round" stroke-linejoin="round"/>
<path d="M150.47 363.4C149.28 363.19 149.66 364.04 149.66 364.61C149.66 371.02 149.66 377.42 149.66 383.83C149.66 384.51 149.79 385.2 149.46 385.85" stroke="#2071B5" stroke-width="4.21" stroke-linecap="round" stroke-linejoin="round"/>
<path d="M274.68 61.1799C274.55 61.4999 274.93 61.6999 274.88 61.9899C274.32 64.9399 276.7 65.6499 278.55 66.1499C281.78 67.0299 285.16 66.8399 288.43 66.0199C289.8 65.6699 291.18 63.7399 291.25 62.1899C291.28 61.4799 291.56 60.8499 291.67 60.1699" stroke="#2071B5" stroke-width="4.21" stroke-linecap="round" stroke-linejoin="round"/>
<path d="M150.07 158.48V184.37" stroke="#2071B5" stroke-width="4.21" stroke-linecap="round" stroke-linejoin="round"/>
<path d="M205.7 312.22V339.93" stroke="#2071B5" stroke-width="4.21" stroke-linecap="round" stroke-linejoin="round"/>
<path d="M139.75 173.05C141.07 177.49 143.84 180.83 147.65 183.35C148.43 183.87 149.03 184.69 150.04 184.7C150.26 188.15 149.53 191.52 150.07 194.9" stroke="#2071B5" stroke-width="4.21" stroke-linecap="round" stroke-linejoin="round"/>
<path d="M314.73 238.59C310.12 237.15 305.41 236.54 300.57 236.75C297.98 236.86 295.43 237.15 292.88 237.58" stroke="#2071B5" stroke-width="4.21" stroke-linecap="round" stroke-linejoin="round"/>
<path d="M314.33 322.54C307.9 320.35 301.3 319.31 294.51 319.52C293.9 319.54 293.3 318.97 292.69 319.5" stroke="#2071B5" stroke-width="4.21" stroke-linecap="round" stroke-linejoin="round"/>
<path d="M314.73 289.37C307.71 286.22 300.35 286.09 292.88 286.94" stroke="#2071B5" stroke-width="4.21" stroke-linecap="round" stroke-linejoin="round"/>
<path d="M314.73 162.73C307.22 160.25 300.04 162.12 292.88 164.35" stroke="#2071B5" stroke-width="4.21" stroke-linecap="round" stroke-linejoin="round"/>
<path d="M311.29 99.4102C308.58 103.97 304.7 107.23 299.96 109.52" stroke="#2071B5" stroke-width="4.21" stroke-linecap="round" stroke-linejoin="round"/>
<path d="M314.73 218.56C312.29 218.96 310.01 219.9 307.65 220.6C303.07 221.97 298.49 223.33 293.88 224.61C293.51 224.71 293.34 225.22 292.87 225.03" stroke="#2071B5" stroke-width="4.21" stroke-linecap="round" stroke-linejoin="round"/>
<path d="M205.29 345.2C202.22 345.62 199.37 346.86 196.41 347.69C195.13 348.05 193.83 348.45 192.55 348.84" stroke="#2071B5" stroke-width="4.21" stroke-linecap="round" stroke-linejoin="round"/>
<path d="M314.73 279.66C309.59 278.06 304.39 276.79 298.95 276.83C296.99 276.84 295.05 277.32 293.08 277.24" stroke="#2071B5" stroke-width="4.21" stroke-linecap="round" stroke-linejoin="round"/>
<path d="M321 282.89C323.11 283.19 324.78 284.51 326.64 285.37C330.03 286.94 333.17 289.01 336.58 290.58" stroke="#2071B5" stroke-width="4.21" stroke-linecap="round" stroke-linejoin="round"/>
<path d="M358.83 188.62C361.1 192.67 361.06 196.71 358.83 200.76" stroke="#2071B5" stroke-width="4.21" stroke-linecap="round" stroke-linejoin="round"/>
<path d="M274.88 78.98C280.09 80.53 285.36 80.45 290.66 79.59" stroke="#2071B5" stroke-width="4.21" stroke-linecap="round" stroke-linejoin="round"/>
<path d="M292.68 302.51C292.8 309.52 292.34 316.53 292.48 323.55C292.49 324.31 292.31 325.11 292.88 325.78" stroke="#2071B5" stroke-width="4.21" stroke-linecap="round" stroke-linejoin="round"/>
<path d="M150.27 220.99C154.11 223.29 157.91 225.66 161.8 227.87" stroke="#2071B5" stroke-width="4.21" stroke-linecap="round" stroke-linejoin="round"/>
<path d="M361.46 342.97C361.01 345.12 361.31 347.29 361.27 349.44C361.16 355.4 358.75 359.88 353.15 362.36C352.86 362.49 352.74 362.89 352.35 362.79" stroke="#2071B5" stroke-width="4.21" stroke-linecap="round" stroke-linejoin="round"/>
<path d="M269.21 72.9102C268.49 73.3202 268.28 73.7502 268.32 74.7302C268.46 77.7602 268.45 80.8001 267.84 83.8401C266.86 88.7101 269.16 92.1301 273.86 93.3401" stroke="#2071B5" stroke-width="4.21" stroke-linecap="round" stroke-linejoin="round"/>
<path d="M258.49 343.58C254.85 344.66 251.26 345.92 247.57 346.82" stroke="#2071B5" stroke-width="4.21" stroke-linecap="round" stroke-linejoin="round"/>
<path d="M306.03 277.83C306.01 283.16 306.1 288.49 305.83 293.81C305.77 295.09 305.95 296.37 306.03 297.65" stroke="#2071B5" stroke-width="4.21" stroke-linecap="round" stroke-linejoin="round"/>
<path d="M205.49 340.34C205.97 343.57 205.64 346.81 205.67 350.05C205.74 358.48 205.69 366.91 205.69 375.34C205.69 380.26 205.66 385.19 205.89 390.11" stroke="#2071B5" stroke-width="4.21" stroke-linecap="round" stroke-linejoin="round"/>
<path d="M144.4 162.33C142.89 164.41 142.93 165.58 145.04 167.97C146.39 169.5 147.8 171.01 149.46 172.24" stroke="#2071B5" stroke-width="4.21" stroke-linecap="round" stroke-linejoin="round"/>
<path d="M270.02 379.59C273.14 381.8 278.7 385.08 282.16 386.71" stroke="#2071B5" stroke-width="4.21" stroke-linecap="round" stroke-linejoin="round"/>
<path d="M351.55 323.96C348.72 325.05 345.97 326.33 343.07 327.24C342.64 327.38 342.24 327.3 341.84 327.4" stroke="#2071B5" stroke-width="4.21" stroke-linecap="round" stroke-linejoin="round"/>
<path d="M332.33 289.16C329.33 290.26 326.27 291.21 323.24 292.24C322.28 292.57 321.65 292.56 320.78 292.03C319.15 291.04 317.33 290.42 315.54 289.77" stroke="#2071B5" stroke-width="4.21" stroke-linecap="round" stroke-linejoin="round"/>
<path d="M253.22 99.0601C248.4 99.0601 248.25 109.44 250.86 112.56" stroke="#2071B5" stroke-width="4.21" stroke-linecap="round" stroke-linejoin="round"/>
<path d="M292.68 173.05C292.8 176.22 292.43 179.4 292.88 182.56" stroke="#2071B5" stroke-width="4.21" stroke-linecap="round" stroke-linejoin="round"/>
<path d="M306.03 169C306.15 172.17 305.78 175.35 306.23 178.51" stroke="#2071B5" stroke-width="4.21" stroke-linecap="round" stroke-linejoin="round"/>
<path d="M342.04 337.51C345.04 339.5 348.28 341.09 351.35 342.97" stroke="#2071B5" stroke-width="4.21" stroke-linecap="round" stroke-linejoin="round"/>
<path d="M182.23 309.8C182.36 312.83 181.93 315.88 182.43 318.9" stroke="#2071B5" stroke-width="4.21" stroke-linecap="round" stroke-linejoin="round"/>
<path d="M332.13 331.85C335.24 333.46 338.22 335.31 341.23 337.11" stroke="#2071B5" stroke-width="4.21" stroke-linecap="round" stroke-linejoin="round"/>
<path d="M291.26 59.3599C291.49 59.9099 292.06 60.0999 292.49 60.3499C296.42 62.5499 296.99 66.0799 296.54 70.0899C296.42 71.1599 296.49 72.2499 296.53 73.3199C296.64 76.6699 294.96 78.6199 291.47 79.1899" stroke="#2071B5" stroke-width="4.21" stroke-linecap="round" stroke-linejoin="round"/>
<path d="M182.03 190.44V199.54" stroke="#2071B5" stroke-width="4.21" stroke-linecap="round" stroke-linejoin="round"/>
<path d="M237.05 350.05C234.13 350.45 231.37 351.51 228.59 352.38C227.48 352.73 226.91 352.47 226.13 352.07" stroke="#2071B5" stroke-width="4.21" stroke-linecap="round" stroke-linejoin="round"/>
<path d="M185.87 187.82C185.41 191.32 185.8 194.83 185.67 198.34C185.64 199.08 185.81 199.85 185.47 200.57" stroke="#2071B5" stroke-width="4.21" stroke-linecap="round" stroke-linejoin="round"/>
<path d="M204.48 83.0298C203.76 86.0498 203.42 93.5798 203.67 96.6298" stroke="#2071B5" stroke-width="4.21" stroke-linecap="round" stroke-linejoin="round"/>
<path d="M185.67 308.99C186.15 311.2 185.59 313.45 185.88 315.67C185.97 316.34 185.65 317.06 186.08 317.69" stroke="#2071B5" stroke-width="4.21" stroke-linecap="round" stroke-linejoin="round"/>
<path d="M203.27 104.67V113.17" stroke="#2071B5" stroke-width="4.21" stroke-linecap="round" stroke-linejoin="round"/>
<path d="M291.06 70.6899C291.19 75.6099 290.8 80.5399 291.26 85.4599" stroke="#2071B5" stroke-width="4.21" stroke-linecap="round" stroke-linejoin="round"/>
<path d="M220.26 83.23C220.26 85.86 220.23 88.49 220.27 91.12C220.3 92.94 220.07 94.77 220.46 96.58" stroke="#2071B5" stroke-width="4.21" stroke-linecap="round" stroke-linejoin="round"/>
<path d="M220.26 104.27C220.38 107.1 220.01 109.94 220.46 112.77" stroke="#2071B5" stroke-width="4.21" stroke-linecap="round" stroke-linejoin="round"/>
<path d="M140.76 210.88C141.21 214 143.37 215.92 145.65 217.72C146.01 218 146.25 218.56 146.83 218.57" stroke="#2071B5" stroke-width="4.21" stroke-linecap="round" stroke-linejoin="round"/>
<path d="M224.9 81.2801C224.48 81.7801 222.75 82.5101 222.09 82.6501C217.34 83.6201 212.56 84.2801 207.73 83.6001C204.97 83.2101 202.4 82.1201 200.04 80.6001" stroke="#2071B5" stroke-width="4.21" stroke-linecap="round" stroke-linejoin="round"/>
<path d="M274.88 70.4902C274.65 74.6702 274.47 78.8502 274.28 83.0302C274.24 83.8402 274.28 84.6502 274.28 85.4602C279.85 87.3302 285.46 87.1202 291.07 85.6602" stroke="#2071B5" stroke-width="4.21" stroke-linecap="round" stroke-linejoin="round"/>
<path d="M360.04 123.08C357.42 123.98 354.83 124.99 352.15 125.71" stroke="#2071B5" stroke-width="4.21" stroke-linecap="round" stroke-linejoin="round"/>
<path d="M150.47 150.59C153.03 152.13 155.77 153.35 158.36 154.84" stroke="#2071B5" stroke-width="4.21" stroke-linecap="round" stroke-linejoin="round"/>
<path d="M219.65 92.3301C214.59 93.7901 208.94 93.3201 203.88 91.8501" stroke="#2071B5" stroke-width="4.21" stroke-linecap="round" stroke-linejoin="round"/>
<path d="M348.31 181.34C345.73 180.16 343.33 178.62 340.62 177.7" stroke="#2071B5" stroke-width="4.21" stroke-linecap="round" stroke-linejoin="round"/>
<path d="M328.69 172.04C326.33 173.25 323.73 173.64 321.21 174.27" stroke="#2071B5" stroke-width="4.21" stroke-linecap="round" stroke-linejoin="round"/>
<path d="M150.07 142.91C150.07 147.56 150.03 153.6 150.07 158.25" stroke="#2071B5" stroke-width="4.21" stroke-linecap="round" stroke-linejoin="round"/>
<path d="M320.8 319.3C320.45 324.02 320.48 328.74 320.8 333.46" stroke="#2071B5" stroke-width="4.21" stroke-linecap="round" stroke-linejoin="round"/>
<path d="M327.27 244.46C329.77 245.68 332.05 247.29 334.55 248.51" stroke="#2071B5" stroke-width="4.21" stroke-linecap="round" stroke-linejoin="round"/>
<path d="M274.27 85.8599C273.71 89.4999 274.29 93.1399 274.27 96.7799" stroke="#2071B5" stroke-width="4.21" stroke-linecap="round" stroke-linejoin="round"/>
<path d="M291.06 86.0601C291.17 88.4901 290.82 90.9301 291.26 93.3401" stroke="#2071B5" stroke-width="4.21" stroke-linecap="round" stroke-linejoin="round"/>
<path d="M205.7 390.51C206.16 392.93 205.78 395.37 205.9 397.79" stroke="#2071B5" stroke-width="4.21" stroke-linecap="round" stroke-linejoin="round"/>
<path d="M203.47 96.9902C202.94 99.3302 203.65 101.74 203.07 104.07" stroke="#2071B5" stroke-width="4.21" stroke-linecap="round" stroke-linejoin="round"/>
<path d="M351.55 298.06C349.13 297.33 347.1 295.73 344.67 295.03" stroke="#2071B5" stroke-width="4.21" stroke-linecap="round" stroke-linejoin="round"/>
<path d="M241.91 118.43C239.88 121.41 237.17 123.61 234 125.27C234.78 127.02 233.81 128.85 234.42 130.57" stroke="#2071B5" stroke-width="4.21" stroke-linecap="round" stroke-linejoin="round"/>
<path d="M198.01 89C198.77 89.23 201.49 91.26 203.67 91.73" stroke="#2071B5" stroke-width="4.21" stroke-linecap="round" stroke-linejoin="round"/>
<path d="M358.83 276.01C357.1 278.38 354.75 280.06 352.36 281.67" stroke="#2071B5" stroke-width="4.21" stroke-linecap="round" stroke-linejoin="round"/>
<path d="M314.73 137.24C312.56 137.73 310.51 138.69 308.26 138.86" stroke="#2071B5" stroke-width="4.21" stroke-linecap="round" stroke-linejoin="round"/>
<path d="M360.25 324.36C359.31 327.05 357.31 328.89 355.19 330.63" stroke="#2071B5" stroke-width="4.21" stroke-linecap="round" stroke-linejoin="round"/>
<path d="M143.19 145.74C145.25 147.31 147.39 148.75 149.66 149.99" stroke="#2071B5" stroke-width="4.21" stroke-linecap="round" stroke-linejoin="round"/>
<path d="M220.26 96.9902C220.37 99.1502 220.03 101.32 220.46 103.46" stroke="#2071B5" stroke-width="4.21" stroke-linecap="round" stroke-linejoin="round"/>
<path d="M321 325.78C323.12 326.37 324.85 327.79 326.87 328.61" stroke="#2071B5" stroke-width="4.21" stroke-linecap="round" stroke-linejoin="round"/>
<path d="M280.34 446.75C278.29 446.31 276.75 444.71 274.68 444.32" stroke="#2071B5" stroke-width="4.21" stroke-linecap="round" stroke-linejoin="round"/>
<path d="M320.6 334.07V339.53" stroke="#2071B5" stroke-width="4.21" stroke-linecap="round" stroke-linejoin="round"/>
<path d="M197.07 102.55C199.6 103.47 201.09 103.47 203.27 104.27" stroke="#2071B5" stroke-width="4.21" stroke-linecap="round" stroke-linejoin="round"/>
<path d="M269.21 80.7998C270.21 82.9598 272.05 84.1998 274.06 85.2498" stroke="#2071B5" stroke-width="4.21" stroke-linecap="round" stroke-linejoin="round"/>
<path d="M141.97 350.05C143.06 351.89 144.23 353.65 146.02 354.9" stroke="#2071B5" stroke-width="4.21" stroke-linecap="round" stroke-linejoin="round"/>
<path d="M296.32 82.4199C294.45 83.2999 293.22 85.2399 291.06 85.6599" stroke="#2071B5" stroke-width="4.21" stroke-linecap="round" stroke-linejoin="round"/>
<path d="M263.15 103.06C263.05 104.74 262.43 106.41 262.95 108.12" stroke="#2071B5" stroke-width="4.21" stroke-linecap="round" stroke-linejoin="round"/>
<path d="M193.96 123.08C193.47 126.31 193.9 129.55 193.76 132.79" stroke="#2071B5" stroke-width="4.21" stroke-linecap="round" stroke-linejoin="round"/>
<path d="M274.88 65.23C274.44 66.83 274.8 68.47 274.68 70.08" stroke="#2071B5" stroke-width="4.21" stroke-linecap="round" stroke-linejoin="round"/>
<path d="M259.1 107.71C258.66 109.31 259.02 110.95 258.9 112.56" stroke="#2071B5" stroke-width="4.21" stroke-linecap="round" stroke-linejoin="round"/>
<path d="M299.56 110.14C300.31 111.73 299.8 113.37 299.76 114.99" stroke="#2071B5" stroke-width="4.21" stroke-linecap="round" stroke-linejoin="round"/>
<path d="M144.81 300.69C146.3 301.85 147.7 303.15 149.46 303.93" stroke="#2071B5" stroke-width="4.21" stroke-linecap="round" stroke-linejoin="round"/>
<path d="M165.84 189.03C164.25 189.47 162.67 189.92 161.19 190.65" stroke="#2071B5" stroke-width="4.21" stroke-linecap="round" stroke-linejoin="round"/>
<path d="M321.41 292.6C319.64 293.8 317.56 294.14 315.54 294.62" stroke="#2071B5" stroke-width="4.21" stroke-linecap="round" stroke-linejoin="round"/>
<path d="M356.81 161.11C355.41 162.24 354.06 163.45 352.36 164.14" stroke="#2071B5" stroke-width="4.21" stroke-linecap="round" stroke-linejoin="round"/>
<path d="M315.54 280.06C317.01 280.76 318.42 281.61 319.99 282.08" stroke="#2071B5" stroke-width="4.21" stroke-linecap="round" stroke-linejoin="round"/>
<path d="M263.15 109.73C262.7 111.18 263.16 112.72 262.75 114.18" stroke="#2071B5" stroke-width="4.21" stroke-linecap="round" stroke-linejoin="round"/>
<path d="M234.02 120.05C234.7 121.48 234.34 123.01 234.42 124.5" stroke="#2071B5" stroke-width="4.21" stroke-linecap="round" stroke-linejoin="round"/>
<path d="M224.71 89.5C223.35 90.41 222.29 91.83 220.46 91.93" stroke="#2071B5" stroke-width="4.21" stroke-linecap="round" stroke-linejoin="round"/>
<path d="M315.54 238.99C316.97 239.22 318.16 240.15 319.59 240.41" stroke="#2071B5" stroke-width="4.21" stroke-linecap="round" stroke-linejoin="round"/>
<path d="M352.15 343.58C353.53 343.89 354.56 345.02 355.99 345.2" stroke="#2071B5" stroke-width="4.21" stroke-linecap="round" stroke-linejoin="round"/>
<path d="M315.13 322.95C316.29 323.14 317.27 323.81 318.37 324.16" stroke="#2071B5" stroke-width="4.21" stroke-linecap="round" stroke-linejoin="round"/>
<path d="M178.59 320.52C180.74 321.82 182.99 322.85 185.47 323.35" stroke="#2071B5" stroke-width="4.21" stroke-linecap="round" stroke-linejoin="round"/>
<path d="M351.55 333.26C350.69 333.83 349.55 333.94 348.92 334.88" stroke="#2071B5" stroke-width="4.21" stroke-linecap="round" stroke-linejoin="round"/>
<path d="M299.76 107.3C299.76 108.11 299.76 108.92 299.76 109.73" stroke="#2071B5" stroke-width="4.21" stroke-linecap="round" stroke-linejoin="round"/>
<path d="M167.46 314.65C168.13 314.99 168.81 315.32 169.48 315.66" stroke="#2071B5" stroke-width="4.21" stroke-linecap="round" stroke-linejoin="round"/>
<path d="M175.55 319.3C176.21 319.54 176.75 319.99 177.37 320.31" stroke="#2071B5" stroke-width="4.21" stroke-linecap="round" stroke-linejoin="round"/>
<path d="M182.43 239.4C182.97 239.59 183.38 240.14 184.05 240.01" stroke="#2071B5" stroke-width="4.21" stroke-linecap="round" stroke-linejoin="round"/>
<path d="M321 241.22C321.54 241.13 321.84 241.85 322.42 241.62" stroke="#2071B5" stroke-width="4.21" stroke-linecap="round" stroke-linejoin="round"/>
<path d="M296.93 419.03C295.81 419.74 294.46 419.3 293.27 419.81C292.27 420.23 291.23 420.55 290.23 421.01C287.94 422.08 287.21 424.12 289.42 426.14C292.04 428.53 295.17 429.34 298.54 429.78C302.23 430.26 305.69 429.8 309.08 428.18C311.18 427.17 312.46 425.73 312.94 423.42C311.18 420.37 307.95 420.16 305.01 419.45C302.42 418.82 299.76 419.06 297.12 419.03" fill="#FFDA00" fill-opacity="0.7"/>
<path d="M296.93 419.03C295.81 419.74 294.46 419.3 293.27 419.81C292.27 420.23 291.23 420.55 290.23 421.01C287.94 422.08 287.21 424.12 289.42 426.14C292.04 428.53 295.17 429.34 298.54 429.78C302.23 430.26 305.69 429.8 309.08 428.18C311.18 427.17 312.46 425.73 312.94 423.42C311.18 420.37 307.95 420.16 305.01 419.45C302.42 418.82 299.76 419.06 297.12 419.03" stroke="#2071B5" stroke-width="4.21" stroke-linecap="round" stroke-linejoin="round"/>
<path d="M163.76 368.76C167.62 377.56 186.15 390.43 202.38 399.75" stroke="#2071B5" stroke-width="4.21" stroke-linecap="round" stroke-linejoin="round"/>
</svg>
