<?xml version="1.0" encoding="UTF-8"?>
<svg id="icons" xmlns="http://www.w3.org/2000/svg" viewBox="0 0 500 500">
  <defs>
    <style>
      .cls-1 {
        fill: none;
        stroke: #000;
        stroke-linecap: round;
        stroke-linejoin: round;
        stroke-width: .86px;
      }
    </style>
  </defs>
  <path class="cls-1" d="M174.32,146.68c.65-12.73-4.45-23.82-11.91-33.67-6.89-9.09-15.86-15.52-26.75-18.97-5.22-1.65-10.6-2.55-16.17-2.75-7.06-.25-13.74,1.03-20.29,3.36-7.54,2.68-14.11,7.05-19.37,12.99-6.73,7.59-11.31,16.49-14.1,26.28-2.38,8.36-3.4,16.87-2.1,25.47,1.79,11.77,6.09,22.44,14.37,31.35,4.81,5.18,10.01,9.66,16.43,12.74,5.91,2.83,12.07,4.33,18.58,4.73,8.7.54,16.88-1.55,24.8-4.84,1.56-.65,3.02-1.74,4.58-2.49,5.34-2.58,10.01-6.04,14.01-10.4,7.74-8.44,13.36-17.98,15.86-29.34,1.04-4.74,1.63-9.48,2.07-14.27"/>
  <path class="cls-1" d="M436.83,141.7c.15-6.77-1.65-13.18-3.95-19.41-2.81-7.61-6.75-14.65-12.22-20.76-7.4-8.27-16.47-13.71-27.22-16.39-6.56-1.64-13.12-1.77-19.87-.96-10.98,1.31-19.91,6.45-28.06,13.47-7.67,6.6-13.07,14.82-16.97,24.01-2.21,5.19-3.41,10.75-4.19,16.37-.67,4.82-1,9.66-.36,14.46.91,6.76,2.25,13.44,5.32,19.66,3.74,7.57,8.6,14.25,15.14,19.62,5.21,4.28,10.89,7.83,17.26,10.16,7.11,2.6,14.46,4.11,22.02,3.62,15.31-.99,28.54-6.37,38.48-18.69,4.93-6.12,8.92-12.67,11.38-20.12,2.17-6.58,3.4-13.34,3.47-20.29.02-1.52-.38-3.01-.22-4.53"/>
  <path class="cls-1" d="M270.38,134.6c2.85.81,5.78.15,8.65.54,1.11.15,2.5.02,2.86-1.86.51-2.67,2.82-4.5,3.65-7.12,1.38-4.37,2.91-8.7,3.8-13.19,1.35-6.76,2.14-13.64,1.47-20.49-.85-8.79-2.9-17.31-7.91-24.83-.8-4.12-3.89-6.63-6.72-9.26-4.33-4.02-9.66-6.36-15.32-7.5-9.03-1.82-17.85-.96-26.11,3.58-9.02,4.95-14.33,12.84-17.67,22.25-1.66,4.67-2.52,9.51-3.13,14.45-.54,4.41-.48,8.81-.26,13.17.28,5.55,1.6,11.01,2.98,16.4.81,3.17,1.9,6.27,3.18,9.3.44,1.04.77,2.12,1.95,2.59"/>
  <path class="cls-1" d="M394.52,94.64c5.41,1.59,9.93,4.76,14.23,8.22,9.02,7.28,15.09,16.66,18.53,27.63,3.65,11.62,3.66,23.38.5,35.18-2.67,10-7.52,18.61-15.57,25.25-5.68,4.68-12.14,7.63-19.41,8.94-1.15.21-2.37.06-3.47.57"/>
  <path class="cls-1" d="M425.61,176.67c3.27-5.55,4.98-11.61,6.07-17.91.67-3.87,1.21-7.84,1.12-11.66-.24-10.14-2.9-19.72-7.77-28.76-3.51-6.5-7.73-12.37-12.82-17.66-6.2-6.45-13.69-10.9-22.46-12.42-8.66-1.51-17.43-.99-25.87,1.68-5.04,1.59-10.07,3.4-14.27,6.85"/>
  <path class="cls-1" d="M226.56,366.43c-.65,2.95-.06,5.91.06,8.85.18,4.25.47,8.5.54,12.74.18,11.09.95,22.16,1.19,33.24.12,5.54.51,11.08.56,16.62.05,6.53.78,7.17,7.38,9.89,3.07,1.27,6.4,1.46,9.69,1.83,1.95.22,3.9.51,5.83.34,6.56-.57,13.03-1.39,18.82-5.09,3.56-2.28,5.12-5.3,5.14-9.34.02-4.17-.09-8.35.03-12.52.09-3.18-3.76-6.14-5.86-6.22-1.62-.06-2.99,1.03-4.52,1.5-7.43,2.25-14.95,2.83-22.69,2-3.9-.42-7.56-1.39-11.23-2.63-1.06-.36-1.55-.6-3.01-1.34"/>
  <path class="cls-1" d="M245.99,56.42c-1.48-.95-2.86.05-4.08.49-8.67,3.18-14.92,8.87-18.89,17.39-3.71,7.95-5.22,16.26-5.74,24.87-.58,9.52.78,18.76,3.57,27.88.58,1.89,1.98,3.77,1.21,6.03-.16.46.5,1.06,1.63,1.54"/>
  <path class="cls-1" d="M144.74,199.12c-.15-.89.39-1.28,1.07-1.75,8.75-6.03,14.26-14.64,18.75-23.96,3.49-7.26,5.22-15.01,5.67-23.08.72-12.78-3-24.1-10.56-34.36-4.42-6-9.88-10.8-16.5-13.89-7.04-3.28-14.47-5.91-22.4-6.12-7.35-.2-14.43.93-21.18,4.23-12.67,6.2-21.49,15.87-26.97,28.75-2.28,5.34-3.72,10.94-4.45,16.64-1.15,9.01.17,17.81,3.37,26.33,3.6,9.57,9.45,17.58,17.57,23.65,5.21,3.89,11.25,6.29,17.82,7.58,4.74.93,9.39.37,14.06.71.28.02.02.15.2,0,2.48-2.29,5.81-1.36,8.68-2.26,5.34-1.68,10.18-4.15,14.65-7.44,6.59-4.84,11.67-11.05,15.96-17.92,5.27-8.44,7.51-17.83,7.7-27.62.17-8.74-1.89-17.08-6.14-24.84-1.67-3.04-3.56-5.93-5.43-8.83"/>
  <path class="cls-1" d="M283.12,130.04c-.64-1.52.04-2.93.45-4.31,1.97-6.63,3.05-13.38,3.48-20.3.6-9.5-.59-18.75-4.47-27.37-3.29-7.32-7.79-13.97-15.21-17.99-.55-.3-.96-.54-1.53-.19"/>
  <path class="cls-1" d="M285.26,340.61c-3.7,6.23-10.43,8.66-16.83,10.2-9.35,2.26-18.86,2.75-28.48,1.85-6.14-.57-12.15-1.48-17.92-3.72-3.29-1.27-5.98-3.38-8.39-5.86-1.09-1.12-.32-5.55,1.06-7.1,3.27-3.7,7.51-5.36,12.31-5.83"/>
  <path class="cls-1" d="M261.32,224.38c.46.68.2,1.44.2,2.16.02,18.57.01,37.13.02,55.7,0,.79.04,1.55.18,3.88"/>
  <path class="cls-1" d="M226.99,334.26c-1.1-.07-2.02.6-2.77,1.13-3.21,2.28-1.63,5.29.79,6.7,3.46,2.01,7.22,2.79,11.05,3.37,5.79.88,11.64,1.1,17.48.86,6.59-.27,13.08-1.21,19.22-3.85.78-.34,1.82-.92,3.02-2.17"/>
  <path class="cls-1" d="M246.21,57.07c-5.07,3.87-9.9,7.93-13.2,13.58-3.34,5.72-5.13,11.91-5.98,18.37-.98,7.46-1.08,14.96-.05,22.45.06.42,0,.86,0,1.29"/>
  <path class="cls-1" d="M236.93,224.6c0,13.31.08,26.63-.04,39.94-.05,6.12-.19,12.23-.16,18.35,0,1.09-.42,2.09-.29,3.24.31,2.79.54,3.44,3.3,4.06,4.47,1,8.93,1.91,13.61.98,2.03-.4,4.12-.5,6.02-1.38,2.44-1.13,2.8-1.08,2.27-3.89"/>
  <path class="cls-1" d="M271.68,330.38c4.02.13,7.72,1.39,10.75,3.94,3.47,2.91,2.87,7.24,3,11.18.03,1.04-.16,2.16-.13,3.24.11,3.58-1.41,6.16-4.31,8.24-5.15,3.68-11.05,5.23-17.08,6.42-6.91,1.36-13.93,1.66-20.93,1.26-5.91-.34-11.79-1.23-17.49-2.96-.7-.21-1.72-.3-4.85-1.91"/>
  <path class="cls-1" d="M273.19,364.92c0,2.59.19,5.2-.04,7.77-.38,4.17-.45,8.35-.56,12.53-.27,9.86-.94,21.92-1.18,31.79"/>
  <path class="cls-1" d="M254.41,163.07c.36.77.21,1.58.21,2.37,0,15.69,0,31.37.01,47.06,0,.79-.15,1.61.21,2.37"/>
  <path class="cls-1" d="M263.69,116.22c-.27-1.84-.87-3.6-1.36-5.38-.95-3.53-3.99-5.28-7.09-6.18-5.77-1.68-11.59-1.53-17.49.24-5.23,1.58-7.24,5.14-7.71,10.03-.25,2.59-.06,5.15-1.44,7.61-.67,1.19.58,2.49,1.85,3.17,1.07.58,2.34.49,3.42.78,5.94,1.56,11.96,1.24,17.95,1.1,3.03-.07,6.14-.42,9.05-1.48.47-.17.88-.16,1.31-.16,2.03,0,2.58-1,2.59-3.04"/>
  <path class="cls-1" d="M323.49,147.63c-1.86.89-5.49,1-7.37,1.99-1.17.62-2.51-.43-3.85-.41-6.69.08-13.39.2-20.08-.2-7.55-.45-15.13-.43-22.67-1.07-.35-.03-.55.25-.86.23"/>
  <path class="cls-1" d="M141.07,101.76c.88,1.62,2.54,2.38,3.91,3.42,8.27,6.3,13.47,14.68,16.57,24.44,1.95,6.16,2.8,12.51,2.63,18.99-.01.51-.19,1.05.27,1.59,1.11-.66,2.37-.49,3.61-.51"/>
  <path class="cls-1" d="M242.97,370.96c-.22,16.41.45,32.81.43,49.22"/>
  <path class="cls-1" d="M266.72,368.81c.26,10.22-.45,20.43-.55,30.65-.05,5.03-.23,10.07-.31,15.11-.01.89,0,1.04-.06,2.43"/>
  <path class="cls-1" d="M222.55,134.01c-1.03.79-2.95,1.39-4.19,1.44-9.07.36-18.14.74-27.21,1.2-5.33.27-10.65.58-15.97.92-.39.03-.72.15-1.08.23"/>
  <path class="cls-1" d="M236.93,161.99c0,16.05,0,32.09,0,48.14,0,3.38.33,3.88,3.9,4.59,4.79.95,9.73.98,14.54.12,1.61-.29,2.7-.49,3.5-.68,1.74-.41,2.88-2.08,2.63-3.85-.13-.92-.17-1.84-.16-2.77.13-15.19-.35-30.37-.23-45.55"/>
  <path class="cls-1" d="M260.67,58.58c-.8.94-2.04.65-3.05,1.01-6.68,2.41-10.48,7.6-13.07,13.7-2.58,6.07-3.64,12.57-4,19.18-.14,2.59-.2,5.2-.61,7.77"/>
  <path class="cls-1" d="M315.82,143.35c-7.13.1-14.85.39-22.12-.1-3.37-.23-6.77-.32-10.15-.4-4.62-.11-9.19-.85-13.81-.72"/>
  <path class="cls-1" d="M228.07,138.46c-.5-.83-1.28-.92-2.16-.87-10.57.6-21.17.49-31.74,1.24-3.07.22-6.21,0-9.27.35-3.53.39-7.06.61-10.59,1.01"/>
  <path class="cls-1" d="M245.13,164.15v47.06"/>
  <path class="cls-1" d="M228.29,142.13c-15.52.02-30.96,1.49-46.81,2.48,1.31,3.47-.44,5.96-2.43,8.29-1.33,1.56-3.27.68-4.94.88"/>
  <path class="cls-1" d="M254.84,225.68c.35.69.21,1.44.21,2.16,0,16.12,0,32.24.01,48.36,0,4.54-.51,9.06-.44,13.6"/>
  <path class="cls-1" d="M245.54,226.14c0,20.44.02,41.92.01,62.36,0,.79.15,1.61-.21,2.37"/>
  <path class="cls-1" d="M246.42,56.64c3.47-1.21,7-1.39,10.58-.64,1.45.3,2.81.85,3.9,1.92.15.14.08.41.41.47,1.51.28,3.21.46,4.28,1.53,5.08,5.03,9.64,10.46,12.36,17.22,2.33,5.79,3.88,11.79,4.66,17.94.67,5.35.71,10.78.3,16.18-.49,6.39-1.56,12.66-3.47,18.78-.5,1.61-1.17,3.15-2.15,4.54"/>
  <path class="cls-1" d="M269.52,298.21c-3.04,1.83-6.2,3.36-9.71,4.12-5.73,1.23-11.46,1.33-17.28.7-3.23-.35-6.27-1.04-9.3-2.17-1.5-.56-2.85-1.24-4.08-2.21"/>
  <path class="cls-1" d="M229.15,290.44c2.59,3.27,6.45,3.98,10.16,4.68,3.53.67,7.16,1.21,10.78.91,4.8-.41,9.64-.68,14.26-2.32,1.9-.67,3.58-1.66,5.17-2.83"/>
  <path class="cls-1" d="M256.14,369.89c.36.76.21,1.58.21,2.37,0,15.26,0,30.51,0,45.77"/>
  <path class="cls-1" d="M228.43,143.83c-.01.58-.57,1.51-3.71,2.12-3.71.03-8.14.7-12.62.74-9.21.09-18.41.84-27.63.62q-.76-.02-2.4-.06"/>
  <path class="cls-1" d="M254.97,287.56c7.12-1.07,8.08-2.9,9.82-2.12,1,.45,2.05.86,2.98,1.38,2.25,1.24,2.27,3.67,2.35,5.79.2,5.1-.1,10.22.26,15.33.52,7.33.32,14.69.97,22.03.22,2.44.3,5.08-.36,7.54-.51,1.88-2.2,2.7-3.85,3.47-3.7,1.71-7.63,2.5-11.66,2.79-8.3.6-16.54.48-24.39-2.8-3.56-1.49-3.36-1.54-3.5-5.6-.25-7.28.47-14.53.54-21.8.04-4.24-.23-8.52.23-12.73.37-3.39-.49-6.74.42-10.19.66-2.51,2.08-3.73,4.05-4.67.98-.46,2.03-1.01,3.22-.91"/>
  <path class="cls-1" d="M417.83,118.81c3.28,5.66,5.23,11.82,6.68,18.14,1.31,5.69,1.5,11.41,1.01,17.28-.39,4.63-1.06,9.14-2.3,13.59-1.51,5.4-4.29,10.16-7.54,14.69-1.17,1.63-2.7,2.93-3.9,4.53"/>
  <path class="cls-1" d="M133.95,154.65c-6.03.58-12.11.62-18.14,1.28-1.07.12-2.16.02-3.24.02-7.27,0-14.54.21-21.8-.06-6.58-.24-13.2-.43-19.66-2.07-.93-.23-1.75-.97-2.8-.68"/>
  <path class="cls-1" d="M229.37,121.84c1.72,2.37,4.48,2.33,6.92,2.75,5.57.96,11.23.67,16.82.37,3.47-.18,7.13-.37,10.35-2.09.59-.31.89.21,1.32.04"/>
  <path class="cls-1" d="M281.55,134.64c.23.26.95.83,1.36.81,5.19-.24,10.37.17,15.54.44,5.68.29,11.39.51,17.04.99,2.8.24,5.71-.37,8.43.72"/>
  <path class="cls-1" d="M269.21,145.22c2.46.45,3.16.56,5.07.74,10.18.94,20.43,1.04,30.65,1.31,4.03.11,8.05.57,12.09.26"/>
  <path class="cls-1" d="M370.77,111.47c-1.41,3.63-2.96,7.18-3.97,10.99-1.1,4.15-1.82,8.33-2.53,12.54-.72,4.22-1.07,8.5-.95,12.74.11,3.88.1,7.78.4,11.67.34,4.44,1.53,8.63,2.3,12.94"/>
  <path class="cls-1" d="M375.95,145.8c.68.46,1.44.2,2.16.2,13.24.02,26.48.01,39.72.01"/>
  <path class="cls-1" d="M228.79,147.99c-4.19-.17-8.41.51-12.59.45-3.59-.05-7.2.23-10.79.42-4.61.25-9.22.44-13.82.54-2.96.07-5.9.29-8.85.49-.41.03-1.22.15-1.64.15"/>
  <path class="cls-1" d="M164.17,150.55c.11,6.35-1.68,12.39-3.55,18.32-1.33,4.23-3.64,8.13-6.41,11.67-.44.56-.71,1.16-1.05,1.75"/>
  <path class="cls-1" d="M233.01,213.84c2.02,2.26,6.8,3.78,9.58,4.31,6.04,1.15,9.53.96,15.53-.58,2.08-.53,5.07-1.06,6.48-2.69.83-.95.93-2.72.53-3.4-.66-1.13-1.79-2.09-3.37-2"/>
  <path class="cls-1" d="M121.43,146.02c-10.37-.05-20.72.68-31.09.43"/>
  <path class="cls-1" d="M265.21,151.2c.33,3.06-2.13,3.52-4.11,4.06-6.22,1.7-12.52,2.24-19,1.44-2.96-.36-5.58-1.24-8.19-2.47"/>
  <path class="cls-1" d="M421.72,156.81c-4.15.93-8.32,1.78-12.53,2.31-3.65.46-7.32.86-11,1.21-9.13.87-18.28,1.01-27.42.72-7.05-.22-14.12-.42-21.17-1.15-6.93-.72-13.87-1.31-20.72-2.63-.85-.16-1.66-.68-2.58-.46"/>
  <path class="cls-1" d="M213.12,341.11c-.03,1.68-.12,8.01.15,10.85.35,3.77,3.41,5.7,6.42,7.3,1.83.97,3.41,1.84,4.37,3.9.94,2.03,2.88,3.22,5.1,3.95,5.69,1.86,11.5,2.73,17.49,2.83,6.45.11,12.81-.34,18.99-2.24,3.11-.96,6.26-1.97,8.85-4.08.97-.8,1.65-1.83,1.31-3.22"/>
  <path class="cls-1" d="M264.13,354.13c-7.38,1-14.81.89-22.24.88-2.1,0-4.14-.74-6.26-.45"/>
  <path class="cls-1" d="M316.59,137.6c-.13.56-.38,1.06-.73,1.56-.1.14-.27.19-.44.14-1.44-.45-2.97-.28-4.45-.34-8.13-.32-16.25-.94-24.39-1.19-4.82-.15-9.64-.4-14.47-.39-1.04,0-2.05.05-3.02.44"/>
  <path class="cls-1" d="M378.98,103.7c-3.1-1.23-6.19-2.41-9.49-3.06-5.74-1.12-11.41-1.18-17.06.45-.33.1-.72.01-1.08.01"/>
  <path class="cls-1" d="M260.89,128.53c-2.76.18-5.44.96-8.2,1.09-4.04.19-8.04.36-12.1-.11-2.15-.25-4.26-.95-6.46-.76"/>
  <path class="cls-1" d="M147.98,125.29c1.53,3.64,2.89,7.34,3.66,11.23.49,2.5.84,5.02,1.15,7.55.3,2.45.36,4.89.37,7.35"/>
  <path class="cls-1" d="M350.91,191.78c1.59.71,2.81,1.99,4.33,2.79,6.17,3.23,12.64,5.42,19.63,6.14,2.17.22,4.36-.28,6.48.36"/>
  <path class="cls-1" d="M380.92,89.24c5.48.76,10.95,1.51,16.21,3.41,3.23,1.17,6.03,3.07,9.05,4.58"/>
  <path class="cls-1" d="M355.23,134.36c-.19,5.19-1.04,10.33-.91,15.54.08,3.19.54,6.33.7,9.5"/>
  <path class="cls-1" d="M243.83,421.48v24.39"/>
  <path class="cls-1" d="M261.97,132.85c-4.55,2.36-6.89,7.72-5.84,11.88.76,3.03,2.79,5,5.45,6.17,1.29.57,2.97-.21,4.49-.21.96,0,1.74-.96,1.94-2.08"/>
  <path class="cls-1" d="M255.92,422.78v23.32"/>
  <path class="cls-1" d="M399.7,122.27c1.7,3.47,3.71,6.76,5.23,10.34,3.27,7.7,4.51,15.69,4.27,23.98-.01.5,0,1.01,0,1.51"/>
  <path class="cls-1" d="M260.67,310.95c-3.03,1.02-4.41,3.81-3.27,6.27.73,1.56,1.98,2.18,3.48,2.09,1.42-.08,2.22-.95,2.66-2.52.91-3.29.49-4.53-2.66-5.85"/>
  <path class="cls-1" d="M223.54,134.57c2.24.56,4.44,1.28,6.5-.63,1.26-1.17,2.64-1.11,4.1-.05,1.82,1.32,3.51,2.74,4.5,4.78,1.67,3.42.76,6.48-1.51,9.27-1.24,1.53-2.98,2.49-4.53,3.68"/>
  <path class="cls-1" d="M229.94,149.31c4.93-1.74,7.61-8.33,3.74-12.14-1.81-1.79-2.86-1.78-4.28.24-.6.85-1.36,1.61-.81,3.15.62,1.72-.9,3.47.05,7"/>
  <path class="cls-1" d="M267.24,136.08c-1.89-.71-5.06-.93-6.34.87-1.46,2.05-2.4,4.32-1.72,6.89.73,2.77,3.49,5.4,5.85,6.92"/>
  <path class="cls-1" d="M162.01,149.69c-5.5,1.28-11.04,2.36-16.61,3.29-3.67.62-7.37.99-11.02,1.67"/>
  <path class="cls-1" d="M265.24,213.5c.13,1.9.34,4.65.11,6.55-.3,2.43-2.51,3.38-4.48,4.07-5.6,1.94-11.47,1.81-17.25,1.46-2.93-.18-5.94-.76-8.65-2.25-1.69-.93-2.44-2.14-2.41-4.12.03-2.16.07-4.34.34-6.47.23-1.85,1.83-2.69,3.6-3.03"/>
  <path class="cls-1" d="M228.94,148.39c.51,1.47,2.11,1.76,3.11,2.71,1.3,1.23,1.52,2.45,1.42,3.98-.26,4.21.96,5.59,5.17,6.72,7.44,2.01,14.85,1.35,22.24-.07,3.47-.67,4.69-3.27,3.89-7.52"/>
  <path class="cls-1" d="M269.55,428.08c.06-2.58-1.34-4.54-3.26-4.42-1.53.1-2.68,1.76-3.29,3.64-.77,2.33.81,3.98,2.86,4.33,1.33.23,3.46-1.03,3.68-3.45"/>
  <path class="cls-1" d="M267.15,136.08c-2.15.67-3.94,2.83-4.1,4.97-.23,3.09.89,5.33,3.24,6.48.64.31,1.29.58,1.94.86"/>
  <path class="cls-1" d="M355.44,160.7c-.28,2.57.75,4.92,1.32,7.33.52,2.19,1.27,4.32,1.92,6.48"/>
  <path class="cls-1" d="M269.31,443.07c-6.59,2.6-13.45,3.67-20.51,3.44-5.26-.17-10.4-1.06-15.33-3.01"/>
  <path class="cls-1" d="M262.83,325.2v11.66"/>
  <path class="cls-1" d="M134.17,142.99v12.52"/>
  <path class="cls-1" d="M408.98,159.4c.1,3.29-.93,6.38-1.77,9.49-.12.46-.06.88-.17,1.31"/>
  <path class="cls-1" d="M254.2,220.71h-10.79"/>
  <path class="cls-1" d="M236.06,110.61c-1.97,3.37-1.76,7.1-1.73,10.79"/>
  <path class="cls-1" d="M237.79,314.4v10.79"/>
  <path class="cls-1" d="M376.39,145.15c-.74.66-1.51.95-2.59.91-3.38-.12-6.76-.04-10.14-.04"/>
  <path class="cls-1" d="M237.36,328.22v14.46"/>
  <path class="cls-1" d="M132.87,146.02h-9.93"/>
  <path class="cls-1" d="M89.91,146.45h-9.71"/>
  <path class="cls-1" d="M132.87,105.86c-3.03-1.98-5.93-4.2-9.5-5.18"/>
  <path class="cls-1" d="M130.28,162.42c1.05,3.03,2.75,5.75,4.13,8.62.15.31.14.58.19.88"/>
  <path class="cls-1" d="M263.05,126.37c-.61,1.38-2.36,2.07-2.04,4.12.17,1.12.84,2.05,1.39,2.05,2,0,6.07,1.68,7.87,2.04"/>
  <path class="cls-1" d="M246.42,324.33v9.07"/>
  <path class="cls-1" d="M120.78,143.86c2.45,4.89,4.89,9.79,7.34,14.68"/>
  <path class="cls-1" d="M254.63,287.63c-4.95.74-9.87.85-14.68-.85-.26-.09-2.28-1.59-2.57-1.59"/>
  <path class="cls-1" d="M145.39,146.02h-8.64"/>
  <path class="cls-1" d="M341.84,146.02h-8.64"/>
  <path class="cls-1" d="M359.98,177.1c.89,2.79,2.48,5.24,3.89,7.77"/>
  <path class="cls-1" d="M271.68,334.26c1.24.49,2.44,1.01,3.47,1.92,1.4,1.24,1.69,2.55.63,4.12"/>
  <path class="cls-1" d="M151,164.15c-.25,2.45-1.52,4.58-2.16,6.91"/>
  <path class="cls-1" d="M366.45,188.33c1.83,2.19,3.85,4.21,6.04,6.04"/>
  <path class="cls-1" d="M143.66,188.33c-1.15,2.31-3.57,3.34-5.18,5.18"/>
  <path class="cls-1" d="M263.68,116.13c.16,1.91-.13,4.49.23,6.35"/>
  <path class="cls-1" d="M90.13,143.86v8.2"/>
  <path class="cls-1" d="M399.7,122.92c-1.76,1.62-3.25,3.52-5.18,4.97"/>
  <path class="cls-1" d="M315.66,139.31c.69,1.34.17,2.8.23,4.12.04.83.57,3.18,1.32,3.74"/>
  <path class="cls-1" d="M409.2,114.5c-1.66,1.05-2.66,2.84-4.32,3.89"/>
  <path class="cls-1" d="M232.61,126.8c1.65,2.31,1.79,4.31.43,6.26"/>
  <path class="cls-1" d="M267.28,136.08c1.66,1.3,1.99,3.89,2.35,5.55.28,1.31-.22,2.13-1.27,6.66"/>
  <path class="cls-1" d="M316.84,137.17c.86,2.31,3.74,3.65,3.63,5.39-.13,1.99-4.38,3.96-2.59,6.04"/>
  <path class="cls-1" d="M181.44,139.97c.61,1.56-.14,3.18.22,4.75"/>
  <path class="cls-1" d="M228.72,135.22c.26.99-.42,1.64-.86,2.37"/>
  <path class="cls-1" d="M90.56,156.38v2.16"/>
  <path class="cls-1" d="M245.06,109.96c-1.66.23-3.99,3.48-3.38,4.96.63,1.54,1.57,2.76,3.45,2.81,1.69.05,3.36.03,4.32-1.73,1.46-2.69-.94-6.04-4.32-6.04"/>
  <path class="cls-1" d="M174.1,153.22c4.55-1.23,8.75-10.03.47-12.73"/>
</svg>