<?xml version="1.0" encoding="UTF-8"?>
<svg id="icons" xmlns="http://www.w3.org/2000/svg" viewBox="0 0 500 500">
  <defs>
    <style>
      .cls-1 {
        fill: none;
        stroke: #000;
        stroke-linecap: round;
        stroke-linejoin: round;
        stroke-width: .88px;
      }
    </style>
  </defs>
  <path class="cls-1" d="M153.01,234.31c-.37-1.97-.21-3.97-.21-5.95-.02-18.51-.22-37.01.08-55.52.17-10.34.4-20.76,3.23-30.84,3.6-12.83,9.48-24.44,18.23-34.63,7.81-9.09,17.18-15.94,28.02-20.88,4.32-1.97,8.92-3.2,13.45-4.59,3.62-1.11,6.17-3.34,8.15-6.43.46-.71.42-1.45.42-2.21,0-4.04,0-8.08,0-12.12s-.21-4.05,2.05-7c1.77-2.32,3.73-4.27,7.43-4.14,10.27.36,20.57.36,30.83.01,4.26-.14,6.53,1.86,8.63,4.94,1.04,1.52,1.37,3.07,1.32,4.87-.09,3.52-.04,7.05-.02,10.57.01,2.21-.4,4.49,1.3,6.4,1.98,2.23,4.13,4.1,7.05,5.08,6,2.01,12.01,3.99,17.65,6.99,13.95,7.43,25.13,17.74,33.24,31.32,5.37,9,8.68,18.83,10.49,29.09.83,4.69,1.25,9.5,1.45,14.3.19,4.63.14,9.28.52,13.87.5,6.11.26,12.2.31,18.29.1,13.36.12,26.73,0,40.1-.11,12.21-1.82,24.2-6.17,35.68-3.15,8.31-8.1,15.57-13.59,22.52-2.24,2.84-4.98,5.17-7.38,7.83-2.44,2.7-3.32,5.65-3.24,9.1.04,1.61,0,3.23,0,4.85"/>
  <path class="cls-1" d="M250.38,97.72c5.59-.07,11.18-.07,16.74.46,6.14.58,11.86,2.69,17.4,5.28,12.18,5.68,21.8,14.26,29.1,25.54,4.02,6.21,7.22,12.82,9.4,19.86,1.3,4.2,2.25,8.51,2.58,12.97.2,2.8.27,5.58.35,8.38.29,9.71-2.02,18.93-5.8,27.73-3.8,8.85-9.14,16.8-15.54,24.07-6.14,6.97-12.65,13.65-17.67,21.55-6.44,10.12-10.8,21.08-12.91,32.85-1.45,8.07-1.64,16.27-.51,24.44.33,2.36.97,4.66,1.1,7.05"/>
  <path class="cls-1" d="M249.5,97.49c-.86.31-1.76.24-2.64.21-6.87-.17-13.7.12-20.49,1.31-9.14,1.61-16.88,6.25-24.19,11.53-7.99,5.78-14.55,13.04-19.64,21.53-4.11,6.85-6.91,14.25-8.55,22.04-1.48,7.04-1.5,14.29-.79,21.35,1.35,13.46,5.52,26.11,13.54,37.23,2.9,4.02,6.04,7.85,9.44,11.48,8.47,9.02,16.19,18.57,21.4,29.94,3.62,7.9,6.27,16.04,7.53,24.68.88,6.02,1.13,12.07.72,18.07-.41,6.06-1.57,12.08-3.68,17.84-.18.48-.07.9-.18,1.34"/>
  <path class="cls-1" d="M234.08,83.4c-2.86-.09-5.48,1.01-8.14,1.78-15.36,4.44-28.73,12.29-40.11,23.54-6.27,6.2-11.25,13.39-15.09,21.21-5.19,10.55-8.01,21.84-8.75,33.66-.42,6.69-.35,13.37-.37,20.05-.03,11.97-.22,23.94-.19,35.91.02,6.97-.1,13.97.24,20.93.42,8.68,1.79,17.24,4.53,25.57,3.87,11.76,9.98,22.12,18.54,31.05.73.76,1.6,1.43,1.54,2.64"/>
  <path class="cls-1" d="M234.52,83.18c.79-.3,1.61-.22,2.42-.22,7.05,0,14.11.2,21.15-.07,5.51-.21,10.74.81,15.85,2.53,9.39,3.16,18.46,7.02,26.69,12.71,12.11,8.39,21.4,19.07,27.79,32.38,3.41,7.09,5.88,14.47,7.56,22.08,1.03,4.65,1.46,9.47,1.44,14.3-.06,23.35.2,46.71-.13,70.06-.16,11.46-2.11,22.73-6.45,33.51-2.07,5.13-4.47,10.03-7.33,14.74"/>
  <path class="cls-1" d="M250.12,50.55c-.46,107.88.16,221.72.04,329.6"/>
  <path class="cls-1" d="M250.16,158.3c.7.47,1.47.2,2.2.21,23.79.02,47.59.02,71.38.02"/>
  <path class="cls-1" d="M153.01,234.75c-.38,2.86-.19,5.72-.02,8.59.44,7.78,1.65,15.42,3.77,22.91,2.95,10.42,7.76,19.84,14.96,27.99,2.12,2.4,3.95,5.09,7.07,6.37"/>
  <path class="cls-1" d="M249.72,158.52h-76.01"/>
  <path class="cls-1" d="M325.87,177.58c0,19.17,1.58,38.22,1.32,57.38-.13,9.66-1.7,19.2-4.77,28.42-2.05,6.13-5.24,11.7-8.58,17.19-4.4,7.23-10.27,13.04-17.19,17.84"/>
  <path class="cls-1" d="M274.39,231.66c-2.33,5.53-4.84,10.97-6.67,16.72-2.31,7.22-3.91,14.55-4.77,22.05-.93,8.2-1.19,16.43-.63,24.67.11,1.61-.04,3.26.39,4.85"/>
  <path class="cls-1" d="M301.71,188.04c-3.58,1.09-7.08,2.4-10.78,3.16-4.54.93-9.07,1.64-13.67,2.16-12.39,1.41-24.82.82-37.24.79-9.38-.03-18.74-.76-27.98-2.58-4.88-.96-9.61-2.41-14.32-3.97"/>
  <path class="cls-1" d="M173.41,177.47c.36,10.28-1.04,29.37-1.02,39.66.01,6.98-.05,13.97.31,20.92.4,7.75,1.66,15.38,3.74,22.95,2.17,7.9,5.57,15.01,10.01,21.8,3.65,5.57,7.83,10.69,13.05,14.72,2.32,1.79,3.56,2.22,4,2.44"/>
  <path class="cls-1" d="M222.84,236.95c3.68,6.92,7.43,13.78,9.74,21.36,2.38,7.79,3.91,15.68,4.4,23.81.19,3.16.14,6.32.17,9.48.03,2.8.18,5.61-.43,8.37"/>
  <path class="cls-1" d="M232.1,388.3c.7.43,1.47.21,2.2.21,12.34.02,24.67,0,37.01.01,2.35,0,4.72-.21,7.05.22,2.57.47,2.91,1.38,2.89,3.3-.07,6.46-.02,12.92-.03,19.39,0,2.19-.81,3.02-3.08,3.07-2.28.05-4.55,0-6.83.01-.76,0-1.55-.12-2.2.44"/>
  <path class="cls-1" d="M231.43,388.52c-3.6.16-7.2-.36-10.8.2-2.07.32-3.26,1.37-3.28,3.54-.06,6.46-.06,12.92,0,19.39.01,1.59.79,2.55,2.62,2.68,4.19.3,8.37.18,12.56.18,8.81,0,17.62,0,26.44,0,3.08,0,6.17,0,9.25,0"/>
  <path class="cls-1" d="M291.58,343.36c.03,1.5-1.28,1.67-2.21,2.2-2.12,1.2-4.32,2.23-6.44,3.44-1.39.79-1.73,1.57-1.72,2.96.04,5.87.02,11.75.02,17.62,0,4.11-1.72,5.91-5.95,6.15-.39.02-.72.21-1.14.29-.57,3.97-.36,8.02-.4,12.07"/>
  <path class="cls-1" d="M189.58,316.26c-4.19-.12-8.37.52-12.56.02-1.7-.2-2.51.35-2.47,2.4.13,7.12.05,14.25.05,21.37,0,2.35.27,2.64,2.64,2.64,9.03.01,18.07,0,27.1,0,1.34,0,2.41,0,3.42,1.46,1.01,1.46,3.06,2.09,4.73,2.94q5.28,2.69,5.29,8.6c0,5.43,0,10.87,0,16.3,0,2.31,1.18,3.55,3.52,3.75,2.94.25,3.03.39,3.09,3.3.06,3.01-.25,6.03.21,9.03"/>
  <path class="cls-1" d="M309.42,316.26c4.04,0,8.08.06,12.12,0,1.69-.03,2.45.7,2.44,2.43-.04,7.34-.05,14.69.01,22.03.02,1.71-.79,2.01-2.23,2-5.29-.05-10.57-.02-15.86-.02h-55.52"/>
  <path class="cls-1" d="M209.18,342.26c-.47-5.58-.14-11.16-.2-16.74-.02-1.99-.29-3.96-.25-5.95.04-2.63.43-3.08,3.1-3.08,20.78,0,41.56,0,62.35,0,4.41,0,8.81-.01,13.22,0,2.07,0,2.64.57,2.64,2.64.01,6.76-.01,13.51.02,20.27,0,.97-.38,1.89-.24,2.86"/>
  <path class="cls-1" d="M262.06,285.42h-72.7"/>
  <path class="cls-1" d="M309.2,285.42h-34.81"/>
  <path class="cls-1" d="M308.98,316.26c-3.88.51-7.79.09-11.68.21-2.02.07-2.42.41-2.42,2.43,0,11.46,0,22.91,0,34.37,0,2.28.38,2.64,2.64,2.64,5.65,0,11.31-.05,16.96.04,1.59.03,2.04-.53,2.01-2.02-.07-3.6-.02-7.2-.02-10.79"/>
  <path class="cls-1" d="M190.24,316.26c3,.41,6.02.12,9.03.22.07,0,.15,0,.22,0,4.14.21,4.69-1.11,4.65,4.19-.08,10.87-.06,21.74,0,32.6.01,2.33-.34,2.71-2.67,2.67-5.43-.09-10.87-.07-16.3,0-1.66.02-2.28-.54-2.23-2.23.1-3.52.03-7.05.03-10.57"/>
  <path class="cls-1" d="M345.33,234.53c-14.83-.47-29.67-.1-44.5-.22"/>
  <path class="cls-1" d="M190.24,308.33c-.27.16-.21.41-.22.66-.6,11.16-.41,22.32-.44,33.49"/>
  <path class="cls-1" d="M309.2,308.33v47.37"/>
  <path class="cls-1" d="M180.76,316.92c.11,8.52-.24,17.04.22,25.56"/>
  <path class="cls-1" d="M318.46,316.7c0,7.2,0,14.39,0,21.59,0,1.33.07,2.66-.22,3.97"/>
  <path class="cls-1" d="M207.2,343.14c1.33-.79,2.78-.43,4.19-.44,12.85,0,25.7,0,38.55,0"/>
  <path class="cls-1" d="M197.73,234.31c-11.16,0-22.32-.02-33.49,0-4.41.01-8.83-.23-13.22.43"/>
  <path class="cls-1" d="M316.03,308.11c-3.45-.37-6.91.17-10.35,0-4.7-.24-9.4.09-14.1-.15-5.28-.27-10.58-.12-15.86.37-.29.03-.66.15-.88-.21"/>
  <path class="cls-1" d="M231.21,351.29c.3.79.22,1.61.22,2.42,0,7.2,0,14.39,0,21.59"/>
  <path class="cls-1" d="M268.98,350.41c.05,8.89-.31,19.97-.33,28.86,0,.73.09,4.26.02,9.47"/>
  <path class="cls-1" d="M230.11,414.96c-.14,6.68-.11,13.37-.04,20.05.03,2.96-1.04,6.07.35,9.09.26.56-.31,1.98-.31,3.03.01,2.07.57,2.59,2.64,2.65,5.73.17,11.46-.02,17.18,0"/>
  <path class="cls-1" d="M310.97,300.4c-2.4-.75-4.85-.21-7.27-.22-10.06,0-20.12,0-30.18,0"/>
  <path class="cls-1" d="M268.67,388.74c0,6.9-.23,13.82.06,20.71.33,8.08.36,16.16.38,24.24.01,4.11.02,8.22,0,12.34-.02,2.58-1.21,3.75-3.74,3.74-4.41-.01-8.81.31-13.22.22-.67-.01-1.35.11-1.98-.22"/>
  <path class="cls-1" d="M198.17,137.37c-2.44,5.4-4.59,10.87-5.8,16.73-1.18,5.7-1.68,11.39-1.75,17.2-.1,8.13,1.94,15.77,4.46,23.35"/>
  <path class="cls-1" d="M250.16,380.15c.01,4.24.02,6.93-.09,9.25-.11,2.28-.07,4.56-.09,6.83-.1,8.15-.18,16.31,0,24.45.14,6.1.16,12.19.14,18.29,0,1.68-.18,3.38-.18,5.07"/>
  <path class="cls-1" d="M231.43,394.03c.11,6.76-.25,13.52.22,20.27"/>
  <path class="cls-1" d="M273.07,299.96c-.71.35-1.47.21-2.2.22-10.72,0-21.44,0-32.16,0-9.77,0-19.54.14-29.3-.04-7.64-.14-15.27.23-22.92-.06-1.86-.07-3.83-.29-5.73.05-.87.15-1.28,1.18-.78,1.9l3.7,5.34c.23.34.28.77.13,1.15l-3.08,7.74"/>
  <path class="cls-1" d="M230.55,436.33h38.11"/>
  <path class="cls-1" d="M230.77,444.04c.48.31,1.02.22,1.54.22,11.38,0,22.76,0,34.15,0,.67,0,1.35.08,1.98-.22"/>
  <path class="cls-1" d="M268.45,350.63c-16.82-.14-33.64.29-50.45-.22"/>
  <path class="cls-1" d="M234.3,51.89v25.52"/>
  <path class="cls-1" d="M273.51,375.52c-.64-.64-1.45-.43-2.2-.43-12.34,0-24.67,0-37.01-.02-.93,0-9.53.82-10.39,1.13"/>
  <path class="cls-1" d="M250.38,431.7h16.52"/>
  <path class="cls-1" d="M266.02,56.52v24.45"/>
  <path class="cls-1" d="M273.29,56.08c-.79.31-1.61.22-2.42.22-13.95,0-27.91,0-41.86,0-.98,0-1.96.05-2.86-.44"/>
  <path class="cls-1" d="M236.94,431.7h11.9"/>
  <path class="cls-1" d="M274.39,74.8c-15.72,0-31.43,0-47.15,0-.81,0-1.64.16-2.42-.21"/>
  <path class="cls-1" d="M219.32,393.81c19.97-.26,39.95.02,59.92,0"/>
  <path class="cls-1" d="M323.08,285.86c-3.29,4.32-6.07,8.97-10.47,12.47-2.08,1.65-2.92,4.76-3.37,7.59-.1.65-.3,1.3-.26,1.98"/>
  <path class="cls-1" d="M265.14,83.62c-.32,4.2,1.82,7.42,4.17,10.59,1.18,1.6,2.91,2.75,3.76,4.61"/>
  <path class="cls-1" d="M189.8,342.92c-.42,4.29-.14,8.59-.22,12.89"/>
  <path class="cls-1" d="M196.41,342.92v12.78"/>
  <path class="cls-1" d="M302.15,342.92v12.78"/>
  <path class="cls-1" d="M231.88,375.74c0,3.3,0,6.61,0,9.91,0,2.66-.54,5.28-.66,7.93"/>
  <path class="cls-1" d="M263.38,440.29c-4.1.49-8.23.09-12.34.22"/>
  <path class="cls-1" d="M311.19,285.42h12.12"/>
  <path class="cls-1" d="M248.84,426.41c-4.55,0-9.11.02-13.66-.02-1.04,0-2.06.17-3.08.24"/>
  <path class="cls-1" d="M248.84,440.51h-11.46"/>
  <path class="cls-1" d="M187.81,285.2c-2.93.48-5.88.08-8.81.23-.88.04-1.8-.25-2.64.21"/>
  <path class="cls-1" d="M281,350.41c-3.82.32-7.64.39-11.46,0"/>
  <path class="cls-1" d="M224.38,307.89c4.48.21,8.96.45,13.44.01,1.39-.14,2.78.25,4.18.22,7.34-.2,14.69.03,22.03-.13,3.58-.07,7.2-.05,10.79.12"/>
  <path class="cls-1" d="M203.5,299.96c4.3,3.27,9.04,5.77,12.96,7.7,1.45.71,3.08.57,4.61.4.84-.1,1.62-.21,2.43.06"/>
  <path class="cls-1" d="M292.9,302.16c-3.42,1.38-6.51,3.5-10.13,4.41"/>
  <path class="cls-1" d="M264.59,426.4h-11.9"/>
  <path class="cls-1" d="M336.52,158.52h-9.69"/>
  <path class="cls-1" d="M172.17,158.52h-8.81"/>
  <path class="cls-1" d="M262.5,285.2c2.93.51,5.88.07,8.81.22"/>
  <path class="cls-1" d="M262.94,301.72c.39,4.88,1.04,9.73,1.98,14.54"/>
  <path class="cls-1" d="M175.04,285.2c-2.71.48-5.44.1-8.15.22"/>
  <path class="cls-1" d="M312.07,299.74c2,.87,4.13-.15,6.18.41.56.15,1.2.05,1.75.36"/>
  <path class="cls-1" d="M299.95,308.55c.06,2.57-.17,5.15.22,7.71"/>
  <path class="cls-1" d="M236.94,300.4c-.83,3.18-.62,6.49-1.29,9.7-.43,2.06-1.13,4.06-1.36,6.16"/>
  <path class="cls-1" d="M199.27,308.33c.48,1.75.12,3.53.21,5.29.04.84-.02,1.67.45,2.42"/>
  <path class="cls-1" d="M188.03,300.4c.99,2.41,2.04,4.8,1.98,7.49"/>
  <path class="cls-1" d="M275.06,308.55c.14,2.64,1.69,4.95,1.76,7.6"/>
  <path class="cls-1" d="M184.51,307.89c5.8.03,11.61.43,17.4.16,4.7-.21,9.41.13,14.1-.38"/>
  <path class="cls-1" d="M162.04,158.74c-2.19-.5-4.41-.09-6.61-.22"/>
  <path class="cls-1" d="M211.83,221.09l3.97,5.29"/>
  <path class="cls-1" d="M250.16,444.48c.02,2.86-.04,2.42,0,5.29"/>
  <path class="cls-1" d="M178.34,174.38c1.44,1.79,3.06,3.41,4.85,4.85"/>
  <path class="cls-1" d="M292.02,206.99c-1.07,1.7-2.9,2.71-3.97,4.41"/>
  <path class="cls-1" d="M266.02,51.89v4.19"/>
  <path class="cls-1" d="M235.49,83.62c.32,4.2-1.82,7.42-4.17,10.59-1.18,1.6-2.91,2.75-3.76,4.61"/>
  <path class="cls-1" d="M310.52,184.45c-1.18,5.7-1.68,11.39-1.75,17.2"/>
  <path class="cls-1" d="M297.94,138.32c2.44,5.4,4.59,10.87,5.8,16.73,1.18,5.7,1.68,11.39,1.75,17.2.1,8.13-1.94,15.77-4.46,23.35"/>
</svg>