<svg width="500" height="500" viewBox="0 0 500 500" fill="none" xmlns="http://www.w3.org/2000/svg">
<ellipse cx="248.5" cy="340" rx="82.5" ry="32" fill="#FFDA00" fill-opacity="0.7"/>
<ellipse cx="249.5" cy="149" rx="84.5" ry="32" fill="#FFDA00" fill-opacity="0.7"/>
<ellipse cx="249.5" cy="74.5" rx="63.5" ry="19.5" fill="#FFDA00" fill-opacity="0.7"/>
<path d="M198.17 423.15C198.01 427.81 199.41 431.9 202.61 435.35C208.88 442.12 216.99 445.46 225.67 447.78C236.61 450.71 247.76 450.81 258.94 450.19C268.56 449.65 277.83 447.58 286.43 443.09C292.03 440.17 297.06 436.52 299.93 430.67C301.17 428.13 302.34 425.47 301.96 422.48" stroke="#2071B5" stroke-width="4.21" stroke-linecap="round" stroke-linejoin="round"/>
<path d="M299.97 429.8C298.88 429.22 298.41 430.14 297.75 430.68C295.18 432.77 292.72 435.05 289.96 436.85C285.2 439.96 279.72 441.4 274.24 442.65C263.13 445.19 251.9 445.88 240.53 444.92C232.16 444.22 223.97 442.9 216.14 439.77C210.64 437.57 205.61 434.62 201.73 430.01C201.05 429.2 200.53 428.25 199.94 427.36C199.57 427.36 199.2 427.36 198.83 427.36" stroke="#2071B5" stroke-width="4.21" stroke-linecap="round" stroke-linejoin="round"/>
<path d="M200.6 349.07C202.74 349.81 204.93 350.44 207.02 351.31C213.45 353.96 220.22 355.37 227 356.52C232.32 357.42 237.78 357.82 243.18 357.87C251.24 357.94 259.32 357.84 267.35 357.19C275.83 356.5 284.23 354.97 292.2 351.75C292.39 351.67 292.64 351.75 292.86 351.75" stroke="#2071B5" stroke-width="4.21" stroke-linecap="round" stroke-linejoin="round"/>
<path d="M207.04 353.28C213.03 354.91 218.96 356.81 225.02 358.07C229.43 358.99 234.01 359.24 238.53 359.44C244.58 359.71 250.66 359.81 256.71 359.67C268.41 359.41 279.95 358.04 291.09 354.17C295.98 352.47 300.64 350.31 304.15 346.38C308.64 341.35 310.51 335.19 305.05 328.67C304.35 327.83 303.51 327.11 302.74 326.34C302.63 326.45 302.52 326.56 302.41 326.66C301.67 325.63 300.93 324.59 300.18 323.56" stroke="#2071B5" stroke-width="4.21" stroke-linecap="round" stroke-linejoin="round"/>
<path d="M268.69 256.14V292.33C275.68 291.05 282.42 289.61 288.4 286.03C291.52 284.16 294.56 282.03 297.23 279.57C299.42 277.55 300.46 274.69 300.24 271.17C300.8 270.66 301.53 269.83 302.42 269.25C305.02 267.55 306.02 265.24 305.99 262.13C305.84 240.91 305.8 219.69 305.73 198.48C305.73 197.73 305.73 196.99 305.73 196.28C310.52 194.6 315.18 193.16 319.69 191.34C328.97 187.61 337.83 183.21 344.57 175.43C347.98 171.49 349.51 166.99 349.41 161.88C349.32 157.22 349.28 152.55 348.94 147.91C348.52 142.16 345.26 137.91 340.97 134.4C338.72 132.56 336.28 130.94 333.88 129.3C333.18 128.82 332.29 128.63 331.29 128.23C331.21 127.51 331.03 126.62 331.02 125.72C331 111.97 330.88 98.2204 331.11 84.4704C331.16 81.5504 330.05 79.7904 328.14 78.0204C319.15 69.7304 309.16 62.9904 297.73 58.5404C290.85 55.8604 283.78 53.7504 276.44 52.7704C271.06 52.0604 265.66 51.3304 260.25 51.0304C253.39 50.6404 246.48 50.2904 239.63 50.6104C227.54 51.1904 215.64 53.3404 204.16 57.2304C194.08 60.6504 185.13 66.2605 176.88 72.9405C174.48 74.8805 171.96 76.6305 170.32 79.5105C169.14 81.5805 169.45 83.6204 169.42 85.5604C169.23 98.5704 169.32 111.58 169.32 124.59V127.56C162.68 131.18 156.54 134.77 152.67 141.22C150.57 144.73 149.64 148.45 149.77 152.54C149.91 156.75 149.88 160.97 149.77 165.18C149.66 169.56 151.91 172.9 154.48 176.03C159.42 182.05 166.06 185.76 173.11 188.64C179.88 191.41 186.75 194 193.74 196.14C198.69 197.66 203.91 198.3 209.01 199.34C218.16 201.2 227.41 201.91 236.73 202.02C243.68 202.1 250.63 202.37 257.58 202.42C261.2 202.44 264.82 202.15 268.45 202.01" stroke="#2071B5" stroke-width="4.21" stroke-linecap="round" stroke-linejoin="round"/>
<path d="M187.3 66.29C187.45 68.36 187.71 70.43 187.72 72.5C187.75 77.14 190.2 80.1 193.93 82.52C200.34 86.68 207.51 88.72 214.81 90.45C222.39 92.26 230.09 93.28 237.87 93.56C243.19 93.75 248.52 94.05 253.84 93.97C267.18 93.77 280.37 92.17 293.08 87.96C299.21 85.93 305.31 83.61 309.98 78.73C312.25 76.36 312.73 73.22 309.98 70.26C306.77 66.79 302.58 64.94 298.4 63.25C287.47 58.83 276.02 56.58 264.27 55.89C258.22 55.54 252.15 55.2 246.08 55.25C234.46 55.34 223.01 56.99 211.7 59.64" stroke="#2071B5" stroke-width="4.21" stroke-linecap="round" stroke-linejoin="round"/>
<path d="M193.95 196.7C193.95 219.03 193.97 241.35 193.91 263.68C193.91 265.94 194.74 267.45 196.6 268.57C198.42 269.67 199.58 270.94 199.6 273.44C199.62 276.26 201.4 278.57 203.47 280.55C207.67 284.56 212.65 287.15 218.11 288.99C226.9 291.95 235.89 293.73 245.17 293.59C252.05 293.49 258.92 293.05 265.8 292.72C266.69 292.68 267.56 292.39 268.68 292.16V302.5C276.99 301.1 284.83 298.85 292.17 295.14C295.09 293.66 297.87 291.86 300.59 290.04C302.05 289.06 302.71 285.28 301.67 283.45C300.74 281.82 299.36 280.46 298.18 278.98" stroke="#2071B5" stroke-width="4.21" stroke-linecap="round" stroke-linejoin="round"/>
<path d="M198.17 309.15C197.8 309.08 197.36 308.83 197.07 308.95C189.13 312.41 181.09 315.67 174.22 321.13C168.02 326.06 163.83 332.08 164 340.42C164.08 344.41 163.71 348.43 164.09 352.39C164.64 358.12 167.55 362.73 172 366.38C173.17 367.34 174.27 368.39 175.27 369.27C175.21 370.36 175.12 371.25 175.12 372.14C175.11 381.53 175.33 390.93 175.03 400.3C174.86 405.49 177.02 409.06 180.87 412.07C185.56 415.74 190.57 418.86 195.95 421.39C196.67 421.73 197.29 422.26 197.96 422.6C220.72 431.97 244.47 432.42 268.7 430.41V436.23" stroke="#2071B5" stroke-width="4.21" stroke-linecap="round" stroke-linejoin="round"/>
<path d="M202.38 198.92C202.31 199.51 202.17 200.1 202.17 200.69C202.16 221.24 202.16 241.8 202.17 262.35C202.17 262.94 202.31 263.53 202.38 264.12" stroke="#2071B5" stroke-width="4.21" stroke-linecap="round" stroke-linejoin="round"/>
<path d="M297.97 199.58C298.04 220.95 298.12 242.31 298.18 263.68C298.18 263.9 298.04 264.12 297.97 264.35" stroke="#2071B5" stroke-width="4.21" stroke-linecap="round" stroke-linejoin="round"/>
<path d="M206.82 426.47C206.72 427.21 206.61 427.94 206.53 428.49C208.56 429.48 210.46 430.42 212.36 431.35C219.44 434.78 226.98 436.55 234.76 437.31C239.26 437.75 243.79 438.28 248.28 438.14C255.09 437.93 261.89 437.19 268.69 436.67" stroke="#2071B5" stroke-width="4.21" stroke-linecap="round" stroke-linejoin="round"/>
<path d="M199.94 272.11C200.46 272.26 201.05 272.29 201.48 272.57C209.7 277.86 218.8 280.8 228.33 282.5C231.92 283.14 235.56 283.63 239.19 283.82C245.47 284.14 251.79 284.64 258.03 284.21C272.18 283.25 285.92 280.57 297.97 272.35C298.48 272 299.14 271.89 299.73 271.67" stroke="#2071B5" stroke-width="4.21" stroke-linecap="round" stroke-linejoin="round"/>
<path d="M200.83 291.18C197.95 294.96 197.87 298.86 200.88 301.77C202.8 303.63 205.13 305.17 207.5 306.44C213.74 309.79 220.52 311.55 227.43 312.94C236.9 314.85 246.49 315.1 256.04 314.6C268.35 313.96 280.46 312 291.52 306.02C294.38 304.48 297.27 302.96 299.92 301.1C302.86 299.04 303.05 293.86 300.62 290.28" stroke="#2071B5" stroke-width="4.21" stroke-linecap="round" stroke-linejoin="round"/>
<path d="M206.82 329.33C212.82 331.93 218.97 334.12 225.46 335.06C230.68 335.82 235.94 336.55 241.21 336.8C247.41 337.1 253.63 336.96 259.84 336.83C262.8 336.77 265.76 336.28 268.71 335.98" stroke="#2071B5" stroke-width="4.21" stroke-linecap="round" stroke-linejoin="round"/>
<path d="M206.37 199.8V203.35C206.37 222.05 206.37 240.76 206.37 259.46C206.37 260.2 206.51 260.94 206.58 261.68" stroke="#2071B5" stroke-width="4.21" stroke-linecap="round" stroke-linejoin="round"/>
<path d="M206.82 320.24C209.85 321.42 212.85 322.71 215.92 323.77C223.1 326.23 230.55 327.36 238.09 328.02C247.8 328.86 257.5 328.51 267.14 327.3C275.41 326.26 283.42 324.13 290.88 320.25" stroke="#2071B5" stroke-width="4.21" stroke-linecap="round" stroke-linejoin="round"/>
<path d="M292.43 199.8C292.5 200.54 292.64 201.28 292.64 202.02C292.65 221.09 292.64 240.17 292.64 259.24C292.64 263.38 292.65 267.52 292.64 271.66C292.64 272.4 292.5 273.14 292.43 273.88" stroke="#2071B5" stroke-width="4.21" stroke-linecap="round" stroke-linejoin="round"/>
<path d="M204.82 330C211.41 333.95 218.71 336.01 226.13 337.45C230.84 338.37 235.72 338.55 240.53 338.83C244.88 339.08 249.25 339.15 253.61 339.05C258.57 338.93 263.53 338.54 268.69 338.25V343.75" stroke="#2071B5" stroke-width="4.21" stroke-linecap="round" stroke-linejoin="round"/>
<path d="M199.5 325.56C199.28 327.93 198.88 330.29 198.89 332.66C198.89 334.5 199.8 336 201.48 337.13C211.96 344.17 223.95 346.22 236.1 347.73C245.1 348.85 254.12 348.75 263.16 348C271.67 347.3 279.99 345.86 287.99 342.85C292.54 341.14 296.98 339.17 300.41 335.54C302.45 333.38 303.19 330.9 302.21 327.99C302.11 327.68 302.33 327.26 302.41 326.89" stroke="#2071B5" stroke-width="4.21" stroke-linecap="round" stroke-linejoin="round"/>
<path d="M201.49 279.21C199.39 281.38 197.86 283.71 198.8 286.98C199.29 288.69 200 290.09 201.47 291.21C206.89 295.36 212.98 298.14 219.46 300.03C227.85 302.47 236.44 303.55 245.18 303.88C253.01 304.17 260.74 303.47 268.69 302.57V304.94" stroke="#2071B5" stroke-width="4.21" stroke-linecap="round" stroke-linejoin="round"/>
<path d="M324.03 370.14C324.07 371.32 324.13 372.51 324.14 373.69C324.14 383.23 324.1 392.76 324.17 402.3C324.19 405.14 323.24 407.42 321.27 409.41C316.64 414.06 311.07 417.32 305.29 420.27C296.33 424.84 286.83 427.66 276.9 429.15C274.23 429.55 271.58 430.03 268.91 430.47" stroke="#2071B5" stroke-width="4.21" stroke-linecap="round" stroke-linejoin="round"/>
<path d="M288.66 103.33C282.6 101.85 276.57 100.2 270.46 98.9603C266.91 98.2403 263.23 97.9303 259.6 97.8403C252.65 97.6703 245.67 97.3703 238.76 97.8903C229.56 98.5903 220.41 100 211.69 103.33" stroke="#2071B5" stroke-width="4.21" stroke-linecap="round" stroke-linejoin="round"/>
<path d="M292.87 341.31C292.98 341.89 293.08 342.47 293.18 343.04C271.57 353.64 232.05 352.09 211.47 344.19" stroke="#2071B5" stroke-width="4.21" stroke-linecap="round" stroke-linejoin="round"/>
<path d="M288.66 117.74C283.34 116.56 278.05 115.17 272.68 114.25C268.3 113.5 263.83 113.13 259.38 112.9C254.14 112.63 248.88 112.57 243.64 112.67C236.64 112.79 229.66 113.33 222.79 114.85C219.32 115.62 215.84 116.33 212.37 117.07" stroke="#2071B5" stroke-width="4.21" stroke-linecap="round" stroke-linejoin="round"/>
<path d="M175.54 369.7C176.06 369.85 176.63 369.9 177.08 370.16C184.9 374.6 193.19 377.84 201.93 379.89C208.2 381.36 214.47 382.86 220.79 384.06C224.35 384.74 228.02 385.01 231.65 385.19C239.48 385.59 247.32 386.03 255.16 386.06C267.58 386.1 279.87 384.78 291.98 381.92C302.63 379.4 312.86 375.94 322.39 370.41C328.38 366.93 332.84 362.34 334.96 355.71C335.49 354.03 335.55 352.18 335.65 350.4C335.81 347.67 335.82 344.93 335.9 342.2C335.93 341.23 335.93 341.23 334.79 340.65" stroke="#2071B5" stroke-width="4.21" stroke-linecap="round" stroke-linejoin="round"/>
<path d="M291.32 412.95C286.37 415.98 280.99 417.92 275.35 419.14C269.73 420.36 264.06 421.31 258.28 421.39C253.62 421.46 248.95 421.96 244.31 421.74C238.75 421.47 233.2 420.74 227.68 420.01C223.52 419.45 219.29 418.93 215.28 417.74C209.28 415.97 203.84 412.97 199.51 408.29" stroke="#2071B5" stroke-width="4.21" stroke-linecap="round" stroke-linejoin="round"/>
<path d="M278.45 384.78V405.25C275.77 405.82 273.14 406.68 270.46 406.91C262.41 407.58 254.35 408.28 246.29 408.42C241.05 408.51 235.8 407.47 230.54 407.23C224.09 406.93 218.02 405.21 212.15 402.71C209.35 401.52 206.46 400.3 204.59 397.65" stroke="#2071B5" stroke-width="4.21" stroke-linecap="round" stroke-linejoin="round"/>
<path d="M268.47 181.4C268.54 182.07 268.68 182.73 268.68 183.4C268.69 206.76 268.69 230.12 268.68 253.49C268.68 254.23 268.54 254.97 268.47 255.71" stroke="#2071B5" stroke-width="4.21" stroke-linecap="round" stroke-linejoin="round"/>
<path d="M230.99 202.24C230.99 219.24 230.99 236.25 230.99 253.25C230.99 253.99 231.13 254.73 231.2 255.47" stroke="#2071B5" stroke-width="4.21" stroke-linecap="round" stroke-linejoin="round"/>
<path d="M273.57 409.84C270.76 410.43 267.97 411.11 265.14 411.59C261.9 412.14 258.65 412.77 255.38 412.89C249.47 413.1 243.54 413.17 237.64 412.88C232.89 412.64 228.17 411.77 223.44 411.18" stroke="#2071B5" stroke-width="4.21" stroke-linecap="round" stroke-linejoin="round"/>
<path d="M230.96 158.39C230.77 172.74 230.77 187.38 230.77 201.8" stroke="#2071B5" stroke-width="4.21" stroke-linecap="round" stroke-linejoin="round"/>
<path d="M210.81 104.21C210.81 123.36 210.81 142.51 210.81 161.65C210.81 162.46 210.67 163.28 210.6 164.09" stroke="#2071B5" stroke-width="4.21" stroke-linecap="round" stroke-linejoin="round"/>
<path d="M278.01 369.03C275.64 369.33 273.28 369.64 270.91 369.91C266.33 370.44 261.75 371.13 257.16 371.42C251.78 371.76 246.36 371.99 240.97 371.85C235.49 371.7 230.03 371 224.56 370.59C216.93 370.02 209.5 368.4 202.16 366.35C191.43 363.36 181.18 359.22 172.49 352.11C168.34 348.71 165.29 344.19 166.31 338.44C167.12 333.88 169.91 330.18 173.56 327.36C179.92 322.46 187.01 318.84 194.61 316.24" stroke="#2071B5" stroke-width="4.21" stroke-linecap="round" stroke-linejoin="round"/>
<path d="M169.11 128.17C169.26 128.98 169.52 129.79 169.53 130.61C169.58 134.08 169.55 137.56 169.55 141.22C171.81 143.81 174.95 145.32 177.97 147.03C186.7 151.97 195.38 157 204.16 161.85C208.11 164.03 212.32 165.11 217.01 165.07C234.16 164.94 251.31 165.14 268.46 165.21" stroke="#2071B5" stroke-width="4.21" stroke-linecap="round" stroke-linejoin="round"/>
<path d="M150.04 155C150.48 155.3 151.13 155.49 151.34 155.9C154.19 161.44 159.29 164.41 164.47 167.17C172.59 171.5 181.12 174.85 189.96 177.41C191.31 177.8 192.62 178.29 193.95 178.73" stroke="#2071B5" stroke-width="4.21" stroke-linecap="round" stroke-linejoin="round"/>
<path d="M348.98 155.67C348.61 155.97 348.14 156.19 347.89 156.57C343.85 162.62 337.77 166.1 331.42 168.88C324.36 171.97 317.01 174.42 309.72 176.93C302.14 179.54 294.35 181.39 286.44 182.71C280.61 183.68 274.76 184.5 268.92 185.39" stroke="#2071B5" stroke-width="4.21" stroke-linecap="round" stroke-linejoin="round"/>
<path d="M292.65 368.37C289.32 369.11 286.02 370 282.66 370.55C276.99 371.49 271.3 372.34 265.58 372.99C255.99 374.09 246.38 374.35 236.75 373.48C232.62 373.11 228.47 372.88 224.33 372.58" stroke="#2071B5" stroke-width="4.21" stroke-linecap="round" stroke-linejoin="round"/>
<path d="M335.56 340.42C336.07 333.3 332.88 327.74 327.87 323.16C322.96 318.67 317.19 315.47 311.06 312.9C307.83 311.54 304.69 309.96 301.51 308.49" stroke="#2071B5" stroke-width="4.21" stroke-linecap="round" stroke-linejoin="round"/>
<path d="M211.92 93.1201C216.13 93.8601 220.34 94.6501 224.57 95.3101C226.4 95.6001 228.26 95.7501 230.11 95.7601C237.95 95.8101 245.78 95.7801 253.62 95.7801" stroke="#2071B5" stroke-width="4.21" stroke-linecap="round" stroke-linejoin="round"/>
<path d="M330.35 145.02C331.39 146.65 332.66 148.17 333.4 149.92C334.86 153.37 333.12 156.32 331.2 158.97C327.37 164.23 321.66 166.94 315.92 169.38C305.09 173.99 293.77 176.99 282.22 179.18C268.88 181.71 255.39 182.43 241.85 182.02C233.52 181.77 225.23 180.9 217 179.42C205.71 177.39 194.66 174.63 184.18 169.86C179.34 167.65 174.52 165.4 170.42 161.88C168.14 159.92 166.11 157.8 165.32 154.78" stroke="#2071B5" stroke-width="4.21" stroke-linecap="round" stroke-linejoin="round"/>
<path d="M206.82 317.58C215.91 322.41 225.71 324.68 235.88 325.55C239.72 325.88 243.57 326.07 247.41 326.22C254.47 326.5 261.49 325.82 268.48 324.9" stroke="#2071B5" stroke-width="4.21" stroke-linecap="round" stroke-linejoin="round"/>
<path d="M268.47 185.39C265.36 185.69 262.26 186.18 259.15 186.24C252.13 186.37 245.1 186.43 238.08 186.22C234 186.1 229.94 185.42 225.88 184.94C222.47 184.54 219.05 184.21 215.68 183.58C210.33 182.59 205.03 181.4 199.71 180.28C198.01 179.92 196.31 179.54 194.61 179.17" stroke="#2071B5" stroke-width="4.21" stroke-linecap="round" stroke-linejoin="round"/>
<path d="M282 121.07C276.6 120.03 271.25 118.58 265.8 118.06C257.86 117.31 249.87 116.48 241.85 117.49C239.14 117.83 236.38 117.79 233.65 117.98C232.83 118.04 232.02 118.26 231.21 118.41" stroke="#2071B5" stroke-width="4.21" stroke-linecap="round" stroke-linejoin="round"/>
<path d="M292.2 261.46C288.43 260.2 284.73 258.62 280.87 257.77C275.99 256.69 271 255.94 266.02 255.54C259.68 255.03 253.31 254.87 246.95 254.84C236.31 254.8 225.76 255.89 215.48 258.65C210.79 259.91 206.11 261.51 201.93 264.66V271.66" stroke="#2071B5" stroke-width="4.21" stroke-linecap="round" stroke-linejoin="round"/>
<path d="M268.42 158.23C256.25 160.26 244.1 159.86 231.88 158.77" stroke="#2071B5" stroke-width="4.21" stroke-linecap="round" stroke-linejoin="round"/>
<path d="M290.43 124.17C296.71 127.23 303.86 132.28 302.59 140.29C301.28 148.51 292.23 151.91 285.34 154.06C280.47 155.58 275.52 156.91 270.51 157.86" stroke="#2071B5" stroke-width="4.21" stroke-linecap="round" stroke-linejoin="round"/>
<path d="M305.51 196.48C303.88 196.7 302.24 196.83 300.63 197.16C295.08 198.3 289.57 199.75 283.98 200.62C279.01 201.4 273.94 201.58 268.91 202.02" stroke="#2071B5" stroke-width="4.21" stroke-linecap="round" stroke-linejoin="round"/>
<path d="M313.05 84.7002C313.12 86.7002 313.26 88.6902 313.26 90.6902C313.28 109.99 313.26 129.28 313.29 148.58C313.29 149.47 313.57 150.35 313.71 151.24" stroke="#2071B5" stroke-width="4.21" stroke-linecap="round" stroke-linejoin="round"/>
<path d="M268.25 287.86C262.41 288.23 256.57 288.81 250.73 288.91C245.78 288.99 240.82 288.55 235.87 288.29C234.83 288.24 233.8 288.01 232.76 287.86" stroke="#2071B5" stroke-width="4.21" stroke-linecap="round" stroke-linejoin="round"/>
<path d="M301.96 231.08V266.57" stroke="#2071B5" stroke-width="4.21" stroke-linecap="round" stroke-linejoin="round"/>
<path d="M334.57 341.08C329.76 351.92 320.23 357.25 310.16 361.9C307.57 363.1 304.85 363.99 302.19 365.03" stroke="#2071B5" stroke-width="4.21" stroke-linecap="round" stroke-linejoin="round"/>
<path d="M332.13 341.53C332.66 335.5 329.13 331.44 324.98 328.07C318.67 322.95 311.57 319.1 303.74 316.69" stroke="#2071B5" stroke-width="4.21" stroke-linecap="round" stroke-linejoin="round"/>
<path d="M187.74 75.8203C187.67 78.7003 187.58 81.5903 187.52 84.4703C187.5 85.5803 187.52 86.6903 187.52 87.8003C187.52 96.8203 187.51 105.84 187.52 114.86C187.52 116.41 187.66 117.97 187.73 119.52" stroke="#2071B5" stroke-width="4.21" stroke-linecap="round" stroke-linejoin="round"/>
<path d="M300.63 88.6904C286.72 93.6704 272.46 96.5704 257.6 95.7904" stroke="#2071B5" stroke-width="4.21" stroke-linecap="round" stroke-linejoin="round"/>
<path d="M331.46 128.61C331.31 130.61 330.79 132.66 331.09 134.59C331.93 140.03 329.77 143.14 324.86 145.58C316.16 149.91 307.81 154.95 299.29 159.65C296.14 161.39 292.92 163.03 289.74 164.71C289.53 164.59 289.31 164.46 289.1 164.34V153.68" stroke="#2071B5" stroke-width="4.21" stroke-linecap="round" stroke-linejoin="round"/>
<path d="M288.88 92.9004C288.95 111.83 289.03 130.75 289.1 149.68C289.1 150.72 289.1 151.75 289.1 152.79" stroke="#2071B5" stroke-width="4.21" stroke-linecap="round" stroke-linejoin="round"/>
<path d="M211.47 55.4199V89.5799" stroke="#2071B5" stroke-width="4.21" stroke-linecap="round" stroke-linejoin="round"/>
<path d="M288.66 55.8604C288.73 67.9104 288.81 79.9604 288.88 92.0104" stroke="#2071B5" stroke-width="4.21" stroke-linecap="round" stroke-linejoin="round"/>
<path d="M205.93 328.66C204.67 327.85 203.45 326.97 202.15 326.24C201.11 325.67 199.97 325.28 198.68 324.74C194.41 328.86 190.64 333.18 191.78 339.74C191.99 340.98 192.56 342.29 193.34 343.26C194.81 345.09 196.49 346.76 198.21 348.36C198.72 348.83 199.65 348.84 200.39 349.06" stroke="#2071B5" stroke-width="4.21" stroke-linecap="round" stroke-linejoin="round"/>
<path d="M268.25 261.02C263.67 260.65 259.09 260.03 254.5 259.97C247.92 259.88 241.32 259.94 234.77 260.43C227.52 260.97 220.37 262.36 213.48 264.81C212.77 265.06 212.14 265.53 211.48 265.9C209.31 267.11 208.06 268.84 208.37 271.44" stroke="#2071B5" stroke-width="4.21" stroke-linecap="round" stroke-linejoin="round"/>
<path d="M329.02 80.04C325.62 80.85 322.18 81.55 318.82 82.5C311.82 84.5 305.1 87.24 299.57 92.07C295.96 95.22 292.86 98.96 289.54 102.43" stroke="#2071B5" stroke-width="4.21" stroke-linecap="round" stroke-linejoin="round"/>
<path d="M211.03 60.0801C203.94 61.6001 197.3 64.2501 191.34 68.3501C189.93 69.3201 189.08 71.0901 187.97 72.5001" stroke="#2071B5" stroke-width="4.21" stroke-linecap="round" stroke-linejoin="round"/>
<path d="M188.18 85.1396C193.52 87.0296 197.79 90.5697 201.9 94.2597C204.79 96.8597 207.59 99.5996 209.49 103.09C209.71 103.49 210.15 103.77 210.9 104.52C211.15 103.31 211.43 102.54 211.46 101.77C211.58 97.8496 211.63 93.9296 211.7 90.0196" stroke="#2071B5" stroke-width="4.21" stroke-linecap="round" stroke-linejoin="round"/>
<path d="M299.97 310.92C296.54 314.19 292.74 316.89 288.45 318.92C283.2 321.41 277.63 322.87 272.03 324.22C271 324.47 269.96 324.67 268.93 324.89" stroke="#2071B5" stroke-width="4.21" stroke-linecap="round" stroke-linejoin="round"/>
<path d="M292.65 331.33C285.23 335.29 277.16 336.93 268.47 338.15V327.34" stroke="#2071B5" stroke-width="4.21" stroke-linecap="round" stroke-linejoin="round"/>
<path d="M312.83 121.07C305.75 116.1 297.99 112.35 290.2 108.66C289.96 108.55 289.62 108.65 289.32 108.65" stroke="#2071B5" stroke-width="4.21" stroke-linecap="round" stroke-linejoin="round"/>
<path d="M300.08 301.38C301.74 304.39 301.97 307.42 300.1 310.58C302.02 312.92 302.38 315.78 302.15 318.68C301.87 322.19 299.23 324.11 296.65 326.01C289.63 331.18 281.71 333.97 273.14 335.1C271.8 335.28 270.48 335.54 269.15 335.76" stroke="#2071B5" stroke-width="4.21" stroke-linecap="round" stroke-linejoin="round"/>
<path d="M210.36 108.87C205.91 109.64 202.06 111.93 198.18 114.01C188.89 118.98 180.17 124.84 172 131.51C171.64 131.8 171.4 132.24 171.1 132.61" stroke="#2071B5" stroke-width="4.21" stroke-linecap="round" stroke-linejoin="round"/>
<path d="M291.76 297.61C285.28 300.83 278.5 303.1 271.36 304.27C270.54 304.4 269.73 304.56 268.92 304.71" stroke="#2071B5" stroke-width="4.21" stroke-linecap="round" stroke-linejoin="round"/>
<path d="M291.32 429.36C286.72 432.2 281.61 433.73 276.45 435.1C273.9 435.78 271.28 436.16 268.69 436.68" stroke="#2071B5" stroke-width="4.21" stroke-linecap="round" stroke-linejoin="round"/>
<path d="M203.71 386.33C197.84 392.04 195.16 402.05 199.05 407.53V420.93" stroke="#2071B5" stroke-width="4.21" stroke-linecap="round" stroke-linejoin="round"/>
<path d="M187.52 129.27C187.52 135.92 187.52 142.58 187.52 149.23C187.52 149.97 187.38 150.71 187.31 151.45" stroke="#2071B5" stroke-width="4.21" stroke-linecap="round" stroke-linejoin="round"/>
<path d="M294.2 382.56C295.6 384.19 297.06 385.77 298.4 387.45C300.67 390.29 301.7 393.61 301.72 397.2C301.77 404.15 301.73 411.1 301.73 418.05V421.16" stroke="#2071B5" stroke-width="4.21" stroke-linecap="round" stroke-linejoin="round"/>
<path d="M210.59 117.52C207.37 117.31 204.67 119.04 201.99 120.29C197.45 122.42 193.22 125.21 188.85 127.72" stroke="#2071B5" stroke-width="4.21" stroke-linecap="round" stroke-linejoin="round"/>
<path d="M289.1 164.32C288.36 164.54 287.63 164.94 286.88 164.96C280.89 165.08 274.9 165.14 268.92 165.21" stroke="#2071B5" stroke-width="4.21" stroke-linecap="round" stroke-linejoin="round"/>
<path d="M288.21 269.22C286.92 266.63 284.5 265.57 282.01 264.55C277.73 262.79 273.33 261.54 268.7 261.24" stroke="#2071B5" stroke-width="4.21" stroke-linecap="round" stroke-linejoin="round"/>
<path d="M230.99 261.24V281.2" stroke="#2071B5" stroke-width="4.21" stroke-linecap="round" stroke-linejoin="round"/>
<path d="M309.95 128.17C304.04 123.73 297.53 120.47 290.43 118.41" stroke="#2071B5" stroke-width="4.21" stroke-linecap="round" stroke-linejoin="round"/>
<path d="M208.81 123.29C204.45 125.03 200.6 127.51 197.73 131.28C194.24 135.87 194.62 141.9 198.61 146.13C201.22 148.89 204.46 150.68 207.92 152.12" stroke="#2071B5" stroke-width="4.21" stroke-linecap="round" stroke-linejoin="round"/>
<path d="M212.36 153.89C217.04 155.94 222.05 156.81 227 157.87C228.02 158.09 229.07 158.18 230.1 158.32" stroke="#2071B5" stroke-width="4.21" stroke-linecap="round" stroke-linejoin="round"/>
<path d="M299.97 336.87C300.71 338.72 301.74 340.51 302.11 342.43C302.58 344.85 301.53 346.92 299.29 348.17C297.33 349.26 295.3 350.25 293.31 351.29" stroke="#2071B5" stroke-width="4.21" stroke-linecap="round" stroke-linejoin="round"/>
<path d="M313.27 67.1699C313.2 68.7199 313.07 70.2699 313.06 71.8299C313.03 75.9699 313.05 80.1099 313.05 84.2499" stroke="#2071B5" stroke-width="4.21" stroke-linecap="round" stroke-linejoin="round"/>
<path d="M305.51 178.51C305.51 183.39 305.51 188.27 305.51 193.15C305.51 193.89 305.65 194.63 305.72 195.37" stroke="#2071B5" stroke-width="4.21" stroke-linecap="round" stroke-linejoin="round"/>
<path d="M346.32 150.79C346.44 148.46 344.89 146.82 343.6 145.3C340.54 141.68 337.06 138.46 332.57 136.6" stroke="#2071B5" stroke-width="4.21" stroke-linecap="round" stroke-linejoin="round"/>
<path d="M170.66 79.5898C172.33 81.0398 174.52 80.5799 176.42 81.1599C180.06 82.2699 183.67 83.5098 187.29 84.6898" stroke="#2071B5" stroke-width="4.21" stroke-linecap="round" stroke-linejoin="round"/>
<path d="M169.11 135.71C164.12 137.84 159.72 140.83 156.05 144.82C155.16 145.79 154.55 147.02 153.81 148.13" stroke="#2071B5" stroke-width="4.21" stroke-linecap="round" stroke-linejoin="round"/>
<path d="M202.16 181.17C202.16 185.9 202.16 190.63 202.16 195.36C202.16 196.1 202.02 196.84 201.95 197.58" stroke="#2071B5" stroke-width="4.21" stroke-linecap="round" stroke-linejoin="round"/>
<path d="M230.77 118.41C226.41 119.22 222.05 120.03 217.69 120.85C216.65 121.05 215.62 121.29 214.58 121.51" stroke="#2071B5" stroke-width="4.21" stroke-linecap="round" stroke-linejoin="round"/>
<path d="M194.39 157.44C194.32 163.06 194.21 168.68 194.18 174.3C194.14 180.88 194.18 187.46 194.16 194.04C194.16 194.48 194.02 194.93 193.95 195.37" stroke="#2071B5" stroke-width="4.21" stroke-linecap="round" stroke-linejoin="round"/>
<path d="M268.69 158.55V180.95" stroke="#2071B5" stroke-width="4.21" stroke-linecap="round" stroke-linejoin="round"/>
<path d="M258.49 301.61H242.96" stroke="#2071B5" stroke-width="4.21" stroke-linecap="round" stroke-linejoin="round"/>
<path d="M313.72 121.96C317.93 124.99 322.16 128 326.35 131.07C327.31 131.78 328.14 132.68 329.02 133.49" stroke="#2071B5" stroke-width="4.21" stroke-linecap="round" stroke-linejoin="round"/>
<path d="M199.27 349.96C199.2 354.47 199.09 358.98 199.06 363.49C199.02 368.15 199.06 372.81 199.06 377.46" stroke="#2071B5" stroke-width="4.21" stroke-linecap="round" stroke-linejoin="round"/>
<path d="M301.74 349.73C301.81 354.61 301.92 359.49 301.95 364.37C301.99 369.25 301.95 374.13 301.95 379.01" stroke="#2071B5" stroke-width="4.21" stroke-linecap="round" stroke-linejoin="round"/>
<path d="M205.48 381.67C203.75 383.85 203.99 386.49 203.96 388.99C203.87 396.16 203.93 403.33 203.92 410.5C203.92 410.94 203.78 411.39 203.71 411.83" stroke="#2071B5" stroke-width="4.21" stroke-linecap="round" stroke-linejoin="round"/>
<path d="M201.27 302.72C199.93 305.07 198.54 307.41 198.6 310.26C198.6 310.48 198.49 310.72 198.38 310.92C195.63 315.99 195.68 318.64 198.6 323.57C198.83 323.96 198.91 324.45 199.05 324.89" stroke="#2071B5" stroke-width="4.21" stroke-linecap="round" stroke-linejoin="round"/>
<path d="M291.76 383.67V398.99C288.52 401.6 284.32 402.95 280.23 404.52" stroke="#2071B5" stroke-width="4.21" stroke-linecap="round" stroke-linejoin="round"/>
<path d="M247.4 295.84C242.96 295.69 238.53 295.54 234.09 295.4" stroke="#2071B5" stroke-width="4.21" stroke-linecap="round" stroke-linejoin="round"/>
<path d="M211.25 92.6804C206.89 91.3504 202.53 90.0204 198.16 88.6904" stroke="#2071B5" stroke-width="4.21" stroke-linecap="round" stroke-linejoin="round"/>
<path d="M305.51 159.22V172.08" stroke="#2071B5" stroke-width="4.21" stroke-linecap="round" stroke-linejoin="round"/>
<path d="M206.59 400.97V413.83" stroke="#2071B5" stroke-width="4.21" stroke-linecap="round" stroke-linejoin="round"/>
<path d="M222.12 384.56C222.05 386.48 221.9 388.4 221.91 390.33C221.94 395.51 222.04 400.68 222.12 405.86" stroke="#2071B5" stroke-width="4.21" stroke-linecap="round" stroke-linejoin="round"/>
<path d="M278.45 405.63V418.27" stroke="#2071B5" stroke-width="4.21" stroke-linecap="round" stroke-linejoin="round"/>
<path d="M200.38 336.87C199.08 338.98 198.28 341.19 198.34 343.75C198.38 345.6 199.85 346.78 200.23 348.22C201.13 351.64 204.01 351.74 206.36 352.84" stroke="#2071B5" stroke-width="4.21" stroke-linecap="round" stroke-linejoin="round"/>
<path d="M291.1 385.66C288.18 389.49 284.18 391.75 279.79 393.42" stroke="#2071B5" stroke-width="4.21" stroke-linecap="round" stroke-linejoin="round"/>
<path d="M254.94 400.52H243.85" stroke="#2071B5" stroke-width="4.21" stroke-linecap="round" stroke-linejoin="round"/>
<path d="M205.93 262.57C206 262.64 206.14 262.72 206.14 262.79C206.08 266.78 206 270.77 205.93 274.77" stroke="#2071B5" stroke-width="4.21" stroke-linecap="round" stroke-linejoin="round"/>
<path d="M206.59 306.26C206.44 309.88 206.21 313.5 206.17 317.13C206.13 320.68 206.3 324.23 206.36 327.78C206.38 328.74 206.36 329.7 206.36 330.66" stroke="#2071B5" stroke-width="4.21" stroke-linecap="round" stroke-linejoin="round"/>
<path d="M279.78 378.79C276.16 379.23 272.53 379.68 268.91 380.12" stroke="#2071B5" stroke-width="4.21" stroke-linecap="round" stroke-linejoin="round"/>
<path d="M222.12 372.58V382.78" stroke="#2071B5" stroke-width="4.21" stroke-linecap="round" stroke-linejoin="round"/>
<path d="M297.97 183.61V193.81" stroke="#2071B5" stroke-width="4.21" stroke-linecap="round" stroke-linejoin="round"/>
<path d="M205.26 386.77C208.02 391.33 212.64 393.25 217.24 395.2" stroke="#2071B5" stroke-width="4.21" stroke-linecap="round" stroke-linejoin="round"/>
<path d="M206.82 389.44C206.75 391.95 206.68 394.47 206.59 396.98C206.56 397.79 206.45 398.61 206.38 399.42" stroke="#2071B5" stroke-width="4.21" stroke-linecap="round" stroke-linejoin="round"/>
<path d="M206.82 295.17C206.67 296.35 206.48 297.53 206.39 298.72C206.21 300.86 206.09 303.01 205.94 305.15" stroke="#2071B5" stroke-width="4.21" stroke-linecap="round" stroke-linejoin="round"/>
<path d="M268.69 387.22V394.76H266.03" stroke="#2071B5" stroke-width="4.21" stroke-linecap="round" stroke-linejoin="round"/>
<path d="M206.37 284.08C206.22 287.41 206.07 290.73 205.93 294.06" stroke="#2071B5" stroke-width="4.21" stroke-linecap="round" stroke-linejoin="round"/>
<path d="M301.3 404.52C298.61 407.98 295.61 411.09 291.76 412.83V424.04" stroke="#2071B5" stroke-width="4.21" stroke-linecap="round" stroke-linejoin="round"/>
<path d="M278.45 418.93C278.52 422.18 278.6 425.44 278.67 428.69" stroke="#2071B5" stroke-width="4.21" stroke-linecap="round" stroke-linejoin="round"/>
<path d="M292.87 305.82C292.94 308.19 293.01 310.55 293.1 312.92C293.13 313.73 293.24 314.55 293.32 315.36" stroke="#2071B5" stroke-width="4.21" stroke-linecap="round" stroke-linejoin="round"/>
<path d="M297.97 389.88C298.21 393.5 295.7 395.59 293.52 397.85C293.16 398.23 292.64 398.45 292.2 398.75" stroke="#2071B5" stroke-width="4.21" stroke-linecap="round" stroke-linejoin="round"/>
<path d="M329.91 351.29V360.61" stroke="#2071B5" stroke-width="4.21" stroke-linecap="round" stroke-linejoin="round"/>
<path d="M222.12 419.82C222.05 422.85 221.97 425.88 221.9 428.91" stroke="#2071B5" stroke-width="4.21" stroke-linecap="round" stroke-linejoin="round"/>
<path d="M291.76 399.42C291.83 403.78 291.91 408.14 291.98 412.51" stroke="#2071B5" stroke-width="4.21" stroke-linecap="round" stroke-linejoin="round"/>
<path d="M206.59 415.16V424.03" stroke="#2071B5" stroke-width="4.21" stroke-linecap="round" stroke-linejoin="round"/>
<path d="M292.87 284.53C292.94 287.04 293.01 289.56 293.1 292.07C293.13 292.88 293.24 293.7 293.31 294.51" stroke="#2071B5" stroke-width="4.21" stroke-linecap="round" stroke-linejoin="round"/>
<path d="M296.64 329.11C295.39 329.86 294.13 330.6 292.87 331.36C293.09 334.29 293.31 337.24 293.54 340.2" stroke="#2071B5" stroke-width="4.21" stroke-linecap="round" stroke-linejoin="round"/>
<path d="M268.69 316.02V326.67" stroke="#2071B5" stroke-width="4.21" stroke-linecap="round" stroke-linejoin="round"/>
<path d="M265.15 400.08C262.34 400.23 259.53 400.38 256.72 400.52" stroke="#2071B5" stroke-width="4.21" stroke-linecap="round" stroke-linejoin="round"/>
<path d="M206.82 340.86C206.75 344.56 206.63 348.25 206.61 351.95C206.57 357.12 206.61 362.3 206.61 367.48" stroke="#2071B5" stroke-width="4.21" stroke-linecap="round" stroke-linejoin="round"/>
<path d="M206.59 331.55C206.44 334.29 206.29 337.02 206.15 339.76" stroke="#2071B5" stroke-width="4.21" stroke-linecap="round" stroke-linejoin="round"/>
<path d="M198.83 310.81C200.79 313.38 202.99 315.67 205.93 317.13" stroke="#2071B5" stroke-width="4.21" stroke-linecap="round" stroke-linejoin="round"/>
<path d="M222.12 406.51V419.15" stroke="#2071B5" stroke-width="4.21" stroke-linecap="round" stroke-linejoin="round"/>
<path d="M301.52 365.48C298.86 366.29 296.2 367.11 293.54 367.92" stroke="#2071B5" stroke-width="4.21" stroke-linecap="round" stroke-linejoin="round"/>
<path d="M268.69 305.38C268.76 307.97 268.84 310.56 268.91 313.14" stroke="#2071B5" stroke-width="4.21" stroke-linecap="round" stroke-linejoin="round"/>
<path d="M293.09 319.57C293.16 322.16 293.24 324.75 293.31 327.33" stroke="#2071B5" stroke-width="4.21" stroke-linecap="round" stroke-linejoin="round"/>
<path d="M293.09 343.52V351.5" stroke="#2071B5" stroke-width="4.21" stroke-linecap="round" stroke-linejoin="round"/>
<path d="M267.36 345.08C264.85 345.23 262.33 345.38 259.82 345.52" stroke="#2071B5" stroke-width="4.21" stroke-linecap="round" stroke-linejoin="round"/>
<path d="M187.52 120.85V128.64C185.77 130.12 183.76 131.81 181.75 133.5" stroke="#2071B5" stroke-width="4.21" stroke-linecap="round" stroke-linejoin="round"/>
<path d="M276.68 314.03C274.98 314.33 273.28 314.62 271.58 314.92C270.77 315.06 269.95 315.21 269.14 315.36" stroke="#2071B5" stroke-width="4.21" stroke-linecap="round" stroke-linejoin="round"/>
<path d="M293.54 296.73C293.39 296.95 293.11 297.18 293.12 297.39C293.23 299.83 293.39 302.27 293.54 304.71" stroke="#2071B5" stroke-width="4.21" stroke-linecap="round" stroke-linejoin="round"/>
<path d="M257.16 345.96H250.06" stroke="#2071B5" stroke-width="4.21" stroke-linecap="round" stroke-linejoin="round"/>
<path d="M318.82 361.05V367.7" stroke="#2071B5" stroke-width="4.21" stroke-linecap="round" stroke-linejoin="round"/>
<path d="M293.09 262.13C294.79 262.94 296.49 263.76 298.02 264.49C298.15 267.01 298.28 269.45 298.41 271.89" stroke="#2071B5" stroke-width="4.21" stroke-linecap="round" stroke-linejoin="round"/>
<path d="M233.21 294.95C231.14 294.65 229.07 294.36 227 294.06" stroke="#2071B5" stroke-width="4.21" stroke-linecap="round" stroke-linejoin="round"/>
<path d="M230.55 306.04V312.25" stroke="#2071B5" stroke-width="4.21" stroke-linecap="round" stroke-linejoin="round"/>
<path d="M230.55 328.22V334.43" stroke="#2071B5" stroke-width="4.21" stroke-linecap="round" stroke-linejoin="round"/>
<path d="M230.55 339.31V345.52" stroke="#2071B5" stroke-width="4.21" stroke-linecap="round" stroke-linejoin="round"/>
<path d="M268.69 360.16V366.37" stroke="#2071B5" stroke-width="4.21" stroke-linecap="round" stroke-linejoin="round"/>
<path d="M266.48 399.64H268.7V405.85" stroke="#2071B5" stroke-width="4.21" stroke-linecap="round" stroke-linejoin="round"/>
<path d="M268.69 373.91V383.67" stroke="#2071B5" stroke-width="4.21" stroke-linecap="round" stroke-linejoin="round"/>
<path d="M268.69 421.37V428.47" stroke="#2071B5" stroke-width="4.21" stroke-linecap="round" stroke-linejoin="round"/>
<path d="M299.3 339.31C297.3 340.49 295.31 341.68 293.31 342.86" stroke="#2071B5" stroke-width="4.21" stroke-linecap="round" stroke-linejoin="round"/>
<path d="M256.72 395.65H250.95" stroke="#2071B5" stroke-width="4.21" stroke-linecap="round" stroke-linejoin="round"/>
<path d="M206.82 367.92C206.75 371.1 206.65 374.28 206.61 377.46C206.57 380.42 206.61 383.37 206.61 386.33" stroke="#2071B5" stroke-width="4.21" stroke-linecap="round" stroke-linejoin="round"/>
<path d="M296.2 426.7C294.65 427.59 293.09 428.47 291.63 429.31C291.75 431.28 291.87 433.2 291.98 435.13" stroke="#2071B5" stroke-width="4.21" stroke-linecap="round" stroke-linejoin="round"/>
<path d="M268.69 437.12V442.66" stroke="#2071B5" stroke-width="4.21" stroke-linecap="round" stroke-linejoin="round"/>
<path d="M230.55 316.69V322.01" stroke="#2071B5" stroke-width="4.21" stroke-linecap="round" stroke-linejoin="round"/>
<path d="M268.47 349.96C268.54 351.73 268.62 353.51 268.69 355.28" stroke="#2071B5" stroke-width="4.21" stroke-linecap="round" stroke-linejoin="round"/>
<path d="M203.93 417.82V423.14" stroke="#2071B5" stroke-width="4.21" stroke-linecap="round" stroke-linejoin="round"/>
<path d="M285.99 417.82C284.22 418.41 282.44 419 280.67 419.59" stroke="#2071B5" stroke-width="4.21" stroke-linecap="round" stroke-linejoin="round"/>
<path d="M206.37 276.1C206.44 277.8 206.52 279.5 206.59 281.2" stroke="#2071B5" stroke-width="4.21" stroke-linecap="round" stroke-linejoin="round"/>
<path d="M313.72 130.38C315.27 131.56 316.83 132.75 318.38 133.93" stroke="#2071B5" stroke-width="4.21" stroke-linecap="round" stroke-linejoin="round"/>
<path d="M302.18 268.56C300.92 267.38 299.67 266.19 298.41 265.01" stroke="#2071B5" stroke-width="4.21" stroke-linecap="round" stroke-linejoin="round"/>
<path d="M217.68 312.7C216.2 312.26 214.72 311.81 213.24 311.37" stroke="#2071B5" stroke-width="4.21" stroke-linecap="round" stroke-linejoin="round"/>
<path d="M232.76 399.19C231.28 399.04 229.8 398.89 228.32 398.75" stroke="#2071B5" stroke-width="4.21" stroke-linecap="round" stroke-linejoin="round"/>
<path d="M239.86 380.56H235.87" stroke="#2071B5" stroke-width="4.21" stroke-linecap="round" stroke-linejoin="round"/>
<path d="M208.81 272.33C209.99 273.37 211.18 274.4 212.36 275.44" stroke="#2071B5" stroke-width="4.21" stroke-linecap="round" stroke-linejoin="round"/>
<path d="M292.43 276.1C292.5 277.95 292.58 279.8 292.65 281.64" stroke="#2071B5" stroke-width="4.21" stroke-linecap="round" stroke-linejoin="round"/>
<path d="M273.13 286.97C271.95 287.12 270.76 287.27 269.58 287.41" stroke="#2071B5" stroke-width="4.21" stroke-linecap="round" stroke-linejoin="round"/>
<path d="M152.92 151.23V154.78" stroke="#2071B5" stroke-width="4.21" stroke-linecap="round" stroke-linejoin="round"/>
<path d="M178.2 364.15V367.7" stroke="#2071B5" stroke-width="4.21" stroke-linecap="round" stroke-linejoin="round"/>
<path d="M326.8 165.87V169.42" stroke="#2071B5" stroke-width="4.21" stroke-linecap="round" stroke-linejoin="round"/>
<path d="M222.12 364.59V368.14" stroke="#2071B5" stroke-width="4.21" stroke-linecap="round" stroke-linejoin="round"/>
<path d="M282.89 368.14C281.71 368.29 280.52 368.44 279.34 368.58" stroke="#2071B5" stroke-width="4.21" stroke-linecap="round" stroke-linejoin="round"/>
<path d="M253.17 324.23H249.62" stroke="#2071B5" stroke-width="4.21" stroke-linecap="round" stroke-linejoin="round"/>
<path d="M237.2 399.64H233.65" stroke="#2071B5" stroke-width="4.21" stroke-linecap="round" stroke-linejoin="round"/>
<path d="M270.03 344.63H268.65C268.74 345.46 268.83 346.26 268.92 347.07" stroke="#2071B5" stroke-width="4.21" stroke-linecap="round" stroke-linejoin="round"/>
<path d="M242.08 400.08H238.53" stroke="#2071B5" stroke-width="4.21" stroke-linecap="round" stroke-linejoin="round"/>
<path d="M305.51 173.63V176.96" stroke="#2071B5" stroke-width="4.21" stroke-linecap="round" stroke-linejoin="round"/>
<path d="M276.68 397.42C275.64 397.72 274.61 398.01 273.57 398.31" stroke="#2071B5" stroke-width="4.21" stroke-linecap="round" stroke-linejoin="round"/>
<path d="M201.71 264.79C200.67 265.53 199.64 266.27 198.6 267.01" stroke="#2071B5" stroke-width="4.21" stroke-linecap="round" stroke-linejoin="round"/>
<path d="M290.87 415.61C289.83 416.05 288.8 416.5 287.76 416.94" stroke="#2071B5" stroke-width="4.21" stroke-linecap="round" stroke-linejoin="round"/>
<path d="M233.65 380.12H230.54" stroke="#2071B5" stroke-width="4.21" stroke-linecap="round" stroke-linejoin="round"/>
<path d="M230.99 256.8V259.91" stroke="#2071B5" stroke-width="4.21" stroke-linecap="round" stroke-linejoin="round"/>
<path d="M181.31 134.38C180.57 135.27 179.83 136.15 179.09 137.04" stroke="#2071B5" stroke-width="4.21" stroke-linecap="round" stroke-linejoin="round"/>
<path d="M203.93 413.39V416.05" stroke="#2071B5" stroke-width="4.21" stroke-linecap="round" stroke-linejoin="round"/>
<path d="M268.69 412.5V415.16" stroke="#2071B5" stroke-width="4.21" stroke-linecap="round" stroke-linejoin="round"/>
<path d="M266.48 300.72H263.82" stroke="#2071B5" stroke-width="4.21" stroke-linecap="round" stroke-linejoin="round"/>
<path d="M262.93 301.16H260.27" stroke="#2071B5" stroke-width="4.21" stroke-linecap="round" stroke-linejoin="round"/>
<path d="M316.16 361.05L313.5 362.38" stroke="#2071B5" stroke-width="4.21" stroke-linecap="round" stroke-linejoin="round"/>
<path d="M245.63 395.2H242.97" stroke="#2071B5" stroke-width="4.21" stroke-linecap="round" stroke-linejoin="round"/>
<path d="M220.79 396.53C219.9 396.23 219.02 395.94 218.13 395.64" stroke="#2071B5" stroke-width="4.21" stroke-linecap="round" stroke-linejoin="round"/>
<path d="M268.69 395.65V398.31" stroke="#2071B5" stroke-width="4.21" stroke-linecap="round" stroke-linejoin="round"/>
<path d="M260.27 323.79H257.61" stroke="#2071B5" stroke-width="4.21" stroke-linecap="round" stroke-linejoin="round"/>
<path d="M242.08 343.75H239.42" stroke="#2071B5" stroke-width="4.21" stroke-linecap="round" stroke-linejoin="round"/>
<path d="M263.82 395.2H261.16" stroke="#2071B5" stroke-width="4.21" stroke-linecap="round" stroke-linejoin="round"/>
<path d="M291.54 426.47C291.69 427.28 291.84 428.1 291.98 428.91" stroke="#2071B5" stroke-width="4.21" stroke-linecap="round" stroke-linejoin="round"/>
<path d="M268.69 444.88V447.1" stroke="#2071B5" stroke-width="4.21" stroke-linecap="round" stroke-linejoin="round"/>
<path d="M279.78 313.14C279.04 313.29 278.3 313.44 277.56 313.58" stroke="#2071B5" stroke-width="4.21" stroke-linecap="round" stroke-linejoin="round"/>
<path d="M219.46 410.28C218.72 410.13 217.98 409.98 217.24 409.84" stroke="#2071B5" stroke-width="4.21" stroke-linecap="round" stroke-linejoin="round"/>
<path d="M268.69 408.07V410.29" stroke="#2071B5" stroke-width="4.21" stroke-linecap="round" stroke-linejoin="round"/>
<path d="M201.71 327.78C202.45 328.37 203.19 328.96 203.93 329.55" stroke="#2071B5" stroke-width="4.21" stroke-linecap="round" stroke-linejoin="round"/>
<path d="M297.97 176.52V178.74" stroke="#2071B5" stroke-width="4.21" stroke-linecap="round" stroke-linejoin="round"/>
<path d="M263.37 380.56H261.15" stroke="#2071B5" stroke-width="4.21" stroke-linecap="round" stroke-linejoin="round"/>
<path d="M253.17 335.32H250.95" stroke="#2071B5" stroke-width="4.21" stroke-linecap="round" stroke-linejoin="round"/>
<path d="M288.21 271.89C287.62 272.63 287.03 273.37 286.44 274.11" stroke="#2071B5" stroke-width="4.21" stroke-linecap="round" stroke-linejoin="round"/>
<path d="M215.46 276.77C214.72 276.47 213.98 276.18 213.24 275.88" stroke="#2071B5" stroke-width="4.21" stroke-linecap="round" stroke-linejoin="round"/>
<path d="M211.47 299.39C210.73 299.09 209.99 298.8 209.25 298.5" stroke="#2071B5" stroke-width="4.21" stroke-linecap="round" stroke-linejoin="round"/>
<path d="M230.55 296.73V298.95" stroke="#2071B5" stroke-width="4.21" stroke-linecap="round" stroke-linejoin="round"/>
<path d="M292.87 328.89C293.02 329.56 293.17 330.22 293.31 330.89" stroke="#2071B5" stroke-width="4.21" stroke-linecap="round" stroke-linejoin="round"/>
<path d="M292.87 316.91C293.02 317.58 293.17 318.24 293.31 318.91" stroke="#2071B5" stroke-width="4.21" stroke-linecap="round" stroke-linejoin="round"/>
<path d="M201.71 293.62C202.3 294.21 202.89 294.8 203.48 295.39" stroke="#2071B5" stroke-width="4.21" stroke-linecap="round" stroke-linejoin="round"/>
<path d="M291.32 403.19C290.73 403.63 290.14 404.08 289.55 404.52" stroke="#2071B5" stroke-width="4.21" stroke-linecap="round" stroke-linejoin="round"/>
<path d="M297.97 167.2V168.97" stroke="#2071B5" stroke-width="4.21" stroke-linecap="round" stroke-linejoin="round"/>
<path d="M294.87 400.08C294.28 400.67 293.69 401.26 293.1 401.85" stroke="#2071B5" stroke-width="4.21" stroke-linecap="round" stroke-linejoin="round"/>
<path d="M346.32 153.45V155.22" stroke="#2071B5" stroke-width="4.21" stroke-linecap="round" stroke-linejoin="round"/>
<path d="M164.9 152.12V153.89" stroke="#2071B5" stroke-width="4.21" stroke-linecap="round" stroke-linejoin="round"/>
<path d="M268.69 367.26V369.03" stroke="#2071B5" stroke-width="4.21" stroke-linecap="round" stroke-linejoin="round"/>
<path d="M219.01 371.69H217.24" stroke="#2071B5" stroke-width="4.21" stroke-linecap="round" stroke-linejoin="round"/>
<path d="M208.81 309.15C209.4 309.45 209.99 309.74 210.58 310.04" stroke="#2071B5" stroke-width="4.21" stroke-linecap="round" stroke-linejoin="round"/>
<path d="M268.69 313.58V315.58" stroke="#2071B5" stroke-width="4.21" stroke-linecap="round" stroke-linejoin="round"/>
<path d="M240.31 394.76H238.54" stroke="#2071B5" stroke-width="4.21" stroke-linecap="round" stroke-linejoin="round"/>
<path d="M201.71 339.75C202.3 340.19 202.89 340.64 203.48 341.08" stroke="#2071B5" stroke-width="4.21" stroke-linecap="round" stroke-linejoin="round"/>
<path d="M230.55 299.83C230.99 299.98 231.44 300.13 231.88 300.27" stroke="#2071B5" stroke-width="4.21" stroke-linecap="round" stroke-linejoin="round"/>
<path d="M268.69 370.8V372.35" stroke="#2071B5" stroke-width="4.21" stroke-linecap="round" stroke-linejoin="round"/>
<path d="M221.9 410.73H220.35" stroke="#2071B5" stroke-width="4.21" stroke-linecap="round" stroke-linejoin="round"/>
<path d="M190.62 351.29L191.95 352.62" stroke="#2071B5" stroke-width="4.21" stroke-linecap="round" stroke-linejoin="round"/>
<path d="M215.02 408.95C214.58 408.8 214.13 408.65 213.69 408.51" stroke="#2071B5" stroke-width="4.21" stroke-linecap="round" stroke-linejoin="round"/>
<path d="M223.45 372.14H220.79" stroke="#2071B5" stroke-width="4.21" stroke-linecap="round" stroke-linejoin="round"/>
<path d="M323.26 357.05C322.82 357.35 322.37 357.64 321.93 357.94" stroke="#2071B5" stroke-width="4.21" stroke-linecap="round" stroke-linejoin="round"/>
<path d="M210.59 343.75C210.15 343.6 209.7 343.45 209.26 343.31" stroke="#2071B5" stroke-width="4.21" stroke-linecap="round" stroke-linejoin="round"/>
<path d="M165.78 148.13C165.63 148.57 165.48 149.02 165.34 149.46" stroke="#2071B5" stroke-width="4.21" stroke-linecap="round" stroke-linejoin="round"/>
<path d="M305.51 332.66C305.66 333.1 305.81 333.55 305.95 333.99" stroke="#2071B5" stroke-width="4.21" stroke-linecap="round" stroke-linejoin="round"/>
<path d="M309.06 343.3C308.76 343.74 308.47 344.19 308.17 344.63" stroke="#2071B5" stroke-width="4.21" stroke-linecap="round" stroke-linejoin="round"/>
<path d="M288.21 274.99C287.91 275.14 287.62 275.29 287.32 275.43" stroke="#2071B5" stroke-width="4.21" stroke-linecap="round" stroke-linejoin="round"/>
<path d="M293.98 318.46C293.24 318.9 292.5 319.35 291.76 319.79" stroke="#2071B5" stroke-width="4.21" stroke-linecap="round" stroke-linejoin="round"/>
<path d="M317.93 360.16C317.63 360.31 317.34 360.46 317.04 360.6" stroke="#2071B5" stroke-width="4.21" stroke-linecap="round" stroke-linejoin="round"/>
<path d="M230.55 286.97C230.7 287.12 230.85 287.27 230.99 287.41" stroke="#2071B5" stroke-width="4.21" stroke-linecap="round" stroke-linejoin="round"/>
</svg>
