<?xml version="1.0" encoding="UTF-8"?>
<svg id="icons" xmlns="http://www.w3.org/2000/svg" viewBox="0 0 500 500">
  <defs>
    <style>
      .cls-1 {
        fill: none;
        stroke: #000;
        stroke-linecap: round;
        stroke-linejoin: round;
        stroke-width: .84px;
      }
    </style>
  </defs>
  <path class="cls-1" d="M409.3,176.55c-6.84,4.59-14.57,6.7-22.55,8.26-6.02,1.18-12.06,2.12-18.13,2.95-5.47.75-10.95,1.22-16.44,1.68-5.69.47-11.38.91-17.07,1.29-5.06.33-10.12.57-15.18.83-12.57.66-25.15.87-37.73,1.3-17.64.61-35.27.27-52.91.25-6.31,0-12.65-.13-18.97-.38-8.99-.35-17.99-.44-26.98-.86-6.89-.32-13.79-.55-20.65-1.25-5.9-.6-11.83-.95-17.7-1.7-5.98-.76-11.98-1.37-17.94-2.38-6.24-1.05-12.44-2.22-18.52-3.93-4.01-1.12-8.06-2.21-11.64-4.55-.68-.45-1.22-.89-1.65-1.53"/>
  <path class="cls-1" d="M390.33,95.82c-4.63.21-9.14-.68-13.71-1.17-3.77-.41-7.58-.67-11.37-1-5.97-.53-11.96-.59-17.93-1.12-3.56-.32-7.16-.39-10.74-.47-10.89-.23-21.77-.75-32.67-.93-7.17-.12-14.33,0-21.5-.15-12.44-.26-24.87-.26-37.31-.18-11.17.07-22.34.38-33.51.46-6.95.05-13.92.12-20.86.44-8.99.42-18,.43-26.99,1.16-3.15.25-6.33.29-9.48.36-4.36.09-8.72.37-13.06.62-4.71.27-9.45.3-14.13,1.13-1.51.27-3.13.39-4.63.36-2.9-.06-5.74,1.08-8.64.31"/>
  <path class="cls-1" d="M409.51,88.24c-3.4-.55-6.71-1.54-10.1-2.18-3.72-.71-7.44-1.42-11.18-2.08-3.37-.6-6.76-1.14-10.14-1.54-4.68-.56-9.39-1.07-14.11-1.35-5.76-.34-11.51-.88-17.28-1.1-3.3-.13-6.61-.46-9.91-.57-8.22-.27-16.44-.34-24.66-.55-7.24-.18-14.48-.28-21.71-.58-5.2-.22-10.41.06-15.6-.19-11.1-.54-22.2-.4-33.3-.38-9.84.02-19.67.38-29.51.46-9.2.08-18.41.54-27.61.84-9,.29-18,.64-26.98,1.23-6.26.41-12.51,1.04-18.77,1.59-9.73.86-19.41,2.11-29.08,3.48-4.8.68-9.53,1.83-14.33,2.52-1.26.18-1.85,1.37-2.25,2.33-.37.88.48,1.73,1.21,2.27,1.99,1.49,4.41,2.04,6.74,2.5,8.87,1.72,17.78,3.26,26.77,4.19,6.43.67,12.91,1.05,19.38,1.4,6.96.38,13.91.29,20.87.36,7.81.08,15.58-1,23.4-.85,3.02.06,2.97,0,2.96,2.96-.03,10.54-.2,21.08.06,31.61.16,6.53.05,13.07.24,19.61.1,3.35.33,6.74.15,10.12-.06,1.16-.27,1.88-1.51,2.12-6.93,1.32-13.85,2.19-20.87.65-1.83-.4-2.62-1.14-2.58-3.19.1-5.83.34-11.66.44-17.49.15-8.99-.06-17.99.07-26.98.09-5.97.17-11.94.18-17.92"/>
  <path class="cls-1" d="M333.21,416.42c.61.53.43,1.24.41,1.9-.06,2.74.2,5.49-.2,8.22-.44,3.03-2.01,5.27-4.4,7.2-5.09,4.13-10.98,6.51-17.08,8.67-7.15,2.52-14.45,4.02-21.93,5.06-5.75.8-11.51,1.41-17.29,1.86-5.69.44-11.38.52-17.07.63-11.71.23-23.37-.41-34.98-1.75-11.47-1.32-22.83-3.35-33.72-7.37-5.28-1.95-10.52-4.02-14.8-7.94-1.94-1.78-2.93-3.78-2.92-6.36.01-3.86.06-7.73,0-11.59-.06-3.75,1.45-6.65,4.44-8.85,5.94-4.38,12.81-6.54,19.81-8.45,4.23-1.15,8.53-1.92,12.86-2.52.71-.1,1.34-.63,2.11-.41"/>
  <path class="cls-1" d="M333.21,101.3c0,11.24.04,22.48-.02,33.72-.04,7.1.27,14.19.29,21.29,0,2.59.29,5.19.39,7.8.06,1.52-.46,2.4-1.93,2.74-2.15.51-4.3,1.02-6.53,1.05-4.52.06-9.03.05-13.49-.83-.8-.16-1.54-.45-2.3-.69-1.15-.36-1.59-1.2-1.51-2.5.82-13.48.83-26.97.92-40.47.05-6.96.31-13.91-.05-20.87-.08-1.56.73-2.4,2.32-2.54,6.92-.59,13.78.28,20.66.82,4.84.38,9.69.41,14.54.04,1.47-.11,2.95.02,4.42-.02,6.55-.19,13.08-.66,19.61-1.19,6.86-.56,13.63-1.73,20.43-2.66,5.06-.69,10.22-1.13,14.99-3.28.58-.26,1.12-.58,1.67-.89,2.66-1.47,3.44-5.06.46-7.4-4.47-3.5-9.48-6.01-14.57-8.4-6.12-2.88-12.19-5.9-18.56-8.19-8.9-3.2-18.02-5.68-27.18-8.04-8.03-2.07-16.09-4.03-24.25-5.41-9.14-1.54-18.34-2.73-27.59-3.51-7.31-.62-14.62-1.18-21.93-1.56-9.82-.51-19.67-.35-29.51-.24-8.09.1-16.18.36-24.24,1.06-5.7.49-11.4.96-17.09,1.56-6.29.66-12.52,1.66-18.74,2.68-10.31,1.7-20.46,4.25-30.57,6.89-8.12,2.12-16.18,4.38-24.04,7.35-6.87,2.6-13.59,5.54-20.2,8.72-4.48,2.16-9,4.31-12.88,7.54-.59.49-1.37.79-1.47,1.69"/>
  <path class="cls-1" d="M294.63,394.71c10.47,1.07,20.51,3.63,29.94,8.42,2.88,1.46,5.3,3.5,7.34,5.93,2.42,2.89,1.95,7.17-1.04,10.29-3.31,3.48-7.62,5.31-12.01,6.95-6.9,2.58-13.99,4.39-21.28,5.53-4,.62-8.01,1.15-12.01,1.71-5.54.77-11.11,1.28-16.66,1.52-9.54.42-19.11,1.19-28.66.11-.35-.04-.7,0-1.05,0-6.36.07-12.66-.63-18.98-1.19-3.02-.27-6.05-.59-9.05-.99-6.81-.91-13.59-2.15-20.24-3.93-5.31-1.42-10.47-3.19-15.4-5.67-2.16-1.09-3.98-2.6-5.89-4.03"/>
  <path class="cls-1" d="M328.99,303.23c2.35.42,3.32,2.29,3.51,4.22.39,3.91.69,7.85.52,11.8-.03.81-.28,1.33-.85,1.92-4.18,4.3-9.5,6.63-15,8.59-4.66,1.66-9.42,2.95-14.31,3.89-3.93.76-7.86,1.42-11.81,2.09-5.18.87-10.41,1.05-15.61,1.56-2.99.29-6.04.41-9.06.46-7.16.12-14.33.09-21.5.03-7.03-.06-14.06-.48-21.07-.93-5.63-.36-11.26-1.17-16.88-1.93-6.76-.91-13.48-1.98-19.99-3.94-5.92-1.78-11.86-3.77-16.26-8.57-.06-.07-.27,0-.41,0"/>
  <path class="cls-1" d="M169.43,155.69c-4.11.04-8.15.83-12.23,1.21-5.1.47-10.11,1.46-15.17,2.13-4.75.63-9.43,1.65-14.11,2.59-5.98,1.21-11.93,2.64-17.7,4.64-4.73,1.64-9.43,3.38-13.53,6.47-3.09,2.33-3.19,5.14-2.48,8.25.41,1.77,1.94,2.66,3.35,3.59,4.45,2.94,9.47,4.55,14.55,5.87,10.06,2.62,20.3,4.35,30.56,5.87,1.45.21,2.93.42,4.41.52,1.87.13,3.6.66,5.08,2.05,4.47,4.19,10.23,6.18,15.57,8.89,5.4,2.74,11.01,5.03,16.69,7.05,3.77,1.34,7.78,2.14,11.76,2.87,7.19,1.32,14.45,1.78,21.71,2.33,13.06.99,26.13,1.19,39.21.97,10.97-.19,21.94-.35,32.89-1.37,5.5-.51,10.99-1.09,16.43-2,2.85-.48,5.63-1.34,8.44-2.07,8.21-2.14,16.09-5.15,23.83-8.62,5.17-2.31,10.2-4.82,14.75-8.23.39-.29.98-.37.83-1.07"/>
  <path class="cls-1" d="M312.55,344.33c-1.85-.45-3.39.72-5.04,1.14-6.12,1.55-12.27,2.77-18.57,3.33-5.06.45-10.11.94-15.18,1.28-11.1.76-22.22.51-33.3.25-9.29-.22-18.6-.92-27.84-2.33-6.5-.99-13.02-1.72-19.38-3.45-6.34-1.73-12.54-3.81-18.34-6.95-3.55-1.92-5.32-4.63-5.12-8.87.3-6.24-.14-12.51.45-18.76.28-2.92,1.98-5.18,5.09-6.11"/>
  <path class="cls-1" d="M189.88,344.12c2.08,3.99,4.77,7.59,7.18,11.38,3.47,5.46,7.19,10.76,10.95,16.03.72,1.01,1.08,2.1,1.07,3.37-.04,6.11.12,12.23-.06,18.34-.15,5.13.04,10.27-.22,15.39-.21,4.2,1.94,6.7,5.33,8.41,4.84,2.44,9.95,4,15.37,4.73,3.79.51,7.59.86,11.38,1.27,6.54.7,13.1.61,19.6.25,8.43-.46,16.9-1.27,24.89-4.51,2.71-1.1,5.38-2.18,7.37-4.44,1.01-1.15,1.5-2.43,1.5-4.01-.04-12.65,0-25.29-.08-37.94,0-1.08.43-1.81.92-2.51,3.9-5.56,8.3-10.75,11.99-16.46,1.94-3,4.09-5.86,5.71-9.06.35-.69,1.06-.89,1.86-1.12,4.57-1.27,8.92-3.2,13.05-5.49,3.21-1.78,5.03-4.68,5.14-8.58.08-2.74.62-5.47.17-8.22"/>
  <path class="cls-1" d="M196.62,292.27c1.73,3.33,5.18,3.97,8.24,5,5.58,1.89,11.42,2.66,17.26,3.49,13.52,1.91,27.11,1.73,40.69,1.57,5.76-.07,11.54-.44,17.29-1.12,4.6-.55,9.17-1.16,13.69-2.17,4.93-1.1,9.51-2.94,13.49-6.13.82-.66.79-1.6.85-2.53.9-13.55.63-27.12.58-40.68-.01-3.59-.25-7.24.35-10.73,1.47-8.53,3.2-17.06,9.6-23.63.07-.07,0-.27,0-.41"/>
  <path class="cls-1" d="M332.36,310.19c-5.47,5.19-12.4,7.37-19.38,9.52-4.51,1.4-9.11,2.43-13.73,3.24-3.4.59-6.85,1.05-10.3,1.43-3.65.41-7.33.59-10.98,1.13-2.28.34-4.65.36-6.95.4-8.5.16-17,.84-25.5.48-6.6-.28-13.23-.28-19.81-.88-5.13-.46-10.27-.99-15.4-1.55-6.56-.72-12.98-2-19.38-3.47-5.55-1.27-10.92-3.11-16.03-5.67-1.69-.85-3.12-2.03-4.42-3.38"/>
  <path class="cls-1" d="M333.84,155.26c3.73.28,7.44.79,11.17,1.08,6.08.47,12.1,1.44,18.12,2.35,6.59,1,13.14,2.27,19.62,3.93,6.11,1.57,12.17,3.24,17.91,5.92,2.57,1.2,5.07,2.56,7.12,4.48,2.45,2.28,2.58,6.39.43,8.99-2.48,2.99-5.88,4.75-9.45,6.14-9.65,3.75-19.8,5.48-29.94,7.11-7.96,1.28-15.97,2.34-24.02,2.99-8.14.65-16.28,1.35-24.45,1.74-11.87.57-23.74,1.02-35.62,1.29-7.03.16-14.05.38-21.08.37-9.41,0-18.83,0-28.24,0-10.19,0-20.38-.34-30.56-.67-9.84-.32-19.69-.74-29.51-1.46-7.53-.56-15.09-.8-22.56-2.07-.52-.09-1.09-.1-1.47.41"/>
  <path class="cls-1" d="M308.12,153.58c-8.85-.23-17.7-.47-26.56-.66-16.93-.37-33.87-.2-50.8-.09-6.04.04-12.09.1-18.12.4-5.9.3-11.84.14-17.71.99"/>
  <path class="cls-1" d="M308.34,248.01c-4.68,4.39-10.6,5.7-16.65,6.75-18.11,3.14-36.38,1.77-54.59,2.13-4.17.08-8.31-.22-12.43-.54-7.86-.63-15.72-1.53-23.19-4.36-1.61-.61-3.08-1.56-4.64-2.3"/>
  <path class="cls-1" d="M308.76,102.36c-6.18.27-12.36.74-18.55.8-9.13.09-18.27.18-27.4.32-9,.14-17.99.12-26.98.11-8.78,0-17.57-.06-26.35-.43-4.92-.21-9.84-.42-14.76-.59"/>
  <path class="cls-1" d="M195.57,286.58c.54.7,0,1.41,0,2.11,0,6.82,0,13.63-.01,20.45,0,1.43.62,2.24,1.88,3,3.86,2.34,8.2,2.98,12.47,3.69,7.73,1.29,15.53,2.02,23.39,2.21,2.67.06,5.34.11,8.01.16"/>
  <path class="cls-1" d="M307.49,293.11c.52,3.01.11,6.04.19,9.06.08,2.95.01,5.9.02,9.25-1.75,2.55-5.07,2.87-8.03,3.55-8.72,1.99-17.63,2.7-26.54,3.25-3.72.23-7.46.19-11.18.57-.37.04-.88.16-1.26-.18"/>
  <path class="cls-1" d="M185.24,215.55c.96,2.1,2.7,3.64,4.06,5.44,3.47,4.62,4.85,10.01,6.28,15.42,1.16,4.37.97,8.87.96,13.28-.03,11.17-.11,22.34-.13,33.51,0,.88.24,1.85-.63,2.53"/>
  <path class="cls-1" d="M241.52,318.41c-.02.3.2.53.24.84.16,1.27-.66,2.78.62,3.77,1.52,1.17,3.31,1.79,5.25,1.7,3.52-.17,7.08.52,10.56-.79,1.54-.58,2.36-1.29,2.11-3-.09-.62-.05-1.26,0-1.89.21-3.15-.93-4.55-4.01-4.85-4.09-.4-8.17-.52-12.23.41-2.05.47-2.73,1.33-2.53,3.6"/>
  <path class="cls-1" d="M323.72,292.06c2.08.57,3.96,1.39,4.86,3.58.41,1.01.12,1.99-.03,2.95-.27,1.76-.11,3.52-.2,5.27-.04.79.3,1.69-.42,2.31-1.11.96-2.29,1.77-3.78,2.14-5.46,1.32-10.86,1.02-16.23-.44"/>
  <path class="cls-1" d="M181.24,292.06c-1.39.51-2.87.76-4.03,1.88-1.49,1.44-1.97,3.16-1.62,5.07.19,1.07.25,2.14.14,3.17-.57,5.04,1.95,5.69,5.51,6.54,4.26,1.01,8.46.5,12.65-.43.42-.09.82-.28,1.27-.2"/>
  <path class="cls-1" d="M236.19,383.62c-1.43-.41-2.87-.75-4.37-.85-3.61-.26-7.12-1.12-10.6-2.07-1.1-.3-2.22-.4-3.34-.52"/>
  <path class="cls-1" d="M195.15,285.73c-.18-3.09-2.52-3.58-4.85-3.75-2.75-.21-5.51.09-7.99,1.46-1.17.64-1.03,3.01.21,3.54,3.53,1.5,7.13,1.69,10.74.23.76-.31,1.43-.88,2.32-.84,0-.04.01-.08,0-.1-.06-.11-.14-.21-.21-.32"/>
  <path class="cls-1" d="M182.08,287.21c-.87,2.2-.61,4.53-.33,6.73.21,1.65,2.2,1.96,3.5,2.04,3.31.21,6.74.55,9.69-1.6"/>
  <path class="cls-1" d="M308.97,284.05c3.8-3.07,8-2.26,12.23-1.27,2.64.62,2.07,3.05,2.18,4.65.13,1.84.35,3.77,0,5.69-.22,1.21-.46,1.78-1.74,2.14-4.7,1.32-9.21,1.31-13.5-1.31"/>
  <path class="cls-1" d="M322.88,286.58c-2.82,1.26-5.79,1.57-8.85,1.51-2.09-.04-3.88-.52-5.27-2.14"/>
  <path class="cls-1" d="M261.75,383.69c-4.4.85-8.85.25-13.28.41-2.18.08-4.36.01-6.53.01"/>
  <path class="cls-1" d="M274.36,382.31c-2.7-.02-5.38.21-8.01.84"/>
  <path class="cls-1" d="M249.74,425.48c-.07,0-.15-.02-.21,0-1.58.52-3.55.9-3.5,2.95.04,1.95,2.07,2.47,3.52,2.89,3.3.96,6.64.57,9.89-.56,1.11-.39.83-1.31.84-2.11.02-1.43-.85-2.09-2.1-2.55-2.7-.99-5.48-.49-8.23-.62"/>
  <path class="cls-1" d="M309.13,408.84c-.07,0-.15-.02-.21,0-1.58.52-3.55.9-3.5,2.95.04,1.95,2.07,2.47,3.52,2.89,3.3.96,6.64.57,9.89-.56,1.11-.39.83-1.31.84-2.11.02-1.43-.85-2.09-2.1-2.55-2.7-.99-5.48-.49-8.23-.62"/>
  <path class="cls-1" d="M186.46,408.03c-.07,0-.15-.02-.21,0-1.58.52-3.55.9-3.5,2.95.04,1.95,2.07,2.47,3.52,2.89,3.3.96,6.64.57,9.89-.56,1.11-.39.83-1.31.84-2.11.02-1.43-.85-2.09-2.1-2.55-2.7-.99-5.48-.49-8.23-.62"/>
</svg>