<?xml version="1.0" encoding="UTF-8"?>
<svg id="icons" xmlns="http://www.w3.org/2000/svg" viewBox="0 0 500 500">
  <defs>
    <style>
      .cls-1 {
        fill: none;
        stroke: #000;
        stroke-linecap: round;
        stroke-linejoin: round;
        stroke-width: .88px;
      }
    </style>
  </defs>
  <path class="cls-1" d="M361,101.32c4.63,2,8.68,5.03,13.17,7.3,1.95.99,3.73,2.35,5.75,3.23,2.01.87,2.69,2.24,2.67,4.42-.1,9.67-.04,19.34-.04,29.02,0,4.84.31,9.69.12,14.51-.18,4.77.53,9.53-.06,14.3-.17,1.4-.67,2.34-1.58,3.31-2.17,2.28-4.39,4.51-5.78,7.44-.81,1.72-1.28,3.42-1.28,5.3,0,27.04.01,54.08-.02,81.12,0,1.3.22,2.06,1.53,2.7,1.62.79,3.22,1.64,4.88,2.32,1.5.61,2.03,1.46,2.01,3.11-.1,7.25.02,14.51-.06,21.76-.1,9.53.41,19.05.21,28.58-.07,3.3-.07,6.64-2.36,9.47-1.73,2.14-3.5,4.07-5.92,5.54-4.19,2.53-8.36,5.12-12.58,7.61-1.7,1-2.1,2.37-1.99,4.2.13,2.26,0,4.54.04,6.81.02,1.22-.33,1.99-1.52,2.68-12.09,7.04-24.14,14.14-36.29,21.08-8.87,5.06-17.6,10.39-26.41,15.55-6.68,3.91-13.44,7.69-20.16,11.54-5.55,3.19-11.02,6.54-16.54,9.8-9.3,5.49-18.58,11-28.12,16.08-5.44,2.9-11.03,5.49-16.47,8.38-1.16.62-1.99.28-2.87-.27-7.73-4.81-15.68-9.23-23.54-13.83-14.71-8.61-29.42-17.2-44.2-25.7-5.86-3.37-11.61-6.93-17.55-10.17-1.54-.84-2.32-2.1-2.28-4.15.16-8.94.15-17.88,0-26.82-.03-1.93-.04-3.82.28-5.72"/>
  <path class="cls-1" d="M259.66,150.57c-3.36-2.58-7.19-4.38-10.78-6.58-5.62-3.46-11.35-6.77-17.19-9.81-8.49-4.42-16.56-9.54-24.76-14.44-8.85-5.29-18.05-9.96-26.84-15.35-1.56-.96-2.86-.98-4.42,0-13.76,8.6-27.93,16.52-41.98,24.63-2.84,1.64-5.67,3.31-8.58,4.83-.95.5-1.29,1.31-1.29,2.21-.03,9.01-.02,18.03-.02,27.04,0,5.2-.12,10.41.09,15.6.05,1.14-.91,1.31-1.06,2.19-.11.67-1.1,1.17-1.66,1.78-3.23,3.48-4.25,7.58-4.24,12.31.1,44.04.06,88.08.06,132.12,0,7.11,0,14.22,0,21.32,0,1.76.22,3.55-.05,5.27-.42,2.64.88,4.14,2.91,5.28,12.25,6.84,24.19,14.2,36.25,21.36,9.35,5.56,18.71,11.13,27.98,16.82,6.86,4.21,13.73,8.43,20.64,12.57,1.45.87,2.01,1.86,2,3.55-.07,7.7-.15,15.39-.39,23.08-.08,2.46.03,4.98.14,7.47"/>
  <path class="cls-1" d="M365.18,193.65c-.09,36.49.01,72.98.44,109.47"/>
  <path class="cls-1" d="M301.43,146.17c6.88,3.65,13.51,7.68,19.81,12.28,2.38,1.74,4.45,3.79,6.3,6.01,1.46,1.75,1.71,4.16,2.22,6.34,1.84,7.91,1.53,15.91.97,23.96-.39,5.6-3.24,9.34-7.5,12.57-4.73,3.58-9.73,6.37-15.63,7.46-4.17.77-8.34.72-12.54.62-5.29-.12-10.3-1.35-14.95-3.95"/>
  <path class="cls-1" d="M328.47,295.87c.14.22.49.3.44.66-.02.22,0,.44,0,.66-.29,9.02.22,18.03.5,27.04.19,6.11-1.18,18.02-5.44,22.3-3.87,3.89-18.79,11.17-22.77,13.51-5.12,3.02-46.73,24.48-47.03,24.53"/>
  <path class="cls-1" d="M381.67,113.63c-4.19,1-8.51.9-12.75,1.53-2.05.3-4.1.58-6.15.91-1.62.26-2.37-.25-2.19-1.77.35-3.08.3-6.15,0-9.24-.08-.87-.07-1.76,0-2.64.3-3.88.38-4-2.66-5.69-6.46-3.59-12.73-7.51-19.14-11.19-8.54-4.91-17.04-9.9-25.48-14.98-9.82-5.91-19.61-11.88-29.65-17.42-2.56-1.41-6.36-3.08-11.99-4.34"/>
  <path class="cls-1" d="M117.65,191.01c9.94,5.53,19.84,11.17,29.91,16.46,9.99,5.24,19.74,10.93,29.65,16.31,6.95,3.77,13.67,7.95,20.67,11.63"/>
  <path class="cls-1" d="M171.95,123.09c-3.71.57-7.18,1.51-10.15,4.13-4.28,3.77-2.21,9.31,1.59,11.24,6.84,3.47,14.04,4.64,21.52,2.6,2.79-.76,5.51-1.96,7.28-4.56,1.79-2.62,1.83-4.85-.25-7.24-3.17-3.66-7.36-5.39-12.06-6.22-2.61-.46-5.14-.46-7.7.05"/>
  <path class="cls-1" d="M303.63,193.21c-.4-1.52-.21-3.08-.21-4.62-.03-9.24-4.61-15.81-12.11-20.65-1.06-.68-2.43-.81-3.49-.2-9.31,5.34-18.81,10.36-27.93,16.02-2.8,1.74-4.28,4.44-5.28,7.47"/>
  <path class="cls-1" d="M226.25,224.43c-3.73,1.83-6.92,4.5-10.35,6.78-2.41,1.6-2.51,4.15-2.53,6.41-.08,7.47,0,14.95.05,22.42.06,10.25-.36,20.51-.34,30.78,0,2.13-.23,4.25-.23,6.38,0,29.68,0,59.35,0,89.03,0,1.58-.2,3.24,1.54,4.18"/>
  <path class="cls-1" d="M124.91,195.19c-.37.78-.22,1.61-.21,2.42.15,28.87-.24,57.74.18,86.61.14,9.82.16,19.64.02,29.46-.19,13.48-.2,26.97-.2,40.45"/>
  <path class="cls-1" d="M253.95,320.93c.51,3.8.29,7.63.16,11.43-.17,5.06-.58,10.1-.19,15.17.16,2.05-.2,4.1-.2,6.15,0,9.53-.48,19.08.15,28.57.53,8.07.08,16.14.73,24.19"/>
  <path class="cls-1" d="M253.89,320.78c-.02-25.21.06-54,.06-79.21,0-.88.09-1.78-.24-2.62.66-.77,1.62-.94,2.45-1.32,3.59-1.64,6.8.56,6.8,4.59,0,22.72-.01,45.43.02,68.15,0,2.45-.9,21.97-2.85,23.48-5.61,4.33-14.38,8.87-20.44,12.49"/>
  <path class="cls-1" d="M131.72,233.22v53.2"/>
  <path class="cls-1" d="M127.11,133.64c8.97,5.35,18.05,10.51,27.07,15.78,13.63,7.97,27.39,15.7,41.08,23.57,4.18,2.4,8.3,4.94,12.53,7.25"/>
  <path class="cls-1" d="M236.58,247.51c0-3.96,0-7.91,0-11.87,0-2.66-1.23-4.3-3.3-4.4-2.08-.1-4.08,1.94-4.16,4.4-.07,2.05-.07,4.11.2,6.16.36,2.78.3,5.56.02,8.35-.19,1.86,1.12,3.93,2.62,4.39,1.26.39,3.72-.61,4.36-2,.56-1.22.2-2.62.26-3.94.01-.3-.15-.66.22-.88"/>
  <path class="cls-1" d="M214.6,340.06c.37.78.21,1.61.21,2.42,0,14.51,0,29.02,0,43.53,0,1.39.12,2.8-.03,4.17-.16,1.51.71,2.23,1.8,2.85.84.48,1.67.68,2.64.03,4.58-3.04,9.57-5.39,14.12-8.5.91-.62,1.04-1.02,1.04-1.85,0-4.91,0-9.82,0-14.73"/>
  <path class="cls-1" d="M302.97,323.79c-5.12,2.54-9.96,5.57-14.93,8.38-10.77,6.08-21.48,12.28-32.3,18.27-.56.31-1.02.35-1.56.4"/>
  <path class="cls-1" d="M344.08,222.67v48.8"/>
  <path class="cls-1" d="M376.61,275.87c0,9.53-.05,19.05.03,28.58.03,3.31-.33,6.61.78,9.92,1.06,3.15.44,6.57.52,9.87"/>
  <path class="cls-1" d="M271.53,48.8c-5.09-.02-8.18,2.66-10.74,4.2-11.25,6.79-22.63,13.35-34.09,19.76-.62.35-1.27,1.1-1.79,1.22-3.56.82-3.63,3.34-3.54,6.24.14,4.69.04,9.38.04,14.07"/>
  <path class="cls-1" d="M368.26,312.8c2.86,1.06,4.19,3.3,4.61,6.16,1.25,8.44-3.17,17.44-11.01,21.26-3.17,1.54-7.83,1.54-9.84-1.71-1.15-1.86-1.24-3.99-1.13-6.14.38-7.42,3.46-13.43,9.49-17.77,2.22-1.6,4.81-2.5,7.67-1.8"/>
  <path class="cls-1" d="M260.1,170.79c.05-.44.26-.81.27-1.32.06-5.86-.31-11.73.14-17.59.03-.41-.17-.91-.39-1.29-7.67,4.53-15.51,8.73-23.13,13.34-6.96,4.22-14.08,8.19-21.07,12.37-2.62,1.57-5.49,2.72-7.93,4.6"/>
  <path class="cls-1" d="M206.46,234.1v38.69c0,9.09-.14,18.18.05,27.26.13,6.38.3,12.76.13,19.12-.26,10.11-.05,22.86-.18,32.98"/>
  <path class="cls-1" d="M271.13,266.86c-.05,14.14-.03,28.28-.06,42.43"/>
  <path class="cls-1" d="M358.36,97.81c-8.82.24-15.56,5.6-22.83,9.51-10.2,5.49-20.21,11.34-30.06,17.39-2.69-2.26-5.81-3.59-8.68-5.33-8.21-4.96-16.52-9.74-24.85-14.49-8.45-4.81-16.86-9.66-25.26-14.55-7.66-4.46-15.44-8.69-23.09-13.17-.57-.33-.85-.99-1.52-1.13"/>
  <path class="cls-1" d="M372.21,128.14c3.06,2.86,3.45,6.63,2.78,10.32-1.46,8.11-5.8,14.33-13.34,18.03-5.28,2.59-10.26-.87-10.31-6.81-.06-6.67,2.19-12.48,6.79-17.37,2.14-2.28,4.46-4.29,7.49-5.25,2.27-.72,4.44-.39,6.37,1.08"/>
  <path class="cls-1" d="M206.68,180.24c0,7.4.19,14.81-.06,22.2-.21,6.23.09,12.47-.38,18.69-.17,2.23-1.53,3.94-2.68,5.69-.97,1.49-1.96,3.02-3.08,4.39-1.89,2.3-2.51,4.79-2.43,7.73.17,6.08.15,12.16.03,18.24-.29,14.73-.31,29.46-.16,44.19.13,12.6,0,25.21.23,37.81.12,6.82.16,13.63.13,20.44-.03,6.08-.05,12.17-.11,18.25-.08,8.72-.42,17.44.12,26.16.03.41-.28.85-.2,1.32"/>
  <path class="cls-1" d="M132.16,293.89v38.69"/>
  <path class="cls-1" d="M317.04,189.7c-.15-2.93.09-5.86-.2-8.8-.6-6.19-2.65-11.81-6.18-16.93-2.24-3.25-5.41-4.79-9.23-4.31-2.42.3-4.73,1.41-6.83,2.78-.77.5-1.48,1.12-2.42,1.32"/>
  <path class="cls-1" d="M271.31,194.97c-.47.69-.2,1.47-.2,2.2-.02,22.13.05,47.43.03,69.56"/>
  <path class="cls-1" d="M284.72,271.91c12.16,6.39,24.33,5.65,36.49,0"/>
  <path class="cls-1" d="M353.92,227.07c1.46,3.47,2.26,7.13,3.05,10.78.2.91-.01,1.9.04,2.85.37,7.72-.39,15.26-3.52,22.42"/>
  <path class="cls-1" d="M323.85,253.89c-5.54,3.9-11.67,5.85-18.46,6.21-6.16.33-11.95-.81-17.59-3.14"/>
  <path class="cls-1" d="M227.56,149.75c-5.06-2.95-10.17-3.4-15.37-2.64-3.88.56-7.77,1.18-11.03,3.87-4.3,3.55-3.35,8.76,1.35,11.01,2.63,1.26,5.45,1.81,8.34,2.28,4.58.76,9.01.22,13.41-.78,3.04-.69,5.99-1.85,7.7-4.79.81-1.4.79-3.04.16-4.36-.98-2.06-2.46-3.84-4.77-4.65"/>
  <path class="cls-1" d="M304.73,124.85c-6.13,4.1-12.55,7.72-18.94,11.37-8.49,4.85-16.85,9.94-25.46,14.57"/>
  <path class="cls-1" d="M321.21,294.33c-10.7,5.83-21.84,6.83-33.41,3.08"/>
  <path class="cls-1" d="M236.8,403.81c3.05,1.85,3.31,4.96,3.01,7.91-.77,7.7-4.63,13.76-11.19,17.74-4.39,2.66-7.82,2.07-10.2-1.95-1.2-2.03-.93-4.59-.54-6.99,1.49-9.15,7.53-14.2,15.64-17.31.92-.35,2.17-.27,3.06.61"/>
  <path class="cls-1" d="M319.89,264.44c-3.7,1.15-7.27,2.61-11.19,3.19-3.7.54-7.37.47-11,.22-3.43-.24-6.74-1.51-9.9-2.97"/>
  <path class="cls-1" d="M234.82,276.75c-1.87-.71-3.15.44-4.64,1.28-4.69,2.67-6.17,12-4.66,15.67,1.67,4.07,6.44,5.03,9.97,2.85,3.99-2.47,7.04-5.74,8.05-10.36.67-3.08.61-6.31-2.35-8.55-1.87-1.42-4-1.28-6.15-.88"/>
  <path class="cls-1" d="M356.83,176.95v29.9"/>
  <path class="cls-1" d="M320.33,280.26c-5.04,2.56-10.43,3.76-16.05,4.2-4.4.34-8.68-.4-12.97-1.12"/>
  <path class="cls-1" d="M238.2,86.18c-10.09,4.92-28.53,15.41-38.31,20.89-2.41,1.35-5.07,2.32-7.05,4.37"/>
  <path class="cls-1" d="M357.27,276.75v28.58"/>
  <path class="cls-1" d="M206.46,352.15c0,8.72,0,17.44-.02,26.16,0,.73.15.03.1,2.15"/>
  <path class="cls-1" d="M318.58,249.05c-5.16,2.02-10.48,3.23-16.05,3.07-4.13-.12-8.16-.9-12.09-2.19"/>
  <path class="cls-1" d="M271.53,49.01c0,13.19.06,29.68.04,42.87"/>
  <path class="cls-1" d="M309.56,189.48c0-1.91.16-3.83-.03-5.71-.79-7.98-3.83-14.74-10.73-19.37-.57-.38-1.1-.66-1.77-.64"/>
  <path class="cls-1" d="M318.14,289.06c-3.16,1.13-6.3,2.2-9.67,2.67-5.87.82-11.66.86-17.37-.91-.2-.06-.44,0-.66,0"/>
  <path class="cls-1" d="M346.27,168.59v26.82"/>
  <path class="cls-1" d="M128.64,365.56c0,8.28.04,19.42,0,27.7"/>
  <path class="cls-1" d="M315.06,242.01c-3.48.77-6.97,1.46-10.55,1.54-4.8.11-9.49-.54-14.07-1.98"/>
  <path class="cls-1" d="M279.89,210.8c-.72,1-.66,2.15-.66,3.3,0,5.13-.24,10.27.08,15.38.26,4.18.14,8.4.13,12.53-.01,5.55-.06,11.14-.16,16.71-.15,7.91-.04,15.83-.04,23.74,0,4.76.19,9.54-.06,14.29-.18,3.38,1.38,5.39,4.01,7.06,3.24,2.06,6.82,2.95,10.56,3.53,6.5,1.01,12.9.5,19.11-1.4,5.67-1.73,10.93-4.29,14.56-9.37,1.77-2.49,1.64-5.23,1.45-7.93-.21-3.01-.06-6.03-.05-9.02.03-7.55.02-15.09-.04-22.64-.03-4.9.21-9.82.35-14.73.11-4.1-.39-8.21-.17-12.31.34-6.38-.38-12.75.16-19.13.12-1.37.13-2.78-.13-4.19-.12-.67-1.14-2.41-.36-4.97"/>
  <path class="cls-1" d="M317.04,197.83c-6.03,4.42-12.4,7.74-20.23,7.52-7.63-.21-9.49.55-16.49,5.23"/>
  <path class="cls-1" d="M317.26,233.22c-7.78,2.77-15.7,3.15-23.74,1.32"/>
  <path class="cls-1" d="M279.01,317.49c-3.83,2.42-13.25,7.2-17.18,9.44"/>
  <path class="cls-1" d="M376.17,152.76c0,7.25.01,14.51-.03,21.76,0,.56.61,1.69-.85,1.54"/>
  <path class="cls-1" d="M224.49,187.5v33.85"/>
  <path class="cls-1" d="M234.6,335.22c3.12-.05,4.98,1.73,5.03,5.28.1,7.62.08,15.24,0,22.86-.03,2.68-2.31,4.45-5.25,4.4-2.44-.05-4.39-2.07-4.39-4.62-.01-7.4,0-14.8,0-22.2,0-2.71,1.72-4.93,4.39-5.72"/>
  <path class="cls-1" d="M311.1,227.07c-3.28.57-6.59.39-9.89.47-3.45.09-6.65-.88-9.89-1.79"/>
  <path class="cls-1" d="M153.05,150.13c-.15,13.48.25,26.97.17,40.45-.01,1.72.62,2.7,2.03,3.28,2.98,1.24,5.74,2.88,8.57,4.4,1.15.62,2.19,1.12,3.57.08.8-.6.82-1.12.82-1.84,0-3.66,0-7.33,0-10.99"/>
  <path class="cls-1" d="M206.55,380.46c0,1.33-.08,2.1-.08,2.91,0,8.13,0,16.27-.02,24.4,0,.73.26,1.5-.2,2.2"/>
  <path class="cls-1" d="M305.17,358.08c.49.61.2,1.32.2,1.98.02,11.65.02,23.3.02,34.95"/>
  <path class="cls-1" d="M261.53,382.7c.85,5.84.09,11.74.66,17.59"/>
  <path class="cls-1" d="M253.95,164.2c0,9.23.03,18.47,0,27.7-.04,10.63.41,21.25.21,31.87,0,.35.26.56.24.88"/>
  <path class="cls-1" d="M171.07,389.52c-.52,4.02-.08,8.06-.21,12.09-.17,4.83.28,9.68-.23,14.51"/>
  <path class="cls-1" d="M253.51,238.94c-3.97,2.39-8.2,4.26-12.32,6.36-1.44.74-2.78,1.62-4.17,2.43"/>
  <path class="cls-1" d="M305.83,124.85c.51,2.55.21,5.13.19,7.69-.03,5.28.3,10.56-.19,15.83"/>
  <path class="cls-1" d="M270.65,215.85c-5.64,3.03-11.05,6.46-16.67,9.33.54,4.43-.2,8.79.41,13.09"/>
  <path class="cls-1" d="M131.32,144.63c-.07,5.27-.04,10.55-.04,15.83,0,6.67,0,13.34,0,20"/>
  <path class="cls-1" d="M295.05,307.96c-1.29,1.35-3.03,1.97-4.61,2.87-3.54,2.01-7.29,3.67-10.64,6.12"/>
  <path class="cls-1" d="M347.59,282.46c-.4.04-.69.27-.65.66.49,4.83.04,9.68.24,14.51.03.81.37,24.67-.53,24.56"/>
  <path class="cls-1" d="M303.49,307.96c-.14,5.1-.19,11.82-.19,15.48"/>
  <path class="cls-1" d="M215.72,194.22c0,6.52.02,13.04-.03,19.56"/>
  <path class="cls-1" d="M131.72,207.28v13.19"/>
  <path class="cls-1" d="M275.49,197.39c-3.34-2.59-10.44-7.27-14.06-9.46-1.23-.75-2.51-1.22-3.96-1.09"/>
  <path class="cls-1" d="M346.27,196.29v22.42"/>
  <path class="cls-1" d="M271.09,180.9c-.13,4.32.27,8.65-.22,12.97"/>
  <path class="cls-1" d="M275.49,197.39c3.79,3.37,8.05,6,12.75,7.91"/>
  <path class="cls-1" d="M355.51,98.47v20"/>
  <path class="cls-1" d="M316.82,304.89c.49,3.44.34,6.9.15,10.33-.19,3.45.18,6.92-.34,10.34-.87,5.72-62.7,36.5-63,37.28"/>
  <path class="cls-1" d="M319.46,125.51v11.87"/>
  <path class="cls-1" d="M271.57,91.87c-.09,3.73-.04,7.47-.04,11.21"/>
  <path class="cls-1" d="M254.39,407.77v17.15"/>
  <path class="cls-1" d="M303.19,193.87c-2.6,1.71-5.6,2.15-8.58,2.6-.99.15-1.83.77-2.85.7"/>
  <path class="cls-1" d="M179.64,165.51c-.08,5.57.25,11.14-.22,16.71"/>
  <path class="cls-1" d="M243.39,169.03c-1.04,1.26-.39,2.8-.57,4.19-.26,2.01-.3,4.1.12,6.15.06.3.08.68-.43.66"/>
  <path class="cls-1" d="M343.64,326.87c-.64,3.52-.54,7.03,0,10.55"/>
  <path class="cls-1" d="M316.6,185.52c-4.3,2.36-8.35,5.14-12.55,7.65-.35.21-.61.61-.59.69.44,3.37-.54,6.76.2,10.11.04.19.27.3.2.44"/>
  <path class="cls-1" d="M344.08,140.45c.04,3.37-.74,6.74,0,10.11"/>
  <path class="cls-1" d="M262.3,400.88c0,5.86,0,13.77,0,19.63"/>
  <path class="cls-1" d="M309.34,191.45c.41,3.08-.2,6.16,0,9.23.02.31-.13.46-.44.44"/>
  <path class="cls-1" d="M231.02,153.2c.46,12.31-23.96,9.25-30.64,7.33"/>
  <path class="cls-1" d="M191.78,129.49c.46,12.31-23.96,9.25-30.64,7.33"/>
  <path class="cls-1" d="M215.7,213.66v9.45"/>
  <path class="cls-1" d="M178.33,106.6c1.04,1.84.26,3.82.39,5.72.2,2.92.05,5.86.05,8.79"/>
  <path class="cls-1" d="M124.25,179.14c3.16,1.66,6.49,3.01,9.45,5.06"/>
  <path class="cls-1" d="M350.67,161.12c2.8,2.05,6,2,9.23,1.76"/>
  <path class="cls-1" d="M179.64,183.54c0,5.72,0,11.43,0,17.15"/>
  <path class="cls-1" d="M187.12,195.85c2.68,1.66,5.55,2.98,8.35,4.4"/>
  <path class="cls-1" d="M189.32,180.02v8.35"/>
  <path class="cls-1" d="M131.5,137.16c-.25,2.11-.25,4.89-.18,7.47"/>
  <path class="cls-1" d="M170.63,416.12c-.17,1.89.22,4.69.22,6.59"/>
  <path class="cls-1" d="M177.89,385.78c1.89,1.05,3.72,2.23,5.72,3.08"/>
  <path class="cls-1" d="M136.56,185.74c2,.86,3.75,2.16,5.72,3.08"/>
  <path class="cls-1" d="M376.17,176.29c.12,1.83-.26,3.68.22,5.5"/>
  <path class="cls-1" d="M321.65,182.66c-1.6.53-2.7,2.2-4.62,1.98"/>
  <path class="cls-1" d="M271.07,309.08c.06,1.39.03,5.92.03,7.24"/>
  <path class="cls-1" d="M128.64,393.04v2.42"/>
</svg>