<?xml version="1.0" encoding="UTF-8"?>
<svg id="icons" xmlns="http://www.w3.org/2000/svg" viewBox="0 0 500 500">
  <defs>
    <style>
      .cls-1 {
        stroke-width: .91px;
      }

      .cls-1, .cls-2 {
        fill: none;
        stroke: #000;
        stroke-linecap: round;
        stroke-linejoin: round;
      }

      .cls-2 {
        stroke-width: .56px;
      }
    </style>
  </defs>
  <path class="cls-1" d="M318.28,120.06c-.02,75.52,0,151.04-.05,226.56,0,1.45.42,2.24,1.61,3,1.93,1.24,3.85,2.5,5.71,3.86.93.68,1.75.72,2.76.23.71-.34,5.76-2.1,6.37-2.49"/>
  <path class="cls-1" d="M147.3,159.28c.54,80.84-.1,161.68.46,242.51"/>
  <path class="cls-1" d="M359.72,128.28c-2.52.24-4.88,1.13-7.3,1.78-1.43.39-.88,1.35-.88,2.09-.03,10.79-.02,21.58-.02,32.37,0,2.96.04,5.93-.02,8.89-.03,1.56.02,3.02-.78,4.62-1.12,2.25.85,4.3,3.29,3.54,3.83-1.19,7.77-1.93,11.65-2.88,10.64-2.59,21.2-5.48,31.9-7.79,3.14-.68,6.21-1.61,9.35-2.23,1.24-.24,1.63-.65,1.6-1.87-.41-17.09-.19-34.19-.24-51.28,0-.15,0-.3-.56-.67-3.34.54-6.84,1.62-10.4,2.48-6.38,1.54-12.76,3.04-19.14,4.59-8.43,2.05-16.81,4.33-25.3,6.18-.3.06-.61.16-.92.19-1.69.14-2.37.87-2.32,2.74.38,14.81.27,29.63.28,44.44,0,.75-.18,1.58.68,2.05"/>
  <path class="cls-1" d="M394.37,354.39c-.52-4.53-2.91-5.94-5.5-5.1-10.96,3.52-22.02,6.74-33.04,10.07-11.55,3.49-23.08,7.03-34.62,10.56-9.05,2.77-18.08,5.64-27.15,8.35-12.67,3.79-25.39,7.42-38.03,11.28-9.88,3.02-19.77,6.01-29.64,9.1-11.31,3.54-22.63,7.01-33.98,10.43-3.91,1.18-8.15,7.46-8.74,12.31-.42,3.43,1.81,14.53.84,17.8"/>
  <path class="cls-1" d="M326.9,121.45c.48.72.21,1.52.21,2.28.02,14.36.02,28.72.02,43.08,0,51.74-.03,103.48.04,155.22,0,5.54.13,11.1.06,16.64-.08,6.07.55,9.3-.1,15.37"/>
  <path class="cls-1" d="M334.89,122.52c0,58.05.07,116.01-.04,173.98-.03,18.23-.18,36.47-.18,54.7"/>
  <path class="cls-1" d="M142.28,150.16c2.73,1.88,5.19,4.19,8.43,5.24.57.18.64.56.73,1.13.14.92.18,1.83.18,2.74,0,13.6,0,27.2,0,40.8v204.9"/>
  <path class="cls-1" d="M187.19,197.12c.48.72.21,1.52.21,2.28.02,64.73.01,129.46.03,194.19,0,.76-.27,1.56.21,2.28"/>
  <path class="cls-1" d="M238.47,185.04v196.24"/>
  <path class="cls-1" d="M315.96,167.03c0,63.21,0,126.42,0,189.63,0,.84-.16,1.7.22,2.51"/>
  <path class="cls-1" d="M193.11,195.75c.48.72.21,1.52.21,2.28.02,56.22.02,112.44.02,168.66,0,8.43,0,16.87,0,25.3,0,.76-.14,1.55.22,2.28"/>
  <path class="cls-1" d="M317.79,165.66c-6.56,1.47-13.09,3.1-19.62,4.72-6.44,1.59-12.86,3.29-19.36,4.62-.89.18-1.71.52-2.51.89.44,2.68.22,5.35.22,8.01.02,53.33.02,106.67.02,160,0,7.98,0,15.95,0,23.93,0,.76-.14,1.55.22,2.28"/>
  <path class="cls-1" d="M233.45,140.59c-.11,3.73.27,7.45.21,11.17-.19,10.41-.21,20.82-.21,31.23,0,55.01,0,110.01,0,165.02,0,11.17.01,22.34-.05,33.5,0,.53.26.9.27,1.37"/>
  <path class="cls-1" d="M156.86,159.51c.02,7.75.01,15.5.01,23.25,0,10.86-.11,21.73.02,32.59.47,38.97.07,77.95.21,116.93.02,6.46,0,12.92,0,19.37"/>
  <path class="cls-1" d="M341.72,115.52c-.78.54-.44,1.36-.44,2.05-.02,21.73-.09,43.46.02,65.19.04,7.82.37,15.66.13,23.47-.17,5.63-.06,11.26-.04,16.87.03,8.96.19,17.93.07,26.9-.41,30.69-.1,61.39-.14,92.08,0,5.01.05,1.19.06,6.21"/>
  <path class="cls-1" d="M137.73,154.04c0,6.84-.2,13.68.05,20.51.26,7.07.12,14.13.16,21.2.06,12.99.02,25.98.02,38.97,0,17.85-.18,35.71.04,53.56.35,27.5.08,55.01.16,82.51.02,5.62.32,11.25-.2,16.87"/>
  <path class="cls-1" d="M430.02,347.26c.62-9.52-11.31-5.02-11.38-11.41-.06-5.02-.46-27.29-.46-32.29,0-2.33-.14-4.72.31-7.08.23-1.24.24-2.6-.19-3.86-.7-2.06.24-4.09.18-6.16-.08-3.02-.38-6.07-.2-9.11.43-7.06,0-14.13.03-21.2.03-6.99.39-14.01.1-20.96-.61-14.37-.5-28.74-.19-43.08.27-12.62.38-25.23.25-37.84-.18-18.08-.46-36.16-.37-54.25.01-2.9-2.4-3.43-4.14-4.53-13.75-8.69-27.81-16.86-41.73-25.26-7.5-4.52-14.82-9.34-22.51-13.54"/>
  <path class="cls-1" d="M64.92,351.07c2.18,2.75,14.23,15.71,16.76,18.11,7.83,7.44,15.96,14.57,23.69,22.12,9.3,9.09,18.68,18.09,28.04,27.12,2.63,2.54,9.78,10.73,11.53,11.98,3.6,2.59,7.57,2.44,11.47,2.31,5.58-.18,10.7-2.6,15.94-4.32,2.91-.95,10.05-3.13,10.73-3.13"/>
  <path class="cls-1" d="M322.35,122.02c.19,65.49-.46,128.13,0,193.62"/>
  <path class="cls-1" d="M406.68,118.48c0,6.76.03,13.52,0,20.29-.04,6.16.33,12.3.28,18.46-.01,1.74.1,3.5.2,5.24.07,1.1-.24,1.67-1.39,1.84-7.68,1.15-15.08,3.49-22.59,5.37-7.04,1.76-14.06,3.63-21.17,5.11-3.18.66-6.25,1.89-9.57,1.82"/>
  <path class="cls-1" d="M328.73,190.28v92.54"/>
  <path class="cls-1" d="M349.71,56.68c-12.86-9.9-17.01-5.93-19.86-5.72-9.12.67-17.91,3.76-26.87,5.59-5.11,1.04-10.2,2.21-15.3,3.25-6.67,1.36-13.36,2.66-20.03,3.99-6.91,1.37-13.83,2.71-20.74,4.09-5.55,1.11-11.09,2.29-16.62,3.48-7.15,1.54-14.29,3.14-21.44,4.72-12.68,2.79-25.39,5.42-38.07,8.19-8.73,1.91-17.46,3.85-26.2,5.74-6.47,1.4-12.91,2.99-19.4,4.2-10.43,1.95-20.79,4.27-31.19,6.33-4.26.85-8.52,1.76-12.79,2.62-1.77.36-2.34,1.52-1.94,2.75.39,1.2.35,2.3.35,3.45,0,8.21-.19,16.42.05,24.61.31,10.71.08,21.43.16,32.14.02,2.13.25,4.1,2.31,5.22,1.36.75,1.38,1.9,1.37,3.21-.03,7.75-.24,15.51.05,23.25.26,7.14.19,14.29.31,21.43.26,14.43.02,28.87.11,43.3.03,4.18.14,8.36.22,12.54.03,1.43-.27,2.38-1.85,2.51-.08,0-.16-.02-.23,0-3.52.98-3.87,1.43-3.87,5.24,0,12.46-.1,24.92.05,37.38.05,4.33-.23,8.7.28,12.98.41,3.43-.11,7.92.49,11.31"/>
  <path class="cls-1" d="M415.79,97.51c-5.84,1.79-11.82,3.01-17.78,4.32-15.34,3.37-30.63,6.94-45.8,10.99-2.97.79-6.03,1.28-8.92,2.42-.48.19-1.3.35-1.8-.19-2.4-2.63-5.78-3.89-8.44-6.15"/>
  <path class="cls-1" d="M405.77,91.13c-24.94,6.74-50.39,11.46-75.75,18.34-7.03-4.72-14.62-9.74-22.25-14.7-11.39-7.42-22.64-15.05-33.98-22.53-3.39-2.24-7.04-4.09-10.24-6.63"/>
  <path class="cls-1" d="M418.53,304.24c6.72-1.13,13.25-3.07,19.84-4.75,1.64-.42,2.08-1.19,2.07-2.78-.06-10.03.14-20.06-.1-30.08-.11-4.48-.7-9.1-.15-13.42.68-5.27-1.73-7.41-5.68-9.41-5.1-2.58-9.71-6.06-14.82-8.65-.33-.17-.61-.16-.93-.2"/>
  <path class="cls-1" d="M165.99,85.66c1.16,2.32,3.61,3.22,5.54,4.45,6.65,4.23,12.92,8.97,19.28,13.59,7.87,5.71,15.68,11.51,23.51,17.27,6.01,4.42,12.2,8.6,18.22,13.01,1.67,1.23,3.21,1.57,5.5,1.04,8.27-1.92,16.47-4.19,24.8-5.89,2.45-.5,4.9-1.22,7.31-1.99"/>
  <path class="cls-1" d="M243.71,68.8c2.46,2.71,5.76,4.28,8.68,6.36,6.66,4.74,13.36,9.43,20.06,14.13,9.44,6.62,18.91,13.18,28.47,19.63,4.59,3.1,9.12,6.3,13.88,9.15,1.02.61,1.71,1.75,2.99,2.01"/>
  <path class="cls-1" d="M83.71,102.98c5.69,5.21,12.11,9.48,18.22,14.14,6.85,5.22,13.66,10.5,20.55,15.67,9.03,6.78,17.78,13.93,27.1,20.31.92.63,2.04.93,2.95,1.61"/>
  <path class="cls-1" d="M91.69,263.67v64.73c0,5.24.03,12.51.02,17.75"/>
  <path class="cls-1" d="M134.54,101.16c6.21,5.47,10.54,8.12,17.12,13.11,6.34,4.81,12.54,9.82,18.86,14.66,5.52,4.22,11.46,7.82,17.13,11.8,2.09,1.47,3.97,3.22,6.16,4.55"/>
  <path class="cls-1" d="M408.5,102.76c-3.74.44-7.29,1.68-10.94,2.51-9.83,2.24-19.59,4.75-29.39,7.13-7.23,1.76-14.5,3.4-21.67,5.4-.28.08-.61.01-.91.01"/>
  <path class="cls-1" d="M87.58,113.24c.08,0,.16-.02.23,0,4.63,2.05,4.08,6.2,3.79,10.02-.13,1.71.12,3.35.12,5.02-.04,24.92-.03,49.84-.03,74.76"/>
  <path class="cls-1" d="M204.96,77.91c9.7,6.39,19.02,13.33,28.53,20,13.29,9.32,26.25,19.1,39.61,28.33,1.25.86,2.83,1.29,3.65,2.73"/>
  <path class="cls-1" d="M394.82,91.82c-8.86-4.5-16.98-10.24-25.51-15.3-9.62-5.7-19.15-11.53-28.73-17.31-1.45-.87-2.89-1.71-4.57-2.04"/>
  <path class="cls-1" d="M91.66,206.01c.03,18.46.03,36.92.03,55.39"/>
  <path class="cls-1" d="M176.47,95.46c10.33,7.81,21.11,15,31.42,22.84,7.83,5.95,15.8,11.71,23.74,17.5.22.16.3.31.23.46"/>
  <path class="cls-1" d="M195.16,148.57c.56,3.03.17,6.08.19,9.12.08,11.4.02,22.79.06,34.19,0,.91-.44,1.82-.03,2.74"/>
  <path class="cls-1" d="M79.02,335.25c4.06,2.63,7.68,6.65,11.28,9.81,10.07,8.83,20.02,17.78,29.71,27.04,5.13,4.9,10.28,9.81,15.88,14.21,1.05.83,1.19.47,2.07,1.35-.5,2.07.56,7.95.9,8.22,3.6,2.78,6.84,5.97,10.67,8.5,2.11,1.39,3.91,1.58,6.22.87,9.06-2.76,18.22-5.21,27.34-7.79,11.92-3.37,23.85-6.71,35.79-10.02,7.34-2.04,14.56-4.51,21.88-6.6,9.42-2.68,18.86-5.28,28.23-8.09,9.24-2.77,18.59-5.13,27.84-7.86,7.29-2.15,12.16-3.28,19.37-5.72"/>
  <path class="cls-1" d="M406.68,115.98v2.23c-2.37-.8-2.35.7-2.29,2.33.52,13.6.1,27.2.23,40.8,0,.54.1,1.1-.22,1.6"/>
  <path class="cls-1" d="M84.16,277.57c.12,3.04.47,6.07.46,9.12-.02,10.18-.12,20.36.03,30.54.11,7.07.17,15.41.19,22.48"/>
  <path class="cls-1" d="M403.14,216.72c-2.25-1.83-4.78-.79-7.05-.38-11.29,2.01-22.39,4.92-33.52,7.68-.49.12-.79.42-.91.91"/>
  <path class="cls-1" d="M424.71,265.23c9.87-1.38,9.15,1.15,9.12,3.23-.09,6.91-.06,13.83-.01,20.74,0,1.4-.17,2.34-1.84,2.54-1.94.23-3.66,1.28-5.7,1.39-3.02.17-1.54-.37-1.6-3.44-.09-3.87-.01-8.16-.01-12.03,0-3.65.05-8.79.05-12.44"/>
  <path class="cls-1" d="M276.53,129.42c0,14.51,0,29.02,0,43.53,0,.84-.16,1.7.22,2.51"/>
  <path class="cls-1" d="M315.05,126c-6.1,1.34-12.17,2.84-18.24,4.32-6.68,1.64-13.33,3.38-20.06,4.79"/>
  <path class="cls-1" d="M233.45,185.95c-4.25.6-8.38,1.77-12.52,2.8-7.37,1.82-14.74,3.68-22.14,5.34-11.13,2.5-22.18,5.32-33.26,8.05-2.74.67-5.55,1.04-8.21,2.04"/>
  <path class="cls-1" d="M276.08,176.15c-3.69.08-7.16,1.31-10.7,2.11-8.45,1.91-16.83,4.11-25.3,5.95-2.05.45-4.19.73-6.17,1.51"/>
  <path class="cls-1" d="M232.54,139.68c-4.45.79-8.8,2.05-13.22,2.94-7.7,1.54-15.3,3.55-23,5.12-11.37,2.32-22.67,5.05-33.99,7.6-3.46.78-6.85,2.05-10.47,2.12"/>
  <path class="cls-1" d="M328.73,150.62v37.38"/>
  <path class="cls-1" d="M231.86,136.26c-3.66,1.08-1.68.66-3.66,1.08-7.18,1.53-14.25,3.48-21.41,5.1-4.19.95-8.36,1.98-12.54,2.94"/>
  <path class="cls-1" d="M311.4,117.34c-6.8,1.5-13.53,3.31-20.3,4.95-4.85,1.17-9.66,2.54-14.57,3.51-.71.14-1.53.23-2.06.89"/>
  <path class="cls-1" d="M306.39,224.92v36.01"/>
  <path class="cls-1" d="M168.27,93.64c-4.79.49-9.43,1.78-14.13,2.73-6.18,1.24-12.31,2.72-18.45,4.15-.37.09-.94.14-1.15.65"/>
  <path class="cls-1" d="M246.22,76.32c-1.93-.63-3.69.36-5.46.75-8.52,1.86-16.96,4.05-25.54,5.63-.58.11-1.07.45-1.6.68"/>
  <path class="cls-1" d="M209.29,84.98c-5.96.7-11.71,2.4-17.54,3.68-4.97,1.08-9.87,2.47-14.82,3.62"/>
  <path class="cls-1" d="M328.73,286.92v32.37"/>
  <path class="cls-1" d="M281.32,313.36v31.45"/>
  <path class="cls-1" d="M134.31,252.96v30.54"/>
  <path class="cls-1" d="M124.96,102.07c-10.07,2.56-20.19,4.93-30.31,7.29"/>
  <path class="cls-1" d="M191.06,145.83c-12.35,3.09-26.28,5.35-38.52,8.89"/>
  <path class="cls-1" d="M161.89,124.64c8.76,7.14,19.86,14.84,29.17,21.2"/>
  <path class="cls-1" d="M317.79,120.08c-5.67,1.4-50.15,10.77-55.84,12.08-5.01,1.15-10.1,1.98-15.05,3.4-.35.1-.76.01-1.14.01"/>
  <path class="cls-1" d="M168.04,422.31c-1.08-2.7-3.73-2.92-5.94-3.33-2.83-.52-5.76-.59-8.66.3-1.32.41-2.62.84-2.87,2.13-.28,1.46.92,2.26,2.18,2.98,3.81,2.19,7.65,1.86,11.66.71,1.57-.45,2.72-1.11,3.4-2.56"/>
  <path class="cls-1" d="M422.36,344.82c-1.08-2.7-3.73-2.92-5.94-3.33-2.83-.52-5.76-.59-8.66.3-1.32.41-2.62.84-2.87,2.13-.28,1.46.92,2.26,2.18,2.98,3.81,2.19,7.65,1.86,11.66.71,1.57-.45,2.72-1.11,3.4-2.56"/>
  <path class="cls-2" d="M85.19,353.88c-.66-1.65-2.27-1.78-3.62-2.03-1.73-.32-3.51-.36-5.28.18-.8.25-1.6.51-1.75,1.3-.17.89.56,1.38,1.33,1.82,2.32,1.34,4.66,1.14,7.11.43.96-.28,1.66-.68,2.07-1.56"/>
  <path class="cls-1" d="M375.22,199.62c.6,3.72,2.99,4.84,6.16,2.98,1.34-.78,2.42-1.69,2.96-3.2.91-2.55.42-4.46-1.6-5.93-1.14-.83-3.64-.53-5.24.69-1.72,1.31-2.15,3.26-2.51,5.24"/>
  <path class="cls-1" d="M157.33,352.56c-.46,17.32-.46,34.64-.46,51.97"/>
  <path class="cls-1" d="M356.53,254.1v25.98"/>
  <path class="cls-1" d="M328.73,126v23.7"/>
  <path class="cls-1" d="M306.39,273.7v23.7"/>
  <path class="cls-1" d="M187.41,150.16v46.5"/>
  <path class="cls-1" d="M219.32,90.45c7.11,4.69,13.82,9.95,20.99,14.56.66.42,1.01,1.19,1.8,1.4"/>
  <path class="cls-1" d="M137.27,105.95c5.93,4.4,11.88,8.78,17.77,13.22,1.55,1.17,3.03,2.44,4.56,3.64"/>
  <path class="cls-1" d="M100.35,125.55c0,6.61-.02,13.22.03,19.83,0,.67-.53,1.55.43,2.05"/>
  <path class="cls-1" d="M238.92,161.56v21.88"/>
  <path class="cls-1" d="M127.47,254.78v21.42"/>
  <path class="cls-1" d="M439.04,247.49c-4.55,1.9-9.41,2.77-14.13,4.12-2.06.59-4.19.92-6.16,1.81"/>
  <path class="cls-1" d="M306.39,317.92v19.6"/>
  <path class="cls-1" d="M107.64,130.11c5.96,4.52,11.66,9.37,17.78,13.68"/>
  <path class="cls-1" d="M437.46,245.61c-5.88,1.84-12.67,4.23-18.7,5.53"/>
  <path class="cls-1" d="M226.62,251.36v14.59"/>
  <path class="cls-1" d="M270.15,71.76c-4.11.8-8.17,1.82-12.31,2.52-1.4.24-2.84.38-4.11,1.12"/>
  <path class="cls-1" d="M306.39,175.69v14.13"/>
  <path class="cls-1" d="M150.53,432.77v15.39"/>
  <path class="cls-1" d="M226.62,268.23v13.68"/>
  <path class="cls-1" d="M306.39,192.1v13.68"/>
  <path class="cls-1" d="M335.56,57.4c-4.18,1.21-8.43,2.06-12.76,2.51"/>
  <path class="cls-1" d="M335.23,118.79c-3.01.59-9.85,2.72-12.87,3.22"/>
  <path class="cls-1" d="M122.91,94.78c1.51,2.67,4.52,3.49,6.68,5.39,1.64,1.45,3.51,2.76,5.4,3.95"/>
  <path class="cls-1" d="M281.32,347.09v12.31"/>
  <path class="cls-1" d="M394.37,354.39c.51,3.87.13,4.79.03,8.94"/>
  <path class="cls-1" d="M94.42,340.48c3.9,3.23,7.04,7.25,10.94,10.48"/>
  <path class="cls-1" d="M226.62,239.51v10.48"/>
  <path class="cls-1" d="M264.45,350.74v10.48"/>
  <path class="cls-1" d="M127.7,145.61c5.13,3.73,9.9,7.92,15.04,11.62,2.09,1.51,4.33,2.11,6.84,1.14"/>
  <path class="cls-1" d="M106.27,351.88c3.39,2.99,6.66,6.1,10.03,9.12"/>
  <path class="cls-1" d="M253.51,140.59c-2.66.16-5.2.94-7.74,1.64-.64.18-1.23.06-1.84.18"/>
  <path class="cls-1" d="M264.91,198.94v8.66"/>
  <path class="cls-1" d="M219.32,149.25c-2.48.18-4.79,1.28-7.29,1.37"/>
  <path class="cls-1" d="M184.53,439.19c-.38,2.32-2.48,3.2-4.48,3.88-5.21,1.77-10.51,3.27-15.74,4.97-3.73,1.21-7.57,2.26-11.61,1.89-3.6-.33-6.91-1.23-9.58-3.88-14.79-14.69-30.02-28.93-44.94-43.5-8.84-8.63-17.71-17.24-26.85-25.57-1.59-1.45-3.16-2.96-4.83-4.27-2.59-2.03-3.14-4.73-2.85-7.57.34-3.28.07-6.55.06-9.81-.02-5.45,1.64-6.78,6.73-8.38,3.05-.96,6.27-1.31,9.34-2.29,2.32-.74,4.27.64,5.88,2.04,4.18,3.63,8.18,7.44,11.98,11.5,3.25,3.47,6.63,6.89,10.35,9.94,2.73,2.24,5.08,4.94,7.56,7.47,5.03,5.16,10.37,9.99,15.48,15.06,2.98,2.96,2.78,1.2,7.83,5.21"/>
  <path class="cls-1" d="M119.4,363.73c2.52,1.87,4.32,4.51,6.84,6.38"/>
  <path class="cls-1" d="M94.42,119.62c2.2,1.58,4.25,3.35,6.38,5.01"/>
  <path class="cls-1" d="M249.41,111.87c1.82,1.22,3.65,2.43,5.47,3.65"/>
  <path class="cls-1" d="M128.35,149.25l5.47,4.1"/>
  <path class="cls-1" d="M156.87,204.41c-1.71.07-3.32.74-5.01.91"/>
  <path class="cls-1" d="M192.43,172.05c-1.61-.13-3.02.7-4.56.91"/>
  <path class="cls-1" d="M91.23,107.32c1.57.99,3.04,2.13,4.56,3.19"/>
  <path class="cls-1" d="M241.55,137.65c-1.25-.14-2.4.59-3.65.46"/>
  <path class="cls-1" d="M360.41,198.71c-2.47.69-3.89,2.21-4.64,4.76-.61,2.05-.39,3.63,1.25,4.77,1.53,1.06,3.24.95,5,.07,3.79-1.9,4.01-6.89,1.84-8.73-1.03-.87-2.08-.86-3.22-.87"/>
  <path class="cls-1" d="M405.77,208.06c-9.62,2.1-19.16,4.51-28.7,6.89-5.69,1.42-11.38,2.8-17.1,4.08-6.21,1.39-7.74,4.58-8.41,10.68-.17,1.58-.03,3.19-.03,4.78,0,33.35.02,66.71-.02,100.06,0,5.11,1.31,4.46,4.58,3.43,13.74-4.33,27.59-8.3,41.51-11.96,4.15-1.09,7.19-2.87,9.04-6.54,1.09-2.16,1.15-4.66,1.16-7.04.05-14.74.22-29.48-.02-44.22-.32-19.22-.04-38.44-.18-57.67,0-1.16.38-2.59-1.59-2.51"/>
  <path class="cls-1" d="M399.61,187.32c-2.39.76-3.94,2.3-4.58,4.78-.57,2.22-.18,4.29,1.16,5.25,1.14.81,4.41.71,5.69-.24,1.98-1.46,2.96-3.47,2.96-5.92,0-2.56-1.73-3.87-5.01-3.87"/>
  <path class="cls-1" d="M394.4,363.33s6.31,6.64,16.47,5.7c10.16-.94,19.06-8.95,19.06-8.95,0,0,.52-13.16.09-12.81-6.24,5.07-16.29,11.74-24.25,11.39-3.75-.16-7.41-1.13-10.73-3.1-.56-.33-.7-.63-.66-1.17"/>
</svg>