<?xml version="1.0" encoding="UTF-8"?>
<svg id="icons" xmlns="http://www.w3.org/2000/svg" viewBox="0 0 500 500">
  <defs>
    <style>
      .cls-1 {
        stroke-width: .72px;
      }

      .cls-1, .cls-2 {
        fill: none;
        stroke: #000;
        stroke-linecap: round;
        stroke-linejoin: round;
      }

      .cls-2 {
        stroke-width: .85px;
      }
    </style>
  </defs>
  <path class="cls-2" d="M359.52,246.69c.52,2.62.17,5.26.19,7.89.07,9.59.12,19.19,0,28.78-.4,34.25-.1,68.51-.19,102.76-.02,5.78-2.46,10.1-7.47,13.01-7.69,4.46-15.85,7.95-23.89,11.7-18.99,8.86-38.14,17.37-57.13,26.23-7.43,3.47-15,6.67-22.37,10.26-6.34,3.08-12.25,2.12-18.14-1.27-10.78-6.2-21.92-11.75-32.81-17.73-11.99-6.58-24.13-12.87-36.06-19.57-4.62-2.6-9.39-4.95-14.05-7.49-3.32-1.82-6.55-3.77-8.07-7.48-.52-1.26-.9-2.6-.9-4.04.02-46.48.01-92.95,0-139.43,0-.98-.04-1.96.64-2.77"/>
  <path class="cls-2" d="M353.34,255.01c.45.67.2,1.43.2,2.13.02,36.24.01,72.49.01,108.73,0,5.83-.2,11.66.06,17.48.24,5.33-2.12,8.74-6.66,11.11-5.42,2.83-11.12,5.06-16.62,7.69-3.96,1.89-8,3.6-11.96,5.49-7.67,3.65-15.49,6.98-23.24,10.45-3.77,1.69-7.46,3.58-11.36,5.01"/>
  <path class="cls-2" d="M145.04,257.78v108.52c0,6.04,0,12.08,0,18.12,0,.71-.13,1.45.21,2.13"/>
  <path class="cls-2" d="M346.3,252.24c.48,2.33.19,4.69.2,7.04.03,34.68.02,69.36.02,104.04,0,6.68-.07,13.36.03,20.04.05,3.48-.35,6.97.19,10.45"/>
  <path class="cls-2" d="M151.65,260.34v103.83c0,9.52,0,19.05,0,28.57,0,.64.11,1.31-.21,1.92"/>
  <path class="cls-2" d="M203.03,194.03c-.95.39-.97,1.52-1.37,2.2-1.37,2.33-3.81,1.9-5.7,2.6-2.35.86-4.26,2.21-6.15,3.72-2.54,2.04-1.61,4.89-1.63,7.46,0,.63.11,1.28-.07,1.91-6.77,1.87-13.52,3.78-20.26,5.76-8.5,2.5-17.03,4.93-25.57,7.3-2.87.8-5.83,1.39-8.54,2.72-2.64,1.29-3.54,2.83-3.43,5.55.09,2.2.23,4.43-.03,6.6-.34,2.75,1.13,4.27,3.27,5.07,3.2,1.19,6.37,2.48,9.55,3.73,9.56,3.75,19.09,7.57,28.61,11.41,10.88,4.4,21.65,9.04,32.58,13.32,7.51,2.94,14.98,5.99,22.38,9.19,7.03,3.04,14.16,4.62,21.77,3.32,2.79-.48,5.44-1.57,8.1-2.55,6.46-2.38,12.97-4.6,19.42-6.99.84-.31,1.58-.94,2.55-.88"/>
  <path class="cls-2" d="M207.3,61c3.4,1.38,6.8,2.78,10.45,3.4,4.53.77,9.04,1.66,13.64,1.92,9.66.55,19.32,1.05,28.99.82,9.38-.22,18.75-.76,27.93-2.96,2.37-.57,4.73-1.25,6.81-2.56,1.98-1.24,2-3.11.23-4.68-2.93-2.61-6.64-3.31-10.25-4.23-4.4-1.12-8.9-1.67-13.42-2.19-9.36-1.08-18.75-1.58-28.14-1.19-10.62.44-21.2,1.46-31.36,5.02-1.65.58-3.12,1.46-4.65,2.22-1.73.86-1.28,2.51-.88,4"/>
  <path class="cls-2" d="M130.76,233.47c4.63,2.71,9.81,4.12,14.74,6.1,6.19,2.49,12.5,4.72,18.72,7.13,12.76,4.94,25.41,10.17,38.14,15.2,8,3.16,15.9,6.57,23.9,9.75,3.66,1.46,7.22,3.25,11.1,3.99,5.89,1.12,11.63.43,17.27-1.65,8.08-2.98,16.13-6.04,24.3-8.77"/>
  <path class="cls-2" d="M369.97,231.34c-4.89,3.7-10.82,5.03-16.44,6.96-5.46,1.88-10.93,3.76-16.35,5.73-7.69,2.8-15.39,5.57-23.08,8.37-9.59,3.49-19.16,7.03-28.78,10.46-1.9.68-3.69,1.71-5.74,1.95"/>
  <path class="cls-2" d="M305.37,96.39c-1.57.15-2.13,1.72-3.39,2.39-4.86,2.61-10.01,4.35-15.38,5.48-4.44.93-8.91,1.61-13.42,2.22-10.07,1.35-20.18,1.44-30.28,1.12-5.83-.18-11.69-.6-17.49-1.57-6.62-1.1-13.23-2.15-19.61-4.31-3.49-1.18-6.86-2.62-9.81-4.9"/>
  <path class="cls-2" d="M294.92,77.41c-5.38,1.56-10.86,2.59-16.41,3.48-12.11,1.93-24.29,1.8-36.47,1.54-4.46-.1-8.97-.59-13.44-1.08-7.29-.79-14.44-2.14-21.28-3.88-.12-5.61.15-11.15-.27-16.97-3.5,1.64-6.87,3.3-9.34,6.27-1.28,1.54-.1,3.4-.15,5.1-.04,1.4,1.68,1.87,2.71,2.5,1.97,1.22,4.08,2.24,6.36,2.83"/>
  <path class="cls-2" d="M250.79,115.36v78.71c2.11.37,4.29.33,6.39.14,10.47-.97,20.81-2.54,30.71-6.33,3.95-1.51,7.85-3.05,11.28-5.58.6-.44,1.45-.34,1.88-.68,1.36-1.09,2.22-2.44,2.22-4.42-.07-19.83-.02-39.65-.06-59.48,0-3.06.38-6.11.23-9.17-.04-.73.2-1.52-.43-2.13"/>
  <path class="cls-2" d="M279.36,114.08c.45.67.2,1.43.2,2.13.02,23.59.01,47.19.02,70.78,0,1.07-.04,2.13,0,3.2"/>
  <path class="cls-2" d="M195.57,111.52c.59.78,1.45,1,2.34,1.31,5.19,1.76,10.65,2.79,15.56,5.32,5.26,2.71,8.23,7.17,8.71,12.99,1.1,13.27.19,26.58.49,39.86.03,1.37-1.15,2.65-.24,4.05"/>
  <path class="cls-2" d="M226.27,355.42c-10.75,3.89-21.31,8.27-31.96,12.42-12.16,4.73-24.35,9.4-36.49,14.21-4.24,1.68-8.5,3.33-12.91,4.84.23,2.36,1.35,3.98,3.08,5.45,3.98,3.4,8.76,5.38,13.27,7.81,11.05,5.97,22.02,12.1,33.04,18.13,13.78,7.54,27.32,15.53,41.34,22.63.83.42,1.66.82,2.56,1.07"/>
  <path class="cls-2" d="M261.23,115.36c.45.67.2,1.43.2,2.13.02,23.45.02,46.9,0,70.36,0,1.85.18,3.69.22,5.54"/>
  <path class="cls-2" d="M240.77,114.93c0,26.15.02,52.3-.03,78.46,0,3.34-.35,6.68.03,10.02"/>
  <path class="cls-2" d="M269.98,114.93v73.77"/>
  <path class="cls-2" d="M224.56,290.82c-4.13-1.51-8.1-3.43-12.14-5.16-9.02-3.86-18.04-7.71-27.07-11.53-7.33-3.1-14.68-6.17-22.01-9.26-6.08-2.56-12.13-5.2-18.31-7.57,0-2.38,0-4.79,0-7.21"/>
  <path class="cls-2" d="M298.97,108.75c.36.76.21,1.56.21,2.35,0,22.74,0,45.48.01,68.22,0,.78-.15,1.59.21,2.35"/>
  <path class="cls-2" d="M288.95,112.16c.35,1.04.44,2.1.44,3.2-.02,22.74-.02,45.48.01,68.22,0,1.13-.54,2.32.19,3.41"/>
  <path class="cls-2" d="M293.64,110.88c.27.69.21,1.41.21,2.13,0,23.31,0,46.62,0,69.93,0,.72-.06,1.44.21,2.13"/>
  <path class="cls-2" d="M290.02,271.85c.36.76.21,1.56.21,2.35,0,22.67,0,45.34,0,68.01v11.3"/>
  <path class="cls-2" d="M238.42,351.16c.45.67.2,1.43.2,2.13-.12,29.56.26,59.13-.13,88.69"/>
  <path class="cls-2" d="M356.39,222.11c8.07,2.24,7.87,2,9.28,2.69,3.24,1.59,5.13,4.23,4.94,8.04-.03.71-.03,1.42,0,2.13.33,7.42-1.37,7.63-6.86,9.73-15.09,5.8-30.38,11.03-45.6,16.47-12.66,4.53-25.26,9.22-37.93,13.69-.3.11-.57.14-.86.18"/>
  <path class="cls-2" d="M284.69,358.62c2.83.48,5.29,1.9,7.89,2.99,9.55,3.99,19.04,8.13,28.59,12.1,8.38,3.49,16.68,7.19,25.14,10.49"/>
  <path class="cls-2" d="M250.57,285.71c.3.83.21,1.7.21,2.56,0,22.24,0,44.49,0,66.73"/>
  <path class="cls-2" d="M284.05,279.95c.11,4.83-.24,9.67.21,14.5.13,1.36-.24,2.69-.23,4.05.04,7.82-.06,15.64.06,23.45.05,3.05.17,6.11.17,9.17,0,7.82,0,15.63,0,23.45,0,1.09-.31,2.13-.43,3.2"/>
  <path class="cls-2" d="M238.64,286.35c-.55,3.4,0,6.82-.14,10.24-.03.65.13,1.42.13,2.13.02,16.49.01,32.97.03,49.46,0,.71-.25,1.46.2,2.13"/>
  <path class="cls-2" d="M279.14,275.18c0,16.06,0,45.21.04,61.27"/>
  <path class="cls-2" d="M196.85,68.67c-.99.48-1.31,1.23-1.3,2.35.05,7.89.02,15.78.03,23.66,0,1.63.17,3.29-.04,4.9-.41,3.23,1.45,5.1,3.9,6.36,5.02,2.57,10.52,3.81,15.97,5.16,3.93.97,7.94,1.53,11.94,2.1,1.02.15,1.23.68,1.51,1.51,1.25,3.68,2.05,7.43,2.33,11.31.93,12.71.12,25.44.44,38.16.07,2.55-.58,4.36-2.74,6.04-4.91,3.83-9.58,7.95-14.73,11.5-2.67,1.84-5.71,2.54-8.57,3.76-.24.1-.58.07-.84,0-4.66-1.13-9.31-2.23-13.89-3.75-4.43-1.47-8.86-3-13.4-4.13-1.9-.48-3.65-1.39-5.53-1.97-3.15-.97-4.7-3.98-4.7-8.48-.01-10.02,0-20.04,0-30.06,0-4.55-.06-9.1-.18-13.65-.12-4.23,1.72-6.67,5.73-8.1,3.93-1.4,7.93-2.18,12.13-2.55,2.49-.22,5.04-1.26,7.69-1.3.07,0,.13-.18.21-.2,1.2-.27,2.69.66,3.61-.76.77-1.18,1.1-2.52,1.09-3.94,0-.33.22-.6.42-.85"/>
  <path class="cls-2" d="M248.02,374.61v64.68"/>
  <path class="cls-2" d="M227.12,355c7.22-2.59,14.31-5.53,21.52-8.15,1.9-.69,3.67-.64,5.56-.39,5.03.67,9.47,3.02,14.07,4.9,5.46,2.22,10.84,4.6,16.25,6.93-.77,1.41-.51,2.82-.46,4.17.45,11.87.2,23.74.14,35.6-.04,6.82-.28,13.64.03,20.47.06,1.34-.47,2.7.03,4.05"/>
  <path class="cls-2" d="M310.48,205.76c-3.23,2.23-7.08,2.95-10.68,4.21-6.29,2.22-12.62,4.34-18.95,6.48-9.82,3.31-19.56,6.83-29.44,9.96-3.7,1.17-7.33.28-10.87-1.03-15.87-5.89-31.87-11.42-47.78-17.21-1.43-.52-2.82-1.41-4.45-1.35"/>
  <path class="cls-2" d="M190.45,230.49c.04,5.43.98,10.81,1.17,16.21.17,4.54,3.04,6.87,6.34,8.19,8.96,3.58,17.89,7.24,27.03,10.36"/>
  <path class="cls-2" d="M346.09,257.14c-8.42,2.97-16.73,6.23-25.16,9.17-9.11,3.17-18.09,6.69-27.29,9.59"/>
  <path class="cls-2" d="M257.4,289.97c0,9.74,0,19.47,0,29.21v27.72"/>
  <path class="cls-2" d="M208.57,133.7c0,14.92,0,29.85,0,44.77,0,1.92-.09,3.85.21,5.76"/>
  <path class="cls-2" d="M248.02,286.13c0,17.91,0,35.82-.01,53.73,0,.71,0,.82.03,3.09"/>
  <path class="cls-2" d="M226.7,293.81v55.22c0,7.11,0,14.21,0,21.32"/>
  <path class="cls-2" d="M189.17,226.86c-3.14.18-5.99,1.49-8.95,2.36-10.39,3.08-20.78,6.15-31.12,9.41-.5.16-1.13-.19-1.51.37"/>
  <path class="cls-2" d="M226.7,381.65c-.03,16.42,0,35.6-.01,52.02,0,.71.25,1.46-.2,2.13"/>
  <path class="cls-2" d="M285.75,199.15c-.1,2.2.54,4.36-.11,6.64-.38,1.32-.95,2.05-2,2.77-3.65,2.47-7.82,3.64-11.96,4.86-6.71,1.97-13.58,1.65-20.46,1.33-3.05-.14-6.11.1-9.16.21-4.57.17-9.04-.3-13.43-1.53-4.04-1.14-7.96-2.59-11.75-4.43-1.91-.93-3.16-1.92-3.02-4.31.11-1.97-.76-3.98.06-5.97"/>
  <path class="cls-2" d="M188.11,212.37c.83,1.18,2.23,1.36,3.41,1.92,8.36,3.96,17.18,6.73,25.82,9.96,6.27,2.35,12.58,4.59,18.94,6.7.38.13.72.11,1.08.18"/>
  <path class="cls-2" d="M221.37,129.86c-5.12,1.33-10.19,2.86-15.36,4.03-1.17.26-1.54.82-1.5,1.94.5,12.08.11,24.16.18,36.24,0,1.06.63,2.13.04,3.2"/>
  <path class="cls-2" d="M188.32,220.26c-4.26.63-8.23,2.31-12.36,3.44-7.94,2.17-15.76,4.74-23.67,7-.2.06-.42,0-.64,0"/>
  <path class="cls-2" d="M196.85,137.53c-.34.68-.21,1.42-.21,2.13,0,10.52,0,21.04,0,31.55,0,1.78.09,3.54-.13,5.34-.26,2.05.86,3.87,2.06,5.53"/>
  <path class="cls-2" d="M283.62,423.22c-11.43,5.21-22.8,10.56-34.31,15.59-.39.17-.72.11-1.08.18"/>
  <path class="cls-2" d="M188.75,213.43c-.9.94-.24,1.99-.2,2.98.17,3.63.31,7.27.84,10.87.18,1.19.52,2.19,1.67,3.03,5.59,4.1,12.02,6.43,18.38,8.87,7.64,2.94,15.32,5.77,23.01,8.56"/>
  <path class="cls-2" d="M175.32,129.22c.4.29.2.71.2,1.07.01,10.8,0,21.6,0,32.41,0,.58.09,1.17-.21,1.71"/>
  <path class="cls-2" d="M298.76,183.16c1.53,2.57,1.12,5.41.75,8.09-.24,1.73-2.23,2.39-3.73,3.22-5.35,2.98-11.14,4.64-17.06,5.95-5.35,1.19-10.72,2.17-16.2,2.58-8.96.68-17.91,1.08-26.86-.02-7.23-.89-14.33-2.47-21.3-4.53-3.78-1.11-7.5-2.48-10.93-4.57-1.32-.8-1.99-1.77-2.04-3.06-.07-1.84-.32-3.71.16-5.54"/>
  <path class="cls-2" d="M304.09,215.35c-17.63,6.02-35.04,12.69-52.87,18.12"/>
  <path class="cls-2" d="M304.51,69.1c1.18.67,1.31,1.73,1.3,2.98-.04,9.45-.11,18.9.03,28.35.04,2.85-1.53,4.65-3.5,5.91-5.89,3.73-12.48,5.46-19.35,6.54-4.12.65-8.27.94-12.39,1.58-1.95.3-3.97.13-5.97.21-6.96.29-13.91.43-20.9-.07-4.69-.33-9.39-.66-14.06-1.18-.35-.04-.55.25-.85.23"/>
  <path class="cls-2" d="M247.8,347.32c.34.68.21,1.42.21,2.13,0,7.82,0,15.63.03,23.45"/>
  <path class="cls-2" d="M345.45,202.35c-.55-.99.21-2-.01-2.98-.74-3.3-3.17-4.8-6.18-5.5-.76-.18-1.5-.48-2.33-.5-4.22-.13-8.67,3.87-9.38,8.56-.8,5.31-.4,10.66-.43,15.99,0,.94.4,1.53,1.28,1.93,2.88,1.31,5.97,2.01,8.98,2.91,1.86.56,3.68-.62,5.52-1.03.5-.11.98-.33,1.5-.4"/>
  <path class="cls-2" d="M204.95,134.12c-.27-2.52-.52-4.98-2.3-7.07-.94-1.11-2.06-1.79-3.21-2.57-.89-.61-1.56-.24-2.15.09-1.07.61-1.96,1.51-2.36,2.73-1.2,3.7-.25,8.37,2.98,10.65,1.85,1.31,3.75,1.01,5.33-.62.4-.41.35-1.15,1.05-1.29"/>
  <path class="cls-2" d="M196.85,124.32c-4.68-1.7-9.54-2.8-14.29-4.23-2.95-.89-5.89-1.83-8.93-2.44-.51-.1-3.65.05-4.88.65"/>
  <path class="cls-2" d="M207.3,77.84c0,7.11,0,14.21,0,21.32,0,.93.07,1.86-.21,2.77"/>
  <path class="cls-2" d="M295.13,62.49c.34.68.21,1.42.21,2.13,0,12.37,0,24.73,0,37.1"/>
  <path class="cls-2" d="M333.3,193.61c-3.18-1.57-6.61-2.62-10.04-3.04-2.07-.26-4.34.84-5.99,2.79-3.37,3.99-4.95,8.55-5.05,13.68-.02,1.11-.62,2.06-.48,3.2.45,3.54,0,7.12.28,10.65.54,6.78-2.89,10.93-8.58,13.63-7.76,3.68-15.95,6.25-24.08,8.97"/>
  <path class="cls-2" d="M177.65,114.05c5.15,1.94,12.31,2.91,17.55,4.52,2.26.69,4.53,1.36,6.82,1.91.44.1,3.68,1.04,3.75,1.54"/>
  <path class="cls-2" d="M349.29,235.61c-5.74-2.11-11.6-3.88-17.49-5.51-1.69-.47-3.2-1.68-5.11-1.31"/>
  <path class="cls-2" d="M340.76,201.71c-2.05-.86-3.65-.68-4.64,1.09-2.18,3.89-3.2,8.01-1.11,12.34,1.01,2.08,2.24,2.73,4.26,2.35"/>
  <path class="cls-2" d="M193.65,126.87c-5.89-1.75-11.78-3.47-17.68-5.17-.47-.13-.73.05-1.08.05"/>
  <path class="cls-2" d="M298.33,252.87c-11.89,4.34-23.87,8.41-35.82,12.57-.7.24-1.35.66-2.13.65"/>
  <path class="cls-2" d="M317.95,192.33c-.38-1.13-1.45-1.21-2.35-1.48-5.25-1.6-10.43-3.41-15.77-4.7"/>
  <path class="cls-2" d="M278.5,243.92c-5.43,1.62-10.64,3.9-16.18,5.2-.64.15-1.29.24-1.94.35"/>
  <path class="cls-2" d="M251,226.86c0,12.86-.02,25.73.04,38.59,0,1.27-.8,2.61.18,3.84"/>
  <path class="cls-2" d="M231.57,165.67c-.38,2.71-1.09,5.97-1.08,7.04.08,6.61.04,13.22.04,19.83"/>
  <path class="cls-2" d="M312.13,224.08c.4,3.1.4,11.37.48,13.62.15,3.88-.24,7.89-.46,9.69-.16,1.28-10.77,4.33-13.82,5.49"/>
  <path class="cls-2" d="M351.21,204.69c3.66.42,7.14,1.62,10.64,2.62,2.41.69,3.23,3.23,3.52,5.28.45,3.14.07,6.4-2.68,8.69-1.51,1.26-5.41,1.11-7.46-.64"/>
  <path class="cls-2" d="M203.46,184.65c-.14-.83.56-1.28.85-1.92,1.82-3.96.4-7.98-2.57-10.21-1.84-1.38-2.19-1.25-4.68.83"/>
  <path class="cls-2" d="M279.14,338.37c0,4.97,0,9.95,0,14.92,0,.79.08,1.58-.21,2.35"/>
  <path class="cls-2" d="M279.12,224.28c.09.63,0,18.72,0,19.36"/>
  <path class="cls-2" d="M350.78,204.9c-4.37,3.08-5.33,7.38-4.5,12.37.16.97.82,1.94.23,2.98"/>
  <path class="cls-2" d="M350.78,204.48c-1.61-1.09-3.64-1.04-5.22-1.97-4.95,2.19-6.18,11.48-2.68,15.19.28.3.78.5.64,1.06"/>
  <path class="cls-2" d="M357.81,206.61c-2.23,1.77-3.88,3.73-4.37,6.81-.43,2.73.01,4.95,1.62,7.04"/>
  <path class="cls-2" d="M177.02,169.73c5.1,1.97,13.18,3.88,18.38,5.54"/>
  <path class="cls-2" d="M344.6,202.77c-.92-.8-2.43-.53-3.67-1.03-1,2.27-3.04,3.14-3.6,5.71-.82,3.77-.53,7.32,2.22,10.18.86.89,2.11,2.04,3.78,1.34,1.13-.47,1.62.72,2.3,1.14,2.29,1.4,4.9,1.04,7.33,1.99.61.24,4.24-.13,6.4,0"/>
  <path class="cls-2" d="M205.38,185.72c.41.38.71.87,1.28,1.07,5.86,2.1,11.72,4.08,17.9,5.17,7.99,1.41,15.98,2.46,24.1,2.28.65-.01,1.31.11,1.92-.21"/>
  <path class="cls-2" d="M197.28,217.06c-.35.98-.32,1.94-.27,2.99.2,4.12-.11,8.25.27,12.36.05.5-.11.91-.43,1.28"/>
  <path class="cls-2" d="M315.39,215.78c0,5.4-5,9.06,10.63,9.39"/>
  <path class="cls-2" d="M259.74,231.34c.42,1.48.19,2.99.2,4.48.03,11.16,0,19.48,0,30.64"/>
  <path class="cls-2" d="M233.31,248.18c3.6,1.35,7.3,2.47,11.1,2.9,2.79.32,5.67.19,8.52-.09,2.31-.23,4.49-1.07,6.82-1.1"/>
  <path class="cls-2" d="M218.17,226.01c0,3.2,0,6.4,0,9.59,0,1.79-.14,3.59.42,5.33"/>
  <path class="cls-2" d="M237.57,224.73c-.51,4.54-.02,9.1-.19,13.65-.13,3.62-.03,7.25-.03,10.87"/>
  <path class="cls-2" d="M312.62,200.64c-3.17-1.1-6.41-1.96-9.58-3.03-1.99-.67-3.85.63-6.16-.23-.35-.24.07-1-.04-1.65"/>
  <path class="cls-2" d="M361.23,216.84c.26-1.21.19-2.4.04-3.63-.16-1.27-.7-2.12-1.95-2.08-1.18.04-1.45.97-1.52,2.09-.19,2.7.45,4.1,2.38,4.69"/>
  <path class="cls-2" d="M226.7,370.35v11.3"/>
  <path class="cls-2" d="M142.54,227.54c2.26-.39,6.32.64,5.98,1.91-.59,2.26-3.6,5.63-6.82,4.66-2.64-.8-3-5.45.72-6.66"/>
  <path class="cls-2" d="M296.63,60.78c1.01.92,2.28,1.42,3.43,2.11,1.74,1.05,3.1,2.44,3.78,4.3.81,2.22-.15,6.48-2.94,7.67-1.7.73-3.34,1.6-5.12,2.12"/>
  <path class="cls-2" d="M312.62,214.71c4.3,1.02,8.35,2.8,12.57,4.07.83.25,1.14.92,1.1,1.9-.09,2.91.27,5.19.39,8.1"/>
  <path class="cls-2" d="M345.24,220.26c-1.37,2.83-2.05,5.83-1.86,8.95.06,1.06-.02,2.9.07,3.96"/>
  <path class="cls-2" d="M250.57,204.05c.01,3.41-.07,6.83.21,10.23"/>
  <path class="cls-2" d="M238,231.55c4.13,1.51,8.39,2.2,12.79,1.92"/>
  <path class="cls-2" d="M237.36,275.9c-.43,1.76-.15,3.55-.21,5.33-.05,1.49.06,2.99-.22,4.48"/>
  <path class="cls-2" d="M214.54,119.84c-2.86,1.25-6.04,1.3-8.95,2.36-2.02.74-4.23.75-6.19,1.69"/>
  <path class="cls-2" d="M169.35,166.32c.63,3.66.22,4.26,3.27,6.45,1.05-.82,1.9-1.74,1.63-3.25-.36-2.01-.47-4.27-2.58-5.27-1.54-.73-1.94.73-2.32,1.86"/>
  <path class="cls-1" d="M198.55,176.5c.53,3.08.18,3.59,2.76,5.43.88-.69,1.6-1.46,1.37-2.74-.31-1.69-.4-3.6-2.18-4.44-1.3-.62-1.63.62-1.95,1.57"/>
  <path class="cls-2" d="M220.09,185.72c3.05.68,6.09,1.37,9.17,1.92"/>
  <path class="cls-2" d="M304.3,208.74c-.11,5.27.83,10.51.38,15.77-.21,2.49.1,5-.38,7.47-.11.59.13,1.14.21,1.71"/>
  <path class="cls-2" d="M247.59,439.42c-2.84,1.38-5.75,2.55-8.95,2.77"/>
  <path class="cls-2" d="M261.02,189.98c-2.91.2-5.8.76-8.74.64"/>
  <path class="cls-2" d="M167.32,127.79c2.45,3.58,5.7,5.15,7.57,1.43"/>
  <path class="cls-2" d="M200.69,134.98c1.29-2.03,1.2-4.77-.21-6.4-1.16-1.33-2.78-1.03-3.41.64-.57,1.52.3,5.09,1.49,6.19.82.76,1.49.54,2.14-.22"/>
  <path class="cls-2" d="M172.55,128.19c1.29-2.03,1.2-4.77-.21-6.4-1.16-1.33-2.78-1.03-3.41.64-.57,1.52.3,5.09,1.49,6.19.82.76,1.49.54,2.14-.22"/>
  <path class="cls-2" d="M240.77,205.12v8.53"/>
  <path class="cls-2" d="M239.06,189.34c-.65-1.02-1.77-.46-2.57-.54-1.92-.2-3.8-.81-5.75-.74"/>
  <path class="cls-2" d="M226.91,283.36c-.46,1.98-.08,3.98-.22,5.97-.05.78,0,1.04,0,2.73"/>
  <path class="cls-2" d="M274.88,188.06c-4.39.71-8.75,1.61-13.22,1.71"/>
  <path class="cls-2" d="M230.75,127.3c-2.63.98-5.41,1.4-8.1,2.13"/>
  <path class="cls-2" d="M259.53,266.52c-3.63,1-7.05,2.55-10.65,3.66-4.13,1.27-8.22,1.39-12.38.39"/>
  <path class="cls-2" d="M174.25,175.48c3.15-2.12,3.03-7.11,1.01-10.84-.35-.65-.81-1.39-1.42-1.96-1.73-1.63-3.04-1.72-4.91-.19-.39.32-.67.8-1.28.63"/>
  <path class="cls-2" d="M250.79,276.75v7.89"/>
  <path class="cls-2" d="M145.04,239.87c-.46,2.62-.1,5.26-.21,7.89"/>
  <path class="cls-2" d="M248.44,189.77c-1.19-.98-2.56-.25-3.84-.4-1.19-.14-2.41-.03-3.62-.03"/>
  <path class="cls-2" d="M362.29,210.66c.74,1.18.62,2.56.82,3.84.19,1.22-.15,2.27-1.66,2.59-.62.13-1.51.4-1.18,1.46"/>
  <path class="cls-2" d="M151.86,252.66c-.44,1.62-.11,3.27-.21,4.9-.05.78.15,1.59-.21,2.35"/>
  <path class="cls-2" d="M219.88,177.59c.32.37.22,1.45.22,1.94-.04,3.7.08,7.4-.22,11.09"/>
  <path class="cls-2" d="M295.13,102.14c.61,2.25-.18,4.58.43,6.82"/>
  <path class="cls-2" d="M167.94,120.18c6.95-3.5,8.19,3.83,7.16,8.61"/>
  <path class="cls-2" d="M311.34,211.94c-1.96,1.37-4.12,2.29-6.4,2.98"/>
  <path class="cls-2" d="M359.31,252.66c-4.04.96-7.83,2.66-11.73,4.04-.19.07-.42,0-.64,0"/>
  <path class="cls-2" d="M346.94,384.63c2.18.66,4.06,1.99,6.18,2.77"/>
  <path class="cls-2" d="M207.3,109.39c-.37,1.83.58,3.76-.43,5.54"/>
  <path class="cls-2" d="M259.96,224.73c.12,1.77-.26,3.57.21,5.33"/>
  <path class="cls-2" d="M219.66,185.5c-1.84-.16-3.47-1.21-5.33-1.28"/>
  <path class="cls-2" d="M353.34,249.04c.54,1.67-.13,3.45.43,5.12"/>
  <path class="cls-2" d="M257.18,283.79c.59,1.6.28,3.26.28,4.98"/>
  <path class="cls-2" d="M248.03,342.85c-.06,1.35-.02,2.7-.02,4.05"/>
  <path class="cls-2" d="M289.16,188.28c.47,2.05.08,4.12.21,6.18.05.78-.15,1.59.21,2.35"/>
  <path class="cls-2" d="M283.83,273.77c.65,1.74.26,3.39.21,6.04"/>
  <path class="cls-2" d="M269.98,189.13v3.2"/>
  <path class="cls-2" d="M351.84,238.16c-.5-.92-1.29-1.55-2.13-2.13"/>
  <path class="cls-2" d="M230.89,262.76c2.26-.39,6.32.64,5.98,1.91-.59,2.26-3.6,5.63-6.82,4.66-2.64-.8-3-5.45.72-6.66"/>
  <path class="cls-2" d="M247.09,216.93c2.26-.39,6.32.64,5.98,1.91-.59,2.26-3.6,5.63-6.82,4.66-2.64-.8-3-5.45.72-6.66"/>
  <path class="cls-2" d="M297.83,200.72c2.26-.39,6.32.64,5.98,1.91-.59,2.26-3.6,5.63-6.82,4.66-2.64-.8-3-5.45.72-6.66"/>
  <path class="cls-2" d="M201.42,200.34c2.26-.39,6.32.64,5.98,1.91-.59,2.26-3.6,5.63-6.82,4.66-2.64-.8-3-5.45.72-6.66"/>
  <path class="cls-2" d="M331.73,234.03c2.26-.39,6.32.64,5.98,1.91-.59,2.26-3.6,5.63-6.82,4.66-2.64-.8-3-5.45.72-6.66"/>
</svg>