<svg width="500" height="500" viewBox="0 0 500 500" fill="none" xmlns="http://www.w3.org/2000/svg">
<path d="M326.67 344.24C324.59 345.24 322.31 344.84 320.13 345.08C312.96 345.87 305.76 346.4 298.57 346.97C293.65 347.36 288.71 347.74 283.77 347.97C277.95 348.25 272.13 348.72 266.35 349.47C264.54 349.71 262.73 349.05 260.89 349.63C260.06 349.89 259.6 350.06 259.59 350.99C259.55 356.07 259.65 361.15 259.57 366.23C259.57 366.86 260.06 367.3 260.24 367.27C262.63 366.86 263.7 368.95 265.21 370C267.92 371.88 270.64 373.8 273.09 376.03" fill="#FFDA00" fill-opacity="0.7"/>
<path d="M326.67 344.24C324.59 345.24 322.31 344.84 320.13 345.08C312.96 345.87 305.76 346.4 298.57 346.97C293.65 347.36 288.71 347.74 283.77 347.97C277.95 348.25 272.13 348.72 266.35 349.47C264.54 349.71 262.73 349.05 260.89 349.63C260.06 349.89 259.6 350.06 259.59 350.99C259.55 356.07 259.65 361.15 259.57 366.23C259.57 366.86 260.06 367.3 260.24 367.27C262.63 366.86 263.7 368.95 265.21 370C267.92 371.88 270.64 373.8 273.09 376.03" stroke="#2071B5" stroke-width="4.21" stroke-linecap="round" stroke-linejoin="round"/>
<path d="M273.75 106.66C270.41 107.17 267.07 106.7 263.73 106.69C261.26 106.68 258.8 106.49 256.32 106.86C252.64 107.4 250.6 109.16 250.03 112.77C249.75 114.56 249.54 116.37 249.55 118.21C249.6 134.76 249.48 151.31 249.62 167.86C249.67 174.25 249.75 180.64 249.8 187.02C249.81 188.7 249.67 190.37 249.51 192.02C249.28 194.41 248.22 196.5 246.11 197.93C245.65 198.24 244.88 198.47 245 199.32" stroke="#2071B5" stroke-width="4.21" stroke-linecap="round" stroke-linejoin="round"/>
<path d="M314.04 106.66C317.16 106.8 320.29 106.4 323.4 106.87C326.51 107.34 328.37 108.93 328.81 111.89C329.07 113.61 329.3 115.35 329.3 117.11C329.27 129.23 329.17 141.36 329.32 153.48C329.44 163.28 329.33 173.08 329.59 182.88C329.68 186.35 329.22 189.89 330.14 193.34C330.83 195.91 332.38 197.94 334.57 199.12C336.24 200.02 338.4 199.93 340.4 199.89C342.3 199.85 342.82 200.76 342.17 202.5C341.85 203.35 341.32 203.44 340.62 203.36C336.42 202.85 332.2 203.29 327.99 203.14C326.23 203.07 325.74 203.88 325.78 205.55C325.87 209.69 325.81 213.82 325.81 217.96" stroke="#2071B5" stroke-width="4.21" stroke-linecap="round" stroke-linejoin="round"/>
<path d="M304.89 107.32C304.89 109.06 304.8 110.81 304.92 112.54C305.02 114.08 304.47 114.55 302.93 114.53C296.98 114.45 291.03 114.5 285.07 114.5C279.11 114.5 272.58 114.45 266.34 114.53C264.65 114.55 264.01 114.01 264.14 112.32C264.27 110.59 264.15 108.84 264.16 107.1" stroke="#2071B5" stroke-width="4.21" stroke-linecap="round" stroke-linejoin="round"/>
<path d="M184.25 427.86C184.63 427.17 185.19 426.62 185.78 426.13C189.22 423.3 190.64 419.52 190.76 415.23C191.23 398.03 190.93 380.82 190.99 363.62C191.04 348.01 191.05 332.41 190.96 316.8C190.94 313.02 190.89 309.2 189.92 305.47C188.65 300.59 186.19 296.55 181.62 294.18C179.35 293 176.73 292.86 174.23 292.41C170.17 291.67 166.09 290.95 162.02 290.33C158.17 289.74 154.36 288.97 150.5 288.48C146.71 288 142.96 287.24 139.19 286.65C134.46 285.91 129.74 285 125.03 284.08C123.05 283.69 121.05 283.33 119.08 282.68C117.03 282.01 114.49 282.62 112.17 282.6C110.41 282.58 108.71 283 107.18 283.73C103.14 285.65 100.91 289.09 99.7799 293.28C99.3099 295.05 98.8799 296.85 98.8799 298.72C98.8799 332.47 98.8299 366.23 98.9299 399.98C98.9499 406.94 101.77 412.71 108.04 416.28C110.63 417.76 113.62 418.18 116.52 418.69C122.91 419.82 129.29 421.06 135.69 422.11C142 423.14 148.3 424.25 154.61 425.29C161.8 426.48 168.95 427.94 176.17 428.97C178.48 429.3 180.7 429.1 182.93 428.52C185 427.99 187.15 428.37 189.25 427.91C191.57 427.4 193.92 427.1 196.23 426.41C198.59 425.7 201.15 426.09 203.62 425.75C205.78 425.45 208 425.39 210.13 424.98C211.97 424.63 213.79 425.45 215.58 424.81" fill="#FFDA00" fill-opacity="0.7"/>
<path d="M184.25 427.86C184.63 427.17 185.19 426.62 185.78 426.13C189.22 423.3 190.64 419.52 190.76 415.23C191.23 398.03 190.93 380.82 190.99 363.62C191.04 348.01 191.05 332.41 190.96 316.8C190.94 313.02 190.89 309.2 189.92 305.47C188.65 300.59 186.19 296.55 181.62 294.18C179.35 293 176.73 292.86 174.23 292.41C170.17 291.67 166.09 290.95 162.02 290.33C158.17 289.74 154.36 288.97 150.5 288.48C146.71 288 142.96 287.24 139.19 286.65C134.46 285.91 129.74 285 125.03 284.08C123.05 283.69 121.05 283.33 119.08 282.68C117.03 282.01 114.49 282.62 112.17 282.6C110.41 282.58 108.71 283 107.18 283.73C103.14 285.65 100.91 289.09 99.7799 293.28C99.3099 295.05 98.8799 296.85 98.8799 298.72C98.8799 332.47 98.8299 366.23 98.9299 399.98C98.9499 406.94 101.77 412.71 108.04 416.28C110.63 417.76 113.62 418.18 116.52 418.69C122.91 419.82 129.29 421.06 135.69 422.11C142 423.14 148.3 424.25 154.61 425.29C161.8 426.48 168.95 427.94 176.17 428.97C178.48 429.3 180.7 429.1 182.93 428.52C185 427.99 187.15 428.37 189.25 427.91C191.57 427.4 193.92 427.1 196.23 426.41C198.59 425.7 201.15 426.09 203.62 425.75C205.78 425.45 208 425.39 210.13 424.98C211.97 424.63 213.79 425.45 215.58 424.81" stroke="#2071B5" stroke-width="4.21" stroke-linecap="round" stroke-linejoin="round"/>
<path d="M118.05 391.93C119 392.02 119.34 392.85 119.77 393.47C123.07 398.22 127.43 401.84 132.45 404.5C137.63 407.25 143.16 408.39 149.2 407.48C158.61 406.06 165.05 400.42 170.24 393.19C175.04 386.49 177.67 378.7 178.96 370.59C179.83 365.07 180.01 359.49 179.57 353.82C178.9 345.14 177.14 336.78 173.29 329.04C167.94 318.26 160.64 309.23 148.97 304.6C138.95 300.62 129.57 301.69 121.15 308.39C117.69 311.14 115.38 315.07 113.25 318.98C109.93 325.06 107.67 331.54 106.79 338.37C105.91 345.22 105.31 352.13 106.3 359.05C107.63 368.38 109.97 377.4 114.78 385.62C115.21 386.35 115.64 387.1 115.44 388.01" stroke="#2071B5" stroke-width="4.21" stroke-linecap="round" stroke-linejoin="round"/>
<path d="M354.32 303.95C360.12 303.44 365.9 302.51 371.74 302.89C377.74 303.28 383.17 305.25 387.87 309.16C395.51 315.54 398.75 324.07 400.31 333.56C400.97 337.55 401.36 341.54 401.11 345.54C400.47 355.53 397.92 364.95 391.29 372.72C386.87 377.91 380.93 380.49 374.14 381.28C366.02 382.22 357.82 382.41 349.75 383.86C345.87 384.55 343.2 386.87 341.04 389.97C338.39 393.77 337.54 398.05 337.55 402.6C337.58 413.49 337.55 424.38 337.55 435.26C337.55 440.22 335.08 442.89 330.15 443.55C319.65 444.94 309.1 445.74 298.57 446.79C285.86 448.05 273.15 449.26 260.46 450.71C254.96 451.34 249.55 450.87 244.11 449.7C238.15 448.41 232.09 447.48 226.05 446.6C224.83 446.42 224.25 445.95 224.29 444.62C224.37 442.01 224.38 439.39 224.29 436.78C224.13 431.84 222.37 427.79 217.53 425.72C217.02 425.5 216.41 425.52 216.03 425.02" stroke="#2071B5" stroke-width="4.21" stroke-linecap="round" stroke-linejoin="round"/>
<path d="M141.14 281.31C142.34 282.7 144.12 282.11 145.51 282.27C152.23 283.08 158.83 284.57 165.52 285.51C171.78 286.39 177.99 287.62 184.25 288.52C190.31 289.39 195.89 291.26 199.73 296.54C202.26 300.02 204.01 303.81 204.25 308.1C205.3 326.6 204.35 345.12 204.75 363.63C205.02 376.19 204.87 388.75 204.91 401.3C204.92 405.82 204.84 410.38 203.79 414.79C203.04 417.95 201.52 420.85 199.28 423.31C198.55 424.11 197.42 424.64 197.31 425.91" stroke="#2071B5" stroke-width="4.21" stroke-linecap="round" stroke-linejoin="round"/>
<path d="M151.59 379.08C156.09 376.17 157.73 371.65 158.57 366.67C159.28 362.47 159.29 358.21 158.91 354.05C158.22 346.46 156.05 339.25 150.02 334.07C146.12 330.72 141.56 328.44 136.14 330.33C131.72 331.87 128.85 335.2 126.78 339.24C124.72 343.26 123.84 347.56 123.69 352.08C123.47 358.6 124.61 364.81 127.66 370.58C130.47 375.9 134.35 380.33 140.29 382.05C144.35 383.22 148.4 382.58 151.59 379.31" stroke="#2071B5" stroke-width="4.21" stroke-linecap="round" stroke-linejoin="round"/>
<path d="M226.28 272.38C223.1 272.91 219.89 273.34 216.69 273.61C212.92 273.92 209.15 274.28 205.37 274.57C199.41 275.02 193.47 275.59 187.51 276.1C183.37 276.45 179.24 276.83 175.1 277.19C170.67 277.58 166.25 277.98 161.82 278.28C157.61 278.57 153.39 278.9 149.2 279.4C146.36 279.74 143.36 279.33 140.68 280.83C140.07 281.17 139.25 280.68 138.52 280.66C132.68 280.43 126.92 281.53 121.1 281.73C120.6 281.75 120.17 281.85 119.79 282.18" stroke="#2071B5" stroke-width="4.21" stroke-linecap="round" stroke-linejoin="round"/>
<path d="M330.15 242.55C330.15 275.72 330.15 308.89 330.14 342.07C330.14 342.79 330.4 343.56 329.94 344.25" stroke="#2071B5" stroke-width="4.21" stroke-linecap="round" stroke-linejoin="round"/>
<path d="M263.08 367.54C263.42 367.29 263.59 366.84 264.17 366.87C268.04 367.08 271.84 366.11 276.15 366.25V418.21C284.8 417.61 293.24 417.15 301.85 416.19C301.85 411.67 301.92 407.24 301.83 402.81C301.73 397.73 302.16 392.64 301.62 387.57C301.56 386.98 302.01 386.81 302.29 386.48C309.36 378.07 315.67 369.08 322.25 360.29C323.03 359.24 323.69 359.1 324.72 359.03C332.87 358.51 340.99 357.69 349.11 356.89C350.22 356.78 350.43 356.29 350.42 355.34C350.39 351.64 350.39 347.94 350.42 344.23C350.43 342.72 349.78 342.78 348.45 342.85C342.34 343.2 336.27 343.98 330.16 344.23" fill="#FFDA00" fill-opacity="0.7"/>
<path d="M263.08 367.54C263.42 367.29 263.59 366.84 264.17 366.87C268.04 367.08 271.84 366.11 276.15 366.25V418.21C284.8 417.61 293.24 417.15 301.85 416.19C301.85 411.67 301.92 407.24 301.83 402.81C301.73 397.73 302.16 392.64 301.62 387.57C301.56 386.98 302.01 386.81 302.29 386.48C309.36 378.07 315.67 369.08 322.25 360.29C323.03 359.24 323.69 359.1 324.72 359.03C332.87 358.51 340.99 357.69 349.11 356.89C350.22 356.78 350.43 356.29 350.42 355.34C350.39 351.64 350.39 347.94 350.42 344.23C350.43 342.72 349.78 342.78 348.45 342.85C342.34 343.2 336.27 343.98 330.16 344.23" stroke="#2071B5" stroke-width="4.21" stroke-linecap="round" stroke-linejoin="round"/>
<path d="M216.05 322.46V423.07" stroke="#2071B5" stroke-width="4.21" stroke-linecap="round" stroke-linejoin="round"/>
<path d="M321.44 121.25C321.46 147.53 321.26 173.81 321.88 200.08" stroke="#2071B5" stroke-width="4.21" stroke-linecap="round" stroke-linejoin="round"/>
<path d="M213.43 283.27C219.9 283.27 225 278.71 226.61 272.41C227.5 268.94 227.27 265.56 227.34 262.15C227.45 256.35 227.37 250.54 227.37 244.73V222.08C227.37 219.32 228.73 217.97 231.51 218.17C236.23 218.51 240.95 218.3 245.67 218.18C250.17 218.07 254.72 217.97 259.16 218.66C263.39 219.32 267.62 219.13 271.79 218.89C274.38 218.74 276.98 218.11 279.64 218.14C285.81 218.2 291.99 217.94 298.15 218.22C304.39 218.51 310.65 219.67 316.87 218.94C324.21 218.09 331.54 218.2 338.87 218.18C342.5 218.18 346.12 218.58 349.76 218.19C350.85 218.07 351.95 218.68 353.02 219.01C353.86 219.27 353.68 219.95 353.67 220.54C353.54 227.65 353.91 234.77 353.5 241.88C353.45 242.79 353.67 243.76 353.67 244.71C353.67 263.51 353.67 282.31 353.67 301.11V311.21C357.11 311.6 360.49 310.98 363.91 310.74C368.04 310.45 372.23 309.48 376.32 311.12" stroke="#2071B5" stroke-width="4.21" stroke-linecap="round" stroke-linejoin="round"/>
<path d="M145.49 331.83C144.78 332.6 143.72 332.3 142.87 332.69C138.2 334.84 135.52 338.71 133.98 343.38C132.28 348.56 132.3 353.88 133.03 359.27C133.78 364.83 135.74 369.77 139.62 373.84C142.79 377.16 146.53 379.39 151.36 379.08" stroke="#2071B5" stroke-width="4.21" stroke-linecap="round" stroke-linejoin="round"/>
<path d="M256.11 107.1C255.95 115.3 256.22 123.51 256.39 131.71C256.49 136.57 256.29 141.45 256.58 146.3C257.49 161.9 256.72 177.52 256.99 193.12" stroke="#2071B5" stroke-width="4.21" stroke-linecap="round" stroke-linejoin="round"/>
<path d="M245.23 357.31V303.01C244.54 302.7 243.78 302.95 243.05 302.87" stroke="#2071B5" stroke-width="4.21" stroke-linecap="round" stroke-linejoin="round"/>
<path d="M289.65 287.62V347.29" stroke="#2071B5" stroke-width="4.21" stroke-linecap="round" stroke-linejoin="round"/>
<path d="M258.29 301.56C257.37 302.04 257.88 302.88 257.88 303.52C257.85 318.69 257.86 333.86 257.86 349.03" stroke="#2071B5" stroke-width="4.21" stroke-linecap="round" stroke-linejoin="round"/>
<path d="M320.14 288.06V333.79" stroke="#2071B5" stroke-width="4.21" stroke-linecap="round" stroke-linejoin="round"/>
<path d="M289.43 194.42C281.65 195.97 273.87 197.49 266.12 199.16C264.78 199.45 264.4 200.02 264.39 201.17C264.39 202.69 264.35 204.22 264.39 205.74C264.45 207.58 264.77 207.62 266.57 206.86C268.77 205.94 271.2 205.81 273.53 205.33C279.78 204.05 286.03 202.76 292.27 201.47C298.9 200.1 305.42 198.27 312.08 197.08C313.38 196.85 313.64 196.4 313.61 195.28C313.56 193.39 313.61 191.5 313.59 189.71C308.37 187.78 303.12 188.05 297.92 187.88" stroke="#2071B5" stroke-width="4.21" stroke-linecap="round" stroke-linejoin="round"/>
<path d="M281.59 175.04C276.29 176.11 270.96 177.04 265.68 178.26C264.75 178.47 264.43 178.9 264.41 179.62C264.35 181.8 264.39 183.98 264.39 186.14C266.47 186.95 267.95 185.48 269.59 185.14C275.84 183.87 282.13 182.77 288.34 181.34C295.02 179.81 301.73 178.44 308.38 176.78C308.47 176.76 308.52 176.58 308.6 176.58C310.41 176.52 312.82 176.41 313.43 174.97C314.18 173.18 313.61 170.83 313.61 168.42C311.46 168.83 309.65 169.57 307.73 169.83C302.01 170.61 296.48 172.36 290.75 173.15C287.83 173.55 284.97 174.41 282.03 174.83" stroke="#2071B5" stroke-width="4.21" stroke-linecap="round" stroke-linejoin="round"/>
<path d="M316.22 399.12V442.67" stroke="#2071B5" stroke-width="4.21" stroke-linecap="round" stroke-linejoin="round"/>
<path d="M366.3 322.03V359.92" stroke="#2071B5" stroke-width="4.21" stroke-linecap="round" stroke-linejoin="round"/>
<path d="M275.49 285.88C275.33 284.03 274 282.71 273.28 281.1C271.95 278.11 270.44 275.21 269.8 271.94C269.38 269.79 270.24 268.3 272.44 268.05C273.8 267.89 275.2 268.04 276.57 268.02C286.15 267.9 295.73 268.26 305.32 267.83C308.26 267.7 309.85 270.13 308.75 273.45C307.32 277.78 305.37 281.91 302.71 285.66C302.26 286.29 301.63 286.32 300.96 286.31C292.61 286.17 284.27 286.47 275.91 286.17C273.48 286.08 270.96 286.13 268.14 286.43C270.67 296.88 273.63 307.04 276.49 317.19C279.34 327.31 282.24 337.43 285.27 347.5" stroke="#2071B5" stroke-width="4.21" stroke-linecap="round" stroke-linejoin="round"/>
<path d="M289.65 349.03V386.49" stroke="#2071B5" stroke-width="4.21" stroke-linecap="round" stroke-linejoin="round"/>
<path d="M114.57 311.14C117.11 311.06 117.54 308.96 118.26 307.21C119.97 303.05 118.78 299.16 117.23 295.22C115.97 292.03 112.16 290.77 109.56 291.96C108.18 292.59 107 293.5 106.32 294.81C103.63 300.04 103.34 305.33 106.53 310.46C108.43 313.53 111.02 314.48 114.57 313.74C115.03 313.64 115.46 313.79 115.88 313.96" stroke="#2071B5" stroke-width="4.21" stroke-linecap="round" stroke-linejoin="round"/>
<path d="M107.38 303.08C108.04 305.61 108.41 308.28 110.65 310.04C111.7 310.87 112.8 311.21 113.91 310.05C117.01 306.83 117.36 298.92 113.47 295.68C111.97 294.43 110.34 294.5 109.38 296.14C108.19 298.18 107.23 300.37 107.6 302.87" stroke="#2071B5" stroke-width="4.21" stroke-linecap="round" stroke-linejoin="round"/>
<path d="M298.14 347.51C297.73 349.54 297.99 351.57 298.1 353.61C298.25 356.36 298.17 359.13 298.13 361.88C298 369.87 298.5 377.85 298.36 385.83C298.36 386.34 298.26 386.88 298.57 387.35" stroke="#2071B5" stroke-width="4.21" stroke-linecap="round" stroke-linejoin="round"/>
<path d="M178.37 401.08C178.77 400.94 179.22 401.19 179.43 401.33C183.26 403.98 184.67 412.91 180.79 416.56C179.83 417.46 179.06 417.72 177.93 416.98C173.3 413.91 173.29 404.34 177.93 401.08" stroke="#2071B5" stroke-width="4.21" stroke-linecap="round" stroke-linejoin="round"/>
<path d="M302.93 285.88C304.68 286.78 306.56 286.15 308.38 286.3C309.47 286.39 310.57 286.31 311.86 286.32C311.86 287.17 312.04 287.9 311.83 288.49C308.39 298.15 306.09 308.15 302.95 317.9C300.17 326.54 297.78 335.3 295.35 344.04C295.09 344.96 293.95 345.7 294.65 346.86" stroke="#2071B5" stroke-width="4.21" stroke-linecap="round" stroke-linejoin="round"/>
<path d="M272.88 222.95C273.65 223.32 274.47 223.16 275.28 223.16C285.08 223.16 294.88 223.16 304.68 223.16" stroke="#2071B5" stroke-width="4.21" stroke-linecap="round" stroke-linejoin="round"/>
<path d="M115.22 388.01C114.1 387.94 113.28 387.07 112.17 386.91C109.95 386.59 107.13 388 105.88 390.42C103.21 395.57 103.84 404.35 108.21 408.31C111.91 411.67 116.09 409.87 117.68 406.55C119.55 402.64 119.45 398.77 118.49 394.76C117.92 392.37 117.58 389.88 115.44 388.23" stroke="#2071B5" stroke-width="4.21" stroke-linecap="round" stroke-linejoin="round"/>
<path d="M260.25 219.46C259.78 219.77 259.24 219.67 258.73 219.67C249.15 219.67 239.57 219.67 229.99 219.67C229.69 219.67 229.34 219.82 229.12 219.46" stroke="#2071B5" stroke-width="4.21" stroke-linecap="round" stroke-linejoin="round"/>
<path d="M275.93 318.11C273.82 321.11 272.88 324.65 271.39 327.93C268.5 334.29 265.61 340.65 262.84 347.07C262.56 347.72 262.49 348.41 262.21 349.04" stroke="#2071B5" stroke-width="4.21" stroke-linecap="round" stroke-linejoin="round"/>
<path d="M305.11 254.52H260.9V243.2" stroke="#2071B5" stroke-width="4.21" stroke-linecap="round" stroke-linejoin="round"/>
<path d="M304.89 242.98C290.16 242.85 275.42 243.24 260.68 242.75C260.46 242.75 260.39 242.48 260.46 242.33C260.72 242.2 260.3 242.35 260.46 242.11C260.55 241.98 260.63 241.92 260.68 241.89C261.08 241.59 261.54 241.68 261.99 241.68C280.14 241.68 298.28 241.68 316.43 241.67C316.89 241.67 317.25 242.05 317.74 241.92C317.84 241.89 318.02 242.19 318.5 242.67C313.9 243.16 309.62 243.11 305.32 242.77" stroke="#2071B5" stroke-width="4.21" stroke-linecap="round" stroke-linejoin="round"/>
<path d="M317.52 235.8H261.34" stroke="#2071B5" stroke-width="4.21" stroke-linecap="round" stroke-linejoin="round"/>
<path d="M304.67 112.11H274.62" stroke="#2071B5" stroke-width="4.21" stroke-linecap="round" stroke-linejoin="round"/>
<path d="M272.45 219.25C273.07 220.34 272.41 221.43 272.39 222.52C272.35 224.95 272.41 225.13 274.84 225.13C284.64 225.13 294.44 225.13 304.24 225.13" stroke="#2071B5" stroke-width="4.21" stroke-linecap="round" stroke-linejoin="round"/>
<path d="M300.32 64.6301C300.23 59.3901 300.61 54.1301 299.8 49.0001C294.3 49.3401 289.15 49.0901 283.99 49.1701C283.63 49.1701 283.26 49.1701 282.9 49.1701C281.45 49.1701 279.77 48.7101 278.6 49.2901C277.2 49.9901 278.24 51.9901 277.67 53.3101" stroke="#2071B5" stroke-width="4.21" stroke-linecap="round" stroke-linejoin="round"/>
<path d="M327.54 396.5V443.75" stroke="#2071B5" stroke-width="4.21" stroke-linecap="round" stroke-linejoin="round"/>
<path d="M312.95 107.1C311.77 106.09 310.47 106.93 309.25 106.92C297.56 106.85 285.88 106.88 274.19 106.88" stroke="#2071B5" stroke-width="4.21" stroke-linecap="round" stroke-linejoin="round"/>
<path d="M302.93 82.2699C294.44 82.3999 285.94 82.2699 277.45 82.3799C272.75 82.4399 268.01 82.4599 263.3 82.2999C261.87 82.2499 261.31 82.1299 261.47 80.3099C261.8 76.4899 261.27 72.6299 261.34 68.7799C261.35 68.0499 261.34 67.3099 261.34 66.3799H317.3C317.3 70.6599 317.38 74.7299 317.24 78.7899C317.2 79.8699 318.23 81.1599 317.05 82.0199C316.14 82.6799 314.9 82.2799 313.81 82.2599C310.33 82.1799 306.83 82.5599 303.36 82.0599" fill="#FFDA00" fill-opacity="0.7"/>
<path d="M302.93 82.2699C294.44 82.3999 285.94 82.2699 277.45 82.3799C272.75 82.4399 268.01 82.4599 263.3 82.2999C261.87 82.2499 261.31 82.1299 261.47 80.3099C261.8 76.4899 261.27 72.6299 261.34 68.7799C261.35 68.0499 261.34 67.3099 261.34 66.3799H317.3C317.3 70.6599 317.38 74.7299 317.24 78.7899C317.2 79.8699 318.23 81.1599 317.05 82.0199C316.14 82.6799 314.9 82.2799 313.81 82.2599C310.33 82.1799 306.83 82.5599 303.36 82.0599" stroke="#2071B5" stroke-width="4.21" stroke-linecap="round" stroke-linejoin="round"/>
<path d="M289.65 417.63V445.72" stroke="#2071B5" stroke-width="4.21" stroke-linecap="round" stroke-linejoin="round"/>
<path d="M325.36 208.79H297.92" stroke="#2071B5" stroke-width="4.21" stroke-linecap="round" stroke-linejoin="round"/>
<path d="M135.91 354.69C135.67 362.12 138.11 368.53 143.32 373.85C145.46 376.03 148.14 377.33 150.94 378.43" stroke="#2071B5" stroke-width="4.21" stroke-linecap="round" stroke-linejoin="round"/>
<path d="M324.49 204H299.23" stroke="#2071B5" stroke-width="4.21" stroke-linecap="round" stroke-linejoin="round"/>
<path d="M265.48 106.44C265.67 105.63 266.24 104.91 266.12 104.05C265.85 102.14 267.35 101.72 268.53 101.71C278.4 101.61 288.27 101.65 298.15 101.66C299.9 101.66 301.67 101.47 303.42 102.11C303.8 103.53 303.51 105 303.6 106.45" stroke="#2071B5" stroke-width="4.21" stroke-linecap="round" stroke-linejoin="round"/>
<path d="M313.39 82.71C313.87 88.73 313.33 94.77 313.66 100.78C313.88 104.61 312.8 108.3 312.9 112.11C312.99 115.8 313 119.51 312.86 123.22C312.81 124.63 312.33 124.77 311.43 124.95C308.53 125.5 305.65 126.12 302.72 126.48C298.49 126.99 294.31 127.85 290.09 128.45C285.87 129.05 281.68 129.81 277.46 130.43C274.48 130.86 271.52 131.39 268.53 131.73C267.59 131.84 267.12 132.41 266.97 133.45C266.7 135.26 266.88 137.09 266.61 138.9C266.37 140.52 267.38 141.63 269.41 141.92C273.31 142.46 277.23 142.71 281.17 142.82" stroke="#2071B5" stroke-width="4.21" stroke-linecap="round" stroke-linejoin="round"/>
<path d="M302.93 320.29C306.11 322.98 308.91 326.07 311.84 329.01C316.72 333.93 321.82 338.64 326.42 343.82C327.56 345.1 328.77 344.03 329.92 344.24" stroke="#2071B5" stroke-width="4.21" stroke-linecap="round" stroke-linejoin="round"/>
<path d="M301.41 87.7197H277.67" stroke="#2071B5" stroke-width="4.21" stroke-linecap="round" stroke-linejoin="round"/>
<path d="M317.96 242.98C317.96 246.83 317.96 250.68 317.96 254.78C313.68 254.63 309.61 254.96 305.55 254.52" stroke="#2071B5" stroke-width="4.21" stroke-linecap="round" stroke-linejoin="round"/>
<path d="M300.32 98.6104H277.02" stroke="#2071B5" stroke-width="4.21" stroke-linecap="round" stroke-linejoin="round"/>
<path d="M297.92 157.62C302.31 157.26 306.49 155.9 310.76 154.96C311.21 154.86 311.65 154.81 312.08 154.81C313.31 154.81 313.67 154.19 313.62 153.05C313.56 151.75 313.6 150.44 313.61 149.13C313.61 148.22 313.58 147.33 312.3 147.39" stroke="#2071B5" stroke-width="4.21" stroke-linecap="round" stroke-linejoin="round"/>
<path d="M303.15 66.8096C303.15 74.5796 303.15 82.3496 303.15 90.3296H277.89" stroke="#2071B5" stroke-width="4.21" stroke-linecap="round" stroke-linejoin="round"/>
<path d="M289.43 152.17C283.45 153.19 277.55 154.62 271.6 155.77C270.81 155.92 269.6 156.35 268.96 156.36C266.92 156.38 266.96 157.65 266.8 158.92C266.63 160.29 266.91 161.67 266.61 163.06C266.42 163.97 268.04 165.23 268.73 164.77C271.58 162.85 274.96 162.95 278.11 162.17C281.87 161.24 285.67 160.48 289.44 159.57" stroke="#2071B5" stroke-width="4.21" stroke-linecap="round" stroke-linejoin="round"/>
<path d="M237.82 425.25C233.73 422.85 229.4 422.42 224.74 423.19C222.85 423.5 220.85 423.84 218.88 423.7C217.77 423.62 216.95 424.19 216.05 424.6" stroke="#2071B5" stroke-width="4.21" stroke-linecap="round" stroke-linejoin="round"/>
<path d="M353.02 242.11C350.04 242.01 347.05 242.09 344.1 242.2C340.1 242.35 336.12 241.98 332.11 242.25C327.56 242.56 322.97 242.32 318.4 242.32" stroke="#2071B5" stroke-width="4.21" stroke-linecap="round" stroke-linejoin="round"/>
<path d="M342.13 203.13C343.66 204.04 345.33 203.37 346.92 203.56C347.79 203.66 348.68 203.45 349.75 203.73V217.94" stroke="#2071B5" stroke-width="4.21" stroke-linecap="round" stroke-linejoin="round"/>
<path d="M300.32 100.35H278.76" stroke="#2071B5" stroke-width="4.21" stroke-linecap="round" stroke-linejoin="round"/>
<path d="M312.51 124.95C313.67 127.11 313 129.45 313.15 131.7C313.21 132.55 312.2 132.9 311.85 132.94C307.05 133.41 302.55 135.47 297.7 135.62" stroke="#2071B5" stroke-width="4.21" stroke-linecap="round" stroke-linejoin="round"/>
<path d="M264.39 399.55V448.76" stroke="#2071B5" stroke-width="4.21" stroke-linecap="round" stroke-linejoin="round"/>
<path d="M331.02 219.68C330.64 219.65 330.26 219.64 330.15 219.78V240.59" stroke="#2071B5" stroke-width="4.21" stroke-linecap="round" stroke-linejoin="round"/>
<path d="M255.68 203.35C254.98 203.7 254.23 203.56 253.5 203.56C246.89 203.56 240.29 203.56 233.68 203.58C232.95 203.58 232.2 203.4 231.28 203.81V217.94" stroke="#2071B5" stroke-width="4.21" stroke-linecap="round" stroke-linejoin="round"/>
<path d="M299.88 53.3096C293.79 53.8196 287.68 53.4096 281.59 53.5196C278.32 53.5796 275.06 53.5296 271.6 53.5296C271.21 57.7196 272.14 61.9896 271.14 66.1596" stroke="#2071B5" stroke-width="4.21" stroke-linecap="round" stroke-linejoin="round"/>
<path d="M299.23 85.0996H279.2" stroke="#2071B5" stroke-width="4.21" stroke-linecap="round" stroke-linejoin="round"/>
<path d="M238.69 220.55V240.58" stroke="#2071B5" stroke-width="4.21" stroke-linecap="round" stroke-linejoin="round"/>
<path d="M113.7 406.52C116.02 405.65 116.68 403.57 116.91 401.51C117.3 398.06 116.85 394.69 114.79 391.71C112.92 389.01 109.91 388.97 108.26 391.72C105.38 396.55 106.9 403.74 110.43 406.09C111.29 406.66 112.12 407.36 113.26 406.74" stroke="#2071B5" stroke-width="4.21" stroke-linecap="round" stroke-linejoin="round"/>
<path d="M308.38 271.94C296.4 271.94 284.43 271.94 272.45 271.96C271.73 271.96 270.96 271.7 270.27 272.16" stroke="#2071B5" stroke-width="4.21" stroke-linecap="round" stroke-linejoin="round"/>
<path d="M305.33 65.0696C297.64 65.0696 289.94 65.0696 282.25 65.0496C281.53 65.0496 280.76 65.3096 280.07 64.8496" fill="#FFDA00" fill-opacity="0.7"/>
<path d="M305.33 65.0696C297.64 65.0696 289.94 65.0696 282.25 65.0496C281.53 65.0496 280.76 65.3096 280.07 64.8496" stroke="#2071B5" stroke-width="4.21" stroke-linecap="round" stroke-linejoin="round"/>
<path d="M228.02 242.11C232.45 242.11 236.88 242.14 241.3 242.11C247.62 242.05 253.93 242.45 260.25 242.34" fill="#D9D9D9"/>
<path d="M228.02 242.11C232.45 242.11 236.88 242.14 241.3 242.11C247.62 242.05 253.93 242.45 260.25 242.34" stroke="#2071B5" stroke-width="4.21" stroke-linecap="round" stroke-linejoin="round"/>
<path d="M268.31 82.71V101.44" stroke="#2071B5" stroke-width="4.21" stroke-linecap="round" stroke-linejoin="round"/>
<path d="M306.85 65.9397C306.85 62.4597 306.78 58.9697 306.88 55.4897C306.92 53.9497 306.43 53.3897 304.89 53.4997C303.37 53.6097 301.84 53.5197 300.32 53.5197" stroke="#2071B5" stroke-width="4.21" stroke-linecap="round" stroke-linejoin="round"/>
<path d="M329.06 136.06H303.15" stroke="#2071B5" stroke-width="4.21" stroke-linecap="round" stroke-linejoin="round"/>
<path d="M350.19 359.05V376.47" stroke="#2071B5" stroke-width="4.21" stroke-linecap="round" stroke-linejoin="round"/>
<path d="M351.49 219.46C346.63 219.96 341.76 219.54 336.9 219.67C336.1 219.69 335.3 219.67 334.5 219.67" stroke="#2071B5" stroke-width="4.21" stroke-linecap="round" stroke-linejoin="round"/>
<path d="M317.74 219.25C318.09 219.95 317.95 220.7 317.95 221.43C317.95 228.25 317.95 235.08 317.95 241.9" stroke="#2071B5" stroke-width="4.21" stroke-linecap="round" stroke-linejoin="round"/>
<path d="M249.15 263.23V279.34" stroke="#2071B5" stroke-width="4.21" stroke-linecap="round" stroke-linejoin="round"/>
<path d="M110.21 390.62C109.96 392.34 108.96 393.82 108.86 395.63C108.68 398.88 109.31 401.84 111.08 404.56C111.62 405.38 112.64 405.59 113.26 406.3" stroke="#2071B5" stroke-width="4.21" stroke-linecap="round" stroke-linejoin="round"/>
<path d="M350.19 319.85V341.19" stroke="#2071B5" stroke-width="4.21" stroke-linecap="round" stroke-linejoin="round"/>
<path d="M303.15 108.84C296.91 108.86 290.66 108.39 284.43 108.71C281.15 108.88 277.88 108.19 274.63 108.84" stroke="#2071B5" stroke-width="4.21" stroke-linecap="round" stroke-linejoin="round"/>
<path d="M294 240.59H278.76" stroke="#2071B5" stroke-width="4.21" stroke-linecap="round" stroke-linejoin="round"/>
<path d="M275.28 66.8096V81.8396" stroke="#2071B5" stroke-width="4.21" stroke-linecap="round" stroke-linejoin="round"/>
<path d="M175.98 304.61C175.99 306.2 174.92 307.42 174.58 308.95C173.71 312.91 174.88 316.4 176.45 319.84C177.1 321.27 178.73 321.37 180.12 320.53C181.97 319.42 182.79 317.54 183.07 315.71C183.59 312.35 183.29 308.96 181.41 305.93C179.53 302.9 175.54 302.98 173.81 306.16C171.53 310.34 172.13 314.49 174.23 318.56" stroke="#2071B5" stroke-width="4.21" stroke-linecap="round" stroke-linejoin="round"/>
<path d="M275.28 101.22C275.52 99.6996 274.99 98.1496 275.5 96.6196C276.49 95.9596 277.61 95.9796 278.76 95.9796C285.87 96.0096 292.99 95.9896 300.1 95.9896" stroke="#2071B5" stroke-width="4.21" stroke-linecap="round" stroke-linejoin="round"/>
<path d="M238.69 203.13C238.69 202.04 238.69 200.94 238.69 199.64C243.92 199.7 248.93 199.28 253.94 200.05C254.66 200.16 255.39 200.23 255.42 200.96C255.48 202.58 256.6 203.88 256.57 205.53C256.5 209.74 256.55 213.95 256.55 218.16" stroke="#2071B5" stroke-width="4.21" stroke-linecap="round" stroke-linejoin="round"/>
<path d="M281.37 208.36C277.01 208.36 272.66 208.36 268.3 208.36C267.65 208.36 267.1 208.03 266.56 207.71" stroke="#2071B5" stroke-width="4.21" stroke-linecap="round" stroke-linejoin="round"/>
<path d="M117.18 294.37C118.68 294.73 119.26 296.11 119.73 297.23C120.97 300.2 121.7 303.34 120.63 306.56C120.39 307.29 120.48 307.88 120.67 308.53" stroke="#2071B5" stroke-width="4.21" stroke-linecap="round" stroke-linejoin="round"/>
<path d="M150.28 352.08H135.91" stroke="#2071B5" stroke-width="4.21" stroke-linecap="round" stroke-linejoin="round"/>
<path d="M142.88 382.78V396.93" stroke="#2071B5" stroke-width="4.21" stroke-linecap="round" stroke-linejoin="round"/>
<path d="M340.82 203.78C340.33 207.69 340.74 211.62 340.6 215.54C340.57 216.34 340.75 217.16 340.38 217.94" stroke="#2071B5" stroke-width="4.21" stroke-linecap="round" stroke-linejoin="round"/>
<path d="M281.37 122.34C276.71 122.82 272.04 123.2 267.43 124.08" stroke="#2071B5" stroke-width="4.21" stroke-linecap="round" stroke-linejoin="round"/>
<path d="M311.43 189.41C310.39 191.08 308.48 190.53 307.05 190.82C304.03 191.44 301.03 192.25 297.93 192.46" stroke="#2071B5" stroke-width="4.21" stroke-linecap="round" stroke-linejoin="round"/>
<path d="M238.04 204C238.14 208.65 237.82 213.3 238.26 217.94" stroke="#2071B5" stroke-width="4.21" stroke-linecap="round" stroke-linejoin="round"/>
<path d="M267.44 186.36C268.83 187.64 270.69 187.27 272.24 187.33C275.29 187.46 278.33 187.8 281.38 187.88" stroke="#2071B5" stroke-width="4.21" stroke-linecap="round" stroke-linejoin="round"/>
<path d="M311.86 147.17C310.55 145.92 308.78 146.46 307.27 146.18C304.21 145.61 301.07 145.27 297.92 145.21" stroke="#2071B5" stroke-width="4.21" stroke-linecap="round" stroke-linejoin="round"/>
<path d="M311.86 147.6C309.09 148.84 306.04 148.86 303.13 149.49C299.45 150.28 295.71 150.87 292.03 151.72C291.48 151.85 290.87 151.74 290.29 151.74" stroke="#2071B5" stroke-width="4.21" stroke-linecap="round" stroke-linejoin="round"/>
<path d="M289.65 202.48V216.2" stroke="#2071B5" stroke-width="4.21" stroke-linecap="round" stroke-linejoin="round"/>
<path d="M260.9 219.46V241.67" stroke="#2071B5" stroke-width="4.21" stroke-linecap="round" stroke-linejoin="round"/>
<path d="M267 124.95C269.11 126.19 271.53 125.62 273.77 125.9C276.26 126.21 278.82 126.52 281.37 126.48" stroke="#2071B5" stroke-width="4.21" stroke-linecap="round" stroke-linejoin="round"/>
<path d="M297.05 136.06C292.08 137.11 287.02 137.6 282 138.32C277.77 138.93 273.55 139.45 269.38 140.38C268.86 140.5 268.64 140.81 268.3 141.07" stroke="#2071B5" stroke-width="4.21" stroke-linecap="round" stroke-linejoin="round"/>
<path d="M289.65 138.67V171.77" stroke="#2071B5" stroke-width="4.21" stroke-linecap="round" stroke-linejoin="round"/>
<path d="M301.41 387.36C295.97 387.73 290.53 388.19 285.08 388.46C282.25 388.6 279.43 389.05 276.59 389.1" stroke="#2071B5" stroke-width="4.21" stroke-linecap="round" stroke-linejoin="round"/>
<path d="M274.41 243.2V267.59" stroke="#2071B5" stroke-width="4.21" stroke-linecap="round" stroke-linejoin="round"/>
<path d="M289.65 181.14V200.52" stroke="#2071B5" stroke-width="4.21" stroke-linecap="round" stroke-linejoin="round"/>
<path d="M301.41 402.17C296.25 402.51 291.11 402.98 285.95 403.27C282.83 403.45 279.71 403.8 276.59 403.91" stroke="#2071B5" stroke-width="4.21" stroke-linecap="round" stroke-linejoin="round"/>
<path d="M281.37 211.41C279.15 211.96 276.81 211.22 274.36 212.15C274.54 214.06 274.16 216.06 274.62 218.06" stroke="#2071B5" stroke-width="4.21" stroke-linecap="round" stroke-linejoin="round"/>
<path d="M257.86 352.95V365.58" stroke="#2071B5" stroke-width="4.21" stroke-linecap="round" stroke-linejoin="round"/>
<path d="M289.65 403.25V415.66" stroke="#2071B5" stroke-width="4.21" stroke-linecap="round" stroke-linejoin="round"/>
<path d="M300.54 110.8H288.35" stroke="#2071B5" stroke-width="4.21" stroke-linecap="round" stroke-linejoin="round"/>
<path d="M297.27 114.94C297.27 117.92 297.3 120.89 297.25 123.87C297.23 124.99 297.35 126.08 297.7 127.14" stroke="#2071B5" stroke-width="4.21" stroke-linecap="round" stroke-linejoin="round"/>
<path d="M321.44 108.19V120.17" stroke="#2071B5" stroke-width="4.21" stroke-linecap="round" stroke-linejoin="round"/>
<path d="M281.16 166.33C278.11 166.11 275.06 165.87 272.01 165.69C271.02 165.63 270.04 165.59 269.18 165.02" stroke="#2071B5" stroke-width="4.21" stroke-linecap="round" stroke-linejoin="round"/>
<path d="M338.21 217.94C338.6 215.76 337.51 214.78 335.38 215.11C334.01 215.32 332.61 214.78 331.22 215.5C330.09 216.08 329.34 216.58 329.94 217.94" stroke="#2071B5" stroke-width="4.21" stroke-linecap="round" stroke-linejoin="round"/>
<path d="M265.26 114.72C264.75 117.46 265.12 120.24 264.89 123C264.73 124.92 265.57 125.27 267 124.3" stroke="#2071B5" stroke-width="4.21" stroke-linecap="round" stroke-linejoin="round"/>
<path d="M241.74 255.83V267.15" stroke="#2071B5" stroke-width="4.21" stroke-linecap="round" stroke-linejoin="round"/>
<path d="M323.62 211.84H312.3" stroke="#2071B5" stroke-width="4.21" stroke-linecap="round" stroke-linejoin="round"/>
<path d="M250.67 217.94C250.58 215.2 250.51 215.12 247.84 215.11C246.9 215.11 245.95 215.11 245.01 215.11C243.123 215.117 242.18 216.06 242.18 217.94" stroke="#2071B5" stroke-width="4.21" stroke-linecap="round" stroke-linejoin="round"/>
<path d="M251.76 421.33C251.76 424.52 251.74 427.72 251.78 430.91C251.78 431.34 251.31 432.03 252.19 432.22" stroke="#2071B5" stroke-width="4.21" stroke-linecap="round" stroke-linejoin="round"/>
<path d="M305.11 242.11C305.09 245.38 304.97 248.65 305.14 251.91C305.42 257.14 305.24 262.36 305.32 267.59" stroke="#2071B5" stroke-width="4.21" stroke-linecap="round" stroke-linejoin="round"/>
<path d="M289.65 116.03V126.92" stroke="#2071B5" stroke-width="4.21" stroke-linecap="round" stroke-linejoin="round"/>
<path d="M301.41 75.5195H290.96" stroke="#2071B5" stroke-width="4.21" stroke-linecap="round" stroke-linejoin="round"/>
<path d="M279.63 54.1797V64.6297" stroke="#2071B5" stroke-width="4.21" stroke-linecap="round" stroke-linejoin="round"/>
<path d="M258.29 281.96V292.41" stroke="#2071B5" stroke-width="4.21" stroke-linecap="round" stroke-linejoin="round"/>
<path d="M289.21 75.5195H278.76" stroke="#2071B5" stroke-width="4.21" stroke-linecap="round" stroke-linejoin="round"/>
<path d="M341.48 281.09H331.03" stroke="#2071B5" stroke-width="4.21" stroke-linecap="round" stroke-linejoin="round"/>
<path d="M305.11 219.25C304.69 221.93 304.91 224.62 304.9 227.31C304.88 232.1 304.9 236.89 304.9 241.68" stroke="#2071B5" stroke-width="4.21" stroke-linecap="round" stroke-linejoin="round"/>
<path d="M274.19 225.56C274.18 228.1 274.12 230.63 274.27 233.19C274.46 236.34 274.77 239.58 274.19 242.76" stroke="#2071B5" stroke-width="4.21" stroke-linecap="round" stroke-linejoin="round"/>
<path d="M281.81 138.67C281.84 143.53 281.59 148.4 282.03 153.26" stroke="#2071B5" stroke-width="4.21" stroke-linecap="round" stroke-linejoin="round"/>
<path d="M297.92 211.62C300.827 211.62 302.28 213.073 302.28 215.98V217.94" stroke="#2071B5" stroke-width="4.21" stroke-linecap="round" stroke-linejoin="round"/>
<path d="M285.73 103.83H275.71" stroke="#2071B5" stroke-width="4.21" stroke-linecap="round" stroke-linejoin="round"/>
<path d="M232.6 368.19H223.02" stroke="#2071B5" stroke-width="4.21" stroke-linecap="round" stroke-linejoin="round"/>
<path d="M297.92 185.06C301.1 185.51 304.32 185.04 307.5 185.5" stroke="#2071B5" stroke-width="4.21" stroke-linecap="round" stroke-linejoin="round"/>
<path d="M289.87 276.52C289.39 279.7 289.78 282.91 289.65 286.1" stroke="#2071B5" stroke-width="4.21" stroke-linecap="round" stroke-linejoin="round"/>
<path d="M302.28 281.09H292.7" stroke="#2071B5" stroke-width="4.21" stroke-linecap="round" stroke-linejoin="round"/>
<path d="M302.28 239.28H292.7" stroke="#2071B5" stroke-width="4.21" stroke-linecap="round" stroke-linejoin="round"/>
<path d="M299.23 55.4902V64.8502" stroke="#2071B5" stroke-width="4.21" stroke-linecap="round" stroke-linejoin="round"/>
<path d="M334.07 199.21C332.46 199.81 330.75 199.89 329.06 200.09C326.94 200.33 326.5 200.98 326.88 203.13" stroke="#2071B5" stroke-width="4.21" stroke-linecap="round" stroke-linejoin="round"/>
<path d="M287.47 281.53H278.32" stroke="#2071B5" stroke-width="4.21" stroke-linecap="round" stroke-linejoin="round"/>
<path d="M297.49 127.57C297.6 132.14 297.37 136.72 297.51 141.29C297.6 144.27 297.24 147.25 297.71 150.22" stroke="#2071B5" stroke-width="4.21" stroke-linecap="round" stroke-linejoin="round"/>
<path d="M289.21 244.07V252.78Z" fill="#D9D9D9"/>
<path d="M289.21 244.07V252.78" stroke="#2071B5" stroke-width="4.21" stroke-linecap="round" stroke-linejoin="round"/>
<path d="M311.86 120.38H303.15" stroke="#2071B5" stroke-width="4.21" stroke-linecap="round" stroke-linejoin="round"/>
<path d="M243.92 367.76H235.65" stroke="#2071B5" stroke-width="4.21" stroke-linecap="round" stroke-linejoin="round"/>
<path d="M281.59 161.76C281.95 165.67 281.81 169.6 281.73 173.52C281.73 173.97 281.98 174.39 281.81 174.83" stroke="#2071B5" stroke-width="4.21" stroke-linecap="round" stroke-linejoin="round"/>
<path d="M379.8 338.14V350.33" stroke="#2071B5" stroke-width="4.21" stroke-linecap="round" stroke-linejoin="round"/>
<path d="M295.75 80.75H287.48" stroke="#2071B5" stroke-width="4.21" stroke-linecap="round" stroke-linejoin="round"/>
<path d="M297.27 179.83C297.61 184.19 297.32 188.55 297.37 192.89C297.43 197.97 297.39 203.05 297.48 208.13C297.53 210.81 297.48 213.5 297.48 216.19" stroke="#2071B5" stroke-width="4.21" stroke-linecap="round" stroke-linejoin="round"/>
<path d="M289.65 128.87C289.89 131.55 289.13 134.29 290.09 136.93" stroke="#2071B5" stroke-width="4.21" stroke-linecap="round" stroke-linejoin="round"/>
<path d="M281.81 184.4V195.72" stroke="#2071B5" stroke-width="4.21" stroke-linecap="round" stroke-linejoin="round"/>
<path d="M317.74 239.28H310.12" stroke="#2071B5" stroke-width="4.21" stroke-linecap="round" stroke-linejoin="round"/>
<path d="M264.39 136.06H250.89" stroke="#2071B5" stroke-width="4.21" stroke-linecap="round" stroke-linejoin="round"/>
<path d="M281.81 114.94C281.81 119.44 281.81 123.94 281.8 128.44C281.8 128.84 281.95 129.17 282.03 129.53" stroke="#2071B5" stroke-width="4.21" stroke-linecap="round" stroke-linejoin="round"/>
<path d="M297.05 158.27C294.6 158.42 292.26 159.15 289.86 159.58" stroke="#2071B5" stroke-width="4.21" stroke-linecap="round" stroke-linejoin="round"/>
<path d="M298.14 162.84C300.43 163.39 302.84 162.66 305.1 163.58C305.23 164.66 304.31 165.6 304.45 166.76" stroke="#2071B5" stroke-width="4.21" stroke-linecap="round" stroke-linejoin="round"/>
<path d="M279.2 64.8496C276.88 65.2096 274.55 65.2096 272.23 64.8496" stroke="#2071B5" stroke-width="4.21" stroke-linecap="round" stroke-linejoin="round"/>
<path d="M289.65 388.45V401.73" stroke="#2071B5" stroke-width="4.21" stroke-linecap="round" stroke-linejoin="round"/>
<path d="M327.1 120.38H314.47" stroke="#2071B5" stroke-width="4.21" stroke-linecap="round" stroke-linejoin="round"/>
<path d="M297.05 192.9C294.78 193.15 292.59 193.85 290.3 193.99" stroke="#2071B5" stroke-width="4.21" stroke-linecap="round" stroke-linejoin="round"/>
<path d="M297.27 150.87C297.76 154.05 297.33 157.26 297.5 160.45C297.71 164.22 297.16 168.01 297.7 171.77" stroke="#2071B5" stroke-width="4.21" stroke-linecap="round" stroke-linejoin="round"/>
<path d="M297.27 172.43C297.9 174.5 297.09 176.67 297.71 178.75" stroke="#2071B5" stroke-width="4.21" stroke-linecap="round" stroke-linejoin="round"/>
<path d="M311.86 168.51C311.48 168 311.03 167.7 310.34 167.62C306.21 167.18 302.08 166.83 297.93 166.98" stroke="#2071B5" stroke-width="4.21" stroke-linecap="round" stroke-linejoin="round"/>
<path d="M289.65 173.73V179.61" stroke="#2071B5" stroke-width="4.21" stroke-linecap="round" stroke-linejoin="round"/>
<path d="M264.82 420.46H270.48" stroke="#2071B5" stroke-width="4.21" stroke-linecap="round" stroke-linejoin="round"/>
<path d="M277.45 82.71V95.78" stroke="#2071B5" stroke-width="4.21" stroke-linecap="round" stroke-linejoin="round"/>
<path d="M300.54 90.7695V101.22" stroke="#2071B5" stroke-width="4.21" stroke-linecap="round" stroke-linejoin="round"/>
<path d="M281.59 204.22C281.81 208.8 282.1 213.38 281.37 217.94" stroke="#2071B5" stroke-width="4.21" stroke-linecap="round" stroke-linejoin="round"/>
<path d="M273.97 102.09C274.28 106.15 274.19 110.22 274.19 114.28" stroke="#2071B5" stroke-width="4.21" stroke-linecap="round" stroke-linejoin="round"/>
<path d="M391.56 341.63V347.29" stroke="#2071B5" stroke-width="4.21" stroke-linecap="round" stroke-linejoin="round"/>
<path d="M391.13 345.55H388.08" stroke="#2071B5" stroke-width="4.21" stroke-linecap="round" stroke-linejoin="round"/>
<path d="M353.24 325.08H347.58" stroke="#2071B5" stroke-width="4.21" stroke-linecap="round" stroke-linejoin="round"/>
<path d="M289.65 272.16V274.99" stroke="#2071B5" stroke-width="4.21" stroke-linecap="round" stroke-linejoin="round"/>
<path d="M263.95 431.35H261.34" stroke="#2071B5" stroke-width="4.21" stroke-linecap="round" stroke-linejoin="round"/>
<path d="M292.26 395.63H288.34" stroke="#2071B5" stroke-width="4.21" stroke-linecap="round" stroke-linejoin="round"/>
<path d="M328.85 426.12H324.93" stroke="#2071B5" stroke-width="4.21" stroke-linecap="round" stroke-linejoin="round"/>
<path d="M316.65 437.01H318.83" stroke="#2071B5" stroke-width="4.21" stroke-linecap="round" stroke-linejoin="round"/>
<path d="M243.92 199.65V201.83" stroke="#2071B5" stroke-width="4.21" stroke-linecap="round" stroke-linejoin="round"/>
<path d="M379.37 346.42H377.19" stroke="#2071B5" stroke-width="4.21" stroke-linecap="round" stroke-linejoin="round"/>
<path d="M400.93 344.68H398.97" stroke="#2071B5" stroke-width="4.21" stroke-linecap="round" stroke-linejoin="round"/>
<path d="M135.47 310.27C132.26 311.01 129.11 311.96 126.33 313.77C119.99 317.88 115.89 323.75 113.25 330.74C111.53 335.31 110.62 340.02 110.11 344.89C109.68 348.98 109.54 353.06 109.84 357.09C110.99 372.28 116.12 385.67 128.51 395.4C134.04 399.75 140.46 401.62 147.43 400.81C152.75 400.19 157.33 397.62 161.14 393.88C166.35 388.76 170.03 382.72 172.1 375.62C174.31 368.02 175.06 360.37 174.24 352.52C173.39 344.44 171.48 336.75 167.31 329.63C163.03 322.32 157.43 316.47 149.83 312.7C145.4 310.5 140.59 309.98 135.69 310.28" stroke="#2071B5" stroke-width="4.21" stroke-linecap="round" stroke-linejoin="round"/>
<path d="M176.2 300.25C170.93 302.02 169.04 307.95 169.65 313.1C170.02 316.23 170.8 319.15 172.93 321.6C176.71 325.95 180.65 325.68 183.73 321.1C187.49 315.51 186.45 308.28 183.15 303.54C181.56 301.25 179.34 299.97 176.42 300.26" stroke="#2071B5" stroke-width="4.21" stroke-linecap="round" stroke-linejoin="round"/>
<path d="M175.76 397.81C171.08 400.33 168.52 405.52 169.47 410.87C170.13 414.61 171.35 418.14 174.68 420.45C176.65 421.82 179.65 421.63 181.42 420.02C185.41 416.4 186.39 411.85 185.33 406.74C185.03 405.29 184.56 403.93 183.86 402.58C182.17 399.32 179.84 397.37 175.98 397.81" stroke="#2071B5" stroke-width="4.21" stroke-linecap="round" stroke-linejoin="round"/>
</svg>
