<svg width="500" height="500" viewBox="0 0 500 500" fill="none" xmlns="http://www.w3.org/2000/svg">
<path d="M387 179.39C386.65 179.13 376.53 176.65 375.95 176.6C369.42 176.05 362.98 174.92 356.53 173.8C354.26 173.41 351.93 173.16 349.63 172.84C348.8 172.72 348.12 173.03 347.38 173.47C340 177.91 334.04 183.82 328.86 190.66C321.2 200.77 316.89 212.23 314.59 224.58C312.89 233.66 312.09 242.8 312.41 252.02C312.76 262.21 314.82 272.08 318.89 281.45C320.29 284.67 322.18 287.67 324.45 290.38C327.27 293.73 331.21 295.25 335.12 296.91C340.79 299.31 365.61 304.37 368.76 303.05" fill="#FFDA00" fill-opacity="0.7"/>
<path d="M387 179.39C386.65 179.13 376.53 176.65 375.95 176.6C369.42 176.05 362.98 174.92 356.53 173.8C354.26 173.41 351.93 173.16 349.63 172.84C348.8 172.72 348.12 173.03 347.38 173.47C340 177.91 334.04 183.82 328.86 190.66C321.2 200.77 316.89 212.23 314.59 224.58C312.89 233.66 312.09 242.8 312.41 252.02C312.76 262.21 314.82 272.08 318.89 281.45C320.29 284.67 322.18 287.67 324.45 290.38C327.27 293.73 331.21 295.25 335.12 296.91C340.79 299.31 365.61 304.37 368.76 303.05" stroke="#2071B5" stroke-width="4.21" stroke-linecap="round" stroke-linejoin="round"/>
<path d="M107.35 153.43C103.7 152.33 99.9 152.04 96.19 151.24C92.8 150.51 89.36 149.99 85.93 149.45C79.88 148.5 73.97 149.07 69.02 153.02C64.19 156.88 60.51 161.82 57.64 167.27C54.1 173.99 51.78 181.12 50.66 188.67C49.36 197.48 49.89 206.03 53.35 214.34C56.87 222.79 62.79 227.95 72.09 229.35C80.89 230.67 89.65 232.28 98.43 233.68C100.59 234.03 102.78 234.47 105 234.41" fill="#FFDA00" fill-opacity="0.7"/>
<path d="M107.35 153.43C103.7 152.33 99.9 152.04 96.19 151.24C92.8 150.51 89.36 149.99 85.93 149.45C79.88 148.5 73.97 149.07 69.02 153.02C64.19 156.88 60.51 161.82 57.64 167.27C54.1 173.99 51.78 181.12 50.66 188.67C49.36 197.48 49.89 206.03 53.35 214.34C56.87 222.79 62.79 227.95 72.09 229.35C80.89 230.67 89.65 232.28 98.43 233.68C100.59 234.03 102.78 234.47 105 234.41" stroke="#2071B5" stroke-width="4.21" stroke-linecap="round" stroke-linejoin="round"/>
<path d="M368 257C361.6 229.4 375.667 218.167 383.5 216L440 225.5C433.2 228.7 428.5 235.5 427 238.5C417.8 256.5 425.167 269.333 430 273.5L392.5 267C371.7 266.6 367.5 260.167 368 257Z" fill="#FFDA00" fill-opacity="0.7" stroke="black"/>
<path d="M409.19 219.46C409.81 217.18 409.06 214.98 408.73 212.77C407.46 204.25 405.04 196.1 399.77 189.16C396.23 184.49 391.68 181.01 386.01 179.03C383.28 178.08 380.29 177.38 377.78 177.94C373.27 178.94 368.72 180.31 364.78 183.08C355.67 189.48 350.09 198.49 345.33 208.28C340.12 218.99 337.21 230.35 335.67 242.01C333.91 255.35 334.39 268.72 339.23 281.45C342.34 289.64 347.11 297.1 355.47 300.79C364.91 304.95 374.06 303.67 382.43 297.35C391.33 290.63 396.92 281.63 400.97 271.47C401.21 270.86 400.85 270.17 401.38 269.67" fill="#FFDA00" fill-opacity="0.7"/>
<path d="M409.19 219.46C409.81 217.18 409.06 214.98 408.73 212.77C407.46 204.25 405.04 196.1 399.77 189.16C396.23 184.49 391.68 181.01 386.01 179.03C383.28 178.08 380.29 177.38 377.78 177.94C373.27 178.94 368.72 180.31 364.78 183.08C355.67 189.48 350.09 198.49 345.33 208.28C340.12 218.99 337.21 230.35 335.67 242.01C333.91 255.35 334.39 268.72 339.23 281.45C342.34 289.64 347.11 297.1 355.47 300.79C364.91 304.95 374.06 303.67 382.43 297.35C391.33 290.63 396.92 281.63 400.97 271.47C401.21 270.86 400.85 270.17 401.38 269.67" stroke="#2071B5" stroke-width="4.21" stroke-linecap="round" stroke-linejoin="round"/>
<path d="M154.2 374.96C153.55 375.6 153.76 376.43 153.76 377.19C153.75 380.91 153.85 384.63 153.71 388.34C153.64 390.26 154.55 390.97 156.2 391.25C161.51 392.14 166.73 393.47 172.03 394.45C176.14 395.21 180.23 396.72 184.32 396.88C190.44 397.12 195.92 399.5 201.69 400.82C203.52 401.24 205.26 400.82 207.09 401.15C211.32 401.92 215.64 402.32 220.01 402.21C228.87 401.99 237.32 400.03 245.44 396.59C253.59 393.13 261.26 388.71 268.59 383.8C273.26 380.67 277.06 376.38 280.88 372.24C285.21 367.54 289.1 362.44 292.27 356.87C296.25 349.89 299.39 342.53 301.69 334.81C303.37 329.17 304.35 323.42 305.24 317.63C306.47 309.64 306.57 301.59 306.57 293.53C306.57 265.57 306.57 237.61 306.57 209.65C306.57 202.46 305.72 195.35 304.86 188.22C303.81 179.56 302.1 171.09 299.42 162.8C297.24 156.05 294.42 149.59 290.97 143.38C287.43 137.01 283.64 130.79 279.08 125.14C272.86 117.43 266 110.31 258.67 103.61C253.82 99.17 248.65 95.3 242.97 92.12C236.27 88.37 229.19 85.44 221.78 83.43C213.03 81.06 204.14 79.23 195.02 79.45C192.18 79.52 189.34 79.07 186.55 79.42C179.17 80.36 172.16 82.7 165.36 85.63C155.91 89.71 147.44 95.23 139.88 102.3C130.37 111.2 122.89 121.52 117.2 133.15C112.67 142.4 109.7 152.16 107.96 162.35C106.48 171.01 105.64 179.68 105.76 188.46C105.88 197.31 105.99 206.16 105.72 215.01C105.53 221.33 105.58 227.65 105.2 233.98C104.6 243.85 104.67 253.76 104.96 263.64C105.26 273.81 106.18 283.97 108.07 293.97C109.68 302.48 112.31 310.74 115.63 318.73C120.88 331.38 127.74 343.14 136.13 353.99C141.07 360.37 146.46 366.36 152.16 372.09C158.3 378.26 165.15 383.5 172.5 388.1C176.82 390.8 181.22 393.4 186.09 395.06C186.96 395.36 187.75 395.88 188.1 396.83" stroke="#2071B5" stroke-width="4.21" stroke-linecap="round" stroke-linejoin="round"/>
<path d="M136.1 290.63C134.95 283.75 134.33 276.85 134.33 269.88C134.36 245.41 134.41 220.95 134.31 196.48C134.26 182.9 136.56 169.86 142.14 157.44C146.44 147.86 152.34 139.49 159.95 132.18C167.61 124.82 176.6 120.58 186.99 118.81C196.52 117.19 205.74 118.18 214.9 121.03C217.75 121.92 220.3 123.33 222.97 124.52C225.75 125.75 228.52 126.94 231.17 128.44C237.36 131.95 242.2 136.96 246.78 142.28C246.68 145.12 249.75 145.39 250.9 147.35C252.04 149.29 253.72 150.98 255.37 152.65C257.34 154.64 258.52 157.41 259.96 159.9C264.77 168.27 268.59 177.05 270.87 186.46C272.29 192.33 273.21 198.26 273.58 204.31C275.37 233.3 274.06 262.32 274.4 291.32C274.5 299.79 273.12 308.15 270.83 316.3C268.51 324.56 265.47 332.57 261.02 339.94C256.33 347.72 250.33 354.29 242.54 359.16C236.41 363 229.75 365.24 222.68 366.55C218.68 367.29 214.67 367.92 210.63 367.8C202.69 367.58 195.04 365.79 187.66 362.92C181 360.33 175.17 356.29 169.37 352.21" stroke="#2071B5" stroke-width="4.21" stroke-linecap="round" stroke-linejoin="round"/>
<path d="M171.6 322.76C168.28 322.7 160.52 324.85 156.92 325.71C154.57 326.27 154.96 325.12 152.63 320.75" stroke="#2071B5" stroke-width="4.21" stroke-linecap="round" stroke-linejoin="round"/>
<path d="M361.45 358.9C365.22 359.18 368.74 360.52 372.38 361.35C379.7 363.01 386.92 365.05 394.23 366.75C398.05 367.64 398.04 368.17 398.31 372.73C398.56 377.12 398.05 381.54 398.56 385.89C399.11 390.63 397.16 392.88 392.98 394.97C385.85 398.53 378.99 402.68 371.91 406.37C361.53 411.79 351.52 417.9 340.93 422.94C334.21 426.14 327.12 428 319.73 428.2C314.02 428.36 308.33 427.41 302.78 426.02C296.55 424.45 290.3 423 284.03 421.59C279.7 420.62 275.41 419.48 271.1 418.44C265.66 417.13 260.25 415.74 254.8 414.49C245.27 412.3 235.81 409.83 226.25 407.76C219.16 406.22 212.09 404.64 205.04 402.91C203.94 402.64 203.42 402.19 203.05 401.29" stroke="#2071B5" stroke-width="4.21" stroke-linecap="round" stroke-linejoin="round"/>
<path d="M397.37 217.23C398.1 215.8 397.06 214.65 396.67 213.45C393.99 205.22 388.13 200.14 379.95 198.15C373.45 196.57 367.84 199.37 363.04 203.65C356.8 209.22 353.22 216.48 350.29 224.15C346.43 234.24 345.19 244.72 345.92 255.38C346.44 262.87 348.31 270.06 353.17 276.16C354.59 277.94 356.48 279.11 358.11 280.6" stroke="#2071B5" stroke-width="4.21" stroke-linecap="round" stroke-linejoin="round"/>
<path d="M204.39 211.43C214.25 210.9 219.83 201.9 219.5 193.58C219.21 186.1 216.45 179.57 209.94 175.32C202.37 170.38 194.69 172.82 189.89 180.64C184.59 189.27 187.71 204.33 196.78 209.45C199.12 210.77 201.62 211.09 204.16 211.43" fill="#FFDA00" fill-opacity="0.7"/>
<path d="M204.39 211.43C214.25 210.9 219.83 201.9 219.5 193.58C219.21 186.1 216.45 179.57 209.94 175.32C202.37 170.38 194.69 172.82 189.89 180.64C184.59 189.27 187.71 204.33 196.78 209.45C199.12 210.77 201.62 211.09 204.16 211.43" stroke="#2071B5" stroke-width="4.21" stroke-linecap="round" stroke-linejoin="round"/>
<path d="M327.09 192.47C326.55 192 326.16 191.53 326.17 190.68C326.2 188 326.01 185.32 325.83 182.64C325.29 174.21 323.87 165.98 321.52 157.88C316.08 139.21 306.25 123.06 293.44 108.55C287.68 102.03 281.63 95.8804 274.43 90.9704C264.62 84.2704 253.98 79.4704 242.33 76.8504C232.53 74.6504 222.63 73.8404 212.65 74.3104C208.03 74.5304 203.39 74.9304 198.79 75.9004C195.78 76.5304 192.68 76.8604 189.66 77.5404C188.86 77.7204 188.18 77.8504 187.88 78.6904" stroke="#2071B5" stroke-width="4.21" stroke-linecap="round" stroke-linejoin="round"/>
<path d="M204.39 320.3C213.52 318.44 218.1 310.52 217.74 303.35C217.31 294.72 213.59 287.85 205.94 283.52C199.55 279.9 193.38 282.45 189.67 287.51C186.95 291.23 185.41 295.38 185.68 300C186.22 309.03 191.7 317.17 201.04 319.88C202.09 320.18 203.18 319.82 204.17 320.3" fill="#FFDA00" fill-opacity="0.7"/>
<path d="M204.39 320.3C213.52 318.44 218.1 310.52 217.74 303.35C217.31 294.72 213.59 287.85 205.94 283.52C199.55 279.9 193.38 282.45 189.67 287.51C186.95 291.23 185.41 295.38 185.68 300C186.22 309.03 191.7 317.17 201.04 319.88C202.09 320.18 203.18 319.82 204.17 320.3" stroke="#2071B5" stroke-width="4.21" stroke-linecap="round" stroke-linejoin="round"/>
<path d="M181.64 127.99C178.3 130.07 174.41 131.15 171.35 133.76C170.83 134.21 170.24 134.62 169.84 135.15C167.12 138.73 163.79 141.88 160.51 144.77C155.91 148.83 153.05 153.73 150.7 159.04C148.3 164.48 146.72 170.21 145.87 176.18C144.92 182.8 144.94 189.41 145.05 196.05C145.05 196.5 145.05 196.94 145.05 197.39C145.05 224.53 145.05 251.68 145.05 278.82C145.05 280.62 145.17 282.33 146.13 283.98C146.78 285.1 146.25 286.49 146.4 287.75C146.98 292.37 148.32 296.81 149.99 301.12C151.4 304.74 152.48 308.39 152.62 312.29C152.64 312.87 153.02 313.3 153.08 313.85" stroke="#2071B5" stroke-width="4.21" stroke-linecap="round" stroke-linejoin="round"/>
<path d="M390.67 268.32C388.17 268.96 380.34 276.51 367.12 266.87C358.69 260.72 359.02 248.05 359.18 243.78C359.52 234.89 361.88 227.54 367.87 220.97C375.57 212.52 373.69 215.52 379.74 215.01C382.15 214.81 383.42 214.98 385.07 215.34C389 216.21 392.98 216.7 396.91 217.49C400.33 218.18 403.71 218.97 407.17 219.53C411.87 220.28 416.52 221.39 421.23 222.19C426.58 223.1 431.94 223.98 437.3 224.83C441.4 225.48 444.51 227.35 446.5 231.27C450.61 239.39 450.89 247.72 448.45 256.28C446.99 261.39 445.36 266.4 441.8 270.59C438.77 274.16 434.15 275.65 429.57 273.11C427.11 271.75 425.38 269.08 424.58 266.1C420.99 252.76 424.09 240.8 432.23 230C433.74 227.99 436.17 227.06 438.87 227.5" stroke="#2071B5" stroke-width="4.21" stroke-linecap="round" stroke-linejoin="round"/>
<path d="M327.43 293.75C327.06 294.38 327.07 295.06 327.09 295.76C327.42 307.11 325.22 318 321.81 328.8C316.78 344.7 308.29 358.33 296.29 369.81C292.71 373.23 288.7 376.23 284.42 378.64C280.79 380.69 276.84 382.38 272.65 383.18C271.79 383.34 270.84 383.43 269.98 382.99" stroke="#2071B5" stroke-width="4.21" stroke-linecap="round" stroke-linejoin="round"/>
<path d="M398.04 372.51C397.45 372.11 396.95 372.48 396.48 372.74C386.06 378.44 375.34 383.56 364.8 389.03C356.57 393.31 348.33 397.59 340.03 401.74C329.88 406.81 319.24 408.4 308.13 405.94C300.98 404.36 293.85 402.65 286.92 400.2C284.95 399.5 284.53 398.84 284.59 396.61C284.76 390.82 284.98 385.01 284.47 379.21" stroke="#2071B5" stroke-width="4.21" stroke-linecap="round" stroke-linejoin="round"/>
<path d="M382.92 214.97C382.34 215.32 375.51 219.34 372.65 223.06C366.18 231.48 365.13 242.4 366.41 252.69C366.88 256.5 368.13 260.14 371.04 262.97C373.61 265.48 376.99 265.55 380.2 266.06C383.63 266.6 387.05 267.22 390.48 267.76C393.19 268.19 395.98 268.32 398.72 268.77C403.85 269.61 408.98 270.4 414.11 271.22C418.28 271.88 422.45 272.48 426.6 273.22C427.21 273.33 431.56 274.39 433.89 274.36" stroke="#2071B5" stroke-width="4.21" stroke-linecap="round" stroke-linejoin="round"/>
<path d="M359.89 174.39C359.89 165.24 359.9 153.43 359.88 144.28C359.87 138.29 359.78 132.34 358.39 126.42C356.67 119.11 352.02 114.69 345.39 111.94C339.31 109.42 332.84 108.45 326.43 107.25C319.36 105.92 312.31 104.55 305.24 103.22C299.65 102.17 294.06 101.14 288.5 99.9205C287.79 99.7605 286.98 99.6205 286.27 100.12" stroke="#2071B5" stroke-width="4.21" stroke-linecap="round" stroke-linejoin="round"/>
<path d="M296.08 257.84V310.04" stroke="#2071B5" stroke-width="4.21" stroke-linecap="round" stroke-linejoin="round"/>
<path d="M431.98 229.93C424.96 229.32 415.5 228.16 408.53 227.21C400.53 226.12 392.53 224.87 384.66 223.01C384.05 222.87 383.47 222.84 382.87 222.81C381.53 222.75 380.36 222.88 380.18 224.6C380.02 226.17 380.58 227.11 382.19 227.52C384.62 228.14 387.11 228.49 389.56 228.78C395.47 229.48 401.31 230.61 407.17 231.56C413.19 232.53 419.28 233.09 425.25 234.42C425.94 234.58 427.98 235.31 428.66 235.36" stroke="#2071B5" stroke-width="4.21" stroke-linecap="round" stroke-linejoin="round"/>
<path d="M320.4 403.07C324.1 402.78 326.5 403.55 329.67 401.45C331.57 400.19 331.3 398.58 329.3 397.52C325.75 395.63 321.82 395.56 317.94 395.76C315.98 395.86 314.53 395.94 312.3 396.38C311.44 396.55 310.2 397.8 310.38 399.04C310.52 400.02 310.61 400.72 312.09 401.43C313.9 402.3 314.75 402.46 316.67 402.76C317.4 402.87 319.38 402.98 320.39 403.06" fill="#FFDA00" fill-opacity="0.7"/>
<path d="M320.4 403.07C324.1 402.78 326.5 403.55 329.67 401.45C331.57 400.19 331.3 398.58 329.3 397.52C325.75 395.63 321.82 395.56 317.94 395.76C315.98 395.86 314.53 395.94 312.3 396.38C311.44 396.55 310.2 397.8 310.38 399.04C310.52 400.02 310.61 400.72 312.09 401.43C313.9 402.3 314.75 402.46 316.67 402.76C317.4 402.87 319.38 402.98 320.39 403.06" stroke="#2071B5" stroke-width="4.21" stroke-linecap="round" stroke-linejoin="round"/>
<path d="M433.51 228.39C433.05 226.97 431.61 226.82 430.6 226.67C422.62 225.47 414.67 224.1 406.73 222.66C402.01 221.8 397.3 220.7 392.46 220.58" stroke="#2071B5" stroke-width="4.21" stroke-linecap="round" stroke-linejoin="round"/>
<path d="M317.11 340.91C316.62 342.43 317.72 346.6 317.72 348.19C317.72 360.16 317.72 372.14 317.72 384.14C319.92 385.41 322.47 385.41 324.87 385.85C330.54 386.88 336.2 387.98 341.8 389.3C344.05 389.83 343.2 389.57 344.94 388.8" stroke="#2071B5" stroke-width="4.21" stroke-linecap="round" stroke-linejoin="round"/>
<path d="M116.94 159.67C116.74 162.6 118.13 164.64 120.51 166.14C123.23 167.85 126.96 166.82 128.27 163.67C129.93 159.69 129.26 155.3 125.58 152.84C122.79 150.97 119.54 151.85 117.81 155.2C117.11 156.56 117.09 158.04 116.71 159.45" fill="#FFDA00" fill-opacity="0.7"/>
<path d="M116.94 159.67C116.74 162.6 118.13 164.64 120.51 166.14C123.23 167.85 126.96 166.82 128.27 163.67C129.93 159.69 129.26 155.3 125.58 152.84C122.79 150.97 119.54 151.85 117.81 155.2C117.11 156.56 117.09 158.04 116.71 159.45" stroke="#2071B5" stroke-width="4.21" stroke-linecap="round" stroke-linejoin="round"/>
<path d="M320.7 333.01C322.51 338.15 325.57 345.67 327.79 350.63C331.93 359.86 336.1 369.08 340.26 378.3C341.83 381.79 343.59 385.2 344.94 388.79" stroke="#2071B5" stroke-width="4.21" stroke-linecap="round" stroke-linejoin="round"/>
<path d="M281.58 329.89C281.59 332.23 282.26 334.24 284.25 335.7C287.33 337.96 290.76 337.46 292.89 333.87C294.79 330.66 294.44 326.39 291.17 323.88C289.24 322.4 287.09 322.27 284.94 323.23C282.59 324.28 281.8 326.39 281.59 328.78C281.56 329.08 281.59 329.37 281.59 329.67" fill="#FFDA00" fill-opacity="0.7"/>
<path d="M281.58 329.89C281.59 332.23 282.26 334.24 284.25 335.7C287.33 337.96 290.76 337.46 292.89 333.87C294.79 330.66 294.44 326.39 291.17 323.88C289.24 322.4 287.09 322.27 284.94 323.23C282.59 324.28 281.8 326.39 281.59 328.78C281.56 329.08 281.59 329.37 281.59 329.67" stroke="#2071B5" stroke-width="4.21" stroke-linecap="round" stroke-linejoin="round"/>
<path d="M437.08 258.95C437.78 258.94 438.45 258.98 439.1 258.52C443.03 255.73 443.88 249.08 441.08 245.35C439.4 243.11 436.84 242.57 434.42 245.13C431.32 248.4 430.67 256.19 435.5 258.76C435.97 259.01 435.73 258.84 437.08 258.94" stroke="#2071B5" stroke-width="4.21" stroke-linecap="round" stroke-linejoin="round"/>
<path d="M182.97 234.63C176.78 239.86 179.26 236.94 176.28 240.43C176.09 240.66 176.25 240.43 176.06 240.66C172.35 245.24 172.66 244.59 174.71 249.36C176.06 252.5 177.24 255.72 177.37 259.17C177.48 261.81 176.01 262.73 173.37 262.33C169.42 261.73 166.06 259.66 162.48 258.18C160.7 257.44 158.87 257.02 157.07 256.57C154.97 256.05 153.03 258.67 153.26 260.96C153.67 265.04 156.51 267.71 158.68 270.75C160.43 273.19 162.78 275.19 164.39 277.72C165.14 278.9 166.06 280.3 165.34 281.92C164.67 283.43 162.89 284.24 160.89 283.68C157.52 282.74 154.01 282.89 150.61 282.18C148.92 281.83 147.69 283.1 146.38 283.93" stroke="#2071B5" stroke-width="4.21" stroke-linecap="round" stroke-linejoin="round"/>
<path d="M382.42 375.41C380.04 373.35 376.99 373.39 374.16 373.03C371.5 372.69 368.73 372.68 366.14 373.84C364.78 374.45 364.63 375.1 365.7 376.08C366.71 377.02 368.12 377.2 369.28 377.33C372.9 377.72 376.56 378.44 380.2 377.42C381.19 377.14 382.42 377.15 382.43 375.64" fill="#FFDA00" fill-opacity="0.7"/>
<path d="M382.42 375.41C380.04 373.35 376.99 373.39 374.16 373.03C371.5 372.69 368.73 372.68 366.14 373.84C364.78 374.45 364.63 375.1 365.7 376.08C366.71 377.02 368.12 377.2 369.28 377.33C372.9 377.72 376.56 378.44 380.2 377.42C381.19 377.14 382.42 377.15 382.43 375.64" stroke="#2071B5" stroke-width="4.21" stroke-linecap="round" stroke-linejoin="round"/>
<path d="M125.64 231.96V266.32" stroke="#2071B5" stroke-width="4.21" stroke-linecap="round" stroke-linejoin="round"/>
<path d="M248.18 345.74C246.387 348.086 244.993 349.92 244 351.24C241.92 354 229.49 333.25 228.92 336.76C228.5 339.38 230.63 359.57 230.15 360.09C228.81 361.56 219.6 363.23 218.96 360.95C217.47 355.69 213.91 347.26 209.96 343.3C209.58 342.92 209.1 342.46 207.95 342.72C206 348.01 204.48 353.64 204.18 359.57" stroke="#2071B5" stroke-width="4.21" stroke-linecap="round" stroke-linejoin="round"/>
<path d="M126.09 179.31V211.88" stroke="#2071B5" stroke-width="4.21" stroke-linecap="round" stroke-linejoin="round"/>
<path d="M339.36 110.37C338.97 111.82 337.62 111.37 336.68 111.69C331.86 113.37 327.04 115.07 322.17 116.56C317.31 118.05 312.58 119.94 307.69 121.3" stroke="#2071B5" stroke-width="4.21" stroke-linecap="round" stroke-linejoin="round"/>
<path d="M177.95 350.87C181.26 352.11 190.21 357.24 193.59 358.27" stroke="#2071B5" stroke-width="4.21" stroke-linecap="round" stroke-linejoin="round"/>
<path d="M140.66 308.07C141.87 312.02 146.86 325.1 147.53 326.08C150.05 329.76 152.47 333.5 155.49 336.84C159.16 340.9 164.72 349.2 169.37 352.19" stroke="#2071B5" stroke-width="4.21" stroke-linecap="round" stroke-linejoin="round"/>
<path d="M280.47 258.28V288.62" stroke="#2071B5" stroke-width="4.21" stroke-linecap="round" stroke-linejoin="round"/>
<path d="M361.28 303.02C361.18 306.87 360.79 346.59 360.79 347.29C360.78 352.5 360.77 357.7 360.79 362.91C360.79 364.03 360.44 364.44 359.27 365.01C352.6 368.3 345.71 371.07 338.92 374.06" stroke="#2071B5" stroke-width="4.21" stroke-linecap="round" stroke-linejoin="round"/>
<path d="M257.05 226.38C256.72 226.91 240.04 219.43 239.98 225.79C239.98 225.79 240.97 236.25 242.5 240.21C242.93 241.32 242.45 242.27 241.84 242.54C240.1 243.3 237.34 244.94 236.58 245.31" stroke="#2071B5" stroke-width="4.21" stroke-linecap="round" stroke-linejoin="round"/>
<path d="M390.67 268.32C389.1 271.09 387.52 273.82 385.58 276.39C381.95 281.19 377.14 284.16 371.45 285.38C368 286.12 361.32 282.62 358.09 280.59" stroke="#2071B5" stroke-width="4.21" stroke-linecap="round" stroke-linejoin="round"/>
<path d="M235.14 169.01C236.12 169.99 238.26 174.05 240.32 173.87C243.94 173.55 257.3 171.16 260.88 171.52" stroke="#2071B5" stroke-width="4.21" stroke-linecap="round" stroke-linejoin="round"/>
<path d="M237.63 163.91C237.03 165.55 234.17 168.03 235.14 169C236.12 169.98 236.85 171.15 238.9 170.96C242.52 170.64 255.88 168.25 259.46 168.61" stroke="#2071B5" stroke-width="4.21" stroke-linecap="round" stroke-linejoin="round"/>
<path d="M258.15 320.04C260.69 319.34 263.44 319 265.51 317.16C267.6 315.31 268.04 310.25 266.4 307.6C265.91 306.81 265.53 306.13 265.47 305.13C265.4 303.76 264.34 302.74 263.28 302.03C259.39 299.45 255.39 297.04 251.36 294.68C248.33 292.91 248.03 292.69 245.29 293.91C240.83 295.9 239.07 296.18 240.58 297.95C245.1 303.25 250.52 307.3 257.52 308.62C259.58 309.01 262.25 307.15 264.2 306.47C264.72 306.29 264.5 306.41 265.09 306.23" stroke="#2071B5" stroke-width="4.21" stroke-linecap="round" stroke-linejoin="round"/>
<path d="M191.9 127.1C192.31 127.88 182.76 129 183 130.67C183.67 135.47 183.22 140.34 183.44 145.17C183.49 146.32 183.35 147.43 182.98 148.52" stroke="#2071B5" stroke-width="4.21" stroke-linecap="round" stroke-linejoin="round"/>
<path d="M222.69 252.03C218.4 253.91 215.6 255.38 212.69 256.96C211.16 256.21 210.5 254.83 210.46 253.36C210.34 248.62 208.73 244.19 207.73 239.64C207.31 237.73 206.58 236.94 205.23 235.61C203.28 233.69 202.8 234.01 202.15 235.5C201.57 236.8 200.8 238.92 200.16 240.19C199.03 242.43 197.79 246.42 196.79 249.78C196.37 251.21 195.72 255.5 194.19 255.58C192.71 255.03 188.47 255.98 188.02 254.76C185.83 248.82 185 240.61 182.98 234.61L180.08 223.46C179.13 224.72 176.85 227.17 175.52 228C168.6 232.34 163.3 237.5 161.56 236.8C158.62 235.6 157.28 234.25 155.58 231.94C154.76 230.83 166.22 213.11 166.24 211.42C166.26 209.64 166.46 207.04 164.68 206.97C163.42 206.92 162.14 206.85 160.89 206.98C157.12 207.39 153.06 208.94 150.07 206.89C148.91 206.1 147.77 203.61 148.08 202.05C148.55 199.62 153.28 197.04 155 195.58C158.22 192.85 162.53 189.92 165.67 187.07C168.11 184.85 165.59 183.59 162.9 181.52C160.69 179.81 158.26 178.43 155.96 176.87C153.2 175.01 151.19 172.98 151.67 169.24C151.85 167.84 152.19 166.44 152.19 165.01" stroke="#2071B5" stroke-width="4.21" stroke-linecap="round" stroke-linejoin="round"/>
<path d="M236.57 245.31C234.47 241.69 234.41 241.19 233.13 239.57C231.4 237.38 224.77 227.92 222.24 229.28M222.24 229.28C218.22 231.45 221.26 249.78 222.68 252.03L224.6 246.49L222.24 229.28Z" stroke="#2071B5" stroke-width="4.21" stroke-linecap="round" stroke-linejoin="round"/>
<path d="M177.12 351.1C179.45 346.21 184.01 339.74 188.35 336.4C189.35 335.63 190.12 336.13 190.59 337.46C191.87 341.09 191.96 344.9 192.58 348.63C193.06 351.54 191.87 355.15 193.37 357.92C194.25 359.55 196.29 359.5 197.91 359.79C200.58 360.28 203.26 360.01 205.94 360C209.93 359.98 213.9 359.77 217.76 358.67" stroke="#2071B5" stroke-width="4.21" stroke-linecap="round" stroke-linejoin="round"/>
<path d="M191.9 127.1C193.68 129.99 194.34 133.27 195.24 136.47C196.13 139.64 197.3 142.7 198.83 145.61C199.89 147.63 201.25 147.83 202.58 146.04C205.42 142.23 207.67 138.05 209.71 133.77C210.39 132.34 211.53 127.47 222.02 133.12" stroke="#2071B5" stroke-width="4.21" stroke-linecap="round" stroke-linejoin="round"/>
<path d="M246.54 149.36C246.04 150.29 238.35 163.18 237.63 163.91" stroke="#2071B5" stroke-width="4.21" stroke-linecap="round" stroke-linejoin="round"/>
<path d="M234.06 251.14C232.82 252.29 232.57 253.84 232.52 255.38C232.36 260.03 230.69 264.24 228.67 268.3C227.28 271.1 227.13 271.75 229.17 274.1C230.04 275.11 230.65 276.32 231.61 277.23C233.14 278.66 234.82 279.3 236.96 278.39C240.88 276.73 250.2 272.24 254.25 270.97C257.36 269.99 257.11 269.67 260.37 270.51C261.14 270.71 263.62 281.61 264.16 281.72" stroke="#2071B5" stroke-width="4.21" stroke-linecap="round" stroke-linejoin="round"/>
<path d="M222.02 133.13C221.7 138.05 221.25 142.96 220.61 147.85C220.36 149.73 220.59 150.88 222.46 151.43" stroke="#2071B5" stroke-width="4.21" stroke-linecap="round" stroke-linejoin="round"/>
<path d="M148.39 294.2C150.33 293.99 152.1 294.53 153.86 295.3C157.22 296.77 160.7 297.94 163.78 300C165.8 301.35 165.73 301.4 164.47 303.59C161.88 308.07 157.65 310.8 153.7 313.79C151.58 315.39 150.84 317.1 152.2 319.41C152.46 319.85 152.35 320.36 152.63 320.76" stroke="#2071B5" stroke-width="4.21" stroke-linecap="round" stroke-linejoin="round"/>
<path d="M235.18 140.49C232.12 143.86 228.16 146.23 225.14 149.64C224.79 150.04 223.53 151.65 222.46 151.42" stroke="#2071B5" stroke-width="4.21" stroke-linecap="round" stroke-linejoin="round"/>
<path d="M171.6 322.76C174.43 325.03 174.48 325.59 173.41 329.25C172.42 332.61 170.61 335.6 169.29 338.8C168.87 339.81 168.46 341.59 168.13 342.82C168.02 343.24 168.17 343.68 168.52 343.94C170.59 345.45 176.5 350.83 177.13 351.11" stroke="#2071B5" stroke-width="4.21" stroke-linecap="round" stroke-linejoin="round"/>
<path d="M265.5 183C251.47 141.53 221.03 129.57 219.51 129.01C215.81 127.64 206.6 126.04 202.69 125.36C200.39 124.96 191.28 124.65 181.63 127.99" stroke="#2071B5" stroke-width="4.21" stroke-linecap="round" stroke-linejoin="round"/>
<path d="M158.44 325.22C160.29 327.51 160.93 328.68 161.55 329.79C163.1 332.59 165.33 335.28 166.14 338.41C166.43 339.52 167.44 340.97 168.41 341.51" stroke="#2071B5" stroke-width="4.21" stroke-linecap="round" stroke-linejoin="round"/>
<path d="M182.76 148.52C179.87 146.02 168.93 145.18 165.37 143.56" stroke="#2071B5" stroke-width="4.21" stroke-linecap="round" stroke-linejoin="round"/>
<path d="M152.19 165.03C152.39 164.04 152.8 160.41 156.52 161.76C157.86 162.25 166.04 167.64 167.05 166.96C169.02 165.64 170.69 163.7 171.8 161.55C172.51 160.17 161.14 151.96 160.35 150.92C157.7 147.43 160 148.08 165.37 143.55" stroke="#2071B5" stroke-width="4.21" stroke-linecap="round" stroke-linejoin="round"/>
<path d="M241.87 276.13C241.5 274.77 241.99 273.42 242.16 272.12C243.03 265.65 243.01 259.06 244.74 252.69C244.97 251.86 244.77 250.91 244.77 249.96C241.42 248.65 237.54 250.7 234.06 251.13L212.68 256.96" stroke="#2071B5" stroke-width="4.21" stroke-linecap="round" stroke-linejoin="round"/>
<path d="M257.05 226.38C260 227.04 260.6 228.63 263.11 227C266.06 225.09 249.49 209.41 248.35 206.3C248.53 205.91 266.39 205.95 266.67 205.66C266.82 205.51 267.24 205.63 267.54 205.63L268.39 200.3L245.25 192.97C247.07 190.61 249.84 189.15 252.27 188.08C254.93 186.91 257.19 185.39 259.55 183.86C261.42 182.64 262.6 180.8 264.21 179.36" stroke="#2071B5" stroke-width="4.21" stroke-linecap="round" stroke-linejoin="round"/>
<path d="M295.64 234.63V244.45" stroke="#2071B5" stroke-width="4.21" stroke-linecap="round" stroke-linejoin="round"/>
<path d="M257.93 308.92C257.79 309.79 258 310.64 258.4 311.36C259.69 313.68 260.62 316.11 261.06 318.73" stroke="#2071B5" stroke-width="4.21" stroke-linecap="round" stroke-linejoin="round"/>
<path d="M280.47 202.06V210.54" stroke="#2071B5" stroke-width="4.21" stroke-linecap="round" stroke-linejoin="round"/>
<path d="M240.22 296.42C241.75 293.99 252.57 289.13 255.01 287.69C258.15 285.84 260.7 283.06 264.18 281.71L248.34 293.09" stroke="#2071B5" stroke-width="4.21" stroke-linecap="round" stroke-linejoin="round"/>
<path d="M122.96 294.87C119.14 295.82 118.25 297.76 117.86 300.45C117.37 303.91 119.05 307.24 121.62 308.48C123.74 309.5 127.16 308.17 128.54 305.8C131.52 300.67 128.84 295.2 123.19 294.87" fill="#FFDA00" fill-opacity="0.7"/>
<path d="M122.96 294.87C119.14 295.82 118.25 297.76 117.86 300.45C117.37 303.91 119.05 307.24 121.62 308.48C123.74 309.5 127.16 308.17 128.54 305.8C131.52 300.67 128.84 295.2 123.19 294.87" stroke="#2071B5" stroke-width="4.21" stroke-linecap="round" stroke-linejoin="round"/>
<path d="M286.94 176.41C283.32 177.41 281.85 180.18 281.65 183.55C281.48 186.39 282.76 188.72 285.36 190.26C288.57 192.16 291.42 190.98 293.16 187.77C295.51 183.45 293.72 176.13 287.16 176.4" fill="#FFDA00" fill-opacity="0.7"/>
<path d="M286.94 176.41C283.32 177.41 281.85 180.18 281.65 183.55C281.48 186.39 282.76 188.72 285.36 190.26C288.57 192.16 291.42 190.98 293.16 187.77C295.51 183.45 293.72 176.13 287.16 176.4" stroke="#2071B5" stroke-width="4.21" stroke-linecap="round" stroke-linejoin="round"/>
<path d="M201.71 376.3C196.53 379.33 195.35 385.43 199.27 389.23C200.8 390.71 202.46 392 204.84 391.25C207.61 390.38 209.19 388.33 209.68 385.66C210.03 383.75 209.81 381.76 208.9 379.85C207.44 376.8 205.03 375.98 201.94 376.3" fill="#FFDA00" fill-opacity="0.7"/>
<path d="M201.71 376.3C196.53 379.33 195.35 385.43 199.27 389.23C200.8 390.71 202.46 392 204.84 391.25C207.61 390.38 209.19 388.33 209.68 385.66C210.03 383.75 209.81 381.76 208.9 379.85C207.44 376.8 205.03 375.98 201.94 376.3" stroke="#2071B5" stroke-width="4.21" stroke-linecap="round" stroke-linejoin="round"/>
<path d="M201.71 90.2899C197.69 91.5799 196.46 94.8799 196.19 98.5499C195.97 101.65 197.41 104.27 199.94 106.11C201.7 107.39 204.75 106.93 206.4 105.47C210.37 101.97 210.29 93.5499 204.61 90.7399C203.76 90.3199 202.86 90.2099 201.93 90.2899" fill="#FFDA00" fill-opacity="0.7"/>
<path d="M201.71 90.2899C197.69 91.5799 196.46 94.8799 196.19 98.5499C195.97 101.65 197.41 104.27 199.94 106.11C201.7 107.39 204.75 106.93 206.4 105.47C210.37 101.97 210.29 93.5499 204.61 90.7399C203.76 90.3199 202.86 90.2099 201.93 90.2899" stroke="#2071B5" stroke-width="4.21" stroke-linecap="round" stroke-linejoin="round"/>
<path d="M251.58 322.61L257.17 339.71L248.29 345.24L240.18 326.29L241.8 324.29L264.18 318.1" stroke="#2071B5" stroke-width="4.21" stroke-linecap="round" stroke-linejoin="round"/>
<path d="M243.99 351.24L252.92 346.02L257.17 339.71" stroke="#2071B5" stroke-width="4.21" stroke-linecap="round" stroke-linejoin="round"/>
<path d="M235.17 342.8L235 353.59L230.15 360.09" stroke="#2071B5" stroke-width="4.21" stroke-linecap="round" stroke-linejoin="round"/>
<path d="M242.6 241.53L244.97 237.15L241.29 223.64" stroke="#2071B5" stroke-width="4.21" stroke-linecap="round" stroke-linejoin="round"/>
<path d="M263.11 227L266.19 220.99L248.34 206.3" stroke="#2071B5" stroke-width="4.21" stroke-linecap="round" stroke-linejoin="round"/>
<path d="M271.2 203.87L267.53 205.64L268.36 200.3L271.27 198.94L271.2 203.87Z" stroke="#2071B5" stroke-width="4.21" stroke-linecap="round" stroke-linejoin="round"/>
<path d="M271.27 198.94L246.06 192.03" stroke="#2071B5" stroke-width="4.21" stroke-linecap="round" stroke-linejoin="round"/>
</svg>
