<svg width="500" height="500" viewBox="0 0 500 500" fill="none" xmlns="http://www.w3.org/2000/svg">
<path d="M131.552 271.088V253.462L151.328 256.901L164.225 250.883L221.832 282.696L218.823 300.752L236.449 305.051L250.206 300.752L253.215 286.135L335.757 256.901L363.701 262.49L367.57 253.462L371.009 256.901C370.866 263.207 369.978 276.591 367.57 279.686C364.561 283.556 251.926 323.107 234.3 323.967C220.199 324.654 196.325 308.777 186.15 300.752L131.552 271.088Z" fill="#FFDA00" fill-opacity="0.7"/>
<path d="M235.778 128.059L217.857 120.624V139.117L234.825 145.79L235.778 128.059Z" fill="#FFDA00" fill-opacity="0.7"/>
<path d="M264.285 105.524C264.887 104.932 265.663 104.76 266.321 104.907L264.285 105.524C263.708 106.091 263.292 107.043 263.292 108.47V120.704V126.07L267.155 129.504V136.372L236.463 145.816L234.531 127.143L244.834 129.504L251.272 112.763L247.94 110.478L264.285 105.524Z" fill="#FFDA00" fill-opacity="0.7"/>
<path d="M248.738 381.819C233.911 383.332 223.144 376.398 219.614 372.741C218.857 372.741 217.118 373.346 216.21 375.767C215.302 378.188 218.101 382.828 219.614 384.845C218.353 399.092 216.588 429.477 219.614 437.042C223.396 446.498 233.609 451.793 248.738 452.55C263.868 453.306 276.728 445.363 282.024 437.042C287.319 428.721 282.024 385.98 283.915 381.819C285.428 378.49 284.545 374.38 283.915 372.741C278.367 375.137 263.565 380.306 248.738 381.819Z" fill="#FFDA00" fill-opacity="0.7"/>
<path d="M224.97 89.2891C220.69 90.1091 216.56 91.4691 212.37 92.6291C200.63 95.8791 188.85 98.9891 177.2 102.569C170.59 104.599 163.87 106.309 157.73 109.639C155.89 110.639 154.08 111.729 152.46 113.009C148.75 115.949 147.38 120.129 147.37 124.689C147.3 143.409 147.28 162.139 147.37 180.859C147.41 187.939 147.56 195.009 147.56 202.089C147.56 210.049 147.64 218.009 147.52 225.969C147.48 228.839 147.33 231.719 147.35 234.599C147.35 235.269 147.03 236.039 147.76 236.599C147.97 236.759 148.16 237.049 148 236.799C147.99 236.779 148.14 236.659 148.21 236.589" stroke="#2071B5" stroke-width="4.20561" stroke-linecap="round" stroke-linejoin="round"/>
<path d="M135.18 248.75C132.17 249.65 131 251.16 130.98 254.28C130.96 257.89 131.2 261.519 130.92 265.109C130.59 269.249 132.7 271.88 135.87 273.69C142.68 277.59 149.69 281.13 156.62 284.82C166.17 289.9 175.91 294.62 185.36 299.87C194.95 305.2 204.32 310.929 213.71 316.609C219.25 319.959 225.1 322.81 231.61 323.67C236.38 324.3 241.14 324.31 246 323.37C260.84 320.49 274.91 315.17 289.11 310.23C294.68 308.29 300.25 306.31 305.69 304.01C306.25 303.77 306.74 303.94 307.25 303.82" stroke="#2071B5" stroke-width="4.20561" stroke-linecap="round" stroke-linejoin="round"/>
<path d="M149.33 124.459C149.34 161.169 149.2 197.889 149.77 234.599" stroke="#2071B5" stroke-width="4.20561" stroke-linecap="round" stroke-linejoin="round"/>
<path d="M367.39 259.809C364.62 262.669 361.04 264.269 357.42 265.499C346.11 269.359 334.99 273.709 323.82 277.929C304.71 285.149 285.54 292.199 266.11 298.539C259.99 300.539 253.99 302.929 247.73 304.429C241.67 305.889 235.51 306.569 229.39 304.669C226.52 303.779 223.8 302.429 221.21 300.909C209.95 294.329 198.53 288.039 187.13 281.709C174.79 274.859 162.31 268.229 150 261.319C148.43 260.439 146.74 260.919 145.1 260.549C140.61 259.549 136.41 258.219 133.4 254.479" stroke="#2071B5" stroke-width="4.20561" stroke-linecap="round" stroke-linejoin="round"/>
<path d="M337.76 135.291C337.76 170.601 337.76 205.911 337.77 241.221C337.77 241.951 337.51 242.731 337.98 243.431" stroke="#2071B5" stroke-width="4.20561" stroke-linecap="round" stroke-linejoin="round"/>
<path d="M172.77 134.631V232.381" stroke="#2071B5" stroke-width="4.20561" stroke-linecap="round" stroke-linejoin="round"/>
<path d="M267.65 104.551C268.47 98.6707 268.19 92.7507 268.22 86.8607C268.27 78.0207 269.05 69.1207 267.97 60.3407C267.27 54.6307 264.58 52.2107 258.81 51.6907C257.76 51.6007 256.89 52.1107 255.93 52.3607C249.29 54.1307 242.73 56.1407 236.04 57.7107C232.93 58.4407 230.13 60.0707 227.63 62.1007C226.39 63.1007 225.85 64.5107 225.63 66.0707C225.23 68.8607 225.42 71.6707 225.42 74.4707C225.43 83.0207 225.11 91.5807 225.28 100.121C225.35 103.721 225.62 107.341 225.62 110.961C225.62 111.941 232.97 114.311 233.83 114.761" fill="#FFDA00" fill-opacity="0.7"/>
<path d="M267.65 104.551C268.47 98.6707 268.19 92.7507 268.22 86.8607C268.27 78.0207 269.05 69.1207 267.97 60.3407C267.27 54.6307 264.58 52.2107 258.81 51.6907C257.76 51.6007 256.89 52.1107 255.93 52.3607C249.29 54.1307 242.73 56.1407 236.04 57.7107C232.93 58.4407 230.13 60.0707 227.63 62.1007C226.39 63.1007 225.85 64.5107 225.63 66.0707C225.23 68.8607 225.42 71.6707 225.42 74.4707C225.43 83.0207 225.11 91.5807 225.28 100.121C225.35 103.721 225.62 107.341 225.62 110.961C225.62 111.941 232.97 114.311 233.83 114.761" stroke="#2071B5" stroke-width="4.20561" stroke-linecap="round" stroke-linejoin="round"/>
<path d="M268.53 86.4189C274.88 89.0189 281.38 91.2189 287.78 93.6989C298.41 97.8289 309.22 101.489 319.85 105.629C326.76 108.319 333.78 110.719 340.39 114.099C345.11 116.509 349.39 119.459 350.88 125.099C351.06 125.779 351.21 126.439 351.23 127.109C352.17 163.299 351.46 199.499 351.71 235.699C351.71 236.799 351.18 237.959 351.9 239.019" stroke="#2071B5" stroke-width="4.20561" stroke-linecap="round" stroke-linejoin="round"/>
<path d="M252.39 151V244.33C252.39 254.72 252.39 265.12 252.41 275.51C252.41 276.17 252.62 276.9 252.62 277.5" stroke="#2071B5" stroke-width="4.20561" stroke-linecap="round" stroke-linejoin="round"/>
<path d="M336.65 256.489C332.4 258.369 327.97 259.789 323.58 261.309C308.77 266.429 293.95 271.499 279.14 276.619C270.94 279.449 262.78 282.369 254.59 285.249C253.68 285.569 252.97 286.359 251.94 286.359" stroke="#2071B5" stroke-width="4.20561" stroke-linecap="round" stroke-linejoin="round"/>
<path d="M267.43 145.69C266.16 145.48 266.56 146.43 266.56 147.02C266.54 150.85 266.55 154.69 266.55 158.52V237.69" stroke="#2071B5" stroke-width="4.20561" stroke-linecap="round" stroke-linejoin="round"/>
<path d="M225.85 162.5C225.87 201.13 225.72 239.76 226.29 278.39" stroke="#2071B5" stroke-width="4.20561" stroke-linecap="round" stroke-linejoin="round"/>
<path d="M283.35 372.6C283.26 375.86 283.72 379.17 282.47 382.33C282.24 382.93 282.7 383.48 282.7 384.1C282.67 388.89 282.77 393.69 282.66 398.47C282.58 401.66 283.07 404.81 283.11 407.98C283.19 414.32 283.07 420.66 283.16 427C283.21 430.17 282.68 433.26 281.96 436.27C281.19 439.5 278.76 441.89 276.22 443.73C272.44 446.46 268.32 448.66 263.68 449.82C258.14 451.2 252.51 452.1 246.87 451.47C239.07 450.6 231.64 448.35 225.19 443.59C221.19 440.63 219.45 436.31 218.13 431.75" stroke="#2071B5" stroke-width="4.20561" stroke-linecap="round" stroke-linejoin="round"/>
<path d="M220.1 151C220.1 154.32 220.06 157.64 220.1 160.95C220.43 183.81 219.43 206.65 219.64 229.51C219.66 231.35 219.08 233.2 219.64 235.04" stroke="#2071B5" stroke-width="4.20561" stroke-linecap="round" stroke-linejoin="round"/>
<path d="M162.16 123.569C162.16 129.759 162.33 135.959 162.31 142.149C162.29 146.719 162.27 151.289 162.14 155.859C162.1 157.419 162.4 158.949 162.4 160.499C162.38 180.989 162.51 201.489 162.31 221.979C162.25 228.089 162.51 234.229 161.94 240.339" stroke="#2071B5" stroke-width="4.20561" stroke-linecap="round" stroke-linejoin="round"/>
<path d="M181.4 298.071C180.8 298.721 180.94 299.521 180.96 300.281C181.08 304.261 180.6 308.271 181.39 312.221C182.2 316.251 184.42 319.361 187.33 322.201C192.31 327.081 198.58 329.561 204.84 332.101C206.56 332.801 208.3 333.481 210.12 333.971C211.13 334.241 212.34 334.751 212.99 335.681C215.88 339.781 220.56 340.921 224.77 342.661C229.46 344.601 234.5 345.771 239.56 346.201C244.76 346.641 249.97 346.991 255.27 346.401C260.91 345.771 266.43 344.811 271.84 343.171C276.03 341.901 279.99 340.071 283.8 337.891C284.28 337.611 284.71 337.401 284.68 336.771" stroke="#2071B5" stroke-width="4.20561" stroke-linecap="round" stroke-linejoin="round"/>
<path d="M318.74 299.62C318.73 303.33 318.52 306.99 317.93 310.69C316.95 316.86 313.35 321.15 308.76 324.81C303.01 329.39 296.17 332.17 289.47 334.84C283.69 337.15 277.37 338.07 271.19 339.27C265.83 340.32 260.46 341.16 255.03 341.6C249.27 342.07 243.55 341.77 237.77 341.1C229.78 340.18 222.21 337.86 214.58 335.61C214.09 335.47 213.83 335.66 213.46 335.66" stroke="#2071B5" stroke-width="4.20561" stroke-linecap="round" stroke-linejoin="round"/>
<path d="M363.85 251.839C365.25 252.269 366.6 252.919 367.79 253.669C369.79 254.919 370.01 257.309 370.19 259.369C370.57 263.779 370.19 268.219 369.97 272.629C369.75 276.949 366.91 279.669 363.18 281.469C355 285.409 346.38 288.279 337.98 291.669C331.87 294.129 325.73 296.509 319.6 298.909C316.76 300.019 313.86 300.999 311 302.059C309.33 302.679 307.91 303.369 306.66 305.039C304.63 307.739 301.38 309.269 298.38 310.879C290.42 315.169 281.88 317.949 273.4 321.089C271.88 321.649 262.79 323.479 257.48 324.659C252.86 325.679 248.17 325.989 243.53 326.759" stroke="#2071B5" stroke-width="4.20561" stroke-linecap="round" stroke-linejoin="round"/>
<path d="M329.79 153.211C329.96 184.471 329.38 215.731 330.23 246.981" stroke="#2071B5" stroke-width="4.20561" stroke-linecap="round" stroke-linejoin="round"/>
<path d="M282.25 382.769C276.87 389.189 269.43 391.709 261.68 393.599C255.57 395.089 249.32 395.249 243.11 394.879C236.22 394.469 229.62 392.799 224.1 388.289C223.48 387.779 222.9 387.399 222.09 387.419" stroke="#2071B5" stroke-width="4.20561" stroke-linecap="round" stroke-linejoin="round"/>
<path d="M213.47 143.48C202.85 138.17 192.3 132.74 181.6 127.6C173.51 123.71 165.54 119.57 157.08 116.47C155.83 116.01 154.61 115.49 153.31 115.17" stroke="#2071B5" stroke-width="4.20561" stroke-linecap="round" stroke-linejoin="round"/>
<path d="M245.31 166.919C244.66 167.719 244.87 168.669 244.87 169.569C245 197.579 244.66 225.599 245.02 253.609C245.09 258.689 245.07 263.789 244.98 268.869C244.92 272.399 245.35 275.969 244.64 279.489" stroke="#2071B5" stroke-width="4.20561" stroke-linecap="round" stroke-linejoin="round"/>
<path d="M162.38 249.63C168.68 253.45 175.17 256.93 181.63 260.45C190.73 265.41 199.82 270.37 208.87 275.43C212.54 277.48 216.12 279.79 220.11 281.25" stroke="#2071B5" stroke-width="4.20561" stroke-linecap="round" stroke-linejoin="round"/>
<path d="M218.55 383.839C219.74 384.419 220.37 388.549 221.11 389.519C225.87 395.809 232.35 398.909 239.93 400.379C247.31 401.809 254.58 401.119 261.83 399.839C265.97 399.109 269.76 397.219 273.56 395.459" stroke="#2071B5" stroke-width="4.20561" stroke-linecap="round" stroke-linejoin="round"/>
<path d="M236.91 327.481C229.99 327.751 223.39 325.951 217.28 323.161C208.05 318.931 198.83 314.481 191.1 307.611C189.69 306.361 188.54 304.981 187.57 303.391C187.14 302.701 186.74 301.771 185.6 302.051" stroke="#2071B5" stroke-width="4.20561" stroke-linecap="round" stroke-linejoin="round"/>
<path d="M273.62 155.419C273.62 173.259 273.62 191.099 273.6 208.939C273.6 209.669 273.86 210.449 273.39 211.149" stroke="#2071B5" stroke-width="4.20561" stroke-linecap="round" stroke-linejoin="round"/>
<path d="M232.93 67.4009C233.23 68.1809 233.41 68.9709 233.38 69.8309C232.87 84.6409 233.28 99.4709 233.15 114.281" stroke="#2071B5" stroke-width="4.20561" stroke-linecap="round" stroke-linejoin="round"/>
<path d="M297.51 331.68C297.86 332.39 297.73 333.15 297.73 333.89C297.73 341.04 297.6 348.19 297.78 355.34C297.93 361.52 295.43 365.87 290.03 368.88C286.7 370.74 283.11 372.02 279.84 373.94C275.66 376.4 271.3 378.32 266.57 379.48C263.2 380.31 259.83 380.96 256.39 381.2C253.52 381.4 250.66 381.76 247.76 381.67C237.24 381.35 227.44 378.97 218.75 372.64C215.59 370.34 211.95 368.72 208.59 366.66C204.36 364.06 202.54 360.45 202.62 355.56C202.74 348.34 202.65 341.11 202.66 333.89C202.66 333.15 202.52 332.39 202.88 331.68" stroke="#2071B5" stroke-width="4.20561" stroke-linecap="round" stroke-linejoin="round"/>
<path d="M251.06 113.399C249.83 117.949 249.37 122.739 246.86 126.889C245.67 128.859 243.75 129.689 241.55 128.859C233.85 125.949 226.11 123.139 218.75 119.399C215.75 117.869 214.69 115.429 214.56 112.299C214.29 106.149 214.74 106.099 220.58 103.549C221.92 102.959 223.34 102.069 224.96 102.129" stroke="#2071B5" stroke-width="4.20561" stroke-linecap="round" stroke-linejoin="round"/>
<path d="M245.09 279.491C246.01 279.621 246.75 280.211 247.5 280.641C250.44 282.311 252.1 284.721 251.77 288.341C251.58 290.461 251.48 292.631 251.75 294.751C252.05 297.071 251.07 298.511 249.06 299.391C240.9 303.001 232.62 303.941 224.32 300.001C222.13 298.961 220.31 297.221 220.76 294.301" stroke="#2071B5" stroke-width="4.20561" stroke-linecap="round" stroke-linejoin="round"/>
<path d="M348.37 122.25C342.89 124.05 337.35 125.62 331.78 127.1C325.42 128.79 319.04 130.41 312.76 132.41C312.43 132.52 312.03 132.42 311.66 132.42" stroke="#2071B5" stroke-width="4.20561" stroke-linecap="round" stroke-linejoin="round"/>
<path d="M337.98 253.609C340.11 254.449 342.12 255.549 344.39 256.069C347.48 256.779 350.61 256.629 353.68 256.389C355.91 256.209 358.22 255.929 360.38 254.829C361.19 254.409 361.85 253.919 362.56 253.379C363.51 253.929 364.37 254.329 364.38 255.819C364.4 257.869 363.36 258.999 361.88 260.029C359.61 261.609 356.97 262.409 354.35 262.589C350.39 262.849 346.35 263.219 342.41 262.029C340.01 261.299 337.68 260.509 336.22 258.259" stroke="#2071B5" stroke-width="4.20561" stroke-linecap="round" stroke-linejoin="round"/>
<path d="M288.22 118.709C290.06 119.629 291.91 120.479 291.56 123.139C291.33 124.939 290.44 126.059 288.89 126.909C283.75 129.739 278.24 130.419 272.52 129.749C270.58 129.519 268.66 129.179 266.77 128.659" stroke="#2071B5" stroke-width="4.20561" stroke-linecap="round" stroke-linejoin="round"/>
<path d="M273.42 105.88C272.32 105.97 268.29 105.67 267.21 106.1C264.2 107.29 262.46 109.25 262.98 112.74C263.14 113.82 263.08 114.95 262.99 116.05C262.7 119.74 263.76 120.1 266.56 121.09C273.37 123.49 279.96 123.1 286.02 118.74C286.15 118.65 286.38 118.37 286.66 118.49" stroke="#2071B5" stroke-width="4.20561" stroke-linecap="round" stroke-linejoin="round"/>
<path d="M227.62 72.7104V103.67" stroke="#2071B5" stroke-width="4.20561" stroke-linecap="round" stroke-linejoin="round"/>
<path d="M236.91 167.8V272.19" stroke="#2071B5" stroke-width="4.20561" stroke-linecap="round" stroke-linejoin="round"/>
<path d="M275.61 345.169C275.61 354.379 275.61 363.599 275.61 372.809C275.61 373.839 275.55 374.869 275.61 375.909" stroke="#2071B5" stroke-width="4.20561" stroke-linecap="round" stroke-linejoin="round"/>
<path d="M251.28 292.98C248.7 296.68 244.66 297.39 240.66 298.03C238.41 298.39 236.13 298.71 233.81 298.53C230.38 298.26 227.12 297.25 223.88 296.24C222.92 295.94 221.95 295.14 221.43 294.09" stroke="#2071B5" stroke-width="4.20561" stroke-linecap="round" stroke-linejoin="round"/>
<path d="M232.93 349.151C232.93 358.511 232.93 367.871 232.93 377.241C232.93 377.981 233.07 378.741 232.71 379.451" stroke="#2071B5" stroke-width="4.20561" stroke-linecap="round" stroke-linejoin="round"/>
<path d="M276.72 134.189C281.83 133.099 286.74 131.439 291.31 128.869C292.18 128.379 292.85 127.609 293.52 126.879C295.49 124.729 295.37 121.659 293.06 119.839C291.35 118.489 289.34 117.609 287.11 117.379" stroke="#2071B5" stroke-width="4.20561" stroke-linecap="round" stroke-linejoin="round"/>
<path d="M338.2 243.88C337.97 247.86 337.56 251.85 338.22 255.82C338.46 257.26 339.44 258.16 340.84 258.72C347.63 261.41 354.34 260.56 360.95 258.19C362.42 257.66 363.15 256 363.19 254.28" stroke="#2071B5" stroke-width="4.20561" stroke-linecap="round" stroke-linejoin="round"/>
<path d="M224.74 346.5C224.74 355.57 224.74 364.63 224.74 373.7C224.74 374.44 224.88 375.2 224.52 375.91" stroke="#2071B5" stroke-width="4.20561" stroke-linecap="round" stroke-linejoin="round"/>
<path d="M147.34 236.36C144.18 237.12 140.91 237.38 138.02 239.18C136.46 240.15 135.88 241.35 135.85 242.99C135.83 244.54 135.7 246.09 135.59 247.63C135.37 250.66 135.7 251.57 138.5 252.92C143.01 255.08 147.73 255.66 152.65 254.51C154.65 254.04 156.69 253.68 158.61 252.93C160.87 252.04 162.45 250.6 162.17 247.86C162.07 246.9 162.41 245.96 162.4 244.99C162.35 240.74 160.55 238.46 156.41 237.46C153.86 236.85 151.31 236.36 148.67 236.58" stroke="#2071B5" stroke-width="4.20561" stroke-linecap="round" stroke-linejoin="round"/>
<path d="M264.33 56.3394C261.03 57.0194 257.85 58.1594 254.6 58.9794C248.73 60.4494 243 62.4094 237.12 63.8294C236.59 63.9594 236.21 64.5494 235.58 64.2994" stroke="#2071B5" stroke-width="4.20561" stroke-linecap="round" stroke-linejoin="round"/>
<path d="M269.2 238.131C269.2 247.121 269.22 256.121 269.16 265.111C269.16 265.711 268.83 265.071 268.31 266.881" stroke="#2071B5" stroke-width="4.20561" stroke-linecap="round" stroke-linejoin="round"/>
<path d="M216.56 342.739C216.56 351.369 216.56 359.989 216.54 368.619C216.54 369.349 216.8 370.129 216.33 370.829" stroke="#2071B5" stroke-width="4.20561" stroke-linecap="round" stroke-linejoin="round"/>
<path d="M283.35 341.19V369.06" stroke="#2071B5" stroke-width="4.20561" stroke-linecap="round" stroke-linejoin="round"/>
<path d="M135.62 252.729C137.3 257.719 141.8 257.759 145.8 258.179C150.65 258.699 155.38 257.819 159.75 255.419C159.93 255.319 160.46 254.789 160.83 255.379" stroke="#2071B5" stroke-width="4.20561" stroke-linecap="round" stroke-linejoin="round"/>
<path d="M251.06 351.809V376.579" stroke="#2071B5" stroke-width="4.20561" stroke-linecap="round" stroke-linejoin="round"/>
<path d="M244.43 279.71C240.63 277.8 236.54 277.99 232.49 278.19C228.53 278.39 225.12 280 222.32 282.82C221.56 283.59 221.08 284.51 221.19 285.69C221.45 288.42 220.28 291.12 220.98 293.87" stroke="#2071B5" stroke-width="4.20561" stroke-linecap="round" stroke-linejoin="round"/>
<path d="M287.11 120.681C284.1 124.071 279.41 124.561 275.38 125.061C272.44 125.421 269.38 125.481 266.55 124.231C264.93 123.511 264.04 122.931 263.54 122.361" stroke="#2071B5" stroke-width="4.20561" stroke-linecap="round" stroke-linejoin="round"/>
<path d="M286.58 108.871C286.71 109.951 283.88 112.061 282.92 112.531C277.9 114.981 272.71 115.021 267.44 113.601C265.87 113.181 264.89 111.681 263.45 110.971" stroke="#2071B5" stroke-width="4.20561" stroke-linecap="round" stroke-linejoin="round"/>
<path d="M284.24 214.69C285.74 214.52 285.1 215.64 285.11 216.24C285.13 230.47 285.11 244.7 285.16 258.92C285.16 259.52 285.12 260.95 286.01 262.76" stroke="#2071B5" stroke-width="4.20561" stroke-linecap="round" stroke-linejoin="round"/>
<path d="M267.43 137.28C262.7 138.29 258.19 140.11 253.5 141.29C251.04 141.91 248.73 143.07 246.2 143.48" stroke="#2071B5" stroke-width="4.20561" stroke-linecap="round" stroke-linejoin="round"/>
<path d="M214.79 144.36C219.2 146.45 223.32 149.11 227.84 150.99C233.44 153.33 239.17 154.07 245.09 152.32C245.29 152.26 245.53 152.32 245.75 152.32" stroke="#2071B5" stroke-width="4.20561" stroke-linecap="round" stroke-linejoin="round"/>
<path d="M362.97 253.39C363.36 250.08 363.54 246.69 363.02 243.46C362.74 241.7 360.61 240.47 358.55 239.86C355.95 239.09 353.6 238.8 350.75 239.48C347.72 240.2 344.67 240.8 341.72 241.87C340.57 242.29 339.57 242.91 338.63 243.66" stroke="#2071B5" stroke-width="4.20561" stroke-linecap="round" stroke-linejoin="round"/>
<path d="M222.75 416.83C228.01 422.5 234.7 425.16 242.21 426.12" stroke="#2071B5" stroke-width="4.20561" stroke-linecap="round" stroke-linejoin="round"/>
<path d="M287.11 120.479C286.55 118.059 286.84 115.599 286.95 113.179C287.25 106.389 285.28 107.119 279.81 106.269C276.01 105.679 274.65 105.949 273.66 105.859" stroke="#2071B5" stroke-width="4.20561" stroke-linecap="round" stroke-linejoin="round"/>
<path d="M218.11 119.809C217.62 122.529 217.94 125.269 217.91 127.989C217.85 133.299 217.89 138.609 217.89 143.909" stroke="#2071B5" stroke-width="4.20561" stroke-linecap="round" stroke-linejoin="round"/>
<path d="M258.8 406.77C255.21 406.63 251.82 408.1 248.18 407.96C245.24 407.85 242.5 407.27 239.78 406.33" stroke="#2071B5" stroke-width="4.20561" stroke-linecap="round" stroke-linejoin="round"/>
<path d="M250.18 77.1304C250.2 77.5704 249.7 77.8204 250.13 78.4904C253.8 84.1904 253.22 89.9704 250.14 95.6904C249.85 96.2204 249.72 96.9404 249.07 97.2604" stroke="#2071B5" stroke-width="4.20561" stroke-linecap="round" stroke-linejoin="round"/>
<path d="M217.89 372.381C218.06 375.921 217.16 379.511 218.35 382.991C219 384.901 218.17 386.711 217.99 388.511C217.68 391.671 217.25 394.761 219.03 397.571C220.16 399.351 220.2 401.651 221.87 403.121" stroke="#2071B5" stroke-width="4.20561" stroke-linecap="round" stroke-linejoin="round"/>
<path d="M235.36 127.33C234.86 132.12 235.27 136.91 235.14 141.71C235.11 142.96 235.14 144.22 235.14 145.47" stroke="#2071B5" stroke-width="4.20561" stroke-linecap="round" stroke-linejoin="round"/>
<path d="M256.81 413.731C254.81 413.501 253.03 414.631 251.06 414.621C247.7 414.611 244.37 414.431 241.1 413.531C240.33 413.321 239.5 413.181 238.67 413.291" stroke="#2071B5" stroke-width="4.20561" stroke-linecap="round" stroke-linejoin="round"/>
<path d="M251.28 112.76C248.97 112.04 247.5 112.7 245.31 113.18C241.66 113.98 238.05 115 234.25 114.73" stroke="#2071B5" stroke-width="4.20561" stroke-linecap="round" stroke-linejoin="round"/>
<path d="M252.39 420.37C246.37 420.33 240.46 419.49 234.7 417.72" stroke="#2071B5" stroke-width="4.20561" stroke-linecap="round" stroke-linejoin="round"/>
<path d="M267.87 445.139C262.29 447.109 256.54 447.999 250.62 447.789" stroke="#2071B5" stroke-width="4.20561" stroke-linecap="round" stroke-linejoin="round"/>
<path d="M222.09 284.129C223.86 288.049 227.7 288.419 231.17 289.159C234.82 289.939 238.54 290.159 242.23 289.029C243.04 288.779 245.82 287.639 245.82 287.639" stroke="#2071B5" stroke-width="4.20561" stroke-linecap="round" stroke-linejoin="round"/>
<path d="M214.79 223.32V239.02" stroke="#2071B5" stroke-width="4.20561" stroke-linecap="round" stroke-linejoin="round"/>
<path d="M215.01 181.96C214.66 188 214.84 194.05 214.79 200.09" stroke="#2071B5" stroke-width="4.20561" stroke-linecap="round" stroke-linejoin="round"/>
<path d="M267.43 361.1C267.43 365.15 267.45 369.21 267.41 373.26C267.41 373.77 267.8 374.48 266.99 374.81" stroke="#2071B5" stroke-width="4.20561" stroke-linecap="round" stroke-linejoin="round"/>
<path d="M345.94 269.981C346.44 273.731 346.05 277.501 346.15 281.261C346.2 283.251 346.15 285.241 346.15 287.231" stroke="#2071B5" stroke-width="4.20561" stroke-linecap="round" stroke-linejoin="round"/>
<path d="M268.53 91.0601C272.29 92.3101 275.99 93.7501 279.81 94.8201" stroke="#2071B5" stroke-width="4.20561" stroke-linecap="round" stroke-linejoin="round"/>
<path d="M161.94 250.96C163.09 252.29 162.15 253.63 161.66 254.69C159.73 258.82 155.92 259.99 151.77 260.47C151.23 260.53 150.59 260.26 150.22 260.91" stroke="#2071B5" stroke-width="4.20561" stroke-linecap="round" stroke-linejoin="round"/>
<path d="M340.63 246.32C343.43 248.78 346.83 249.21 350.36 249.2C353.09 249.19 355.75 248.8 358.32 247.87C359.59 247.41 360.95 247.03 360.75 245.22" stroke="#2071B5" stroke-width="4.20561" stroke-linecap="round" stroke-linejoin="round"/>
<path d="M243.1 447.351C239.15 447.571 235.64 445.961 232.04 444.701" stroke="#2071B5" stroke-width="4.20561" stroke-linecap="round" stroke-linejoin="round"/>
<path d="M241.33 145.25C240.1 145.01 239 145.65 237.8 145.74C233.59 146.04 229.78 144.8 226.08 143.03C225.42 142.72 224.9 142.1 224.09 142.15" stroke="#2071B5" stroke-width="4.20561" stroke-linecap="round" stroke-linejoin="round"/>
<path d="M222.31 409.31C223.38 411.97 225.85 413.04 228.07 414.38C229.2 415.06 230.42 415.58 231.6 416.16" stroke="#2071B5" stroke-width="4.20561" stroke-linecap="round" stroke-linejoin="round"/>
<path d="M159.5 244.769C156.84 246.639 153.77 246.849 150.66 247.279C147.19 247.769 144.09 246.999 140.9 245.909C138.73 245.169 138 243.789 138.26 241.669" stroke="#2071B5" stroke-width="4.20561" stroke-linecap="round" stroke-linejoin="round"/>
<path d="M209.48 99.249C206.29 99.599 203.37 101.059 200.19 101.459" stroke="#2071B5" stroke-width="4.20561" stroke-linecap="round" stroke-linejoin="round"/>
<path d="M337.54 126.011C338.05 128.951 337.61 131.911 337.76 134.861" stroke="#2071B5" stroke-width="4.20561" stroke-linecap="round" stroke-linejoin="round"/>
<path d="M298.83 136.399C296.24 136.749 293.79 137.639 291.32 138.429C290.84 138.579 290.42 138.499 289.98 138.609" stroke="#2071B5" stroke-width="4.20561" stroke-linecap="round" stroke-linejoin="round"/>
<path d="M214.79 201.42C215.09 204.37 215.16 207.32 214.79 210.27" stroke="#2071B5" stroke-width="4.20561" stroke-linecap="round" stroke-linejoin="round"/>
<path d="M225.85 152.321V160.721" stroke="#2071B5" stroke-width="4.20561" stroke-linecap="round" stroke-linejoin="round"/>
<path d="M224.52 401.349C227.09 402.979 229.7 404.539 232.48 405.769" stroke="#2071B5" stroke-width="4.20561" stroke-linecap="round" stroke-linejoin="round"/>
<path d="M253.27 427C250.62 426.93 247.95 427.18 245.31 426.78" stroke="#2071B5" stroke-width="4.20561" stroke-linecap="round" stroke-linejoin="round"/>
<path d="M214.79 215.129V222.869" stroke="#2071B5" stroke-width="4.20561" stroke-linecap="round" stroke-linejoin="round"/>
<path d="M217.66 392.85C217.39 393.01 217.42 417.24 217.45 417.49C217.74 419.77 217.9 428.91 217.89 431.2" stroke="#2071B5" stroke-width="4.20561" stroke-linecap="round" stroke-linejoin="round"/>
<path d="M193.56 103.671C191.06 103.701 188.94 105.251 186.48 105.441" stroke="#2071B5" stroke-width="4.20561" stroke-linecap="round" stroke-linejoin="round"/>
<path d="M257.25 444.03C254.96 444.86 252.5 444.54 250.17 445.14" stroke="#2071B5" stroke-width="4.20561" stroke-linecap="round" stroke-linejoin="round"/>
<path d="M258.58 148.339C256.12 148.529 254 150.079 251.5 150.109" stroke="#2071B5" stroke-width="4.20561" stroke-linecap="round" stroke-linejoin="round"/>
<path d="M231.16 410.64C233.27 411.78 235.81 411.84 237.79 413.29" stroke="#2071B5" stroke-width="4.20561" stroke-linecap="round" stroke-linejoin="round"/>
<path d="M319.18 281.921V293.861" stroke="#2071B5" stroke-width="4.20561" stroke-linecap="round" stroke-linejoin="round"/>
<path d="M316.08 108.979C313.85 107.979 311.81 106.589 309.45 105.879" stroke="#2071B5" stroke-width="4.20561" stroke-linecap="round" stroke-linejoin="round"/>
<path d="M257.25 432.311C255.03 432.271 252.88 433.461 250.62 432.751" stroke="#2071B5" stroke-width="4.20561" stroke-linecap="round" stroke-linejoin="round"/>
<path d="M263.54 122.349C263.15 122.319 262.4 123.519 261.89 125.309C262.12 126.549 262.99 127.439 264.34 127.759C266.05 128.159 266.78 129.079 266.57 130.879C266.43 132.119 266.54 133.379 266.54 134.639" stroke="#2071B5" stroke-width="4.20561" stroke-linecap="round" stroke-linejoin="round"/>
<path d="M171.89 235.479C170.27 239.639 170.73 241.56 174.1 244.77" stroke="#2071B5" stroke-width="4.20561" stroke-linecap="round" stroke-linejoin="round"/>
<path d="M235.14 442.04C232.9 441.79 231.1 440.32 228.95 439.83" stroke="#2071B5" stroke-width="4.20561" stroke-linecap="round" stroke-linejoin="round"/>
<path d="M275.17 441.379C273.12 442.209 271.49 443.909 269.2 444.259" stroke="#2071B5" stroke-width="4.20561" stroke-linecap="round" stroke-linejoin="round"/>
<path d="M218.33 139.501C219.69 139.461 220.51 140.871 221.87 140.831" stroke="#2071B5" stroke-width="4.20561" stroke-linecap="round" stroke-linejoin="round"/>
<path d="M263.67 120.03C263.68 121.14 263.54 121.43 263.45 122.24" stroke="#2071B5" stroke-width="4.20561" stroke-linecap="round" stroke-linejoin="round"/>
<path d="M251.28 74.9194C247.76 76.5194 246.34 79.7294 245.6 83.1194C244.83 86.6594 244.72 90.3094 245.5 93.9494C246.05 96.4894 247.68 98.0094 249.96 98.7494C251.31 99.1894 252.6 98.5994 253.73 97.5094C256.27 95.0494 256.96 91.8294 257.39 88.6294C257.79 85.6194 257.53 82.5394 256.59 79.5694C255.72 76.7994 253.89 75.0694 251.49 74.9294" stroke="#2071B5" stroke-width="4.20561" stroke-linecap="round" stroke-linejoin="round"/>
</svg>
