<svg width="500" height="500" viewBox="0 0 500 500" fill="none" xmlns="http://www.w3.org/2000/svg">
<path d="M111.494 203.15L150.54 164.104H166.295V168.899L161.5 175.749V187.394L178.626 192.874V214.11H111.494V203.15Z" fill="#FFDA00" fill-opacity="0.7"/>
<path d="M386.63 203.718L347.584 164.672H331.828V169.467L336.623 176.317V187.963L319.498 193.443V214.678H386.63V203.718Z" fill="#FFDA00" fill-opacity="0.7"/>
<path d="M368.344 411.671H130.021L140.912 424.484H357.453L368.344 411.671Z" fill="#FFDA00" fill-opacity="0.7"/>
<path d="M202.687 333.838L243.623 264.477L253.165 262.398L295.831 333.838L290.723 344.655H208.997L202.687 333.838Z" fill="#FFDA00" fill-opacity="0.7"/>
<path d="M368.5 214.33C368.5 216.7 368.52 219.07 368.5 221.44C368.48 222.9 368.87 223.73 370.26 224.76C375.11 228.38 380.13 231.8 384.77 235.69C387.88 238.29 391.21 240.57 394.46 242.96C395.53 243.75 395.83 244.53 395.83 245.76C395.8 273.9 395.9 302.05 395.73 330.19C395.69 336.46 395.82 342.73 395.81 349C395.8 354.51 395.53 360.01 395.59 365.52C395.59 366.2 395.55 366.87 395.75 367.6C396.2 369.22 395.48 370.7 393.95 371.21C385.85 373.94 377.86 377.02 369.41 378.59C369.11 378.65 369.49 378.56 369.18 378.59" stroke="#2071B5" stroke-width="4.20561" stroke-linecap="round" stroke-linejoin="round"/>
<path d="M129.89 224.659C124.73 228.179 119.78 231.979 114.75 235.679C111.48 238.079 108.32 240.629 104.87 242.759C103.49 243.609 103.25 244.739 103.25 246.219C103.28 286.599 103.29 326.979 103.23 367.359C103.23 369.299 103.79 370.399 105.57 371.039C113.55 373.889 121.55 376.709 129.89 378.369" stroke="#2071B5" stroke-width="4.20561" stroke-linecap="round" stroke-linejoin="round"/>
<path d="M177.609 158.35C178.099 149.33 177.739 140.3 177.839 131.28C178.009 115.37 177.719 99.47 178.009 83.56C178.129 77.24 177.119 71.07 173.289 65.64C169.589 60.4 164.499 57.67 158.339 56.73C152.539 55.84 146.729 56.38 140.899 56.64C134.179 56.94 127.439 56.71 120.709 56.71C114.269 56.71 107.829 56.26 101.449 55.69C89.8395 54.65 78.2495 53.31 66.7795 51.05C64.3195 50.56 61.8195 49.78 59.2195 50.06" stroke="#2071B5" stroke-width="4.20561" stroke-linecap="round" stroke-linejoin="round"/>
<path d="M438.48 50.1699C433.96 50.2999 429.59 51.4599 425.18 52.2599C417.12 53.7199 409 54.5499 400.86 55.3599C390.17 56.4199 379.47 56.6599 368.74 56.7799C360.62 56.8699 352.53 55.8799 344.42 56.2699C333.14 56.8099 323.92 63.7399 322.38 76.2199C322.15 78.1299 321.68 80.0199 321.7 81.9599" stroke="#2071B5" stroke-width="4.20561" stroke-linecap="round" stroke-linejoin="round"/>
<path d="M369.07 224.659C368.28 225.539 368.56 226.729 368.57 227.639C369.01 276.659 368.64 325.679 368.68 374.709C368.68 385.869 368.54 397.039 368.47 408.209C368.46 409.729 368.22 411.269 368.29 412.799C368.32 413.609 368.04 414.359 367.56 414.839C364.42 417.959 361.39 421.189 357.29 423.179C356.06 423.769 354.91 424.059 353.6 424.059C346.79 424.039 339.99 424.059 333.18 424.059H309.09C271.16 424.059 233.22 424.029 195.29 424.099C189.4 424.109 183.5 424.199 177.62 424.179C166.46 424.139 155.29 424.119 144.12 424.069C142.19 424.069 140.73 422.919 139.34 421.939C136.56 419.959 134.05 417.619 131.5 415.339C130.44 414.389 130.58 413.119 130.58 411.899C130.58 402.029 130.58 392.169 130.58 382.299V370.139" stroke="#2071B5" stroke-width="4.20561" stroke-linecap="round" stroke-linejoin="round"/>
<path d="M387.08 239.34C386.59 240.06 386.87 240.87 386.87 241.63C386.85 278.87 386.85 316.12 386.85 353.36V371.71" stroke="#2071B5" stroke-width="4.20561" stroke-linecap="round" stroke-linejoin="round"/>
<path d="M112 258.381C112.38 258.501 113.09 258.161 112.93 259.071C112.86 259.441 112.92 259.831 112.92 260.221V371.721" stroke="#2071B5" stroke-width="4.20561" stroke-linecap="round" stroke-linejoin="round"/>
<path d="M359.32 213.869V410.259" stroke="#2071B5" stroke-width="4.20561" stroke-linecap="round" stroke-linejoin="round"/>
<path d="M156.74 232.691C155.41 236.171 152.81 238.841 150.77 241.871C150.5 242.281 150.13 242.651 149.82 242.981C147.84 245.091 147.49 247.501 147.49 250.361C147.58 299.151 147.56 347.941 147.57 396.741C147.57 397.791 147.119 399.051 148.649 399.911C151.009 398.001 152.409 395.251 154.449 393.081C156.679 390.711 158.149 387.681 160.859 385.721C161.679 385.131 161.789 384.171 161.789 383.211C161.789 368.601 161.789 354.001 161.789 339.391V313.921C161.789 296.181 161.75 278.431 161.82 260.691C161.83 256.481 161.419 252.291 161.639 248.061C161.729 246.361 162.399 245.301 163.199 244.191C165.329 241.201 167.539 238.261 169.579 235.211C169.929 234.681 170.339 234.101 170.289 233.391" stroke="#2071B5" stroke-width="4.20561" stroke-linecap="round" stroke-linejoin="round"/>
<path d="M325.83 233.38C325.63 235.43 327.43 236.43 328.43 237.68C331.19 241.12 333.57 244.86 336.61 248.06C337.26 248.74 337.06 249.57 337.06 250.36C337.07 258.08 337.06 265.81 337.06 273.53C337.06 309.47 337.06 345.42 337.04 381.36C337.04 383.14 337.48 384.39 338.81 385.8C341.94 389.12 344.64 392.84 347.36 396.52C347.88 397.22 348.42 397.79 349.21 398.11" stroke="#2071B5" stroke-width="4.20561" stroke-linecap="round" stroke-linejoin="round"/>
<path d="M194.13 233.38C193.24 237.34 191.42 240.99 190.18 244.84C189.59 246.67 189.31 248.47 189.31 250.36C189.31 290.13 189.36 329.9 189.25 369.66C189.24 374.85 188.73 380.08 188.65 385.26C188.58 389.75 188.7 394.28 188.88 398.79C188.89 399.07 189.17 399.51 189.53 399.71" stroke="#2071B5" stroke-width="4.20561" stroke-linecap="round" stroke-linejoin="round"/>
<path d="M310.46 248.52C310.46 293.79 310.52 339.07 310.38 384.34C310.37 388.99 310.01 393.67 310.02 398.34C310.02 399.11 309.95 399.84 309.09 399.91C308.22 399.98 307.27 400.22 306.55 399.27C304.78 396.91 303.14 394.45 301.28 392.15C299.88 390.42 298.98 388.31 296.97 387.02C296.41 386.66 295.89 385.42 296.28 384.59C296.93 383.21 296.67 381.82 296.68 380.44C296.71 367.36 296.7 354.28 296.69 341.21C296.69 340.29 296.79 339.35 296.46 338.46" stroke="#2071B5" stroke-width="4.20561" stroke-linecap="round" stroke-linejoin="round"/>
<path d="M121.86 231.77C122.37 232.41 122.07 233.15 122.07 233.83C122.09 271.92 122.09 310 122.09 348.09V367.36" stroke="#2071B5" stroke-width="4.20561" stroke-linecap="round" stroke-linejoin="round"/>
<path d="M123.01 262.049C125.48 261.779 127.87 262.969 130.58 262.379V369.429" stroke="#2071B5" stroke-width="4.20561" stroke-linecap="round" stroke-linejoin="round"/>
<path d="M162.01 247.831C166.29 248.271 170.58 248.131 175.08 247.821C175.11 250.891 175.26 253.961 175.27 257.011C175.34 283.011 175.31 309.011 175.31 335.021C175.31 342.441 175.12 349.861 175.36 357.271C175.62 365.071 175.41 372.871 175.54 380.671C175.58 383.091 175.32 385.011 173.16 387.021C170.23 389.751 167.85 393.191 165.41 396.481C164.59 397.591 163.82 398.851 162.39 399.471C161.75 398.691 161.76 397.721 161.77 396.741C161.78 393.991 161.77 391.231 161.78 388.481C161.78 387.601 161.81 386.741 161.32 385.961" stroke="#2071B5" stroke-width="4.20561" stroke-linecap="round" stroke-linejoin="round"/>
<path d="M323.3 248.52C323.3 292.34 323.3 336.16 323.3 379.98C323.3 382.56 323.43 384.7 325.64 387.03C328.9 390.45 331.76 394.41 334.54 398.33C334.95 398.91 335.2 399.72 336.2 399.73C337.25 399.27 337.05 398.3 337.06 397.42C337.06 394.13 337.07 390.84 337.06 387.55C337.06 386.67 337.03 385.81 337.52 385.03" stroke="#2071B5" stroke-width="4.20561" stroke-linecap="round" stroke-linejoin="round"/>
<path d="M156.05 411.87C156.61 411.38 157.28 411.66 157.89 411.66C218.38 411.64 278.88 411.64 339.37 411.66C339.98 411.66 340.64 411.39 341.21 411.87" stroke="#2071B5" stroke-width="4.20561" stroke-linecap="round" stroke-linejoin="round"/>
<path d="M328.81 165.23C335.31 165.23 341.81 165.24 348.31 165.23C349.48 165.23 350.48 165.26 351.32 166.37C355.09 171.36 359.91 175.36 364.19 179.88C369.66 185.64 375.16 191.39 380.9 196.9C382.86 198.78 384.35 201.08 386.39 202.89C387.65 204.01 386.97 205.65 387.25 207.02C387.55 208.49 387.21 210.08 387.35 211.59C387.5 213.25 386.81 213.71 385.26 213.68C381.05 213.61 376.85 213.63 372.64 213.66C294.79 214.16 216.93 213.79 139.08 213.84C130.36 213.84 121.64 213.63 112.93 213.69C111.15 213.7 110.49 213.19 110.6 211.36C110.75 209 110.61 206.62 110.84 204.25C110.93 203.33 111.44 202.78 112.01 202.18C123.6 190.14 135.59 178.5 147.32 166.59C148.43 165.46 149.57 165.21 151.02 165.22C157.21 165.26 163.41 165.24 169.6 165.24" stroke="#2071B5" stroke-width="4.20561" stroke-linecap="round" stroke-linejoin="round"/>
<path d="M320.55 205.158C251.64 205.158 182.74 205.158 113.83 205.158C112.99 205.158 112.12 205.318 111.31 204.938" stroke="#2071B5" stroke-width="4.20561" stroke-linecap="round" stroke-linejoin="round"/>
<path d="M335.46 223.971C278.41 223.971 221.36 223.971 164.3 223.971C163.36 223.971 162.38 224.191 161.55 223.521" stroke="#2071B5" stroke-width="4.20561" stroke-linecap="round" stroke-linejoin="round"/>
<path d="M386.63 204.93C385.82 205.32 384.95 205.15 384.11 205.15C363.08 205.15 342.05 205.15 321.02 205.15" stroke="#2071B5" stroke-width="4.20561" stroke-linecap="round" stroke-linejoin="round"/>
<path d="M312.75 165.23C311.45 164.65 310.15 165.26 308.85 165.26C268.78 165.22 228.7 165.23 188.63 165.25C187.87 165.25 187.06 164.98 186.34 165.46" stroke="#2071B5" stroke-width="4.20561" stroke-linecap="round" stroke-linejoin="round"/>
<path d="M242.31 345.57C242.31 353.37 242.31 361.17 242.31 368.97C242.31 377.69 242.31 386.41 242.31 395.13C242.31 395.51 242.3 395.9 242.31 396.28C242.41 398.727 241.186 399.95 238.64 399.95C235.43 399.95 232.21 399.95 228.77 399.95C228.77 396.05 228.77 392.38 228.77 388.71C228.77 387.77 228.88 386.81 228.31 385.96" stroke="#2071B5" stroke-width="4.20561" stroke-linecap="round" stroke-linejoin="round"/>
<path d="M281.09 233.149C281.58 237.369 282.4 241.549 282.98 245.759C283.71 251.049 283.38 256.319 283.38 261.599C283.4 276.589 283.74 291.579 283.62 306.569C283.62 307.299 283.5 307.929 282.92 308.409" stroke="#2071B5" stroke-width="4.20561" stroke-linecap="round" stroke-linejoin="round"/>
<path d="M296.46 173.029H250.12" stroke="#2071B5" stroke-width="4.20561" stroke-linecap="round" stroke-linejoin="round"/>
<path d="M202.39 338.219C201.08 334.689 203.34 332.189 204.92 329.499C207.84 324.539 210.99 319.679 213.55 314.539C218 305.619 223.62 297.409 228.38 288.689C232.27 281.559 237.08 274.939 240.9 267.759C244.06 261.819 255.14 260.909 258.62 268.449C261.18 273.999 264.63 279.079 267.84 284.249C271.89 290.779 275.46 297.579 279.31 304.209C280.25 305.819 280.92 307.699 282.64 308.899C283.5 309.509 283.23 311.059 283.84 312.039C287.07 317.219 289.99 322.579 293.06 327.849C293.95 329.379 294.33 331.269 295.96 332.399C296.46 332.739 296.33 333.679 296.19 334.299C295.93 335.449 296.01 336.599 295.99 337.749" stroke="#2071B5" stroke-width="4.20561" stroke-linecap="round" stroke-linejoin="round"/>
<path d="M218.22 233.149C218.22 236.129 217.33 238.969 216.79 241.859C216 246.049 214.92 250.129 214.95 254.489C215.09 271.699 215.02 288.899 214.99 306.109C214.99 307.299 215.19 308.389 215.7 309.439" stroke="#2071B5" stroke-width="4.20561" stroke-linecap="round" stroke-linejoin="round"/>
<path d="M247.82 173.029H203.31" stroke="#2071B5" stroke-width="4.20561" stroke-linecap="round" stroke-linejoin="round"/>
<path d="M256.31 345.57V399.95C260.82 399.95 265.34 399.95 269.78 399.95C270.97 396.15 269.76 392.53 270.05 388.94C270.13 387.97 270 387.01 270.99 386.42" stroke="#2071B5" stroke-width="4.20561" stroke-linecap="round" stroke-linejoin="round"/>
<path d="M130.81 214.33C130.42 215.14 130.59 216.01 130.59 216.85C130.59 232.07 130.59 247.29 130.59 262.51" stroke="#2071B5" stroke-width="4.20561" stroke-linecap="round" stroke-linejoin="round"/>
<path d="M229.7 233.149C229.43 236.979 229.13 240.809 228.7 244.609C228.48 246.579 228.82 248.439 228.81 250.359C228.75 261.139 228.78 271.929 228.78 282.709C228.78 283.759 228.63 284.839 229.47 285.689" stroke="#2071B5" stroke-width="4.20561" stroke-linecap="round" stroke-linejoin="round"/>
<path d="M202.16 338.68C201.59 339.53 201.7 340.49 201.7 341.43C201.7 354.89 201.68 368.35 201.72 381.81C201.72 383.84 201.24 385.3 199.74 386.96C196.94 390.06 194.58 393.59 192.11 396.99C191.3 398.1 190.5 399.19 189.54 400.17" stroke="#2071B5" stroke-width="4.20561" stroke-linecap="round" stroke-linejoin="round"/>
<path d="M329.5 424.721C330.36 428.621 332.04 432.241 333.42 435.961C335.05 440.381 336.48 444.811 335.81 449.601C334.65 450.461 333.43 449.681 332.25 449.701C327.28 449.781 322.31 449.671 317.34 449.771C315.69 449.801 314.83 449.231 314.34 447.681C312.28 441.251 309.81 434.971 307.52 428.611C307.04 427.271 306.19 426.111 305.87 424.731" stroke="#2071B5" stroke-width="4.20561" stroke-linecap="round" stroke-linejoin="round"/>
<path d="M328.81 168.45C330.78 168.36 332.56 169.05 334.31 169.83C337.47 171.25 338.64 173.95 338.88 177.17C339 178.77 339 180.39 338.88 181.98C338.75 183.59 339.57 185.36 338.42 186.78C336.85 188.72 334.59 189.6 332.25 190.24C328.57 191.25 324.84 191.81 320.78 191.59V181.06C317.45 181.13 314.15 180.84 310.91 179.95C307.31 178.96 304.14 177.31 301.51 174.67C301.94 171.71 304.04 170.51 306.55 169.58C311.99 167.57 317.59 167.19 323.31 167.52C324.83 167.61 326.37 167.53 327.9 167.53" stroke="#2071B5" stroke-width="4.20561" stroke-linecap="round" stroke-linejoin="round"/>
<path d="M323.76 385.95C322.86 387.72 323.4 389.62 323.32 391.46C323.23 393.67 323.29 395.89 323.31 398.11C323.31 398.83 323.38 399.61 322.6 399.92C321.77 400.24 321.2 399.63 320.78 399.02C318.25 395.31 315.29 391.93 312.77 388.22C312.19 387.36 311.69 386.54 310.68 386.17" stroke="#2071B5" stroke-width="4.20561" stroke-linecap="round" stroke-linejoin="round"/>
<path d="M228.78 345.57C228.78 357.73 228.77 369.89 228.79 382.05C228.79 383.87 228.38 385.14 226.82 386.53C224.65 388.44 223.19 391.15 221.4 393.5C219.74 395.7 218.19 398.04 216.22 399.89C214.82 399.28 215.02 398.31 215.02 397.43C215.02 394.68 215.02 391.92 215.02 389.17V345.58" stroke="#2071B5" stroke-width="4.20561" stroke-linecap="round" stroke-linejoin="round"/>
<path d="M201.25 385.95C201.89 386.95 201.66 388.08 201.71 389.16C201.88 392.6 201.32 396.07 202.1 399.65C204.54 398.28 205.6 395.86 207.16 393.93C208.88 391.82 210.49 389.63 212.22 387.52C212.84 386.77 213.45 386.12 214.32 385.71" stroke="#2071B5" stroke-width="4.20561" stroke-linecap="round" stroke-linejoin="round"/>
<path d="M140.91 194.83C144 194.57 145.91 192.39 145.73 189.32C145.58 186.72 143.14 184.61 140.45 184.73C138 184.84 135.63 187.44 135.63 190.01C135.63 192.58 137.49 194.6 140.22 194.82C140.37 194.83 140.52 194.83 140.68 195.06" stroke="#2071B5" stroke-width="4.20561" stroke-linecap="round" stroke-linejoin="round"/>
<path d="M283.38 385.95C282.63 387.18 282.96 388.54 282.93 389.85C282.89 392.37 282.89 394.9 282.93 397.42C282.95 398.35 282.88 399.18 281.75 399.87C279.87 398.02 278.6 395.61 276.96 393.52C275.04 391.08 273.42 388.4 271.21 386.19C270.16 385.14 270.06 383.87 270.06 382.51C270.07 370.2 270.06 357.88 270.06 345.57" stroke="#2071B5" stroke-width="4.20561" stroke-linecap="round" stroke-linejoin="round"/>
<path d="M283.38 345.57C283.38 356.81 283.38 368.05 283.36 379.3C283.36 380.06 283.29 380.84 283.21 381.6C283.03 383.47 283.22 385.05 284.87 386.75C288.13 390.11 290.6 394.21 293.24 398.12C293.74 398.85 294.29 399.52 295 399.99C296.47 399.82 296.22 398.77 296.22 397.89C296.22 395.21 296.23 392.54 296.22 389.86C296.22 388.98 296.19 388.12 296.68 387.34" stroke="#2071B5" stroke-width="4.20561" stroke-linecap="round" stroke-linejoin="round"/>
<path d="M301.74 175.329C301.14 175.889 300.74 176.559 300.83 177.389C301.12 180.059 300.87 182.759 301.1 185.419C301.27 187.429 303.12 188.149 304.72 188.859C309.76 191.099 315.07 191.839 320.78 191.589V232.459" stroke="#2071B5" stroke-width="4.20561" stroke-linecap="round" stroke-linejoin="round"/>
<path d="M177.61 167.531C175.93 167.531 174.23 167.411 172.56 167.561C169.22 167.851 166.04 168.721 163.14 170.501C161.45 171.531 161.1 173.011 161.03 174.871C160.94 177.161 160.87 179.461 160.85 181.751C160.8 187.921 160.99 187.261 166.4 189.691C169.78 191.211 173.6 191.631 177.6 191.651V232.461" stroke="#2071B5" stroke-width="4.20561" stroke-linecap="round" stroke-linejoin="round"/>
<path d="M192.3 424.721C192.05 427.771 190.45 430.381 189.47 433.181C187.73 438.131 185.52 442.921 183.84 447.901C183.35 449.361 182.59 449.801 181.06 449.771C175.25 449.671 169.44 449.731 163.51 449.731C162.74 446.691 163.04 443.791 164.11 441.021C165.82 436.591 167.33 432.091 169.15 427.711C169.55 426.741 169.93 425.791 169.82 424.721" stroke="#2071B5" stroke-width="4.20561" stroke-linecap="round" stroke-linejoin="round"/>
<path d="M328.81 122.79C331.66 122.92 334.27 121.93 336.81 120.89C337.96 120.42 339.37 119.61 339.34 117.98C339.3 116.4 338.1 115.64 336.84 115C334.6 113.85 332.24 113.27 329.74 112.88C324.76 112.11 319.78 112.46 314.82 112.56C311.26 112.64 307.65 113.18 304.48 115.2C303.38 115.9 302.07 116.37 302.22 117.97C302.36 119.49 303.25 120.37 304.71 121C307.89 122.36 311.22 123.05 314.6 123.45C319.02 123.97 323.47 123.79 327.9 123.48" stroke="#2071B5" stroke-width="4.20561" stroke-linecap="round" stroke-linejoin="round"/>
<path d="M315.73 131.969C319.78 131.849 323.91 132.469 327.87 131.649C331.39 130.919 334.28 132.099 337.31 133.319C337.65 133.459 337.93 133.589 338.22 133.799C340.88 135.729 340.67 137.629 337.52 139.299C334.73 140.769 331.73 141.349 328.58 141.149" stroke="#2071B5" stroke-width="4.20561" stroke-linecap="round" stroke-linejoin="round"/>
<path d="M186.33 168.451C189.73 168.221 192.91 169.301 195.41 171.321C197.02 172.621 197.29 175.221 197.53 177.401C197.73 179.211 197.43 181.081 197.6 182.901C197.83 185.401 196.6 186.801 194.6 187.971C189.39 191.011 183.72 191.741 177.6 191.621C177.91 180.681 177.83 169.751 177.84 158.811" stroke="#2071B5" stroke-width="4.20561" stroke-linecap="round" stroke-linejoin="round"/>
<path d="M178.07 123.71C180.37 123.71 182.77 124.1 184.93 123.41C188.12 122.39 191.56 122.25 194.58 120.72C195.8 120.1 196.94 119.31 197.13 117.6C194.83 114.48 191.4 113.45 187.71 112.93C181.6 112.08 175.48 112.41 169.36 112.72C166.9 112.84 164.59 113.74 162.25 114.45C161.03 114.82 160.24 115.79 159.46 116.81C158.54 118.02 159.03 118.83 159.95 119.58C162.96 122 166.5 122.86 170.27 123.03" stroke="#2071B5" stroke-width="4.20561" stroke-linecap="round" stroke-linejoin="round"/>
<path d="M312.98 131.279C309.89 131.499 306.95 132.079 304.23 133.749C303.14 134.419 302.13 135.079 302.26 136.319C302.4 137.699 303.33 138.739 304.72 139.319C308.25 140.789 311.94 141.519 315.74 141.589C319.79 141.659 323.85 141.609 327.9 141.609" stroke="#2071B5" stroke-width="4.20561" stroke-linecap="round" stroke-linejoin="round"/>
<path d="M169.81 131.051C167.13 131.421 164.38 131.521 162.01 133.111C160.72 133.981 158.95 134.491 159.28 136.551C159.59 138.451 161.13 139.431 162.72 139.951C165.83 140.971 169.05 141.561 172.34 141.591C176.78 141.631 181.21 141.601 185.65 141.601" stroke="#2071B5" stroke-width="4.20561" stroke-linecap="round" stroke-linejoin="round"/>
<path d="M139.53 388.24C139.53 398.18 139.53 408.12 139.51 418.07C139.51 418.83 139.78 419.64 139.3 420.36" stroke="#2071B5" stroke-width="4.20561" stroke-linecap="round" stroke-linejoin="round"/>
<path d="M170.73 131.74C175.39 132.12 180.11 132.34 184.71 131.82C187.6 131.49 190.14 131.67 192.76 132.65C193.57 132.95 194.33 133.33 195.05 133.8C197.42 135.33 197.52 136.92 195.27 138.62C192.69 140.56 189.67 140.95 186.56 140.92" stroke="#2071B5" stroke-width="4.20561" stroke-linecap="round" stroke-linejoin="round"/>
<path d="M269.62 233.149C271.07 249.799 270.39 266.489 270.55 283.169C270.56 284.359 270.35 285.449 269.84 286.499" stroke="#2071B5" stroke-width="4.20561" stroke-linecap="round" stroke-linejoin="round"/>
<path d="M313.21 96.1795C310.97 96.7895 308.63 96.9995 306.52 98.1795C305.56 98.7195 304.74 99.3095 304.05 100.089C302.93 101.349 303.09 102.449 304.5 103.509C307.42 105.719 310.94 106.029 314.37 106.209C319.87 106.499 325.4 106.339 330.88 105.739C332.93 105.519 335.07 105.089 336.86 103.759C338.83 102.299 339.05 100.799 337.3 99.1595C335.37 97.3595 332.89 96.6395 330.42 96.2195C325.19 95.3395 319.88 95.7795 314.6 95.7095C314.13 95.7095 313.76 95.8295 313.45 96.1795" stroke="#2071B5" stroke-width="4.20561" stroke-linecap="round" stroke-linejoin="round"/>
<path d="M312.75 149.17C309.44 149.33 306.31 150.08 303.82 152.41C302.4 153.73 302.51 154.7 304.04 155.81C305.94 157.18 308.21 157.71 310.46 158.09C313.79 158.65 317.17 158.69 320.55 158.58" stroke="#2071B5" stroke-width="4.20561" stroke-linecap="round" stroke-linejoin="round"/>
<path d="M359.09 228.559C353.68 230.949 347.9 231.509 342.11 231.979C340.7 232.089 339.36 232.489 337.98 232.689" stroke="#2071B5" stroke-width="4.20561" stroke-linecap="round" stroke-linejoin="round"/>
<path d="M328.81 157.89C331.94 157.99 335 157.72 337.52 155.58C339.13 154.21 339.17 153.2 337.52 151.95C334.97 150.03 332.03 148.83 328.82 148.75C323.78 148.62 318.73 148.72 313.68 148.72" stroke="#2071B5" stroke-width="4.20561" stroke-linecap="round" stroke-linejoin="round"/>
<path d="M178.07 82.1797C179.7 83.1997 181.6 82.4097 183.38 82.9797C184.88 83.4597 185.09 84.1497 185.19 85.3897C185.44 88.5197 185.83 91.6497 185.6 94.7997C185.5 96.1597 186.14 96.2697 187.23 96.4497C189.66 96.8497 192.09 97.3697 194.12 98.9397C196.35 100.67 196.03 103.47 193.43 104.42C191.15 105.25 188.76 105.69 186.33 105.82" stroke="#2071B5" stroke-width="4.20561" stroke-linecap="round" stroke-linejoin="round"/>
<path d="M164.08 442.851C166.82 443.351 169.59 443.011 172.34 443.061C175.7 443.121 179.07 443.071 182.43 443.081C183.3 443.081 184.19 442.941 184.95 443.541" stroke="#2071B5" stroke-width="4.20561" stroke-linecap="round" stroke-linejoin="round"/>
<path d="M169.58 148.939C166.87 149.099 164.25 149.789 162.04 151.279C159.17 153.219 159.62 155.159 162.45 156.539C164.8 157.689 167.22 158.199 169.81 158.119" stroke="#2071B5" stroke-width="4.20561" stroke-linecap="round" stroke-linejoin="round"/>
<path d="M112.69 238.879C113.07 245.379 113.07 251.879 112.69 258.379" stroke="#2071B5" stroke-width="4.20561" stroke-linecap="round" stroke-linejoin="round"/>
<path d="M137.69 228.101C143.66 230.861 150.11 231.781 156.52 232.301C159.83 232.571 163.23 232.711 166.6 232.701C174.78 232.681 182.97 232.521 191.15 232.761C196.12 232.901 201.14 232.981 206.06 232.921C213.01 232.831 219.98 232.841 226.94 232.731C235.81 232.591 244.68 232.701 253.55 232.701C261.81 232.701 270.07 232.561 278.33 232.751C282.99 232.861 287.71 233.021 292.32 232.931C299.43 232.791 306.55 232.871 313.66 232.731C320.77 232.591 327.88 232.701 335 232.701C335.85 232.701 336.7 232.601 337.52 232.931" stroke="#2071B5" stroke-width="4.20561" stroke-linecap="round" stroke-linejoin="round"/>
<path d="M196.66 174.871C193.28 177.621 189.54 179.681 185.18 180.351C182.76 180.721 180.35 181.581 177.84 180.841" stroke="#2071B5" stroke-width="4.20561" stroke-linecap="round" stroke-linejoin="round"/>
<path d="M248.74 165.459V232.449" stroke="#2071B5" stroke-width="4.20561" stroke-linecap="round" stroke-linejoin="round"/>
<path d="M177.61 81.9492C176.71 82.5892 175.61 82.6692 174.63 82.5892C172.49 82.4292 171.64 83.6392 171.69 85.3892C171.78 88.8492 170.91 92.2592 171.18 95.7192" stroke="#2071B5" stroke-width="4.20561" stroke-linecap="round" stroke-linejoin="round"/>
<path d="M313.9 95.7202C313.59 92.4102 314.45 89.1602 314.42 85.8502C314.4 83.5302 315.32 82.7702 317.57 82.6702C320.39 82.5402 323.23 82.6202 326.06 82.6302C327.48 82.6302 327.79 83.5002 327.91 84.7002C328.27 88.3702 328.48 92.0302 328.12 95.7102" stroke="#2071B5" stroke-width="4.20561" stroke-linecap="round" stroke-linejoin="round"/>
<path d="M160.64 214.1C160.64 219.15 160.64 224.19 160.64 229.24C160.64 230.01 160.78 230.8 160.42 231.53" stroke="#2071B5" stroke-width="4.20561" stroke-linecap="round" stroke-linejoin="round"/>
<path d="M337.99 174.641C333.39 179.591 327.26 180.471 320.94 181.131C320.63 180.251 320.79 179.391 320.79 178.541C320.78 163.861 320.78 149.171 320.79 134.491C320.79 133.731 320.52 132.921 321 132.201" stroke="#2071B5" stroke-width="4.20561" stroke-linecap="round" stroke-linejoin="round"/>
<path d="M242.31 186.341H225.79" stroke="#2071B5" stroke-width="4.20561" stroke-linecap="round" stroke-linejoin="round"/>
<path d="M177.61 425.87C177.15 430.53 177.53 435.2 177.35 439.86C177.29 441.33 178.21 440.96 178.98 441.01" stroke="#2071B5" stroke-width="4.20561" stroke-linecap="round" stroke-linejoin="round"/>
<path d="M161.55 175.79C166.26 179.49 171.75 180.86 177.61 181.07" stroke="#2071B5" stroke-width="4.20561" stroke-linecap="round" stroke-linejoin="round"/>
<path d="M242.31 248.061C242.17 253.341 242.59 258.621 242.1 263.891C242.09 264.031 242.39 264.191 242.54 264.351" stroke="#2071B5" stroke-width="4.20561" stroke-linecap="round" stroke-linejoin="round"/>
<path d="M185.64 158.811C185.72 163.791 185.38 168.791 186.51 173.731C186.86 175.271 185.23 175.901 184.24 176.171C180.4 177.221 176.45 177.101 172.57 176.401C171.66 176.241 170.72 175.461 170.03 174.631" stroke="#2071B5" stroke-width="4.20561" stroke-linecap="round" stroke-linejoin="round"/>
<path d="M188.17 385.72C186.86 386.25 186.2 387.44 185.43 388.48C182.81 392.04 179.83 395.33 177.39 399.03C177.16 399.38 176.75 399.45 176.42 399.74C175.35 399.27 175.55 398.3 175.55 397.42C175.55 394.44 175.54 391.45 175.55 388.47C175.55 387.59 175.58 386.73 175.09 385.95" stroke="#2071B5" stroke-width="4.20561" stroke-linecap="round" stroke-linejoin="round"/>
<path d="M183.35 233.149C183.5 234.999 182.13 236.189 181.23 237.469C179.6 239.789 177.98 242.139 176.25 244.399C175.52 245.359 174.89 246.389 174.64 247.609" stroke="#2071B5" stroke-width="4.20561" stroke-linecap="round" stroke-linejoin="round"/>
<path d="M256.31 233.149C256.31 237.969 256.35 242.789 256.08 247.599" stroke="#2071B5" stroke-width="4.20561" stroke-linecap="round" stroke-linejoin="round"/>
<path d="M292.33 233.38C293.06 237.55 294.73 241.46 295.86 245.52C296.08 246.32 296.09 247.07 296.23 247.84" stroke="#2071B5" stroke-width="4.20561" stroke-linecap="round" stroke-linejoin="round"/>
<path d="M243 233.149C243.03 237.969 242.62 242.779 242.54 247.599" stroke="#2071B5" stroke-width="4.20561" stroke-linecap="round" stroke-linejoin="round"/>
<path d="M304.26 233.38C305.35 237.27 307.22 240.86 308.58 244.64C308.92 245.57 309.44 246.53 309.31 247.61" stroke="#2071B5" stroke-width="4.20561" stroke-linecap="round" stroke-linejoin="round"/>
<path d="M206.06 233.38C205.31 237.54 203.46 241.4 202.53 245.52C202.37 246.21 202.28 246.91 202.16 247.61" stroke="#2071B5" stroke-width="4.20561" stroke-linecap="round" stroke-linejoin="round"/>
<path d="M175.32 248.061H189.32" stroke="#2071B5" stroke-width="4.20561" stroke-linecap="round" stroke-linejoin="round"/>
<path d="M256.08 373.099C238.11 372.969 220.13 373.369 202.16 372.869" stroke="#2071B5" stroke-width="4.20561" stroke-linecap="round" stroke-linejoin="round"/>
<path d="M175.78 338.22C184.04 338.22 192.3 338.24 200.56 338.2C201.94 338.2 203.37 338.27 203.96 339.61C206.14 344.53 210.57 345.22 215.01 345.24C219.6 345.26 224.2 345.35 228.77 345.24C237.03 345.03 245.29 345.19 253.55 345.12C262.73 345.04 271.9 345.06 281.08 345.12C283.79 345.14 286.51 345.25 289.1 344.38C291.33 343.63 293.17 342.13 294.08 340.01C294.91 338.08 296.14 338.16 297.82 338.17C314.8 338.24 331.78 338.21 348.75 338.21" stroke="#2071B5" stroke-width="4.20561" stroke-linecap="round" stroke-linejoin="round"/>
<path d="M255.62 247.83C252.42 248.34 249.2 248.01 245.98 248.04C240.24 248.1 234.51 248.06 228.77 248.06" stroke="#2071B5" stroke-width="4.20561" stroke-linecap="round" stroke-linejoin="round"/>
<path d="M161.33 338.219H147.79" stroke="#2071B5" stroke-width="4.20561" stroke-linecap="round" stroke-linejoin="round"/>
<path d="M269.85 372.869C265.42 373.369 260.98 372.969 256.54 373.099" stroke="#2071B5" stroke-width="4.20561" stroke-linecap="round" stroke-linejoin="round"/>
<path d="M334.999 442.62C334.159 443.23 333.189 443.08 332.249 443.08C326.739 443.08 321.239 443.08 315.729 443.08C314.959 443.08 314.169 442.94 313.439 443.3" stroke="#2071B5" stroke-width="4.20561" stroke-linecap="round" stroke-linejoin="round"/>
<path d="M139.76 229.7C139.23 234.05 139.68 238.42 139.53 242.78" stroke="#2071B5" stroke-width="4.20561" stroke-linecap="round" stroke-linejoin="round"/>
<path d="M300.13 373.1H270.3" stroke="#2071B5" stroke-width="4.20561" stroke-linecap="round" stroke-linejoin="round"/>
<path d="M321.7 408.429C321.7 419.899 321.7 431.369 321.7 442.839" stroke="#2071B5" stroke-width="4.20561" stroke-linecap="round" stroke-linejoin="round"/>
<path d="M320.78 82.8711V106.041" stroke="#2071B5" stroke-width="4.20561" stroke-linecap="round" stroke-linejoin="round"/>
<path d="M335.69 247.6C334.99 247.68 334.39 248.07 333.63 248.09C325.98 248.23 318.34 247.97 310.68 248.19C306.65 248.3 302.58 248.2 298.52 248.05C297.88 248.03 297.29 248.2 296.68 248.29" stroke="#2071B5" stroke-width="4.20561" stroke-linecap="round" stroke-linejoin="round"/>
<path d="M173.49 372.639C166.83 372.599 160.17 372.999 153.53 372.209C152.1 372.039 150.63 372.179 149.17 372.179" stroke="#2071B5" stroke-width="4.20561" stroke-linecap="round" stroke-linejoin="round"/>
<path d="M174.63 338.449C170.5 338.069 166.37 338.069 162.24 338.449" stroke="#2071B5" stroke-width="4.20561" stroke-linecap="round" stroke-linejoin="round"/>
<path d="M215.93 247.83C220.06 248.21 224.19 248.21 228.32 247.83" stroke="#2071B5" stroke-width="4.20561" stroke-linecap="round" stroke-linejoin="round"/>
<path d="M282.92 247.83C282.1 248.14 281.24 248.06 280.4 248.06C273.52 248.06 266.63 248.06 259.75 248.06C258.45 248.06 257.14 248.13 255.85 247.83" stroke="#2071B5" stroke-width="4.20561" stroke-linecap="round" stroke-linejoin="round"/>
<path d="M177.159 412.101C177.639 415.301 177.349 418.531 177.329 421.741C177.329 422.511 177.439 423.271 177.379 424.031" stroke="#2071B5" stroke-width="4.20561" stroke-linecap="round" stroke-linejoin="round"/>
<path d="M189.77 247.83C193.74 248.33 197.72 247.93 201.7 248.06" stroke="#2071B5" stroke-width="4.20561" stroke-linecap="round" stroke-linejoin="round"/>
<path d="M248.74 412.101V423.801" stroke="#2071B5" stroke-width="4.20561" stroke-linecap="round" stroke-linejoin="round"/>
<path d="M366.67 411.641C361.24 411.641 355.81 411.631 350.38 411.661C349.77 411.661 349.11 411.391 348.54 411.871" stroke="#2071B5" stroke-width="4.20561" stroke-linecap="round" stroke-linejoin="round"/>
<path d="M320.78 106.5V131.74" stroke="#2071B5" stroke-width="4.20561" stroke-linecap="round" stroke-linejoin="round"/>
<path d="M159.95 102.37C161.76 105.09 164.8 105.13 167.53 105.77C168.42 105.98 169.37 106.04 170.27 106.27" stroke="#2071B5" stroke-width="4.20561" stroke-linecap="round" stroke-linejoin="round"/>
<path d="M139.53 214.1C139.53 217.92 139.53 221.75 139.53 225.57C139.53 226.34 139.67 227.13 139.31 227.86" stroke="#2071B5" stroke-width="4.20561" stroke-linecap="round" stroke-linejoin="round"/>
<path d="M170.27 112.921C170.5 113.071 170.51 113.231 170.51 113.381C170.49 118.581 170.5 123.781 170.51 128.981C170.51 131.431 169.97 133.871 170.51 136.321" stroke="#2071B5" stroke-width="4.20561" stroke-linecap="round" stroke-linejoin="round"/>
<path d="M329.039 372.641H310.689" stroke="#2071B5" stroke-width="4.20561" stroke-linecap="round" stroke-linejoin="round"/>
<path d="M170.27 167.529C170.27 161.329 170.27 155.129 170.27 148.719C175.09 148.719 180.38 148.519 185.64 148.799C188.41 148.949 191.2 149.659 193.71 151.189C194.82 151.859 195.78 152.609 195.91 153.779C196.06 155.169 194.85 155.739 193.7 156.329C191.94 157.229 190.09 157.589 188.18 157.919C182.23 158.939 176.26 158.619 170.28 158.359" stroke="#2071B5" stroke-width="4.20561" stroke-linecap="round" stroke-linejoin="round"/>
<path d="M319.859 185.42C316.589 185.74 313.429 184.83 310.219 184.5" stroke="#2071B5" stroke-width="4.20561" stroke-linecap="round" stroke-linejoin="round"/>
<path d="M313.439 96.4102C314.389 98.9602 313.939 101.63 313.819 104.21C313.699 106.89 313.759 109.57 313.659 112.24" stroke="#2071B5" stroke-width="4.20561" stroke-linecap="round" stroke-linejoin="round"/>
<path d="M268.47 186.341H258.83" stroke="#2071B5" stroke-width="4.20561" stroke-linecap="round" stroke-linejoin="round"/>
<path d="M313.44 112.921C314.43 115.391 314.03 118.011 313.8 120.481C313.54 123.331 313.86 126.151 313.75 128.981C313.52 135.011 313.31 141.061 313.43 147.101C313.52 152.221 313.47 157.351 313.43 162.471C313.43 164.151 313.16 165.841 313.43 167.521" stroke="#2071B5" stroke-width="4.20561" stroke-linecap="round" stroke-linejoin="round"/>
<path d="M186.33 113.148C186.03 116.288 185.75 119.438 186.56 122.558" stroke="#2071B5" stroke-width="4.20561" stroke-linecap="round" stroke-linejoin="round"/>
<path d="M328.58 113.148C328.6 113.478 328.33 113.698 328.33 114.068C328.37 119.348 328.33 124.618 328.33 129.898C328.33 130.428 328.45 130.878 328.8 131.278" stroke="#2071B5" stroke-width="4.20561" stroke-linecap="round" stroke-linejoin="round"/>
<path d="M145.95 263.43H136.77" stroke="#2071B5" stroke-width="4.20561" stroke-linecap="round" stroke-linejoin="round"/>
<path d="M328.58 96.6299C328.18 99.6899 328.25 102.75 328.58 105.81" stroke="#2071B5" stroke-width="4.20561" stroke-linecap="round" stroke-linejoin="round"/>
<path d="M337.76 214.1V232.91" stroke="#2071B5" stroke-width="4.20561" stroke-linecap="round" stroke-linejoin="round"/>
<path d="M148.94 411.871C143.36 411.351 137.77 411.781 132.19 411.641" stroke="#2071B5" stroke-width="4.20561" stroke-linecap="round" stroke-linejoin="round"/>
<path d="M191.15 372.869C194.12 373.329 197.12 372.959 200.1 373.099" stroke="#2071B5" stroke-width="4.20561" stroke-linecap="round" stroke-linejoin="round"/>
<path d="M188.86 372.641C184.5 373.191 180.14 372.601 175.78 372.641" stroke="#2071B5" stroke-width="4.20561" stroke-linecap="round" stroke-linejoin="round"/>
<path d="M328.35 131.971C328.35 138.781 328.34 145.581 328.35 152.391C328.36 158.361 328.13 164.321 328.1 170.291C328.1 171.581 328.51 172.751 328.81 173.961" stroke="#2071B5" stroke-width="4.20561" stroke-linecap="round" stroke-linejoin="round"/>
<path d="M215.7 183.589V186.339C217.68 186.339 219.67 186.339 221.67 186.339" stroke="#2071B5" stroke-width="4.20561" stroke-linecap="round" stroke-linejoin="round"/>
<path d="M186.1 132.201V148.491" stroke="#2071B5" stroke-width="4.20561" stroke-linecap="round" stroke-linejoin="round"/>
<path d="M149.85 248.291H158.34" stroke="#2071B5" stroke-width="4.20561" stroke-linecap="round" stroke-linejoin="round"/>
<path d="M329.5 173.949C327.24 176.569 324.2 176.959 321.01 176.929" stroke="#2071B5" stroke-width="4.20561" stroke-linecap="round" stroke-linejoin="round"/>
<path d="M122.09 367.819V376.079" stroke="#2071B5" stroke-width="4.20561" stroke-linecap="round" stroke-linejoin="round"/>
<path d="M186.33 149.4C186.07 152.16 185.71 154.93 186.56 157.66" stroke="#2071B5" stroke-width="4.20561" stroke-linecap="round" stroke-linejoin="round"/>
<path d="M313.21 168.45C313.93 170.48 313.08 172.31 312.42 174.26C314.59 176.89 317.56 176.95 320.55 176.94" stroke="#2071B5" stroke-width="4.20561" stroke-linecap="round" stroke-linejoin="round"/>
<path d="M358.409 370.801C355.789 370.661 353.239 371.581 350.609 371.261" stroke="#2071B5" stroke-width="4.20561" stroke-linecap="round" stroke-linejoin="round"/>
<path d="M379.51 367.131C376.92 367.801 374.45 368.971 371.71 368.971" stroke="#2071B5" stroke-width="4.20561" stroke-linecap="round" stroke-linejoin="round"/>
<path d="M185.87 123.711C186.23 126.221 185.66 128.821 186.56 131.281" stroke="#2071B5" stroke-width="4.20561" stroke-linecap="round" stroke-linejoin="round"/>
<path d="M137.69 246.91C140.83 247.02 143.94 247.62 147.1 247.37" stroke="#2071B5" stroke-width="4.20561" stroke-linecap="round" stroke-linejoin="round"/>
<path d="M178.07 167.3C180.5 167.81 182.97 167.39 185.41 167.53" stroke="#2071B5" stroke-width="4.20561" stroke-linecap="round" stroke-linejoin="round"/>
<path d="M178.53 106.27H185.64" stroke="#2071B5" stroke-width="4.20561" stroke-linecap="round" stroke-linejoin="round"/>
<path d="M328.12 158.35C325.75 158.47 323.38 158.68 321.01 158.58" stroke="#2071B5" stroke-width="4.20561" stroke-linecap="round" stroke-linejoin="round"/>
<path d="M185.19 95.4912C182.83 95.9712 180.45 95.6012 178.08 95.7212" stroke="#2071B5" stroke-width="4.20561" stroke-linecap="round" stroke-linejoin="round"/>
<path d="M171.19 136.33C169.8 136.25 170.3 137.3 170.29 137.94C170.25 140.69 170.27 143.45 170.27 146.2C170.27 146.97 170.36 147.75 170.04 148.49" stroke="#2071B5" stroke-width="4.20561" stroke-linecap="round" stroke-linejoin="round"/>
<path d="M170.73 96.4102C171.42 99.5502 170.53 102.68 170.73 105.82" stroke="#2071B5" stroke-width="4.20561" stroke-linecap="round" stroke-linejoin="round"/>
<path d="M328.35 106.27C328.06 108.26 327.93 110.25 328.35 112.24" stroke="#2071B5" stroke-width="4.20561" stroke-linecap="round" stroke-linejoin="round"/>
<path d="M186.1 96.6299C185.77 98.5399 185.7 100.45 186.1 102.37" stroke="#2071B5" stroke-width="4.20561" stroke-linecap="round" stroke-linejoin="round"/>
<path d="M186.79 102.369C186.11 102.299 185.78 102.589 185.87 103.289C186.28 106.259 186 109.259 186.1 112.239" stroke="#2071B5" stroke-width="4.20561" stroke-linecap="round" stroke-linejoin="round"/>
<path d="M144.58 382.28C141.74 382.55 138.99 382.03 136.33 381.09C135.68 380.86 135.09 381.02 134.48 380.9" stroke="#2071B5" stroke-width="4.20561" stroke-linecap="round" stroke-linejoin="round"/>
<path d="M342.349 372.18H332.709" stroke="#2071B5" stroke-width="4.20561" stroke-linecap="round" stroke-linejoin="round"/>
<path d="M170.959 123.48C173.179 123.59 175.389 123.81 177.609 123.71" stroke="#2071B5" stroke-width="4.20561" stroke-linecap="round" stroke-linejoin="round"/>
<path d="M359.32 412.101V416.231" stroke="#2071B5" stroke-width="4.20561" stroke-linecap="round" stroke-linejoin="round"/>
<path d="M170.039 168.45C170.579 170.16 170.129 171.83 169.809 173.5C169.709 174.01 169.539 174.43 168.889 174.07" stroke="#2071B5" stroke-width="4.20561" stroke-linecap="round" stroke-linejoin="round"/>
<path d="M353.819 338.68H350.609" stroke="#2071B5" stroke-width="4.20561" stroke-linecap="round" stroke-linejoin="round"/>
<path d="M133.11 369.89C131.68 370.23 130.38 369.38 128.98 369.43" stroke="#2071B5" stroke-width="4.20561" stroke-linecap="round" stroke-linejoin="round"/>
<path d="M359.32 418.979C359.34 419.669 359.21 420.389 359.55 421.039" stroke="#2071B5" stroke-width="4.20561" stroke-linecap="round" stroke-linejoin="round"/>
<path d="M340.05 223.51H337.99" stroke="#2071B5" stroke-width="4.20561" stroke-linecap="round" stroke-linejoin="round"/>
<path d="M321.24 185.419H323.08" stroke="#2071B5" stroke-width="4.20561" stroke-linecap="round" stroke-linejoin="round"/>
<path d="M121.63 348.781C121.02 349.081 120.41 349.401 119.79 349.701" stroke="#2071B5" stroke-width="4.20561" stroke-linecap="round" stroke-linejoin="round"/>
<path d="M169.81 172.119H167.97" stroke="#2071B5" stroke-width="4.20561" stroke-linecap="round" stroke-linejoin="round"/>
<path d="M354.05 184.74C351.66 185.8 350.34 187.4 350.3 190.25C350.27 192.43 351.78 194.05 353.38 194.81C354.97 195.57 356.98 194.94 358.42 193.46C359.62 192.22 360.29 189.35 359.55 187.96C358.45 185.89 356.92 184.38 354.29 184.74" stroke="#2071B5" stroke-width="4.20561" stroke-linecap="round" stroke-linejoin="round"/>
<path d="M344.18 410.95C341.69 412.73 341.01 414.26 342.13 415.76C343.02 416.95 344.19 417.69 345.79 417.38C347.31 417.08 347.78 415.85 348.05 414.62C348.38 413.11 347.39 412.24 346.28 411.37C345.63 410.86 345.04 411.05 344.41 410.96" stroke="#2071B5" stroke-width="4.20561" stroke-linecap="round" stroke-linejoin="round"/>
<path d="M152.38 410.95C149.82 412.21 148.72 413.7 149.43 415.29C149.96 416.47 150.73 417.38 152.37 417.44C154.06 417.5 155.28 416.9 155.74 415.51C156.15 414.27 155.98 412.82 154.68 411.85C154.04 411.38 153.5 410.78 152.61 410.94" stroke="#2071B5" stroke-width="4.20561" stroke-linecap="round" stroke-linejoin="round"/>
<path d="M248.6 339.742C248.6 339.742 248.55 339.482 248.49 339.062C248.45 339.062 248.41 339.062 248.37 339.062C248.29 339.062 248.21 339.062 248.13 339.062V339.732H209.92V340.192C210.5 340.012 211.27 340.662 211.55 340.662H248.13C248.13 340.662 248.16 340.662 248.38 340.662C248.57 340.662 248.6 340.662 248.6 340.662H283.08V339.732H248.6V339.742Z" fill="#2071B5"/>
<path d="M272.53 301.75L260.34 281.09L259.03 277.98L271.22 298.64L272.53 301.75Z" fill="#2071B5"/>
<path d="M208.23 338.56C205.55 335.55 208.66 330.26 211.03 327.84C209.68 331.58 206.45 334.22 208.23 338.56Z" fill="#2071B5"/>
<path d="M228.857 295.963L212.102 326.452L212.777 326.823L229.532 296.333L228.857 295.963Z" fill="#2071B5"/>
<path d="M246.84 281.621L236.88 312.161H248.02L244.85 334.231L260.77 302.271L248.72 302.341L254.56 281.161L246.84 281.621Z" fill="#F3F3F3" stroke="#2071B5" stroke-width="4.20561" stroke-linecap="round" stroke-linejoin="round"/>
</svg>
