<svg width="500" height="500" viewBox="0 0 500 500" fill="none" xmlns="http://www.w3.org/2000/svg">
<path d="M225.5 139.5C225.5 139.5 240.062 140.87 250.5 141C261.713 141.14 275.5 139.5 275.5 139.5V253C275.5 253 267.5 251.5 249.5 251.5C239.061 251.5 225.5 252.5 225.5 252.5V139.5Z" fill="#FFDA00" fill-opacity="0.7"/>
<path d="M277.46 126.18C280.5 125.3 283.63 124.82 286.7 124.07C296.02 121.77 304.61 117.95 312.47 112.44C316.76 109.43 320.55 105.92 323.43 101.49C328.05 94.3601 327.99 86.1601 322.12 79.3801C318.78 75.5201 314.54 72.8001 310.11 70.3301C296.27 62.6301 281.31 58.7701 265.65 57.2101C260.64 56.7101 255.64 56.3901 250.61 56.3901C238.12 56.4001 225.74 57.6301 213.68 60.9401C202.84 63.9201 192.44 68.1001 183.18 74.6601C179.25 77.4401 175.68 80.7401 173.97 85.3901C171.65 91.6901 172.48 97.7101 176.75 102.96C182.75 110.35 190.7 115.05 199.26 118.9C205.42 121.67 211.83 123.65 218.4 125.06C222.5 125.94 226.66 126.56 230.84 127.11C239.49 128.25 248.16 128.57 256.84 128.26C262.22 128.07 267.63 127.76 272.97 126.69C274.34 126.42 275.78 125.95 277.25 126.18" stroke="#2071B5" stroke-width="4.21" stroke-linecap="round" stroke-linejoin="round"/>
<path d="M220.11 344.19C220.11 354.86 220.11 365.53 220.11 376.19C220.11 381.77 220.24 387.36 220.09 392.94C219.68 408.4 220.01 423.87 219.93 439.33C219.93 441.15 219.8 443.01 220.94 444.72C222.49 447.05 224.97 448.2 227.63 447.49C230.5 446.73 232.19 444.11 232.19 441.69C232.12 410.55 232.14 379.4 232.14 348.26C232.14 347.32 232.07 346.38 232.35 345.47" fill="#FFDA00" fill-opacity="0.7"/>
<path d="M220.11 344.19C220.11 354.86 220.11 365.53 220.11 376.19C220.11 381.77 220.24 387.36 220.09 392.94C219.68 408.4 220.01 423.87 219.93 439.33C219.93 441.15 219.8 443.01 220.94 444.72C222.49 447.05 224.97 448.2 227.63 447.49C230.5 446.73 232.19 444.11 232.19 441.69C232.12 410.55 232.14 379.4 232.14 348.26C232.14 347.32 232.07 346.38 232.35 345.47" stroke="#2071B5" stroke-width="4.21" stroke-linecap="round" stroke-linejoin="round"/>
<path d="M346.83 243.24C347.33 240.98 347.47 238.67 347.47 236.37C347.48 192.34 347.55 148.31 347.38 104.28C347.36 99.0798 347.79 93.7198 346.37 88.6098C344.44 81.6398 340.18 76.1698 334.83 71.3898C327.35 64.6898 318.63 60.3098 309.25 57.0098C295.81 52.2898 281.93 49.7698 267.79 48.4198C262.43 47.9098 257.06 47.8598 251.68 47.7498C242.91 47.5798 234.18 47.9498 225.47 49.0598C216.46 50.2098 207.56 51.8898 198.84 54.4498C190.48 56.9098 182.42 60.1498 175.01 64.7698C168.7 68.7098 162.88 73.2898 158.49 79.3798C154.36 85.1198 152.71 91.6298 153.42 98.6898C153.51 99.5998 153.75 100.55 153.06 101.24C152.44 101.87 152.67 102.55 152.67 103.2C152.65 148.66 152.64 194.13 152.7 239.59C152.7 242.6 153.02 245.59 152.69 248.61C152.04 254.47 154.36 259.5 157.39 264.29C162 271.59 168.54 276.8 175.64 281.49C185.08 287.73 195.46 291.89 206.18 295.12C213.09 297.2 220.19 298.68 227.41 299.57C231.56 300.08 235.71 300.47 239.87 300.89C244.97 301.41 250.05 301.18 255.13 301.19C260.59 301.2 266.02 300.53 271.46 300.01C281.03 299.09 290.31 296.87 299.34 293.84C307.96 290.95 316.01 286.71 323.66 281.72C330.16 277.47 335.97 272.46 340.78 266.41C344.73 261.45 347.39 255.81 347.23 249.27C347.18 247.34 348.07 245.37 347.06 243.47C346.93 243.22 346.46 243.02 346.62 243.26C346.63 243.28 346.49 243.4 346.42 243.47" stroke="#2071B5" stroke-width="4.21" stroke-linecap="round" stroke-linejoin="round"/>
<path d="M165.98 116.09V150.89C165.98 186.47 165.98 222.06 165.98 257.64C165.98 258.59 166.18 259.57 165.56 260.43" stroke="#2071B5" stroke-width="4.21" stroke-linecap="round" stroke-linejoin="round"/>
<path d="M334.37 116.09C335.07 116.86 334.79 117.8 334.79 118.67C334.8 164.78 334.79 210.88 334.82 256.99C334.82 257.77 334.4 258.69 335.23 259.35" stroke="#2071B5" stroke-width="4.21" stroke-linecap="round" stroke-linejoin="round"/>
<path d="M157.82 107.5C157.19 108.12 157.4 108.91 157.4 109.65C157.4 154.68 157.34 207.02 157.29 252.05" stroke="#2071B5" stroke-width="4.21" stroke-linecap="round" stroke-linejoin="round"/>
<path d="M342.11 109.43C342.48 113.65 342.81 117.87 342.33 122.1C342.27 122.67 342.33 123.24 342.33 123.82V217.47C342.33 227.49 342.33 237.52 342.34 247.54C342.34 248.25 342.09 249.01 342.54 249.69" stroke="#2071B5" stroke-width="4.21" stroke-linecap="round" stroke-linejoin="round"/>
<path d="M313.33 119.53C317.43 117.76 320.89 114.99 324.5 112.44C328.29 109.77 331.44 106.55 333.53 102.35C336.43 96.5302 336.45 90.6402 333.94 84.7402C330.07 75.6602 322.65 70.0902 314.41 65.4102C302.33 58.5502 289.1 55.1302 275.53 53.0202C269.59 52.1002 263.55 51.6102 257.5 51.3902C254.92 51.3002 252.34 51.2602 249.77 51.2202" stroke="#2071B5" stroke-width="4.21" stroke-linecap="round" stroke-linejoin="round"/>
<path d="M341.25 266.65C343.97 270.07 345.39 274.15 346.32 278.27C347.67 284.25 347.74 290.37 347.28 296.51C346.6 305.56 342.92 313.17 336.75 319.72C330.28 326.58 322.27 330.99 313.77 334.78C303.98 339.16 293.62 341.45 283.24 343.71C282.17 343.94 280.97 344.11 279.82 343.98" stroke="#2071B5" stroke-width="4.21" stroke-linecap="round" stroke-linejoin="round"/>
<path d="M158.68 267.08C156.05 270.7 154.41 274.77 153.56 279.11C152.18 286.17 152.05 293.23 153.46 300.38C155.08 308.55 158.9 315.36 164.92 320.97C173.26 328.73 183.15 333.7 193.88 337.38C202.46 340.33 211.24 342.38 220.13 343.86C226.49 344.92 232.97 345.43 239.44 345.72C246.96 346.06 254.48 346.01 261.99 345.82C266.94 345.7 271.93 345.48 276.82 344.42C277.57 344.26 278.39 344.4 279.18 344.4" stroke="#2071B5" stroke-width="4.21" stroke-linecap="round" stroke-linejoin="round"/>
<path d="M267.36 345.69C267.36 373.97 267.38 402.25 267.32 430.53C267.32 433.29 269.08 435.87 271.86 436.77C274.23 437.54 277.16 436.65 278.71 434.38C279.7 432.94 279.79 431.15 279.79 429.46C279.82 411.13 279.95 392.8 279.72 374.48C279.65 369.04 279.81 363.6 279.69 358.15C279.6 354.3 279.78 347.82 279.7 343.95" fill="#FFDA00" fill-opacity="0.7"/>
<path d="M267.36 345.69C267.36 373.97 267.38 402.25 267.32 430.53C267.32 433.29 269.08 435.87 271.86 436.77C274.23 437.54 277.16 436.65 278.71 434.38C279.7 432.94 279.79 431.15 279.79 429.46C279.82 411.13 279.95 392.8 279.72 374.48C279.65 369.04 279.81 363.6 279.69 358.15C279.6 354.3 279.78 347.82 279.7 343.95" stroke="#2071B5" stroke-width="4.21" stroke-linecap="round" stroke-linejoin="round"/>
<path d="M164.69 273.96C160.86 278.31 158.14 283.35 157.28 289.01C156.22 295.97 157.35 302.68 162.12 308.32C167.42 314.59 174.14 318.86 181.68 321.81C187.54 324.11 193.44 326.3 199.48 328.12C206.06 330.09 212.72 331.59 219.46 332.84C231.19 335.02 243.01 336.11 254.9 335.72C260.26 335.55 265.67 335.6 271.03 334.64C273.73 334.16 276.71 334.25 279.35 333.69C283.15 332.88 286.99 332.01 290.8 331.19C299.39 329.33 307.66 326.58 315.67 323.08C322.71 320 329.43 316.21 335.21 311.08C341.19 305.77 348.46 292.72 335.02 273.74" stroke="#2071B5" stroke-width="4.21" stroke-linecap="round" stroke-linejoin="round"/>
<path d="M249.53 54.6598V51.2298C244.72 51.1898 239.93 51.4798 235.14 51.8798C226.63 52.5998 218.26 54.1598 210.01 56.3598C197.54 59.6998 185.77 64.4698 175.66 72.7098C171.35 76.2298 167.59 80.2698 165.57 85.5898C162.97 92.4398 164.1 98.8398 168.36 104.69C170.52 107.65 173.19 110.17 176.07 112.44" stroke="#2071B5" stroke-width="4.21" stroke-linecap="round" stroke-linejoin="round"/>
<path d="M185.96 107.07C183.43 104.81 180.99 102.57 179.46 99.3602C176.6 93.3502 177.52 86.9502 181.85 82.5502C185.31 79.0302 189.43 76.5102 193.7 74.2202C202.81 69.3502 212.55 66.3702 222.67 64.2302C233.63 61.9202 244.66 61.1902 255.76 61.5902C268.22 62.0402 280.47 63.9102 292.28 68.1802C300.25 71.0602 307.98 74.3602 314.61 79.7902C317.35 82.0402 319.81 84.4802 321.08 87.9402C323.22 93.8002 321.47 98.7502 317.61 103.19C312.45 109.13 305.61 112.58 298.49 115.4C287.95 119.56 276.92 121.74 265.65 122.76C260.36 123.24 255.06 123.45 249.75 123.39" stroke="#2071B5" stroke-width="4.21" stroke-linecap="round" stroke-linejoin="round"/>
<path d="M272.73 345.48V434.83" stroke="#2071B5" stroke-width="4.21" stroke-linecap="round" stroke-linejoin="round"/>
<path d="M313.97 136.71C313.53 136.66 313.18 136.81 313.11 136.89V265.58" stroke="#2071B5" stroke-width="4.21" stroke-linecap="round" stroke-linejoin="round"/>
<path d="M324.71 122.1C325.19 125.24 324.9 128.4 324.91 131.55C324.94 175.94 324.93 220.33 324.93 264.72C324.93 265.67 324.82 266.64 325.36 267.51" stroke="#2071B5" stroke-width="4.21" stroke-linecap="round" stroke-linejoin="round"/>
<path d="M153.74 100.41C155.12 101.64 155.54 103.45 156.51 104.93C158.74 108.33 161.52 111.18 164.68 113.74C175.47 122.5 187.92 128.02 201.02 132.12C206.9 133.96 212.93 135.54 219.05 136.42C224.25 137.17 229.44 137.96 234.71 138.29C240.58 138.66 246.44 139.16 252.33 139.06C257.78 138.98 263.24 138.72 268.64 138.13C271.5 137.82 274.45 137.81 277.24 136.92" stroke="#2071B5" stroke-width="4.21" stroke-linecap="round" stroke-linejoin="round"/>
<path d="M176.29 122.32C175.77 125.53 176.11 128.77 176.1 131.99C176.05 151.89 176.07 171.8 176.07 191.7V266.87" stroke="#2071B5" stroke-width="4.21" stroke-linecap="round" stroke-linejoin="round"/>
<path d="M249.73 301.27C249.74 312.63 249.74 323.99 249.74 335.35" stroke="#2071B5" stroke-width="4.21" stroke-linecap="round" stroke-linejoin="round"/>
<path d="M249.53 128.55C249.74 181.17 249.74 234.44 249.72 287.27" stroke="#2071B5" stroke-width="4.21" stroke-linecap="round" stroke-linejoin="round"/>
<path d="M306.02 90.7402H257.69" stroke="#2071B5" stroke-width="4.21" stroke-linecap="round" stroke-linejoin="round"/>
<path d="M295.07 78.2901C286.69 73.6401 277.62 71.2601 268.23 69.6501C259.45 68.1401 250.6 68.0401 241.81 68.5201C229.82 69.1701 218.11 71.5301 207.21 76.9801C205.19 77.9901 203.3 79.2001 201.42 80.4401" stroke="#2071B5" stroke-width="4.21" stroke-linecap="round" stroke-linejoin="round"/>
<path d="M346.4 101.27C344.82 101.97 344.84 103.72 344.07 104.94C339.96 111.48 334.07 116.15 327.68 120.11C318.34 125.89 308.19 130.05 297.63 132.98C291.95 134.56 286.17 135.94 280.26 136.54C279.41 136.63 278.57 137.01 277.68 136.93" stroke="#2071B5" stroke-width="4.21" stroke-linecap="round" stroke-linejoin="round"/>
<path d="M296.36 108.36C289.13 112.22 281.41 114.55 273.39 116.14C263.79 118.03 254.1 118.66 244.39 118.17C235.61 117.72 226.9 116.57 218.37 114.05C212.87 112.42 207.64 110.4 202.72 107.51" stroke="#2071B5" stroke-width="4.21" stroke-linecap="round" stroke-linejoin="round"/>
<path d="M176.94 113.08C186.35 119.6 196.62 124.23 207.65 127.28C213.17 128.8 218.76 129.82 224.4 130.75C234.09 132.36 243.82 132.93 253.62 132.83C260.61 132.76 267.53 132.11 274.46 131.17C281 130.28 287.42 128.95 293.78 127.24C300.34 125.48 306.68 123.15 312.68 119.94" stroke="#2071B5" stroke-width="4.21" stroke-linecap="round" stroke-linejoin="round"/>
<path d="M187.89 127.36C187.83 141.97 188.48 172.36 188.32 186.97" stroke="#2071B5" stroke-width="4.21" stroke-linecap="round" stroke-linejoin="round"/>
<path d="M223.12 255.27C218.61 255.86 214.21 256.96 209.8 258.06C199.84 260.55 190.57 264.65 181.89 270.11C181.62 270.28 181.23 270.5 181.24 270.95" stroke="#2071B5" stroke-width="4.21" stroke-linecap="round" stroke-linejoin="round"/>
<path d="M153.95 246.25C155.3 248.73 156.04 251.5 157.8 253.78C160.98 257.91 164.98 261.09 169.18 264.1C179.94 271.78 191.96 276.85 204.45 280.73C211.06 282.78 217.91 284.15 224.81 285.2C235.37 286.8 245.96 287.66 256.61 287.2C262.7 286.94 268.86 286.92 274.87 285.58C275.55 285.43 276.3 285.56 277.01 285.56" stroke="#2071B5" stroke-width="4.21" stroke-linecap="round" stroke-linejoin="round"/>
<path d="M186.82 107.5C191.4 111.11 196.68 113.42 202.08 115.43C214.34 119.97 227.12 122.11 240.09 123.15C243.15 123.39 246.24 123.56 249.32 123.4" stroke="#2071B5" stroke-width="4.21" stroke-linecap="round" stroke-linejoin="round"/>
<path d="M277.89 255.7C283.31 256.28 288.58 257.67 293.76 259.22C302.17 261.73 310.25 265.19 317.83 269.69C318.42 270.04 319.3 270.22 319.35 271.17" stroke="#2071B5" stroke-width="4.21" stroke-linecap="round" stroke-linejoin="round"/>
<path d="M188.11 315.84C200.81 322.02 214.36 325.18 228.27 327.01" stroke="#2071B5" stroke-width="4.21" stroke-linecap="round" stroke-linejoin="round"/>
<path d="M312.68 315.41C304.02 319.8 294.9 322.88 285.4 324.83C282.85 325.35 280.32 326.13 277.67 326.15" stroke="#2071B5" stroke-width="4.21" stroke-linecap="round" stroke-linejoin="round"/>
<path d="M345.97 243.89C344.83 245.77 344.43 247.97 343.42 249.92C340.16 256.17 335.17 260.84 329.62 264.91C319.57 272.27 308.45 277.62 296.55 281.21C291.01 282.88 285.3 284.03 279.6 285.12C279.05 285.23 278.46 285.13 277.88 285.13" stroke="#2071B5" stroke-width="4.21" stroke-linecap="round" stroke-linejoin="round"/>
<path d="M247.6 91.1699C242.97 93.2599 235.68 96.8199 233.63 97.8199C232.96 98.1499 232.53 98.6299 232.81 99.3199C233.11 100.08 234.06 99.9499 234.48 99.7199C239.04 97.1999 249.59 92.4699 250.18 92.2399" stroke="#2071B5" stroke-width="4.21" stroke-linecap="round" stroke-linejoin="round"/>
<path d="M277.24 136.92C277.24 164.56 277.45 181.67 277.45 209.3C277.45 223.69 277.49 238.08 277.43 252.47C277.4 258.98 277.7 265.5 277.3 272.02" stroke="#2071B5" stroke-width="4.21" stroke-linecap="round" stroke-linejoin="round"/>
<path d="M253.19 91.8202C262.79 86.8702 264.04 86.7002 267.19 84.6902C266.96 83.4502 266.55 83.2302 265.2 83.8202C261.11 85.5902 257.03 87.3802 252.98 89.2502C252.28 89.5702 253.28 89.2602 250.83 90.1102" stroke="#2071B5" stroke-width="4.21" stroke-linecap="round" stroke-linejoin="round"/>
<path d="M223.33 299.03V312.84" stroke="#2071B5" stroke-width="4.21" stroke-linecap="round" stroke-linejoin="round"/>
<path d="M223.33 179.88C223.25 193.57 223.38 207.26 223.52 220.94C223.66 234.65 223.81 248.37 223.75 262.08C223.72 269.81 223.62 277.53 223.42 285.26" stroke="#2071B5" stroke-width="4.21" stroke-linecap="round" stroke-linejoin="round"/>
<path d="M223.54 137.06C223.54 147.23 223.33 169.28 223.33 179.45" stroke="#2071B5" stroke-width="4.21" stroke-linecap="round" stroke-linejoin="round"/>
<path d="M188.53 189.12C188.06 198.64 188.43 208.16 188.32 217.69C188.32 218.2 188.23 218.73 188.53 219.19" stroke="#2071B5" stroke-width="4.21" stroke-linecap="round" stroke-linejoin="round"/>
<path d="M277.24 312.83C268.2 314.96 259.01 315.75 249.75 315.84" stroke="#2071B5" stroke-width="4.21" stroke-linecap="round" stroke-linejoin="round"/>
<path d="M277.03 255.27C273.65 255.04 270.31 254.51 266.94 254.17C264.72 253.94 262.49 253.68 260.28 253.62C256.7 253.52 253.13 253.2 249.54 253.34" stroke="#2071B5" stroke-width="4.21" stroke-linecap="round" stroke-linejoin="round"/>
<path d="M304.95 310.25C296.75 314.89 287.92 317.76 278.74 319.69C278.4 319.76 278.03 319.69 277.67 319.69" stroke="#2071B5" stroke-width="4.21" stroke-linecap="round" stroke-linejoin="round"/>
<path d="M277.03 221.76C272.51 221.43 268 220.99 263.49 220.51C260.72 220.21 257.9 220.28 255.11 220.15C250.05 219.9 244.95 219.89 239.86 220.23C235.64 220.51 231.43 220.93 227.19 220.91" stroke="#2071B5" stroke-width="4.21" stroke-linecap="round" stroke-linejoin="round"/>
<path d="M277.03 326.58C273.38 327 269.71 327.29 266.07 327.83C263.88 328.15 261.62 328.09 259.41 328.19C254.77 328.41 250.1 328.57 245.45 328.08" stroke="#2071B5" stroke-width="4.21" stroke-linecap="round" stroke-linejoin="round"/>
<path d="M277.03 320.14C273.78 320.38 270.59 321.04 267.37 321.49C261.51 322.31 255.63 322.3 249.75 322.29" stroke="#2071B5" stroke-width="4.21" stroke-linecap="round" stroke-linejoin="round"/>
<path d="M277.03 249.26C273.22 248.97 269.44 248.31 265.64 248.05C262.64 247.84 259.63 247.6 256.62 247.56C251.04 247.49 245.44 247.36 239.87 247.59C234.41 247.82 228.94 248.24 223.54 249.26" stroke="#2071B5" stroke-width="4.21" stroke-linecap="round" stroke-linejoin="round"/>
<path d="M186.17 80.0098C186.67 81.2798 186.38 82.5898 186.36 83.8798C186.26 91.4698 186.58 99.6998 186.25 107.29" stroke="#2071B5" stroke-width="4.21" stroke-linecap="round" stroke-linejoin="round"/>
<path d="M188.32 231.64V258.27" stroke="#2071B5" stroke-width="4.21" stroke-linecap="round" stroke-linejoin="round"/>
<path d="M207.44 307.68C211.6 309.31 215.73 310.94 220.1 312.03C225.63 313.42 231.18 314.5 236.86 315.02C241.01 315.4 245.15 315.83 249.32 315.83" stroke="#2071B5" stroke-width="4.21" stroke-linecap="round" stroke-linejoin="round"/>
<path d="M249.1 253.12C246.9 253.56 244.65 253.44 242.44 253.5C237.25 253.63 232.1 254.01 226.97 254.82C225.83 255 224.63 254.7 223.54 255.27" stroke="#2071B5" stroke-width="4.21" stroke-linecap="round" stroke-linejoin="round"/>
<path d="M277.89 249.69C283.51 250.2 288.99 251.44 294.43 252.91C297.23 253.67 300.02 254.48 302.81 255.27" stroke="#2071B5" stroke-width="4.21" stroke-linecap="round" stroke-linejoin="round"/>
<path d="M249.32 93.1099C249.68 93.8699 249.53 94.6799 249.53 95.4699C249.53 105.92 249.53 116.38 249.53 126.83" stroke="#2071B5" stroke-width="4.21" stroke-linecap="round" stroke-linejoin="round"/>
<path d="M223.12 249.26C214.99 250.34 207.1 252.43 199.28 254.84" stroke="#2071B5" stroke-width="4.21" stroke-linecap="round" stroke-linejoin="round"/>
<path d="M233.21 320.78C226.03 319.89 218.91 318.72 211.95 316.7C207.61 315.44 203.43 313.73 199.28 311.97" stroke="#2071B5" stroke-width="4.21" stroke-linecap="round" stroke-linejoin="round"/>
<path d="M170.71 279.33C170.11 280.42 169.25 281.31 168.55 282.33C164.23 288.64 163.89 295.15 167.51 301.87C167.71 302.24 167.98 302.52 167.91 302.96" stroke="#2071B5" stroke-width="4.21" stroke-linecap="round" stroke-linejoin="round"/>
<path d="M328.79 279.33C334.25 285.41 335.66 294.02 332.46 300.39C332.3 300.72 332.19 300.98 331.8 301.03" stroke="#2071B5" stroke-width="4.21" stroke-linecap="round" stroke-linejoin="round"/>
<path d="M179.73 296.72C182.31 297.06 184.65 297.89 186.39 299.94C187.64 301.42 187.88 303.79 186.81 305.3C183.95 309.35 174.27 310.5 171.13 305.53C169.98 303.71 170.02 301.6 171.35 299.93C173.07 297.77 175.48 297.21 178.02 296.93C178.52 296.87 179.06 297.02 179.52 296.71" fill="#FFDA00" fill-opacity="0.7"/>
<path d="M179.73 296.72C182.31 297.06 184.65 297.89 186.39 299.94C187.64 301.42 187.88 303.79 186.81 305.3C183.95 309.35 174.27 310.5 171.13 305.53C169.98 303.71 170.02 301.6 171.35 299.93C173.07 297.77 175.48 297.21 178.02 296.93C178.52 296.87 179.06 297.02 179.52 296.71" stroke="#2071B5" stroke-width="4.21" stroke-linecap="round" stroke-linejoin="round"/>
<path d="M324.28 296.72C322.38 297.09 320.42 297.05 318.66 298.17C317.62 298.84 316.77 299.6 316.13 300.59C314.9 302.5 315.37 304.95 317.19 306.6C319.71 308.88 326.34 309.25 329 307.24C333.52 303.83 331.67 299.46 327.95 297.73C326.8 297.2 325.61 297.14 324.49 296.71" fill="#FFDA00" fill-opacity="0.7"/>
<path d="M324.28 296.72C322.38 297.09 320.42 297.05 318.66 298.17C317.62 298.84 316.77 299.6 316.13 300.59C314.9 302.5 315.37 304.95 317.19 306.6C319.71 308.88 326.34 309.25 329 307.24C333.52 303.83 331.67 299.46 327.95 297.73C326.8 297.2 325.61 297.14 324.49 296.71" stroke="#2071B5" stroke-width="4.21" stroke-linecap="round" stroke-linejoin="round"/>
<path d="M249.53 61.75C249.53 69.91 249.53 78.07 249.51 86.24C249.51 86.95 249.77 87.71 249.31 88.39" stroke="#2071B5" stroke-width="4.21" stroke-linecap="round" stroke-linejoin="round"/>
<path d="M296.79 305.53C291 308.61 285.02 311.18 278.54 312.43C278.27 312.48 278.08 312.93 277.68 312.83" stroke="#2071B5" stroke-width="4.21" stroke-linecap="round" stroke-linejoin="round"/>
<path d="M268.86 210.59C260.27 210.28 251.69 209.35 243.09 209.79C239.8 209.96 236.51 210.17 233.21 210.16" stroke="#2071B5" stroke-width="4.21" stroke-linecap="round" stroke-linejoin="round"/>
<path d="M225.69 345.26C225.23 347.25 225.52 349.27 225.49 351.27C225.44 355.21 225.47 359.15 225.47 363.08" stroke="#2071B5" stroke-width="4.21" stroke-linecap="round" stroke-linejoin="round"/>
<path d="M250.32 92.2498C255.72 94.5598 260.49 97.8298 266.08 99.9798C266.51 99.9798 266.94 99.5498 266.94 99.5498C266.94 98.6898 266.08 98.2598 265.65 97.8298C261.35 96.1098 257.06 93.9598 253.19 91.8198" stroke="#2071B5" stroke-width="4.21" stroke-linecap="round" stroke-linejoin="round"/>
<path d="M250.66 89.97C245.89 87.53 240.73 85.38 236.01 83.23C235.58 83.23 234.33 84.03 235.15 84.52C240.44 87.67 243.91 89.46 247.59 91.05" stroke="#2071B5" stroke-width="4.21" stroke-linecap="round" stroke-linejoin="round"/>
<path d="M313.33 80.0098C312.85 83.3698 313.17 86.7398 313.13 90.1098C313.07 95.3398 313.13 100.56 313.1 105.79C313.1 106.18 313.24 106.51 313.33 106.86" stroke="#2071B5" stroke-width="4.21" stroke-linecap="round" stroke-linejoin="round"/>
<path d="M215.6 91.1699H201.85" stroke="#2071B5" stroke-width="4.21" stroke-linecap="round" stroke-linejoin="round"/>
<path d="M323.63 282.76C324.13 286.55 323.7 290.35 323.85 294.14C323.88 294.94 323.61 295.81 324.27 296.5" stroke="#2071B5" stroke-width="4.21" stroke-linecap="round" stroke-linejoin="round"/>
<path d="M277.24 299.73C277.6 300.49 277.45 301.3 277.45 302.09C277.45 312.61 277.45 323.14 277.45 333.66" stroke="#2071B5" stroke-width="4.21" stroke-linecap="round" stroke-linejoin="round"/>
<path d="M176.94 284.05V296.94" stroke="#2071B5" stroke-width="4.21" stroke-linecap="round" stroke-linejoin="round"/>
<path d="M225.48 364.38V376.84" stroke="#2071B5" stroke-width="4.21" stroke-linecap="round" stroke-linejoin="round"/>
<path d="M313.11 292.21C313.11 301.8 313.11 311.4 313.13 320.99C313.13 321.63 312.85 322.32 313.33 322.92" stroke="#2071B5" stroke-width="4.21" stroke-linecap="round" stroke-linejoin="round"/>
<path d="M277.46 274.6C277.46 278.3 277.46 281.99 277.46 285.69" stroke="#2071B5" stroke-width="4.21" stroke-linecap="round" stroke-linejoin="round"/>
<path d="M187.25 220.47C187.63 220.5 188 220.51 188.26 220.17C188.49 223.55 188.06 226.85 188.52 230.14C188.6 230.68 188 230.62 187.68 230.78" stroke="#2071B5" stroke-width="4.21" stroke-linecap="round" stroke-linejoin="round"/>
<path d="M225.48 394.02V403.9" stroke="#2071B5" stroke-width="4.21" stroke-linecap="round" stroke-linejoin="round"/>
<path d="M197.13 84.2998C193.01 89.0898 192.26 94.8498 195.84 101.05" stroke="#2071B5" stroke-width="4.21" stroke-linecap="round" stroke-linejoin="round"/>
<path d="M324.92 308.97C324.58 311.91 324.55 314.84 324.92 317.78" stroke="#2071B5" stroke-width="4.21" stroke-linecap="round" stroke-linejoin="round"/>
<path d="M216.89 222.62C214.52 222.48 212.3 223.29 210.03 223.74C209.44 223.86 208.87 223.79 208.3 223.9" stroke="#2071B5" stroke-width="4.21" stroke-linecap="round" stroke-linejoin="round"/>
<path d="M312.9 128.33C313.36 130.32 312.98 132.34 313.12 134.34C313.17 135.13 312.89 135.95 313.33 136.7" stroke="#2071B5" stroke-width="4.21" stroke-linecap="round" stroke-linejoin="round"/>
<path d="M176.94 308.97V317.99" stroke="#2071B5" stroke-width="4.21" stroke-linecap="round" stroke-linejoin="round"/>
<path d="M302.37 83.8701C304.8 86.9701 306.9 90.1801 306.7 94.4001C306.65 95.5101 305.97 96.4901 306.23 97.6201" stroke="#2071B5" stroke-width="4.21" stroke-linecap="round" stroke-linejoin="round"/>
<path d="M188.53 305.1C190.56 306.7 192.73 308.11 194.97 309.4" stroke="#2071B5" stroke-width="4.21" stroke-linecap="round" stroke-linejoin="round"/>
<path d="M249.32 322.28C247.1 322.43 244.87 322 242.66 322.49" stroke="#2071B5" stroke-width="4.21" stroke-linecap="round" stroke-linejoin="round"/>
<path d="M223.54 313.26C223.04 318.98 223.49 324.72 223.32 330.44C223.3 331.23 223.47 332.04 223.11 332.8" stroke="#2071B5" stroke-width="4.21" stroke-linecap="round" stroke-linejoin="round"/>
<path d="M308.38 295.65C306.69 297.69 304.83 299.55 302.8 301.23" stroke="#2071B5" stroke-width="4.21" stroke-linecap="round" stroke-linejoin="round"/>
<path d="M200.99 303.81C202.68 304.86 204.34 305.96 206.14 306.82" stroke="#2071B5" stroke-width="4.21" stroke-linecap="round" stroke-linejoin="round"/>
<path d="M277.03 179.24H273.59" stroke="#2071B5" stroke-width="4.21" stroke-linecap="round" stroke-linejoin="round"/>
<path d="M222.9 221.76H220.32" stroke="#2071B5" stroke-width="4.21" stroke-linecap="round" stroke-linejoin="round"/>
<path d="M279.6 211.88H277.45" stroke="#2071B5" stroke-width="4.21" stroke-linecap="round" stroke-linejoin="round"/>
<path d="M223.12 211.45H221.19" stroke="#2071B5" stroke-width="4.21" stroke-linecap="round" stroke-linejoin="round"/>
<path d="M315.26 314.12C314.69 314.4 314.12 314.7 313.54 314.98" stroke="#2071B5" stroke-width="4.21" stroke-linecap="round" stroke-linejoin="round"/>
</svg>
