<svg width="500" height="500" viewBox="0 0 500 500" fill="none" xmlns="http://www.w3.org/2000/svg">
<path d="M378.242 318.414C380.652 318.604 383.072 319.354 387.552 318.454C396.012 316.754 403.862 312.724 411.532 308.754C417.192 305.824 422.072 301.774 426.352 296.964C431.802 290.824 436.262 284.084 439.722 276.674C442.562 270.574 444.452 264.164 445.742 257.544C446.562 253.374 447.402 249.174 447.772 244.974C448.262 239.434 448.662 233.834 448.292 228.254C448.052 224.654 447.752 221.064 447.422 217.464C446.972 212.584 446.192 207.734 445.182 202.944C443.402 194.474 440.632 186.254 437.232 178.314C434.092 170.974 430.202 163.964 425.632 157.384C420.802 150.434 415.562 143.824 409.372 137.984C398.202 127.464 385.592 119.344 370.822 114.934C365.682 113.404 360.392 112.424 354.992 111.934C349.762 111.464 344.572 111.594 339.352 111.784" stroke="#2071B5" stroke-width="4.20561" stroke-linecap="round" stroke-linejoin="round"/>
<path d="M362.774 332.284C364.441 333.404 366.051 334.368 367.604 335.174C377.204 340.174 386.924 344.964 396.474 350.074C397.804 350.784 398.084 351.424 398.104 352.974C398.144 356.274 397.644 359.584 398.184 362.884C398.404 364.244 398.134 365.264 396.484 366.024C380.504 373.314 363.614 379.794 347.624 387.054C330.614 394.784 314.504 403.334 297.384 410.834C281.854 417.634 263.174 424.764 247.644 431.564" stroke="#2071B5" stroke-width="4.20561" stroke-linecap="round" stroke-linejoin="round"/>
<path d="M114.906 193.38C119.706 191.86 124.536 190.69 129.656 190.69C137.206 190.69 144.076 192.95 150.546 196.5C162.026 202.8 171.656 211.41 180.026 221.37C190.956 234.39 199.456 248.95 205.766 264.72C209.216 273.35 211.636 282.33 213.116 291.55C214.096 297.62 214.826 303.69 215.386 309.82C216.216 318.96 215.606 327.97 213.906 336.89C211.776 348.02 208.716 363.07 201.956 374.27C200.656 376.43 199.006 379.55 197.216 381.34C195.636 382.93 191.286 385.94 188.036 387.06" stroke="#2071B5" stroke-width="4.20561" stroke-linecap="round" stroke-linejoin="round"/>
<path d="M101.707 284.064C101.157 281.304 100.917 278.494 100.867 275.694C100.767 269.534 100.547 263.344 101.287 257.204C102.477 247.344 105.067 238.054 112.717 231.014C117.177 226.904 122.437 224.844 128.557 224.584C139.687 224.114 148.857 228.524 157.187 235.394C168.027 244.344 174.817 256.124 180.477 268.654C184.807 278.234 187.307 288.364 188.397 298.804C189.687 311.164 188.737 323.334 183.767 334.884C180.347 342.834 175.367 349.404 166.647 352.324C159.727 354.644 153.037 353.734 146.397 351.384C145.197 350.964 144.057 350.344 142.867 349.874" fill="#FFDA00" fill-opacity="0.7"/>
<path d="M101.707 284.064C101.157 281.304 100.917 278.494 100.867 275.694C100.767 269.534 100.547 263.344 101.287 257.204C102.477 247.344 105.067 238.054 112.717 231.014C117.177 226.904 122.437 224.844 128.557 224.584C139.687 224.114 148.857 228.524 157.187 235.394C168.027 244.344 174.817 256.124 180.477 268.654C184.807 278.234 187.307 288.364 188.397 298.804C189.687 311.164 188.737 323.334 183.767 334.884C180.347 342.834 175.367 349.404 166.647 352.324C159.727 354.644 153.037 353.734 146.397 351.384C145.197 350.964 144.057 350.344 142.867 349.874" stroke="#2071B5" stroke-width="4.20561" stroke-linecap="round" stroke-linejoin="round"/>
<path d="M191.304 95.5648C187.924 96.9148 170.404 101.675 166.934 102.855C165.634 103.295 165.514 103.865 165.524 104.915C165.554 107.625 165.544 110.345 165.524 113.055C165.524 114.045 165.664 114.565 166.814 115.115C171.024 117.145 175.364 118.875 179.654 120.685C187.324 123.915 195.034 127.055 202.744 130.205C216.464 135.815 230.294 141.165 244.134 146.485C245.514 147.015 246.894 147.595 248.284 148.105C250.994 149.085 253.214 147.625 255.554 146.925C263.294 144.615 270.954 142.065 278.664 139.655C287.344 136.935 295.964 134.025 304.644 131.295C310.524 129.435 316.444 127.665 322.264 125.595C327.384 123.775 332.434 121.755 337.684 120.345C338.654 120.085 339.024 119.545 339.014 118.575C338.984 116.445 339.094 114.315 338.954 112.195C338.904 111.455 339.044 110.625 337.714 110.135C326.294 105.885 314.854 101.685 303.334 97.6948C289.344 92.8548 275.494 87.6148 261.304 83.3448C257.304 82.1348 253.454 80.4948 249.454 79.2748C247.974 78.8248 246.794 79.1348 245.694 79.4648C236.834 82.1548 227.914 84.6548 219.034 87.3048C209.204 90.2348 199.344 93.0748 189.544 96.1348" fill="#FFDA00" fill-opacity="0.7"/>
<path d="M191.304 95.5648C187.924 96.9148 170.404 101.675 166.934 102.855C165.634 103.295 165.514 103.865 165.524 104.915C165.554 107.625 165.544 110.345 165.524 113.055C165.524 114.045 165.664 114.565 166.814 115.115C171.024 117.145 175.364 118.875 179.654 120.685C187.324 123.915 195.034 127.055 202.744 130.205C216.464 135.815 230.294 141.165 244.134 146.485C245.514 147.015 246.894 147.595 248.284 148.105C250.994 149.085 253.214 147.625 255.554 146.925C263.294 144.615 270.954 142.065 278.664 139.655C287.344 136.935 295.964 134.025 304.644 131.295C310.524 129.435 316.444 127.665 322.264 125.595C327.384 123.775 332.434 121.755 337.684 120.345C338.654 120.085 339.024 119.545 339.014 118.575C338.984 116.445 339.094 114.315 338.954 112.195C338.904 111.455 339.044 110.625 337.714 110.135C326.294 105.885 314.854 101.685 303.334 97.6948C289.344 92.8548 275.494 87.6148 261.304 83.3448C257.304 82.1348 253.454 80.4948 249.454 79.2748C247.974 78.8248 246.794 79.1348 245.694 79.4648C236.834 82.1548 227.914 84.6548 219.034 87.3048C209.204 90.2348 199.344 93.0748 189.544 96.1348" stroke="#2071B5" stroke-width="4.20561" stroke-linecap="round" stroke-linejoin="round"/>
<path d="M386.434 300.14C376.424 304.02 364.184 309.44 354.184 313.35C339.254 319.2 324.354 325.13 309.474 331.12C298.814 335.41 288.164 339.7 277.574 344.15C271.634 346.65 265.594 348.91 259.734 351.62C257.664 352.58 255.784 353.87 253.854 355.03C251.524 356.42 249.034 357.21 246.524 357.97C245.444 358.29 244.254 358.32 242.984 357.67C241.044 356.67 238.794 356.29 236.864 355.17" stroke="#2071B5" stroke-width="4.20561" stroke-linecap="round" stroke-linejoin="round"/>
<path d="M378.608 182.595C377.448 182.785 376.388 183.255 375.298 183.675C366.078 187.185 356.638 190.065 347.328 193.315C335.018 197.615 322.728 201.975 310.388 206.185C296.468 210.945 282.508 215.605 268.538 220.195C257.828 223.715 247.188 227.455 236.448 230.925C233.448 231.895 230.798 231.375 228.068 230.905C227.058 230.735 220.848 230.605 219.898 230.025" stroke="#2071B5" stroke-width="4.20561" stroke-linecap="round" stroke-linejoin="round"/>
<path d="M382.153 278.581C384.543 281.001 387.703 282.381 390.323 284.491C390.833 284.901 391.213 285.371 391.873 285.791C389.973 287.741 387.613 288.401 385.443 289.341C370.293 295.961 354.783 301.681 339.433 307.811C326.493 312.981 313.503 318.061 300.513 323.091C289.463 327.371 278.473 331.831 267.483 336.281C262.003 338.501 256.703 341.161 251.173 343.271C247.263 344.761 243.533 346.631 239.733 348.341C239.493 348.451 239.153 348.351 238.863 348.351" stroke="#2071B5" stroke-width="4.20561" stroke-linecap="round" stroke-linejoin="round"/>
<path d="M393.362 273.065C387.452 276.055 381.282 278.435 375.092 280.765C366.552 283.985 358.062 287.345 349.542 290.635C341.852 293.605 334.092 296.405 326.432 299.455C319.422 302.245 312.372 304.965 305.312 307.635C295.162 311.465 285.112 315.545 274.952 319.355C268.712 321.695 262.572 324.365 256.412 326.935C249.952 329.635 243.762 332.925 237.292 335.605C236.972 335.735 236.702 335.755 236.402 335.795" stroke="#2071B5" stroke-width="4.20561" stroke-linecap="round" stroke-linejoin="round"/>
<path d="M390.293 200.858C384.633 203.098 378.843 204.958 373.113 206.998C360.973 211.328 348.883 215.748 336.773 220.148C324.713 224.528 312.553 228.658 300.493 233.008C287.743 237.608 274.903 241.948 262.213 246.708C256.103 248.998 249.853 250.918 243.883 253.618C241.813 254.558 239.463 253.758 237.313 253.218C235.313 252.708 233.443 251.728 231.363 251.488" stroke="#2071B5" stroke-width="4.20561" stroke-linecap="round" stroke-linejoin="round"/>
<path d="M324.904 129.548C327.464 129.798 329.404 131.468 331.474 132.688C339.144 137.198 346.204 142.528 352.894 148.438C365.304 159.398 375.094 172.448 383.354 186.618C388.244 195.008 392.674 203.718 395.394 213.178C397.144 219.288 398.674 225.408 399.804 231.678C401.494 241.108 401.414 250.628 400.954 260.078C400.384 271.578 398.164 282.938 393.484 293.498C388.634 304.448 382.714 314.848 373.374 322.858C370.494 325.328 367.134 326.428 363.654 327.438" stroke="#2071B5" stroke-width="4.20561" stroke-linecap="round" stroke-linejoin="round"/>
<path d="M154.321 191.834C151.191 188.784 147.071 187.934 143.091 186.784C137.701 185.224 132.131 184.655 126.581 184.205C122.561 183.875 118.601 184.964 114.931 186.584C103.651 191.574 95.7105 200.024 89.7505 210.724C86.0805 217.314 83.5105 224.234 81.7405 231.474C80.7005 235.714 80.1005 240.064 79.6405 244.444C79.1105 249.434 78.8105 254.404 78.8105 259.424C78.8105 265.044 79.4305 270.595 80.0905 276.165C80.5805 280.265 81.3105 284.284 82.2805 288.274C82.4505 288.984 83.0305 289.494 83.0205 290.334C88.6505 288.734 94.1505 286.724 99.7405 284.994C107.921 282.454 115.981 279.554 124.171 277.044C125.121 276.754 126.301 275.964 126.981 276.074C130.391 276.634 130.391 276.974 132.531 278.354C130.821 279.324 126.471 279.364 124.931 279.904C115.361 283.244 109.091 285.155 99.5106 288.475C95.4306 289.885 91.4206 291.505 87.1906 292.445" stroke="#2071B5" stroke-width="4.20561" stroke-linecap="round" stroke-linejoin="round"/>
<path d="M374.432 267.34C370.502 269.23 366.352 270.57 362.302 272.13C352.762 275.8 343.222 279.47 333.672 283.09C323.182 287.07 312.732 291.14 302.252 295.13C288.572 300.34 274.972 305.74 261.312 310.97C257.992 312.24 254.632 313.46 251.432 314.97C249.332 315.96 247.542 316 245.922 314.63C243.842 312.86 240.832 312.73 239.032 310.52C238.772 310.2 237.672 310.27 237.572 310.34C234.052 312.65 229.842 313.52 226.302 315.78C226.132 315.89 226.002 316.07 225.862 316.22" stroke="#2071B5" stroke-width="4.20561" stroke-linecap="round" stroke-linejoin="round"/>
<path d="M389.182 217.154C382.632 220.054 375.882 222.434 369.152 224.844C356.942 229.234 344.762 233.734 332.642 238.354C322.722 242.134 312.772 245.854 302.852 249.604C293.552 253.124 284.162 256.474 274.732 259.654C269.782 261.324 264.892 263.144 259.992 264.954C259.512 265.134 259.092 265.024 258.662 265.134" stroke="#2071B5" stroke-width="4.20561" stroke-linecap="round" stroke-linejoin="round"/>
<path d="M395.347 245.333C392.847 245.513 390.757 246.883 388.547 247.803C375.547 253.213 362.247 257.853 349.107 262.903C333.847 268.773 318.577 274.623 303.307 280.483C291.107 285.163 278.897 289.833 266.587 294.233C263.927 295.183 261.357 296.413 258.647 297.283" stroke="#2071B5" stroke-width="4.20561" stroke-linecap="round" stroke-linejoin="round"/>
<path d="M374.212 239.176C370.022 240.406 365.982 242.086 361.902 243.616C348.932 248.516 335.902 253.226 322.942 258.136C310.632 262.806 298.302 267.426 285.942 271.946C277.262 275.126 268.642 278.436 259.992 281.686C259.512 281.866 259.092 281.766 258.662 281.866" stroke="#2071B5" stroke-width="4.20561" stroke-linecap="round" stroke-linejoin="round"/>
<path d="M393.607 187.231C399.547 198.161 403.937 209.731 406.707 221.811C408.327 228.851 409.077 236.081 409.557 243.351C410.057 250.961 409.657 258.501 408.947 266.021C408.037 275.751 405.907 285.251 401.767 294.211C401.097 295.671 400.547 297.191 399.777 298.611" stroke="#2071B5" stroke-width="4.20561" stroke-linecap="round" stroke-linejoin="round"/>
<path d="M428.808 179.747C430.258 183.707 432.258 187.437 433.638 191.417C435.878 197.887 437.678 204.467 438.978 211.217C440.898 221.207 441.338 231.267 441.128 241.377C441.008 247.087 440.098 252.707 439.168 258.327C438.518 262.297 437.148 266.077 436.288 269.987" stroke="#2071B5" stroke-width="4.20561" stroke-linecap="round" stroke-linejoin="round"/>
<path d="M154.087 322.821C156.087 319.781 158.087 316.801 158.987 313.151C160.107 308.621 160.517 304.111 160.037 299.491C159.357 292.971 157.977 286.601 155.387 280.571C151.597 271.761 146.217 264.251 137.347 259.901C133.147 257.841 128.827 258.051 124.587 260.081C123.837 260.441 123.137 261.131 122.167 260.751" stroke="#2071B5" stroke-width="4.20561" stroke-linecap="round" stroke-linejoin="round"/>
<path d="M397.118 351.205C386.658 355.575 376.248 360.085 365.898 364.725C358.108 368.215 350.338 371.755 342.528 375.205C332.338 379.705 322.118 384.135 311.948 388.675C303.048 392.655 294.118 396.575 285.248 400.625C277.968 403.955 270.658 407.265 263.288 410.425C258.368 412.535 253.558 414.925 248.528 416.775C247.818 417.035 247.398 417.275 247.428 418.115C247.598 422.955 247.148 427.805 247.658 432.645" stroke="#2071B5" stroke-width="4.20561" stroke-linecap="round" stroke-linejoin="round"/>
<path d="M82.7805 290.463C74.5605 293.593 66.1505 296.213 57.9105 299.283C56.7405 299.723 55.6005 300.243 54.3905 300.603C50.5805 301.723 49.5605 305.073 48.9505 308.303C47.3805 316.553 49.5205 324.083 54.1705 330.963C56.2305 334.013 58.8305 336.293 62.5305 337.143C63.5105 337.373 64.4205 337.333 65.4005 337.143C69.9105 336.273 73.9505 334.153 78.1705 332.523C84.2505 330.173 90.1605 327.393 96.2405 325.093C105.46 321.603 114.71 318.153 124.16 315.313C127.14 314.413 130.08 313.433 132.99 312.293C134.68 311.623 136.47 311.933 138.27 312.443C144.7 314.273 148.57 310.593 149.16 304.763C149.97 296.753 148.37 289.083 144.01 282.083C140.89 277.083 136.52 274.163 130.79 273.023C129.54 272.773 128.31 272.893 127.28 273.163C123.19 274.223 120.56 274.503 117.6 279.143" fill="#FFDA00" fill-opacity="0.7"/>
<path d="M82.7805 290.463C74.5605 293.593 66.1505 296.213 57.9105 299.283C56.7405 299.723 55.6005 300.243 54.3905 300.603C50.5805 301.723 49.5605 305.073 48.9505 308.303C47.3805 316.553 49.5205 324.083 54.1705 330.963C56.2305 334.013 58.8305 336.293 62.5305 337.143C63.5105 337.373 64.4205 337.333 65.4005 337.143C69.9105 336.273 73.9505 334.153 78.1705 332.523C84.2505 330.173 90.1605 327.393 96.2405 325.093C105.46 321.603 114.71 318.153 124.16 315.313C127.14 314.413 130.08 313.433 132.99 312.293C134.68 311.623 136.47 311.933 138.27 312.443C144.7 314.273 148.57 310.593 149.16 304.763C149.97 296.753 148.37 289.083 144.01 282.083C140.89 277.083 136.52 274.163 130.79 273.023C129.54 272.773 128.31 272.893 127.28 273.163C123.19 274.223 120.56 274.503 117.6 279.143" stroke="#2071B5" stroke-width="4.20561" stroke-linecap="round" stroke-linejoin="round"/>
<path d="M366.078 166.971C364.938 165.661 363.668 165.771 362.108 166.281C350.668 169.981 339.328 173.961 327.968 177.881C312.008 183.391 296.058 188.971 280.028 194.291C269.368 197.831 258.818 201.671 248.118 205.111C243.598 206.561 239.238 208.541 234.668 209.901C231.608 210.811 215.528 216.951 212.488 217.931" stroke="#2071B5" stroke-width="4.20561" stroke-linecap="round" stroke-linejoin="round"/>
<path d="M286.613 118.984C282.693 120.384 278.803 121.864 274.723 122.704C270.143 123.644 265.543 124.354 260.863 124.774C256.673 125.154 252.493 125.224 248.313 125.124C239.333 124.894 230.523 123.524 221.893 120.994C218.483 119.994 215.143 118.794 211.773 117.664" stroke="#2071B5" stroke-width="4.20561" stroke-linecap="round" stroke-linejoin="round"/>
<path d="M338.734 110.864C329.424 113.574 331.044 113.044 324.454 114.964C311.034 118.864 297.694 123.014 284.384 127.254C277.224 129.534 269.974 131.534 262.824 133.894C259.614 134.954 256.354 135.894 253.144 136.984C251.394 137.574 249.634 137.704 247.624 136.904C241.234 134.354 234.944 131.544 228.534 129.044C219.824 125.654 211.224 121.984 202.544 118.534C193.534 114.954 184.744 110.864 175.904 106.884C172.994 105.574 169.934 104.634 167.104 103.144" stroke="#2071B5" stroke-width="4.20561" stroke-linecap="round" stroke-linejoin="round"/>
<path d="M98.1777 325.009C99.9977 328.729 101.468 332.589 103.428 336.259C107.548 343.979 111.948 351.489 117.548 358.259C127.078 369.789 138.308 379.279 151.478 386.389C155.958 388.809 160.838 390.229 165.978 390.649C167.078 390.739 168.158 391.009 169.278 391.089C175.168 391.499 180.588 389.639 186.018 387.769C187.728 387.179 189.468 386.279 191.288 387.339C191.978 387.739 192.338 387.249 192.838 387.099C210.508 381.559 223.678 370.779 231.578 353.859C234.608 347.379 236.268 340.599 236.008 333.389C235.888 329.939 235.988 326.489 235.978 322.709C239.818 321.249 243.588 318.839 247.868 317.539" stroke="#2071B5" stroke-width="4.20561" stroke-linecap="round" stroke-linejoin="round"/>
<path d="M371.801 306.745C373.491 308.595 376.251 309.015 377.641 311.475C377.331 312.305 376.171 312.125 375.321 312.445C368.241 315.125 360.991 317.305 353.981 320.185C350.181 321.745 346.491 323.545 342.711 325.155C339.351 326.585 336.001 328.035 332.611 329.395C322.161 333.585 311.821 338.015 301.361 342.175C292.161 345.835 283.021 349.655 273.851 353.415C260.421 358.915 247.091 364.655 233.571 369.935C230.451 371.155 227.571 372.905 224.521 374.295C223.941 374.565 224.111 374.885 224.111 375.215C224.101 382.405 224.101 389.595 224.131 396.785C224.131 396.935 224.401 397.075 224.321 397.225" stroke="#2071B5" stroke-width="4.20561" stroke-linecap="round" stroke-linejoin="round"/>
<path d="M159.813 174.454V182.794C161.923 183.644 163.913 184.744 165.973 185.674C172.633 188.674 178.583 192.734 184.293 197.284C191.243 202.824 197.723 208.834 203.333 215.664C210.473 224.364 216.693 233.714 221.493 243.984C226.363 254.414 230.423 265.064 232.993 276.334C234.573 283.274 235.813 290.254 236.793 297.274C237.393 301.554 237.473 305.914 237.293 310.254" stroke="#2071B5" stroke-width="4.20561" stroke-linecap="round" stroke-linejoin="round"/>
<path d="M402.388 182.818C406.608 190.868 410.118 199.218 412.688 207.928C414.578 214.338 415.998 220.858 416.968 227.498C417.928 234.008 418.508 240.528 418.438 247.098C418.338 255.988 417.638 264.798 415.678 273.538C414.388 279.308 412.628 284.898 410.678 290.448C409.998 292.398 408.528 294.048 407.658 295.968" stroke="#2071B5" stroke-width="4.20561" stroke-linecap="round" stroke-linejoin="round"/>
<path d="M340.761 355.826C334.411 358.026 328.411 361.056 322.291 363.806C313.781 367.636 305.231 371.356 296.721 375.176C291.511 377.516 286.301 379.876 281.101 382.236" stroke="#2071B5" stroke-width="4.20561" stroke-linecap="round" stroke-linejoin="round"/>
<path d="M100.387 236.09C99.1367 239.44 97.6567 242.69 96.8167 246.2C95.6067 251.29 94.8767 256.41 94.4067 261.62C93.8667 267.59 94.4267 273.52 94.7767 279.45C94.9067 281.71 94.7967 284.04 95.3267 286.28" stroke="#2071B5" stroke-width="4.20561" stroke-linecap="round" stroke-linejoin="round"/>
<path d="M183.594 247.972C187.824 256.112 191.654 264.402 194.204 273.272C195.954 279.362 197.224 285.512 198.154 291.772C199.114 298.212 199.644 306.272 199.414 312.762" stroke="#2071B5" stroke-width="4.20561" stroke-linecap="round" stroke-linejoin="round"/>
<path d="M142.416 255.472C150.886 258.002 156.706 263.802 161.096 271.122C167.126 281.182 169.696 292.222 168.986 303.892C168.656 309.222 167.196 314.342 164.046 318.902C162.406 321.282 160.236 322.472 157.606 322.772C155.276 323.032 153.156 323.542 150.976 324.512C144.946 327.192 139.166 325.732 133.866 322.342C130.876 320.432 128.176 318.072 126.356 314.902" stroke="#2071B5" stroke-width="4.20561" stroke-linecap="round" stroke-linejoin="round"/>
<path d="M303.564 159.26C303.994 155.87 303.824 152.57 302.484 149.35C300.464 144.51 295.964 141.4 290.804 141.43C288.384 141.45 286.264 142.42 284.434 143.87C278.734 148.41 275.714 154.38 275.644 161.68C275.594 167.43 278.604 171.62 283.984 173.55C287.344 174.75 290.594 173.96 293.654 172.45C298.534 170.03 301.304 165.85 302.854 160.79C302.994 160.34 303.584 160.05 303.344 159.48" stroke="#2071B5" stroke-width="4.20561" stroke-linecap="round" stroke-linejoin="round"/>
<path d="M178.093 393.473C183.013 396.443 188.213 398.903 193.273 401.633C198.623 404.513 203.833 407.593 208.753 411.223C213.023 414.373 218.113 416.253 222.763 418.823C230.493 423.093 238.473 426.903 246.103 431.353C246.503 431.583 246.853 431.473 247.213 431.553" stroke="#2071B5" stroke-width="4.20561" stroke-linecap="round" stroke-linejoin="round"/>
<path d="M348.253 323.041C349.873 329.061 351.473 335.081 353.093 341.091C355.343 349.461 357.533 357.851 359.893 366.191C359.993 366.551 360.473 366.641 360.363 367.061" stroke="#2071B5" stroke-width="4.20561" stroke-linecap="round" stroke-linejoin="round"/>
<path d="M179.629 121.184C179.489 131.534 179.859 141.884 180.219 152.224C180.279 153.884 180.219 155.604 180.039 157.284C179.919 158.414 180.379 158.824 181.369 159.304C193.539 165.154 205.289 171.794 217.059 178.404C221.379 180.824 224.519 184.114 225.869 188.984C226.409 190.944 228.309 190.604 229.599 190.674C234.209 190.934 237.089 192.834 238.609 197.134C239.309 199.124 239.799 201.164 239.709 203.294C239.669 204.254 239.789 205.064 241.029 205.054" stroke="#2071B5" stroke-width="4.20561" stroke-linecap="round" stroke-linejoin="round"/>
<path d="M266.579 356.93C270.859 369.74 275.069 382.57 279.119 395.45C279.649 397.13 280.639 398.67 280.659 400.51" stroke="#2071B5" stroke-width="4.20561" stroke-linecap="round" stroke-linejoin="round"/>
<path d="M189.766 268.682C191.146 272.902 192.366 277.162 193.486 281.452C194.176 284.122 194.616 286.862 195.056 289.592C196.456 298.422 196.506 307.322 196.376 316.222" stroke="#2071B5" stroke-width="4.20561" stroke-linecap="round" stroke-linejoin="round"/>
<path d="M213.964 263.836C215.954 270.156 217.924 276.476 219.284 282.976C220.644 289.466 221.864 295.936 222.414 302.566C222.764 306.836 222.624 311.086 222.764 315.336" stroke="#2071B5" stroke-width="4.20561" stroke-linecap="round" stroke-linejoin="round"/>
<path d="M259.966 400.518C256.446 397.638 252.366 397.358 248.076 397.868C245.286 398.198 242.676 398.838 240.756 401.038C241.106 403.368 242.976 403.778 244.566 404.218C248.956 405.408 253.276 405.518 257.576 403.458C258.946 402.798 259.556 401.988 259.956 400.738" stroke="#2071B5" stroke-width="4.20561" stroke-linecap="round" stroke-linejoin="round"/>
<path d="M169.937 180.388C175.767 182.898 180.577 186.978 185.527 190.778C192.787 196.358 199.407 202.708 205.347 209.678C212.317 217.848 218.387 226.618 223.307 236.238C225.927 241.358 228.487 246.508 230.827 251.738C232.997 256.578 234.847 261.588 236.367 266.678C238.417 273.538 240.227 280.458 241.287 287.568C242.217 293.778 242.787 300.018 243.007 306.288C243.037 307.038 243.217 307.858 242.577 308.488" stroke="#2071B5" stroke-width="4.20561" stroke-linecap="round" stroke-linejoin="round"/>
<path d="M296.735 156.834C296.575 154.304 295.235 152.434 292.965 151.614C290.845 150.844 288.815 151.644 287.035 153.074C284.545 155.074 282.775 159.854 284.315 162.814C286.425 166.884 289.825 167.574 293.415 164.744C295.875 162.804 296.555 159.974 296.945 157.054" stroke="#2071B5" stroke-width="4.20561" stroke-linecap="round" stroke-linejoin="round"/>
<path d="M181.828 357.586C171.268 364.946 159.928 365.976 147.918 361.796C146.358 361.256 144.988 360.216 143.308 360.006" stroke="#2071B5" stroke-width="4.20561" stroke-linecap="round" stroke-linejoin="round"/>
<path d="M342.736 325.68C346.216 337.44 349.186 349.35 352.606 361.13C352.806 361.83 353.366 362.5 353.086 363.32" stroke="#2071B5" stroke-width="4.20561" stroke-linecap="round" stroke-linejoin="round"/>
<path d="M359.017 351.222C364.427 355.452 374.307 355.092 376.887 350.492C375.867 349.032 374.487 348.232 372.667 347.892C368.847 347.172 365.117 347.082 361.427 348.562C360.207 349.052 359.247 349.622 359.017 351.012" stroke="#2071B5" stroke-width="4.20561" stroke-linecap="round" stroke-linejoin="round"/>
<path d="M56.5813 300.363C58.8113 302.103 61.4813 303.193 63.4413 305.393C69.5013 312.213 72.2513 320.133 71.7413 329.193C71.6113 331.563 70.2713 333.563 69.1313 335.583" stroke="#2071B5" stroke-width="4.20561" stroke-linecap="round" stroke-linejoin="round"/>
<path d="M247.428 181.054C244.378 182.654 241.898 180.934 239.278 179.744C232.378 176.604 225.418 173.584 218.588 170.264C207.168 164.714 195.728 159.184 184.228 153.794C183.058 153.244 181.838 152.624 180.508 152.434" stroke="#2071B5" stroke-width="4.20561" stroke-linecap="round" stroke-linejoin="round"/>
<path d="M281.768 95.6464C276.498 93.7964 271.158 92.1863 265.698 91.0264C256.458 89.0563 247.118 88.2564 237.748 89.5464C228.908 90.7564 220.308 93.0664 212.198 96.9664C212.078 97.0264 211.908 96.9664 211.758 96.9664" stroke="#2071B5" stroke-width="4.20561" stroke-linecap="round" stroke-linejoin="round"/>
<path d="M132.527 278.357C140.037 281.757 141.637 287.517 143.537 294.207C144.367 297.127 144.187 299.167 144.197 304.147C144.197 306.057 142.037 307.377 140.647 307.777C137.657 308.627 134.567 309.187 131.637 310.217C130.497 310.617 130.667 310.637 127.027 312.267" stroke="#2071B5" stroke-width="4.20561" stroke-linecap="round" stroke-linejoin="round"/>
<path d="M87.6085 228.754C85.3585 237.274 83.5485 245.854 83.3785 254.724C83.3385 256.994 83.2485 259.274 83.2085 261.544" stroke="#2071B5" stroke-width="4.20561" stroke-linecap="round" stroke-linejoin="round"/>
<path d="M115.563 318.628C119.953 328.098 125.813 336.518 133.633 343.478C136.283 345.838 139.183 347.908 142.423 349.438" fill="#FFDA00" fill-opacity="0.7"/>
<path d="M115.563 318.628C119.953 328.098 125.813 336.518 133.633 343.478C136.283 345.838 139.183 347.908 142.423 349.438" stroke="#2071B5" stroke-width="4.20561" stroke-linecap="round" stroke-linejoin="round"/>
<path d="M373.338 123.38C368.828 121.93 364.358 120.34 359.698 119.4C355.118 118.48 350.508 117.95 345.828 118.09C343.998 118.14 341.028 118.16 339.188 118.16" stroke="#2071B5" stroke-width="4.20561" stroke-linecap="round" stroke-linejoin="round"/>
<path d="M199.446 312.455C198.846 320.865 197.766 329.195 195.466 337.325C194.696 340.055 193.696 342.715 192.406 345.255" stroke="#2071B5" stroke-width="4.20561" stroke-linecap="round" stroke-linejoin="round"/>
<path d="M96.4075 231.691C93.3875 238.971 91.3876 246.481 90.6276 254.361C90.2476 258.251 89.7276 262.121 89.8076 266.031" stroke="#2071B5" stroke-width="4.20561" stroke-linecap="round" stroke-linejoin="round"/>
<path d="M248.093 148.482C248.253 149.032 247.853 149.472 247.853 150.022C247.883 160.072 247.873 170.122 247.883 180.182C247.883 180.252 248.023 180.332 248.093 180.402" stroke="#2071B5" stroke-width="4.20561" stroke-linecap="round" stroke-linejoin="round"/>
<path d="M201.637 319.283C201.027 329.943 198.757 340.153 193.747 349.673" stroke="#2071B5" stroke-width="4.20561" stroke-linecap="round" stroke-linejoin="round"/>
<path d="M216.833 179.091C211.103 181.201 205.223 182.851 199.443 184.831C194.743 186.441 189.953 187.771 185.353 189.661" stroke="#2071B5" stroke-width="4.20561" stroke-linecap="round" stroke-linejoin="round"/>
<path d="M259.527 146.066C259.897 146.846 259.737 147.676 259.737 148.486C259.737 157.876 259.737 167.266 259.737 176.666" stroke="#2071B5" stroke-width="4.20561" stroke-linecap="round" stroke-linejoin="round"/>
<path d="M219.018 400.957C222.668 403.117 226.488 404.947 230.238 406.907C235.588 409.697 240.868 412.637 246.308 415.277C247.018 415.617 247.788 415.947 248.078 416.807" stroke="#2071B5" stroke-width="4.20561" stroke-linecap="round" stroke-linejoin="round"/>
<path d="M198.554 168.953C189.804 171.463 181.274 174.623 172.584 177.323C171.984 177.513 171.254 177.723 170.874 178.033C169.784 178.953 168.934 178.463 167.964 177.983C162.194 175.143 156.514 172.123 150.614 169.523C149.324 168.953 148.384 169.003 147.274 169.403C144.864 170.253 142.324 170.593 139.944 171.673C138.834 172.173 138.054 172.673 137.624 173.593C136.564 175.883 135.144 177.993 134.254 180.393C133.694 181.883 132.604 182.763 130.764 182.653C129.364 182.573 127.884 182.743 126.804 183.923" stroke="#2071B5" stroke-width="4.20561" stroke-linecap="round" stroke-linejoin="round"/>
<path d="M187.982 163.228C182.192 165.658 176.112 167.238 170.162 169.208C166.462 170.438 162.532 171.048 159.142 173.138" stroke="#2071B5" stroke-width="4.20561" stroke-linecap="round" stroke-linejoin="round"/>
<path d="M239.942 205.049C230.422 208.889 220.982 212.929 211.102 215.839" stroke="#2071B5" stroke-width="4.20561" stroke-linecap="round" stroke-linejoin="round"/>
<path d="M215.067 402.061C224.537 397.061 234.387 392.861 244.117 388.411C245.877 387.601 247.637 386.781 249.377 385.951C250.807 385.271 251.977 385.211 253.377 385.981C262.007 390.741 270.897 394.991 279.357 400.061C279.547 400.181 279.897 400.341 280.217 400.311" stroke="#2071B5" stroke-width="4.20561" stroke-linecap="round" stroke-linejoin="round"/>
<path d="M161.13 221.567C154.82 217.157 148.2 213.387 140.66 211.427C130.57 208.807 120.98 210.057 111.82 214.957" stroke="#2071B5" stroke-width="4.20561" stroke-linecap="round" stroke-linejoin="round"/>
<path d="M225.848 190.079C216.358 192.939 207.118 196.559 197.668 199.549" stroke="#2071B5" stroke-width="4.20561" stroke-linecap="round" stroke-linejoin="round"/>
<path d="M271.649 354.947C274.509 363.507 277.379 372.067 279.999 380.707C281.849 386.787 283.989 392.787 285.529 398.967C285.569 399.137 285.809 399.267 285.959 399.407" stroke="#2071B5" stroke-width="4.20561" stroke-linecap="round" stroke-linejoin="round"/>
<path d="M236.2 322.388C235.22 320.998 233.61 320.488 232.21 319.798C230.38 318.908 228.55 318.018 226.75 317.078C224.39 315.848 221.8 317.088 221.45 319.748C221.37 320.338 221.3 320.978 221.3 321.508C221.33 325.288 220.45 329.018 220.46 332.738C220.48 339.798 218.82 346.498 217.05 353.208" stroke="#2071B5" stroke-width="4.20561" stroke-linecap="round" stroke-linejoin="round"/>
<path d="M141.117 230.737C141.097 238.897 141.817 247.027 141.987 255.167" stroke="#2071B5" stroke-width="4.20561" stroke-linecap="round" stroke-linejoin="round"/>
<path d="M83.2158 261.405C83.0958 269.775 84.4658 280.705 86.0658 288.935" stroke="#2071B5" stroke-width="4.20561" stroke-linecap="round" stroke-linejoin="round"/>
<path d="M214.411 376.312C214.761 377.022 214.621 377.772 214.621 378.512C214.621 384.452 214.471 396.342 214.581 402.282" stroke="#2071B5" stroke-width="4.20561" stroke-linecap="round" stroke-linejoin="round"/>
<path d="M179.928 158.203C175.368 159.863 167.748 162.443 163.138 163.943C159.808 165.023 155.828 166.353 148.378 168.953" stroke="#2071B5" stroke-width="4.20561" stroke-linecap="round" stroke-linejoin="round"/>
<path d="M324.472 153.328V178.638" stroke="#2071B5" stroke-width="4.20561" stroke-linecap="round" stroke-linejoin="round"/>
<path d="M168.625 276.151C170.325 280.501 171.515 285.001 172.345 289.581C173.355 295.131 173.265 300.691 172.685 306.311C172.275 310.231 171.245 313.881 169.955 317.531" stroke="#2071B5" stroke-width="4.20561" stroke-linecap="round" stroke-linejoin="round"/>
<path d="M275.168 172.247C272.458 172.837 269.898 173.907 267.238 174.657C261.318 176.317 255.478 178.267 249.648 180.217C249.048 180.417 248.358 180.047 247.868 180.607C247.868 188.747 247.868 196.897 247.868 205.037" stroke="#2071B5" stroke-width="4.20561" stroke-linecap="round" stroke-linejoin="round"/>
<path d="M240.831 153.76V177.53" stroke="#2071B5" stroke-width="4.20561" stroke-linecap="round" stroke-linejoin="round"/>
<path d="M324.263 125.372C324.713 127.412 324.473 129.482 324.473 131.532C324.483 138.062 324.473 144.592 324.493 151.122C324.493 151.632 324.223 152.202 324.693 152.662" stroke="#2071B5" stroke-width="4.20561" stroke-linecap="round" stroke-linejoin="round"/>
<path d="M202.51 383.797C202.39 391.277 202.78 398.767 202.29 406.247" stroke="#2071B5" stroke-width="4.20561" stroke-linecap="round" stroke-linejoin="round"/>
<path d="M108.084 345.941C106.754 348.591 104.904 351.011 104.484 354.141C106.984 356.421 110.054 357.741 112.944 359.331C114.404 360.131 116.044 359.931 117.544 359.151" stroke="#2071B5" stroke-width="4.20561" stroke-linecap="round" stroke-linejoin="round"/>
<path d="M284.414 229.47C277.514 231.59 270.724 234.05 263.944 236.51C263.754 236.58 263.504 236.51 263.284 236.51" stroke="#2071B5" stroke-width="4.20561" stroke-linecap="round" stroke-linejoin="round"/>
<path d="M257.991 265.58C254.071 267.04 250.121 268.42 246.301 270.15C245.041 270.72 243.591 270.47 242.121 270.08C240.631 269.69 239.221 268.59 237.521 269.1" stroke="#2071B5" stroke-width="4.20561" stroke-linecap="round" stroke-linejoin="round"/>
<path d="M141.557 255.018C139.927 255.058 138.377 254.468 136.717 254.538C132.637 254.708 128.927 255.948 125.247 257.598C123.187 258.518 122.357 260.298 121.037 261.788C118.977 264.108 117.217 266.608 115.847 269.348C114.227 272.598 113.517 276.198 112.517 279.678C112.427 279.978 112.877 280.208 112.727 280.558" stroke="#2071B5" stroke-width="4.20561" stroke-linecap="round" stroke-linejoin="round"/>
<path d="M142.204 326.783C142.114 333.463 142.494 340.133 142.644 346.813C142.664 347.763 142.644 348.723 142.644 349.673" stroke="#2071B5" stroke-width="4.20561" stroke-linecap="round" stroke-linejoin="round"/>
<path d="M396.23 259.42C395.8 259.26 395.33 259.02 394.92 259.21C388.4 262.31 381.59 264.71 374.88 267.34" stroke="#2071B5" stroke-width="4.20561" stroke-linecap="round" stroke-linejoin="round"/>
<path d="M309.506 220.674C303.176 222.604 297.006 225.014 290.796 227.264C290.606 227.334 290.356 227.264 290.136 227.264" stroke="#2071B5" stroke-width="4.20561" stroke-linecap="round" stroke-linejoin="round"/>
<path d="M140.225 192.286C139.885 197.136 139.825 201.976 140.405 206.816C140.575 208.246 140.695 209.766 140.225 211.216" stroke="#2071B5" stroke-width="4.20561" stroke-linecap="round" stroke-linejoin="round"/>
<path d="M331.957 332.955C332.677 337.065 334.157 340.985 335.087 345.055C335.577 347.195 336.367 349.285 336.797 351.445" stroke="#2071B5" stroke-width="4.20561" stroke-linecap="round" stroke-linejoin="round"/>
<path d="M366.278 186.575C370.868 191.415 383.828 202.315 383.888 202.865" stroke="#2071B5" stroke-width="4.20561" stroke-linecap="round" stroke-linejoin="round"/>
<path d="M307.299 253.25C301.839 254.85 296.659 257.25 291.249 259.04C290.719 259.21 290.229 259.37 289.689 259.42" stroke="#2071B5" stroke-width="4.20561" stroke-linecap="round" stroke-linejoin="round"/>
<path d="M241.036 334.477C241.206 336.117 240.916 337.747 240.556 339.307C239.416 344.397 238.356 349.517 236.816 354.497C235.506 358.717 233.016 362.347 230.206 365.697C228.456 367.787 226.836 369.957 225.176 372.117" stroke="#2071B5" stroke-width="4.20561" stroke-linecap="round" stroke-linejoin="round"/>
<path d="M176.983 384.445C174.443 385.025 171.853 384.785 169.283 384.905C166.073 385.055 162.943 384.595 159.813 384.005" stroke="#2071B5" stroke-width="4.20561" stroke-linecap="round" stroke-linejoin="round"/>
<path d="M366.278 167.402V186.552" stroke="#2071B5" stroke-width="4.20561" stroke-linecap="round" stroke-linejoin="round"/>
<path d="M243.005 184.146C238.325 185.506 233.785 187.316 229.135 188.756C228.395 188.986 227.925 189.326 227.815 190.096" stroke="#2071B5" stroke-width="4.20561" stroke-linecap="round" stroke-linejoin="round"/>
<path d="M332.403 116.785C327.663 118.205 323.003 119.855 318.333 121.445C317.853 121.605 317.433 121.515 317.003 121.625" stroke="#2071B5" stroke-width="4.20561" stroke-linecap="round" stroke-linejoin="round"/>
<path d="M412.078 160.365C407.338 161.785 402.678 163.435 398.008 165.025C397.528 165.185 397.108 165.095 396.678 165.205" stroke="#2071B5" stroke-width="4.20561" stroke-linecap="round" stroke-linejoin="round"/>
<path d="M416.864 161.468C412.124 162.888 407.464 164.538 402.794 166.128C402.314 166.288 401.894 166.198 401.464 166.308" stroke="#2071B5" stroke-width="4.20561" stroke-linecap="round" stroke-linejoin="round"/>
<path d="M224.96 330.954C223.27 333.834 223.82 335.424 227.4 336.364C229.36 336.874 231.37 337.864 233.58 337.224C234.36 334.884 234.12 334.004 231.99 333.414C229.49 332.714 227.38 331.014 224.74 330.734" stroke="#2071B5" stroke-width="4.20561" stroke-linecap="round" stroke-linejoin="round"/>
<path d="M243.023 297.277C244.543 297.447 245.923 298.077 247.193 298.837C249.693 300.327 252.193 300.057 254.673 299.007C255.833 298.517 256.973 297.997 258.203 297.717" stroke="#2071B5" stroke-width="4.20561" stroke-linecap="round" stroke-linejoin="round"/>
<path d="M380.156 209.894C375.006 211.324 370.116 213.524 364.966 214.954" stroke="#2071B5" stroke-width="4.20561" stroke-linecap="round" stroke-linejoin="round"/>
<path d="M294.535 194.716C289.495 196.186 284.605 198.086 279.565 199.556" stroke="#2071B5" stroke-width="4.20561" stroke-linecap="round" stroke-linejoin="round"/>
<path d="M260.192 105.78C257.162 105.82 254.182 105.29 251.172 105.05C244.882 104.56 238.692 105.57 232.452 105.78" stroke="#2071B5" stroke-width="4.20561" stroke-linecap="round" stroke-linejoin="round"/>
<path d="M258.2 248.644C258.7 251.124 258.39 253.634 258.4 256.124C258.45 264.484 258.42 272.854 258.42 281.214V297.504" stroke="#2071B5" stroke-width="4.20561" stroke-linecap="round" stroke-linejoin="round"/>
<path d="M298.926 203.96C293.996 205.3 289.296 207.34 284.396 208.8" stroke="#2071B5" stroke-width="4.20561" stroke-linecap="round" stroke-linejoin="round"/>
<path d="M216.172 142.742C216.172 146.922 216.102 152.432 216.172 156.612" stroke="#2071B5" stroke-width="4.20561" stroke-linecap="round" stroke-linejoin="round"/>
<path d="M278.671 210.997C274.401 212.207 270.251 213.767 266.121 215.387C265.931 215.467 265.681 215.387 265.461 215.387" stroke="#2071B5" stroke-width="4.20561" stroke-linecap="round" stroke-linejoin="round"/>
<path d="M147.051 170.056V187.666" stroke="#2071B5" stroke-width="4.20561" stroke-linecap="round" stroke-linejoin="round"/>
<path d="M381.484 220.674C382.354 222.314 384.134 222.874 385.474 223.944C388.364 226.254 391.184 228.634 394.174 231.334C387.724 234.094 381.354 236.254 375.104 238.724" stroke="#2071B5" stroke-width="4.20561" stroke-linecap="round" stroke-linejoin="round"/>
<path d="M317.867 186.784C313.707 187.954 309.697 189.574 305.537 190.744" stroke="#2071B5" stroke-width="4.20561" stroke-linecap="round" stroke-linejoin="round"/>
<path d="M377.52 206.36C381.69 210.22 386.26 213.6 390.51 217.37" stroke="#2071B5" stroke-width="4.20561" stroke-linecap="round" stroke-linejoin="round"/>
<path d="M124.15 312.694C120.72 313.624 117.42 314.954 114.02 315.984C113.29 316.204 112.62 316.654 111.82 316.654" stroke="#2071B5" stroke-width="4.20561" stroke-linecap="round" stroke-linejoin="round"/>
<path d="M216.182 156.622C216.042 160.732 216.462 164.852 215.962 168.952" stroke="#2071B5" stroke-width="4.20561" stroke-linecap="round" stroke-linejoin="round"/>
<path d="M120.646 301.243C116.486 302.413 112.476 304.033 108.316 305.203" stroke="#2071B5" stroke-width="4.20561" stroke-linecap="round" stroke-linejoin="round"/>
<path d="M248.321 315.988C248.411 320.608 248.071 325.238 248.541 329.858" stroke="#2071B5" stroke-width="4.20561" stroke-linecap="round" stroke-linejoin="round"/>
<path d="M382.574 236.313C385.164 238.813 388.404 240.443 391.124 242.743C392.054 243.533 393.514 243.873 393.804 245.343" stroke="#2071B5" stroke-width="4.20561" stroke-linecap="round" stroke-linejoin="round"/>
<path d="M383.677 250.388C387.207 253.098 390.947 255.518 394.257 258.518C394.487 258.728 394.747 258.838 394.687 259.198" stroke="#2071B5" stroke-width="4.20561" stroke-linecap="round" stroke-linejoin="round"/>
<path d="M167.958 187.231C164.998 188.721 161.798 189.591 158.728 190.781C155.588 192.001 152.518 193.381 149.268 194.321C149.018 194.391 148.368 194.561 148.378 195.151" stroke="#2071B5" stroke-width="4.20561" stroke-linecap="round" stroke-linejoin="round"/>
<path d="M322.712 215.843C318.832 216.973 315.192 218.803 311.262 219.803" stroke="#2071B5" stroke-width="4.20561" stroke-linecap="round" stroke-linejoin="round"/>
<path d="M250.728 363.981C251.138 367.581 250.878 371.171 250.768 374.771C250.658 378.221 250.408 381.711 251.388 385.111" stroke="#2071B5" stroke-width="4.20561" stroke-linecap="round" stroke-linejoin="round"/>
<path d="M327.998 245.333C324.218 246.343 320.758 248.233 316.988 249.293" stroke="#2071B5" stroke-width="4.20561" stroke-linecap="round" stroke-linejoin="round"/>
<path d="M224.535 318.852C227.525 320.902 230.575 322.772 234.205 323.532C234.835 323.662 235.125 323.472 235.535 323.252" stroke="#2071B5" stroke-width="4.20561" stroke-linecap="round" stroke-linejoin="round"/>
<path d="M383.245 264.925C386.655 267.455 390.435 269.485 393.365 272.635C393.815 273.125 394.355 273.065 394.915 273.065" stroke="#2071B5" stroke-width="4.20561" stroke-linecap="round" stroke-linejoin="round"/>
<path d="M352.635 129.988C349.155 128.278 345.755 126.388 342.065 125.148" stroke="#2071B5" stroke-width="4.20561" stroke-linecap="round" stroke-linejoin="round"/>
<path d="M71.3267 312.694C72.5167 316.134 73.3967 319.664 73.9667 323.264" stroke="#2071B5" stroke-width="4.20561" stroke-linecap="round" stroke-linejoin="round"/>
<path d="M352.655 157.278C349.455 157.838 346.495 159.208 343.425 160.178C342.955 160.328 342.525 160.248 342.095 160.358" stroke="#2071B5" stroke-width="4.20561" stroke-linecap="round" stroke-linejoin="round"/>
<path d="M363.435 317.092C363.465 321.572 363.425 326.042 363.235 330.522C363.205 331.172 363.095 331.742 362.775 332.282" stroke="#2071B5" stroke-width="4.20561" stroke-linecap="round" stroke-linejoin="round"/>
<path d="M374.657 228.382C374.807 233.442 374.377 238.512 374.877 243.572" stroke="#2071B5" stroke-width="4.20561" stroke-linecap="round" stroke-linejoin="round"/>
<path d="M207.798 185.904C204.828 186.734 201.918 187.784 199.008 188.804C198.528 188.974 198.108 188.874 197.668 188.984" stroke="#2071B5" stroke-width="4.20561" stroke-linecap="round" stroke-linejoin="round"/>
<path d="M140.453 211.638C140.273 215.608 140.803 219.558 140.893 223.528C140.913 224.338 140.983 225.158 140.673 225.948" stroke="#2071B5" stroke-width="4.20561" stroke-linecap="round" stroke-linejoin="round"/>
<path d="M114.026 295.519C110.746 296.389 107.616 297.739 104.336 298.599" stroke="#2071B5" stroke-width="4.20561" stroke-linecap="round" stroke-linejoin="round"/>
<path d="M143.095 314.453C142.755 317.703 143.775 320.893 143.535 324.143" stroke="#2071B5" stroke-width="4.20561" stroke-linecap="round" stroke-linejoin="round"/>
<path d="M240.831 282.092C241.901 281.602 242.991 282.052 243.891 282.382C245.851 283.102 247.911 283.392 249.851 284.102C252.051 284.912 253.821 283.472 255.791 283.112C256.481 282.992 257.291 282.662 258.011 282.312" stroke="#2071B5" stroke-width="4.20561" stroke-linecap="round" stroke-linejoin="round"/>
<path d="M150.137 176.214C152.817 177.734 155.807 178.704 158.307 180.584C158.587 180.794 159.387 182.794 159.827 182.794" stroke="#2071B5" stroke-width="4.20561" stroke-linecap="round" stroke-linejoin="round"/>
<path d="M300.698 239.176C297.508 239.896 294.618 241.496 291.448 242.256" stroke="#2071B5" stroke-width="4.20561" stroke-linecap="round" stroke-linejoin="round"/>
<path d="M375.552 243.558C374.692 243.468 374.602 243.818 374.632 244.658C374.732 247.438 374.672 250.228 374.672 253.018" stroke="#2071B5" stroke-width="4.20561" stroke-linecap="round" stroke-linejoin="round"/>
<path d="M374.433 253.474C374.883 255.444 374.583 257.434 374.653 259.414C374.793 263.664 374.363 267.934 374.873 272.184" stroke="#2071B5" stroke-width="4.20561" stroke-linecap="round" stroke-linejoin="round"/>
<path d="M93.774 213.188C92.374 216.088 90.724 218.868 89.814 221.988" stroke="#2071B5" stroke-width="4.20561" stroke-linecap="round" stroke-linejoin="round"/>
<path d="M257.554 342.185C257.274 345.115 258.204 348.055 257.554 350.985" stroke="#2071B5" stroke-width="4.20561" stroke-linecap="round" stroke-linejoin="round"/>
<path d="M378.176 293.103C379.906 294.863 381.996 296.183 383.906 297.713C384.826 298.453 385.936 298.973 386.426 300.143" stroke="#2071B5" stroke-width="4.20561" stroke-linecap="round" stroke-linejoin="round"/>
<path d="M102.154 292.879C99.3244 293.609 96.6244 294.789 93.7944 295.519" stroke="#2071B5" stroke-width="4.20561" stroke-linecap="round" stroke-linejoin="round"/>
<path d="M269.015 137.032C266.595 137.442 264.265 138.192 261.985 139.052C261.505 139.232 261.085 139.122 260.645 139.232" stroke="#2071B5" stroke-width="4.20561" stroke-linecap="round" stroke-linejoin="round"/>
<path d="M99.9481 300.363C97.1181 301.093 94.4181 302.273 91.5881 303.003" stroke="#2071B5" stroke-width="4.20561" stroke-linecap="round" stroke-linejoin="round"/>
<path d="M374.642 272.841V280.761" stroke="#2071B5" stroke-width="4.20561" stroke-linecap="round" stroke-linejoin="round"/>
<path d="M434.087 275.271C433.167 278.021 431.877 280.611 430.567 283.191" stroke="#2071B5" stroke-width="4.20561" stroke-linecap="round" stroke-linejoin="round"/>
<path d="M374.433 281.205C374.923 284.425 374.503 287.665 374.653 290.895C374.693 291.775 374.473 292.685 374.873 293.535" stroke="#2071B5" stroke-width="4.20561" stroke-linecap="round" stroke-linejoin="round"/>
<path d="M205.61 373.882C203.67 376.202 202.44 379.102 199.89 380.922" stroke="#2071B5" stroke-width="4.20561" stroke-linecap="round" stroke-linejoin="round"/>
<path d="M309.059 200.441C306.669 201.041 304.409 202.041 302.019 202.641" stroke="#2071B5" stroke-width="4.20561" stroke-linecap="round" stroke-linejoin="round"/>
<path d="M335.045 191.183C332.655 191.783 330.395 192.783 328.005 193.383" stroke="#2071B5" stroke-width="4.20561" stroke-linecap="round" stroke-linejoin="round"/>
<path d="M277.809 183.251C275.419 183.851 273.159 184.851 270.769 185.451" stroke="#2071B5" stroke-width="4.20561" stroke-linecap="round" stroke-linejoin="round"/>
<path d="M286.605 180.18C284.185 180.67 282.005 181.97 279.565 182.38" stroke="#2071B5" stroke-width="4.20561" stroke-linecap="round" stroke-linejoin="round"/>
<path d="M354.413 173.992C352.023 174.592 349.763 175.592 347.373 176.192" stroke="#2071B5" stroke-width="4.20561" stroke-linecap="round" stroke-linejoin="round"/>
<path d="M345.602 177.093C343.212 177.693 340.952 178.693 338.562 179.293" stroke="#2071B5" stroke-width="4.20561" stroke-linecap="round" stroke-linejoin="round"/>
<path d="M295.402 177.093C293.012 177.693 290.752 178.693 288.362 179.293" stroke="#2071B5" stroke-width="4.20561" stroke-linecap="round" stroke-linejoin="round"/>
<path d="M159.813 183.251V190.071" stroke="#2071B5" stroke-width="4.20561" stroke-linecap="round" stroke-linejoin="round"/>
<path d="M140.237 172.039C142.367 173.039 144.307 174.549 146.837 174.459" stroke="#2071B5" stroke-width="4.20561" stroke-linecap="round" stroke-linejoin="round"/>
<path d="M240.831 229.708C241.961 231.648 256.601 245.608 258.001 247.308" stroke="#2071B5" stroke-width="4.20561" stroke-linecap="round" stroke-linejoin="round"/>
<path d="M398.864 299.932C397.744 302.252 396.334 304.402 394.904 306.532" stroke="#2071B5" stroke-width="4.20561" stroke-linecap="round" stroke-linejoin="round"/>
<path d="M382.585 127.797C380.365 126.807 378.335 125.417 375.985 124.717" stroke="#2071B5" stroke-width="4.20561" stroke-linecap="round" stroke-linejoin="round"/>
<path d="M337.678 162.139C335.358 162.269 333.398 163.769 331.078 163.899" stroke="#2071B5" stroke-width="4.20561" stroke-linecap="round" stroke-linejoin="round"/>
<path d="M277.369 264.269C275.059 264.679 273.049 265.999 270.769 266.469" stroke="#2071B5" stroke-width="4.20561" stroke-linecap="round" stroke-linejoin="round"/>
<path d="M364.534 148.482C366.624 150.212 368.524 152.122 370.254 154.202" stroke="#2071B5" stroke-width="4.20561" stroke-linecap="round" stroke-linejoin="round"/>
<path d="M125.477 361.119C127.057 363.059 128.817 364.829 130.757 366.399" stroke="#2071B5" stroke-width="4.20561" stroke-linecap="round" stroke-linejoin="round"/>
<path d="M258.424 314.006V324.576" stroke="#2071B5" stroke-width="4.20561" stroke-linecap="round" stroke-linejoin="round"/>
<path d="M102.147 320.179C99.4268 320.819 96.9968 322.339 94.2268 322.819" stroke="#2071B5" stroke-width="4.20561" stroke-linecap="round" stroke-linejoin="round"/>
<path d="M163.794 223.76C165.774 225.13 167.094 227.23 169.074 228.6" stroke="#2071B5" stroke-width="4.20561" stroke-linecap="round" stroke-linejoin="round"/>
<path d="M209.149 252.386C209.849 254.166 210.849 255.806 211.349 257.666" stroke="#2071B5" stroke-width="4.20561" stroke-linecap="round" stroke-linejoin="round"/>
<path d="M401.076 141.43C402.866 142.87 404.476 144.48 405.916 146.27" stroke="#2071B5" stroke-width="4.20561" stroke-linecap="round" stroke-linejoin="round"/>
<path d="M374.642 217.602V222.662" stroke="#2071B5" stroke-width="4.20561" stroke-linecap="round" stroke-linejoin="round"/>
<path d="M104.793 199.994C103.003 201.434 101.393 203.044 99.9529 204.834" stroke="#2071B5" stroke-width="4.20561" stroke-linecap="round" stroke-linejoin="round"/>
<path d="M195.038 375.194C193.418 376.354 191.898 377.664 190.198 378.714" stroke="#2071B5" stroke-width="4.20561" stroke-linecap="round" stroke-linejoin="round"/>
<path d="M372.45 144.084C374.14 145.154 375.16 146.974 376.85 148.044" stroke="#2071B5" stroke-width="4.20561" stroke-linecap="round" stroke-linejoin="round"/>
<path d="M242.784 308.951C243.484 310.191 243.464 311.551 243.444 312.911" stroke="#2071B5" stroke-width="4.20561" stroke-linecap="round" stroke-linejoin="round"/>
<path d="M169.49 178.853C169.2 181.573 170.44 184.263 169.71 186.993" stroke="#2071B5" stroke-width="4.20561" stroke-linecap="round" stroke-linejoin="round"/>
<path d="M183.594 350.549C184.214 351.739 185.454 352.359 186.194 353.489C186.924 352.569 187.914 351.989 188.434 350.989" stroke="#2071B5" stroke-width="4.20561" stroke-linecap="round" stroke-linejoin="round"/>
<path d="M57.6699 311.379C55.1599 312.979 55.6699 315.529 55.9799 317.749C56.3299 320.269 57.2399 322.749 59.2299 324.559C59.9199 325.189 60.6099 325.909 61.8699 325.509C63.2999 325.059 63.6499 323.919 63.7999 322.819C64.3299 318.899 63.0999 315.459 60.5299 312.479C59.8499 311.689 58.9799 311.259 57.8899 311.369" stroke="#2071B5" stroke-width="4.20561" stroke-linecap="round" stroke-linejoin="round"/>
</svg>
