<svg width="500" height="500" viewBox="0 0 500 500" fill="none" xmlns="http://www.w3.org/2000/svg">
<path d="M303.38 203.97C302.37 205.49 300.6 205.99 299.21 206.99C290.7 213.07 280.98 216.23 270.87 218.36C259.43 220.77 247.87 221.41 236.18 220.82C225.57 220.28 215.21 218.76 204.96 215.83C194.2 212.76 184 208.61 174.67 202.43C165.65 196.46 158.85 188.72 155.39 178.25C154.76 176.33 154.71 174.09 153.06 172.56L154.26 169.59C155.35 166.9 157.4 164.71 160.03 163.49C162.66 162.27 166.07 161.32 169.03 162.51" fill="#FFDA00" fill-opacity="0.7"/>
<path d="M303.38 203.97C302.37 205.49 300.6 205.99 299.21 206.99C290.7 213.07 280.98 216.23 270.87 218.36C259.43 220.77 247.87 221.41 236.18 220.82C225.57 220.28 215.21 218.76 204.96 215.83C194.2 212.76 184 208.61 174.67 202.43C165.65 196.46 158.85 188.72 155.39 178.25C154.76 176.33 154.71 174.09 153.06 172.56L154.26 169.59C155.35 166.9 157.4 164.71 160.03 163.49C162.66 162.27 166.07 161.32 169.03 162.51" stroke="#2071B5" stroke-width="4.21" stroke-linecap="round" stroke-linejoin="round"/>
<path d="M340.47 197.64C341.44 198.52 340.64 199.54 340.66 200.48C340.77 206.15 340.62 211.82 340.88 217.5C341.03 220.69 340.74 223.9 340.73 227.1C340.65 249.28 340.76 271.46 340.64 293.64C340.6 300.4 340.64 307.17 340.44 313.93C340.07 326.73 340.52 339.53 340.19 352.33C340.01 359.24 340.04 366.15 339.88 373.06C339.63 383.96 339.89 394.88 339.76 405.78C339.72 408.94 339.8 412.14 338.36 415.2C337.51 417 336.51 418.64 334.98 419.7C322.63 428.27 310.64 437.34 298.18 445.76C291.64 450.18 284.76 451.04 277.43 448.94C265.09 445.42 252.87 441.45 240.56 437.81C230.37 434.79 220.19 431.73 210.01 428.67C197.23 424.83 184.37 421.24 171.61 417.34C162.96 414.7 154.3 412.11 145.63 409.56C133.64 406.03 121.65 402.5 109.66 398.98C101.95 396.72 94.22 394.54 86.53 392.25C84.57 391.67 82.73 390.75 81.11 389.59C78.65 387.83 77.7401 385.17 77.8301 382.22C77.8701 380.91 77.44 379.53 78.24 378.29" stroke="#2071B5" stroke-width="4.21" stroke-linecap="round" stroke-linejoin="round"/>
<path d="M176.41 165.35C175.46 168.56 174.53 171.77 174.43 175.17C174.22 182.52 177.38 187.99 183.12 192.47C188.79 196.89 195.24 199.45 201.94 201.54C209.49 203.9 217.24 205.49 225.06 206.55C235.2 207.93 245.39 208.07 255.6 207.27C262.25 206.74 268.84 205.91 275.22 203.94C280.06 202.45 285.01 201.19 289.22 198.12C289.66 197.8 290.45 198.03 291.17 198.2C297.65 199.69 303.87 202.05 310.32 203.64C314.41 204.65 318.44 206.02 322.54 207.11C324.51 207.63 325.87 207.22 327.37 206.16C337.72 198.91 348.07 191.68 358.36 184.36C367.09 178.15 375.85 171.98 384.76 166.04C386.11 165.14 385.78 164.1 385.83 162.94C386.3 152.54 385.96 142.14 386.01 131.74C386.03 127.56 385.63 123.42 383.87 119.52C380.44 111.94 374.86 106.8 366.84 104.48C353.51 100.63 340.25 96.5501 326.94 92.6301C314.36 88.9301 301.72 85.4101 289.19 81.5301C276.05 77.4601 262.86 73.5401 249.67 69.6501C238.55 66.3701 227.4 63.1801 216.31 59.7701C206.94 56.8901 197.58 53.9601 188.15 51.3101C181.04 49.3201 173.99 49.1101 167.61 54.2101C164.31 56.8501 160.55 58.9501 156.97 61.2501C146.84 67.7601 136.74 74.3201 126.65 80.8901C124.72 82.1501 122.87 83.6501 120.9 84.6601C118.96 85.6601 116.65 86.1401 114.66 87.2301C112.72 88.2801 110.93 89.5701 109.22 90.9501C106.53 93.1101 105.56 96.1901 105.54 99.4401C105.44 112.89 105.5 126.35 105.49 139.8C105.49 141.37 105.94 142.31 107.66 142.91C116.68 146.04 125.87 148.63 134.95 151.59C141.42 153.7 147.89 155.83 154.38 157.88C161.13 160.02 167.9 162.13 174.66 164.23C181.16 166.25 187.54 168.66 194.08 170.54C205.19 173.73 216.34 176.77 227.46 179.92C236.49 182.48 245.48 185.24 254.53 187.7C263.49 190.13 272.35 192.89 281.31 195.32C283.88 196.02 286.73 196.3 288.98 198.05" stroke="#2071B5" stroke-width="4.21" stroke-linecap="round" stroke-linejoin="round"/>
<path d="M121 85.0698C123.56 86.8498 126.64 87.1998 129.51 88.1098C136.39 90.2998 143.3 92.4098 150.22 94.4798C158.44 96.9398 166.67 99.3898 174.86 101.94C181.83 104.11 188.83 106.15 195.83 108.17C208.26 111.75 220.69 115.35 233.11 118.97C241.28 121.35 249.4 123.95 257.6 126.2C271.5 130.03 285.2 134.46 299.02 138.54C304.14 140.05 309.28 141.5 314.3 143.32C324.31 146.95 329.65 154.56 332.13 164.5C332.45 165.78 332.43 167.24 332.43 168.63C332.4 178.23 332.38 187.83 332.45 197.43C332.45 198.86 332.05 200.19 331.98 201.58" stroke="#2071B5" stroke-width="4.21" stroke-linecap="round" stroke-linejoin="round"/>
<path d="M359.23 119.32C350.61 116.9 342.05 114.29 333.48 111.69C322.78 108.44 312.07 105.24 301.38 101.95C293.33 99.4802 285.27 97.0502 277.19 94.6602C266.47 91.4902 255.8 88.1502 245.1 84.9202C236.91 82.4402 228.68 80.0802 220.47 77.6502C209.31 74.3502 198.15 71.0402 187.06 67.5002C182.28 65.9702 177.51 64.1902 172.47 63.4702" stroke="#2071B5" stroke-width="4.21" stroke-linecap="round" stroke-linejoin="round"/>
<path d="M106.82 314.14C110.08 321.15 279.37 359.8 286.8 361.95C294.71 364.23 302.49 366.95 310.35 369.39C317.14 371.49 323.87 373.77 330.66 375.87C331.93 376.26 332.45 376.85 332.44 378.29C332.36 387.53 332.37 396.76 332.41 406C332.43 410.9 330.48 414.72 326.51 417.57C317.83 423.79 309.27 430.17 300.53 436.31C297.99 438.09 295.39 439.85 292.25 440.48C287.98 441.34 283.77 441.1 279.59 439.84C269.77 436.87 259.91 434.02 250.12 430.96C242.44 428.56 234.73 426.19 226.99 423.99C213.13 420.04 199.37 415.8 185.57 411.67C169.13 406.76 152.7 401.76 136.27 396.82C123.18 392.89 110 389.29 96.9701 385.13C91.8901 383.51 86.7101 382.18 81.7101 380.29C80.3101 379.76 79.3001 378.74 78.2801 377.81C77.2101 376.83 77.8101 373.81 79.1101 372.42C81.2301 370.13 83.9901 368.7 86.5301 366.97C92.4001 362.97 98.2701 358.97 104.01 354.79C105.51 353.69 105.98 352.58 105.97 350.81C105.9 339.54 105.97 328.27 105.89 316.99C105.87 314.97 106.43 313.52 108.11 312.4C111.06 310.43 113.96 308.37 116.84 306.3" stroke="#2071B5" stroke-width="4.21" stroke-linecap="round" stroke-linejoin="round"/>
<path d="M117.51 146.59C117.05 147.28 117.31 148.05 117.31 148.77C117.29 200.84 117.27 252.91 117.36 304.98C117.36 308.53 118.06 312.09 117.95 315.67C117.93 316.42 118.15 317.22 117.52 317.85" stroke="#2071B5" stroke-width="4.21" stroke-linecap="round" stroke-linejoin="round"/>
<path d="M154.81 265.49C153.17 266.8 153.44 268.54 153.71 270.29C154.18 273.33 154.77 276.61 154.16 279.41C153.24 283.67 153.5 287.87 154.15 291.85C154.73 295.46 156.39 299.12 158.93 302.16C164.64 309 171.36 314.38 179.41 318.39C187.27 322.31 195.45 325.13 203.9 327.2C214.43 329.78 225.1 331.5 235.96 332.07C247.61 332.68 259.19 332.16 270.64 330.01C279.04 328.43 287.16 325.82 294.89 322.05C297.74 320.66 300.21 318.6 303.26 317.64" stroke="#2071B5" stroke-width="4.21" stroke-linecap="round" stroke-linejoin="round"/>
<path d="M152.63 172.55C152.29 172.84 151.94 173.22 152 173.64C152.45 176.9 151.97 180.2 152.4 183.46C152.73 185.98 153.45 188.4 153.92 190.88C155.12 197.27 158.42 202.58 162.72 207.19C168.69 213.6 176.21 217.88 184.04 221.65C193.87 226.39 204.13 229.7 214.81 231.91C226.85 234.4 239.02 235.2 251.25 234.66C262.5 234.16 273.6 232.5 284.19 228.39C290.24 226.04 296.27 223.65 301.23 219.25C301.65 218.88 302.23 218.65 302.74 218.36" stroke="#2071B5" stroke-width="4.21" stroke-linecap="round" stroke-linejoin="round"/>
<path d="M154.38 223.38C156.01 224.38 156 226.3 156.72 227.77C159.36 233.22 163.63 237.09 168.34 240.62C178.85 248.5 190.75 253.3 203.23 257.04C212.39 259.78 221.74 261.24 231.18 262.15C240.97 263.1 250.84 263.1 260.62 261.95C272.23 260.58 283.37 257.38 293.77 251.92C296.22 250.63 298.6 249.14 300.76 247.36C301.44 246.8 302.12 246.32 302.96 246.07" stroke="#2071B5" stroke-width="4.21" stroke-linecap="round" stroke-linejoin="round"/>
<path d="M154.38 237.56C155.67 238.46 155.52 240.05 156.09 241.29C158.96 247.59 163.83 252.19 169.27 256.04C178.39 262.49 188.55 266.82 199.31 269.92C206.36 271.95 213.45 273.6 220.7 274.69C230.33 276.13 239.99 276.93 249.72 276.6C264.18 276.1 278.24 273.59 291.38 267.21C294.61 265.64 300.01 262.14 302.74 259.67" stroke="#2071B5" stroke-width="4.21" stroke-linecap="round" stroke-linejoin="round"/>
<path d="M154.81 280.11C156.1 282.48 156.99 285.06 158.51 287.31C162.8 293.64 168.95 297.81 175.32 301.7C182.54 306.1 190.37 309.14 198.45 311.49C207.23 314.04 216.16 315.94 225.27 317.03C232.39 317.88 239.5 318.41 246.66 318.26C256.05 318.07 265.4 317.34 274.58 315.22C284.36 312.96 293.67 309.52 302.07 303.89C302.35 303.7 302.62 303.54 302.89 303.45C303.77 303.45 303.55 304.47 303.53 304.53C302.39 308.75 302.8 312.98 303.4 317.2C303.89 320.65 303.15 324.04 303.16 327.46C303.18 333.64 303.32 339.83 303.12 346C302.91 352.47 303.52 358.95 302.96 365.42C302.92 365.87 302.89 366.31 302.73 366.73" stroke="#2071B5" stroke-width="4.21" stroke-linecap="round" stroke-linejoin="round"/>
<path d="M153.94 193.06C152.08 194.37 152.91 196.38 153.18 197.84C153.68 200.53 154.02 203.28 154.45 205.96C155.33 211.44 157.97 215.86 161.4 219.86C166.5 225.82 173.08 229.85 179.86 233.71C188.68 238.73 198.25 241.7 207.86 244.43C215.57 246.62 223.6 247.53 231.61 248.26C238.51 248.89 245.44 248.92 252.33 248.62C260.5 248.26 268.63 247.14 276.54 244.96C284.01 242.9 291.09 239.88 297.72 235.84C299.47 234.77 300.62 232.88 302.73 232.33" stroke="#2071B5" stroke-width="4.21" stroke-linecap="round" stroke-linejoin="round"/>
<path d="M155.68 254.14C157.32 256.76 158.67 259.51 160.86 261.83C163.83 264.97 167.05 267.76 170.53 270.27C181.75 278.37 194.46 282.92 207.82 286.03C216.32 288.01 224.91 289.39 233.58 290.04C241.33 290.62 249.12 290.78 256.92 289.98C262.8 289.38 268.64 288.77 274.36 287.28C280.37 285.72 286.24 283.71 291.8 280.94C295.11 279.29 298.32 277.43 301.17 275.05C301.75 274.57 302.26 274.37 302.94 274.43" stroke="#2071B5" stroke-width="4.21" stroke-linecap="round" stroke-linejoin="round"/>
<path d="M127.32 149.64C126.99 150.27 127.1 150.94 127.11 151.6C127.27 180.76 126.85 209.92 126.89 239.08C126.91 252.17 127.01 265.26 126.85 278.35C126.74 287.66 126.7 296.97 126.8 306.28C126.84 310.56 126.82 314.86 126.67 319.15" stroke="#2071B5" stroke-width="4.21" stroke-linecap="round" stroke-linejoin="round"/>
<path d="M372.54 175.17C372.89 175.87 372.75 176.62 372.75 177.35C372.75 198.44 372.94 219.53 372.71 240.62C372.41 267.6 372.76 294.58 372.5 321.56C372.39 332.9 372.24 344.25 372.04 355.59C371.92 362.06 372 368.54 371.88 375.01C371.88 375.37 372.08 375.8 371.67 376.1" stroke="#2071B5" stroke-width="4.21" stroke-linecap="round" stroke-linejoin="round"/>
<path d="M153.94 237.56C153.49 237.97 153.16 238.45 153.29 239.09C153.81 241.61 153.76 244.2 154.26 246.75C154.76 249.34 155.38 251.96 154.74 254.83C154.15 257.52 154.5 260.47 155 263.31C156.28 270.64 160.69 276.06 166 280.69C171.19 285.22 177.13 288.72 183.38 291.7C192.51 296.05 202.12 298.8 211.98 300.83C219.54 302.38 227.18 303.48 234.89 303.85C243.48 304.26 252.05 304.12 260.64 303.11C268.99 302.13 277.16 300.61 285.06 297.77C291.15 295.58 296.99 292.84 302.33 289.1C303.23 288.47 303.43 287.83 303.4 286.88C303.26 282.81 303.2 278.71 303.35 274.67C303.47 271.38 303.3 262.86 303.4 259.58" stroke="#2071B5" stroke-width="4.21" stroke-linecap="round" stroke-linejoin="round"/>
<path d="M364.25 181.28C364.72 181.73 364.45 182.3 364.45 182.81C364.47 196.7 364.61 210.59 364.43 224.48C364.06 253.35 364.35 282.22 364.26 311.09C364.26 314.21 364.53 317.34 364.46 320.47" stroke="#2071B5" stroke-width="4.21" stroke-linecap="round" stroke-linejoin="round"/>
<path d="M146.3 155.53V318.28" stroke="#2071B5" stroke-width="4.21" stroke-linecap="round" stroke-linejoin="round"/>
<path d="M282 412.1C278.38 411.28 274.87 410.06 271.31 409.04C260.08 405.81 248.9 402.38 237.72 399C225.82 395.41 213.84 392.1 201.93 388.58C191.91 385.62 181.92 382.56 171.84 379.8C167.25 378.54 162.79 376.77 158.09 375.89" stroke="#2071B5" stroke-width="4.21" stroke-linecap="round" stroke-linejoin="round"/>
<path d="M346.8 193.28C347.15 193.98 347.01 194.73 347.01 195.46C347.01 220.91 347.18 246.37 346.95 271.82C346.82 285.93 346.93 300.04 346.79 314.14C346.79 314.5 346.99 314.93 346.58 315.23" stroke="#2071B5" stroke-width="4.21" stroke-linecap="round" stroke-linejoin="round"/>
<path d="M331.74 132.41C328.92 130.43 325.56 129.84 322.35 128.95C312.85 126.33 303.43 123.46 294 120.61C283.69 117.49 273.31 114.61 263.02 111.45C252.49 108.21 241.84 105.36 231.38 101.88C231.12 101.79 230.8 101.87 230.51 101.87" stroke="#2071B5" stroke-width="4.21" stroke-linecap="round" stroke-linejoin="round"/>
<path d="M268.91 399.01C265.72 398.37 262.66 397.24 259.53 396.38C252.32 394.39 245.11 392.37 237.94 390.26C223.86 386.1 209.72 382.12 195.63 377.99C189.87 376.3 184 374.97 178.36 372.85C178.04 372.73 177.64 372.83 177.27 372.83" stroke="#2071B5" stroke-width="4.21" stroke-linecap="round" stroke-linejoin="round"/>
<path d="M153.5 293.2C153.29 297.24 153.68 301.24 154.4 305.19C154.72 306.94 154.96 308.71 155.43 310.44C156.75 315.32 159.79 319.09 163.34 322.4C173.5 331.88 185.79 337.21 199.06 340.85C208.13 343.33 217.32 344.91 226.59 346.12C229.68 346.52 232.83 346.87 235.96 347.07C236.32 347.09 236.67 347.11 237.07 346.89C238.35 346.2 239.78 346.18 241.2 346.21C251.39 346.4 261.53 345.95 271.52 343.8C282.36 341.46 292.75 337.99 301.86 331.39C302.08 331.23 302.5 331.52 302.72 331.16" stroke="#2071B5" stroke-width="4.21" stroke-linecap="round" stroke-linejoin="round"/>
<path d="M189.06 116.26C195.37 118.22 201.68 120.14 208.03 121.97C214.71 123.9 221.43 125.69 228.1 127.66C232.52 128.97 236.94 130.26 241.43 131.27C243.3 131.69 245.13 132.44 247.09 132.4" stroke="#2071B5" stroke-width="4.21" stroke-linecap="round" stroke-linejoin="round"/>
<path d="M355.31 359.3C359.83 359.2 365.25 354.02 365.23 349.48C365.2 344.56 361.97 339.01 355.81 339.01C349.65 339.01 346.8 342.72 346.57 346.32C346.22 351.94 346.68 356.92 355.3 359.3" fill="#FFDA00" fill-opacity="0.7"/>
<path d="M355.31 359.3C359.83 359.2 365.25 354.02 365.23 349.48C365.2 344.56 361.97 339.01 355.81 339.01C349.65 339.01 346.8 342.72 346.57 346.32C346.22 351.94 346.68 356.92 355.3 359.3" stroke="#2071B5" stroke-width="4.21" stroke-linecap="round" stroke-linejoin="round"/>
<path d="M356.62 111.03C353.99 110.59 351.52 109.59 348.99 108.84C337.34 105.4 325.78 101.64 314.08 98.3699C310.07 97.2499 306.19 95.6599 302.08 94.8799" stroke="#2071B5" stroke-width="4.21" stroke-linecap="round" stroke-linejoin="round"/>
<path d="M130.81 362.14C130.83 360.33 132.62 359.51 133.07 357.8C134.89 350.93 130.15 340.47 120.99 339.95C113.15 339.5 110.02 344.5 110.37 351.45C110.65 356.91 113.79 360.72 118.59 363.25C121.5 364.78 124.64 364.87 127.49 363.77C129.6 362.96 131.97 362.95 133.85 361.69C138.62 358.48 141.2 354 140.58 348.19C139.95 342.24 137.42 337.19 132.1 334.03C125.7 330.23 120.28 332.78 116.43 337.95C115.83 338.76 114.59 339.39 115.09 340.77" fill="#FFDA00" fill-opacity="0.7"/>
<path d="M130.81 362.14C130.83 360.33 132.62 359.51 133.07 357.8C134.89 350.93 130.15 340.47 120.99 339.95C113.15 339.5 110.02 344.5 110.37 351.45C110.65 356.91 113.79 360.72 118.59 363.25C121.5 364.78 124.64 364.87 127.49 363.77C129.6 362.96 131.97 362.95 133.85 361.69C138.62 358.48 141.2 354 140.58 348.19C139.95 342.24 137.42 337.19 132.1 334.03C125.7 330.23 120.28 332.78 116.43 337.95C115.83 338.76 114.59 339.39 115.09 340.77" stroke="#2071B5" stroke-width="4.21" stroke-linecap="round" stroke-linejoin="round"/>
<path d="M131.9 135.68C132.68 136.13 133.41 135.9 134.08 135.46C141.18 130.72 142.94 124.57 139.91 116.51C138.02 111.48 134.68 107.63 129.08 106.18C126.58 105.53 124.39 105.64 122.31 107.11C120.09 108.68 117.5 109.97 117.29 113.21" stroke="#2071B5" stroke-width="4.21" stroke-linecap="round" stroke-linejoin="round"/>
<path d="M310.58 410.79C314.17 410.91 316.22 408.54 317.97 405.97C322.39 399.46 321.08 389.38 313.19 383.75C309.55 381.15 305.7 380.23 301.64 382.88C299.49 384.29 297.53 385.97 296.44 388.34C295.72 389.89 294.34 390.78 293.3 391.99C290.06 395.75 289.32 400.03 291.03 404.43C293 409.5 296.93 412.6 302.51 413.16C304.36 413.35 306.27 413.01 307.94 412.27C311.53 410.68 312.51 407.18 312.9 403.8C313.7 396.97 308.06 388.6 299.67 388.73C298.64 388.75 297.68 389.57 296.62 388.97" fill="#FFDA00" fill-opacity="0.7"/>
<path d="M310.58 410.79C314.17 410.91 316.22 408.54 317.97 405.97C322.39 399.46 321.08 389.38 313.19 383.75C309.55 381.15 305.7 380.23 301.64 382.88C299.49 384.29 297.53 385.97 296.44 388.34C295.72 389.89 294.34 390.78 293.3 391.99C290.06 395.75 289.32 400.03 291.03 404.43C293 409.5 296.93 412.6 302.51 413.16C304.36 413.35 306.27 413.01 307.94 412.27C311.53 410.68 312.51 407.18 312.9 403.8C313.7 396.97 308.06 388.6 299.67 388.73C298.64 388.75 297.68 389.57 296.62 388.97" stroke="#2071B5" stroke-width="4.21" stroke-linecap="round" stroke-linejoin="round"/>
<path d="M310.58 190C311.33 189.98 312.05 190.04 312.77 189.58C322.91 183.1 322.07 171.23 314.08 164.68C312.11 163.07 310.03 161.79 307.53 161.19C303.32 160.18 298.39 163.62 296.73 166.72C296.16 167.79 295.51 168.49 294.64 169.04C288.74 172.77 288.06 179.68 291.66 185.6C294.66 190.54 300.94 192.72 306.44 191.8C310.96 191.04 313.53 185.7 313.19 181.5C312.69 175.39 307.38 169.4 301.42 168.2C299.85 167.89 298.15 168.67 296.62 167.75" fill="#FFDA00" fill-opacity="0.7"/>
<path d="M310.58 190C311.33 189.98 312.05 190.04 312.77 189.58C322.91 183.1 322.07 171.23 314.08 164.68C312.11 163.07 310.03 161.79 307.53 161.19C303.32 160.18 298.39 163.62 296.73 166.72C296.16 167.79 295.51 168.49 294.64 169.04C288.74 172.77 288.06 179.68 291.66 185.6C294.66 190.54 300.94 192.72 306.44 191.8C310.96 191.04 313.53 185.7 313.19 181.5C312.69 175.39 307.38 169.4 301.42 168.2C299.85 167.89 298.15 168.67 296.62 167.75" stroke="#2071B5" stroke-width="4.21" stroke-linecap="round" stroke-linejoin="round"/>
<path d="M148.06 104.26C148.04 118.44 148 134.59 148.05 148.77" stroke="#2071B5" stroke-width="4.21" stroke-linecap="round" stroke-linejoin="round"/>
<path d="M156.78 105.57V156.84" stroke="#2071B5" stroke-width="4.21" stroke-linecap="round" stroke-linejoin="round"/>
<path d="M380.18 333.34C380.18 344.32 380.29 355.3 380.12 366.28C380.06 369.91 380.18 373.56 379.77 377.19" stroke="#2071B5" stroke-width="4.21" stroke-linecap="round" stroke-linejoin="round"/>
<path d="M338.73 140.7C342.25 147.33 345.25 154.13 346.39 161.64C346.85 164.69 347.38 167.73 347.43 170.81C347.53 177.28 347.48 183.75 347.42 190.23C347.42 190.74 347.67 191.09 347.68 191.54" stroke="#2071B5" stroke-width="4.21" stroke-linecap="round" stroke-linejoin="round"/>
<path d="M266.29 323.52C262.43 323.88 258.56 324.17 254.72 324.81C253.87 324.95 252.98 324.83 252.11 324.83C247.6 324.83 243.08 325 238.59 324.78C234.58 324.59 230.55 324.38 226.58 323.55C225.74 323.37 224.84 323.52 223.97 323.52" stroke="#2071B5" stroke-width="4.21" stroke-linecap="round" stroke-linejoin="round"/>
<path d="M117.07 113.43C112.11 116.31 110.05 120.79 110.59 126.3C111.14 131.91 115.94 136.11 120.32 137.3C122.77 137.97 125.15 138.05 127.54 137.81C130.6 137.5 132.53 135.36 133.39 132.61C135.82 124.8 131.86 114.39 120.79 112.96C119.65 112.81 118.66 113.89 117.51 113.2" fill="#FFDA00" fill-opacity="0.7"/>
<path d="M117.07 113.43C112.11 116.31 110.05 120.79 110.59 126.3C111.14 131.91 115.94 136.11 120.32 137.3C122.77 137.97 125.15 138.05 127.54 137.81C130.6 137.5 132.53 135.36 133.39 132.61C135.82 124.8 131.86 114.39 120.79 112.96C119.65 112.81 118.66 113.89 117.51 113.2" stroke="#2071B5" stroke-width="4.21" stroke-linecap="round" stroke-linejoin="round"/>
<path d="M387.81 339.01C389.69 339.07 391.34 339.92 393.04 340.54C397.88 342.32 402.91 343.51 407.67 345.52C411.8 347.27 413.84 350.38 413.94 354.71C414 357.03 414.2 359.35 413.64 361.71C413.28 363.25 412.52 364.16 411.37 364.96C404.36 369.82 397.3 374.63 390.13 379.24C387.03 381.23 384.04 383.42 380.88 385.34C379.06 386.45 377.38 386.72 375.6 386.09C367.17 383.13 358.57 380.76 350.06 378.06C346.81 377.03 343.69 375.57 340.25 375.22" stroke="#2071B5" stroke-width="4.21" stroke-linecap="round" stroke-linejoin="round"/>
<path d="M252.77 241.49C247.97 241.49 243.16 241.64 238.37 241.44C234.36 241.27 230.35 240.79 226.36 240.28C223.54 239.92 220.74 239.2 217.86 239.31" stroke="#2071B5" stroke-width="4.21" stroke-linecap="round" stroke-linejoin="round"/>
<path d="M281.13 146.37C279.74 146.06 279.81 146.95 279.81 147.9C279.81 154.52 280.08 161.14 280.22 167.75C280.38 175.89 280.26 184.04 280.26 192.18V193.49" stroke="#2071B5" stroke-width="4.21" stroke-linecap="round" stroke-linejoin="round"/>
<path d="M254.95 296.91C250.88 296.91 246.81 296.91 242.73 296.91C237.09 296.92 231.49 296.6 225.93 295.62C225.15 295.48 224.33 295.6 223.53 295.6" stroke="#2071B5" stroke-width="4.21" stroke-linecap="round" stroke-linejoin="round"/>
<path d="M257.57 310.43C247.81 311.21 238.07 310.88 228.34 309.99" stroke="#2071B5" stroke-width="4.21" stroke-linecap="round" stroke-linejoin="round"/>
<path d="M148.21 102.14C144.16 101.31 141.96 100.2 138.01 99.0301C132.17 97.2901 126.35 95.4801 120.55 93.5901C120.29 93.5001 119.97 93.5801 119.68 93.5801" stroke="#2071B5" stroke-width="4.21" stroke-linecap="round" stroke-linejoin="round"/>
<path d="M336.54 152.92C338.18 157.39 339.64 161.91 340.25 166.66C340.84 171.22 341.49 175.77 340.93 180.41C340.68 182.5 341.24 184.62 341.13 186.73C341.02 188.76 341.22 190.8 340.94 192.84C340.79 193.92 340.71 195.08 341.34 196.11" stroke="#2071B5" stroke-width="4.21" stroke-linecap="round" stroke-linejoin="round"/>
<path d="M334.36 326.36C331.85 327.76 332.16 330.15 332.17 332.47C332.2 340.32 332.17 348.18 332.19 356.03" stroke="#2071B5" stroke-width="4.21" stroke-linecap="round" stroke-linejoin="round"/>
<path d="M153.72 321.78C150.65 321.34 147.93 319.8 145 318.93C138.94 317.12 132.99 314.95 126.89 313.28" stroke="#2071B5" stroke-width="4.21" stroke-linecap="round" stroke-linejoin="round"/>
<path d="M413.34 353.41C407.35 357.14 401.49 361.1 395.44 364.74C392.76 366.36 390.29 368.32 387.37 369.55" stroke="#2071B5" stroke-width="4.21" stroke-linecap="round" stroke-linejoin="round"/>
<path d="M372.76 322.87C376.89 324.14 380.98 325.58 385.19 326.59C386.72 326.96 387.42 327.95 387.4 329.63C387.33 335.23 387.55 340.84 387.33 346.43C387.07 352.76 387.37 359.09 387.13 365.41C386.97 369.63 386.95 373.85 386.94 378.06C386.94 378.87 386.78 379.71 387.26 380.46" stroke="#2071B5" stroke-width="4.21" stroke-linecap="round" stroke-linejoin="round"/>
<path d="M340.47 321.34C343.39 321.95 346.1 323.22 348.97 323.98C355.63 325.73 362.16 327.91 368.82 329.67C369.85 329.94 370.82 330.5 371.88 330.73" stroke="#2071B5" stroke-width="4.21" stroke-linecap="round" stroke-linejoin="round"/>
<path d="M261.93 191.31C254.08 191.18 246.22 191.33 238.37 191.31" stroke="#2071B5" stroke-width="4.21" stroke-linecap="round" stroke-linejoin="round"/>
<path d="M288.55 146.37C287.53 146.59 287.68 147.39 287.68 148.12C287.69 157.07 287.59 166.01 287.91 174.95C288.15 181.93 288.1 188.91 288.14 195.89C288.14 196.24 287.88 196.45 287.9 196.76" stroke="#2071B5" stroke-width="4.21" stroke-linecap="round" stroke-linejoin="round"/>
<path d="M257.13 282.94C249.57 283.25 242 283.25 234.44 282.94" stroke="#2071B5" stroke-width="4.21" stroke-linecap="round" stroke-linejoin="round"/>
<path d="M387.81 346.87C390.01 347.62 392.34 347.97 394.39 349.22C394.98 349.58 395.6 349.88 396.1 350.36C398.05 352.22 397.85 353.72 395.68 355.4C393.22 357.29 390.42 357.18 387.59 357.13" fill="#FFDA00" fill-opacity="0.7"/>
<path d="M387.81 346.87C390.01 347.62 392.34 347.97 394.39 349.22C394.98 349.58 395.6 349.88 396.1 350.36C398.05 352.22 397.85 353.72 395.68 355.4C393.22 357.29 390.42 357.18 387.59 357.13" stroke="#2071B5" stroke-width="4.21" stroke-linecap="round" stroke-linejoin="round"/>
<path d="M255.39 338.79H234.45" stroke="#2071B5" stroke-width="4.21" stroke-linecap="round" stroke-linejoin="round"/>
<path d="M281.11 360.52C280.8 364.93 280.84 364.2 280.82 364.53C280.45 371.51 280.82 378.5 280.69 385.48" stroke="#2071B5" stroke-width="4.21" stroke-linecap="round" stroke-linejoin="round"/>
<path d="M371.67 376.1C368.35 375.08 354.36 370.91 350.94 370.21" stroke="#2071B5" stroke-width="4.21" stroke-linecap="round" stroke-linejoin="round"/>
<path d="M155.03 331.38V366.29" stroke="#2071B5" stroke-width="4.21" stroke-linecap="round" stroke-linejoin="round"/>
<path d="M312.11 349.7C313.82 350.17 315.62 350.39 316.91 351.24C316.91 356.61 316.95 365.65 316.91 370.81" stroke="#2071B5" stroke-width="4.21" stroke-linecap="round" stroke-linejoin="round"/>
<path d="M253.64 213.57H234.88" stroke="#2071B5" stroke-width="4.21" stroke-linecap="round" stroke-linejoin="round"/>
<path d="M311.67 284.69C310.16 285.34 311.09 286.76 311.13 287.52C311.55 295.66 310.95 303.82 311.58 311.97C312.03 317.83 311.67 323.74 311.67 329.63C311.67 342.57 311.65 356.51 311.65 369.45" stroke="#2071B5" stroke-width="4.21" stroke-linecap="round" stroke-linejoin="round"/>
<path d="M337.2 273.78C337.85 277.98 337.59 282.24 337.53 286.43C337.31 301.41 337.55 316.39 337.42 331.37" stroke="#2071B5" stroke-width="4.21" stroke-linecap="round" stroke-linejoin="round"/>
<path d="M340.91 313.7C349.34 316.19 357.79 318.6 366.2 321.16C366.67 321.3 367.09 321.23 367.52 321.34" stroke="#2071B5" stroke-width="4.21" stroke-linecap="round" stroke-linejoin="round"/>
<path d="M317.13 206.37C316.61 208.33 317.1 210.3 317.12 212.26C317.16 215.46 317.12 218.66 317.14 221.86C317.14 222.46 316.84 223.17 317.57 223.6C316.89 224.16 316.49 225.03 315.6 225.35" stroke="#2071B5" stroke-width="4.21" stroke-linecap="round" stroke-linejoin="round"/>
<path d="M254.08 255.45H237.06" stroke="#2071B5" stroke-width="4.21" stroke-linecap="round" stroke-linejoin="round"/>
<path d="M332.62 309.34C332.5 314.79 332.88 320.25 332.39 325.7C332.36 325.99 332.74 326.07 332.62 326.36" stroke="#2071B5" stroke-width="4.21" stroke-linecap="round" stroke-linejoin="round"/>
<path d="M280.91 385.92C280.4 390.71 280.84 395.52 280.68 400.32C280.65 401.05 280.94 401.81 280.47 402.5" stroke="#2071B5" stroke-width="4.21" stroke-linecap="round" stroke-linejoin="round"/>
<path d="M253.2 227.53H236.62" stroke="#2071B5" stroke-width="4.21" stroke-linecap="round" stroke-linejoin="round"/>
<path d="M332.18 356.03C332.18 361.48 332.44 372.83 332.44 378.28" stroke="#2071B5" stroke-width="4.21" stroke-linecap="round" stroke-linejoin="round"/>
<path d="M249.71 269.42C244.32 269.66 238.96 268.71 233.57 268.98" stroke="#2071B5" stroke-width="4.21" stroke-linecap="round" stroke-linejoin="round"/>
<path d="M330 268.11C329.16 268.89 329.11 269.86 329.1 270.95C329.02 280.11 329 289.28 329.02 298.44C329.05 308.69 328.99 318.95 329.13 329.2" stroke="#2071B5" stroke-width="4.21" stroke-linecap="round" stroke-linejoin="round"/>
<path d="M333.49 250.22C332.72 250.69 332.86 251.45 332.83 252.18C332.51 260.25 332.64 268.32 332.62 276.4C332.6 286.87 332.62 297.34 332.62 307.82" stroke="#2071B5" stroke-width="4.21" stroke-linecap="round" stroke-linejoin="round"/>
<path d="M315.16 324.83C316.15 324.13 316.15 324.15 316.93 323.76C316.84 326.12 317.08 328.31 317.11 330.5C317.15 334.35 317.12 338.21 317.12 342.06" stroke="#2071B5" stroke-width="4.21" stroke-linecap="round" stroke-linejoin="round"/>
<path d="M323.89 138.08C320.38 137.56 317.09 136.21 313.65 135.42C312.11 135.07 310.66 134.31 309.06 134.15" stroke="#2071B5" stroke-width="4.21" stroke-linecap="round" stroke-linejoin="round"/>
<path d="M322.8 246.29C323.3 251.37 322.92 256.47 323.01 261.56C323.07 265.56 323.02 269.56 323.02 273.56C323.02 274.16 322.87 274.87 323.89 274.65" stroke="#2071B5" stroke-width="4.21" stroke-linecap="round" stroke-linejoin="round"/>
<path d="M318.65 249.78C317.49 250.27 317.12 251.2 317.12 252.4C317.12 261.42 317.12 270.44 317.12 279.45C317.12 284.32 317.09 289.19 317.14 294.07C317.15 295.5 315.76 295.33 315.16 296.03" stroke="#2071B5" stroke-width="4.21" stroke-linecap="round" stroke-linejoin="round"/>
<path d="M329.13 207.46C329.13 223.02 329.1 238.59 329.19 254.15C329.19 255.2 328.55 255.61 328.25 256.33" stroke="#2071B5" stroke-width="4.21" stroke-linecap="round" stroke-linejoin="round"/>
<path d="M311.02 204.18C310.52 207.66 310.84 211.16 310.82 214.65C310.76 225.05 310.77 235.45 310.82 245.85C310.84 248.98 311.08 252.09 310.9 255.24C310.84 256.27 310.69 256.34 309.93 256.32" stroke="#2071B5" stroke-width="4.21" stroke-linecap="round" stroke-linejoin="round"/>
<path d="M332.62 205.28C332.76 219.97 333.19 234.66 333.06 249.35" stroke="#2071B5" stroke-width="4.21" stroke-linecap="round" stroke-linejoin="round"/>
<path d="M317.35 351.45C322.16 352.7 326.9 354.25 331.75 355.38" stroke="#2071B5" stroke-width="4.21" stroke-linecap="round" stroke-linejoin="round"/>
<path d="M310.8 256.54C311.18 261.26 310.93 266.01 311.23 270.73C310.8 271.5 309.85 271.87 309.05 272.46" stroke="#2071B5" stroke-width="4.21" stroke-linecap="round" stroke-linejoin="round"/>
<path d="M302.73 289.27C302.85 289.96 303.45 290.41 303.42 291.23C303.28 295.23 303.52 299.23 303.28 303.23" stroke="#2071B5" stroke-width="4.21" stroke-linecap="round" stroke-linejoin="round"/>
<path d="M302.73 205.28C303.25 205.59 303.18 206.09 303.17 206.59C303.05 210.44 302.78 214.36 303.12 218.14C303.48 222.12 303 226.01 303.1 229.94C303.2 233.86 303.48 237.78 303.41 241.72C303.3 247.83 303.38 253.94 303.38 260.05" stroke="#2071B5" stroke-width="4.21" stroke-linecap="round" stroke-linejoin="round"/>
<path d="M337.2 231.24C337.85 235.81 337.45 240.41 337.51 244.99C337.57 249.63 337.57 254.3 337.42 258.95" stroke="#2071B5" stroke-width="4.21" stroke-linecap="round" stroke-linejoin="round"/>
<path d="M322.8 304.32C323.29 308.09 322.89 311.88 323.01 315.66C323.03 316.39 323.01 317.13 323.01 317.84C324.21 317.88 324.34 316.67 325.19 316.53" stroke="#2071B5" stroke-width="4.21" stroke-linecap="round" stroke-linejoin="round"/>
<path d="M281.57 88.3401C279.14 87.9401 276.93 86.8002 274.57 86.2202C272.37 85.6802 270.32 84.6402 268.04 84.4102" stroke="#2071B5" stroke-width="4.21" stroke-linecap="round" stroke-linejoin="round"/>
<path d="M154.91 208.14C153.98 211.82 153.51 218.16 154.04 221.84C154.26 223.4 153.43 224.55 153.43 226C153.43 229.73 154.07 233.41 154.16 237.13" stroke="#2071B5" stroke-width="4.21" stroke-linecap="round" stroke-linejoin="round"/>
<path d="M323.02 274.87C323.02 284.18 322.98 293.49 323.05 302.8C323.06 304.49 321.65 304.76 320.84 305.64" stroke="#2071B5" stroke-width="4.21" stroke-linecap="round" stroke-linejoin="round"/>
<path d="M328.91 255.89C329.41 259.37 328.98 262.87 329.13 266.36C329.16 267.16 328.98 267.99 329.35 268.76" stroke="#2071B5" stroke-width="4.21" stroke-linecap="round" stroke-linejoin="round"/>
<path d="M323.02 207.46C323.02 219.31 323.02 231.17 323.02 243.02C323.02 243.75 322.88 244.5 323.23 245.2" stroke="#2071B5" stroke-width="4.21" stroke-linecap="round" stroke-linejoin="round"/>
<path d="M155.68 313.92C154.71 316.93 155.39 320.04 155.34 323.08C155.31 324.65 155.33 326.28 155.47 327.88" stroke="#2071B5" stroke-width="4.21" stroke-linecap="round" stroke-linejoin="round"/>
<path d="M337.42 259.82C337.42 263.53 337.32 267.24 337.47 270.94C337.53 272.47 337.19 273.64 336.11 274.65" stroke="#2071B5" stroke-width="4.21" stroke-linecap="round" stroke-linejoin="round"/>
<path d="M188.19 115.83C184.17 115.12 180.42 113.55 176.64 112.08C176.28 111.94 175.76 112.16 175.53 111.69" stroke="#2071B5" stroke-width="4.21" stroke-linecap="round" stroke-linejoin="round"/>
<path d="M316.91 295.38C317.42 299.59 316.98 303.82 317.13 308.03" stroke="#2071B5" stroke-width="4.21" stroke-linecap="round" stroke-linejoin="round"/>
<path d="M329.56 330.07C325.39 334.49 321.97 338.35 317.12 342.07" stroke="#2071B5" stroke-width="4.21" stroke-linecap="round" stroke-linejoin="round"/>
<path d="M316.91 224.91C317.42 227.81 317.08 230.73 317.08 233.64C317.08 234.8 317.1 236.05 317.27 237.11C317.45 238.18 316.85 238.09 316.47 238.44" stroke="#2071B5" stroke-width="4.21" stroke-linecap="round" stroke-linejoin="round"/>
<path d="M305.13 150.73C301.82 149.98 298.69 148.62 295.33 148.01C294.53 147.86 293.71 147.85 292.91 147.68" stroke="#2071B5" stroke-width="4.21" stroke-linecap="round" stroke-linejoin="round"/>
<path d="M316.91 309.34C317.28 313.34 317.26 317.34 316.91 321.34" stroke="#2071B5" stroke-width="4.21" stroke-linecap="round" stroke-linejoin="round"/>
<path d="M337.42 206.15C337.42 213.79 337.34 221.42 337.49 229.06C337.52 230.47 336.5 230.93 336.11 231.9" stroke="#2071B5" stroke-width="4.21" stroke-linecap="round" stroke-linejoin="round"/>
<path d="M250.15 200.91H238.37" stroke="#2071B5" stroke-width="4.21" stroke-linecap="round" stroke-linejoin="round"/>
<path d="M317.13 238.66C317.13 242.01 317.12 245.35 317.14 248.7C317.14 249.3 316.85 250.01 317.56 250.45" stroke="#2071B5" stroke-width="4.21" stroke-linecap="round" stroke-linejoin="round"/>
<path d="M224.41 99.6801C221 98.9601 217.68 97.9301 214.39 96.8001C213.92 96.6401 213.5 96.7301 213.07 96.6201" stroke="#2071B5" stroke-width="4.21" stroke-linecap="round" stroke-linejoin="round"/>
<path d="M311.02 271.82C311.14 275.02 310.82 278.22 311.22 281.42C311.34 282.43 311.31 283.47 311.02 284.47" stroke="#2071B5" stroke-width="4.21" stroke-linecap="round" stroke-linejoin="round"/>
<path d="M340.47 366.94C343.05 367.3 345.43 368.34 347.87 369.16C348.34 369.32 348.76 369.23 349.19 369.34" stroke="#2071B5" stroke-width="4.21" stroke-linecap="round" stroke-linejoin="round"/>
<path d="M262.37 240.62C259.44 240.4 256.58 241.38 253.64 241.06" stroke="#2071B5" stroke-width="4.21" stroke-linecap="round" stroke-linejoin="round"/>
<path d="M326.07 172.55V181.28" stroke="#2071B5" stroke-width="4.21" stroke-linecap="round" stroke-linejoin="round"/>
<path d="M221.35 337.05C218.54 337.24 215.85 336.19 213.06 336.18" stroke="#2071B5" stroke-width="4.21" stroke-linecap="round" stroke-linejoin="round"/>
<path d="M262.8 226.66C260.02 226.51 257.3 227.42 254.51 227.1" stroke="#2071B5" stroke-width="4.21" stroke-linecap="round" stroke-linejoin="round"/>
<path d="M144.56 85.2801C142.16 84.8901 139.9 83.9901 137.59 83.2701C137.12 83.1201 136.7 83.2001 136.27 83.1001" stroke="#2071B5" stroke-width="4.21" stroke-linecap="round" stroke-linejoin="round"/>
<path d="M223.97 253.71C221.29 253.99 218.77 252.77 216.12 252.84" stroke="#2071B5" stroke-width="4.21" stroke-linecap="round" stroke-linejoin="round"/>
<path d="M173.79 111.03C171.2 110.06 168.59 109.17 165.94 108.41" stroke="#2071B5" stroke-width="4.21" stroke-linecap="round" stroke-linejoin="round"/>
<path d="M292.91 91.8299C290.61 91.5699 288.55 90.5099 286.38 89.8199C285.91 89.6699 285.49 89.7499 285.06 89.6499" stroke="#2071B5" stroke-width="4.21" stroke-linecap="round" stroke-linejoin="round"/>
<path d="M156.34 375.01C153.98 374.57 151.77 373.51 149.36 373.26" stroke="#2071B5" stroke-width="4.21" stroke-linecap="round" stroke-linejoin="round"/>
<path d="M248.84 115.83C246.41 115.64 244.32 114.12 241.86 114.08" stroke="#2071B5" stroke-width="4.21" stroke-linecap="round" stroke-linejoin="round"/>
<path d="M149.36 371.95C148.64 372.54 147.89 372.82 146.96 372.39C145.21 371.6 143.45 370.83 141.51 370.64" stroke="#2071B5" stroke-width="4.21" stroke-linecap="round" stroke-linejoin="round"/>
<path d="M148.05 148.77V154.22" stroke="#2071B5" stroke-width="4.21" stroke-linecap="round" stroke-linejoin="round"/>
<path d="M326.94 228.4C325.96 229.74 324.79 230.91 323.45 231.89" stroke="#2071B5" stroke-width="4.21" stroke-linecap="round" stroke-linejoin="round"/>
<path d="M155.9 88.7701C154.68 88.7201 153.69 87.7201 152.41 87.9001" stroke="#2071B5" stroke-width="4.21" stroke-linecap="round" stroke-linejoin="round"/>
<path d="M328.69 298.43C327.49 299.48 326.57 300.84 325.2 301.7" stroke="#2071B5" stroke-width="4.21" stroke-linecap="round" stroke-linejoin="round"/>
<path d="M371.89 376.97C371.85 379.3 372.06 381.65 371.45 383.95" stroke="#2071B5" stroke-width="4.21" stroke-linecap="round" stroke-linejoin="round"/>
<path d="M326.51 241.93C324.5 244.28 322.35 246.5 319.97 248.47" stroke="#2071B5" stroke-width="4.21" stroke-linecap="round" stroke-linejoin="round"/>
<path d="M372.32 322.65C371.24 322.96 368.58 321.2 367.52 321.34" stroke="#2071B5" stroke-width="4.21" stroke-linecap="round" stroke-linejoin="round"/>
<path d="M313.42 297.34C312.66 297.53 312.44 298.45 311.67 298.65" stroke="#2071B5" stroke-width="4.21" stroke-linecap="round" stroke-linejoin="round"/>
<path d="M302.95 202C303.07 202.5 302.7 203.07 303.17 203.53" stroke="#2071B5" stroke-width="4.21" stroke-linecap="round" stroke-linejoin="round"/>
<path d="M317.78 308.25C317.06 308.7 316.41 309.26 315.6 309.56" stroke="#2071B5" stroke-width="4.21" stroke-linecap="round" stroke-linejoin="round"/>
<path d="M106.6 369.77C104.98 370.5 103.11 370.36 101.54 371.46C100.38 372.27 98.82 372.8 98.81 374.35C98.79 376.13 100.18 377.02 101.79 377.65C105.33 379.03 108.86 379.74 112.72 379.02C114.65 378.66 116.59 378.42 118.36 377.59C119.69 376.96 121.15 376 120.92 374.36C120.69 372.71 119.28 371.76 117.73 371.06C114.21 369.45 110.5 369.79 106.81 369.77" fill="#FFDA00" fill-opacity="0.7"/>
<path d="M106.6 369.77C104.98 370.5 103.11 370.36 101.54 371.46C100.38 372.27 98.82 372.8 98.81 374.35C98.79 376.13 100.18 377.02 101.79 377.65C105.33 379.03 108.86 379.74 112.72 379.02C114.65 378.66 116.59 378.42 118.36 377.59C119.69 376.96 121.15 376 120.92 374.36C120.69 372.71 119.28 371.76 117.73 371.06C114.21 369.45 110.5 369.79 106.81 369.77" stroke="#2071B5" stroke-width="4.21" stroke-linecap="round" stroke-linejoin="round"/>
<path d="M281.78 422.13C279.88 423.02 277.67 422.86 275.85 424.26C273.38 426.15 273.24 427.52 275.9 429.11C278.31 430.56 280.95 431.2 283.75 431.3C287.24 431.42 290.7 431.27 294 429.98C295.55 429.37 297.59 428.88 297.61 426.93C297.63 425.05 295.84 424.14 294.22 423.44C290.28 421.76 286.12 422.15 282 422.13" fill="#FFDA00" fill-opacity="0.7"/>
<path d="M281.78 422.13C279.88 423.02 277.67 422.86 275.85 424.26C273.38 426.15 273.24 427.52 275.9 429.11C278.31 430.56 280.95 431.2 283.75 431.3C287.24 431.42 290.7 431.27 294 429.98C295.55 429.37 297.59 428.88 297.61 426.93C297.63 425.05 295.84 424.14 294.22 423.44C290.28 421.76 286.12 422.15 282 422.13" stroke="#2071B5" stroke-width="4.21" stroke-linecap="round" stroke-linejoin="round"/>
</svg>
