<?xml version="1.0" encoding="UTF-8"?>
<svg id="icons" xmlns="http://www.w3.org/2000/svg" viewBox="0 0 500 500">
  <defs>
    <style>
      .cls-1 {
        stroke-width: .92px;
      }

      .cls-1, .cls-2 {
        fill: none;
        stroke: #000;
        stroke-linecap: round;
        stroke-linejoin: round;
      }

      .cls-2 {
        stroke-width: .88px;
      }
    </style>
  </defs>
  <path class="cls-1" d="M368.5,214.33c0,2.37.02,4.74,0,7.11-.02,1.46.37,2.29,1.76,3.32,4.85,3.62,9.87,7.04,14.51,10.93,3.11,2.6,6.44,4.88,9.69,7.27,1.07.79,1.37,1.57,1.37,2.8-.03,28.14.07,56.29-.1,84.43-.04,6.27.09,12.54.08,18.81-.01,5.51-.28,11.01-.22,16.52,0,.68-.04,1.35.16,2.08.45,1.62-.27,3.1-1.8,3.61-8.1,2.73-16.09,5.81-24.54,7.38-.3.06.08-.03-.23,0"/>
  <path class="cls-1" d="M129.89,224.66c-5.16,3.52-10.11,7.32-15.14,11.02-3.27,2.4-6.43,4.95-9.88,7.08-1.38.85-1.62,1.98-1.62,3.46.03,40.38.04,80.76-.02,121.14,0,1.94.56,3.04,2.34,3.68,7.98,2.85,15.98,5.67,24.32,7.33"/>
  <path class="cls-1" d="M177.61,158.35c.49-9.02.13-18.05.23-27.07.17-15.91-.12-31.81.17-47.72.12-6.32-.89-12.49-4.72-17.92-3.7-5.24-8.79-7.97-14.95-8.91-5.8-.89-11.61-.35-17.44-.09-6.72.3-13.46.07-20.19.07-6.44,0-12.88-.45-19.26-1.02-11.61-1.04-23.2-2.38-34.67-4.64-2.46-.49-4.96-1.27-7.56-.99"/>
  <path class="cls-1" d="M438.48,50.17c-4.52.13-8.89,1.29-13.3,2.09-8.06,1.46-16.18,2.29-24.32,3.1-10.69,1.06-21.39,1.3-32.12,1.42-8.12.09-16.21-.9-24.32-.51-11.28.54-20.5,7.47-22.04,19.95-.23,1.91-.7,3.8-.68,5.74"/>
  <path class="cls-1" d="M369.07,224.66c-.79.88-.51,2.07-.5,2.98.44,49.02.07,98.04.11,147.07,0,11.16-.14,22.33-.21,33.5-.01,1.52-.25,3.06-.18,4.59.03.81-.25,1.56-.73,2.04-3.14,3.12-6.17,6.35-10.27,8.34-1.23.59-2.38.88-3.69.88-6.81-.02-13.61,0-20.42,0h-24.09c-37.93,0-75.87-.03-113.8.04-5.89.01-11.79.1-17.67.08-11.16-.04-22.33-.06-33.5-.11-1.93,0-3.39-1.15-4.78-2.13-2.78-1.98-5.29-4.32-7.84-6.6-1.06-.95-.92-2.22-.92-3.44,0-9.87,0-19.73,0-29.6v-12.16"/>
  <path class="cls-1" d="M387.08,239.34c-.49.72-.21,1.53-.21,2.29-.02,37.24-.02,74.49-.02,111.73v18.35"/>
  <path class="cls-1" d="M112,258.38c.38.12,1.09-.22.93.69-.07.37-.01.76-.01,1.15v111.5"/>
  <path class="cls-1" d="M359.32,213.87v196.39"/>
  <path class="cls-1" d="M156.74,232.69c-1.33,3.48-3.93,6.15-5.97,9.18-.27.41-.64.78-.95,1.11-1.98,2.11-2.33,4.52-2.33,7.38.09,48.79.07,97.58.08,146.38,0,1.05-.45,2.31,1.08,3.17,2.36-1.91,3.76-4.66,5.8-6.83,2.23-2.37,3.7-5.4,6.41-7.36.82-.59.93-1.55.93-2.51,0-14.61,0-29.21,0-43.82v-25.47c0-17.74-.04-35.49.03-53.23.01-4.21-.4-8.4-.18-12.63.09-1.7.76-2.76,1.56-3.87,2.13-2.99,4.34-5.93,6.38-8.98.35-.53.76-1.11.71-1.82"/>
  <path class="cls-1" d="M325.83,233.38c-.2,2.05,1.6,3.05,2.6,4.3,2.76,3.44,5.14,7.18,8.18,10.38.65.68.45,1.51.45,2.3.01,7.72,0,15.45,0,23.17,0,35.94,0,71.89-.02,107.83,0,1.78.44,3.03,1.77,4.44,3.13,3.32,5.83,7.04,8.55,10.72.52.7,1.06,1.27,1.85,1.59"/>
  <path class="cls-1" d="M194.13,233.38c-.89,3.96-2.71,7.61-3.95,11.46-.59,1.83-.87,3.63-.87,5.52,0,39.77.05,79.54-.06,119.3-.01,5.19-.52,10.42-.6,15.6-.07,4.49.05,9.02.23,13.53.01.28.29.72.65.92"/>
  <path class="cls-1" d="M310.46,248.52c0,45.27.06,90.55-.08,135.82-.01,4.65-.37,9.33-.36,14,0,.77-.07,1.5-.93,1.57-.87.07-1.82.31-2.54-.64-1.77-2.36-3.41-4.82-5.27-7.12-1.4-1.73-2.3-3.84-4.31-5.13-.56-.36-1.08-1.6-.69-2.43.65-1.38.39-2.77.4-4.15.03-13.08.02-26.16.01-39.23,0-.92.1-1.86-.23-2.75"/>
  <path class="cls-1" d="M121.86,231.77c.51.64.21,1.38.21,2.06.02,38.09.02,76.17.02,114.26v19.27"/>
  <path class="cls-1" d="M123.01,262.05c2.47-.27,4.86.92,7.57.33v107.05"/>
  <path class="cls-1" d="M162.01,247.83c4.28.44,8.57.3,13.07-.01.03,3.07.18,6.14.19,9.19.07,26,.04,52,.04,78.01,0,7.42-.19,14.84.05,22.25.26,7.8.05,15.6.18,23.4.04,2.42-.22,4.34-2.38,6.35-2.93,2.73-5.31,6.17-7.75,9.46-.82,1.11-1.59,2.37-3.02,2.99-.64-.78-.63-1.75-.62-2.73.01-2.75,0-5.51.01-8.26,0-.88.03-1.74-.46-2.52"/>
  <path class="cls-1" d="M323.3,248.52c0,43.82,0,87.64,0,131.46,0,2.58.13,4.72,2.34,7.05,3.26,3.42,6.12,7.38,8.9,11.3.41.58.66,1.39,1.66,1.4,1.05-.46.85-1.43.86-2.31,0-3.29.01-6.58,0-9.87,0-.88-.03-1.74.46-2.52"/>
  <path class="cls-1" d="M156.05,411.87c.56-.49,1.23-.21,1.84-.21,60.49-.02,120.99-.02,181.48,0,.61,0,1.27-.27,1.84.21"/>
  <path class="cls-1" d="M328.81,165.23c6.5,0,13,.01,19.5,0,1.17,0,2.17.03,3.01,1.14,3.77,4.99,8.59,8.99,12.87,13.51,5.47,5.76,10.97,11.51,16.71,17.02,1.96,1.88,3.45,4.18,5.49,5.99,1.26,1.12.58,2.76.86,4.13.3,1.47-.04,3.06.1,4.57.15,1.66-.54,2.12-2.09,2.09-4.21-.07-8.41-.05-12.62-.02-77.85.5-155.71.13-233.56.18-8.72,0-17.44-.21-26.15-.15-1.78.01-2.44-.5-2.33-2.33.15-2.36.01-4.74.24-7.11.09-.92.6-1.47,1.17-2.07,11.59-12.04,23.58-23.68,35.31-35.59,1.11-1.13,2.25-1.38,3.7-1.37,6.19.04,12.39.02,18.58.02"/>
  <path class="cls-1" d="M320.55,205.16c-68.91,0-137.81,0-206.72,0-.84,0-1.71.16-2.52-.22"/>
  <path class="cls-1" d="M335.46,223.97c-57.05,0-114.1,0-171.16,0-.94,0-1.92.22-2.75-.45"/>
  <path class="cls-1" d="M386.63,204.93c-.81.39-1.68.22-2.52.22-21.03,0-42.06,0-63.09,0"/>
  <path class="cls-1" d="M312.75,165.23c-1.3-.58-2.6.03-3.9.03-40.07-.04-80.15-.03-120.22-.01-.76,0-1.57-.27-2.29.21"/>
  <path class="cls-1" d="M242.31,345.57c0,7.8,0,15.6,0,23.4,0,8.72,0,17.44,0,26.16,0,.38-.01.77,0,1.15q.15,3.67-3.67,3.67c-3.21,0-6.43,0-9.87,0,0-3.9,0-7.57,0-11.24,0-.94.11-1.9-.46-2.75"/>
  <path class="cls-1" d="M281.09,233.15c.49,4.22,1.31,8.4,1.89,12.61.73,5.29.4,10.56.4,15.84.02,14.99.36,29.98.24,44.97,0,.73-.12,1.36-.7,1.84"/>
  <path class="cls-1" d="M296.46,173.03h-46.34"/>
  <path class="cls-1" d="M202.39,338.22c-1.31-3.53.95-6.03,2.53-8.72,2.92-4.96,6.07-9.82,8.63-14.96,4.45-8.92,10.07-17.13,14.83-25.85,3.89-7.13,8.7-13.75,12.52-20.93,3.16-5.94,14.24-6.85,17.72.69,2.56,5.55,6.01,10.63,9.22,15.8,4.05,6.53,7.62,13.33,11.47,19.96.94,1.61,1.61,3.49,3.33,4.69.86.61.59,2.16,1.2,3.14,3.23,5.18,6.15,10.54,9.22,15.81.89,1.53,1.27,3.42,2.9,4.55.5.34.37,1.28.23,1.9-.26,1.15-.18,2.3-.2,3.45"/>
  <path class="cls-1" d="M218.22,233.15c0,2.98-.89,5.82-1.43,8.71-.79,4.19-1.87,8.27-1.84,12.63.14,17.21.07,34.41.04,51.62,0,1.19.2,2.28.71,3.33"/>
  <path class="cls-1" d="M247.82,173.03h-44.51"/>
  <path class="cls-1" d="M256.31,345.57v54.38c4.51,0,9.03,0,13.47,0,1.19-3.8-.02-7.42.27-11.01.08-.97-.05-1.93.94-2.52"/>
  <path class="cls-1" d="M130.81,214.33c-.39.81-.22,1.68-.22,2.52,0,15.22,0,30.44,0,45.66"/>
  <path class="cls-1" d="M229.7,233.15c-.27,3.83-.57,7.66-1,11.46-.22,1.97.12,3.83.11,5.75-.06,10.78-.03,21.57-.03,32.35,0,1.05-.15,2.13.69,2.98"/>
  <path class="cls-1" d="M202.16,338.68c-.57.85-.46,1.81-.46,2.75,0,13.46-.02,26.92.02,40.38,0,2.03-.48,3.49-1.98,5.15-2.8,3.1-5.16,6.63-7.63,10.03-.81,1.11-1.61,2.2-2.57,3.18"/>
  <path class="cls-1" d="M329.5,424.72c.86,3.9,2.54,7.52,3.92,11.24,1.63,4.42,3.06,8.85,2.39,13.64-1.16.86-2.38.08-3.56.1-4.97.08-9.94-.03-14.91.07-1.65.03-2.51-.54-3-2.09-2.06-6.43-4.53-12.71-6.82-19.07-.48-1.34-1.33-2.5-1.65-3.88"/>
  <path class="cls-1" d="M328.81,168.45c1.97-.09,3.75.6,5.5,1.38,3.16,1.42,4.33,4.12,4.57,7.34.12,1.6.12,3.22,0,4.81-.13,1.61.69,3.38-.46,4.8-1.57,1.94-3.83,2.82-6.17,3.46-3.68,1.01-7.41,1.57-11.47,1.35v-10.53c-3.33.07-6.63-.22-9.87-1.11-3.6-.99-6.77-2.64-9.4-5.28.43-2.96,2.53-4.16,5.04-5.09,5.44-2.01,11.04-2.39,16.76-2.06,1.52.09,3.06.01,4.59.01"/>
  <path class="cls-1" d="M323.76,385.95c-.9,1.77-.36,3.67-.44,5.51-.09,2.21-.03,4.43-.01,6.65,0,.72.07,1.5-.71,1.81-.83.32-1.4-.29-1.82-.9-2.53-3.71-5.49-7.09-8.01-10.8-.58-.86-1.08-1.68-2.09-2.05"/>
  <path class="cls-1" d="M228.78,345.57c0,12.16-.01,24.32.01,36.48,0,1.82-.41,3.09-1.97,4.48-2.17,1.91-3.63,4.62-5.42,6.97-1.66,2.2-3.21,4.54-5.18,6.39-1.4-.61-1.2-1.58-1.2-2.46,0-2.75,0-5.51,0-8.26v-43.59"/>
  <path class="cls-1" d="M201.25,385.95c.64,1,.41,2.13.46,3.21.17,3.44-.39,6.91.39,10.49,2.44-1.37,3.5-3.79,5.06-5.72,1.72-2.11,3.33-4.3,5.06-6.41.62-.75,1.23-1.4,2.1-1.81"/>
  <path class="cls-1" d="M140.91,194.83c3.09-.26,5-2.44,4.82-5.51-.15-2.6-2.59-4.71-5.28-4.59-2.45.11-4.82,2.71-4.82,5.28s1.86,4.59,4.59,4.81c.15.01.3.01.46.24"/>
  <path class="cls-1" d="M283.38,385.95c-.75,1.23-.42,2.59-.45,3.9-.04,2.52-.04,5.05,0,7.57.02.93-.05,1.76-1.18,2.45-1.88-1.85-3.15-4.26-4.79-6.35-1.92-2.44-3.54-5.12-5.75-7.33-1.05-1.05-1.15-2.32-1.15-3.68.01-12.31,0-24.63,0-36.94"/>
  <path class="cls-1" d="M283.38,345.57c0,11.24,0,22.48-.02,33.73,0,.76-.07,1.54-.15,2.3-.18,1.87.01,3.45,1.66,5.15,3.26,3.36,5.73,7.46,8.37,11.37.5.73,1.05,1.4,1.76,1.87,1.47-.17,1.22-1.22,1.22-2.1,0-2.68.01-5.35,0-8.03,0-.88-.03-1.74.46-2.52"/>
  <path class="cls-1" d="M301.74,175.33c-.6.56-1,1.23-.91,2.06.29,2.67.04,5.37.27,8.03.17,2.01,2.02,2.73,3.62,3.44,5.04,2.24,10.35,2.98,16.06,2.73v40.87"/>
  <path class="cls-1" d="M177.61,167.53c-1.68,0-3.38-.12-5.05.03-3.34.29-6.52,1.16-9.42,2.94-1.69,1.03-2.04,2.51-2.11,4.37-.09,2.29-.16,4.59-.18,6.88-.05,6.17.14,5.51,5.55,7.94,3.38,1.52,7.2,1.94,11.2,1.96v40.81"/>
  <path class="cls-1" d="M192.3,424.72c-.25,3.05-1.85,5.66-2.83,8.46-1.74,4.95-3.95,9.74-5.63,14.72-.49,1.46-1.25,1.9-2.78,1.87-5.81-.1-11.62-.04-17.55-.04-.77-3.04-.47-5.94.6-8.71,1.71-4.43,3.22-8.93,5.04-13.31.4-.97.78-1.92.67-2.99"/>
  <path class="cls-1" d="M328.81,122.79c2.85.13,5.46-.86,8-1.9,1.15-.47,2.56-1.28,2.53-2.91-.04-1.58-1.24-2.34-2.5-2.98-2.24-1.15-4.6-1.73-7.1-2.12-4.98-.77-9.96-.42-14.92-.32-3.56.08-7.17.62-10.34,2.64-1.1.7-2.41,1.17-2.26,2.77.14,1.52,1.03,2.4,2.49,3.03,3.18,1.36,6.51,2.05,9.89,2.45,4.42.52,8.87.34,13.3.03"/>
  <path class="cls-1" d="M315.73,131.97c4.05-.12,8.18.5,12.14-.32,3.52-.73,6.41.45,9.44,1.67.34.14.62.27.91.48,2.66,1.93,2.45,3.83-.7,5.5-2.79,1.47-5.79,2.05-8.94,1.85"/>
  <path class="cls-1" d="M186.33,168.45c3.4-.23,6.58.85,9.08,2.87,1.61,1.3,1.88,3.9,2.12,6.08.2,1.81-.1,3.68.07,5.5.23,2.5-1,3.9-3,5.07-5.21,3.04-10.88,3.77-17,3.65.31-10.94.23-21.87.24-32.81"/>
  <path class="cls-1" d="M178.07,123.71c2.3,0,4.7.39,6.86-.3,3.19-1.02,6.63-1.16,9.65-2.69,1.22-.62,2.36-1.41,2.55-3.12-2.3-3.12-5.73-4.15-9.42-4.67-6.11-.85-12.23-.52-18.35-.21-2.46.12-4.77,1.02-7.11,1.73-1.22.37-2.01,1.34-2.79,2.36-.92,1.21-.43,2.02.49,2.77,3.01,2.42,6.55,3.28,10.32,3.45"/>
  <path class="cls-1" d="M312.98,131.28c-3.09.22-6.03.8-8.75,2.47-1.09.67-2.1,1.33-1.97,2.57.14,1.38,1.07,2.42,2.46,3,3.53,1.47,7.22,2.2,11.02,2.27,4.05.07,8.11.02,12.16.02"/>
  <path class="cls-1" d="M169.81,131.05c-2.68.37-5.43.47-7.8,2.06-1.29.87-3.06,1.38-2.73,3.44.31,1.9,1.85,2.88,3.44,3.4,3.11,1.02,6.33,1.61,9.62,1.64,4.44.04,8.87.01,13.31.01"/>
  <path class="cls-1" d="M139.53,388.24c0,9.94,0,19.88-.02,29.83,0,.76.27,1.57-.21,2.29"/>
  <path class="cls-1" d="M170.73,131.74c4.66.38,9.38.6,13.98.08,2.89-.33,5.43-.15,8.05.83.81.3,1.57.68,2.29,1.15,2.37,1.53,2.47,3.12.22,4.82-2.58,1.94-5.6,2.33-8.71,2.3"/>
  <path class="cls-1" d="M269.62,233.15c1.45,16.65.77,33.34.93,50.02.01,1.19-.2,2.28-.71,3.33"/>
  <path class="cls-1" d="M313.21,96.18c-2.24.61-4.58.82-6.69,2-.96.54-1.78,1.13-2.47,1.91-1.12,1.26-.96,2.36.45,3.42,2.92,2.21,6.44,2.52,9.87,2.7,5.5.29,11.03.13,16.51-.47,2.05-.22,4.19-.65,5.98-1.98,1.97-1.46,2.19-2.96.44-4.6-1.93-1.8-4.41-2.52-6.88-2.94-5.23-.88-10.54-.44-15.82-.51-.47,0-.84.12-1.15.47"/>
  <path class="cls-1" d="M312.75,149.17c-3.31.16-6.44.91-8.93,3.24-1.42,1.32-1.31,2.29.22,3.4,1.9,1.37,4.17,1.9,6.42,2.28,3.33.56,6.71.6,10.09.49"/>
  <path class="cls-1" d="M359.09,228.56c-5.41,2.39-11.19,2.95-16.98,3.42-1.41.11-2.75.51-4.13.71"/>
  <path class="cls-1" d="M328.81,157.89c3.13.1,6.19-.17,8.71-2.31,1.61-1.37,1.65-2.38,0-3.63-2.55-1.92-5.49-3.12-8.7-3.2-5.04-.13-10.09-.03-15.14-.03"/>
  <path class="cls-1" d="M178.07,82.18c1.63,1.02,3.53.23,5.31.8,1.5.48,1.71,1.17,1.81,2.41.25,3.13.64,6.26.41,9.41-.1,1.36.54,1.47,1.63,1.65,2.43.4,4.86.92,6.89,2.49,2.23,1.73,1.91,4.53-.69,5.48-2.28.83-4.67,1.27-7.1,1.4"/>
  <path class="cls-1" d="M164.08,442.85c2.74.5,5.51.16,8.26.21,3.36.06,6.73.01,10.09.02.87,0,1.76-.14,2.52.46"/>
  <path class="cls-1" d="M169.58,148.94c-2.71.16-5.33.85-7.54,2.34-2.87,1.94-2.42,3.88.41,5.26,2.35,1.15,4.77,1.66,7.36,1.58"/>
  <path class="cls-1" d="M112.69,238.88c.38,6.5.38,13,0,19.5"/>
  <path class="cls-1" d="M137.69,228.1c5.97,2.76,12.42,3.68,18.83,4.2,3.31.27,6.71.41,10.08.4,8.18-.02,16.37-.18,24.55.06,4.97.14,9.99.22,14.91.16,6.95-.09,13.92-.08,20.88-.19,8.87-.14,17.74-.03,26.61-.03,8.26,0,16.52-.14,24.78.05,4.66.11,9.38.27,13.99.18,7.11-.14,14.23-.06,21.34-.2,7.11-.14,14.22-.03,21.34-.03.85,0,1.7-.1,2.52.23"/>
  <path class="cls-1" d="M196.66,174.87c-3.38,2.75-7.12,4.81-11.48,5.48-2.42.37-4.83,1.23-7.34.49"/>
  <path class="cls-1" d="M248.74,165.46v66.99"/>
  <path class="cls-1" d="M177.61,81.95c-.9.64-2,.72-2.98.64-2.14-.16-2.99,1.05-2.94,2.8.09,3.46-.78,6.87-.51,10.33"/>
  <path class="cls-1" d="M313.9,95.72c-.31-3.31.55-6.56.52-9.87-.02-2.32.9-3.08,3.15-3.18,2.82-.13,5.66-.05,8.49-.04,1.42,0,1.73.87,1.85,2.07.36,3.67.57,7.33.21,11.01"/>
  <path class="cls-1" d="M160.64,214.1c0,5.05,0,10.09,0,15.14,0,.77.14,1.56-.22,2.29"/>
  <path class="cls-1" d="M337.99,174.64c-4.6,4.95-10.73,5.83-17.05,6.49-.31-.88-.15-1.74-.15-2.59-.01-14.68-.01-29.37,0-44.05,0-.76-.27-1.57.21-2.29"/>
  <path class="cls-1" d="M242.31,186.34h-16.52"/>
  <path class="cls-1" d="M177.61,425.87c-.46,4.66-.08,9.33-.26,13.99-.06,1.47.86,1.1,1.63,1.15"/>
  <path class="cls-1" d="M161.55,175.79c4.71,3.7,10.2,5.07,16.06,5.28"/>
  <path class="cls-1" d="M242.31,248.06c-.14,5.28.28,10.56-.21,15.83-.01.14.29.3.44.46"/>
  <path class="cls-1" d="M185.64,158.81c.08,4.98-.26,9.98.87,14.92.35,1.54-1.28,2.17-2.27,2.44-3.84,1.05-7.79.93-11.67.23-.91-.16-1.85-.94-2.54-1.77"/>
  <path class="cls-1" d="M188.17,385.72c-1.31.53-1.97,1.72-2.74,2.76-2.62,3.56-5.6,6.85-8.04,10.55-.23.35-.64.42-.97.71-1.07-.47-.87-1.44-.87-2.32,0-2.98-.01-5.97,0-8.95,0-.88.03-1.74-.46-2.52"/>
  <path class="cls-1" d="M183.35,233.15c.15,1.85-1.22,3.04-2.12,4.32-1.63,2.32-3.25,4.67-4.98,6.93-.73.96-1.36,1.99-1.61,3.21"/>
  <path class="cls-1" d="M256.31,233.15c0,4.82.04,9.64-.23,14.45"/>
  <path class="cls-1" d="M292.33,233.38c.73,4.17,2.4,8.08,3.53,12.14.22.8.23,1.55.37,2.32"/>
  <path class="cls-1" d="M243,233.15c.03,4.82-.38,9.63-.46,14.45"/>
  <path class="cls-1" d="M304.26,233.38c1.09,3.89,2.96,7.48,4.32,11.26.34.93.86,1.89.73,2.97"/>
  <path class="cls-1" d="M206.06,233.38c-.75,4.16-2.6,8.02-3.53,12.14-.16.69-.25,1.39-.37,2.09"/>
  <path class="cls-1" d="M175.32,248.06h14"/>
  <path class="cls-1" d="M256.08,373.1c-17.97-.13-35.95.27-53.92-.23"/>
  <path class="cls-1" d="M175.78,338.22c8.26,0,16.52.02,24.78-.02,1.38,0,2.81.07,3.4,1.41,2.18,4.92,6.61,5.61,11.05,5.63,4.59.02,9.19.11,13.76,0,8.26-.21,16.52-.05,24.78-.12,9.18-.08,18.35-.06,27.53,0,2.71.02,5.43.13,8.02-.74,2.23-.75,4.07-2.25,4.98-4.37.83-1.93,2.06-1.85,3.74-1.84,16.98.07,33.96.04,50.93.04"/>
  <path class="cls-1" d="M255.62,247.83c-3.2.51-6.42.18-9.64.21-5.74.06-11.47.02-17.21.02"/>
  <path class="cls-1" d="M161.33,338.22h-13.54"/>
  <path class="cls-1" d="M269.85,372.87c-4.43.5-8.87.1-13.31.23"/>
  <path class="cls-1" d="M335,442.62c-.84.61-1.81.46-2.75.46-5.51,0-11.01,0-16.52,0-.77,0-1.56-.14-2.29.22"/>
  <path class="cls-1" d="M139.76,229.7c-.53,4.35-.08,8.72-.23,13.08"/>
  <path class="cls-1" d="M300.13,373.1h-29.83"/>
  <path class="cls-1" d="M321.7,408.43c0,11.47,0,22.94,0,34.41"/>
  <path class="cls-1" d="M320.78,82.87v23.17"/>
  <path class="cls-1" d="M335.69,247.6c-.7.08-1.3.47-2.06.49-7.65.14-15.29-.12-22.95.1-4.03.11-8.1.01-12.16-.14-.64-.02-1.23.15-1.84.24"/>
  <path class="cls-1" d="M173.49,372.64c-6.66-.04-13.32.36-19.96-.43-1.43-.17-2.9-.03-4.36-.03"/>
  <path class="cls-1" d="M174.63,338.45c-4.13-.38-8.26-.38-12.39,0"/>
  <path class="cls-1" d="M215.93,247.83c4.13.38,8.26.38,12.39,0"/>
  <path class="cls-1" d="M282.92,247.83c-.82.31-1.68.23-2.52.23-6.88,0-13.77,0-20.65,0-1.3,0-2.61.07-3.9-.23"/>
  <path class="cls-1" d="M177.16,412.1c.48,3.2.19,6.43.17,9.64,0,.77.11,1.53.05,2.29"/>
  <path class="cls-1" d="M189.77,247.83c3.97.5,7.95.1,11.93.23"/>
  <path class="cls-1" d="M248.74,412.1v11.7"/>
  <path class="cls-1" d="M366.67,411.64c-5.43,0-10.86-.01-16.29.02-.61,0-1.27-.27-1.84.21"/>
  <path class="cls-1" d="M320.78,106.5v25.24"/>
  <path class="cls-1" d="M159.95,102.37c1.81,2.72,4.85,2.76,7.58,3.4.89.21,1.84.27,2.74.5"/>
  <path class="cls-1" d="M139.53,214.1c0,3.82,0,7.65,0,11.47,0,.77.14,1.56-.22,2.29"/>
  <path class="cls-1" d="M170.27,112.92c.23.15.24.31.24.46-.02,5.2-.01,10.4,0,15.6,0,2.45-.54,4.89,0,7.34"/>
  <path class="cls-1" d="M329.04,372.64h-18.35"/>
  <path class="cls-1" d="M170.27,167.53c0-6.2,0-12.4,0-18.81,4.82,0,10.11-.2,15.37.08,2.77.15,5.56.86,8.07,2.39,1.11.67,2.07,1.42,2.2,2.59.15,1.39-1.06,1.96-2.21,2.55-1.76.9-3.61,1.26-5.52,1.59-5.95,1.02-11.92.7-17.9.44"/>
  <path class="cls-1" d="M319.86,185.42c-3.27.32-6.43-.59-9.64-.92"/>
  <path class="cls-1" d="M313.44,96.41c.95,2.55.5,5.22.38,7.8-.12,2.68-.06,5.36-.16,8.03"/>
  <path class="cls-1" d="M268.47,186.34h-9.64"/>
  <path class="cls-1" d="M313.44,112.92c.99,2.47.59,5.09.36,7.56-.26,2.85.06,5.67-.05,8.5-.23,6.03-.44,12.08-.32,18.12.09,5.12.04,10.25,0,15.37,0,1.68-.27,3.37,0,5.05"/>
  <path class="cls-1" d="M186.33,113.15c-.3,3.14-.58,6.29.23,9.41"/>
  <path class="cls-1" d="M328.58,113.15c.02.33-.25.55-.25.92.04,5.28,0,10.55,0,15.83,0,.53.12.98.47,1.38"/>
  <path class="cls-1" d="M145.95,263.43h-9.18"/>
  <path class="cls-1" d="M328.58,96.63c-.4,3.06-.33,6.12,0,9.18"/>
  <path class="cls-1" d="M337.76,214.1v18.81"/>
  <path class="cls-1" d="M148.94,411.87c-5.58-.52-11.17-.09-16.75-.23"/>
  <path class="cls-1" d="M191.15,372.87c2.97.46,5.97.09,8.95.23"/>
  <path class="cls-1" d="M188.86,372.64c-4.36.55-8.72-.04-13.08,0"/>
  <path class="cls-1" d="M328.35,131.97c0,6.81-.01,13.61,0,20.42.01,5.97-.22,11.93-.25,17.9,0,1.29.41,2.46.71,3.67"/>
  <path class="cls-1" d="M215.7,183.59v2.75c1.98,0,3.97,0,5.97,0"/>
  <path class="cls-1" d="M186.1,132.2v16.29"/>
  <path class="cls-1" d="M149.85,248.29h8.49"/>
  <path class="cls-1" d="M329.5,173.95c-2.26,2.62-5.3,3.01-8.49,2.98"/>
  <path class="cls-1" d="M122.09,367.82v8.26"/>
  <path class="cls-1" d="M186.33,149.4c-.26,2.76-.62,5.53.23,8.26"/>
  <path class="cls-1" d="M313.21,168.45c.72,2.03-.13,3.86-.79,5.81,2.17,2.63,5.14,2.69,8.13,2.68"/>
  <path class="cls-1" d="M358.41,370.8c-2.62-.14-5.17.78-7.8.46"/>
  <path class="cls-1" d="M379.51,367.13c-2.59.67-5.06,1.84-7.8,1.84"/>
  <path class="cls-1" d="M185.87,123.71c.36,2.51-.21,5.11.69,7.57"/>
  <path class="cls-1" d="M137.69,246.91c3.14.11,6.25.71,9.41.46"/>
  <path class="cls-1" d="M178.07,167.3c2.43.51,4.9.09,7.34.23"/>
  <path class="cls-1" d="M178.53,106.27h7.11"/>
  <path class="cls-1" d="M328.12,158.35c-2.37.12-4.74.33-7.11.23"/>
  <path class="cls-1" d="M185.19,95.49c-2.36.48-4.74.11-7.11.23"/>
  <path class="cls-1" d="M171.19,136.33c-1.39-.08-.89.97-.9,1.61-.04,2.75-.02,5.51-.02,8.26,0,.77.09,1.55-.23,2.29"/>
  <path class="cls-1" d="M170.73,96.41c.69,3.14-.2,6.27,0,9.41"/>
  <path class="cls-1" d="M328.35,106.27c-.29,1.99-.42,3.98,0,5.97"/>
  <path class="cls-1" d="M186.1,96.63c-.33,1.91-.4,3.82,0,5.74"/>
  <path class="cls-1" d="M186.79,102.37c-.68-.07-1.01.22-.92.92.41,2.97.13,5.97.23,8.95"/>
  <path class="cls-1" d="M144.58,382.28c-2.84.27-5.59-.25-8.25-1.19-.65-.23-1.24-.07-1.85-.19"/>
  <path class="cls-1" d="M342.35,372.18h-9.64"/>
  <path class="cls-1" d="M170.96,123.48c2.22.11,4.43.33,6.65.23"/>
  <path class="cls-1" d="M359.32,412.1v4.13"/>
  <path class="cls-1" d="M170.04,168.45c.54,1.71.09,3.38-.23,5.05-.1.51-.27.93-.92.57"/>
  <path class="cls-1" d="M353.82,338.68h-3.21"/>
  <path class="cls-1" d="M133.11,369.89c-1.43.34-2.73-.51-4.13-.46"/>
  <path class="cls-1" d="M359.32,418.98c.02.69-.11,1.41.23,2.06"/>
  <path class="cls-1" d="M340.05,223.51h-2.06"/>
  <path class="cls-1" d="M321.24,185.42h1.84"/>
  <path class="cls-1" d="M121.63,348.78c-.61.3-1.22.62-1.84.92"/>
  <path class="cls-1" d="M169.81,172.12h-1.84"/>
  <path class="cls-1" d="M354.05,184.74c-2.39,1.06-3.71,2.66-3.75,5.51-.03,2.18,1.48,3.8,3.08,4.56,1.59.76,3.6.13,5.04-1.35,1.2-1.24,1.87-4.11,1.13-5.5-1.1-2.07-2.63-3.58-5.26-3.22"/>
  <path class="cls-1" d="M344.18,410.95c-2.49,1.78-3.17,3.31-2.05,4.81.89,1.19,2.06,1.93,3.66,1.62,1.52-.3,1.99-1.53,2.26-2.76.33-1.51-.66-2.38-1.77-3.25-.65-.51-1.24-.32-1.87-.41"/>
  <path class="cls-1" d="M152.38,410.95c-2.56,1.26-3.66,2.75-2.95,4.34.53,1.18,1.3,2.09,2.94,2.15,1.69.06,2.91-.54,3.37-1.93.41-1.24.24-2.69-1.06-3.66-.64-.47-1.18-1.07-2.07-.91"/>
  <g>
    <path d="M248.6,339.74s-.05-.26-.11-.68c-.04,0-.08,0-.12,0-.08,0-.16,0-.24,0v.67s-38.21,0-38.21,0v.46c.58-.18,1.35.47,1.63.47h36.58s.03,0,.25,0c.19,0,.22,0,.22,0h34.48v-.93h-34.48Z"/>
    <polygon points="272.53 301.75 260.34 281.09 259.03 277.98 271.22 298.64 272.53 301.75"/>
    <path d="M208.23,338.56c-2.68-3.01.43-8.3,2.8-10.72-1.35,3.74-4.58,6.38-2.8,10.72Z"/>
    <rect x="203.42" y="311.02" width="34.79" height=".77" transform="translate(-158.44 354.94) rotate(-61.21)"/>
  </g>
  <polygon class="cls-2" points="246.84 281.62 236.88 312.16 248.02 312.16 244.85 334.23 260.77 302.27 248.72 302.34 254.56 281.16 246.84 281.62"/>
</svg>