<svg width="500" height="500" viewBox="0 0 500 500" fill="none" xmlns="http://www.w3.org/2000/svg">
<path d="M69.9494 291.321C67.1394 292.421 64.2494 293.331 61.8294 295.261C59.3194 297.271 59.2794 299.501 61.8294 301.401C67.1094 305.331 74.2394 305.971 80.4394 302.251C82.4594 301.041 83.7894 299.101 83.2694 296.591C82.6794 293.741 80.3094 292.581 77.8194 291.771C75.3194 290.961 72.7094 291.411 70.1494 291.321" fill="#FFDA00" fill-opacity="0.7"/>
<path d="M69.9494 291.321C67.1394 292.421 64.2494 293.331 61.8294 295.261C59.3194 297.271 59.2794 299.501 61.8294 301.401C67.1094 305.331 74.2394 305.971 80.4394 302.251C82.4594 301.041 83.7894 299.101 83.2694 296.591C82.6794 293.741 80.3094 292.581 77.8194 291.771C75.3194 290.961 72.7094 291.411 70.1494 291.321" stroke="#2071B5" stroke-width="4.20561" stroke-linecap="round" stroke-linejoin="round"/>
<path d="M361.931 214.149L324.818 239.698L368.585 267.461L381.733 261.075V210.738C382.609 205.98 384.437 194.961 384.738 188.951C385.114 181.438 378.728 161.528 375.347 152.137C372.642 144.624 361.851 129.583 355.715 123.948L341.914 131.852C348.586 144.249 365.58 164.27 365.58 179.184C365.58 187.807 364.364 205.874 361.931 214.149Z" fill="#FFDA00" fill-opacity="0.7"/>
<path d="M155.116 334.781L114.911 314.269V337.243L151.726 359.092L189.167 377.49L191.053 349.892L189.167 317.551L155.116 334.781Z" fill="#FFDA00" fill-opacity="0.7"/>
<path d="M174.486 223.964L166.493 227.624L164.327 229.198C173.05 244.078 193.882 260.238 193.882 290.772C193.882 304.587 192.754 313.657 190.496 316.633V376.053L202.503 368.972V310.476C205.633 299.055 204.818 274.895 199.424 262.756C193.882 250.284 181.773 231.455 174.486 223.964Z" fill="#FFDA00" fill-opacity="0.7"/>
<path d="M381.47 241.77C386.84 245.26 392.23 248.72 397.7 252.06C403.72 255.74 409.41 259.95 415.66 263.28C416.99 263.99 418.029 265.16 419.359 265.95C420.019 266.34 420.35 267.16 420.39 268.29C420.5 271.36 420.21 274.45 420.54 277.5C420.89 280.77 419.3 282.82 416.75 284.28C410.39 287.92 404.04 291.6 397.67 295.22C389.85 299.67 381.96 304.01 374.25 308.66C363.73 315.01 352.98 320.95 342.4 327.2C328.87 335.19 315.29 343.11 301.65 350.92C289.06 358.13 276.56 365.48 263.97 372.68C251.66 379.71 239.49 386.98 227.15 393.97C216.73 399.88 206.43 406.01 196 411.92C191.23 414.62 187.01 413.7 182.59 411.05C171.13 404.17 159.59 397.45 147.98 390.84C134.32 383.06 120.79 375.06 107.2 367.17C102.13 364.23 97.0195 361.35 92.0595 358.2C89.3495 356.48 87.9495 354.2 88.1095 350.95C88.1995 349.05 88.1395 347.15 88.1095 345.25C88.1095 344.56 88.0795 343.9 88.7695 343.5" stroke="#2071B5" stroke-width="4.20561" stroke-linecap="round" stroke-linejoin="round"/>
<path d="M114.45 324.201C111.25 325.301 108.6 327.411 105.69 329.041C101.4 331.441 97.22 334.031 92.96 336.471C91.54 337.291 90.29 338.321 89.25 339.561C88.13 340.891 88.32 342.731 89.68 343.931C92.63 346.521 96.21 348.091 99.53 350.091C109.34 356.011 119.57 361.191 129.42 367.061C139.25 372.921 149.21 378.601 159.17 384.271C168.27 389.461 177.38 394.641 186.36 400.041C188.91 401.571 191.29 401.491 194.07 399.911C204 394.251 213.75 388.281 223.59 382.471C224.69 381.821 225.98 381.711 226.97 380.601C229.36 377.901 229.27 376.201 226.26 374.181C222.66 371.771 218.83 369.731 215.04 367.671C210.79 365.361 206.77 362.631 202.36 360.601" stroke="#2071B5" stroke-width="4.20561" stroke-linecap="round" stroke-linejoin="round"/>
<path d="M146.02 320.481C149.75 318.211 153.46 315.841 155.63 311.911C158.24 307.171 159.37 302.081 158.77 296.581C157.03 280.801 149.45 267.901 139.24 256.241C134.89 251.281 129.9 247.131 124.11 243.971C120.28 241.881 116.2 240.761 111.84 241.151C108.04 241.491 104.86 243.301 102.43 246.181C96.9496 252.711 95.5896 260.511 95.8596 268.741C95.8596 268.881 95.9896 269.271 96.2596 269.401" stroke="#2071B5" stroke-width="4.20561" stroke-linecap="round" stroke-linejoin="round"/>
<path d="M215.08 169.86C215.64 170.44 216.37 170.31 217.05 170.29C229.79 169.92 240.63 174.68 249.41 183.53C258.08 192.27 265.81 201.89 270.51 213.49C272.97 219.57 275.15 225.74 276.08 232.32C276.79 237.36 277.58 242.37 277.3 247.45C276.87 255.08 275.13 262.38 270.97 268.93C270.45 269.75 269.88 270.53 269.88 271.56" stroke="#2071B5" stroke-width="4.20561" stroke-linecap="round" stroke-linejoin="round"/>
<path d="M289.84 259.971C289.55 258.731 290.59 258.141 291.16 257.341C294.69 252.411 296.31 246.871 297.15 240.901C297.84 235.951 297.5 231.071 297 226.211C296.19 218.161 293.51 210.571 290.28 203.181C286.28 194.051 280.88 185.811 274.49 178.191C267.04 169.311 257.81 163.141 246.64 160.031C243.16 159.061 239.64 158.561 235.89 159.231C232.4 159.851 226.72 161.951 224.51 164.381" stroke="#2071B5" stroke-width="4.20561" stroke-linecap="round" stroke-linejoin="round"/>
<path d="M92.0595 273.081C88.7295 260.641 88.0895 245.511 95.1795 234.171C98.3695 229.071 103.339 224.521 109.329 223.151C115.689 221.701 121.749 223.681 127.329 226.671C138.939 232.891 148.679 242.731 156.349 253.321C164.119 264.041 169.719 276.221 172.689 289.131C175.289 300.441 176.509 314.501 169.539 324.611C168.869 325.581 167.539 326.631 167.719 327.931" stroke="#2071B5" stroke-width="4.20561" stroke-linecap="round" stroke-linejoin="round"/>
<path d="M177.37 192.23C178 192.87 178.82 192.7 179.56 192.66C187.23 192.24 193.91 195.15 200.39 198.8C209.05 203.69 214.95 211.28 220.57 219.19C225.2 225.71 229.5 232.42 232.59 239.82C234.44 244.25 235.68 248.9 236.56 253.62C237.65 259.49 238.15 265.42 237.85 271.38C237.46 279.19 235.07 286.33 230.71 292.91C228.22 296.67 224.65 298.96 220.93 300.84C218.36 302.14 216.13 303.93 213.55 305.15C212.64 305.58 211.76 306.1 210.7 306.02" stroke="#2071B5" stroke-width="4.20561" stroke-linecap="round" stroke-linejoin="round"/>
<path d="M187.24 186.089C188.28 184.159 190.48 183.939 192.1 182.849C196.38 179.969 201.19 180.359 205.87 181.519C216.39 184.119 224.95 190.089 232.38 197.729C239.1 204.649 244.19 212.719 248.44 221.359C252.27 229.129 254.97 237.269 256.65 245.729C256.98 247.389 257.32 249.189 257.19 250.969C257.02 253.249 257.7 255.469 257.66 257.769C257.51 266.519 256.1 274.839 250.4 281.899C250.13 282.239 250.09 282.739 250.17 283.199" stroke="#2071B5" stroke-width="4.20561" stroke-linecap="round" stroke-linejoin="round"/>
<path d="M175.179 193.319C176.229 192.899 176.989 192.089 177.829 191.369C180.109 189.409 182.829 188.089 185.509 186.789C187.479 185.829 189.779 186.339 191.829 186.599C196.899 187.229 201.769 188.659 206.319 191.109C211.769 194.039 216.679 197.669 220.999 202.089C227.289 208.529 232.569 215.759 236.969 223.589C241.489 231.619 245.069 240.109 246.589 249.229C248.299 259.519 247.959 269.789 244.189 279.669C243.169 282.349 241.279 284.689 239.999 287.219C238.249 290.659 235.229 292.189 232.389 294.149C231.559 294.719 230.609 295.119 229.549 295.039" stroke="#2071B5" stroke-width="4.20561" stroke-linecap="round" stroke-linejoin="round"/>
<path d="M286.11 130.289C287.78 131.489 289.78 130.829 291.61 131.169C300.83 132.889 308.89 136.909 316.39 142.429C328.36 151.249 335.44 163.489 340.91 176.889C343.1 182.259 344.71 187.869 345.67 193.559C347.11 202.069 347.24 210.619 344.43 218.979C341.93 226.419 337.85 232.589 330.38 235.819C327.97 236.859 326.05 238.449 323.98 239.939C322.94 240.689 321.56 241.409 320.3 241.699C317.71 242.289 316.07 244.429 313.73 245.259C309.29 246.839 306.44 250.629 302.58 252.989C302.02 253.329 301.61 253.599 301.03 253.179" stroke="#2071B5" stroke-width="4.20561" stroke-linecap="round" stroke-linejoin="round"/>
<path d="M402.079 130.619C404.719 128.449 407.91 127.209 410.88 125.629C420.75 120.379 430.66 115.199 440.43 109.759C443.4 108.109 446.53 106.589 448.56 103.649C450.93 100.219 450.25 97.4292 447.43 94.4692C444.66 91.5692 441.12 89.9192 437.16 89.1692C429.83 87.7792 423.22 89.0692 416.69 92.9792C411.28 96.2192 405.47 98.8692 399.91 101.919C395.1 104.549 390.12 106.899 385.64 110.109" stroke="#2071B5" stroke-width="4.20561" stroke-linecap="round" stroke-linejoin="round"/>
<path d="M245.11 152.761C245.7 151.571 246.84 151.051 247.96 150.581C252 148.881 255.68 146.561 259.37 144.241C260.19 143.731 261.14 143.291 262.01 142.981C263.56 142.431 264.78 141.571 265.93 140.491C268.16 138.391 271.48 138.371 273.8 136.521C277.37 133.681 281.41 131.831 285.63 130.211C286.37 129.921 287.06 128.991 287.83 128.391C293.24 124.191 299.18 124.751 305.17 126.481C312.01 128.461 318.66 130.931 324.47 135.221C332.68 141.271 339.08 148.831 344.04 157.771C348.47 165.771 351.69 174.181 353.82 183.021C356.25 193.101 357.02 203.271 354.5 213.481C353.74 216.571 352.28 219.371 350.55 222.021C350.26 222.471 350.06 222.851 350.34 223.341" stroke="#2071B5" stroke-width="4.20561" stroke-linecap="round" stroke-linejoin="round"/>
<path d="M254.98 147.5C255.46 148.08 256.13 147.99 256.73 147.93C267.12 146.93 275.82 151.09 283.9 156.95C292.88 163.46 299.35 172.13 304.75 181.7C308.03 187.51 310.99 193.44 312.89 199.89C314.38 204.95 315.82 209.97 316.4 215.24C317.14 221.98 317.01 228.63 315.25 235.19C314.33 238.64 312.84 241.86 310.85 244.82C310.45 245.41 310.16 245.9 310.43 246.59" stroke="#2071B5" stroke-width="4.20561" stroke-linecap="round" stroke-linejoin="round"/>
<path d="M305.84 251.419C311.74 254.969 317.64 258.519 323.64 261.869C332.82 266.989 341.84 272.369 350.97 277.569C357.83 281.469 364.71 285.349 371.44 289.499C373.14 290.549 375.11 291.439 377.31 291.599C379.89 291.779 381.85 290.439 383.87 289.329C394.76 283.329 405.38 276.849 416.32 270.919C417.61 270.219 418.69 269.129 420.06 268.529" stroke="#2071B5" stroke-width="4.20561" stroke-linecap="round" stroke-linejoin="round"/>
<path d="M355.17 102.119C359.07 103.179 362.14 105.769 365.19 108.119C370.31 112.069 375.51 116.009 379.92 120.779C388.48 130.039 395.25 140.409 399.75 152.299C402.5 159.569 404.2 166.969 404.24 174.689C404.28 183.229 402.25 191.129 397.39 198.449C394.41 202.939 390.33 204.929 385.65 206.489C384.48 206.879 383.3 206.579 382.14 206.699" stroke="#2071B5" stroke-width="4.20561" stroke-linecap="round" stroke-linejoin="round"/>
<path d="M196.44 180.61C196.82 179.43 197.87 179.13 198.83 178.6C201.19 177.31 204.16 176.78 205.97 175.01C208.94 172.09 212.96 171.18 216.08 168.49C219.31 165.7 223.59 164.55 228.22 164.5C237.17 164.41 244.94 167.58 252.32 172.08C260.93 177.34 267.28 184.85 272.47 193.34C277.35 201.33 281.41 209.75 284.1 218.76C285.41 223.13 286.35 227.59 287.03 232.12C287.68 236.45 287.72 240.78 287.33 245.06C286.77 251.31 284.72 257.14 281.55 262.64C279.23 266.66 275.84 269.43 271.79 271.02C268.27 272.4 265.89 275.34 262.45 276.72C261.69 277.03 261.01 277.26 260.22 277.29" stroke="#2071B5" stroke-width="4.20561" stroke-linecap="round" stroke-linejoin="round"/>
<path d="M179.56 210.419C182.85 211.359 185.45 213.529 188.07 215.509C194.01 219.999 198.64 225.809 202.74 231.939C209.13 241.459 213.72 251.909 216.29 263.059C218.45 272.419 219.22 281.989 217.02 291.539C215.96 296.139 214.05 300.329 211.41 304.309C209.27 307.539 206.26 309.249 203 310.839" stroke="#2071B5" stroke-width="4.20561" stroke-linecap="round" stroke-linejoin="round"/>
<path d="M206.97 174.91C207.26 175.26 207.64 175.61 208.06 175.55C217.66 174.21 225.69 177.93 233.28 183.23C240.1 187.99 245.16 194.39 249.88 201.04C253.73 206.46 256.9 212.32 259.82 218.31C263.06 224.94 265.26 231.85 266.41 239.14C267.49 246.01 267.64 252.86 266.81 259.75C266.05 266.07 263.56 271.77 260.16 277.02C258.68 279.3 256 280.64 253.61 281.79C249.38 283.84 245.62 286.68 241.41 288.74C240.65 289.11 239.98 289.33 239.19 289.34" stroke="#2071B5" stroke-width="4.20561" stroke-linecap="round" stroke-linejoin="round"/>
<path d="M111.82 297.02C111.76 298.15 112.55 298.97 113.18 299.61C117.45 303.99 122.22 307.53 128.48 308.67C136.92 310.2 143.29 304.53 143.87 296.81C144.59 287.28 141.06 279.14 136.15 271.38C133.38 267.01 129.96 263.18 125.4 260.67C118.72 256.99 110.88 257.03 105.24 263.25C104.93 263.6 104.75 263.91 104.81 264.36" stroke="#2071B5" stroke-width="4.20561" stroke-linecap="round" stroke-linejoin="round"/>
<path d="M219.24 301.179C219.29 300.639 219.18 300.149 219.65 299.619C223.99 294.759 225.91 288.869 226.96 282.549C227.55 278.969 227.85 275.409 227.79 271.799C227.69 265.309 226.58 258.979 224.94 252.729C221.67 240.269 215.34 229.459 207.19 219.619C201.22 212.409 194.53 206.069 185.91 202.099C183.04 200.779 180.22 199.249 176.93 199.239" stroke="#2071B5" stroke-width="4.20561" stroke-linecap="round" stroke-linejoin="round"/>
<path d="M114.67 323.98C115.1 326.01 114.88 328.07 114.86 330.12C114.84 331.67 115.04 333.19 115.13 334.72C115.23 336.41 116.01 337.8 117.52 338.66C124.58 342.68 131.53 346.88 138.6 350.88C148 356.21 157.25 361.8 166.62 367.18C172.19 370.37 177.76 373.56 183.31 376.77C184.97 377.73 186.83 377.96 188.56 376.59C191.9 373.95 195.85 372.28 199.34 369.84C201.18 368.55 201.91 367.16 201.97 364.96C202.49 347.64 202.33 330.32 202.41 313C202.41 311.1 203.08 309.15 203.13 307.3C203.21 304.11 204.13 301.04 204.11 297.88C204.07 292.17 204.18 286.48 203.37 280.76C202.71 276.09 201.88 271.47 200.57 266.98C198.31 259.2 194.77 251.95 190.55 245.04C188.58 241.81 186.5 238.66 183.96 235.84" stroke="#2071B5" stroke-width="4.20561" stroke-linecap="round" stroke-linejoin="round"/>
<path d="M178.25 219.85C184.38 225.3 189.75 231.44 194.21 238.29C200.59 248.06 204.31 258.97 206.67 270.29C208.46 278.87 208.94 287.62 207.6 296.36C207.12 299.49 205.81 302.39 204.72 305.33C204.57 305.75 204.31 306.59 203.45 306.44" stroke="#2071B5" stroke-width="4.20561" stroke-linecap="round" stroke-linejoin="round"/>
<path d="M326.89 125.801C329.29 127.541 332.049 128.551 334.799 129.481C339.079 130.931 342.18 133.601 344.93 137.151C350.26 144.031 355.309 151.071 359.079 158.921C362.219 165.441 364.419 172.271 365.549 179.501C366.499 185.581 366.68 191.671 366.22 197.701C365.73 204.151 363.25 210.161 359.78 215.691C359.31 216.431 358.48 217.031 358.67 218.101" stroke="#2071B5" stroke-width="4.20561" stroke-linecap="round" stroke-linejoin="round"/>
<path d="M353.63 122.511C361.62 128.321 368.28 135.321 373.15 143.991C377.11 151.031 380.46 158.371 382.44 166.171C383.39 169.911 383.97 173.831 384.41 177.751C384.91 182.211 385.27 186.651 385.19 191.131C385.12 194.861 384.51 198.521 383.44 202.091C383.17 202.981 382.92 203.901 381.91 204.281" stroke="#2071B5" stroke-width="4.20561" stroke-linecap="round" stroke-linejoin="round"/>
<path d="M133.96 278.821C127.22 282.921 120.18 286.481 113.34 290.421C103.14 296.301 92.7896 301.921 82.4196 307.501C77.4696 310.171 72.0696 310.941 66.4296 310.431C61.4796 309.981 57.0496 308.311 52.8296 305.801C48.9496 303.491 49.2896 298.221 52.3796 296.111C55.7196 293.821 59.2396 291.841 62.7196 289.821C71.1396 284.951 79.5596 280.081 87.9196 275.111C89.0996 274.411 90.3396 273.811 91.6396 273.351" stroke="#2071B5" stroke-width="4.20561" stroke-linecap="round" stroke-linejoin="round"/>
<path d="M302.33 253.831C314 260.941 325.87 267.701 337.64 274.631C348.42 280.971 359.27 287.211 370.08 293.501C371.6 294.391 373.18 295.191 374.89 295.731C377.47 296.541 379.85 296.161 382.13 294.831C382.76 294.471 383.29 293.901 384.1 293.951" stroke="#2071B5" stroke-width="4.20561" stroke-linecap="round" stroke-linejoin="round"/>
<path d="M234.81 158.9C234.99 157.78 235.95 157.59 236.76 157.11C238.2 156.26 239.75 155.6 241.16 154.72C244.63 152.53 248.44 152.9 252.13 153.47C265.08 155.48 275.18 162.39 283.73 172.03C291.57 180.87 297.11 190.18 301.6 201.32C302.72 204.1 302.73 206.56 303.43 209.32" stroke="#2071B5" stroke-width="4.20561" stroke-linecap="round" stroke-linejoin="round"/>
<path d="M346.839 91.3807C348.079 91.1907 348.929 91.9807 349.669 92.7207C351.879 94.9107 354.749 95.2807 357.579 95.7607C364.169 96.8907 370.579 98.5407 376.209 102.351C381.229 105.751 385.379 110.081 389.409 114.591C393.929 119.661 398.069 125.051 401.769 130.691C405.389 136.201 407.769 142.411 409.579 148.811C411.339 155.011 412.679 161.281 413.499 167.671C414.679 176.921 413.289 185.611 407.759 193.301C405.149 196.931 401.459 199.171 397.049 200.121" stroke="#2071B5" stroke-width="4.20561" stroke-linecap="round" stroke-linejoin="round"/>
<path d="M182.519 255.96C186.809 263.81 186.559 264.97 189.249 270.91C190.959 274.68 194.409 300.86 193.849 302.94C192.779 306.89 191.699 310.76 190.239 314.53C189.739 315.83 188.229 316.45 187.019 317.19C181.209 320.75 175.459 324.49 169.379 327.51C166.729 328.83 164.359 330.49 161.829 331.91C157.179 334.51 152.439 334.39 147.799 332.46C142.309 330.18 137.269 326.94 131.979 324.21C125.619 320.92 120.559 315.95 115.109 311.48" stroke="#2071B5" stroke-width="4.20561" stroke-linecap="round" stroke-linejoin="round"/>
<path d="M324.47 171.179C329.36 178.989 332.97 187.279 334.86 196.369C335.77 200.749 336.3 205.169 336.4 209.549C336.54 215.539 335.25 221.449 333.01 227.079C331.92 229.819 330.68 232.499 329.05 234.959C328.79 235.349 328.92 235.699 328.85 236.069" stroke="#2071B5" stroke-width="4.20561" stroke-linecap="round" stroke-linejoin="round"/>
<path d="M265.06 141.8C265.46 142.33 266.04 142.25 266.59 142.24C278.46 141.93 288.41 146.61 297.28 154.08C307.57 162.73 310.77 170.07 316.71 181.92" stroke="#2071B5" stroke-width="4.20561" stroke-linecap="round" stroke-linejoin="round"/>
<path d="M351.07 126.679C361.89 135.389 371.13 145.079 375.86 157.849C378.24 164.269 379.79 170.879 380.79 177.599" stroke="#2071B5" stroke-width="4.20561" stroke-linecap="round" stroke-linejoin="round"/>
<path d="M316.58 181.7C320.33 187.79 323.21 194.26 324.89 201.22C325.67 204.45 326.08 207.76 326.53 211.07C327.2 215.97 326.96 220.77 325.98 225.54C324.92 230.73 322.91 235.56 319.64 239.79C319.11 240.47 318.65 241.09 318.78 241.99" stroke="#2071B5" stroke-width="4.20561" stroke-linecap="round" stroke-linejoin="round"/>
<path d="M273.599 137.41C274.509 138.03 275.499 137.66 276.449 137.61C282.919 137.31 288.819 139.45 294.399 142.28C307.379 148.87 316.999 159.04 324.469 171.38" stroke="#2071B5" stroke-width="4.20561" stroke-linecap="round" stroke-linejoin="round"/>
<path d="M92.0901 272.681C95.6401 270.411 98.7502 267.381 102.64 265.731C106.81 263.971 110.81 261.601 115.77 262.311C121.39 263.111 125.39 266.191 128.92 270.261C130.62 272.221 132.01 274.391 133.29 276.631C135.46 280.471 134.84 283.361 131.09 285.581C125.94 288.631 120.78 291.691 115.55 294.611C110.69 297.321 105.99 300.321 101.07 302.911C93.6702 306.811 86.5402 311.321 78.6902 314.271C70.3802 317.391 62.3202 316.131 54.8402 311.461C52.6802 310.111 51.2001 308.171 51.5301 305.351" stroke="#2071B5" stroke-width="4.20561" stroke-linecap="round" stroke-linejoin="round"/>
<path d="M190.09 315.43C190.67 315.99 190.53 316.72 190.53 317.4C190.53 326.32 190.64 335.23 190.5 344.15C190.35 353.8 190.07 363.44 190.09 373.09C190.09 373.68 189.95 374.29 190.31 374.84" stroke="#2071B5" stroke-width="4.20561" stroke-linecap="round" stroke-linejoin="round"/>
<path d="M368.54 212.4C368.57 214.15 368.54 215.91 368.54 217.66C368.54 233.59 368.54 249.52 368.55 265.45C368.55 265.85 368.4 266.18 368.32 266.55" stroke="#2071B5" stroke-width="4.20561" stroke-linecap="round" stroke-linejoin="round"/>
<path d="M203.02 388.22C205.43 387.73 207.87 387.45 210.06 386.06C213.05 384.17 213.55 381.75 211.12 379.24C208.92 376.97 206.04 376.14 203.02 375.97C199.31 375.77 195.76 376.47 192.72 378.79C188.94 381.69 189.91 384.15 193.81 386.03C196.66 387.4 199.72 387.85 202.8 388.21" stroke="#2071B5" stroke-width="4.20561" stroke-linecap="round" stroke-linejoin="round"/>
<path d="M138.13 203.409C137.81 202.469 137.32 201.629 136.83 200.769C133.84 195.569 138.76 187.939 143.85 187.299C147.36 186.859 150.75 187.929 153.97 189.949C159.72 193.539 162.79 198.799 164.9 204.939C165.93 207.949 166.61 210.999 167.16 214.139C167.77 217.579 167.27 220.789 166.38 224.009C166.12 224.969 165.95 225.889 165.97 226.869" stroke="#2071B5" stroke-width="4.20561" stroke-linecap="round" stroke-linejoin="round"/>
<path d="M314.389 105.08C311.909 101.79 312.369 96.4197 314.819 92.9097C316.679 90.2497 320.649 88.5597 325.359 89.8297C330.529 91.2197 334.429 94.2497 337.419 98.6097C341.959 105.23 344.539 112.49 344.619 120.54C344.659 124.1 343.359 127.39 341.999 130.62C341.769 131.17 340.979 131.17 340.699 131.72" stroke="#2071B5" stroke-width="4.20561" stroke-linecap="round" stroke-linejoin="round"/>
<path d="M324.26 240.24C330.65 244.17 337.19 247.88 343.56 251.85C351.08 256.54 358.8 260.9 366.14 265.88C367.98 267.13 369.71 267.75 371.88 266.16C374 264.62 376.43 263.46 378.85 262.37C380.06 261.82 380.64 260.96 380.64 259.52C380.61 254.48 380.66 249.44 380.78 244.39C380.96 236.5 380.73 228.6 380.87 220.71C380.94 216.91 380.64 213.06 381.14 209.32C381.97 203.11 382.07 196.91 382.17 190.67C382.25 185.84 381.42 181.14 380.61 176.42" stroke="#2071B5" stroke-width="4.20561" stroke-linecap="round" stroke-linejoin="round"/>
<path d="M303.43 209.329C305.05 213.719 305.9 218.239 306.35 222.919C306.86 228.219 306.91 233.469 306.04 238.709C305.33 242.979 303.81 246.939 301.77 250.819C299.16 255.769 294.71 257.809 290.1 260.069C287.48 261.349 285.22 263.389 282.62 264.829C281.77 265.299 280.96 265.719 279.98 265.679" stroke="#2071B5" stroke-width="4.20561" stroke-linecap="round" stroke-linejoin="round"/>
<path d="M308.69 117.471C309.17 118.341 310.06 118.481 310.88 118.551C313.61 118.781 315.83 119.391 316.91 122.481C317.47 124.071 318.86 125.431 321.18 125.431C326.47 125.431 331.26 124.521 334.54 119.881C336.57 117.001 336.85 113.841 335.39 110.691C333.69 107.031 331.5 103.681 327.97 101.471C322.63 98.1207 316.88 98.6207 314.39 105.641C313.82 107.261 312.36 108.751 313.5 110.681" stroke="#2071B5" stroke-width="4.20561" stroke-linecap="round" stroke-linejoin="round"/>
<path d="M448.04 95.3906C450.36 100.811 433.07 108.151 428.83 110.671C419.49 116.231 410.03 121.581 400.55 126.901C400.29 127.051 400.11 127.331 399.89 127.551" stroke="#2071B5" stroke-width="4.20561" stroke-linecap="round" stroke-linejoin="round"/>
<path d="M148.869 218.531C150.649 219.481 152.699 220.231 154.539 219.721C156.349 219.221 157.689 217.561 158.529 215.681C160.119 212.121 159.649 208.551 158.249 205.171C156.339 200.561 153.209 197.071 148.229 195.461C146.239 194.821 144.279 194.911 142.549 195.591C140.629 196.351 138.659 197.491 138.519 200.101C138.499 200.511 138.119 201.121 137.469 201.201" stroke="#2071B5" stroke-width="4.20561" stroke-linecap="round" stroke-linejoin="round"/>
<path d="M154.79 220.071C158.21 223.521 161.92 226.681 165.09 230.371C170.82 237.051 176.14 244.021 180.2 251.861C181.04 253.491 182.14 254.971 182.85 256.671" stroke="#2071B5" stroke-width="4.20561" stroke-linecap="round" stroke-linejoin="round"/>
<path d="M165.75 229.061C165.44 228.401 165.42 227.741 165.78 227.031C169.12 226.751 172.14 225.671 174.77 223.391C177.91 220.671 178.97 217.351 178.98 213.281C178.99 206.901 177.09 201.011 175.18 195.091C173.04 188.441 169.24 183.211 162.47 180.631C159.14 179.361 155.79 179.621 152.62 181.091C149.67 182.461 147.06 184.431 144.26 186.071C143.75 186.371 143.58 186.741 143.4 187.201" stroke="#2071B5" stroke-width="4.20561" stroke-linecap="round" stroke-linejoin="round"/>
<path d="M324.91 89.4092C329.72 84.5692 335.37 83.2292 340.72 86.7392C342.75 88.0692 344.17 90.1192 346.39 91.1692C347.5 94.6992 350.26 97.3792 351.28 101.019C352.12 104.019 352.67 107.149 353.92 109.989C355.05 112.569 354.78 115.159 354.63 117.689C354.47 120.239 353.22 122.609 352.1 124.939C351.66 125.849 350.94 126.469 350.11 126.889C347.83 128.029 345.61 129.299 343.35 130.459C342.9 130.689 342.74 130.329 342.45 130.409" stroke="#2071B5" stroke-width="4.20561" stroke-linecap="round" stroke-linejoin="round"/>
<path d="M325.13 124.699C324.96 123.839 325.45 123.319 325.98 122.709C327.73 120.719 328.21 118.209 327.93 115.719C327.24 109.549 320.29 107.119 315.49 109.589C313.12 110.809 311.86 112.919 311.32 115.489" stroke="#2071B5" stroke-width="4.20561" stroke-linecap="round" stroke-linejoin="round"/>
<path d="M136.92 216.451C137.84 217.321 138.85 217.991 139.29 219.391C139.97 221.581 143.81 221.821 146.45 220.281C150.97 217.631 151.03 209.661 148.25 206.441C145.81 203.621 143.19 202.171 139.43 203.381C137.41 204.031 136.22 205.651 136.37 208.011" stroke="#2071B5" stroke-width="4.20561" stroke-linecap="round" stroke-linejoin="round"/>
<path d="M138.79 217.88C140.08 218 140.49 217.1 140.75 216.12C141.1 214.79 140.01 214.16 139.21 213.52C137.83 212.41 136.05 212.38 134.41 211.93C130.75 210.93 128.04 212.84 125.18 214.56C122.31 216.29 119.46 218.03 116.64 219.83C115.64 220.47 114.51 220.89 113.36 221.14C112.52 221.32 111.77 221.48 111.61 222.48" stroke="#2071B5" stroke-width="4.20561" stroke-linecap="round" stroke-linejoin="round"/>
<path d="M145.69 320.48C140.03 322.44 134.36 322.66 128.7 320.48C127.97 320.2 124.8 319.6 124.08 319.01" stroke="#2071B5" stroke-width="4.20561" stroke-linecap="round" stroke-linejoin="round"/>
<path d="M210.91 382.74C208.58 382.66 206.69 381.36 204.8 380.27C202.85 379.15 201.12 378.77 199.05 379.86C197.34 380.76 195.38 381.1 193.58 381.86" stroke="#2071B5" stroke-width="4.20561" stroke-linecap="round" stroke-linejoin="round"/>
<path d="M316.799 121.629C317.599 121.729 318.209 120.949 319.269 121.519C320.259 122.049 321.01 121.309 320.56 119.859C319.87 117.609 316.8 115.429 314.39 115.449C312.07 115.469 310.03 116.189 308.03 117.239C304.17 119.249 300.29 121.219 296.6 123.549C296.06 123.889 296.13 124.399 295.75 124.689" stroke="#2071B5" stroke-width="4.20561" stroke-linecap="round" stroke-linejoin="round"/>
<path d="M77.18 293.95C72.83 295.6 68.66 297.64 64.46 299.65" stroke="#2071B5" stroke-width="4.20561" stroke-linecap="round" stroke-linejoin="round"/>
<path d="M107.439 299.871C109.339 303.291 111.569 306.481 114.019 309.511C114.729 310.381 114.719 311.181 114.599 312.381C114.369 314.661 114.079 317.051 114.849 319.401C115.249 320.621 114.679 322.031 115.119 323.331" stroke="#2071B5" stroke-width="4.20561" stroke-linecap="round" stroke-linejoin="round"/>
<path d="M395.07 271.59C394.41 271.57 393.769 271.15 393.359 270.87C389.799 268.45 386.83 269.96 383.89 272.03" stroke="#2071B5" stroke-width="4.20561" stroke-linecap="round" stroke-linejoin="round"/>
<path d="M368.099 213.05C365.509 214.13 363.439 216.1 360.869 217.23C357.949 218.52 355.689 220.94 352.919 222.38C348.549 224.66 344.699 227.69 340.479 230.16C339.879 230.51 339.299 230.25 338.719 230.36" stroke="#2071B5" stroke-width="4.20561" stroke-linecap="round" stroke-linejoin="round"/>
<path d="M352.76 95.3291C352.38 97.6491 353.89 99.4391 354.54 101.459C355.45 104.259 356.16 107.049 355.62 110.019C355.54 110.469 355.14 110.579 354.95 110.889" stroke="#2071B5" stroke-width="4.20561" stroke-linecap="round" stroke-linejoin="round"/>
<path d="M146.46 206.041C142.71 205.601 139.48 207.661 135.96 208.361C134.53 208.651 133.02 209.901 131.99 211.301" stroke="#2071B5" stroke-width="4.20561" stroke-linecap="round" stroke-linejoin="round"/>
<path d="M177.589 228.621C179.409 230.231 180.879 232.211 182.849 233.661" stroke="#2071B5" stroke-width="4.20561" stroke-linecap="round" stroke-linejoin="round"/>
<path d="M136.37 212.619C135.74 213.759 135.56 214.879 136.59 215.909" stroke="#2071B5" stroke-width="4.20561" stroke-linecap="round" stroke-linejoin="round"/>
<path d="M173.859 224.89C174.589 224.95 174.659 225.93 175.389 225.99" stroke="#2071B5" stroke-width="4.20561" stroke-linecap="round" stroke-linejoin="round"/>
<path d="M387.61 265.23C384.88 265.53 382.52 266.9 380.18 268.13C376.82 269.89 376.84 272.82 379.93 275.11C385.16 278.97 390.64 279.17 396.38 276.42C398.7 275.31 400.41 273.55 400.25 270.94C400.08 268.22 397.79 267.08 395.51 266.1C393.02 265.03 390.42 265.26 387.83 265.24" stroke="#2071B5" stroke-width="4.20561" stroke-linecap="round" stroke-linejoin="round"/>
<path d="M428.83 90.9409C427.45 91.6509 425.87 91.6209 424.42 92.1909C422.03 93.1309 420.16 94.6109 418.77 96.6509C416.86 99.4609 417.86 102.491 421.39 104.051C426.95 106.501 432.47 106.131 437.58 102.741C440.41 100.861 441.34 97.9109 440.23 95.5409C439.26 93.4809 437.53 92.3509 435.41 91.8309C433.33 91.3209 431.24 90.7409 429.06 90.9409" fill="#FFDA00" fill-opacity="0.7"/>
<path d="M428.83 90.9409C427.45 91.6509 425.87 91.6209 424.42 92.1909C422.03 93.1309 420.16 94.6109 418.77 96.6509C416.86 99.4609 417.86 102.491 421.39 104.051C426.95 106.501 432.47 106.131 437.58 102.741C440.41 100.861 441.34 97.9109 440.23 95.5409C439.26 93.4809 437.53 92.3509 435.41 91.8309C433.33 91.3209 431.24 90.7409 429.06 90.9409" stroke="#2071B5" stroke-width="4.20561" stroke-linecap="round" stroke-linejoin="round"/>
<path d="M422.891 95.3291C427.241 96.9791 431.411 99.0191 435.611 101.029" stroke="#2071B5" stroke-width="4.20561" stroke-linecap="round" stroke-linejoin="round"/>
</svg>
