<svg width="500" height="500" viewBox="0 0 500 500" fill="none" xmlns="http://www.w3.org/2000/svg">
<path d="M190 216.5C234.4 260.5 228.167 301.833 219.5 317H278.5C266 282 279 247 305.5 221.5C326.7 201.1 327.667 171 325.5 158.5C313.5 96.4999 254.5 92.6665 226.5 98.4999C150.9 130.9 170.667 190.667 190 216.5Z" fill="#FFDA00" fill-opacity="0.7"/>
<path d="M153.01 234.31C152.64 232.34 152.8 230.34 152.8 228.36C152.78 209.85 152.58 191.35 152.88 172.84C153.05 162.5 153.28 152.08 156.11 142C159.71 129.17 165.59 117.56 174.34 107.37C182.15 98.2798 191.52 91.4298 202.36 86.4898C206.68 84.5198 211.28 83.2898 215.81 81.8998C219.43 80.7898 221.98 78.5598 223.96 75.4698C224.42 74.7598 224.38 74.0198 224.38 73.2598C224.38 69.2198 224.38 65.1798 224.38 61.1398C224.38 57.0998 224.17 57.0898 226.43 54.1398C228.2 51.8198 230.16 49.8698 233.86 49.9998C244.13 50.3598 254.43 50.3598 264.69 50.0098C268.95 49.8698 271.22 51.8698 273.32 54.9498C274.36 56.4698 274.69 58.0198 274.64 59.8198C274.55 63.3398 274.6 66.8698 274.62 70.3898C274.63 72.5998 274.22 74.8798 275.92 76.7898C277.9 79.0198 280.05 80.8898 282.97 81.8698C288.97 83.8798 294.98 85.8598 300.62 88.8598C314.57 96.2898 325.75 106.6 333.86 120.18C339.23 129.18 342.54 139.01 344.35 149.27C345.18 153.96 345.6 158.77 345.8 163.57C345.99 168.2 345.94 172.85 346.32 177.44C346.82 183.55 346.58 189.64 346.63 195.73C346.73 209.09 346.75 222.46 346.63 235.83C346.52 248.04 344.81 260.03 340.46 271.51C337.31 279.82 332.36 287.08 326.87 294.03C324.63 296.87 321.89 299.2 319.49 301.86C317.05 304.56 316.17 307.51 316.25 310.96C316.29 312.57 316.25 314.19 316.25 315.81" stroke="#2071B5" stroke-width="4.21" stroke-linecap="round" stroke-linejoin="round"/>
<path d="M250.38 97.7198C255.97 97.6498 261.56 97.6498 267.12 98.1798C273.26 98.7598 278.98 100.87 284.52 103.46C296.7 109.14 306.32 117.72 313.62 129C317.64 135.21 320.84 141.82 323.02 148.86C324.32 153.06 325.27 157.37 325.6 161.83C325.8 164.63 325.87 167.41 325.95 170.21C326.24 179.92 323.93 189.14 320.15 197.94C316.35 206.79 311.01 214.74 304.61 222.01C298.47 228.98 291.96 235.66 286.94 243.56C280.5 253.68 276.14 264.64 274.03 276.41C272.58 284.48 272.39 292.68 273.52 300.85C273.85 303.21 274.49 305.51 274.62 307.9" stroke="#2071B5" stroke-width="4.21" stroke-linecap="round" stroke-linejoin="round"/>
<path d="M249.5 97.4902C248.64 97.8002 247.74 97.7302 246.86 97.7002C239.99 97.5302 233.16 97.8202 226.37 99.0102C217.23 100.62 209.49 105.26 202.18 110.54C194.19 116.32 187.63 123.58 182.54 132.07C178.43 138.92 175.63 146.32 173.99 154.11C172.51 161.15 172.49 168.4 173.2 175.46C174.55 188.92 178.72 201.57 186.74 212.69C189.64 216.71 192.78 220.54 196.18 224.17C204.65 233.19 212.37 242.74 217.58 254.11C221.2 262.01 223.85 270.15 225.11 278.79C225.99 284.81 226.24 290.86 225.83 296.86C225.42 302.92 224.26 308.94 222.15 314.7C221.97 315.18 222.08 315.6 221.97 316.04" stroke="#2071B5" stroke-width="4.21" stroke-linecap="round" stroke-linejoin="round"/>
<path d="M234.08 83.4002C231.22 83.3102 228.6 84.4102 225.94 85.1802C210.58 89.6202 197.21 97.4702 185.83 108.72C179.56 114.92 174.58 122.11 170.74 129.93C165.55 140.48 162.73 151.77 161.99 163.59C161.57 170.28 161.64 176.96 161.62 183.64C161.59 195.61 161.4 207.58 161.43 219.55C161.45 226.52 161.33 233.52 161.67 240.48C162.09 249.16 163.46 257.72 166.2 266.05C170.07 277.81 176.18 288.17 184.74 297.1C185.47 297.86 186.34 298.53 186.28 299.74" stroke="#2071B5" stroke-width="4.21" stroke-linecap="round" stroke-linejoin="round"/>
<path d="M234.52 83.18C235.31 82.88 236.13 82.96 236.94 82.96C243.99 82.96 251.05 83.16 258.09 82.89C263.6 82.68 268.83 83.7 273.94 85.42C283.33 88.58 292.4 92.44 300.63 98.13C312.74 106.52 322.03 117.2 328.42 130.51C331.83 137.6 334.3 144.98 335.98 152.59C337.01 157.24 337.44 162.06 337.42 166.89C337.36 190.24 337.62 213.6 337.29 236.95C337.13 248.41 335.18 259.68 330.84 270.46C328.77 275.59 326.37 280.49 323.51 285.2" stroke="#2071B5" stroke-width="4.21" stroke-linecap="round" stroke-linejoin="round"/>
<path d="M250.12 50.5498C249.66 158.43 250.28 272.27 250.16 380.15" stroke="#2071B5" stroke-width="4.21" stroke-linecap="round" stroke-linejoin="round"/>
<path d="M250.16 158.3C250.86 158.77 251.63 158.5 252.36 158.51C276.15 158.53 299.95 158.53 323.74 158.53" stroke="#2071B5" stroke-width="4.21" stroke-linecap="round" stroke-linejoin="round"/>
<path d="M153.01 234.75C152.63 237.61 152.82 240.47 152.99 243.34C153.43 251.12 154.64 258.76 156.76 266.25C159.71 276.67 164.52 286.09 171.72 294.24C173.84 296.64 175.67 299.33 178.79 300.61" stroke="#2071B5" stroke-width="4.21" stroke-linecap="round" stroke-linejoin="round"/>
<path d="M249.72 158.52H173.71" stroke="#2071B5" stroke-width="4.21" stroke-linecap="round" stroke-linejoin="round"/>
<path d="M325.87 177.58C325.87 196.75 327.45 215.8 327.19 234.96C327.06 244.62 325.49 254.16 322.42 263.38C320.37 269.51 317.18 275.08 313.84 280.57C309.44 287.8 303.57 293.61 296.65 298.41" stroke="#2071B5" stroke-width="4.21" stroke-linecap="round" stroke-linejoin="round"/>
<path d="M274.39 231.66C272.06 237.19 269.55 242.63 267.72 248.38C265.41 255.6 263.81 262.93 262.95 270.43C262.02 278.63 261.76 286.86 262.32 295.1C262.43 296.71 262.28 298.36 262.71 299.95" stroke="#2071B5" stroke-width="4.21" stroke-linecap="round" stroke-linejoin="round"/>
<path d="M301.71 188.04C298.13 189.13 294.63 190.44 290.93 191.2C286.39 192.13 281.86 192.84 277.26 193.36C264.87 194.77 252.44 194.18 240.02 194.15C230.64 194.12 221.28 193.39 212.04 191.57C207.16 190.61 202.43 189.16 197.72 187.6" stroke="#2071B5" stroke-width="4.21" stroke-linecap="round" stroke-linejoin="round"/>
<path d="M173.41 177.47C173.77 187.75 172.37 206.84 172.39 217.13C172.4 224.11 172.34 231.1 172.7 238.05C173.1 245.8 174.36 253.43 176.44 261C178.61 268.9 182.01 276.01 186.45 282.8C190.1 288.37 194.28 293.49 199.5 297.52C201.82 299.31 203.06 299.74 203.5 299.96" stroke="#2071B5" stroke-width="4.21" stroke-linecap="round" stroke-linejoin="round"/>
<path d="M222.84 236.95C226.52 243.87 230.27 250.73 232.58 258.31C234.96 266.1 236.49 273.99 236.98 282.12C237.17 285.28 237.12 288.44 237.15 291.6C237.18 294.4 237.33 297.21 236.72 299.97" stroke="#2071B5" stroke-width="4.21" stroke-linecap="round" stroke-linejoin="round"/>
<path d="M230 388C230.7 388.43 233.57 388.51 234.3 388.51C246.64 388.53 258.97 388.51 271.31 388.52C273.66 388.52 276.03 388.31 278.36 388.74C280.93 389.21 281.27 390.12 281.25 392.04C281.18 398.5 281.23 404.96 281.22 411.43C281.22 413.62 280.41 414.45 278.14 414.5C275.86 414.55 273.59 414.5 271.31 414.51C270.55 414.51 268.65 413.95 268 414.51" fill="#FFDA00" fill-opacity="0.7"/>
<path d="M230 388C230.7 388.43 233.57 388.51 234.3 388.51C246.64 388.53 258.97 388.51 271.31 388.52C273.66 388.52 276.03 388.31 278.36 388.74C280.93 389.21 281.27 390.12 281.25 392.04C281.18 398.5 281.23 404.96 281.22 411.43C281.22 413.62 280.41 414.45 278.14 414.5C275.86 414.55 273.59 414.5 271.31 414.51C270.55 414.51 268.65 413.95 268 414.51" stroke="#2071B5" stroke-width="4.21" stroke-linecap="round" stroke-linejoin="round"/>
<path d="M231.43 388.52C227.83 388.68 224.23 388.16 220.63 388.72C218.56 389.04 217.37 390.09 217.35 392.26C217.29 398.72 217.29 405.18 217.35 411.65C217.36 413.24 218.14 414.2 219.97 414.33C224.16 414.63 228.34 414.51 232.53 414.51C241.34 414.51 250.15 414.51 258.97 414.51C262.05 414.51 265.14 414.51 268.22 414.51" fill="#FFDA00" fill-opacity="0.7"/>
<path d="M231.43 388.52C227.83 388.68 224.23 388.16 220.63 388.72C218.56 389.04 217.37 390.09 217.35 392.26C217.29 398.72 217.29 405.18 217.35 411.65C217.36 413.24 218.14 414.2 219.97 414.33C224.16 414.63 228.34 414.51 232.53 414.51C241.34 414.51 250.15 414.51 258.97 414.51C262.05 414.51 265.14 414.51 268.22 414.51" stroke="#2071B5" stroke-width="4.21" stroke-linecap="round" stroke-linejoin="round"/>
<path d="M291.58 343.36C291.61 344.86 290.3 345.03 289.37 345.56C287.25 346.76 285.05 347.79 282.93 349C281.54 349.79 281.2 350.57 281.21 351.96C281.25 357.83 281.23 363.71 281.23 369.58C281.23 373.69 279.51 375.49 275.28 375.73C274.89 375.75 274.56 375.94 274.14 376.02C273.57 379.99 273.78 384.04 273.74 388.09" stroke="#2071B5" stroke-width="4.21" stroke-linecap="round" stroke-linejoin="round"/>
<path d="M189.58 316.26C185.39 316.14 181.21 316.78 177.02 316.28C175.32 316.08 174.51 316.63 174.55 318.68C174.68 325.8 174.6 332.93 174.6 340.05C174.6 342.4 174.87 342.69 177.24 342.69C186.27 342.7 195.31 342.69 204.34 342.69C205.68 342.69 206.75 342.69 207.76 344.15C208.77 345.61 210.82 346.24 212.49 347.09C216.01 348.883 217.773 351.75 217.78 355.69C217.78 361.12 217.78 366.56 217.78 371.99C217.78 374.3 218.96 375.54 221.3 375.74C224.24 375.99 224.33 376.13 224.39 379.04C224.45 382.05 224.14 385.07 224.6 388.07" stroke="#2071B5" stroke-width="4.21" stroke-linecap="round" stroke-linejoin="round"/>
<path d="M309.42 316.26C313.46 316.26 317.5 316.32 321.54 316.26C323.23 316.23 323.99 316.96 323.98 318.69C323.94 326.03 323.93 333.38 323.99 340.72C324.01 342.43 323.2 342.73 321.76 342.72C316.47 342.67 311.19 342.7 305.9 342.7H250.38" stroke="#2071B5" stroke-width="4.21" stroke-linecap="round" stroke-linejoin="round"/>
<path d="M209.18 342.26C208.71 336.68 209.04 331.1 208.98 325.52C208.96 323.53 208.69 321.56 208.73 319.57C208.77 316.94 209.16 316.49 211.83 316.49C232.61 316.49 253.39 316.49 274.18 316.49C278.59 316.49 282.99 316.48 287.4 316.49C289.47 316.49 290.04 317.06 290.04 319.13C290.05 325.89 290.03 332.64 290.06 339.4C290.06 340.37 289.68 341.29 289.82 342.26" stroke="#2071B5" stroke-width="4.21" stroke-linecap="round" stroke-linejoin="round"/>
<path d="M262.06 285.42H189.36" stroke="#2071B5" stroke-width="4.21" stroke-linecap="round" stroke-linejoin="round"/>
<path d="M309.2 285.42H274.39" stroke="#2071B5" stroke-width="4.21" stroke-linecap="round" stroke-linejoin="round"/>
<path d="M308.98 316.26C305.1 316.77 301.19 316.35 297.3 316.47C295.28 316.54 294.88 316.88 294.88 318.9C294.88 330.36 294.88 341.81 294.88 353.27C294.88 355.55 295.26 355.91 297.52 355.91C303.17 355.91 308.83 355.86 314.48 355.95C316.07 355.98 316.52 355.42 316.49 353.93C316.42 350.33 316.47 346.73 316.47 343.14" stroke="#2071B5" stroke-width="4.21" stroke-linecap="round" stroke-linejoin="round"/>
<path d="M190.24 316.26C193.24 316.67 196.26 316.38 199.27 316.48C199.34 316.48 199.42 316.48 199.49 316.48C203.63 316.69 204.18 315.37 204.14 320.67C204.06 331.54 204.08 342.41 204.14 353.27C204.15 355.6 203.8 355.98 201.47 355.94C196.04 355.85 190.6 355.87 185.17 355.94C183.51 355.96 182.89 355.4 182.94 353.71C183.04 350.19 182.97 346.66 182.97 343.14" stroke="#2071B5" stroke-width="4.21" stroke-linecap="round" stroke-linejoin="round"/>
<path d="M345.33 234.53C330.5 234.06 315.66 234.43 300.83 234.31" stroke="#2071B5" stroke-width="4.21" stroke-linecap="round" stroke-linejoin="round"/>
<path d="M190.24 308.33C189.97 308.49 190.03 308.74 190.02 308.99C189.42 320.15 189.61 331.31 189.58 342.48" stroke="#2071B5" stroke-width="4.21" stroke-linecap="round" stroke-linejoin="round"/>
<path d="M309.2 308.33V355.7" stroke="#2071B5" stroke-width="4.21" stroke-linecap="round" stroke-linejoin="round"/>
<path d="M180.76 316.92C180.87 325.44 180.52 333.96 180.98 342.48" stroke="#2071B5" stroke-width="4.21" stroke-linecap="round" stroke-linejoin="round"/>
<path d="M318.46 316.7C318.46 323.9 318.46 331.09 318.46 338.29C318.46 339.62 318.53 340.95 318.24 342.26" stroke="#2071B5" stroke-width="4.21" stroke-linecap="round" stroke-linejoin="round"/>
<path d="M207.2 343.14C208.53 342.35 209.98 342.71 211.39 342.7C224.24 342.7 237.09 342.7 249.94 342.7" stroke="#2071B5" stroke-width="4.21" stroke-linecap="round" stroke-linejoin="round"/>
<path d="M197.73 234.31C186.57 234.31 175.41 234.29 164.24 234.31C159.83 234.32 155.41 234.08 151.02 234.74" stroke="#2071B5" stroke-width="4.21" stroke-linecap="round" stroke-linejoin="round"/>
<path d="M316.03 308.11C312.58 307.74 309.12 308.28 305.68 308.11C300.98 307.87 296.28 308.2 291.58 307.96C286.3 307.69 281 307.84 275.72 308.33C275.43 308.36 275.06 308.48 274.84 308.12" stroke="#2071B5" stroke-width="4.21" stroke-linecap="round" stroke-linejoin="round"/>
<path d="M231.21 351.29C231.51 352.08 231.43 352.9 231.43 353.71C231.43 360.91 231.43 368.1 231.43 375.3" stroke="#2071B5" stroke-width="4.21" stroke-linecap="round" stroke-linejoin="round"/>
<path d="M268.98 350.41C269.03 359.3 268.67 370.38 268.65 379.27C268.65 380 268.74 383.53 268.67 388.74" stroke="#2071B5" stroke-width="4.21" stroke-linecap="round" stroke-linejoin="round"/>
<path d="M230.11 414.96C229.97 421.64 230 428.33 230.07 435.01C230.1 437.97 229.03 441.08 230.42 444.1C230.68 444.66 230.11 446.08 230.11 447.13C230.12 449.2 230.68 449.72 232.75 449.78C238.48 449.95 244.21 449.76 249.93 449.78" stroke="#2071B5" stroke-width="4.21" stroke-linecap="round" stroke-linejoin="round"/>
<path d="M310.97 300.4C308.57 299.65 306.12 300.19 303.7 300.18C293.64 300.18 283.58 300.18 273.52 300.18" stroke="#2071B5" stroke-width="4.21" stroke-linecap="round" stroke-linejoin="round"/>
<path d="M268.67 388.74C268.67 395.64 268.44 402.56 268.73 409.45C269.06 417.53 269.09 425.61 269.11 433.69C269.12 437.8 269.13 441.91 269.11 446.03C269.09 448.61 267.9 449.78 265.37 449.77C260.96 449.76 256.56 450.08 252.15 449.99C251.48 449.98 250.8 450.1 250.17 449.77" stroke="#2071B5" stroke-width="4.21" stroke-linecap="round" stroke-linejoin="round"/>
<path d="M198.17 137.37C195.73 142.77 193.58 148.24 192.37 154.1C191.19 159.8 190.69 165.49 190.62 171.3C190.52 179.43 192.56 187.07 195.08 194.65" stroke="#2071B5" stroke-width="4.21" stroke-linecap="round" stroke-linejoin="round"/>
<path d="M250.16 380.15C250.17 384.39 250.18 387.08 250.07 389.4C249.96 391.68 250 393.96 249.98 396.23C249.88 404.38 249.8 412.54 249.98 420.68C250.12 426.78 250.14 432.87 250.12 438.97C250.12 440.65 249.94 442.35 249.94 444.04" stroke="#2071B5" stroke-width="4.21" stroke-linecap="round" stroke-linejoin="round"/>
<path d="M231.43 394.03C231.54 400.79 231.18 407.55 231.65 414.3" stroke="#2071B5" stroke-width="4.21" stroke-linecap="round" stroke-linejoin="round"/>
<path d="M273.07 299.96C272.36 300.31 271.6 300.17 270.87 300.18C260.15 300.18 249.43 300.18 238.71 300.18C228.94 300.18 219.17 300.32 209.41 300.14C201.77 300 194.14 300.37 186.49 300.08C184.63 300.01 182.66 299.79 180.76 300.13C179.89 300.28 179.48 301.31 179.98 302.03L183.68 307.37C183.91 307.71 183.96 308.14 183.81 308.52L180.73 316.26" stroke="#2071B5" stroke-width="4.21" stroke-linecap="round" stroke-linejoin="round"/>
<path d="M230.55 436.33H268.66" stroke="#2071B5" stroke-width="4.21" stroke-linecap="round" stroke-linejoin="round"/>
<path d="M230.77 444.04C231.25 444.35 231.79 444.26 232.31 444.26C243.69 444.26 255.07 444.26 266.46 444.26C267.13 444.26 267.81 444.34 268.44 444.04" stroke="#2071B5" stroke-width="4.21" stroke-linecap="round" stroke-linejoin="round"/>
<path d="M268.45 350.63C251.63 350.49 234.81 350.92 218 350.41" stroke="#2071B5" stroke-width="4.21" stroke-linecap="round" stroke-linejoin="round"/>
<path d="M234.3 51.8901V77.4101" stroke="#2071B5" stroke-width="4.21" stroke-linecap="round" stroke-linejoin="round"/>
<path d="M273.51 375.52C272.87 374.88 272.06 375.09 271.31 375.09C258.97 375.09 246.64 375.09 234.3 375.07C233.37 375.07 224.77 375.89 223.91 376.2" stroke="#2071B5" stroke-width="4.21" stroke-linecap="round" stroke-linejoin="round"/>
<path d="M250.38 431.7H266.9" stroke="#2071B5" stroke-width="4.21" stroke-linecap="round" stroke-linejoin="round"/>
<path d="M266.02 56.52V80.97" stroke="#2071B5" stroke-width="4.21" stroke-linecap="round" stroke-linejoin="round"/>
<path d="M273.29 56.0799C272.5 56.3899 271.68 56.2999 270.87 56.2999C256.92 56.2999 242.96 56.2999 229.01 56.2999C228.03 56.2999 227.05 56.3499 226.15 55.8599" stroke="#2071B5" stroke-width="4.21" stroke-linecap="round" stroke-linejoin="round"/>
<path d="M236.94 431.7H248.84" stroke="#2071B5" stroke-width="4.21" stroke-linecap="round" stroke-linejoin="round"/>
<path d="M274.39 74.7999C258.67 74.7999 242.96 74.7999 227.24 74.7999C226.43 74.7999 225.6 74.9598 224.82 74.5898" stroke="#2071B5" stroke-width="4.21" stroke-linecap="round" stroke-linejoin="round"/>
<path d="M219.32 393.81C239.29 393.55 259.27 393.83 279.24 393.81" stroke="#2071B5" stroke-width="4.21" stroke-linecap="round" stroke-linejoin="round"/>
<path d="M323.08 285.86C319.79 290.18 317.01 294.83 312.61 298.33C310.53 299.98 309.69 303.09 309.24 305.92C309.14 306.57 308.94 307.22 308.98 307.9" stroke="#2071B5" stroke-width="4.21" stroke-linecap="round" stroke-linejoin="round"/>
<path d="M265.14 83.6201C264.82 87.8201 266.96 91.0401 269.31 94.2101C270.49 95.8101 272.22 96.9601 273.07 98.8201" stroke="#2071B5" stroke-width="4.21" stroke-linecap="round" stroke-linejoin="round"/>
<path d="M189.8 342.92C189.38 347.21 189.66 351.51 189.58 355.81" stroke="#2071B5" stroke-width="4.21" stroke-linecap="round" stroke-linejoin="round"/>
<path d="M196.41 342.92V355.7" stroke="#2071B5" stroke-width="4.21" stroke-linecap="round" stroke-linejoin="round"/>
<path d="M302.15 342.92V355.7" stroke="#2071B5" stroke-width="4.21" stroke-linecap="round" stroke-linejoin="round"/>
<path d="M231.88 375.74C231.88 379.04 231.88 382.35 231.88 385.65C231.88 388.31 231.34 390.93 231.22 393.58" stroke="#2071B5" stroke-width="4.21" stroke-linecap="round" stroke-linejoin="round"/>
<path d="M263.38 440.29C259.28 440.78 255.15 440.38 251.04 440.51" stroke="#2071B5" stroke-width="4.21" stroke-linecap="round" stroke-linejoin="round"/>
<path d="M311.19 285.42H323.31" stroke="#2071B5" stroke-width="4.21" stroke-linecap="round" stroke-linejoin="round"/>
<path d="M248.84 426.41C244.29 426.41 239.73 426.43 235.18 426.39C234.14 426.39 233.12 426.56 232.1 426.63" stroke="#2071B5" stroke-width="4.21" stroke-linecap="round" stroke-linejoin="round"/>
<path d="M248.84 440.51H237.38" stroke="#2071B5" stroke-width="4.21" stroke-linecap="round" stroke-linejoin="round"/>
<path d="M187.81 285.2C184.88 285.68 181.93 285.28 179 285.43C178.12 285.47 177.2 285.18 176.36 285.64" stroke="#2071B5" stroke-width="4.21" stroke-linecap="round" stroke-linejoin="round"/>
<path d="M281 350.41C277.18 350.73 273.36 350.8 269.54 350.41" stroke="#2071B5" stroke-width="4.21" stroke-linecap="round" stroke-linejoin="round"/>
<path d="M224.38 307.89C228.86 308.1 233.34 308.34 237.82 307.9C239.21 307.76 240.6 308.15 242 308.12C249.34 307.92 256.69 308.15 264.03 307.99C267.61 307.92 271.23 307.94 274.82 308.11" stroke="#2071B5" stroke-width="4.21" stroke-linecap="round" stroke-linejoin="round"/>
<path d="M203.5 299.96C207.8 303.23 212.54 305.73 216.46 307.66C217.91 308.37 219.54 308.23 221.07 308.06C221.91 307.96 222.69 307.85 223.5 308.12" stroke="#2071B5" stroke-width="4.21" stroke-linecap="round" stroke-linejoin="round"/>
<path d="M292.9 302.16C289.48 303.54 286.39 305.66 282.77 306.57" stroke="#2071B5" stroke-width="4.21" stroke-linecap="round" stroke-linejoin="round"/>
<path d="M264.59 426.4H252.69" stroke="#2071B5" stroke-width="4.21" stroke-linecap="round" stroke-linejoin="round"/>
<path d="M336.52 158.52H326.83" stroke="#2071B5" stroke-width="4.21" stroke-linecap="round" stroke-linejoin="round"/>
<path d="M172.17 158.52H163.36" stroke="#2071B5" stroke-width="4.21" stroke-linecap="round" stroke-linejoin="round"/>
<path d="M262.5 285.2C265.43 285.71 268.38 285.27 271.31 285.42" stroke="#2071B5" stroke-width="4.21" stroke-linecap="round" stroke-linejoin="round"/>
<path d="M262.94 301.72C263.33 306.6 263.98 311.45 264.92 316.26" stroke="#2071B5" stroke-width="4.21" stroke-linecap="round" stroke-linejoin="round"/>
<path d="M175.04 285.2C172.33 285.68 169.6 285.3 166.89 285.42" stroke="#2071B5" stroke-width="4.21" stroke-linecap="round" stroke-linejoin="round"/>
<path d="M312.07 299.74C314.07 300.61 316.2 299.59 318.25 300.15C318.81 300.3 319.45 300.2 320 300.51" stroke="#2071B5" stroke-width="4.21" stroke-linecap="round" stroke-linejoin="round"/>
<path d="M299.95 308.55C300.01 311.12 299.78 313.7 300.17 316.26" stroke="#2071B5" stroke-width="4.21" stroke-linecap="round" stroke-linejoin="round"/>
<path d="M236.94 300.4C236.11 303.58 236.32 306.89 235.65 310.1C235.22 312.16 234.52 314.16 234.29 316.26" stroke="#2071B5" stroke-width="4.21" stroke-linecap="round" stroke-linejoin="round"/>
<path d="M199.27 308.33C199.75 310.08 199.39 311.86 199.48 313.62C199.52 314.46 199.46 315.29 199.93 316.04" stroke="#2071B5" stroke-width="4.21" stroke-linecap="round" stroke-linejoin="round"/>
<path d="M188.03 300.4C189.02 302.81 190.07 305.2 190.01 307.89" stroke="#2071B5" stroke-width="4.21" stroke-linecap="round" stroke-linejoin="round"/>
<path d="M275.06 308.55C275.2 311.19 276.75 313.5 276.82 316.15Z" fill="#FFDA00" fill-opacity="0.7"/>
<path d="M275.06 308.55C275.2 311.19 276.75 313.5 276.82 316.15" stroke="#2071B5" stroke-width="4.21" stroke-linecap="round" stroke-linejoin="round"/>
<path d="M184.51 307.89C190.31 307.92 196.12 308.32 201.91 308.05C206.61 307.84 211.32 308.18 216.01 307.67" stroke="#2071B5" stroke-width="4.21" stroke-linecap="round" stroke-linejoin="round"/>
<path d="M162.04 158.74C159.85 158.24 157.63 158.65 155.43 158.52" stroke="#2071B5" stroke-width="4.21" stroke-linecap="round" stroke-linejoin="round"/>
<path d="M211.83 221.09L215.8 226.38" stroke="#2071B5" stroke-width="4.21" stroke-linecap="round" stroke-linejoin="round"/>
<path d="M250.16 444.48C250.18 447.34 250.12 446.9 250.16 449.77" stroke="#2071B5" stroke-width="4.21" stroke-linecap="round" stroke-linejoin="round"/>
<path d="M178.34 174.38C179.78 176.17 181.4 177.79 183.19 179.23" stroke="#2071B5" stroke-width="4.21" stroke-linecap="round" stroke-linejoin="round"/>
<path d="M292.02 206.99C290.95 208.69 289.12 209.7 288.05 211.4" stroke="#2071B5" stroke-width="4.21" stroke-linecap="round" stroke-linejoin="round"/>
<path d="M266.02 51.8901V56.0801" stroke="#2071B5" stroke-width="4.21" stroke-linecap="round" stroke-linejoin="round"/>
<path d="M235.49 83.6201C235.81 87.8201 233.67 91.0401 231.32 94.2101C230.14 95.8101 228.41 96.9601 227.56 98.8201" stroke="#2071B5" stroke-width="4.21" stroke-linecap="round" stroke-linejoin="round"/>
<path d="M310.52 184.45C309.34 190.15 308.84 195.84 308.77 201.65" stroke="#2071B5" stroke-width="4.21" stroke-linecap="round" stroke-linejoin="round"/>
<path d="M297.94 138.32C300.38 143.72 302.53 149.19 303.74 155.05C304.92 160.75 305.42 166.44 305.49 172.25C305.59 180.38 303.55 188.02 301.03 195.6" stroke="#2071B5" stroke-width="4.21" stroke-linecap="round" stroke-linejoin="round"/>
</svg>
