<?xml version="1.0" encoding="UTF-8"?>
<svg id="icons" xmlns="http://www.w3.org/2000/svg" viewBox="0 0 500 500">
  <defs>
    <style>
      .cls-1, .cls-2, .cls-3 {
        fill: none;
        stroke: #000;
        stroke-linecap: round;
        stroke-linejoin: round;
      }

      .cls-2 {
        stroke-width: 1.18px;
      }

      .cls-3 {
        stroke-width: 1.03px;
      }
    </style>
  </defs>
  <g>
    <path class="cls-3" d="M161.84,107.71c-.78.52-1.5,1.37-2.34,1.49-3,.43-3.7,2.31-3.94,4.97-.17,1.99-.24,3.96-.23,5.96.07,11.29.03,22.59.03,33.88,0,5.78-.14,11.56.03,17.33.41,13.71.06,27.42.25,41.13.2,14.14.33,28.28.6,42.42.14,7.41.09,14.83.33,22.25.35,10.85-.03,21.73.12,32.59.32,23.11.19,46.21.23,69.32,0,3.97.68,7.93,0,11.9"/>
    <path class="cls-3" d="M168.56,188.67c.68.99.23,2.08.24,3.1.03,62.85.02,125.71.03,188.56,0,1.29-.19,2.61.25,3.88"/>
    <path class="cls-3" d="M146.84,117.54v282.97"/>
    <path class="cls-3" d="M173.22,190.22c0,7.85-.1,15.69.02,23.54.51,35.09-.06,70.19.31,105.27.22,20.69.04,41.39.19,62.08,0,1.03,0,2.07,0,3.1"/>
    <path class="cls-3" d="M280.56,127.89c-.01,6.55-.03,13.11-.24,19.66-.71,21.98.09,43.97-.33,65.96-.34,18.11-.01,36.21-.24,54.32-.05,4.06-.42,8.11.03,12.16"/>
    <path class="cls-3" d="M157.18,391.19v58.81"/>
    <path class="cls-3" d="M334.62,410.08c-.61,2.24.03,4.48,0,6.73-.12,8.45.06,16.9-.18,25.35-.07,2.6.05,5.22.13,7.84,0,.2.01.4.02.6"/>
    <path class="cls-3" d="M334.62,238.59v-117.95c0-.69.04-1.38,0-2.07-.11-1.59-.65-2.79-2.58-2.59"/>
    <path class="cls-3" d="M343.68,96.07c.72,7.75.71,15.51.26,23.28-.08,1.39.28,2.74.28,4.14-.03,33.97-.05,67.94.02,101.91,0,3.53.2,7.07.21,10.61"/>
    <path class="cls-3" d="M183.82,413.19c0,39.06,0-2.25,0,36.81"/>
    <path class="cls-3" d="M214.86,422.24c0,36.04,0-8.39,0,27.65"/>
    <path class="cls-3" d="M229.61,199.79v105.79c-2.59.45-4.59.59-6.75.1-1.71-.4-2.34-1.53-2.24-2.68.82-8.71.31-17.42.4-26.13.01-1.06.7-1.56.99-2.52,1.18.7,2.56.45,3.45,1.48"/>
    <path class="cls-3" d="M225.73,425.09c0,35.09,0-10.18,0,24.91"/>
    <path class="cls-3" d="M289.62,425.35c.44,1.52.52,3.08.52,4.66,0,6.63,0,13.26,0,19.89"/>
    <path class="cls-3" d="M300.48,419.14c.22,3.79-.35,7.56-.07,11.39.38,5.14.73,32.97.07,11.12"/>
    <path class="cls-3" d="M227.8,202.9c.55.82.24,1.73.24,2.59.02,31.56.87,63.14-.25,94.66-.9,25.37-.12,50.71-.82,76.05-.23,8.45-.1,16.9-.19,25.35-.02,1.56-.13,3.11-.28,4.66"/>
    <path class="cls-3" d="M269.96,177.55c-.48,1.79-.25,3.62-.25,5.43,0,25.69.09,51.39-.08,77.08-.04,6.03-.06,12.07-.19,18.11"/>
    <path class="cls-3" d="M334.36,50.64c-.02,10.83-.05,21.67.05,32.5.04,4.31.15,8.62.27,12.93.01.49-.19.7-.32,1.04"/>
    <path class="cls-3" d="M233.23,197.21c3.62,1.17,3.68,1.17,3.61,4.91-.3,15.86-.34,31.73-.2,47.59.06,5.95.2,11.9.2,17.85,0,42.59.11,85.19-.07,127.78-.04,10.34.04,20.69-.18,31.04"/>
    <path class="cls-3" d="M249.78,194.62c.86.34,1.14-.68,1.8-.79.72,1.4-.04,2.78-.03,4.16.06,26.38.06,52.77.01,79.15,0,3.1.48,6.17.11,9.32-.37,3.06-.08,6.2-.08,9.3v18.62c0,3.1,0,6.21,0,9.31,0,2.85.1,5.7-.03,8.53-.09,2,.44,3.26,2.62,3.36"/>
    <path class="cls-3" d="M156.86,51.03c.1,13.03.21,26.06.33,39.09"/>
    <path class="cls-3" d="M261.16,189.45c.5,2.92.21,5.86.26,8.79.15,7.76.02,15.52.14,23.28.09,5.93-.12,11.9-.13,17.85-.04,12.16-.01,24.31-.01,36.47"/>
    <path class="cls-3" d="M338.02,332.55c12.65-7.44,24.96-15.42,37.46-23.06.94.65.55,1.58.55,2.36.02,15,.02,30,.02,45.01,0,4.91-.69,9.96.21,14.71.79,4.19-1.58,5.37-4.11,6.73-9,4.83-17.66,10.23-26.36,15.56-12.57,7.7-25.05,15.56-37.77,23.02"/>
    <path class="cls-3" d="M182.25,50c0,2.85.63,9.34.02,12.18-.11.5-1.08,18.87-.77,19.14"/>
    <path class="cls-3" d="M289.59,49.77c-.1,8.84-.3,17.03-.31,25.86,0,2.44.02,4.84.34,7.24"/>
    <path class="cls-3" d="M300.5,49.9c0,25.35-.02,1.94-.03,27.29,0,2.24.15,4.5-.25,6.73"/>
    <path class="cls-3" d="M157.7,391.46c6.4,2.13,12.92,3.84,19.37,5.78,7.34,2.21,14.68,4.42,22.02,6.61,8.63,2.58,17.24,5.2,25.85,7.8,3.45,1.04,6.85,2.24,10.35,3.09"/>
    <path class="cls-3" d="M157.18,176c-.18-4.31.19-8.63-.23-12.94-.14-1.46.49-2.01,1.51-1.53,5.69,2.68,11.93,3.53,17.87,5.38,9.83,3.06,19.85,5.45,29.75,8.26,9.17,2.6,18.45,4.83,27.65,7.34,5.89,1.61,11.88,2.92,17.6,5.13,1.3.5,2.38-.79,3.63-.28"/>
    <path class="cls-3" d="M225,50c0,20.69-.05-7.47-.05,13.23"/>
    <path class="cls-3" d="M104.93,256.7c.87,5.76,5.21,8.41,9.85,10.56,5.5,2.54,11.07,4.91,17.03,6.32,3.62.86,7.23,1.78,10.89,2.47,1.27.24,1.57.83,1.53,1.86-.19,5.78.26,11.55-.21,17.33-.24,3-.04,6.03-.04,9.05,0,9.4.03,18.8,0,28.19-.03,6.56.43,13.11.24,19.66-.32,10.86-.17,21.73-.22,32.59-.02,4.4,0,8.79,0,13.19"/>
    <path class="cls-3" d="M103.38,359.65c.14,2.21-1.53,3.86-1.82,5.95-.89,6.28,1.12,11.67,5.21,16.27,5.16,5.81,12.17,8.75,19.14,11.61,3.65,1.5,7.33,3.14,11.13,4.09,6.59,1.65,12.63,4.98,19.37,6.05"/>
    <path class="cls-3" d="M215.1,50c0,18.36.07,2.42.07,20.79,0,1.49-26.89,6.71-27.4,8.14"/>
    <path class="cls-3" d="M289.87,165.91c-.41,18.28-.22,36.56-.25,54.84-.02,12.93.19,25.87-.08,38.8-.17,8.03-.17,16.04.07,24.06"/>
    <path class="cls-3" d="M171.15,383.7c-2.09-.12-2.25,1.23-2.36,2.84-.12,1.66.57,2.45,2.1,2.86,10.98,2.98,21.88,6.28,32.86,9.27,6.77,1.84,13.55,3.63,20.17,5.98"/>
    <path class="cls-3" d="M104.93,171.34c0,3.18-.71,6.08-1.86,9.13-1.17,3.1-1.51,6.97,1.12,9.99,1.17,1.34,1.27,2.81,1.27,4.42-.01,16.9,0,33.8,0,50.7,0,.7-.11,1.41.26,2.07"/>
    <path class="cls-3" d="M157.18,204.97c.02-7.5-.03-15-.02-22.49.94-.79,1.8.15,2.02.54,2.09,3.68,6.18,4.19,9.43,5.22,10.86,3.43,22.02,5.84,33.05,8.72,6.03,1.57,12.08,3.07,18.1,4.68,2.31.62,4.69.89,6.99,1.52"/>
    <path class="cls-3" d="M330.48,177.03c0,15.09.1,30.18-.07,45.26-.04,3.35.7,6.78-.44,10.09"/>
    <path class="cls-3" d="M291.68,228.25c7.51,2.05,15.06,3.98,22.48,6.29,8.72,2.72,17.72,4.38,26.39,7.23.94.31,2.39-.66,2.87.97"/>
    <path class="cls-3" d="M172.18,383.96c9.06,3.33,18.4,5.71,27.69,8.21,8.49,2.28,16.92,4.74,25.33,7.3.32.1.69.01,1.03.01"/>
    <path class="cls-3" d="M143.99,201.09c.51,2.66.23,5.35.24,8.02.04,20.18.02,40.35.02,60.53,0,2.07.08,4.15-.26,6.21"/>
    <path class="cls-3" d="M162.36,156.34c12.89,4.23,26,7.71,39.03,11.46,4.09,1.18,8.26,2.28,12.18,4.06"/>
    <path class="cls-3" d="M254.44,337.4c0,14.66,0,29.31,0,43.97,0,1.64-.8,3.67-.09,4.81.81,1.3,3.13,1.07,4.75,1.66,11.07,4.06,22.66,6.49,33.66,10.79,1.15.45,2.56.6,3.85.86.87.18,1.98.13,1.81,1.55"/>
    <path class="cls-3" d="M304.62,351.37c-1.39-.05-2.84.34-4.66-1.18v50.53c2.67-.45,5.14.17,7.5-.72"/>
    <path class="cls-3" d="M370.32,249.2c-6.53-1.37-12.87-3.51-19.39-4.94-2.07-.45-4.08-1.13-6.47-1.35v22.06"/>
    <path class="cls-3" d="M301.51,293.95c-1.63.89-1.29,2.46-1.29,3.88-.01,14.74,0,29.49,0,44.23"/>
    <path class="cls-3" d="M261.68,284.63c-.52,13.02-.15,26.04-.25,39.06-.02,2.33-.11,4.67.25,6.98"/>
    <path class="cls-3" d="M365.92,364.56c-2.6,2.13-6.36,2.57-8.28,5.69-6.12,2.28-11.21,6.38-16.78,9.63-11.09,6.47-22.21,12.87-32.9,19.41.04,5.54.21,10.88-.24,16.23"/>
    <path class="cls-3" d="M255.47,283.34c8.45.86,16.26,4.1,24.52,6.46-.74.89-.78,1.86-.72,2.85.01.17,0,.34,0,.52.18,13.19-.42,26.38-.26,39.57.01.89.14,1.82-.51,2.59"/>
    <path class="cls-3" d="M306.69,295.5c.95,1.16.77,2.54.77,3.88,0,14.05,0,28.11,0,42.16"/>
    <path class="cls-3" d="M289.36,292.65c-.34,14.05-.24,28.11-.28,42.16,0,.86.31,1.77-.24,2.59"/>
    <path class="cls-3" d="M102.6,251.78c-2.56,3.24-1.83,6.83-.44,10.06,3.19,7.41,9.69,11.22,16.74,14.25,3.54,1.52,7.2,2.7,10.86,3.88,1.17.38,2.37.62,3.62.52"/>
    <path class="cls-3" d="M307.98,354.21c0,13.62,0,27.25,0,40.87,0,.95.18,1.93-.25,2.85"/>
    <path class="cls-3" d="M252.11,335.33c-.75,1.49-.51,3.09-.51,4.66-.01,22.93-.03,45.87,0,68.8.01,6.38-.24,12.76.13,19.15"/>
    <path class="cls-3" d="M269.7,333.78c-.85.52-.55,1.37-.49,2.07.14,1.72.91,3.49-.77,4.95-.21.19-.03.83-.03,1.26,0,13.28,0,26.56-.01,39.83"/>
    <path class="cls-3" d="M367.47,315.67c.48.35.25.86.25,1.29.01,13.11.01,26.21,0,39.32,0,.43.23.94-.25,1.29"/>
    <path class="cls-3" d="M374.46,382.93c-.1,1.8-.97,2.92-2.56,3.93-10.16,6.46-20.42,12.76-30.83,18.81-10.83,6.3-21.48,12.89-32.34,19.13-2.17,1.25-4.44,2.7-7.22,2.11"/>
    <path class="cls-3" d="M105.45,270.15c0,10,.02,20,0,30-.02,5,0,10-.16,15.01-.1,3.03,1.72,5.73,3.85,7.69,5.18,4.78,11.2,8.15,18.03,10.23,4.05,1.23,8.13,2.32,12.16,3.61,1.4.44,2.83.21,4.16.71"/>
    <path class="cls-3" d="M278.75,345.16c-.36,15.17-.25,30.35-.24,45.52,0,1-.18,1.93-.54,2.85"/>
    <path class="cls-3" d="M255.21,283.86c-1,.85-.77,2.01-.77,3.1,0,11.55-.03,23.11.03,34.66,0,1.81-.77,3.62-.03,5.43"/>
    <path class="cls-3" d="M225.47,64.26c7.28,2.77,14.73,5.15,22.28,6.83,9.8,2.18,19.21,5.59,28.93,7.93.87.21,1.72.23,2.59.24"/>
    <path class="cls-3" d="M330.23,237.56c.33-1.66.42-3.31-.18-4.95-10.63-2.61-21.18-5.25-31.66-8.15-2.66-.74-5.44-1.43-8.25-1.64"/>
    <path class="cls-3" d="M227.54,168.5c-2.05.05-4.09-.54-5.91-1.14-8.8-2.9-17.71-5.36-26.66-7.71-5.54-1.45-10.98-3.31-16.57-4.6-1.07-.25-1.91-1.17-3.1-1.03"/>
    <path class="cls-3" d="M202.19,130.99c-3.73,5.04-9.15,7.74-14.47,10.63-5.63,3.06-11.13,6.35-17.08,8.77-2.4.98-4.85,1.84-7.24,2.84"/>
    <path class="cls-3" d="M367.73,260.84c0,14.31,0,28.62-.02,42.94,0,.86.31,1.77-.24,2.59"/>
    <path class="cls-3" d="M107.26,158.67c2.42,5.46,6.55,9.01,11.85,11.73,6.3,3.24,13.06,5,19.71,7.15,1.59.51,3.31.05,4.91.52"/>
    <path class="cls-3" d="M372.39,249.46c-3.56,3.47-7.9,5.84-12.17,8.25-6.39,3.61-12.66,7.42-19.12,10.89-12.25,6.58-24.28,13.56-36.22,20.68-.98.58-1.83,1.01-3.15.08-2.33-1.64-5.41-1.51-7.95-2.69-3.15-1.46-6.58-1.82-9.83-2.86-.76-.24-1.57-.4-2.2-1.43-.87-1.42-3-1.08-4.53-1.64-3.65-1.33-7.41-2.25-11.11-3.4-1.14-.35-2.33.2-3.42-.61-1.88,2.29-.45,5.04-1.25,7.39"/>
    <path class="cls-3" d="M269.44,287.74c-.19,3.36-.13,6.73-.19,10.09-.19,10.69-.05,21.38-.1,32.07,0,1.04.5,2.07.03,3.1"/>
    <path class="cls-3" d="M261.68,414.74c3.01,1.87,6.59,1.97,9.83,3.11,8.64,3.05,17.46,5.55,26.13,8.51.65.22,1.35.4,2.06.27"/>
    <path class="cls-3" d="M299.96,417.07c-3.09.33-5.68-1.42-8.53-2.09-7.36-1.74-14.45-4.44-21.74-6.43-2.16-.59-4.26-1.39-6.46-1.82"/>
    <path class="cls-3" d="M104.42,323.69c2.14,3.68,4.83,6.72,8.49,9.12,7.67,5.02,16.25,7.66,24.88,10.27.24.07.51,0,.77,0"/>
    <path class="cls-3" d="M330.48,282.57c0,3.36-.02,6.73,0,10.09.07,10.61-.08,21.21-.26,31.82-.02,1.38.1,2.78-.26,4.14"/>
    <path class="cls-3" d="M144.77,116.25c-5.81,2.68-11.59,5.44-17.36,8.22-4.43,2.13-9.1,3.88-12.86,7.09-3.24,2.77-6.62,5.41-8.9,9.22-1.88,3.14-1.68,6.33-1.17,9.6.2,1.29.98,2.5.98,3.89"/>
    <path class="cls-3" d="M366.44,261.1c-10,5.94-20.18,11.6-30.05,17.77-1.56.97-1.8,1.8-1.82,3.44-.07,6.12-.2,12.27-.03,18.36.16,5.87-.51,11.73,0,17.6.19,2.1-.16,4.3-.17,6.46,0,.89-.19,1.83.51,2.59"/>
    <path class="cls-3" d="M109.59,195.66c5.69,4.54,12.63,6.12,19.41,7.99,3.99,1.1,8.08,1.82,12.15,2.61.6.12,1.26.07,1.55.78"/>
    <path class="cls-3" d="M268.92,125.82c-2.66.88-5.28,0-7.74-.61-6.17-1.53-12.24-3.44-18.37-5.16-3.87-1.09-7.86-1.71-11.66-3.03"/>
    <path class="cls-3" d="M111.14,156.34c3.69,4.67,9.04,6.91,14.28,8.93,4.55,1.75,9.29,3.23,14.17,4.06,1.39.24,2.82-.09,4.15.47"/>
    <path class="cls-3" d="M367.21,307.91c-7.92,5.3-16.16,10.1-24.35,14.94-11.14,6.58-21.91,13.78-33.53,19.58-2.51,1.25-4.61.93-6.77.34-7.18-1.99-14.43-3.69-21.5-6.11-7.21-2.47-14.65-4.15-21.96-6.29-1.95-.57-4.03-.96-5.7-2.29"/>
    <path class="cls-3" d="M335.4,234.2c3.92.3,7.59,1.7,11.37,2.62,7.97,1.93,15.87,4.12,23.81,6.15,2.21.57,3.99,1.73,5.68,3.14"/>
    <path class="cls-3" d="M330.48,240.15c-.57,3.78-.2,7.59-.24,11.38-.06,5.52.04,11.04-.07,16.55-.03,1.3.79,2.59.05,3.88"/>
    <path class="cls-3" d="M157.44,404.39c7.54,2.1,15.04,4.35,22.5,6.72,9.26,2.94,18.61,5.57,27.92,8.33,6.44,1.91,12.93,3.65,19.38,5.49,5.29,1.5,10.58,3.07,15.79,4.86,2.06.71,4.22.95,6.22,1.77,1.6.65,2.67-.39,3.89-1.05"/>
    <path class="cls-3" d="M334.62,241.18v29.49"/>
    <path class="cls-3" d="M261.42,390.17v24.32c-1.24.49-2.39-.02-3.36.51"/>
    <path class="cls-3" d="M376.53,248.42c.77,2.32-.52,4.17-1.61,5.91-.8,1.28-1.04,2.43-1.02,3.92.1,7.67.23,15.35,0,23.02-.27,8.71-.04,17.42-.3,26.12-.04,1.27,1.6,2.06.61,3.37"/>
    <path class="cls-3" d="M316,124.27c-7.4,4.28-14.63,8.83-21.98,13.2-1.18.7-2.1,1.69-2.85,2.84"/>
    <path class="cls-3" d="M306.17,352.4c2.67,2.35,6.16,2.76,9.33,3.82,5.59,1.86,11.1,3.96,16.8,5.45.86.23,1.22.67,1.54,1.34"/>
    <path class="cls-3" d="M108.04,186.86c2.5,4.32,6.93,5.8,11.1,7.81,7.8,3.77,16.18,4.97,24.51,6.24.77-.75.62-1.6.6-2.41-.15-6.64,0-13.28-.12-19.92-.06-3.42-.29-6.9.12-10.34"/>
    <path class="cls-3" d="M367.99,359.13c-1.72-2.38-4.63-2.56-7.02-3.23-4.95-1.38-9.76-3.16-14.69-4.58-.64-.18-1.23-.07-1.83-.21"/>
    <path class="cls-3" d="M254.44,388.1c0,8.71.24,17.43-.11,26.12-.15,3.72-.39,7.41-.15,11.13"/>
    <path class="cls-3" d="M344.35,299.63c-.45,6.38,0,12.77-.14,19.15-.01.55-.08,1.05-.27,1.55"/>
    <path class="cls-3" d="M344.45,275.32c-.57,2.14-.17,4.31-.25,6.47-.2,5.26.32,10.53-.27,15.78"/>
    <path class="cls-3" d="M328.93,284.12c-7.31,3.78-14.16,8.37-21.47,12.16"/>
    <path class="cls-3" d="M334.1,335.33c-4.07,2.69-8.08,5.55-12.45,7.68-4.19,2.04-7.99,4.7-12.09,6.86-.84.44-1.55.42-2.36.46"/>
    <path class="cls-3" d="M198.57,129.96c-4.38,1.69-8.06,4.69-12.39,6.52-3.01,1.27-6.03,2.59-8.82,4.35"/>
    <path class="cls-3" d="M343.68,330.16c.49.31.53.76.53,1.29-.02,5.6-.02,11.21,0,16.81,0,.75-.12,1.44-.52,2.07"/>
    <path class="cls-3" d="M290.65,279.46c3.93,1.96,8.23,2.74,12.43,3.84,1.49.39,2.91.95,4.39,1.32.77.2,1.55.51,2.33,0"/>
    <path class="cls-3" d="M289.36,146.51c.34,4.74.08,9.49.35,14.22.09,1.63-.13,3.12-.35,4.66"/>
    <path class="cls-3" d="M261.68,338.44c-.32,5.6.12,11.21-.02,16.81-.28,10.69-.22,21.38-.21,32.07,0,.41-.31.66-.28,1.03"/>
    <path class="cls-3" d="M273.32,153.75c-.17.17-.32.45-.52.5-3.52.92-3.4,3.69-3.37,6.48.05,5.26.01,10.52.01,15.78"/>
    <path class="cls-3" d="M269.44,340.25c5.12,1.73,10.21,3.53,15.28,5.38.45.16.76.62,1.27.57"/>
    <path class="cls-3" d="M150.97,95.3c-4.74,3.89-7.14,12.04-5.17,17.59"/>
    <path class="cls-3" d="M300.74,401.03c.6,4.56.05,9.14.28,13.71.05,1.03-2.23,1.84-.49,2.75,1.01.53,2.56.26,3.82.04.78-.14,1.64-.45,2.34-.98"/>
    <path class="cls-3" d="M229.09,182.72c0,4.22-.01,8.45.01,12.67,0,.71-.35,1.55.5,2.07"/>
    <path class="cls-3" d="M105.45,327.57c.19,8.54-.32,17.07-.19,25.61.05,3.58-.15,7.24-.05,10.86.09,3.36,1.9,6.15,3.34,9.05"/>
    <path class="cls-3" d="M229.09,169.27c3.66.62,7.09,1.99,10.61,3.09,1.08.34,2.18.74,3.36.54"/>
    <path class="cls-3" d="M333.59,336.37v25.35"/>
    <path class="cls-3" d="M320.14,286.7c-4.47,2.78-9.27,5.03-13.45,8.27-.53.41-1.15.58-1.81.52-3.33-.32-6.6-.76-9.85-1.74-4.94-1.48-9.99-2.62-14.98-3.95"/>
    <path class="cls-3" d="M334.1,347.75c3.49.63,6.81,1.8,10.14,2.95-.29,4.8.32,9.47-.31,14.12"/>
    <path class="cls-3" d="M222.88,181.17v12.93"/>
    <path class="cls-3" d="M273.32,152.72c-20.55-7.46-41.56-13.23-62.48-19.33-2.58-.75-4.66-3.13-7.57-2.6"/>
    <path class="cls-3" d="M335.14,362.75c6.88,2.13,13.8,4.13,20.69,6.21"/>
    <path class="cls-3" d="M248.23,195.66c-3.74,1.08-7.49,2.14-11.38,2.59"/>
    <path class="cls-3" d="M168.82,144.18c-3.49,1.45-6.97,2.94-10.35,4.66"/>
    <path class="cls-3" d="M321.95,343.61c3.25,1.47,6.68,2.38,10.09,3.36"/>
    <path class="cls-3" d="M290.65,127.11c-1.35,2.25-.89,4.83-1.26,7.25-.19,1.27-.13,2.6.22,3.87"/>
    <path class="cls-3" d="M262.91,419.14c.11,5.58-2.51,8.46-6.92,9.57"/>
    <path class="cls-3" d="M260.65,277.91c-2.77,1.48-4.99,3.85-8.02,4.91"/>
    <path class="cls-3" d="M268.41,185.31c-2.25,1.59-4.8,2.64-7.26,3.85-1.46.72-2.64-1.05-4.12-.75"/>
    <path class="cls-3" d="M313.93,114.95c-1.61-.28-2.6,1.03-3.9,1.5-1.68.61-3.06,1.89-4.9,2.12"/>
    <path class="cls-3" d="M269.7,278.69c-.36,2.49-.79,4.98-.26,7.5"/>
    <path class="cls-3" d="M268.66,340.25c-4.77-1.27-9.29-3.43-14.23-4.14"/>
    <path class="cls-3" d="M343.42,93.23c-.61-1.7-2.37-1.9-3.65-2.2-1.19-.28-2.35-.8-3.59-.9"/>
    <path class="cls-3" d="M156.15,96.59c.2,3.72-.85,7.39-.52,11.12"/>
    <path class="cls-3" d="M279.53,282.31c-.03,2.33.12,4.67-.26,6.98"/>
    <path class="cls-3" d="M251.08,412.67c-2.05.27-3.85,1.2-5.75,1.91-2.56.96-5.35,1.78-8.22,1.71"/>
    <path class="cls-3" d="M300.48,342.57c-.07,2.07-1.19,4.14,0,6.21"/>
    <path class="cls-3" d="M268.41,382.67v6.47"/>
    <path class="cls-3" d="M361.01,298.6c2.18.61,4.32,1.36,6.47,2.07"/>
    <path class="cls-3" d="M329.45,100.99c-.13.51.27,1.1-.26,1.55-1.34,1.16-2.36,2.65-3.88,3.62"/>
    <path class="cls-3" d="M320.65,90.64c2.03.69,4.23.66,6.21,1.55"/>
    <path class="cls-3" d="M229.09,170.82c0,3.45,0,6.9,0,10.35"/>
    <path class="cls-3" d="M297.38,122.71c-2.05,1.08-3.91,2.52-6.21,3.1"/>
    <path class="cls-3" d="M333.59,328.87c.14,1.98-.31,3.99.26,5.95"/>
    <path class="cls-3" d="M181.5,102.15c2.56.8,39.34,11.49,41.9,12.29"/>
    <path class="cls-3" d="M279.53,336.37c-.98,1.62-.19,3.5-.78,5.17"/>
    <path class="cls-3" d="M368.25,308.43c-.24,1.72-.53,3.45,0,5.17"/>
    <path class="cls-3" d="M334.62,103.06c-.5,2.76-.79,5.5-.04,8.29.16.61.49,1.79-1,1.54"/>
    <path class="cls-3" d="M332.29,97.37c1.16.05,1.68.6,1.57,1.81-.07.77-.15,1.58.24,2.33"/>
    <path class="cls-3" d="M289.87,285.67c-1.02,1.46-.3,3.11-.52,4.66"/>
    <path class="cls-3" d="M284.44,117.54c-2.44,1.47-5.19,2.57-6.47,5.43"/>
    <path class="cls-3" d="M160.29,90.64c-3.22.7-6.03,2.59-9.31,3.1"/>
    <path class="cls-3" d="M330.48,232.9c1.25.04,2.41.55,3.62.78"/>
    <path class="cls-3" d="M272.54,152.72c1.21,1.15,2.41.23,3.62,0"/>
    <path class="cls-3" d="M251.59,188.15c-.73.85-.48,1.87-.52,2.85"/>
    <path class="cls-3" d="M288.58,114.95c1.7,2.41.87,5.15,1.03,7.76"/>
    <path class="cls-3" d="M289.1,347.23c-.95.03-1.77-.37-2.59-.78"/>
    <path class="cls-3" d="M186.67,79.26c-1.7.75-3.71.73-5.17,2.07"/>
    <path class="cls-3" d="M289.87,81.85c1.56.73,3.17,1.2,4.91,1.03"/>
  </g>
  <path class="cls-1" d="M158.6,450.07c42.09.07,84.49-.05,126.89-.13,5.03,0,10.06-.02,15.09-.02,11.26-.02,22.53-.03,33.78-.03"/>
  <path class="cls-2" d="M156.46,49.98c8.59.01,17.18.02,25.79.02,10.94,0,21.89,0,32.85,0,3.3,0,6.6,0,9.9,0,25.13-.02,50.31-.05,75.5-.09,11.2-.02,22.4-.03,33.6-.05"/>
</svg>