<svg width="500" height="500" viewBox="0 0 500 500" fill="none" xmlns="http://www.w3.org/2000/svg">
<path d="M402.681 176.426L417.667 150.157L420.555 147.358L416.312 167.941L429.222 170.288L413.063 198.182L416.312 178.051L402.681 176.426Z" fill="#FFDA00" fill-opacity="0.7"/>
<path d="M332.75 192.656C337.66 192.626 345.49 197.666 345.49 197.666C341.465 197.435 332.425 197.419 328.46 199.194C323.503 201.413 306.968 204.929 305.027 249.672C303.085 294.416 324.17 298.234 328.46 300.15C331.892 301.682 339.414 302.066 342.746 302.066C340.023 304.108 333.659 308.193 329.988 308.193C326.317 308.193 324.135 307.261 323.503 306.796C322.413 307.516 288.572 306.776 287.452 306.796C282.642 306.896 279.3 305.056 275.65 302.066C273.01 299.896 270.95 297.236 269.06 294.416C265.26 288.756 262.73 282.576 260.73 276.066C258.35 268.346 257.56 260.446 257.16 252.476C256.85 246.326 257.49 240.196 258.37 234.116C259.18 228.546 260.34 223.036 262.34 217.746C265.42 209.596 269.5 202.076 276.43 196.496C279.31 194.176 282.65 192.916 286.36 192.446C288.91 192.126 291.36 192.726 293.87 192.676C299.23 192.576 304.58 192.826 309.94 192.806C315.1 192.786 320.25 192.826 325.4 192.786C326.43 192.776 327.43 193.306 328.46 192.946C329.87 192.456 331.32 192.666 332.75 192.656Z" fill="#FFDA00" fill-opacity="0.7"/>
<path d="M392.5 216.779C390.42 212.279 387.74 208.169 384.37 204.559C381.34 201.299 377.91 198.649 373.23 198.069C371.32 197.829 369.44 197.879 367.57 198.009C365.3 198.169 363.08 197.979 360.83 197.849C358.19 197.689 355.53 197.809 352.87 197.809C350.22 197.809 347.57 198.069 344.91 197.879C344.4 197.839 343.9 197.639 343.73 197.469C340.24 193.839 335.9 192.429 330.99 192.459C329.56 192.469 328.11 192.259 326.7 192.749C325.67 193.109 324.67 192.579 323.64 192.589C318.49 192.629 313.34 192.589 308.18 192.609C302.82 192.629 297.47 192.379 292.11 192.479C289.6 192.529 287.15 191.929 284.6 192.249C280.89 192.719 277.55 193.979 274.67 196.299C267.74 201.879 263.66 209.399 260.58 217.549C258.58 222.839 257.42 228.349 256.61 233.919C255.73 239.999 255.09 246.129 255.4 252.279C255.8 260.249 256.59 268.149 258.97 275.869C260.97 282.379 263.5 288.559 267.3 294.219C269.19 297.039 271.25 299.699 273.89 301.869C277.54 304.859 281.63 306.699 286.44 306.599C287.56 306.579 320.654 307.319 321.744 306.599" stroke="#2071B5" stroke-width="4.20561" stroke-linecap="round" stroke-linejoin="round"/>
<path d="M279.11 182.809C278.67 182.359 278.1 182.509 277.58 182.509C257.07 182.509 236.57 182.449 216.06 182.549C211.18 182.569 75.5002 183.839 71.7202 186.839C64.6202 192.479 60.3902 200.079 57.1302 208.379C55.1502 213.429 53.5702 218.579 52.4702 223.859C51.2202 229.899 50.5502 235.529 50.1802 241.719C49.9102 246.339 49.9302 251.399 50.1802 255.979C50.4102 260.129 51.0902 264.259 51.7502 268.389C52.7702 274.769 54.2902 281.009 56.5702 287.039C60.2102 296.719 65.3402 305.409 73.8602 311.659C76.8902 313.879 211.6 316.049 215.44 316.459C217.29 316.659 219.12 316.679 220.96 316.679C239.58 316.699 258.2 316.789 276.81 316.609C280.22 316.579 283.63 316.959 287.07 316.579C291.92 316.039 296.03 314.069 299.6 310.859C300.94 309.649 302.52 308.639 303.28 306.889" stroke="#2071B5" stroke-width="4.20561" stroke-linecap="round" stroke-linejoin="round"/>
<path d="M303.6 192.301C303.52 192.001 303.72 191.681 303.45 191.381C300.13 187.491 296.17 184.491 291.19 183.171C287.39 182.161 283.32 181.871 279.61 182.951C275.71 184.091 272.05 186.151 269 189.081C262.69 195.131 258.75 202.611 255.68 210.661C253.52 216.341 251.99 222.191 250.84 228.121C249.2 236.541 248.6 245.091 249 253.671C249.25 259.101 249.9 264.511 250.73 269.901C251.82 277.031 253.94 283.781 256.71 290.421C259.73 297.661 263.67 304.231 269.17 309.821C271.48 312.171 274.1 314.091 277.26 315.221C277.79 315.411 278.48 315.631 278.8 316.251" stroke="#2071B5" stroke-width="4.20561" stroke-linecap="round" stroke-linejoin="round"/>
<path d="M365.11 198.42C364.84 198.83 364.46 199.12 364.04 199.33C358.03 202.38 354.17 207.4 351.18 213.26C348.55 218.41 346.78 223.86 345.53 229.49C344.65 233.47 344.07 237.49 343.78 241.57C343.62 243.76 343.43 245.97 343.42 248.15C343.4 252.61 343.8 257.04 344.4 261.47C345.17 267.23 346.38 272.87 348.45 278.29C351.38 285.95 355.44 292.89 362.05 298.03C363.3 299 364.8 299.61 366.02 300.64" stroke="#2071B5" stroke-width="4.20561" stroke-linecap="round" stroke-linejoin="round"/>
<path d="M343.54 197.649C343.09 198.069 342.54 197.949 342.01 197.949C338.13 198.009 334.25 197.769 330.38 198.119C327.38 198.389 324.67 199.569 322.28 201.339C317.78 204.679 314.66 209.119 312.3 214.169C309.34 220.529 307.22 227.099 306.15 234.059C305.28 239.709 304.78 245.369 304.86 251.049C304.95 257.919 305.72 264.739 307.57 271.409C309.68 279.019 312.53 286.299 317.54 292.509C321.92 297.929 327.42 301.199 334.66 301.119C342.92 301.019 351.19 301.099 359.45 301.099C363.33 301.099 367.2 300.999 371.08 301.099C374.61 301.199 377.73 300.049 380.57 298.039C385.58 294.489 388.6 289.329 391.71 284.249C391.87 283.989 391.98 283.469 391.9 283.049" stroke="#2071B5" stroke-width="4.20561" stroke-linecap="round" stroke-linejoin="round"/>
<path d="M361.59 198.27C359.69 199.27 357.65 199.99 355.92 201.32C352.08 204.27 349.2 208.03 346.93 212.21C342.92 219.61 340.77 227.63 339.56 235.91C338.77 241.33 338.35 246.8 338.66 252.28C338.92 256.94 339.37 261.58 340.09 266.22C341.11 272.77 343.05 279 346.02 284.86C348.95 290.63 352.74 295.77 358.51 299.13C359.44 299.67 360.69 299.7 361.27 300.8" stroke="#2071B5" stroke-width="4.20561" stroke-linecap="round" stroke-linejoin="round"/>
<path d="M428.47 217.4C428.03 216.95 427.46 217.1 426.94 217.1C423.73 217.1 420.51 217.1 417.3 217.1H401.54C394.55 217.1 387.56 217.06 380.58 217.12C377.35 217.15 374.15 216.78 370.94 216.67C366.69 216.52 363.47 218.58 361.01 221.86C357.84 226.09 356.17 230.98 355.02 236.08C354.2 239.76 353.7 243.49 353.5 247.25C353.33 250.53 353.55 253.8 353.98 257.04C354.52 261.11 355.24 265.15 356.85 268.99C358.49 272.91 360.33 276.67 363.43 279.71C365.89 282.13 368.81 283.02 372.17 282.75C373.14 282.67 374.16 283.06 375.08 282.45C375.1 282.43 375.1 282.34 375.08 282.3C375.04 282.24 374.98 282.2 374.93 282.14" stroke="#2071B5" stroke-width="4.20561" stroke-linecap="round" stroke-linejoin="round"/>
<path d="M325.17 193.22C321.36 194.61 318.1 196.86 315.41 199.83C313.24 202.22 311.47 204.95 309.88 207.76C307.1 212.68 305.05 217.91 303.61 223.37C302.1 229.09 301.12 234.89 300.64 240.81C300.18 246.48 300.3 252.14 300.44 257.8C300.59 263.73 301.79 269.55 303.46 275.24C305.79 283.16 309.15 290.56 314.26 297.16C317.27 301.05 320.99 303.94 325.36 305.92C327.58 306.93 330.22 306.86 332.67 306.57C336.89 306.07 340.64 304.39 343.85 301.56" stroke="#2071B5" stroke-width="4.20561" stroke-linecap="round" stroke-linejoin="round"/>
<path d="M421.12 143.331C420.96 145.311 420.71 148.561 420.18 150.521C418.66 156.111 417.65 161.821 415.94 167.361C415.82 167.761 415.98 168.241 415.77 168.661C416.3 168.991 416.88 168.891 417.45 168.891C421.22 168.891 425 168.891 428.77 168.891C429.34 168.891 429.96 168.721 430.45 169.191" stroke="#2071B5" stroke-width="4.20561" stroke-linecap="round" stroke-linejoin="round"/>
<path d="M401.07 178.079C405.55 178.049 410.04 178.059 414.52 178.079C415.03 178.079 415.57 177.919 416.24 178.289C416.1 179.799 415.53 181.299 415.16 182.799C413.82 188.259 412.09 196.739 410.95 202.239" stroke="#2071B5" stroke-width="4.20561" stroke-linecap="round" stroke-linejoin="round"/>
<path d="M314.46 200.41C312.45 200.76 310.72 201.83 308.97 202.74C302.5 206.15 296.08 209.67 289.98 213.72C285.31 216.83 280.59 219.84 276.2 223.36" stroke="#2071B5" stroke-width="4.20561" stroke-linecap="round" stroke-linejoin="round"/>
<path d="M276.51 276.16C281.85 280.01 287.28 283.72 292.88 287.19C298.83 290.87 304.94 294.26 311.4 296.97C312.38 297.38 313.29 298.09 314.46 297.9" stroke="#2071B5" stroke-width="4.20561" stroke-linecap="round" stroke-linejoin="round"/>
<path d="M421.12 143.331C419.68 144.161 419.13 145.721 418.41 147.031C413.08 156.651 407.46 166.091 402 175.631C401.6 176.321 401.19 177.021 401.07 177.841" fill="#FFDA00" fill-opacity="0.7"/>
<path d="M421.12 143.331C419.68 144.161 419.13 145.721 418.41 147.031C413.08 156.651 407.46 166.091 402 175.631C401.6 176.321 401.19 177.021 401.07 177.841" stroke="#2071B5" stroke-width="4.20561" stroke-linecap="round" stroke-linejoin="round"/>
<path d="M299.31 255.8C291.28 262.12 283.79 269.06 275.68 275.57C272.64 272.93 269.14 270.62 266.11 267.73C265.83 267.46 265.5 267.42 265.18 267.28" stroke="#2071B5" stroke-width="4.20561" stroke-linecap="round" stroke-linejoin="round"/>
<path d="M430.46 169.189C427.71 173.149 425.93 177.099 423.61 181.299C420.23 187.419 416.72 193.459 413.44 199.629C412.94 200.569 412.78 201.859 411.48 202.249" stroke="#2071B5" stroke-width="4.20561" stroke-linecap="round" stroke-linejoin="round"/>
<path d="M264.12 214.643C273.21 221.932 282.368 229.143 291.356 236.576C294.252 238.976 297.206 241.298 300.08 243.72" stroke="#2071B5" stroke-width="4.20561" stroke-linecap="round" stroke-linejoin="round"/>
<path d="M376.13 282.131C375.93 282.901 376.5 282.741 376.9 282.741C382.92 282.641 388.94 282.891 394.96 282.631C396.58 282.561 398.22 282.741 399.86 282.741C407.51 282.741 415.16 282.821 422.81 282.711C426.18 282.661 429.54 282.941 432.91 282.621C434.86 282.431 435.98 281.541 436.27 279.541C436.73 276.351 436.08 273.211 435.81 270.051C435.81 270.001 435.81 269.851 435.97 269.591" stroke="#2071B5" stroke-width="4.20561" stroke-linecap="round" stroke-linejoin="round"/>
<path d="M447.75 247.691C450.54 250.291 450.61 256.531 448.67 259.781C448.17 260.621 447.41 261.121 446.53 261.461" stroke="#2071B5" stroke-width="4.20561" stroke-linecap="round" stroke-linejoin="round"/>
<path d="M445.76 234.231C448.52 235.721 450.2 239.451 449.56 242.951C449.32 244.261 449.22 245.661 448.35 246.771C447.83 247.441 447.16 247.951 446.22 247.851C444.74 247.691 443.66 246.971 443.17 245.551C442.56 243.771 442.46 241.901 442.57 240.051C442.67 238.311 442.26 236.891 440.72 235.901C440.3 235.631 439.93 235.251 439.66 234.831C439.38 234.401 439.06 233.891 438.58 234.111C437.17 234.761 436.8 233.331 436.81 232.861C436.88 230.711 435.72 229.471 434.13 228.421C434.01 228.341 433.92 228.221 433.82 228.121" stroke="#2071B5" stroke-width="4.20561" stroke-linecap="round" stroke-linejoin="round"/>
<path d="M444.53 247.691C443.51 248.841 443.3 250.211 443.47 251.671C443.68 253.501 443.21 255.341 443.71 257.191C443.95 258.071 444.19 258.811 444.82 259.491C445.78 260.531 446.72 261.591 446.84 263.151C447.04 265.891 447.35 268.601 445.77 271.121C444.81 272.651 443.82 273.091 442.39 272.641" stroke="#2071B5" stroke-width="4.20561" stroke-linecap="round" stroke-linejoin="round"/>
<path d="M442.39 237.289C443.84 236.669 444.32 235.029 445.6 234.219C445.75 234.119 445.6 234.269 445.6 234.079C445.58 231.319 446 228.479 444.38 225.969C443.37 224.409 441.92 223.849 440.1 224.279" stroke="#2071B5" stroke-width="4.20561" stroke-linecap="round" stroke-linejoin="round"/>
<path d="M433.36 266.821C430.72 267.841 431.23 270.301 430.93 272.331C430.58 274.761 431.38 277.221 430.91 279.671C430.82 280.131 431.23 280.401 431.41 280.721C431.71 281.281 432.37 281.611 432.59 282.271" stroke="#2071B5" stroke-width="4.20561" stroke-linecap="round" stroke-linejoin="round"/>
<path d="M430.15 254.581C429.93 252.521 429.67 250.441 429.05 248.471C428.36 246.271 429.28 244.401 430.39 242.861C431.69 241.051 431.54 239.381 430.88 237.611C430.44 236.451 430.21 235.241 429.9 234.061C429.65 233.131 430.43 232.181 430.47 231.171C430.52 229.911 431.1 228.951 432.29 228.411C433.52 227.861 433.63 226.761 433.49 225.661C433.37 224.791 433.29 223.911 433.39 223.061C433.64 220.951 432.17 219.481 431.49 217.721C431.25 217.091 429.04 217.001 428.48 217.571C427.48 218.581 426.16 219.251 425.79 220.901C425.58 221.851 424.34 222.411 423.53 223.001C421.23 224.691 420.65 227.151 420.09 229.641C419.94 230.311 419.88 231.051 419.89 231.771C419.89 232.501 420.04 233.121 420.66 233.611C421.85 234.561 422.87 235.621 423.49 237.091C423.69 237.571 423.87 238.001 423.88 238.501C423.89 239.621 423.88 240.741 423.88 241.871C423.88 245.201 425.05 246.411 428.47 246.611" stroke="#2071B5" stroke-width="4.20561" stroke-linecap="round" stroke-linejoin="round"/>
<path d="M436.73 255.351C435.34 255.491 435.45 256.991 434.61 257.671C433.53 258.541 433.18 259.761 433.35 261.171C433.45 262.031 433.42 262.911 433.35 263.771C433.22 265.611 433.54 267.231 435.19 268.381C435.53 268.621 435.96 268.901 435.97 269.441" stroke="#2071B5" stroke-width="4.20561" stroke-linecap="round" stroke-linejoin="round"/>
<path d="M443.77 258.25C441.73 258.88 440.65 260.2 440.36 262.38C440.17 263.76 440.11 265.19 439.53 266.54C439.31 267.05 439.25 267.78 439.77 268.38C440.07 268.73 440.29 269.19 440.56 269.58C441.24 270.54 442.23 271.441 442.19 272.641C442.13 274.861 441.97 277.11 440.7 279.06C439.77 280.48 438.84 280.65 437.17 279.85C436.98 279.76 436.7 279.571 436.42 279.671" stroke="#2071B5" stroke-width="4.20561" stroke-linecap="round" stroke-linejoin="round"/>
<path d="M275.59 223.669C272.9 225.959 269.88 227.829 267.16 230.089C263.9 232.799 260.21 234.999 257.23 238.069C256.91 238.399 256.64 238.379 256.3 238.209" stroke="#2071B5" stroke-width="4.20561" stroke-linecap="round" stroke-linejoin="round"/>
<path d="M421.12 260.701C419.99 262.041 420.11 263.741 419.95 265.301C419.75 267.211 420.33 269.121 420.85 270.951C421.43 272.991 423.15 273.161 424.95 272.951" stroke="#2071B5" stroke-width="4.20561" stroke-linecap="round" stroke-linejoin="round"/>
<path d="M363.42 279.69C364.38 280.36 416.42 234.33 417.33 235.11C417.81 235.52 418.04 235.71 417.78 236.37C416.46 239.77 416.53 243.26 417.3 246.77C417.75 248.81 377.54 282.08 376.14 282.12" stroke="#2071B5" stroke-width="4.20561" stroke-linecap="round" stroke-linejoin="round"/>
<path d="M443.46 249.22C443.05 248.89 442.77 248.47 442.54 248C441.91 246.72 440.76 246.39 439.48 246.48C438.02 246.58 437.67 247.86 437.37 248.92C436.97 250.35 437.04 251.89 436.71 253.35C436.33 255.04 437.38 256.18 438.28 257.31C439.09 258.32 439.67 259.42 440.24 260.55" stroke="#2071B5" stroke-width="4.20561" stroke-linecap="round" stroke-linejoin="round"/>
<path d="M431.68 217.549C436.18 216.599 439.09 218.549 439.78 223.209C440.01 224.779 439.42 227.869 438.72 229.409C437.96 229.119 437.21 228.749 436.42 229.329" stroke="#2071B5" stroke-width="4.20561" stroke-linecap="round" stroke-linejoin="round"/>
<path d="M426.94 233.16C426.84 230.96 427.7 228.67 426.33 226.58C426.28 226.51 426.35 226.37 426.33 226.28C425.91 224.77 423.07 225.54 422.44 224.08L359.53 274.56" stroke="#2071B5" stroke-width="4.20561" stroke-linecap="round" stroke-linejoin="round"/>
<path d="M417.601 247.08C418.721 247.27 419.831 247.6 420.971 247.68C421.431 247.71 421.651 247.86 421.921 248.28C422.741 249.56 423.411 250.83 423.291 252.43C423.221 253.4 423.391 254.37 423.511 255.34C423.691 256.76 422.651 257.92 422.041 259.15C421.811 259.6 421.131 259.74 421.131 260.38" stroke="#2071B5" stroke-width="4.20561" stroke-linecap="round" stroke-linejoin="round"/>
<path d="M257.08 260.4C258.76 262.23 260.83 263.6 262.75 265.13C263.16 265.45 263.58 265.73 263.81 266.21" stroke="#2071B5" stroke-width="4.20561" stroke-linecap="round" stroke-linejoin="round"/>
<path d="M437.19 234.69C436.42 235.68 436.35 236.96 435.86 238.08C435.59 238.69 435.31 239.24 434.91 239.77C435.94 242.13 437.03 244.49 438.27 246.78" stroke="#2071B5" stroke-width="4.20561" stroke-linecap="round" stroke-linejoin="round"/>
<path d="M275.29 275.701C272.61 278.301 269.61 280.531 266.71 282.881C265.81 283.611 265.1 284.561 264.12 285.191" stroke="#2071B5" stroke-width="4.20561" stroke-linecap="round" stroke-linejoin="round"/>
<path d="M435.66 255.649C432.77 253.289 430.81 254.319 429.32 256.529C428.38 257.919 427.61 259.519 426.17 260.549" stroke="#2071B5" stroke-width="4.20561" stroke-linecap="round" stroke-linejoin="round"/>
<path d="M425.41 272.639L386.81 282.779L420.36 261.309C419.18 261.059 418.16 260.469 417.79 259.309C417.26 257.679 416.78 256.069 416.75 254.269C416.73 252.729 416.91 251.209 416.84 249.679C416.84 249.679 352.73 245.879 355.02 236.059" stroke="#2071B5" stroke-width="4.20561" stroke-linecap="round" stroke-linejoin="round"/>
<path d="M438.72 229.481C439.41 230.971 439.34 232.511 439.03 234.071" stroke="#2071B5" stroke-width="4.20561" stroke-linecap="round" stroke-linejoin="round"/>
<path d="M427.24 266.67C426.97 268.76 425.73 270.56 425.4 272.64C424.99 275.2 425.33 277.66 426.49 279.98C426.84 280.68 427.59 281.05 428.31 281.37" stroke="#2071B5" stroke-width="4.20561" stroke-linecap="round" stroke-linejoin="round"/>
<path d="M429.541 233.92C428.621 233.72 427.741 233.33 426.791 233.31C425.611 234.45 424.991 235.99 424.041 237.29" stroke="#2071B5" stroke-width="4.20561" stroke-linecap="round" stroke-linejoin="round"/>
<path d="M431.22 268.66C429.75 268.29 428.61 267.31 427.43 266.47C426.79 266.02 426.71 265 426.67 264.22C426.63 263.38 426.47 262.58 426.32 261.77C425.94 259.83 424.35 259.15 422.49 260.07C422.08 260.27 421.71 260.87 421.12 260.39" stroke="#2071B5" stroke-width="4.20561" stroke-linecap="round" stroke-linejoin="round"/>
<path d="M431.07 255.499C432.09 256.469 432.01 258.059 433.06 259.019" stroke="#2071B5" stroke-width="4.20561" stroke-linecap="round" stroke-linejoin="round"/>
<path d="M426.48 246.781C424.93 247.631 424.14 249.091 423.42 250.611" stroke="#2071B5" stroke-width="4.20561" stroke-linecap="round" stroke-linejoin="round"/>
<path d="M439.18 267.74C437.84 267.89 437.17 269.2 435.97 269.58" stroke="#2071B5" stroke-width="4.20561" stroke-linecap="round" stroke-linejoin="round"/>
<path d="M423.72 256.569C424.09 257.589 424.63 258.539 424.79 259.629" stroke="#2071B5" stroke-width="4.20561" stroke-linecap="round" stroke-linejoin="round"/>
<path d="M430.46 229.79C429.43 229.56 428.44 229.19 427.4 229.02" stroke="#2071B5" stroke-width="4.20561" stroke-linecap="round" stroke-linejoin="round"/>
<path d="M434.74 239.74C433.77 239.29 432.8 240 431.83 239.74" stroke="#2071B5" stroke-width="4.20561" stroke-linecap="round" stroke-linejoin="round"/>
<path d="M424.03 244.791C423.27 245.681 422.65 246.671 421.89 247.541" stroke="#2071B5" stroke-width="4.20561" stroke-linecap="round" stroke-linejoin="round"/>
<path d="M435.2 217.7C434.57 218.59 433.9 219.45 433.21 220.3" stroke="#2071B5" stroke-width="4.20561" stroke-linecap="round" stroke-linejoin="round"/>
<path d="M430.76 279.979C429.57 280.539 428.42 281.139 427.85 282.429L354.73 259.669C354.38 255.929 425.79 220.899 425.79 220.899" stroke="#2071B5" stroke-width="4.20561" stroke-linecap="round" stroke-linejoin="round"/>
<path d="M419.9 233.62C419.27 234.16 418.82 234.9 418.06 235.3" stroke="#2071B5" stroke-width="4.20561" stroke-linecap="round" stroke-linejoin="round"/>
<path d="M391.89 283.039L428.31 281.359" stroke="#2071B5" stroke-width="4.20561" stroke-linecap="round" stroke-linejoin="round"/>
<path d="M410.1 217.089C410.1 217.089 356.5 231.539 354.73 237.989" stroke="#2071B5" stroke-width="4.20561" stroke-linecap="round" stroke-linejoin="round"/>
<path d="M392.5 216.781C392.5 216.781 360.07 223.531 357.97 228.101" stroke="#2071B5" stroke-width="4.20561" stroke-linecap="round" stroke-linejoin="round"/>
<path d="M421.12 271.729C421.12 271.729 353.44 257.879 353.43 249.989C353.43 244.559 423.72 217.089 423.72 217.089" stroke="#2071B5" stroke-width="4.20561" stroke-linecap="round" stroke-linejoin="round"/>
<path d="M419.47 261.04C419.47 261.04 352.27 250.07 354.03 241.53" stroke="#2071B5" stroke-width="4.20561" stroke-linecap="round" stroke-linejoin="round"/>
<path d="M417.32 235.111C417.32 235.111 353.62 237.341 358.41 226.031" stroke="#2071B5" stroke-width="4.20561" stroke-linecap="round" stroke-linejoin="round"/>
<path d="M419.89 231.779C419.89 231.779 361.08 232.589 361.76 220.899" stroke="#2071B5" stroke-width="4.20561" stroke-linecap="round" stroke-linejoin="round"/>
<path d="M422.43 224.069C422.43 224.069 363.36 224.929 365.38 217.919" stroke="#2071B5" stroke-width="4.20561" stroke-linecap="round" stroke-linejoin="round"/>
<path d="M405.14 282.43C405.14 282.43 359.21 275.9 357.16 269.73" stroke="#2071B5" stroke-width="4.20561" stroke-linecap="round" stroke-linejoin="round"/>
</svg>
