<svg width="1080" height="637" viewBox="0 0 1080 637" fill="none" xmlns="http://www.w3.org/2000/svg">
<circle cx="276.014" cy="356.526" r="5.42707" stroke="#6496D3" stroke-width="2.72953"/>
<path d="M276.769 350.482L280.542 335.389L323.557 297.656L291.862 340.671L280.542 352.746M270.731 352.746L253.375 350.482L192.248 342.935L246.583 362.556L270.731 359.537M280.542 359.537L291.862 370.857L311.482 431.984L282.051 375.385L274.505 362.556" stroke="#6496D3" stroke-width="2.72953"/>
<path d="M272.239 361.047L270.281 491.69M274.503 362.143L281.248 490.003" stroke="#6496D3" stroke-width="2.72953"/>
<path d="M381.902 501.752C383.547 479.167 393.494 438.488 420.13 456.444C419.993 472.794 420.377 506.49 423.007 510.481C425.638 514.471 433.146 526.553 436.572 532.095C437.12 534.728 436.407 538.996 429.173 535.005C420.13 530.017 407.387 501.752 407.387 499.674C407.387 498.011 407.387 476.535 407.387 466.005M381.902 559.945C384.506 562.716 389.383 568.674 388.068 570.337C386.424 572.415 374.915 584.469 376.559 590.704M409.854 564.102C411.361 565.487 411.745 571.002 401.222 581.975C390.699 592.949 386.424 596.801 385.602 597.355M420.541 559.945C423.008 561.054 427.447 565.016 425.474 571.999C423.007 580.728 421.774 582.391 423.007 601.927M441.094 556.62C442.19 559.529 443.724 567.011 441.094 573.662C437.805 581.975 436.161 591.12 435.339 597.355" stroke="#6496D3" stroke-width="3.41191"/>
<path d="M324.771 533.609H393.449M443.701 529.5L491.859 524.978M299.227 533.609C327.842 514.019 411.121 484.867 515.31 524.978C482.925 547.718 394.37 581.28 299.227 533.609Z" stroke="#6496D3" stroke-width="3.41191"/>
<path d="M422.704 425.034C427.701 425.034 432.023 429.543 432.023 435.455C432.023 441.367 427.701 445.876 422.704 445.876C417.707 445.876 413.386 441.367 413.386 435.455C413.386 429.543 417.707 425.034 422.704 425.034Z" stroke="#6496D3" stroke-width="3.41191"/>
<path d="M528.539 526.96C535.763 515.632 559.548 490.512 596.892 480.656" stroke="#6496D3" stroke-width="3.41191"/>
<path d="M640.989 471.843C639.609 458.887 629.51 435.185 608.974 450.733C588.438 466.28 600.417 501.594 608.974 517.308C612.838 523.51 622.14 535.254 628.434 532.607C629.814 531.918 630.504 528.307 622.223 519.375C611.872 508.211 608.677 479.266 619.325 463.967M586.202 545.426L593.241 560.725C593.655 561.277 593.323 562.793 588.686 564.447C582.89 566.514 569.641 583.881 570.469 588.016M606.904 547.493C609.25 553.834 612.286 567.424 605.662 571.063C597.381 575.611 579.992 587.189 579.992 589.257M616.427 550.801C619.049 553.696 623.879 560.146 622.223 562.793C620.567 565.439 619.877 582.641 619.739 590.911M637.128 545.012C637.956 549.561 638.867 560.725 635.886 568.995C632.905 577.265 630.78 587.051 630.09 590.911" stroke="#6496D3" stroke-width="3.41191"/>
<path d="M638.786 418.425C643.655 418.425 648.105 423.28 648.105 429.948C648.105 436.617 643.655 441.472 638.786 441.472C633.918 441.472 629.468 436.617 629.468 429.948C629.468 423.28 633.918 418.425 638.786 418.425Z" stroke="#6496D3" stroke-width="3.41191"/>
<path d="M639.657 470.918C663.278 468.946 713.372 467.792 724.778 478.945C718.768 495.141 690.226 529.898 624.142 539.361C603.177 543.305 554.704 546.544 528.539 527.954" stroke="#6496D3" stroke-width="3.41191"/>
<path d="M541.77 522.552L604.301 509.112M615.14 505.752C650.574 498.332 722.111 482.485 724.779 478.453" stroke="#6496D3" stroke-width="3.41191"/>
<path d="M160.316 571.322C191.934 553.87 279.05 536.306 374.569 605.669C385.785 614.043 426.228 625.461 502.704 610.877M595.478 605.669C574.177 592.935 540.84 600.363 526.834 605.669C518.423 607.686 510.382 609.412 502.704 610.877M755.647 623.261C706.834 634.412 587.906 647.546 502.704 610.877" stroke="#6496D3" stroke-width="3.41191"/>
<path d="M17.7617 531.284C76.5598 518.055 263.727 484.628 381.911 487.273" stroke="#6496D3" stroke-width="2.27461"/>
<path d="M621.145 540.191C647.604 533.576 720.366 519.685 799.744 517.039C879.121 514.393 1120.19 515.937 1230.81 517.039" stroke="#6496D3" stroke-width="2.27461"/>
<circle cx="147.734" cy="156.04" r="15.4768" stroke="#66BD82" stroke-width="4.54922"/>
<path d="M149.705 140.254L159.567 100.806L271.992 2.1875L189.152 114.613L159.567 146.171M133.926 146.171L88.5612 140.254L-71.2012 120.53L70.8098 171.812L133.926 163.922M159.567 163.922L189.152 193.508L240.434 353.27L163.511 205.342L143.788 171.812" stroke="#66BD82" stroke-width="4.54922"/>
<path d="M137.87 167.859L132.754 509.313M143.787 170.725L161.418 504.903" stroke="#66BD82" stroke-width="4.54922"/>
<path d="M778.17 176.425C771.878 205.367 735.701 202.116 718.399 196.873C698.265 237.134 661.773 219.945 646.044 206.319C619.618 227.71 600.429 211.037 594.137 200.027C562.678 211.352 549.571 195.308 546.949 185.87C540.657 146.862 569.494 138.158 584.699 138.683C592.249 103.449 620.352 106.176 633.46 111.944C668.694 65.3855 707.912 90.4415 723.117 108.789C748.284 98.7225 754.576 119.275 754.576 130.81C765.062 133.956 784.462 147.483 778.17 176.425Z" stroke="#6496D3" stroke-width="3.24527"/>
<path d="M807.027 271.107C814.803 293.367 845.42 287.55 859.756 281.859C880.29 311.802 910.018 294.963 922.315 282.801C946.652 297.296 961.651 282.42 966.107 273.171C993.906 279.273 1003.76 265.441 1005.22 257.762C1007.35 226.43 982.006 222.159 969.068 223.94C959.695 196.83 935.929 201.509 925.217 207.237C891.268 173.685 859.867 196.973 848.41 212.811C826.087 207.135 822.423 223.911 823.381 233.008C814.69 236.433 799.251 248.846 807.027 271.107Z" stroke="#6496D3" stroke-width="3.24527"/>
</svg>
