<svg width="1080" height="639" viewBox="0 0 1080 639" fill="none" xmlns="http://www.w3.org/2000/svg">
<circle cx="181.045" cy="258.377" r="12.9811" stroke="#6496D3" stroke-width="3.24527"/>
<path d="M182.667 245.397L190.78 212.944L283.271 131.812L215.12 224.303L190.78 250.265M169.686 250.265L132.365 245.397L0.931641 229.171L117.762 271.359L169.686 264.869M190.78 264.869L215.12 289.208L257.308 420.642L194.026 298.944L177.799 271.359" stroke="#6496D3" stroke-width="3.24527"/>
<path d="M172.933 268.109L169.688 547.203M177.801 270.467L192.404 547.203" stroke="#6496D3" stroke-width="3.24527"/>
<circle cx="86.9323" cy="487.171" r="42.1886" stroke="#6496D3" stroke-width="3.24527"/>
<path d="M88.5547 529.359V548.831" stroke="#6496D3" stroke-width="3.24527"/>
<rect x="333.572" y="462.826" width="61.6602" height="84.3771" stroke="#6496D3" stroke-width="3.24527"/>
<rect x="343.306" y="449.841" width="12.9811" height="12.9811" stroke="#6496D3" stroke-width="3.24527"/>
<rect x="372.515" y="449.841" width="12.9811" height="12.9811" stroke="#6496D3" stroke-width="3.24527"/>
<path d="M349.797 427.125V443.351M341.684 435.238H357.91M370.891 435.238H385.495" stroke="#6496D3" stroke-width="3.24527"/>
<rect x="401.722" y="462.826" width="61.6602" height="84.3771" stroke="#6496D3" stroke-width="3.24527"/>
<rect x="411.459" y="449.841" width="12.9811" height="12.9811" stroke="#6496D3" stroke-width="3.24527"/>
<rect x="440.666" y="449.841" width="12.9811" height="12.9811" stroke="#6496D3" stroke-width="3.24527"/>
<path d="M417.949 427.125V443.351M409.836 435.238H426.062M439.043 435.238H453.647" stroke="#6496D3" stroke-width="3.24527"/>
<rect x="469.873" y="462.826" width="61.6602" height="84.3771" stroke="#6496D3" stroke-width="3.24527"/>
<rect x="479.607" y="449.841" width="12.9811" height="12.9811" stroke="#6496D3" stroke-width="3.24527"/>
<rect x="508.814" y="449.841" width="12.9811" height="12.9811" stroke="#6496D3" stroke-width="3.24527"/>
<path d="M486.098 427.125V443.351M477.984 435.238H494.211M507.192 435.238H521.796" stroke="#6496D3" stroke-width="3.24527"/>
<rect x="570.478" y="122.076" width="32.4528" height="425.131" stroke="#6496D3" stroke-width="3.24527"/>
<rect x="576.966" y="112.341" width="16.2264" height="9.73583" stroke="#6496D3" stroke-width="3.24527"/>
<path d="M602.93 430.375L630.515 464.45L641.873 547.205H602.93" stroke="#6496D3" stroke-width="3.24527"/>
<path d="M698.989 535.924H652.91L675.949 467.198L698.989 535.924Z" stroke="#6496D3" stroke-width="3.24527"/>
<path d="M674.328 536.734V546.47" stroke="#6496D3" stroke-width="3.24527"/>
<path d="M790.499 403.681H746.378L768.438 219.372L790.499 403.681Z" stroke="#FFDA00" stroke-width="3.24527"/>
<path d="M747.346 397.188L724.629 544.848L789.534 403.678" stroke="#FFDA00" stroke-width="3.24527"/>
<path d="M789.532 395.562L826.853 546.468L747.344 403.676" stroke="#FFDA00" stroke-width="3.24527"/>
<path d="M851.048 277.115H685.826L768.437 256.072L851.048 277.115Z" stroke="#FFDA00" stroke-width="3.24527"/>
<path d="M851.048 316.061H685.826L768.437 295.018L851.048 316.061Z" stroke="#FFDA00" stroke-width="3.24527"/>
<path d="M851.048 354.998H685.826L768.437 333.955L851.048 354.998Z" stroke="#FFDA00" stroke-width="3.24527"/>
<path d="M750.59 376.096H786.288M752.212 348.512H767.628H783.043M758.703 309.568H778.175M763.571 270.625H774.929" stroke="#FFDA00" stroke-width="3.24527"/>
<path d="M570.477 183C607.256 221.402 699.639 290.094 774.929 257.641M570.477 217.075C607.797 256.56 701.586 327.739 778.174 296.585M570.477 257.641C616.451 304.157 723.329 385.181 783.042 337.151" stroke="#FFDA00" stroke-width="3.24527"/>
<path d="M1172.12 170.006C1165.63 199.862 1128.31 196.509 1110.46 191.1C1089.69 232.633 1052.05 214.901 1035.82 200.844C1008.56 222.912 988.763 205.712 982.272 194.353C949.82 206.036 936.298 189.485 933.593 179.749C927.103 139.508 956.851 130.529 972.537 131.07C980.325 94.7233 1009.32 97.5368 1022.84 103.487C1059.19 55.4569 1099.64 81.3047 1115.33 100.232C1141.29 89.8475 1147.78 111.05 1147.78 122.949C1158.6 126.195 1178.61 140.149 1172.12 170.006Z" stroke="#6496D3" stroke-width="3.24527"/>
<path d="M-114.674 147.617C-105.351 174.304 -68.6454 167.33 -51.4579 160.507C-26.8403 196.405 8.79936 176.217 23.542 161.637C52.7203 179.015 70.7013 161.18 76.0445 150.091C109.372 157.408 121.191 140.824 122.934 131.618C125.488 94.0545 95.1053 88.934 79.5944 91.0692C68.3572 58.568 39.8639 64.1769 27.0219 71.044C-13.6789 30.8191 -51.3253 58.7393 -65.0609 77.7275C-91.8232 70.9223 -96.2162 91.0346 -95.0673 101.941C-105.487 106.047 -123.996 120.929 -114.674 147.617Z" stroke="#6496D3" stroke-width="3.24527"/>
<rect x="969.646" y="290.177" width="266.113" height="256.377" stroke="#6496D3" stroke-width="3.24527"/>
<path d="M969.646 318.656H1235.76" stroke="#6496D3" stroke-width="3.24527"/>
<path d="M969.646 347.864H1235.76" stroke="#6496D3" stroke-width="3.24527"/>
<path d="M969.646 377.071H1235.76" stroke="#6496D3" stroke-width="3.24527"/>
<path d="M969.646 406.279H1235.76" stroke="#6496D3" stroke-width="3.24527"/>
<path d="M969.646 435.486H1235.76" stroke="#6496D3" stroke-width="3.24527"/>
<path d="M969.646 464.694H1235.76" stroke="#6496D3" stroke-width="3.24527"/>
<rect x="1011.83" y="480.92" width="42.1886" height="38.9433" stroke="#6496D3" stroke-width="3.24527"/>
<path d="M969.646 428.995L992.363 396.542L1005.34 417.636L1055.94 376.906L1078.36 393.297L1151.38 325.146L1180.59 347.863L1224.78 307.297L1235.76 320.278" stroke="#6496D3" stroke-width="3.24527"/>
<path d="M581.836 87.2654C575.346 41.8305 596.441 -10.0937 674.326 4.51087" stroke="#6496D3" stroke-width="3.24527"/>
<path d="M-12.0488 617.867C-6.09916 631.389 11.3172 650.32 33.385 617.867C39.8756 630.848 58.0491 649.022 78.8189 617.867C85.8503 630.848 104.781 649.022 124.253 617.867C131.825 630.848 151.513 649.022 169.687 617.867C177.259 630.848 196.947 649.022 215.12 617.867C222.693 630.848 242.381 649.022 260.554 617.867C267.045 630.848 285.218 649.022 305.988 617.867C313.56 630.848 333.248 649.022 351.422 617.867C358.453 630.848 377.384 649.022 396.856 617.867" stroke="#DDE7F2" stroke-width="3.24527" stroke-linecap="round" stroke-linejoin="round"/>
<path d="M592.655 572.438C592.655 577.217 596.529 581.092 601.309 581.092C606.088 581.092 609.963 577.217 609.963 572.438C609.963 567.658 606.088 563.783 601.309 563.783C596.529 563.783 592.655 567.658 592.655 572.438ZM601.309 614.626H599.686V616.249H601.309V614.626ZM1118.93 614.626V616.249H1120.55V614.626H1118.93ZM1110.28 572.438C1110.28 577.217 1114.15 581.092 1118.93 581.092C1123.71 581.092 1127.58 577.217 1127.58 572.438C1127.58 567.658 1123.71 563.783 1118.93 563.783C1114.15 563.783 1110.28 567.658 1110.28 572.438ZM601.309 572.438H599.686V614.626H601.309H602.931V572.438H601.309ZM601.309 614.626V616.249H1118.93V614.626V613.003H601.309V614.626ZM1118.93 614.626H1120.55V572.438H1118.93H1117.31V614.626H1118.93Z" fill="#66BD82"/>
<path d="M619.428 572.438C619.428 577.217 623.303 581.092 628.082 581.092C632.862 581.092 636.736 577.217 636.736 572.438C636.736 567.658 632.862 563.783 628.082 563.783C623.303 563.783 619.428 567.658 619.428 572.438ZM628.082 637.343H626.459V638.966H628.082V637.343ZM1468.61 637.343V638.966H1470.23V637.343H1468.61ZM1459.95 572.438C1459.95 577.217 1463.83 581.092 1468.61 581.092C1473.39 581.092 1477.26 577.217 1477.26 572.438C1477.26 567.658 1473.39 563.783 1468.61 563.783C1463.83 563.783 1459.95 567.658 1459.95 572.438ZM628.082 572.438H626.459V637.343H628.082H629.705V572.438H628.082ZM628.082 637.343V638.966H1468.61V637.343V635.72H628.082V637.343ZM1468.61 637.343H1470.23V572.438H1468.61H1466.99V637.343H1468.61Z" fill="#66BD82"/>
<path d="M-89.9355 547.203H1694.97" stroke="#6496D3" stroke-width="3.24527"/>
</svg>
